ply
format ascii 1.0
comment Created by Open3D
element vertex 400
property double x
property double y
property double z
end_header
1.27123 -1.11888 -2.31259
2.46464 -0.357735 -1.26468
2.33428 -0.433148 -1.81435
1.43594 -0.87259 -2.75014
2.56871 -0.309121 -1.46666
0.654556 -1.88216 -1.86961
2.51357 -0.326928 -1.46453
1.75846 -0.919204 -1.20721
1.92602 -0.880897 -0.98185
1.11079 -1.36406 -2.08982
1.12381 -1.49199 -1.42095
1.31508 -1.11541 -2.33246
2.87732 -0.298677 -1.06242
2.03239 -0.560287 -2.00946
2.57676 -0.313637 -1.48261
2.5394 -0.343562 -1.72481
1.54337 -0.751774 -2.57439
0.651014 -1.58958 -2.81758
2.4569 -0.315507 -1.34392
2.74356 -0.282597 -0.673561
1.18469 -1.19616 -2.3771
1.47246 -1.26675 -0.922536
2.16589 -0.457398 -1.76133
1.73648 -0.983974 -0.95804
1.61446 -1.01737 -1.47579
1.34242 -1.16226 -2.34857
2.54833 -0.352931 -0.985287
2.14996 -0.603603 -1.55168
1.64536 -1.24065 -0.678835
2.05566 -0.685226 -1.03665
1.57993 -0.927246 -1.98624
1.53711 -0.865671 -3.05535
1.57491 -1.14905 -1.18453
1.54523 -0.853619 -2.39649
0.565804 -1.601 -2.8797
1.14562 -1.36128 -1.73133
2.02 -0.870383 -0.870862
2.34147 -0.422487 -0.966015
1.24008 -1.42989 -1.4005
0.461093 -2.04948 -2.07741
1.59455 -1.1073 -1.00529
2.25048 -0.503737 -1.79662
2.44746 -0.37262 -1.56255
1.23715 -1.13356 -2.4072
0.272036 -1.98524 -2.65426
1.2042 -1.36951 -1.616
1.87003 -0.722472 -1.73565
2.41719 -0.355822 -1.79672
1.05884 -1.39484 -2.25625
1.11 -1.57143 -1.19389
2.18779 -0.682917 -0.872474
1.80687 -0.758204 -1.79107
1.69459 -0.85203 -1.7315
1.28912 -1.09947 -2.44706
2.06848 -0.520443 -2.34901
1.97831 -0.676155 -2.43334
1.79799 -0.693023 -2.52343
0.730119 -1.79623 -1.62614
0.883018 -1.48363 -2.63575
1.16995 -1.31604 -1.88387
0.611551 -1.71987 -2.46142
1.5109 -0.879719 -2.93179
1.39039 -1.11102 -1.93216
1.45229 -0.972603 -2.25601
0.998671 -1.48228 -1.95729
1.7322 -0.763865 -2.50033
1.44629 -1.23508 -1.14668
0.361621 -1.92954 -2.83798
1.54374 -1.17274 -1.12609
0.84203 -1.45184 -2.412
1.77214 -0.782698 -1.80067
0.793781 -1.76367 -1.58248
2.20191 -0.62388 -1.15259
2.41071 -0.505331 -0.57414
0.798204 -1.67242 -1.9841
1.78258 -0.786356 -2.49345
0.929215 -1.74569 -1.13365
1.08723 -1.65552 -1.05029
1.78269 -0.907135 -1.24874
2.16748 -0.670528 -0.77848
0.847945 -1.67214 -1.83288
2.06671 -0.623072 -1.17165
1.08174 -1.24868 -2.55827
1.43754 -1.15678 -1.34458
0.517036 -2.0075 -1.7073
1.56984 -1.07178 -1.2761
2.64309 -0.307509 -1.45769
2.59173 -0.301007 -0.843587
0.987331 -1.82089 -0.857132
2.10441 -0.56709 -1.93472
1.51856 -1.04254 -1.52709
2.71562 -0.363746 -0.984579
2.15139 -0.778125 -0.867708
0.816226 -1.55356 -2.3226
2.61289 -0.250939 -1.29584
2.09473 -0.840113 -0.622228
0.931698 -1.38699 -2.47203
1.63443 -0.765997 -3.13916
1.04671 -1.40451 -1.9319
0.741322 -1.71821 -2.26001
0.798894 -1.71 -1.73701
1.66685 -0.931915 -1.49122
0.894109 -1.43877 -2.30348
1.01384 -1.63079 -1.27397
0.369831 -1.95123 -2.57178
0.838379 -1.32658 -2.57402
1.75822 -0.842315 -1.38653
1.93048 -0.937103 -0.779011
0.252551 -1.88506 -2.89926
2.07677 -0.789114 -0.938735
1.92222 -0.825556 -1.14467
0.347182 -1.95919 -2.49898
0.922555 -1.62339 -1.80828
1.88278 -0.759508 -1.8545
0.686494 -1.51469 -2.89895
0.0974508 -2.13208 -2.64707
2.34924 -0.510868 -0.770217
0.775979 -1.72786 -1.92822
1.46905 -1.14814 -1.44414
1.83974 -0.76106 -1.82603
2.39951 -0.469138 -1.09867
1.68135 -0.749034 -3.02689
1.03478 -1.3522 -2.33613
0.872414 -1.46484 -2.47057
1.15376 -1.31904 -2.21368
1.44271 -1.17624 -1.41268
1.89341 -0.914168 -1.01425
0.673247 -1.89305 -1.66534
1.60333 -0.781646 -2.81904
0.865369 -1.60155 -2.17049
1.64915 -1.02308 -1.11231
2.12861 -0.697657 -1.31798
0.928593 -1.38213 -2.31118
0.135125 -1.99219 -2.74903
1.65625 -1.07112 -1.09415
0.661953 -1.62587 -2.65654
0.993197 -1.7975 -0.944247
0.833705 -1.77413 -1.49927
1.36972 -0.913017 -2.5988
0.412997 -1.87259 -2.49984
0.333508 -2.10879 -2.15699
1.361 -1.45751 -0.960004
0.775924 -1.43813 -2.79448
0.747552 -1.84667 -1.67611
0.0572957 -2.18761 -2.78721
2.62737 -0.338388 -0.800114
2.16931 -0.502538 -2.09746
2.75753 -0.328539 -0.946591
1.40233 -0.894393 -2.98669
0.964704 -1.56505 -1.78177
0.956184 -1.44126 -2.13128
1.30774 -1.09148 -2.48721
1.12125 -1.19214 -2.45114
1.5006 -1.32543 -0.790118
1.89533 -1.01596 -0.756775
1.7244 -0.708985 -2.81117
2.21996 -0.484431 -1.7556
0.170131 -2.22433 -2.34754
1.39795 -1.41223 -0.866477
1.99893 -0.645641 -1.49213
1.61336 -0.83653 -2.34007
1.58963 -1.32252 -0.531743
1.39689 -1.22958 -1.35557
1.54562 -1.00906 -2.05884
0.793018 -1.48771 -2.71838
2.74789 -0.253129 -1.3455
1.76098 -0.866913 -2.22072
0.974292 -1.70258 -1.05116
0.872284 -1.27707 -2.72041
1.98124 -0.589641 -2.78929
2.09228 -0.562587 -1.95611
0.906744 -1.44849 -2.35136
1.97136 -0.729049 -2.25088
1.40351 -1.44367 -0.907814
2.11012 -0.595706 -2.2549
2.21009 -0.594319 -2.16441
0.607495 -1.81683 -1.93843
0.825503 -1.71558 -1.81211
1.10022 -1.64005 -1.18115
1.19216 -1.46312 -1.34719
2.80105 -0.160327 -1.16141
2.07505 -0.577919 -2.00966
2.43436 -0.322164 -1.45851
2.19714 -0.45483 -2.01302
0.60838 -1.56708 -2.77637
1.42888 -1.22431 -1.23195
2.12574 -0.550291 -1.66032
0.428762 -1.86887 -2.36745
1.05641 -1.12318 -2.67196
2.51363 -0.407694 -1.07581
1.97101 -0.660811 -2.5631
2.52367 -0.364217 -1.33074
0.879723 -1.80182 -1.24205
1.09122 -1.48933 -1.46377
1.6398 -0.800608 -2.16493
1.49735 -0.851376 -3.18877
1.78494 -1.05017 -1.1253
2.42537 -0.394295 -1.6055
2.45452 -0.420822 -0.915652
0.00906626 -2.13953 -2.89641
1.71637 -0.870673 -1.39471
0.488729 -2.00984 -2.01228
0.916011 -1.5292 -2.11779
2.58105 -0.405461 -0.941538
0.285321 -1.98669 -2.6899
1.5492 -1.21827 -0.737869
1.70148 -0.713937 -2.26516
1.67133 -0.833586 -3.01086
0.754724 -1.39312 -2.9495
1.99838 -0.62235 -1.64713
0.425428 -2.10145 -1.86159
1.74527 -0.835045 -1.90996
2.05808 -0.498686 -2.74623
2.17826 -0.572956 -1.74958
1.44767 -1.2741 -0.945296
0.982628 -1.2154 -2.78472
1.7858 -0.795379 -1.84614
1.7075 -0.970489 -1.10856
0.794292 -1.72353 -1.87447
2.4525 -0.426033 -1.83508
1.90637 -0.887638 -0.843541
0.917185 -1.77293 -1.14414
1.54536 -0.866444 -2.50712
2.49406 -0.364845 -1.14719
0.671507 -1.59007 -2.90654
1.02527 -1.11926 -2.89595
1.95379 -0.832452 -0.944306
1.24294 -1.07804 -2.87201
0.928804 -1.44266 -2.3068
1.25706 -1.01239 -2.62154
1.1496 -1.5762 -1.09045
1.20637 -1.05427 -3.01717
2.03251 -0.785408 -0.9573
2.57368 -0.340017 -1.54009
0.678318 -1.853 -1.5569
1.66834 -0.822284 -1.91256
1.42634 -1.28825 -0.964075
0.912409 -1.38686 -2.44177
1.18995 -1.1447 -2.58404
0.0574332 -2.11661 -2.97875
1.41131 -0.883103 -3.09034
0.698085 -1.51389 -2.69142
1.54594 -0.918992 -2.15016
0.743606 -1.49468 -2.68582
1.84964 -0.865255 -1.27687
0.820485 -1.33127 -2.81689
1.02413 -1.4673 -1.92479
1.33465 -1.07761 -2.72858
1.24292 -1.31662 -1.86979
1.03112 -1.66294 -1.31163
1.85197 -0.734111 -2.57385
1.18916 -1.00132 -2.87077
1.3426 -1.22665 -1.5798
1.05125 -1.16143 -2.7697
1.46432 -0.787123 -2.92816
1.40082 -1.10912 -1.71321
1.56154 -1.00389 -1.64144
1.60301 -0.798241 -2.60079
2.78357 -0.168689 -1.19426
1.10395 -1.30115 -2.23967
1.9103 -0.631645 -2.00265
1.3534 -1.3156 -1.32371
2.31441 -0.570279 -1.07109
0.918163 -1.55551 -2.08097
1.99985 -0.727501 -1.38212
0.342446 -1.79436 -2.82577
2.13197 -0.481893 -2.0293
0.480423 -1.83576 -2.37362
1.77919 -0.923719 -0.861284
0.740441 -1.55355 -2.74083
1.24599 -1.32495 -1.63516
0.458825 -1.80193 -2.58378
1.49884 -0.743066 -2.83808
-0.173468 -2.3 -2.95245
1.97022 -0.677652 -1.94936
2.00641 -0.529311 -2.03742
0.351865 -2.08851 -2.01922
1.09132 -1.32942 -2.25622
1.04153 -1.5478 -1.62092
0.868864 -1.51782 -2.28002
1.41889 -1.29173 -1.22871
1.24761 -1.60136 -0.749919
2.21703 -0.554484 -1.41152
0.558024 -1.97939 -1.68665
1.40122 -1.01896 -2.38733
1.32315 -1.20181 -1.83649
1.3543 -0.906675 -2.50623
0.852408 -1.60004 -2.13338
1.14275 -1.29705 -2.04109
2.71179 -0.310163 -0.992046
1.72038 -0.892874 -1.46332
2.0186 -0.664736 -1.14785
1.73518 -0.822515 -2.12423
2.15058 -0.585642 -2.00535
2.47752 -0.298048 -1.05881
1.00979 -1.63981 -1.14581
2.2273 -0.703105 -0.670193
1.26504 -1.02732 -2.88473
1.20645 -1.18376 -2.49818
0.377623 -2.03005 -2.28804
2.45674 -0.439869 -1.22507
2.15736 -0.569705 -1.6656
0.610395 -1.8259 -2.00713
1.07997 -1.27857 -2.29881
0.180792 -2.10767 -2.51717
1.24996 -1.17814 -2.31821
0.868542 -1.54497 -2.23337
2.67354 -0.356232 -0.998314
0.942221 -1.56744 -1.87745
1.21774 -1.22772 -2.06047
0.366404 -1.91266 -2.46944
2.34326 -0.417774 -1.63937
0.757064 -1.743 -1.94011
0.847922 -1.90702 -1.20931
1.51595 -1.16077 -1.12975
1.82357 -0.69769 -1.93938
1.61274 -1.26232 -0.857215
1.17409 -1.10709 -2.94805
0.183714 -1.98456 -2.83281
1.29661 -1.03342 -2.66857
1.66716 -0.851529 -2.27016
1.25316 -1.02951 -2.84413
1.41243 -1.25476 -1.27325
1.86306 -0.604708 -3.02195
2.0803 -0.738188 -0.892467
1.95908 -0.627552 -1.79699
2.59793 -0.248855 -0.920654
1.53468 -1.27436 -0.709225
1.07201 -1.22456 -2.55604
2.23501 -0.491099 -1.23313
1.86329 -0.646934 -2.43249
0.941521 -1.61206 -1.62603
1.93328 -0.637456 -2.85005
0.454455 -1.70618 -2.89687
1.14908 -1.64725 -0.999699
0.630866 -1.78428 -2.10056
0.213247 -1.99395 -2.75583
0.380662 -1.97503 -2.45383
0.461894 -1.99573 -2.01335
2.197 -0.534925 -1.60941
1.24353 -1.18828 -2.64283
2.23524 -0.667691 -0.808701
2.30444 -0.373127 -2.22575
1.06801 -1.53886 -1.57358
1.36293 -1.25831 -1.60977
1.9225 -0.729581 -1.85129
1.93978 -0.681665 -1.55643
2.76565 -0.147316 -1.19977
1.35867 -1.08732 -2.3847
3.01307 -0.179546 -0.850889
1.49026 -1.37573 -0.632693
2.10086 -0.685946 -0.961127
0.90073 -1.60901 -1.55085
2.1411 -0.5886 -2.24237
1.58076 -0.939955 -2.11727
0.427931 -1.79836 -2.65963
1.36943 -1.36082 -1.23533
1.04537 -1.65249 -1.24729
1.24354 -1.45157 -1.112
1.83496 -0.855665 -1.13172
1.78212 -1.11771 -0.807654
0.525362 -2.05307 -1.65531
1.78618 -0.688367 -2.3894
0.567096 -1.65877 -2.68008
0.616536 -2.01568 -1.4287
1.41499 -0.806846 -2.77511
0.510313 -1.77278 -2.58915
1.94732 -0.622834 -1.74314
1.9066 -0.587528 -2.41219
2.79213 -0.228001 -1.1866
0.972355 -1.70665 -1.23293
0.890781 -1.54204 -1.97046
1.41399 -0.907782 -2.69675
0.8582 -1.53502 -2.19101
1.06442 -1.63069 -1.34317
0.79533 -1.51886 -2.56078
1.59863 -0.939764 -1.98917
2.20152 -0.641794 -1.17236
2.02908 -0.663164 -2.42571
1.82411 -0.752822 -1.60815
1.39814 -1.52143 -0.604742
1.63057 -0.908587 -1.70585
0.827254 -1.57837 -2.08783
1.74511 -0.660985 -2.96681
2.59928 -0.228325 -1.76287
2.42051 -0.404652 -1.64541
2.12261 -0.519353 -2.10337
1.5089 -0.955924 -2.23111
0.990564 -1.73498 -1.15285
2.36924 -0.479173 -1.88105
1.06207 -1.18376 -2.68726
1.7984 -0.715153 -2.57101
2.03027 -0.607118 -2.08955
2.53096 -0.439021 -1.34754
1.98333 -0.673102 -1.48713
1.96648 -0.819233 -0.935969
0.975399 -1.22425 -2.84123
1.79942 -0.765073 -1.69461
1.27644 -1.18504 -2.10891
1.27908 -1.17065 -2.4363
