ply
format ascii 1.0
comment Created by Open3D
element vertex 200
property double x
property double y
property double z
end_header
-1.47711 1.41302 1.50026
-1.20765 2.15909 0.455959
-0.781005 -0.0163323 3.1851
-1.23833 2.14989 0.222011
-1.57053 1.38488 0.812199
-1.05541 2.62806 0.314183
-1.29888 0.647475 2.87229
-1.44346 0.13826 2.22977
-1.69685 -0.342065 1.55429
-1.48027 0.800393 2.38501
-1.61194 0.761626 1.92776
-1.15906 1.42791 3.19046
-1.39526 1.39448 2.20648
-0.737089 3.02649 1.08779
-1.32185 1.89186 0.580859
-1.60062 1.06388 1.62642
-1.24554 1.90515 1.45375
-1.17551 -0.616615 1.95263
-1.04574 2.96918 0.0914843
-1.41395 1.73998 0.445048
-1.597 0.970687 1.7974
-1.3222 0.081198 2.41862
-1.08578 2.00208 2.39192
-1.23238 0.335539 2.81035
-1.4031 2.11285 -0.617321
-1.42321 0.229405 2.3337
-1.57313 0.173954 1.99385
-0.970013 0.813101 3.57503
-1.54246 0.320619 2.12269
-0.999877 2.25333 1.94624
-1.54536 2.16008 -1.08394
-0.847027 2.78821 1.07896
-1.0848 1.89348 2.72264
-1.55864 -0.204757 1.80268
-1.46639 -0.536092 1.67629
-1.12431 2.27252 0.773278
-1.43302 2.23935 -0.872823
-1.165 -0.00360257 2.62116
-1.06568 2.56913 0.354581
-1.59155 -0.036305 1.85446
-1.25491 0.480788 2.87318
-1.309 2.57278 -0.712823
-1.2133 -0.040772 2.50025
-1.63793 -0.0922583 1.75421
-0.999816 2.85499 0.322107
-1.08363 -0.27688 2.4599
-1.25513 0.996523 3.07843
-1.29142 1.79385 1.57422
-1.54165 1.67196 -0.166183
-1.07325 2.17515 1.74849
-0.936695 0.109476 3.10286
-1.29567 0.89663 2.96121
-1.01887 2.02406 2.65692
-1.45893 1.79985 -0.137245
-1.18245 2.16061 0.699636
-1.50732 0.69417 2.30266
-1.31909 1.229 2.81005
-1.14054 2.53335 -0.00762456
-1.59059 1.07745 1.65549
-1.23119 2.13082 0.35391
-1.45454 1.84266 -0.247219
-0.707814 2.94672 1.29123
-1.4138 -0.204007 2.01612
-1.18345 0.242569 2.82476
-1.51075 0.000701947 2.01171
-0.584388 0.211682 3.59954
-1.28143 1.6868 2.17362
-0.988705 0.195539 3.10943
-1.55701 -0.151977 1.83892
-1.45432 0.675861 2.46405
-1.42588 1.94507 -0.379504
-1.80984 0.410072 1.52106
-1.70136 0.682186 1.67011
-1.39868 0.902453 2.6511
-0.779884 2.91778 1.1076
-1.51111 1.41612 1.176
-1.66015 1.27458 0.646931
-1.13699 2.78179 -0.187337
-0.794237 2.78688 1.30001
-1.13165 2.79959 -0.173394
-1.13988 1.98576 2.08986
-1.42099 1.55957 1.38345
-1.61904 0.523222 1.97182
-1.28815 0.890214 2.9804
-1.19486 2.11783 0.780478
-1.33906 1.91379 0.298298
-1.40131 1.14887 2.53565
-0.947847 2.77553 0.641629
-1.38895 2.55735 -0.929313
-1.81819 1.08207 0.518924
-1.64799 0.477123 1.89604
-1.52418 -0.366527 1.73702
-1.77718 -0.0790112 1.56723
-0.930297 3.17857 0.415101
-0.932162 2.22903 2.40468
-1.1548 2.28449 0.452566
-0.922633 -0.0612278 2.94602
-1.06417 1.5063 3.36991
-1.21002 -0.144907 2.40011
-1.37502 0.895368 2.72832
-0.355874 0.805754 4.06072
-0.434713 1.24813 4.09587
-0.203137 1.01287 4.14733
1.0088 1.12189 3.98688
0.394927 1.3634 4.12463
1.01514 0.691054 3.95213
0.873439 1.08062 4.02898
0.152038 1.45746 4.13684
-0.378243 1.40703 4.09548
0.0532701 1.46103 4.14073
0.701009 1.35244 4.05766
0.186657 1.12244 4.1702
0.886953 1.24359 4.01821
0.841529 1.19658 4.03517
0.534218 1.1638 4.1161
-0.470339 1.22054 4.08226
0.0320468 0.665726 4.09643
-0.522928 0.332966 3.73739
0.465733 0.716637 4.08756
1.11265 0.921574 3.94775
0.911949 0.763185 3.99358
-0.561856 1.06214 4.02764
0.0301667 1.30656 4.16891
0.212286 1.42702 4.13847
-0.4653 0.394151 3.81575
0.631437 1.36335 4.07376
0.577714 0.80089 4.08255
0.303576 1.63638 4.06243
0.313226 0.56639 4.06701
-0.352238 1.13571 4.12359
-0.327481 1.43298 4.10485
0.85008 1.51627 3.98055
-0.918503 1.1508 3.72353
1.24866 1.06837 3.90736
-0.54645 0.270797 3.67566
1.04339 1.55774 3.91015
1.35964 0.975967 3.86609
-0.115664 0.463073 3.99726
0.362932 1.1184 4.149
1.06614 1.57756 3.89692
-0.629795 0.457709 3.73886
-0.103305 1.40275 4.14954
1.23787 1.23073 3.90563
1.39399 0.800983 3.83995
0.382159 0.592458 4.06872
0.689408 1.47901 4.03478
0.347903 0.786288 4.11735
-0.556936 0.567055 3.85771
-0.833193 1.25013 3.82174
0.091608 1.26286 4.17167
-0.733019 1.13167 3.91688
0.505026 0.799133 4.09623
-0.334255 1.37383 4.11511
1.32352 1.0477 3.88109
-0.660941 1.07359 3.96643
0.689551 1.50217 4.02867
0.50503 0.71361 4.08061
-0.524332 0.853625 4.00039
-0.828589 0.9587 3.79748
-0.70581 0.889522 3.89019
-0.42215 1.14338 4.10034
0.238946 1.49188 4.11966
-0.132172 1.07249 4.16423
-0.161771 1.32432 4.15628
-0.701428 0.551608 3.73647
1.10924 0.748945 3.93103
1.18337 0.924224 3.92429
-0.433086 1.35254 4.08598
0.47521 1.17607 4.12801
-0.857262 0.932628 3.75931
-0.808869 0.984678 3.82417
-0.400445 0.457215 3.88951
-0.693459 0.72364 3.83515
-0.501263 1.25949 4.06688
-0.282058 1.4808 4.10383
0.119261 0.599607 4.08035
0.10818 0.682534 4.10507
0.0844826 1.35958 4.16042
-0.715675 1.11448 3.92969
-0.0397247 1.55782 4.11103
-0.365768 1.48158 4.08067
0.298407 0.691391 4.10169
1.07846 0.873503 3.95507
0.154548 1.10207 4.17202
0.132879 0.638767 4.09284
-0.763924 1.27262 3.8888
0.0743135 1.55791 4.11156
0.316917 1.18782 4.15481
0.0374451 1.31342 4.16805
-0.344212 0.503426 3.94076
0.356296 1.31002 4.13896
-0.0432507 1.49139 4.13185
0.516738 0.804899 4.09503
1.02128 0.840118 3.97003
0.632637 0.943092 4.08752
0.213521 0.741831 4.11902
-0.588488 0.352966 3.70158
-0.412246 1.42148 4.08054
-0.0392934 1.55629 4.11159
0.594334 0.966837 4.09818
