ply
format ascii 1.0
comment Created by Open3D
element vertex 250
property double x
property double y
property double z
end_header
-1.37393 -0.81999 2.66469
-1.72484 1.12108 1.44412
-0.541252 -0.661607 2.29023
-2.39137 -1.22528 1.9094
-0.746458 -1.1748 2.83498
-1.30225 -0.782036 2.06856
-1.43493 0.491603 2.06602
-2.78962 0.501361 1.44513
-1.75173 1.16882 1.20167
-2.67168 0.975396 0.5383
-0.130004 -0.473899 2.48062
-2.83941 -0.182926 1.42457
-0.551696 -1.12518 2.83795
-3.5795 0.423042 0.0245782
-1.92285 -1.2698 1.77437
-3.0065 -0.153488 1.86453
-4.05441 -0.413765 0.826269
-1.49212 -0.938326 2.22339
-1.97511 0.0979726 1.38637
-3.48865 0.0551341 1.31632
-2.67123 0.451711 1.06744
-2.21333 0.933631 1.99315
-0.383736 -0.187398 2.62305
-1.53597 1.13718 1.40126
-2.66366 0.919345 0.188516
-1.63072 0.110837 1.892
-0.356666 -0.614411 2.79257
-2.09793 -0.117198 2.21942
-1.87128 -0.0835705 1.73949
-2.01048 1.34686 0.430124
-3.16999 0.504861 1.47911
-3.37834 0.604376 1.03885
-1.47349 1.34397 1.44556
-0.436743 -1.05718 2.56513
-2.14902 1.18881 0.706803
0.0157001 -0.0742868 2.36021
-1.77349 -1.89348 2.32098
-3.61585 0.38042 -0.0397667
-3.05493 -0.284193 0.806043
-1.31522 -1.10085 2.50648
-1.67035 -1.04581 2.33519
-2.98289 0.757509 0.813793
-1.16568 0.150541 2.00707
0.371264 -0.698121 3.08424
-1.33676 -1.78712 2.4025
-1.91731 1.42947 0.90241
0.3115 -0.91814 2.77558
-2.07312 1.36268 0.438827
-1.58084 -0.488032 1.81384
-2.57619 -0.0111142 1.47459
-2.78354 0.855507 1.02428
-0.336958 -0.907348 2.22736
-2.92912 0.521483 0.958318
-3.10493 0.548056 0.303061
-1.67666 0.966159 1.68561
-2.70546 0.952843 0.560514
-1.58567 1.16746 1.29281
-2.13407 -0.145901 1.64515
-1.64282 -0.466872 2.40613
-0.949965 -1.35264 2.40288
-3.05464 0.892722 0.646687
-3.05915 0.737993 0.0771169
-1.63169 1.58235 0.616044
-2.62908 1.06234 0.285498
-0.81744 -1.13843 2.64645
0.380524 -0.600374 2.54996
-2.71322 -0.0571669 1.44613
-3.05836 0.401554 1.46469
-2.5146 -0.407217 2.09146
0.365401 -0.549481 2.58499
-2.50181 0.56076 1.69166
0.120462 0.125909 2.51054
-2.82983 -1.38836 1.59677
-3.96131 0.0164539 0.503727
-0.171851 -0.743284 2.17267
-2.01027 -1.08483 1.9831
-2.21943 1.11913 1.07583
-2.55657 1.22181 0.500621
-1.64825 -0.496442 2.06065
-2.95964 0.809126 0.628918
-3.27234 0.507415 0.872914
-0.476318 -0.813034 2.49701
-3.9558 -0.00267919 0.65054
-2.1766 0.98975 1.36363
-2.74458 -0.739283 1.91711
-3.10406 0.331611 1.61941
-1.74987 -1.10282 2.41648
-3.42658 0.560704 0.370267
-2.77117 1.25542 1.22517
-0.0981657 -0.887314 2.33447
-2.4532 -1.12793 1.74286
-1.77223 -0.329654 2.34012
-1.71748 0.310042 1.56324
-1.85342 -0.355523 2.56403
-0.480097 -0.781911 2.19368
-2.21933 1.0561 0.764136
-3.90893 -0.00393942 0.76432
-1.92079 1.14346 1.18084
0.341325 -0.22092 2.70108
-0.166704 -0.56183 2.20583
-2.80525 0.757107 0.310939
-1.12264 0.161152 2.08173
0.240389 0.164884 2.64795
-1.3833 0.714981 1.57771
-1.69043 1.53927 0.366852
0.120922 -0.648277 2.80391
-2.0298 1.20159 0.491172
-0.335909 -0.328462 2.53785
-2.13554 1.132 0.995823
-1.50962 0.0109425 1.67565
-3.81147 -0.185817 1.01349
-1.85046 1.34074 0.90268
-1.47652 -1.79088 2.52082
-1.12668 0.0513075 1.63377
0.665595 -0.225541 3.23604
-0.269346 -1.03318 2.76549
-0.79407 -1.18575 2.84952
-1.7667 0.869967 1.14881
-0.59378 -0.71453 2.49935
-2.36778 1.15104 0.239678
0.0342217 -0.822178 2.85018
-3.33802 0.0227501 1.64591
-1.50695 1.14248 1.67914
-1.93581 0.430264 1.70415
-1.01462 -0.628962 2.54686
-2.38923 -0.846005 2.07877
-0.103826 -0.657276 3.12077
-3.3931 -0.624148 1.39886
-1.56855 -0.909522 2.09593
-3.37915 -0.0972969 1.4671
-0.932319 -0.271947 2.29786
-1.407 0.085394 1.79451
-0.141459 0.0125525 2.73541
-0.625497 -0.0271343 2.19016
-2.56312 -0.313425 1.89916
-2.22052 -0.689356 2.13665
-2.08268 0.0632477 1.9358
-1.59519 1.21238 1.82774
-3.23231 -0.204057 1.67094
-1.49555 -1.06952 2.30316
-1.72453 1.42533 0.782837
-0.456204 -0.997293 2.82852
-3.0746 -0.435138 1.53214
-2.03543 -0.423518 2.07278
-3.43079 -0.497766 1.41506
-1.72947 1.47999 0.236587
-0.623776 -0.819363 2.05304
-1.22337 0.580321 2.30748
-0.0896765 -0.971141 3.14822
-3.13213 -0.327702 1.56428
-1.84953 -0.199076 2.0574
-3.23523 0.366268 1.18446
-2.08415 -1.12172 1.87747
-1.58652 1.68328 0.812503
-2.88863 0.294309 1.72584
-3.25715 0.336768 -0.150727
-2.66626 -0.393516 1.37956
-0.917445 0.773508 2.2337
-1.93749 1.12776 1.42057
-0.288343 -1.05354 2.35651
-2.70147 -0.432103 1.39773
-1.69937 -1.13778 2.41486
-1.67615 -0.219048 1.57861
-3.65608 0.352559 0.432169
-3.11381 -0.0173921 1.40628
-2.46187 0.541834 1.81725
-3.55785 0.418776 0.889712
-0.420817 0.757725 2.38185
-0.0469906 0.201884 2.45731
-0.707521 -0.631384 2.60514
-2.12485 -1.40479 2.00466
-3.79278 0.132954 0.291746
-2.19802 -0.781296 2.0417
-0.0146725 -1.05962 2.88858
-1.33743 0.703253 1.77072
-0.986591 0.794464 1.90712
-2.48205 0.971499 0.0326119
-3.11038 -0.22285 1.52197
-1.76485 -0.616609 2.31065
-2.64765 -0.0238637 1.22385
-1.74434 -0.904857 2.38806
-1.55941 -0.78909 2.19362
-1.26816 -0.224423 1.9581
-1.42278 -0.132248 2.15936
-3.78643 0.0434167 0.544422
-1.18981 -1.61562 2.98889
-3.68964 0.247951 0.98558
-0.402597 -0.566903 2.03889
-2.75925 0.561175 0.764392
-1.85302 -1.61999 2.04465
-1.95888 -1.75837 2.15943
-2.2364 1.0578 0.972489
-2.06207 -1.52178 2.09362
-3.62605 0.129043 0.47455
-2.89483 0.152526 0.958022
-0.361259 -0.216697 2.02438
-0.856828 -0.972682 2.68752
-3.90216 -0.299526 1.04279
-1.79068 0.794163 1.28457
-0.910524 -1.12299 2.34474
-4.16606 -0.424291 0.58734
-3.91792 -0.0747505 0.146652
-4.17581 -0.265832 0.445637
-4.2688 -0.241544 0.190582
-3.63626 0.0304319 1.15799
-4.0764 -0.0229568 0.248908
-4.32208 -0.510645 0.0799343
-4.68858 -0.676735 -0.253052
-3.67421 -1.34638 -0.833305
-4.18026 -0.707641 0.540722
-4.12192 -0.105658 0.409945
-3.79081 0.062356 1.0772
-3.73228 -1.06921 -0.324305
-4.07425 -0.18773 0.820826
-4.47912 -0.512864 0.0598973
-4.28118 -0.745633 -0.266921
-3.99184 -0.163342 0.965472
-3.70015 -1.1429 -0.546419
-4.11157 -0.584718 -0.46191
-3.77645 -0.906702 -0.16215
-4.2989 -0.370601 0.514749
-3.891 -1.17505 -0.705901
-4.46055 -0.795151 0.255428
-3.9444 0.106404 0.247485
-4.22861 -0.512833 -0.399901
-4.07183 -0.808139 -0.0876684
-3.72224 0.19001 0.367593
-4.21853 -0.547793 0.535775
-4.32597 -1.7837 -0.842812
-4.15976 -0.643671 0.129131
-4.19947 -0.695671 0.667696
-3.66091 0.277892 0.866028
-3.50216 0.54104 0.461912
-3.90993 -0.0971125 0.262088
-4.22206 -0.428102 -0.298419
-4.2768 -1.21117 -0.105078
-4.40717 -1.22937 0.161252
-4.94317 -1.63814 -0.62916
-3.96402 -0.714498 0.017585
-4.01932 -0.309591 -0.171075
-3.99522 -0.329293 0.0995647
-3.7723 -0.440807 -0.214603
-3.94248 -1.54899 0.147223
-3.72821 -1.39651 -0.293565
-4.13274 -1.47095 -0.63394
-4.15751 -0.882619 -0.457342
-4.30445 -1.66785 -0.537184
-4.41123 -0.642027 0.591904
-4.20036 -0.925176 -0.32396
-3.78309 -0.528715 -0.253139
