ply
format ascii 1.0
comment Created by Open3D
element vertex 400
property double x
property double y
property double z
end_header
-0.473553 1.1355 3.18986
0.412839 -1.46755 2.55908
-0.184204 0.554137 2.76964
1.03349 -0.127646 2.05327
-0.89821 0.553274 3.12754
-0.783184 0.59079 2.92488
0.604019 0.38048 2.08312
-0.292247 0.122366 2.81769
-0.000298755 -1.76477 2.32803
0.822599 -1.98411 2.23474
-0.801138 1.14945 2.81631
0.144699 -0.118573 2.39143
0.845572 -0.857783 2.1062
0.274896 -1.33521 2.43045
0.266828 -1.02497 2.26966
-0.898596 1.6169 3.04201
-0.555737 1.10956 2.95427
0.784108 -1.69127 1.91649
0.113473 0.984088 2.41755
0.908424 -1.00742 1.94061
-0.187603 -0.130871 2.68586
-0.09395 -0.492386 2.59037
0.327668 -1.06827 2.27341
0.0864567 -0.0158562 2.3508
0.0132855 0.778539 2.32671
-0.52196 -0.210165 2.67692
0.87902 -0.293245 1.87657
-0.589304 -0.934499 2.93247
0.700788 -0.465296 2.24827
-0.669389 -0.680934 3.07049
-1.06144 0.867844 2.97125
0.46466 -0.802816 2.27689
0.812046 0.206944 2.12165
0.411438 -1.1992 2.37627
0.649531 0.0129314 2.1479
0.363951 -0.121763 2.23023
0.00260736 -1.56277 2.66679
-0.518231 -0.487708 3.16286
-0.162717 0.987792 2.81747
0.545674 0.168063 2.01213
0.633086 -0.685684 2.1249
-0.689753 0.0552356 3.20453
0.826538 -1.3771 2.23825
0.323712 -0.668091 2.51396
0.390247 -1.1724 2.61967
0.598249 0.583005 2.1129
-0.546413 -0.304633 3.06629
0.594769 -0.295542 2.41073
-0.797928 -0.803106 3.22583
0.456 -0.233543 2.43105
0.934177 -1.86256 2.10332
0.59228 0.241383 2.15507
0.768416 -1.06977 1.92489
0.714103 -1.89162 2.32995
0.988123 -1.40736 2.14441
-0.118312 -0.0736287 2.9048
-0.643661 0.579153 3.12967
-1.14298 0.787606 2.95933
0.183315 0.37853 2.43631
0.285629 0.118342 2.15291
0.931685 -1.38464 1.91369
-0.677305 0.175856 3.1451
0.727028 0.109141 2.26
-0.851938 1.1718 3.17747
-0.83466 -0.136795 3.06715
0.83342 -1.39507 2.11123
-0.779581 -0.593402 3.06313
-0.436956 0.112528 2.58001
0.640147 -0.900104 2.29651
-0.504541 -0.406308 3.09797
-0.720276 -0.684035 2.77397
0.470334 0.368984 2.01066
-0.664106 0.509972 2.70049
0.809974 -2.00651 2.08132
0.397397 -1.31913 2.38447
-0.754388 0.488393 3.07401
-0.426997 1.10845 2.88788
-0.486436 1.53376 3.00109
-0.159552 -0.729576 2.66407
-0.714519 -0.214866 3.05932
-0.493068 -0.951566 2.77127
-0.650433 -0.803336 3.13581
0.00913868 -0.861003 2.9559
-0.491068 -0.526435 2.66875
0.460308 -1.41033 2.51417
0.122848 0.671436 2.48789
-0.39097 0.500426 2.77638
0.00308494 -0.909562 2.7104
-0.288087 0.629456 2.64059
-0.840903 0.700358 2.97059
0.00670324 -1.03766 3.10024
0.2309 -0.903614 2.36004
0.747855 0.100233 2.10936
0.436155 -1.28429 2.07765
-0.45566 -0.960397 2.81758
-0.306175 0.737075 2.72368
0.06627 -1.29477 2.42294
-0.849653 1.05001 2.95256
-1.01767 -0.22935 3.11214
0.213646 -1.0156 2.63851
0.000165822 -0.61058 3.05676
-0.241055 -0.997379 2.59288
0.761358 -0.408467 2.01921
-0.638489 0.594595 2.80077
-0.671422 0.957242 2.56329
-0.213727 -0.498014 2.88723
0.245957 -1.39556 2.38771
-0.679353 0.00354037 2.97106
-0.349765 -0.130024 3.03214
0.799043 -0.504586 2.01696
-0.00333011 0.59026 2.33278
0.406739 -1.20802 2.4539
1.00372 -1.1868 2.18266
0.859419 0.0144781 2.27794
-0.709536 -0.29742 2.98018
-0.646656 0.596979 3.03754
0.297832 -1.1803 2.1687
0.77876 -1.24733 2.00814
1.10433 0.11845 2.07649
-0.918454 0.00760474 3.1404
0.491579 0.156362 2.26552
-0.714067 1.61314 3.04303
0.469959 -0.930742 2.08841
-0.875681 -0.877695 3.32475
-0.547365 -1.1726 2.96662
0.844141 0.456456 1.9775
0.438503 -0.174472 2.38486
-1.014 1.34895 2.98165
-0.141873 -1.11472 3.02888
-0.69742 1.77956 3.20423
-0.349431 -1.08131 3.10694
-0.762141 -0.92193 3.05751
-0.330698 0.61925 2.89999
0.514771 0.452189 2.23397
-0.250104 1.02766 2.81833
0.199835 -0.140407 2.54629
-0.0937449 0.405357 2.38721
0.398556 -1.15311 2.34864
-0.180047 0.901884 2.47303
0.882649 -1.43095 1.93985
1.04002 -0.633812 1.98001
-0.0540809 1.30824 2.76559
0.711817 0.649673 2.10845
-0.699177 -0.243035 3.03805
0.126507 -1.33997 2.56651
1.03974 -0.91564 2.01686
0.730726 -1.34855 2.20464
0.673751 -0.316854 1.70874
0.308922 -1.16708 2.53078
-0.923188 -0.451146 2.93022
-0.933686 1.71901 3.14224
-0.0749668 1.05457 2.74611
0.0560069 0.973147 2.45762
-0.466807 -0.0310814 2.82594
0.501177 0.147704 2.11205
1.1499 -1.55017 2.3149
0.985013 -0.0847589 1.99766
-0.633924 1.47315 2.89692
0.864754 -0.057092 1.87561
-0.213068 1.35837 2.90318
-0.0386757 0.617684 2.57446
0.831152 -0.501733 1.98699
0.839283 -0.132047 1.84936
-0.488204 -0.0105009 3.27354
0.023409 -0.507288 2.28205
-0.955195 0.867635 2.98966
0.757381 0.073134 1.91256
-0.810914 -0.854707 3.3672
0.0424363 0.861967 3.10614
0.891978 -0.412736 1.9872
-0.428685 1.00329 2.72431
-0.723896 0.944821 3.15456
0.141635 0.346017 2.39182
-0.160678 0.849576 2.71965
-0.566651 0.00658827 2.97741
-0.544715 0.141412 2.74566
-0.404006 -0.315232 2.7449
-0.0585963 -1.00336 2.8206
0.317051 0.190551 2.43188
0.397229 -0.888172 2.15736
-0.359775 -0.13291 2.56402
0.564683 -0.448437 2.29655
0.528539 -0.106361 2.35881
0.00588392 -1.01089 2.53438
-0.506622 -0.284895 2.93483
0.220176 -1.07725 2.50273
0.961394 -1.71999 2.4363
0.838179 -1.77646 1.98007
0.181651 0.861479 2.46599
1.03041 -1.63825 2.16634
-0.293747 1.0865 3.10561
-0.210726 0.979989 2.49979
0.760256 0.654246 2.13802
-0.75021 -0.242759 3.04042
-0.515269 -0.660563 3.08884
-0.408639 -0.533272 2.95761
-0.867395 0.276282 3.13199
0.0206563 -0.0217563 2.73302
0.689631 -1.59482 2.10021
0.0179044 0.930284 2.46619
-0.138943 1.03109 2.70454
-0.315295 -0.485102 2.66633
-0.372004 -0.424829 3.09461
0.600569 -0.669949 2.11312
-0.607574 -0.590518 2.81208
-1.01689 -0.0601056 3.1277
-0.598429 -0.571761 3.26958
0.550743 -0.419215 2.09724
0.231336 0.387253 2.69143
-1.05083 0.226316 2.91445
0.711347 -0.181085 2.01471
-0.683496 -0.763184 3.10468
0.330713 -1.35853 2.29559
0.999699 -1.26593 2.06879
0.620869 0.725956 2.38545
-0.766328 0.89194 3.25403
0.558014 -0.946476 2.12261
-0.813974 -0.772637 3.34736
-0.0928493 -1.48925 2.64595
-0.145323 0.891887 2.69327
-0.111768 -0.867437 3.01264
0.221317 -0.641239 2.63281
0.981105 -0.20882 1.9308
-0.786635 -0.291613 2.71212
0.156103 -0.934076 2.19687
0.118842 -0.11606 2.3051
-0.859676 0.689401 3.11567
-0.826179 0.50504 3.18761
0.551486 -0.956627 2.34849
0.462192 -0.446242 2.12429
-0.341346 -0.401754 2.83037
-0.464169 -0.350679 2.79067
0.930262 -0.342301 1.92934
-0.766439 0.999746 3.14149
-0.30081 -0.179967 2.92461
-0.656108 0.30572 3.40549
-0.649096 -0.540905 3.42144
-0.372208 0.998953 2.7402
0.434884 0.102325 2.11786
0.367567 0.0272068 2.42873
-0.118738 -0.211594 2.81232
0.375211 -1.48237 2.11556
-0.861002 -1.03648 3.20069
-0.49564 0.26332 2.9007
0.201454 -1.50604 2.6115
-0.32516 -0.0951425 2.75201
0.0897743 -0.0694105 2.47914
0.762333 -0.581772 2.39088
-0.637387 1.33143 2.96372
-0.284327 -0.465201 2.93559
-0.161228 1.19874 2.7313
-0.963199 -0.541274 3.24824
0.717713 0.311077 2.54679
-0.00472059 -0.827363 2.27845
-0.689627 -0.844156 2.96766
0.710442 -0.431089 1.97056
-0.78921 -0.214438 3.13811
0.991096 -0.773468 1.97947
0.767193 -1.65563 1.95478
-0.396382 0.420403 2.61526
-0.903366 1.26214 3.02868
-0.337775 -1.22394 2.5893
-0.708118 1.4934 3.05926
0.171587 -0.43057 2.18949
0.504382 -1.59195 2.08363
-0.492199 -0.745132 3.20899
-0.566237 0.0304768 2.88416
-0.304923 -1.05539 2.96799
-0.547373 -0.332434 2.88302
-0.888296 0.00519357 3.16793
0.753266 0.424721 2.10021
0.201344 0.692328 2.69027
0.237157 -0.667606 2.2962
-0.613299 -0.948964 3.21871
0.768642 -0.828504 1.85639
-0.768733 -0.702033 3.32845
0.104154 0.933301 2.35354
-0.857784 -0.558635 3.29155
0.553011 -1.65914 2.23605
0.619555 0.524265 2.42036
0.0853083 -0.381995 2.77105
-0.778322 0.822058 2.95466
-0.794177 -0.701712 2.94214
-0.490325 0.00695761 2.72635
0.335607 -1.46517 2.38354
-0.559417 1.27431 2.87703
0.04794 1.12212 2.88058
0.270234 0.691981 2.63686
-0.573591 -0.79749 2.86354
0.323955 -1.81323 2.34266
-0.664563 -0.846503 3.13408
0.595568 -1.64273 2.54799
-0.850788 0.244361 3.05405
-0.0657558 -0.144795 2.45098
0.285185 -1.46186 2.61427
-0.850039 1.00489 3.02221
0.383162 -1.20533 2.44525
-0.575995 -1.20356 2.93013
0.317583 0.0747141 1.9627
-0.531542 1.53352 3.04531
0.283315 -1.11395 2.53297
0.0323775 0.789147 2.83976
0.599437 -1.23533 2.00749
-0.330733 1.28627 2.76541
0.510824 -1.33697 2.18968
0.0178162 -0.565309 2.47715
-0.862936 1.51291 2.98175
-0.0765881 0.369724 2.44542
0.515553 -0.935609 2.15001
-0.532681 0.791618 2.75521
0.57753 -1.51151 1.86558
-0.701698 0.424383 3.3117
-0.304196 -0.0592151 2.88905
0.432411 0.466091 2.07852
-0.567129 0.432885 2.95458
-0.355535 0.151326 2.71356
-0.946388 -0.342472 3.21833
0.688661 -0.764752 1.84802
1.01024 -0.628127 2.04584
-1.11128 -0.83003 3.14006
-0.908879 1.43485 3.19014
-0.928861 1.04835 2.76822
0.448559 -1.33493 2.17981
0.317273 0.632518 2.19559
0.459651 0.191415 2.24721
-0.19336 0.169537 2.82137
0.689221 -1.48945 2.33103
0.367602 -1.71205 2.50919
0.973943 -1.43636 2.03921
-0.199381 -0.0429469 2.48463
-0.45535 0.164761 2.87472
-0.592258 -0.860976 3.21865
0.667636 -0.770763 1.89117
-0.617734 -0.835459 3.10021
0.981541 -0.0437073 2.12751
-0.24662 -0.861126 3.13123
0.0735779 -0.353449 2.60444
0.215287 -1.05429 2.62826
0.335867 -0.808964 2.75541
0.874237 -2.03114 2.12435
0.547649 -0.277465 2.05651
0.50372 0.052131 1.90168
-0.834935 0.698969 2.72375
-0.943147 0.386007 2.90697
-0.627325 0.465504 2.83665
0.452598 -0.173055 2.1192
0.435375 -0.714472 2.0586
-0.359842 -0.487962 2.72032
-0.166445 -0.992492 2.3701
-0.322534 0.110625 2.97817
-0.143053 -0.299025 2.75877
0.781154 -1.72282 2.22074
-0.537329 -0.194164 2.80497
-0.213763 1.23777 2.82985
-0.705042 0.117954 2.99849
-0.374646 0.899999 2.68178
0.972094 0.123316 2.05902
-0.852515 1.02918 3.17744
0.599035 -1.25662 2.01429
0.357046 0.714458 2.54212
0.366866 0.303702 2.19031
0.843365 0.339911 2.33373
-0.213549 0.188743 2.79668
0.943935 -0.785656 2.04684
1.05877 0.0660839 2.13873
-0.052695 0.300407 2.64847
0.733479 -0.935546 1.83005
-0.904468 0.937665 3.02765
0.887815 -0.677184 2.12796
0.0982831 -0.507519 2.80352
0.129515 0.864377 2.30393
-0.770967 1.15592 3.06454
-0.118977 -0.591465 2.89415
-0.95038 0.264196 3.09209
-0.90367 1.69333 3.12862
0.231756 -1.74463 2.44263
0.116751 -0.537153 2.74058
-0.722038 -0.018384 3.13913
0.326436 -0.568774 2.09368
-0.711867 0.745923 2.95525
0.0926168 -1.34469 2.18016
-0.71006 0.870247 2.85999
-0.052714 1.20972 2.85649
0.421408 -1.30269 2.7276
-0.400048 -0.039916 2.68113
0.633005 -1.31808 1.86991
0.388239 -1.05465 2.60438
-0.56344 1.23178 2.97282
0.721628 -1.12618 2.20546
-0.318645 0.645834 2.7792
-0.88033 0.455396 3.00964
0.734555 -1.51101 2.25134
0.652174 -0.437802 2.12287
-0.0321484 -1.34607 2.67285
-0.547702 1.26708 2.71816
0.418469 -0.407627 2.09113
-0.257066 0.625035 3.0077
-0.393828 -0.937409 2.67173
0.840236 -1.35113 2.2113
0.943874 -0.228185 2.19387
