ply
format ascii 1.0
comment Created by Open3D
element vertex 400
property double x
property double y
property double z
end_header
-1.74881 -1.08942 2.01732
-1.49017 -2.17207 0.699585
-1.92014 -2.04616 0.976288
-2.28738 -1.14602 1.96856
-1.72673 -2.26451 0.697232
-1.02301 -1.09229 2.08255
-1.69179 -2.1922 0.752209
-1.01993 -1.67105 1.21833
-0.97141 -2.03821 0.801111
-1.51499 -1.26541 1.82089
-0.808176 -1.23261 1.83004
-1.87264 -1.33244 1.7416
-1.56787 -2.84289 0.135619
-1.8849 -1.61235 1.4263
-1.75194 -2.29633 0.673716
-1.93912 -2.24011 0.81569
-2.08064 -0.942947 2.16838
-1.94514 -0.833791 2.36552
-1.50468 -1.98943 0.910763
-1.04534 -2.41049 0.428962
-1.7852 -1.09961 2.01607
-0.473923 -1.36812 1.62734
-1.69054 -1.61399 1.37931
-0.684976 -1.51339 1.40757
-1.25591 -1.70868 1.20091
-2.04726 -1.74896 1.27177
-1.28163 -2.30669 0.52357
-1.689 -2.20504 0.674571
-0.379451 -1.68955 1.28689
-1.02354 -1.85237 0.983712
-1.65821 -1.4351 1.57747
-2.72581 -1.521 1.66267
-0.960791 -1.79758 1.10443
-1.97441 -1.19539 1.89749
-1.90508 -0.601463 2.61373
-1.03244 -0.945485 2.18051
-0.94301 -2.22437 0.611481
-1.06291 -1.87102 0.951435
-0.987472 -1.63387 1.34178
-1.16524 -1.11336 2.09482
-0.631122 -1.39641 1.56407
-1.90467 -2.10103 0.885049
-1.76072 -2.17524 0.783481
-1.83668 -1.09513 2.0167
-1.43264 -0.382177 2.96263
-1.07896 -1.31166 1.72859
-1.59551 -1.66584 1.27863
-1.8949 -1.96488 1.0834
-1.69314 -1.33613 1.75303
-0.574605 -1.27252 1.78632
-1.00727 -2.19725 0.617368
-1.59406 -1.57009 1.39481
-1.44927 -1.44489 1.52888
-1.94532 -1.23051 1.86505
-2.18559 -1.55165 1.60473
-2.34355 -1.88218 1.26666
-2.25975 -1.46629 1.66854
-0.661944 -0.719687 2.49563
-1.99465 -1.2694 1.86234
-1.24559 -1.05711 2.05006
-1.45847 -0.634834 2.6361
-2.58201 -1.46244 1.69101
-1.49562 -1.34006 1.69121
-1.80725 -1.22271 1.85346
-1.23631 -1.02576 2.11649
-2.24099 -1.53253 1.58129
-0.725123 -1.41513 1.56406
-1.85379 -0.897185 2.35979
-0.82888 -1.64451 1.28574
-1.47063 -0.522474 2.71733
-1.57714 -1.5302 1.44093
-0.709495 -0.896172 2.27848
-1.339 -2.28986 0.52305
-0.716613 -2.03439 0.790445
-1.11178 -0.854946 2.35196
-2.32058 -1.76793 1.34614
-0.366463 -1.08266 2.02476
-0.438695 -1.35964 1.69945
-1.11991 -1.80013 1.07016
-0.825077 -1.96578 0.863133
-1.03758 -1.0165 2.14492
-1.13076 -1.74255 1.11131
-1.91922 -1.05092 2.08126
-0.839867 -1.16757 1.85457
-0.684857 -0.781391 2.44466
-0.937356 -1.46541 1.48233
-1.78006 -2.42708 0.558451
-1.11623 -2.18437 0.633538
-0.171924 -1.33076 1.76257
-1.92799 -1.89368 1.11477
-1.10246 -1.2644 1.73587
-1.4305 -2.71412 0.178168
-1.03733 -2.37529 0.447492
-1.44372 -0.758549 2.46347
-1.55817 -2.18612 0.732559
-0.634313 -2.04462 0.828197
-1.67488 -0.802505 2.38319
-2.81699 -1.46784 1.75241
-1.14157 -0.794088 2.38366
-1.50907 -1.19923 1.9605
-0.818675 -0.759618 2.45134
-1.22659 -1.52966 1.40524
-1.39124 -0.572449 2.66114
-0.566209 -1.12805 1.96603
-1.4601 -0.605023 2.70855
-1.57446 -0.266733 2.95794
-1.11976 -1.43356 1.50106
-0.723021 -1.97618 0.895443
-1.68979 -0.318026 2.98168
-1.04872 -2.24072 0.578161
-1.13085 -1.98848 0.847192
-1.30163 -0.406995 2.93718
-1.12544 -1.22683 1.88113
-1.81795 -1.96248 0.973182
-2.05502 -0.831301 2.34491
-1.28406 -0.184075 3.2027
-0.918807 -2.06274 0.747768
-1.10015 -1.00115 2.17846
-1.08842 -1.51053 1.4479
-1.70962 -1.76828 1.17909
-1.35857 -2.32977 0.494803
-2.71941 -1.47885 1.7371
-1.65 -1.01976 2.12562
-1.66676 -0.859979 2.33009
-1.72649 -1.43884 1.62002
-1.02403 -1.45765 1.51302
-1.00454 -2.07319 0.766028
-0.795865 -1.02886 2.14069
-2.46274 -1.34537 1.8038
-1.46473 -1.1884 1.95108
-0.787602 -1.44013 1.49967
-1.5241 -2.42236 0.398317
-1.38833 -0.494631 2.74045
-1.35892 0.0155082 3.37927
-0.870634 -1.7194 1.18284
-1.75045 -0.782699 2.44145
-0.286403 -1.37849 1.7034
-0.731485 -1.13987 1.98276
-2.04272 -0.940211 2.17272
-1.31101 -0.345303 2.99285
-1.04271 -0.708956 2.58894
-0.579597 -1.71354 1.27236
-1.95562 -0.766278 2.41221
-0.927288 -1.26584 1.85413
-1.4991 -0.423127 2.94283
-1.13251 -2.36788 0.45817
-2.0552 -1.79112 1.29973
-1.39678 -2.69049 0.20459
-2.55964 -1.27734 1.85049
-1.06069 -1.08421 2.04424
-1.2789 -0.701701 2.50873
-2.0235 -1.31776 1.77131
-1.74865 -0.840885 2.31002
-0.398244 -1.55318 1.43975
-0.707518 -2.07042 0.815282
-2.50057 -1.40311 1.77559
-1.8049 -1.92979 1.0457
-1.13981 -0.614595 2.72446
-0.435785 -1.54733 1.45662
-1.43457 -1.76131 1.13224
-1.99405 -1.35786 1.71891
-0.117304 -1.49311 1.54104
-0.916367 -1.38535 1.60433
-1.84155 -1.7755 1.19846
-1.92958 -0.930637 2.2461
-1.71498 -2.48597 0.500274
-2.15395 -2.04271 0.964232
-0.269865 -1.00298 2.10755
-1.82797 -0.476997 2.69846
-2.5714 -1.55878 1.71084
-1.92383 -1.83125 1.18619
-1.52512 -0.784735 2.41533
-2.25408 -2.11565 0.951599
-0.556293 -1.76772 1.21567
-2.23465 -1.9572 1.16655
-2.25824 -2.22908 0.885248
-0.808363 -0.387861 2.92183
-1.05055 -1.1309 2.01038
-0.656746 -1.55759 1.4685
-0.829005 -1.4178 1.60181
-1.51465 -2.32581 0.610935
-1.97018 -1.83673 1.19353
-1.59086 -1.94632 0.985693
-1.9544 -1.69335 1.3811
-1.76853 -0.487071 2.7451
-0.79455 -1.37476 1.61156
-1.68019 -1.89234 1.03798
-1.12646 -0.211241 3.14724
-1.89305 -0.600262 2.54504
-1.39669 -2.4292 0.411212
-2.42805 -1.78404 1.41164
-1.62337 -2.36172 0.539055
-0.516697 -1.24135 1.85372
-0.761752 -1.02935 2.07668
-1.77212 -1.19253 1.87641
-2.83413 -1.45516 1.7293
-1.15009 -2.29123 0.543332
-1.79966 -2.19168 0.774823
-1.15791 -2.22282 0.589107
-1.53797 -0.209413 3.15166
-1.07704 -1.34232 1.61247
-1.04626 -0.947402 2.28339
-1.34982 -0.975341 2.19431
-1.30638 -2.52678 0.31349
-1.52091 -0.509907 2.81807
-0.26125 -1.24715 1.76472
-1.87197 -1.12675 1.96284
-2.75247 -1.68361 1.5453
-2.12647 -0.762544 2.38627
-1.5662 -1.70798 1.22269
-0.868693 -0.950802 2.26986
-1.75274 -1.74685 1.21335
-2.51552 -1.44234 1.8345
-1.87086 -2.1778 0.767058
-0.463992 -1.29989 1.70661
-2.04623 -0.791428 2.34668
-1.68741 -1.70012 1.25624
-0.83205 -1.50298 1.41793
-1.0644 -1.03322 2.13474
-2.03807 -2.30093 0.765754
-0.72387 -1.77752 1.09643
-0.403064 -1.17003 1.92877
-2.12627 -1.31988 1.77846
-1.41142 -2.25708 0.591525
-2.13201 -1.07077 2.09682
-2.19214 -0.784008 2.32465
-0.901345 -1.91245 0.933471
-2.40253 -1.3277 1.78414
-1.49898 -0.818969 2.37399
-2.0144 -0.910067 2.20966
-0.514226 -1.37062 1.67372
-2.52437 -1.25728 1.85287
-1.00228 -2.0798 0.745761
-1.82331 -2.36784 0.622541
-0.554587 -0.674116 2.54447
-1.55311 -1.26041 1.767
-0.467647 -1.27902 1.73289
-1.57876 -0.646155 2.56268
-2.01425 -1.12136 1.99407
-1.72756 -0.447993 2.88285
-2.68206 -1.32557 1.81363
-1.72871 -0.541561 2.68524
-1.77246 -1.33103 1.71869
-1.78397 -0.667747 2.54258
-1.2365 -1.97275 0.872599
-1.95564 -0.607189 2.55732
-1.23001 -1.06902 2.05961
-2.35025 -1.53849 1.5609
-1.47999 -1.62525 1.36373
-0.743022 -1.4838 1.55565
-2.40644 -1.75741 1.40184
-2.26662 -0.917435 2.18421
-1.09977 -1.30903 1.70947
-2.07466 -0.844549 2.28476
-2.47206 -1.09659 2.01978
-1.18391 -1.103 1.95438
-1.31453 -1.46601 1.50171
-2.23245 -1.30226 1.81533
-1.53743 -2.31273 0.628469
-1.57676 -1.01884 2.11605
-1.79815 -1.47569 1.55379
-0.934114 -1.57648 1.38956
-1.32584 -2.40429 0.408987
-1.36904 -1.12428 2.01608
-1.44439 -2.10474 0.734283
-1.62682 -0.252817 3.04229
-1.9255 -1.60469 1.46325
-1.19747 -0.333347 3.00411
-0.517623 -1.2863 1.66173
-1.95305 -0.996748 2.18195
-1.13219 -1.35085 1.67629
-1.44341 -0.396115 2.91802
-2.3624 -0.998162 2.11234
-1.5032 -0.145624 3.23683
-1.91826 -1.92509 1.05491
-1.82758 -1.38269 1.67788
-0.851838 -0.552407 2.75528
-1.63166 -1.13486 1.98377
-1.01774 -1.32304 1.74086
-1.44576 -0.825531 2.37793
-0.905055 -1.70085 1.2396
-0.19294 -1.42584 1.63837
-1.571 -2.19586 0.662824
-0.702641 -0.843341 2.36829
-1.95595 -1.31944 1.75947
-1.37721 -1.35922 1.66758
-1.88157 -0.761141 2.36105
-1.35153 -1.00953 2.16447
-1.3614 -0.959315 2.17579
-1.40092 -2.56678 0.310963
-1.24495 -1.59899 1.31806
-1.0682 -1.68612 1.17477
-1.94358 -1.71299 1.29737
-2.06903 -2.10087 0.931611
-1.21583 -1.91925 0.921981
-0.376123 -0.981109 2.13156
-0.78124 -2.15242 0.685897
-2.39766 -1.23782 1.87412
-1.98698 -1.28923 1.80708
-1.1823 -0.670396 2.63732
-1.52933 -2.43512 0.421579
-1.76207 -2.09682 0.823094
-0.942231 -0.553648 2.73313
-1.55921 -0.824472 2.34177
-1.20864 -0.284286 3.09456
-1.82213 -1.30223 1.77821
-1.4303 -0.918879 2.26988
-1.41047 -2.6164 0.257007
-1.14651 -1.07287 2.0656
-1.45504 -1.0688 2.03725
-1.22348 -0.246514 3.11129
-1.76674 -2.04762 0.913356
-1.09624 -0.979852 2.20715
-0.569385 -1.5388 1.5315
-0.735232 -1.40745 1.56053
-1.68325 -1.39887 1.61767
-0.649045 -1.93165 1.00278
-2.4427 -1.27045 1.84015
-1.56284 -0.270371 3.06555
-2.16452 -1.18453 1.924
-2.02918 -1.6149 1.43051
-2.33245 -1.17523 1.93526
-0.885569 -1.52083 1.44446
-2.73533 -1.4192 1.85216
-0.929778 -2.01314 0.814524
-1.66183 -1.60611 1.36664
-1.16059 -2.06433 0.763747
-0.262954 -1.37183 1.63807
-1.85952 -0.891731 2.25543
-1.31053 -1.91569 0.931844
-2.18987 -1.46619 1.66104
-0.855036 -0.997914 2.14298
-2.63078 -1.60575 1.66793
-1.84994 -0.531932 2.71052
-0.473388 -1.5515 1.48631
-1.05032 -0.558255 2.72904
-1.49776 -0.306917 3.03796
-1.33789 -0.609603 2.70743
-0.92892 -0.661817 2.62139
-1.71383 -2.07762 0.83595
-2.25594 -1.60498 1.47277
-0.966702 -2.23743 0.580055
-2.13801 -1.60953 1.58401
-1.00447 -1.38877 1.65755
-1.30055 -1.73288 1.20782
-1.83194 -1.97854 0.960374
-1.4551 -1.69754 1.21291
-1.50688 -2.20138 0.734362
-1.98504 -1.45519 1.60828
-1.36516 -2.73394 0.232088
-0.173407 -1.43801 1.59554
-1.00039 -1.97277 0.851072
-0.589161 -0.550214 2.67376
-2.24617 -2.01129 1.1168
-1.84903 -1.60356 1.40597
-1.50326 -0.357153 2.9539
-0.918441 -1.78204 1.15775
-0.653481 -1.41095 1.63832
-0.553992 -1.29791 1.73741
-0.970471 -1.66737 1.21236
-0.706757 -2.04656 0.854457
-0.742479 -1.07056 2.1027
-2.10185 -1.38077 1.7243
-1.63469 -0.485841 2.77957
-0.574065 -1.14937 1.9877
-2.24277 -0.908841 2.19375
-1.52151 -0.540087 2.74968
-1.57061 -1.50498 1.46767
-2.15183 -1.3683 1.76576
-1.58752 -2.51408 0.434993
-0.548919 -1.24968 1.83243
-1.0483 -0.62073 2.61444
-2.22695 -1.15622 1.95544
-1.30157 -0.707389 2.51862
-0.820449 -1.56259 1.45864
-1.72426 -0.839627 2.36092
-1.73409 -1.61733 1.36888
-1.38263 -2.3672 0.445598
-2.36985 -1.95943 1.20278
-1.39745 -1.50941 1.43464
-0.119212 -1.51911 1.54576
-1.37194 -1.37201 1.61349
-1.13419 -0.591332 2.66016
-2.64524 -1.35492 1.8542
-1.88697 -1.93234 1.17362
-1.83982 -2.20992 0.769068
-2.0291 -1.72418 1.35838
-1.86498 -1.40061 1.65091
-0.516855 -1.38296 1.68301
-2.06043 -2.28908 0.763627
-1.99059 -0.859095 2.27917
-2.33079 -1.55305 1.59275
-2.02341 -1.81027 1.23691
-1.71557 -2.62432 0.287369
-1.44784 -1.82777 1.05594
-0.894646 -1.9034 0.941927
-2.13104 -0.870575 2.25929
-1.47322 -1.50603 1.45169
-1.60276 -1.26398 1.805
-2.03542 -1.53197 1.52847
