ply
format ascii 1.0
comment Created by Open3D
element vertex 400
property double x
property double y
property double z
end_header
-2.11343 1.78089 -1.29891
-2.03694 -1.05651 -1.70513
-2.1827 1.00477 -1.21804
-2.00655 -0.276189 -0.331074
-2.21817 1.39603 -1.91251
-2.35463 1.29157 -1.73995
-2.19034 0.316906 -0.430607
-2.15029 0.688521 -1.53948
-2.3866 -1.29687 -2.12371
-2.15148 -1.80223 -1.5422
-2.5148 1.72549 -1.44013
-2.1441 0.167078 -1.1583
-1.93739 -0.814998 -0.865625
-2.08659 -0.935221 -1.69667
-2.09802 -0.711384 -1.47943
-2.41085 2.26953 -1.35111
-2.31447 1.67593 -1.30457
-2.1476 -1.62846 -1.29248
-2.275 1.13515 -0.63774
-2.03761 -1.0448 -0.840391
-2.14954 0.381434 -1.5375
-2.13159 -0.00188169 -1.61246
-2.06915 -0.766985 -1.45336
-2.21372 0.254248 -1.14168
-2.36504 0.946938 -0.794964
-2.31856 0.408535 -1.85075
-2.17969 -0.451268 -0.484595
-2.3189 -0.12302 -2.37917
-1.9227 -0.362583 -0.828614
-2.24084 0.19226 -2.35542
-2.44175 1.64475 -1.83849
-1.99256 -0.571004 -1.2036
-2.06278 0.118221 -0.361535
-2.00488 -0.870607 -1.49054
-2.07933 0.0169601 -0.598744
-2.13276 0.0277038 -0.926259
-2.28504 -0.991942 -2.14063
-2.09923 0.36 -2.16011
-2.20123 1.39049 -0.998626
-2.2411 0.120045 -0.562682
-2.01415 -0.58749 -0.955792
-2.07321 0.926365 -2.02427
-1.91215 -1.21893 -1.19863
-1.94531 -0.311045 -1.33114
-1.94201 -0.748701 -1.5829
-2.18825 0.507873 -0.341955
-2.1223 0.497656 -2.05108
-1.88301 -0.110848 -0.882334
-2.29029 0.175194 -2.58495
-1.94538 -0.00663266 -0.97196
-2.09252 -1.76944 -1.33443
-2.12993 0.233701 -0.533231
-2.08508 -1.05833 -0.979116
-2.12349 -1.64138 -1.61225
-1.91297 -1.3402 -1.05312
-1.99787 0.504028 -1.52465
-2.14386 1.33259 -1.69637
-2.45905 1.59929 -1.93968
-2.167 0.60015 -0.892282
-2.2565 0.221739 -0.845628
-2.06452 -1.40105 -1.01005
-2.10989 1.00169 -1.93289
-1.97941 0.126438 -0.522786
-2.24844 1.93336 -1.58072
-2.21506 0.742851 -2.1962
-1.97236 -1.28987 -1.1589
-2.26301 0.306845 -2.39418
-2.36874 0.618646 -1.58589
-1.90236 -0.702825 -1.11682
-2.10349 0.404957 -2.08207
-2.37376 0.0892479 -2.29295
-2.2938 0.316556 -0.522049
-2.45688 1.08097 -1.6128
-2.19654 -1.87463 -1.50736
-2.03354 -0.974002 -1.56995
-2.21381 1.26511 -1.81402
-2.30123 1.60505 -1.17846
-2.28911 2.04264 -1.04788
-2.14329 -0.164009 -1.8162
-2.18374 0.629653 -2.13779
-2.31668 -0.227265 -2.24957
-2.25518 0.0944642 -2.43202
-1.99278 -0.224855 -1.85411
-2.30067 0.11795 -1.9853
-1.99932 -1.0317 -1.61681
-2.20643 0.8914 -0.812357
-2.27481 1.02377 -1.41762
-2.06592 -0.357795 -1.79422
-2.3281 1.04281 -1.22405
-2.35451 1.42591 -1.74576
-2.03895 -0.343299 -2.01048
-2.07016 -0.555638 -1.47706
-2.0816 0.0420279 -0.463162
-2.12499 -1.07435 -1.41024
-2.28867 -0.229736 -2.24073
-2.30032 1.17696 -1.21222
-2.18658 -0.838451 -1.84421
-2.42102 1.71908 -1.57221
-2.24231 0.743165 -2.40539
-1.99343 -0.543935 -1.65059
-1.91336 0.0476896 -1.76251
-2.24571 -0.410897 -2.00063
-2.0746 -0.439667 -0.67902
-2.38789 1.19104 -1.58145
-2.60411 1.40581 -1.34946
-2.0636 0.148808 -1.81786
-2.12692 -0.998552 -1.73767
-2.2213 0.772898 -1.967
-2.04318 0.578145 -1.78728
-2.0511 -0.535615 -0.696219
-2.35433 0.791431 -0.906233
-1.98447 -0.847811 -1.52736
-1.85082 -1.12717 -0.93513
-1.8983 0.0118196 -0.468044
-2.23148 0.520127 -2.1506
-2.21809 1.30546 -1.66129
-2.13806 -0.900947 -1.50032
-2.02962 -1.18172 -1.08982
-2.00383 -0.0793523 -0.158531
-2.18262 0.933572 -2.21118
-2.08836 0.242266 -0.693616
-2.35289 2.20431 -1.20538
-2.09337 -0.766003 -1.20212
-2.33453 0.16297 -2.72781
-2.38588 -0.352563 -2.4917
-2.18499 0.255503 -0.164582
-1.9896 0.0290232 -0.941513
-2.47655 2.04686 -1.56159
-2.15321 -0.397383 -2.14893
-2.23773 2.41874 -1.15755
-2.2403 -0.277524 -2.332
-2.36239 -0.0118292 -2.56012
-2.18131 1.16247 -1.34852
-2.13687 0.47445 -0.515932
-2.24975 1.4512 -1.05095
-2.02086 0.199511 -1.17488
-2.34804 0.682877 -1.09212
-2.01363 -0.835278 -1.46654
-2.39866 1.17285 -0.941678
-2.06259 -1.41365 -1.08178
-2.00354 -0.748297 -0.558187
-2.2008 1.61357 -0.728918
-2.14776 0.527991 -0.213994
-2.192 0.59025 -2.13307
-2.13838 -0.847275 -1.87324
-1.94961 -0.974521 -0.712573
-1.95603 -1.17484 -1.24892
-2.37697 -0.482688 -0.609956
-2.00397 -0.752053 -1.61412
-2.35084 0.430159 -2.38769
-2.34293 2.41909 -1.3573
-2.20465 1.39103 -0.868757
-2.28476 1.15923 -0.70457
-2.21668 0.612215 -1.76358
-2.1873 0.16232 -0.640946
-1.83768 -1.46186 -1.06248
-2.07469 -0.250201 -0.331751
-2.41281 1.99034 -1.16498
-2.21667 -0.244774 -0.377341
-2.21063 1.7631 -0.880912
-2.23492 0.930312 -1.0018
-2.06592 -0.558409 -0.659906
-2.23635 -0.313021 -0.427413
-1.96581 0.831076 -1.91897
-2.22852 -0.179153 -1.41833
-2.39796 1.61666 -1.75948
-2.22994 -0.0777934 -0.40854
-2.29635 0.178457 -2.67884
-1.89809 1.34952 -0.986566
-2.06033 -0.502983 -0.566737
-2.39327 1.4426 -1.17949
-2.20082 1.68401 -1.58532
-2.2117 0.565068 -0.928451
-2.24244 1.22838 -1.03424
-2.17157 0.74247 -1.87585
-2.32023 0.74949 -1.71404
-2.21872 0.310124 -1.83027
-2.09422 -0.386637 -1.93735
-2.07254 0.398186 -0.87426
-2.08805 -0.676394 -1.26275
-2.30887 0.377997 -1.64032
-1.95364 -0.284133 -0.947047
-1.97089 0.0486198 -0.824739
-2.13372 -0.517753 -1.78201
-2.16921 0.448093 -1.96332
-2.04055 -0.653465 -1.62868
-1.93432 -1.51721 -1.35452
-2.12853 -1.70132 -1.31833
-2.20629 1.02874 -0.660271
-1.95729 -1.56286 -1.15411
-2.09211 1.64325 -1.15038
-2.4058 1.26113 -0.936313
-2.10997 0.52959 -0.181943
-2.20933 0.608192 -2.17498
-2.16502 0.169579 -2.22533
-2.13579 0.203531 -2.02194
-2.18112 1.14798 -2.0296
-2.02278 0.434771 -1.32563
-2.06907 -1.43155 -1.37922
-2.29828 1.13665 -0.760924
-2.25968 1.37169 -0.919707
-2.21195 0.101105 -1.81797
-2.04956 0.345311 -1.98251
-2.03674 -0.568843 -0.970491
-2.29526 0.154516 -2.16434
-2.21646 0.902373 -2.32046
-2.11861 0.347845 -2.30994
-2.09608 -0.344459 -0.87957
-1.98632 0.705692 -0.931883
-2.40321 1.06383 -2.1349
-2.1283 -0.231088 -0.60421
-2.26173 0.131951 -2.42488
-2.10068 -1.02373 -1.6137
-1.93201 -1.24777 -0.943092
-2.01874 0.745374 -0.339866
-2.11844 1.70232 -1.6753
-2.03505 -0.792604 -1.14968
-2.25608 0.253898 -2.62608
-2.30307 -0.899063 -2.16947
-2.25516 1.24868 -0.991542
-2.0473 -0.175083 -1.97909
-1.9462 -0.208866 -1.4433
-2.11955 -0.38834 -0.377416
-2.41643 0.434088 -2.12108
-2.18497 -0.627325 -1.49827
-2.21067 0.138946 -1.15006
-2.23638 1.49339 -1.80999
-2.14324 1.35867 -1.89755
-1.91992 -0.704289 -1.23679
-2.11301 -0.327707 -0.974154
-2.14611 0.250305 -1.85272
-2.22442 0.316272 -1.91364
-2.11236 -0.484872 -0.483948
-2.23269 1.739 -1.588
-2.07615 0.473773 -1.73648
-1.91738 1.22895 -1.9311
-2.08121 0.450996 -2.38914
-2.35522 1.42883 -1.14039
-2.20693 0.146694 -0.719799
-2.02495 0.242291 -0.913217
-2.04123 0.344393 -1.56442
-2.16441 -1.2207 -1.57912
-2.43287 -0.0421016 -2.76058
-2.21027 0.90865 -1.66256
-2.15581 -1.01309 -1.92178
-2.18582 0.481723 -1.65506
-2.12712 0.263667 -1.20802
-1.79685 -0.419633 -0.884025
-2.36375 1.89761 -1.2619
-2.07628 0.218818 -1.87577
-2.26935 1.53517 -0.861908
-2.22645 0.492333 -2.57757
-1.815 0.43228 -0.52094
-2.22918 -0.451753 -1.60404
-2.32686 0.00643659 -2.42427
-2.12763 -0.465312 -0.716456
-2.16376 0.688892 -2.22393
-2.00037 -0.85156 -0.667282
-2.12404 -1.57337 -1.29955
-2.36977 0.885197 -1.40983
-2.40076 1.95604 -1.53171
-2.34796 -0.593816 -2.2024
-2.33473 2.10501 -1.26711
-2.21367 -0.197081 -1.22643
-2.14444 -1.37525 -1.52178
-2.15222 0.126356 -2.29797
-2.23082 0.721969 -1.83282
-2.21732 -0.311923 -2.22625
-2.21587 0.396659 -2.00385
-2.15552 0.93353 -2.19718
-2.12386 0.314981 -0.292498
-2.04704 0.97451 -0.803726
-2.0987 -0.375736 -1.32803
-2.28994 -0.0296177 -2.51613
-2.15409 -0.880945 -0.834854
-2.21219 0.300912 -2.54222
-2.31047 1.06665 -0.649692
-2.18972 0.455921 -2.51886
-2.09877 -1.39654 -1.57491
-1.97542 0.587571 -0.454067
-1.95138 0.117218 -1.46927
-2.36329 1.50151 -1.62956
-2.34068 0.163152 -2.42207
-2.29168 0.608618 -1.73086
-2.10284 -1.09237 -1.70053
-2.3835 1.78455 -1.19938
-2.06948 1.47118 -0.777668
-2.04225 0.930667 -0.729233
-2.29355 -0.0251396 -2.26574
-2.24676 -1.43674 -1.88997
-2.27784 0.0569253 -2.46712
-2.02752 -1.28589 -1.65027
-2.23573 1.07752 -2.00862
-2.21755 0.232307 -1.36542
-2.09392 -0.994312 -1.82868
-2.35884 1.71393 -1.61641
-1.99821 -0.841497 -1.54217
-2.4161 -0.386069 -2.51858
-2.36177 0.0890587 -0.779973
-2.28007 2.0763 -1.09918
-2.00546 -0.694512 -1.6073
-2.05997 1.1724 -0.944339
-2.09119 -1.11192 -1.22787
-2.34194 1.67655 -0.968572
-2.05039 -1.10027 -1.41638
-2.12526 -0.145612 -1.51856
-2.44207 2.1381 -1.35713
-2.29872 0.672883 -1.11492
-2.03777 -0.757881 -1.18785
-2.39869 1.30604 -1.38158
-2.20228 -1.41421 -1.34373
-2.00323 1.30503 -1.87718
-2.10021 0.565644 -1.66522
-2.27471 0.442796 -0.525775
-2.22525 1.10104 -1.65291
-2.24927 0.686581 -1.54291
-2.18107 0.660711 -2.44461
-2.19064 -0.802635 -0.864058
-1.95235 -0.700249 -0.598386
-2.41529 0.224561 -2.81914
-2.28102 2.18587 -1.49717
-2.58857 1.65732 -1.57961
-2.08157 -1.08293 -1.46271
-2.27094 0.673665 -0.574251
-2.12075 0.2737 -0.696407
-2.10324 0.701189 -1.43533
-1.96225 -1.24378 -1.40486
-2.1701 -1.29673 -1.86185
-1.98131 -1.40717 -1.0449
-2.28189 0.373479 -1.43607
-2.19811 0.799715 -1.67086
-2.23994 0.0496262 -2.44863
-2.16222 -0.780162 -0.897194
-2.26129 0.0405119 -2.41007
-1.96758 -0.149965 -0.352572
-2.09477 -0.0874543 -2.13208
-2.03948 0.076648 -1.40717
-2.00324 -0.583964 -1.66639
-1.85758 -0.346155 -1.48098
-2.1852 -1.90616 -1.48678
-2.14608 -0.240997 -0.7982
-2.32373 -0.0170785 -0.620264
-2.542 1.30651 -1.66514
-2.39585 1.16084 -1.96601
-2.3389 1.09378 -1.64827
-2.15819 -0.0933368 -0.843477
-2.13967 -0.579949 -1.11025
-2.20944 0.134026 -1.87486
-2.28132 -0.514207 -1.85603
-2.06747 0.757732 -1.62324
-2.07867 0.252459 -1.61122
-2.04028 -1.53718 -1.42018
-2.25342 0.482449 -1.89783
-2.24435 1.6269 -0.918434
-2.21843 0.893459 -1.93814
-2.38124 1.31871 -1.17311
-2.05215 -0.0373668 -0.255941
-2.22842 1.81168 -1.65256
-2.08883 -1.12793 -1.24163
-2.05572 0.883043 -0.614818
-2.21754 0.372539 -0.697957
-1.91013 0.320873 -0.335737
-2.1307 0.712897 -1.4342
-1.95529 -0.813071 -0.731364
-1.95195 -0.0772445 -0.239316
-2.15184 0.695903 -1.19648
-2.1754 -0.974 -0.909094
-2.36099 1.67764 -1.69528
-1.91771 -0.661615 -0.746283
-1.93457 0.0148716 -1.53527
-2.31994 0.978025 -0.647184
-2.31926 1.83697 -1.49006
-2.02279 0.0387608 -1.79162
-2.23349 1.14738 -2.08956
-2.34701 2.37927 -1.34263
-2.25431 -1.3091 -1.96596
-1.95217 -0.0421599 -1.51334
-2.12825 0.842533 -2.06735
-2.18153 -0.404992 -1.13725
-2.32706 1.41515 -1.61404
-2.25388 -0.983518 -1.76063
-2.41524 1.47633 -1.52059
-2.1444 1.56615 -0.808574
-1.95074 -0.843706 -1.67062
-2.26979 0.521162 -1.66533
-2.16646 -1.25709 -1.19875
-1.91912 -0.64421 -1.51474
-2.3184 1.79201 -1.25514
-1.92887 -0.969184 -1.13803
-2.25837 1.1274 -1.28625
-2.30141 1.24842 -1.91203
-1.97519 -1.30882 -1.35093
-2.03327 -0.38075 -0.814414
-2.21171 -0.770134 -2.049
-2.47281 1.70523 -1.14106
-2.16011 -0.296062 -0.979917
-2.07522 1.1935 -1.3198
-2.29162 -0.281018 -2.12351
-1.91372 -1.21035 -1.16412
-1.89807 -0.262813 -0.495216
