ply
format ascii 1.0
comment Created by Open3D
element vertex 400
property double x
property double y
property double z
end_header
-2.81951 -0.018727 -0.429394
-2.29106 -1.37118 0.531315
-2.66182 -1.30448 0.105608
-3.092 -0.341397 -0.78347
-2.46707 -1.52416 0.410762
-2.63289 0.517585 -0.0961752
-2.44306 -1.44093 0.397439
-2.18219 -0.508794 0.495473
-2.11643 -0.893182 0.690481
-2.74159 -0.0388159 -0.266738
-2.31141 0.270628 0.304381
-2.88611 -0.318971 -0.455621
-2.36609 -2.04467 0.809909
-2.68901 -0.808235 -0.0963324
-2.48863 -1.55965 0.401766
-2.65736 -1.52186 0.2256
-2.9134 -0.110187 -0.618259
-3.14833 0.3694 -0.907731
-2.29792 -1.19619 0.474493
-1.95975 -1.49608 1.06641
-2.87363 -0.0111799 -0.492781
-1.98674 0.144696 0.752478
-2.50725 -0.79727 0.116035
-1.99748 -0.200891 0.722971
-2.37925 -0.585346 0.252586
-2.99481 -0.801417 -0.49012
-2.13528 -1.45304 0.76598
-2.50933 -1.38472 0.244241
-1.90785 -0.161153 0.978166
-2.08219 -0.793718 0.658692
-2.65523 -0.438082 -0.148052
-3.40623 -0.840581 -1.00345
-2.22745 -0.530927 0.496514
-2.87093 -0.298872 -0.472077
-3.13252 0.625969 -0.965716
-2.44011 0.462181 0.0667879
-2.09274 -1.07464 0.797641
-2.01225 -0.921678 0.751705
-2.37184 -0.2495 0.298129
-2.79754 0.518935 -0.286967
-2.02079 -0.00673918 0.681062
-2.66082 -1.34488 0.0933892
-2.50994 -1.42602 0.310141
-2.88437 -0.0474412 -0.51366
-3.00773 1.19291 -0.750455
-2.43797 0.047351 0.135736
-2.51557 -0.745782 0.0769285
-2.62941 -1.23037 0.143605
-2.87035 -0.158922 -0.41668
-2.18368 0.336552 0.497754
-2.06182 -1.1427 0.808888
-2.53534 -0.628814 0.0297355
-2.47611 -0.418057 0.0705153
-2.9373 -0.238539 -0.548707
-2.92161 -0.815622 -0.332694
-3.07568 -1.15004 -0.42121
-3.02063 -0.70542 -0.529618
-2.383 1.00137 0.143353
-3.1165 -0.147545 -0.749859
-2.5568 0.254096 -0.0708073
-2.90303 0.809728 -0.571617
-3.30407 -0.740374 -0.913454
-2.61924 -0.216437 -0.117826
-2.79503 -0.234925 -0.370143
-2.62227 0.360205 -0.141324
-3.02391 -0.749614 -0.52784
-2.13413 -0.00612295 0.547237
-3.22886 0.47789 -0.937704
-2.16062 -0.31277 0.55585
-2.80615 0.813045 -0.512284
-2.53521 -0.57213 0.0196278
-2.38622 0.780548 0.171239
-2.25875 -1.3701 0.56704
-1.8142 -0.936806 1.10185
-2.63251 0.665779 -0.161886
-3.08401 -1.00451 -0.515073
-2.12688 0.67775 0.548024
-2.12336 0.325023 0.619392
-2.23581 -0.68423 0.454016
-1.94382 -0.84704 0.894193
-2.56483 0.510748 -0.0447421
-2.13865 -0.734651 0.55113
-2.98652 0.0163832 -0.656089
-2.20043 0.19299 0.393894
-2.47499 1.00874 0.0495473
-2.20448 -0.198288 0.437134
-2.51141 -1.69573 0.439191
-2.0037 -1.29689 0.889038
-2.01906 0.516374 0.789165
-2.70714 -1.11452 -0.03564
-2.32465 -0.0422098 0.236448
-2.26247 -1.88215 0.816898
-2.11762 -1.295 0.811892
-2.81602 0.613747 -0.446228
-2.31856 -1.42574 0.545269
-1.89489 -0.784042 1.03995
-2.89565 0.418265 -0.57696
-3.44707 -0.83776 -1.04664
-2.54807 0.612404 -0.0968429
-2.88964 0.181341 -0.430101
-2.45455 0.87626 0.0543419
-2.34115 -0.415101 0.257616
-2.74694 0.783259 -0.414062
-2.21312 0.518867 0.431503
-3.00115 0.936031 -0.680094
-2.8251 0.983913 -0.660141
-2.24012 -0.313209 0.360417
-1.98595 -0.713256 0.881633
-3.12358 1.11577 -0.985965
-2.12726 -1.16219 0.738621
-2.20066 -0.918665 0.547112
-2.91247 1.20385 -0.606096
-2.58367 0.231396 -0.037722
-2.67074 -1.10969 -0.0284479
-3.18524 0.298917 -0.984057
-2.9779 1.50976 -0.748374
-1.94297 -1.03857 0.917138
-2.63258 0.531283 -0.128744
-2.33433 -0.264615 0.282865
-2.60497 -0.872937 -0.00416304
-2.22334 -1.465 0.645313
-3.37537 -0.822889 -0.944994
-2.85067 0.180911 -0.463683
-2.91884 0.392102 -0.581584
-2.8537 -0.311632 -0.380894
-2.30675 -0.174925 0.312202
-2.14957 -0.92816 0.658008
-2.48523 0.660506 0.0810687
-3.19031 -0.617796 -0.805335
-2.8121 0.158967 -0.345177
-2.08611 -0.141625 0.586117
-2.40887 -1.53759 0.417397
-2.72622 0.843257 -0.41549
-2.96954 1.62613 -0.842228
-2.14158 -0.448456 0.585793
-3.04318 0.510041 -0.755359
-2.08149 0.416595 0.709206
-2.3827 0.511348 0.225134
-2.94448 -0.0384443 -0.66175
-2.88643 1.23011 -0.600837
-2.77456 1.0229 -0.332269
-2.11765 -0.175485 0.700864
-3.09462 0.372723 -0.88056
-2.5351 0.341976 0.0591183
-3.12959 1.20735 -0.884681
-2.0306 -1.46979 0.93516
-2.80268 -1.04364 -0.130834
-2.2294 -1.85787 0.85667
-3.28381 -0.553173 -0.987079
-2.52961 0.384705 0.000143839
-2.66442 0.683818 -0.26697
-2.98322 -0.358044 -0.583996
-2.86284 0.273296 -0.54945
-1.95611 0.00469378 0.869911
-2.00866 -0.769284 0.902632
-3.20245 -0.70122 -0.769066
-2.58428 -1.15042 0.120116
-2.89504 1.14063 -0.500575
-2.01512 0.0320081 0.795057
-2.3624 -0.833482 0.28217
-2.87129 -0.480618 -0.421401
-1.78765 0.177241 1.12449
-2.26221 -0.0395049 0.364261
-2.78774 -0.82931 -0.233059
-3.0938 0.233586 -0.813076
-2.45029 -1.75065 0.550724
-2.95783 -1.23884 -0.329938
-2.04992 0.777077 0.626954
-2.95425 0.649283 -0.804896
-3.24569 -0.884494 -0.674808
-2.70659 -1.04849 -0.0517248
-2.82434 0.514482 -0.469099
-3.00127 -1.36846 -0.300861
-2.09656 -0.22746 0.750631
-2.96615 -1.2257 -0.260328
-2.97727 -1.51005 -0.172852
-2.52533 1.32911 -0.101011
-2.57991 0.398463 -0.0388292
-2.24761 0.0332771 0.492663
-2.29736 0.0505584 0.357919
-2.26636 -1.5741 0.695015
-2.74761 -1.05931 -0.0946392
-2.36999 -1.16719 0.386533
-2.7133 -0.934436 -0.061336
-3.03821 0.78261 -0.862757
-2.17899 0.00968459 0.474197
-2.50625 -1.06628 0.169778
-2.77235 1.43464 -0.474711
-2.9317 0.438386 -0.752113
-2.23386 -1.59203 0.687462
-3.14532 -1.06677 -0.513501
-2.39284 -1.59225 0.495045
-2.2397 0.481652 0.44184
-2.29798 0.506876 0.282573
-2.70995 -0.254704 -0.269537
-3.4728 -0.816486 -1.12408
-2.28992 -1.15141 0.545192
-2.54618 -1.44516 0.273483
-2.06972 -1.31101 0.805617
-3.13659 1.38921 -0.987997
-2.23014 -0.189216 0.356902
-2.71514 0.721483 -0.216574
-2.72429 0.399126 -0.279077
-2.17371 -1.65945 0.8128
-3.05924 1.02842 -0.787226
-1.83721 0.328802 0.930264
-2.75435 -0.244372 -0.338927
-3.43147 -1.00461 -0.926552
-3.1791 0.29009 -1.03126
-2.45625 -0.817937 0.164478
-2.62575 0.806252 -0.0988734
-2.66399 -0.835598 -0.0836769
-3.18076 -0.777096 -0.623998
-2.64529 -1.40337 0.105928
-1.98731 0.223429 0.734455
-3.06098 0.22332 -0.862954
-2.60588 -0.781653 -0.024693
-2.08943 -0.245597 0.588557
-2.60279 0.505171 -0.0849683
-2.75517 -1.58383 0.123364
-1.97049 -0.530894 0.823516
-2.1567 0.583598 0.533422
-2.97734 -0.468809 -0.565537
-2.23223 -1.43628 0.626675
-3.25811 0.0553214 -0.996535
-3.11163 0.135486 -0.967108
-2.05652 -0.757272 0.729721
-3.237 -0.493228 -0.916022
-2.80222 0.484271 -0.430754
-2.9628 0.0383329 -0.69334
-2.13965 0.254802 0.586153
-3.30818 -0.473471 -1.04754
-2.09825 -0.983832 0.719671
-2.55299 -1.63817 0.360711
-2.33331 1.10461 0.198007
-2.55632 -0.257191 -0.0656988
-1.99681 0.250137 0.717786
-2.84205 0.61714 -0.542786
-3.00632 -0.129288 -0.671669
-3.24074 1.06519 -1.06669
-3.36505 -0.642577 -1.07063
-2.99158 0.721311 -0.779607
-2.74283 -0.36066 -0.277902
-3.01446 0.562747 -0.776178
-2.28769 -0.921558 0.427209
-3.05217 0.489342 -0.900414
-2.60736 0.308325 -0.115928
-3.19735 -0.691382 -0.785094
-2.66201 -0.443232 -0.102467
-2.31767 0.0908479 0.376384
-3.14119 -1.02266 -0.555118
-3.11718 -0.0668773 -0.926704
-2.39361 -0.0151853 0.175642
-3.05749 0.13828 -0.844812
-3.18472 -0.383929 -0.933283
-2.42466 0.137741 0.085283
-2.4372 -0.343333 0.128227
-3.03165 -0.503053 -0.630399
-2.28604 -1.56412 0.666219
-2.7807 0.185105 -0.375596
-2.65272 -0.62112 -0.110776
-2.29359 -0.217001 0.375409
-2.23187 -1.49826 0.652827
-2.73381 0.240483 -0.260133
-2.37436 -1.17478 0.352993
-3.04919 1.16955 -0.912383
-2.70092 -0.829275 -0.0870498
-2.79892 1.2681 -0.482736
-1.87809 0.0741619 0.824821
-3.13263 0.182827 -0.838635
-2.45221 -0.0308243 0.118726
-2.9392 1.09967 -0.678439
-3.09514 -0.265416 -0.853238
-3.17768 1.52885 -1.05114
-2.7269 -1.11644 -0.0790298
-2.64982 -0.560456 -0.114097
-2.64628 1.24204 -0.205911
-2.81973 0.0532026 -0.398992
-2.46874 0.127959 0.120598
-2.7974 0.52611 -0.410723
-2.25571 -0.350189 0.454903
-1.94547 0.326691 0.903497
-2.40629 -1.36057 0.365224
-2.47105 0.92507 0.0663592
-2.90975 -0.365638 -0.489572
-2.57076 -0.165664 -0.0458011
-2.84029 0.197583 -0.579312
-2.75152 0.390454 -0.299074
-2.63792 0.317203 -0.198121
-2.21863 -1.74907 0.803323
-2.33242 -0.51152 0.280831
-2.11477 -0.639548 0.568569
-2.80582 -0.850745 -0.248126
-2.8161 -1.35379 -0.0798789
-2.07778 -1.05731 0.697791
-2.09906 0.741827 0.550538
-1.9301 -1.00356 1.00031
-3.21644 -0.419039 -0.924075
-2.99389 -0.282319 -0.603674
-2.8433 0.990605 -0.435631
-2.33877 -1.62568 0.557839
-2.56238 -1.29651 0.164684
-2.60689 1.11101 -0.170589
-2.77441 0.390726 -0.415864
-2.9167 1.42377 -0.628243
-2.87711 -0.24725 -0.449007
-2.79048 0.441298 -0.376961
-2.23892 -1.78796 0.790847
-2.59094 0.371568 -0.0812827
-2.6636 0.139763 -0.218144
-2.85082 1.38082 -0.571753
-2.53032 -1.28403 0.230706
-2.63827 0.562178 -0.138211
-2.30015 0.191964 0.454792
-2.11063 -0.0320494 0.566084
-2.59455 -0.487567 -0.0732833
-2.07497 -0.505729 0.800097
-3.27285 -0.440303 -0.991666
-3.08933 1.25612 -0.921061
-3.06398 -0.285066 -0.733954
-2.88653 -0.757559 -0.367837
-3.17376 -0.333923 -0.89109
-2.24052 -0.165882 0.426669
-3.35925 -0.795272 -0.89149
-2.03529 -0.907624 0.783194
-2.53827 -0.729663 0.0483592
-2.01916 -1.20576 0.827627
-1.85675 0.221972 0.95228
-2.94523 0.193982 -0.648662
-2.20883 -1.01739 0.517274
-2.95576 -0.700299 -0.445529
-2.4158 0.562855 0.137776
-3.30278 -0.933746 -0.732041
-3.14367 0.761805 -0.983041
-2.13449 0.109607 0.661831
-2.66381 1.05524 -0.248671
-3.05352 1.24885 -0.846318
-2.93048 0.982986 -0.574793
-2.65494 1.0642 -0.197313
-2.51613 -1.27531 0.2158
-3.16443 -0.696497 -0.732618
-2.03114 -1.17299 0.871795
-2.85521 -0.892334 -0.177638
-2.44967 0.0564296 0.157205
-2.50414 -0.529299 0.117099
-2.67101 -1.13947 -0.018926
-2.39524 -0.757388 0.226204
-2.25637 -1.45188 0.656592
-2.94592 -0.494311 -0.499932
-2.18689 -1.91221 1.00573
-1.84252 0.2311 1.02348
-2.06217 -0.910995 0.724642
-2.27453 1.13515 0.235207
-2.97308 -1.28438 -0.243382
-2.78367 -0.668916 -0.262956
-2.97601 1.11559 -0.749716
-2.28794 -0.412541 0.442304
-2.25933 0.194906 0.438523
-2.11926 0.267362 0.575844
-2.1239 -0.513942 0.566727
-2.04941 -0.703901 0.850417
-2.50661 0.69357 0.0718206
-2.90298 -0.579641 -0.428432
-2.99553 0.875 -0.769667
-2.36816 0.644732 0.264056
-3.03517 -0.116436 -0.813338
-2.9704 0.908803 -0.687301
-2.4767 -0.598894 0.0934525
-2.91321 -0.606912 -0.419084
-2.34255 -1.75905 0.677573
-2.22284 0.424244 0.456167
-2.55778 0.888745 -0.124959
-3.06317 -0.319994 -0.741401
-2.71793 0.708974 -0.324718
-2.34991 -0.0331207 0.345193
-2.97949 0.415601 -0.665299
-2.69845 -0.65297 -0.160052
-2.29352 -1.45631 0.549798
-3.09404 -1.23524 -0.401796
-2.39571 -0.511147 0.181219
-1.86989 0.231563 1.04969
-2.44958 -0.294371 0.0895819
-2.63342 0.907897 -0.227795
-3.29361 -0.706547 -0.88752
-2.60434 -1.21496 0.223263
-2.58128 -1.46845 0.243878
-2.78788 -0.965407 -0.145911
-2.81703 -0.448572 -0.352201
-2.20482 0.305001 0.52073
-2.7823 -1.56721 0.0661068
-3.01364 0.163954 -0.767821
-3.07942 -0.804419 -0.565864
-2.7996 -1.03408 -0.162207
-2.48359 -1.8563 0.486389
-2.37646 -0.899146 0.279967
-2.04734 -0.750707 0.738367
-3.11631 0.1147 -0.916658
-2.45534 -0.523896 0.109148
-2.73063 -0.136103 -0.269156
-3.00635 -0.561034 -0.556619
