ply
format ascii 1.0
comment Created by Open3D
element vertex 250
property double x
property double y
property double z
end_header
0.187859 -2.73749 0.116942
-0.983556 -1.52291 1.56189
0.780496 -2.41301 0.23249
-0.884236 -3.33003 -0.354536
0.908567 -2.88427 -0.1117
0.0519302 -2.7333 0.0803964
-0.350859 -1.96127 1.15623
-1.79547 -2.2741 1.01344
-1.1068 -1.46327 1.55805
-2.2034 -1.39317 1.14718
1.17141 -2.16558 0.429457
-1.67097 -2.85125 0.462757
1.07579 -2.8057 -0.060081
-3.12998 -1.70027 0.493992
-0.491097 -3.25675 -0.385918
-1.69233 -2.81925 0.526076
-2.94264 -3.20506 0.104264
-0.0320806 -2.88989 -0.0366861
-0.970727 -2.40602 0.720581
-2.37085 -2.75252 0.591358
-1.80835 -2.25135 0.917819
-1.1893 -1.82803 1.47407
0.923129 -2.03609 0.678044
-0.81759 -1.52962 1.5954
-2.32759 -1.28859 1.01437
-0.497544 -2.27884 0.807597
1.10536 -2.33277 0.348882
-0.758105 -2.55862 0.643332
-0.719409 -2.48692 0.617493
-1.75343 -0.825559 1.43193
-2.14394 -2.29637 0.985109
-2.55364 -2.02143 0.92828
-0.805387 -1.31206 1.76071
1.06655 -2.69687 -0.0448465
-1.70048 -1.2255 1.40142
1.17679 -1.88542 0.761249
-0.035285 -3.6087 -0.835155
-3.17373 -1.74375 0.44931
-2.05271 -2.96424 0.280557
0.25726 -2.93712 -0.13094
-0.134282 -2.99435 -0.122689
-2.30324 -1.82848 1.04566
-0.0520918 -2.10236 0.868348
1.89604 -2.27227 0.368843
0.378788 -3.5027 -0.695115
-1.48782 -0.962257 1.62876
1.79592 -2.47331 0.149426
-1.82288 -0.768967 1.42696
-0.345935 -2.64595 0.290503
-1.45765 -2.65302 0.620877
-2.06095 -1.78052 1.18405
1.00383 -2.54093 0.0305104
-2.11104 -2.18636 0.927513
-2.55304 -1.91883 0.772251
-0.812898 -1.66946 1.48211
-2.21744 -1.43773 1.13549
-0.908737 -1.50761 1.59982
-0.971718 -2.61409 0.545828
-0.213523 -2.62085 0.380017
0.618933 -3.05181 -0.330257
-2.51133 -1.46479 1.05421
-2.69814 -1.42916 0.807638
-1.3837 -0.661745 1.69603
-2.31795 -1.07167 1.11889
0.768616 -2.8571 -0.115874
1.69889 -2.18319 0.371897
-1.57992 -2.72452 0.573939
-2.01067 -2.40591 0.919821
-1.1145 -2.85078 0.362042
1.68175 -2.13452 0.413809
-1.45971 -2.18957 1.11743
1.27425 -1.7126 0.951284
-1.34385 -3.58136 -0.545213
-3.11646 -2.62324 0.351944
1.09824 -2.39096 0.168349
-0.544053 -3.14776 -0.207635
-1.59299 -1.45491 1.43533
-2.22343 -0.909876 1.27565
-0.323127 -2.66506 0.313561
-2.37932 -1.66643 1.03163
-2.46784 -2.17959 0.861099
0.945021 -2.50676 0.139082
-3.04924 -2.67939 0.368462
-1.39955 -1.67892 1.40835
-1.30825 -3.1194 0.0459945
-1.98161 -2.47833 0.884233
-0.171358 -3.02582 -0.170059
-2.86373 -1.79243 0.7242
-2.14454 -1.14106 1.44832
1.25395 -2.47761 0.0753475
-1.01038 -3.32226 -0.287166
-0.380515 -2.58208 0.485974
-0.728691 -2.18454 0.930361
-0.381447 -2.57725 0.480036
0.832111 -2.48344 0.122301
-1.69301 -1.44527 1.32544
-2.95806 -2.72138 0.399466
-1.27247 -1.46579 1.51105
1.61399 -1.86934 0.690717
1.07075 -2.25835 0.322819
-2.34107 -1.62511 0.940823
0.00823125 -2.07733 0.887521
1.41683 -1.63812 1.00329
-0.509325 -1.84738 1.29188
-1.5415 -0.545724 1.57975
1.55234 -2.24465 0.345554
-1.6731 -1.15754 1.37971
0.970202 -2.11868 0.550026
-1.54774 -1.41917 1.43717
-0.436954 -2.31729 0.699788
-2.71205 -2.98726 0.331025
-1.38101 -1.13876 1.59347
0.286056 -3.5073 -0.697047
-0.110067 -2.20655 0.748162
2.09071 -1.8004 0.777428
1.2842 -2.65917 0.0158271
0.872439 -2.90217 -0.121363
-1.04373 -1.80324 1.33604
0.8159 -2.46632 0.215839
-2.11457 -0.955479 1.20094
1.53545 -2.41737 0.211455
-2.11612 -2.73658 0.616305
-0.703788 -1.49529 1.63308
-0.908503 -2.15179 1.03916
0.433252 -2.53082 0.280017
-0.912425 -3.07345 -0.0132562
1.45997 -2.32486 0.376564
-2.08245 -3.28193 0.063362
-0.148817 -2.90013 -0.0306533
-2.17624 -2.8782 0.502834
0.344044 -2.27636 0.550452
-0.322919 -2.23117 0.780362
1.13221 -1.82588 0.867887
0.53037 -2.0337 0.754203
-1.23679 -2.83993 0.422886
-0.772755 -2.94076 0.137607
-0.87678 -2.45347 0.761664
-0.755327 -1.44317 1.70092
-1.94969 -2.91535 0.448473
0.0203981 -2.97296 -0.137501
-1.33112 -1.02465 1.64652
1.12545 -2.67163 0.0435748
-1.79058 -3.08095 0.255961
-0.681683 -2.74259 0.367252
-2.14217 -3.19585 0.167076
-1.61157 -0.572062 1.50404
0.664521 -2.55239 0.0672425
-0.101518 -1.83055 1.26841
1.57104 -2.62188 0.141941
-1.85837 -3.01407 0.345504
-0.569366 -2.54495 0.561564
-2.26687 -2.42372 0.83018
-0.635979 -3.20226 -0.253374
-1.30265 -0.568196 1.80588
-1.73411 -2.48906 0.887873
-2.81109 -2.01617 0.503332
-1.48039 -2.95074 0.287936
0.106573 -1.6197 1.43265
-1.1961 -1.51974 1.54079
1.12893 -2.64893 -0.0662266
-1.49708 -2.98747 0.257047
-0.117032 -3.04191 -0.195953
-0.567122 -2.51892 0.487565
-2.97699 -2.12915 0.585665
-1.96839 -2.78673 0.580987
-1.37462 -2.20461 1.12397
-2.71881 -2.21943 0.751739
0.607863 -1.49013 1.45755
1.08846 -1.71132 1.00238
0.729455 -2.44097 0.29568
-0.572669 -3.36584 -0.485064
-3.07235 -2.44437 0.412125
-0.761312 -3.00639 0.0509593
1.57174 -2.65952 0.0344329
-0.406285 -1.81245 1.30221
-0.0600207 -1.67755 1.41691
-2.23956 -1.14206 1.02682
-1.87639 -2.94014 0.429123
-0.32129 -2.75648 0.237045
-1.60467 -2.67457 0.571124
-0.217072 -2.91245 -0.00198216
-0.135699 -2.81479 0.0836678
-0.0775754 -2.37112 0.540124
-0.169822 -2.35706 0.640815
-2.92914 -2.67045 0.417434
0.660722 -3.30409 -0.476503
-2.75315 -2.44077 0.635713
0.803716 -2.33139 0.287957
-2.03777 -2.08125 0.931891
-0.260924 -3.4541 -0.644856
-0.293678 -3.53858 -0.759272
-1.62794 -1.50605 1.37043
-0.463332 -3.40659 -0.574137
-2.82988 -2.55511 0.481963
-1.96928 -2.56264 0.656533
0.761897 -2.11464 0.589377
0.704596 -2.73415 0.0212809
-2.76003 -3.07895 0.233653
-1.00543 -1.84572 1.28619
0.576595 -2.85561 -0.152533
-3.23761 -2.63822 -0.105234
-3.31515 -1.95044 0.032528
-3.32723 -2.54966 0.0119086
-3.45605 -2.79933 0.0586455
-2.67733 -2.15687 0.366678
-3.33762 -2.46972 0.222179
-3.56778 -2.53756 -0.308018
-3.92622 -2.99094 -0.441865
-3.36264 -1.5442 -1.48294
-3.2267 -2.70053 -0.385584
-3.27713 -2.68694 0.213626
-2.81114 -2.38683 0.433006
-3.23346 -1.76008 -1.07801
-3.06366 -2.80096 0.222684
-3.67098 -2.81545 -0.255476
-3.66315 -2.32201 -0.649375
-2.93602 -2.81516 0.280588
-3.29368 -1.63651 -1.21366
-3.64963 -1.97218 -0.587645
-3.22384 -1.83077 -0.875637
-3.32223 -3.01281 0.0259863
-3.49898 -1.77948 -1.25117
-3.54032 -2.91577 -0.487408
-3.28024 -2.18111 0.290735
-3.71397 -2.14851 -0.471152
-3.42403 -2.17953 -0.70354
-3.11313 -1.77931 0.308833
-3.28017 -2.70397 -0.226483
-3.77152 -2.44945 -1.75875
-3.41655 -2.36245 -0.466179
-3.17743 -2.83687 -0.321139
-2.8585 -1.9744 0.526872
-2.93024 -1.65264 0.670487
-3.25795 -1.99527 0.0386404
-3.67508 -2.18488 -0.360114
-3.50891 -2.57948 -1.03206
-3.47344 -2.93814 -0.931513
-4.15326 -3.23584 -1.43719
-3.31496 -2.07541 -0.609546
-3.49572 -1.94864 -0.262792
-3.35998 -2.05238 -0.214834
-3.32146 -1.63467 -0.459956
-3.07756 -2.54547 -1.3138
-3.15551 -1.92243 -1.36345
-3.59352 -2.2115 -1.45348
-3.63636 -2.10779 -0.859517
-3.63995 -2.55335 -1.56787
-3.34316 -3.18783 -0.205639
-3.60218 -2.24392 -0.852545
-3.33224 -1.65407 -0.550947
