ply
format ascii 1.0
comment Created by Open3D
element vertex 250
property double x
property double y
property double z
end_header
0.276351 -0.846611 -2.50604
0.296588 -2.17485 -0.625788
0.940257 -0.741604 -2.27841
-0.614959 -1.79282 -2.95247
0.767271 -0.464832 -2.86743
0.3313 -1.25874 -2.46135
0.510548 -1.62051 -1.31103
-0.623251 -2.60822 -1.32543
0.243425 -2.31511 -0.539734
-0.888822 -2.62186 -0.385372
1.30373 -0.448521 -2.07499
-0.720137 -2.63543 -2.05596
0.93513 -0.389959 -2.81259
-1.96896 -2.9183 -0.689902
-0.248128 -1.6813 -2.9706
-0.859128 -2.36376 -2.02113
-1.85112 -3.40089 -2.22078
0.162384 -1.21639 -2.63212
-0.00788579 -2.28363 -1.70718
-1.27358 -2.92231 -1.7805
-0.582443 -2.76325 -1.32072
-0.0521481 -2.06192 -0.910024
1.16591 -0.521686 -1.82826
0.495489 -2.1975 -0.649636
-1.01947 -2.67417 -0.302635
0.278305 -1.7639 -1.68022
1.12755 -0.336365 -2.2524
-0.110606 -1.72424 -1.94954
0.0513514 -1.95377 -1.88157
-0.408457 -2.29281 0.132266
-0.975974 -2.67343 -1.28889
-1.34338 -2.77135 -0.969455
0.542003 -2.1069 -0.403172
0.997067 -0.490928 -2.69741
-0.34068 -2.44373 -0.251163
1.50832 -0.567762 -1.70324
-0.236921 -1.1031 -3.55854
-2.0062 -2.97522 -0.732794
-0.958516 -3.10717 -2.11833
0.277164 -0.90064 -2.77801
-0.0026576 -1.18733 -2.74036
-1.00601 -2.78298 -0.79605
0.639914 -1.4507 -1.59622
1.75928 0.11802 -2.36035
0.192736 -0.962885 -3.49895
-0.128386 -2.20776 0.0118475
1.677 -0.113578 -2.58285
-0.500272 -2.2463 0.192933
0.179617 -1.65253 -2.21773
-0.485876 -2.49884 -1.86856
-0.764205 -2.6538 -0.760201
1.06164 -0.661576 -2.5054
-0.842709 -2.86656 -1.19622
-1.23697 -3.03832 -0.903262
0.360746 -2.02888 -0.827805
-0.903263 -2.64233 -0.426865
0.444287 -2.28009 -0.605904
-0.16219 -2.14312 -1.9653
0.153159 -1.26481 -2.2164
0.540141 -0.801444 -3.01758
-1.26236 -2.61231 -0.427215
-1.43681 -2.79502 -0.424159
0.0175395 -2.15119 0.291954
-1.04054 -2.49207 -0.0812174
0.690376 -0.603137 -2.80909
1.73555 -0.222511 -2.21792
-0.601414 -2.57684 -1.92308
-0.857716 -2.69276 -1.43394
-0.513004 -1.9298 -2.23285
1.72219 -0.194727 -2.15827
-0.345834 -2.36188 -1.29037
1.63171 -0.446702 -1.50828
-0.993192 -2.19871 -3.1378
-1.91278 -3.34 -1.57258
1.22297 -0.657251 -2.33945
-0.27321 -1.61073 -2.80903
-0.264796 -2.41128 -0.477017
-0.964632 -2.30669 0.0893514
0.137656 -1.51496 -2.24191
-1.07908 -2.76254 -0.63637
-1.20021 -2.9536 -1.14121
0.98207 -0.557876 -2.4366
-1.86963 -3.2895 -1.63546
-0.128105 -2.35056 -0.733664
-0.781362 -2.06905 -2.53807
-0.887461 -2.61447 -1.52321
-0.0916744 -1.12737 -2.78192
-1.63324 -2.90887 -0.753304
-0.934774 -2.16545 -0.0978135
1.27033 -0.500623 -2.48745
-0.625003 -1.99706 -2.8883
0.0878619 -1.41613 -2.10765
0.23974 -2.07675 -1.49195
0.00114588 -1.25092 -2.11598
0.962996 -0.760585 -2.38616
-0.335509 -2.54337 -0.475109
-1.7861 -3.25524 -1.68375
0.0603012 -2.33296 -0.526004
1.73724 -0.133186 -1.81672
1.25762 -0.656828 -2.16281
-1.01437 -2.849 -0.626467
0.675892 -1.37635 -1.58258
1.7304 -0.289488 -1.45837
0.599876 -2.01758 -1.1076
-0.171684 -2.14703 0.392622
1.50917 -0.120534 -2.2646
-0.278809 -2.50039 -0.195143
1.17092 -0.529232 -1.95286
-0.205021 -2.42191 -0.450241
0.342686 -1.83497 -1.75532
-1.60358 -3.20917 -2.00072
0.00630179 -2.31627 -0.176019
0.0638676 -0.908352 -3.49113
0.662427 -1.71435 -1.70271
2.03646 0.352022 -1.84274
1.16329 -0.313356 -2.69399
0.727073 -0.472739 -2.88024
0.269808 -2.45689 -0.928245
0.904976 -0.622991 -2.34781
-0.811235 -2.43325 0.0129309
1.43435 -0.135272 -2.46375
-1.13836 -2.63304 -1.8226
0.520321 -1.976 -0.641032
0.0931613 -2.09642 -1.39462
0.601202 -0.814291 -2.30782
-0.529314 -1.75156 -2.60483
1.36181 -0.0315171 -2.31993
-1.25275 -2.80901 -2.49785
0.106468 -1.35159 -2.61003
-1.16874 -2.80463 -1.96797
0.724704 -1.01608 -1.95666
0.439081 -1.71351 -1.67825
1.39421 -0.360804 -1.62077
1.00922 -0.995568 -1.70094
-0.516374 -2.14188 -2.16794
-0.349534 -1.6857 -2.46326
-0.0669679 -1.96105 -1.77753
0.453036 -1.89933 -0.567381
-1.05756 -2.58789 -2.0743
0.134881 -1.13371 -2.75589
0.0964873 -2.32518 -0.0609749
1.01773 -0.34994 -2.66655
-0.948933 -2.62284 -2.31454
-0.134449 -1.72718 -2.22021
-1.26498 -2.82686 -2.37348
-0.239983 -2.2115 0.361433
0.837724 -0.918604 -2.42734
0.698877 -1.36399 -1.21555
1.37994 -0.0516625 -2.68879
-0.978553 -2.63717 -2.21134
0.056363 -1.69711 -1.99712
-1.06089 -2.89012 -1.41945
-0.337897 -1.71885 -2.85057
0.0753094 -2.0047 0.38914
-0.686719 -2.48791 -1.58456
-1.49 -3.26726 -1.01598
-0.6249 -2.54955 -2.24254
0.972526 -1.30816 -1.00804
0.0883868 -2.22567 -0.588221
1.09653 -0.552921 -2.6659
-0.657867 -2.54822 -2.2836
-0.0544227 -1.10545 -2.81607
0.162739 -1.93506 -1.97975
-1.74999 -3.09251 -1.07904
-0.924259 -2.77522 -1.89699
-0.30042 -2.27247 -1.32359
-1.5115 -2.94649 -1.16821
1.36361 -0.969059 -0.990669
1.51523 -0.579541 -1.44946
0.838765 -0.622286 -2.28424
-0.44442 -1.55681 -3.09734
-1.81244 -3.35858 -1.39296
-0.348623 -1.73153 -2.55034
1.40351 -0.168341 -2.74935
0.623579 -1.83195 -1.10251
0.94059 -1.62058 -1.01642
-0.923215 -2.62905 -0.180106
-0.942071 -2.67752 -2.1104
0.0237405 -1.35831 -2.36207
-0.565237 -2.68694 -1.86528
-0.0350358 -1.20569 -2.61057
0.141963 -1.30389 -2.50044
0.475434 -1.44666 -1.94483
0.389809 -1.41147 -1.88674
-1.68484 -3.36757 -1.628
0.346973 -0.491431 -3.32743
-1.58942 -2.99506 -1.402
1.0654 -0.882411 -2.17942
-0.738497 -2.8842 -1.10812
-0.258194 -1.38253 -3.29622
-0.387998 -1.2872 -3.41124
-0.29277 -2.48156 -0.533957
-0.427678 -1.42257 -3.19138
-1.55775 -3.338 -1.51962
-0.78614 -2.94042 -1.65235
1.18696 -0.973833 -1.86996
0.678053 -0.600311 -2.64051
-1.70166 -3.19994 -2.10874
0.23404 -2.34723 -0.997603
0.588937 -0.828599 -2.76968
-2.40186 -2.90588 -1.73515
-2.45274 -2.69728 -1.04848
-2.37655 -3.05132 -1.5904
-2.28343 -3.54658 -1.75368
-1.88551 -2.33266 -1.27691
-2.18288 -3.30814 -1.43156
-2.72195 -3.06183 -1.6341
-2.88378 -3.70192 -1.9934
-3.45463 -1.59595 -1.19984
-2.56853 -2.73586 -1.89321
-2.11399 -3.38154 -1.64355
-1.85087 -2.70753 -1.42298
-3.12803 -1.79092 -1.28737
-2.01308 -3.15746 -1.80063
-2.67402 -3.41976 -1.83591
-3.02556 -2.80448 -1.53756
-1.8954 -3.09013 -1.82331
-3.25291 -1.71657 -1.20762
-3.01856 -2.65621 -1.20309
-2.99654 -1.93124 -1.28361
-2.2236 -3.46123 -1.99332
-3.36747 -1.98532 -1.2986
-2.76402 -3.13106 -2.04396
-2.17691 -3.07914 -1.16562
-2.94979 -2.90814 -1.30409
-2.95654 -2.42856 -1.48847
-2.18961 -2.58064 -0.846788
-2.49353 -2.9042 -1.82664
-3.72965 -2.32914 -2.01112
-2.78035 -2.67205 -1.57178
-2.4703 -2.82554 -2.00385
-1.8924 -2.55628 -1.00937
-1.81831 -2.67878 -0.642591
-2.41977 -2.65071 -1.10191
-2.85142 -2.96511 -1.30708
-3.14225 -2.54469 -1.94148
-3.001 -2.789 -2.2365
-3.64148 -3.33856 -2.51341
-2.85596 -2.31295 -1.38912
-2.73646 -2.69112 -1.10604
-2.6323 -2.61127 -1.21798
-2.81885 -2.1896 -0.937184
-3.05577 -1.96039 -2.11221
-3.22824 -1.64092 -1.55129
-3.48588 -2.18975 -1.73518
-3.16905 -2.52852 -1.4248
-3.53204 -2.35857 -2.07114
-2.38726 -3.36759 -2.23124
-3.13145 -2.56442 -1.55388
-2.87833 -2.15372 -0.983873
