ply
format ascii 1.0
comment Created by Open3D
element vertex 400
property double x
property double y
property double z
end_header
-2.81951 -0.33214 -0.25352
-2.29106 -0.614227 1.3944
-2.66182 -0.854562 1.01358
-3.092 -0.805172 -0.289002
-2.46707 -0.799922 1.39869
-2.63289 0.358111 -0.579159
-2.44306 -0.755919 1.34352
-2.18219 -0.0239434 0.745187
-2.11643 -0.11688 1.05596
-2.74159 -0.178673 -0.251423
-2.31141 0.404828 0.0281279
-2.88611 -0.517216 -0.170266
-2.36609 -0.83514 1.92683
-2.68901 -0.679551 0.599779
-2.48863 -0.825715 1.40375
-2.65736 -0.921886 1.24841
-2.9134 -0.592221 -0.173051
-3.14833 -0.330168 -1.02496
-2.29792 -0.564877 1.31307
-1.95975 -0.345701 1.91306
-2.87363 -0.353044 -0.348534
-1.98674 0.584614 0.549954
-2.50725 -0.55219 0.81597
-1.99748 0.31234 0.79046
-2.37925 -0.207307 0.524933
-2.99481 -0.79761 -0.05907
-2.13528 -0.502867 1.61023
-2.50933 -0.756463 1.0312
-1.90785 0.556265 0.857405
-2.08219 -0.125559 1.09963
-2.65523 -0.418481 0.214789
-3.40623 -1.24116 -0.266685
-2.22745 0.015094 0.631324
-2.87093 -0.577772 -0.043702
-3.13252 -0.222047 -1.16941
-2.44011 0.320903 -0.151307
-2.09274 -0.150962 1.21549
-2.01225 -0.194865 1.36354
-2.37184 0.100222 0.228292
-2.79754 0.267695 -0.820135
-2.02079 0.418861 0.626271
-2.66082 -0.866109 0.971551
-2.50994 -0.796098 1.24468
-2.88437 -0.401186 -0.318976
-3.00773 0.316038 -1.38183
-2.43797 0.141393 0.0336929
-2.51557 -0.484217 0.608943
-2.62941 -0.807447 1.06567
-2.87035 -0.338982 -0.346502
-2.18368 0.588181 0.118241
-2.06182 -0.222554 1.34743
-2.53534 -0.44295 0.51235
-2.47611 -0.276242 0.419088
-2.9373 -0.538749 -0.262579
-2.92161 -0.859851 0.457049
-3.07568 -1.07171 0.420393
-3.02063 -0.886327 0.155753
-2.383 0.766974 -0.504186
-3.1165 -0.53638 -0.66293
-2.5568 0.103732 -0.167278
-2.90303 0.163904 -0.965976
-3.30407 -1.11898 -0.24419
-2.61924 -0.233118 0.061902
-2.79503 -0.445736 -0.0524262
-2.62227 0.151642 -0.347078
-3.02391 -0.892162 0.129938
-2.13413 0.358051 0.450611
-3.22886 -0.21691 -1.26226
-2.16062 0.180536 0.593316
-2.80615 0.147156 -0.778984
-2.53521 -0.412556 0.471254
-2.38622 0.656762 -0.391608
-2.25875 -0.524225 1.26445
-1.8142 0.0462696 1.61158
-2.63251 0.348137 -0.565523
-3.08401 -1.02302 0.221789
-2.12688 0.849524 -0.0501355
-2.12336 0.680982 0.176332
-2.23581 -0.151613 0.777887
-1.94382 -0.00293971 1.31883
-2.56483 0.341877 -0.422633
-2.13865 -0.178865 1.02771
-2.98652 -0.434898 -0.517618
-2.20043 0.347815 0.304235
-2.47499 0.756074 -0.696966
-2.20448 0.142486 0.513056
-2.51141 -0.880921 1.4913
-2.0037 -0.343797 1.67943
-2.01906 0.935688 0.162638
-2.70714 -0.808574 0.751506
-2.32465 0.0868388 0.318979
-2.26247 -0.715649 1.81775
-2.11762 -0.286028 1.35561
-2.81602 0.102605 -0.711255
-2.31856 -0.664519 1.49495
-1.89489 0.163262 1.33246
-2.89565 -0.128741 -0.663831
-3.44707 -1.2941 -0.240357
-2.54807 0.302894 -0.352646
-2.88964 -0.0884959 -0.643366
-2.45455 0.618228 -0.485082
-2.34115 -0.129301 0.518999
-2.74694 0.192754 -0.681726
-2.21312 0.657838 -0.0275522
-3.00115 0.212233 -1.21824
-2.8251 0.119357 -0.897963
-2.24012 -0.0239985 0.614851
-1.98595 0.120919 1.12327
-3.12358 0.0984051 -1.50213
-2.12726 -0.256325 1.23983
-2.20066 -0.238158 0.977142
-2.91247 0.411698 -1.25332
-2.58367 0.182273 -0.299717
-2.67074 -0.750667 0.633903
-3.18524 -0.435276 -1.02596
-2.9779 0.526191 -1.56731
-1.94297 -0.130707 1.49115
-2.63258 0.308966 -0.525444
-2.33433 0.0193727 0.371513
-2.60497 -0.601297 0.568673
-2.22334 -0.562444 1.45079
-3.37537 -1.22201 -0.154125
-2.85067 -0.19248 -0.47383
-2.91884 -0.129385 -0.699605
-2.8537 -0.41617 -0.22647
-2.30675 0.0947531 0.350043
-2.14957 -0.150582 1.02395
-2.48523 0.559035 -0.493405
-3.19031 -0.999995 -0.147845
-2.8121 -0.0696303 -0.50626
-2.08611 0.262648 0.639298
-2.40887 -0.70189 1.16461
-2.72622 0.21282 -0.67362
-2.96954 0.500601 -1.61575
-2.14158 0.103067 0.716947
-3.04318 -0.144033 -0.965833
-2.08149 0.822163 0.143893
-2.3827 0.54713 -0.26602
-2.94448 -0.543923 -0.322903
-2.88643 0.410988 -1.21265
-2.77456 0.528224 -1.05452
-2.11765 0.413316 0.518716
-3.09462 -0.342705 -0.925775
-2.5351 0.358288 -0.380282
-3.12959 0.279466 -1.60314
-2.0306 -0.403564 1.76218
-2.80268 -0.853632 0.701348
-2.2294 -0.683881 1.86135
-3.28381 -1.05584 -0.387177
-2.52961 0.278958 -0.288412
-2.66442 0.236282 -0.531138
-2.98322 -0.630929 -0.244739
-2.86284 -0.23356 -0.48933
-1.95611 0.596382 0.665052
-2.00866 0.119595 1.12113
-3.20245 -1.04253 -0.0410198
-2.58428 -0.74171 0.93021
-2.89504 0.506105 -1.2897
-2.01512 0.581063 0.548633
-2.3624 -0.411015 0.840015
-2.87129 -0.649608 0.0703221
-1.78765 0.857647 0.821457
-2.26221 0.216117 0.318147
-2.78774 -0.674016 0.235254
-3.0938 -0.365558 -0.846818
-2.45029 -0.850778 1.63287
-2.95783 -1.00521 0.391411
-2.04992 0.947831 0.00241103
-2.95425 -0.172326 -0.877876
-3.24569 -1.11967 0.189492
-2.70659 -0.783662 0.718558
-2.82434 0.00954443 -0.641066
-3.00127 -1.09631 0.551936
-2.09656 0.413836 0.585636
-2.96615 -1.02421 0.618479
-2.97727 -1.12693 0.793307
-2.52533 0.787073 -0.814917
-2.57991 0.293919 -0.404861
-2.24761 0.431678 0.180508
-2.29736 0.313036 0.158916
-2.26636 -0.671908 1.72594
-2.74761 -0.815847 0.681843
-2.36999 -0.608001 1.23383
-2.7133 -0.755171 0.740629
-3.03821 -0.0746381 -1.12008
-2.17899 0.315676 0.392386
-2.50625 -0.642114 0.893796
-2.77235 0.607343 -1.17767
-2.9317 -0.288953 -0.679783
-2.23386 -0.621971 1.56922
-3.14532 -1.09334 0.333096
-2.39284 -0.764641 1.4489
-2.2397 0.682239 -0.098721
-2.29798 0.519556 -0.0652536
-2.70995 -0.428806 0.129804
-3.4728 -1.31047 -0.366499
-2.28992 -0.320251 0.937959
-2.54618 -0.826962 1.21155
-2.06972 -0.379162 1.5493
-3.13659 0.30382 -1.72951
-2.23014 0.0484366 0.555487
-2.71514 0.417779 -0.809981
-2.72429 0.0908013 -0.493839
-2.17371 -0.577898 1.69799
-3.05924 0.200511 -1.35619
-1.83721 0.793731 0.658421
-2.75435 -0.490337 0.121163
-3.43147 -1.29481 -0.115559
-3.1791 -0.496409 -1.00116
-2.45625 -0.48867 0.7589
-2.62575 0.565196 -0.796954
-2.66399 -0.617088 0.452172
-3.18076 -1.04658 0.243109
-2.64529 -0.871406 0.956124
-1.98731 0.617934 0.504734
-3.06098 -0.462366 -0.743786
-2.60588 -0.556221 0.501569
-2.08943 0.195232 0.703972
-2.60279 0.32319 -0.48021
-2.75517 -1.00682 1.14466
-1.97049 0.174409 1.03619
-2.1567 0.793542 -0.044388
-2.97734 -0.733325 -0.0637347
-2.23223 -0.584366 1.48743
-3.25811 -0.56359 -0.9899
-3.11163 -0.599889 -0.751059
-2.05652 -0.025596 1.06622
-3.237 -0.931872 -0.454962
-2.80222 0.0170959 -0.596934
-2.9628 -0.49942 -0.42983
-2.13965 0.602683 0.214893
-3.30818 -1.01273 -0.557494
-2.09825 -0.16929 1.16231
-2.55299 -0.893224 1.3891
-2.33331 0.874082 -0.527578
-2.55632 -0.286834 0.276676
-1.99681 0.624755 0.474735
-2.84205 0.00425272 -0.703527
-3.00632 -0.54967 -0.42382
-3.24074 0.0659977 -1.66937
-3.36505 -1.16526 -0.414138
-2.99158 -0.0660054 -1.00148
-2.74283 -0.465713 0.0927567
-3.01446 -0.15635 -0.93365
-2.28769 -0.31087 0.86032
-3.05217 -0.312661 -0.929621
-2.60736 0.13691 -0.30208
-3.19735 -0.956589 -0.277359
-2.66201 -0.30088 0.03578
-2.31767 0.391449 0.0544787
-3.14119 -1.07582 0.234415
-3.11718 -0.713883 -0.580673
-2.39361 0.101998 0.162608
-3.05749 -0.509952 -0.670142
-3.18472 -0.947695 -0.349135
-2.42466 0.0986795 0.105399
-2.4372 -0.16085 0.35456
-3.03165 -0.812797 -0.0627067
-2.28604 -0.683791 1.69509
-2.7807 -0.142532 -0.377562
-2.65272 -0.566089 0.478101
-2.29359 0.144656 0.340086
-2.23187 -0.552347 1.41129
-2.73381 0.0221676 -0.441052
-2.37436 -0.533891 0.966349
-3.04919 0.157328 -1.41296
-2.70092 -0.705847 0.664633
-2.79892 0.502196 -1.10973
-1.87809 0.519166 0.812076
-3.13263 -0.396448 -0.884708
-2.45221 0.0770236 0.0698536
-2.9392 0.272129 -1.1952
-3.09514 -0.83716 -0.30423
-3.17768 0.375567 -1.91552
-2.7269 -0.810589 0.649701
-2.64982 -0.560024 0.516106
-2.64628 0.730243 -1.01804
-2.81973 -0.224751 -0.367451
-2.46874 0.215223 -0.100487
-2.7974 0.0700566 -0.634593
-2.25571 0.118699 0.461479
-1.94547 0.856741 0.439571
-2.40629 -0.672078 1.1437
-2.47105 0.714769 -0.640331
-2.90975 -0.588367 -0.127127
-2.57076 -0.135826 0.0516745
-2.84029 -0.358129 -0.336399
-2.75152 0.0883264 -0.544814
-2.63792 0.048499 -0.278191
-2.21863 -0.660016 1.78374
-2.33242 -0.175752 0.590768
-2.11477 -0.104712 0.985898
-2.80582 -0.741779 0.341041
-2.8161 -0.971345 0.798395
-2.07778 -0.337226 1.44144
-2.09906 0.862996 -0.0125137
-1.9301 -0.0150331 1.44769
-3.21644 -0.906669 -0.461059
-2.99389 -0.580807 -0.337527
-2.8433 0.422937 -1.08216
-2.33877 -0.720841 1.46133
-2.56238 -0.770489 0.961201
-2.60689 0.621824 -0.802046
-2.77441 -0.0607191 -0.466669
-2.9167 0.552013 -1.42562
-2.87711 -0.458621 -0.224041
-2.79048 0.0518431 -0.593927
-2.23892 -0.679434 1.76162
-2.59094 0.217363 -0.349427
-2.6636 -0.0781916 -0.198112
-2.85082 0.522779 -1.26161
-2.53032 -0.75811 1.10318
-2.63827 0.322949 -0.551161
-2.30015 0.552879 -0.0448406
-2.11063 0.340028 0.513698
-2.59455 -0.44952 0.42075
-2.07497 0.252405 0.816515
-3.27285 -0.945139 -0.552629
-3.08933 0.239887 -1.54665
-3.06398 -0.703575 -0.358405
-2.88653 -0.764752 0.200678
-3.17376 -0.836056 -0.466786
-2.24052 0.193737 0.396467
-3.35925 -1.20894 -0.0288871
-2.03529 -0.0950869 1.21273
-2.53827 -0.518106 0.637904
-2.01916 -0.345494 1.62641
-1.85675 0.760655 0.684595
-2.94523 -0.336282 -0.560172
-2.20883 -0.390648 1.17453
-2.95576 -0.83764 0.24634
-2.4158 0.4802 -0.26383
-3.30278 -1.17489 0.135396
-3.14367 -0.135283 -1.28486
-2.13449 0.587121 0.289971
-2.66381 0.529213 -0.822737
-3.05352 0.286398 -1.48577
-2.93048 0.313411 -1.16133
-2.65494 0.61648 -0.90047
-2.51613 -0.732024 1.01294
-3.16443 -0.897739 -0.297859
-2.03114 -0.201901 1.41914
-2.85521 -0.837792 0.701418
-2.44967 0.198505 -0.0432754
-2.50414 -0.213349 0.268471
-2.67101 -0.768332 0.669758
-2.39524 -0.398292 0.750278
-2.25637 -0.63091 1.65642
-2.94592 -0.651147 -0.129247
-2.18689 -0.656659 2.10115
-1.84252 0.833577 0.689567
-2.06217 -0.147127 1.19364
-2.27453 0.860158 -0.373612
-2.97308 -1.04828 0.658805
-2.78367 -0.621908 0.197672
-2.97601 0.233571 -1.25827
-2.28794 0.0907806 0.436111
-2.25933 0.488116 0.0751765
-2.11926 0.575603 0.267943
-2.1239 0.00669497 0.838095
-2.04941 0.143766 1.00211
-2.50661 0.607557 -0.599813
-2.90298 -0.746552 0.188368
-2.99553 0.0567976 -1.12026
-2.36816 0.701737 -0.411923
-3.03517 -0.711253 -0.362893
-2.9704 0.153863 -1.12195
-2.4767 -0.415334 0.629426
-2.91321 -0.78139 0.26777
-2.34255 -0.773995 1.74534
-2.22284 0.638841 -0.0167692
-2.55778 0.466604 -0.539416
-3.06317 -0.757031 -0.282261
-2.71793 0.232181 -0.635499
-2.34991 0.295052 0.0879317
-2.97949 -0.16009 -0.80408
-2.69845 -0.542795 0.271055
-2.29352 -0.580367 1.27214
-3.09404 -1.11134 0.47775
-2.39571 -0.275564 0.591626
-1.86989 0.881208 0.638308
-2.44958 -0.181893 0.361027
-2.63342 0.41626 -0.64699
-3.29361 -1.13748 -0.103097
-2.60434 -0.780428 1.20816
-2.58128 -0.858522 1.19298
-2.78788 -0.814691 0.649169
-2.81703 -0.556357 0.0443032
-2.20482 0.621864 0.0608436
-2.7823 -1.02185 1.05936
-3.01364 -0.440365 -0.626595
-3.07942 -0.96234 0.15276
-2.7996 -0.84114 0.60501
-2.48359 -0.903978 1.50034
-2.37646 -0.442513 0.845077
-2.04734 -0.0191089 1.078
-3.11631 -0.556558 -0.754658
-2.45534 -0.328872 0.533578
-2.73063 -0.274298 -0.123688
-3.00635 -0.707197 -0.197507
