ply
format ascii 1.0
comment Created by Open3D
element vertex 250
property double x
property double y
property double z
end_header
0.398131 3.45814 -0.0172106
-1.48294 1.70509 -0.851035
0.553342 1.98098 -1.31049
-0.652516 2.97269 -0.422469
0.995742 3.03124 -0.676855
-0.0457049 2.25154 -1.05418
-0.652331 2.38097 -0.664824
-1.91164 2.62099 -0.178764
-1.67888 1.34471 -1.07067
-2.38651 1.66387 -0.0227743
0.87751 1.95845 -1.32923
-1.75335 2.43907 -0.65962
1.09169 2.84231 -0.858737
-2.91862 2.01853 0.741092
-0.468072 2.24234 -1.13451
-1.50056 3.48218 0.304597
-2.76778 2.69244 -0.120765
0.0167414 2.70438 -0.700507
-1.35616 1.59226 -1.37116
-2.25019 3.04504 0.173002
-2.09006 1.85478 -0.791269
-1.32067 3.08869 0.220058
0.723236 2.48507 -0.779401
-1.44878 1.34769 -1.2713
-2.53818 1.22227 -0.178196
-0.758253 2.21716 -0.880022
1.02285 2.71603 -0.73725
-0.705576 3.24424 -0.037984
-0.949755 2.14118 -0.97341
-2.12952 1.05948 -0.302165
-2.06985 3.16084 0.439373
-2.40569 2.95256 0.74033
-1.42112 1.47041 -1.03209
0.948975 2.28824 -1.25617
-2.09819 1.31154 -0.515118
0.702691 1.58426 -1.59118
0.291536 3.09194 -0.597738
-2.97532 1.9268 0.653935
-2.30054 1.53706 -1.35833
0.407905 3.05915 -0.464171
0.0446307 3.09453 -0.361253
-2.40591 2.15046 0.0448539
-0.392179 2.01793 -1.0675
1.66549 2.42642 -1.2336
0.524529 2.70643 -1.07962
-1.8817 1.51543 -0.263997
1.4609 1.85677 -1.79884
-2.12904 1.22768 -0.0550497
-0.540598 2.02334 -1.16937
-1.61684 2.30495 -0.74645
-2.20892 2.24275 0.00217755
0.714177 1.63031 -1.71902
-2.30187 2.03581 -0.449565
-2.7314 1.44983 -0.42686
-1.24559 2.00684 -0.742467
-2.39364 1.70564 -0.0210313
-1.56291 1.22241 -1.33289
-1.16349 2.19729 -0.924545
-0.124673 3.19825 -0.164018
0.621819 2.44198 -1.15553
-2.45127 2.34939 0.704644
-2.73674 1.51637 0.210715
-1.91133 0.907219 -0.573041
-2.43297 1.5358 0.279351
0.810352 2.79141 -0.815219
1.2443 1.48495 -1.9357
-1.70509 2.37669 -0.684262
-2.01548 2.9193 0.0905977
-0.930936 3.41607 0.114268
1.25285 1.593 -1.80398
-1.59593 2.74774 -0.158399
0.806899 1.78312 -1.37917
-1.1024 2.78202 -0.584927
-2.96013 2.43351 0.183595
0.70589 1.37577 -1.91478
-0.431016 2.72783 -0.667199
-1.93489 1.80606 -0.376694
-2.26859 1.91705 0.671523
-0.389734 2.54188 -0.735437
-2.47788 1.97218 0.0984157
-2.50194 2.36733 0.0376757
0.801036 2.27077 -1.14227
-2.86607 2.62816 0.265239
-1.73208 2.06291 -0.440808
-1.06134 3.3244 0.0150315
-1.90748 3.2204 0.301876
0.0969767 3.35586 -0.109124
-2.75647 2.1785 0.532383
-1.98486 3.15372 1.40889
0.922057 1.57572 -1.81879
-0.877481 2.6762 -0.689026
-0.316868 3.18389 -0.146945
-1.14479 1.69263 -1.26096
-0.160984 3.73038 0.368046
0.560864 1.73119 -1.56303
-2.11312 1.3125 -0.710888
-2.78426 2.71126 0.241135
-1.75037 1.5549 -0.787664
1.2283 1.92044 -1.37027
0.668871 1.45543 -1.78889
-2.58252 1.29481 -0.432744
-0.310488 2.12187 -0.978125
0.976872 1.94291 -1.23474
-1.10516 1.38646 -1.49309
-2.02027 0.742968 -0.458612
1.32172 2.25069 -1.22622
-2.17684 0.846588 -0.863669
0.74257 2.27522 -0.994778
-1.94673 1.58782 -0.555844
-0.81126 1.69693 -1.35158
-2.56994 2.81151 -0.00496249
-1.88794 1.25024 -0.720786
0.552058 3.10654 -0.680435
-0.63938 1.22775 -1.81135
1.81817 2.55703 -0.934609
1.17686 2.45827 -1.17627
0.983609 3.10595 -0.608292
-1.69269 1.04863 -1.5952
0.697197 2.40217 -0.982083
-2.35272 1.1874 -0.041631
1.35231 2.35997 -1.22052
-1.90095 3.49215 0.495947
-1.21079 1.85749 -0.828164
-1.21086 2.18046 -0.783772
0.440701 2.8845 -0.515753
-0.670953 3.30228 -0.0547772
1.41955 3.02047 -0.592775
-1.92564 2.9186 -0.277268
-0.141713 2.53517 -0.830794
-2.04338 3.12754 0.0997223
0.159717 2.36446 -0.865317
-0.684016 1.83084 -1.22746
0.882215 2.48392 -0.750173
0.165749 1.8831 -1.24507
-1.16471 3.06263 -0.198371
-0.59762 3.22867 -0.127756
-0.991852 2.69673 -0.465178
-1.16214 2.25787 -0.427846
-1.76318 3.34274 0.21339
0.129282 2.85318 -0.605519
-1.92092 0.951208 -0.923675
1.10589 2.77394 -0.860735
-1.71425 2.84903 -0.353124
-0.65579 2.90722 -0.393254
-1.97857 3.00819 -0.147936
-2.1041 0.575543 -0.565817
0.380131 1.60428 -1.65984
-0.369476 2.6418 -0.443505
1.51669 2.90696 -0.908928
-1.76047 2.98379 -0.190916
-0.644609 2.70986 -0.527949
-2.28659 2.65649 -0.0191009
-0.546443 2.59063 -0.790777
-1.76766 1.24597 -0.259561
-1.70949 3.14101 0.125477
-3.03016 0.884757 -0.781234
-1.6036 2.17197 -0.966004
-0.316516 2.22428 -0.780508
-1.59769 1.94811 -0.532351
0.883626 1.77585 -1.68374
-1.59695 2.23444 -0.922207
0.136076 3.29338 -0.186544
-0.896342 1.66357 -1.41594
-2.84865 2.30186 0.404917
-1.98053 2.71859 -0.30385
-1.47804 2.91701 -0.0536975
-2.56868 2.80683 0.564181
0.104115 2.02502 -1.0159
0.633603 1.84498 -1.28922
0.675804 2.70826 -0.69468
-0.342594 2.89795 -0.5534
-3.02988 1.97477 -0.0972265
-0.625565 3.01494 -0.343413
1.40228 2.3612 -1.38198
-0.909619 1.73607 -1.17473
-0.64378 1.62208 -1.33159
-2.52843 0.859518 -0.389423
-1.82139 2.88905 -0.246675
-0.212954 3.13001 -0.24227
-1.83952 1.92714 -1.03309
-0.0108391 3.28018 -0.15122
-0.108529 2.71366 -0.653444
-0.338258 2.02057 -1.13151
-0.319918 2.53029 -0.680773
-2.9024 2.17765 -0.217772
1.0132 3.70291 -0.186994
-2.55243 2.99343 0.58072
0.39959 1.36975 -1.83049
-2.3409 1.57116 -0.790543
-0.0751047 2.67228 -0.862553
0.0234806 3.02746 -0.538542
-2.00211 1.62343 -0.545715
-0.179765 3.0225 -0.461813
-2.88275 1.92354 -0.40329
-2.22071 1.78001 -0.972023
0.259387 1.28168 -1.86122
0.766313 2.94593 -0.605988
-2.55282 2.95807 0.111857
-1.56667 1.33496 -1.35755
0.531358 2.35802 -1.12032
-2.64651 3.24422 1.27361
-2.7314 2.78976 1.55701
-2.82973 2.9839 1.08373
-3.232 2.26152 0.150276
-2.0556 3.84648 1.84498
-3.07843 2.38636 0.48019
-2.96713 2.76048 1.19656
-3.51997 2.14455 0.339464
-2.10548 2.44087 2.74762
-2.5003 3.34815 1.48858
-3.04272 2.49975 0.325942
-2.34827 3.54495 1.31095
-2.09892 2.87407 2.58188
-2.71662 3.08988 0.661186
-3.21704 2.53406 0.676784
-2.89316 2.60535 1.5632
-2.5996 3.19782 0.659633
-2.11863 2.67523 2.65121
-2.88192 2.38394 1.70315
-2.16823 2.97588 2.45435
-3.0279 2.69786 0.28908
-2.3831 2.46534 2.39623
-2.89825 2.97657 1.08609
-2.95018 2.50665 0.847056
-3.05023 2.33203 1.40064
-2.53081 2.91221 1.95817
-2.5864 2.93217 1.61829
-2.64989 3.23924 1.29387
-2.59785 2.38834 2.02072
-2.64753 3.00719 1.67535
-2.50504 3.39503 1.31731
-2.37234 3.38877 1.58101
-2.62107 2.66818 1.20231
-2.65043 2.94359 1.62433
-3.06032 2.37658 1.31088
-2.55509 2.94541 1.79691
-2.61412 3.09943 1.45577
-3.29866 2.33204 1.00341
-2.41589 3.02302 2.07367
-2.82714 2.5686 1.62202
-2.66009 2.89398 1.72512
-2.45764 2.73307 2.1989
-1.92954 3.31068 2.21198
-1.91194 2.98836 2.6739
-2.46085 2.56536 2.17754
-2.74385 2.53026 1.86854
-2.51342 2.65608 1.97366
-2.90933 2.9839 0.524047
-2.71076 2.67104 1.82918
-2.43321 2.73017 2.24084
