ply
format ascii 1.0
comment Created by Open3D
element vertex 250
property double x
property double y
property double z
end_header
1.16126 -0.564722 3.23141
1.24851 1.37339 2.03376
1.42258 -1.21672 1.52933
0.416042 -0.707041 2.91241
1.3964 -1.46368 2.50969
1.03422 -0.929028 1.98162
1.41828 0.624343 2.45751
0.660847 1.40356 3.10063
1.15392 1.36373 1.69554
0.243843 1.99668 2.34988
1.69936 -1.19954 1.43945
0.47879 0.505529 2.73107
1.49424 -1.56083 2.27262
-0.64339 2.11772 2.91069
0.556534 -1.21455 2.01877
0.52945 0.960333 3.86271
-0.344014 0.997523 3.30955
0.959665 -0.888602 2.45725
0.881928 0.181856 1.70023
0.195637 1.3557 3.62148
0.555062 1.08541 2.28089
1.20227 1.75748 3.52158
1.73397 -0.58637 2.12072
1.35578 1.14903 1.6025
0.0310798 1.89945 1.92053
1.16875 0.223816 2.2486
1.67289 -1.04344 2.23676
1.01793 0.481116 3.3695
0.970445 0.0851104 2.18753
0.502811 2.02941 1.67646
0.475956 1.80385 3.77934
0.123225 2.14823 3.72025
1.42324 1.4377 1.77761
1.45373 -1.67394 1.70135
0.642939 1.80562 1.86594
1.86262 -0.931758 1.11004
0.575358 -1.75356 2.69211
-0.688999 2.05619 2.81564
0.154308 0.245113 1.85202
1.0597 -1.05379 2.73125
0.88158 -0.803568 2.88221
0.265273 1.89122 2.82552
1.3865 0.00129517 1.93014
2.07463 -1.63799 1.69369
0.858017 -2.01315 2.18067
0.850357 2.05771 2.07822
1.9038 -2.05382 1.06595
0.447816 2.17083 1.88581
0.958114 -0.538924 1.89283
0.646215 0.546152 2.56596
0.486453 1.88342 2.86877
1.41483 -1.71652 1.04817
0.387515 1.40693 2.57868
-0.0650435 1.56537 2.11614
1.32942 1.21641 2.27402
0.242858 1.98473 2.39104
1.30181 1.18357 1.50058
0.82556 0.147771 2.29984
1.1146 -0.128686 3.11902
1.11605 -1.73437 1.92477
0.0486915 2.3459 3.15845
-0.27187 2.02848 2.30965
0.845803 2.00618 1.44778
0.0538543 2.21689 2.2948
1.30608 -1.43952 2.30048
1.92468 -1.78295 0.762554
0.570622 0.577916 2.6654
0.524851 1.51019 3.45759
0.710861 0.407873 3.59395
1.93503 -1.6723 0.894423
0.892525 1.34416 3.15428
2.01023 -0.686101 1.33553
0.105039 -0.752223 2.79572
-0.43648 1.56689 3.19708
1.51756 -1.68266 0.782031
0.643628 -0.811365 2.5863
0.811436 1.78563 2.32924
0.181385 2.50063 2.71144
1.00559 -0.364066 2.43898
0.157666 1.97392 2.68194
0.154369 1.73053 3.0384
1.47204 -1.34908 1.76552
-0.36587 1.56608 3.3772
0.970042 1.5829 2.50741
0.44789 0.119412 3.48701
0.54232 1.52801 3.75616
0.841053 -0.736363 3.16392
-0.290321 2.0902 3.00574
0.4605 2.86145 3.98863
1.55847 -1.83654 0.926069
0.394179 -0.67656 2.64181
1.09767 0.0778964 3.17065
1.10232 0.337551 1.7849
1.10278 0.274798 3.75505
1.38069 -1.46271 1.22598
0.659231 1.60752 1.82451
-0.278459 1.52757 3.43417
1.03605 1.51962 1.96681
2.0372 -1.14818 1.33016
1.58271 -1.44439 0.909538
0.0781493 1.66801 1.94455
1.42704 0.0265883 2.02805
2.10442 -0.642875 1.4781
1.38325 0.540005 1.47329
0.630751 2.05072 1.32838
1.86434 -1.46361 1.61438
0.607845 1.64805 1.36907
1.68057 -0.834812 1.858
0.820035 1.7001 2.08765
1.11707 -0.103698 1.65858
-0.114656 1.17703 3.4187
0.930417 1.75098 1.73188
0.818335 -1.80941 2.63599
1.27899 -0.393041 1.07727
2.34496 -1.14215 1.88105
1.60613 -1.69634 1.82682
1.37747 -1.43004 2.5971
1.11754 0.843364 1.28829
1.45455 -1.13472 1.95883
0.178642 2.08235 1.88458
1.80926 -1.6152 1.6982
0.352463 1.36948 4.02505
1.44446 1.30268 2.12057
1.09379 0.732203 2.37643
1.33701 -0.695899 2.58847
0.592213 -0.170986 3.34263
1.88347 -1.15299 2.45601
0.102382 0.411428 3.26978
0.903234 -0.872033 2.31155
0.270583 1.11065 3.62247
1.40808 -0.474173 2.12314
1.21443 -0.0232722 1.78663
1.92304 -0.46553 2.10363
1.57516 -0.480622 1.60617
0.683639 0.412702 3.2612
0.738329 -0.10514 3.25436
1.0026 0.513342 2.84771
1.46242 1.56231 2.57827
0.362856 0.97187 3.77184
0.938356 -0.99312 2.57842
0.954194 1.71848 1.41899
1.55607 -1.46261 2.21379
0.338303 0.446699 3.15282
0.894112 0.000466286 2.93326
0.126368 0.610846 3.40628
0.539824 1.96985 1.16043
1.26996 -1.47542 1.12685
1.5991 0.707971 2.68891
1.85211 -1.62134 2.23438
0.354235 0.645931 3.3359
1.0361 0.111866 2.73494
0.321104 1.51864 3.24536
0.574701 -0.864052 2.4558
0.95094 2.20789 1.80864
0.675991 1.32508 3.59346
-0.390913 1.29264 1.55349
0.467773 0.0951742 2.35606
1.75833 0.662216 2.22506
1.12538 1.59461 2.35777
1.44267 -1.88534 1.13995
0.448223 0.0844665 2.41965
0.852974 -0.8242 3.0756
0.948025 -0.30087 1.61368
-0.345091 1.90116 3.10912
0.401431 0.932609 3.14206
0.95061 1.34161 3.30712
-0.0396919 1.96119 3.56986
1.99243 0.34673 1.87899
1.95438 -0.500635 1.46385
1.47046 -0.894217 2.32358
0.486159 -1.05982 2.71912
-0.434793 1.5273 2.72579
0.693181 -0.291427 3.00477
1.76863 -1.91624 1.63576
1.4412 0.62498 1.82119
1.66505 0.51127 1.62298
0.030892 1.811 1.52907
0.384178 0.728706 3.25892
0.989195 -0.264121 3.04612
0.529415 0.46294 2.20007
0.910324 -0.544769 3.12937
0.975683 -0.683776 2.52134
1.20378 -0.376996 1.87082
1.24113 -0.0521047 2.45508
-0.277525 1.36022 2.8644
1.13304 -1.57018 3.20779
-0.0720834 1.83046 3.7359
1.43823 -1.36285 0.8864
0.384648 1.25967 2.07591
0.547315 -1.52091 2.35393
0.475835 -1.50263 2.72055
0.755089 1.66657 2.13138
0.489314 -1.17685 2.80426
-0.21844 1.31867 2.58545
0.366508 0.790357 2.18025
1.58001 -1.02096 0.864979
1.34339 -1.16719 2.51626
-0.182855 1.13743 3.56755
1.11852 0.85908 1.57149
1.16734 -1.48814 1.89379
-0.835866 1.62144 4.05782
-1.00333 2.04755 3.71296
-0.825321 1.72586 3.83127
-0.789676 1.42463 3.06552
-0.318157 2.08582 4.6431
-0.704889 1.71213 3.22688
-1.21054 1.60016 3.64034
-1.36724 1.24067 3.01234
-2.35775 1.18344 3.28173
-1.02748 1.42032 4.13107
-0.606462 1.56579 3.29557
-0.26708 1.96592 4.33329
-1.8926 1.38792 3.70787
-0.437944 1.56496 3.84356
-1.13699 1.44608 3.39281
-1.60204 1.51591 3.50646
-0.318982 1.54661 3.9224
-2.07521 1.34468 3.52074
-1.66595 1.69413 3.32433
-1.70345 1.51041 3.82095
-0.66616 1.33048 3.455
-2.16938 1.29219 3.33494
-1.20841 1.29346 3.78933
-0.71312 1.94877 3.3876
-1.55145 1.68534 3.27236
-1.55991 1.51741 3.77718
-0.734201 2.25877 3.8532
-0.931757 1.5239 4.04489
-2.49191 0.674083 3.19004
-1.30781 1.59044 3.86969
-0.905564 1.35951 4.15095
-0.356593 2.27167 4.25207
-0.402317 2.36599 3.56598
-0.950698 2.03909 3.85336
-1.43118 1.72695 3.31228
-1.73019 1.10621 3.74893
-1.512 0.974915 3.85699
-2.18225 0.628273 3.15714
-1.46102 1.61365 3.88602
-1.33455 1.89162 3.5065
-1.18513 1.88173 3.80069
-1.49768 1.8993 3.65848
-1.72962 0.771951 3.98587
-2.02027 1.07663 3.75581
-2.23372 0.977053 3.38742
-1.82475 1.46525 3.43178
-2.23373 0.743523 3.43662
-0.79528 1.17752 3.7199
-1.75383 1.40966 3.55157
-1.5684 1.83116 3.64768
