ply
format ascii 1.0
comment Created by Open3D
element vertex 400
property double x
property double y
property double z
end_header
-1.08942 -1.74881 -1.94358
-2.17207 -1.49017 -0.601315
-2.04616 -1.92014 -0.943292
-1.14602 -2.28738 -1.92138
-2.26451 -1.72673 -0.636248
-1.09229 -1.02301 -2.37289
-2.1922 -1.69179 -0.665011
-1.67105 -1.01993 -1.14821
-2.03821 -0.97141 -0.928829
-1.26541 -1.51499 -2.00141
-1.23261 -0.808176 -1.82152
-1.33244 -1.87264 -1.88888
-2.84289 -1.56787 -0.318941
-1.61235 -1.8849 -1.23352
-2.29633 -1.75194 -0.640064
-2.24011 -1.93912 -0.79015
-0.942947 -2.08064 -1.79596
-0.833791 -1.94514 -2.6093
-1.98943 -1.50468 -0.647317
-2.41049 -1.04534 -0.226758
-1.09961 -1.7852 -2.03205
-1.36812 -0.473923 -1.38696
-1.61399 -1.69054 -1.03897
-1.51339 -0.684976 -1.13319
-1.70868 -1.25591 -1.33605
-1.74896 -2.04726 -1.83015
-2.30669 -1.28163 -0.44127
-2.20504 -1.689 -0.915869
-1.68955 -0.379451 -1.18331
-1.85237 -1.02354 -0.838468
-1.4351 -1.65821 -1.55805
-1.521 -2.72581 -1.96571
-1.79758 -0.960791 -1.29481
-1.19539 -1.97441 -1.73995
-0.601463 -1.90508 -2.70157
-0.945485 -1.03244 -1.92395
-2.22437 -0.94301 -0.828319
-1.87102 -1.06291 -0.590865
-1.63387 -0.987472 -1.65966
-1.11336 -1.16524 -2.59538
-1.39641 -0.631122 -1.28423
-2.10103 -1.90467 -0.975971
-2.17524 -1.76072 -0.749419
-1.09513 -1.83668 -1.99532
-0.382177 -1.43264 -2.97797
-1.31166 -1.07896 -1.78619
-1.66584 -1.59551 -1.22423
-1.96488 -1.8949 -0.895145
-1.33613 -1.69314 -2.08151
-1.27252 -0.574605 -1.77782
-2.19725 -1.00727 -0.682472
-1.57009 -1.59406 -1.30143
-1.44489 -1.44927 -1.38164
-1.23051 -1.94532 -1.95157
-1.55165 -2.18559 -1.37359
-1.88218 -2.34355 -1.4566
-1.46629 -2.25975 -1.60566
-0.719687 -0.661944 -2.29059
-1.2694 -1.99465 -2.3364
-1.05711 -1.24559 -1.92514
-0.634834 -1.45847 -2.61454
-1.46244 -2.58201 -1.93461
-1.34006 -1.49562 -1.70687
-1.22271 -1.80725 -1.76708
-1.02576 -1.23631 -2.10137
-1.53253 -2.24099 -1.63505
-1.41513 -0.725123 -1.4454
-0.897185 -1.85379 -2.88235
-1.64451 -0.82888 -1.32752
-0.522474 -1.47063 -2.40099
-1.5302 -1.57714 -1.33529
-0.896172 -0.709495 -2.2
-2.28986 -1.339 -0.73369
-2.03439 -0.716613 -0.450375
-0.854946 -1.11178 -2.31252
-1.76793 -2.32058 -1.59472
-1.08266 -0.366463 -1.94158
-1.35964 -0.438695 -1.76309
-1.80013 -1.11991 -1.1241
-1.96578 -0.825077 -0.687947
-1.0165 -1.03758 -2.2046
-1.74255 -1.13076 -0.87425
-1.05092 -1.91922 -2.16548
-1.16757 -0.839867 -1.53023
-0.781391 -0.684857 -2.48208
-1.46541 -0.937356 -1.35485
-2.42708 -1.78006 -0.595089
-2.18437 -1.11623 -0.366042
-1.33076 -0.171924 -1.82307
-1.89368 -1.92799 -1.13753
-1.2644 -1.10246 -1.49199
-2.71412 -1.4305 -0.359692
-2.37529 -1.03733 -0.715868
-0.758549 -1.44372 -2.38695
-2.18612 -1.55817 -0.530081
-2.04462 -0.634313 -0.742783
-0.802505 -1.67488 -2.30339
-1.46784 -2.81699 -1.93771
-0.794088 -1.14157 -2.08592
-1.19923 -1.50907 -2.38252
-0.759618 -0.818675 -2.25914
-1.52966 -1.22659 -1.3186
-0.572449 -1.39124 -2.33132
-1.12805 -0.566209 -1.89759
-0.605023 -1.4601 -2.85947
-0.266733 -1.57446 -2.42882
-1.43356 -1.11976 -1.224
-1.97618 -0.723021 -0.904417
-0.318026 -1.68979 -3.01366
-2.24072 -1.04872 -0.786659
-1.98848 -1.13085 -0.965828
-0.406995 -1.30163 -2.88418
-1.22683 -1.12544 -2.09997
-1.96248 -1.81795 -1.23448
-0.831301 -2.05502 -2.58243
-0.184075 -1.28406 -3.14382
-2.06274 -0.918807 -0.531252
-1.00115 -1.10015 -2.29592
-1.51053 -1.08842 -1.47912
-1.76828 -1.70962 -1.27037
-2.32977 -1.35857 -0.577657
-1.47885 -2.71941 -1.87266
-1.01976 -1.65 -2.16168
-0.859979 -1.66676 -2.35229
-1.43884 -1.72649 -1.975
-1.45765 -1.02403 -1.50184
-2.07319 -1.00454 -0.961312
-1.02886 -0.795865 -2.30805
-1.34537 -2.46274 -1.83428
-1.1884 -1.46473 -2.25064
-1.44013 -0.787602 -1.25025
-2.42236 -1.5241 -0.833863
-0.494631 -1.38833 -2.30755
0.0155082 -1.35892 -3.11999
-1.7194 -0.870634 -1.2116
-0.782699 -1.75045 -2.58357
-1.37849 -0.286403 -1.82942
-1.13987 -0.731485 -2.11004
-0.940211 -2.04272 -1.93704
-0.345303 -1.31101 -2.82881
-0.708956 -1.04271 -2.78148
-1.71354 -0.579597 -1.47428
-0.766278 -1.95562 -2.49135
-1.26584 -0.927288 -2.21467
-0.423127 -1.4991 -3.19053
-2.36788 -1.13251 -0.33493
-1.79112 -2.0552 -1.18793
-2.69049 -1.39678 -0.32083
-1.27734 -2.55964 -2.01121
-1.08421 -1.06069 -2.07722
-0.701701 -1.2789 -2.22639
-1.31776 -2.0235 -1.94125
-0.840885 -1.74865 -2.12514
-1.55318 -0.398244 -1.33325
-2.07042 -0.707518 -0.937458
-1.40311 -2.50057 -1.76169
-1.92979 -1.8049 -0.982084
-0.614595 -1.13981 -2.98284
-1.54733 -0.435785 -1.43846
-1.76131 -1.43457 -1.02998
-1.35786 -1.99405 -1.66201
-1.49311 -0.117304 -1.23774
-1.38535 -0.916367 -1.53905
-1.7755 -1.84155 -1.57118
-0.930637 -1.92958 -2.45954
-2.48597 -1.71498 -0.489166
-2.04271 -2.15395 -1.46679
-1.00298 -0.269865 -1.89043
-0.476997 -1.82797 -2.3977
-1.55878 -2.5714 -1.6284
-1.83125 -1.92383 -1.15871
-0.784735 -1.52512 -2.30647
-2.11565 -2.25408 -1.35754
-1.76772 -0.556293 -1.42763
-1.9572 -2.23465 -1.29483
-2.22908 -2.25824 -1.18971
-0.387861 -0.808363 -2.52917
-1.1309 -1.05055 -2.20168
-1.55759 -0.656746 -1.75716
-1.4178 -0.829005 -1.71865
-2.32581 -1.51465 -0.368065
-1.83673 -1.97018 -1.19409
-1.94632 -1.59086 -0.715327
-1.69335 -1.9544 -1.1346
-0.487071 -1.76853 -2.65836
-1.37476 -0.79455 -1.4837
-1.89234 -1.68019 -0.998442
-0.211241 -1.12646 -2.80234
-0.600262 -1.89305 -2.22098
-2.4292 -1.39669 -0.496468
-1.78404 -2.42805 -1.52788
-2.36172 -1.62337 -0.593145
-1.24135 -0.516697 -1.99486
-1.02935 -0.761752 -1.88998
-1.19253 -1.77212 -1.59583
-1.45516 -2.83413 -2.0273
-2.29123 -1.15009 -1.06677
-2.19168 -1.79966 -0.782257
-2.22282 -1.15791 -0.483873
-0.209413 -1.53797 -3.2488
-1.34232 -1.07704 -1.27383
-0.947402 -1.04626 -2.57673
-0.975341 -1.34982 -2.22287
-2.52678 -1.30638 -0.41379
-0.509907 -1.52091 -2.96275
-1.24715 -0.26125 -1.29848
-1.12675 -1.87197 -1.5868
-1.68361 -2.75247 -1.8868
-0.762544 -2.12647 -2.51991
-1.70798 -1.5662 -1.09423
-0.950802 -0.868693 -2.58372
-1.74685 -1.75274 -1.37239
-1.44234 -2.51552 -1.5648
-2.1778 -1.87086 -0.989282
-1.29989 -0.463992 -1.41985
-0.791428 -2.04623 -2.29802
-1.70012 -1.68741 -1.3236
-1.50298 -0.83205 -1.18965
-1.03322 -1.0644 -2.26058
-2.30093 -2.03807 -0.890766
-1.77752 -0.72387 -0.939474
-1.17003 -0.403064 -1.94659
-1.31988 -2.12627 -1.76914
-2.25708 -1.41142 -0.534115
-1.07077 -2.13201 -2.58908
-0.784008 -2.19214 -2.26747
-1.91245 -0.901345 -0.903949
-1.3277 -2.40253 -2.09614
-0.818969 -1.49898 -2.27381
-0.910067 -2.0144 -2.03458
-1.37062 -0.514226 -1.71254
-1.25728 -2.52437 -2.15601
-2.0798 -1.00228 -0.830259
-2.36784 -1.82331 -0.671199
-0.674116 -0.554587 -2.31749
-1.26041 -1.55311 -1.48446
-1.27902 -0.467647 -1.44477
-0.646155 -1.57876 -2.32936
-1.12136 -2.01425 -2.07467
-0.447993 -1.72756 -3.20665
-1.32557 -2.68206 -2.03653
-0.541561 -1.72871 -2.56558
-1.33103 -1.77246 -1.65021
-0.667747 -1.78397 -2.51636
-1.97275 -1.2365 -1.0594
-0.607189 -1.95564 -2.45114
-1.06902 -1.23001 -2.06379
-1.53849 -2.35025 -1.98308
-1.62525 -1.47999 -1.77409
-1.4838 -0.743022 -1.85051
-1.75741 -2.40644 -1.59422
-0.917435 -2.26662 -2.12957
-1.30903 -1.09977 -1.65413
-0.844549 -2.07466 -2.23474
-1.09659 -2.47206 -1.94114
-1.103 -1.18391 -1.6694
-1.46601 -1.31453 -1.45947
-1.30226 -2.23245 -1.76065
-2.31273 -1.53743 -0.392471
-1.01884 -1.57676 -2.07823
-1.47569 -1.79815 -1.31933
-1.57648 -0.934114 -1.54718
-2.40429 -1.32584 -0.628493
-1.12428 -1.36904 -2.1902
-2.10474 -1.44439 -0.962177
-0.252817 -1.62682 -2.92391
-1.60469 -1.9255 -1.18365
-0.333347 -1.19747 -2.74753
-1.2863 -0.517623 -1.09917
-0.996748 -1.95305 -2.50681
-1.35085 -1.13219 -1.74807
-0.396115 -1.44341 -2.7938
-0.998162 -2.3624 -1.8895
-0.145624 -1.5032 -3.41921
-1.92509 -1.91826 -1.22263
-1.38269 -1.82758 -1.27692
-0.552407 -0.851838 -2.74364
-1.13486 -1.63166 -2.07917
-1.32304 -1.01774 -1.93142
-0.825531 -1.44576 -2.32223
-1.70085 -0.905055 -1.45522
-1.42584 -0.19294 -1.57495
-2.19586 -1.571 -0.816056
-0.843341 -0.702641 -2.43455
-1.31944 -1.95595 -1.83845
-1.35922 -1.37721 -1.73374
-0.761141 -1.88157 -1.93515
-1.00953 -1.35153 -2.27895
-0.959315 -1.3614 -2.00339
-2.56678 -1.40092 -0.353097
-1.59899 -1.24495 -1.25708
-1.68612 -1.0682 -0.911511
-1.71299 -1.94358 -1.46753
-2.10087 -2.06903 -1.13641
-1.91925 -1.21583 -0.521179
-0.981109 -0.376123 -1.88606
-2.15242 -0.78124 -0.624423
-1.23782 -2.39766 -2.082
-1.28923 -1.98698 -2.02766
-0.670396 -1.1823 -2.78464
-2.43512 -1.52933 -0.586881
-2.09682 -1.76207 -0.967126
-0.553648 -0.942231 -2.52477
-0.824472 -1.55921 -2.13441
-0.284286 -1.20864 -3.0438
-1.30223 -1.82213 -1.94097
-0.918879 -1.4303 -2.30054
-2.6164 -1.41047 -0.380753
-1.07287 -1.14651 -2.12402
-1.0688 -1.45504 -1.92731
-0.246514 -1.22348 -2.87315
-2.04762 -1.76674 -0.849164
-0.979852 -1.09624 -2.31897
-1.5388 -0.569385 -1.99288
-1.40745 -0.735232 -1.37903
-1.39887 -1.68325 -1.36205
-1.93165 -0.649045 -1.21646
-1.27045 -2.4427 -2.16567
-0.270371 -1.56284 -3.07985
-1.18453 -2.16452 -2.00598
-1.6149 -2.02918 -1.58031
-1.17523 -2.33245 -2.08088
-1.52083 -0.885569 -1.48952
-1.4192 -2.73533 -1.77386
-2.01314 -0.929778 -0.780236
-1.60611 -1.66183 -1.19112
-2.06433 -1.16059 -0.386573
-1.37183 -0.262954 -1.30169
-0.891731 -1.85952 -2.18409
-1.91569 -1.31053 -0.753116
-1.46619 -2.18987 -1.52866
-0.997914 -0.855036 -2.06948
-1.60575 -2.63078 -1.68239
-0.531932 -1.84994 -2.81266
-1.5515 -0.473388 -1.68733
-0.558255 -1.05032 -2.5305
-0.306917 -1.49776 -3.0465
-0.609603 -1.33789 -2.82705
-0.661817 -0.92892 -2.63827
-2.07762 -1.71383 -0.91883
-1.60498 -2.25594 -2.01741
-2.23743 -0.966702 -0.633545
-1.60953 -2.13801 -1.19191
-1.38877 -1.00447 -1.88661
-1.73288 -1.30055 -1.58502
-1.97854 -1.83194 -1.20555
-1.69754 -1.4551 -1.10337
-2.20138 -1.50688 -0.403358
-1.45519 -1.98504 -1.85882
-2.73394 -1.36516 -0.156372
-1.43801 -0.173407 -1.337
-1.97277 -1.00039 -0.776928
-0.550214 -0.589161 -2.14826
-2.01129 -2.24617 -1.27138
-1.60356 -1.84903 -1.58475
-0.357153 -1.50326 -2.8325
-1.78204 -0.918441 -1.49447
-1.41095 -0.653481 -1.8325
-1.29791 -0.553992 -1.63779
-1.66737 -0.970471 -1.06446
-2.04656 -0.706757 -1.04838
-1.07056 -0.742479 -2.42304
-1.38077 -2.10185 -1.5614
-0.485841 -1.63469 -2.69419
-1.14937 -0.574065 -2.27318
-0.908841 -2.24277 -1.93397
-0.540087 -1.52151 -2.73634
-1.50498 -1.57061 -1.18795
-1.3683 -2.15183 -1.49584
-2.51408 -1.58752 -0.390207
-1.24968 -0.548919 -1.91111
-0.62073 -1.0483 -2.25968
-1.15622 -2.22695 -1.924
-0.707389 -1.30157 -2.32776
-1.56259 -0.820449 -1.8178
-0.839627 -1.72426 -2.44046
-1.61733 -1.73409 -1.52386
-2.3672 -1.38263 -0.738382
-1.95943 -2.36985 -1.42596
-1.50941 -1.39745 -1.23054
-1.51911 -0.119212 -1.42614
-1.37201 -1.37194 -1.43443
-0.591332 -1.13419 -2.34802
-1.35492 -2.64524 -1.80446
-1.93234 -1.88697 -0.791257
-2.20992 -1.83982 -0.804712
-1.72418 -2.0291 -1.21898
-1.40061 -1.86498 -1.69859
-1.38296 -0.516855 -1.86641
-2.28908 -2.06043 -0.954773
-0.859095 -1.99059 -2.21463
-1.55305 -2.33079 -1.62459
-1.81027 -2.02341 -1.25991
-2.62432 -1.71557 -0.599751
-1.82777 -1.44784 -1.0333
-1.9034 -0.894646 -0.891793
-0.870575 -2.13104 -2.31005
-1.50603 -1.47322 -1.27979
-1.26398 -1.60276 -1.86422
-1.53197 -2.03542 -1.92973
