ply
format ascii 1.0
comment Created by Open3D
element vertex 200
property double x
property double y
property double z
end_header
-1.36404 -1.15279 1.79992
-0.16459 -0.992901 2.30544
-2.7412 -1.79947 0.0530578
-0.0177573 -0.814454 2.35396
-0.934443 -0.625889 1.94402
0.2099 -1.23461 2.55949
-2.55034 -1.72948 0.927906
-2.37304 -0.934771 0.754594
-2.22293 -0.0843472 0.680878
-2.24368 -1.4025 1.23248
-2.00596 -1.00899 1.36116
-2.3901 -2.45663 1.34675
-1.83177 -1.66004 1.62751
-0.00593058 -2.13464 2.51585
-0.425382 -0.872601 2.17288
-1.66347 -0.982211 1.61469
-1.00341 -1.50889 2.00269
-2.31925 -0.436902 0.070735
0.510339 -1.28281 2.83054
-0.440632 -0.651115 2.14633
-1.82107 -1.04682 1.52025
-2.46186 -1.0861 0.603472
-1.54746 -2.27567 1.82625
-2.59119 -1.53926 0.667696
0.476137 -0.14689 2.56235
-2.40005 -1.06691 0.791068
-2.26369 -0.735344 0.902988
-2.80133 -2.45289 0.72026
-2.28066 -0.920974 0.968598
-1.07879 -2.15567 2.01356
0.748547 0.208624 2.76137
-0.156777 -1.94191 2.42078
-1.82741 -2.43892 1.69916
-2.26791 -0.395188 0.649115
-2.2554 -0.161817 0.366892
-0.299931 -1.31183 2.28376
0.692571 -0.0318031 2.71098
-2.5509 -1.24732 0.405979
0.151694 -1.22366 2.51824
-2.2573 -0.511752 0.784909
-2.59176 -1.65482 0.778144
0.780538 -0.388275 2.84268
-2.50641 -1.12168 0.429844
-2.23398 -0.3903 0.790946
0.325804 -1.39535 2.68351
-2.49661 -1.01848 0.177962
-2.53528 -2.08952 1.11866
-1.16022 -1.50611 1.93632
-0.101617 -0.137942 2.27385
-1.00968 -1.94281 2.03627
-2.72148 -1.74424 0.261363
-2.51381 -1.93405 1.09166
-1.69081 -2.49914 1.75773
-0.0244582 -0.268713 2.30521
-0.324585 -1.17106 2.2537
-2.24203 -1.2733 1.18664
-2.28715 -2.01075 1.36845
0.354852 -0.922527 2.59649
-1.67325 -1.01434 1.61335
-0.11595 -0.896525 2.31609
0.0739735 -0.220417 2.34907
-0.166852 -2.24077 2.40885
-2.33801 -0.607123 0.519879
-2.61031 -1.51826 0.565527
-2.30936 -0.676898 0.733499
-2.83614 -2.30193 0.0223985
-1.62737 -1.85713 1.76486
-2.72192 -1.77416 0.357593
-2.27213 -0.450794 0.680608
-2.33486 -1.39686 1.11381
0.225908 -0.202183 2.42251
-1.96619 -0.440504 1.30283
-1.90351 -0.747317 1.40266
-2.34773 -1.67927 1.21132
-0.0876574 -2.0663 2.46398
-1.14938 -0.918441 1.87276
-0.910672 -0.409297 1.94996
0.584242 -0.94411 2.79884
-0.285853 -2.11567 2.35154
0.584329 -0.966231 2.80595
-1.36792 -2.0361 1.89557
-1.19004 -1.18292 1.88411
-2.13598 -0.899251 1.1883
-2.52582 -1.94687 1.07912
-0.406684 -1.19587 2.21958
-0.223607 -0.685076 2.24173
-2.16883 -1.74058 1.40701
0.0946165 -1.591 2.54429
0.884163 -0.195569 2.91768
-0.985341 -0.139669 1.93793
-2.11636 -0.80806 1.18598
-2.26502 -0.27371 0.519099
-2.17414 -0.206927 0.922562
0.426812 -1.67565 2.85502
-1.37892 -2.4846 1.8829
-0.0822926 -1.08657 2.36006
-2.66831 -1.5463 0.152157
-2.43367 -2.66702 1.31224
-2.4738 -0.995462 0.367483
-2.39245 -1.73858 1.17883
-2.80157 -3.0603 0.226121
-2.69694 -3.3013 0.592335
-2.69441 -3.3077 0.258311
-1.84236 -3.81597 -0.464238
-2.19713 -3.76678 0.106601
-1.98421 -3.54865 -0.772919
-1.96641 -3.75901 -0.407975
-2.30771 -3.71769 0.337583
-2.60147 -3.41785 0.668113
-2.36563 -3.67715 0.40676
-1.97817 -3.85513 -0.0996536
-2.44439 -3.56448 0.0685228
-1.88647 -3.85115 -0.298541
-1.94325 -3.81498 -0.30389
-2.19024 -3.71052 -0.130258
-2.71847 -3.25994 0.598744
-2.66058 -3.18209 -0.143546
-2.85198 -2.49325 0.0475189
-2.38584 -3.40381 -0.400671
-1.83406 -3.72226 -0.673028
-2.04451 -3.57087 -0.656987
-2.79428 -3.09021 0.555224
-2.4602 -3.59732 0.307397
-2.28644 -3.72897 0.274503
-2.85108 -2.60797 0.0407909
-2.02524 -3.84046 -0.0468583
-2.28481 -3.4999 -0.41559
-2.09675 -3.83889 0.373916
-2.5178 -3.23398 -0.401841
-2.71412 -3.29358 0.451429
-2.56889 -3.46232 0.650851
-1.77265 -3.96472 -0.0720924
-2.74492 -2.77078 0.906026
-1.66913 -3.8411 -0.654191
-2.8457 -2.40491 0.0279055
-1.59504 -4.02909 -0.163484
-1.61252 -3.81096 -0.790003
-2.75406 -2.93099 -0.174106
-2.32987 -3.62848 -0.0511738
-1.56467 -4.04186 -0.162788
-2.86486 -2.51671 0.209591
-2.48463 -3.57808 0.470113
-1.60984 -3.92792 -0.529979
-1.64331 -3.70876 -0.935222
-2.46926 -3.28164 -0.430257
-1.9183 -3.9067 0.00249782
-2.44712 -3.40997 -0.274859
-2.86526 -2.69351 0.221167
-2.72733 -2.9335 0.904962
-2.4443 -3.60233 0.233816
-2.78519 -2.97629 0.737807
-2.33693 -3.47491 -0.369413
-2.60353 -3.43234 0.611472
-1.61559 -3.84568 -0.716106
-2.8025 -3.00976 0.639808
-1.90467 -3.91586 0.0199258
-2.35954 -3.41534 -0.428556
-2.83572 -2.96952 0.383924
-2.82256 -2.7523 0.696064
-2.84624 -2.832 0.549285
-2.7344 -3.25014 0.5079
-2.23201 -3.76551 0.305712
-2.64236 -3.38582 0.250384
-2.55396 -3.51101 0.452564
-2.867 -2.53603 0.326109
-1.8923 -3.61053 -0.792253
-1.77569 -3.74021 -0.71579
-2.6476 -3.35509 0.667668
-2.22771 -3.69862 -0.0830514
-2.82187 -2.69828 0.702431
-2.82017 -2.79436 0.697401
-2.84199 -2.72393 0.0311714
-2.86526 -2.70527 0.429799
-2.70971 -3.25761 0.650009
-2.52324 -3.50981 0.654456
-2.62526 -3.17324 -0.248004
-2.61655 -3.23245 -0.184523
-2.40204 -3.64677 0.309781
-2.79127 -2.98311 0.711788
-2.35923 -3.66977 0.543887
-2.5542 -3.45616 0.715348
-2.50175 -3.32234 -0.30706
-1.8779 -3.68407 -0.68537
-2.47213 -3.53936 0.0754691
-2.61095 -3.21039 -0.230969
-2.72696 -3.02371 0.864179
-2.29431 -3.7224 0.466301
-2.33292 -3.65109 0.0291336
-2.4527 -3.604 0.307503
-2.82833 -2.811 0.0186077
-2.25065 -3.72828 0.0924381
-2.40249 -3.64429 0.495519
-2.32709 -3.48276 -0.373064
-1.93459 -3.64896 -0.672649
-2.20069 -3.60983 -0.35154
-2.54283 -3.32412 -0.215629
-2.85588 -2.45032 0.111722
-2.60449 -3.40039 0.703811
-2.36 -3.66947 0.542408
-2.22087 -3.61313 -0.309992
