ply
format ascii 1.0
comment Created by Open3D
element vertex 250
property double x
property double y
property double z
end_header
2.85276 1.65909 1.72504
2.39959 0.745094 -0.725959
1.97416 -0.193804 1.27928
2.39251 1.42953 0.778132
2.50355 0.703057 2.09973
2.10628 0.352013 0.922901
2.6677 0.95685 0.283682
2.77142 1.89401 -0.629154
2.16435 0.448166 -1.02183
2.04972 1.68233 -1.43596
2.03103 -0.326579 1.49795
2.46085 1.35112 -0.45977
2.40708 0.427851 2.09839
1.90167 2.64427 -1.63946
1.92575 0.417248 0.663087
3.11459 2.58014 0.119678
2.44763 2.25009 -1.13474
2.33981 0.846997 1.16426
2.02033 0.211953 -0.501439
2.86525 2.50246 -0.669873
2.24696 1.06417 -1.04467
3.24295 2.26485 -0.0578383
2.46644 0.443999 1.523
2.21322 0.212439 -0.83275
1.67124 1.37666 -1.7101
2.42516 0.728811 0.200819
2.47283 0.490149 1.91469
2.99909 1.91544 0.657249
2.30712 0.67589 0.0522864
1.7342 1.06241 -1.51463
3.07377 2.72188 -0.556887
2.83329 2.9659 -0.916772
2.3365 0.461123 -0.799179
2.05816 -0.129659 1.77025
1.96993 1.01298 -1.37088
1.949 -0.665056 1.15715
2.24331 1.02247 1.67905
1.82866 2.54523 -1.71131
1.82766 0.505006 -1.20956
2.50857 1.08619 1.6314
2.54208 1.31008 1.34722
2.38564 1.9949 -1.23668
2.30849 0.352341 0.411593
2.31308 -0.274397 2.33189
2.08444 0.360661 1.70519
2.17366 1.25072 -1.163
1.88251 -0.957469 1.99556
1.81513 1.34702 -1.45509
2.075 0.312949 0.398836
2.43545 1.16866 -0.428524
2.52216 1.94497 -1.06202
1.67275 -0.761157 1.31763
2.33816 1.50319 -1.15766
1.81042 1.35797 -1.71915
2.56957 0.907165 -0.401451
2.0784 1.70772 -1.42256
2.13386 0.136701 -0.974339
2.32246 0.815227 -0.0866062
2.82904 1.58878 1.15766
2.04935 0.136211 1.61488
2.4109 2.64044 -1.22206
1.74253 1.90362 -1.73045
1.77835 0.698094 -1.43523
1.86919 1.87158 -1.53461
2.34805 0.530287 1.85845
1.72682 -1.18292 1.63545
2.46414 1.28471 -0.464727
2.91891 2.29793 -0.585742
2.9892 2.19748 0.588366
1.80522 -1.02355 1.67373
2.89865 1.8714 -0.34147
2.14693 -0.423788 1.28067
2.21227 1.34925 0.377321
2.298 2.42768 -1.45275
1.57271 -1.04465 1.19095
2.30056 1.03429 0.841222
2.34838 1.32684 -1.04771
2.1572 2.33069 -1.28973
2.40434 0.879002 0.710667
2.22664 1.96867 -1.36802
2.48408 2.13136 -1.19249
2.11436 0.00581169 1.60692
2.44061 2.56283 -1.30329
2.54624 1.34052 -0.77101
2.79697 2.10851 0.504688
3.09487 2.5863 -0.377946
2.67476 1.6289 1.49403
2.17466 2.51089 -1.47356
3.06728 3.47153 -0.614548
1.6576 -0.938832 1.45933
2.25468 1.13977 0.474917
2.87534 1.66214 0.977746
2.1625 0.284669 -0.331012
3.19595 2.30516 1.30656
1.77364 -0.530308 1.21279
1.97891 0.860947 -1.36068
2.52286 2.55987 -1.20745
2.25669 0.806904 -0.997309
2.10843 -0.492998 1.72156
1.68466 -0.887094 1.16157
1.75442 1.22515 -1.69194
2.37748 0.450555 0.512934
2.25914 -0.281804 1.46802
2.12958 -0.066652 -0.477468
1.57219 0.738246 -1.57557
2.17931 -0.244133 1.98621
1.66168 0.518528 -1.60648
2.28131 0.153624 1.48391
2.21109 1.07409 -1.13948
2.05685 0.0970331 -0.0164929
2.61262 2.34195 -0.9707
2.04093 0.749434 -1.25085
2.32101 0.87851 1.87474
1.78607 -0.571897 -0.0591405
2.53526 -0.0115569 2.42466
2.19312 -0.0532593 2.00984
2.54578 0.800658 2.11934
1.93457 -0.124352 -1.09315
2.22904 0.238869 1.55694
1.68822 1.40812 -1.61336
2.20265 -0.195536 2.07883
3.14872 2.87547 -0.222994
2.53467 0.752004 -0.45725
2.51126 0.944423 -0.223413
2.56704 0.950797 1.51702
2.74152 1.90775 0.823541
2.67712 0.630323 2.34851
2.5932 1.95699 -0.34895
2.24319 0.708612 0.97164
2.89396 2.41523 -0.45066
2.36335 0.501114 1.04513
2.16843 0.224351 0.121718
2.53753 0.416512 1.61646
2.1483 -0.0510832 0.833351
2.8125 1.8441 0.257781
2.7631 1.78921 0.829434
2.71929 1.38832 0.199574
2.80242 1.2651 -0.282705
3.00137 2.52214 -0.131878
2.3862 0.960293 1.32947
1.86819 0.44374 -1.40073
2.39922 0.387774 2.06382
2.62934 1.79227 -0.237244
2.66973 1.43389 0.6222
2.68983 2.12687 -0.378424
1.42908 0.592292 -1.69419
1.67714 -0.613555 1.02872
2.86639 1.1758 0.589769
2.5378 0.281417 2.43472
2.7486 2.0094 -0.24171
2.62811 1.22345 0.522263
2.70405 2.16342 -0.892024
2.20168 0.902365 0.705121
2.0283 1.07836 -1.21291
3.05762 2.33712 -0.243885
1.32055 0.876399 -2.13026
2.21869 0.913144 -0.405185
2.67263 0.674327 0.447039
2.52577 1.1646 -0.728855
1.72776 -0.716398 1.52929
2.24525 0.977826 -0.370695
2.6261 1.52077 1.50773
1.9501 0.0529865 -0.0591749
2.24431 2.5022 -1.46741
2.68092 1.86011 -0.564025
3.00937 2.00342 -0.182547
2.68093 2.80116 -1.06973
2.54618 0.240436 0.7101
2.2127 -0.259985 1.15365
2.4546 0.636682 1.63914
2.27938 1.17844 1.02554
2.01769 1.98906 -1.69579
2.5972 1.51343 0.743493
2.15307 -0.344056 2.15743
2.33757 0.303639 -0.19185
2.31533 0.0311455 -0.0374639
1.42668 1.01577 -1.84437
2.72641 1.93777 -0.341822
2.7294 1.51788 1.08666
2.1809 0.817377 -0.74219
2.70754 1.59567 1.34873
2.40129 0.934209 1.0442
2.16801 0.277962 0.515833
2.5312 0.899277 0.703042
2.20373 1.95574 -1.50512
2.77313 1.4313 2.43181
2.7743 2.90399 -0.96044
1.62483 -0.874363 0.917175
2.03814 1.00201 -1.36605
2.07109 0.720254 1.18958
2.23039 1.1284 1.42071
2.21032 1.11824 -1.15833
2.309 1.25954 1.21941
2.06581 1.66973 -1.59685
2.11185 0.920188 -1.12746
1.70931 -0.891406 0.717072
2.49525 0.795429 1.85354
2.66014 2.50391 -0.884874
2.08493 0.170936 -0.875604
2.06192 0.154612 1.47507
2.48806 3.60484 -0.835354
2.1254 3.62504 -1.12729
2.38356 3.38194 -1.10205
2.04557 2.39776 -1.69035
3.03696 4.18377 -0.218288
2.14191 2.67714 -1.55815
2.0363 3.3956 -1.25434
1.69384 2.5754 -1.89225
0.83418 4.15035 -0.556729
2.38578 3.77545 -0.635697
2.26173 2.60107 -1.47438
2.95719 3.70104 -0.566104
1.41207 4.25008 -0.435909
2.65321 3.06611 -0.985058
2.0055 2.94868 -1.53501
1.66586 3.57519 -1.21571
2.7611 3.08267 -0.856278
1.17279 4.20557 -0.513223
1.48288 3.56859 -1.3147
1.62176 4.229 -0.47925
2.34282 2.66641 -1.34673
1.05665 3.9816 -0.794961
2.14849 3.39346 -1.07389
2.18379 2.99035 -1.43342
1.57164 3.35962 -1.47847
1.78152 3.92643 -0.805485
2.3478 3.7045 -1.00239
2.42323 3.61717 -0.82002
0.852648 3.70485 -0.895151
2.03885 3.79472 -0.889026
2.49172 3.66623 -0.623793
2.8163 3.84485 -0.678024
2.39418 3.2538 -1.18323
2.23383 3.7317 -1.00275
1.67998 3.3169 -1.48353
1.69203 3.81696 -0.747318
1.94269 3.64735 -0.733783
1.22342 3.10819 -1.49371
1.8832 4.03925 -0.688657
1.79921 3.58809 -1.24721
2.05375 3.78449 -0.99151
1.69192 4.00481 -0.873134
1.7279 4.12101 -0.0624113
1.34007 4.31412 -0.192795
1.09647 3.88185 -0.771701
1.43046 3.72473 -1.10342
1.1649 3.78223 -0.747864
2.40918 2.95837 -1.10371
1.55497 3.75575 -1.01826
1.6364 4.02668 -0.840742
