ply
format ascii 1.0
comment Created by Open3D
element vertex 400
property double x
property double y
property double z
end_header
-2.62619 -0.100859 -1.08942
-1.49925 0.677648 -2.17207
-2.03159 0.707234 -2.04616
-2.98581 0.282389 -1.14602
-1.6835 0.801575 -2.26451
-2.34113 -1.09967 -1.09229
-1.68457 0.769641 -2.1922
-1.54763 -0.0556407 -1.67105
-1.31722 -0.0337505 -2.03821
-2.44909 -0.434205 -1.26541
-1.86124 -0.71228 -1.23261
-2.62929 -0.0851242 -1.33244
-1.29621 0.791467 -2.84289
-2.24498 0.556979 -1.61235
-1.69838 0.803045 -2.29633
-1.93517 0.825215 -2.24011
-2.8183 0.38751 -0.942947
-3.16999 -0.591525 -0.833791
-1.57625 0.737969 -1.98943
-0.941385 0.679925 -2.41049
-2.6959 -0.182537 -1.09961
-1.36563 -0.525428 -1.36812
-2.00054 0.630889 -1.61399
-1.34246 -0.179743 -1.51339
-1.8048 -0.124245 -1.70868
-2.6261 -0.125669 -1.74896
-1.23532 0.635373 -2.30669
-1.79195 0.426041 -2.20504
-1.12649 -0.516632 -1.68955
-1.34672 0.203489 -1.85237
-2.27826 0.0805288 -1.4351
-3.25465 0.385954 -1.521
-1.55552 -0.331371 -1.79758
-2.65908 0.244564 -1.19539
-3.2392 -0.607113 -0.601463
-2.14362 -0.502113 -0.945485
-1.20761 -0.0273198 -2.22437
-1.24407 0.514069 -1.87102
-1.80597 -0.63425 -1.63387
-2.55549 -1.26153 -1.11336
-1.41231 -0.321894 -1.39641
-2.01809 0.611229 -2.10103
-1.78199 0.732129 -2.17524
-2.71406 -0.101488 -1.09513
-3.11559 -1.10037 -0.382177
-2.01404 -0.528892 -1.31166
-2.00513 0.289734 -1.66584
-2.01185 0.801061 -1.96488
-2.60105 -0.438859 -1.33613
-1.66517 -0.846545 -1.27252
-1.18134 0.197115 -2.19725
-2.06676 0.253606 -1.57009
-2.03225 0.121436 -1.44489
-2.7376 -0.0476711 -1.23051
-2.56459 0.689731 -1.55165
-2.64777 0.532197 -1.88218
-2.74628 0.493958 -1.46629
-2.13022 -1.0491 -0.719687
-2.96433 -0.478683 -1.2694
-2.26791 -0.418053 -1.05711
-2.88452 -0.806679 -0.634834
-3.14328 0.335971 -1.46244
-2.26126 -0.157199 -1.34006
-2.54532 0.0715881 -1.22271
-2.36323 -0.604137 -1.02576
-2.72964 0.401587 -1.53253
-1.55937 -0.449988 -1.41513
-3.24073 -0.98859 -0.897185
-1.51615 -0.373482 -1.64451
-2.80317 -0.499699 -0.522474
-2.08128 0.223831 -1.5302
-2.07358 -1.01471 -0.896172
-1.42198 0.322695 -2.28986
-0.895616 0.358294 -2.03439
-2.42951 -0.829323 -0.854946
-2.71705 0.388966 -1.76793
-1.64926 -1.07218 -1.08266
-1.54372 -0.968306 -1.35964
-1.57558 -0.0299425 -1.80013
-1.10615 0.184558 -1.96578
-2.2802 -0.855055 -1.0165
-1.46685 0.299909 -1.74255
-2.87087 -0.216243 -1.05092
-1.74308 -0.325983 -1.16757
-2.23161 -1.28954 -0.781391
-1.64724 -0.231465 -1.46541
-1.6719 0.819583 -2.42708
-1.10352 0.664208 -2.18437
-1.39815 -1.1978 -1.33076
-2.16293 0.547557 -1.89368
-1.88506 -0.153503 -1.2644
-1.22826 0.666411 -2.71412
-1.18412 0.0931224 -2.37529
-2.72454 -0.628701 -0.758549
-1.51855 0.828209 -2.18612
-0.991444 -0.0339935 -2.04462
-2.82959 -0.404527 -0.802505
-3.3237 0.529087 -1.46784
-2.34385 -0.518888 -0.794088
-2.66437 -0.828635 -1.19923
-2.21615 -0.922459 -0.759618
-1.81767 -0.0217464 -1.52966
-2.70055 -0.499833 -0.572449
-1.75634 -0.907203 -1.12805
-3.02314 -1.06497 -0.605023
-2.94033 -0.339568 -0.266733
-1.71467 0.0648174 -1.43356
-1.14891 -0.132754 -1.97618
-3.31921 -0.952103 -0.318026
-1.25463 0.0810595 -2.24072
-1.45801 0.0573722 -1.98848
-2.97079 -1.09253 -0.406995
-2.23538 -0.798523 -1.22683
-2.10427 0.281926 -1.96248
-3.22998 -0.49169 -0.831301
-3.14318 -1.28561 -0.184075
-1.07019 0.382301 -2.06274
-2.37706 -0.904272 -1.00115
-1.80906 -0.291887 -1.51053
-2.08827 0.264952 -1.76828
-1.35196 0.510761 -2.32977
-3.21901 0.530958 -1.47885
-2.6878 -0.379848 -1.01976
-2.8373 -0.495851 -0.859979
-2.54383 -0.353221 -1.43884
-1.78838 -0.332267 -1.45765
-1.34962 -0.067074 -2.07319
-2.16014 -1.15296 -1.02886
-3.03214 0.429154 -1.34537
-2.56512 -0.705494 -1.1884
-1.49264 -0.202437 -1.44013
-1.57712 0.270296 -2.42236
-2.70304 -0.433538 -0.494631
-3.22077 -1.11562 0.0155082
-1.4664 -0.255474 -1.7194
-3.03518 -0.660167 -0.782699
-1.47001 -1.15409 -1.37849
-1.9829 -1.03842 -1.13987
-2.86292 0.192566 -0.940211
-2.96127 -0.991219 -0.345303
-2.66423 -1.32576 -0.708956
-1.41049 -0.73359 -1.71354
-3.12809 -0.41839 -0.766278
-2.14703 -1.09059 -1.26584
-3.26477 -1.31987 -0.423127
-1.06316 0.625592 -2.36788
-2.31639 0.669145 -1.79112
-1.19046 0.702691 -2.69049
-3.19879 0.307439 -1.27734
-2.21201 -0.735277 -1.08421
-2.53709 -0.528807 -0.701701
-2.7683 -0.0268046 -1.31776
-2.77748 -0.173776 -0.840885
-1.24641 -0.607898 -1.55318
-1.13787 -0.223681 -2.07042
-3.01675 0.529422 -1.40311
-1.98387 0.613627 -1.92979
-2.86164 -1.43242 -0.614595
-1.32905 -0.699924 -1.54733
-1.76388 0.33722 -1.76131
-2.59701 0.263233 -1.35786
-1.02098 -0.640616 -1.49311
-1.74976 -0.407661 -1.38535
-2.33597 0.00482059 -1.7755
-3.05937 -0.481451 -0.930637
-1.56087 0.872334 -2.48597
-2.45617 0.234621 -2.04271
-1.57253 -1.03735 -1.00298
-3.05029 -0.252476 -0.476997
-2.98678 0.708027 -1.55878
-2.18538 0.554753 -1.83125
-2.73189 -0.498067 -0.784735
-2.46973 0.43098 -2.11565
-1.35895 -0.722106 -1.76772
-2.46915 0.600417 -1.9572
-2.37501 0.603328 -2.22908
-2.44132 -1.02047 -0.387861
-2.26005 -0.909622 -1.1309
-1.6471 -0.922435 -1.55759
-1.77727 -0.687496 -1.4178
-1.38158 0.932191 -2.32581
-2.23736 0.5485 -1.83673
-1.68671 0.754277 -1.94632
-2.2353 0.70294 -1.69335
-3.14825 -0.585829 -0.487071
-1.63745 -0.423378 -1.37476
-1.90227 0.50184 -1.89234
-2.84952 -1.01258 -0.211241
-2.97618 -0.0698555 -0.600262
-1.32101 0.593929 -2.4292
-2.77319 0.578391 -1.78404
-1.55611 0.701437 -2.36172
-1.74671 -1.11579 -1.24135
-1.91372 -0.704423 -1.02935
-2.43961 0.264951 -1.19253
-3.37583 0.421518 -1.45516
-1.45915 -0.202799 -2.29123
-1.82415 0.715697 -2.19168
-1.18271 0.529236 -2.22282
-3.36464 -1.25831 -0.209413
-1.73245 0.0301713 -1.34232
-2.50109 -1.22889 -0.947402
-2.52036 -0.631611 -0.975341
-1.19557 0.581007 -2.52678
-3.14046 -1.09186 -0.509907
-1.19946 -0.500306 -1.24715
-2.5236 0.389671 -1.12675
-3.20973 0.441367 -1.68361
-3.25781 -0.345029 -0.762544
-1.90782 0.397963 -1.70798
-2.37622 -1.36964 -0.950802
-2.17686 0.189431 -1.74685
-2.94108 0.807113 -1.44234
-1.9764 0.512258 -2.1778
-1.39147 -0.532506 -1.29989
-3.08193 -0.153719 -0.791428
-2.11515 0.223566 -1.70012
-1.47684 -0.138727 -1.50298
-2.32505 -0.908744 -1.03322
-2.04511 0.74876 -2.30093
-1.20867 -0.0739779 -1.77752
-1.65776 -1.10034 -1.17003
-2.7564 0.257192 -1.31988
-1.38759 0.649057 -2.25708
-3.23637 -0.569316 -1.07077
-3.16526 -0.0246721 -0.784008
-1.28265 0.0129199 -1.91245
-3.11642 0.0606472 -1.3277
-2.68851 -0.497804 -0.818969
-2.89932 0.07327 -0.910067
-1.56652 -0.866741 -1.37062
-3.24675 0.108904 -1.25728
-1.2783 0.0793892 -2.0798
-1.75381 0.79034 -2.36784
-2.07788 -1.13308 -0.674116
-2.2064 0.189812 -1.26041
-1.41196 -0.546876 -1.27902
-2.81178 -0.414088 -0.646155
-2.87461 -0.0830203 -1.12136
-3.42195 -1.20778 -0.447993
-3.29038 0.344998 -1.32557
-3.0613 -0.531922 -0.541561
-2.43438 0.120682 -1.33103
-3.04622 -0.504763 -0.667747
-1.58476 0.0318234 -1.97275
-3.13806 -0.297287 -0.607189
-2.3282 -0.591655 -1.06902
-2.97669 0.0485295 -1.53849
-2.21599 -0.413134 -1.62525
-1.77284 -0.930535 -1.4838
-2.78905 0.47814 -1.75741
-3.1199 0.124225 -0.917435
-1.95876 -0.36432 -1.30903
-3.05757 -0.0881863 -0.844549
-3.13689 0.41473 -1.09659
-2.07662 -0.200797 -1.103
-1.97026 -0.0813732 -1.46601
-2.83487 0.360951 -1.30226
-1.41352 0.927607 -2.31273
-2.5923 -0.335678 -1.01884
-2.25295 0.455812 -1.47569
-1.7219 -0.512316 -1.57648
-1.33646 0.383343 -2.40429
-2.4807 -0.667713 -1.12428
-1.6545 0.227029 -2.10474
-3.24237 -0.857993 -0.252817
-2.25641 0.66437 -1.60469
-2.84268 -0.967757 -0.333347
-1.25976 -0.129935 -1.2863
-3.08632 -0.553987 -0.996748
-2.02178 -0.471393 -1.35085
-3.02189 -0.892757 -0.396115
-3.0527 0.445813 -0.998162
-3.4429 -1.44602 -0.145624
-2.18621 0.408023 -1.92509
-2.27825 0.589858 -1.38269
-2.5448 -1.33189 -0.552407
-2.6042 -0.364138 -1.13486
-2.0459 -0.741354 -1.32304
-2.67591 -0.59191 -0.825531
-1.62431 -0.496829 -1.70085
-1.26322 -0.945523 -1.42584
-1.65617 0.457211 -2.19586
-2.20461 -1.25778 -0.843341
-2.66669 0.043591 -1.31944
-2.18607 -0.285189 -1.35922
-2.78703 0.175057 -0.761141
-2.54343 -0.71303 -1.00953
-2.41497 -0.367755 -0.959315
-1.23155 0.719852 -2.56678
-1.78183 0.0219166 -1.59899
-1.45439 0.242423 -1.68612
-2.37678 0.251544 -1.71299
-2.22417 0.557061 -2.10087
-1.31126 0.691597 -1.91925
-1.65045 -0.94494 -0.981109
-1.00669 0.141624 -2.15242
-3.12454 0.119256 -1.23782
-2.79309 -0.139065 -1.28923
-2.77454 -1.20669 -0.670396
-1.46215 0.583759 -2.43512
-1.9 0.490095 -2.09682
-2.49469 -1.01484 -0.553648
-2.65473 -0.303053 -0.824472
-3.01745 -1.27228 -0.284286
-2.62721 -0.165406 -1.30223
-2.63175 -0.630683 -0.918879
-1.24096 0.666249 -2.6164
-2.30051 -0.720422 -1.07287
-2.41445 -0.278982 -1.0688
-2.94608 -1.04743 -0.246514
-1.86302 0.680921 -2.04762
-2.39176 -0.920511 -0.979852
-1.71624 -1.23725 -1.5388
-1.5326 -0.364478 -1.40745
-2.20629 0.354927 -1.39887
-1.27486 -0.508068 -1.93165
-3.19119 0.0331377 -1.27045
-3.27991 -1.07984 -0.270371
-2.93201 0.0711086 -1.18453
-2.52127 0.242508 -1.6149
-3.09054 0.10508 -1.17523
-1.67011 -0.449589 -1.52083
-3.20469 0.719008 -1.4192
-1.21626 0.122886 -2.01314
-2.05369 0.420599 -1.60611
-1.17212 0.735897 -2.06433
-1.17604 -0.566307 -1.37183
-2.87404 -0.19384 -0.891731
-1.49623 0.483515 -1.91569
-2.65681 0.533736 -1.46619
-2.08317 -0.821999 -0.997914
-3.04688 0.663382 -1.60575
-3.2758 -0.73182 -0.531932
-1.48623 -0.958896 -1.5515
-2.57314 -0.947379 -0.558255
-3.2115 -1.09939 -0.306917
-2.92029 -1.11281 -0.609603
-2.51889 -1.21714 -0.661817
-1.8444 0.520706 -2.07762
-2.90892 -0.103648 -1.60498
-1.12047 0.208833 -2.23743
-2.43581 0.865046 -1.60953
-1.99686 -0.738304 -1.38877
-1.96229 -0.389749 -1.73288
-2.09705 0.320341 -1.97854
-1.83179 0.303485 -1.69754
-1.41929 0.945807 -2.20138
-2.66613 -0.0360222 -1.45519
-1.09157 0.892602 -2.73394
-1.12156 -0.693515 -1.43801
-1.27211 0.195087 -1.97277
-2.04448 -0.839704 -0.550214
-2.45527 0.611989 -2.01129
-2.39102 0.0974902 -1.60356
-3.09099 -0.879207 -0.357153
-1.63645 -0.575668 -1.78204
-1.71764 -0.930777 -1.41095
-1.57045 -0.716545 -1.29791
-1.46955 0.00748446 -1.66737
-1.20091 -0.338528 -2.04656
-2.17202 -1.34851 -1.07056
-2.62405 0.463602 -1.38077
-3.07866 -0.706484 -0.485841
-1.95418 -1.3442 -1.14937
-3.0072 0.348247 -0.908841
-3.01352 -0.852347 -0.540087
-2.00853 0.410449 -1.50498
-2.63519 0.598806 -1.3683
-1.40774 0.86902 -2.51408
-1.72321 -1.00256 -1.24968
-2.41257 -0.679191 -0.62073
-2.94168 0.229935 -1.15622
-2.60585 -0.630192 -0.707389
-1.79114 -0.884808 -1.56259
-2.92843 -0.546198 -0.839627
-2.27162 0.0711604 -1.61733
-1.43915 0.309163 -2.3672
-2.63782 0.555849 -1.95943
-1.90054 0.220071 -1.50941
-1.1175 -0.864334 -1.51911
-2.02149 0.0453444 -1.37201
-2.52694 -0.702244 -0.591332
-3.15671 0.619389 -1.35492
-1.97298 0.965968 -1.93234
-1.86258 0.714108 -2.20992
-2.32561 0.642539 -1.72418
-2.50995 0.0938167 -1.40061
-1.64724 -1.04598 -1.38296
-2.09248 0.686246 -2.28908
-2.98691 -0.126149 -0.859095
-2.79028 0.48343 -1.55305
-2.31689 0.528379 -1.81027
-1.57249 0.632815 -2.62432
-1.75912 0.304439 -1.82777
-1.27359 0.0270839 -1.9034
-3.12981 -0.151958 -0.870575
-1.98227 0.222719 -1.50603
-2.43926 -0.214486 -1.26398
-2.72068 -0.125897 -1.53197
