ply
format ascii 1.0
comment Created by Open3D
element vertex 250
property double x
property double y
property double z
end_header
-2.65316 0.337966 1.14449
-0.953651 -0.0595038 2.36058
-2.31469 -1.2229 0.182723
-3.16703 0.095532 0.987628
-2.90178 -0.593931 0.273657
-2.57822 -0.772016 0.552231
-1.56233 -0.0581331 1.91462
-1.73601 0.812468 2.69721
-0.867521 -0.27932 2.25244
-0.807657 0.996711 2.75346
-2.08156 -1.31338 0.161443
-2.40521 0.183529 1.94057
-2.82546 -0.827678 0.135873
-1.17267 1.9066 2.88478
-3.1126 -0.791686 0.360499
-2.41419 1.25353 2.56843
-2.69199 1.01685 2.44533
-2.76569 -0.378049 0.709915
-1.96666 -0.744712 1.39641
-2.23817 1.27791 2.80236
-1.69726 0.117772 2.22488
-1.30499 1.17358 3.0726
-1.90094 -0.603939 0.820046
-0.949845 -0.546527 2.0978
-0.710008 0.805289 2.51018
-1.91524 -0.312652 1.55389
-2.28766 -0.652115 0.497829
-2.23815 0.65878 2.05279
-2.1243 -0.387413 1.4388
-0.237039 0.589417 2.53764
-1.75446 1.56336 3.16129
-1.46419 1.93473 3.31356
-0.718087 -0.271814 2.34326
-2.69192 -1.26942 -0.114857
-0.626104 0.39007 2.5166
-1.722 -1.5459 0.295175
-3.64447 -0.390281 0.0975654
-1.21381 1.8152 2.81476
-2.46364 -0.524675 1.50872
-2.88421 -0.207788 0.641938
-2.89251 0.00607113 0.882814
-1.24313 1.1242 2.88128
-1.77817 -0.628239 1.2792
-2.29925 -1.38111 -0.0893297
-3.53684 -0.988145 -0.212015
-0.363411 0.641958 2.74902
-2.49616 -2.00812 -0.560972
-0.188668 0.866216 2.67825
-2.38814 -0.757966 0.854471
-2.20101 0.0561587 1.92043
-1.19544 1.05294 2.91153
-2.48857 -1.75965 -0.329555
-1.61243 0.555259 2.52304
-1.3304 0.604339 2.41186
-1.1422 0.0165411 2.32075
-0.851714 1.00465 2.76345
-0.911914 -0.594121 2.09349
-2.23315 -0.277877 1.5274
-2.42067 0.329127 1.48176
-3.04619 -1.08645 -0.0882224
-0.899984 1.84601 3.20722
-0.866114 1.27769 2.68326
-0.0525913 0.258765 2.4926
-0.504794 1.30195 2.80994
-2.84981 -0.716921 0.231241
-2.14493 -2.11193 -0.451212
-2.2683 0.14918 1.97486
-1.87207 1.14835 2.87444
-2.54564 0.869411 2.05457
-2.094 -1.95915 -0.337692
-1.67643 0.773629 2.67252
-1.53779 -1.30792 0.539916
-3.38286 0.00671964 0.939556
-2.06816 1.38004 2.7535
-2.31361 -1.97716 -0.372541
-2.98817 -0.23472 0.820993
-0.863428 0.556183 2.68727
-0.348827 1.72938 3.12424
-2.43014 -0.281016 1.13147
-1.08219 1.17472 2.86002
-1.6023 1.15085 2.85755
-2.45773 -1.09125 0.142355
-2.13263 1.4655 2.81714
-1.10829 0.463628 2.63318
-2.84452 0.754857 1.79834
-1.96642 1.37186 2.97135
-2.94344 0.280833 0.998066
-1.23404 1.69298 2.97582
-0.58881 2.59426 3.81862
-2.44426 -1.92306 -0.453564
-3.11238 -0.148034 0.959506
-2.33877 0.411034 1.66685
-1.74391 -0.652662 1.53183
-2.3656 0.970681 1.95537
-2.39919 -1.53156 -0.0869142
-0.845472 0.183248 2.39679
-2.17708 1.43213 2.8224
-0.875219 0.055414 2.42337
-1.7924 -1.42899 0.165421
-2.15475 -1.80835 -0.156701
-1.03587 0.555634 2.41362
-1.76286 -0.542905 1.32092
-1.48133 -1.17931 0.601916
-1.35238 -0.902137 1.61445
0.0483227 0.3726 2.43313
-2.23287 -1.30282 0.00673575
-0.548045 -0.0116887 2.25204
-2.00276 -0.874322 0.557017
-0.823752 0.345891 2.55471
-1.95648 -0.86595 1.14461
-2.4679 1.1229 2.61016
-0.529528 0.132661 2.47244
-3.55305 -0.53095 0.0531288
-1.85429 -1.44539 0.769096
-1.79473 -1.05052 0.312259
-2.67529 -1.22142 -0.0936676
-2.92055 -0.510969 0.322467
-1.2236 -0.882145 1.79421
-2.39406 -0.870427 0.359951
-0.381835 0.911417 2.59972
-2.42807 -1.30666 -0.0759345
-2.2697 1.57534 2.91547
-0.949291 -0.08396 2.34185
-1.69264 -0.0642878 1.99313
-2.41966 -0.245744 0.877154
-2.86092 0.563463 1.51823
-2.329 -0.570877 0.476436
-2.87939 0.643861 2.00933
-2.75128 -0.489794 0.690413
-2.40084 1.14476 2.6297
-2.08094 -0.565278 0.932868
-1.87749 -0.746453 1.2354
-1.68441 -0.596529 0.901803
-1.80281 -0.999139 0.791074
-2.48723 0.572453 1.98934
-2.71302 0.475232 1.55138
-2.06933 0.239306 1.95165
-0.900584 0.376577 2.65319
-2.4853 1.20564 2.55866
-2.88097 -0.303545 0.656774
-0.401768 -0.100927 2.35477
-2.67899 -0.830722 0.187025
-2.6759 0.519291 2.00594
-2.46655 0.201456 1.56045
-2.77281 0.816132 2.19697
0.0216149 0.254577 2.31753
-2.45048 -1.60396 -0.117766
-1.45663 0.138504 2.03028
-2.66477 -0.966921 0.0880512
-2.59194 0.727952 2.20623
-2.23885 0.0556395 1.59474
-1.86897 1.06614 2.80808
-3.03175 -0.353377 0.751369
0.0332408 0.599655 2.73738
-1.99816 1.124 2.78405
-1.42929 0.216586 2.02145
-2.54723 -0.230423 1.52101
-1.22342 -0.260519 1.87009
-0.946059 0.331547 2.59875
-2.63316 -1.76278 -0.429996
-2.59005 -0.182386 1.53013
-2.96734 0.178648 0.908044
-2.17792 -0.937516 0.982322
-1.56878 1.58726 2.91266
-2.29844 0.665335 2.37525
-1.70693 0.871764 2.7144
-1.66306 1.75884 3.14143
-1.14427 -0.645074 1.52212
-1.50617 -1.15231 0.723268
-2.35744 -0.51795 0.644417
-3.26377 -0.151615 0.651199
-1.87067 1.05606 2.57593
-2.78458 0.22209 1.34464
-2.69721 -1.50786 -0.299267
-1.34852 -0.580824 1.75754
-1.22865 -0.81922 1.61946
-0.564275 0.538044 2.31164
-2.49616 0.684629 2.2519
-2.56495 0.247523 1.35983
-2.19668 -0.233009 1.75978
-2.78797 0.277045 1.14784
-2.65548 -0.279146 0.891086
-2.10405 -0.747104 0.964756
-2.08265 -0.2078 1.37519
-2.10051 0.922954 2.54793
-3.38563 -0.0464742 0.379429
-1.89977 1.78246 3.11261
-2.19574 -1.79109 -0.0920249
-1.49906 0.15327 2.26197
-3.40734 -0.594276 0.197536
-3.52927 -0.253609 0.293217
-0.912785 0.368856 2.54544
-3.34268 -0.0965566 0.571778
-1.97653 0.699784 2.4348
-2.02497 -0.0724296 1.99174
-1.91177 -1.76027 0.181798
-2.70423 -0.452168 0.492121
-2.57886 1.24683 2.61536
-1.29481 -0.64002 1.87384
-2.81324 -1.01517 0.083609
-2.23169 2.47236 2.88609
-1.54071 2.74537 2.97166
-2.09702 2.30684 2.916
-2.25699 1.36538 2.58136
-1.76809 3.03081 3.37806
-1.93625 1.6986 2.79221
-2.13081 2.39571 2.68398
-2.50248 1.56851 2.34485
-1.54446 3.57961 1.69763
-2.36799 2.6348 2.69437
-2.14769 1.54305 2.75607
-1.9275 2.52898 3.29151
-1.67185 3.5101 2.12425
-2.30408 1.87662 2.92444
-2.34461 1.90488 2.59649
-2.00601 2.69414 2.43683
-2.32179 1.86305 2.95011
-1.57805 3.54552 1.97542
-1.6631 2.81372 2.44779
-1.68958 3.43446 2.31782
-2.49702 1.50511 2.65605
-1.68299 3.32424 1.91803
-2.53428 2.26984 2.54455
-1.67034 2.06556 2.94991
-1.7822 2.55488 2.50735
-1.93443 3.0348 2.45236
-1.344 2.81866 3.19383
-2.31778 2.47958 2.79457
-2.38675 2.92757 1.4617
-2.04387 2.81508 2.6436
-2.48243 2.4727 2.70818
-1.51646 2.80522 3.41443
-1.14099 2.40555 3.26786
-1.59434 2.81315 3.01387
-1.79284 2.48361 2.5884
-2.37409 2.84131 2.15605
-2.6844 2.53709 2.20854
-2.9686 2.10233 1.71737
-1.83385 3.14736 2.54902
-1.58414 2.77626 2.72283
-1.6981 2.88424 2.82939
-1.37991 3.26773 2.62845
-2.4843 3.11031 1.88008
-1.90788 3.53479 1.86966
-2.12131 3.10975 1.75639
-1.86602 2.93375 2.2658
-2.46 2.91245 1.65472
-2.7289 1.72551 2.59114
-1.9987 2.90306 2.29243
-1.41984 3.29335 2.55528
