ply
format ascii 1.0
comment Created by Open3D
element vertex 400
property double x
property double y
property double z
end_header
0.378796 3.18986 -0.922254
-0.768804 2.55908 1.38519
0.233351 2.76964 -0.453929
0.600089 2.05327 0.918679
-0.257704 3.12754 -0.993044
-0.10901 2.92488 -1.03681
0.705185 2.08312 0.136245
-0.141093 2.81769 -0.242553
-1.13906 2.32803 0.984433
-0.800887 2.23474 1.93533
0.30315 2.81631 -1.51654
0.0264107 2.39143 0.167001
-0.0347349 2.1062 1.26747
-0.738129 2.43045 1.11045
-0.506692 2.26966 0.842468
0.512362 3.04201 -1.78946
0.376403 2.95427 -1.14083
-0.580586 1.91649 1.60339
0.777856 2.41755 -0.619874
-0.0576525 1.94061 1.3249
-0.230169 2.68586 -0.028109
-0.408033 2.59037 0.265877
-0.503593 2.27341 0.938567
0.0774728 2.3508 0.00583281
0.60272 2.32671 -0.64448
-0.463772 2.67692 -0.350642
0.444257 1.87657 0.756367
-1.0365 2.93247 0.145137
0.120363 2.24827 0.935973
-0.945805 3.07049 -0.0136052
-0.0856561 2.97125 -1.48792
-0.24999 2.27689 0.9225
0.689967 2.12165 0.501667
-0.565897 2.37627 1.16029
0.455064 2.1479 0.482414
0.182022 2.23023 0.317452
-1.06404 2.66679 1.01235
-0.756024 3.16286 0.0863759
0.53919 2.81747 -0.70676
0.542165 2.01213 0.176535
-0.0397923 2.1249 0.938788
-0.502559 3.20453 -0.396689
-0.424086 2.23825 1.64217
-0.287337 2.51396 0.807113
-0.605663 2.61967 1.23194
0.835318 2.1129 0.0106683
-0.631126 3.06629 -0.100116
0.140544 2.41073 0.801054
-1.12325 3.22583 -0.0177169
0.10371 2.43105 0.61696
-0.639418 2.10332 1.93643
0.582692 2.15507 0.264532
-0.177547 1.92489 1.21398
-0.823564 2.32995 1.82064
-0.330467 2.14441 1.776
-0.203918 2.9048 0.133042
-0.0937414 3.12967 -0.748471
-0.186795 2.95933 -1.52083
0.387407 2.43631 -0.114193
0.328518 2.15291 0.0147982
-0.292448 1.91369 1.57068
-0.39794 3.1451 -0.49859
0.53673 2.26 0.56856
0.191494 3.17747 -1.34727
-0.681215 3.06715 -0.507245
-0.404121 2.11123 1.59262
-0.95011 3.06313 -0.18171
-0.16834 2.58001 -0.53597
-0.224591 2.29651 1.18756
-0.682013 3.09797 0.0221468
-0.915732 2.77397 -0.212162
0.641269 2.01066 -0.0436909
-0.0411843 2.70049 -0.993894
-0.794901 2.08132 1.868
-0.652965 2.38447 1.21667
-0.205377 3.07401 -0.837037
0.46321 2.88788 -1.0407
0.698507 3.00109 -1.32694
-0.619434 2.66407 0.380676
-0.663607 3.05932 -0.337777
-0.965651 2.77127 0.189349
-1.02441 3.13581 0.0995352
-0.670078 2.9559 0.778772
-0.662261 2.66875 -0.113141
-0.699979 2.51417 1.39085
0.548908 2.48789 -0.357162
0.0819075 2.77638 -0.641202
-0.660177 2.7104 0.691693
0.262272 2.64059 -0.699228
-0.0767095 2.97059 -1.14457
-0.80499 3.10024 0.92194
-0.463648 2.36004 0.773172
0.581884 2.10936 0.500924
-0.546436 2.07765 1.08789
-0.959518 2.81758 0.256022
0.308116 2.72368 -0.745954
-0.823127 2.42294 0.852423
0.170154 2.95256 -1.41203
-0.860511 3.11214 -0.608771
-0.602979 2.63851 0.955911
-0.532102 3.05676 0.674428
-0.826142 2.59288 0.415148
0.25454 2.01921 0.8151
0.00697837 2.80077 -0.963702
0.30346 2.56329 -1.39633
-0.539895 2.88723 0.289425
-0.784682 2.38771 1.09262
-0.473811 2.97106 -0.492681
-0.397415 3.03214 -0.0149852
0.208857 2.01696 0.920247
0.461149 2.33278 -0.531091
-0.589213 2.4539 1.19642
-0.185834 2.18266 1.68504
0.538762 2.27794 0.788612
-0.697766 2.98018 -0.325836
-0.0581091 3.03754 -0.823899
-0.572489 2.1687 0.920841
-0.313291 2.00814 1.38912
0.808622 2.07649 0.832352
-0.650656 3.1404 -0.638916
0.439263 2.26552 0.282663
0.615241 3.04303 -1.5961
-0.290677 2.08841 0.905593
-1.22938 3.32475 -0.023797
-1.16664 2.96662 0.322461
0.921015 1.9775 0.270865
0.146982 2.38486 0.529322
0.276779 2.98165 -1.76726
-0.921337 3.02888 0.767073
0.697399 3.20423 -1.58783
-1.0247 3.10694 0.548946
-1.14629 3.05751 0.00549613
0.167697 2.89999 -0.583983
0.668244 2.23397 0.0816739
0.519775 2.81833 -0.830995
0.00360185 2.54629 0.333342
0.269707 2.38721 -0.472093
-0.537108 2.34864 1.10578
0.551132 2.47303 -0.863338
-0.358706 1.93985 1.56594
0.268393 1.98001 1.22905
0.833091 2.76559 -0.833579
0.945659 2.10845 0.0851286
-0.668888 3.03805 -0.316158
-0.844677 2.56651 1.00467
0.0616263 2.01686 1.44573
-0.452376 2.20464 1.50771
0.356415 1.70874 0.449265
-0.629958 2.53078 1.09958
-0.909272 2.93022 -0.484742
0.534761 3.14224 -1.82613
0.650228 2.74611 -0.696202
0.730461 2.45762 -0.655129
-0.345012 2.82594 -0.325122
0.47744 2.11205 0.20501
-0.363582 2.3149 2.1037
0.618266 1.99766 0.800646
0.600272 2.89692 -1.50647
0.602868 1.87561 0.575158
0.750244 2.90318 -0.967266
0.403848 2.57446 -0.450662
0.237544 1.98699 0.931364
0.542758 1.84936 0.583828
-0.449181 3.27354 -0.104711
-0.285282 2.28205 0.237958
-0.0293298 2.98966 -1.3676
0.621738 1.91256 0.400608
-1.18558 3.3672 0.0498119
0.490291 3.10614 -0.219249
0.335331 1.9872 0.931131
0.428733 2.72431 -1.0667
0.111783 3.15456 -1.07269
0.352885 2.39182 -0.163985
0.466745 2.71965 -0.665155
-0.410513 2.97741 -0.370363
-0.247351 2.74566 -0.576491
-0.488039 2.7449 -0.112359
-0.773628 2.8206 0.722882
0.32751 2.43188 0.1653
-0.317645 2.15736 0.837685
-0.295413 2.56402 -0.288293
0.0452077 2.29655 0.805688
0.250282 2.35881 0.565412
-0.691492 2.53438 0.672728
-0.566446 2.93483 -0.140466
-0.613995 2.50273 0.936615
-0.598374 2.4363 2.04563
-0.617159 1.98007 1.73703
0.718459 2.46599 -0.434491
-0.457491 2.16634 1.95386
0.465963 3.10561 -0.747607
0.582712 2.49979 -0.935538
0.968576 2.13802 0.151316
-0.698022 3.04042 -0.368752
-0.850841 3.08884 0.149579
-0.683641 2.95761 0.130639
-0.434377 3.13199 -0.769117
-0.0533234 2.73302 0.156847
-0.612699 2.10021 1.54928
0.678434 2.46619 -0.664376
0.60925 2.70454 -0.77521
-0.538663 2.66633 0.0541572
-0.620382 3.09461 0.174808
-0.0439392 2.11312 0.886031
-0.799915 2.81208 -0.126165
-0.750939 3.1277 -0.702169
-0.875366 3.26958 0.0968239
0.108246 2.09724 0.649066
0.357326 2.69143 0.0830859
-0.515444 2.91445 -1.06621
0.388121 2.01471 0.599251
-1.01215 3.10468 0.0302517
-0.697803 2.29559 1.12453
-0.21282 2.06879 1.66135
0.880422 2.38545 0.0993416
0.0214689 3.25403 -1.00997
-0.26095 2.12261 1.03068
-1.13531 3.34736 0.00314585
-1.0675 2.64595 0.863755
0.51106 2.69327 -0.69276
-0.748939 3.01264 0.670831
-0.349583 2.63281 0.737037
0.548 1.9308 0.83679
-0.673379 2.71212 -0.565039
-0.489044 2.19687 0.623446
0.0352236 2.3051 0.0858136
-0.135999 3.11567 -1.05771
-0.266584 3.18761 -0.845944
-0.322977 2.34849 1.15451
0.0334914 2.12429 0.588731
-0.532122 2.83037 0.0588183
-0.555329 2.79067 -0.130599
0.42413 1.92934 0.87961
0.129859 3.14149 -1.16411
-0.380288 2.92461 0.0119117
-0.364753 3.40549 -0.397673
-0.913599 3.42144 0.0976608
0.452474 2.7402 -0.992006
0.407499 2.11786 0.168439
0.240067 2.42873 0.335017
-0.278129 2.81232 0.173211
-0.71857 2.11556 1.15825
-1.2948 3.20069 0.0108003
-0.173616 2.9007 -0.514116
-0.914764 2.6115 1.18875
-0.294987 2.75201 -0.167987
0.010475 2.47914 0.122035
0.0382293 2.39088 1.16637
0.483767 2.96372 -1.37527
-0.566299 2.93559 0.215541
0.707632 2.7313 -0.898878
-1.06138 3.24824 -0.304255
0.601008 2.54679 0.592828
-0.520785 2.27845 0.418525
-1.0411 2.96766 0.00437163
0.222976 1.97056 0.745756
-0.724395 3.13811 -0.370915
0.142041 1.97947 1.27633
-0.576131 1.95478 1.58744
0.0624047 2.61526 -0.687205
0.267357 3.02868 -1.56423
-1.02378 2.5893 0.43222
0.531892 3.05926 -1.50025
-0.129764 2.18949 0.296956
-0.711554 2.08363 1.34358
-0.913298 3.20899 0.271492
-0.370938 2.88416 -0.441018
-0.963379 2.96799 0.534261
-0.609288 2.88302 -0.182958
-0.641859 3.16793 -0.589759
0.815132 2.10021 0.275362
0.557146 2.69027 -0.166654
-0.28483 2.2962 0.59258
-1.10664 3.21871 0.242062
0.00846546 1.85639 1.00673
-1.06346 3.32845 0.00949337
0.752288 2.35354 -0.631432
-1.01963 3.29155 -0.167894
-0.7562 2.23605 1.50157
0.729765 2.42036 0.258195
-0.276158 2.77105 0.490662
0.0491688 2.95466 -1.17568
-1.0032 2.94214 -0.197089
-0.307208 2.72635 -0.435128
-0.779648 2.38354 1.22729
0.508965 2.87703 -1.305
0.731663 2.88058 -0.528537
0.606673 2.63686 -0.120257
-0.92759 2.86354 0.0571398
-0.994965 2.34266 1.37092
-1.05871 3.13408 0.105057
-0.774345 2.54799 1.66453
-0.425736 3.05405 -0.781806
-0.119127 2.45098 -0.0159466
-0.84297 2.61427 1.26175
0.118955 3.02221 -1.33446
-0.598594 2.44525 1.16484
-1.19549 2.93013 0.292023
0.363017 1.9627 -0.0349733
0.662431 3.04531 -1.34899
-0.60973 2.53297 1.04205
0.498781 2.83976 -0.336849
-0.406749 2.00749 1.19382
0.668793 2.76541 -1.1268
-0.563999 2.18968 1.25788
-0.373092 2.47715 0.378428
0.477309 2.98175 -1.72273
0.239682 2.44542 -0.393818
-0.28346 2.15001 0.99338
0.215799 2.75521 -1.01537
-0.570537 1.86558 1.26017
-0.284697 3.3117 -0.582347
-0.290933 2.88905 -0.0912335
0.671145 2.07852 -0.110265
-0.107596 2.95458 -0.676526
-0.129699 2.71356 -0.393889
-0.918421 3.21833 -0.409991
0.0093089 1.84802 0.875349
0.235892 2.04584 1.2413
-1.30441 3.14006 -0.363786
0.339174 3.19014 -1.57822
0.173408 2.76822 -1.61276
-0.594914 2.17981 1.18424
0.69573 2.19559 -0.28116
0.451223 2.24721 0.211763
-0.055467 2.82137 -0.163367
-0.591347 2.33103 1.60211
-0.934881 2.50919 1.43242
-0.332924 2.03921 1.7187
-0.127097 2.48463 -0.217457
-0.214106 2.87472 -0.417656
-1.0417 3.21865 0.224063
-0.0187327 1.89117 0.886277
-1.01989 3.10021 0.13543
0.60802 2.12751 0.85805
-0.837718 3.13123 0.565912
-0.225828 2.60444 0.369382
-0.625304 2.62826 0.975076
-0.424625 2.75541 1.02703
-0.77957 2.12435 1.9615
0.217153 2.05651 0.520423
0.466122 1.90168 0.142902
-0.00795886 2.72375 -1.29753
-0.33934 2.90697 -1.07171
-0.087391 2.83665 -0.838011
0.222251 2.1192 0.383051
-0.152701 2.0586 0.705269
-0.576477 2.72032 0.0350425
-0.738822 2.3701 0.389348
-0.204434 2.97817 -0.174494
-0.339233 2.75877 0.174597
-0.664786 2.22074 1.76798
-0.491343 2.80497 -0.305183
0.683416 2.82985 -0.928204
-0.416078 2.99849 -0.579668
0.395955 2.68178 -0.960395
0.739871 2.05902 0.683951
0.0904339 3.17744 -1.2473
-0.422891 2.01429 1.21053
0.691847 2.54212 -0.0938232
0.49406 2.19031 -0.00337007
0.745031 2.33373 0.577311
-0.0469126 2.79668 -0.213553
0.0872807 2.04684 1.28249
0.727026 2.13873 0.866986
0.154214 2.64847 -0.199116
-0.0793218 1.83005 1.02673
0.0386581 3.02765 -1.33924
0.108617 2.12796 1.20397
-0.36115 2.80352 0.60165
0.729639 2.30393 -0.584451
0.258899 3.06454 -1.3304
-0.552297 2.89415 0.454663
-0.480115 3.09209 -0.871125
0.538562 3.12862 -1.78853
-1.01857 2.44263 1.27391
-0.358039 2.74058 0.609091
-0.554616 3.13913 -0.422576
-0.119245 2.09368 0.507195
0.0325801 2.95525 -1.05133
-0.795283 2.18016 0.798887
0.146684 2.85999 -1.19812
0.74447 2.85649 -0.71485
-0.688997 2.7276 1.37806
-0.28009 2.68113 -0.32952
-0.410372 1.86991 1.20086
-0.528138 2.60438 1.15768
0.453081 2.97282 -1.22232
-0.310827 2.20546 1.36639
0.223225 2.7792 -0.662355
-0.282911 3.00964 -0.986901
-0.564351 2.25134 1.62483
0.144843 2.12287 0.787003
-0.950769 2.67285 0.871681
0.548606 2.71816 -1.37964
0.045058 2.09113 0.493868
0.184805 3.0077 -0.441735
-0.884108 2.67173 0.246232
-0.393732 2.2113 1.62793
0.437635 2.19387 0.993985
