ply
format ascii 1.0
comment Created by Open3D
element vertex 200
property double x
property double y
property double z
end_header
0.670163 -2.30245 -0.823932
-0.518959 -2.44436 -0.289473
2.83405 -1.48107 -0.727805
-0.736339 -2.35782 -0.321341
0.0307462 -2.04815 -0.921013
-0.793454 -2.73657 0.0306397
2.23451 -2.11106 -0.952232
1.79976 -1.48164 -1.28067
1.30842 -0.902757 -1.69859
1.7037 -2.11924 -1.06129
1.27568 -1.95772 -1.19778
2.27302 -2.84952 -0.524393
1.34117 -2.52795 -0.755405
-0.172979 -3.26015 0.477205
-0.325809 -2.30443 -0.497246
0.892074 -2.09639 -1.07165
0.487114 -2.62284 -0.421663
1.84986 -0.636534 -1.322
-1.11839 -2.93909 0.17012
-0.411072 -2.15538 -0.640454
1.08351 -2.08099 -1.10397
2.01218 -1.46234 -1.19048
1.34299 -3.00811 -0.236965
2.29731 -1.79759 -1.01017
-1.52281 -2.06326 -0.487738
1.86653 -1.59206 -1.22709
1.55019 -1.46768 -1.38682
2.87336 -2.40508 -0.585015
1.62186 -1.63132 -1.30235
0.854991 -3.02164 -0.0614523
-1.99145 -1.9753 -0.601098
-0.112992 -3.09226 0.284451
1.68708 -3.04164 -0.277623
1.5096 -1.06615 -1.51835
1.52348 -0.702353 -1.55992
-0.253694 -2.63315 -0.169071
-1.80798 -2.08404 -0.466971
2.2523 -1.41189 -1.0777
-0.736801 -2.70536 -0.00139884
1.49306 -1.24138 -1.4843
2.30071 -1.95358 -0.975396
-1.75988 -2.38602 -0.224796
2.14666 -1.35097 -1.13655
1.41343 -1.17166 -1.54855
-0.858223 -2.91364 0.168848
2.21185 -1.08815 -1.1071
2.30797 -2.47241 -0.778236
0.631039 -2.59016 -0.506642
-0.970428 -1.90856 -0.784469
0.689193 -2.90517 -0.159165
2.69079 -1.61203 -0.823499
2.22905 -2.35662 -0.853917
1.58985 -3.10463 -0.166742
-0.976797 -1.99956 -0.6591
-0.290678 -2.52999 -0.265607
1.66121 -2.00662 -1.12693
1.96846 -2.59075 -0.748357
-1.06975 -2.56267 -0.084245
0.915606 -2.11555 -1.05719
-0.606691 -2.38949 -0.322039
-1.09289 -1.99246 -0.638669
0.0474641 -3.25957 0.473726
1.72773 -1.09726 -1.38425
2.35066 -1.70645 -1.00054
1.63708 -1.30458 -1.39548
3.16512 -1.76478 -0.458897
1.22412 -2.72464 -0.538378
2.65882 -1.70639 -0.838615
1.52465 -1.12449 -1.49665
1.82455 -2.03402 -1.08498
-1.24712 -2.01912 -0.572997
0.995249 -1.57198 -1.51515
1.05263 -1.82293 -1.31079
1.9254 -2.27933 -0.946858
-0.122512 -3.19007 0.396068
0.364516 -2.19302 -0.854156
-0.0960679 -1.92244 -1.04602
-1.3231 -2.7047 0.0141044
0.0994271 -3.15705 0.332714
-1.31573 -2.72334 0.025853
1.06177 -2.89772 -0.293192
0.518649 -2.36299 -0.716005
1.39964 -1.7736 -1.29557
2.25014 -2.35582 -0.849428
-0.202681 -2.5288 -0.293454
-0.597138 -2.22111 -0.504756
1.73123 -2.44641 -0.854993
-0.527318 -2.94972 0.186452
-1.96614 -2.31827 -0.304571
-0.169415 -1.76502 -1.2657
1.34168 -1.71549 -1.33996
1.51117 -0.890756 -1.54842
1.2156 -1.16064 -1.67214
-0.876532 -3.20084 0.356906
1.29704 -3.15239 -0.0081942
-0.55869 -2.53141 -0.192655
2.6083 -1.40133 -0.875833
2.42499 -2.95156 -0.406729
2.09144 -1.2226 -1.17337
2.00271 -2.29447 -0.927711
3.41462 -2.36754 -0.0204359
3.27915 -2.78646 0.0760147
3.44378 -2.52347 0.199936
3.43448 -2.12664 1.36133
3.38646 -2.60253 0.886614
3.55563 -1.74336 1.20233
3.46815 -2.15539 1.22049
3.32892 -2.77336 0.698209
3.23088 -2.90197 0.188995
3.31679 -2.81282 0.608327
3.37329 -2.45934 1.16521
3.48325 -2.48794 0.601987
3.40256 -2.28559 1.29534
3.4282 -2.26802 1.23538
3.46955 -2.37965 0.938919
3.27112 -2.7703 0.032542
3.55393 -2.12454 0.28437
3.25859 -1.89932 -0.355702
3.59125 -2.01127 0.704526
3.48436 -1.90397 1.38063
3.55331 -1.85727 1.13459
3.26325 -2.64655 -0.112624
3.39405 -2.69992 0.527867
3.35001 -2.72671 0.742224
3.3178 -1.96116 -0.279046
3.37412 -2.4994 1.1051
3.57323 -2.04167 0.840225
3.21911 -2.84403 0.906682
3.60304 -1.92908 0.506131
3.35659 -2.67195 0.10919
3.2378 -2.90976 0.245824
3.26596 -2.51696 1.36562
2.89871 -2.73194 -0.408195
3.41507 -1.96572 1.56246
3.2201 -1.83095 -0.401224
3.21456 -2.45707 1.56009
3.42586 -1.83182 1.62963
3.51232 -1.96584 0.0703508
3.49091 -2.41405 0.763299
3.19867 -2.46088 1.58869
3.2002 -2.04414 -0.406697
3.3226 -2.82181 0.441368
3.35449 -2.10747 1.61462
3.4686 -1.66032 1.5944
3.60551 -1.92761 0.579793
3.3057 -2.56272 1.20292
3.57689 -2.12378 0.62232
3.28201 -2.1572 -0.297539
2.96682 -2.82415 -0.291366
3.42105 -2.64196 0.56791
3.11127 -2.72403 -0.24415
3.57584 -2.07111 0.772398
3.26719 -2.8656 0.216929
3.40906 -1.91156 1.62371
3.18814 -2.66793 -0.199786
3.29189 -2.58009 1.21192
3.59165 -1.99213 0.739674
3.31729 -2.44488 -0.157752
3.04812 -2.56449 -0.398638
3.17621 -2.49751 -0.311678
3.32215 -2.69432 0.0475365
3.3136 -2.76545 0.791676
3.44871 -2.55574 0.288313
3.34799 -2.77812 0.357341
3.1543 -2.1487 -0.436944
3.52945 -1.75143 1.31141
3.47211 -1.87225 1.44697
3.23334 -2.87122 0.117474
3.46757 -2.41554 0.889099
3.01787 -2.53776 -0.435105
3.06648 -2.5899 -0.370478
3.37315 -2.02029 -0.194994
3.18582 -2.33049 -0.363747
3.2386 -2.80859 0.0188792
3.2266 -2.93414 0.306091
3.57522 -2.03111 0.339642
3.56712 -2.11527 0.36114
3.37542 -2.72273 0.598341
3.13173 -2.70813 -0.234704
3.24151 -2.91695 0.559452
3.19266 -2.95553 0.229052
3.58873 -2.05429 0.540276
3.50311 -1.87783 1.33064
3.48743 -2.4826 0.564529
3.57491 -2.0645 0.367209
3.03097 -2.84452 -0.218763
3.25867 -2.87691 0.664842
3.465 -2.4918 0.747352
3.3919 -2.70288 0.537219
3.41239 -2.05946 -0.125357
3.41292 -2.57611 0.830497
3.28371 -2.86946 0.530771
3.57442 -2.07143 0.785426
3.52037 -1.87527 1.26504
3.53559 -2.14554 0.945386
3.57447 -2.13398 0.481154
3.20884 -1.92587 -0.408618
3.20698 -2.92062 0.163112
3.24263 -2.9157 0.559263
3.53143 -2.18342 0.919086
