ply
format ascii 1.0
comment Created by Open3D
element vertex 200
property double x
property double y
property double z
end_header
1.91134 0.274064 1.64345
2.31492 0.831448 0.5271
0.927125 -1.4967 2.76684
2.24598 1.00634 0.384208
1.70789 0.790714 1.22557
2.70964 0.858454 0.200495
1.53144 -0.835204 2.70434
0.885174 -0.359755 2.48225
0.26891 0.221828 2.30013
1.56473 -0.365001 2.4369
1.41753 0.0284554 2.21009
2.35002 -1.06711 2.6268
2.07622 -0.250605 2.09437
3.26735 0.155585 0.431751
2.10477 0.807829 0.762335
1.62411 0.248122 1.90783
2.34579 0.181733 1.32612
0.0599412 -0.457837 2.31552
2.97487 1.03201 -0.0556039
1.93219 0.949898 0.767566
1.5808 0.124061 2.05157
0.869108 -0.579986 2.55202
2.67589 -0.54094 1.8589
1.20924 -0.876915 2.70151
2.00047 1.6744 -0.0916287
0.998439 -0.433401 2.51786
0.868927 -0.104679 2.39049
1.84607 -1.52379 2.94159
1.04099 -0.196664 2.42187
2.78687 -0.288196 1.41965
1.93414 2.09082 -0.341424
3.04829 0.219131 0.561806
2.66134 -0.768972 2.12151
0.453231 -0.0298806 2.34833
0.0923532 -0.0508122 2.28835
2.50072 0.573393 0.666341
2.05551 1.87685 -0.286981
0.826472 -0.838977 2.61549
2.66524 0.833664 0.251716
0.631876 -0.0215791 2.36086
1.36759 -0.886026 2.72136
2.40509 1.71384 -0.345087
0.763182 -0.727613 2.57161
0.555998 0.072899 2.33541
2.92323 0.835079 0.108371
0.512855 -0.822962 2.52225
1.91677 -0.966544 2.72708
2.27662 0.125921 1.47139
1.71491 1.43794 0.437194
2.66612 -0.112074 1.34892
1.04141 -1.31318 2.77636
1.79364 -0.869903 2.6977
2.76171 -0.761963 1.99663
1.83659 1.37024 0.369007
2.3797 0.653514 0.68253
1.44358 -0.301913 2.42509
2.07328 -0.719175 2.51618
2.54073 1.12272 0.0541788
1.64392 0.223014 1.91816
2.26268 0.912841 0.477968
1.84735 1.44323 0.276797
3.24303 -0.00753546 0.578065
0.496705 -0.277864 2.40443
1.11909 -0.932655 2.70489
0.701479 -0.181077 2.40925
1.23715 -1.8913 2.86975
2.33533 -0.284233 1.91767
1.13094 -1.26956 2.79169
0.513384 -0.049312 2.35861
1.46424 -0.448987 2.50954
1.9066 1.51875 0.13682
0.991494 0.406165 2.14692
1.28103 0.255612 2.10782
1.72597 -0.589454 2.54414
3.1731 0.163483 0.503131
1.83008 0.511712 1.43554
1.56688 0.954474 1.1971
2.72951 1.26319 -0.142441
3.10137 0.0349968 0.683981
2.74978 1.25192 -0.140889
2.58414 -0.304724 1.68507
2.01418 0.323462 1.48454
1.20201 -0.0196902 2.3104
1.79191 -0.88874 2.7081
2.36191 0.605584 0.759385
2.05109 1.0076 0.567845
1.93084 -0.486538 2.39755
2.92825 0.579136 0.321859
2.34001 1.91364 -0.441759
1.36436 1.13669 1.26192
1.14038 0.0467562 2.2882
0.277062 -0.0295791 2.32316
0.5325 0.300861 2.29058
3.2509 0.755697 0.0411501
2.88065 -0.640987 1.70616
2.42855 0.807011 0.45624
0.834128 -1.23895 2.70246
2.46378 -1.24739 2.67049
0.636075 -0.675434 2.52683
1.73763 -0.658378 2.5852
1.90687 -2.30245 2.88581
2.34794 -2.22047 2.84247
2.11272 -2.45213 2.79123
2.04815 -3.24497 1.85654
2.38014 -2.84955 2.28962
1.62573 -3.27165 1.94441
2.03406 -3.17524 1.9859
2.49862 -2.66562 2.43148
2.49407 -2.24611 2.7623
2.51332 -2.59372 2.49779
2.31984 -3.0365 2.04528
2.18341 -2.74807 2.52311
2.18572 -3.16146 1.92536
2.15002 -3.14334 1.97975
2.17237 -2.96912 2.2466
2.32154 -2.18772 2.86359
1.74234 -2.63122 2.69554
1.38416 -2.01489 2.89425
1.74376 -2.94542 2.39217
1.83508 -3.31805 1.81523
1.71667 -3.21386 2.02161
2.16464 -2.0998 2.92761
2.37549 -2.6108 2.57461
2.46369 -2.71503 2.40151
1.45796 -2.10297 2.89546
2.34183 -2.99371 2.09916
1.81144 -3.0174 2.29267
2.63404 -2.71214 2.23145
1.61018 -2.83317 2.51792
2.2393 -2.31208 2.83861
2.51619 -2.28762 2.72874
2.44033 -3.08096 1.84903
2.20413 -1.62447 2.92157
1.95057 -3.37847 1.65809
1.31039 -1.96336 2.88279
2.44095 -3.17566 1.66175
1.83946 -3.44431 1.58141
1.53684 -2.47663 2.77674
2.15556 -2.86685 2.39405
2.45399 -3.18203 1.63216
1.51502 -1.92278 2.93135
2.47614 -2.48808 2.62207
2.10662 -3.35243 1.61999
1.66136 -3.47112 1.58784
1.62846 -2.88329 2.46704
2.43599 -2.99975 2.00242
1.83068 -2.86929 2.47136
1.64429 -2.04375 2.9382
2.31694 -1.74232 2.90841
2.32805 -2.66321 2.54824
2.21893 -1.89187 2.94229
1.82099 -2.972 2.3503
2.46305 -2.29537 2.75643
1.91592 -3.41959 1.59621
2.16929 -1.98432 2.94596
2.45648 -2.99346 1.99174
1.73491 -2.97066 2.3624
1.9538 -2.13174 2.94025
2.03097 -1.76011 2.96711
1.97714 -1.91992 2.97117
2.24759 -2.24366 2.86576
2.51792 -2.71602 2.35324
2.16701 -2.51023 2.74069
2.40895 -2.45676 2.68626
1.61166 -1.85777 2.95105
1.66568 -3.32245 1.85235
1.82394 -3.35548 1.75173
2.44503 -2.20442 2.80616
2.19344 -2.93137 2.29025
1.99866 -1.71636 2.9659
2.06102 -1.78964 2.96606
1.53157 -2.19327 2.88818
1.8022 -1.9104 2.96907
2.35786 -2.15045 2.86237
2.55698 -2.31607 2.68541
1.66567 -2.69297 2.64508
1.75288 -2.69222 2.64736
2.41832 -2.6405 2.51877
2.20415 -1.91503 2.94467
2.60755 -2.49455 2.51135
2.56013 -2.23807 2.7235
1.74074 -2.83177 2.5183
1.79459 -3.30216 1.85575
2.16774 -2.72729 2.55088
1.70512 -2.70729 2.63442
2.34944 -1.83576 2.90449
2.59597 -2.58042 2.4372
2.22834 -2.82895 2.40944
2.38107 -2.61499 2.56739
1.58384 -2.26414 2.87518
2.33692 -2.83547 2.33944
2.54997 -2.51239 2.54635
1.82497 -2.97941 2.34025
1.77261 -3.27251 1.91272
1.9432 -3.04712 2.22183
1.8025 -2.7742 2.57236
1.40041 -1.94026 2.90635
2.50738 -2.20936 2.77004
2.60619 -2.4954 2.51188
1.97278 -3.0229 2.24796
