ply
format ascii 1.0
comment Created by Open3D
element vertex 250
property double x
property double y
property double z
end_header
0.179709 -2.20141 -1.39516
-1.29654 -1.82386 0.324897
0.63633 -2.38637 -0.786944
-0.900448 -2.76933 -1.98658
0.879088 -2.47724 -1.41278
-0.0637266 -2.55373 -1.16787
-0.575461 -2.01243 -0.179879
-1.98678 -2.12354 -0.652788
-1.44552 -1.85594 0.401498
-2.40714 -1.40719 -0.152967
1.00944 -2.21611 -0.496905
-1.83784 -2.64568 -1.19266
1.0247 -2.48016 -1.28137
-3.1925 -1.30699 -0.986692
-0.568125 -2.93558 -1.7657
-1.7668 -2.30032 -1.37498
-3.03848 -2.72606 -1.8285
-0.0974664 -2.53895 -1.421
-1.22836 -2.55552 -0.564967
-2.48478 -2.32987 -1.30692
-2.05195 -2.29967 -0.55082
-1.38339 -1.69027 -0.175584
0.780377 -1.97755 -0.418922
-1.17476 -1.97363 0.457375
-2.53383 -1.35827 -0.150738
-0.703089 -2.28271 -0.532015
1.01444 -2.13358 -0.790299
-0.860365 -2.19618 -1.01449
-0.915586 -2.45504 -0.757851
-2.01258 -1.085 0.43559
-2.27553 -1.93657 -0.858215
-2.65711 -1.61918 -0.845805
-1.15875 -1.74704 0.623101
0.97142 -2.53335 -1.11457
-1.97612 -1.46959 0.254973
0.944369 -2.14229 -0.066522
0.0138495 -2.93347 -2.34956
-3.24068 -1.3653 -1.02013
-2.2789 -2.95813 -1.22182
0.236179 -2.46736 -1.54753
-0.155445 -2.49385 -1.62346
-2.48872 -1.71642 -0.477545
-0.274117 -2.20062 -0.322689
1.77039 -2.22988 -0.571846
0.369665 -3.02432 -2.05661
-1.76139 -1.20601 0.494989
1.63698 -2.54922 -0.688062
-2.0573 -0.956555 0.397503
-0.510904 -2.57651 -0.982042
-1.64888 -2.53785 -0.948577
-2.26266 -1.70851 -0.336831
0.848638 -2.58434 -0.870753
-2.32779 -2.14342 -0.613055
-2.75899 -1.91133 -0.600919
-1.09969 -1.88251 0.177938
-2.41979 -1.44054 -0.185981
-1.27527 -1.98155 0.481698
-1.15974 -2.53628 -0.900893
-0.281251 -2.22135 -1.15181
0.5603 -2.7474 -1.54364
-2.63449 -1.20881 -0.451222
-2.84614 -1.31338 -0.479497
-1.69615 -1.08103 0.784489
-2.48972 -1.04621 -0.078671
0.721585 -2.50779 -1.37522
1.49408 -2.40867 -0.359899
-1.76158 -2.56964 -1.04064
-2.16691 -2.12721 -0.864768
-1.17317 -2.33969 -1.41387
1.48486 -2.33269 -0.340299
-1.65389 -2.05506 -0.524052
1.04183 -1.96191 0.102894
-1.36381 -3.00882 -2.23411
-3.21749 -2.20855 -1.43998
0.90695 -2.55335 -0.646372
-0.596509 -2.72176 -1.71124
-1.85543 -1.60676 0.12464
-2.37209 -0.806739 0.0185617
-0.444945 -2.44559 -1.08374
-2.55952 -1.5692 -0.416629
-2.63396 -1.97187 -0.795239
0.834818 -2.38019 -0.929154
-3.14206 -2.2256 -1.47587
-1.66003 -1.79519 0.0137592
-1.34115 -2.53865 -1.75021
-2.11028 -2.1047 -0.977476
-0.160869 -2.42503 -1.73578
-2.97091 -1.48346 -0.820454
-2.23576 -0.765034 -0.173915
1.08876 -2.56678 -0.767117
-1.06642 -2.87177 -1.88098
-0.464369 -2.20989 -1.07748
-0.995975 -2.36948 -0.322128
-0.410549 -2.02768 -1.20637
0.677046 -2.50775 -0.830078
-1.9789 -1.69825 0.135866
-3.05502 -2.26946 -1.46704
-1.57964 -1.75836 0.289376
1.42485 -2.0242 -0.130314
0.871887 -2.43303 -0.508137
-2.5644 -1.70144 -0.318424
-0.205398 -2.15105 -0.315149
1.19635 -1.85674 0.149897
-0.842437 -2.23717 0.164366
-1.83114 -0.934314 0.734541
1.42173 -2.21418 -0.595262
-1.98191 -1.53052 0.366051
0.822647 -2.0928 -0.4896
-1.82811 -1.63857 0.19248
-0.676497 -2.45411 -0.501406
-2.81942 -2.54451 -1.57887
-1.695 -1.49359 0.496443
0.316715 -2.89371 -2.16513
-0.395959 -2.52044 -0.275692
1.94806 -1.81671 -0.115202
1.19509 -2.47842 -1.06126
0.850509 -2.46753 -1.44797
-1.40681 -2.26532 0.20836
0.709297 -2.31145 -0.905752
-2.3256 -1.07113 0.129453
1.42252 -2.32649 -0.77761
-2.19297 -2.20078 -1.34627
-1.0165 -1.79613 0.397528
-1.14433 -2.20538 -0.364091
0.357721 -2.22829 -1.03924
-0.935084 -2.50046 -1.72109
1.38959 -2.06905 -0.781727
-2.16758 -2.80128 -1.80357
-0.231581 -2.59747 -1.39774
-2.28136 -2.43203 -1.40158
0.194413 -2.19769 -0.646432
-0.557056 -2.35285 -0.42651
0.97307 -1.82605 -0.176998
0.319038 -2.16452 -0.278025
-1.33919 -2.45424 -1.29912
-0.819149 -2.44157 -1.52531
-1.04223 -2.28518 -0.783011
-1.03616 -1.63085 0.366912
-2.03011 -2.40416 -1.47056
-0.0206001 -2.55239 -1.55107
-1.67212 -1.48012 0.645885
1.06187 -2.39069 -1.13842
-1.90138 -2.69069 -1.53364
-0.783471 -2.41276 -1.19875
-2.22873 -2.709 -1.72607
-1.90444 -0.981308 0.6938
0.502253 -2.59253 -0.889414
-0.311231 -1.8427 -0.0760593
1.50094 -2.36837 -1.00826
-1.96549 -2.60014 -1.48431
-0.707743 -2.33219 -0.926233
-2.42954 -2.17283 -0.920918
-0.697755 -2.80304 -1.74535
-1.59444 -0.915149 0.833203
-1.87547 -2.16527 -0.921667
-3.02597 -2.07252 -0.754811
-1.65194 -2.79192 -1.27098
-0.154674 -1.81224 0.24049
-1.47832 -1.71587 0.220703
0.993218 -2.63618 -0.992367
-1.66042 -2.80121 -1.32265
-0.109933 -2.45781 -1.73853
-0.789096 -2.60386 -0.739364
-3.08209 -1.77517 -1.06775
-2.12078 -2.50422 -1.18863
-1.55649 -2.02895 -0.54862
-2.82192 -1.81225 -1.03337
0.331203 -1.7755 0.416724
0.854193 -1.94611 0.102404
0.640498 -2.20987 -0.917409
-0.577884 -2.80776 -2.03776
-3.20973 -2.17181 -1.23184
-0.81879 -2.55218 -1.5624
1.46593 -2.54197 -0.980424
-0.704779 -2.09766 0.117534
-0.381175 -2.05159 0.325094
-2.46754 -1.31312 -0.00529279
-2.00069 -2.57609 -1.3778
-0.38135 -2.33485 -1.30462
-1.82325 -2.65038 -0.930424
-0.233953 -2.38102 -1.55877
-0.214369 -2.48839 -1.32115
-0.26432 -2.379 -0.665064
-0.324601 -2.23413 -0.710318
-3.0759 -2.38901 -1.31229
0.723927 -2.58716 -2.01193
-2.84013 -1.96346 -1.2343
0.598336 -2.50944 -0.576671
-2.28915 -2.17507 -0.464044
-0.26999 -2.9441 -2.09202
-0.254736 -2.88059 -2.29371
-1.90057 -1.69541 0.0949035
-0.444652 -2.78859 -2.13289
-3.00207 -2.36877 -1.15601
-2.20183 -2.56927 -0.852898
0.513123 -2.40287 -0.260488
0.66006 -2.36475 -1.2763
-2.84369 -2.56173 -1.72313
-1.33614 -2.20696 0.0968008
0.497423 -2.61236 -1.3344
-3.1685 -1.76784 -2.01942
-3.237 -1.14974 -1.63267
-3.29551 -1.78702 -1.8547
-3.53115 -2.32067 -1.73699
-2.59556 -1.2508 -1.56147
-3.39665 -1.9692 -1.52736
-3.48914 -1.69032 -2.09663
-3.92866 -2.33637 -2.23883
-2.96632 -0.146282 -2.68311
-3.09859 -1.69282 -2.28582
-3.3494 -2.1916 -1.60875
-2.79698 -1.63491 -1.5198
-2.90307 -0.443057 -2.49116
-3.09637 -2.16057 -1.73451
-3.65584 -2.10409 -2.09144
-3.50483 -1.33475 -2.29562
-2.97309 -2.17796 -1.69663
-2.94025 -0.298681 -2.53212
-3.48475 -1.0183 -2.09989
-2.93253 -0.579206 -2.3674
-3.37487 -2.43209 -1.89985
-3.17245 -0.501479 -2.58354
-3.44894 -1.99659 -2.38803
-3.30858 -1.62298 -1.41397
-3.59718 -1.2863 -2.0499
-3.21147 -1.06643 -2.33589
-3.05926 -1.03411 -1.36484
-3.19431 -1.79314 -2.14065
-3.42497 -1.08409 -3.19724
-3.26376 -1.35183 -2.21224
-3.07414 -1.87013 -2.27292
-2.82989 -1.23185 -1.30553
-2.96212 -1.13427 -0.949275
-3.17202 -1.16122 -1.66617
-3.58097 -1.36462 -1.97367
-3.27255 -1.38504 -2.72931
-3.28439 -1.80502 -2.77271
-3.96332 -2.13318 -3.18964
-3.09978 -0.956385 -2.24077
-3.3773 -1.07986 -1.84876
-3.23334 -1.13048 -1.89131
-3.11321 -0.589066 -1.93689
-2.75054 -1.14819 -2.96746
-2.77652 -0.486662 -2.78045
-3.26566 -0.888414 -2.89973
-3.4186 -1.02021 -2.38821
-3.31943 -1.21232 -3.11117
-3.34162 -2.44995 -2.20313
-3.38839 -1.14221 -2.44574
-3.10812 -0.574192 -2.01691
