ply
format ascii 1.0
comment Created by Open3D
element vertex 400
property double x
property double y
property double z
end_header
-1.79676 -1.20596 2.27761
-2.62672 -0.697023 2.06488
-1.91627 -1.16724 1.73369
-2.65062 -0.866121 -0.36853
-1.79275 -1.20974 2.27394
-1.03913 -1.87886 0.490895
-1.39913 -1.53501 1.49832
-2.22268 -0.985346 0.841068
-2.25968 -0.964727 0.94828
-2.58208 -0.826834 0.165916
-2.88217 -0.710338 1.50303
-2.76374 -0.757276 0.56688
-2.90837 -0.71801 1.30242
-1.0927 -1.73954 1.79515
-1.53796 -1.39347 2.4205
-1.31083 -1.5961 1.45442
-1.42839 -1.54747 0.616533
-1.54018 -1.43586 1.44437
-2.91139 -0.719877 1.24171
-2.91801 -0.655467 1.85422
-2.34202 -0.874458 1.92426
-1.50445 -1.4802 0.705169
-2.69283 -0.777117 0.785122
-1.21527 -1.56636 2.89735
-1.46934 -1.42745 2.55841
-2.30103 -0.929662 1.60851
-2.91674 -0.721525 1.15535
-1.53888 -1.39504 2.40418
-2.03881 -1.12603 0.215597
-1.76405 -1.27843 1.19719
-2.81726 -0.792928 -0.272328
-2.78642 -0.751421 0.587585
-1.28544 -1.61336 1.48285
-2.35777 -1.00945 -0.331379
-1.6065 -1.38897 1.37682
-2.6685 -0.784782 0.722303
-2.28892 -0.840877 2.23741
-2.65766 -0.799243 0.156652
-2.5305 -0.835079 0.846336
-1.87309 -1.2037 1.18557
-2.52428 -0.890912 -0.20557
-1.45213 -1.48449 2.17295
-1.77658 -1.36926 0.0117945
-1.86626 -1.18901 1.96661
-1.81758 -1.31458 0.0933664
-1.02815 -1.8128 0.876692
-2.26827 -0.952374 1.52298
-1.93557 -1.09669 2.27151
-2.82892 -0.796909 -0.314889
-2.5154 -0.810846 1.71754
-1.1874 -1.67955 1.40867
-2.16924 -0.928205 2.22773
-1.07028 -1.74377 2.3624
-1.47625 -1.46488 2.19638
-2.93364 -0.701103 1.50418
-2.52736 -0.838812 0.449027
-2.64819 -0.810762 0.0328734
-2.35681 -0.913914 0.850034
-1.95365 -1.126 1.96357
-1.37949 -1.52488 2.35914
-2.82543 -0.795233 -0.299679
-2.65974 -0.787073 1.02219
-2.92836 -0.722684 0.941831
-1.05819 -1.76392 1.35183
-1.2821 -1.61551 1.68137
-1.25327 -1.74685 0.333641
-1.07834 -1.74853 1.72258
-1.69359 -1.3276 1.33047
-2.90273 -0.711321 1.43925
-2.6705 -0.783609 1.01603
-2.93159 -0.76953 -0.280212
-1.5059 -1.46054 1.23574
-2.79874 -0.748253 0.803323
-2.39425 -0.921353 0.0637315
-1.55039 -1.41544 2.0997
-1.6277 -1.37424 1.19513
-2.46939 -0.86098 0.758846
-2.25566 -0.925348 1.93309
-2.56406 -0.883756 -0.270426
-1.01337 -1.80634 1.04575
-1.17802 -1.60576 2.86032
-1.02604 -1.7752 2.28368
-1.79774 -1.25509 1.33455
-1.02384 -1.7522 2.65227
-1.76423 -1.35331 0.121205
-1.31893 -1.59033 1.72776
-2.4487 -0.918871 -0.144533
-2.2015 -1.05748 -0.0857579
-2.60026 -0.80975 0.47618
-1.85462 -1.21646 1.03374
-1.57167 -1.39166 2.20359
-2.24053 -0.990225 0.276359
-1.34246 -1.46516 2.86628
-1.49146 -1.4756 0.970341
-2.60166 -0.807778 0.681559
-2.30367 -0.941159 0.886966
-1.41469 -1.52399 1.68111
-1.79464 -1.2586 0.939681
-1.17228 -1.60368 2.88921
-2.9281 -0.722536 0.969344
-2.24796 -1.07472 -0.301461
-1.58379 -1.48893 0.208731
-2.1866 -0.931451 2.1596
-1.62699 -1.43395 0.295931
-2.74698 -0.760331 1.0602
-2.22795 -1.01263 0.106639
-2.03217 -1.12088 0.315002
-1.35459 -1.52934 2.49423
-2.76515 -0.757021 0.544281
-2.99051 -0.812133 -0.53325
-2.08668 -1.03216 1.96637
-2.85373 -0.706216 1.60843
-1.92197 -1.17453 0.733086
-1.57803 -1.33309 2.57063
-1.31057 -1.59458 1.92991
-1.43687 -1.50765 1.79472
-2.30176 -0.941258 1.22004
-2.02231 -1.09386 1.75341
-2.28302 -0.953357 0.642088
-2.44642 -0.872146 0.588468
-1.22297 -1.65363 1.99106
-2.97274 -0.715302 1.0704
-1.29963 -1.57717 2.44201
-1.92937 -1.07871 2.3767
-2.51272 -0.842256 0.987326
-2.82764 -0.735363 1.26968
-2.02132 -1.11443 0.533102
-1.98256 -1.07434 2.19531
-1.97562 -1.15303 0.403355
-2.11234 -1.04908 1.29879
-2.81023 -0.732548 1.41387
-1.27074 -1.653 0.752878
-2.45684 -0.847892 1.61608
-2.29643 -0.952176 0.393675
-2.05326 -1.08639 0.904651
-2.04871 -1.00964 2.26564
-1.78907 -1.35241 0.034521
-2.31732 -0.934166 0.784273
-1.66025 -1.43031 0.174832
-1.2108 -1.66336 1.55565
-2.653 -0.812331 -0.00638517
-1.20036 -1.62484 2.6629
-2.91509 -0.702355 1.52512
-2.90738 -0.670358 1.78578
-1.37645 -1.48936 2.64009
-1.98526 -1.20614 -0.0351715
-2.51043 -0.843338 0.837412
-2.89268 -0.781459 -0.309847
-2.57302 -0.822245 0.367957
-1.64331 -1.33007 2.2612
-2.05327 -1.13167 0.0923269
-2.45074 -0.857721 1.51155
-1.86826 -1.20473 1.58199
-2.64532 -0.7739 1.54074
-1.03359 -1.77332 2.17831
-2.06938 -1.07694 0.80333
-2.76858 -0.756123 0.545802
-2.26597 -0.967753 0.429376
-1.23593 -1.7534 0.362576
-2.24861 -0.996568 0.139272
-1.8378 -1.25315 0.398964
-2.19816 -1.00192 0.595504
-2.8802 -0.66567 1.84163
-2.90759 -0.727429 0.434234
-1.65672 -1.30197 2.38608
-2.49721 -0.942199 -0.385451
-2.7651 -0.755261 1.07569
-1.5165 -1.46822 0.743806
-1.75475 -1.39257 -0.00226981
-2.34424 -0.906942 1.59268
-2.68856 -0.744986 1.68122
-2.93212 -0.723872 0.407923
-1.42044 -1.55724 0.587528
-2.62254 -0.816256 0.0858993
-1.91305 -1.25053 0.0263327
-2.6098 -0.808287 0.368452
-1.64242 -1.43997 0.200465
-2.44503 -0.861447 1.49262
-2.4703 -0.86197 0.536913
-1.20925 -1.66444 1.52743
-1.7446 -1.26977 2.08456
-2.4994 -0.796733 1.87862
-2.11482 -1.03259 1.75705
-2.6948 -0.785567 0.182547
-1.77786 -1.16466 2.54362
-1.87478 -1.18844 1.88834
-1.64554 -1.34775 2.04012
-1.75116 -1.29536 0.716879
-2.50576 -0.857388 0.19275
-1.19434 -1.66219 2.32451
-2.99217 -0.714715 0.902226
-1.97081 -1.13793 1.41815
-1.39977 -1.52819 2.06421
-1.02236 -1.78285 1.85437
-2.19339 -1.11251 -0.295344
-1.68955 -1.33087 1.11386
-1.46386 -1.48259 2.03812
-1.81704 -1.22454 1.97419
-2.19109 -1.00672 0.566803
-1.93645 -1.08839 2.30892
-1.71332 -1.3112 1.70759
-1.35035 -1.55747 2.20827
-2.37144 -1.00505 -0.347083
-2.19279 -1.07116 -0.125844
-1.59184 -1.32238 2.56516
-2.0104 -1.2113 -0.139053
-2.13704 -1.03508 0.863031
-1.47479 -1.49827 0.764001
-1.88691 -1.10985 2.39334
-2.00535 -1.03598 2.29832
-2.41409 -0.900592 0.194631
-2.94209 -0.74201 -0.0564837
-1.52809 -1.46223 0.705198
-1.7583 -1.28276 1.0785
-2.0884 -1.06795 0.624538
-2.25134 -0.957012 1.62504
-1.88153 -1.24359 0.20393
-2.73862 -0.763746 0.752673
-1.66176 -1.31864 2.23451
-2.19511 -0.960484 1.95844
-1.10621 -1.71812 2.39752
-1.70962 -1.34576 0.449628
-1.82456 -1.25345 0.51203
-2.98282 -0.824083 -0.572467
-1.49678 -1.46891 1.08208
-2.18954 -0.944186 2.08509
-1.53214 -1.47514 0.537528
-1.50426 -1.47879 0.725456
-1.89066 -1.21957 0.341257
-1.13875 -1.63721 2.85834
-1.19264 -1.73233 0.610219
-2.4915 -0.759348 2.08055
-2.41129 -0.844498 1.86335
-1.52252 -1.48915 0.487699
-1.59836 -1.39741 0.995811
-1.49334 -1.46892 1.49376
-1.84822 -1.20862 1.87035
-1.23442 -1.65603 1.06745
-2.29233 -0.929244 1.68736
-1.81396 -1.16876 2.40182
-2.00576 -1.15064 0.20569
-2.25853 -0.964713 1.2136
-2.68059 -0.860224 -0.395442
-1.97286 -1.15 0.478124
-1.83414 -1.24671 0.508014
-1.41939 -1.52227 1.19973
-1.80836 -1.24857 0.984759
-2.95509 -0.72832 0.127562
-1.52793 -1.35796 2.65186
-2.46556 -0.862578 0.967923
-1.93083 -1.16456 1.40063
-2.93357 -0.695475 1.56498
-2.34686 -1.00413 -0.282906
-2.00422 -1.14791 0.238769
-2.4757 -0.858173 0.816623
-2.52805 -0.847743 0.191067
-1.15402 -1.69542 2.19093
-2.6082 -0.793869 1.44651
-1.91931 -1.15805 1.86733
-2.52598 -0.840587 0.394983
-1.3221 -1.59018 1.23141
-1.49807 -1.47583 0.84734
-2.48862 -0.837462 1.55359
-1.25279 -1.73648 0.371323
-2.25455 -0.907953 2.04679
-2.86716 -0.73356 0.785871
-2.75977 -0.71468 1.73683
-1.11119 -1.76063 0.831084
-2.37623 -0.87841 1.73694
-1.38607 -1.44447 2.80236
-2.91199 -0.725569 0.857091
-2.10336 -1.0552 0.986994
-1.82638 -1.12339 2.53745
-1.15166 -1.62234 2.87988
-2.65889 -0.712552 1.94645
-2.31501 -0.934831 1.14652
-1.14648 -1.70604 1.44876
-1.72117 -1.29946 1.89727
-2.51687 -0.840665 0.849136
-1.25284 -1.64555 1.01628
-2.70412 -0.759362 1.46307
-1.52353 -1.44959 1.08806
-1.77093 -1.21149 2.36688
-1.3932 -1.56798 0.677465
-1.11197 -1.72316 2.19062
-1.75047 -1.27707 1.91642
-2.19722 -1.04381 0.0154079
-2.12758 -1.02108 1.8008
-1.19055 -1.67238 2.14153
-1.97155 -1.14416 0.625054
-1.80114 -1.25408 0.939045
-1.26787 -1.62615 1.33733
-2.20827 -0.993372 0.965865
-2.60176 -0.808909 0.498178
-1.02525 -1.7813 1.61899
-2.07019 -1.14293 -0.0445689
-2.50141 -0.853336 0.321776
-2.54059 -0.833495 0.442493
-2.61576 -0.795332 1.35627
-2.39002 -0.896343 1.20743
-1.53497 -1.43915 1.64974
-2.1124 -1.04969 1.06491
-2.9025 -0.662198 1.8355
-2.74519 -0.739323 1.55957
-2.02673 -1.01739 2.30578
-2.386 -1.00012 -0.362286
-1.58531 -1.35014 2.45019
-1.78591 -1.26648 0.840785
-1.69433 -1.38558 0.25383
-2.1453 -1.03146 0.701096
-1.8811 -1.15959 2.14328
-1.80305 -1.31097 0.172555
-1.92061 -1.13901 2.06955
-1.71631 -1.41456 0.0415849
-2.49266 -0.802467 1.86338
-2.01403 -1.11038 1.35214
-2.23722 -1.05794 -0.206058
-2.80897 -0.707793 1.68596
-2.20049 -1.06292 -0.110938
-1.19775 -1.7165 0.684593
-2.23563 -0.972611 1.47874
-1.93905 -1.22781 0.0355533
-2.79857 -0.722366 1.58146
-1.79721 -1.14714 2.54483
-2.41106 -0.858696 1.74925
-2.99216 -0.690157 1.53669
-1.90445 -1.16266 1.94947
-1.86227 -1.29303 0.0228113
-1.13875 -1.71757 1.15737
-2.35074 -0.921749 0.434241
-1.22397 -1.65411 1.87544
-1.27053 -1.60329 2.39112
-1.66989 -1.31385 2.22037
-2.454 -0.867952 0.70676
-2.8116 -0.745651 0.534311
-2.25502 -0.940989 1.80396
-1.66121 -1.44661 0.10473
-2.85456 -0.736027 0.801095
-1.95276 -1.15156 0.871078
-1.22807 -1.66251 1.02523
-1.76929 -1.31716 0.30284
-2.12001 -1.0446 1.27225
-2.26605 -1.02238 -0.126431
-1.81858 -1.23877 1.60421
-2.57132 -0.818943 0.935828
-1.7656 -1.27434 1.69071
-2.01413 -1.20981 -0.144766
-1.95377 -1.15031 0.951306
-2.13735 -1.03167 1.44946
-1.89322 -1.19717 0.643481
-1.05754 -1.76464 1.33769
-2.21712 -1.01946 0.105939
-2.33711 -0.92387 0.836684
-2.01954 -1.09536 1.75962
-2.45879 -0.944673 -0.30955
-1.04321 -1.83177 0.680145
-2.50029 -0.936683 -0.370064
-2.22261 -1.06725 -0.202855
-1.84305 -1.13609 2.43728
-2.87202 -0.831996 -0.524631
-1.16307 -1.67864 2.40814
-2.20477 -0.988083 1.54848
-1.16605 -1.7983 0.41271
-1.73518 -1.29939 1.0219
-1.38997 -1.57531 0.634628
-2.48552 -0.849044 1.33866
-1.44705 -1.58105 0.324025
-1.23083 -1.69717 0.645292
-1.19128 -1.67669 1.44526
-1.38898 -1.58731 0.550263
-1.24212 -1.65826 0.931309
-1.80326 -1.22595 2.07866
-1.00107 -1.90253 0.511266
-2.29679 -0.967322 0.147913
-2.09491 -1.01953 2.02102
-1.30457 -1.51562 2.79957
-2.88076 -0.677825 1.7736
-1.28167 -1.62577 1.00348
-1.11274 -1.76873 0.758853
-1.90592 -1.17494 1.72069
-1.17396 -1.62005 2.80819
-2.81253 -0.731587 1.42037
-1.03748 -1.84702 0.624587
-2.36542 -0.856653 1.9508
-2.2423 -0.998633 0.157628
-1.54062 -1.36744 2.55948
-2.34179 -0.923114 0.581906
-1.3718 -1.55518 1.25012
-2.02248 -1.18795 -0.084174
-2.0112 -1.08119 1.99933
-1.62295 -1.31016 2.49667
-1.19931 -1.67781 1.12694
-1.67631 -1.39864 0.264281
-1.14003 -1.70947 1.78254
-1.63141 -1.30785 2.47192
-2.1911 -0.992552 1.62895
-1.02244 -1.8155 0.886578
-1.00868 -1.79063 2.01166
-1.39184 -1.53963 1.7592
-2.92064 -0.725435 0.424504
