ply
format ascii 1.0
comment Created by Open3D
element vertex 400
property double x
property double y
property double z
end_header
-1.29891 2.96922 0.75545
-1.70513 0.748819 2.32151
-1.21804 2.32204 0.997464
-0.331074 1.32118 1.84984
-1.91251 2.58893 0.661759
-1.73995 2.51299 0.594134
-0.430607 1.75107 1.27204
-1.53948 2.05796 1.15584
-2.12371 0.507321 1.96909
-1.5422 0.197649 2.67665
-1.44013 2.86107 0.226736
-1.1583 1.61509 1.35171
-0.865625 0.856662 2.09835
-1.69667 0.786076 2.06899
-1.47943 0.909528 1.81521
-1.35111 3.29879 0.0740105
-1.30457 2.85835 0.540145
-1.29248 0.220128 2.31528
-0.63774 2.40708 0.795721
-0.840391 0.672214 2.10764
-1.5375 1.80168 1.27923
-1.61246 1.49007 1.4703
-1.45336 0.872258 1.88833
-1.14168 1.67861 1.22498
-0.794964 2.23856 0.753203
-1.85075 1.79818 1.03634
-0.484595 1.14963 1.68522
-2.37917 1.45377 1.4878
-0.828614 1.2146 1.88495
-2.35542 1.69869 1.39601
-1.83849 2.76589 0.264915
-1.2036 1.03145 1.87611
-0.361535 1.616 1.55317
-1.49054 0.823448 2.08493
-0.598744 1.51457 1.53622
-0.926259 1.50168 1.42573
-2.14063 0.819817 2.08893
-2.16011 1.8469 1.49046
-0.998626 2.6465 0.831055
-0.562682 1.5791 1.28138
-0.955792 1.01508 1.85479
-2.02427 2.25112 1.12502
-1.19863 0.574148 2.41672
-1.33114 1.2614 1.85091
-1.5829 0.970777 2.20917
-0.341955 1.90634 1.18794
-2.05108 1.92344 1.31984
-0.882334 1.42462 1.82393
-2.58495 1.72198 1.44399
-0.97196 1.50028 1.69263
-1.33443 0.187287 2.63145
-0.533231 1.68775 1.38045
-0.979116 0.640206 2.01555
-1.61225 0.319013 2.60932
-1.05312 0.487153 2.49865
-1.52465 1.93375 1.45378
-1.69637 2.57441 0.854154
-1.93968 2.71398 0.232047
-0.892282 1.98052 1.1655
-0.845628 1.64889 1.18894
-1.01005 0.401935 2.28828
-1.93289 2.30491 1.03636
-0.522786 1.62071 1.62808
-1.58072 3.04071 0.424947
-2.1962 2.07778 1.00774
-1.1589 0.49943 2.3474
-2.39418 1.7671 1.26236
-1.58589 1.96497 0.881584
-1.11682 0.946637 2.07979
-2.08207 1.86535 1.42221
-2.29295 1.55507 1.16506
-0.522049 1.73044 1.11963
-1.6128 2.33794 0.57772
-1.50736 0.104074 2.58046
-1.56995 0.752107 2.13365
-1.81402 2.50171 0.771603
-1.17846 2.80718 0.600972
-1.04788 3.16456 0.419448
-1.8162 1.37717 1.57744
-2.13779 2.0049 1.1364
-2.24957 1.34258 1.47327
-2.43202 1.65287 1.50714
-1.85411 1.4136 1.9628
-1.9853 1.57207 1.20989
-1.61681 0.752318 2.30769
-0.812357 2.22125 1.0041
-1.41762 2.32156 0.858328
-1.79422 1.25418 1.82574
-1.22405 2.33316 0.787091
-1.74576 2.61843 0.524479
-2.01048 1.38247 2.12743
-1.47706 1.04188 1.78659
-0.463162 1.54462 1.54597
-1.41024 0.614275 1.9517
-2.24073 1.35501 1.53724
-1.21222 2.45055 0.774382
-1.84421 0.84329 1.8735
-1.57221 2.85873 0.330342
-2.40539 2.05971 0.936104
-1.65059 1.11166 2.00352
-1.76251 1.62924 1.90483
-2.00063 1.17776 1.58963
-0.67902 1.14398 1.74866
-1.58145 2.4389 0.624725
-1.34946 2.59075 0.256591
-1.81786 1.65281 1.56739
-1.73767 0.729767 2.04561
-1.967 2.10742 1.00051
-1.78728 1.99396 1.37488
-0.696219 1.07005 1.82532
-0.906233 2.11303 0.83629
-1.52736 0.858349 2.13456
-0.93513 0.647801 2.43433
-0.468044 1.54181 1.79542
-2.1506 1.91125 1.127
-1.66129 2.54701 0.779278
-1.50032 0.750412 1.84868
-1.08982 0.55601 2.16565
-0.158531 1.49604 1.7995
-2.21118 2.21939 0.921611
-0.693616 1.69363 1.41554
-1.20538 3.27191 0.22452
-1.20212 0.853739 1.81703
-2.72781 1.74078 1.47464
-2.4917 1.31812 1.64752
-0.164582 1.72242 1.35646
-0.941513 1.52326 1.61782
-1.56159 3.10213 0.0711067
-2.14893 1.32073 1.99467
-1.15755 3.45628 0.267116
-2.332 1.41932 1.85625
-2.56012 1.55461 1.41932
-1.34852 2.45214 0.932229
-0.515932 1.8839 1.26585
-1.05095 2.68949 0.739728
-1.17488 1.66279 1.51182
-1.09212 2.02401 0.889732
-1.46654 0.841806 2.03521
-0.941678 2.42714 0.629471
-1.08178 0.388849 2.28902
-0.558187 0.933067 2.05563
-0.728918 2.8269 0.728429
-0.213994 1.93323 1.24478
-2.13307 1.97373 1.14802
-1.87324 0.880667 2.03324
-0.712573 0.752556 2.21993
-1.24892 0.589836 2.30426
-0.609956 1.08826 1.41564
-1.61412 0.941132 2.08374
-2.38769 1.8155 0.993678
-1.3573 3.41687 0.0659266
-0.868757 2.64503 0.822783
-0.70457 2.42866 0.779902
-1.76358 1.98331 1.09344
-0.640946 1.6165 1.3234
-1.06248 0.4602 2.80259
-0.331751 1.33431 1.75066
-1.16498 3.09696 0.258789
-0.377341 1.31765 1.55537
-0.880912 2.95376 0.66389
-1.0018 2.25161 0.954981
-0.659906 1.05484 1.82881
-0.427413 1.25699 1.554
-1.91897 2.21078 1.36508
-1.41833 1.31182 1.37101
-1.75948 2.76011 0.362549
-0.40854 1.43857 1.43089
-2.67884 1.7688 1.54307
-0.986566 2.65666 1.25761
-0.566737 1.10977 1.8332
-1.17949 2.65823 0.541524
-1.58532 2.85426 0.624416
-0.928451 1.94401 1.11735
-1.03424 2.50344 0.83583
-1.87585 2.09552 1.09497
-1.71404 2.07929 0.890202
-1.83027 1.73857 1.22987
-1.93735 1.26227 1.88661
-0.87426 1.82292 1.36707
-1.26275 0.926959 1.78279
-1.64032 1.77202 1.05661
-0.947047 1.26982 1.79794
-0.824739 1.54448 1.64043
-1.78201 1.09642 1.76325
-1.96332 1.86703 1.25641
-1.62868 1.00002 1.9513
-1.35452 0.444544 2.80177
-1.31833 0.190279 2.4382
-0.660271 2.33373 0.944239
-1.15411 0.345737 2.65048
-1.15038 2.86967 0.868736
-0.936313 2.49933 0.583486
-0.181943 1.94281 1.30184
-2.17498 1.98236 1.1082
-2.22533 1.69765 1.52407
-2.02194 1.69666 1.46894
-2.0296 2.39361 0.826107
-1.32563 1.86461 1.42915
-1.37922 0.384731 2.31581
-0.760924 2.40963 0.774983
-0.919707 2.6199 0.753746
-1.81797 1.56967 1.33346
-1.98251 1.83089 1.53693
-0.970491 1.0256 1.81258
-2.16434 1.61815 1.23826
-2.32046 2.17973 0.86735
-2.30994 1.85973 1.5314
-0.87957 1.20178 1.63688
-0.931883 2.09688 1.37229
-2.1349 2.28843 0.55324
-0.60421 1.30974 1.59158
-2.42488 1.66649 1.44298
-1.6137 0.691573 2.04042
-0.943092 0.543139 2.39162
-0.339866 2.12817 1.31963
-1.6753 2.86429 0.686794
-1.14968 0.845384 1.91941
-2.62608 1.8072 1.49392
-2.16947 0.869131 1.96573
-0.991542 2.51825 0.809841
-1.97909 1.46035 1.90099
-1.4433 1.3556 1.83075
-0.377416 1.21954 1.7622
-2.12108 1.80061 0.882658
-1.49827 0.953993 1.63267
-1.15006 1.58114 1.2711
-1.80999 2.67499 0.61628
-1.89755 2.57159 0.785019
-1.23679 0.947696 2.06833
-0.974154 1.20877 1.59638
-1.85272 1.71062 1.37941
-1.91364 1.74619 1.22771
-0.483948 1.13058 1.78769
-1.588 2.89318 0.553745
-1.73648 1.90043 1.3681
-1.9311 2.50723 1.16867
-2.38914 1.9647 1.5732
-1.14039 2.65328 0.600859
-0.719799 1.59754 1.29574
-0.913217 1.69753 1.4883
-1.56442 1.79444 1.4595
-1.57912 0.512041 2.0188
-2.76058 1.57725 1.47658
-1.66256 2.22796 0.974825
-1.92178 0.789394 2.19576
-1.65506 1.8809 1.19209
-1.20802 1.70001 1.34053
-0.884025 1.18978 2.08862
-1.2619 3.03013 0.370389
-1.87577 1.71052 1.52501
-0.861908 2.75296 0.670661
-2.57757 1.91656 1.21194
-0.52094 1.89436 1.71478
-1.60404 1.09366 1.50178
-2.42427 1.54499 1.38754
-0.716456 1.11401 1.68519
-2.22393 2.05264 1.12862
-0.667282 0.840926 2.08565
-1.29955 0.263623 2.31086
-1.40983 2.19196 0.785029
-1.53171 3.04773 0.23483
-2.2024 1.04597 1.61084
-1.26711 3.19583 0.298752
-1.22643 1.29711 1.39362
-1.52178 0.405142 2.1538
-2.29797 1.70384 1.65616
-1.83282 2.06886 1.02086
-2.22625 1.35092 1.79713
-2.00385 1.81637 1.2116
-2.19718 2.22632 0.965558
-0.292498 1.76757 1.38299
-0.803726 2.31708 1.19422
-1.32803 1.17114 1.63578
-2.51613 1.603 1.65155
-0.834854 0.777622 1.85004
-2.54222 1.83369 1.48826
-0.649692 2.34284 0.770547
-2.51886 1.91439 1.33133
-1.57491 0.433891 2.32028
-0.454067 2.00312 1.44203
-1.46927 1.62295 1.68377
-1.62956 2.68879 0.503047
-2.42207 1.63877 1.22178
-1.73086 1.96732 0.988528
-1.70053 0.668457 2.14818
-1.19938 2.9389 0.403349
-0.777668 2.73464 0.980794
-0.729233 2.28013 1.21565
-2.26574 1.50283 1.39529
-1.88997 0.432475 2.26593
-2.46712 1.62734 1.51347
-1.65027 0.606228 2.54046
-2.00862 2.3354 0.801073
-1.36542 1.66047 1.23035
-1.82868 0.803945 2.24746
-1.61641 2.85705 0.400905
-1.54217 0.859522 2.10841
-2.51858 1.28371 1.61511
-0.779973 1.52629 1.10802
-1.09918 3.19165 0.412618
-1.6073 0.981015 2.03962
-0.944339 2.4839 1.10627
-1.22787 0.588897 2.01495
-0.968572 2.8581 0.510568
-1.41638 0.623134 2.11027
-1.51856 1.36592 1.52389
-1.35713 3.19591 0.111711
-1.11492 2.02301 0.96078
-1.18785 0.872273 1.89777
-1.38158 2.54069 0.58201
-1.34373 0.34025 2.03336
-1.87718 2.5532 1.01014
-1.66522 1.96703 1.28305
-0.525775 1.83512 1.08666
-1.65291 2.38263 0.868788
-1.54291 2.04048 1.01932
-2.44461 2.02648 1.1162
-0.864058 0.829101 1.74872
-0.598386 0.968175 2.07558
-2.81914 1.70175 1.15095
-1.49717 3.23762 0.258126
-1.57961 2.78764 0.140257
-1.46271 0.629269 2.05203
-0.574251 2.0239 0.988822
-0.696407 1.71522 1.35939
-1.43533 2.07627 1.2165
-1.40486 0.569591 2.41563
-1.86185 0.579452 2.35939
-1.0449 0.420333 2.43067
-1.43607 1.77079 1.09151
-1.67086 2.14061 1.0391
-2.44863 1.65302 1.631
-0.897194 0.846436 1.76474
-2.41007 1.6091 1.52561
-0.352572 1.41834 1.81864
-2.13208 1.55078 1.86027
-1.40717 1.56376 1.55072
-1.66639 1.08093 2.01616
-1.48098 1.28625 2.08339
-1.48678 0.104397 2.66871
-0.7982 1.28408 1.53578
-0.620264 1.45463 1.22929
-1.66514 2.50841 0.359649
-1.96601 2.3831 0.554956
-1.64827 2.36201 0.72287
-0.843477 1.40072 1.44878
-1.11025 0.995095 1.66282
-1.87486 1.60153 1.33342
-1.85603 1.05479 1.50656
-1.62324 2.12952 1.24431
-1.61122 1.71267 1.44658
-1.42018 0.353154 2.52338
-1.89783 1.87202 1.10131
-0.918434 2.83558 0.673645
-1.93814 2.20272 0.942398
-1.17311 2.55717 0.608671
-0.255941 1.50844 1.67976
-1.65256 2.94005 0.495699
-1.24163 0.577845 2.02927
-0.614818 2.23693 1.21284
-0.697957 1.78343 1.18865
-0.335737 1.79887 1.65808
-1.4342 2.08164 1.17374
-0.731364 0.867155 2.10114
-0.239316 1.49067 1.83333
-1.19648 2.06422 1.15158
-0.909094 0.696069 1.8565
-1.69528 2.81908 0.394699
-0.746283 0.985535 2.05887
-1.53527 1.55174 1.77577
-0.647184 2.26718 0.792372
-1.49006 2.97101 0.418561
-1.79162 1.5783 1.69399
-2.08956 2.37834 0.738325
-1.34263 3.38982 0.0926601
-1.96596 0.544756 2.2213
-1.51334 1.49729 1.76439
-2.06735 2.17564 1.09016
-1.13725 1.13039 1.5252
-1.61404 2.62562 0.595289
-1.76063 0.680837 1.76423
-1.52059 2.67109 0.469155
-0.808574 2.80159 0.838193
-1.67062 0.941728 2.35968
-1.66533 1.89863 1.05572
-1.19875 0.464255 1.98924
-1.51474 1.03891 2.14428
-1.25514 2.95359 0.4859
-1.13803 0.738398 2.1936
-1.28625 2.41373 0.847119
-1.91203 2.46771 0.642213
-1.35093 0.508175 2.41141
-0.814414 1.18478 1.74626
-2.049 0.961952 1.96991
-1.14106 2.85792 0.310022
-0.979917 1.22781 1.51884
-1.3198 2.49334 1.06287
-2.12351 1.28357 1.48563
-1.16412 0.575756 2.39831
-0.495216 1.32151 1.92684
