ply
format ascii 1.0
comment Created by Open3D
element vertex 400
property double x
property double y
property double z
end_header
-2.0222 1.76695 1.10756
-2.60994 0.16812 0.850026
-2.81143 0.632162 0.758182
-2.43755 1.96957 0.828214
-2.83486 0.233057 0.77084
-1.43562 1.39543 1.46471
-2.76445 0.294459 0.794864
-1.91734 0.546202 1.19732
-2.10167 0.0143679 1.08117
-1.92866 1.38592 1.13634
-1.44482 1.08307 1.5075
-2.23583 1.48003 0.939827
-3.08091 -0.568456 0.706556
-2.51285 1.17305 0.900502
-2.86953 0.209124 0.753511
-2.96045 0.430027 0.731014
-2.21513 2.15666 1.01897
-1.91451 2.19265 1.0813
-2.52527 0.440213 0.924963
-2.48552 -0.349643 1.01551
-2.03656 1.76603 1.08044
-1.3523 0.738807 1.633
-2.40713 1.06343 0.986881
-1.61131 0.621276 1.44969
-2.06829 0.60299 1.05576
-2.56869 0.966654 0.668354
-2.55437 -0.130259 0.894805
-2.70353 0.18364 0.699673
-1.48445 0.270084 1.58018
-2.06366 0.302446 1.13127
-2.19132 1.22983 1.00673
-2.94019 1.73371 0.528901
-1.91104 0.334678 1.17147
-2.27402 1.75431 0.975292
-1.75421 2.48714 1.18352
-1.45174 1.6229 1.53594
-2.19477 -0.240054 1.04131
-2.14928 0.321515 1.12963
-1.78773 0.579031 1.22543
-1.50755 1.4339 1.38202
-1.49164 0.764304 1.52959
-2.81363 0.514327 0.710691
-2.7902 0.351733 0.766254
-2.07753 1.79992 1.05838
-1.2801 2.61789 1.56742
-1.67849 1.09751 1.33021
-2.31739 0.876929 0.947258
-2.76826 0.758657 0.828632
-2.07399 1.36998 1.01297
-1.30788 0.91541 1.61332
-2.25245 -0.167977 1.022
-2.25673 1.01194 0.987965
-2.07697 1.10483 1.10045
-2.22774 1.66353 0.948715
-2.69049 1.48553 0.851594
-2.9487 1.09853 0.637161
-2.64774 1.58578 0.792318
-1.01943 1.76584 1.82358
-2.20985 1.61008 0.884824
-1.65413 1.56214 1.37367
-1.48466 2.27898 1.45535
-2.8094 1.71983 0.600265
-2.00189 1.27136 1.11579
-2.16039 1.61551 1.03097
-1.60265 1.60407 1.39352
-2.65715 1.4645 0.756036
-1.53796 0.778327 1.46834
-1.837 2.07039 1.11379
-1.7403 0.49522 1.31085
-1.47485 2.44184 1.49369
-2.2191 1.05783 1.01089
-1.15163 1.52928 1.71596
-2.52236 -0.136426 0.814435
-2.01568 -0.0501576 1.26762
-1.39886 1.79728 1.54045
-2.83953 1.19178 0.639135
-1.04192 1.08581 1.80201
-1.25844 0.731899 1.65285
-2.0536 0.408702 1.08892
-2.00972 0.0656302 1.20633
-1.44009 1.51848 1.49741
-2.08083 0.514637 1.12643
-2.08276 1.89349 1.02519
-1.48665 1.19503 1.52273
-1.02904 1.67489 1.77142
-1.72542 0.802812 1.33087
-2.96731 0.0660101 0.713027
-2.38927 -0.0469182 1.02122
-1.05002 0.658043 1.81688
-2.69761 0.802083 0.767774
-1.72413 1.18219 1.34413
-2.89309 -0.542412 0.741213
-2.35751 -0.391857 0.946102
-1.57309 2.09573 1.41056
-2.68955 0.233673 0.861626
-1.91198 -0.107023 1.30329
-1.7683 2.13304 1.26067
-2.99145 1.88657 0.537428
-1.43038 1.90285 1.55536
-1.82765 1.4794 1.16956
-1.15583 1.79104 1.73198
-1.9669 0.854806 1.15787
-1.45684 2.3394 1.52062
-1.2122 1.1193 1.68114
-1.429 2.32067 1.46559
-1.4115 2.82293 1.5152
-1.86285 0.945081 1.25888
-1.90677 0.00527775 1.25844
-1.41312 2.78957 1.41781
-2.28281 -0.217711 0.974287
-2.18113 0.15287 1.01049
-1.21916 2.53198 1.63735
-1.61798 1.24741 1.34881
-2.61905 0.577611 0.722144
-1.99175 2.23518 1.01146
-1.05032 2.82326 1.72328
-2.15311 -0.0115045 1.13242
-1.46151 1.5727 1.47369
-1.83126 0.808186 1.2303
-2.44034 0.791041 0.849703
-2.59089 -0.147854 0.823343
-2.94054 1.82874 0.588178
-1.88033 1.81288 1.18263
-1.78207 2.04776 1.24098
-2.1647 1.23736 0.949712
-1.75713 0.8547 1.28831
-2.13584 -0.0212604 1.04739
-1.25561 1.37269 1.60568
-2.68643 1.82971 0.712335
-1.81401 1.47392 1.19759
-1.6269 0.770684 1.42322
-2.70036 -0.231265 0.667001
-1.42111 2.44804 1.55434
-1.00364 3.11469 1.74026
-1.82548 0.407801 1.25657
-1.76177 2.18943 1.22168
-1.15115 0.639984 1.73207
-1.29689 1.1792 1.58758
-2.15806 2.12211 1.01961
-1.20517 2.62315 1.65744
-1.19874 1.96934 1.63558
-1.57968 0.303155 1.4371
-1.90828 2.28877 1.09943
-1.4761 1.08899 1.42754
-1.30792 2.58261 1.50663
-2.50067 -0.275663 0.95971
-2.74291 1.06745 0.803378
-2.86606 -0.51921 0.774498
-2.67987 1.92611 0.64381
-1.50985 1.42891 1.45243
-1.45897 2.10389 1.52669
-2.32744 1.58049 0.874754
-1.86937 2.11439 1.20662
-1.40192 0.456189 1.61112
-1.939 -0.122854 1.24005
-2.7632 1.8063 0.708843
-2.654 0.68629 0.811179
-1.18703 2.15125 1.62604
-1.40603 0.47687 1.58841
-2.28101 0.65222 0.97896
-2.38194 1.54188 0.905693
-1.20155 0.446196 1.822
-1.64108 0.909503 1.37848
-2.48045 0.825879 0.759835
-1.97828 2.05645 1.05751
-2.97282 -0.0301197 0.740867
-2.86341 0.663838 0.552596
-0.945006 1.15551 1.88862
-1.69215 2.62763 1.27666
-2.93756 1.72813 0.715512
-2.66093 0.88907 0.796495
-1.65586 2.09403 1.35365
-3.00579 0.682652 0.544215
-1.59943 0.222854 1.43428
-2.93752 0.944818 0.667364
-3.10995 0.595957 0.566796
-0.927181 2.3338 1.9133
-1.5029 1.35336 1.43372
-1.50599 0.545696 1.44654
-1.56453 0.821142 1.40994
-2.76592 0.061981 0.873146
-2.69178 0.910595 0.777149
-2.55716 0.558853 0.914316
-2.6304 1.14321 0.882163
-1.61292 2.59451 1.31305
-1.56041 0.868162 1.44837
-2.53435 0.633678 0.845824
-1.01733 2.73355 1.81833
-1.83015 2.49346 1.20068
-2.68766 -0.237966 0.794537
-2.95432 1.30316 0.659154
-2.80668 0.00407516 0.742422
-1.2139 0.92778 1.65244
-1.30517 1.36198 1.62958
-2.15444 1.65771 1.07812
-2.97127 1.86865 0.489675
-2.32498 -0.263033 0.87811
-2.82077 0.350784 0.742804
-2.41233 -0.100479 0.964424
-1.21547 2.87861 1.55006
-1.78088 1.05714 1.32242
-1.34897 1.62106 1.52221
-1.63823 1.73467 1.36019
-2.68968 -0.403216 0.81718
-1.40605 2.477 1.46599
-1.16317 0.823176 1.80908
-2.1983 1.81562 1.0704
-3.06605 1.57711 0.508247
-2.01516 2.34974 0.985813
-2.3418 0.812495 0.95427
-1.22157 1.51801 1.60012
-2.44165 0.837622 0.831739
-2.85449 1.87327 0.800098
-2.81681 0.356378 0.663319
-1.30665 0.830806 1.66671
-2.0166 2.29388 1.03907
-2.38139 0.872071 0.884785
-1.69839 0.70059 1.37152
-1.45718 1.50665 1.47547
-3.04225 0.391732 0.654592
-1.80125 0.271453 1.3251
-1.10866 0.977753 1.74472
-2.43873 1.66212 0.855736
-2.60591 0.0038506 0.849508
-2.16277 1.94121 0.879971
-2.1163 2.35622 0.948086
-1.99577 0.158834 1.16994
-2.57305 1.7533 0.678469
-1.65978 2.03334 1.35333
-2.10417 2.14027 1.03594
-1.32475 0.749621 1.60601
-2.61125 1.89933 0.632239
-2.16186 -0.0238002 1.05372
-2.95352 0.160813 0.705342
-0.915833 1.77269 1.89221
-2.04797 1.43719 1.14449
-1.29475 0.861841 1.67322
-1.62158 2.31256 1.37996
-2.20052 1.84466 0.951772
-1.47128 2.63084 1.35128
-2.78765 1.92802 0.57154
-1.63011 2.50985 1.3227
-2.20868 1.44604 1.00461
-1.73906 2.35983 1.24361
-2.23059 0.221537 0.957791
-1.83418 2.49807 1.14962
-1.6248 1.53625 1.37526
-2.66231 1.44777 0.636013
-2.11075 0.831583 0.976837
-1.51354 0.686444 1.42722
-2.90445 1.28759 0.638567
-2.26278 2.22706 0.877874
-1.71474 1.11225 1.32152
-2.07455 2.23795 1.00784
-2.5397 2.12745 0.751982
-1.67612 1.46415 1.38324
-1.97488 0.992314 1.14379
-2.51074 1.75673 0.826548
-2.77135 0.091306 0.866606
-1.8432 1.78078 1.22285
-2.36352 1.29426 0.971807
-1.74261 0.638301 1.28066
-2.59213 -0.282174 0.796277
-1.72698 1.52246 1.2777
-2.46242 0.155666 0.816018
-1.35362 2.85556 1.48155
-2.55413 1.23603 0.915214
-1.1356 2.59387 1.72974
-1.39208 0.873065 1.64175
-2.01855 1.97345 1.01715
-1.7409 1.06547 1.28413
-1.32647 2.60519 1.5579
-2.42243 2.2084 0.844169
-1.12812 2.94086 1.58329
-2.68292 0.717957 0.724788
-2.35305 1.4676 1.02272
-0.995361 2.0997 1.80026
-1.93647 1.63716 1.14037
-1.61571 1.05041 1.35572
-1.61758 1.99972 1.37949
-1.798 0.44706 1.24285
-1.15778 0.551339 1.78424
-2.63184 0.133819 0.758675
-1.07945 1.59458 1.73528
-2.29969 1.55082 0.91431
-1.92124 1.17846 1.16047
-1.95688 2.2921 1.17167
-1.64581 1.68474 1.34274
-1.6767 1.76481 1.36272
-2.79686 -0.369218 0.796645
-2.0236 0.763923 1.11796
-2.00212 0.560277 1.1782
-2.55035 1.00776 0.77717
-2.90615 0.612833 0.644681
-2.29985 0.358928 1.06234
-1.01055 1.2407 1.84568
-2.08714 -0.191584 1.17959
-2.52761 1.87467 0.714835
-2.27094 1.59436 0.896619
-1.27954 2.09924 1.58734
-2.76905 -0.179001 0.726788
-2.69882 0.39355 0.728294
-1.1009 2.15742 1.76884
-1.72846 2.05361 1.31887
-1.06617 2.65779 1.73344
-2.17555 1.49351 0.973598
-1.65477 1.85627 1.34485
-2.8218 -0.439355 0.766573
-1.55723 1.48886 1.41522
-1.80739 1.64977 1.26353
-1.08876 2.72337 1.7464
-2.71045 0.514803 0.79568
-1.44486 1.60251 1.48612
-1.39516 0.530661 1.50008
-1.5527 0.793936 1.46615
-2.23232 1.32349 1.0391
-1.78057 0.0364733 1.31908
-2.55818 1.83964 0.667387
-1.29331 2.81181 1.51934
-2.35115 1.83846 0.858467
-2.54574 1.19673 0.782449
-2.45015 1.92572 0.768499
-1.69225 0.697156 1.33242
-2.95391 1.9792 0.66308
-2.08806 0.0392976 1.12266
-2.34713 1.01992 0.964204
-2.35847 0.143417 1.04716
-1.22563 0.653117 1.76199
-1.9602 2.08917 1.12138
-2.3183 0.382509 0.987665
-2.61264 1.55576 0.832079
-1.32545 1.45464 1.59751
-2.99268 1.6898 0.664768
-1.66308 2.56067 1.24267
-1.39018 0.482486 1.5606
-1.17855 2.20483 1.71277
-1.27433 2.74233 1.55149
-1.35231 2.26107 1.53278
-1.12132 1.98468 1.71758
-2.66379 0.397072 0.760864
-2.61729 1.28713 0.636166
-2.25458 -0.233036 1.03769
-2.73112 1.44173 0.913249
-1.64483 0.946366 1.33066
-2.06684 0.582654 1.01498
-2.64364 0.569884 0.716481
-2.25194 0.752483 0.994922
-2.69069 0.220494 0.915
-2.38072 1.36546 0.835608
-2.91418 -0.509188 0.859587
-1.19299 0.533777 1.79838
-2.1177 0.126472 1.09884
-0.914493 1.98706 1.94811
-2.97846 0.8845 0.649614
-2.40433 1.09073 0.845261
-1.34066 2.67956 1.53345
-1.8398 0.337543 1.20115
-1.41956 0.7513 1.50877
-1.33013 0.871168 1.61509
-1.89586 0.530476 1.22737
-1.90672 -0.0941059 1.24569
-1.21567 1.27588 1.60396
-2.49632 1.60366 0.882578
-1.51713 2.55238 1.40353
-1.15952 1.07605 1.65136
-2.28233 2.25623 0.922297
-1.46053 2.43698 1.45556
-2.23271 1.11158 1.04595
-2.545 1.67987 0.89634
-2.90955 -0.149137 0.777427
-1.2555 0.93382 1.63458
-1.25366 2.11443 1.68686
-2.39877 1.92267 0.851943
-1.46008 2.10598 1.51179
-1.61068 0.607751 1.34989
-1.79647 2.10009 1.21546
-2.33771 1.00363 0.886868
-2.59089 -0.220073 0.764488
-3.01505 1.02302 0.612605
-2.09773 0.988351 1.10031
-1.18324 0.410581 1.81048
-1.97735 1.1671 1.16717
-1.28477 2.19815 1.65529
-2.83884 1.96356 0.673245
-2.77985 0.863189 0.908557
-2.85621 0.353544 0.723643
-2.68284 1.13339 0.828474
-2.29925 1.39257 0.9282
-1.30539 0.730156 1.59626
-3.03598 0.397648 0.626298
-2.0284 2.18682 1.05532
-2.73969 1.51044 0.732711
-2.70606 0.97783 0.764694
-3.00407 -0.296919 0.611826
-2.32089 0.560011 0.939939
-1.9889 0.169006 1.17776
-2.11195 2.22036 0.959898
-2.14224 1.03527 1.06808
-2.01483 1.43705 1.09827
-2.43942 1.27375 0.770307
