ply
format ascii 1.0
comment Created by Open3D
element vertex 250
property double x
property double y
property double z
end_header
2.15603 2.65167 -0.765471
2.62219 0.360601 -0.054715
1.10721 2.07264 0.0860126
1.90433 1.77977 -1.60477
1.4442 2.93479 -0.351847
1.43521 1.81463 -0.539786
2.48938 1.33892 -0.117167
3.07773 0.571601 -1.17142
2.44362 0.0447773 -0.0337467
2.74303 -0.448858 -1.07051
1.09497 2.2581 0.463727
2.49807 0.713779 -1.4064
1.30342 2.91183 -0.162139
2.81508 -0.711912 -2.17143
1.28019 1.58827 -1.18006
3.19818 1.33264 -1.66654
2.8641 0.112685 -2.49914
1.65729 2.07984 -0.7941
1.90589 0.55974 -0.569127
3.23608 0.578882 -1.92246
2.5367 0.0986979 -1.03025
3.48744 1.13787 -0.622705
1.70409 2.35808 0.327908
2.36422 0.247261 0.16886
2.41605 -0.801787 -1.1124
2.17801 1.23822 -0.391965
1.52618 2.72061 0.160214
2.78562 1.76513 -0.945468
2.07042 1.09997 -0.633303
2.41593 -0.644645 -0.437371
3.52162 0.677321 -1.555
3.50491 0.23829 -1.78802
2.56135 0.274298 0.25126
0.976527 2.54323 -0.00448728
2.52864 -0.3896 -0.494669
1.11524 1.93635 0.788842
1.28834 2.54851 -1.42859
2.74102 -0.78536 -2.20252
1.94744 -0.0615061 -1.51287
1.69427 2.5191 -0.775212
1.87127 2.28128 -1.02186
3.00428 -0.135835 -1.33393
1.93199 1.38286 -0.021197
1.0622 3.06743 0.74269
1.00002 2.55361 -0.973641
2.74703 -0.192003 -0.269901
0.581319 2.70904 0.693982
2.54222 -0.594808 -0.530097
1.60607 1.35592 -0.58466
2.45483 0.722168 -1.13325
3.07488 0.0576987 -1.11855
0.651761 2.05736 0.188355
2.77073 -0.00591074 -1.26118
2.45801 -0.684918 -1.47441
2.68277 0.698063 -0.085144
2.76528 -0.424205 -1.09847
2.3249 0.10347 0.150047
2.14632 0.992611 -0.852119
2.34912 2.15826 -0.768922
1.02383 2.43016 -0.511789
3.21208 -0.207673 -1.51183
2.5805 -0.818475 -1.559
2.38314 -0.55284 0.00719536
2.68542 -0.648208 -1.12433
1.34615 2.6872 -0.374809
0.558392 2.33492 0.883229
2.50978 0.701176 -1.25965
3.2722 0.644156 -1.44871
2.81248 1.71576 -1.39859
0.66354 2.37672 0.870314
3.10772 0.850421 -0.930337
1.34592 2.07128 0.919152
1.81595 1.41462 -1.96188
2.95883 -0.289576 -2.37186
0.563963 1.9201 0.407889
1.736 1.80986 -1.22988
2.81921 0.0184745 -0.54284
3.00435 -0.395103 -1.06818
1.93502 1.69271 -0.69886
2.9122 -0.319502 -1.34078
3.06009 -0.0334416 -1.6173
1.15224 2.39306 0.0461765
3.06611 -0.117401 -2.3733
2.88392 0.346326 -0.512105
2.58834 1.6156 -1.70101
3.41986 0.867085 -1.53747
2.01045 2.43042 -1.14826
2.98875 -0.454419 -1.89971
3.8698 0.432814 -1.24816
0.557212 2.17761 0.387725
1.82081 1.49783 -1.5565
2.48465 2.01319 -0.798599
2.03589 0.721836 -0.309114
2.81767 2.35233 -0.954259
0.849338 1.98023 0.114577
2.46865 -0.340251 -0.5404
3.10651 -0.00253241 -2.31953
2.60034 0.070328 -0.225297
1.10261 2.45192 0.919991
0.741449 1.90727 0.470458
2.41023 -0.705825 -1.18938
1.98782 1.48189 -1.09794e-05
1.42999 2.24872 0.997393
2.03946 0.575201 0.149148
2.25268 -0.760624 -0.121341
1.06652 2.72385 0.563366
2.21464 -0.666151 -0.363326
1.45897 2.29196 0.330889
2.6687 -0.0917223 -0.453232
1.75163 0.97892 -0.281444
3.02298 0.276434 -2.24023
2.51611 -0.253008 -0.15377
1.28068 2.73999 -1.14298
1.37472 0.886504 0.0824676
1.38045 3.14849 1.09587
1.04507 2.78209 0.12304
1.49666 2.96069 -0.401228
2.06777 -0.0120777 -0.0589743
1.341 2.36874 -0.0195831
2.45571 -0.75585 -0.84811
1.03812 2.82635 0.434427
3.43422 1.02394 -1.87214
2.6643 0.630595 0.123025
2.48835 0.880456 -0.48379
1.83317 2.40684 -0.347626
2.37892 1.87428 -1.4889
1.60043 3.14579 0.313591
2.64565 0.856713 -2.05644
1.60187 1.89571 -0.815557
3.14556 0.794834 -1.88315
1.75253 1.94347 -0.0810329
1.85239 1.11463 -0.194918
1.76874 2.43944 0.582506
1.54011 1.70411 0.301496
2.68736 1.40165 -1.33647
2.39556 1.88068 -1.28288
2.58318 1.31023 -0.789578
2.98272 0.825975 0.0249979
3.15076 1.09683 -1.83827
1.65222 2.23598 -0.869115
2.35301 -0.429637 -0.00523127
1.3214 2.86745 -0.0442747
2.63875 0.952846 -1.72989
2.33786 1.67807 -0.986534
2.80278 0.842848 -2.04995
2.11816 -0.896574 -0.168153
0.792724 1.80587 0.00976358
2.64114 1.63423 0.0387595
1.30928 3.23087 0.259298
2.81601 0.966566 -1.75021
2.32164 1.57271 -0.734594
3.13889 0.323135 -1.59344
1.6514 1.6771 -1.2789
2.6452 -0.31805 0.0358933
3.27962 0.987329 -1.35999
2.00195 -1.15511 -1.65456
2.12735 0.719705 -1.32957
2.42967 1.4602 0.391105
2.83677 0.369682 -0.267316
0.620236 2.26388 0.161844
2.14868 0.757336 -1.3775
1.93148 2.43503 -1.11439
1.61857 0.932192 -0.492373
3.00252 -0.384513 -2.0952
2.87384 0.656792 -1.58999
3.18486 1.01468 -0.920231
3.3431 0.0917305 -1.96607
2.13509 1.6553 0.772836
1.49375 1.97486 0.820668
1.62371 2.48371 -0.105252
1.6401 1.97144 -1.47714
2.70474 -0.579815 -2.17798
2.19319 1.77888 -1.27367
0.890135 2.91476 0.340026
2.22388 0.855937 0.122994
2.10946 0.983397 0.444247
2.16806 -0.990236 -0.949296
2.82821 0.871529 -1.68015
2.23887 2.08464 -0.91078
2.23957 0.398288 -1.15241
2.10944 2.30929 -1.04505
1.79428 1.98512 -0.781621
1.69279 1.45788 -0.253606
2.11932 1.69372 -0.385503
2.77991 -0.324531 -2.14217
1.67458 3.30151 -0.93106
3.38292 0.234512 -2.11534
0.763506 1.68817 0.305984
2.45937 -0.260492 -1.08436
1.26038 2.08165 -1.32692
1.40465 2.31031 -1.5207
2.67027 -0.101149 -0.556634
1.60738 2.1433 -1.50252
2.63456 -0.44162 -1.96797
2.35245 0.0288493 -1.28108
0.955146 1.52597 0.502736
1.57049 2.70014 -0.366935
3.05734 0.363446 -2.37452
2.19185 0.20592 -0.147282
1.12368 2.29274 -0.397813
3.15563 0.206256 -2.97159
3.00894 -0.249703 -2.80282
3.11847 -0.0478506 -2.87796
2.7578 -0.555905 -2.72728
3.67438 0.817988 -2.48105
2.91434 -0.471025 -2.58083
2.82743 -0.301509 -3.17525
2.48194 -0.841899 -3.31491
1.65255 -0.316823 -3.73145
3.00139 0.331692 -3.17789
2.95511 -0.326769 -2.58055
3.59023 0.562058 -2.43699
2.18065 0.00712864 -3.50538
3.24523 0.20025 -2.60586
2.76752 -0.480845 -3.14213
2.50665 -0.439705 -3.41555
3.30762 0.347118 -2.5187
1.97695 -0.153685 -3.5767
2.41155 -0.628171 -3.30512
2.39464 0.0549948 -3.39463
2.95155 -0.157763 -2.78681
1.89699 -0.397421 -3.67041
2.81377 -0.065689 -3.33621
3.01872 -0.409598 -2.53335
2.4933 -0.697359 -3.25412
2.56351 -0.0980677 -3.388
3.23101 -0.0920622 -2.53551
3.07614 0.202862 -3.07628
1.56604 -0.454024 -4.1518
2.80101 -0.045305 -3.25377
3.06107 0.403769 -3.11812
3.58298 0.358551 -2.36111
3.2749 -0.20708 -2.11154
3.08686 -0.109685 -2.806
2.59095 -0.65558 -3.16943
2.36572 -0.0256136 -3.6659
2.5247 0.129879 -3.62073
1.92338 -0.686938 -4.1616
2.66214 0.0151848 -3.28933
2.71531 -0.463519 -3.04745
2.90133 -0.161582 -3.02204
2.59938 -0.256514 -3.11452
2.21177 0.534965 -3.68523
2.0036 0.199872 -3.67649
1.84064 -0.305448 -3.88984
2.28917 -0.465581 -3.51618
1.82734 -0.21339 -4.01908
2.95919 0.0676085 -3.03124
2.36858 -0.336366 -3.52949
2.53216 -0.248432 -3.1802
