ply
format ascii 1.0
comment Created by Open3D
element vertex 400
property double x
property double y
property double z
end_header
1.4605 0.794011 -2.66583
0.798671 1.47243 -2.97377
1.26997 1.13497 -2.26699
0.348663 2.64743 -0.88391
1.46379 0.793212 -2.66014
1.76882 1.13228 -0.663417
1.63885 0.89309 -1.75367
0.827845 1.75905 -1.68494
0.829494 1.73647 -1.79797
0.454711 2.33481 -1.31157
0.633544 1.95062 -2.61998
0.461774 2.28919 -1.75483
0.586897 2.06661 -2.46072
1.95369 0.546989 -1.82385
1.71359 0.554672 -2.63094
1.69927 0.853062 -1.6631
1.42604 1.32425 -1.01382
1.50981 1.01336 -1.79266
0.573063 2.0974 -2.41014
0.663575 1.80697 -2.94569
0.975033 1.33806 -2.6854
1.37268 1.33184 -1.13735
0.545709 2.13387 -1.90275
2.04554 0.10449 -2.85129
1.79065 0.441556 -2.70937
0.954935 1.46121 -2.38732
0.552267 2.14186 -2.33886
1.71088 0.56331 -2.61724
0.833049 1.92319 -1.03853
1.26456 1.27808 -1.71667
0.278257 2.7274 -1.06006
0.458025 2.29762 -1.7847
1.72662 0.822709 -1.67214
0.538021 2.41632 -0.748205
1.43833 1.08912 -1.77503
0.540903 2.14373 -1.83585
1.02896 1.1412 -2.93107
0.414919 2.39666 -1.34549
0.640261 1.98182 -1.86535
1.17416 1.35778 -1.77221
0.431633 2.4713 -0.956204
1.75139 0.61732 -2.3634
1.0533 1.85333 -0.697834
1.35636 0.991257 -2.43761
1.01536 1.83737 -0.795967
1.80365 0.93004 -0.9969
0.960088 1.47802 -2.29461
1.33407 0.887963 -2.74603
0.269719 2.7578 -1.02898
0.83708 1.56464 -2.60497
1.78578 0.789484 -1.55011
1.12764 1.0653 -2.85017
2.10283 0.269613 -2.29621
1.73495 0.622298 -2.39833
0.617454 1.99172 -2.64804
0.544967 2.16169 -1.52411
0.396385 2.44804 -1.23342
0.742075 1.85159 -1.77011
1.28249 1.05148 -2.48794
1.84724 0.480309 -2.48008
0.272429 2.74745 -1.04046
0.61935 1.99975 -2.0871
0.498295 2.24967 -2.16225
1.87125 0.72627 -1.42464
1.7788 0.729652 -1.8396
1.5718 1.35394 -0.655595
1.94625 0.570151 -1.75341
1.35525 1.1693 -1.788
0.615527 1.99758 -2.57567
0.61292 2.01088 -2.08773
0.237148 2.82274 -1.11392
1.4863 1.08564 -1.59383
0.507123 2.20873 -1.97547
0.547136 2.24483 -1.11659
1.65261 0.717416 -2.36011
1.37571 1.18659 -1.6327
0.652128 1.97613 -1.75632
1.0386 1.27304 -2.64231
0.402745 2.53311 -0.921784
1.84189 0.838532 -1.13475
2.07945 0.0994696 -2.79529
2.11971 0.275694 -2.20229
1.27162 1.23821 -1.85418
2.19017 0.0995794 -2.51917
1.0672 1.78879 -0.787382
1.7609 0.733588 -1.9013
0.484721 2.38588 -0.966418
0.668278 2.18267 -0.872687
0.513263 2.20423 -1.58799
1.15111 1.4146 -1.63152
1.65269 0.682145 -2.46291
0.688723 2.03364 -1.21114
1.92229 0.201956 -2.90318
1.43647 1.19839 -1.35787
0.562515 2.11105 -1.76428
0.785167 1.79616 -1.77108
1.67172 0.820064 -1.91908
1.17672 1.41694 -1.51507
2.08552 0.080845 -2.81738
0.50507 2.23683 -2.18562
0.624055 2.32523 -0.709277
1.24531 1.62867 -0.752009
1.11118 1.11208 -2.80022
1.20816 1.61194 -0.856091
0.590482 2.05015 -2.16708
0.669576 2.10609 -1.0567
0.853945 1.8708 -1.12081
1.88892 0.398421 -2.58228
0.455674 2.30066 -1.73628
0.206036 2.99935 -0.921163
1.17389 1.14029 -2.57059
0.660112 1.87714 -2.69632
1.02596 1.59904 -1.41471
1.68747 0.505154 -2.78796
1.81673 0.635114 -2.06904
1.68124 0.782978 -2.02954
0.86881 1.6423 -2.05441
1.18913 1.19812 -2.34759
0.738646 1.89352 -1.54995
0.623584 2.03719 -1.59778
1.90137 0.547149 -2.0688
0.516872 2.22693 -2.29526
1.92969 0.387334 -2.50323
1.34406 0.830091 -2.83535
0.684981 1.90399 -1.97575
0.607143 2.017 -2.38987
0.903887 1.76023 -1.30249
1.28674 0.957313 -2.70776
0.915088 1.79018 -1.16324
1.01943 1.47158 -2.01112
0.643047 1.93553 -2.50465
1.58422 1.15375 -1.03592
0.855747 1.5703 -2.48366
0.673448 2.01822 -1.34479
0.965263 1.61064 -1.6397
1.23271 0.965452 -2.81034
1.04103 1.84939 -0.725944
0.750801 1.853 -1.69127
1.16953 1.69477 -0.769889
1.8036 0.738224 -1.68964
0.387369 2.47048 -1.20209
2.04508 0.213551 -2.63516
0.626603 1.96663 -2.65646
0.662273 1.8329 -2.87977
1.88392 0.34041 -2.72357
0.854878 2.01214 -0.785974
0.648874 1.97083 -1.84649
0.246855 2.80605 -1.06743
0.502155 2.23358 -1.48017
1.59766 0.70156 -2.55693
0.805521 1.99329 -0.939711
0.839916 1.61533 -2.38995
1.27496 1.17271 -2.10801
0.738493 1.74711 -2.52443
2.09047 0.329835 -2.1164
0.928523 1.66835 -1.56266
0.454692 2.30267 -1.73943
0.701744 1.97979 -1.35776
1.58784 1.32755 -0.670664
0.659339 2.10479 -1.09724
1.03 1.69958 -1.07592
0.785908 1.85452 -1.46065
0.67573 1.783 -2.91455
0.378979 2.46515 -1.71791
1.60003 0.648898 -2.67434
0.439714 2.54324 -0.78162
0.586849 2.05727 -2.19011
1.36911 1.32147 -1.17811
1.07529 1.84695 -0.671501
0.922905 1.49964 -2.39874
0.739607 1.71258 -2.67019
0.365405 2.49722 -1.70824
1.42931 1.33317 -0.983654
0.418657 2.40328 -1.26505
0.923317 1.93349 -0.795865
0.483533 2.26125 -1.50102
1.18779 1.67025 -0.781439
0.839587 1.62004 -2.37039
0.597459 2.0786 -1.5672
1.79781 0.750071 -1.66462
1.48095 0.853682 -2.46563
0.866185 1.47382 -2.73652
1.11785 1.2601 -2.40592
0.402864 2.4131 -1.38817
1.49025 0.645958 -2.88948
1.33499 1.03416 -2.37514
1.55898 0.808942 -2.36675
1.16257 1.49086 -1.29777
0.50184 2.26504 -1.29184
1.99711 0.372432 -2.33784
0.471422 2.32024 -2.16152
1.15504 1.31843 -2.02922
1.7737 0.633263 -2.238
2.02025 0.470708 -1.83289
0.669736 2.28531 -0.68168
1.30482 1.26569 -1.60061
1.71415 0.688491 -2.25446
1.39946 0.954662 -2.41426
0.784363 1.8628 -1.43191
1.33535 0.869541 -2.77962
1.43094 1.00966 -2.12215
1.84498 0.532546 -2.33197
0.527876 2.43407 -0.74228
0.672628 2.19698 -0.832113
1.67383 0.516762 -2.79177
0.830159 2.08237 -0.709121
0.893481 1.68835 -1.65358
1.40903 1.28415 -1.17009
1.38425 0.794031 -2.82376
1.27244 0.920091 -2.8127
0.557086 2.19674 -1.24128
0.265202 2.72255 -1.31417
1.35202 1.34751 -1.15183
1.23986 1.3285 -1.61185
0.872438 1.76407 -1.42088
0.992523 1.41807 -2.37258
0.965686 1.82367 -0.93271
0.518093 2.18444 -1.89991
1.57735 0.72665 -2.54505
1.08743 1.21855 -2.62853
2.08181 0.277815 -2.34791
1.15007 1.59016 -1.04151
1.06049 1.63667 -1.16576
0.208795 3.0137 -0.882095
1.45722 1.15018 -1.45689
1.10431 1.15183 -2.73623
1.32187 1.43084 -1.00885
1.37643 1.32205 -1.15478
0.975691 1.76268 -1.05801
2.11481 0.0747186 -2.76936
1.63592 1.17213 -0.863481
0.882042 1.36543 -2.91041
0.920988 1.41754 -2.67244
1.32423 1.44891 -0.959456
1.35234 1.25844 -1.44451
1.56066 0.95907 -1.80655
1.3537 1.02476 -2.34356
1.67108 0.979713 -1.28581
0.975523 1.41763 -2.45033
1.45343 0.742611 -2.7859
0.858971 1.90566 -1.00994
0.895979 1.61421 -2.02386
0.331902 2.68384 -0.876787
0.931288 1.75289 -1.22612
1.05164 1.645 -1.16811
1.54904 1.04369 -1.5108
1.17637 1.40553 -1.56188
0.296208 2.6461 -1.47977
1.73892 0.43148 -2.8286
0.706487 1.87769 -1.93263
1.182 1.29897 -1.99038
0.627276 1.96247 -2.70073
0.54664 2.38352 -0.784903
0.864853 1.88854 -1.0378
0.662961 1.9544 -1.80921
0.488923 2.28242 -1.30296
2.00142 0.407384 -2.1988
0.739484 1.76349 -2.42252
1.29413 1.07417 -2.38393
0.533356 2.18566 -1.47703
1.6362 0.963144 -1.47924
1.40498 1.26032 -1.25615
0.825488 1.62338 -2.44774
1.57136 1.33371 -0.689038
1.05053 1.21576 -2.74135
0.478677 2.27144 -1.99694
0.714074 1.74036 -2.7577
1.73015 1.00872 -1.00713
0.926976 1.45388 -2.54204
1.88012 0.263226 -2.87346
0.482269 2.27515 -2.08131
0.948659 1.60797 -1.7396
1.4421 0.679875 -2.91452
2.10407 0.0721782 -2.79637
0.779216 1.55791 -2.8865
0.842338 1.68561 -1.99922
1.82715 0.742852 -1.55999
1.46598 0.926718 -2.28971
0.648303 1.9703 -1.86011
1.64556 1.0162 -1.25289
0.69655 1.82917 -2.48967
1.43631 1.16545 -1.4782
1.4919 0.732536 -2.72831
1.46606 1.27149 -1.04523
2.03406 0.378566 -2.17345
1.44505 0.937378 -2.32398
0.681114 2.12935 -0.958899
1.11591 1.24812 -2.45133
1.96167 0.455385 -2.17827
0.962616 1.68315 -1.35173
1.17127 1.42164 -1.51844
1.70506 0.877431 -1.53727
0.868836 1.69172 -1.78308
0.517738 2.19525 -1.60764
1.9595 0.580379 -1.63366
0.779593 2.07312 -0.829675
0.530855 2.20134 -1.40039
0.536306 2.17464 -1.52592
0.717215 1.81157 -2.34905
0.809742 1.71217 -2.09435
1.56507 0.915858 -1.96487
0.961542 1.57869 -1.81143
0.667609 1.80397 -2.92097
0.695478 1.81511 -2.5955
1.25338 0.930283 -2.83248
0.517233 2.45221 -0.737305
1.67261 0.570685 -2.6863
1.16081 1.45666 -1.42514
1.14148 1.67657 -0.860909
0.848316 1.76852 -1.52002
1.37019 0.915811 -2.60013
1.03383 1.78787 -0.856823
1.32628 0.97809 -2.55997
1.11293 1.79959 -0.686492
0.868851 1.47647 -2.71931
1.10584 1.37861 -1.99852
0.633412 2.26826 -0.787797
0.687559 1.80389 -2.73989
0.667335 2.19468 -0.849893
1.63862 1.13854 -0.931835
0.973178 1.47544 -2.23757
0.900063 1.94578 -0.820064
0.676905 1.84643 -2.64336
1.47095 0.657538 -2.90276
0.906086 1.47305 -2.57286
0.606536 2.02408 -2.70666
1.32126 1.0251 -2.44594
0.970547 1.90238 -0.761246
1.76647 0.872334 -1.30572
0.646515 2.03842 -1.41103
1.87278 0.600977 -1.97053
1.94624 0.39229 -2.44142
1.56803 0.738855 -2.53774
0.648033 1.98854 -1.70315
0.435496 2.34203 -1.75266
1.02138 1.33543 -2.52948
1.16746 1.73171 -0.708147
0.48669 2.25434 -2.00327
1.03396 1.5565 -1.55125
1.66766 0.995214 -1.24565
1.07726 1.70104 -0.950242
1.00739 1.48914 -1.99296
0.615061 2.24758 -0.875386
1.32036 1.12865 -2.09716
0.641211 1.97172 -1.96451
1.38379 1.05278 -2.13929
0.826764 2.08779 -0.706327
1.05268 1.52038 -1.62042
1.03677 1.4197 -2.15478
1.02944 1.62112 -1.32053
1.8685 0.73236 -1.41213
0.677531 2.09887 -1.04969
0.751152 1.84336 -1.74741
1.19253 1.19329 -2.35129
0.466684 2.47637 -0.826833
1.77046 1.03748 -0.833889
0.437831 2.53746 -0.797101
0.645265 2.25666 -0.781862
1.42677 0.743068 -2.83549
0.244554 2.89923 -0.866367
2.03834 0.311622 -2.39118
1.00994 1.42109 -2.27939
1.65358 1.25621 -0.67194
1.24502 1.3388 -1.54955
1.46284 1.29015 -1.00598
0.783295 1.72187 -2.26104
1.38232 1.48228 -0.768558
1.60544 1.1799 -0.917661
1.79163 0.775358 -1.5837
1.45338 1.33087 -0.931714
1.63805 1.04907 -1.17314
1.42895 0.895495 -2.49634
1.80214 1.0964 -0.65831
0.626452 2.13465 -1.13299
1.17426 1.11918 -2.62319
1.95945 0.212723 -2.81991
0.670274 1.81761 -2.85498
1.61921 1.04172 -1.25927
1.71962 1.04509 -0.945067
1.2756 1.134 -2.2496
2.08069 0.123408 -2.74667
0.643413 1.93428 -2.51148
1.77201 1.0618 -0.781369
0.961201 1.34145 -2.72237
0.666828 2.09153 -1.10945
1.72304 0.486906 -2.75471
0.686048 1.96363 -1.5324
1.60011 0.988261 -1.52519
0.81977 2.06176 -0.765421
1.24012 1.07306 -2.5538
1.64046 0.571569 -2.75065
1.71194 0.927993 -1.31585
1.15922 1.65967 -0.858908
1.91482 0.585633 -1.84116
1.63082 0.589528 -2.73409
1.03634 1.37376 -2.34059
1.80954 0.921322 -1.00209
2.06903 0.389076 -1.95917
1.70956 0.768774 -1.97202
0.372727 2.48024 -1.71642
