ply
format ascii 1.0
comment Created by Open3D
element vertex 400
property double x
property double y
property double z
end_header
0.503126 2.09594 2.01732
-0.433045 2.70822 0.699585
-0.072612 2.84443 0.976288
0.83065 2.48473 1.96856
-0.349778 2.89584 0.697232
-0.194155 1.14528 2.08255
-0.310241 2.85165 0.752209
-0.425347 1.98746 1.21833
-0.818199 1.97395 0.801111
0.0862221 1.74814 1.82089
-0.295859 1.45334 1.83004
0.308339 2.08855 1.7416
-0.993231 2.89759 0.135619
0.289108 2.70563 1.4263
-0.368114 2.90319 0.673716
-0.20006 2.98599 0.81569
0.990681 2.58755 2.16838
0.663949 1.67073 2.36552
-0.211047 2.78871 0.910763
-0.864208 2.68772 0.428962
0.476799 2.02058 2.01607
-0.512102 1.59268 1.62734
0.224295 2.74747 1.37931
-0.448589 1.88569 1.40757
-0.387734 1.93315 1.20091
-0.06826 2.01031 1.27177
-0.68368 2.63667 0.52357
-0.485539 2.46223 0.674571
-0.874594 1.58803 1.28689
-0.513448 2.2089 0.983712
0.167468 2.21074 1.57747
0.700411 2.63715 1.66267
-0.686886 1.72066 1.10443
0.629623 2.43156 1.89749
0.877884 1.66637 2.61373
0.189768 1.7083 2.18051
-1.01448 1.97793 0.611481
-0.391135 2.50984 0.951435
-0.616011 1.46985 1.34178
-0.213587 1.00699 2.09482
-0.401218 1.77148 1.56407
-0.184311 2.72271 0.885049
-0.276079 2.82426 0.783481
0.53504 2.09891 2.0167
0.735125 1.26476 2.96263
-0.193344 1.62089 1.72859
-0.0225315 2.37179 1.27863
0.0446452 2.95652 1.0834
0.0882002 1.74551 1.75303
-0.489246 1.31638 1.78632
-0.873992 2.18735 0.617368
0.0636355 2.35011 1.39481
0.0767153 2.22421 1.52888
0.462193 2.14122 1.86505
0.563826 2.92163 1.60473
0.23127 2.75876 1.26666
0.592502 2.71062 1.66854
0.0616931 1.22447 2.49563
0.275801 1.73579 1.86234
0.195733 1.77905 2.05006
0.593183 1.50622 2.6361
0.669846 2.5658 1.69101
0.102174 1.98623 1.69121
0.456517 2.24677 1.85346
0.156436 1.61777 2.11649
0.47408 2.60339 1.58129
-0.428583 1.65662 1.56406
0.415136 1.31444 2.35979
-0.59763 1.69852 1.28574
0.828616 1.79119 2.71733
0.0860078 2.32474 1.44093
-0.0927612 1.23011 2.27848
-0.77768 2.31172 0.52305
-0.761775 2.35576 0.790445
0.201334 1.4383 2.35196
0.266487 2.59095 1.34614
-0.464836 1.1251 2.02476
-0.683028 1.1948 1.69945
-0.507964 1.99966 1.07016
-0.719007 2.1849 0.863133
-0.0149421 1.38041 2.14492
-0.31407 2.31789 1.11131
0.571871 1.99854 2.08126
-0.0695457 1.81099 1.85457
-0.0869727 0.991617 2.44466
-0.309646 1.8529 1.48233
-0.475829 2.93067 0.558451
-0.621542 2.65677 0.633538
-0.849675 0.989515 1.76257
0.01288 2.67485 1.11477
0.00742798 1.96801 1.73587
-0.998422 2.71157 0.178168
-1.08027 2.08913 0.447492
0.522752 1.64961 2.46347
-0.342791 2.89203 0.732559
-0.954533 1.9974 0.828197
0.65676 1.8481 2.38319
0.861336 2.80615 1.75241
0.394577 1.72812 2.38366
0.00807913 1.40563 1.9605
0.137862 1.34803 2.45134
-0.170984 2.05354 1.40524
0.743878 1.78666 2.66114
-0.363057 1.28064 1.96603
0.529166 1.27808 2.70855
1.18926 1.94062 2.95794
-0.0833634 2.13991 1.50106
-0.890607 1.89779 0.895443
0.953995 1.38114 2.98168
-0.947119 2.07431 0.578161
-0.665748 2.06249 0.847192
0.659104 1.27216 2.93718
-0.181122 1.39914 1.88113
-0.232848 2.35775 0.973182
0.746543 1.75423 2.34491
0.807246 1.1092 3.2027
-0.700622 2.36963 0.747768
0.0112756 1.34405 2.17846
-0.314095 1.80004 1.4479
-0.087123 2.34906 1.17909
-0.728167 2.50803 0.494803
0.809426 2.80498 1.7371
0.427617 1.84427 2.12562
0.559376 1.75987 2.33009
0.0259057 1.80972 1.62002
-0.301018 1.76831 1.51302
-0.853292 1.94056 0.766028
-0.248431 1.08825 2.14069
0.774865 2.65595 1.8038
0.0456233 1.51445 1.95108
-0.336703 1.87632 1.49967
-0.852943 2.26482 0.398317
0.84839 1.85401 2.74045
1.10151 1.26292 3.37927
-0.614547 1.79672 1.18284
0.613241 1.61965 2.44145
-0.835234 1.02513 1.7034
-0.352406 1.16961 1.98276
0.89743 2.39374 2.17272
0.764883 1.36921 2.99285
0.139731 1.0062 2.58894
-0.902776 1.37776 1.27236
0.80142 1.82914 2.41221
-0.419662 1.11556 1.85413
0.636979 1.06022 2.94283
-0.81192 2.62391 0.45817
0.242626 2.85471 1.29973
-0.97291 2.74982 0.20459
0.826361 2.51915 1.85049
-0.0331162 1.47687 2.04424
0.54931 1.74131 2.50873
0.414064 2.1575 1.77131
0.73433 2.05425 2.31002
-0.763409 1.50842 1.43975
-1.02481 1.81682 0.815282
0.782974 2.7771 1.77559
-0.0565041 2.71762 1.0457
0.242185 0.928645 2.72446
-0.776903 1.42419 1.45662
-0.17991 2.38327 1.13224
0.478299 2.43884 1.71891
-0.821189 1.50485 1.54104
-0.298979 1.70636 1.60433
-0.139659 2.10773 1.19846
0.599644 1.76484 2.2461
-0.539616 2.98392 0.500274
-0.172618 2.36085 0.964232
-0.409826 1.16213 2.10755
1.10566 1.99291 2.69846
0.757252 3.02 1.71084
0.0791952 2.68841 1.18619
0.577961 1.76472 2.41533
-0.105081 2.59985 0.951599
-0.962589 1.38747 1.21567
0.132052 2.80924 1.16655
-0.131612 2.80549 0.885248
0.493669 1.31984 2.92183
-0.152469 1.3116 2.01038
-0.781317 1.21733 1.4685
-0.474761 1.44769 1.60181
-0.452145 3.00878 0.610935
0.0940808 2.69122 1.19353
-0.116167 2.82752 0.985693
0.307844 2.8769 1.3811
0.949503 1.69966 2.7451
-0.346343 1.68827 1.61156
-0.130242 2.57389 1.03798
0.819609 1.36223 3.14724
1.07617 2.15421 2.54504
-0.772718 2.6024 0.411212
0.397259 2.83808 1.41164
-0.549135 2.7526 0.539055
-0.58298 1.07276 1.85372
-0.0958674 1.49187 2.07668
0.550123 2.43502 1.87641
0.826082 2.67327 1.7293
-1.06863 1.80154 0.543332
-0.280917 2.81333 0.774823
-0.700383 2.51757 0.589107
0.890863 1.11833 3.15166
-0.0182575 2.11952 1.61247
-0.0767741 1.05563 2.28339
0.250523 1.60967 2.19431
-0.9131 2.58938 0.31349
0.642554 1.26137 2.81807
-0.464016 1.62941 1.76472
0.714973 2.57434 1.96284
0.585048 2.72455 1.5453
0.897618 1.88152 2.38627
-0.036022 2.47026 1.22269
-0.214993 0.907707 2.26986
-0.0753569 2.28261 1.21335
0.893702 3.12419 1.8345
-0.328152 2.59459 0.767058
-0.447685 1.59341 1.70661
0.911606 2.06526 2.34668
-0.042673 2.31403 1.25624
-0.360283 1.92667 1.41793
-0.0408683 1.33134 2.13474
-0.248376 2.91723 0.765754
-0.666564 1.95821 1.09643
-0.551238 1.09084 1.92877
0.574863 2.44805 1.77846
-0.569265 2.66333 0.591525
0.504285 1.67051 2.09682
1.02429 2.17348 2.32465
-0.700199 2.02529 0.933471
0.604018 2.26105 1.78414
0.530926 1.75996 2.37399
0.86842 2.27925 2.20966
-0.624967 1.28593 1.67372
0.744402 2.30811 1.85287
-0.804169 2.07736 0.745761
-0.409369 2.90486 0.622541
0.0289674 1.14281 2.54447
0.348241 2.33051 1.767
-0.429674 1.58287 1.73289
0.776114 1.8549 2.56268
0.591071 2.11992 1.99407
0.742886 1.14748 2.88285
0.847725 2.56475 1.81363
0.899273 1.74977 2.68524
0.346378 2.27716 1.71869
0.802402 1.76528 2.54258
-0.614011 2.04379 0.872599
1.00659 1.94036 2.55732
0.111752 1.62062 2.05961
0.362906 2.24013 1.5609
-0.307887 1.70039 1.36373
-0.671236 1.21868 1.55565
0.362742 2.71207 1.40184
0.981336 2.31742 2.18421
-0.120298 1.77008 1.70947
0.894828 2.12457 2.28476
1.01192 2.61834 2.01978
0.199703 1.9611 1.95438
-0.0859929 2.01712 1.50171
0.685081 2.56542 1.81533
-0.430221 3.00735 0.628469
0.413424 1.88102 2.11605
0.345244 2.59798 1.55379
-0.533031 1.58499 1.38956
-0.872333 2.37263 0.408987
0.0860066 1.55286 2.01608
-0.580887 2.23452 0.734283
1.03076 1.472 3.04229
0.36665 2.83373 1.46325
0.739324 1.39218 3.00411
-0.262259 1.95464 1.66173
0.513785 1.69369 2.18195
-0.190514 1.66912 1.67629
0.802661 1.45069 2.91802
1.07608 2.64527 2.11234
0.868759 0.945739 3.23683
-0.0886898 2.5152 1.05491
0.515063 2.75401 1.67788
0.217549 1.007 2.75528
0.303588 1.84107 1.98377
-0.311162 1.42515 1.74086
0.466417 1.67328 2.37793
-0.670517 1.58238 1.2396
-0.840083 1.2212 1.63837
-0.518456 2.4786 0.662824
-0.132621 1.01319 2.36829
0.410588 2.22071 1.75947
-0.0203611 1.85508 1.66758
1.00521 2.38278 2.36105
0.184586 1.53133 2.16447
0.370519 1.8491 2.17579
-0.845457 2.75472 0.310963
-0.219849 2.08458 1.31806
-0.305311 2.26538 1.17477
0.0779743 2.38019 1.29737
-0.124919 2.70135 0.931611
-0.296989 2.70065 0.921981
-0.305042 1.25605 2.13156
-0.938833 2.14862 0.685897
0.716185 2.31973 1.87412
0.383086 2.05036 1.80708
0.288309 1.13222 2.63732
-0.723141 2.60375 0.421579
-0.308716 2.55478 0.823094
0.378951 1.30926 2.73313
0.623216 1.93582 2.34177
0.678997 1.11693 3.09456
0.286253 2.01279 1.77821
0.346299 1.62411 2.26988
-0.914593 2.69806 0.257007
0.0228573 1.49881 2.0656
0.328076 1.91733 2.03725
0.809887 1.3269 3.11129
-0.166514 2.77465 0.913356
0.0263888 1.33304 2.20715
-0.916168 0.933782 1.5315
-0.384576 1.7342 1.56053
0.328897 2.48794 1.61767
-1.01378 1.56689 1.00278
0.666154 2.23266 1.84015
0.906759 1.27901 3.06555
0.651966 2.26917 1.924
0.218043 2.39594 1.43051
0.74547 2.30453 1.93526
-0.471731 1.64719 1.44446
0.96979 3.03221 1.85216
-0.748906 2.12234 0.814524
0.127159 2.52265 1.36664
-0.450453 2.73565 0.763747
-0.6159 1.56201 1.63807
0.719998 2.03154 2.25543
-0.338546 2.49702 0.931844
0.577911 2.74502 1.66104
-0.0642841 1.39895 2.14298
0.717579 2.97822 1.66793
0.880899 1.56094 2.71052
-0.862849 1.18916 1.48631
0.447209 1.37709 2.72904
0.837782 1.26579 3.03796
0.455167 1.23269 2.70743
0.180427 1.10444 2.62139
-0.29868 2.58091 0.83595
0.187982 2.07265 1.47277
-0.925285 2.2011 0.580055
0.569742 3.12322 1.58401
-0.386275 1.41577 1.65755
-0.494301 1.68964 1.20782
-0.226246 2.39846 0.960374
-0.116656 2.36148 1.21291
-0.325588 3.02169 0.734362
0.249388 2.13018 1.60828
-0.930012 2.9899 0.232088
-0.76494 1.45153 1.59554
-0.650498 2.19184 0.851072
0.290287 1.43999 2.67376
0.0887979 2.82388 1.1168
0.0841844 2.22555 1.40597
0.871124 1.46206 2.9539
-0.779016 1.50308 1.15775
-0.632697 1.22538 1.63832
-0.476216 1.42975 1.73741
-0.418833 2.04376 1.21236
-1.04434 1.7128 0.854457
-0.392159 0.895331 2.1027
0.591328 2.65922 1.7243
0.855053 1.60251 2.77957
-0.549544 0.874036 1.9877
1.07312 2.54211 2.19375
0.700639 1.47387 2.74968
0.186273 2.51243 1.46767
0.688996 2.81492 1.76576
-0.632787 2.95433 0.434993
-0.534853 1.17682 1.83243
0.479721 1.60842 2.61444
0.772839 2.43021 1.95544
0.515582 1.65094 2.51862
-0.704347 1.25152 1.45864
0.585761 1.71693 2.36092
0.00506846 2.18273 1.36888
-0.842582 2.29811 0.445598
0.178624 2.79187 1.20278
0.0228791 2.30183 1.43464
-0.930073 1.30286 1.54576
0.0894819 2.15641 1.61349
0.539925 1.59691 2.66016
0.93726 2.88858 1.8542
0.159103 3.16221 1.17362
-0.279522 2.82057 0.769068
0.285309 2.82224 1.35838
0.304519 2.25157 1.65091
-0.70413 1.12199 1.68301
-0.257253 2.84484 0.763627
0.832359 2.09294 2.27917
0.534016 2.70785 1.59275
0.139213 2.68306 1.23691
-0.798771 2.69169 0.287369
-0.257333 2.34353 1.05594
-0.688233 2.03904 0.941927
0.865902 2.06119 2.25929
0.0627478 2.31414 1.45169
0.209944 1.95561 1.805
0.155361 2.03816 1.52847
