ply
format ascii 1.0
comment Created by Open3D
element vertex 400
property double x
property double y
property double z
end_header
-1.57764 -0.276592 -2.3749
-0.297867 -2.45186 -1.46207
-1.50005 -0.812767 -2.02053
-1.18882 -1.50741 -0.623461
-1.41571 -0.680374 -2.81332
-1.66528 -0.737475 -2.68726
-1.67168 -1.10274 -1.06771
-1.2122 -1.11074 -2.14843
-0.628599 -2.75209 -1.90962
-0.259183 -2.9954 -1.04785
-2.19197 -0.372277 -2.69519
-1.23609 -1.37668 -1.60784
-0.698761 -2.00096 -0.828385
-0.48451 -2.33309 -1.55227
-0.735611 -2.08477 -1.48719
-2.24409 0.0577289 -2.79717
-1.88446 -0.367226 -2.44524
-0.552232 -2.73621 -0.947676
-1.97289 -0.575159 -1.63348
-0.792855 -2.1754 -0.759672
-1.12409 -1.32615 -2.01984
-0.942976 -1.61689 -1.91396
-0.676486 -2.11865 -1.42436
-1.38748 -1.31584 -1.66765
-2.00033 -0.753125 -1.7392
-1.28126 -1.39439 -2.39212
-1.36684 -1.67895 -0.777923
-0.77867 -1.96031 -2.58922
-0.843868 -1.65948 -0.982807
-0.77799 -1.71019 -2.66627
-1.90344 -0.501179 -2.97525
-0.73201 -1.9045 -1.25518
-1.41341 -1.22511 -0.852233
-0.487962 -2.21415 -1.36795
-1.3205 -1.34785 -1.02724
-1.28137 -1.4168 -1.34566
-0.485588 -2.56198 -1.9784
-0.685196 -1.5276 -2.49496
-1.73681 -0.490858 -2.00054
-1.64267 -1.27704 -1.12742
-0.877148 -1.85573 -1.04859
-0.944261 -1.05013 -2.62358
-0.33133 -2.39759 -0.914266
-0.660007 -1.75446 -1.44294
-0.332204 -2.1698 -1.44946
-1.76812 -0.943472 -1.07113
-0.852737 -1.38375 -2.48372
-0.829474 -1.48998 -1.11257
-0.703944 -1.80947 -2.86661
-0.928139 -1.44139 -1.26719
-0.313147 -2.889 -0.867868
-1.49993 -1.18177 -1.08865
-0.822517 -2.21405 -0.903567
-0.243701 -2.8879 -1.16446
-0.348746 -2.45522 -0.735477
-0.89549 -1.23245 -1.97303
-1.33799 -0.683263 -2.55196
-1.8866 -0.552558 -3.05647
-1.51292 -1.01132 -1.56926
-1.58311 -1.26939 -1.42386
-0.625533 -2.48866 -0.761588
-1.07485 -0.9742 -2.59816
-1.2143 -1.24613 -0.95233
-1.76468 -0.22592 -2.76549
-1.05682 -1.23079 -2.77277
-0.440277 -2.43702 -0.886711
-0.857698 -1.6261 -2.76727
-1.55019 -1.18256 -2.28074
-0.565381 -1.97753 -1.07279
-0.761418 -1.46558 -2.45575
-1.04814 -1.75171 -2.65734
-1.81369 -1.12873 -1.20453
-1.82194 -0.869229 -2.54282
-0.361307 -3.02421 -1.02253
-0.450324 -2.31995 -1.40217
-1.39216 -0.760499 -2.66535
-1.89235 -0.388441 -2.29895
-2.06695 -0.0414969 -2.3645
-0.796988 -1.7971 -2.01899
-0.978424 -1.30425 -2.65298
-0.831315 -1.98632 -2.44309
-0.697882 -1.82183 -2.68586
-0.431118 -1.87997 -1.92019
-1.09058 -1.6397 -2.37248
-0.305606 -2.39644 -1.38419
-1.69691 -0.79084 -1.64159
-1.57604 -0.852929 -2.25054
-0.588098 -1.93997 -1.86801
-1.75786 -0.796359 -2.12132
-1.70824 -0.640382 -2.74987
-0.323082 -2.05001 -2.004
-0.735159 -1.97198 -1.53458
-1.38312 -1.30216 -0.919746
-0.697026 -2.33136 -1.28936
-0.774948 -1.99049 -2.41541
-1.75232 -0.698246 -2.15069
-0.62679 -2.30234 -1.7764
-1.98007 -0.397891 -2.75734
-1.02405 -1.27579 -2.97156
-0.473219 -2.03211 -1.62793
-0.440066 -1.6466 -1.91877
-0.794579 -2.03587 -2.12355
-1.13419 -1.69475 -0.90153
-1.75004 -0.779358 -2.5237
-2.28521 -0.585424 -2.53198
-0.745285 -1.57461 -2.1043
-0.51441 -2.39171 -1.58256
-1.17489 -1.15602 -2.59103
-0.869184 -1.25161 -2.25098
-1.05542 -1.76681 -0.862753
-1.88357 -0.891327 -1.76324
-0.428287 -2.21392 -1.39295
-0.385553 -2.25642 -0.697534
-1.06146 -1.31131 -0.811898
-1.01821 -1.39014 -2.64345
-1.46737 -0.701581 -2.54964
-0.735316 -2.22865 -1.44726
-0.629324 -2.33173 -0.912841
-1.30808 -1.33181 -0.552188
-1.07329 -1.08503 -2.85414
-1.36559 -1.20899 -1.20874
-2.17119 0.0401525 -2.60719
-0.85075 -2.04702 -1.22927
-0.672188 -1.87777 -2.99538
-0.704368 -2.19347 -2.60441
-1.74243 -1.09228 -0.804675
-1.02874 -1.41108 -1.2804
-2.19864 -0.154605 -2.92175
-0.440967 -2.12938 -2.1629
-2.0687 0.216532 -2.59522
-0.529071 -2.10272 -2.41259
-0.786773 -1.93856 -2.80839
-1.48502 -0.733345 -2.19671
-1.59281 -1.00624 -1.17824
-1.81447 -0.463696 -2.0972
-1.02268 -1.35242 -1.56644
-1.75598 -1.01418 -1.87347
-0.534978 -2.17787 -1.37033
-2.05032 -0.635852 -1.97431
-0.588967 -2.51362 -0.817576
-0.938729 -1.89939 -0.619197
-1.92963 -0.262961 -1.86408
-1.75802 -0.897494 -0.946381
-0.980307 -1.33304 -2.63624
-0.4864 -2.33575 -1.75763
-0.710115 -2.09421 -0.627864
-0.412745 -2.37283 -1.00477
-1.64722 -1.74007 -0.983045
-0.443297 -2.17284 -1.5152
-1.09317 -1.5177 -2.87573
-2.18549 0.175397 -2.8325
-1.80378 -0.457352 -1.8923
-1.96283 -0.577244 -1.70481
-1.20366 -1.22355 -2.34534
-1.53269 -1.26026 -1.18399
-0.109842 -2.57712 -0.629322
-1.31174 -1.49412 -0.671844
-2.21796 -0.111216 -2.51323
-1.53741 -1.5097 -0.791472
-1.91599 -0.198475 -2.05961
-1.66824 -0.813729 -1.83431
-1.08442 -1.77824 -0.828426
-1.5298 -1.57087 -0.817242
-0.754282 -1.09875 -2.42688
-1.16571 -1.68895 -1.7344
-1.8437 -0.505428 -2.8681
-1.61199 -1.39086 -0.900062
-0.622757 -1.85815 -2.93553
-1.20857 -0.499026 -1.80612
-1.12457 -1.72037 -0.765879
-2.0038 -0.508366 -2.28364
-1.59302 -0.408548 -2.63521
-1.56409 -1.04722 -1.61059
-1.74703 -0.61513 -1.9875
-1.11535 -1.1555 -2.47105
-1.44769 -1.11855 -2.41797
-1.08178 -1.45746 -2.2762
-0.523082 -2.01959 -1.98107
-1.30387 -1.14166 -1.41956
-0.842094 -1.99742 -1.31583
-1.35431 -1.36143 -2.19531
-0.871771 -1.63225 -1.13531
-1.05317 -1.3683 -1.17773
-0.680493 -2.04471 -1.83415
-0.968478 -1.39446 -2.41716
-0.547757 -2.09837 -1.59481
-0.0776406 -2.72164 -0.893314
-0.455631 -2.80982 -0.919239
-1.80785 -0.654904 -1.56905
-0.259026 -2.67038 -0.736391
-1.55597 -0.342402 -2.17534
-2.09081 -0.572558 -2.0102
-1.70506 -0.887799 -0.897874
-1.00033 -1.3296 -2.69031
-0.692895 -1.69332 -2.50165
-0.782327 -1.59661 -2.33779
-1.2205 -0.885757 -2.78841
-1.01804 -1.22821 -1.79107
-0.446068 -2.60805 -1.0635
-1.9519 -0.609094 -1.75043
-1.87078 -0.486315 -1.95852
-1.01094 -1.60376 -2.17424
-0.688797 -1.48399 -2.31381
-0.916584 -1.84655 -1.0819
-0.993587 -1.66734 -2.53217
-1.08226 -1.13103 -2.95629
-0.61812 -1.59031 -2.61942
-1.12717 -1.66799 -1.13033
-1.21183 -0.937592 -1.54621
-1.53347 -0.982703 -2.96701
-1.32105 -1.53218 -0.953409
-0.741582 -1.78398 -2.70474
-0.541879 -2.36421 -1.45932
-0.478539 -2.35271 -0.69665
-1.5464 -0.765322 -1.0741
-1.43437 -0.402928 -2.68022
-0.760807 -2.05244 -1.13949
-0.632713 -1.77117 -2.91013
-0.558226 -2.48948 -2.06028
-1.79457 -0.590749 -1.96653
-0.467568 -1.88734 -2.0728
-0.629518 -1.71614 -1.57806
-1.32079 -1.60958 -0.67615
-1.33858 -1.44692 -2.689
-0.915093 -2.02758 -1.59046
-1.34725 -1.39784 -1.62621
-1.51354 -0.591833 -2.77334
-1.27965 -0.700292 -2.7428
-0.53501 -2.0125 -1.18256
-1.12288 -1.67812 -1.22891
-0.916837 -1.50778 -2.22664
-1.05158 -1.47631 -2.35187
-1.24251 -1.69799 -0.72668
-1.66497 -0.370998 -2.67855
-0.921081 -1.31328 -2.18336
-0.826268 -0.793348 -2.58954
-0.532214 -1.54347 -2.70414
-1.95113 -0.506654 -2.22326
-1.52933 -1.29027 -1.25676
-1.16198 -1.25693 -1.36311
-0.906017 -1.35736 -1.96502
-0.617492 -2.49431 -1.38587
-0.743606 -2.04921 -2.98533
-1.32768 -0.987181 -2.37903
-0.391993 -2.4955 -1.72279
-1.1606 -1.2876 -2.18123
-1.20973 -1.32129 -1.68006
-0.580648 -1.70879 -0.935611
-2.0589 -0.19986 -2.52947
-0.759423 -1.54126 -2.18918
-1.96277 -0.35626 -1.98257
-0.775778 -1.5329 -2.98385
-1.02576 -1.01758 -0.988062
-0.99355 -1.93286 -1.77761
-0.826075 -1.87154 -2.69099
-1.20197 -1.72475 -0.952464
-0.92669 -1.28017 -2.74152
-0.860945 -1.99524 -0.670289
-0.530718 -2.69429 -0.965511
-1.70355 -0.953938 -2.23921
-2.04442 -0.212834 -2.81336
-0.786553 -2.24255 -2.26415
-2.07872 -0.0465783 -2.60748
-1.22484 -1.65156 -1.5557
-0.543956 -2.59909 -1.25545
-0.580721 -1.76551 -2.5245
-1.23216 -1.16208 -2.45888
-0.575517 -2.07316 -2.3107
-1.0166 -1.44293 -2.45663
-1.0297 -1.0818 -2.82615
-1.61053 -1.07076 -0.909388
-1.44666 -0.72286 -1.57941
-0.922342 -1.79975 -1.50315
-0.618934 -1.96763 -2.70493
-1.05864 -2.0569 -0.891785
-0.630068 -1.70302 -2.84049
-2.01098 -0.627259 -1.63569
-0.703739 -1.55548 -2.89038
-0.390965 -2.64874 -1.25275
-1.37411 -0.902542 -1.08255
-0.724313 -1.49113 -1.73888
-1.78868 -0.56383 -2.68366
-0.934338 -1.74045 -2.77368
-1.34896 -1.22104 -2.35803
-0.448208 -2.45515 -1.49416
-2.0825 -0.268543 -2.4383
-1.63232 -0.372119 -1.77196
-1.46109 -0.734156 -1.4955
-0.854972 -1.8397 -2.5316
-0.430952 -2.79684 -1.56774
-0.700062 -1.86383 -2.70964
-0.188705 -2.62758 -1.29876
-1.2945 -0.938433 -2.76856
-1.28469 -1.38787 -1.85144
-0.34456 -2.44928 -1.62051
-1.85846 -0.405035 -2.76092
-0.449287 -2.21272 -1.41651
-0.736781 -2.22429 -2.63094
-1.75255 -1.35456 -1.36998
-2.04014 -0.0287186 -2.41799
-0.474182 -2.12596 -1.53671
-1.45735 -0.621717 -1.78685
-0.710286 -2.31086 -1.0992
-2.08194 -0.28635 -2.17271
-0.536725 -2.35861 -1.23584
-0.939528 -1.69105 -1.77291
-2.24494 -0.0449002 -2.76136
-1.65762 -1.02412 -1.86156
-0.759854 -2.03669 -1.18848
-1.88475 -0.653582 -2.40384
-0.740199 -2.57091 -1.12779
-1.026 -0.72835 -2.62399
-1.02859 -1.22829 -2.17597
-1.81907 -1.03766 -1.25042
-1.41701 -0.84808 -2.45964
-1.38207 -1.11788 -2.20566
-0.847673 -1.3561 -2.92786
-1.14006 -2.0061 -0.972161
-0.859722 -1.86513 -0.649478
-0.873904 -1.81452 -3.17107
-1.94123 -0.0238357 -2.8194
-2.24209 -0.455916 -2.82889
-0.578374 -2.35752 -1.30106
-1.86137 -0.884482 -1.38642
-1.42898 -1.18952 -1.24191
-1.18148 -1.07358 -2.0385
-0.290276 -2.48374 -1.09938
-0.330983 -2.69828 -1.55245
-0.45206 -2.50368 -0.738904
-1.40149 -1.31113 -2.00473
-1.2698 -1.06625 -2.33389
-0.612212 -1.87797 -2.66067
-1.08855 -1.99356 -0.995993
-0.700628 -1.85595 -2.64751
-1.16333 -1.41336 -0.67723
-0.477708 -1.88134 -2.25711
-0.906546 -1.50176 -1.72216
-0.466891 -2.06727 -1.62888
-0.384797 -1.83645 -1.49336
-0.314587 -3.05566 -0.97688
-1.27649 -1.57976 -1.12995
-1.71715 -1.39393 -1.16493
-2.01499 -0.725415 -2.72927
-1.61181 -0.87944 -2.8543
-1.6105 -0.859879 -2.51466
-1.3242 -1.485 -1.23782
-1.03359 -1.89156 -1.25559
-0.985584 -1.5971 -2.23356
-0.927251 -2.05542 -1.98836
-1.04926 -1.0792 -2.20215
-0.92233 -1.43616 -1.98759
-0.289754 -2.72252 -1.02054
-1.1658 -1.35196 -2.42589
-1.91748 -0.305861 -2.05397
-1.22397 -1.06038 -2.61652
-1.94991 -0.593564 -2.22031
-1.37597 -1.32005 -0.684799
-1.6648 -0.327069 -2.76635
-0.693182 -2.3266 -1.10235
-1.52461 -0.738935 -1.38617
-1.62337 -1.12594 -1.3374
-1.22978 -1.06206 -0.832529
-1.23306 -1.06642 -2.05764
-0.778814 -1.97402 -0.720389
-1.19867 -1.33863 -0.598594
-1.37342 -1.02009 -1.85945
-1.03564 -2.14169 -0.928842
-1.82385 -0.445955 -2.81708
-0.765525 -1.86087 -0.779573
-0.622936 -1.58574 -1.73961
-2.00342 -0.689329 -1.60237
-1.87721 -0.287911 -2.68
-0.642979 -1.64994 -2.01004
-1.29094 -0.899928 -2.87074
-2.18036 0.146731 -2.80343
-0.43816 -2.73064 -1.68693
-0.651681 -1.61881 -1.70862
-0.992562 -1.1246 -2.65528
-1.14847 -1.77491 -1.37545
-1.70468 -0.62077 -2.61356
-0.774192 -2.36836 -1.69356
-1.9087 -0.563905 -2.60508
-1.77589 -0.316575 -1.87929
-0.223099 -2.29016 -1.47179
-1.31499 -1.26556 -2.25359
-0.803374 -2.4146 -1.05339
-0.378581 -2.0644 -1.42964
-1.94821 -0.272807 -2.45342
-0.505336 -2.18256 -0.989427
-1.6338 -0.74822 -2.17088
-1.50145 -0.797458 -2.79302
-0.324406 -2.51359 -1.03555
-1.0339 -1.67606 -1.02367
-0.523921 -2.34637 -1.97012
-2.24216 -0.313907 -2.40571
-1.21094 -1.65975 -1.27302
-1.32458 -0.69804 -2.12654
-0.85006 -1.9804 -2.30582
-0.358146 -2.37981 -0.891092
-0.960268 -1.51662 -0.718665
