ply
format ascii 1.0
comment Created by Open3D
element vertex 250
property double x
property double y
property double z
end_header
0.331287 -2.72872 -0.0172106
1.81418 -1.37385 -0.851035
-0.758383 -2.18602 -1.31049
0.257321 -3.36788 -0.422469
-0.723363 -2.75887 -0.676855
-0.299992 -2.59724 -1.05418
1.20645 -1.82685 -0.664824
2.22769 -2.30494 -0.178764
1.73102 -1.29257 -1.07067
2.59336 -1.45701 -0.0227743
-0.816648 -1.89759 -1.32923
1.34275 -2.84967 -0.65962
-0.891276 -2.6419 -0.858737
2.96897 -1.96818 0.741092
-0.466712 -3.17712 -1.13451
2.03967 -2.94307 0.304597
2.08064 -3.37958 -0.120765
-0.127031 -2.81467 -0.700507
0.701416 -2.247 -1.37116
2.39902 -2.89621 0.173002
1.73719 -2.20765 -0.791269
2.56768 -1.84168 0.220058
-0.0777638 -1.8396 -0.779401
1.48436 -1.3121 -1.2713
2.41269 -1.34776 -0.178196
0.825878 -2.14953 -0.880022
-0.460702 -2.15388 -0.73725
1.37994 -2.56987 -0.037984
0.718385 -2.37255 -0.97341
2.38632 -0.802677 -0.302165
2.79755 -2.43314 0.439373
3.13208 -2.22616 0.74033
1.7779 -1.11363 -1.03209
-1.1399 -2.47917 -1.25617
2.23484 -1.17489 -0.515118
-0.67726 -1.55882 -1.59118
-0.80346 -3.60386 -0.597738
2.89618 -2.00594 0.653935
0.931713 -2.90589 -1.35833
-0.230697 -2.88194 -0.464171
0.073022 -2.97687 -0.361253
2.64004 -1.91633 0.0448539
0.494517 -1.91559 -1.0675
-1.21571 -1.97664 -1.2336
-1.2163 -3.3982 -1.07962
2.48158 -0.915554 -0.263997
-1.72828 -2.12414 -1.79884
2.57334 -0.78337 -0.0550497
0.0591151 -2.50482 -1.16937
1.30659 -2.6152 -0.74645
2.61343 -1.83824 0.00217755
-1.34358 -2.25972 -1.71902
2.13169 -2.20599 -0.449565
2.2033 -1.97794 -0.42686
1.72215 -1.53028 -0.742467
2.59561 -1.50366 -0.0210313
1.49819 -1.28713 -1.33289
0.833546 -2.52723 -0.924545
0.723562 -2.59937 -0.164018
-1.07576 -2.89592 -1.15553
3.14952 -1.65114 0.704644
2.67559 -1.57752 0.210715
2.25703 -0.561528 -0.573041
2.78555 -1.18322 0.279351
-0.741034 -2.72209 -0.815219
-1.56498 -1.80563 -1.9357
1.37575 -2.70602 -0.684262
2.44196 -2.49282 0.0905977
1.42253 -2.92448 0.114268
-1.43241 -1.77256 -1.80398
2.14868 -2.19499 -0.158399
-0.418533 -1.39475 -1.37917
0.244484 -3.63993 -0.584927
2.56379 -2.82986 0.183595
-1.39807 -2.06794 -1.91478
0.037541 -3.1213 -0.667199
2.32605 -1.4149 -0.376694
3.12903 -1.05662 0.671523
0.352737 -2.57888 -0.735437
2.68377 -1.7663 0.0984157
2.57865 -2.29062 0.0376757
-0.828898 -2.29863 -1.14227
2.60233 -2.89189 0.265239
2.17376 -1.62124 -0.440808
1.17156 -3.21418 0.0150315
2.5336 -2.59429 0.301876
0.211365 -3.04752 -0.109124
2.9338 -2.00117 0.532383
3.76784 -1.37075 1.40889
-1.51066 -2.16432 -1.81879
0.225764 -3.32791 -0.689026
0.934774 -2.56599 -0.146945
0.82721 -2.01021 -1.26096
1.26118 -2.63019 0.368046
-1.05694 -2.22727 -1.56303
2.05141 -1.37421 -0.710888
2.57237 -2.92315 0.241135
1.95908 -1.34619 -0.787664
-0.857553 -1.54969 -1.37027
-1.15635 -1.94291 -1.78889
2.21964 -1.65769 -0.432744
0.535022 -1.89734 -0.978125
-0.360821 -1.32686 -1.23474
0.88873 -1.60289 -1.49309
2.28552 -0.477714 -0.458612
-1.04375 -1.97273 -1.22622
1.9635 -1.05993 -0.863669
-0.366832 -1.89948 -0.994778
2.18235 -1.3522 -0.555844
0.379432 -2.12876 -1.35158
2.23464 -3.14681 -0.00496249
2.11041 -1.02777 -0.720786
-0.907389 -3.46187 -0.680435
-0.0656452 -1.93277 -1.81135
-0.764285 -1.50314 -0.934609
-1.153 -2.43441 -1.17627
-0.666523 -2.78886 -0.608292
1.1662 -1.57513 -1.5952
-0.577272 -2.28224 -0.982083
2.53446 -1.00566 -0.041631
-1.14934 -2.157 -1.22052
2.48733 -2.90577 0.495947
1.7412 -1.32708 -0.828164
1.34655 -2.04477 -0.783772
0.015179 -2.42862 -0.515753
0.835103 -3.13813 -0.0547772
-0.540438 -2.14136 -0.592775
1.45887 -3.38537 -0.277268
-0.13755 -2.81444 -0.830794
2.16437 -3.00655 0.0997223
0.0908158 -2.11393 -0.865317
0.468512 -2.04634 -1.22746
-0.00499718 -1.6067 -0.750173
-0.0770937 -1.79445 -1.24507
1.35187 -2.87548 -0.198371
0.849899 -2.97639 -0.127756
1.28177 -2.40681 -0.465178
2.0933 -1.32671 -0.427846
2.05734 -3.04858 0.21339
-0.190345 -2.91424 -0.605519
1.99265 -0.879479 -0.923675
-0.82891 -2.49696 -0.860735
1.42084 -3.14245 -0.353124
0.842002 -2.72101 -0.393254
1.67383 -3.31292 -0.147936
2.18037 -0.499273 -0.565817
-1.07355 -2.2977 -1.65984
1.3092 -1.70208 -0.443505
-1.01611 -2.40638 -0.908928
1.64915 -3.0951 -0.190916
0.869864 -2.4846 -0.527949
2.42514 -2.51794 -0.0191009
-0.0312607 -3.16834 -0.790777
2.51666 -0.496966 -0.259561
2.28451 -2.56599 0.125477
1.85251 -2.0624 -0.781234
0.866939 -2.90863 -0.966004
1.11927 -1.42152 -0.780508
2.11811 -1.42769 -0.532351
-1.47939 -2.37161 -1.68374
0.87694 -2.95445 -0.922207
0.105571 -3.05173 -0.186544
0.214959 -2.34495 -1.41594
2.81178 -2.33873 0.404917
1.85631 -2.84281 -0.30385
2.1767 -2.21835 -0.0536975
2.95191 -2.4236 0.564181
0.693653 -1.22726 -1.0159
-0.202179 -1.41356 -1.28922
-0.262648 -2.2951 -0.69468
-0.13525 -3.3758 -0.5534
2.39863 -2.60601 -0.0972265
0.621842 -3.01867 -0.343413
-1.42938 -2.3883 -1.38198
1.04255 -1.60313 -1.17473
0.848259 -1.4176 -1.33159
2.22182 -1.16612 -0.389423
1.70149 -3.00895 -0.246675
0.60157 -2.74139 -0.24227
1.15557 -2.61109 -1.03309
0.371352 -2.91967 -0.15122
0.0782816 -2.74391 -0.653444
0.158327 -2.2005 -1.13151
0.604775 -2.24544 -0.680773
2.27219 -2.80787 -0.217772
-0.595827 -3.28553 -0.186994
2.88782 -2.65804 0.58072
-1.05946 -2.02962 -1.83049
1.86193 -2.05012 -0.790543
-0.667207 -3.41459 -0.862553
-0.548285 -3.55227 -0.538542
2.17529 -1.45025 -0.545715
-0.225816 -3.42808 -0.461813
2.14946 -2.65683 -0.40329
1.47704 -2.52368 -0.972023
-0.768006 -1.79029 -1.86122
-0.441655 -2.62127 -0.605988
2.24695 -3.26395 0.111857
1.25123 -1.65041 -1.35755
-0.867622 -2.69429 -1.12032
2.86271 -3.02802 1.27361
3.15078 -2.37038 1.55701
2.90211 -2.91151 1.08373
2.45063 -3.04289 0.150276
3.34768 -2.5544 1.84498
2.72733 -2.73746 0.48019
2.77705 -2.95057 1.19656
2.34148 -3.32303 0.339464
2.32181 -2.22453 2.74762
2.71122 -3.13722 1.48858
2.6105 -2.93198 0.325942
3.17503 -2.71819 1.31095
2.58857 -2.38443 2.58188
2.72914 -3.07736 0.661186
2.58766 -3.16344 0.676784
2.68706 -2.81145 1.5632
2.71775 -3.07967 0.659633
2.5116 -2.28226 2.65121
2.79219 -2.47366 1.70315
2.7197 -2.42441 2.45435
2.45601 -3.26975 0.28908
2.44129 -2.40715 2.39623
2.54875 -3.32607 1.08609
2.96859 -2.48824 0.847056
2.77549 -2.60677 1.40064
2.73333 -2.70969 1.95817
3.34286 -2.17571 1.61829
2.78165 -3.10748 1.29387
1.90527 -3.08092 2.02072
2.81517 -2.83955 1.67535
2.65602 -3.24406 1.31731
3.42463 -2.33648 1.58101
3.3316 -1.95765 1.20231
3.17358 -2.42045 1.62433
2.81533 -2.62157 1.31088
2.38335 -3.11715 1.79691
2.29037 -3.42319 1.45577
1.89291 -3.73779 1.00341
2.83146 -2.60745 2.07367
2.98767 -2.40807 1.62202
3.03965 -2.51442 1.72512
3.01895 -2.17176 2.1989
2.10995 -3.13027 2.21198
2.32635 -2.57395 2.6739
2.1948 -2.8314 2.17754
2.62491 -2.6492 1.86854
2.0113 -3.1582 1.97366
2.39962 -3.4936 0.524047
2.60365 -2.77815 1.82918
2.95982 -2.20356 2.24084
