ply
format ascii 1.0
comment Created by Open3D
element vertex 250
property double x
property double y
property double z
end_header
-0.479341 -2.30987 1.72504
-1.00428 -1.82378 -0.725959
-1.6355 -1.50641 1.27928
-0.878531 -3.17963 0.778132
-1.13695 -1.93862 2.09973
-1.4133 -2.15557 0.922901
-0.932697 -1.89406 0.283682
-0.462397 -2.91745 -0.629154
-1.18745 -1.78438 -1.02183
-0.156355 -2.38926 -1.43596
-1.63665 -1.13177 1.49795
-0.989995 -3.1911 -0.45977
-1.29932 -1.76268 2.09839
0.550271 -3.1537 -1.63946
-1.53406 -2.78513 0.663087
-0.108358 -3.37602 0.119678
-0.483254 -4.15124 -1.13474
-1.11072 -2.38654 1.16426
-1.60609 -2.36881 -0.501439
-0.18212 -3.61589 -0.669873
-1.01279 -2.76729 -1.04467
-0.06812 -2.38933 -0.0578383
-1.10735 -1.27884 1.523
-1.39697 -1.67224 -0.83275
-0.271047 -2.30668 -1.7101
-1.16569 -2.14856 0.200819
-1.1209 -1.41657 1.91469
-0.429075 -2.66106 0.657249
-1.26914 -2.3886 0.0522864
-0.346625 -1.66751 -1.51463
0.115025 -3.21973 -0.556887
0.456961 -3.22381 -0.916772
-1.1477 -1.54754 -0.799179
-1.64248 -1.59412 1.77025
-0.608338 -1.94428 -1.37088
-1.8357 -0.877187 1.15715
-1.11922 -2.9272 1.67905
0.467125 -3.18834 -1.71131
-1.61967 -3.30176 -1.20956
-0.917171 -2.32797 1.6314
-0.812326 -2.58187 1.34722
-0.159226 -2.81489 -1.23668
-1.33204 -1.75796 0.411593
-1.60473 -0.898636 2.33189
-1.56478 -2.56399 1.70519
-0.352678 -1.69729 -1.163
-2.14186 -0.976852 1.99556
-0.108848 -1.69965 -1.45509
-1.4867 -2.26974 0.398836
-1.05088 -2.923 -0.428524
-0.205886 -2.67045 -1.06202
-2.03574 -1.40435 1.31763
-0.675503 -2.92167 -1.15766
-0.583987 -2.87787 -1.71915
-0.937214 -1.88316 -0.401451
-0.161128 -2.43339 -1.42256
-1.44457 -1.68366 -0.974339
-1.23075 -2.61696 -0.0866062
-0.577555 -2.40095 1.15766
-1.57976 -2.09338 1.61488
0.511437 -2.72898 -1.22206
0.083338 -2.65203 -1.73045
-0.591014 -1.33383 -1.43523
0.177982 -2.21953 -1.53461
-1.2507 -1.95162 1.85845
-2.21784 -0.771689 1.63545
-0.998647 -3.04838 -0.464727
-0.225857 -3.17406 -0.585742
-0.314037 -3.07413 0.588366
-2.09002 -0.769469 1.67373
-0.450001 -2.70571 -0.34147
-1.62359 -0.749649 1.28067
-1.0392 -3.55397 0.377321
-0.106476 -3.81999 -1.45275
-2.19684 -1.20892 1.19095
-1.09213 -2.83306 0.841222
-0.526754 -2.1266 -1.04771
0.552896 -2.13478 -1.28973
-1.09708 -2.36634 0.710667
-0.0794745 -2.718 -1.36802
-0.211057 -3.17101 -1.19249
-1.5049 -1.53282 1.60692
-0.045441 -3.85633 -1.30329
-0.631731 -2.2152 -0.77101
-0.4317 -3.33565 0.504688
-0.0465528 -3.2614 -0.377946
-0.585363 -2.67095 1.49403
0.326415 -3.09913 -1.47356
1.17734 -2.47139 -0.614548
-2.13026 -1.21875 1.45933
-1.11422 -3.18693 0.474917
-0.548909 -2.46261 0.977746
-1.48662 -2.11376 -0.331012
-0.0797887 -2.56181 1.30656
-1.87717 -1.47798 1.21279
-0.821371 -2.08257 -1.36068
-0.0797758 -3.8498 -1.20745
-0.920798 -1.91435 -0.997309
-1.65411 -0.694746 1.72156
-2.06224 -1.1524 1.16157
-0.55569 -2.54491 -1.69194
-1.25028 -1.72869 0.512934
-1.48869 -0.654545 1.46802
-1.66119 -1.71997 -0.477468
-0.457058 -1.31353 -1.57557
-1.57465 -1.03284 1.98621
-0.915001 -1.79916 -1.60648
-1.31663 -1.2682 1.48391
-0.686171 -2.03856 -1.13948
-1.60171 -2.04429 -0.0164929
-0.359042 -3.90815 -0.9707
-0.801994 -1.70454 -1.25085
-1.19767 -2.69133 1.87474
-2.01984 -1.70959 -0.0591405
-1.27393 -0.512372 2.42466
-1.5765 -1.4843 2.00984
-1.07545 -1.98353 2.11934
-1.71913 -1.91556 -1.09315
-1.3473 -1.60031 1.55694
-0.107189 -1.97006 -1.61336
-1.59429 -1.17423 2.07883
0.0999759 -3.55193 -0.222994
-0.995329 -1.68376 -0.45725
-1.04007 -2.27974 -0.223413
-0.914917 -1.93719 1.51702
-0.50749 -3.08938 0.823541
-1.00775 -1.27754 2.34851
-0.683254 -3.78091 -0.34895
-1.22474 -2.42434 0.97164
-0.27802 -3.60812 -0.45066
-1.19153 -1.72306 1.04513
-1.48242 -1.95209 0.121718
-1.06118 -1.02993 1.61646
-1.51087 -1.37594 0.833351
-0.591179 -3.06679 0.257781
-0.562507 -2.91444 0.829434
-0.796181 -2.55456 0.199574
-0.62147 -1.75216 -0.282705
-0.191784 -3.55064 -0.131878
-1.0388 -2.44004 1.32947
-0.971371 -1.5482 -1.40073
-1.28381 -1.63635 2.06382
-0.73861 -3.48073 -0.237244
-0.780768 -2.67692 0.6222
-0.550439 -3.77378 -0.378424
-0.553561 -1.33726 -1.69419
-1.96647 -1.58909 1.02872
-0.725568 -1.72391 0.589769
-1.34522 -1.38924 2.43472
-0.578352 -3.49878 -0.24171
-0.880615 -2.45155 0.522263
-0.313003 -3.27458 -0.892024
-1.2076 -2.89224 0.705121
-0.297205 -1.29261 -1.21291
-0.221959 -3.12054 -0.243885
-0.902884 -2.97502 -2.13026
-1.29149 -3.10377 -0.405185
-1.01164 -1.39765 0.447039
-0.702284 -1.98128 -0.728855
-2.02616 -1.43428 1.52929
-1.25621 -3.14818 -0.370695
-0.660762 -2.64059 1.50773
-1.68215 -2.2389 -0.0591749
0.163923 -3.4008 -1.46741
-0.642505 -3.36094 -0.564025
-0.361978 -2.70122 -0.182547
0.276633 -3.41383 -1.06973
-1.23152 -1.00744 0.7101
-1.53274 -0.860001 1.15365
-1.07888 -1.68714 1.63914
-1.0174 -3.02186 1.02554
-0.335862 -3.59517 -1.69579
-0.768202 -2.91115 0.743493
-1.77928 -1.31187 2.15743
-1.37174 -1.70715 -0.19185
-1.51292 -1.41238 -0.0374639
-0.443863 -2.09718 -1.84437
-0.617608 -3.4428 -0.341822
-0.662361 -2.53418 1.08666
-1.30613 -2.9457 -0.74219
-0.605956 -2.60766 1.34873
-1.0525 -2.39506 1.0442
-1.42643 -1.94676 0.515833
-1.01151 -2.08186 0.703042
-0.490462 -3.70193 -1.50512
-0.740128 -2.46916 2.43181
0.259396 -3.61031 -0.96044
-2.09713 -1.3272 0.917175
-0.972141 -2.72788 -1.36605
-1.32634 -2.86982 1.18958
-1.04162 -3.00851 1.42071
-0.685634 -2.1446 -1.15833
-0.944867 -3.01292 1.21941
-0.646716 -3.52658 -1.59685
-1.21447 -3.04167 -1.12746
-2.0933 -1.19231 0.717072
-1.03963 -1.93497 1.85354
-0.263402 -4.02075 -0.884874
-1.51112 -1.97591 -0.875604
-1.51681 -1.97324 1.47507
0.897783 -4.04736 -0.835354
1.2701 -3.55993 -1.12729
0.742154 -3.98945 -1.10205
-0.141648 -4.08511 -1.69035
1.45696 -3.54615 -0.218288
0.202918 -3.8314 -1.55815
0.866124 -4.07039 -1.25434
0.034115 -4.44137 -1.89225
2.45306 -3.26346 -0.556729
1.08811 -4.10204 -0.635697
0.023838 -3.96026 -1.47438
0.939361 -3.7101 -0.566104
2.25159 -3.41269 -0.435909
0.298219 -4.02905 -0.985058
0.352237 -4.26286 -1.53501
1.24705 -3.95478 -1.21571
0.286465 -3.98954 -0.856278
2.34099 -3.32871 -0.513223
1.42995 -3.68024 -1.3147
2.11933 -3.47143 -0.47925
-0.0571301 -4.23239 -1.34673
2.09735 -3.49235 -0.794961
0.705572 -4.34063 -1.07389
0.579524 -3.63644 -1.43342
1.12693 -3.81856 -1.47847
1.61794 -3.79167 -0.805485
1.33756 -3.36649 -1.00239
0.910127 -4.11216 -0.82002
1.67052 -4.05866 -0.895151
1.32541 -3.92259 -0.889026
0.905988 -4.17209 -0.623793
1.25344 -3.43991 -0.678024
0.963111 -3.13603 -1.18323
1.32073 -3.58677 -1.00275
1.03498 -3.82906 -1.48353
1.41669 -4.10275 -0.747318
1.0435 -4.34356 -0.733783
0.62986 -4.7598 -1.49371
1.73235 -3.68617 -0.688657
1.34519 -3.61562 -1.24721
1.41359 -3.67009 -0.99151
1.91611 -3.35064 -0.873134
1.78239 -3.91803 -0.0624113
2.31018 -3.49788 -0.192795
1.83653 -3.84135 -0.771701
1.56282 -3.78884 -1.10342
1.59967 -4.10426 -0.747864
0.133489 -4.4107 -1.10371
1.50263 -3.88454 -1.01826
1.95349 -3.36873 -0.840742
