ply
format ascii 1.0
comment Created by Open3D
element vertex 250
property double x
property double y
property double z
end_header
2.47975 2.51757 1.14449
0.79788 1.11626 2.36058
0.669493 2.25395 0.182723
2.10939 1.69484 0.987628
1.76808 2.80063 0.273657
1.10433 1.95168 0.552231
1.34069 1.81473 1.91462
1.96007 1.03455 2.69721
0.441992 0.873881 2.25244
1.37931 0.116016 2.75346
0.573615 2.47405 0.161443
1.62521 1.07533 1.94057
1.51285 2.82508 0.135873
2.20254 -0.458189 2.88478
1.17374 1.63236 0.360499
2.86302 1.47147 2.56843
2.27898 0.355051 2.44533
1.63317 2.08983 0.709915
0.536678 1.12689 1.39641
2.56065 0.858651 2.80236
1.10698 0.690906 2.22488
2.37612 1.59819 3.0726
1.23986 2.55037 0.820046
0.302983 1.10105 2.0978
1.00873 -0.218857 2.51018
1.16701 1.65699 1.55389
1.43758 2.75731 0.497829
2.38562 1.93081 2.05279
1.11248 1.49676 1.4388
0.712794 0.0608182 2.53764
2.70991 1.01354 3.16129
2.7666 0.544111 3.31356
0.493955 1.13064 2.34326
0.910393 2.57062 -0.114857
0.786873 0.331862 2.5166
0.137236 2.34145 0.295175
2.04509 2.23505 0.0975654
2.10227 -0.52078 2.81476
0.686639 0.460733 1.50872
1.98112 2.40028 0.641938
2.10843 2.18304 0.882814
1.79101 0.366715 2.88128
0.864291 1.82512 1.2792
0.874115 3.14534 -0.0893297
1.45631 2.36461 -0.212015
1.01084 0.527151 2.74902
0.211415 2.86226 -0.560972
0.968069 0.0572266 2.67825
0.911963 1.64343 0.854471
1.44094 1.14214 1.92043
1.7921 0.589044 2.91153
0.20072 2.24419 -0.329555
1.4477 0.542106 2.52304
1.10401 -0.124075 2.41186
1.05763 1.37122 2.32075
1.41363 0.135665 2.76345
0.192352 0.986801 2.09349
1.21762 1.37729 1.5274
2.24384 2.20187 1.48176
1.15878 2.37426 -0.0882224
2.29083 0.173918 3.20722
1.48532 -0.364838 2.68326
0.393008 0.271499 2.4926
1.45385 -0.138078 2.80994
1.54284 2.60573 0.231241
-0.13701 2.62296 -0.451212
1.54475 1.10091 1.97486
2.349 1.02655 2.87444
2.6606 1.77867 2.05457
0.00556847 2.64926 -0.337692
2.00882 1.3056 2.67252
0.356723 2.48102 0.539916
1.96784 1.3517 0.939556
2.24007 0.00814513 2.7535
-0.10818 2.19851 -0.372541
1.75024 1.80396 0.820993
1.19939 0.689424 2.68727
1.89973 0.0624429 3.12424
1.50116 1.87242 1.13147
1.69882 0.183097 2.86002
1.98512 0.411823 2.85755
0.95232 2.47587 0.142355
2.4124 0.153375 2.81714
1.33236 0.989002 2.63318
2.60025 1.61067 1.79834
2.67358 1.1762 2.97135
2.43408 2.25495 0.998066
2.15838 -0.110469 2.97582
3.14226 0.734172 3.81862
0.0742458 2.37766 -0.453564
1.77025 1.51877 0.959506
2.25336 2.109 1.66685
0.612842 1.31128 1.53183
2.90921 2.31441 1.95537
0.365469 2.18065 -0.0869142
0.69656 0.393773 2.39679
2.44616 0.270992 2.8224
0.762411 0.831624 2.42337
0.442348 2.7254 0.165421
0.00120402 2.21389 -0.156701
0.94392 -0.0984605 2.41362
0.974902 1.90146 1.32092
0.52158 2.625 0.601916
0.210153 1.33293 1.61445
0.361926 0.0225526 2.43313
0.796627 2.83564 0.00673575
0.272592 0.138271 2.25204
0.985794 2.48796 0.557017
0.94487 0.622313 2.55471
0.555205 1.47449 1.14461
2.37143 0.546315 2.61016
0.579473 0.549171 2.47244
1.95928 2.4589 0.0531288
-0.0633753 1.48218 0.769096
1.05318 3.28405 0.312259
1.03998 2.78419 -0.0936676
1.86238 2.80921 0.322467
-0.0218019 0.85345 1.79421
1.13733 2.4531 0.359951
1.00534 -0.155087 2.59972
0.894441 2.88586 -0.0759345
3.01205 1.19881 2.91547
0.877088 1.37088 2.34185
1.21926 1.40613 1.99313
1.76513 2.43502 0.877154
2.50348 1.82269 1.51823
1.68273 3.1117 0.476436
2.25793 1.01731 2.00933
1.45948 1.95469 0.690413
2.56761 1.03423 2.6297
1.197 2.17358 0.932868
0.692011 1.59527 1.2354
1.20786 2.67177 0.901803
0.61261 2.0883 0.791074
2.2571 1.57987 1.98934
2.38058 1.88688 1.55138
1.77741 1.64399 1.95165
1.36867 1.49454 2.65319
2.75697 1.25994 2.55866
1.79198 2.17808 0.656774
0.248591 0.442044 2.35477
1.44541 2.81608 0.187025
2.11264 1.17077 2.00594
1.97967 1.82644 1.56045
2.3854 1.01573 2.19697
0.202864 -0.103231 2.31753
0.251871 2.0299 -0.117766
1.59779 2.0664 2.03028
1.45084 3.17224 0.0880512
2.29186 1.18367 2.20623
1.73508 1.81567 1.59474
2.14472 0.734933 2.80808
1.60504 1.6963 0.751369
0.775018 0.456604 2.73738
2.49521 1.31224 2.78405
0.574983 -0.564038 2.02145
1.2699 1.07487 1.52101
1.08225 2.01832 1.87009
1.16361 1.06273 2.59875
0.317567 2.38925 -0.429996
1.34247 1.09128 1.53013
2.34537 2.2636 0.908044
0.536404 1.38044 0.982322
2.21323 -0.0575759 2.91266
2.0336 1.00483 2.37525
2.17274 1.43391 2.7144
2.61126 0.394868 3.14143
0.751869 2.22825 1.52212
0.465924 2.4006 0.723268
1.50729 2.53193 0.644417
1.9617 1.83823 0.651199
1.75389 -0.185962 2.57593
2.12418 1.80746 1.34464
0.827445 2.94072 -0.299267
0.609307 1.52471 1.75754
0.391753 1.69489 1.61946
0.626154 -0.351558 2.31164
2.18921 1.13621 2.2519
2.18303 2.10777 1.35983
1.04655 0.892453 1.75978
2.34755 2.21067 1.14784
1.6652 2.03858 0.891086
0.869542 1.79888 0.964756
1.46815 1.96345 1.37519
1.8228 0.071918 2.54793
2.56983 2.93068 0.379429
2.77143 0.487802 3.11261
-0.0438111 2.02258 -0.0920249
0.92889 0.373452 2.26197
1.61798 1.93352 0.197536
2.05384 2.0414 0.293217
0.992847 0.593662 2.54544
2.09256 1.94233 0.571778
1.5258 0.0176422 2.4348
1.00882 0.585398 1.99174
-0.147184 1.98257 0.181798
1.75478 2.62381 0.492121
2.55224 0.572666 2.61536
0.305287 0.98736 1.87384
1.1033 2.30118 0.083609
3.43436 0.0908011 2.88609
3.24041 -0.345583 2.97166
3.15019 -0.0609919 2.916
2.17072 -0.312729 2.58136
4.03938 0.666798 3.37806
2.39468 -0.255776 2.79221
3.10569 -0.41677 2.68398
2.28938 -0.762138 2.34485
3.73143 -1.17792 1.69763
3.64297 0.0659405 2.69437
2.39363 -0.0941961 2.75607
3.56459 0.572679 3.29151
3.90902 -0.708785 2.12425
2.96246 0.317377 2.92444
2.69015 -0.448798 2.59649
3.22046 -0.735372 2.43683
3.01821 0.466998 2.95011
3.81939 -0.916851 1.97542
3.12073 -0.921922 2.44779
3.89898 -0.568124 2.31782
2.54399 0.0110529 2.65605
3.56974 -1.0903 1.91803
3.22228 -0.234898 2.54455
2.65089 -0.257235 2.94991
2.92941 -0.878002 2.50735
3.61503 -0.533622 2.45236
3.32168 -0.129619 3.19383
3.45813 0.0446358 2.79457
3.4115 -1.21844 1.4617
3.51963 -0.342963 2.6436
3.57929 0.189117 2.70818
3.58203 0.358943 3.41443
2.86305 -0.036485 3.26786
3.37814 -0.230336 3.01387
2.90141 -0.784178 2.5884
3.60198 -0.537686 2.15605
3.53027 -0.286645 2.20854
2.88281 -1.08435 1.71737
3.73003 -0.427152 2.54902
3.16354 -0.64918 2.72283
3.42999 -0.380558 2.82939
3.56704 -0.65733 2.62845
4.04619 -0.224876 1.88008
4.05575 -0.650158 1.86966
3.5659 -1.02007 1.75639
3.33448 -0.898564 2.2658
3.54783 -0.926041 1.65472
2.89489 0.0942419 2.59114
3.41251 -0.768776 2.29243
3.59603 -0.689101 2.55528
