ply
format ascii 1.0
comment Created by Open3D
element vertex 400
property double x
property double y
property double z
end_header
0.735753 -2.17621 -1.69322
1.36307 -2.39743 -0.0698496
1.4917 -2.5076 -0.599166
1.19492 -2.28565 -1.92239
1.5331 -2.51912 -0.172073
-0.371034 -2.19601 -1.68576
1.49797 -2.47322 -0.207261
0.593778 -2.16733 -0.476077
0.567435 -2.31446 -0.142087
0.342352 -2.25754 -1.56644
-0.0340346 -2.08334 -1.07454
0.738629 -2.31917 -1.62731
1.45763 -2.76981 0.385134
1.3728 -2.31722 -0.980274
1.53688 -2.54505 -0.175472
1.60728 -2.59749 -0.404486
1.29536 -2.10064 -1.78424
0.294898 -2.24025 -2.43643
1.44959 -2.30796 -0.176766
1.28353 -2.3745 0.551847
0.65679 -2.21204 -1.78202
0.0916756 -1.99074 -0.498431
1.41509 -2.22977 -0.723101
0.445487 -2.02727 -0.346894
0.552829 -2.27662 -0.738137
0.669716 -2.56813 -1.52503
1.27284 -2.39778 0.21256
1.12567 -2.52708 -0.424938
0.0573314 -2.11524 -0.166512
0.83462 -2.18654 -0.157202
0.861071 -2.25166 -1.21042
1.33924 -2.60454 -2.03675
0.293154 -2.27485 -0.52505
1.10851 -2.21884 -1.59677
0.297517 -2.1212 -2.57497
0.250151 -1.98433 -1.36635
0.553874 -2.39667 0.0232164
1.15625 -2.13825 0.0390543
0.0138928 -2.28956 -0.896913
-0.515458 -2.29351 -1.93446
0.310964 -1.99641 -0.484461
1.37725 -2.53753 -0.605249
1.47226 -2.49776 -0.31767
0.746455 -2.20673 -1.77854
-0.221676 -2.02116 -2.63322
0.176738 -2.15628 -1.15512
1.03449 -2.28126 -0.822532
1.59877 -2.44927 -0.570407
0.353742 -2.34705 -1.69846
-0.205715 -2.06135 -0.906903
0.791474 -2.34794 0.102873
1.00986 -2.24766 -0.918565
0.868232 -2.17316 -0.957601
0.799973 -2.28935 -1.75004
1.5793 -2.38907 -1.2544
1.40523 -2.63056 -1.28847
1.38789 -2.40104 -1.52289
-0.321108 -1.90779 -1.56079
0.364695 -2.42529 -2.08413
0.34911 -2.07851 -1.43722
0.0467584 -2.06811 -2.25742
1.26804 -2.5328 -1.96344
0.607667 -2.21236 -1.28701
0.902884 -2.21345 -1.52914
0.166122 -2.11106 -1.58896
1.2794 -2.44037 -1.51826
0.192461 -2.06645 -0.659673
-0.119406 -2.34781 -2.59296
0.253231 -2.17838 -0.537
0.36853 -1.94091 -2.12551
0.981848 -2.23113 -0.952193
-0.304309 -1.98845 -1.4508
0.95342 -2.46479 -0.0742145
0.939463 -2.15161 0.390229
-0.0525032 -2.05868 -1.75784
1.25585 -2.58408 -1.44037
-0.437048 -1.96936 -1.00262
-0.355707 -2.09041 -0.795536
0.617009 -2.24908 -0.462651
0.779545 -2.1865 0.109556
-0.112575 -2.10697 -1.57817
0.961023 -2.14934 -0.277577
0.646154 -2.23976 -1.97771
0.366006 -1.96578 -0.870682
-0.570117 -1.99894 -1.71231
0.432882 -2.09737 -0.675324
1.54979 -2.62071 -0.102649
1.29025 -2.27784 0.314413
-0.615289 -2.05746 -0.718553
1.33713 -2.46178 -0.824843
0.563087 -2.04765 -0.938312
1.30249 -2.6606 0.360889
0.674057 -2.47019 0.123482
0.207298 -2.07149 -2.01921
1.53695 -2.40982 -0.0311948
0.533516 -2.23083 0.192437
0.455275 -2.10191 -2.05324
1.51157 -2.58795 -2.07188
0.271025 -1.96237 -1.60511
-0.0440838 -2.33036 -1.90142
-0.17539 -1.94589 -1.59883
0.676647 -2.16623 -0.768173
0.353028 -1.94047 -2.00959
-0.24897 -2.01167 -1.05085
-0.208057 -2.12225 -2.47159
0.565372 -1.80493 -2.29381
0.761506 -2.06887 -0.668028
0.447603 -2.24263 -0.0142525
-0.0419104 -2.01775 -2.82154
0.673586 -2.40736 0.00921359
0.684558 -2.31613 -0.271507
-0.231722 -1.99335 -2.47897
-0.073834 -2.20726 -1.46625
1.0259 -2.49323 -0.838907
0.406462 -2.24235 -2.47269
-0.404783 -1.93179 -2.76439
0.983093 -2.21497 0.228021
-0.150409 -2.13424 -1.69017
0.387249 -2.18047 -0.839415
1.01456 -2.37206 -0.882327
1.14983 -2.45565 0.0649996
1.49973 -2.56297 -1.96431
0.449812 -2.18388 -1.84894
0.355805 -2.14872 -2.06997
0.43062 -2.37972 -1.59235
0.345003 -2.14786 -0.843516
0.533923 -2.34853 -0.174024
-0.449562 -2.10692 -1.54005
1.35911 -2.41852 -1.86018
0.0742816 -2.27929 -1.77348
0.445097 -2.03205 -0.52127
0.912053 -2.59886 -0.204281
0.428349 -1.88751 -2.01514
-0.207888 -1.81059 -2.85541
0.367569 -2.19371 -0.436555
0.210348 -2.18068 -2.33155
-0.562898 -2.10176 -0.766013
-0.359182 -2.10326 -1.30647
1.0895 -2.12911 -1.88643
-0.121781 -1.94214 -2.4591
-0.54131 -2.10044 -2.16188
-0.142913 -2.23414 -0.505068
0.476413 -2.16634 -2.36791
-0.400877 -2.23346 -1.44954
-0.439512 -2.11404 -2.83031
1.23839 -2.38524 0.398903
1.5064 -2.45171 -0.955663
1.33864 -2.63238 0.40297
1.24571 -2.43056 -2.08682
0.000798822 -2.11113 -1.46188
0.29293 -1.97001 -1.82155
0.822074 -2.34926 -1.75042
0.691804 -2.08261 -1.92951
-0.0193686 -2.07729 -0.349687
0.34675 -2.30902 0.00067743
1.46944 -2.44815 -1.79239
1.37986 -2.41845 -0.622678
-0.622324 -2.11834 -2.40964
-0.107049 -2.10832 -0.458717
1.04413 -2.25402 -0.54996
1.11255 -2.29626 -1.48498
-0.0726074 -1.98632 -0.142895
0.264485 -2.10251 -0.844221
0.766748 -2.47759 -1.1986
0.393447 -2.25334 -2.26988
1.59163 -2.62042 0.0412273
1.02735 -2.66676 -1.16639
-0.40514 -1.89511 -0.938378
0.656849 -1.94888 -2.32687
1.67074 -2.54189 -1.64569
1.35152 -2.43104 -0.861599
0.345104 -2.07361 -1.98517
1.25058 -2.7132 -1.08859
-0.13908 -2.25114 -0.434812
1.4504 -2.61317 -1.07309
1.43076 -2.75209 -0.900422
-0.223309 -1.81219 -1.94114
-0.181998 -2.17215 -1.54466
-0.306398 -2.23208 -0.83435
-0.0317253 -2.16169 -0.937984
1.63156 -2.45177 0.180888
1.35317 -2.45318 -0.911153
1.48802 -2.31952 -0.288487
1.53375 -2.3605 -0.896705
0.316746 -2.0256 -2.50777
0.233559 -2.06361 -0.740308
1.24169 -2.37038 -0.594142
-0.150065 -1.83267 -2.38866
0.836276 -1.98109 -2.16941
1.23573 -2.50491 0.152711
1.48261 -2.61323 -1.4194
1.39436 -2.53664 -0.0581644
-0.480463 -2.09738 -1.06892
-0.00401939 -1.98183 -1.17527
1.09977 -2.14547 -1.37712
1.39504 -2.59625 -2.16664
0.391248 -2.52664 -0.260402
1.46037 -2.52354 -0.358218
1.15085 -2.33511 0.205713
-0.353844 -2.00409 -2.97575
0.732957 -2.02504 -0.7185
-0.4766 -2.17691 -1.91441
0.162134 -2.13448 -1.76323
1.20298 -2.52987 0.302915
-0.21702 -2.10317 -2.62167
0.10608 -1.86857 -0.356929
1.25147 -2.12329 -1.43957
1.39641 -2.69816 -1.91861
0.566537 -2.18883 -2.48338
1.13619 -2.26645 -0.684039
-0.646544 -2.15217 -1.83188
0.946406 -2.39415 -0.996656
1.77823 -2.44933 -1.60357
1.2545 -2.57194 -0.578601
0.0915609 -1.95909 -0.544036
0.749946 -2.13636 -2.24523
0.976944 -2.34322 -0.939437
0.506684 -2.05662 -0.472317
-0.164833 -2.13661 -1.63249
1.53742 -2.67657 -0.516745
0.526151 -2.13219 -0.1145
-0.471273 -2.02655 -0.99557
1.1306 -2.32488 -1.6528
1.31127 -2.41465 0.0535602
0.312874 -2.39766 -2.43346
0.895079 -2.13825 -2.29903
0.619585 -2.22373 -0.129312
0.963051 -2.45517 -2.0653
0.337617 -2.0805 -1.93316
0.966693 -2.13285 -1.96519
-0.245737 -2.09177 -0.788435
1.03345 -2.44506 -2.20247
0.681577 -2.316 -0.060697
1.53097 -2.61153 -0.209471
-0.416423 -1.8721 -1.54571
0.979918 -2.11614 -1.15464
0.0801688 -1.95462 -0.573728
0.452501 -2.00574 -2.07923
0.785708 -2.2693 -1.92526
-0.306013 -2.15776 -2.95465
1.29795 -2.48676 -2.15093
0.361816 -2.02812 -2.39019
0.934067 -2.2379 -1.37756
0.381994 -2.09595 -2.33361
0.674515 -2.34793 -0.40834
0.612222 -2.05678 -2.3919
0.171411 -2.12345 -1.54043
0.923185 -2.54336 -1.86996
0.306455 -2.38843 -1.24194
-0.294885 -2.22686 -0.981296
1.37 -2.60148 -1.47997
1.04523 -2.19346 -2.17243
0.344857 -2.11928 -1.05691
0.814656 -2.15457 -2.18793
1.35903 -2.28826 -2.04881
0.551105 -2.0208 -1.17916
0.638652 -2.18412 -0.95008
1.25691 -2.33248 -1.70205
1.63173 -2.45442 0.144693
0.484309 -2.14911 -1.74295
1.26711 -2.2412 -1.0598
0.136378 -2.21659 -0.795924
1.00489 -2.50572 0.0626681
0.1075 -2.2117 -1.69659
0.889087 -2.43215 -0.38356
0.0524295 -1.94559 -2.73719
1.4964 -2.3134 -0.956427
-0.110395 -1.89781 -2.33728
0.50253 -1.86396 -0.310504
0.315965 -2.30899 -2.29831
0.23633 -2.17492 -1.13726
-0.0136942 -1.97744 -2.48097
1.38499 -2.19841 -1.98556
-0.542006 -2.00845 -3.12324
1.18215 -2.49347 -0.885676
1.42469 -2.18655 -1.06664
-0.555105 -1.97099 -2.08806
0.447771 -2.22335 -1.73257
-0.0461858 -2.1964 -1.24098
0.235587 -2.0914 -1.94403
0.132278 -2.25801 -0.662673
-0.366421 -2.04861 -0.487924
1.13956 -2.47407 -0.287051
-0.543726 -2.02345 -1.66084
0.884271 -2.31213 -1.6298
0.45808 -2.21218 -1.24462
1.06933 -1.99927 -1.8662
0.0761046 -2.17047 -1.79923
0.430122 -2.06299 -1.59241
1.3635 -2.56206 0.327084
0.713997 -2.19092 -0.702941
0.900378 -2.1172 -0.297019
1.04843 -2.43798 -1.17791
1.35189 -2.61321 -0.81763
1.35886 -2.17703 0.0418751
-0.294188 -1.89692 -0.995202
0.71594 -2.27919 0.253059
1.03088 -2.3967 -2.08256
0.705521 -2.3501 -1.81495
-0.39548 -2.10085 -2.24657
1.24456 -2.55458 0.0136993
1.21951 -2.49535 -0.537583
-0.220789 -1.92503 -1.94906
0.53992 -2.05112 -1.84626
-0.410561 -1.95425 -2.60704
0.653445 -2.30816 -1.65626
0.182138 -2.13638 -1.88693
1.30389 -2.59924 0.315609
0.0298906 -2.13106 -1.54729
0.517269 -2.11651 -1.53984
-0.177568 -1.8857 -2.48524
1.43144 -2.44711 -0.45061
-0.164155 -2.12843 -1.71433
-0.631119 -2.27793 -0.992037
0.280294 -2.0439 -0.612428
1.15229 -2.18544 -1.06788
0.0683828 -2.29863 -0.250159
0.944062 -2.44357 -2.16516
-0.177093 -1.996 -2.82611
0.956521 -2.31054 -1.92045
1.06602 -2.42828 -1.34652
1.01333 -2.34874 -2.07134
0.200045 -2.1613 -0.742217
1.71438 -2.51845 -1.9009
0.72403 -2.25317 -0.00500972
1.18975 -2.25371 -0.844406
1.38253 -2.21956 0.233757
0.0267844 -1.94437 -0.316737
0.679246 -2.14334 -2.01783
1.15664 -2.2483 -0.203782
1.41884 -2.36959 -1.42338
-0.103663 -2.0301 -1.38114
1.62863 -2.59344 -1.70427
0.173982 -2.10574 -2.66281
-0.363155 -2.18702 -0.683505
-0.138091 -1.9452 -2.00629
-0.20629 -2.00243 -2.75087
-0.272007 -2.09988 -2.38069
-0.441998 -2.01585 -2.00157
1.24553 -2.46304 -0.479953
0.743431 -2.57286 -1.83176
0.795906 -2.35474 0.179547
1.75874 -2.3809 -1.04962
-0.0543591 -2.21853 -1.17544
0.288455 -2.36778 -0.959857
1.06676 -2.49855 -0.815056
1.02108 -2.2411 -0.642935
1.65516 -2.3841 0.11051
0.790127 -2.39956 -1.616
1.54422 -2.6306 0.584904
-0.115991 -1.98595 -0.275238
0.80994 -2.23737 -0.0523272
-0.0965535 -1.76142 -1.46157
1.46014 -2.64273 -1.03908
0.886629 -2.38719 -1.2695
0.0102255 -1.9716 -2.55815
0.0451453 -2.31863 -0.674256
-0.297469 -2.16772 -0.945474
-0.0812362 -2.03277 -0.77154
0.651218 -2.13451 -0.382582
0.233331 -2.32606 -0.0998194
-0.661248 -2.15395 -1.59622
1.33772 -2.3078 -1.44076
0.183392 -2.02253 -2.467
-0.692392 -2.13034 -1.36154
1.27527 -2.13612 -1.99644
0.0196162 -2.05532 -2.42364
1.17682 -2.1785 -0.831858
1.49159 -2.29844 -1.40996
1.5617 -2.58469 0.193923
-0.363028 -2.08294 -1.01251
0.121919 -1.90188 -1.75967
1.13172 -2.28288 -1.89123
0.193823 -2.006 -1.91511
-0.249131 -2.27301 -0.966905
0.314826 -2.16952 -2.17963
0.83882 -2.35761 -1.15861
0.93804 -2.519 -0.0727118
1.42939 -2.67672 -1.2462
0.951648 -2.15931 -0.784253
-0.299139 -2.05708 -0.290968
0.789032 -2.13398 -0.988035
0.114778 -1.92288 -1.88602
1.59135 -2.45855 -1.91382
1.78476 -2.41691 -0.480823
1.46493 -2.54916 -0.389187
1.4795 -2.41318 -0.993995
0.911922 -2.30599 -1.44025
-0.427061 -2.14348 -0.913556
1.47317 -2.6852 -0.588794
0.765978 -2.14825 -2.12228
1.38071 -2.47129 -1.54229
1.34499 -2.46569 -1.00082
1.31449 -2.71302 -0.0154624
1.0038 -2.29444 -0.537376
0.634079 -2.2141 -0.118872
0.753355 -2.1975 -2.27111
0.967046 -2.18409 -0.863371
0.576627 -2.2309 -1.49626
0.69588 -2.47025 -1.67501
