ply
format ascii 1.0
comment Created by Open3D
element vertex 250
property double x
property double y
property double z
end_header
3.45845 0.386804 -0.0155331
1.62313 1.52857 -1.29703
2.02239 -0.968268 -1.08514
2.94566 0.34076 -0.569571
3.07921 -0.766639 -0.415851
2.26174 -0.420573 -0.998659
2.33588 1.00443 -0.910185
2.50992 2.16947 -0.783166
1.2607 1.40796 -1.52782
1.53007 2.52946 -0.750817
2.01147 -1.07026 -1.04077
2.35642 1.28327 -1.10934
2.89867 -0.979101 -0.552057
1.85331 3.15189 -0.157935
2.24364 -0.515731 -1.12745
3.38303 2.14232 -0.234906
2.55726 2.19927 -0.856373
2.70929 -0.163882 -0.673757
1.54295 0.455659 -1.63949
2.91623 2.48261 -0.527913
1.75483 1.58237 -1.33515
2.98482 2.49583 -0.345157
2.51194 -0.264124 -0.633175
1.27787 1.11676 -1.65125
1.08956 2.33788 -0.90033
2.17904 0.642293 -1.08744
2.76001 -0.593144 -0.497925
3.18748 1.37978 -0.34682
2.10028 0.553102 -1.19598
0.941345 2.21105 -0.944993
3.02666 2.86038 -0.290782
2.79846 3.25635 -0.0982036
1.39295 1.42516 -1.45361
2.34953 -1.30289 -0.922673
1.19903 2.03596 -1.12737
1.63135 -1.02755 -1.33494
3.11892 -0.699978 -0.450898
1.76223 3.07153 -0.241589
1.45314 0.783106 -1.81501
3.0762 -0.21853 -0.371397
3.09268 0.112302 -0.371275
2.0138 2.61548 -0.698802
2.0003 0.25554 -1.16343
2.5114 -1.45708 -0.771158
2.75412 -1.22776 -0.820114
1.402 2.2862 -0.881253
1.95188 -2.0339 -1.28127
1.10326 2.44232 -0.732057
2.01142 -0.102631 -1.23423
2.22825 1.20145 -1.16383
2.11303 2.55717 -0.703669
1.69333 -1.60116 -1.37613
1.91762 2.04072 -1.09269
1.31731 2.13796 -1.148
1.93303 1.46643 -1.14411
1.5715 2.53507 -0.750961
1.14938 1.12043 -1.73029
2.14671 0.695008 -1.19978
3.17513 0.724814 -0.289825
2.49061 -1.16501 -0.890907
2.19464 3.23478 -0.137446
1.36819 2.70781 -0.59561
0.801104 1.98767 -1.15047
1.39414 2.77206 -0.491501
2.8354 -0.806059 -0.575833
1.57133 -1.92932 -1.4657
2.29511 1.29222 -1.12816
2.79772 2.45164 -0.570972
3.34989 1.50099 -0.245894
1.67554 -1.77979 -1.35486
2.64793 2.07127 -0.701503
1.82583 -0.762482 -1.14675
2.74275 0.340354 -0.798595
2.27969 2.69196 -0.653466
1.44163 -1.71411 -1.55639
2.71483 0.0465544 -0.737926
1.69485 2.15155 -0.981887
1.76935 3.15838 -0.132199
2.52406 0.264907 -0.832388
1.83215 2.66751 -0.663605
2.22875 2.58977 -0.716394
2.31973 -0.997957 -0.875848
2.4755 2.74301 -0.565452
1.96152 1.99358 -0.992569
3.26056 1.28446 -0.332376
3.09809 2.58664 -0.363693
3.35026 0.302982 -0.139633
2.02054 3.04738 -0.327154
2.99327 3.91056 0.535796
1.64977 -1.79872 -1.41585
2.64535 0.255906 -0.856878
3.15001 0.928003 -0.331307
1.64615 0.562812 -1.51385
3.68936 1.34619 0.144836
1.78175 -1.29658 -1.28795
1.20509 1.83362 -1.29539
2.56189 2.70408 -0.571674
1.46111 1.69569 -1.29802
1.9857 -1.16952 -1.01516
1.51372 -1.47296 -1.47169
1.16686 2.11896 -1.12902
2.10505 0.30743 -1.06964
1.9883 -0.690974 -0.987736
1.34214 0.522979 -1.73422
0.632156 2.0513 -1.0616
2.32135 -1.27431 -0.841752
0.740989 1.7032 -1.43829
2.31104 -0.573664 -0.799847
1.48111 1.97393 -1.13648
1.67142 0.125924 -1.49037
2.67805 2.3338 -0.731195
1.14874 1.84141 -1.27309
3.14459 -0.845845 -0.473409
1.22169 -0.416775 -1.84431
2.63433 -1.02229 -0.513945
2.5261 -1.31527 -0.807189
3.15164 -0.695159 -0.359671
0.98115 0.786867 -1.96242
2.4409 -0.726158 -0.771288
1.0568 2.4461 -0.752324
2.43369 -1.35655 -0.819341
3.36913 2.61903 -0.173451
1.78524 1.44383 -1.22131
2.11606 1.15564 -1.13424
2.89784 -0.0493853 -0.443173
3.25861 0.933473 -0.292389
3.07703 -0.658605 -0.285006
2.82431 1.53889 -0.790356
2.53664 -0.195455 -0.822835
3.01081 2.24569 -0.535478
2.37086 -0.0753758 -0.8305
1.80619 0.221843 -1.36161
2.51394 -0.220769 -0.586824
1.89707 -0.347286 -1.16909
2.99366 1.36954 -0.573688
3.18766 0.909404 -0.350942
2.63733 1.19047 -0.788375
2.17568 1.85775 -0.875085
3.23591 2.16193 -0.367909
2.86204 -0.196305 -0.5573
0.853296 1.67669 -1.45647
2.82949 -0.935145 -0.558463
2.76289 1.45099 -0.821889
2.86712 0.817713 -0.611476
2.90637 1.76236 -0.701959
0.465504 1.93906 -1.1646
1.65049 -1.3178 -1.40838
2.60118 1.12305 -0.664544
2.97965 -1.1543 -0.513362
2.88971 1.69616 -0.702834
2.67084 0.788996 -0.740262
2.52805 2.43279 -0.718028
2.57671 -0.034793 -0.866551
1.13569 2.28442 -0.859664
3.03187 2.30091 -0.468454
0.754198 1.76696 -1.49168
2.10725 0.774269 -1.31816
2.19274 0.842155 -0.952104
1.85303 1.89601 -1.04976
1.84665 -1.71801 -1.29845
2.16928 0.797352 -1.2768
3.29202 0.186085 -0.19395
1.63957 -0.0144245 -1.54655
2.14453 2.9324 -0.451242
2.61436 1.84923 -0.871029
2.81921 2.11561 -0.585908
2.65319 3.07662 -0.271874
2.01813 0.357374 -1.05341
1.87673 -0.532801 -1.11648
2.73671 -0.369718 -0.53984
2.89037 -0.0639674 -0.594664
1.82526 2.46344 -0.910773
2.98007 0.655833 -0.533185
2.44391 -1.63653 -0.931938
1.69148 0.728649 -1.41736
1.59148 0.480797 -1.49813
0.733496 2.10203 -1.07518
2.7925 1.72627 -0.772074
3.10752 0.613319 -0.364639
1.8496 1.00978 -1.45506
3.26813 0.431868 -0.216784
2.70977 0.0345044 -0.674627
2.0125 -0.0420103 -1.17539
2.50872 0.472947 -0.798194
2.03556 2.31833 -0.990949
3.74379 -0.488773 0.0354447
2.8413 3.03723 -0.247094
1.41794 -1.37125 -1.56823
1.46103 1.70552 -1.38981
2.6875 -0.634414 -0.779721
3.04009 -0.440483 -0.46983
1.51502 1.98134 -1.13565
3.0211 -0.128148 -0.469457
1.78659 2.14918 -1.14851
1.68322 1.33576 -1.49873
1.31946 -1.12888 -1.65562
2.9801 -0.489242 -0.420043
2.82375 2.38281 -0.619098
1.26727 0.920695 -1.72592
2.3991 -0.977932 -0.896801
3.08388 3.24505 0.401079
2.61886 3.54791 0.627058
2.81883 3.23532 0.185515
2.10219 2.62248 -0.716757
3.68859 3.74547 0.985859
2.22297 2.92489 -0.408886
2.5933 3.17576 0.286814
1.97728 2.62602 -0.570741
2.29886 3.11227 1.97489
3.19385 3.16886 0.648989
2.3411 2.78671 -0.537382
3.38635 3.47922 0.447913
2.72709 3.30146 1.7821
2.93533 2.96221 -0.179835
2.36764 2.89775 -0.2288
2.43979 3.19009 0.662287
3.04703 2.94086 -0.160895
2.52906 3.25183 1.85586
2.21563 3.30194 0.787338
2.82472 3.38603 1.63178
2.54307 2.65978 -0.553252
2.31476 3.14958 1.57685
2.81711 2.96089 0.218367
2.33891 3.21296 -0.0656906
2.1613 3.22321 0.471559
2.75341 3.30405 1.09405
2.7609 3.70649 0.686327
3.08041 3.18579 0.429619
2.24588 2.63654 1.24552
2.84504 3.31061 0.792964
3.24308 3.07794 0.490482
3.22204 3.75399 0.673712
2.49974 3.56806 0.285717
2.77397 3.5819 0.701341
2.20529 3.23323 0.378824
2.79476 2.9805 0.977099
2.95144 2.82373 0.650442
2.17603 2.43353 0.154483
2.86459 3.40538 1.21155
2.39809 3.43773 0.694204
2.72628 3.50189 0.812549
2.56865 3.58363 1.3042
3.18179 2.80632 1.51061
2.8521 3.09483 1.93241
2.41934 2.90441 1.38296
2.36844 3.20213 0.987957
2.51392 2.71006 1.20008
2.83178 2.67989 -0.303703
2.51082 3.17613 0.957345
2.56749 3.5443 1.35559
