ply
format ascii 1.0
comment Created by Open3D
element vertex 400
property double x
property double y
property double z
end_header
1.19261 1.27123 -2.31259
0.456006 2.46464 -1.26468
0.466144 2.33428 -1.81435
0.919771 1.43594 -2.75014
0.370104 2.56871 -1.46666
1.59183 0.654556 -1.86961
0.414126 2.51357 -1.46453
0.989329 1.75846 -1.20721
0.753178 1.92602 -0.98185
1.18354 1.11079 -2.08982
1.50051 1.12381 -1.42095
0.968128 1.31508 -2.33246
0.115354 2.87732 -1.06242
0.753062 2.03239 -2.00946
0.347289 2.57676 -1.48261
0.369102 2.5394 -1.72481
1.1242 1.54337 -2.57439
1.3458 0.651014 -2.81758
0.578953 2.4569 -1.34392
0.484801 2.74356 -0.673561
1.18018 1.18469 -2.3771
1.50712 1.47246 -0.922536
0.797729 2.16589 -1.76133
1.25836 1.73648 -0.95804
0.882223 1.61446 -1.47579
0.603883 1.34242 -2.34857
0.435232 2.54833 -0.985287
0.362305 2.14996 -1.55168
1.34422 1.64536 -0.678835
0.83047 2.05566 -1.03665
0.946661 1.57993 -1.98624
0.562632 1.53711 -3.05535
0.958679 1.57491 -1.18453
1.01116 1.54523 -2.39649
1.51316 0.565804 -2.8797
1.61783 1.14562 -1.73133
0.653546 2.02 -0.870862
0.783056 2.34147 -0.966015
1.11201 1.24008 -1.4005
1.54892 0.461093 -2.07741
1.38714 1.59455 -1.00529
0.412815 2.25048 -1.79662
0.406683 2.44746 -1.56255
1.15494 1.23715 -2.4072
1.96991 0.272036 -2.65426
1.3119 1.2042 -1.616
0.776869 1.87003 -1.73565
0.544073 2.41719 -1.79672
1.06636 1.05884 -2.25625
1.57994 1.11 -1.19389
0.617813 2.18779 -0.872474
0.851575 1.80687 -1.79107
0.999261 1.69459 -1.7315
1.01295 1.28912 -2.44706
0.751576 2.06848 -2.34901
0.486215 1.97831 -2.43334
0.755908 1.79799 -2.52343
2.00128 0.730119 -1.62614
1.00957 0.883018 -2.63575
1.44096 1.16995 -1.88387
1.74143 0.611551 -2.46142
0.636111 1.5109 -2.93179
1.09537 1.39039 -1.93216
1.05898 1.45229 -2.25601
1.49739 0.998671 -1.95729
0.710105 1.7322 -2.50033
1.35373 1.44629 -1.14668
1.40697 0.361621 -2.83798
1.13096 1.54374 -1.12609
1.76817 0.84203 -2.412
0.888334 1.77214 -1.80067
1.84215 0.793781 -1.58248
0.41324 2.20191 -1.15259
0.845402 2.41071 -0.57414
1.71186 0.798204 -1.9841
0.53777 1.78258 -2.49345
1.82887 0.929215 -1.13365
1.59188 1.08723 -1.05029
0.853186 1.78269 -1.24874
0.845714 2.16748 -0.77848
1.61246 0.847945 -1.83288
0.860132 2.06671 -1.17165
1.16446 1.08174 -2.55827
1.48112 1.43754 -1.34458
1.97008 0.517036 -1.7073
1.19927 1.56984 -1.2761
0.27087 2.64309 -1.45769
0.568502 2.59173 -0.843587
1.76038 0.987331 -0.857132
0.54433 2.10441 -1.93472
1.28642 1.51856 -1.52709
0.182223 2.71562 -0.984579
0.50975 2.15139 -0.867708
1.63009 0.816226 -2.3226
0.453418 2.61289 -1.29584
0.925527 2.09473 -0.622228
1.46679 0.931698 -2.47203
0.580689 1.63443 -3.13916
1.70225 1.04671 -1.9319
1.29619 0.741322 -2.26001
1.9022 0.798894 -1.73701
1.01855 1.66685 -1.49122
1.76859 0.894109 -2.30348
1.69923 1.01384 -1.27397
1.8003 0.369831 -2.57178
1.8557 0.838379 -2.57402
1.11937 1.75822 -1.38653
0.928128 1.93048 -0.779011
1.85309 0.252551 -2.89926
0.580617 2.07677 -0.938735
0.706919 1.92222 -1.14467
2.0122 0.347182 -2.49898
1.40455 0.922555 -1.80828
0.498212 1.88278 -1.8545
1.27717 0.686494 -2.89895
2.19095 0.0974508 -2.64707
0.727384 2.34924 -0.770217
1.61039 0.775979 -1.92822
1.11691 1.46905 -1.44414
0.669774 1.83974 -1.82603
0.386284 2.39951 -1.09867
0.613466 1.68135 -3.02689
1.31613 1.03478 -2.33613
1.44263 0.872414 -2.47057
0.964056 1.15376 -2.21368
1.18742 1.44271 -1.41268
0.718884 1.89341 -1.01425
1.72569 0.673247 -1.66534
0.751176 1.60333 -2.81904
1.302 0.865369 -2.17049
1.2725 1.64915 -1.11231
0.262111 2.12861 -1.31798
1.81503 0.928593 -2.31118
2.25147 0.135125 -2.74903
1.04237 1.65625 -1.09415
1.48375 0.661953 -2.65654
1.67147 0.993197 -0.944247
1.64686 0.833705 -1.49927
1.1487 1.36972 -2.5988
2.03664 0.412997 -2.49984
1.91625 0.333508 -2.15699
1.2556 1.361 -0.960004
1.35899 0.775924 -2.79448
1.48612 0.747552 -1.67611
1.93991 0.0572957 -2.78721
0.461628 2.62737 -0.800114
0.61433 2.16931 -2.09746
0.212299 2.75753 -0.946591
0.733675 1.40233 -2.98669
1.53207 0.964704 -1.78177
1.7236 0.956184 -2.13128
0.921551 1.30774 -2.48721
1.37702 1.12125 -2.45114
1.43193 1.5006 -0.790118
0.893787 1.89533 -0.756775
0.722894 1.7244 -2.81117
0.548042 2.21996 -1.7556
1.96594 0.170131 -2.34754
1.43038 1.39795 -0.866477
0.747901 1.99893 -1.49213
0.893428 1.61336 -2.34007
1.62582 1.58963 -0.531743
1.29486 1.39689 -1.35557
0.636347 1.54562 -2.05884
1.27428 0.793018 -2.71838
0.264237 2.74789 -1.3455
0.364357 1.76098 -2.22072
1.91971 0.974292 -1.05116
1.57783 0.872284 -2.72041
0.672084 1.98124 -2.78929
0.590057 2.09228 -1.95611
1.55735 0.906744 -2.35136
0.323108 1.97136 -2.25088
1.23171 1.40351 -0.907814
0.467429 2.11012 -2.2549
0.289854 2.21009 -2.16441
2.20948 0.607495 -1.93843
1.52428 0.825503 -1.81211
1.35139 1.10022 -1.18115
1.34628 1.19216 -1.34719
0.403196 2.80105 -1.16141
0.57736 2.07505 -2.00966
0.59253 2.43436 -1.45851
0.701338 2.19714 -2.01302
1.65382 0.60838 -2.77637
1.35217 1.42888 -1.23195
0.589827 2.12574 -1.66032
2.21377 0.428762 -2.36745
1.44724 1.05641 -2.67196
0.322438 2.51363 -1.07581
0.544569 1.97101 -2.5631
0.310128 2.52367 -1.33074
1.66068 0.879723 -1.24205
1.67603 1.09122 -1.46377
1.08119 1.6398 -2.16493
0.553379 1.49735 -3.18877
0.526733 1.78494 -1.1253
0.386861 2.42537 -1.6055
0.526056 2.45452 -0.915652
2.0424 0.00906626 -2.89641
1.20932 1.71637 -1.39471
1.71649 0.488729 -2.01228
1.50065 0.916011 -2.11779
0.305161 2.58105 -0.941538
1.84202 0.285321 -2.6899
1.68451 1.5492 -0.737869
1.08998 1.70148 -2.26516
0.492081 1.67133 -3.01086
1.25947 0.754724 -2.9495
0.750805 1.99838 -1.64713
1.78758 0.425428 -1.86159
0.676011 1.74527 -1.90996
0.76839 2.05808 -2.74623
0.350733 2.17826 -1.74958
1.56087 1.44767 -0.945296
1.26405 0.982628 -2.78472
0.728013 1.7858 -1.84614
1.19876 1.7075 -1.10856
1.59769 0.794292 -1.87447
0.30102 2.4525 -1.83508
1.04459 1.90637 -0.843541
1.75512 0.917185 -1.14414
0.875769 1.54536 -2.50712
0.422256 2.49406 -1.14719
1.09782 0.671507 -2.90654
1.17644 1.02527 -2.89595
0.861974 1.95379 -0.944306
0.766033 1.24294 -2.87201
1.54283 0.928804 -2.3068
1.18747 1.25706 -2.62154
1.53739 1.1496 -1.09045
0.751132 1.20637 -3.01717
0.70091 2.03251 -0.9573
0.291359 2.57368 -1.54009
2.07998 0.678318 -1.5569
1.10483 1.66834 -1.91256
1.57636 1.42634 -0.964075
1.62019 0.912409 -2.44177
1.0641 1.18995 -2.58404
1.7928 0.0574332 -2.97875
0.660193 1.41131 -3.09034
1.63355 0.698085 -2.69142
0.987468 1.54594 -2.15016
1.52091 0.743606 -2.68582
0.678452 1.84964 -1.27687
1.43745 0.820485 -2.81689
1.46312 1.02413 -1.92479
0.655421 1.33465 -2.72858
0.906262 1.24292 -1.86979
1.36809 1.03112 -1.31163
0.541736 1.85197 -2.57385
1.05595 1.18916 -2.87077
1.28199 1.3426 -1.5798
1.21144 1.05125 -2.7697
0.865756 1.46432 -2.92816
1.3941 1.40082 -1.71321
1.04613 1.56154 -1.64144
0.852922 1.60301 -2.60079
0.404687 2.78357 -1.19426
1.33898 1.10395 -2.23967
0.866112 1.9103 -2.00265
1.15797 1.3534 -1.32371
0.350773 2.31441 -1.07109
1.38138 0.918163 -2.08097
0.499607 1.99985 -1.38212
1.91274 0.342446 -2.82577
0.761494 2.13197 -2.0293
2.09235 0.480423 -2.37362
1.48628 1.77919 -0.861284
1.2287 0.740441 -2.74083
1.25316 1.24599 -1.63516
1.92616 0.458825 -2.58378
0.965911 1.49884 -2.83808
2.11762 -0.173468 -2.95245
0.509933 1.97022 -1.94936
0.930277 2.00641 -2.03742
2.10015 0.351865 -2.01922
1.23402 1.09132 -2.25622
1.35724 1.04153 -1.62092
1.57351 0.868864 -2.28002
1.07611 1.41889 -1.22871
1.66478 1.24761 -0.749919
0.401252 2.21703 -1.41152
1.91312 0.558024 -1.68665
0.939978 1.40122 -2.38733
1.13565 1.32315 -1.83649
1.33257 1.3543 -2.50623
1.48555 0.852408 -2.13338
1.46944 1.14275 -2.04109
0.268028 2.71179 -0.992046
0.953856 1.72038 -1.46332
0.927995 2.0186 -1.14785
0.652364 1.73518 -2.12423
0.380844 2.15058 -2.00535
0.69885 2.47752 -1.05881
1.8853 1.00979 -1.14581
0.76458 2.2273 -0.670193
0.819432 1.26504 -2.88473
0.963174 1.20645 -2.49818
1.88272 0.377623 -2.28804
0.274567 2.45674 -1.22507
0.425672 2.15736 -1.6656
2.03426 0.610395 -2.00713
1.48592 1.07997 -2.29881
2.15842 0.180792 -2.51717
1.01538 1.24996 -2.31821
1.51431 0.868542 -2.23337
0.232485 2.67354 -0.998314
1.50901 0.942221 -1.87745
1.33766 1.21774 -2.06047
2.15079 0.366404 -2.46944
0.481966 2.34326 -1.63937
1.63117 0.757064 -1.94011
1.44564 0.847922 -1.20931
1.34228 1.51595 -1.12975
0.953304 1.82357 -1.93938
1.04863 1.61274 -0.857215
0.781578 1.17409 -2.94805
1.97025 0.183714 -2.83281
0.951435 1.29661 -2.66857
0.701735 1.66716 -2.27016
0.883892 1.25316 -2.84413
1.2097 1.41243 -1.27325
0.683007 1.86306 -3.02195
0.772476 2.0803 -0.892467
0.80307 1.95908 -1.79699
0.626028 2.59793 -0.920654
1.61074 1.53468 -0.709225
1.2959 1.07201 -2.55604
0.669827 2.23501 -1.23313
0.779315 1.86329 -2.43249
1.68555 0.941521 -1.62603
0.622993 1.93328 -2.85005
1.60404 0.454455 -2.89687
1.44623 1.14908 -0.999699
1.98282 0.630866 -2.10056
1.98542 0.213247 -2.75583
1.8554 0.380662 -2.45383
1.97884 0.461894 -2.01335
0.452045 2.197 -1.60941
0.643647 1.24353 -2.64283
0.614202 2.23524 -0.808701
0.765231 2.30444 -2.22575
1.30979 1.06801 -1.57358
0.881106 1.36293 -1.60977
0.484409 1.9225 -1.85129
0.791214 1.93978 -1.55643
0.47832 2.76565 -1.19977
0.836772 1.35867 -2.3847
0.255263 3.01307 -0.850889
1.63427 1.49026 -0.632693
0.760091 2.10086 -0.961127
2.1345 0.90073 -1.55085
0.434016 2.1411 -2.24237
0.761184 1.58076 -2.11727
1.91977 0.427931 -2.65963
1.0241 1.36943 -1.23533
1.45831 1.04537 -1.24729
1.5512 1.24354 -1.112
1.00356 1.83496 -1.13172
0.923782 1.78212 -0.807654
1.73273 0.525362 -1.65531
0.851262 1.78618 -2.3894
1.74416 0.567096 -2.68008
1.7302 0.616536 -1.4287
1.06663 1.41499 -2.77511
1.78612 0.510313 -2.58915
0.902559 1.94732 -1.74314
0.85744 1.9066 -2.41219
0.272786 2.79213 -1.1866
1.62797 0.972355 -1.23293
1.8968 0.890781 -1.97046
0.93922 1.41399 -2.69675
1.72588 0.8582 -2.19101
1.27154 1.06442 -1.34317
1.43932 0.79533 -2.56078
0.784781 1.59863 -1.98917
0.349009 2.20152 -1.17236
0.439992 2.02908 -2.42571
0.95692 1.82411 -1.60815
1.64104 1.39814 -0.604742
1.08765 1.63057 -1.70585
1.8905 0.827254 -2.08783
0.710726 1.74511 -2.96681
0.610691 2.59928 -1.76287
0.369008 2.42051 -1.64541
0.658751 2.12261 -2.10337
0.908241 1.5089 -2.23111
1.55158 0.990564 -1.15285
0.288027 2.36924 -1.88105
1.2483 1.06207 -2.68726
0.683305 1.7984 -2.57101
0.584123 2.03027 -2.08955
0.126639 2.53096 -1.34754
0.695737 1.98333 -1.48713
0.869367 1.96648 -0.935969
1.1735 0.975399 -2.84123
0.936969 1.79942 -1.69461
1.12583 1.27644 -2.10891
0.769392 1.27908 -2.4363
