ply
format ascii 1.0
comment Created by Open3D
element vertex 400
property double x
property double y
property double z
end_header
1.78089 -2.11343 1.72994
-1.05651 -2.03694 1.81622
1.00477 -2.1827 1.35436
-0.276189 -2.00655 0.526335
1.39603 -2.21817 1.97913
1.29157 -2.35463 1.60943
0.316906 -2.19034 0.386964
0.688521 -2.15029 1.64073
-1.29687 -2.3866 1.59724
-1.80223 -2.15148 1.44358
1.72549 -2.5148 1.16559
0.167078 -2.1441 1.11997
-0.814998 -1.93739 0.991648
-0.935221 -2.08659 1.64054
-0.711384 -2.09802 1.33749
2.26953 -2.41085 1.32963
1.67593 -2.31447 1.378
-1.62846 -2.1476 0.998551
1.13515 -2.275 0.629226
-1.0448 -2.03761 0.780779
0.381434 -2.14954 1.56152
-0.00188169 -2.13159 1.58074
-0.766985 -2.06915 1.35633
0.254248 -2.21372 1.00865
0.946938 -2.36504 0.588235
0.408535 -2.31856 1.59041
-0.451268 -2.17969 0.339495
-0.12302 -2.3189 2.18126
-0.362583 -1.9227 1.05147
0.19226 -2.24084 2.31188
1.64475 -2.44175 1.59108
-0.571004 -1.99256 1.25612
0.118221 -2.06278 0.509126
-0.870607 -2.00488 1.53333
0.0169601 -2.07933 0.663286
0.0277038 -2.13276 0.874261
-0.991942 -2.28504 1.95154
0.36 -2.09923 2.37603
1.39049 -2.20123 1.21217
0.120045 -2.2411 0.38173
-0.58749 -2.01415 0.968344
0.926365 -2.07321 2.28447
-1.21893 -1.91215 1.36657
-0.311045 -1.94531 1.54274
-0.748701 -1.94201 1.83685
0.507873 -2.18825 0.341733
0.497656 -2.1223 2.19278
-0.110848 -1.88301 1.22535
0.175194 -2.29029 2.5422
-0.00663266 -1.94538 1.23072
-1.76944 -2.09252 1.25211
0.233701 -2.12993 0.566051
-1.05833 -2.08508 0.807488
-1.64138 -2.12349 1.56847
-1.3402 -1.91297 1.2174
0.504028 -1.99787 1.85393
1.33259 -2.14386 1.92874
1.59929 -2.45905 1.62827
0.60015 -2.167 0.939973
0.221739 -2.2565 0.638646
-1.40105 -2.06452 0.875637
1.00169 -2.10989 2.14226
0.126438 -1.97941 0.786083
1.93336 -2.24844 1.74818
0.742851 -2.21506 2.16864
-1.28987 -1.97236 1.19258
0.306845 -2.26301 2.29405
0.618646 -2.36874 1.29104
-0.702825 -1.90236 1.3137
0.404957 -2.10349 2.26529
0.0892479 -2.37376 1.91988
0.316556 -2.2938 0.291336
1.08097 -2.45688 1.28541
-1.87463 -2.19654 1.26025
-0.974002 -2.03354 1.57574
1.26511 -2.21381 1.8975
1.60505 -2.30123 1.26851
2.04264 -2.28911 1.25099
-0.164009 -2.14329 1.77142
0.629653 -2.18374 2.16885
-0.227265 -2.31668 1.97985
0.0944642 -2.25518 2.41485
-0.224855 -1.99278 2.18108
0.11795 -2.30067 1.709
-1.0317 -1.99932 1.75303
0.8914 -2.20643 0.873853
1.02377 -2.27481 1.39584
-0.357795 -2.06592 1.88693
1.04281 -2.3281 1.12319
1.42591 -2.35451 1.63629
-0.343299 -2.03895 2.3774
-0.555638 -2.07016 1.41896
0.0420279 -2.0816 0.549132
-1.07435 -2.12499 1.15295
-0.229736 -2.28867 2.03897
1.17696 -2.30032 1.19569
-0.838451 -2.18658 1.62425
1.71908 -2.42102 1.43469
0.743165 -2.24231 2.3027
-0.543935 -1.99343 1.824
0.0476896 -1.91336 2.24764
-0.410897 -2.24571 1.76132
-0.439667 -2.0746 0.654837
1.19104 -2.38789 1.39789
1.40581 -2.60411 0.860078
0.148808 -2.0636 1.99466
-0.998552 -2.12692 1.60144
0.772898 -2.2213 1.9474
0.578145 -2.04318 2.06807
-0.535615 -2.0511 0.693104
0.791431 -2.35433 0.683513
-0.847811 -1.98447 1.63658
-1.12717 -1.85082 1.20733
0.0118196 -1.8983 0.850342
0.520127 -2.23148 2.08175
1.30546 -2.21809 1.77225
-0.900947 -2.13806 1.25161
-1.18172 -2.02962 1.00274
-0.0793523 -2.00383 0.42899
0.933572 -2.18262 2.243
0.242266 -2.08836 0.784873
2.20431 -2.35289 1.30434
-0.766003 -2.09337 1.03241
0.16297 -2.33453 2.67737
-0.352563 -2.38588 2.25241
0.255503 -2.18499 0.158043
0.0290232 -1.9896 1.13328
2.04686 -2.47655 1.36879
-0.397383 -2.15321 2.30727
2.41874 -2.23773 1.48487
-0.277524 -2.2403 2.39486
-0.0118292 -2.36239 2.34514
1.16247 -2.18131 1.52398
0.47445 -2.13687 0.590775
1.4512 -2.24975 1.19598
0.199511 -2.02086 1.36039
0.682877 -2.34804 0.853769
-0.835278 -2.01363 1.48371
1.17285 -2.39866 0.745083
-1.41365 -2.06259 0.941743
-0.748297 -2.00354 0.649141
1.61357 -2.2008 0.988376
0.527991 -2.14776 0.296367
0.59025 -2.192 2.14583
-0.847275 -2.13838 1.80868
-0.974521 -1.94961 0.838706
-1.17484 -1.95603 1.32381
-0.482688 -2.37697 0.107559
-0.752053 -2.00397 1.7259
0.430159 -2.35084 2.08578
2.41909 -2.34293 1.45652
1.39103 -2.20465 1.07376
1.15923 -2.28476 0.691344
0.612215 -2.21668 1.72954
0.16232 -2.1873 0.55108
-1.46186 -1.83768 1.4514
-0.250201 -2.07469 0.420158
1.99034 -2.41281 1.1319
-0.244774 -2.21667 0.223969
1.7631 -2.21063 1.16874
0.930312 -2.23492 1.0287
-0.558409 -2.06592 0.637649
-0.313021 -2.23635 0.2214
0.831076 -1.96581 2.38512
-0.179153 -2.22852 1.14373
1.61666 -2.39796 1.60215
-0.0777934 -2.22994 0.242083
0.178457 -2.29635 2.71653
1.34952 -1.89809 1.70706
-0.502983 -2.06033 0.583853
1.4426 -2.39327 1.07122
1.68401 -2.20082 1.79987
0.565068 -2.2117 0.889521
1.22838 -2.24244 1.13265
0.74247 -2.17157 1.94581
0.74949 -2.32023 1.53139
0.310124 -2.21872 1.73109
-0.386637 -2.09422 2.04702
0.398186 -2.07254 1.02596
-0.676394 -2.08805 1.12029
0.377997 -2.30887 1.38457
-0.284133 -1.95364 1.12565
0.0486198 -1.97089 1.05768
-0.517753 -2.13372 1.68954
0.448093 -2.16921 1.99596
-0.653465 -2.04055 1.66707
-1.51721 -1.93432 1.65373
-1.70132 -2.12853 1.09473
1.02874 -2.20629 0.752712
-1.56286 -1.95729 1.28778
1.64325 -2.09211 1.60712
1.26113 -2.4058 0.749161
0.52959 -2.10997 0.334655
0.608192 -2.20933 2.15512
0.169579 -2.16502 2.31902
0.203531 -2.13579 2.10697
1.14798 -2.18112 2.10877
0.434771 -2.02278 1.57934
-1.43155 -2.06907 1.24708
1.13665 -2.29828 0.722473
1.37169 -2.25968 1.02396
0.101105 -2.21195 1.68614
0.345311 -2.04956 2.25742
-0.568843 -2.03674 0.945769
0.154516 -2.29526 1.93613
0.902373 -2.21646 2.26922
0.347845 -2.11861 2.5413
-0.344459 -2.09608 0.805975
0.705692 -1.98632 1.31855
1.06383 -2.40321 1.80862
-0.231088 -2.1283 0.540624
0.131951 -2.26173 2.37269
-1.02373 -2.10068 1.4738
-1.24777 -1.93201 1.06171
0.745374 -2.01874 0.687164
1.70232 -2.11844 2.0005
-0.792604 -2.03505 1.08337
0.253898 -2.25608 2.69084
-0.899063 -2.30307 1.92217
1.24868 -2.25516 1.07286
-0.175083 -2.0473 2.25208
-0.208866 -1.9462 1.69753
-0.38834 -2.11955 0.368186
0.434088 -2.41643 1.69106
-0.627325 -2.18497 1.20342
0.138946 -2.21067 0.989487
1.49339 -2.23638 1.8853
1.35867 -2.14324 2.08829
-0.704289 -1.91992 1.41302
-0.327707 -2.11301 0.866897
0.250305 -2.14611 1.88492
0.316272 -2.22442 1.81294
-0.484872 -2.11236 0.443493
1.739 -2.23269 1.75754
0.473773 -2.07615 1.9312
1.22895 -1.91738 2.49598
0.450996 -2.08121 2.73747
1.42883 -2.35522 1.09549
0.146694 -2.20693 0.586368
0.242291 -2.02495 1.10191
0.344393 -2.04123 1.77952
-1.2207 -2.16441 1.26861
-0.0421016 -2.43287 2.53402
0.90865 -2.21027 1.70766
-1.01309 -2.15581 1.88451
0.481723 -2.18582 1.64438
0.263667 -2.12712 1.22697
-0.419633 -1.79685 1.31591
1.89761 -2.36375 1.29568
0.218818 -2.07628 2.05106
1.53517 -2.26935 0.987431
0.492333 -2.22645 2.56575
0.43228 -1.815 1.13153
-0.451753 -2.22918 1.27769
0.00643659 -2.32686 2.21448
-0.465312 -2.12763 0.5936
0.688892 -2.16376 2.29495
-0.85156 -2.00037 0.724474
-1.57337 -2.12404 1.04804
0.885197 -2.36977 1.19053
1.95604 -2.40076 1.46573
-0.593816 -2.34796 1.81361
2.10501 -2.33473 1.38003
-0.197081 -2.21367 0.968766
-1.37525 -2.14444 1.24427
0.126356 -2.15222 2.48325
0.721969 -2.23082 1.79467
-0.311923 -2.21732 2.23344
0.396659 -2.21587 1.9419
0.93353 -2.15552 2.28124
0.314981 -2.12386 0.378589
0.97451 -2.04704 1.16477
-0.375736 -2.0987 1.23366
-0.0296177 -2.28994 2.52555
-0.880945 -2.15409 0.589599
0.300912 -2.21219 2.65554
1.06665 -2.31047 0.559419
0.455921 -2.18972 2.60613
-1.39654 -2.09877 1.44959
0.587571 -1.97542 0.835696
0.117218 -1.95138 1.78973
1.50151 -2.36329 1.54148
0.163152 -2.34068 2.15865
0.608618 -2.29168 1.56387
-1.09237 -2.10284 1.60843
1.78455 -2.3835 1.18267
1.47118 -2.06948 1.23971
0.930667 -2.04225 1.08516
-0.0251396 -2.29355 2.06338
-1.43674 -2.24676 1.60938
0.0569253 -2.27784 2.41993
-1.28589 -2.02752 1.8139
1.07752 -2.23573 1.99378
0.232307 -2.21755 1.22175
-0.994312 -2.09392 1.88149
1.71393 -2.35884 1.57076
-0.841497 -1.99821 1.62537
-0.386069 -2.4161 2.21511
0.0890587 -2.36177 0.366558
2.0763 -2.28007 1.32163
-0.694512 -2.00546 1.71537
1.1724 -2.05997 1.34087
-1.11192 -2.09119 1.02077
1.67655 -2.34194 1.00177
-1.10027 -2.05039 1.31897
-0.145612 -2.12526 1.45075
2.1381 -2.44207 1.27162
0.672883 -2.29872 0.958461
-0.757881 -2.03777 1.12235
1.30604 -2.39869 1.22368
-1.41421 -2.20228 0.909725
1.30503 -2.00323 2.305
0.565644 -2.10021 1.82921
0.442796 -2.27471 0.352876
1.10104 -2.22525 1.71409
0.686581 -2.24927 1.47194
0.660711 -2.18107 2.47869
-0.802635 -2.19064 0.55932
-0.700249 -1.95235 0.763997
0.224561 -2.41529 2.48932
2.18587 -2.28102 1.65527
1.65732 -2.58857 1.15029
-1.08293 -2.08157 1.30895
0.673665 -2.27094 0.457757
0.2737 -2.12075 0.740589
0.701189 -2.10324 1.62181
-1.24378 -1.96225 1.52798
-1.29673 -2.1701 1.78562
-1.40717 -1.98131 1.07361
0.373479 -2.28189 1.22239
0.799715 -2.19811 1.71252
0.0496262 -2.23994 2.51673
-0.780162 -2.16222 0.635545
0.0405119 -2.26129 2.37302
-0.149965 -1.96758 0.618753
-0.0874543 -2.09477 2.39486
0.076648 -2.03948 1.54202
-0.583964 -2.00324 1.82109
-0.346155 -1.85758 1.916
-1.90616 -2.1852 1.30096
-0.240997 -2.14608 0.672158
-0.0170785 -2.32373 0.267424
1.30651 -2.542 1.23935
1.16084 -2.39585 1.70229
1.09378 -2.3389 1.51774
-0.0933368 -2.15819 0.724773
-0.579949 -2.13967 0.894663
0.134026 -2.20944 1.76376
-0.514207 -2.28132 1.46652
0.757732 -2.06747 1.88683
0.252459 -2.07867 1.73983
-1.53718 -2.04028 1.41499
0.482449 -2.25342 1.77277
1.6269 -2.24435 1.11481
0.893459 -2.21843 1.9427
1.31871 -2.38124 1.05494
-0.0373668 -2.05215 0.42349
1.81168 -2.22842 1.81909
-1.12793 -2.08883 1.0384
0.883043 -2.05572 0.932629
0.372539 -2.21754 0.601889
0.320873 -1.91013 0.778366
0.712897 -2.1307 1.57602
-0.813071 -1.95529 0.850335
-0.0772445 -1.95195 0.569417
0.695903 -2.15184 1.29761
-0.974 -2.1754 0.602192
1.67764 -2.36099 1.62197
-0.661615 -1.91771 0.940973
0.0148716 -1.93457 1.88184
0.978025 -2.31994 0.517534
1.83697 -2.31926 1.55429
0.0387608 -2.02279 2.03275
1.14738 -2.23349 2.06498
2.37927 -2.34701 1.43828
-1.3091 -2.25431 1.71875
-0.0421599 -1.95217 1.80676
0.842533 -2.12825 2.21732
-0.404992 -2.18153 0.885624
1.41515 -2.32706 1.57301
-0.983518 -2.25388 1.32574
1.47633 -2.41524 1.35925
1.56615 -2.1444 1.16423
-0.843706 -1.95074 1.98849
0.521162 -2.26979 1.51559
-1.25709 -2.16646 0.841223
-0.64421 -1.91912 1.78956
1.79201 -2.3184 1.34932
-0.969184 -1.92887 1.25763
1.1274 -2.25837 1.32552
1.24842 -2.30141 1.82723
-1.30882 -1.97519 1.42488
-0.38075 -2.03327 0.846961
-0.770134 -2.21171 1.9342
1.70523 -2.47281 0.948256
-0.296062 -2.16011 0.799376
1.1935 -2.07522 1.68381
-0.281018 -2.29162 1.84723
-1.21035 -1.91372 1.32091
-0.262813 -1.89807 0.825645
