ply
format ascii 1.0
comment Created by Open3D
element vertex 400
property double x
property double y
property double z
end_header
2.01732 1.16315 -1.74881
0.699585 2.27034 -1.49017
0.976288 2.07916 -1.92014
1.96856 1.1932 -2.28738
0.697232 2.32549 -1.72673
2.08255 0.801962 -1.02301
0.752209 2.27939 -1.69179
1.21833 1.74118 -1.01993
0.801111 1.91049 -0.97141
1.82089 1.0849 -1.51499
1.83004 1.24113 -0.808176
1.7416 1.18516 -1.87264
0.135619 2.65956 -1.56787
1.4263 1.80513 -1.8849
0.673716 2.32998 -1.75194
0.81569 2.26565 -1.93912
2.16838 1.31537 -2.08064
2.36552 0.59001 -1.94514
0.910763 2.25287 -1.50468
0.428962 2.6127 -1.04534
2.01607 1.08363 -1.7852
1.62734 1.60849 -0.473923
1.37931 1.95432 -1.69054
1.40757 1.78778 -0.684976
1.20091 1.57354 -1.25591
1.27177 1.19058 -2.04726
0.52357 2.38899 -1.28163
0.674571 1.96374 -1.689
1.28689 1.79312 -0.379451
0.983712 1.99761 -1.02354
1.57747 1.45452 -1.65821
1.66267 1.21796 -2.72581
1.10443 1.60721 -0.960791
1.89749 1.35294 -1.97441
2.61373 0.513631 -1.90508
2.18051 1.20204 -1.03244
0.611481 2.00753 -0.94301
0.951435 2.23159 -1.06291
1.34178 1.31599 -0.987472
2.09482 0.612804 -1.16524
1.56407 1.67625 -0.631122
0.885049 2.01011 -1.90467
0.783481 2.2093 -1.76072
2.0167 1.11651 -1.83668
2.96263 0.366847 -1.43264
1.72859 1.25405 -1.07896
1.27863 1.72024 -1.59551
1.0834 2.15313 -1.8949
1.75303 1.00766 -1.69314
1.78632 1.28103 -0.574605
0.617368 2.13214 -1.00727
1.39481 1.66346 -1.59406
1.52888 1.59212 -1.44927
1.86505 1.144 -1.94532
1.60473 1.78278 -2.18559
1.26666 1.69224 -2.34355
1.66854 1.52918 -2.25975
2.49563 0.924733 -0.661944
1.86234 0.79534 -1.99465
2.05006 1.18204 -1.24559
2.6361 0.656399 -1.45847
1.69101 1.21884 -2.58201
1.69121 1.32441 -1.49562
1.85346 1.30909 -1.80725
2.11649 1.04087 -1.23631
1.58129 1.47877 -2.24099
1.56406 1.53379 -0.725123
2.35979 0.374618 -1.85379
1.28574 1.60273 -0.82888
2.71733 0.838805 -1.47063
1.44093 1.63584 -1.57714
2.27848 0.974649 -0.709495
0.52305 2.07922 -1.339
0.790445 2.37446 -0.716613
2.35196 0.894394 -1.11178
1.34614 1.51935 -2.32058
2.02476 1.16585 -0.366463
1.69945 1.29601 -0.438695
1.07016 1.74618 -1.11991
0.863133 2.14097 -0.825077
2.14492 0.956819 -1.03758
1.11131 1.97961 -1.13076
2.08126 0.966699 -1.91922
1.85457 1.49192 -0.839867
2.44466 0.743966 -0.684857
1.48233 1.5929 -0.937356
0.558451 2.39044 -1.78006
0.633538 2.45186 -1.11623
1.76257 1.27025 -0.171924
1.11477 1.87092 -1.92799
1.73587 1.50828 -1.10246
0.178168 2.5326 -1.4305
0.447492 2.10692 -1.03733
2.46347 0.835072 -1.44372
0.732559 2.3886 -1.55817
0.828197 2.13004 -0.634313
2.38319 0.882304 -1.67488
1.75241 1.28253 -2.81699
2.38366 1.09182 -1.14157
1.9605 0.777206 -1.50907
2.45134 0.951821 -0.818675
1.40524 1.61629 -1.22659
2.66114 0.902265 -1.39124
1.96603 1.19649 -0.566209
2.70855 0.454095 -1.4601
2.95794 0.795851 -1.57446
1.50106 1.71062 -1.11976
0.895443 1.96721 -0.723021
2.98168 0.286055 -1.68979
0.578161 2.03222 -1.04872
0.847192 1.86984 -1.13085
2.93718 0.460002 -1.30163
1.88113 1.00799 -1.12544
0.973182 1.70118 -1.81795
2.34491 0.593788 -2.05502
3.2027 0.242947 -1.28406
0.747768 2.27925 -0.918807
2.17846 0.883676 -1.10015
1.4479 1.4793 -1.08842
1.17909 1.677 -1.70962
0.494803 2.24691 -1.35857
1.7371 1.34328 -2.71941
2.12562 0.98369 -1.65
2.33009 0.83777 -1.66676
1.62002 1.08385 -1.72649
1.51302 1.46883 -1.02403
0.766028 1.87791 -1.00454
2.14069 0.861494 -0.795865
1.8038 1.3149 -2.46274
1.95108 0.888843 -1.46473
1.49967 1.68955 -0.787602
0.398317 1.98682 -1.5241
2.74045 0.92753 -1.38833
3.37927 0.243776 -1.35892
1.18284 1.69065 -0.870634
2.44145 0.64058 -1.75045
1.7034 1.25246 -0.286403
1.98276 1.01259 -0.731485
2.17272 1.17589 -2.04272
2.99285 0.509349 -1.31101
2.58894 0.516418 -1.04271
1.27236 1.51163 -0.579597
2.41221 0.687138 -1.95562
1.85413 0.905293 -0.927288
2.94283 0.175424 -1.4991
0.45817 2.49112 -1.13251
1.29973 1.90292 -2.0552
0.20459 2.57425 -1.39678
1.85049 1.11662 -2.55964
2.04424 1.05124 -1.06069
2.50873 0.984042 -1.2789
1.77131 1.14783 -2.0235
2.31002 1.02576 -1.74865
1.43975 1.65968 -0.398244
0.815282 1.94825 -0.707518
1.77559 1.41702 -2.50057
1.0457 1.9934 -1.8049
2.72446 0.356206 -1.13981
1.45662 1.56548 -0.435785
1.13224 1.86357 -1.43457
1.71891 1.41476 -1.99405
1.54104 1.79641 -0.117304
1.60433 1.45063 -0.916367
1.19846 1.40279 -1.84155
2.2461 0.717205 -1.92958
0.500274 2.49707 -1.71498
0.964232 1.54016 -2.15395
2.10755 1.22011 -0.269865
2.69846 0.777764 -1.82797
1.71084 1.64123 -2.5714
1.18619 1.85873 -1.92383
2.41533 0.893597 -1.52512
0.951599 1.7097 -2.25408
1.21567 1.55576 -0.556293
1.16655 1.82892 -2.23465
0.885248 1.92461 -2.25824
2.92183 0.78052 -0.808363
2.01038 0.939605 -1.05055
1.4685 1.26893 -0.656746
1.60181 1.30096 -0.829005
0.610935 2.56868 -1.51465
1.19353 1.83618 -1.97018
0.985693 2.21669 -1.59086
1.3811 1.93985 -1.9544
2.7451 0.573816 -1.76853
1.61156 1.50261 -0.79455
1.03798 1.93188 -1.68019
3.14724 0.556139 -1.12646
2.54504 0.924316 -1.89305
0.411212 2.34394 -1.39669
1.41164 1.6678 -2.42805
0.539055 2.30763 -1.62337
1.85372 1.10022 -0.516697
2.07668 1.21605 -0.761752
1.87641 1.47312 -1.77212
1.7293 1.15716 -2.83413
0.543332 1.7678 -1.15009
0.774823 2.18425 -1.79966
0.589107 2.32805 -1.15791
3.15166 0.112278 -1.53797
1.61247 1.68096 -1.07704
2.28339 0.654054 -1.04626
2.19431 0.946787 -1.34982
0.31349 2.42648 -1.30638
2.81807 0.365236 -1.52091
1.76472 1.7134 -0.26125
1.96284 1.5028 -1.87197
1.5453 1.3421 -2.75247
2.38627 0.6289 -2.12647
1.22269 1.83644 -1.5662
2.26986 0.636935 -0.868693
1.21335 1.58782 -1.75274
1.8345 1.71205 -2.51552
0.767058 1.95558 -1.87086
1.70661 1.58666 -0.463992
2.34668 0.84008 -2.04623
1.25624 1.63276 -1.68741
1.41793 1.73125 -0.83205
2.13474 0.907381 -1.0644
0.765754 2.17592 -2.03807
1.09643 1.93447 -0.72387
1.92877 1.15222 -0.403064
1.77846 1.32921 -2.12627
0.591525 2.31449 -1.41142
2.09682 0.578524 -2.13201
2.32465 0.841193 -2.19214
0.933471 1.94197 -0.901345
1.78414 1.0157 -2.40253
2.37399 0.919142 -1.49898
2.20966 1.08515 -2.0144
1.67372 1.3318 -0.514226
1.85287 0.954142 -2.52437
0.745761 1.9953 -1.00228
0.622541 2.31919 -1.82331
2.54447 0.901091 -0.554587
1.767 1.54295 -1.55311
1.73289 1.56714 -0.467647
2.56268 0.879484 -1.57876
1.99407 1.04076 -2.01425
2.88285 0.124184 -1.72756
1.81363 1.10266 -2.68206
2.68524 0.661228 -1.72871
1.71869 1.39951 -1.77246
2.54258 0.693971 -1.78397
0.872599 1.78595 -1.2365
2.55732 0.713361 -1.95564
2.05961 1.06484 -1.23001
1.5609 1.1163 -2.35025
1.36373 1.21489 -1.47999
1.55565 1.18895 -0.743022
1.40184 1.56504 -2.40644
2.18421 0.972068 -2.26662
1.70947 1.36437 -1.09977
2.28476 0.894566 -2.07466
2.01978 1.17523 -2.47206
1.95438 1.38799 -1.18391
1.50171 1.50824 -1.31453
1.81533 1.35694 -2.23245
0.628469 2.54873 -1.53743
2.11605 1.05666 -1.57676
1.55379 1.71016 -1.79815
1.38956 1.41885 -0.934114
0.408987 2.18478 -1.32584
2.01608 0.950156 -1.36904
0.734283 1.87685 -1.44439
3.04229 0.371191 -1.62682
1.46325 1.88429 -1.9255
3.00411 0.589936 -1.19747
1.66173 1.84887 -0.517623
2.18195 0.671897 -1.95305
1.67629 1.27906 -1.13219
2.91802 0.520338 -1.44341
2.11234 1.22101 -2.3624
3.23683 -0.036758 -1.5032
1.05491 1.75737 -1.91826
1.67788 1.78366 -1.82758
2.75528 0.564044 -0.851838
1.98377 1.03946 -1.63166
1.74086 1.13247 -1.01774
2.37793 0.881226 -1.44576
1.2396 1.48523 -0.905055
1.63837 1.48925 -0.19294
0.662824 2.04263 -1.571
2.36829 0.777079 -0.702641
1.75947 1.24046 -1.95595
1.66758 1.29306 -1.37721
2.36105 1.18704 -1.88157
2.16447 0.895045 -1.35153
2.17579 1.13171 -1.3614
0.310963 2.52464 -1.40092
1.31806 1.65997 -1.24495
1.17477 1.94938 -1.0682
1.29737 1.54284 -1.94358
0.931611 1.89608 -2.06903
0.921981 2.32005 -1.21583
2.13156 1.22661 -0.376123
0.685897 2.21389 -0.78124
1.87412 1.02993 -2.39766
1.80708 1.06864 -1.98698
2.63732 0.523073 -1.1823
0.421579 2.26982 -1.52933
0.823094 1.95278 -1.76207
2.73313 0.762009 -0.942231
2.34177 1.03182 -1.55921
3.09456 0.33504 -1.20864
1.77821 1.13947 -1.82213
2.26988 0.888217 -1.4303
0.257007 2.49266 -1.41047
2.0656 1.01444 -1.14651
2.03725 1.17874 -1.45504
3.11129 0.484649 -1.22348
0.913356 2.11181 -1.76674
2.20715 0.86803 -1.09624
1.5315 1.07742 -0.569385
1.56053 1.58896 -0.735232
1.61767 1.65448 -1.68325
1.00278 1.71797 -0.649045
1.84015 0.944934 -2.4427
3.06555 0.25607 -1.56284
1.924 1.10254 -2.16452
1.43051 1.46511 -2.02918
1.93526 1.02961 -2.33245
1.44446 1.47577 -0.885569
1.85216 1.4975 -2.73533
0.814524 2.04742 -0.929778
1.36664 1.78163 -1.66183
0.763747 2.4415 -1.16059
1.63807 1.7082 -0.262954
2.25543 0.963067 -1.85952
0.931844 2.09441 -1.31053
1.66104 1.59857 -2.18987
2.14298 1.07141 -0.855036
1.66793 1.59128 -2.63078
2.71052 0.42979 -1.84994
1.48631 1.35048 -0.473388
2.72904 0.756794 -1.05032
3.03796 0.298381 -1.49776
2.70743 0.489977 -1.33789
2.62139 0.64493 -0.92892
0.83595 1.99474 -1.71383
1.47277 1.06034 -2.25594
0.580055 2.18394 -0.966702
1.58401 2.00163 -2.13801
1.65755 1.1597 -1.00447
1.20782 1.35568 -1.30055
0.960374 1.73336 -1.83194
1.21291 1.80708 -1.4551
0.734362 2.53239 -1.50688
1.60828 1.20465 -1.98504
0.232088 2.80965 -1.36516
1.59554 1.69655 -0.173407
0.851072 2.04691 -1.00039
2.67376 1.07571 -0.589161
1.1168 1.8567 -2.24617
1.40597 1.42479 -1.84903
2.9539 0.478562 -1.50326
1.15775 1.44533 -0.918441
1.63832 1.21677 -0.653481
1.73741 1.39754 -0.553992
1.21236 1.81526 -0.970471
0.854457 1.85263 -0.706757
2.1027 0.750223 -0.742479
1.7243 1.54367 -2.10185
2.77957 0.571227 -1.63469
1.9877 0.863879 -0.574065
2.19375 1.16862 -2.24277
2.74968 0.553425 -1.52151
1.46767 1.78471 -1.57061
1.76576 1.63821 -2.15183
0.434993 2.55887 -1.58752
1.83243 1.17099 -0.548919
2.61444 0.975492 -1.0483
1.95544 1.18766 -2.22695
2.51862 0.898252 -1.30157
1.45864 1.20343 -0.820449
2.36092 0.760089 -1.72426
1.36888 1.46235 -1.73409
0.445598 2.07441 -1.38263
1.20278 1.73626 -2.36985
1.43464 1.71351 -1.39745
1.54576 1.63873 -0.119212
1.61349 1.55107 -1.37194
2.66016 0.903463 -1.13419
1.8542 1.40466 -2.64524
1.17362 2.3147 -1.88697
0.769068 2.17427 -1.83982
1.35838 1.86358 -2.0291
1.65091 1.35293 -1.86498
1.68301 1.19956 -0.516855
0.763627 2.09794 -2.06043
2.27917 0.923634 -1.99059
1.59275 1.52121 -2.33079
1.23691 1.78728 -2.02341
0.287369 2.31194 -1.71557
1.05594 1.8504 -1.44784
0.941927 1.95354 -0.894646
2.25929 0.81982 -2.13104
1.45169 1.67792 -1.47322
1.805 1.20477 -1.60276
1.52847 1.13071 -2.03542
