ply
format ascii 1.0
comment Created by Open3D
element vertex 250
property double x
property double y
property double z
end_header
2.04062 2.31827 -1.39348
2.61 0.418891 -0.121099
0.988194 2.09518 -0.561598
1.80714 1.39641 -2.13368
1.2972 2.73896 -1.15178
1.32999 1.70581 -1.11235
2.43277 1.29541 -0.425241
3.06197 0.323621 -1.25719
2.4396 0.155298 -0.0556551
2.77786 -0.623881 -0.88101
0.971442 2.34148 -0.208445
2.4547 0.469041 -1.64238
1.1541 2.77522 -0.974695
2.86759 -1.16693 -1.88572
1.17387 1.38372 -1.75865
3.15262 0.880633 -1.91448
2.85216 -0.36113 -2.56411
1.547 1.86229 -1.39425
1.85735 0.569251 -0.833293
3.22039 0.146443 -2.00784
2.52486 -0.0163817 -1.0947
3.46574 0.906554 -0.7408
1.59371 2.34285 -0.272696
2.34742 0.405728 0.077425
2.46007 -0.941092 -0.872872
2.11415 1.17562 -0.739433
1.39548 2.6437 -0.550975
2.71618 1.46064 -1.32332
2.00663 1.0125 -0.98042
2.45822 -0.652476 -0.207239
3.51549 0.275742 -1.58837
3.52397 -0.212006 -1.68434
2.55222 0.417984 0.201574
0.833812 2.50963 -0.781079
2.55388 -0.401404 -0.357284
1.00514 2.13452 0.189723
1.14608 2.16672 -2.20272
2.79373 -1.23074 -1.91566
1.917 -0.188991 -1.6785
1.56939 2.2466 -1.45476
1.75888 1.9662 -1.63348
3.02499 -0.391196 -1.2212
1.85895 1.40296 -0.418615
0.905611 3.13592 -0.109401
0.848696 2.31486 -1.7971
2.77416 -0.204984 -0.122268
0.422454 2.86076 -0.17049
2.58827 -0.65297 -0.279504
1.52112 1.28381 -1.0469
2.41207 0.538889 -1.36596
3.08882 -0.165538 -1.04268
0.520142 2.14932 -0.527856
2.77165 -0.19805 -1.25618
2.48601 -0.871928 -1.32206
2.65731 0.714111 -0.223706
2.79883 -0.606505 -0.91591
2.31282 0.275743 0.0843016
2.08678 0.865283 -1.17613
2.25563 1.8755 -1.27762
0.882835 2.29642 -1.27901
3.25223 -0.569587 -1.29331
2.6307 -1.08724 -1.28582
2.41987 -0.450995 0.207057
2.73592 -0.854795 -0.849522
1.2063 2.52079 -1.13583
0.416314 2.56477 0.110105
2.46846 0.487994 -1.48453
3.25793 0.306516 -1.52634
2.74349 1.31093 -1.77403
0.5236 2.58552 0.108827
3.08257 0.626169 -1.06716
1.23863 2.25932 0.335316
1.72665 1.00838 -2.44778
2.97626 -0.747052 -2.27704
0.436083 2.08642 -0.287975
1.63455 1.52452 -1.78197
2.83066 -0.0478958 -0.480553
3.05636 -0.655476 -0.78516
1.84647 1.52376 -1.18069
2.942 -0.56939 -1.17865
3.07258 -0.34895 -1.54931
1.02197 2.36581 -0.662728
3.07837 -0.597013 -2.30656
2.87916 0.270223 -0.538002
2.51546 1.17261 -2.09761
3.40045 0.471914 -1.64304
1.89687 2.05107 -1.76629
3.02913 -0.851869 -1.67999
3.90677 -0.00802732 -1.04701
0.419035 2.31086 -0.364176
1.73033 1.17479 -2.04883
2.39952 1.73265 -1.26184
1.98702 0.756062 -0.57502
2.73031 1.9574 -1.42958
0.72629 2.04485 -0.554995
2.48551 -0.341074 -0.448637
3.1138 -0.477252 -2.27985
2.60114 0.10921 -0.220977
0.974852 2.613 0.224798
0.619904 2.07118 -0.190936
2.44233 -0.836559 -1.0147
1.91309 1.48847 -0.406661
1.31964 2.42204 0.396901
1.99795 0.733748 -0.0767579
2.29916 -0.681731 0.131552
0.924256 2.78151 -0.210797
2.24308 -0.592126 -0.208573
1.34402 2.30774 -0.294669
2.68066 -0.112049 -0.38816
1.6857 1.01168 -0.6402
3.01105 -0.173712 -2.3051
2.5341 -0.18561 -0.0558649
1.13088 2.40865 -1.9581
1.30285 1.04948 -0.308659
1.2352 3.24245 0.305463
0.895253 2.74642 -0.692185
1.34999 2.74554 -1.19935
2.04941 0.160017 -0.158857
1.21688 2.31151 -0.694957
2.50475 -0.864392 -0.58124
0.889109 2.8518 -0.376434
3.40784 0.531577 -2.01567
2.6425 0.700906 0.00438595
2.44594 0.813487 -0.714563
1.71941 2.22896 -0.966662
2.29259 1.46206 -1.9587
1.4557 3.05109 -0.473958
2.59783 0.433606 -2.31666
1.49634 1.70238 -1.38978
3.11732 0.363541 -2.03678
1.65503 1.88971 -0.611615
1.78517 1.13951 -0.560666
1.65918 2.4632 -0.0136491
1.44757 1.78461 -0.202046
2.62525 1.06752 -1.67444
2.30999 1.51558 -1.74849
2.52499 1.11767 -1.10621
2.96336 0.816365 -0.0803265
3.11151 0.639571 -2.05186
1.53576 1.98216 -1.50285
2.37476 -0.297567 0.113089
1.17587 2.75647 -0.836144
2.58867 0.593812 -2.0024
2.25876 1.41458 -1.41697
2.76048 0.406414 -2.28009
2.16652 -0.804164 0.095017
0.673692 1.87431 -0.637955
2.57942 1.57331 -0.297098
1.14904 3.15768 -0.612698
2.7708 0.583293 -1.99623
2.24741 1.38016 -1.13855
3.13403 -0.00631138 -1.61985
1.55175 1.40645 -1.82112
2.68144 -0.264553 0.233101
3.25103 0.63839 -1.5156
2.03674 -1.30077 -1.46525
2.0734 0.525891 -1.62313
2.37046 1.51823 0.0688933
2.83137 0.34918 -0.296705
0.478932 2.33231 -0.607071
2.0936 0.546621 -1.67724
1.81542 2.07104 -1.74594
1.54918 0.936101 -0.869974
3.034 -0.808978 -1.92391
2.84337 0.338665 -1.75581
3.15535 0.768398 -1.08083
3.36086 -0.361027 -1.86943
2.06275 1.80031 0.379217
1.3935 2.1401 0.275146
1.50292 2.36785 -0.762569
1.52949 1.61482 -2.07902
2.7291 -0.946733 -2.04539
2.10526 1.4484 -1.75217
0.73018 2.93541 -0.530383
2.17829 0.952131 -0.125089
2.05695 1.15021 0.158547
2.21552 -1.06011 -0.691052
2.78722 0.514694 -1.9032
2.144 1.78958 -1.42699
2.20282 0.268141 -1.3524
2.00299 1.96268 -1.62433
1.69124 1.77073 -1.34233
1.60912 1.43673 -0.708938
2.03805 1.57725 -0.82774
2.79033 -0.688548 -2.08547
1.51683 2.91229 -1.78949
3.39271 -0.258551 -2.06211
0.649495 1.84107 -0.314414
2.46323 -0.360613 -1.06331
1.13499 1.78291 -2.00918
1.27522 1.92052 -2.225
2.68159 -0.141603 -0.495036
1.49013 1.75918 -2.14053
2.64682 -0.742346 -1.90123
2.33434 -0.107259 -1.3796
0.852671 1.73066 -0.054889
1.43755 2.50927 -1.09035
3.04272 -0.132015 -2.45409
2.16901 0.317876 -0.271572
0.992636 2.18586 -1.11088
3.17027 -0.527855 -2.89194
3.05308 -0.952851 -2.56262
3.14145 -0.72409 -2.75292
2.78045 -1.05774 -2.60402
3.68549 0.0658528 -2.4206
2.94455 -0.9901 -2.41644
2.85846 -1.02892 -3.00637
2.51243 -1.45666 -3.14903
1.7032 -1.32784 -3.45585
3.01103 -0.475155 -3.12541
2.97505 -0.83788 -2.47208
3.60018 -0.100995 -2.38283
2.22006 -0.965462 -3.29094
3.25081 -0.392499 -2.57553
2.79419 -1.12833 -2.99702
2.5469 -1.24527 -3.19654
3.30791 -0.239345 -2.51716
2.02275 -1.13621 -3.32747
2.46474 -1.41583 -3.0157
2.43225 -0.885481 -3.18997
2.95975 -0.715451 -2.74218
1.94615 -1.35057 -3.40292
2.82856 -0.827109 -3.25575
3.0567 -0.967242 -2.32672
2.54386 -1.43521 -2.97898
2.59806 -0.968764 -3.20002
3.27487 -0.763269 -2.29681
3.08925 -0.553048 -3.0049
1.599 -1.44964 -3.97244
2.83026 -0.861617 -3.09463
3.06445 -0.376838 -3.09975
3.61023 -0.307548 -2.21282
3.32005 -0.741203 -1.86587
3.12671 -0.831302 -2.58917
2.63941 -1.37 -2.90573
2.38719 -0.934676 -3.54912
2.53254 -0.741845 -3.57804
1.94599 -1.54961 -4.03856
2.6964 -0.858504 -3.10289
2.76509 -1.20503 -2.77657
2.94142 -0.931912 -2.80388
2.65138 -1.09262 -2.83158
2.21479 -0.465307 -3.66882
2.032 -0.829016 -3.52194
1.87657 -1.28083 -3.69431
2.33463 -1.32373 -3.2688
1.85203 -1.19576 -3.88475
2.95926 -0.579743 -3.03088
2.40752 -1.20163 -3.31758
2.58325 -1.10232 -2.90217
