ply
format ascii 1.0
comment Created by Open3D
element vertex 250
property double x
property double y
property double z
end_header
3.04489 -0.477277 -0.985839
0.666247 -1.55305 -1.54225
2.0536 -1.35823 -0.170905
2.2934 -1.05953 -2.0307
3.08226 -0.815798 -0.306108
1.99519 -1.34499 -0.945022
1.62915 -1.2346 -1.15963
1.21595 -1.20608 -2.57751
0.310507 -1.74995 -1.59051
0.165838 -1.05217 -2.60053
2.15553 -1.28172 0.244178
1.27931 -1.54334 -2.57196
2.98682 -0.921967 -0.110518
0.203005 -0.555931 -3.55011
1.87391 -1.52538 -1.55673
2.11422 -0.772186 -2.72502
1.00857 -1.38838 -3.83984
2.36555 -1.07781 -1.11864
0.81837 -1.93625 -1.71722
1.42499 -1.04456 -3.26654
0.59889 -1.68201 -2.47816
1.74959 -0.763585 -1.98947
2.41242 -0.927423 -0.0252581
0.439521 -1.86448 -1.34617
-0.229365 -1.15959 -2.6243
1.52381 -1.4209 -1.34211
2.77761 -0.826422 0.0423431
2.30451 -0.809079 -1.78291
1.41427 -1.543 -1.58089
-0.221508 -1.13759 -1.97525
1.51011 -0.783389 -2.97107
1.1511 -0.574806 -3.24417
0.49723 -1.66636 -1.30087
2.51644 -1.23214 -0.0174209
0.0371613 -1.36169 -2.06096
1.75799 -1.52041 0.36179
2.90544 -0.938545 -1.33512
0.119859 -0.634765 -3.58732
0.408492 -2.18159 -2.82101
2.81487 -0.803019 -0.913473
2.66607 -0.824657 -1.28798
0.566629 -1.07425 -2.86354
1.54009 -1.45007 -0.868351
2.8921 -1.03572 0.813215
2.73848 -1.24547 -0.884436
0.2367 -1.11218 -1.83476
2.43718 -1.50501 0.7537
-0.115958 -0.941867 -2.04649
1.57174 -1.56651 -1.25836
1.21949 -1.56445 -2.31441
0.718777 -1.07439 -2.64745
1.91957 -1.61382 0.0515163
0.604671 -1.46683 -2.76094
-0.0574655 -1.47131 -3.01206
1.019 -1.43141 -1.46294
0.198789 -1.05926 -2.6298
0.292387 -1.93354 -1.40658
1.36824 -1.56941 -1.84754
2.57988 -0.732354 -1.29203
2.52278 -1.25416 -0.526478
0.616249 -0.524706 -2.98775
-0.100705 -0.908798 -3.0303
-0.248005 -1.30151 -1.5846
-0.00106929 -0.770506 -2.60566
2.82003 -0.956145 -0.393883
2.01993 -1.63952 0.783252
1.23729 -1.54483 -2.45181
1.39216 -1.03988 -2.84369
2.36346 -0.757197 -2.19596
2.08913 -1.5374 0.764409
1.44553 -1.11826 -2.27123
1.91386 -1.33761 0.462343
1.98282 -1.30211 -2.48058
0.629459 -1.13643 -3.82235
1.71311 -1.75586 0.20576
2.2035 -1.17915 -1.64692
0.497572 -1.27141 -2.08846
0.31232 -0.436037 -2.53427
2.00571 -1.21637 -1.31273
0.380196 -1.0171 -2.86748
0.730566 -1.1389 -3.12584
2.39432 -1.17708 -0.0819392
0.819667 -1.06756 -3.80207
0.815047 -1.31064 -2.00321
2.28619 -0.859165 -2.4193
1.66579 -0.865497 -2.87516
2.87745 -0.622903 -1.36351
0.407239 -0.731196 -3.35886
1.33989 0.10304 -2.69126
1.9752 -1.63446 0.300582
1.97491 -1.32075 -2.10495
2.4651 -0.775756 -1.43438
0.952006 -1.79779 -1.46053
2.91692 -0.354435 -1.50732
1.90016 -1.5387 -0.105561
0.0697341 -1.54057 -2.10776
0.924684 -1.07989 -3.74183
0.419458 -1.54876 -1.76853
2.25089 -1.21717 0.718938
1.72377 -1.67195 0.199729
-0.142209 -1.41242 -2.72915
1.64775 -1.36288 -0.821772
2.09512 -1.18477 0.58767
0.698644 -1.95788 -1.14434
-0.434047 -1.199 -1.67366
2.59419 -1.10159 0.53258
-0.332323 -1.62204 -1.95601
2.29464 -1.07678 0.0279727
0.335941 -1.40062 -2.00913
1.14915 -1.77249 -1.22429
1.14862 -1.25263 -3.59739
0.0833573 -1.48158 -1.74577
3.02707 -0.942935 -1.02344
0.894515 -2.06041 -0.838032
2.97048 -0.756323 1.08104
2.74018 -1.12237 0.165166
3.13054 -0.769531 -0.353187
0.163257 -2.17097 -1.57365
2.42389 -1.08793 -0.208409
-0.220558 -0.981656 -2.34711
2.71637 -1.10066 0.462367
1.90379 -0.72368 -3.09216
0.90183 -1.47907 -1.30374
1.24552 -1.47131 -1.6836
2.63535 -0.825611 -0.63811
2.46036 -0.799857 -2.04429
3.18401 -0.629057 0.324405
1.6014 -1.31458 -3.10832
2.17165 -1.21495 -1.20451
1.60875 -1.0596 -3.13057
2.08982 -1.14869 -0.59167
1.28876 -1.64749 -1.11914
2.45242 -0.860187 0.212832
1.71822 -1.41739 -0.301857
2.00111 -1.05298 -2.25813
2.4217 -0.837126 -1.87798
1.76562 -1.19386 -1.79338
1.1904 -1.17177 -1.39284
1.90436 -0.907039 -2.96202
2.53993 -0.979468 -1.1095
-0.158601 -1.62695 -1.63291
2.92235 -0.911885 -0.0250628
1.62253 -1.3154 -2.78834
2.13469 -1.04928 -1.70788
1.61966 -1.23213 -3.1554
-0.585266 -1.29033 -1.71951
1.73507 -1.65707 -0.256532
1.92578 -0.997543 -0.938355
3.21025 -0.858497 0.371377
1.67863 -1.20824 -2.85328
1.96809 -1.14185 -1.53446
1.08004 -1.17299 -3.04307
2.06159 -1.30084 -1.72447
0.0384209 -1.0356 -1.53574
1.71297 -0.952756 -2.64277
-0.57415 -1.77704 -3.18815
1.19158 -1.7248 -2.38399
1.6276 -1.22278 -0.64442
0.774546 -1.33893 -1.7664
2.12468 -1.55207 0.120614
1.24453 -1.69251 -2.41601
2.85752 -0.669874 -1.30925
1.12153 -1.84286 -1.38346
0.505988 -0.889531 -3.55952
1.34343 -1.34039 -2.86595
1.62331 -1.01683 -2.22074
1.00623 -0.752084 -3.41993
1.68001 -1.27767 -0.130939
1.86805 -1.32019 0.284585
2.61717 -0.888363 -0.323519
2.40627 -1.06817 -1.74389
0.248237 -1.33688 -3.67714
2.27395 -1.00171 -1.85329
2.78705 -1.22553 0.438499
1.03018 -1.67027 -1.08933
1.06091 -1.71785 -0.728764
-0.498558 -1.28765 -2.45913
1.56908 -1.26408 -2.84032
2.51432 -0.812929 -1.41126
0.853166 -1.82535 -2.4012
2.74931 -0.686628 -1.37036
2.29411 -1.07857 -1.19791
1.62038 -1.48041 -0.951477
1.97475 -1.15599 -1.10257
0.490773 -1.44181 -3.63151
3.62906 -0.466429 -0.717967
1.18238 -0.759182 -3.52902
1.54276 -1.77444 -0.0485026
0.248506 -1.7095 -2.60569
2.40402 -1.22442 -1.44911
2.71308 -0.957079 -1.54504
0.348508 -1.41152 -2.10691
2.58182 -0.954272 -1.66954
0.305696 -1.56366 -3.47987
0.539811 -1.86255 -2.68607
1.37 -1.84032 -0.0273726
2.88032 -0.810832 -0.445115
1.27489 -1.1628 -3.68131
0.430804 -1.96438 -1.58687
2.38311 -1.24178 -0.508549
1.35099 -0.175811 -4.0339
0.875053 0.125848 -3.87348
1.0635 -0.363052 -4.06076
0.409496 -1.20848 -4.14446
1.97039 0.399852 -3.49698
0.512482 -0.89104 -3.97486
0.843478 -0.253268 -4.23815
0.22453 -1.08584 -4.5913
0.900326 1.50225 -3.73077
1.51034 0.0550433 -4.04686
0.64618 -1.03843 -3.98967
1.65596 -0.122556 -3.63728
1.23258 1.26751 -3.73593
1.23417 -0.736609 -3.90425
0.610554 -0.762033 -4.3725
0.741336 0.138526 -4.24131
1.3687 -0.723147 -3.80795
1.06672 1.36235 -3.72946
0.533438 0.303096 -4.11279
1.27708 1.10721 -3.76358
0.84872 -1.09357 -4.13463
0.815379 1.08915 -3.92253
1.09459 -0.362112 -4.33308
0.608023 -0.543558 -3.86804
0.442463 -0.0162547 -4.21134
1.10964 0.554681 -4.0285
1.01198 0.190836 -3.67302
1.35897 -0.153284 -4.08544
0.778387 0.716684 -4.31563
1.14475 0.239687 -4.08624
1.56304 -0.111374 -4.04433
1.46357 0.13707 -3.55777
0.786891 -0.164706 -3.44854
1.02889 0.185043 -3.8537
0.472768 -0.111865 -4.1939
1.19442 0.407962 -4.20261
1.33153 0.0525821 -4.28379
0.52026 -0.414693 -4.85993
1.22391 0.671563 -3.92055
0.679028 0.203572 -3.99994
1.00339 0.290722 -3.94781
0.925366 0.81524 -3.78023
1.75721 0.919392 -3.84506
1.43713 1.39782 -3.71451
0.922914 0.858846 -4.12551
0.730426 0.479312 -4.14794
1.01984 0.647821 -4.26304
1.13789 -0.88501 -4.23048
0.867165 0.429889 -4.17028
0.940271 0.864233 -3.7923
