ply
format ascii 1.0
comment Created by Open3D
element vertex 400
property double x
property double y
property double z
end_header
2.26196 -1.77756 0.405871
0.752652 -2.55688 0.712498
1.20532 -2.5824 0.887558
2.44768 -1.95843 0.852353
0.829076 -2.70301 0.860905
1.9208 -1.59737 -0.648441
0.882745 -2.63392 0.843116
1.10076 -2.03491 0.0940686
0.595699 -2.30708 -0.0108383
1.89848 -1.85107 -0.00184268
1.62481 -1.65005 -0.396306
1.9834 -1.99403 0.369935
0.0893147 -3.12722 0.651817
1.71001 -2.22914 0.872326
0.807744 -2.73551 0.859367
1.02711 -2.74903 0.947427
2.632 -1.75151 0.964642
2.65669 -1.62334 0.0863873
1.0144 -2.42163 0.828323
0.277095 -2.63739 0.547905
2.25912 -1.79351 0.337062
1.30612 -1.67352 -0.344239
1.60673 -2.17971 0.892521
1.1847 -1.83418 -0.037958
1.14806 -2.12114 0.0721589
1.48539 -2.35507 0.23923
0.470612 -2.60733 0.585168
0.753923 -2.62418 0.515165
0.867797 -1.90354 -0.452694
0.870102 -2.17727 0.270803
1.74909 -2.0197 0.437896
2.23134 -2.37152 0.938126
0.898829 -2.11664 -0.205466
2.25113 -1.92038 0.735318
2.9359 -1.43204 0.134215
2.1421 -1.49015 -0.0643471
0.358563 -2.44769 -0.0658748
0.893949 -2.20676 0.555435
1.132 -1.99751 -0.418103
1.95386 -1.64851 -0.768248
1.32388 -1.73183 -0.139017
1.08474 -2.61394 0.775187
0.935792 -2.63789 0.830161
2.29091 -1.80332 0.422566
3.08538 -1.15735 -0.331369
1.63054 -1.77654 -0.199002
1.41385 -2.18217 0.538614
1.33297 -2.51869 0.995698
1.87815 -1.94887 0.0105022
1.47075 -1.62345 -0.579673
0.426566 -2.44325 0.15745
1.54318 -2.10836 0.536321
1.63225 -1.9736 0.423472
2.15822 -1.93457 0.452235
2.02171 -2.27351 1.09098
1.64829 -2.56707 0.881766
2.10168 -2.2146 0.949212
2.28906 -1.226 -0.561928
2.10022 -1.97197 0.0623216
2.07701 -1.62718 0.0211938
2.76184 -1.35892 -0.142338
2.21494 -2.28547 0.875372
1.78942 -1.90368 0.217465
2.11772 -1.89613 0.532111
2.11789 -1.60125 -0.13653
1.98145 -2.25699 0.838402
1.33366 -1.76836 -0.239398
2.54491 -1.65188 -0.305657
1.05782 -1.96822 -0.222317
2.91692 -1.27526 0.169175
1.58695 -2.07308 0.518192
2.05895 -1.37116 -0.578284
0.448814 -2.5966 0.313585
0.553775 -2.25236 0.293801
2.30897 -1.44185 -0.308688
1.72382 -2.46185 0.774435
1.6398 -1.42688 -0.766336
1.29994 -1.65795 -0.744618
0.965783 -2.15798 0.0976642
0.653402 -2.21945 0.178126
2.04041 -1.5446 -0.401561
1.07171 -2.12043 0.415926
2.37614 -1.78788 0.350681
1.73233 -1.60889 -0.0234665
2.19773 -1.27597 -0.7935
1.34991 -1.85784 -0.0149972
0.677099 -2.84866 0.844282
0.552188 -2.47062 0.611292
1.23964 -1.57295 -0.996197
1.35537 -2.45701 0.785814
1.71261 -1.74739 0.157037
0.0953463 -2.97591 0.534126
0.214865 -2.59014 0.0176527
2.58653 -1.45003 -0.0260823
0.826791 -2.59532 0.866998
0.500802 -2.23938 -0.0778484
2.61326 -1.53823 0.208541
2.38372 -2.36014 1.10879
2.41051 -1.40353 -0.00515972
1.98879 -1.79936 -0.333526
2.31065 -1.29652 -0.426024
1.39303 -1.97911 0.215933
2.82256 -1.29542 0.137062
1.66702 -1.51121 -0.589391
2.80137 -1.33618 -0.363161
3.27131 -1.09813 0.409761
1.48367 -1.88024 0.301052
0.599173 -2.20304 -0.129894
3.23228 -1.16252 -0.130376
0.375832 -2.48514 0.0478271
0.721953 -2.30637 0.119521
3.00965 -1.14669 -0.358691
1.77469 -1.72442 -0.401117
1.12485 -2.46738 0.489371
2.69106 -1.6456 0.197763
3.28502 -0.968005 -0.467319
0.580844 -2.32004 0.347224
2.09126 -1.54871 -0.426435
1.35023 -1.92893 -0.0506018
1.32969 -2.28974 0.510011
0.446264 -2.63943 0.479589
2.33209 -2.34555 1.08644
2.30724 -1.69871 0.156414
2.53182 -1.58034 0.107176
1.7495 -2.03522 0.0611812
1.3971 -1.87305 -0.0835689
0.560209 -2.34166 -0.0447023
1.90419 -1.49211 -0.726397
2.32365 -2.16658 0.969525
1.98484 -1.78025 -0.229923
1.32412 -1.80245 -0.0132342
0.354075 -2.74461 0.266344
2.9266 -1.23496 0.220079
3.55528 -0.827635 -0.241317
0.972659 -2.03566 -0.131821
2.66325 -1.53997 0.0019138
1.21796 -1.63659 -0.948191
1.7193 -1.56035 -0.674403
2.59488 -1.7359 0.779604
3.09651 -1.10151 -0.246942
2.47515 -1.31253 -0.720762
0.886889 -1.96515 -0.615228
2.74732 -1.57317 0.263565
1.62627 -1.70396 -0.718831
3.04754 -1.20321 -0.527168
0.338566 -2.62027 0.526804
1.62081 -2.42183 0.965424
0.119935 -2.95071 0.567641
2.40177 -2.12859 0.895119
1.95284 -1.60125 -0.31193
2.60041 -1.36729 0.0460589
2.07738 -2.02137 0.460996
2.59351 -1.58588 0.418439
1.04148 -1.80019 -0.48988
0.480094 -2.27419 -0.241771
2.31027 -2.22852 1.05644
1.24639 -2.45331 0.805321
2.64716 -1.26433 -0.764494
1.05888 -1.80377 -0.56291
1.19993 -2.21332 0.513275
2.04927 -2.05158 0.706506
1.04932 -1.69327 -0.554346
1.45346 -1.79195 -0.150835
1.35497 -2.32394 0.301298
2.52881 -1.69557 0.152126
0.591411 -2.88168 0.861885
1.20809 -2.61955 0.502653
1.70991 -1.34265 -0.730703
3.07278 -1.31783 0.473094
2.26058 -2.38782 1.20211
1.43891 -2.40821 0.811132
2.58182 -1.48937 0.0993177
1.24192 -2.71547 0.690373
0.812526 -2.00257 -0.625793
1.50521 -2.59886 0.895934
1.17677 -2.81843 0.822468
2.83589 -1.01312 -0.394415
1.87964 -1.63364 -0.485217
1.11323 -1.86126 -0.720332
1.37107 -1.79527 -0.429878
0.675302 -2.70155 0.914777
1.46004 -2.42527 0.815288
1.12975 -2.4131 0.878367
1.69245 -2.31905 1.00168
3.04507 -1.31295 0.161383
1.41766 -1.75431 -0.187823
1.1879 -2.38443 0.68165
3.20941 -0.95516 -0.262445
2.94487 -1.43032 0.613007
0.36706 -2.73181 0.536716
1.84823 -2.51773 0.977101
0.602176 -2.74356 0.710552
1.48315 -1.58447 -0.823378
1.89643 -1.48542 -0.332851
2.16313 -1.86772 0.709391
2.35508 -2.34549 1.01247
0.324138 -2.54417 -0.203184
0.934756 -2.66083 0.819528
0.495023 -2.50642 0.484396
3.3236 -1.04353 -0.400955
1.59294 -1.80041 0.290208
2.13853 -1.49383 -0.711127
2.24109 -1.59145 -0.119355
0.215311 -2.78786 0.477597
2.94755 -1.27657 -0.345182
1.39634 -1.53155 -0.327484
2.31587 -1.84527 0.866383
2.09589 -2.51546 0.953304
2.79457 -1.60686 0.362765
1.35527 -2.20922 0.617126
2.04134 -1.45009 -0.879063
1.37202 -2.28298 0.458055
2.4028 -2.28619 1.31629
0.926174 -2.6577 0.649183
1.3945 -1.61876 -0.331165
2.7491 -1.61418 0.511018
1.40665 -2.23098 0.488855
1.25522 -1.8611 0.033041
2.02811 -1.56381 -0.449027
0.987896 -2.8201 0.881804
0.850111 -2.04757 -0.0174563
1.53489 -1.50254 -0.811358
2.16162 -2.05557 0.74265
0.595948 -2.60149 0.641777
2.4096 -1.84999 0.0713397
2.80036 -1.64059 0.657074
0.735884 -2.19336 0.0551179
2.23399 -2.1232 0.619869
2.52448 -1.50929 0.0830764
2.61029 -1.70354 0.674501
1.31415 -1.68432 -0.641498
2.36753 -2.09659 0.709598
0.55981 -2.34781 0.0847926
0.764259 -2.8118 0.844567
2.29694 -1.16336 -0.647107
1.95301 -1.86196 0.569376
1.42405 -1.60359 -0.336642
2.78876 -1.3955 0.229076
2.32819 -1.8664 0.469072
3.0811 -1.27303 -0.389806
2.40321 -2.19807 0.942348
2.96797 -1.34738 0.185672
1.95654 -1.97083 0.534189
2.82339 -1.45825 0.182575
0.78381 -2.31938 0.124067
2.94371 -1.44779 0.418832
2.05224 -1.63217 -0.141086
1.94737 -2.27584 0.5344
1.36168 -2.1128 -0.109474
1.2444 -1.82479 -0.6863
1.82319 -2.4831 0.88344
2.68072 -1.76627 0.768515
1.64436 -1.77985 -0.0466531
2.69621 -1.6631 0.559969
2.59373 -1.96575 1.02633
1.98397 -1.64653 0.186307
1.52363 -1.95296 0.203084
2.25405 -2.07202 0.867478
0.702738 -2.69708 0.919789
2.27889 -1.68036 0.180359
1.82072 -2.09659 0.800556
1.19107 -1.9411 -0.302279
0.315266 -2.68585 0.332842
2.03477 -1.70829 -0.196294
0.720518 -2.47618 0.305996
3.29811 -1.0978 -0.0389543
1.77738 -2.24 0.985447
3.07357 -1.06614 -0.245607
1.43286 -1.62095 0.0433947
2.44856 -1.75194 0.0715973
1.59793 -1.81926 -0.148812
3.07341 -1.17108 -0.147906
2.67272 -1.86205 1.06001
3.38128 -0.983668 -0.557949
1.26635 -2.47148 0.64287
1.99277 -2.03816 0.960989
2.60511 -1.14553 -0.718605
2.13852 -1.78172 0.129348
1.58668 -1.76989 -0.405787
2.49402 -1.50149 -0.0143618
1.00845 -2.02915 -0.334313
1.14138 -1.65477 -0.793326
0.707819 -2.58684 0.518846
2.12009 -1.32765 -0.781031
2.05205 -2.00711 0.509382
1.7014 -1.88742 0.0696633
2.76036 -1.55757 0.784026
2.19266 -1.61762 -0.202814
2.27011 -1.58238 0.123898
0.256648 -2.85117 0.617881
1.30515 -2.03651 0.236734
1.11602 -2.06087 0.367971
1.53747 -2.31025 0.571628
1.17952 -2.65824 0.766547
0.933767 -2.28806 0.738028
1.78945 -1.35266 -0.6175
0.415323 -2.35772 0.0765079
2.34944 -2.05229 0.69878
2.08939 -1.98863 0.360218
2.59789 -1.31897 -0.57026
0.420905 -2.76972 0.555539
0.958344 -2.56357 0.626456
2.66199 -1.17204 -0.413463
2.54209 -1.52814 0.268071
3.13175 -1.02898 -0.501259
1.99638 -1.95738 0.295867
2.35612 -1.56853 -0.0825048
0.18813 -2.89068 0.555688
2.00863 -1.6142 -0.275789
2.15624 -1.6884 0.188124
3.19538 -1.00467 -0.284644
1.08663 -2.53718 0.822303
2.12029 -1.53172 -0.434771
1.10123 -1.82543 -1.01426
1.3483 -1.76493 -0.15852
1.84566 -2.00433 0.705134
0.631919 -2.15143 -0.466092
2.31209 -2.08624 0.619627
3.26087 -1.09799 -0.254189
2.32103 -1.95412 0.621588
1.71837 -2.25788 0.614958
2.39848 -1.98693 0.690437
1.24955 -1.88716 -0.238798
2.49029 -2.31578 1.28724
0.623025 -2.27956 0.129375
1.55563 -2.15814 0.693624
0.733005 -2.38922 0.722667
1.23489 -1.62881 -0.424276
2.5648 -1.65083 0.407617
0.947104 -2.30304 0.569376
2.07565 -2.19803 0.970021
1.9835 -1.48493 -0.406708
2.22222 -2.43839 1.16043
3.00815 -1.36545 0.0331415
1.06162 -1.81487 -0.78814
2.70502 -1.20257 -0.330675
3.19946 -1.11283 -0.294933
2.74895 -1.31079 -0.433037
2.49367 -1.24904 -0.633367
0.962873 -2.53687 0.649143
1.79077 -2.29929 0.353103
0.368181 -2.46646 0.148412
1.99627 -2.31886 1.2299
1.48627 -1.81611 -0.427574
1.12553 -2.14913 -0.163854
1.11915 -2.48486 0.52316
1.2954 -2.16945 0.50784
0.823789 -2.60126 0.961914
1.87204 -2.11696 0.400602
0.152025 -2.99424 0.732376
1.12735 -1.66118 -0.575037
0.703639 -2.26513 0.221272
2.50685 -1.0814 -0.334664
1.44984 -2.64542 0.893691
1.61278 -2.19752 0.443137
3.14064 -1.15392 -0.112162
0.902996 -2.09455 -0.427493
1.31004 -1.74784 -0.68229
1.42934 -1.6382 -0.475976
1.08772 -2.0205 0.141199
0.506468 -2.25471 -0.337691
1.80989 -1.50848 -0.927896
2.11615 -2.10447 0.909447
3.01338 -1.28332 0.0285881
1.6212 -1.52602 -0.987225
2.71638 -1.7597 0.971036
2.90983 -1.30038 -0.140525
1.64388 -2.0565 0.695059
2.19642 -2.11434 1.0513
0.476352 -2.86819 0.818781
1.48866 -1.59927 -0.717526
2.61828 -1.24982 -0.111842
2.40353 -1.95068 0.788469
2.60163 -1.37707 -0.0413173
1.16593 -1.90339 -0.654205
2.57938 -1.57801 0.0805525
1.52934 -2.17725 0.387812
0.368796 -2.66769 0.287582
1.58061 -2.63722 0.888169
1.52205 -2.01032 0.479662
1.01524 -1.71376 -0.761594
1.69298 -1.89786 0.360957
2.69638 -1.24855 -0.10413
2.46188 -2.23116 1.18722
1.44881 -2.50466 1.16279
0.938653 -2.68663 0.822878
1.68056 -2.36066 0.954088
1.90305 -2.04711 0.508674
1.29464 -1.69376 -0.805263
0.987573 -2.81204 0.830707
2.65194 -1.65563 0.504903
2.03102 -2.30142 0.930492
1.52405 -2.41892 0.818146
0.318184 -2.97326 0.591597
1.11018 -2.26665 0.465148
0.745945 -2.18489 0.0692426
2.67592 -1.69532 0.505802
1.56639 -2.02754 0.500768
1.94684 -1.87299 0.215086
1.78111 -2.18678 0.305939
