ply
format ascii 1.0
comment Created by Open3D
element vertex 250
property double x
property double y
property double z
end_header
-0.0269848 2.43182 -1.93527
-1.84675 0.826776 -1.11287
-0.0174171 0.603043 -2.49527
-1.02215 2.08032 -2.3046
0.439072 1.68732 -2.5626
-0.540697 1.05652 -2.41425
-1.0852 1.33592 -1.5119
-2.16905 1.99955 -1.12908
-2.03907 0.475123 -1.14952
-2.47545 1.44915 -0.331444
0.273601 0.500491 -2.41975
-2.08372 1.64148 -1.83517
0.505723 1.42765 -2.63753
-2.80505 2.29273 0.0257699
-0.929166 1.12916 -2.70915
-1.74783 2.88522 -1.32542
-2.9179 2.33003 -1.51341
-0.446734 1.58545 -2.33368
-1.79326 0.536994 -2.04111
-2.43142 2.60751 -1.1675
-2.38469 1.14348 -1.42032
-1.60173 2.41015 -0.746144
0.183904 1.18301 -1.97758
-1.87241 0.324945 -1.36567
-2.59631 1.08193 -0.314009
-1.19765 1.15635 -1.82437
0.463326 1.36523 -2.23042
-1.0634 2.38037 -1.54506
-1.37978 1.103 -1.97086
-2.2456 0.779244 -0.173322
-2.23466 2.76295 -0.751411
-2.45301 2.83832 -0.312456
-1.81386 0.522259 -1.08877
0.343251 0.825892 -2.75606
-2.29188 0.843936 -0.570145
0.0763459 0.0721251 -2.33478
-0.171118 1.97499 -2.83291
-2.86536 2.19227 -0.039372
-2.64362 0.708794 -2.17487
-0.0629806 1.92233 -2.32927
-0.38279 2.06264 -2.21754
-2.5278 1.8562 -0.579665
-0.879537 0.841341 -1.90473
0.981058 0.774052 -2.63446
-0.0274313 1.37388 -3.09427
-2.06659 1.06907 -0.302535
0.7358 0.106213 -3.04295
-2.20732 1.03868 0.00547926
-1.01347 0.881714 -2.29532
-1.9689 1.45499 -1.78484
-2.37094 1.8516 -0.619779
0.0886255 0.1201 -2.85676
-2.52504 1.49703 -1.1285
-2.8471 1.1705 -0.831164
-1.63047 1.07766 -1.20905
-2.48582 1.48309 -0.358541
-1.97912 0.217598 -1.35753
-1.57082 1.21391 -1.97509
-0.532075 2.2147 -1.80725
0.0577664 1.08023 -2.85682
-2.44209 2.37157 0.0515598
-2.71556 1.5675 -0.138264
-2.09982 0.452176 -0.270353
-2.43394 1.53345 0.0670801
0.261634 1.46668 -2.57713
0.53326 -0.231637 -2.87064
-2.04278 1.56142 -1.77546
-2.23329 2.39345 -1.03821
-1.24435 2.65944 -1.59987
0.557139 -0.0865839 -2.76455
-1.88919 2.03975 -1.13891
0.190331 0.294589 -2.12217
-1.44822 1.94712 -2.45468
-3.01088 2.311 -0.900073
0.057977 -0.188431 -2.86484
-0.851121 1.7136 -2.37657
-2.16514 1.2502 -0.684677
-2.2415 1.98246 0.359817
-0.832949 1.47187 -2.09764
-2.56198 1.76917 -0.423032
-2.63433 2.0477 -0.796201
0.224163 0.878077 -2.52487
-2.92714 2.48071 -0.914275
-2.01811 1.37239 -0.921952
-1.36284 2.59651 -1.80689
-2.11633 2.71621 -0.99329
-0.303363 2.38936 -2.10814
-2.73077 2.24053 -0.192941
-1.95574 3.22403 0.557807
0.263713 -0.0136613 -2.92307
-1.26297 1.74555 -2.39458
-0.711099 2.23213 -1.72221
-1.59246 0.611851 -1.88083
-0.509076 2.89002 -1.46384
-0.0346222 0.293561 -2.68976
-2.34693 0.748037 -0.825846
-2.86719 2.51105 -0.976204
-2.0624 0.801589 -0.972129
0.582943 0.362398 -2.33033
0.0356566 -0.0732871 -2.69331
-2.70041 1.01022 -0.673821
-0.795514 0.950914 -1.8572
0.361416 0.457068 -2.0319
-1.59193 0.211312 -1.79414
-2.15111 0.427076 -0.101598
0.682889 0.708431 -2.52595
-2.3916 0.328113 -0.70451
0.182603 0.923338 -2.16212
-2.19269 0.994022 -0.760207
-1.29111 0.538462 -2.10748
-2.73138 2.42177 -1.34879
-2.14528 0.628967 -0.680212
0.0446186 1.88147 -2.87615
-1.18547 -0.0906385 -2.33879
1.15707 0.96099 -2.18215
0.552042 0.949827 -2.74163
0.435501 1.7827 -2.53244
-2.12765 -0.0014523 -1.6753
0.145346 1.06988 -2.37943
-2.39731 1.07975 -0.0579344
0.707053 0.80218 -2.64721
-2.08324 3.05208 -1.05953
-1.60823 0.897983 -1.14873
-1.60522 1.22838 -1.56846
-0.0447626 1.71249 -2.09098
-1.00915 2.4858 -1.91462
0.830902 1.59936 -2.24166
-2.19133 2.27718 -1.86563
-0.605636 1.41516 -2.37519
-2.26013 2.60427 -1.34611
-0.341687 1.15396 -2.04733
-1.16304 0.674382 -2.01001
0.329706 1.15005 -1.85819
-0.378779 0.568496 -2.10151
-1.49719 2.25994 -1.712
-0.956557 2.36212 -1.88437
-1.37244 1.77791 -1.64588
-1.51968 1.39469 -0.896581
-1.99422 2.78496 -1.37679
-0.331781 1.74007 -2.36423
-2.19142 0.298154 -0.711108
0.521098 1.36212 -2.55153
-2.01309 2.12757 -1.82555
-1.04669 1.96352 -1.88656
-2.22633 2.41005 -1.7198
-2.23129 0.268476 -0.160317
-0.208407 0.183425 -2.74646
-0.805541 1.58905 -1.36775
0.873576 1.35436 -2.64764
-2.03869 2.3121 -1.67559
-1.05442 1.72049 -1.83214
-2.47737 2.19591 -1.0459
-0.969395 1.56954 -2.45518
-1.93759 0.83571 -0.0634981
-1.96317 2.52858 -1.15082
-3.1301 0.643472 -1.02692
-1.9754 1.27436 -2.11622
-0.794306 1.07079 -1.43095
-1.90725 1.20076 -0.900146
0.243194 0.229708 -2.95227
-1.96468 1.34664 -2.11773
-0.27628 2.29786 -2.17322
-1.37102 0.517603 -2.25999
-2.85297 2.29144 -0.469038
-2.25161 2.06415 -1.5305
-1.77461 2.20103 -1.11859
-2.62028 2.68226 -0.506484
-0.434472 0.724761 -1.58408
0.0397313 0.411249 -2.02589
0.152741 1.44547 -2.19198
-0.748078 1.91903 -2.4825
-3.09153 1.82591 -0.922987
-1.00364 2.1022 -2.04542
0.725342 0.726932 -2.91568
-1.37651 0.608891 -1.63779
-1.15716 0.382683 -1.70264
-2.59533 0.698012 -0.339218
-2.10174 2.21222 -1.64187
-0.617624 2.15305 -1.92203
-2.19727 1.06345 -1.9078
-0.413347 2.30844 -2.02755
-0.559825 1.62413 -2.22387
-0.828001 0.838222 -2.13803
-0.770115 1.44342 -1.8745
-3.02322 1.88597 -1.17464
0.509785 2.48755 -2.57151
-2.6166 2.83849 -0.650191
-0.213756 -0.110999 -2.69877
-2.58738 0.976109 -1.24336
-0.535932 1.55974 -2.78696
-0.404181 1.995 -2.68423
-2.24277 1.04244 -0.79931
-0.584834 2.04458 -2.4992
-3.0219 1.5876 -1.20784
-2.52664 1.04142 -1.70169
-0.356531 -0.205281 -2.533
0.24425 1.68556 -2.36286
-2.70038 2.60182 -1.34866
-1.98548 0.323867 -1.60002
-0.0178983 1.032 -2.681
-2.53773 3.50684 -0.371141
-2.50784 3.32948 0.272729
-2.72858 3.22808 -0.373255
-3.23839 2.2461 -0.971953
-1.9467 4.10938 0.134093
-3.04177 2.47487 -0.600007
-2.79013 3.1878 -0.27002
-3.42605 2.37129 -0.925435
-1.53785 3.81123 1.04964
-2.35005 3.71087 -0.329801
-3.05604 2.46761 -0.842172
-2.31122 3.6344 -0.250442
-1.63826 3.98622 0.813949
-2.74192 3.02879 -0.808304
-3.11925 2.77013 -0.689278
-2.60306 3.30571 0.0608173
-2.64808 3.08078 -0.847316
-1.61176 3.89891 0.939389
-2.53873 3.21247 0.372182
-1.75348 3.97717 0.713625
-3.06367 2.6115 -1.08664
-1.89137 3.65247 0.764088
-2.76658 3.29445 -0.60493
-2.85514 2.7361 -0.229074
-2.76482 3.02107 0.125167
-2.20652 3.69512 0.290187
-2.38815 3.41079 0.388866
-2.52972 3.52935 -0.404015
-2.14395 3.48416 0.15023
-2.40243 3.59891 0.0385136
-2.40207 3.64363 -0.516723
-2.259 3.66238 0.186268
-2.5037 2.95152 0.248625
-2.4345 3.4649 0.261059
-2.80523 2.99243 0.0534287
-2.2536 3.67327 -0.0666606
-2.40892 3.59483 -0.485007
-3.03988 2.9568 -0.776591
-2.08997 3.80985 0.397984
-2.54291 3.25478 0.331606
-2.40242 3.51606 0.279995
-2.07507 3.65668 0.775914
-1.60225 4.10083 0.0331867
-1.44156 4.12396 0.707977
-2.01519 3.64126 0.367895
-2.37517 3.42034 0.338404
-2.11542 3.61694 0.0350668
-2.92008 2.95793 -1.10161
-2.36946 3.49501 0.216848
-2.03789 3.68458 0.779747
