ply
format ascii 1.0
comment Created by Open3D
element vertex 400
property double x
property double y
property double z
end_header
-1.08942 1.82254 2.01732
-2.17207 1.58844 0.699585
-2.04616 1.95314 0.976288
-1.14602 2.33456 1.96856
-2.26451 1.78771 0.697232
-1.09229 0.73268 2.08255
-2.1922 1.77899 0.752209
-1.67105 1.09006 1.21833
-2.03821 0.843691 0.801111
-1.26541 1.33448 1.82089
-1.23261 0.816698 1.83004
-1.33244 1.72536 1.7416
-2.84289 1.38455 0.135619
-1.61235 2.07767 1.4263
-2.29633 1.7856 0.673716
-2.24011 1.96466 0.81569
-0.942947 2.45306 2.16838
-0.833791 1.70136 2.36552
-1.98943 1.76812 0.910763
-2.41049 1.24754 0.428962
-1.09961 1.76922 2.01607
-1.36812 0.714299 1.62734
-1.61399 2.03087 1.37931
-1.51339 0.959358 1.40757
-1.70868 1.12076 1.20091
-1.74896 1.48888 1.27177
-2.30669 1.36393 0.52357
-2.20504 1.44771 0.674571
-1.68955 0.483022 1.28689
-1.85237 1.16879 0.983712
-1.4351 1.67762 1.57747
-1.521 2.42277 1.66267
-1.79758 0.770419 1.10443
-1.19539 2.13196 1.89749
-0.601463 1.81725 2.61373
-0.945485 1.289 2.18051
-2.22437 0.726172 0.611481
-1.87102 1.42348 0.951435
-1.63387 0.66959 1.34178
-1.11336 0.664691 2.09482
-1.39641 0.910965 1.56407
-2.10103 1.81375 0.885049
-2.17524 1.79478 0.783481
-1.09513 1.85806 2.0167
-0.382177 1.41731 2.96263
-1.31166 1.02136 1.72859
-1.66584 1.64991 1.27863
-1.96488 2.08315 1.0834
-1.33613 1.36466 1.75303
-1.27252 0.583113 1.78632
-2.19725 0.942166 0.617368
-1.57009 1.68743 1.39481
-1.44489 1.5965 1.52888
-1.23051 1.85881 1.86505
-1.55165 2.41672 1.60473
-1.88218 2.15361 1.26666
-1.46629 2.32264 1.66854
-0.719687 0.86699 2.49563
-1.2694 1.52059 1.86234
-1.05711 1.37051 2.05006
-0.634834 1.48004 2.6361
-1.46244 2.3384 1.69101
-1.34006 1.47997 1.69121
-1.22271 1.89362 1.85346
-1.02576 1.25142 2.11649
-1.53253 2.18723 1.58129
-1.41513 0.843777 1.56406
-0.897185 1.33122 2.35979
-1.64451 0.787099 1.28574
-0.522474 1.78696 2.71733
-1.5302 1.68278 1.44093
-0.896172 0.787973 2.27848
-2.28986 1.12835 0.52305
-2.03439 1.05668 0.790445
-0.854946 1.15123 2.35196
-1.76793 2.07199 1.34614
-1.08266 0.449652 2.02476
-1.35964 0.375058 1.69945
-1.80013 1.06596 1.07016
-1.96578 1.00026 0.863133
-1.0165 0.977891 2.14492
-1.74255 1.36782 1.11131
-1.05092 1.835 2.08126
-1.16757 1.16422 1.85457
-0.781391 0.647431 2.44466
-1.46541 1.06485 1.48233
-2.42708 1.74342 0.558451
-2.18437 1.38372 0.633538
-1.33076 0.111414 1.76257
-1.89368 1.90523 1.11477
-1.2644 1.34634 1.73587
-2.71412 1.24897 0.178168
-2.37529 0.768957 0.447492
-0.758549 1.52024 2.46347
-2.18612 1.76065 0.732559
-2.04462 0.719726 0.828197
-0.802505 1.75468 2.38319
-1.46784 2.63168 1.75241
-0.794088 1.43931 2.38366
-1.19923 1.08705 1.9605
-0.759618 1.01088 2.45134
-1.52966 1.31322 1.40524
-0.572449 1.72105 2.66114
-1.12805 0.634656 1.96603
-0.605023 1.30917 2.70855
-0.266733 2.10357 2.95794
-1.43356 1.39682 1.50106
-1.97618 0.714046 0.895443
-0.318026 1.65781 2.98168
-2.24072 0.840227 0.578161
-1.98848 1.01222 0.847192
-0.406995 1.35463 2.93718
-1.22683 0.906591 1.88113
-1.96248 1.55665 0.973182
-0.831301 1.81751 2.34491
-0.184075 1.34294 3.2027
-2.06274 1.13532 0.747768
-1.00115 0.982685 2.17846
-1.51053 1.05719 1.4479
-1.76828 1.61833 1.17909
-2.32977 1.27571 0.494803
-1.47885 2.58385 1.7371
-1.01976 1.61393 2.12562
-0.859979 1.64455 2.33009
-1.43884 1.3715 1.62002
-1.45765 1.03522 1.51302
-2.07319 0.809258 0.766028
-1.02886 0.628503 2.14069
-1.34537 2.43227 1.8038
-1.1884 1.16518 1.95108
-1.44013 1.03702 1.49967
-2.42236 1.08855 0.398317
-0.494631 1.82123 2.74045
0.0155082 1.61821 3.37927
-1.7194 0.84188 1.18284
-0.782699 1.60833 2.44145
-1.37849 0.160375 1.7034
-1.13987 0.604212 1.98276
-0.940211 2.2784 2.17272
-0.345303 1.47506 2.99285
-0.708956 0.850172 2.58894
-1.71354 0.377684 1.27236
-0.766278 1.87648 2.41221
-1.26584 0.566744 1.85413
-0.423127 1.2514 2.94283
-2.36788 1.25575 0.45817
-1.79112 2.16699 1.29973
-2.69049 1.28054 0.20459
-1.27734 2.39892 1.85049
-1.08421 1.02772 2.04424
-0.701701 1.56124 2.50873
-1.31776 1.85357 1.77131
-0.840885 1.93353 2.31002
-1.55318 0.504746 1.43975
-2.07042 0.585342 0.815282
-1.40311 2.51448 1.77559
-1.92979 1.86852 1.0457
-0.614595 0.881417 2.72446
-1.54733 0.453939 1.45662
-1.76131 1.53683 1.13224
-1.35786 2.05094 1.71891
-1.49311 0.420606 1.54104
-1.38535 0.981649 1.60433
-1.7755 1.46883 1.19846
-0.930637 1.71615 2.2461
-2.48597 1.72609 0.500274
-2.04271 1.6514 0.964232
-1.00298 0.486993 2.10755
-0.476997 2.12873 2.69846
-1.55878 2.65385 1.71084
-1.83125 1.9513 1.18619
-0.784735 1.63398 2.41533
-2.11565 1.84814 0.951599
-1.76772 0.344335 1.21567
-1.9572 2.10638 1.16655
-2.22908 1.95377 0.885248
-0.387861 1.20102 2.92183
-1.1309 0.859249 2.01038
-1.55759 0.368092 1.4685
-1.4178 0.712163 1.60181
-2.32581 1.75752 0.610935
-1.83673 1.96962 1.19353
-1.94632 1.86122 0.985693
-1.69335 2.2009 1.3811
-0.487071 1.85528 2.7451
-1.37476 0.922404 1.61156
-1.89234 1.71973 1.03798
-0.211241 1.47136 3.14724
-0.600262 2.21711 2.54504
-2.4292 1.31144 0.411212
-1.78404 2.3118 1.41164
-2.36172 1.56928 0.539055
-1.24135 0.375558 1.85372
-1.02935 0.948457 2.07668
-1.19253 2.05271 1.87641
-1.45516 2.53613 1.7293
-2.29123 0.626656 0.543332
-2.19168 1.79223 0.774823
-2.22282 1.26315 0.589107
-0.209413 1.44083 3.15166
-1.34232 1.41568 1.61247
-0.947402 0.752907 2.28339
-0.975341 1.32127 2.19431
-2.52678 1.20608 0.31349
-0.509907 1.37624 2.81807
-1.24715 0.727497 1.76472
-1.12675 2.24802 1.96284
-1.68361 2.41097 1.5453
-0.762544 1.99282 2.38627
-1.70798 1.69466 1.22269
-0.950802 0.554826 2.26986
-1.74685 1.5937 1.21335
-1.44234 2.78522 1.8345
-2.1778 1.64864 0.767058
-1.29989 0.750761 1.70661
-0.791428 2.09488 2.34668
-1.70012 1.62004 1.25624
-1.50298 1.06032 1.41793
-1.03322 0.938564 2.13474
-2.30093 1.91306 0.765754
-1.77752 0.880823 1.09643
-1.17003 0.385247 1.92877
-1.31988 2.13559 1.77846
-2.25708 1.46883 0.591525
-1.07077 1.63976 2.09682
-0.784008 2.24932 2.32465
-1.91245 0.930867 0.933471
-1.3277 2.09053 1.78414
-0.818969 1.59915 2.37399
-0.910067 2.18948 2.20966
-1.37062 0.475412 1.67372
-1.25728 2.22123 1.85287
-2.0798 0.917783 0.745761
-2.36784 1.77466 0.622541
-0.674116 0.781562 2.54447
-1.26041 1.83565 1.767
-1.27902 0.75576 1.73289
-0.646155 1.81209 2.56268
-1.12136 1.93365 1.99407
-0.447993 1.40375 2.88285
-1.32557 2.45915 1.81363
-0.541561 1.84838 2.68524
-1.33103 1.84094 1.71869
-0.667747 1.8102 2.54258
-1.97275 1.04969 0.872599
-0.607189 2.06181 2.55732
-1.06902 1.22584 2.05961
-1.53849 1.92806 1.5609
-1.62525 1.06964 1.36373
-1.4838 0.44817 1.55565
-1.75741 2.21406 1.40184
-0.917435 2.32126 2.18421
-1.30903 1.15511 1.70947
-0.844549 2.12468 2.28476
-1.09659 2.55069 2.01978
-1.103 1.4689 1.95438
-1.46601 1.35676 1.50171
-1.30226 2.28713 1.81533
-2.31273 1.77343 0.628469
-1.01884 1.61459 2.11605
-1.47569 2.03262 1.55379
-1.57648 0.776491 1.38956
-2.40429 1.10633 0.408987
-1.12428 1.19491 2.01608
-2.10474 1.2165 0.734283
-0.252817 1.7452 3.04229
-1.60469 2.2051 1.46325
-0.333347 1.45406 3.00411
-1.2863 1.08018 1.66173
-0.996748 1.6282 2.18195
-1.35085 1.0604 1.67629
-0.396115 1.56763 2.91802
-0.998162 2.58524 2.11234
-0.145624 1.32082 3.23683
-1.92509 1.75054 1.05491
-1.38269 2.22854 1.67788
-0.552407 0.863476 2.75528
-1.13486 1.53626 1.98377
-1.32304 0.827174 1.74086
-0.825531 1.50146 2.37793
-1.70085 0.689442 1.2396
-1.42584 0.256355 1.63837
-2.19586 1.41777 0.662824
-0.843341 0.636379 2.36829
-1.31944 1.87697 1.75947
-1.35922 1.31104 1.66758
-0.761141 2.30746 2.36105
-1.00953 1.23704 2.16447
-0.959315 1.5338 2.17579
-2.56678 1.35878 0.310963
-1.59899 1.30593 1.31806
-1.68612 1.33146 1.17477
-1.71299 1.77343 1.29737
-2.10087 1.86423 0.931611
-1.91925 1.61664 0.921981
-0.981109 0.621619 2.13156
-2.15242 0.842715 0.685897
-1.23782 2.18977 1.87412
-1.28923 1.76639 1.80708
-0.670396 1.03498 2.63732
-2.43512 1.36403 0.421579
-2.09682 1.61804 0.823094
-0.553648 1.15059 2.73313
-0.824472 1.76656 2.34177
-0.284286 1.2594 3.09456
-1.30223 1.65938 1.77821
-0.918879 1.39964 2.26988
-2.6164 1.28673 0.257007
-1.07287 1.08808 2.0656
-1.0688 1.56497 2.03725
-0.246514 1.46162 3.11129
-2.04762 1.83093 0.913356
-0.979852 0.98442 2.20715
-1.5388 0.108009 1.5315
-1.40745 0.916739 1.56053
-1.39887 1.93886 1.61767
-1.93165 0.435359 1.00278
-1.27045 2.11719 1.84015
-0.270371 1.54853 3.06555
-1.18453 2.08253 1.924
-1.6149 1.87939 1.43051
-1.17523 2.18683 1.93526
-1.52083 0.840507 1.44446
-1.4192 2.81362 1.85216
-2.01314 0.964066 0.814524
-1.60611 1.83735 1.36664
-2.06433 1.53776 0.763747
-1.37183 0.599334 1.63807
-0.891731 1.93086 2.25543
-1.91569 1.48926 0.931844
-1.46619 2.32225 1.66104
-0.997914 0.928528 2.14298
-1.60575 2.61632 1.66793
-0.531932 1.74779 2.71052
-1.5515 0.272369 1.48631
-0.558255 1.24886 2.72904
-0.306917 1.48922 3.03796
-0.609603 1.21827 2.70743
-0.661817 0.912033 2.62139
-2.07762 1.63094 0.83595
-1.60498 1.71131 1.47277
-2.23743 0.913212 0.580055
-1.60953 2.53011 1.58401
-1.38877 0.775402 1.65755
-1.73288 0.923353 1.20782
-1.97854 1.58677 0.960374
-1.69754 1.56465 1.21291
-2.20138 1.83788 0.734362
-1.45519 1.7345 1.60828
-2.73394 1.44088 0.232088
-1.43801 0.431947 1.59554
-1.97277 1.07454 0.851072
-0.550214 1.11466 2.67376
-2.01129 2.09159 1.1168
-1.60356 1.67026 1.40597
-0.357153 1.62467 2.9539
-1.78204 0.581728 1.15775
-1.41095 0.459307 1.63832
-1.29791 0.653619 1.73741
-1.66737 1.11836 1.21236
-2.04656 0.512832 0.854457
-1.07056 0.42214 2.1027
-1.38077 2.26475 1.7243
-0.485841 1.72008 2.77957
-1.14937 0.288577 1.9877
-0.908841 2.50255 2.19375
-0.540087 1.53485 2.74968
-1.50498 1.85034 1.46767
-1.3683 2.42174 1.76576
-2.51408 1.63231 0.434993
-1.24968 0.470234 1.83243
-0.62073 1.40307 2.61444
-1.15622 2.25839 1.95544
-0.707389 1.49243 2.51862
-1.56259 0.461295 1.45864
-0.839627 1.64472 2.36092
-1.61733 1.5791 1.36888
-2.3672 1.08985 0.445598
-1.95943 2.14668 1.20278
-1.50941 1.60155 1.43464
-1.51911 0.238825 1.54576
-1.37201 1.551 1.61349
-0.591332 1.44632 2.66016
-1.35492 2.69498 1.8542
-1.93234 2.26933 1.17362
-2.20992 1.80417 0.769068
-1.72418 2.1685 1.35838
-1.40061 1.8173 1.65091
-1.38296 0.333455 1.68301
-2.28908 1.86929 0.763627
-0.859095 2.05513 2.27917
-1.55305 2.29894 1.59275
-1.81027 2.00041 1.23691
-2.62432 1.40319 0.287369
-1.82777 1.47047 1.05594
-1.9034 0.944779 0.941927
-0.870575 2.08028 2.25929
-1.50603 1.64511 1.45169
-1.26398 1.54354 1.805
-1.53197 1.63416 1.52847
