ply
format ascii 1.0
comment Created by Open3D
element vertex 250
property double x
property double y
property double z
end_header
-1.69603 -1.96128 0.120992
-2.28725 0.114649 0.485163
-1.31401 -2.09999 0.776525
-2.61027 -2.25308 -0.709671
-1.33348 -2.59789 0.51842
-1.88444 -2.06785 0.214426
-2.00129 -0.67383 0.563877
-2.98765 -0.292919 -0.445712
-2.34931 0.1764 0.454389
-2.70516 0.606295 -0.610473
-0.989373 -1.98042 1.12586
-3.12866 -1.14076 -0.622953
-1.22 -2.60946 0.680309
-3.13954 0.516095 -1.67645
-2.39022 -2.48747 -0.368878
-3.0331 -0.936225 -0.776399
-3.94577 -0.979297 -1.67165
-1.95167 -2.16059 0.0278939
-2.58855 -1.07557 0.0727864
-3.45098 -0.580246 -1.1008
-3.01582 -0.412781 -0.395221
-2.45337 0.0864998 0.109521
-1.09058 -1.56183 1.03106
-2.25042 -0.00110993 0.678119
-2.68212 0.635353 -0.729017
-2.18914 -1.06773 0.306847
-1.03847 -2.03371 0.926662
-2.37041 -1.13077 -0.102263
-2.39926 -1.24339 0.0801629
-2.20121 0.941847 -0.119998
-3.13525 -0.088925 -0.777641
-3.15518 0.291265 -1.09612
-2.13773 0.277139 0.743054
-1.20763 -2.57557 0.760284
-2.43954 0.587327 -0.0767026
-0.962424 -1.62992 1.37988
-2.10072 -3.11452 -0.48065
-3.18782 0.465866 -1.71268
-3.45009 -1.26159 -0.821968
-1.73926 -2.33844 0.0930352
-2.0101 -2.1927 -0.146884
-3.00126 0.290694 -0.749689
-1.84413 -1.12401 0.636763
-0.574655 -2.38689 1.48528
-1.88518 -3.20356 -0.0686047
-2.19538 0.849819 0.138572
-0.748541 -2.69305 1.39896
-2.17709 1.04379 -0.207483
-2.16836 -1.73146 0.133913
-2.93897 -1.01231 -0.386773
-2.87787 0.294864 -0.520014
-1.22859 -2.46007 0.858335
-3.12546 -0.183515 -0.625132
-3.16504 0.109307 -0.968734
-2.2329 -0.0928736 0.512456
-2.73795 0.574141 -0.626713
-2.3016 0.0472794 0.640422
-2.60469 -1.26036 -0.118657
-1.98713 -1.57661 0.0762916
-1.59349 -2.78661 0.308603
-2.82208 0.736207 -0.978773
-2.87837 0.629764 -1.139
-1.99863 1.01396 0.301981
-2.5228 0.910156 -0.742114
-1.41725 -2.54079 0.462056
-0.722374 -2.33689 1.50659
-3.03575 -1.02912 -0.497716
-3.139 -0.310491 -0.677349
-2.65477 -1.32646 -0.507468
-0.702258 -2.25228 1.49809
-2.76225 -0.313517 -0.193741
-0.838326 -1.40951 1.5124
-3.00353 -2.36809 -1.06105
-3.73728 -0.306174 -1.6689
-1.1487 -2.34222 1.03359
-2.36634 -2.2189 -0.378385
-2.5177 0.417429 -0.0257336
-2.37397 1.13034 -0.664701
-2.1248 -1.6802 0.0795007
-2.93229 0.437864 -0.808055
-3.26021 0.00430152 -0.959386
-1.21725 -2.26676 0.782292
-3.72862 -0.353751 -1.637
-2.53944 0.151064 0.0762816
-2.83915 -1.63035 -0.79272
-3.12951 -0.364964 -0.722592
-2.00594 -2.19083 -0.243714
-3.14606 0.439734 -1.3509
-2.45418 1.13579 -0.659521
-1.06139 -2.51015 1.04813
-2.74022 -2.19267 -0.692396
-2.10409 -1.41446 0.0408837
-2.36283 -0.885323 0.319826
-2.0393 -1.34125 -0.0588391
-1.31481 -2.2711 0.786411
-2.5705 0.356586 -0.0856705
-3.7138 -0.408105 -1.56283
-2.40276 0.258308 0.278946
-0.628342 -1.81443 1.54803
-1.12448 -2.12965 1.08861
-2.90915 0.323656 -0.740142
-1.78749 -1.10832 0.666591
-0.704902 -1.36712 1.59961
-2.1743 -0.564344 0.709751
-1.96393 1.11314 0.124004
-0.760187 -2.23289 1.27373
-2.41104 0.562209 -0.00755569
-1.09091 -1.74464 1.02063
-2.48816 0.399256 0.0353822
-2.19017 -1.24953 0.364708
-3.73535 -0.776224 -1.42226
-2.28275 0.593919 0.260079
-1.89841 -3.11194 -0.197242
-1.98807 -1.34753 0.668572
-0.270645 -1.85751 1.793
-1.06221 -2.59552 0.906862
-1.35575 -2.59105 0.478862
-2.5059 -0.293911 0.449498
-1.28185 -2.11615 0.724744
-2.39045 0.907727 -0.514827
-0.830255 -2.42472 1.17998
-3.25467 -0.617668 -0.999765
-2.12048 0.0590015 0.683949
-2.43911 -0.655317 0.193046
-1.53087 -1.89587 0.455242
-2.54963 -1.81057 -0.586901
-0.807247 -2.14313 1.11958
-3.46467 -1.44674 -1.17534
-2.04813 -2.13299 -0.0114383
-3.38616 -0.813885 -1.03068
-1.56592 -1.5709 0.634507
-2.0802 -1.17314 0.456482
-0.894379 -1.38842 1.26225
-1.41585 -1.41453 0.937633
-2.78323 -1.27576 -0.483209
-2.44349 -1.69948 -0.401213
-2.47107 -0.997748 -0.0186005
-2.09807 0.213619 0.621188
-3.23568 -0.952164 -0.954907
-1.9232 -2.28656 -0.0210914
-2.22209 0.655547 0.360236
-1.1425 -2.47607 0.773325
-3.23639 -1.3285 -0.875739
-2.37775 -1.50304 -0.159583
-3.47068 -1.28218 -1.17045
-2.00796 1.06566 0.0584504
-1.45347 -2.2939 0.674317
-1.7794 -0.591601 0.734773
-0.877287 -2.58119 1.09692
-3.25055 -1.17764 -0.890376
-2.27044 -1.31786 0.0489942
-3.28791 -0.28081 -0.85718
-2.45543 -2.26215 -0.436309
-1.89343 1.1533 0.357101
-3.00492 -0.501079 -0.546002
-3.32649 -0.0543661 -1.21183
-3.04366 -1.4366 -0.562244
-1.61629 -0.483791 1.01838
-2.37182 0.240544 0.291655
-1.17967 -2.64085 0.863958
-3.06081 -1.46714 -0.599008
-1.98178 -2.25128 -0.213833
-2.32746 -1.46835 0.172245
-3.39548 0.1511 -1.48128
-3.27511 -0.84971 -0.788303
-2.7095 -0.341978 -0.160899
-3.33846 0.0946758 -1.26668
-1.25883 -0.62462 1.367
-0.961703 -1.28721 1.41941
-1.31607 -1.97472 0.669495
-2.40565 -2.50505 -0.584684
-3.65022 -0.202967 -1.55195
-2.4708 -1.83129 -0.407191
-0.915218 -2.73689 1.12093
-2.05475 -0.53257 0.716461
-1.81508 -0.540724 1.01483
-2.56238 0.679228 -0.628749
-3.25243 -1.07722 -0.839302
-2.09599 -1.72024 -0.0583802
-3.05843 -1.03398 -0.447611
-2.03019 -2.00009 -0.160267
-2.00791 -1.98716 0.0325278
-1.91552 -1.50185 0.434204
-1.94956 -1.33091 0.357335
-3.72333 -0.438784 -1.44918
-1.5617 -2.93092 0.0605117
-3.45633 -0.112342 -1.36281
-1.3287 -2.0935 0.921102
-3.05361 -0.185748 -0.514864
-2.24434 -2.83638 -0.444881
-2.23775 -2.90241 -0.593387
-2.56728 0.334812 -0.0538081
-2.3195 -2.61893 -0.592592
-3.63362 -0.388301 -1.31715
-3.23776 -0.741062 -0.615042
-1.33339 -1.7527 1.08574
-1.40558 -2.31767 0.470191
-3.77348 -0.86037 -1.53103
-2.46286 -0.335511 0.396862
-1.55689 -2.52196 0.387097
-3.52066 -0.373794 -2.2117
-3.14461 0.267426 -2.21257
-3.5859 -0.232103 -2.15658
-3.95338 -0.459652 -2.03456
-2.97628 0.0811662 -1.70743
-3.6913 -0.135302 -1.92424
-3.59203 -0.28873 -2.50434
-4.15549 -0.65606 -2.6393
-2.19509 -0.126195 -3.34849
-3.42208 -0.55347 -2.41253
-3.80863 -0.342242 -1.87062
-3.2951 -0.0625358 -1.65055
-2.42807 -0.125507 -3.00886
-3.71423 -0.461823 -1.80772
-3.91587 -0.485479 -2.44175
-3.33917 -0.239166 -2.82437
-3.66654 -0.493348 -1.70034
-2.32586 -0.080122 -3.13381
-3.11237 0.0589904 -2.79861
-2.55978 -0.0815789 -2.8615
-3.9795 -0.667675 -2.00758
-2.56076 -0.151707 -3.22932
-3.7634 -0.687998 -2.58228
-3.45298 0.136608 -1.91283
-3.34568 -0.0146933 -2.71415
-3.03233 -0.215262 -2.78973
-3.00726 0.470289 -1.94112
-3.54083 -0.469178 -2.31297
-3.01198 -0.856375 -3.63025
-3.26919 -0.252038 -2.59644
-3.52402 -0.658585 -2.31727
-3.06277 0.342955 -1.66353
-2.9986 0.631309 -1.54237
-3.13256 0.224167 -2.18966
-3.39786 -0.00602228 -2.6103
-3.23639 -0.674909 -3.01125
-3.52386 -0.935429 -2.87576
-3.99712 -1.2114 -3.48668
-2.91995 -0.117463 -2.69088
-3.13515 0.185246 -2.50273
-3.1242 0.0957014 -2.41798
-2.68216 0.30227 -2.61995
-2.79117 -0.938109 -3.00705
-2.36484 -0.425214 -3.15356
-2.84634 -0.565616 -3.37177
-3.06862 -0.175938 -2.98544
-3.07575 -0.883348 -3.43547
-3.98963 -0.883054 -2.204
-3.14249 -0.288844 -2.95734
-2.66176 0.246713 -2.68814
