ply
format ascii 1.0
comment Created by Open3D
element vertex 400
property double x
property double y
property double z
end_header
1.20596 -2.27761 -1.79676
0.697023 -2.06488 -2.62672
1.16724 -1.73369 -1.91627
0.866121 0.36853 -2.65062
1.20974 -2.27394 -1.79275
1.87886 -0.490895 -1.03913
1.53501 -1.49832 -1.39913
0.985346 -0.841068 -2.22268
0.964727 -0.94828 -2.25968
0.826834 -0.165916 -2.58208
0.710338 -1.50303 -2.88217
0.757276 -0.56688 -2.76374
0.71801 -1.30242 -2.90837
1.73954 -1.79515 -1.0927
1.39347 -2.4205 -1.53796
1.5961 -1.45442 -1.31083
1.54747 -0.616533 -1.42839
1.43586 -1.44437 -1.54018
0.719877 -1.24171 -2.91139
0.655467 -1.85422 -2.91801
0.874458 -1.92426 -2.34202
1.4802 -0.705169 -1.50445
0.777117 -0.785122 -2.69283
1.56636 -2.89735 -1.21527
1.42745 -2.55841 -1.46934
0.929662 -1.60851 -2.30103
0.721525 -1.15535 -2.91674
1.39504 -2.40418 -1.53888
1.12603 -0.215597 -2.03881
1.27843 -1.19719 -1.76405
0.792928 0.272328 -2.81726
0.751421 -0.587585 -2.78642
1.61336 -1.48285 -1.28544
1.00945 0.331379 -2.35777
1.38897 -1.37682 -1.6065
0.784782 -0.722303 -2.6685
0.840877 -2.23741 -2.28892
0.799243 -0.156652 -2.65766
0.835079 -0.846336 -2.5305
1.2037 -1.18557 -1.87309
0.890912 0.20557 -2.52428
1.48449 -2.17295 -1.45213
1.36926 -0.0117945 -1.77658
1.18901 -1.96661 -1.86626
1.31458 -0.0933664 -1.81758
1.8128 -0.876692 -1.02815
0.952374 -1.52298 -2.26827
1.09669 -2.27151 -1.93557
0.796909 0.314889 -2.82892
0.810846 -1.71754 -2.5154
1.67955 -1.40867 -1.1874
0.928205 -2.22773 -2.16924
1.74377 -2.3624 -1.07028
1.46488 -2.19638 -1.47625
0.701103 -1.50418 -2.93364
0.838812 -0.449027 -2.52736
0.810762 -0.0328734 -2.64819
0.913914 -0.850034 -2.35681
1.126 -1.96357 -1.95365
1.52488 -2.35914 -1.37949
0.795233 0.299679 -2.82543
0.787073 -1.02219 -2.65974
0.722684 -0.941831 -2.92836
1.76392 -1.35183 -1.05819
1.61551 -1.68137 -1.2821
1.74685 -0.333641 -1.25327
1.74853 -1.72258 -1.07834
1.3276 -1.33047 -1.69359
0.711321 -1.43925 -2.90273
0.783609 -1.01603 -2.6705
0.76953 0.280212 -2.93159
1.46054 -1.23574 -1.5059
0.748253 -0.803323 -2.79874
0.921353 -0.0637315 -2.39425
1.41544 -2.0997 -1.55039
1.37424 -1.19513 -1.6277
0.86098 -0.758846 -2.46939
0.925348 -1.93309 -2.25566
0.883756 0.270426 -2.56406
1.80634 -1.04575 -1.01337
1.60576 -2.86032 -1.17802
1.7752 -2.28368 -1.02604
1.25509 -1.33455 -1.79774
1.7522 -2.65227 -1.02384
1.35331 -0.121205 -1.76423
1.59033 -1.72776 -1.31893
0.918871 0.144533 -2.4487
1.05748 0.0857579 -2.2015
0.80975 -0.47618 -2.60026
1.21646 -1.03374 -1.85462
1.39166 -2.20359 -1.57167
0.990225 -0.276359 -2.24053
1.46516 -2.86628 -1.34246
1.4756 -0.970341 -1.49146
0.807778 -0.681559 -2.60166
0.941159 -0.886966 -2.30367
1.52399 -1.68111 -1.41469
1.2586 -0.939681 -1.79464
1.60368 -2.88921 -1.17228
0.722536 -0.969344 -2.9281
1.07472 0.301461 -2.24796
1.48893 -0.208731 -1.58379
0.931451 -2.1596 -2.1866
1.43395 -0.295931 -1.62699
0.760331 -1.0602 -2.74698
1.01263 -0.106639 -2.22795
1.12088 -0.315002 -2.03217
1.52934 -2.49423 -1.35459
0.757021 -0.544281 -2.76515
0.812133 0.53325 -2.99051
1.03216 -1.96637 -2.08668
0.706216 -1.60843 -2.85373
1.17453 -0.733086 -1.92197
1.33309 -2.57063 -1.57803
1.59458 -1.92991 -1.31057
1.50765 -1.79472 -1.43687
0.941258 -1.22004 -2.30176
1.09386 -1.75341 -2.02231
0.953357 -0.642088 -2.28302
0.872146 -0.588468 -2.44642
1.65363 -1.99106 -1.22297
0.715302 -1.0704 -2.97274
1.57717 -2.44201 -1.29963
1.07871 -2.3767 -1.92937
0.842256 -0.987326 -2.51272
0.735363 -1.26968 -2.82764
1.11443 -0.533102 -2.02132
1.07434 -2.19531 -1.98256
1.15303 -0.403355 -1.97562
1.04908 -1.29879 -2.11234
0.732548 -1.41387 -2.81023
1.653 -0.752878 -1.27074
0.847892 -1.61608 -2.45684
0.952176 -0.393675 -2.29643
1.08639 -0.904651 -2.05326
1.00964 -2.26564 -2.04871
1.35241 -0.034521 -1.78907
0.934166 -0.784273 -2.31732
1.43031 -0.174832 -1.66025
1.66336 -1.55565 -1.2108
0.812331 0.00638517 -2.653
1.62484 -2.6629 -1.20036
0.702355 -1.52512 -2.91509
0.670358 -1.78578 -2.90738
1.48936 -2.64009 -1.37645
1.20614 0.0351715 -1.98526
0.843338 -0.837412 -2.51043
0.781459 0.309847 -2.89268
0.822245 -0.367957 -2.57302
1.33007 -2.2612 -1.64331
1.13167 -0.0923269 -2.05327
0.857721 -1.51155 -2.45074
1.20473 -1.58199 -1.86826
0.7739 -1.54074 -2.64532
1.77332 -2.17831 -1.03359
1.07694 -0.80333 -2.06938
0.756123 -0.545802 -2.76858
0.967753 -0.429376 -2.26597
1.7534 -0.362576 -1.23593
0.996568 -0.139272 -2.24861
1.25315 -0.398964 -1.8378
1.00192 -0.595504 -2.19816
0.66567 -1.84163 -2.8802
0.727429 -0.434234 -2.90759
1.30197 -2.38608 -1.65672
0.942199 0.385451 -2.49721
0.755261 -1.07569 -2.7651
1.46822 -0.743806 -1.5165
1.39257 0.00226981 -1.75475
0.906942 -1.59268 -2.34424
0.744986 -1.68122 -2.68856
0.723872 -0.407923 -2.93212
1.55724 -0.587528 -1.42044
0.816256 -0.0858993 -2.62254
1.25053 -0.0263327 -1.91305
0.808287 -0.368452 -2.6098
1.43997 -0.200465 -1.64242
0.861447 -1.49262 -2.44503
0.86197 -0.536913 -2.4703
1.66444 -1.52743 -1.20925
1.26977 -2.08456 -1.7446
0.796733 -1.87862 -2.4994
1.03259 -1.75705 -2.11482
0.785567 -0.182547 -2.6948
1.16466 -2.54362 -1.77786
1.18844 -1.88834 -1.87478
1.34775 -2.04012 -1.64554
1.29536 -0.716879 -1.75116
0.857388 -0.19275 -2.50576
1.66219 -2.32451 -1.19434
0.714715 -0.902226 -2.99217
1.13793 -1.41815 -1.97081
1.52819 -2.06421 -1.39977
1.78285 -1.85437 -1.02236
1.11251 0.295344 -2.19339
1.33087 -1.11386 -1.68955
1.48259 -2.03812 -1.46386
1.22454 -1.97419 -1.81704
1.00672 -0.566803 -2.19109
1.08839 -2.30892 -1.93645
1.3112 -1.70759 -1.71332
1.55747 -2.20827 -1.35035
1.00505 0.347083 -2.37144
1.07116 0.125844 -2.19279
1.32238 -2.56516 -1.59184
1.2113 0.139053 -2.0104
1.03508 -0.863031 -2.13704
1.49827 -0.764001 -1.47479
1.10985 -2.39334 -1.88691
1.03598 -2.29832 -2.00535
0.900592 -0.194631 -2.41409
0.74201 0.0564837 -2.94209
1.46223 -0.705198 -1.52809
1.28276 -1.0785 -1.7583
1.06795 -0.624538 -2.0884
0.957012 -1.62504 -2.25134
1.24359 -0.20393 -1.88153
0.763746 -0.752673 -2.73862
1.31864 -2.23451 -1.66176
0.960484 -1.95844 -2.19511
1.71812 -2.39752 -1.10621
1.34576 -0.449628 -1.70962
1.25345 -0.51203 -1.82456
0.824083 0.572467 -2.98282
1.46891 -1.08208 -1.49678
0.944186 -2.08509 -2.18954
1.47514 -0.537528 -1.53214
1.47879 -0.725456 -1.50426
1.21957 -0.341257 -1.89066
1.63721 -2.85834 -1.13875
1.73233 -0.610219 -1.19264
0.759348 -2.08055 -2.4915
0.844498 -1.86335 -2.41129
1.48915 -0.487699 -1.52252
1.39741 -0.995811 -1.59836
1.46892 -1.49376 -1.49334
1.20862 -1.87035 -1.84822
1.65603 -1.06745 -1.23442
0.929244 -1.68736 -2.29233
1.16876 -2.40182 -1.81396
1.15064 -0.20569 -2.00576
0.964713 -1.2136 -2.25853
0.860224 0.395442 -2.68059
1.15 -0.478124 -1.97286
1.24671 -0.508014 -1.83414
1.52227 -1.19973 -1.41939
1.24857 -0.984759 -1.80836
0.72832 -0.127562 -2.95509
1.35796 -2.65186 -1.52793
0.862578 -0.967923 -2.46556
1.16456 -1.40063 -1.93083
0.695475 -1.56498 -2.93357
1.00413 0.282906 -2.34686
1.14791 -0.238769 -2.00422
0.858173 -0.816623 -2.4757
0.847743 -0.191067 -2.52805
1.69542 -2.19093 -1.15402
0.793869 -1.44651 -2.6082
1.15805 -1.86733 -1.91931
0.840587 -0.394983 -2.52598
1.59018 -1.23141 -1.3221
1.47583 -0.84734 -1.49807
0.837462 -1.55359 -2.48862
1.73648 -0.371323 -1.25279
0.907953 -2.04679 -2.25455
0.73356 -0.785871 -2.86716
0.71468 -1.73683 -2.75977
1.76063 -0.831084 -1.11119
0.87841 -1.73694 -2.37623
1.44447 -2.80236 -1.38607
0.725569 -0.857091 -2.91199
1.0552 -0.986994 -2.10336
1.12339 -2.53745 -1.82638
1.62234 -2.87988 -1.15166
0.712552 -1.94645 -2.65889
0.934831 -1.14652 -2.31501
1.70604 -1.44876 -1.14648
1.29946 -1.89727 -1.72117
0.840665 -0.849136 -2.51687
1.64555 -1.01628 -1.25284
0.759362 -1.46307 -2.70412
1.44959 -1.08806 -1.52353
1.21149 -2.36688 -1.77093
1.56798 -0.677465 -1.3932
1.72316 -2.19062 -1.11197
1.27707 -1.91642 -1.75047
1.04381 -0.0154079 -2.19722
1.02108 -1.8008 -2.12758
1.67238 -2.14153 -1.19055
1.14416 -0.625054 -1.97155
1.25408 -0.939045 -1.80114
1.62615 -1.33733 -1.26787
0.993372 -0.965865 -2.20827
0.808909 -0.498178 -2.60176
1.7813 -1.61899 -1.02525
1.14293 0.0445689 -2.07019
0.853336 -0.321776 -2.50141
0.833495 -0.442493 -2.54059
0.795332 -1.35627 -2.61576
0.896343 -1.20743 -2.39002
1.43915 -1.64974 -1.53497
1.04969 -1.06491 -2.1124
0.662198 -1.8355 -2.9025
0.739323 -1.55957 -2.74519
1.01739 -2.30578 -2.02673
1.00012 0.362286 -2.386
1.35014 -2.45019 -1.58531
1.26648 -0.840785 -1.78591
1.38558 -0.25383 -1.69433
1.03146 -0.701096 -2.1453
1.15959 -2.14328 -1.8811
1.31097 -0.172555 -1.80305
1.13901 -2.06955 -1.92061
1.41456 -0.0415849 -1.71631
0.802467 -1.86338 -2.49266
1.11038 -1.35214 -2.01403
1.05794 0.206058 -2.23722
0.707793 -1.68596 -2.80897
1.06292 0.110938 -2.20049
1.7165 -0.684593 -1.19775
0.972611 -1.47874 -2.23563
1.22781 -0.0355533 -1.93905
0.722366 -1.58146 -2.79857
1.14714 -2.54483 -1.79721
0.858696 -1.74925 -2.41106
0.690157 -1.53669 -2.99216
1.16266 -1.94947 -1.90445
1.29303 -0.0228113 -1.86227
1.71757 -1.15737 -1.13875
0.921749 -0.434241 -2.35074
1.65411 -1.87544 -1.22397
1.60329 -2.39112 -1.27053
1.31385 -2.22037 -1.66989
0.867952 -0.70676 -2.454
0.745651 -0.534311 -2.8116
0.940989 -1.80396 -2.25502
1.44661 -0.10473 -1.66121
0.736027 -0.801095 -2.85456
1.15156 -0.871078 -1.95276
1.66251 -1.02523 -1.22807
1.31716 -0.30284 -1.76929
1.0446 -1.27225 -2.12001
1.02238 0.126431 -2.26605
1.23877 -1.60421 -1.81858
0.818943 -0.935828 -2.57132
1.27434 -1.69071 -1.7656
1.20981 0.144766 -2.01413
1.15031 -0.951306 -1.95377
1.03167 -1.44946 -2.13735
1.19717 -0.643481 -1.89322
1.76464 -1.33769 -1.05754
1.01946 -0.105939 -2.21712
0.92387 -0.836684 -2.33711
1.09536 -1.75962 -2.01954
0.944673 0.30955 -2.45879
1.83177 -0.680145 -1.04321
0.936683 0.370064 -2.50029
1.06725 0.202855 -2.22261
1.13609 -2.43728 -1.84305
0.831996 0.524631 -2.87202
1.67864 -2.40814 -1.16307
0.988083 -1.54848 -2.20477
1.7983 -0.41271 -1.16605
1.29939 -1.0219 -1.73518
1.57531 -0.634628 -1.38997
0.849044 -1.33866 -2.48552
1.58105 -0.324025 -1.44705
1.69717 -0.645292 -1.23083
1.67669 -1.44526 -1.19128
1.58731 -0.550263 -1.38898
1.65826 -0.931309 -1.24212
1.22595 -2.07866 -1.80326
1.90253 -0.511266 -1.00107
0.967322 -0.147913 -2.29679
1.01953 -2.02102 -2.09491
1.51562 -2.79957 -1.30457
0.677825 -1.7736 -2.88076
1.62577 -1.00348 -1.28167
1.76873 -0.758853 -1.11274
1.17494 -1.72069 -1.90592
1.62005 -2.80819 -1.17396
0.731587 -1.42037 -2.81253
1.84702 -0.624587 -1.03748
0.856653 -1.9508 -2.36542
0.998633 -0.157628 -2.2423
1.36744 -2.55948 -1.54062
0.923114 -0.581906 -2.34179
1.55518 -1.25012 -1.3718
1.18795 0.084174 -2.02248
1.08119 -1.99933 -2.0112
1.31016 -2.49667 -1.62295
1.67781 -1.12694 -1.19931
1.39864 -0.264281 -1.67631
1.70947 -1.78254 -1.14003
1.30785 -2.47192 -1.63141
0.992552 -1.62895 -2.1911
1.8155 -0.886578 -1.02244
1.79063 -2.01166 -1.00868
1.53963 -1.7592 -1.39184
0.725435 -0.424504 -2.92064
