ply
format ascii 1.0
comment Created by Open3D
element vertex 400
property double x
property double y
property double z
end_header
2.96408 -0.478689 1.67543
2.23686 1.90088 0.798407
2.42903 -0.0772102 1.48344
1.33193 1.04424 1.62456
3.06401 -0.423127 1.18172
2.74987 -0.546305 1.25019
1.40303 0.255975 1.67434
2.57339 0.223178 1.22758
2.03697 1.52935 0.467556
1.74764 2.37259 0.74185
2.52727 -1.13494 1.51345
1.97104 0.500646 1.25229
1.55055 1.53946 1.17756
2.11035 1.59917 0.761845
1.8977 1.255 0.861207
2.80052 -1.39687 1.70164
2.66612 -0.747975 1.61299
1.37493 1.93891 0.770976
1.85928 -0.434331 1.78407
1.3261 1.56231 1.13003
2.41501 0.425732 1.13635
2.31753 0.73351 0.993775
1.89463 1.35004 0.86857
1.91289 0.320741 1.27564
1.78335 -0.441916 1.63511
2.47344 0.153305 0.956342
1.14766 0.877052 1.46452
2.85607 0.812996 0.652255
1.72511 1.2113 1.30823
3.03799 0.669905 0.736844
2.84166 -0.985668 1.25646
1.84951 1.28272 1.04703
1.43312 0.629172 1.68632
2.01514 1.60313 0.864333
1.53227 0.667235 1.51688
1.71886 0.581132 1.32997
2.42884 1.61163 0.620703
3.11581 0.750677 0.894792
2.42622 -0.382997 1.71207
1.34827 0.314841 1.53992
1.60256 1.22057 1.16283
3.17518 0.234311 1.05016
1.76545 2.01784 0.955654
2.16567 1.22798 1.07702
2.31328 1.73275 0.909794
1.41888 0.110792 1.77106
2.99123 0.521382 0.944358
1.93957 1.10972 1.35688
3.25305 0.733136 0.66226
1.98381 0.939535 1.32971
1.56833 2.31522 0.810045
1.52099 0.425518 1.60543
1.34742 1.47563 1.03159
1.89135 2.28644 0.739589
1.60754 2.10851 1.00915
2.67988 0.627824 1.21551
3.00048 -0.217586 1.31712
2.85864 -0.998321 1.17536
1.95133 0.154135 1.52018
1.59543 0.232165 1.41078
1.31708 1.84683 0.970849
3.08041 0.0982007 1.10753
1.65392 0.76024 1.60557
3.03289 -0.85976 1.51301
3.04441 0.131972 0.884726
1.603 1.93699 0.935492
3.05155 0.504866 0.719016
2.28728 -0.114652 1.14154
1.84999 1.5435 1.08125
3.02869 0.658803 0.92429
2.68014 0.404792 0.667557
1.33554 0.0754266 1.60397
2.43259 -0.569462 1.25139
1.56741 2.27331 0.697508
2.03205 1.67734 0.811622
2.9626 -0.293498 1.21825
2.55183 -0.682349 1.6644
2.66072 -0.990281 1.85166
2.44279 0.906071 0.87026
3.01233 0.292915 0.906005
2.64438 0.808733 0.656557
3.11264 0.809342 0.712383
2.77417 1.36971 0.938308
2.49102 0.427876 0.821608
2.17636 1.88435 0.829245
1.98818 -0.110223 1.64479
2.48335 -0.22918 1.36964
2.48189 1.23079 0.869823
2.26577 -0.355483 1.46697
2.81005 -0.64928 1.27957
2.9403 1.56453 0.906303
2.00827 1.19729 0.912024
1.44593 0.649171 1.60322
1.64138 1.46326 0.796053
2.69344 0.882771 0.677722
2.3634 -0.393323 1.51972
2.13739 1.36037 0.688711
2.7367 -0.971675 1.44911
3.15809 0.0807123 0.758097
2.36276 1.46475 0.901215
2.89077 1.2617 1.05169
2.38488 0.966072 0.71191
1.39306 1.01044 1.35229
2.55 -0.527388 1.3111
2.18942 -1.07275 1.45852
2.7143 0.847756 0.98097
2.06543 1.58162 0.718154
2.86734 0.0805698 1.01385
2.89334 0.549619 1.10446
1.39472 1.12371 1.3223
1.81808 -0.298278 1.53791
2.11137 1.65976 0.871932
1.64287 1.99879 1.11143
1.66408 0.981685 1.61875
2.91477 0.293977 0.864002
2.8726 -0.321069 1.32077
1.77643 1.32385 0.792731
1.47282 1.69557 0.96186
1.3101 0.918392 1.78272
3.15122 0.0133833 0.91331
1.70123 0.499183 1.52627
2.75742 -1.22856 1.78817
1.61661 1.23283 0.971142
3.38423 0.767773 0.622164
2.88271 1.01722 0.594568
1.19639 0.318112 1.81619
1.91793 0.833168 1.34746
2.77801 -1.33812 1.51646
2.88227 1.41967 0.800783
2.95284 -1.20086 1.88302
3.00993 1.24118 0.743507
3.0406 0.723854 0.604883
2.61952 -0.163316 1.46375
1.61288 0.243747 1.68062
2.43765 -0.50194 1.69487
2.16758 0.704622 1.27866
1.93063 -0.187125 1.41426
1.98109 1.53784 0.873512
1.99087 -0.616318 1.62965
1.36848 1.86228 0.928089
1.29891 1.40586 1.37634
2.29889 -0.582087 1.90694
1.38128 0.159869 1.85327
2.98338 0.310472 0.898603
2.29804 1.54388 0.725552
1.38573 1.67291 1.24122
1.74359 1.88448 0.918267
0.968852 0.554342 1.34998
2.22093 1.58872 0.860771
2.90907 0.170382 0.69349
2.9365 -1.41406 1.73533
2.30827 -0.411726 1.77485
1.92195 -0.450702 1.75966
2.63655 0.186434 1.07938
1.4949 0.379578 1.51603
1.78215 2.47185 1.05796
1.26006 0.910761 1.6217
2.56078 -1.1701 1.74848
1.11612 0.663217 1.57496
2.49973 -0.667102 1.87835
2.13699 -0.153302 1.55921
1.34508 1.12139 1.33821
1.09655 0.678845 1.52496
3.22459 0.525608 1.1215
1.90157 0.613163 1.00102
2.84 -0.875301 1.30885
1.17708 0.495889 1.58725
3.41966 0.839945 0.669518
2.78944 0.175223 1.75933
1.31742 1.09963 1.4119
2.34983 -0.737089 1.59895
3.00122 -0.576938 1.46196
1.90462 0.102251 1.48283
2.3163 -0.347822 1.6362
2.85148 0.189306 1.06658
2.5228 -0.101207 1.12294
2.55177 0.40919 0.964221
2.62725 1.30638 0.828416
1.94945 0.443581 1.48177
1.7164 1.18667 0.965847
2.28649 0.154692 1.05158
1.81437 1.10923 1.2602
1.85703 0.841085 1.4176
2.27167 1.18113 0.798601
2.81301 0.439356 0.955193
2.19911 1.41927 0.854855
1.96932 2.48617 0.93218
1.44252 2.09042 0.773539
1.92452 -0.227564 1.7595
1.6268 2.31147 0.945396
2.81964 -0.34378 1.72686
2.02135 -0.688707 1.65705
1.40952 0.22697 1.87973
2.99795 0.265376 0.875375
3.028 0.815083 0.816668
2.8406 0.735304 0.89316
3.09794 -0.163067 1.0628
2.42622 0.582269 1.28054
1.629 1.9339 0.787055
1.94459 -0.447137 1.72449
2.26827 -0.490567 1.73271
2.45228 0.567322 0.914277
2.99862 0.795731 0.974649
1.59169 1.16666 1.15499
2.70005 0.474335 0.761845
3.16659 -0.0300264 0.832864
3.26543 0.807273 0.843958
1.54695 0.895908 1.25446
2.27819 0.412655 1.56621
2.85056 -0.488699 0.942693
1.3653 0.766908 1.44229
3.08283 0.732839 0.705894
1.93754 1.57668 0.751838
1.49839 1.95495 1.06638
1.75705 0.249747 1.87194
3.15896 -0.471663 1.41613
1.64507 1.3577 1.00609
3.40296 0.781791 0.688903
2.42494 1.46296 0.600131
2.27313 -0.390436 1.66107
2.86259 1.29047 0.897056
2.33128 1.197 1.06239
1.18441 0.94598 1.558
2.58049 -0.00676365 0.80605
1.81699 1.0191 0.846023
1.86144 0.399143 1.23533
3.01812 -0.516547 1.26803
3.13554 -0.262232 1.19469
1.93878 1.54257 1.02358
1.60493 0.858347 1.20376
2.65815 0.606183 0.961555
2.62551 0.415146 0.927382
1.21575 1.01543 1.46562
2.98545 -0.674169 1.46872
2.75027 0.549031 1.09077
3.414 0.250658 1.19195
3.46224 0.848435 0.858134
2.36092 -0.664568 1.62226
1.52238 0.359723 1.46478
1.96009 0.630126 1.42116
2.5761 0.662919 1.14035
1.71212 1.57529 0.691693
3.22443 0.786177 0.553386
2.70304 -0.0205596 1.21559
2.3341 1.74616 0.708354
2.52127 0.315206 1.10229
2.08887 0.478631 1.26165
1.91599 1.48854 1.29091
2.6668 -1.00072 1.68493
2.78546 0.790612 0.97217
2.28614 -0.628049 1.80664
3.32873 0.448967 0.676576
2.01148 0.834826 1.72056
1.93892 0.840545 0.837583
2.91832 0.683701 0.648285
1.34118 0.93761 1.31553
3.13271 0.29086 0.878672
1.32998 1.48015 1.28359
1.42767 1.93124 0.780987
2.28195 -0.306392 1.31508
2.82583 -1.12527 1.52996
2.4041 1.02035 0.581294
2.79137 -1.11258 1.73569
1.74396 0.618435 1.09189
1.64941 1.74865 0.700606
3.16772 0.971684 0.818387
2.72532 0.0902152 1.07042
2.84321 1.18737 0.73814
2.75862 0.394885 0.910144
3.18071 0.0660904 0.928717
1.38794 0.373641 1.76467
2.23737 0.121626 1.70602
1.90171 0.967732 1.01536
3.1967 0.980397 0.697873
1.22431 1.21533 1.14417
3.37311 0.770687 0.729568
1.78433 -0.454362 1.74898
3.35481 0.582642 0.729056
1.82538 1.9445 0.723799
1.83065 0.447076 1.77548
2.50557 0.967931 1.14155
2.75582 -0.711294 1.36915
2.90669 0.473743 0.651775
2.50503 0.0473751 1.07898
2.04473 1.71188 0.729057
2.54217 -0.956153 1.68601
2.4536 -0.233099 1.87189
2.15536 0.145455 1.72967
2.76754 0.691125 0.698981
1.99191 1.88339 0.592989
3.11265 0.82075 0.690556
2.18251 2.17185 0.815908
2.99052 -0.195669 1.05285
2.08917 0.362937 1.15739
2.32385 1.80509 0.759193
2.83938 -0.867714 1.42863
2.10507 1.62871 0.861478
2.84496 0.985255 0.563284
1.34164 0.132932 1.38944
2.72872 -0.99447 1.83491
2.22634 1.52864 0.871634
2.44933 -0.0021877 1.69715
1.51259 1.52313 0.883172
2.35058 -0.838247 1.78024
1.77078 1.65847 0.822004
2.16137 0.813273 0.99249
2.72109 -1.33776 1.66737
2.00942 -0.0901792 1.40873
1.68842 1.3317 0.994905
2.43953 -0.633839 1.45258
1.3529 1.59018 0.738853
3.28502 0.03012 1.22061
2.69174 0.420513 1.14184
1.42112 0.0184106 1.6392
2.76632 -0.18344 1.27108
2.44364 0.0476252 1.20613
3.28388 0.31101 0.756683
1.22424 1.0838 1.13633
1.39876 1.44082 1.36465
3.22665 0.41362 0.485832
3.02995 -1.11655 1.61393
2.50352 -1.21298 1.40327
1.77085 1.59014 0.793984
1.5766 -0.130025 1.67959
1.67778 0.422206 1.52872
2.55397 0.284342 1.2928
1.91199 2.03162 0.864615
2.17843 1.96658 0.685457
1.47533 2.02894 0.979957
2.14203 0.171865 1.15541
2.67379 0.0778288 1.18303
3.1965 0.951224 0.735968
1.28954 1.11074 1.1248
3.06273 0.835896 0.708671
1.4371 1.0003 1.64184
3.02627 1.22887 0.867757
2.29146 0.80128 1.12984
2.35145 1.48581 0.884524
2.47488 1.5245 1.05691
1.59992 2.36976 0.730485
1.47218 0.735752 1.32133
1.22381 0.2729 1.45784
2.47117 -0.872177 1.27151
2.79175 -0.5345 1.07282
2.61497 -0.374359 1.25364
1.56084 0.612716 1.33508
1.5586 0.998882 1.05614
2.52928 0.567905 0.901015
2.09716 0.875925 0.708822
2.79159 0.339543 1.22314
2.52107 0.665347 1.08325
1.75519 2.18319 0.803152
2.64171 0.232364 0.96967
2.4189 -0.630443 1.81323
2.89643 -0.0113313 1.05807
2.29772 -0.634105 1.56775
1.3198 0.783452 1.71931
3.05368 -0.738884 1.44162
1.52324 1.54443 0.87427
2.01268 0.132795 1.76839
1.60355 0.186988 1.54038
1.69598 0.740467 1.77667
2.52247 0.227285 1.29157
1.43735 1.51413 1.25599
1.41732 0.985422 1.73436
2.28306 0.166136 1.40142
1.21064 1.24805 1.0744
2.87011 -0.853442 1.36902
1.54878 1.45106 1.28434
2.55553 1.10207 1.09497
1.72379 -0.413882 1.72157
2.85741 -0.884566 1.54237
2.71201 1.01473 0.98196
3.06601 -0.262705 1.01481
2.91222 -1.38127 1.73816
2.12653 1.81353 0.600276
2.47585 1.09531 1.08053
3.10258 0.2049 0.996795
1.60739 0.803438 1.08224
2.75289 -0.584598 1.36173
1.8391 1.25088 0.636982
2.60478 -0.776374 1.42007
2.42836 -0.425941 1.87009
2.43425 1.91393 0.898049
2.43499 0.136315 1.09067
1.33086 1.49961 0.849927
2.29226 1.64159 0.952229
2.67612 -0.840905 1.67059
1.734 1.71723 1.00763
2.45251 -0.279871 1.47332
2.90874 -0.439301 1.14001
1.80496 2.03134 0.863427
1.56292 1.03031 1.29218
2.44911 1.45501 0.681245
2.33195 -1.07367 1.6735
1.56378 0.754439 1.20149
2.74854 -0.0018673 1.5059
2.50513 0.827734 0.686362
1.72737 1.99185 0.968784
1.56506 1.18742 1.53344
