ply
format ascii 1.0
comment Created by Open3D
element vertex 400
property double x
property double y
property double z
end_header
2.96922 1.72994 0.75545
0.748819 1.81622 2.32151
2.32204 1.35436 0.997464
1.32118 0.526335 1.84984
2.58893 1.97913 0.661759
2.51299 1.60943 0.594134
1.75107 0.386964 1.27204
2.05796 1.64073 1.15584
0.507321 1.59724 1.96909
0.197649 1.44358 2.67665
2.86107 1.16559 0.226736
1.61509 1.11997 1.35171
0.856662 0.991648 2.09835
0.786076 1.64054 2.06899
0.909528 1.33749 1.81521
3.29879 1.32963 0.0740105
2.85835 1.378 0.540145
0.220128 0.998551 2.31528
2.40708 0.629226 0.795721
0.672214 0.780779 2.10764
1.80168 1.56152 1.27923
1.49007 1.58074 1.4703
0.872258 1.35633 1.88833
1.67861 1.00865 1.22498
2.23856 0.588235 0.753203
1.79818 1.59041 1.03634
1.14963 0.339495 1.68522
1.45377 2.18126 1.4878
1.2146 1.05147 1.88495
1.69869 2.31188 1.39601
2.76589 1.59108 0.264915
1.03145 1.25612 1.87611
1.616 0.509126 1.55317
0.823448 1.53333 2.08493
1.51457 0.663286 1.53622
1.50168 0.874261 1.42573
0.819817 1.95154 2.08893
1.8469 2.37603 1.49046
2.6465 1.21217 0.831055
1.5791 0.38173 1.28138
1.01508 0.968344 1.85479
2.25112 2.28447 1.12502
0.574148 1.36657 2.41672
1.2614 1.54274 1.85091
0.970777 1.83685 2.20917
1.90634 0.341733 1.18794
1.92344 2.19278 1.31984
1.42462 1.22535 1.82393
1.72198 2.5422 1.44399
1.50028 1.23072 1.69263
0.187287 1.25211 2.63145
1.68775 0.566051 1.38045
0.640206 0.807488 2.01555
0.319013 1.56847 2.60932
0.487153 1.2174 2.49865
1.93375 1.85393 1.45378
2.57441 1.92874 0.854154
2.71398 1.62827 0.232047
1.98052 0.939973 1.1655
1.64889 0.638646 1.18894
0.401935 0.875637 2.28828
2.30491 2.14226 1.03636
1.62071 0.786083 1.62808
3.04071 1.74818 0.424947
2.07778 2.16864 1.00774
0.49943 1.19258 2.3474
1.7671 2.29405 1.26236
1.96497 1.29104 0.881584
0.946637 1.3137 2.07979
1.86535 2.26529 1.42221
1.55507 1.91988 1.16506
1.73044 0.291336 1.11963
2.33794 1.28541 0.57772
0.104074 1.26025 2.58046
0.752107 1.57574 2.13365
2.50171 1.8975 0.771603
2.80718 1.26851 0.600972
3.16456 1.25099 0.419448
1.37717 1.77142 1.57744
2.0049 2.16885 1.1364
1.34258 1.97985 1.47327
1.65287 2.41485 1.50714
1.4136 2.18108 1.9628
1.57207 1.709 1.20989
0.752318 1.75303 2.30769
2.22125 0.873853 1.0041
2.32156 1.39584 0.858328
1.25418 1.88693 1.82574
2.33316 1.12319 0.787091
2.61843 1.63629 0.524479
1.38247 2.3774 2.12743
1.04188 1.41896 1.78659
1.54462 0.549132 1.54597
0.614275 1.15295 1.9517
1.35501 2.03897 1.53724
2.45055 1.19569 0.774382
0.84329 1.62425 1.8735
2.85873 1.43469 0.330342
2.05971 2.3027 0.936104
1.11166 1.824 2.00352
1.62924 2.24764 1.90483
1.17776 1.76132 1.58963
1.14398 0.654837 1.74866
2.4389 1.39789 0.624725
2.59075 0.860078 0.256591
1.65281 1.99466 1.56739
0.729767 1.60144 2.04561
2.10742 1.9474 1.00051
1.99396 2.06807 1.37488
1.07005 0.693104 1.82532
2.11303 0.683513 0.83629
0.858349 1.63658 2.13456
0.647801 1.20733 2.43433
1.54181 0.850342 1.79542
1.91125 2.08175 1.127
2.54701 1.77225 0.779278
0.750412 1.25161 1.84868
0.55601 1.00274 2.16565
1.49604 0.42899 1.7995
2.21939 2.243 0.921611
1.69363 0.784873 1.41554
3.27191 1.30434 0.22452
0.853739 1.03241 1.81703
1.74078 2.67737 1.47464
1.31812 2.25241 1.64752
1.72242 0.158043 1.35646
1.52326 1.13328 1.61782
3.10213 1.36879 0.0711067
1.32073 2.30727 1.99467
3.45628 1.48487 0.267116
1.41932 2.39486 1.85625
1.55461 2.34514 1.41932
2.45214 1.52398 0.932229
1.8839 0.590775 1.26585
2.68949 1.19598 0.739728
1.66279 1.36039 1.51182
2.02401 0.853769 0.889732
0.841806 1.48371 2.03521
2.42714 0.745083 0.629471
0.388849 0.941743 2.28902
0.933067 0.649141 2.05563
2.8269 0.988376 0.728429
1.93323 0.296367 1.24478
1.97373 2.14583 1.14802
0.880667 1.80868 2.03324
0.752556 0.838706 2.21993
0.589836 1.32381 2.30426
1.08826 0.107559 1.41564
0.941132 1.7259 2.08374
1.8155 2.08578 0.993678
3.41687 1.45652 0.0659266
2.64503 1.07376 0.822783
2.42866 0.691344 0.779902
1.98331 1.72954 1.09344
1.6165 0.55108 1.3234
0.4602 1.4514 2.80259
1.33431 0.420158 1.75066
3.09696 1.1319 0.258789
1.31765 0.223969 1.55537
2.95376 1.16874 0.66389
2.25161 1.0287 0.954981
1.05484 0.637649 1.82881
1.25699 0.2214 1.554
2.21078 2.38512 1.36508
1.31182 1.14373 1.37101
2.76011 1.60215 0.362549
1.43857 0.242083 1.43089
1.7688 2.71653 1.54307
2.65666 1.70706 1.25761
1.10977 0.583853 1.8332
2.65823 1.07122 0.541524
2.85426 1.79987 0.624416
1.94401 0.889521 1.11735
2.50344 1.13265 0.83583
2.09552 1.94581 1.09497
2.07929 1.53139 0.890202
1.73857 1.73109 1.22987
1.26227 2.04702 1.88661
1.82292 1.02596 1.36707
0.926959 1.12029 1.78279
1.77202 1.38457 1.05661
1.26982 1.12565 1.79794
1.54448 1.05768 1.64043
1.09642 1.68954 1.76325
1.86703 1.99596 1.25641
1.00002 1.66707 1.9513
0.444544 1.65373 2.80177
0.190279 1.09473 2.4382
2.33373 0.752712 0.944239
0.345737 1.28778 2.65048
2.86967 1.60712 0.868736
2.49933 0.749161 0.583486
1.94281 0.334655 1.30184
1.98236 2.15512 1.1082
1.69765 2.31902 1.52407
1.69666 2.10697 1.46894
2.39361 2.10877 0.826107
1.86461 1.57934 1.42915
0.384731 1.24708 2.31581
2.40963 0.722473 0.774983
2.6199 1.02396 0.753746
1.56967 1.68614 1.33346
1.83089 2.25742 1.53693
1.0256 0.945769 1.81258
1.61815 1.93613 1.23826
2.17973 2.26922 0.86735
1.85973 2.5413 1.5314
1.20178 0.805975 1.63688
2.09688 1.31855 1.37229
2.28843 1.80862 0.55324
1.30974 0.540624 1.59158
1.66649 2.37269 1.44298
0.691573 1.4738 2.04042
0.543139 1.06171 2.39162
2.12817 0.687164 1.31963
2.86429 2.0005 0.686794
0.845384 1.08337 1.91941
1.8072 2.69084 1.49392
0.869131 1.92217 1.96573
2.51825 1.07286 0.809841
1.46035 2.25208 1.90099
1.3556 1.69753 1.83075
1.21954 0.368186 1.7622
1.80061 1.69106 0.882658
0.953993 1.20342 1.63267
1.58114 0.989487 1.2711
2.67499 1.8853 0.61628
2.57159 2.08829 0.785019
0.947696 1.41302 2.06833
1.20877 0.866897 1.59638
1.71062 1.88492 1.37941
1.74619 1.81294 1.22771
1.13058 0.443493 1.78769
2.89318 1.75754 0.553745
1.90043 1.9312 1.3681
2.50723 2.49598 1.16867
1.9647 2.73747 1.5732
2.65328 1.09549 0.600859
1.59754 0.586368 1.29574
1.69753 1.10191 1.4883
1.79444 1.77952 1.4595
0.512041 1.26861 2.0188
1.57725 2.53402 1.47658
2.22796 1.70766 0.974825
0.789394 1.88451 2.19576
1.8809 1.64438 1.19209
1.70001 1.22697 1.34053
1.18978 1.31591 2.08862
3.03013 1.29568 0.370389
1.71052 2.05106 1.52501
2.75296 0.987431 0.670661
1.91656 2.56575 1.21194
1.89436 1.13153 1.71478
1.09366 1.27769 1.50178
1.54499 2.21448 1.38754
1.11401 0.5936 1.68519
2.05264 2.29495 1.12862
0.840926 0.724474 2.08565
0.263623 1.04804 2.31086
2.19196 1.19053 0.785029
3.04773 1.46573 0.23483
1.04597 1.81361 1.61084
3.19583 1.38003 0.298752
1.29711 0.968766 1.39362
0.405142 1.24427 2.1538
1.70384 2.48325 1.65616
2.06886 1.79467 1.02086
1.35092 2.23344 1.79713
1.81637 1.9419 1.2116
2.22632 2.28124 0.965558
1.76757 0.378589 1.38299
2.31708 1.16477 1.19422
1.17114 1.23366 1.63578
1.603 2.52555 1.65155
0.777622 0.589599 1.85004
1.83369 2.65554 1.48826
2.34284 0.559419 0.770547
1.91439 2.60613 1.33133
0.433891 1.44959 2.32028
2.00312 0.835696 1.44203
1.62295 1.78973 1.68377
2.68879 1.54148 0.503047
1.63877 2.15865 1.22178
1.96732 1.56387 0.988528
0.668457 1.60843 2.14818
2.9389 1.18267 0.403349
2.73464 1.23971 0.980794
2.28013 1.08516 1.21565
1.50283 2.06338 1.39529
0.432475 1.60938 2.26593
1.62734 2.41993 1.51347
0.606228 1.8139 2.54046
2.3354 1.99378 0.801073
1.66047 1.22175 1.23035
0.803945 1.88149 2.24746
2.85705 1.57076 0.400905
0.859522 1.62537 2.10841
1.28371 2.21511 1.61511
1.52629 0.366558 1.10802
3.19165 1.32163 0.412618
0.981015 1.71537 2.03962
2.4839 1.34087 1.10627
0.588897 1.02077 2.01495
2.8581 1.00177 0.510568
0.623134 1.31897 2.11027
1.36592 1.45075 1.52389
3.19591 1.27162 0.111711
2.02301 0.958461 0.96078
0.872273 1.12235 1.89777
2.54069 1.22368 0.58201
0.34025 0.909725 2.03336
2.5532 2.305 1.01014
1.96703 1.82921 1.28305
1.83512 0.352876 1.08666
2.38263 1.71409 0.868788
2.04048 1.47194 1.01932
2.02648 2.47869 1.1162
0.829101 0.55932 1.74872
0.968175 0.763997 2.07558
1.70175 2.48932 1.15095
3.23762 1.65527 0.258126
2.78764 1.15029 0.140257
0.629269 1.30895 2.05203
2.0239 0.457757 0.988822
1.71522 0.740589 1.35939
2.07627 1.62181 1.2165
0.569591 1.52798 2.41563
0.579452 1.78562 2.35939
0.420333 1.07361 2.43067
1.77079 1.22239 1.09151
2.14061 1.71252 1.0391
1.65302 2.51673 1.631
0.846436 0.635545 1.76474
1.6091 2.37302 1.52561
1.41834 0.618753 1.81864
1.55078 2.39486 1.86027
1.56376 1.54202 1.55072
1.08093 1.82109 2.01616
1.28625 1.916 2.08339
0.104397 1.30096 2.66871
1.28408 0.672158 1.53578
1.45463 0.267424 1.22929
2.50841 1.23935 0.359649
2.3831 1.70229 0.554956
2.36201 1.51774 0.72287
1.40072 0.724773 1.44878
0.995095 0.894663 1.66282
1.60153 1.76376 1.33342
1.05479 1.46652 1.50656
2.12952 1.88683 1.24431
1.71267 1.73983 1.44658
0.353154 1.41499 2.52338
1.87202 1.77277 1.10131
2.83558 1.11481 0.673645
2.20272 1.9427 0.942398
2.55717 1.05494 0.608671
1.50844 0.42349 1.67976
2.94005 1.81909 0.495699
0.577845 1.0384 2.02927
2.23693 0.932629 1.21284
1.78343 0.601889 1.18865
1.79887 0.778366 1.65808
2.08164 1.57602 1.17374
0.867155 0.850335 2.10114
1.49067 0.569417 1.83333
2.06422 1.29761 1.15158
0.696069 0.602192 1.8565
2.81908 1.62197 0.394699
0.985535 0.940973 2.05887
1.55174 1.88184 1.77577
2.26718 0.517534 0.792372
2.97101 1.55429 0.418561
1.5783 2.03275 1.69399
2.37834 2.06498 0.738325
3.38982 1.43828 0.0926601
0.544756 1.71875 2.2213
1.49729 1.80676 1.76439
2.17564 2.21732 1.09016
1.13039 0.885624 1.5252
2.62562 1.57301 0.595289
0.680837 1.32574 1.76423
2.67109 1.35925 0.469155
2.80159 1.16423 0.838193
0.941728 1.98849 2.35968
1.89863 1.51559 1.05572
0.464255 0.841223 1.98924
1.03891 1.78956 2.14428
2.95359 1.34932 0.4859
0.738398 1.25763 2.1936
2.41373 1.32552 0.847119
2.46771 1.82723 0.642213
0.508175 1.42488 2.41141
1.18478 0.846961 1.74626
0.961952 1.9342 1.96991
2.85792 0.948256 0.310022
1.22781 0.799376 1.51884
2.49334 1.68381 1.06287
1.28357 1.84723 1.48563
0.575756 1.32091 2.39831
1.32151 0.825645 1.92684
