ply
format ascii 1.0
comment Created by Open3D
element vertex 250
property double x
property double y
property double z
end_header
-0.429345 1.28372 -2.50604
-1.58195 1.72798 -0.625788
-1.29178 -0.387976 -2.27841
-1.03047 1.22551 -2.95247
-0.735039 0.114934 -2.86743
-1.29718 0.238509 -2.46135
-1.22983 1.45375 -1.31103
-1.24556 2.6665 -1.32543
-1.78308 1.52784 -0.539734
-1.12201 2.73212 -0.385372
-1.2086 -0.531256 -2.07499
-1.55961 1.87711 -2.05596
-0.836771 -0.143569 -2.81259
-0.646114 3.51659 -0.689902
-1.4808 0.235929 -2.9706
-0.794379 2.92969 -2.02113
-1.43943 2.88428 -2.22078
-1.03009 0.612166 -2.63212
-1.93656 0.830003 -1.70718
-1.09141 3.14659 -1.7805
-1.7185 1.9398 -1.32072
-0.79762 3.00014 -0.910024
-0.870574 0.323619 -1.82826
-1.88644 1.24647 -0.649636
-1.23279 2.46031 -0.302635
-1.41024 1.1321 -1.68022
-0.754069 0.11912 -2.2524
-0.803826 2.11146 -1.94954
-1.53352 1.06592 -1.88157
-1.20404 2.22007 0.132266
-0.836428 3.45893 -1.28889
-0.646529 3.78639 -0.969455
-1.69467 1.53723 -0.403172
-1.14764 -0.588364 -2.69741
-1.41875 2.13383 -0.251163
-1.4553 -0.634377 -1.70324
-0.868441 0.329588 -3.55854
-0.724769 3.42686 -0.732794
-2.20375 1.22255 -2.11833
-0.744229 0.654772 -2.77801
-0.778863 0.983467 -2.74036
-1.13944 2.96184 -0.79605
-1.42712 0.696847 -1.59622
-0.935658 -0.784524 -2.36035
-1.16303 -0.290464 -3.49895
-1.1704 2.37602 0.0118475
-1.39981 -1.42825 -2.58285
-1.01248 2.47845 0.192933
-1.53626 0.460304 -2.21773
-1.5785 1.73601 -1.86856
-1.1339 2.90518 -0.760201
-1.5332 -1.04265 -2.5054
-1.51617 2.41742 -1.19622
-1.5378 2.38561 -0.903262
-1.45144 1.75481 -0.827805
-1.12872 2.75092 -0.426865
-1.95878 1.21998 -0.605904
-1.5657 1.23182 -1.9653
-0.703208 1.50898 -2.2164
-1.17562 -0.363188 -3.01758
-0.60544 3.58266 -0.427215
-0.99097 2.91855 -0.424159
-1.36068 1.92601 0.291954
-0.850102 2.92353 -0.0812174
-0.879994 0.0219862 -2.80909
-1.5449 -1.45697 -2.21792
-1.5615 1.84983 -1.92308
-1.08433 3.02537 -1.43394
-0.756034 2.32073 -2.23285
-1.44524 -1.29683 -2.15827
-1.14919 2.58187 -1.29037
-1.27548 -0.369128 -1.50828
-1.28139 1.22143 -3.1378
-1.20737 3.23585 -1.57258
-1.6756 -1.23555 -2.33945
-1.14251 0.857183 -2.80903
-1.32222 2.36444 -0.477017
-0.51876 3.35182 0.0893514
-1.18707 0.929241 -2.24191
-1.08744 2.96496 -0.63637
-1.20147 3.02979 -1.14121
-1.10284 -0.333582 -2.4366
-1.13587 3.3297 -1.63546
-1.35067 2.28583 -0.733664
-0.85542 2.14859 -2.53807
-0.908124 3.23203 -1.52321
-0.57818 1.2342 -2.78192
-0.813349 3.42581 -0.753304
0.0212677 4.34443 -0.0978135
-1.54655 -1.25477 -2.48745
-1.29605 1.06739 -2.8883
-0.754528 1.6851 -2.10765
-1.7968 0.915607 -1.49195
-0.335244 2.21178 -2.11598
-1.46679 -0.741939 -2.38616
-1.59205 1.96118 -0.475109
-1.14478 3.309 -1.68375
-1.58793 1.85895 -0.526004
-1.13722 -0.686703 -1.81672
-1.59746 -1.01326 -2.16281
-1.47872 2.29378 -0.626467
-1.33889 0.766338 -1.58258
-1.12025 -0.275242 -1.45837
-1.95904 0.741208 -1.1076
-1.26415 1.95977 0.392622
-1.01339 -0.646378 -2.2646
-1.67756 1.70767 -0.195143
-1.01432 -0.000188239 -1.95286
-1.44977 2.14193 -0.450241
-1.75575 0.533939 -1.75532
-1.30297 2.99838 -2.00072
-1.53107 1.90194 -0.176019
-0.865128 0.168217 -3.49113
-2.03315 -0.10722 -1.70271
-0.664136 -0.416758 -1.84274
-1.03222 -0.57219 -2.69399
-0.689853 0.202915 -2.88024
-2.19132 0.910964 -0.928245
-1.02047 -0.0546312 -2.34781
-1.05607 2.51358 0.0129309
-1.0084 -0.673573 -2.46375
-0.76371 3.3746 -1.8226
-1.49996 1.66959 -0.641032
-1.48042 1.58031 -1.39462
-0.772965 0.700973 -2.30782
-0.782183 1.81097 -2.60483
-0.54568 0.120514 -2.31993
-1.33383 2.30865 -2.49785
-1.17063 0.543335 -2.61003
-1.09625 2.95564 -1.96797
-1.10566 0.508456 -1.95666
-1.62987 0.641023 -1.67825
-0.802373 0.328167 -1.62077
-1.37327 0.0973625 -1.70094
-1.05583 2.10559 -2.16794
-0.818672 1.74366 -2.46326
-1.19436 1.78399 -1.77753
-1.1978 2.14669 -0.567381
-0.935029 2.9328 -2.0743
-0.927557 0.632566 -2.75589
-1.67651 1.66251 -0.0609749
-0.828598 -0.137853 -2.66655
-1.33034 2.17144 -2.31454
-1.03312 1.54115 -2.22021
-1.25679 2.52551 -2.37348
-1.35594 1.82553 0.361433
-1.58862 -0.779838 -2.42734
-0.988803 1.60465 -1.21555
-0.762009 -0.334988 -2.68879
-1.22848 2.42234 -2.21134
-1.12727 1.43209 -1.99712
-1.22419 2.96103 -1.41945
-1.26533 0.756989 -2.85057
-1.09629 2.26842 0.38914
-0.986122 2.93892 -1.58456
-1.84553 1.94235 -1.01598
-1.72926 1.35545 -2.24254
-1.21131 1.20634 -1.00804
-1.37607 2.13949 -0.588221
-1.46421 -1.10353 -2.6659
-1.69669 1.39792 -2.2836
-0.622364 1.11185 -2.81607
-1.82406 0.430719 -1.97975
-0.967741 3.37966 -1.07904
-1.37094 2.46598 -1.89699
-1.04512 2.66267 -1.32359
-0.823081 3.61487 -1.16821
-1.25056 0.683999 -0.990669
-1.26552 -0.140858 -1.44946
-0.826542 0.34565 -2.28424
-1.0255 0.838275 -3.09734
-1.4089 2.89449 -1.39296
-0.979727 1.4664 -2.55034
-1.12502 -0.906107 -2.74935
-1.66986 1.01491 -1.10251
-1.70878 0.727651 -1.01642
-1.35951 2.14172 -0.180106
-1.2871 2.41471 -2.1104
-0.78295 1.41278 -2.36207
-1.84224 1.47404 -1.86528
-0.647524 1.31251 -2.61057
-1.0375 0.785098 -2.50044
-1.44909 0.469569 -1.94483
-1.13127 1.06628 -1.88674
-1.50498 2.81186 -1.628
-0.384153 0.605965 -3.32743
-0.826247 3.64657 -1.402
-1.70725 -0.925934 -2.17942
-1.75672 1.98347 -1.10812
-1.16618 0.264116 -3.29622
-0.898237 0.55105 -3.41124
-1.46112 2.17079 -0.533957
-0.906289 0.818745 -3.19138
-1.62547 2.57667 -1.51962
-1.89514 1.73739 -1.65235
-1.78222 -0.764662 -1.86996
-0.741611 0.336925 -2.64051
-1.21238 3.09673 -2.10874
-1.98296 1.11348 -0.997603
-1.17048 -0.236441 -2.76968
-0.248291 4.01411 -1.73515
0.0367754 4.14786 -1.04848
-0.440943 3.92545 -1.5904
-1.28386 3.17924 -1.75368
0.329853 4.54237 -1.27691
-0.97123 3.45892 -1.43156
-0.335374 3.86029 -1.6341
-1.16775 3.23423 -1.9934
1.42245 3.83244 -1.19984
-0.0128616 4.00537 -1.89321
-1.11241 3.36419 -1.64355
-0.192373 4.22126 -1.42298
1.1903 4.06927 -1.28737
-0.802937 3.67124 -1.80063
-0.842012 3.54923 -1.83591
0.0532767 3.87367 -1.53756
-0.785723 3.66793 -1.82331
1.28284 3.98831 -1.20762
0.211353 3.90436 -1.20309
1.02901 4.15015 -1.28361
-1.16109 3.32945 -1.99332
1.00642 3.85523 -1.2986
-0.434288 3.74656 -2.04396
-0.628766 3.73881 -1.16562
-0.107921 3.81055 -1.30409
0.474594 4.0523 -1.48847
0.101725 4.2862 -0.846788
-0.224504 3.97582 -1.82664
0.644022 3.44819 -2.01112
0.160405 4.05779 -1.57178
-0.175711 3.92697 -2.00385
0.0567187 4.41593 -1.00937
-0.253178 4.03762 -0.642591
0.0982789 4.21687 -1.10191
-0.202886 3.81718 -1.30708
0.336668 3.81397 -1.94148
-0.0119693 3.70334 -2.2365
-0.488679 3.23874 -2.51341
0.591746 4.15661 -1.38912
0.112327 4.03165 -1.10604
0.20465 4.16593 -1.21798
0.725598 4.21907 -0.937184
0.864755 3.76474 -2.11221
1.32961 3.94325 -1.55129
0.783479 3.69214 -1.73518
0.393451 3.88522 -1.4248
0.57871 3.55918 -2.07114
-0.948046 3.45403 -2.23124
0.347394 3.89829 -1.55388
0.775683 4.19386 -0.983873
