ply
format ascii 1.0
comment Created by Open3D
element vertex 400
property double x
property double y
property double z
end_header
0.0924585 1.72693 2.38632
1.46945 2.04485 1.36295
1.33747 1.97337 1.84735
0.388578 1.65597 2.79732
1.58514 2.06543 1.52765
-0.807915 1.64856 1.57928
1.52813 2.05213 1.55173
0.57892 1.92846 1.27734
0.765464 1.92093 0.854132
-0.1417 1.65973 1.90931
-0.262106 1.85391 1.42947
0.17169 1.64497 2.18517
1.86135 2.15411 0.879097
1.00101 1.92969 2.20224
1.5933 2.06064 1.51626
1.5474 2.05133 1.75035
0.482609 1.80912 2.94681
-0.613181 1.46245 2.5738
1.45963 2.09211 1.60736
1.69829 2.24092 0.875765
-0.00480178 1.67553 2.36112
0.0956796 2.0571 1.16291
1.1376 2.02511 2.10166
0.475273 2.06084 1.23242
0.450198 1.79341 1.34064
0.243037 1.49189 1.79019
1.53534 2.09265 1.06759
1.14342 1.82642 1.31038
0.264724 2.09251 0.782406
0.938962 2.01072 1.18189
0.457497 1.78255 2.00566
0.537542 1.54751 2.75232
0.340554 1.83094 0.994154
0.456417 1.77502 2.55404
-0.713801 1.48824 2.79186
-0.205625 1.90092 1.98788
0.857807 1.93539 0.654025
1.28225 2.13469 1.32658
-0.0683815 1.72901 1.08262
-1.01949 1.52496 1.57685
0.286583 2.05042 1.28513
1.25396 1.90206 1.7057
1.46008 2.01113 1.59661
0.0688213 1.68703 2.42858
-1.20824 1.58847 2.63893
-0.10496 1.79108 1.55839
0.800179 1.86037 1.79004
1.41862 2.05494 1.98497
-0.169557 1.57077 1.92777
-0.328044 1.90031 1.2024
1.07759 1.99735 0.80737
0.722185 1.86047 1.88444
0.565288 1.87435 1.87873
0.152025 1.64573 2.36054
1.04676 1.94621 2.58014
0.960104 1.78202 2.2434
0.768304 1.79285 2.58631
-0.796323 1.88892 1.83118
-0.326513 1.43644 2.16169
-0.12917 1.82032 2.00879
-0.788163 1.65934 2.48298
0.496766 1.56862 2.68818
0.200784 1.76094 1.91651
0.321299 1.75784 2.34238
-0.345092 1.76185 1.9724
0.695854 1.73811 2.44657
0.124777 1.95534 1.26533
-1.00046 1.35881 2.31541
0.270989 1.89995 1.08431
-0.496714 1.78018 2.72834
0.677766 1.85936 1.9063
-0.702071 1.84763 1.66096
1.15946 1.89282 0.941955
1.27688 2.23199 0.914211
-0.626331 1.76672 2.02355
0.75592 1.69222 2.24486
-0.594561 1.93303 1.21683
-0.38866 1.9076 0.986652
0.630281 1.87502 1.19479
1.02223 2.09437 0.953666
-0.570432 1.75213 1.7732
0.971711 2.02049 1.40871
-0.100601 1.60575 2.47405
0.131359 1.99664 1.66893
-1.04617 1.7664 1.66987
0.325777 1.93165 1.40359
1.65909 2.06807 1.42105
1.56439 2.17922 1.11108
-0.576884 1.95546 0.796623
1.09176 1.87766 1.91196
0.286086 1.93291 1.77097
1.70062 2.08668 0.803056
1.02663 1.93729 0.599333
-0.537224 1.71396 2.39913
1.62822 2.12627 1.49832
0.869456 2.11795 0.707642
-0.338466 1.67946 2.55183
0.652453 1.6047 2.95385
-0.31467 1.88214 2.22963
-0.603363 1.52814 1.83798
-0.684056 1.87016 1.92922
0.501734 1.88092 1.57785
-0.453443 1.8145 2.63329
-0.45042 1.90426 1.34242
-1.08696 1.56577 2.42085
-0.454795 1.79542 3.10314
0.590262 1.97738 1.66358
0.704281 2.0232 0.770036
-1.14774 1.49554 2.86729
0.953689 1.92224 0.730237
0.800028 1.88365 1.02603
-1.15084 1.65736 2.55199
-0.45024 1.69083 1.58943
0.848391 1.73773 1.5932
-0.536431 1.43771 2.66143
-1.45089 1.60595 2.70594
1.25509 2.13066 0.986734
-0.648751 1.71175 1.81076
0.233386 1.83502 1.41291
0.781651 1.7934 1.73474
1.38214 1.98702 1.01582
0.687321 1.65075 2.89132
-0.216978 1.66982 2.30006
-0.414311 1.64159 2.44837
-0.0433561 1.57104 1.85869
0.186109 1.85747 1.42386
0.732876 1.88762 0.818968
-0.827869 1.73096 1.49797
0.587326 1.67119 2.78856
-0.458521 1.5946 1.87094
0.391039 2.01426 1.36173
1.10204 1.7807 0.882434
-0.410358 1.85038 2.74408
-1.36684 1.63388 3.00831
0.419702 1.91417 1.0654
-0.65216 1.54668 2.51442
-0.542624 1.9103 0.818219
-0.63862 1.78038 1.372
0.274125 1.73198 2.83448
-1.06606 1.69818 2.66389
-1.21544 1.63069 1.96445
-0.026427 1.89204 0.758092
-0.451863 1.52601 2.71534
-0.70252 1.65412 1.31557
-1.45506 1.46354 2.53951
1.59303 2.15873 0.923354
1.15543 1.94518 2.20925
1.74163 2.12406 0.830351
0.392455 1.54367 2.82597
-0.417677 1.77232 1.7488
-0.401478 1.83642 2.41362
0.188111 1.61154 2.31728
-0.0884171 1.72825 2.63602
0.101808 2.05155 0.89662
0.647107 1.9975 0.634599
0.715129 1.72762 2.82508
1.21403 1.9441 1.81921
-1.39902 1.56395 2.08916
-0.0138548 1.99617 0.88463
0.935742 1.92112 1.59438
0.537516 1.76078 2.39697
0.12606 2.21085 0.835044
0.104787 1.88984 1.42086
0.456592 1.62007 1.68612
-0.447018 1.506 2.50495
1.76176 2.12759 1.35661
0.736281 1.60692 1.71816
-0.559949 2.0014 1.26829
-0.348516 1.6702 3.02117
0.966938 1.85911 2.87173
1.07597 1.89101 1.98358
-0.40562 1.71983 2.46022
0.962518 1.70651 1.84494
0.0155022 1.90729 0.695857
1.09742 1.84917 2.12662
1.20558 1.83079 1.85995
-0.936449 1.91058 2.33109
-0.589761 1.70117 1.62081
-0.321931 1.79334 0.892498
-0.1674 1.81915 1.23035
1.81697 2.21544 1.40428
1.05875 1.87565 2.0091
1.43755 2.08434 1.72888
1.18094 1.99848 2.25953
-0.695865 1.58165 2.86311
0.118169 1.94002 1.35981
1.10582 1.91201 1.69986
-1.08974 1.79712 2.71235
-0.114331 1.70323 2.99602
1.50678 2.02306 0.990556
0.950524 1.80286 2.44686
1.53816 2.015 1.27665
-0.622792 1.82557 1.10091
-0.32017 1.91808 1.65048
0.53529 1.86592 2.44551
0.518489 1.5118 2.89077
0.627971 1.74301 0.601866
1.43773 1.99009 1.59807
1.41624 2.08579 1.02089
-1.48635 1.47072 2.79927
0.527861 1.99864 1.73336
-1.01483 1.62008 1.71893
-0.42768 1.71475 2.08924
1.55915 2.06163 0.841237
-1.17309 1.53422 2.54523
0.137445 2.19002 1.20412
0.620419 1.89598 2.6412
0.663103 1.60049 2.66935
-0.423734 1.45193 2.81586
0.946393 1.91736 1.77559
-1.12012 1.62984 1.54773
0.676564 1.74504 1.75092
1.0468 1.94276 3.01594
1.18115 1.83429 1.52735
0.0633404 2.06796 1.23207
-0.174668 1.57856 2.83337
0.714287 1.79149 1.77878
0.47387 2.00776 1.33683
-0.631008 1.71745 1.74863
1.45882 1.97292 1.71006
0.687847 2.05414 1.00049
-0.601414 1.89329 1.12632
0.478134 1.71007 2.51645
1.49369 2.05025 1.2046
-0.547572 1.35305 2.41429
-0.0783008 1.545 2.95313
0.786794 1.98493 0.973828
0.181225 1.48518 2.56001
-0.384099 1.72697 2.40698
0.136748 1.69229 2.79662
-0.293616 1.90802 1.05163
0.170335 1.44695 2.71404
0.899335 1.95032 0.872803
1.58952 2.03597 1.49144
-0.877636 1.9034 1.78387
0.539733 1.90241 2.19511
0.0379763 2.06356 1.25219
-0.383812 1.74249 2.6751
0.0486909 1.61055 2.50344
-1.389 1.37538 2.65494
0.419667 1.51094 2.86743
-0.601644 1.62393 2.81108
0.429136 1.77721 2.21864
-0.536522 1.59582 2.71204
0.734755 1.82632 1.09007
-0.383171 1.57461 2.92306
-0.312501 1.75962 1.92061
0.269194 1.49463 2.30639
0.0328776 1.60469 1.45944
-0.3857 1.75756 1.01678
0.830285 1.73244 2.38147
0.12151 1.57622 2.92541
0.0705302 1.84441 1.63515
-0.0882632 1.58961 2.81972
0.462563 1.63132 3.00679
0.147245 1.91729 1.9982
0.385567 1.83515 1.68367
0.557734 1.72528 2.65547
1.80012 2.20556 1.43026
-0.147278 1.71958 2.2775
0.855587 1.91466 2.23712
0.0593784 1.80846 1.16609
1.27875 1.93003 0.851582
-0.414609 1.66209 1.90685
0.946883 1.81458 1.15423
-1.05118 1.57014 2.94415
1.10888 1.98808 2.3089
-1.01151 1.76609 2.63021
0.488399 2.19253 1.42384
-0.507677 1.45967 2.41598
-0.0409642 1.78203 1.56337
-0.975448 1.66071 2.708
0.488261 1.69669 3.06093
-1.71124 1.4125 2.77007
0.948721 1.78847 1.78164
0.961421 1.99351 2.43839
-1.2304 1.73142 2.03085
-0.148606 1.66402 2.16082
-0.318523 1.73565 1.43035
-0.470415 1.71549 2.33572
0.134575 1.80889 1.0131
-0.263276 2.04623 0.813334
1.20733 1.88314 1.25829
-0.991331 1.76109 1.62039
0.286654 1.67183 2.30834
0.0995014 1.75233 1.77032
0.228314 1.8117 2.93213
-0.504942 1.6769 2.0189
-0.144806 1.8114 2.21349
1.70693 2.11577 0.949911
0.572503 1.87834 1.5243
0.902807 2.02904 1.41111
0.680594 1.72349 1.95408
1.149 1.83241 1.80056
1.45811 2.16302 1.45961
-0.496331 1.9963 1.39131
1.06504 2.10285 0.731668
0.211149 1.517 2.67684
0.0617307 1.57984 2.27759
-1.13793 1.62882 2.14072
1.46038 1.96556 1.05977
1.15247 1.85631 1.52157
-0.902647 1.8269 2.21549
-0.183374 1.77142 2.50616
-1.37302 1.64356 2.56792
0.0844961 1.63555 2.15546
-0.471959 1.69128 2.20271
1.66421 2.0805 0.874568
-0.429994 1.74538 1.81902
-0.0298299 1.78417 2.1704
-1.14269 1.73061 2.70758
1.34823 1.98444 1.70356
-0.674 1.7119 1.82829
-0.65334 1.71735 0.747934
0.213557 1.98348 1.31126
0.74318 1.91061 2.19499
0.292043 1.92614 0.643528
0.11479 1.45028 2.62254
-1.27043 1.52605 2.81851
0.203078 1.60658 2.58658
0.607765 1.70609 2.12037
0.188304 1.54128 2.69851
0.120821 1.86346 1.22819
0.873571 1.78412 3.10025
0.941912 2.01011 0.926755
0.905182 1.91678 1.9725
1.58293 2.20157 1.29783
0.114407 2.15448 1.0456
-0.122646 1.65959 2.62738
1.19611 2.01701 1.41186
0.83268 1.84119 2.56487
-0.489363 1.8424 1.69952
0.919284 1.81056 2.83559
-0.863947 1.47673 2.79473
-0.310626 1.87679 0.79868
-0.856704 1.80703 2.29909
-1.25738 1.55646 2.7473
-1.10261 1.60591 2.3342
-1.08109 1.72936 1.99646
1.19243 1.89033 1.52653
0.151861 1.44723 2.09819
1.1195 2.02594 0.755212
1.28444 2.08938 2.61786
-0.285499 1.7288 1.34451
0.152097 1.66489 1.23257
0.894297 1.75272 1.60612
0.866936 1.90842 1.66598
1.78289 2.22528 1.53077
0.243767 1.6043 2.13415
1.98792 2.29538 0.926606
0.0274394 2.15584 0.891233
0.98514 2.00764 1.03527
-0.60966 2.0374 2.07635
1.1298 1.85289 2.08778
0.490145 1.69303 1.9385
-0.994186 1.63493 2.78104
0.0758289 1.76222 0.898617
-0.38908 1.81059 1.05312
-0.167735 1.95554 1.21162
0.661835 1.9765 1.27961
0.509975 1.95353 0.613729
-1.01391 1.66306 1.33497
0.742536 1.83122 2.5523
-0.789614 1.61662 2.76547
-0.930221 1.71852 1.14321
0.37622 1.70097 3.0349
-0.895465 1.62106 2.60249
0.878619 1.95724 2.02287
0.876824 1.89857 2.6821
1.80384 2.15794 1.23138
-0.502929 1.855 1.15424
-0.533983 1.89764 2.32522
0.351432 1.65746 2.72819
-0.518111 1.78769 2.38187
-0.326033 1.72615 0.984015
-0.495139 1.59661 2.48124
0.497987 1.71742 1.83418
1.16353 1.86413 0.879572
1.01207 1.79212 2.20254
0.715245 1.92422 1.81225
-0.11195 2.12426 0.724356
0.473434 1.88499 1.88492
-0.595766 1.8571 2.39996
0.756288 1.72623 3.01655
1.59733 2.1906 2.14523
1.43281 1.97987 1.60977
1.1048 1.93785 2.24277
0.400889 1.71905 2.18342
-0.488401 1.83555 0.969447
1.37606 1.91856 1.68991
-0.0994151 1.62031 2.7518
0.772571 1.76143 2.53916
1.01109 1.85342 2.06656
1.54392 1.9439 1.03516
0.921781 1.8897 1.50977
0.800841 1.99486 0.986103
-0.165456 1.53001 2.79047
0.695792 1.89932 1.86651
0.0768914 1.71092 2.0497
0.159777 1.53159 2.03504
