ply
format ascii 1.0
comment Created by Open3D
element vertex 250
property double x
property double y
property double z
end_header
-2.72903 0.386804 0.744952
-1.29189 1.52857 1.62828
-2.22743 -0.968268 0.880101
-3.34085 0.34076 0.174376
-2.80683 -0.766639 0.68823
-2.60744 -0.420573 0.652962
-1.78176 1.00443 1.46431
-2.19386 2.16947 1.09922
-1.20855 1.40796 1.57996
-1.32322 2.52946 0.957673
-1.9506 -1.07026 1.10163
-2.76702 1.28327 0.698739
-2.69826 -0.979101 0.752475
-1.80296 3.15189 0.208283
-3.17842 -0.515731 0.192667
-2.84392 2.14232 0.774016
-3.2444 2.19927 0.169234
-2.81958 -0.163882 0.563467
-2.19769 0.455659 0.984748
-2.7674 2.48261 0.676737
-2.1077 1.58237 0.98227
-1.73781 2.49583 1.59217
-1.86647 -0.264124 1.27865
-1.24228 1.11676 1.68683
-1.21505 2.33788 0.774837
-2.11141 0.642293 1.15506
-2.19786 -0.593144 1.06007
-2.51311 1.37978 1.02119
-2.33165 0.553102 0.964609
-0.684544 2.21105 1.20179
-2.29895 2.86038 1.01848
-2.07207 3.25635 0.824595
-1.03616 1.42516 1.8104
-2.54046 -1.30289 0.731745
-1.06237 2.03596 1.26403
-1.60592 -1.02755 1.36037
-3.63085 -0.699978 -0.0610268
-1.84137 3.07153 0.16245
-2.82197 0.783106 0.446179
-2.89899 -0.21853 0.548605
-2.97503 0.112302 0.488928
-1.77967 2.61548 0.93293
-1.89796 0.25554 1.26577
-2.06163 -1.45708 1.22093
-3.44589 -1.22776 0.128343
-0.80212 2.2862 1.48113
-2.21925 -2.0339 1.0139
-0.658956 2.44232 1.17636
-2.4929 -0.102631 0.752748
-2.5385 1.20145 0.853583
-1.70853 2.55717 1.10817
-2.32273 -1.60116 0.746722
-2.0878 2.04072 0.92251
-1.84541 2.13796 0.619896
-1.45647 1.46643 1.62067
-1.36952 2.53507 0.952934
-1.2141 1.12043 1.66557
-2.47665 0.695008 0.869842
-2.57625 0.724814 0.888714
-2.94455 -1.16501 0.436965
-1.49639 3.23478 0.835693
-1.42934 2.70781 0.534463
-0.455412 1.98767 1.49616
-1.04156 2.77206 0.844079
-2.76608 -0.806059 0.64515
-1.89201 -1.92932 1.14502
-2.62444 1.29222 0.798825
-2.37124 2.45164 0.997452
-2.8583 1.50099 0.737485
-1.8551 -1.77979 1.1753
-2.09518 2.07127 1.25425
-1.43746 -0.762482 1.53512
-3.60067 0.340354 -0.0593176
-2.67603 2.69196 0.25712
-2.13381 -1.71411 0.864213
-3.1083 0.0465544 0.344451
-1.30369 2.15155 1.37304
-0.908916 3.15838 0.992637
-2.56106 0.264907 0.795391
-1.62626 2.66751 0.869491
-2.15204 2.58977 0.793106
-2.34759 -0.997957 0.847986
-2.73924 2.74301 0.301717
-1.51984 1.99358 1.43425
-3.15034 1.28446 0.442598
-2.47198 2.58664 0.989809
-3.04191 0.302982 0.447975
-1.84321 3.04738 0.504481
-1.2103 3.91056 1.24718
-2.23837 -1.79872 0.827248
-3.29707 0.255906 0.205162
-2.53211 0.928003 0.949214
-1.96373 0.562812 1.19627
-2.58917 1.34619 0.955361
-2.27782 -1.29658 0.791872
-1.2668 1.83362 1.23368
-2.77378 2.70408 0.35979
-1.2524 1.69569 1.50673
-1.61495 -1.16952 1.38591
-2.0012 -1.47296 0.984213
-1.52974 2.11896 0.766141
-1.88052 0.30743 1.29417
-1.37225 -0.690974 1.60379
-1.55858 0.522979 1.51778
-0.366902 2.0513 1.32686
-2.04338 -1.27431 1.11972
-0.954326 1.7032 1.22496
-1.9353 -0.573664 1.17558
-1.2455 1.97393 1.3721
-2.10325 0.125924 1.05854
-3.01335 2.3338 0.395895
-0.926274 1.84141 1.49556
-3.49992 -0.845845 0.118077
-1.92672 -0.416775 1.13929
-1.58045 -1.02229 1.56783
-2.50224 -1.31527 0.831051
-2.83455 -0.695159 0.676756
-1.50765 0.786867 1.43592
-2.32098 -0.726158 0.891213
-0.875055 2.4461 0.934068
-2.23072 -1.35655 1.02232
-2.78275 2.61903 0.759831
-1.25483 1.44383 1.75172
-1.98037 1.15564 1.26993
-2.44196 -0.0493853 0.899053
-3.09446 0.933473 0.456539
-2.19792 -0.658605 1.16411
-3.29108 1.53889 0.323583
-2.8159 -0.195455 0.543573
-2.88982 2.24569 0.656468
-2.12033 -0.0753758 1.08103
-2.02169 0.221843 1.14611
-1.63672 -0.220769 1.46404
-1.80841 -0.347286 1.25774
-2.8065 1.36954 0.760847
-2.93538 0.909404 0.603222
-2.34741 1.19047 1.07829
-1.24452 1.85775 1.80624
-2.94176 2.16193 0.662065
-2.9231 -0.196305 0.496238
-0.781567 1.67669 1.5282
-2.55251 -0.935145 0.835444
-3.0563 1.45099 0.528471
-2.68091 0.817713 0.797688
-3.21111 1.76236 0.39722
-0.389234 1.93906 1.24087
-2.34391 -1.3178 0.714961
-1.66146 1.12305 1.60427
-2.47908 -1.1543 1.01394
-3.00103 1.69616 0.59152
-2.44559 0.788996 0.965517
-2.3895 2.43279 0.856582
-3.15441 -0.034793 0.288847
-0.386684 2.28442 1.60867
-2.45684 2.30091 1.04348
-1.93185 1.76696 0.314029
-2.84391 0.774269 0.581503
-1.38999 0.842155 1.75486
-1.33261 1.89601 1.57018
-2.44241 -1.71801 0.702688
-2.88929 0.797352 0.556791
-3.05037 0.186085 0.435598
-2.32095 -0.0144245 0.865166
-2.1814 2.9324 0.414373
-2.73858 1.84923 0.746809
-2.12054 2.11561 1.28457
-2.26996 3.07662 0.655102
-1.22036 0.357374 1.85117
-1.4453 -0.532801 1.5479
-2.32356 -0.369718 0.952996
-3.36821 -0.0639674 0.11682
-2.4565 2.46344 0.279532
-2.98379 0.655833 0.529462
-2.47101 -1.63653 0.904841
-1.55855 0.728649 1.55029
-1.387 0.480797 1.70261
-1.0401 2.10203 0.768577
-2.9124 1.72627 0.652176
-2.71891 0.613319 0.753254
-2.53354 1.00978 0.771111
-2.90762 0.431868 0.577296
-2.74001 0.0345044 0.64438
-2.19243 -0.0420103 0.995456
-2.22386 0.472947 1.08305
-2.66578 2.31833 0.360733
-3.32641 -0.488773 0.381932
-2.50591 3.03723 0.582483
-2.07782 -1.37125 0.908354
-1.94 1.70552 0.910841
-3.42981 -0.634414 0.0374097
-3.56489 -0.440483 -0.0549748
-1.34184 1.98134 1.30883
-3.42668 -0.128148 0.0638757
-2.51988 2.14918 0.415219
-2.42689 1.33576 0.755057
-1.82808 -1.12888 1.147
-2.65544 -0.489242 0.744701
-3.12962 2.38281 0.313226
-1.58271 0.920695 1.41048
-2.73537 -0.977932 0.560536
-2.86768 3.24505 -0.18488
-2.19948 3.54791 -0.207677
-2.74645 3.23532 -0.113133
-2.88356 2.62248 -0.0646127
-2.39652 3.74547 0.306219
-2.57407 2.92489 0.0577872
-2.78338 3.17576 -0.4769
-3.15577 2.62602 -0.607745
-2.08253 3.11227 -1.75855
-2.98293 3.16886 -0.438067
-2.77333 2.78671 0.105156
-2.55959 3.47922 0.378847
-2.23745 3.30146 -1.29246
-2.9228 2.96221 0.192357
-2.99702 2.89775 -0.400581
-2.64589 3.19009 -0.868391
-2.92888 2.94086 0.279051
-2.13609 3.25183 -1.46289
-2.30536 3.30194 -0.877067
-2.27324 3.38603 -1.0803
-3.11496 2.65978 -0.0186389
-2.25658 3.14958 -1.51866
-3.16661 2.96089 -0.567869
-2.3205 3.21296 0.084102
-2.43603 3.22321 -0.746293
-2.55089 3.30405 -0.891528
-2.00444 3.70649 0.0701312
-2.94865 3.18579 -0.297858
-2.93846 2.63654 -1.93811
-2.67739 3.31061 -0.625319
-3.09211 3.07794 -0.339509
-2.16974 3.75399 0.378583
-1.7892 3.56806 0.42482
-2.25083 3.5819 -0.178194
-2.45028 3.23323 -0.623815
-2.96649 2.9805 -1.14884
-3.27519 2.82373 -0.974196
-3.58178 2.43353 -1.56023
-2.44902 3.40538 -0.795985
-2.23756 3.43773 -0.533674
-2.34672 3.50189 -0.43299
-2.00734 3.58363 -0.742888
-3.00138 2.80632 -1.3302
-2.43769 3.09483 -1.51799
-2.68538 2.90441 -1.649
-2.48738 3.20213 -1.10689
-3.01604 2.71006 -1.7022
-3.34148 2.67989 -0.205999
-2.61793 3.17613 -1.06446
-2.04088 3.5443 -0.828978
