ply
format ascii 1.0
comment Created by Open3D
element vertex 400
property double x
property double y
property double z
end_header
0.0924585 0.503126 -2.81951
1.46945 -0.433045 -2.29106
1.33747 -0.072612 -2.66182
0.388578 0.83065 -3.092
1.58514 -0.349778 -2.46707
-0.807915 -0.194155 -2.63289
1.52813 -0.310241 -2.44306
0.57892 -0.425347 -2.18219
0.765464 -0.818199 -2.11643
-0.1417 0.0862221 -2.74159
-0.262106 -0.295859 -2.31141
0.17169 0.308339 -2.88611
1.86135 -0.993231 -2.36609
1.00101 0.289108 -2.68901
1.5933 -0.368114 -2.48863
1.5474 -0.20006 -2.65736
0.482609 0.990681 -2.9134
-0.613181 0.663949 -3.14833
1.45963 -0.211047 -2.29792
1.69829 -0.864208 -1.95975
-0.00480178 0.476799 -2.87363
0.0956796 -0.512102 -1.98674
1.1376 0.224295 -2.50725
0.475273 -0.448589 -1.99748
0.450198 -0.387734 -2.37925
0.243037 -0.06826 -2.99481
1.53534 -0.68368 -2.13528
1.14342 -0.485539 -2.50933
0.264724 -0.874594 -1.90785
0.938962 -0.513448 -2.08219
0.457497 0.167468 -2.65523
0.537542 0.700411 -3.40623
0.340554 -0.686886 -2.22745
0.456417 0.629623 -2.87093
-0.713801 0.877884 -3.13252
-0.205625 0.189768 -2.44011
0.857807 -1.01448 -2.09274
1.28225 -0.391135 -2.01225
-0.0683815 -0.616011 -2.37184
-1.01949 -0.213587 -2.79754
0.286583 -0.401218 -2.02079
1.25396 -0.184311 -2.66082
1.46008 -0.276079 -2.50994
0.0688213 0.53504 -2.88437
-1.20824 0.735125 -3.00773
-0.10496 -0.193344 -2.43797
0.800179 -0.0225315 -2.51557
1.41862 0.0446452 -2.62941
-0.169557 0.0882002 -2.87035
-0.328044 -0.489246 -2.18368
1.07759 -0.873992 -2.06182
0.722185 0.0636355 -2.53534
0.565288 0.0767153 -2.47611
0.152025 0.462193 -2.9373
1.04676 0.563826 -2.92161
0.960104 0.23127 -3.07568
0.768304 0.592502 -3.02063
-0.796323 0.0616931 -2.383
-0.326513 0.275801 -3.1165
-0.12917 0.195733 -2.5568
-0.788163 0.593183 -2.90303
0.496766 0.669846 -3.30407
0.200784 0.102174 -2.61924
0.321299 0.456517 -2.79503
-0.345092 0.156436 -2.62227
0.695854 0.47408 -3.02391
0.124777 -0.428583 -2.13413
-1.00046 0.415136 -3.22886
0.270989 -0.59763 -2.16062
-0.496714 0.828616 -2.80615
0.677766 0.0860078 -2.53521
-0.702071 -0.0927612 -2.38622
1.15946 -0.77768 -2.25875
1.27688 -0.761775 -1.8142
-0.626331 0.201334 -2.63251
0.75592 0.266487 -3.08401
-0.594561 -0.464836 -2.12688
-0.38866 -0.683028 -2.12336
0.630281 -0.507964 -2.23581
1.02223 -0.719007 -1.94382
-0.570432 -0.0149421 -2.56483
0.971711 -0.31407 -2.13865
-0.100601 0.571871 -2.98652
0.131359 -0.0695457 -2.20043
-1.04617 -0.0869727 -2.47499
0.325777 -0.309646 -2.20448
1.65909 -0.475829 -2.51141
1.56439 -0.621542 -2.0037
-0.576884 -0.849675 -2.01906
1.09176 0.01288 -2.70714
0.286086 0.00742798 -2.32465
1.70062 -0.998422 -2.26247
1.02663 -1.08027 -2.11762
-0.537224 0.522752 -2.81602
1.62822 -0.342791 -2.31856
0.869456 -0.954533 -1.89489
-0.338466 0.65676 -2.89565
0.652453 0.861336 -3.44707
-0.31467 0.394577 -2.54807
-0.603363 0.00807913 -2.88964
-0.684056 0.137862 -2.45455
0.501734 -0.170984 -2.34115
-0.453443 0.743878 -2.74694
-0.45042 -0.363057 -2.21312
-1.08696 0.529166 -3.00115
-0.454795 1.18926 -2.8251
0.590262 -0.0833634 -2.24012
0.704281 -0.890607 -1.98595
-1.14774 0.953995 -3.12358
0.953689 -0.947119 -2.12726
0.800028 -0.665748 -2.20066
-1.15084 0.659104 -2.91247
-0.45024 -0.181122 -2.58367
0.848391 -0.232848 -2.67074
-0.536431 0.746543 -3.18524
-1.45089 0.807246 -2.9779
1.25509 -0.700622 -1.94297
-0.648751 0.0112756 -2.63258
0.233386 -0.314095 -2.33433
0.781651 -0.087123 -2.60497
1.38214 -0.728167 -2.22334
0.687321 0.809426 -3.37537
-0.216978 0.427617 -2.85067
-0.414311 0.559376 -2.91884
-0.0433561 0.0259057 -2.8537
0.186109 -0.301018 -2.30675
0.732876 -0.853292 -2.14957
-0.827869 -0.248431 -2.48523
0.587326 0.774865 -3.19031
-0.458521 0.0456233 -2.8121
0.391039 -0.336703 -2.08611
1.10204 -0.852943 -2.40887
-0.410358 0.84839 -2.72622
-1.36684 1.10151 -2.96954
0.419702 -0.614547 -2.14158
-0.65216 0.613241 -3.04318
-0.542624 -0.835234 -2.08149
-0.63862 -0.352406 -2.3827
0.274125 0.89743 -2.94448
-1.06606 0.764883 -2.88643
-1.21544 0.139731 -2.77456
-0.026427 -0.902776 -2.11765
-0.451863 0.80142 -3.09462
-0.70252 -0.419662 -2.5351
-1.45506 0.636979 -3.12959
1.59303 -0.81192 -2.0306
1.15543 0.242626 -2.80268
1.74163 -0.97291 -2.2294
0.392455 0.826361 -3.28381
-0.417677 -0.0331162 -2.52961
-0.401478 0.54931 -2.66442
0.188111 0.414064 -2.98322
-0.0884171 0.73433 -2.86284
0.101808 -0.763409 -1.95611
0.647107 -1.02481 -2.00866
0.715129 0.782974 -3.20245
1.21403 -0.0565041 -2.58428
-1.39902 0.242185 -2.89504
-0.0138548 -0.776903 -2.01512
0.935742 -0.17991 -2.3624
0.537516 0.478299 -2.87129
0.12606 -0.821189 -1.78765
0.104787 -0.298979 -2.26221
0.456592 -0.139659 -2.78774
-0.447018 0.599644 -3.0938
1.76176 -0.539616 -2.45029
0.736281 -0.172618 -2.95783
-0.559949 -0.409826 -2.04992
-0.348516 1.10566 -2.95425
0.966938 0.757252 -3.24569
1.07597 0.0791952 -2.70659
-0.40562 0.577961 -2.82434
0.962518 -0.105081 -3.00127
0.0155022 -0.962589 -2.09656
1.09742 0.132052 -2.96615
1.20558 -0.131612 -2.97727
-0.936449 0.493669 -2.52533
-0.589761 -0.152469 -2.57991
-0.321931 -0.781317 -2.24761
-0.1674 -0.474761 -2.29736
1.81697 -0.452145 -2.26636
1.05875 0.0940808 -2.74761
1.43755 -0.116167 -2.36999
1.18094 0.307844 -2.7133
-0.695865 0.949503 -3.03821
0.118169 -0.346343 -2.17899
1.10582 -0.130242 -2.50625
-1.08974 0.819609 -2.77235
-0.114331 1.07617 -2.9317
1.50678 -0.772718 -2.23386
0.950524 0.397259 -3.14532
1.53816 -0.549135 -2.39284
-0.622792 -0.58298 -2.2397
-0.32017 -0.0958674 -2.29798
0.53529 0.550123 -2.70995
0.518489 0.826082 -3.4728
0.627971 -1.06863 -2.28992
1.43773 -0.280917 -2.54618
1.41624 -0.700383 -2.06972
-1.48635 0.890863 -3.13659
0.527861 -0.0182575 -2.23014
-1.01483 -0.0767741 -2.71514
-0.42768 0.250523 -2.72429
1.55915 -0.9131 -2.17371
-1.17309 0.642554 -3.05924
0.137445 -0.464016 -1.83721
0.620419 0.714973 -2.75435
0.663103 0.585048 -3.43147
-0.423734 0.897618 -3.1791
0.946393 -0.036022 -2.45625
-1.12012 -0.214993 -2.62575
0.676564 -0.0753569 -2.66399
1.0468 0.893702 -3.18076
1.18115 -0.328152 -2.64529
0.0633404 -0.447685 -1.98731
-0.174668 0.911606 -3.06098
0.714287 -0.042673 -2.60588
0.47387 -0.360283 -2.08943
-0.631008 -0.0408683 -2.60279
1.45882 -0.248376 -2.75517
0.687847 -0.666564 -1.97049
-0.601414 -0.551238 -2.1567
0.478134 0.574863 -2.97734
1.49369 -0.569265 -2.23223
-0.547572 0.504285 -3.25811
-0.0783008 1.02429 -3.11163
0.786794 -0.700199 -2.05652
0.181225 0.604018 -3.237
-0.384099 0.530926 -2.80222
0.136748 0.86842 -2.9628
-0.293616 -0.624967 -2.13965
0.170335 0.744402 -3.30818
0.899335 -0.804169 -2.09825
1.58952 -0.409369 -2.55299
-0.877636 0.0289674 -2.33331
0.539733 0.348241 -2.55632
0.0379763 -0.429674 -1.99681
-0.383812 0.776114 -2.84205
0.0486909 0.591071 -3.00632
-1.389 0.742886 -3.24074
0.419667 0.847725 -3.36505
-0.601644 0.899273 -2.99158
0.429136 0.346378 -2.74283
-0.536522 0.802402 -3.01446
0.734755 -0.614011 -2.28769
-0.383171 1.00659 -3.05217
-0.312501 0.111752 -2.60736
0.269194 0.362906 -3.19735
0.0328776 -0.307887 -2.66201
-0.3857 -0.671236 -2.31767
0.830285 0.362742 -3.14119
0.12151 0.981336 -3.11718
0.0705302 -0.120298 -2.39361
-0.0882632 0.894828 -3.05749
0.462563 1.01192 -3.18472
0.147245 0.199703 -2.42466
0.385567 -0.0859929 -2.4372
0.557734 0.685081 -3.03165
1.80012 -0.430221 -2.28604
-0.147278 0.413424 -2.7807
0.855587 0.345244 -2.65272
0.0593784 -0.533031 -2.29359
1.27875 -0.872333 -2.23187
-0.414609 0.0860066 -2.73381
0.946883 -0.580887 -2.37436
-1.05118 1.03076 -3.04919
1.10888 0.36665 -2.70092
-1.01151 0.739324 -2.79892
0.488399 -0.262259 -1.87809
-0.507677 0.513785 -3.13263
-0.0409642 -0.190514 -2.45221
-0.975448 0.802661 -2.9392
0.488261 1.07608 -3.09514
-1.71124 0.868759 -3.17768
0.948721 -0.0886898 -2.7269
0.961421 0.515063 -2.64982
-1.2304 0.217549 -2.64628
-0.148606 0.303588 -2.81973
-0.318523 -0.311162 -2.46874
-0.470415 0.466417 -2.7974
0.134575 -0.670517 -2.25571
-0.263276 -0.840083 -1.94547
1.20733 -0.518456 -2.40629
-0.991331 -0.132621 -2.47105
0.286654 0.410588 -2.90975
0.0995014 -0.0203611 -2.57076
0.228314 1.00521 -2.84029
-0.504942 0.184586 -2.75152
-0.144806 0.370519 -2.63792
1.70693 -0.845457 -2.21863
0.572503 -0.219849 -2.33242
0.902807 -0.305311 -2.11477
0.680594 0.0779743 -2.80582
1.149 -0.124919 -2.8161
1.45811 -0.296989 -2.07778
-0.496331 -0.305042 -2.09906
1.06504 -0.938833 -1.9301
0.211149 0.716185 -3.21644
0.0617307 0.383086 -2.99389
-1.13793 0.288309 -2.8433
1.46038 -0.723141 -2.33877
1.15247 -0.308716 -2.56238
-0.902647 0.378951 -2.60689
-0.183374 0.623216 -2.77441
-1.37302 0.678997 -2.9167
0.0844961 0.286253 -2.87711
-0.471959 0.346299 -2.79048
1.66421 -0.914593 -2.23892
-0.429994 0.0228573 -2.59094
-0.0298299 0.328076 -2.6636
-1.14269 0.809887 -2.85082
1.34823 -0.166514 -2.53032
-0.674 0.0263888 -2.63827
-0.65334 -0.916168 -2.30015
0.213557 -0.384576 -2.11063
0.74318 0.328897 -2.59455
0.292043 -1.01378 -2.07497
0.11479 0.666154 -3.27285
-1.27043 0.906759 -3.08933
0.203078 0.651966 -3.06398
0.607765 0.218043 -2.88653
0.188304 0.74547 -3.17376
0.120821 -0.471731 -2.24052
0.873571 0.96979 -3.35925
0.941912 -0.748906 -2.03529
0.905182 0.127159 -2.53827
1.58293 -0.450453 -2.01916
0.114407 -0.6159 -1.85675
-0.122646 0.719998 -2.94523
1.19611 -0.338546 -2.20883
0.83268 0.577911 -2.95576
-0.489363 -0.0642841 -2.4158
0.919284 0.717579 -3.30278
-0.863947 0.880899 -3.14367
-0.310626 -0.862849 -2.13449
-0.856704 0.447209 -2.66381
-1.25738 0.837782 -3.05352
-1.10261 0.455167 -2.93048
-1.08109 0.180427 -2.65494
1.19243 -0.29868 -2.51613
0.151861 0.187982 -3.16443
1.1195 -0.925285 -2.03114
1.28444 0.569742 -2.85521
-0.285499 -0.386275 -2.44967
0.152097 -0.494301 -2.50414
0.894297 -0.226246 -2.67101
0.866936 -0.116656 -2.39524
1.78289 -0.325588 -2.25637
0.243767 0.249388 -2.94592
1.98792 -0.930012 -2.18689
0.0274394 -0.76494 -1.84252
0.98514 -0.650498 -2.06217
-0.60966 0.290287 -2.27453
1.1298 0.0887979 -2.97308
0.490145 0.0841844 -2.78367
-0.994186 0.871124 -2.97601
0.0758289 -0.779016 -2.28794
-0.38908 -0.632697 -2.25933
-0.167735 -0.476216 -2.11926
0.661835 -0.418833 -2.1239
0.509975 -1.04434 -2.04941
-1.01391 -0.392159 -2.50661
0.742536 0.591328 -2.90298
-0.789614 0.855053 -2.99553
-0.930221 -0.549544 -2.36816
0.37622 1.07312 -3.03517
-0.895465 0.700639 -2.9704
0.878619 0.186273 -2.4767
0.876824 0.688996 -2.91321
1.80384 -0.632787 -2.34255
-0.502929 -0.534853 -2.22284
-0.533983 0.479721 -2.55778
0.351432 0.772839 -3.06317
-0.518111 0.515582 -2.71793
-0.326033 -0.704347 -2.34991
-0.495139 0.585761 -2.97949
0.497987 0.00506846 -2.69845
1.16353 -0.842582 -2.29352
1.01207 0.178624 -3.09404
0.715245 0.0228791 -2.39571
-0.11195 -0.930073 -1.86989
0.473434 0.0894819 -2.44958
-0.595766 0.539925 -2.63342
0.756288 0.93726 -3.29361
1.59733 0.159103 -2.60434
1.43281 -0.279522 -2.58128
1.1048 0.285309 -2.78788
0.400889 0.304519 -2.81703
-0.488401 -0.70413 -2.20482
1.37606 -0.257253 -2.7823
-0.0994151 0.832359 -3.01364
0.772571 0.534016 -3.07942
1.01109 0.139213 -2.7996
1.54392 -0.798771 -2.48359
0.921781 -0.257333 -2.37646
0.800841 -0.688233 -2.04734
-0.165456 0.865902 -3.11631
0.695792 0.0627478 -2.45534
0.0768914 0.209944 -2.73063
0.159777 0.155361 -3.00635
