ply
format ascii 1.0
comment Created by Open3D
element vertex 250
property double x
property double y
property double z
end_header
-1.91445 2.16339 1.49894
-2.10085 0.666607 -0.69077
-1.23102 2.0953 0.252981
-2.8582 1.25933 0.854438
-1.45013 2.58864 1.25435
-1.90247 1.67864 0.328119
-1.92442 1.41353 0.0789325
-3.06279 0.427568 0.0283121
-2.11595 0.439116 -1.01778
-2.72579 -0.449262 -0.480279
-0.857439 2.3598 0.293539
-3.21315 0.526172 -0.0899111
-1.28699 2.64814 1.10295
-3.41341 -1.12694 0.051331
-2.49027 1.31114 0.262317
-3.29934 0.832589 0.903177
-4.21647 -0.361364 0.0360853
-2.06588 1.77458 0.748391
-2.46076 0.729349 -0.733409
-3.68557 0.162727 0.379124
-2.97771 0.151919 -0.63567
-2.51609 1.0091 0.505163
-1.03344 2.34525 0.670585
-1.97641 0.698233 -1.05055
-2.67777 -0.750338 -0.756475
-2.13397 1.26853 -0.0411602
-1.04688 2.57556 0.979712
-2.5252 1.43145 0.87424
-2.36509 1.09451 -0.135397
-2.08427 -0.402718 -0.857753
-3.34094 0.320062 0.519948
-3.4066 -0.171861 0.490014
-1.87536 0.713057 -0.912131
-1.18518 2.43883 0.61869
-2.31747 -0.155968 -0.846793
-0.720746 2.23882 -0.144781
-2.37841 1.9322 1.27117
-3.45318 -1.18564 -0.0386056
-3.42845 -0.0550026 -0.958481
-1.91099 2.10106 1.17639
-2.21017 1.82733 1.11532
-3.08406 -0.256479 -0.22729
-1.72607 1.51137 -0.108051
-0.469759 3.08991 0.823527
-2.04005 2.13791 0.908379
-2.07507 0.0405075 -0.620414
-0.572469 2.85075 0.288176
-2.10535 -0.426297 -0.660036
-2.13866 1.32166 -0.0534124
-2.97101 0.624708 -0.184647
-2.93161 -0.0200923 -0.181006
-1.09413 2.15528 0.0100662
-3.15137 -0.0492314 -0.461642
-3.19263 -0.704019 -0.794675
-2.087 0.921659 -0.407949
-2.76409 -0.435291 -0.461764
-2.01396 0.582413 -1.17417
-2.60094 0.939466 -0.142308
-2.1437 1.79748 1.06409
-1.65501 2.18414 0.696706
-3.0053 -0.48029 0.177093
-2.98777 -0.955043 -0.44879
-1.78344 -0.148766 -1.05555
-2.57955 -0.694586 -0.384092
-1.50601 2.39581 1.02206
-0.472589 2.61925 -0.0692187
-3.09224 0.563414 -0.141339
-3.29044 0.371369 0.278016
-2.897 1.23325 1.02067
-0.470246 2.63285 0.0344104
-2.82021 0.726333 0.171912
-0.603399 2.36504 0.0303295
-3.26495 0.879062 0.588128
-3.99463 -0.711485 -0.0453304
-0.947644 2.13545 -0.234819
-2.53183 1.42588 0.665655
-2.43823 0.165581 -0.527068
-2.47747 -0.519783 -0.0117403
-2.18001 1.50991 0.427803
-3.01393 -0.429076 -0.29301
-3.39224 -0.246332 -0.126472
-1.18347 2.32046 0.569171
-4.00461 -0.576276 0.104103
-2.46739 0.464571 -0.378286
-3.11896 1.06504 0.972518
-3.33231 0.501493 0.556759
-2.26379 1.87668 1.38294
-3.36051 -0.780116 0.00193227
-2.70508 0.0414737 0.923288
-0.894687 2.32401 -0.00353806
-2.92916 1.08482 0.499557
-2.25159 1.67626 0.971415
-2.21401 0.927015 -0.619002
-2.28886 1.83894 1.51558
-1.19863 2.05551 0.05346
-2.43627 -0.0942576 -0.932425
-3.98457 -0.457471 0.14535
-2.23203 0.362567 -0.798094
-0.431793 2.65969 0.308075
-0.921464 2.1323 -0.192146
-2.89103 -0.642789 -0.854463
-1.6824 1.58656 0.00361524
-0.48542 2.51305 0.214978
-1.91157 0.982191 -0.947708
-1.7748 -0.391285 -1.06915
-0.660173 2.75231 0.64278
-2.21612 -0.304952 -1.23728
-1.01084 2.3137 0.515454
-2.36954 0.122731 -0.712942
-2.0554 1.14305 -0.485464
-3.98483 -0.161382 0.151648
-2.0898 0.0943637 -0.957151
-2.13375 2.18844 1.28745
-1.74465 1.23017 -0.867083
-0.140759 3.22497 0.973596
-1.04398 2.66339 0.791858
-1.48885 2.58681 1.31854
-2.22002 0.457607 -1.35406
-1.26975 2.26528 0.648413
-2.36333 -0.660512 -0.685911
-0.760048 2.79718 0.737072
-3.54668 0.499062 0.84245
-1.92619 0.940463 -0.541743
-2.37259 0.951612 -0.226636
-1.61385 2.15142 0.978731
-2.81376 1.33705 1.07941
-0.837198 2.94993 1.30854
-3.70661 0.395877 0.350961
-2.138 1.63677 0.55551
-3.62413 0.36035 0.470628
-1.53123 1.9052 0.415621
-1.95324 1.26415 -0.344466
-0.803524 2.48499 0.689072
-1.26256 1.87326 -0.0294106
-2.95771 1.04168 0.617538
-2.66502 1.41694 0.996339
-2.52145 1.16604 0.299233
-1.97209 1.02168 -0.17357
-3.5026 0.601899 0.729048
-2.07308 1.86365 0.924462
-1.97329 0.0168267 -1.20932
-1.18652 2.64679 1.05101
-3.42352 0.583322 0.304776
-2.50543 1.38101 0.64591
-3.72083 0.373514 0.40768
-1.8083 -0.507361 -1.20117
-1.33135 1.89531 -0.0961057
-1.72116 1.67194 0.367328
-0.893033 3.04375 1.19626
-3.45556 0.571366 0.403019
-2.33357 1.3907 0.447279
-3.43086 0.0742534 0.0446377
-2.60674 1.31915 0.518261
-1.72021 0.013891 -0.735663
-3.17091 0.675378 0.501141
-3.3223 -1.11317 -1.23825
-3.09201 0.583231 -0.257271
-1.45445 1.67727 -0.00262003
-2.25245 0.568056 -0.4614
-1.07008 2.30966 0.172582
-3.12429 0.593892 -0.198561
-2.22779 1.89901 1.33815
-2.22021 1.04588 -0.50433
-3.62892 -0.751534 -0.00862071
-3.41536 0.386899 0.0964783
-2.78795 0.851241 0.334023
-3.59169 -0.322805 0.330878
-1.03174 1.97063 -0.0656182
-0.741114 2.25118 0.0277908
-1.35138 2.30264 0.892224
-2.64094 1.45917 0.899676
-3.83007 -0.862473 -0.417334
-2.66402 1.36109 0.811794
-0.851566 2.86346 0.719373
-1.84991 1.16003 -0.575807
-1.55247 1.37919 -0.641848
-2.50149 -0.838833 -1.01288
-3.43172 0.524458 0.291822
-2.26439 1.70231 1.00397
-3.04216 0.389316 -0.550273
-2.2533 1.82196 1.24728
-2.11375 1.7014 0.700234
-1.84158 1.50042 -0.0322444
-1.95425 1.60446 0.386881
-3.89683 -0.610286 -0.35466
-1.85098 2.64993 1.88545
-3.74403 -0.246846 0.45221
-1.12995 1.91344 -0.332714
-3.00186 -0.168273 -0.841363
-2.43923 1.62358 0.784581
-2.51597 1.70593 1.16178
-2.46574 0.0835213 -0.694426
-2.58438 1.57386 1.07848
-3.75294 -0.63304 -0.564425
-3.21888 0.0429785 -0.734167
-1.07965 1.85665 -0.514995
-1.51183 2.38581 1.1405
-4.06435 -0.147722 0.303964
-2.23233 0.576624 -1.05749
-1.59082 2.10377 0.601178
-4.04264 -0.670192 1.08132
-3.65022 -1.06868 0.977104
-4.05168 -0.820006 0.781854
-4.25254 -1.04394 -0.147295
-3.51625 -0.0926818 1.69902
-4.00953 -0.984054 0.0833127
-4.11404 -1.1616 0.788844
-4.56418 -1.50909 -0.061006
-3.05593 -1.73572 2.08224
-4.02037 -0.680008 1.36187
-4.1153 -0.830361 0.0640722
-3.74381 -0.193984 1.1802
-3.23221 -1.32622 2.06418
-4.09398 -0.442447 0.587972
-4.35467 -1.20325 0.32647
-3.95084 -1.44365 1.03445
-4.04003 -0.2902 0.655921
-3.14748 -1.51048 2.04952
-3.7152 -1.60408 1.00442
-3.32409 -1.21215 1.96024
-4.32647 -0.741883 0.181346
-3.35011 -1.69578 1.75045
-4.31409 -0.990993 0.891841
-3.81138 -0.983455 0.348199
-3.89264 -1.58051 0.736391
-3.71299 -1.22549 1.50433
-3.48012 -0.855426 1.04201
-4.08525 -0.713397 1.12155
-3.8391 -1.83303 1.58771
-3.88542 -1.06803 1.29115
-4.09312 -0.564365 1.27296
-3.52032 -0.395288 1.223
-3.33965 -0.744149 0.609218
-3.65415 -0.960242 1.10085
-3.91851 -1.49591 0.674254
-3.95385 -1.22894 1.51497
-4.19413 -1.0065 1.35273
-4.66177 -1.79896 0.706366
-3.60384 -1.11803 1.62357
-3.68532 -1.35292 0.968048
-3.69745 -1.10009 1.19845
-3.33774 -1.32365 1.51584
-3.61217 -0.863566 2.17238
-3.22943 -1.24766 2.30078
-3.65116 -1.64342 1.7055
-3.74337 -1.57199 1.27132
-3.88176 -1.56465 1.64936
-4.42192 -0.670295 0.523177
-3.82012 -1.45421 1.31758
-3.33667 -1.34948 1.56961
