ply
format ascii 1.0
comment Created by Open3D
element vertex 250
property double x
property double y
property double z
end_header
0.177148 -2.73718 0.608427
1.86402 -1.60487 -0.153917
-0.658289 -2.3716 -0.981566
0.0549744 -3.35706 0.314476
-0.757884 -2.83631 -0.246041
-0.302533 -2.7231 -0.560123
1.21572 -2.00636 -0.00975627
2.06349 -2.38517 0.761763
1.81202 -1.54728 -0.402247
2.44498 -1.52696 0.817328
-0.670346 -2.11257 -1.065
1.20036 -2.93389 0.212355
-0.882289 -2.74934 -0.479891
2.6101 -1.86548 1.7268
-0.536162 -3.25545 -0.565906
1.75227 -2.91839 1.31551
1.75405 -3.34024 0.984511
-0.202873 -2.88497 -0.138184
0.742468 -2.45533 -0.727527
2.10433 -2.88133 1.24963
1.66419 -2.3513 0.0423433
2.41946 -1.9319 1.13749
-0.0104873 -2.00922 -0.385592
1.6083 -1.59945 -0.642531
2.28306 -1.42129 0.603524
0.826767 -2.31696 -0.239222
-0.422667 -2.28879 -0.364517
1.21374 -2.61537 0.776631
0.701644 -2.52782 -0.311533
2.35088 -0.943692 0.3768
2.51793 -2.43055 1.50534
2.8002 -2.17553 1.82251
1.88596 -1.38953 -0.38627
-1.06275 -2.63558 -0.951211
2.20864 -1.33801 0.213361
-0.459277 -1.83833 -1.35445
-0.972829 -3.58171 -0.0312741
2.54397 -1.90832 1.63354
0.86309 -3.04816 -0.546862
-0.335077 -2.92007 0.0841723
-0.0702944 -2.99619 0.264537
2.44483 -1.96515 0.983817
0.560371 -2.11999 -0.534425
-1.05656 -2.18728 -1.03551
-1.27812 -3.45501 -0.623166
2.45322 -1.07569 0.461304
-1.50866 -2.3782 -1.66633
2.49965 -0.893382 0.65179
0.0681919 -2.65787 -0.615396
1.20723 -2.72972 0.076524
2.44572 -1.91024 0.924519
-1.18549 -2.47792 -1.48774
1.99518 -2.30455 0.454951
2.05126 -2.05136 0.440632
1.75151 -1.74327 -0.0358947
2.44299 -1.57187 0.828687
1.62855 -1.58064 -0.705144
0.785616 -2.66467 -0.211285
0.589725 -2.64397 0.522597
-1.07063 -3.00318 -0.762545
2.86521 -1.61955 1.67702
2.45005 -1.57734 1.07785
2.30307 -0.76786 0.0437102
2.60376 -1.21333 1.09469
-0.75981 -2.81311 -0.392738
-1.30198 -2.09681 -1.82727
1.25423 -2.8061 0.168385
2.2133 -2.52749 1.10383
1.18506 -2.91697 0.999058
-1.18581 -2.05199 -1.67765
2.00789 -2.28937 0.746486
-0.209703 -1.66989 -1.12403
0.0203693 -3.62063 0.20314
2.22798 -2.77707 1.27255
-1.19003 -2.3251 -1.72577
-0.0924781 -3.16076 -0.0150901
2.27103 -1.56613 0.416891
2.90814 -1.05758 1.52514
0.295881 -2.68288 -0.116498
2.486 -1.80647 1.01394
2.34672 -2.31816 1.0361
-0.756048 -2.4578 -0.810154
2.25452 -2.83205 1.37327
2.12332 -1.78031 0.365398
0.909863 -3.18324 0.902943
2.26789 -2.60064 1.34871
0.0234339 -3.03142 0.552056
2.62421 -1.95039 1.52823
3.42998 -1.30151 2.4425
-1.31873 -2.40356 -1.63673
0.0613177 -3.35311 0.0406794
0.796595 -2.61596 0.577023
0.885964 -2.23102 -0.637407
1.04369 -2.61827 1.15904
-0.924232 -2.43288 -1.28248
2.0389 -1.55269 0.0239606
2.23154 -2.87075 1.35095
1.98601 -1.55958 -0.070237
-0.653312 -1.80408 -1.17728
-0.954504 -2.20006 -1.57609
2.1045 -1.75307 0.377261
0.592515 -2.09415 -0.442057
-0.160231 -1.59273 -0.983563
1.03019 -1.89169 -0.926186
2.30844 -0.656536 0.14125
-0.902375 -2.17399 -0.995768
1.99574 -1.26314 -0.205781
-0.274386 -2.08286 -0.644893
2.15952 -1.52587 0.200234
0.449217 -2.3428 -0.796536
1.92477 -3.12072 1.08696
2.14535 -1.24026 -0.0376101
-1.03576 -3.46926 -0.158089
0.100421 -2.21261 -1.3736
-0.595136 -1.7231 -0.739115
-1.07228 -2.59135 -0.883
-0.714949 -2.85648 -0.161776
1.30087 -1.87073 -0.975995
-0.529979 -2.42758 -0.604819
2.42304 -1.08608 0.696571
-1.02597 -2.34365 -0.977006
2.15783 -2.8596 1.58615
1.80633 -1.56754 -0.153537
1.32918 -2.2162 -0.0573561
-0.0301582 -2.51749 0.000637761
0.604668 -3.11712 0.751051
-0.505058 -2.2683 -0.240477
1.1935 -3.37622 0.70857
-0.199634 -2.89866 -0.267824
1.87937 -2.99494 1.15167
0.121748 -2.26996 -0.383973
0.533633 -2.25583 -0.671986
0.0892662 -1.79586 -0.385029
0.0452605 -2.01974 -0.848977
1.15952 -2.9089 0.670368
0.652239 -2.98177 0.653493
1.18675 -2.51287 0.30852
2.10019 -1.52536 0.30997
1.76176 -3.02217 1.24906
-0.287466 -2.9641 -0.0399712
2.07066 -1.12257 -0.288507
-0.804485 -2.61608 -0.496344
1.20237 -3.1671 0.582322
0.711615 -2.7827 0.345795
1.39513 -3.29767 0.865715
2.21152 -0.682101 0.0178193
-0.940984 -2.50618 -1.36773
1.30976 -1.87117 0.204949
-0.954551 -2.54918 -0.596346
1.41011 -3.10815 0.779062
0.786205 -2.58396 0.17626
2.19562 -2.55216 0.995733
-0.152179 -3.21619 -0.141395
2.52886 -0.678478 0.391904
2.058 -2.59821 1.12103
1.72492 -2.14673 0.0341807
0.76804 -3.01546 -0.174414
1.20218 -1.65124 -0.215623
2.10743 -1.61482 0.228765
-1.33109 -2.57813 -1.45972
0.766893 -3.05263 -0.120998
-0.0697454 -3.04327 0.455481
0.266791 -2.54292 -0.853628
2.48938 -2.28649 1.44442
1.65291 -2.89096 0.664083
2.02342 -2.30242 0.859561
2.61921 -2.37307 1.6499
0.847337 -1.49702 -0.569237
-0.0144539 -1.67957 -0.987988
-0.259157 -2.41251 -0.256339
-0.309208 -3.37343 0.10684
2.12195 -2.59388 0.920709
0.450337 -3.04127 0.403468
-1.30166 -2.57682 -1.14802
1.14281 -1.85704 -0.583528
1.00334 -1.70815 -0.810355
2.13886 -1.26809 0.322143
1.47816 -3.03669 0.719404
0.460008 -2.77897 0.446996
1.08953 -2.75212 -0.236337
0.201537 -2.9245 0.52078
-0.000451315 -2.81868 -0.0627751
0.202547 -2.37918 -0.614134
0.579885 -2.37864 -0.0724774
2.00742 -2.81254 0.818965
-0.759498 -3.26321 0.356865
2.53225 -2.59289 1.6982
-0.870735 -2.2832 -1.58098
1.7884 -2.19138 0.0358964
-0.789789 -3.43888 -0.297431
-0.732387 -3.52595 0.0685818
2.13868 -1.61446 0.226988
-0.414524 -3.408 0.18701
1.92814 -2.69206 0.58386
1.3936 -2.65943 -0.128629
-0.550804 -2.07685 -1.59436
-0.482616 -2.69998 -0.145533
1.90694 -3.21328 1.22516
1.34654 -1.91342 -0.712305
-0.850541 -2.81454 -0.723361
2.33327 -2.79857 2.4279
2.62237 -2.12134 2.63195
2.40768 -2.71473 2.22896
2.07976 -2.95866 1.25319
2.80798 -2.31475 2.99951
2.33892 -2.6331 1.57314
2.24074 -2.70474 2.31426
1.88523 -3.15821 1.46081
1.5711 -1.6862 3.56483
2.13387 -2.85482 2.62345
2.23499 -2.84559 1.4384
2.69915 -2.54543 2.47731
1.87298 -1.90706 3.49851
2.30606 -2.95551 1.82024
2.11096 -2.98187 1.81237
2.08898 -2.48758 2.61827
2.30286 -2.96595 1.8185
1.78446 -1.78267 3.52678
2.19762 -2.14048 2.70889
2.02809 -1.98194 3.41298
2.05587 -3.16761 1.43569
1.73255 -1.93005 3.28751
1.99989 -3.07523 2.23278
2.54743 -2.34884 1.93124
2.218 -2.31924 2.43942
2.09323 -2.33834 2.99225
2.83723 -1.95058 2.69758
2.23787 -2.86279 2.44473
1.17796 -2.59191 2.93767
2.21727 -2.52461 2.76409
2.10166 -2.98882 2.46825
2.93436 -2.14114 2.71582
2.922 -1.82108 2.2529
2.63514 -2.16489 2.71281
2.2759 -2.35617 2.36531
1.72537 -2.73013 2.83951
1.66842 -3.08614 2.552
1.26693 -3.39184 2.08093
2.18944 -2.23384 3.10645
2.42814 -2.11915 2.66326
2.4666 -2.22008 2.79754
2.39097 -1.79909 3.18126
1.40052 -2.67436 3.18746
1.57873 -2.0587 3.56797
1.4797 -2.35752 3.10572
1.98597 -2.26962 2.8665
1.29921 -2.69552 2.93335
1.94183 -3.33995 1.6943
1.96428 -2.40414 2.85023
2.3199 -1.81676 3.21475
