ply
format ascii 1.0
comment Created by Open3D
element vertex 400
property double x
property double y
property double z
end_header
-2.24382 1.7957 -0.25352
-2.0747 1.23483 1.3944
-2.49329 1.29443 1.01358
-2.76549 1.64062 -0.289002
-2.32274 1.20935 1.39869
-1.54838 1.96979 -0.579159
-2.28008 1.23658 1.34352
-1.5745 1.56117 0.745187
-1.55274 1.35004 1.05596
-2.02755 1.722 -0.251423
-1.34993 1.92493 0.0281279
-2.37601 1.60142 -0.170266
-2.22565 0.990885 1.92683
-2.42186 1.51729 0.599779
-2.35057 1.19268 1.40375
-2.5362 1.23994 1.24841
-2.55598 1.82753 -0.173051
-2.40918 1.87085 -1.02496
-2.07886 1.35717 1.31307
-1.67208 1.2424 1.91306
-2.2783 1.77433 -0.348534
-1.04123 1.93841 0.549954
-2.23384 1.5526 0.81597
-1.2484 1.77048 0.79046
-1.80098 1.46822 0.524933
-2.566 1.27446 -0.05907
-1.8825 1.19544 1.61023
-2.25929 1.11881 1.0312
-0.977163 1.79418 0.857405
-1.5912 1.45617 1.09963
-2.17746 1.59133 0.214789
-3.22345 1.37941 -0.266685
-1.52494 1.49053 0.631324
-2.47123 1.70028 -0.043702
-2.35384 2.0141 -1.16941
-1.55164 2.08061 -0.151307
-1.54163 1.26462 1.21549
-1.63534 1.46537 1.36354
-1.54044 1.58907 0.228292
-1.6852 1.91717 -0.820135
-1.19069 1.86502 0.626271
-2.47509 1.22359 0.971551
-2.34478 1.2289 1.24468
-2.32767 1.76656 -0.318976
-1.90014 2.34259 -1.38183
-1.612 1.79508 0.0336929
-2.13244 1.46358 0.608943
-2.46921 1.38245 1.06567
-2.20131 1.62571 -0.346502
-1.12995 1.96425 0.118241
-1.60181 1.26801 1.34743
-2.12531 1.52623 0.51235
-1.9767 1.62915 0.419088
-2.44002 1.65277 -0.262579
-2.72177 1.57345 0.457049
-2.89331 1.32205 0.420393
-2.77566 1.54062 0.155753
-1.18517 2.32989 -0.504186
-2.4848 1.58739 -0.66293
-1.76045 1.94374 -0.167278
-1.94132 2.17944 -0.965976
-3.07712 1.42329 -0.24419
-2.01368 1.67942 0.061902
-2.30946 1.70439 -0.0524262
-1.75013 1.96901 -0.347078
-2.75795 1.48049 0.129938
-1.28045 1.82157 0.450611
-2.3283 1.86849 -1.26226
-1.39148 1.63456 0.593316
-1.94571 2.24647 -0.778984
-2.10627 1.55376 0.471254
-1.23916 2.19095 -0.391608
-1.92424 1.12117 1.26445
-1.32055 1.48558 1.61158
-1.62346 2.12736 -0.565523
-2.85263 1.33304 0.221789
-0.920453 2.14623 -0.0501355
-1.00674 1.95115 0.176332
-1.67699 1.44677 0.777887
-1.41285 1.46 1.31883
-1.5595 2.02551 -0.422633
-1.68783 1.50431 1.02771
-2.40186 1.76216 -0.517618
-1.37717 1.96405 0.304235
-1.20771 2.26599 -0.696966
-1.48445 1.7233 0.513056
-2.39115 1.13461 1.4913
-1.71533 1.30748 1.67943
-0.753525 2.05906 0.162638
-2.48127 1.33111 0.751506
-1.63288 1.82712 0.318979
-2.06825 1.00301 1.81775
-1.64406 1.16094 1.35561
-1.93452 2.10204 -0.711255
-2.15129 1.27082 1.49495
-1.24214 1.49804 1.33246
-2.15509 1.9964 -0.663831
-3.31413 1.42973 -0.240357
-1.64924 2.1648 -0.352646
-2.01845 1.7697 -0.643366
-1.33828 2.26889 -0.485082
-1.76481 1.60733 0.518999
-1.87439 2.24359 -0.681726
-1.11393 2.0643 -0.0275522
-1.94081 2.19674 -1.21824
-2.02283 2.34661 -0.897963
-1.65835 1.70556 0.614851
-1.31692 1.48529 1.12327
-2.1325 2.2623 -1.50213
-1.64227 1.2187 1.23983
-1.69994 1.32838 0.977142
-1.77929 2.37705 -1.25332
-1.65272 1.84639 -0.299717
-2.36518 1.22705 0.633903
-2.5109 1.82576 -1.02596
-1.74581 2.50721 -1.56731
-1.51116 1.38972 1.49115
-1.61872 2.02125 -0.525444
-1.63045 1.64871 0.371513
-2.24826 1.37117 0.568673
-1.95269 1.133 1.45079
-3.22276 1.45488 -0.154125
-2.14436 1.86159 -0.47383
-2.15082 1.96134 -0.699605
-2.23862 1.5461 -0.22647
-1.56644 1.70371 0.350043
-1.58601 1.31586 1.02395
-1.32736 2.06894 -0.493405
-2.95668 1.53355 -0.147845
-1.97565 1.78944 -0.50626
-1.34104 1.78553 0.639298
-2.10944 0.989245 1.16461
-1.8669 2.29466 -0.67362
-1.7995 2.58341 -1.61575
-1.43549 1.57283 0.716947
-2.22427 1.97895 -0.965833
-0.864375 1.99018 0.143893
-1.27158 2.00807 -0.26602
-2.51549 1.81529 -0.322903
-1.78437 2.41365 -1.21265
-1.54853 2.23915 -1.05452
-1.16333 1.68871 0.518716
-2.41416 1.90633 -0.925775
-1.46457 1.86566 -0.380282
-1.96404 2.28671 -1.60314
-1.74673 1.21211 1.76218
-2.60856 1.43408 0.701348
-2.03592 1.03473 1.86135
-3.03531 1.49505 -0.387177
-1.58462 1.96947 -0.288412
-1.77543 2.19227 -0.531138
-2.5204 1.57835 -0.244739
-2.22777 1.95162 -0.48933
-0.983533 1.85814 0.665052
-1.31047 1.44381 1.12113
-3.00454 1.53425 -0.0410198
-2.365 1.3347 0.93021
-1.63571 2.27578 -1.2897
-1.01779 1.84486 0.548633
-1.98228 1.43097 0.840015
-2.50143 1.59942 0.0703221
-0.720429 2.02216 0.821457
-1.46033 1.78508 0.318147
-2.37064 1.30827 0.235254
-2.40193 1.82245 -0.846818
-2.33651 1.13658 1.63287
-2.69821 1.12943 0.391411
-0.824265 2.2283 0.00241103
-2.27311 2.1175 -0.877876
-3.10385 1.54455 0.189492
-2.47367 1.37345 0.718558
-2.0129 2.05829 -0.641066
-2.81336 1.14403 0.551936
-1.14596 1.66914 0.585636
-2.79505 1.30902 0.618479
-2.83905 1.15615 0.793307
-1.31046 2.53855 -0.814917
-1.57682 1.93646 -0.404861
-1.22427 1.75022 0.180508
-1.37893 1.78741 0.158916
-2.12797 1.24888 1.72594
-2.51963 1.36568 0.681843
-2.16175 1.3811 1.23383
-2.50364 1.50786 0.740629
-2.21908 2.13894 -1.12008
-1.34404 1.82793 0.392386
-2.23442 1.33791 0.893796
-1.60232 2.56225 -1.17767
-2.34446 2.03073 -0.679783
-2.00172 1.09715 1.56922
-2.97311 1.39285 0.333096
-2.22147 1.12427 1.4489
-1.07206 1.99556 -0.098721
-1.2962 2.08565 -0.0652536
-2.27755 1.7533 0.129804
-3.32057 1.38 -0.366499
-1.73726 1.13105 0.937959
-2.38363 1.21196 1.21155
-1.75342 1.24802 1.5493
-1.98296 2.38417 -1.72951
-1.61283 1.78052 0.555487
-1.56373 2.06863 -0.809981
-1.85625 1.97629 -0.493839
-1.92491 1.07826 1.69799
-1.99146 2.23266 -1.35619
-0.834412 2.09348 0.658421
-2.37222 1.78892 0.121163
-3.27126 1.34009 -0.115559
-2.5713 1.83013 -1.00116
-2.10897 1.45552 0.7589
-1.39203 2.0994 -0.796954
-2.28714 1.36786 0.452172
-3.04504 1.64395 0.243109
-2.44066 1.14321 0.956124
-1.02769 1.98557 0.504734
-2.50146 1.86182 -0.743786
-2.22199 1.41564 0.501569
-1.38668 1.72964 0.703972
-1.58586 2.00606 -0.48021
-2.63423 1.17377 1.14466
-1.30253 1.59515 1.03619
-0.960205 2.07722 -0.044388
-2.62577 1.59142 -0.0637347
-2.00352 1.19392 1.48743
-2.6004 1.65919 -0.9899
-2.63629 1.80466 -0.751059
-1.4784 1.45084 1.06622
-2.88322 1.47397 -0.454962
-1.99013 2.04364 -0.596934
-2.48442 1.82941 -0.42983
-1.07876 1.91971 0.214893
-2.99256 1.47156 -0.557494
-1.58589 1.32173 1.16231
-2.42676 1.1493 1.3891
-1.07884 2.38146 -0.527578
-2.06893 1.74604 0.276676
-1.02986 1.99778 0.474735
-2.05495 2.12931 -0.703527
-2.49777 1.69682 -0.42382
-2.17782 2.17631 -1.66937
-3.15725 1.44403 -0.414138
-2.18682 2.12853 -1.00148
-2.28297 1.6444 0.0927567
-2.24754 2.0341 -0.93365
-1.79877 1.30442 0.86032
-2.40129 1.99021 -0.929621
-1.74601 1.9384 -0.30208
-2.84984 1.37337 -0.277359
-2.01009 1.46439 0.03578
-1.30098 1.76821 0.0544787
-2.94203 1.36426 0.234415
-2.72029 1.7267 -0.580673
-1.63188 1.79233 0.162608
-2.53292 1.82639 -0.670142
-2.93835 1.62113 -0.349135
-1.70374 1.92676 0.105399
-1.84585 1.63074 0.35456
-2.72976 1.59631 -0.0627067
-2.14886 1.25096 1.69509
-2.07487 1.88438 -0.377562
-2.3246 1.59271 0.478101
-1.48688 1.64529 0.340086
-1.92327 1.07785 1.41129
-1.88136 1.8617 -0.441052
-2.00924 1.18746 0.966349
-2.06937 2.32654 -1.41296
-2.46685 1.55053 0.664633
-1.67717 2.46254 -1.10973
-1.07741 1.9764 0.812076
-2.42815 1.77235 -0.884708
-1.66464 1.75255 0.0698536
-1.91163 2.33286 -1.1952
-2.82671 1.70806 -0.30423
-1.94362 2.42133 -1.91552
-2.46665 1.27118 0.649701
-2.35274 1.67819 0.516106
-1.35726 2.39338 -1.01804
-2.13301 1.78723 -0.367451
-1.55401 1.80256 -0.100487
-1.94006 2.05545 -0.634593
-1.46644 1.57116 0.461479
-0.782981 2.01317 0.439571
-2.145 1.14966 1.1437
-1.22816 2.21958 -0.640331
-2.45719 1.60197 -0.127127
-1.90014 1.68868 0.0516745
-2.34983 1.9681 -0.336399
-1.85945 1.95083 -0.544814
-1.8667 1.98579 -0.278191
-2.02678 1.08104 1.78374
-1.78617 1.55549 0.590768
-1.62393 1.55296 0.985898
-2.4733 1.37442 0.341041
-2.63572 1.20204 0.798395
-1.79067 1.43116 1.44144
-0.924872 2.21724 -0.0125137
-1.38815 1.38489 1.44769
-2.87242 1.52931 -0.461059
-2.48201 1.59601 -0.337527
-1.68094 2.23592 -1.08216
-2.12923 1.0614 1.46133
-2.32687 1.19504 0.961201
-1.44681 2.38722 -0.802046
-2.04768 2.02255 -0.466669
-1.6826 2.47813 -1.42562
-2.32501 1.62875 -0.224041
-1.93016 1.99449 -0.593927
-2.03796 1.04085 1.76162
-1.66627 1.95656 -0.349427
-1.96151 1.88313 -0.198112
-1.69549 2.50456 -1.26161
-2.33857 1.28524 1.10318
-1.61402 2.03799 -0.551161
-1.13995 1.78671 -0.0448406
-1.2896 1.82363 0.513698
-2.20542 1.64457 0.42075
-1.24449 1.53886 0.816515
-2.91515 1.48318 -0.552629
-2.0119 2.34696 -1.54665
-2.64708 1.62807 -0.358405
-2.55082 1.42543 0.200678
-2.80521 1.5802 -0.466786
-1.43796 1.69875 0.396467
-3.24642 1.55965 -0.0288871
-1.51351 1.38907 1.21273
-2.19754 1.51623 0.637904
-1.75018 1.37204 1.62641
-0.844724 2.01898 0.684595
-2.33516 1.88047 -0.560172
-1.87513 1.37501 1.17453
-2.70975 1.56393 0.24634
-1.3839 2.08453 -0.26383
-3.1632 1.49741 0.135396
-2.29742 2.07618 -1.28486
-1.05253 1.82396 0.289971
-1.55051 2.35708 -0.822737
-1.95488 2.35741 -1.48577
-1.82577 2.23397 -1.16133
-1.43791 2.3048 -0.90047
-2.27963 1.22011 1.01294
-2.75959 1.33047 -0.297859
-1.56792 1.26672 1.41914
-2.69255 1.62258 0.701418
-1.54437 1.75801 -0.0432754
-1.84343 1.43123 0.268471
-2.3812 1.22281 0.669758
-1.99802 1.46683 0.750278
-2.11017 1.31488 1.65642
-2.49162 1.49738 -0.129247
-2.02637 1.1199 2.10115
-0.766975 2.02156 0.689567
-1.57756 1.39121 1.19364
-1.10894 2.47931 -0.373612
-2.81151 1.28375 0.658805
-2.37109 1.43921 0.197672
-1.96434 2.33022 -1.25827
-1.48389 1.51366 0.436111
-1.21223 1.84565 0.0751765
-1.11217 1.95537 0.267943
-1.52772 1.5805 0.838095
-1.30733 1.45385 1.00211
-1.27649 2.04188 -0.599813
-2.61435 1.60627 0.188368
-2.09568 2.20102 -1.12026
-1.11922 2.028 -0.411923
-2.70293 1.77315 -0.362893
-1.99435 2.21586 -1.12195
-2.10291 1.59747 0.629426
-2.66838 1.64238 0.26777
-2.21301 1.13153 1.74534
-1.10376 1.98417 -0.0167692
-1.55216 2.31594 -0.539416
-2.7078 1.64641 -0.282261
-1.79722 2.18148 -0.635499
-1.37862 1.6907 0.0879317
-2.20354 1.95385 -0.80408
-2.25981 1.44678 0.271055
-1.9715 1.06499 1.27214
-2.92743 1.2904 0.47775
-1.93115 1.60122 0.591626
-0.723875 2.00512 0.638308
-1.89781 1.69303 0.361027
-1.63241 2.31252 -0.64699
-3.14355 1.54949 -0.103097
-2.47258 1.48089 1.20816
-2.42493 1.20035 1.19298
-2.57627 1.46495 0.649169
-2.37547 1.57469 0.0443032
-1.08133 1.90707 0.0608436
-2.65036 1.14925 1.05936
-2.45572 1.85185 -0.626595
-2.85136 1.48108 0.15276
-2.56963 1.37334 0.60501
-2.33068 0.960764 1.50034
-1.998 1.37883 0.845077
-1.47159 1.45924 1.078
-2.5866 1.78464 -0.754658
-2.00434 1.58959 0.533578
-2.11254 1.70729 -0.123688
-2.54277 1.42512 -0.197507
