ply
format ascii 1.0
comment Created by Open3D
element vertex 400
property double x
property double y
property double z
end_header
0.0522384 3.18986 1.35329
0.879902 2.55908 -1.27409
-0.0970382 2.76964 0.590242
-0.404827 2.05327 -0.723417
0.324325 3.12754 1.05966
-0.0215179 2.92488 0.906282
-0.748827 2.08312 -0.179887
0.242338 2.81769 0.343798
0.61258 2.32803 -1.51091
0.702266 2.23474 -2.03395
-0.577686 2.81631 1.242
-0.0647324 2.39143 -0.205322
0.160758 2.1062 -1.14144
0.682001 2.43045 -1.16658
0.364747 2.26966 -0.984413
-0.533834 3.04201 1.76799
-0.302976 2.95427 1.21425
0.286662 1.91649 -1.89732
-0.786369 2.41755 0.611361
-0.00196008 1.94061 -1.38451
0.254182 2.68586 0.0521222
0.376313 2.59037 -0.297597
0.406568 2.27341 -1.03559
-0.210499 2.3508 -0.138859
-0.809448 2.32671 0.437752
0.203433 2.67692 0.0903025
-0.589356 1.87657 -0.901466
0.838596 2.93247 -0.343044
0.102492 2.24827 -0.713118
0.902268 3.07049 -0.0299322
-0.161751 2.97125 1.24051
0.302509 2.27689 -0.869981
-0.542376 2.12165 -0.354076
0.608693 2.37627 -1.1175
-0.390523 2.1479 -0.417873
-0.23402 2.23023 -0.36945
0.874957 2.66679 -1.20143
0.971942 3.16286 0.129542
-0.325644 2.81747 0.920306
-0.723117 2.01213 -0.357487
0.0523445 2.1249 -0.926235
0.762754 3.20453 0.656884
0.592021 2.23825 -1.47424
0.498941 2.51396 -0.595509
0.859617 2.61967 -0.977983
-0.83554 2.1129 -0.0108905
0.772821 3.06629 0.241811
0.202474 2.41073 -0.458036
1.08049 3.22583 -0.0250393
0.155049 2.43105 -0.358201
0.557093 2.10332 -2.01876
-0.549872 2.15507 -0.231712
0.00591952 1.92489 -1.38561
0.779789 2.32995 -1.86441
0.494754 2.14441 -1.61172
0.533194 2.9048 0.196234
0.326119 3.12967 0.980849
-0.12461 2.95933 1.20943
-0.339717 2.43631 0.161883
-0.535501 2.15291 -0.221781
0.158038 1.91369 -1.70509
0.607311 3.1451 0.707961
-0.273434 2.26 -0.305264
-0.0240291 3.17747 1.51473
0.653655 3.06715 0.479685
0.437801 2.11123 -1.55894
0.849987 3.06313 0.0815872
-0.126512 2.58001 0.241118
0.421466 2.29651 -0.990684
0.86523 3.09797 0.16107
0.54266 2.77397 -0.16091
-0.871982 2.01066 -0.187022
-0.286208 2.70049 0.666502
0.547788 2.08132 -2.11511
0.658758 2.38447 -1.21087
0.288861 3.07401 0.920521
-0.373163 2.88788 1.13075
-0.4954 3.00109 1.53005
0.57465 2.66407 -0.42546
0.694669 3.05932 0.368839
0.695935 2.77127 -0.459065
1.00725 3.13581 -0.116702
0.997056 2.9559 -0.451794
0.385964 2.66875 -0.163156
0.836196 2.51417 -1.25463
-0.487411 2.48789 0.418659
-0.103688 2.77638 0.619422
0.752886 2.7104 -0.598984
-0.363126 2.64059 0.598374
-0.0327573 2.97059 1.0351
1.17192 3.10024 -0.555014
0.405547 2.36004 -0.831273
-0.495913 2.10936 -0.414953
0.289146 2.07765 -1.34518
0.757757 2.81758 -0.457783
-0.324645 2.72368 0.729425
0.603167 2.42294 -1.07238
-0.30768 2.95256 1.2745
0.757826 3.11214 0.506086
0.77639 2.63851 -0.7825
1.01723 3.05676 -0.189296
0.586833 2.59288 -0.654457
-0.278723 2.01921 -0.839283
-0.190537 2.80077 0.780143
-0.792843 2.56329 0.906947
0.716702 2.88723 -0.112618
0.648456 2.38771 -1.22884
0.454206 2.97106 0.473076
0.678206 3.03214 0.295776
-0.211972 2.01696 -0.923362
-0.683869 2.33278 0.308371
0.69843 2.4539 -1.0872
0.458036 2.18266 -1.41283
-0.156464 2.27794 -0.406314
0.628914 2.98018 0.256984
0.169077 3.03754 0.934867
0.323774 2.1687 -1.16956
0.226211 2.00814 -1.4762
-0.538162 2.07649 -0.561892
0.682468 3.1404 0.670728
-0.348006 2.26552 -0.191406
-0.516276 3.04303 1.69506
0.120974 2.08841 -1.0753
1.17894 3.32475 -0.0266449
0.927349 2.96662 -0.561751
-0.927554 1.9775 -0.277404
0.0447842 2.38486 -0.337556
-0.469579 2.98165 1.57446
1.07967 3.02888 -0.608739
-0.37008 3.20423 1.91515
1.08756 3.10694 -0.486087
0.931311 3.05751 -0.220479
0.00776621 2.89999 0.759446
-0.593401 2.23397 -0.00683098
-0.374742 2.81833 0.976028
0.181908 2.54629 -0.147832
-0.508057 2.38721 0.233743
0.554281 2.34864 -1.08861
-0.747726 2.47303 0.666744
0.218665 1.93985 -1.70598
-0.177439 1.98001 -1.1381
-0.573633 2.76559 1.09304
-0.863285 2.10845 -0.00275543
0.681654 3.03805 0.328924
0.78011 2.56651 -1.06924
0.0645064 2.01686 -1.31959
0.527268 2.20464 -1.43282
-0.858812 1.70874 -0.951662
0.741743 2.53078 -0.987797
0.607356 2.93022 0.182826
-0.435533 3.14224 1.92536
-0.445222 2.74611 0.901208
-0.743687 2.45762 0.641903
0.310978 2.82594 0.291088
-0.567306 2.11205 -0.294876
0.752502 2.3149 -1.71478
-0.52986 1.99766 -0.71224
-0.633361 2.89692 1.47338
-0.75624 1.87561 -0.72853
-0.46242 2.90318 1.25509
-0.376939 2.57446 0.477571
-0.2598 1.98699 -0.95362
-0.748771 1.84936 -0.789841
0.915333 3.27354 0.570863
0.0106798 2.28205 -0.51256
-0.127999 2.98966 1.21027
-0.788195 1.91256 -0.567065
1.22327 3.3672 -0.0121202
0.230202 3.10614 0.939742
-0.318214 1.9872 -0.914014
-0.537003 2.72431 0.958427
0.102765 3.15456 1.28723
-0.391815 2.39182 0.125055
-0.36834 2.71965 0.76356
0.48047 2.97741 0.44032
0.0646998 2.74566 0.39384
0.388866 2.7449 0.0131864
0.883296 2.8206 -0.613214
-0.175808 2.43188 -0.0135981
0.175183 2.15736 -0.980147
0.0396628 2.56402 0.0325428
0.133399 2.29655 -0.627081
-0.0173433 2.35881 -0.332473
0.59902 2.53438 -0.7652
0.599082 2.93483 0.173102
0.652387 2.50273 -0.898223
0.897581 2.4363 -1.74642
0.393557 1.98007 -1.96063
-0.626018 2.46599 0.526932
0.591165 2.16634 -1.82018
-0.00921757 3.10561 1.20435
-0.769863 2.49979 0.748387
-0.815864 2.13802 0.00139556
0.678162 3.04042 0.348892
0.944522 3.08884 -0.0558977
0.768662 2.95761 -0.0456182
0.513547 3.13199 0.848287
0.307036 2.73302 0.096866
0.48056 2.10021 -1.68142
-0.716885 2.46619 0.625925
-0.504997 2.70454 0.879463
0.406834 2.66633 -0.185986
0.895293 3.09461 0.100103
0.0192169 2.11312 -0.910753
0.571707 2.81208 -0.102043
0.699699 3.1277 0.650929
1.10673 3.26958 0.134538
-0.181841 2.09724 -0.722661
0.0293457 2.69143 0.303586
0.189169 2.91445 0.739939
-0.451707 2.01471 -0.662837
0.959956 3.10468 -0.0824443
0.557908 2.29559 -1.26442
0.331438 2.06879 -1.54273
-0.533123 2.38545 0.247957
0.303734 3.25403 1.33517
0.194639 2.12261 -1.09699
1.20007 3.34736 0.0616055
0.820197 2.64595 -1.11105
-0.429745 2.69327 0.774075
1.02192 3.01264 -0.397847
0.603818 2.63281 -0.482802
-0.557229 1.9308 -0.846019
0.243368 2.71212 0.135028
0.19419 2.19687 -0.9183
-0.195799 2.3051 -0.246389
0.211307 3.11567 1.13302
0.457325 3.18761 1.03668
0.499209 2.34849 -0.978281
-0.140748 2.12429 -0.695988
0.564329 2.83037 -0.0266111
0.454631 2.79067 0.0299009
-0.464585 1.92934 -0.920065
0.0396819 3.14149 1.33365
0.575009 2.92461 0.182809
0.929637 3.40549 0.962557
1.26193 3.42144 0.250666
-0.497371 2.7402 0.947109
-0.54093 2.11786 -0.30187
-0.0513741 2.42873 -0.146324
0.493233 2.81232 0.041893
0.408052 2.11556 -1.46877
1.06824 3.20069 -0.237364
0.218716 2.9007 0.559216
0.877492 2.6115 -1.22602
0.284307 2.75201 0.157307
0.00847366 2.47914 -0.103086
0.393657 2.39088 -0.734483
-0.449982 2.96372 1.40906
0.741586 2.93559 -0.040254
-0.582108 2.7313 1.0244
1.04956 3.24824 0.292437
0.00957763 2.54679 0.0177576
0.194443 2.27845 -0.744867
0.831305 2.96766 -0.214165
-0.345833 1.97056 -0.868613
0.795415 3.13811 0.441935
-0.0848495 1.97947 -1.21914
0.324617 1.95478 -1.83895
-0.281708 2.61526 0.467902
-0.33333 3.02868 1.49826
0.63499 2.5893 -0.82101
-0.418969 3.05926 1.61317
-0.127902 2.18949 -0.554622
0.434038 2.08363 -1.62109
1.09858 3.20899 -0.0862097
0.332783 2.88416 0.402863
0.970574 2.96799 -0.527066
0.547342 2.88302 0.121012
0.725926 3.16793 0.673826
-0.729041 2.10021 -0.189271
-0.196098 2.69027 0.527702
0.190463 2.2962 -0.686947
1.11606 3.21871 -0.23264
-0.253721 1.85639 -1.25198
1.17677 3.32845 0.103821
-0.84256 2.35354 0.54116
1.10691 3.29155 0.255166
0.630882 2.23605 -1.62689
-0.348135 2.42036 0.123435
0.596615 2.77105 -0.170205
-0.137252 2.95466 1.0876
0.739785 2.94214 -0.0663246
0.140217 2.72635 0.268137
0.687543 2.38354 -1.3194
-0.525679 2.87703 1.28828
-0.269623 2.88058 0.990577
-0.250746 2.63686 0.476184
0.725228 2.86354 -0.259502
0.714376 2.34266 -1.65151
1.01153 3.13408 -0.152244
0.937982 2.54799 -1.5009
0.410899 3.05405 0.766969
-0.024545 2.45098 -0.127725
0.895779 2.61427 -1.20894
-0.164613 3.02221 1.28881
0.681797 2.44525 -1.08163
0.892017 2.93013 -0.595493
-0.776431 1.9627 -0.378441
-0.439975 3.04531 1.57144
0.717799 2.53297 -0.933981
-0.102246 2.83976 0.733384
0.199643 2.00749 -1.40093
-0.635598 2.76541 1.15999
0.466587 2.18968 -1.35529
0.305285 2.47715 -0.446235
-0.562821 2.98175 1.63722
-0.396138 2.44542 0.237362
0.217966 2.15001 -1.05887
-0.3737 2.75521 0.85747
0.136537 1.86558 -1.69417
0.712522 3.3117 1.01017
0.454922 2.88905 0.255222
-0.844044 2.07852 -0.0626337
0.168778 2.95458 0.737708
0.0587299 2.71356 0.32292
0.952505 3.21833 0.444075
-0.314047 1.84802 -1.18009
-0.0702818 2.04584 -1.07569
0.974583 3.14006 0.033963
-0.181072 3.19014 1.73632
-0.60273 2.76822 1.18344
0.441151 2.17981 -1.338
-0.812225 2.19559 0.164665
-0.407041 2.24721 -0.167581
0.241947 2.82137 0.349847
0.714468 2.33103 -1.47899
0.858644 2.50919 -1.50866
0.36163 2.03921 -1.68999
-0.0865855 2.48463 0.00377455
0.255765 2.87472 0.459315
1.1098 3.21865 -0.15596
-0.242916 1.89117 -1.14793
0.982841 3.10021 -0.172479
-0.341839 2.12751 -0.591869
1.1005 3.13123 -0.303131
0.360684 2.60444 -0.234526
0.779999 2.62826 -0.820381
0.859639 2.75541 -0.592011
0.593744 2.12435 -2.14733
-0.343195 2.05651 -0.646465
-0.818962 1.90168 -0.495742
-0.417831 2.72375 0.871739
0.075627 2.90697 0.807997
-0.0431381 2.83665 0.707482
-0.340956 2.1192 -0.501756
-0.0628894 2.0586 -0.920859
0.465374 2.72032 -0.146146
0.349312 2.3701 -0.778858
0.468026 2.97817 0.438086
0.467848 2.75877 -0.0459819
0.659594 2.22074 -1.77318
0.366285 2.80497 0.180125
-0.487041 2.82985 1.12458
0.420634 2.99849 0.584224
-0.514126 2.68178 0.842224
-0.572323 2.05902 -0.516403
0.0760967 3.17744 1.41383
0.219661 2.01429 -1.41376
-0.374035 2.54212 0.411635
-0.590127 2.19031 -0.0926973
-0.302401 2.33373 -0.134681
0.188735 2.79668 0.355375
0.0316895 2.04684 -1.16352
-0.396925 2.13873 -0.536885
-0.0530842 2.64847 0.300246
-0.22758 1.83005 -1.33363
-0.111973 3.02765 1.26593
0.0860735 2.12796 -1.00928
0.707716 2.80352 -0.255084
-0.85929 2.30393 0.4548
-0.194674 3.06454 1.39463
0.793423 2.89415 -0.213537
0.455535 3.09209 0.846545
-0.442903 3.12862 1.88419
0.771359 2.44263 -1.52112
0.651461 2.74058 -0.315669
0.704581 3.13913 0.572541
-0.132384 2.09368 -0.758824
-0.0736134 2.95525 1.0103
0.360396 2.18016 -1.23377
-0.308024 2.85999 1.03678
-0.388818 2.85649 1.0705
1.00687 2.7276 -1.06019
0.130354 2.68113 0.179784
0.0528422 1.86991 -1.55839
0.802955 2.60438 -0.882865
-0.3589 2.97282 1.3165
0.430424 2.20546 -1.2468
-0.183955 2.7792 0.701625
0.198111 3.00964 0.902101
0.638301 2.25134 -1.55088
-0.112296 2.12287 -0.754456
0.835972 2.67285 -0.986478
-0.74141 2.71816 1.18684
-0.225599 2.09113 -0.674409
0.179204 3.0077 0.805744
0.607832 2.67173 -0.522508
0.550523 2.2113 -1.47114
-0.107207 2.19387 -0.663557
