ply
format ascii 1.0
comment Created by Open3D
element vertex 400
property double x
property double y
property double z
end_header
-1.08313 3.12322 0.378796
-2.65491 0.885619 -0.768804
-1.47291 2.34757 0.233351
-1.86578 0.899907 0.600089
-1.4289 2.947 -0.257704
-1.49263 2.73607 -0.10901
-1.62201 1.35483 0.705185
-1.69868 2.21454 -0.141093
-2.97778 0.686829 -1.13906
-3.06774 0.162404 -0.800887
-1.25047 2.92652 0.30315
-1.85534 1.55375 0.0264107
-2.23342 0.656084 -0.0347349
-2.57155 0.905314 -0.738129
-2.37195 0.938208 -0.506692
-0.91161 3.40563 0.512362
-1.19366 2.93239 0.376403
-2.84373 0.0744293 -0.580586
-1.28142 2.14353 0.777856
-2.38102 0.405568 -0.0576525
-1.85033 1.93107 -0.230169
-2.05796 1.62781 -0.408033
-2.38833 0.895367 -0.503593
-1.82697 1.59163 0.0774728
-1.43906 1.99758 0.60272
-1.95919 2.01064 -0.463772
-2.03692 0.719553 0.444257
-2.41509 1.87199 -1.0365
-1.98259 1.03936 0.120363
-2.2141 2.15902 -0.945805
-1.34752 3.0294 -0.0856561
-2.19891 0.983957 -0.24999
-1.67681 1.21929 0.689967
-2.44907 0.881223 -0.565897
-1.782 1.20995 0.455064
-1.86425 1.32654 0.182022
-2.82979 1.07532 -1.06404
-2.03692 2.28336 -0.756024
-1.23473 2.59878 0.53919
-1.76605 1.20748 0.542165
-2.1512 0.844981 -0.0397923
-1.67136 2.67655 -0.502559
-2.54116 0.505459 -0.424086
-2.09292 1.31273 -0.287337
-2.41695 1.10825 -0.605663
-1.50186 1.48639 0.835318
-1.92636 2.30983 -0.631126
-1.85701 1.30972 0.140544
-2.32009 2.27216 -1.12325
-1.84292 1.41213 0.10371
-2.95591 0.0768418 -0.639418
-1.6713 1.35322 0.582692
-2.42669 0.416876 -0.177547
-2.98775 0.338252 -0.823564
-2.57384 0.342649 -0.330467
-1.75061 2.12457 -0.203918
-1.40326 2.85845 -0.0937414
-1.39307 3.01225 -0.186795
-1.58442 1.82732 0.387407
-1.78265 1.40839 0.328518
-2.62607 0.175339 -0.292448
-1.61863 2.68116 -0.39794
-1.68227 1.32768 0.53673
-1.092 3.2832 0.191494
-1.84339 2.5137 -0.681215
-2.57836 0.383556 -0.404121
-2.15833 2.24439 -0.95011
-1.80127 2.0559 -0.16834
-2.22596 0.882587 -0.224591
-1.98509 2.26655 -0.682013
-2.26181 1.92498 -0.915732
-1.66935 1.33729 0.641269
-1.60194 2.44863 -0.0411843
-3.09088 0.0272815 -0.794901
-2.53939 0.828658 -0.652965
-1.48101 2.80727 -0.205377
-1.19746 2.82295 0.46321
-0.938632 3.16194 0.698507
-2.20702 1.59221 -0.619434
-1.88693 2.41764 -0.663607
-2.41905 1.69083 -0.965651
-2.30846 2.13839 -1.02441
-2.24612 1.70295 -0.670078
-2.14061 1.82895 -0.662261
-2.59684 0.862413 -0.699979
-1.43242 2.04251 0.548908
-1.53609 2.4057 0.0819075
-2.29373 1.4738 -0.660177
-1.4945 2.31118 0.262272
-1.42333 2.85513 -0.0767095
-2.40119 1.72376 -0.80499
-2.28565 1.09303 -0.463648
-1.74198 1.18032 0.581884
-2.54895 0.571217 -0.546436
-2.41691 1.71041 -0.959518
-1.41841 2.44514 0.308116
-2.58155 1.00054 -0.823127
-1.25533 3.01747 0.170154
-1.8941 2.57974 -0.860511
-2.33231 1.27648 -0.602979
-2.05274 1.92713 -0.532102
-2.41587 1.42024 -0.826142
-2.03335 0.839346 0.25454
-1.52058 2.5701 0.00697837
-1.4159 2.55519 0.30346
-2.03281 1.92533 -0.539895
-2.6254 0.847656 -0.784682
-1.77614 2.43943 -0.473811
-1.79451 2.29504 -0.397415
-2.08068 0.773933 0.208857
-1.54284 1.9137 0.461149
-2.44933 0.943783 -0.589213
-2.4063 0.487974 -0.185834
-1.70691 1.24426 0.538762
-1.96001 2.30328 -0.697766
-1.43133 2.78594 -0.0581091
-2.48486 0.75801 -0.572489
-2.50734 0.394172 -0.313291
-1.73039 1.01496 0.808622
-1.73041 2.68829 -0.650656
-1.69168 1.44772 0.439263
-0.903675 3.32984 0.615241
-2.32193 0.751523 -0.290677
-2.39502 2.34256 -1.22938
-2.61458 1.75006 -1.16664
-1.59773 1.2035 0.921015
-1.82915 1.40795 0.146982
-1.09143 3.26159 0.276779
-2.49302 1.67851 -0.921337
-0.747854 3.55216 0.697399
-2.50922 1.84021 -1.0247
-2.42538 2.05061 -1.14629
-1.42586 2.55128 0.167697
-1.54706 1.55933 0.668244
-1.23019 2.65298 0.519775
-1.81228 1.65754 0.00360185
-1.6419 1.90266 0.269707
-2.42191 0.887417 -0.537108
-1.37554 2.26087 0.551132
-2.64802 0.194373 -0.358706
-2.15936 0.576482 0.268393
-1.05294 2.67473 0.833091
-1.45166 1.47189 0.945659
-1.90926 2.37817 -0.668888
-2.60315 1.0721 -0.844677
-2.29616 0.466918 0.0616263
-2.53463 0.530244 -0.452376
-2.13239 0.639384 0.356415
-2.43212 1.0679 -0.629958
-2.09366 2.26379 -0.909272
-0.810851 3.56278 0.534761
-1.20204 2.53659 0.650228
-1.29052 2.19443 0.730461
-1.80943 2.21112 -0.345012
-1.74688 1.30355 0.47744
-2.65496 0.343805 -0.363582
-1.87198 0.890617 0.618266
-1.02314 3.09712 0.600272
-1.91809 0.842876 0.602868
-1.02146 2.88073 0.750244
-1.46927 2.15254 0.403848
-2.09045 0.735309 0.237544
-1.96921 0.791863 0.542758
-1.67801 2.62186 -0.449181
-2.11339 1.30809 -0.285282
-1.33688 3.00239 -0.0293298
-1.83659 0.985883 0.621738
-2.3707 2.36459 -1.18558
-1.17163 2.71165 0.490291
-2.04291 0.755311 0.335331
-1.3028 2.62651 0.428733
-1.21312 3.09639 0.111783
-1.62231 1.78776 0.352885
-1.33396 2.44262 0.466745
-1.75902 2.40221 -0.410513
-1.75431 2.25779 -0.247351
-1.9812 1.9708 -0.488039
-2.37324 1.53815 -0.773628
-1.65336 1.67857 0.32751
-2.28979 0.861923 -0.317645
-1.9179 1.88902 -0.295413
-1.97802 1.1435 0.0452077
-1.78656 1.38459 0.250282
-2.37939 1.27015 -0.691492
-1.93652 2.19088 -0.566446
-2.38564 1.12661 -0.613995
-2.80803 0.425853 -0.598374
-2.8983 0.0600522 -0.617159
-1.3249 2.09717 0.718459
-2.75206 0.217086 -0.457491
-1.11602 2.95301 0.465963
-1.332 2.33557 0.582712
-1.43447 1.48117 0.968576
-1.91313 2.40072 -0.698022
-2.17683 2.12521 -0.850841
-2.0811 2.04148 -0.683641
-1.57524 2.79808 -0.434377
-1.73719 1.94848 -0.0533234
-2.74008 0.323496 -0.612699
-1.32049 2.19442 0.678434
-1.2384 2.51268 0.60925
-2.08281 1.78117 -0.538663
-1.97998 2.20207 -0.620382
-2.15057 0.855325 -0.0439392
-2.1747 1.96355 -0.799915
-1.77696 2.68251 -0.750939
-2.10113 2.35916 -0.875366
-2.03077 0.987214 0.108246
-1.49513 2.03771 0.357326
-1.70075 2.65162 -0.515444
-1.9251 0.969086 0.388121
-2.27973 2.14785 -1.01215
-2.58725 0.758117 -0.697803
-2.49442 0.34741 -0.21282
-1.33779 1.79017 0.880422
-1.19423 3.17771 0.0214689
-2.30976 0.738954 -0.26095
-2.29101 2.39709 -1.13531
-2.78025 1.13656 -1.0675
-1.31642 2.43494 0.51106
-2.27509 1.7924 -0.748939
-2.07595 1.46763 -0.349583
-1.96812 0.768968 0.548
-2.03728 2.1023 -0.673379
-2.35018 0.965148 -0.489044
-1.88446 1.48899 0.0352236
-1.36429 2.98868 -0.135999
-1.42556 2.94752 -0.266584
-2.26427 0.932385 -0.322977
-2.04787 1.03217 0.0334914
-2.00409 1.97589 -0.532122
-2.00251 2.0153 -0.555329
-2.03506 0.722041 0.42413
-1.19356 3.12929 0.129859
-1.84139 2.15695 -0.380288
-1.44497 2.97169 -0.364753
-2.06791 2.52443 -0.913599
-1.29036 2.61662 0.452474
-1.77773 1.31173 0.407499
-1.72649 1.57482 0.240067
-1.85144 1.97368 -0.278129
-2.68976 0.52166 -0.71857
-2.54435 2.14231 -1.2948
-1.63313 2.43719 -0.173616
-2.73217 0.987401 -0.914764
-1.84007 2.05941 -0.294987
-1.81644 1.6762 0.010475
-1.99402 1.0818 0.0382293
-1.08242 3.08502 0.483767
-2.01659 2.01101 -0.566299
-1.1442 2.62969 0.707632
-2.09598 2.50608 -1.06138
-1.48301 1.68695 0.601008
-2.30098 1.15199 -0.520785
-2.35479 1.99046 -1.0411
-2.06902 0.804636 0.222976
-1.87097 2.51677 -0.724395
-2.23316 0.525789 0.142041
-2.80833 0.133995 -0.576131
-1.62806 2.22555 0.0624047
-1.11516 3.21469 0.267357
-2.60585 1.33089 -1.02378
-0.966078 3.28052 0.531892
-2.06921 1.20939 -0.129764
-2.75839 0.384539 -0.711554
-2.23742 2.16977 -0.913298
-1.77362 2.33218 -0.370938
-2.46778 1.7245 -0.963379
-1.98401 2.137 -0.609288
-1.72156 2.69912 -0.641859
-1.57586 1.33341 0.815132
-1.34864 2.20068 0.557146
-2.15659 1.15746 -0.28483
-2.43576 2.10952 -1.10664
-2.32058 0.478179 0.00846546
-2.2235 2.40351 -1.06346
-1.32668 2.06556 0.752288
-2.10341 2.48983 -1.01963
-2.79417 0.456699 -0.7562
-1.43336 1.71969 0.729765
-1.91955 1.77271 -0.276158
-1.36426 2.87655 0.0491688
-2.25901 2.08806 -1.0032
-1.82171 2.15201 -0.307208
-2.66442 0.771537 -0.779648
-1.13178 2.94878 0.508965
-1.10541 2.64163 0.731663
-1.34987 2.12754 0.606673
-2.30951 1.88324 -0.92759
-2.9646 0.546827 -0.994965
-2.34738 2.11825 -1.05871
-2.78118 0.706519 -0.774345
-1.62463 2.70494 -0.425736
-1.89526 1.67254 -0.119127
-2.67702 0.982784 -0.84297
-1.24853 3.05781 0.118955
-2.45228 0.94699 -0.598594
-2.64472 1.71369 -1.19549
-1.86215 1.20586 0.363017
-0.930953 3.21847 0.662431
-2.39747 1.10827 -0.60973
-1.29116 2.44447 0.498781
-2.51367 0.4718 -0.406749
-1.11861 2.7688 0.668793
-2.55538 0.610177 -0.563999
-2.10105 1.45011 -0.373092
-0.993485 3.28382 0.477309
-1.63956 1.92942 0.239682
-2.30177 0.785112 -0.28346
-1.42086 2.58725 0.215799
-2.73412 0.211086 -0.570537
-1.41351 2.96742 -0.284697
-1.78041 2.18937 -0.290933
-1.60047 1.46126 0.671145
-1.53698 2.59817 -0.107596
-1.72592 2.16181 -0.129699
-1.94465 2.58266 -0.918421
-2.29357 0.535415 0.0093089
-2.12445 0.651699 0.235892
-2.36126 2.31268 -1.30441
-0.948959 3.45079 0.339174
-1.33527 2.88316 0.173408
-2.56435 0.627099 -0.594914
-1.49433 1.69308 0.69573
-1.68543 1.46137 0.451223
-1.65439 2.20377 -0.055467
-2.63253 0.576985 -0.591347
-2.87917 0.723275 -0.934881
-2.62259 0.240991 -0.332924
-1.86107 1.80383 -0.127097
-1.68712 2.34889 -0.214106
-2.35216 2.15154 -1.0417
-2.27979 0.579741 -0.0187327
-2.33267 2.07789 -1.01989
-1.7898 1.03073 0.60802
-2.29707 1.94534 -0.837718
-1.94002 1.64785 -0.225828
-2.36121 1.24633 -0.625304
-2.14947 1.43966 -0.424625
-3.11345 0.0222425 -0.77957
-1.97431 1.02316 0.217153
-1.87165 1.06723 0.466122
-1.52247 2.63058 -0.00795886
-1.61605 2.6815 -0.33934
-1.57081 2.53311 -0.087391
-1.91265 1.16829 0.222251
-2.21459 0.849157 -0.152701
-2.08245 1.84323 -0.576477
-2.4214 1.20585 -0.738822
-1.66431 2.36107 -0.204434
-1.91895 1.8916 -0.339233
-2.82672 0.31755 -0.664786
-1.91858 2.13668 -0.491343
-1.10762 2.75554 0.683416
-1.70487 2.53242 -0.416078
-1.35985 2.51632 0.395955
-1.73732 1.0561 0.739871
-1.1638 3.21203 0.0904339
-2.52561 0.466729 -0.422891
-1.34757 2.0228 0.691847
-1.66236 1.50313 0.49406
-1.52411 1.46329 0.745031
-1.65535 2.19947 -0.0469126
-2.21059 0.599965 0.0872807
-1.72689 1.06431 0.727026
-1.60988 2.06411 0.154214
-2.39051 0.414581 -0.0793218
-1.28238 3.0512 0.0386581
-2.12102 0.75071 0.108617
-1.98948 1.73024 -0.36115
-1.37236 1.97757 0.729639
-1.14869 3.13981 0.258899
-2.0769 1.84554 -0.552297
-1.60013 2.79012 -0.480115
-0.832115 3.52478 0.538562
-2.9264 0.702802 -1.01857
-2.01439 1.6539 -0.358039
-1.73987 2.59349 -0.554616
-2.14284 0.996001 -0.119245
-1.39581 2.81256 0.0325801
-2.63146 0.759268 -0.795283
-1.36988 2.78884 0.146684
-1.08506 2.70314 0.74447
-2.51943 1.11321 -0.688997
-1.84359 2.05398 -0.28009
-2.60294 0.294329 -0.410372
-2.32844 1.16038 -0.528138
-1.1241 3.0135 0.453081
-2.38131 0.653106 -0.310827
-1.44944 2.45318 0.223225
-1.53265 2.78358 -0.282911
-2.6516 0.479983 -0.564351
-2.0183 0.960876 0.144843
-2.64493 1.21622 -0.950769
-1.17921 2.80118 0.548606
-2.0458 1.03917 0.045058
-1.37502 2.62112 0.184805
-2.39681 1.57695 -0.884108
-2.52548 0.490901 -0.393732
-1.85529 1.01366 0.437635
