ply
format ascii 1.0
comment Created by Open3D
element vertex 200
property double x
property double y
property double z
end_header
0.80978 2.26792 -0.793751
-0.496634 2.3577 -0.72292
2.71514 1.12737 -1.45332
-0.664737 2.33469 -0.558696
0.316899 2.20197 -0.308299
-0.912204 2.51573 -0.978912
2.25232 1.88471 -1.31578
2.07751 1.56024 -0.56932
1.89253 1.33046 0.245646
1.84047 2.03444 -0.996899
1.54428 2.03036 -0.622501
2.02504 2.32878 -2.00932
1.34614 2.31615 -1.25828
-0.624069 2.66156 -1.84739
-0.217526 2.29594 -0.587491
1.13816 2.16149 -0.609617
0.432474 2.39724 -1.16643
2.20426 0.831978 -0.154592
-1.27826 2.68629 -1.03339
-0.212 2.24571 -0.369683
1.32209 2.12915 -0.664895
2.22113 1.46518 -0.724128
1.06252 2.49987 -1.87888
2.35845 1.62618 -1.15007
-1.24974 2.29082 0.0648815
2.10182 1.62066 -0.692929
1.91159 1.63999 -0.369672
2.61181 1.86281 -2.02268
1.92136 1.73203 -0.544271
0.550803 2.51756 -1.79545
-1.59802 2.34761 0.404996
-0.466421 2.5919 -1.64932
1.38016 2.48729 -2.02075
1.96938 1.35608 -0.0594625
2.02867 1.05473 0.140383
-0.336919 2.42144 -1.02447
-1.51038 2.34954 0.168791
2.38041 1.3278 -0.893474
-0.844975 2.49309 -0.965598
1.92547 1.49659 -0.161778
2.33305 1.74605 -1.25272
-1.60739 2.49494 -0.179924
2.32099 1.31983 -0.772072
1.89202 1.47882 -0.0438928
-1.04848 2.61902 -1.13833
2.38339 1.06544 -0.697354
2.20582 2.10849 -1.65343
0.601513 2.38205 -1.15234
-0.612929 2.19356 0.11102
0.461664 2.48925 -1.59086
2.62625 1.31034 -1.37949
2.18192 2.05554 -1.50514
1.23718 2.50902 -2.09006
-0.685586 2.21725 -0.0238808
-0.315092 2.38165 -0.885662
1.84334 1.97332 -0.874209
1.88603 2.25782 -1.5786
-1.08532 2.46444 -0.683659
1.15034 2.16754 -0.640357
-0.553513 2.33994 -0.632272
-0.796297 2.22212 0.0169243
-0.429784 2.62398 -1.9446
2.09311 1.28412 -0.274045
2.40723 1.53283 -1.13768
2.00385 1.48622 -0.32418
2.85383 1.19506 -1.94178
1.12482 2.40994 -1.46251
2.59854 1.40524 -1.39902
1.96774 1.39455 -0.110639
1.9638 1.94957 -0.993016
-0.9646 2.24263 0.0248758
1.48076 1.88667 -0.0716133
1.41386 2.00304 -0.371635
1.96715 2.08347 -1.26039
-0.535726 2.62834 -1.77575
0.565489 2.23965 -0.579673
0.275633 2.17115 -0.0964982
-1.36454 2.58827 -0.710696
-0.308914 2.58934 -1.81313
-1.36515 2.59793 -0.731821
0.852152 2.47827 -1.65593
0.620994 2.29837 -0.83502
1.71335 1.8922 -0.516883
2.19825 2.04911 -1.5177
-0.22474 2.37782 -0.904159
-0.444713 2.27413 -0.418584
1.74087 2.22175 -1.32148
-0.770578 2.58452 -1.31913
-1.74414 2.50814 0.00615103
0.328973 2.14624 0.177278
1.68841 1.87175 -0.429326
1.99831 1.21624 0.046734
1.77947 1.55999 0.143916
-1.17637 2.78773 -1.40919
0.901578 2.53009 -2.09899
-0.584408 2.39675 -0.819364
2.59509 1.16451 -1.20144
2.09358 2.33785 -2.21565
2.30004 1.2341 -0.657642
2.02434 2.07444 -1.31713
2.81589 1.47877 -2.67382
2.61987 1.82467 -2.88613
2.72372 1.50981 -2.92734
2.18663 0.637446 -3.6033
2.33748 1.27713 -3.45434
2.39757 0.353586 -3.35471
2.28164 0.720607 -3.52678
2.36507 1.52199 -3.36908
2.51474 1.88274 -3.00451
2.39476 1.5994 -3.31514
2.20267 1.02786 -3.58844
2.56749 1.28929 -3.22971
2.17862 0.811855 -3.61576
2.23117 0.819235 -3.57398
2.40154 1.04411 -3.4241
2.63497 1.8317 -2.84211
2.80913 1.10367 -2.84881
2.8758 1.24934 -2.12633
2.6481 0.807404 -3.12639
2.23756 0.425425 -3.53332
2.41961 0.48426 -3.35764
2.70716 1.7909 -2.67014
2.50938 1.52377 -3.23558
2.36581 1.45756 -3.38923
2.88604 1.25818 -2.24045
2.22931 1.09 -3.563
2.56482 0.775508 -3.2346
2.1636 1.50832 -3.50956
2.75996 0.823621 -2.94342
2.68012 1.696 -2.8911
2.49287 1.86253 -3.05402
2.00821 1.00601 -3.71773
2.52451 2.06361 -2.32402
2.08495 0.408957 -3.66794
2.86918 1.21704 -2.04182
1.87426 0.874403 -3.81144
2.07207 0.259595 -3.65881
2.88757 1.06951 -2.59307
2.5021 1.15016 -3.31863
1.84633 0.867529 -3.82751
2.83851 1.40924 -2.13122
2.47946 1.68204 -3.19688
1.99636 0.519712 -3.74773
2.13917 0.118278 -3.56931
2.72679 0.788462 -2.99907
2.11777 1.11289 -3.63576
2.66669 0.945531 -3.11233
2.84903 1.4441 -2.30461
2.52093 2.07917 -2.48691
2.51803 1.45022 -3.24999
2.63188 1.94494 -2.53976
2.59753 0.83156 -3.19908
2.53574 1.83192 -3.02445
2.0543 0.334886 -3.6851
2.68188 1.86232 -2.58095
2.10008 1.1264 -3.64459
2.63297 0.774656 -3.14372
2.79113 1.62574 -2.56384
2.66293 1.88679 -2.31848
2.738 1.76634 -2.40965
2.67802 1.74958 -2.83999
2.30733 1.47533 -3.42842
2.68312 1.497 -3.01138
2.54533 1.67758 -3.12438
2.80515 1.52236 -2.13799
2.32163 0.315695 -3.42852
2.19731 0.369741 -3.56226
2.55359 1.88792 -2.9372
2.4211 1.09844 -3.4031
2.65604 1.88531 -2.26454
2.66352 1.89299 -2.36016
2.88954 1.26196 -2.35705
2.7839 1.6424 -2.29463
2.61028 1.87706 -2.83552
2.45228 1.85842 -3.10586
2.80812 0.993227 -2.85499
2.78441 1.05841 -2.90791
2.4575 1.51496 -3.29094
2.64639 1.92318 -2.54848
2.34473 1.72576 -3.29439
2.45809 1.91804 -3.04296
2.72168 0.920003 -3.02274
2.27993 0.421997 -3.49177
2.58955 1.30091 -3.20095
2.79209 1.00993 -2.89159
2.54052 2.05275 -2.58029
2.31202 1.63992 -3.36196
2.48133 1.22986 -3.3323
2.50278 1.52248 -3.24303
2.88741 1.25768 -2.44594
2.38955 1.27489 -3.41156
2.39894 1.68989 -3.2692
2.58999 0.826178 -3.20836
2.32675 0.446528 -3.44918
2.47361 0.825088 -3.34634
2.73172 1.01897 -3.01026
2.85581 1.30528 -2.07682
2.50493 1.91497 -2.98322
2.3459 1.72456 -3.29415
2.4798 0.870856 -3.34295
