ply
format ascii 1.0
comment Created by Open3D
element vertex 250
property double x
property double y
property double z
end_header
-2.30987 -0.479341 -0.995617
-1.82378 -1.00428 1.0572
-1.50641 -1.6355 -1.48432
-3.17963 -0.878531 -1.17333
-1.93862 -1.13695 -1.82735
-2.15557 -1.4133 -1.2686
-1.89406 -0.932697 0.270439
-2.91745 -0.462397 0.945205
-1.78438 -1.18745 1.07398
-2.38926 -0.156355 1.64282
-1.13177 -1.63665 -1.43709
-3.1911 -0.989995 0.0491728
-1.76268 -1.29932 -1.89798
-3.1537 0.550271 1.68981
-2.78513 -1.53406 -1.59787
-3.37602 -0.108358 0.419432
-4.15124 -0.483254 0.447598
-2.38654 -1.11072 -1.27455
-2.36881 -1.60609 -0.153302
-3.61589 -0.18212 0.818697
-2.76729 -1.01279 0.691794
-2.38933 -0.06812 1.30485
-1.27884 -1.10735 -0.877524
-1.67224 -1.39697 0.868339
-2.30668 -0.271047 1.5846
-2.14856 -1.16569 -0.133194
-1.41657 -1.1209 -1.35254
-2.66106 -0.429075 0.0171186
-2.3886 -1.26914 -0.283657
-1.66751 -0.346625 1.77143
-3.21973 0.115025 1.28459
-3.22381 0.456961 1.64316
-1.54754 -1.1477 1.15596
-1.59412 -1.64248 -1.96118
-1.94428 -0.608338 1.50754
-0.877187 -1.8357 -1.13171
-2.9272 -1.11922 -2.19097
-3.18834 0.467125 1.63217
-3.30176 -1.61967 -0.159274
-2.32797 -0.917171 -1.4542
-2.58187 -0.812326 -1.22957
-2.81489 -0.159226 1.47081
-1.75796 -1.33204 -0.309255
-0.898636 -1.60473 -1.88211
-2.56399 -1.56478 -2.39697
-1.69729 -0.352678 1.76288
-0.976852 -2.14186 -2.26293
-1.69965 -0.108848 1.89939
-2.26974 -1.4867 -0.880319
-2.923 -1.05088 0.118275
-2.67045 -0.205886 1.46653
-1.40435 -2.03574 -1.94703
-2.92167 -0.675503 0.987475
-2.87787 -0.583987 1.19105
-1.88316 -0.937214 0.878013
-2.43339 -0.161128 1.62454
-1.68366 -1.44457 0.909616
-2.61696 -1.23075 -0.243336
-2.40095 -0.577555 -0.558768
-2.09338 -1.57976 -2.06882
-2.72898 0.511437 1.92031
-2.65203 0.083338 1.6693
-1.33383 -0.591014 1.78092
-2.21953 0.177982 1.88719
-1.95162 -1.2507 -1.78913
-0.771689 -2.21784 -1.95613
-3.04838 -0.998647 0.135396
-3.17406 -0.225857 1.01222
-3.07413 -0.314037 -0.0967753
-0.769469 -2.09002 -1.85329
-2.70571 -0.450001 0.894216
-0.749649 -1.62359 -0.892309
-3.55397 -1.0392 -1.23523
-3.81999 -0.106476 1.0564
-1.20892 -2.19684 -1.88313
-2.83306 -1.09213 -1.2347
-2.1266 -0.526754 1.43887
-2.13478 0.552896 2.15016
-2.36634 -1.09708 -0.747664
-2.718 -0.0794745 1.5739
-3.17101 -0.211057 1.2692
-1.53282 -1.5049 -1.63479
-3.85633 -0.045441 1.03956
-2.2152 -0.631731 1.21269
-3.33565 -0.4317 -0.394465
-3.2614 -0.0465528 1.00406
-2.67095 -0.585363 -1.18569
-3.09913 0.326415 1.65089
-2.47139 1.17734 2.39752
-1.21875 -2.13026 -2.04793
-3.18693 -1.11422 -1.12663
-2.46261 -0.548909 -0.35984
-2.11376 -1.48662 0.0134303
-2.56181 -0.0797887 -0.206362
-1.47798 -1.87717 -1.70886
-2.08257 -0.821371 1.29897
-3.8498 -0.0797758 0.995565
-1.91435 -0.920798 1.20602
-0.694746 -1.65411 -1.3508
-1.1524 -2.06224 -1.64905
-2.54491 -0.55569 1.32906
-1.72869 -1.25028 -0.2884
-0.654545 -1.48869 -0.851974
-1.71997 -1.66119 0.261033
-1.31353 -0.457058 1.84082
-1.03284 -1.57465 -1.70824
-1.79916 -0.915001 1.39314
-1.2682 -1.31663 -1.10817
-2.03856 -0.686171 1.37509
-2.04429 -1.60171 -0.415335
-3.90815 -0.359042 0.6354
-1.70454 -0.801994 1.47332
-2.69133 -1.19767 -2.23008
-1.70959 -2.01984 -0.645884
-0.512372 -1.27393 -1.37078
-1.4843 -1.5765 -1.98598
-1.98353 -1.07545 -1.80226
-1.91556 -1.71913 0.566649
-1.60031 -1.3473 -1.43701
-1.97006 -0.107189 1.79511
-1.17423 -1.59429 -1.87586
-3.55193 0.0999759 0.809374
-1.68376 -0.995329 0.987661
-2.27974 -1.04007 0.359102
-1.93719 -0.914917 -1.06114
-3.08938 -0.50749 -0.659391
-1.27754 -1.00775 -1.4694
-3.78091 -0.683254 -0.117823
-2.42434 -1.22474 -1.2509
-3.60812 -0.27802 0.57165
-1.72306 -1.19153 -0.794597
-1.95209 -1.48242 -0.337223
-1.02993 -1.06118 -0.739237
-1.37594 -1.51087 -0.744696
-3.06679 -0.591179 -0.0706219
-2.91444 -0.562507 -0.577154
-2.55456 -0.796181 0.0903449
-1.75216 -0.62147 1.21386
-3.55064 -0.191784 0.426034
-2.44004 -1.0388 -1.39054
-1.5482 -0.971371 1.47246
-1.63635 -1.28381 -1.78684
-3.48073 -0.73861 -0.0561737
-2.67692 -0.780768 -0.435989
-3.77378 -0.550439 0.0736848
-1.33726 -0.553561 1.77046
-1.58909 -1.96647 -1.72214
-1.72391 -0.725568 0.349953
-1.38924 -1.34522 -1.93415
-3.49878 -0.578352 0.130396
-2.45155 -0.880615 -0.297009
-3.27458 -0.313003 1.03058
-2.89224 -1.2076 -1.28283
-1.29261 -0.297205 1.96192
-3.12054 -0.221959 0.818909
-2.97502 -0.902884 0.95261
-3.10377 -1.29149 -0.331473
-1.39765 -1.01164 0.355716
-1.98128 -0.702284 1.24927
-1.43428 -2.02616 -2.12505
-3.14818 -1.25621 -0.349311
-2.64059 -0.660762 -1.26609
-2.2389 -1.68215 -0.622208
-3.4008 0.163923 1.43054
-3.36094 -0.642505 0.439805
-2.70122 -0.361978 0.88121
-3.41383 0.276633 1.45295
-1.00744 -1.23152 0.0876685
-0.860001 -1.53274 -0.722227
-1.68714 -1.07888 -1.22599
-3.02186 -1.0174 -1.50338
-3.59517 -0.335862 1.06455
-2.91115 -0.768202 -0.747216
-1.31187 -1.77928 -2.18453
-1.70715 -1.37174 0.324783
-1.41238 -1.51292 0.241943
-2.09718 -0.443863 1.53777
-3.4428 -0.617608 0.221924
-2.53418 -0.662361 -0.69804
-2.9457 -1.30613 0.0582424
-2.60766 -0.605956 -0.988222
-2.39506 -1.0525 -1.07444
-1.94676 -1.42643 -0.695764
-2.08186 -1.01151 -0.418185
-3.70193 -0.490462 0.874901
-2.46916 -0.740128 -2.01444
-3.61031 0.259396 1.29583
-1.3272 -2.09713 -1.57705
-2.72788 -0.972141 0.887082
-2.86982 -1.32634 -1.93189
-3.00851 -1.04162 -1.94552
-2.1446 -0.685634 1.33151
-3.01292 -0.944867 -1.62499
-3.52658 -0.646716 0.863566
-3.04167 -1.21447 0.383786
-1.19231 -2.0933 -1.22569
-1.93497 -1.03963 -1.52888
-4.02075 -0.263402 0.579002
-1.97591 -1.51112 0.560161
-1.97324 -1.51681 -1.81133
-4.04736 0.897783 1.05155
-3.55993 1.2701 1.54667
-3.98945 0.742154 1.17443
-4.08511 -0.141648 0.908984
-3.54615 1.45696 1.51037
-3.8314 0.202918 1.20706
-4.07039 0.866124 1.06425
-4.44137 0.034115 0.713768
-3.26346 2.45306 0.773065
-4.10204 1.08811 0.846619
-3.96026 0.023838 1.04216
-3.7101 0.939361 1.39286
-3.41269 2.25159 0.925553
-4.02905 0.298219 0.99758
-4.26286 0.352237 0.905632
-3.95478 1.24705 1.0096
-3.98954 0.286465 0.974434
-3.32871 2.34099 0.906192
-3.68024 1.42995 1.22497
-3.47143 2.11933 1.03072
-4.23239 -0.0571301 0.774844
-3.49235 2.09735 0.853149
-4.34063 0.705572 0.724387
-3.63644 0.579524 1.45183
-3.81856 1.12693 1.20374
-3.79167 1.61794 1.008
-3.36649 1.33756 1.75885
-4.11216 0.910127 0.95178
-4.05866 1.67052 0.202569
-3.92259 1.32541 1.05667
-4.17209 0.905988 0.774765
-3.43991 1.25344 1.73032
-3.13603 0.963111 1.89377
-3.58677 1.32073 1.52589
-3.82906 1.03498 1.23854
-4.10275 1.41669 0.575579
-4.34356 1.0435 0.410028
-4.7598 0.62986 0.0879611
-3.68617 1.73235 1.10423
-3.61562 1.34519 1.40774
-3.67009 1.41359 1.37107
-3.35064 1.91611 1.43445
-3.91803 1.78239 0.242821
-3.49788 2.31018 0.607207
-3.84135 1.83653 0.505656
-3.78884 1.56282 0.984481
-4.10426 1.59967 0.245746
-4.4107 0.133489 0.594004
-3.88454 1.50263 0.911149
-3.36873 1.95349 1.36735
