ply
format ascii 1.0
comment Created by Open3D
element vertex 400
property double x
property double y
property double z
end_header
-1.69322 -2.0222 1.10756
-0.0698496 -2.60994 0.850026
-0.599166 -2.81143 0.758182
-1.92239 -2.43755 0.828214
-0.172073 -2.83486 0.77084
-1.68576 -1.43562 1.46471
-0.207261 -2.76445 0.794864
-0.476077 -1.91734 1.19732
-0.142087 -2.10167 1.08117
-1.56644 -1.92866 1.13634
-1.07454 -1.44482 1.5075
-1.62731 -2.23583 0.939827
0.385134 -3.08091 0.706556
-0.980274 -2.51285 0.900502
-0.175472 -2.86953 0.753511
-0.404486 -2.96045 0.731014
-1.78424 -2.21513 1.01897
-2.43643 -1.91451 1.0813
-0.176766 -2.52527 0.924963
0.551847 -2.48552 1.01551
-1.78202 -2.03656 1.08044
-0.498431 -1.3523 1.633
-0.723101 -2.40713 0.986881
-0.346894 -1.61131 1.44969
-0.738137 -2.06829 1.05576
-1.52503 -2.56869 0.668354
0.21256 -2.55437 0.894805
-0.424938 -2.70353 0.699673
-0.166512 -1.48445 1.58018
-0.157202 -2.06366 1.13127
-1.21042 -2.19132 1.00673
-2.03675 -2.94019 0.528901
-0.52505 -1.91104 1.17147
-1.59677 -2.27402 0.975292
-2.57497 -1.75421 1.18352
-1.36635 -1.45174 1.53594
0.0232164 -2.19477 1.04131
0.0390543 -2.14928 1.12963
-0.896913 -1.78773 1.22543
-1.93446 -1.50755 1.38202
-0.484461 -1.49164 1.52959
-0.605249 -2.81363 0.710691
-0.31767 -2.7902 0.766254
-1.77854 -2.07753 1.05838
-2.63322 -1.2801 1.56742
-1.15512 -1.67849 1.33021
-0.822532 -2.31739 0.947258
-0.570407 -2.76826 0.828632
-1.69846 -2.07399 1.01297
-0.906903 -1.30788 1.61332
0.102873 -2.25245 1.022
-0.918565 -2.25673 0.987965
-0.957601 -2.07697 1.10045
-1.75004 -2.22774 0.948715
-1.2544 -2.69049 0.851594
-1.28847 -2.9487 0.637161
-1.52289 -2.64774 0.792318
-1.56079 -1.01943 1.82358
-2.08413 -2.20985 0.884824
-1.43722 -1.65413 1.37367
-2.25742 -1.48466 1.45535
-1.96344 -2.8094 0.600265
-1.28701 -2.00189 1.11579
-1.52914 -2.16039 1.03097
-1.58896 -1.60265 1.39352
-1.51826 -2.65715 0.756036
-0.659673 -1.53796 1.46834
-2.59296 -1.837 1.11379
-0.537 -1.7403 1.31085
-2.12551 -1.47485 1.49369
-0.952193 -2.2191 1.01089
-1.4508 -1.15163 1.71596
-0.0742145 -2.52236 0.814435
0.390229 -2.01568 1.26762
-1.75784 -1.39886 1.54045
-1.44037 -2.83953 0.639135
-1.00262 -1.04192 1.80201
-0.795536 -1.25844 1.65285
-0.462651 -2.0536 1.08892
0.109556 -2.00972 1.20633
-1.57817 -1.44009 1.49741
-0.277577 -2.08083 1.12643
-1.97771 -2.08276 1.02519
-0.870682 -1.48665 1.52273
-1.71231 -1.02904 1.77142
-0.675324 -1.72542 1.33087
-0.102649 -2.96731 0.713027
0.314413 -2.38927 1.02122
-0.718553 -1.05002 1.81688
-0.824843 -2.69761 0.767774
-0.938312 -1.72413 1.34413
0.360889 -2.89309 0.741213
0.123482 -2.35751 0.946102
-2.01921 -1.57309 1.41056
-0.0311948 -2.68955 0.861626
0.192437 -1.91198 1.30329
-2.05324 -1.7683 1.26067
-2.07188 -2.99145 0.537428
-1.60511 -1.43038 1.55536
-1.90142 -1.82765 1.16956
-1.59883 -1.15583 1.73198
-0.768173 -1.9669 1.15787
-2.00959 -1.45684 1.52062
-1.05085 -1.2122 1.68114
-2.47159 -1.429 1.46559
-2.29381 -1.4115 1.5152
-0.668028 -1.86285 1.25888
-0.0142525 -1.90677 1.25844
-2.82154 -1.41312 1.41781
0.00921359 -2.28281 0.974287
-0.271507 -2.18113 1.01049
-2.47897 -1.21916 1.63735
-1.46625 -1.61798 1.34881
-0.838907 -2.61905 0.722144
-2.47269 -1.99175 1.01146
-2.76439 -1.05032 1.72328
0.228021 -2.15311 1.13242
-1.69017 -1.46151 1.47369
-0.839415 -1.83126 1.2303
-0.882327 -2.44034 0.849703
0.0649996 -2.59089 0.823343
-1.96431 -2.94054 0.588178
-1.84894 -1.88033 1.18263
-2.06997 -1.78207 1.24098
-1.59235 -2.1647 0.949712
-0.843516 -1.75713 1.28831
-0.174024 -2.13584 1.04739
-1.54005 -1.25561 1.60568
-1.86018 -2.68643 0.712335
-1.77348 -1.81401 1.19759
-0.52127 -1.6269 1.42322
-0.204281 -2.70036 0.667001
-2.01514 -1.42111 1.55434
-2.85541 -1.00364 1.74026
-0.436555 -1.82548 1.25657
-2.33155 -1.76177 1.22168
-0.766013 -1.15115 1.73207
-1.30647 -1.29689 1.58758
-1.88643 -2.15806 1.01961
-2.4591 -1.20517 1.65744
-2.16188 -1.19874 1.63558
-0.505068 -1.57968 1.4371
-2.36791 -1.90828 1.09943
-1.44954 -1.4761 1.42754
-2.83031 -1.30792 1.50663
0.398903 -2.50067 0.95971
-0.955663 -2.74291 0.803378
0.40297 -2.86606 0.774498
-2.08682 -2.67987 0.64381
-1.46188 -1.50985 1.45243
-1.82155 -1.45897 1.52669
-1.75042 -2.32744 0.874754
-1.92951 -1.86937 1.20662
-0.349687 -1.40192 1.61112
0.00067743 -1.939 1.24005
-1.79239 -2.7632 0.708843
-0.622678 -2.654 0.811179
-2.40964 -1.18703 1.62604
-0.458717 -1.40603 1.58841
-0.54996 -2.28101 0.97896
-1.48498 -2.38194 0.905693
-0.142895 -1.20155 1.822
-0.844221 -1.64108 1.37848
-1.1986 -2.48045 0.759835
-2.26988 -1.97828 1.05751
0.0412273 -2.97282 0.740867
-1.16639 -2.86341 0.552596
-0.938378 -0.945006 1.88862
-2.32687 -1.69215 1.27666
-1.64569 -2.93756 0.715512
-0.861599 -2.66093 0.796495
-1.98517 -1.65586 1.35365
-1.08859 -3.00579 0.544215
-0.434812 -1.59943 1.43428
-1.07309 -2.93752 0.667364
-0.900422 -3.10995 0.566796
-1.94114 -0.927181 1.9133
-1.54466 -1.5029 1.43372
-0.83435 -1.50599 1.44654
-0.937984 -1.56453 1.40994
0.180888 -2.76592 0.873146
-0.911153 -2.69178 0.777149
-0.288487 -2.55716 0.914316
-0.896705 -2.6304 0.882163
-2.50777 -1.61292 1.31305
-0.740308 -1.56041 1.44837
-0.594142 -2.53435 0.845824
-2.38866 -1.01733 1.81833
-2.16941 -1.83015 1.20068
0.152711 -2.68766 0.794537
-1.4194 -2.95432 0.659154
-0.0581644 -2.80668 0.742422
-1.06892 -1.2139 1.65244
-1.17527 -1.30517 1.62958
-1.37712 -2.15444 1.07812
-2.16664 -2.97127 0.489675
-0.260402 -2.32498 0.87811
-0.358218 -2.82077 0.742804
0.205713 -2.41233 0.964424
-2.97575 -1.21547 1.55006
-0.7185 -1.78088 1.32242
-1.91441 -1.34897 1.52221
-1.76323 -1.63823 1.36019
0.302915 -2.68968 0.81718
-2.62167 -1.40605 1.46599
-0.356929 -1.16317 1.80908
-1.43957 -2.1983 1.0704
-1.91861 -3.06605 0.508247
-2.48338 -2.01516 0.985813
-0.684039 -2.3418 0.95427
-1.83188 -1.22157 1.60012
-0.996656 -2.44165 0.831739
-1.60357 -2.85449 0.800098
-0.578601 -2.81681 0.663319
-0.544036 -1.30665 1.66671
-2.24523 -2.0166 1.03907
-0.939437 -2.38139 0.884785
-0.472317 -1.69839 1.37152
-1.63249 -1.45718 1.47547
-0.516745 -3.04225 0.654592
-0.1145 -1.80125 1.3251
-0.99557 -1.10866 1.74472
-1.6528 -2.43873 0.855736
0.0535602 -2.60591 0.849508
-2.43346 -2.16277 0.879971
-2.29903 -2.1163 0.948086
-0.129312 -1.99577 1.16994
-2.0653 -2.57305 0.678469
-1.93316 -1.65978 1.35333
-1.96519 -2.10417 1.03594
-0.788435 -1.32475 1.60601
-2.20247 -2.61125 0.632239
-0.060697 -2.16186 1.05372
-0.209471 -2.95352 0.705342
-1.54571 -0.915833 1.89221
-1.15464 -2.04797 1.14449
-0.573728 -1.29475 1.67322
-2.07923 -1.62158 1.37996
-1.92526 -2.20052 0.951772
-2.95465 -1.47128 1.35128
-2.15093 -2.78765 0.57154
-2.39019 -1.63011 1.3227
-1.37756 -2.20868 1.00461
-2.33361 -1.73906 1.24361
-0.40834 -2.23059 0.957791
-2.3919 -1.83418 1.14962
-1.54043 -1.6248 1.37526
-1.86996 -2.66231 0.636013
-1.24194 -2.11075 0.976837
-0.981296 -1.51354 1.42722
-1.47997 -2.90445 0.638567
-2.17243 -2.26278 0.877874
-1.05691 -1.71474 1.32152
-2.18793 -2.07455 1.00784
-2.04881 -2.5397 0.751982
-1.17916 -1.67612 1.38324
-0.95008 -1.97488 1.14379
-1.70205 -2.51074 0.826548
0.144693 -2.77135 0.866606
-1.74295 -1.8432 1.22285
-1.0598 -2.36352 0.971807
-0.795924 -1.74261 1.28066
0.0626681 -2.59213 0.796277
-1.69659 -1.72698 1.2777
-0.38356 -2.46242 0.816018
-2.73719 -1.35362 1.48155
-0.956427 -2.55413 0.915214
-2.33728 -1.1356 1.72974
-0.310504 -1.39208 1.64175
-2.29831 -2.01855 1.01715
-1.13726 -1.7409 1.28413
-2.48097 -1.32647 1.5579
-1.98556 -2.42243 0.844169
-3.12324 -1.12812 1.58329
-0.885676 -2.68292 0.724788
-1.06664 -2.35305 1.02272
-2.08806 -0.995361 1.80026
-1.73257 -1.93647 1.14037
-1.24098 -1.61571 1.35572
-1.94403 -1.61758 1.37949
-0.662673 -1.798 1.24285
-0.487924 -1.15778 1.78424
-0.287051 -2.63184 0.758675
-1.66084 -1.07945 1.73528
-1.6298 -2.29969 0.91431
-1.24462 -1.92124 1.16047
-1.8662 -1.95688 1.17167
-1.79923 -1.64581 1.34274
-1.59241 -1.6767 1.36272
0.327084 -2.79686 0.796645
-0.702941 -2.0236 1.11796
-0.297019 -2.00212 1.1782
-1.17791 -2.55035 0.77717
-0.81763 -2.90615 0.644681
0.0418751 -2.29985 1.06234
-0.995202 -1.01055 1.84568
0.253059 -2.08714 1.17959
-2.08256 -2.52761 0.714835
-1.81495 -2.27094 0.896619
-2.24657 -1.27954 1.58734
0.0136993 -2.76905 0.726788
-0.537583 -2.69882 0.728294
-1.94906 -1.1009 1.76884
-1.84626 -1.72846 1.31887
-2.60704 -1.06617 1.73344
-1.65626 -2.17555 0.973598
-1.88693 -1.65477 1.34485
0.315609 -2.8218 0.766573
-1.54729 -1.55723 1.41522
-1.53984 -1.80739 1.26353
-2.48524 -1.08876 1.7464
-0.45061 -2.71045 0.79568
-1.71433 -1.44486 1.48612
-0.992037 -1.39516 1.50008
-0.612428 -1.5527 1.46615
-1.06788 -2.23232 1.0391
-0.250159 -1.78057 1.31908
-2.16516 -2.55818 0.667387
-2.82611 -1.29331 1.51934
-1.92045 -2.35115 0.858467
-1.34652 -2.54574 0.782449
-2.07134 -2.45015 0.768499
-0.742217 -1.69225 1.33242
-1.9009 -2.95391 0.66308
-0.00500972 -2.08806 1.12266
-0.844406 -2.34713 0.964204
0.233757 -2.35847 1.04716
-0.316737 -1.22563 1.76199
-2.01783 -1.9602 1.12138
-0.203782 -2.3183 0.987665
-1.42338 -2.61264 0.832079
-1.38114 -1.32545 1.59751
-1.70427 -2.99268 0.664768
-2.66281 -1.66308 1.24267
-0.683505 -1.39018 1.5606
-2.00629 -1.17855 1.71277
-2.75087 -1.27433 1.55149
-2.38069 -1.35231 1.53278
-2.00157 -1.12132 1.71758
-0.479953 -2.66379 0.760864
-1.83176 -2.61729 0.636166
0.179547 -2.25458 1.03769
-1.04962 -2.73112 0.913249
-1.17544 -1.64483 1.33066
-0.959857 -2.06684 1.01498
-0.815056 -2.64364 0.716481
-0.642935 -2.25194 0.994922
0.11051 -2.69069 0.915
-1.616 -2.38072 0.835608
0.584904 -2.91418 0.859587
-0.275238 -1.19299 1.79838
-0.0523272 -2.1177 1.09884
-1.46157 -0.914493 1.94811
-1.03908 -2.97846 0.649614
-1.2695 -2.40433 0.845261
-2.55815 -1.34066 1.53345
-0.674256 -1.8398 1.20115
-0.945474 -1.41956 1.50877
-0.77154 -1.33013 1.61509
-0.382582 -1.89586 1.22737
-0.0998194 -1.90672 1.24569
-1.59622 -1.21567 1.60396
-1.44076 -2.49632 0.882578
-2.467 -1.51713 1.40353
-1.36154 -1.15952 1.65136
-1.99644 -2.28233 0.922297
-2.42364 -1.46053 1.45556
-0.831858 -2.23271 1.04595
-1.40996 -2.545 0.89634
0.193923 -2.90955 0.777427
-1.01251 -1.2555 1.63458
-1.75967 -1.25366 1.68686
-1.89123 -2.39877 0.851943
-1.91511 -1.46008 1.51179
-0.966905 -1.61068 1.34989
-2.17963 -1.79647 1.21546
-1.15861 -2.33771 0.886868
-0.0727118 -2.59089 0.764488
-1.2462 -3.01505 0.612605
-0.784253 -2.09773 1.10031
-0.290968 -1.18324 1.81048
-0.988035 -1.97735 1.16717
-1.88602 -1.28477 1.65529
-1.91382 -2.83884 0.673245
-0.480823 -2.77985 0.908557
-0.389187 -2.85621 0.723643
-0.993995 -2.68284 0.828474
-1.44025 -2.29925 0.9282
-0.913556 -1.30539 1.59626
-0.588794 -3.03598 0.626298
-2.12228 -2.0284 1.05532
-1.54229 -2.73969 0.732711
-1.00082 -2.70606 0.764694
-0.0154624 -3.00407 0.611826
-0.537376 -2.32089 0.939939
-0.118872 -1.9889 1.17776
-2.27111 -2.11195 0.959898
-0.863371 -2.14224 1.06808
-1.49626 -2.01483 1.09827
-1.67501 -2.43942 0.770307
