ply
format ascii 1.0
comment Created by Open3D
element vertex 250
property double x
property double y
property double z
end_header
-0.935092 2.85526 -0.985839
1.02692 1.73491 -1.54225
-0.739207 2.31 -0.170905
-1.34952 2.17328 -2.0307
-1.27384 2.89253 -0.306108
-0.877054 2.18902 -0.945022
0.389897 2.30203 -1.15963
0.374527 1.87066 -2.57751
1.08078 1.48304 -1.59051
0.876428 0.96469 -2.60053
-0.544415 2.46094 0.244178
-0.308937 1.79062 -2.57196
-1.21814 2.86414 -0.110518
0.310332 0.561823 -3.55011
-1.37483 1.93627 -1.55673
-0.298197 2.31055 -2.72502
-0.560888 1.35133 -3.83984
-1.0437 2.37968 -1.11864
0.000116054 1.62044 -1.71722
-0.089364 1.82065 -3.26654
0.339918 1.4364 -2.47816
0.808058 2.40059 -1.98947
-0.2709 2.68437 -0.0252581
1.05056 1.64697 -1.34617
0.830657 0.595023 -2.6243
0.00886464 2.11604 -1.34211
-0.701126 2.82951 0.0423431
-0.243392 2.53882 -1.78291
-0.188262 1.97542 -1.58089
1.27101 0.776167 -1.97525
0.364546 1.9856 -2.97107
0.469332 1.5836 -3.24417
1.25738 1.70828 -1.30087
-1.13861 2.55518 -0.0174209
1.10154 1.05746 -2.06096
-0.137297 2.33089 0.36179
-2.00875 2.46215 -1.33512
0.268565 0.49403 -3.58732
-0.398554 1.14705 -2.82101
-1.20868 2.64683 -0.913473
-1.16005 2.52714 -1.28798
0.641562 1.27734 -2.86354
0.0598789 2.16553 -0.868351
-0.769727 3.00227 0.813215
-1.89076 2.47119 -0.884436
1.34317 1.25374 -1.83476
-0.98189 2.65387 0.7537
1.28432 0.806159 -2.04649
-0.584899 1.97834 -1.25836
-0.130582 1.81341 -2.31441
0.739737 1.47021 -2.64745
-0.975953 2.18378 0.0515163
0.404214 1.37968 -2.76094
0.443529 0.735686 -3.01206
0.866885 1.97098 -1.46294
0.852252 0.990564 -2.6298
1.08234 1.54161 -1.40658
-0.256026 1.91226 -1.84754
-0.583476 2.64155 -1.29203
-1.44501 2.44373 -0.526478
0.778128 1.1559 -2.98775
0.640016 0.540834 -3.0303
1.51296 0.917787 -1.5846
0.971186 0.720363 -2.60566
-1.23429 2.70482 -0.393883
-0.656079 2.42728 0.783252
-0.180069 1.80259 -2.45181
0.26571 1.93295 -2.84369
-0.5424 2.45244 -2.19596
-0.606885 2.47456 0.764409
0.43581 2.08924 -2.27123
0.0613295 2.49332 0.462343
-1.51692 1.89384 -2.48058
-0.119948 1.0505 -3.82235
-0.805301 2.10684 0.20576
-1.19929 2.19515 -1.64692
1.01935 1.44644 -2.08846
1.12612 0.959388 -2.53427
-0.602805 2.25986 -1.31273
0.698884 1.09098 -2.86748
0.381333 1.36027 -3.12584
-0.894349 2.51143 -0.0819392
-0.14307 1.2026 -3.80207
0.883593 1.72393 -2.00321
-0.87601 2.27921 -2.4193
0.189897 2.10295 -2.87516
-1.222 2.62929 -1.36351
0.443124 0.893658 -3.35886
1.13194 1.76607 -2.69126
-0.951443 2.25812 0.300582
-1.24925 2.00453 -2.10495
-0.448665 2.60058 -1.43438
0.214702 1.78561 -1.46053
-0.483894 2.86329 -1.50732
-0.854406 2.18361 -0.105561
0.965546 1.1078 -2.10776
-0.146019 1.31151 -3.74183
1.05047 1.49609 -1.76853
-0.283418 2.63766 0.718938
-0.625083 2.15739 0.199729
0.661252 0.716734 -2.72915
0.0696046 2.2411 -0.821772
0.0999232 2.62725 0.58767
0.629154 1.77023 -1.14434
1.47493 0.673532 -1.67366
-0.719892 2.75229 0.53258
1.12443 0.805301 -1.95601
-0.407599 2.57182 0.0279727
1.03725 1.34574 -2.00913
-0.080493 1.85 -1.22429
-0.331198 1.53029 -3.59739
1.25723 1.21781 -1.74577
-1.90263 2.62955 -1.02344
-0.0266287 1.73693 -0.838032
-0.293489 3.16219 1.08104
-1.11517 2.74317 0.165166
-1.28673 2.91631 -0.353187
0.784128 1.3873 -1.57365
-0.799906 2.5432 -0.208409
1.06948 0.629049 -2.34711
-0.897466 2.80053 0.462367
-0.126642 2.15109 -3.09216
1.04843 1.94876 -1.30374
0.323447 1.98894 -1.6836
-0.729385 2.67521 -0.63811
-0.976006 2.3874 -2.04429
-0.745446 3.1358 0.324405
-0.76626 1.82852 -3.10832
-1.01359 2.25505 -1.20451
-0.242262 1.9473 -3.13057
-0.363055 2.41524 -0.59167
-0.00647367 1.96849 -1.11914
-0.0669847 2.78098 0.212832
-0.105708 2.26154 -0.301857
-0.444505 2.25315 -2.25813
-0.815938 2.43048 -1.87798
-0.0543337 2.23762 -1.79338
1.11084 2.13588 -1.39284
-0.350135 2.13504 -2.96202
-1.17712 2.45806 -1.1095
1.34916 1.07414 -1.63291
-1.08727 2.8497 -0.0250628
-0.571363 1.93072 -2.78834
-0.542723 2.34451 -1.70788
-0.641874 1.86415 -3.1554
1.41831 0.53669 -1.71951
-0.892185 2.05189 -0.256532
0.477979 2.53697 -0.938355
-1.05869 3.12733 0.371377
-0.466988 1.98567 -2.85328
-0.312327 2.31169 -1.53446
0.232974 1.66241 -3.04307
-1.23529 2.08875 -1.72447
1.60924 1.13395 -1.53574
0.156566 2.17246 -2.64277
0.240998 0.26175 -3.18815
-0.512181 1.69386 -2.38399
0.68276 2.4169 -0.64442
1.02728 1.75466 -1.7664
-1.12404 2.30198 0.120614
-0.55235 1.7168 -2.41601
-1.2552 2.61507 -1.30925
-0.312442 1.75545 -1.38346
0.2267 0.968346 -3.55952
-0.152096 1.83563 -2.86595
0.414515 2.21619 -2.22074
0.282892 1.43493 -3.41993
0.678497 2.49028 -0.130939
0.133377 2.47014 0.284585
-0.723725 2.68536 -0.323519
-1.52299 2.21788 -1.74389
0.00781421 0.805229 -3.67714
-0.904105 2.31438 -1.85329
-1.13687 2.82378 0.438499
0.613075 1.97598 -1.08933
0.711354 2.06712 -0.728764
0.892934 0.40467 -2.45913
-0.360393 1.94339 -2.84032
-0.733961 2.54702 -1.41126
-0.138162 1.55202 -2.4012
-1.02336 2.60983 -1.37036
-0.896026 2.36972 -1.19791
-0.316162 2.10262 -0.951477
-0.235097 2.3562 -1.10257
-0.0882508 1.05144 -3.63151
-1.7325 3.10463 -0.717967
0.105605 1.54058 -3.52902
-0.632719 2.01568 -0.0485026
0.454916 1.14504 -2.60569
-1.73015 2.19453 -1.44911
-1.87517 2.33279 -1.54504
0.96071 1.33112 -2.10691
-1.64043 2.2976 -1.66954
0.0043597 0.955192 -3.47987
0.0376275 1.32689 -2.68607
-0.281389 2.01573 -0.0273726
-1.07145 2.77237 -0.445115
-0.448478 1.57077 -3.68131
0.703626 1.53593 -1.58687
-1.21295 2.39505 -0.508549
-0.569999 1.18771 -4.0339
-0.201506 0.739459 -3.87348
-0.407919 1.04491 -4.06076
-0.378228 0.753399 -4.14446
-0.11634 1.75658 -3.49698
-0.156133 0.81689 -3.97486
-0.646795 0.680474 -4.23815
-0.813521 0.337329 -4.5913
-1.43774 -0.317455 -3.73077
-0.852288 1.13451 -4.04686
-0.244379 0.975088 -3.98967
-0.0862924 1.67098 -3.63728
-1.17678 0.220128 -3.73593
-0.336712 1.39981 -3.90425
-0.652618 0.655875 -4.3725
-0.870946 0.323198 -4.24131
-0.313849 1.53824 -3.80795
-1.24326 -0.0125553 -3.72946
-0.699831 0.118012 -4.11279
-1.02026 0.395854 -3.76358
-0.517197 1.08746 -4.13463
-1.27647 -0.164493 -3.92253
-0.939827 0.855293 -4.33308
-0.0233592 0.823496 -3.86804
-0.633008 0.186996 -4.21134
-0.932394 0.493678 -4.0285
0.0626092 0.958863 -3.67302
-0.693501 1.13521 -4.08544
-1.89319 -0.30266 -4.31563
-0.776583 0.723801 -4.08624
-0.844242 1.25948 -4.04433
0.138409 1.46413 -3.55777
0.417743 1.02815 -3.44854
-0.226884 0.858262 -3.8537
-0.550927 0.290902 -4.1939
-1.34036 0.470242 -4.20261
-1.36952 0.742473 -4.28379
-1.77154 -0.041764 -4.85993
-0.838668 0.598356 -3.92055
-0.430315 0.416463 -3.99994
-0.456908 0.693714 -3.94781
-0.553231 0.358526 -3.78023
-1.67487 0.68263 -3.84506
-1.50437 0.235004 -3.71451
-1.58104 -0.0877195 -4.12551
-0.998984 0.118096 -4.14794
-1.78532 0.0119981 -4.26304
-0.794078 1.17555 -4.23048
-1.04645 0.255646 -4.17028
-0.640305 0.317071 -3.7923
