ply
format ascii 1.0
comment Created by Open3D
element vertex 250
property double x
property double y
property double z
end_header
-1.80727 2.56794 0.744952
0.0987544 2.15999 1.62828
-2.21724 0.787842 0.880101
-2.03954 2.40569 0.174376
-2.58324 1.57882 0.68823
-2.06953 1.3735 0.652962
-0.664418 2.24719 1.46431
-0.0827086 3.24337 1.09922
0.130202 1.87623 1.57996
0.8101 2.82768 0.957673
-2.14868 0.652926 1.10163
-0.964132 2.65869 0.698739
-2.64179 1.31584 0.752475
0.943404 3.52878 0.208283
-2.41856 1.41541 0.192667
-0.607757 3.79536 0.774016
-0.596707 3.50569 0.169234
-2.08679 1.82272 0.563467
-1.0962 1.54883 0.984748
-0.232206 3.78673 0.676737
-0.298382 2.43284 0.98227
0.27774 3.61714 1.59217
-1.64024 1.45577 1.27865
-0.0961229 1.68589 1.68683
0.819952 2.44956 0.774837
-1.05283 1.98098 1.15506
-2.08996 1.41578 1.06007
-0.941058 3.08987 1.02119
-1.2097 1.92414 0.964609
1.02622 2.1759 1.20179
0.246277 4.01205 1.01848
0.686975 4.13095 0.824595
0.201168 1.91881 1.8104
-2.67811 0.779627 0.731745
0.660131 2.25918 1.26403
-1.86741 0.421679 1.36037
-2.95633 1.81647 -0.0610268
0.886243 3.43437 0.16245
-1.1582 1.86476 0.446179
-2.24112 1.98398 0.548605
-2.04862 2.2419 0.488928
0.542517 3.22491 0.93293
-1.18256 1.57392 1.26577
-2.58125 0.652368 1.22093
-3.1615 1.22257 0.128343
0.925168 2.48371 1.48113
-2.95206 -0.00262286 1.0139
1.16901 2.41509 1.17636
-1.7356 1.44943 0.752748
-0.881178 2.48942 0.853583
0.516306 3.21856 1.10817
-2.64426 0.195524 0.746722
0.00195326 2.83421 0.92251
0.316235 2.55262 0.619896
-0.0916536 2.30509 1.62067
0.782332 2.86195 0.952934
-0.0528298 1.61841 1.66557
-1.19148 2.07773 0.869842
-1.43319 2.63365 0.888714
-2.81188 1.03136 0.436965
1.08461 3.69456 0.835693
0.916683 2.89483 0.534463
1.01187 1.90036 1.49616
1.15062 2.87293 0.844079
-2.54024 1.4206 0.64515
-2.63567 -0.186721 1.14502
-0.873816 2.60484 0.798825
-0.0314725 3.62353 0.997452
-1.06157 3.32828 0.737485
-2.53306 -0.0365271 1.1753
-0.131384 3.2225 1.25425
-1.63603 0.671467 1.53512
-2.12771 2.35777 -0.0593176
0.0933493 3.59757 0.25712
-2.57754 -0.0493172 0.864213
-2.08349 2.03408 0.344451
0.518521 2.6388 1.37304
1.41241 3.30623 0.992637
-1.61596 1.97976 0.795391
0.693635 3.1391 0.869491
0.293635 3.39132 0.793106
-2.35989 0.940407 0.847986
0.0572906 3.74467 0.301717
0.243512 2.7052 1.43425
-1.3422 3.19099 0.442598
-0.0485916 3.89004 0.989809
-2.00058 2.51937 0.447975
0.814754 3.54684 0.504481
1.54011 4.51248 1.24718
-2.73275 0.0165778 0.827248
-2.01545 2.18647 0.205162
-1.26224 2.75562 0.949214
-0.924827 1.62775 1.19627
-1.10677 3.33282 0.955361
-2.42474 0.445802 0.791872
0.413585 2.16147 1.23368
-0.00540058 3.76749 0.35979
0.270224 2.18897 1.50673
-2.0457 0.500341 1.38591
-2.35564 0.12978 0.984213
0.491799 2.39858 0.766141
-1.15884 1.65938 1.29417
-1.58651 0.789761 1.60379
-0.687455 1.36367 1.51778
1.13612 1.84256 1.32686
-2.40353 0.6828 1.11972
0.573715 1.77248 1.22496
-1.85192 1.15069 1.17558
0.466283 2.39429 1.3721
-1.30875 1.36035 1.05854
-0.411071 3.61336 0.395895
0.601025 2.06828 1.49556
-2.99933 1.69905 0.118077
-1.51108 0.715177 1.13929
-2.05868 0.921624 1.56783
-2.70433 0.851243 0.831051
-2.56155 1.67132 0.676756
-0.400627 1.35922 1.43592
-2.17949 1.18767 0.891213
1.07325 2.43928 0.934068
-2.57862 0.719615 1.02232
-0.237211 4.11282 0.759831
0.0237937 2.17345 1.75172
-0.611272 2.28534 1.26993
-1.85606 1.91974 0.899053
-1.56205 2.93025 0.456539
-2.20194 1.52801 1.16411
-1.14232 3.18192 0.323583
-2.07151 1.7133 0.543573
-0.480527 3.69185 0.656468
-1.60448 1.57126 1.08103
-1.22805 1.47867 1.14611
-1.49512 1.43984 1.46404
-1.54267 1.0775 1.25774
-1.05484 3.04649 0.760847
-1.48483 2.84481 0.603222
-0.878128 2.64662 1.07829
0.240772 2.65922 1.80624
-0.612343 3.75593 0.662065
-2.19311 1.89761 0.496238
0.618092 1.77411 1.5282
-2.52351 1.28214 0.835444
-1.07436 3.04043 0.528471
-1.35604 2.56701 0.797688
-0.961307 3.36441 0.39722
1.0801 1.68449 1.24087
-2.44561 0.378864 0.714961
-0.57534 2.43881 1.60427
-2.67286 1.18705 1.01394
-0.899626 3.26576 0.59152
-1.21804 2.39982 0.965517
0.00191543 3.47914 0.856582
-2.13546 1.91705 0.288847
1.18678 2.26326 1.60867
-0.229352 3.65175 1.04348
0.12731 2.02663 0.314029
-1.31089 2.19011 0.581503
-0.553634 1.97974 1.75486
0.290608 2.54319 1.57018
-2.81847 0.214353 0.702688
-1.3301 2.24684 0.556791
-2.0754 2.40934 0.435598
-1.51024 1.29027 0.865166
0.538673 3.59756 0.414373
-0.603134 3.18196 0.746809
-0.148187 3.34474 1.28457
0.491022 3.97221 0.655102
-0.775449 1.51451 1.85117
-1.48808 0.860949 1.5479
-1.99 1.58815 0.952996
-2.32795 2.09753 0.11682
0.135641 3.1633 0.279532
-1.64534 2.57174 0.529462
-2.89886 0.576511 0.904841
-0.614358 1.68376 1.55029
-0.68313 1.42297 1.70261
0.814396 2.06852 0.768577
-0.81389 3.22008 0.652176
-1.56936 2.55055 0.753254
-0.935816 2.16353 0.771111
-1.82529 2.54163 0.577296
-1.90682 1.94676 0.64438
-1.54273 1.43061 0.995456
-1.29708 2.04936 1.08305
-0.115162 3.20919 0.360733
-2.78418 2.2152 0.381932
0.306237 4.08728 0.582483
-2.3022 0.169681 0.908354
-0.0665998 2.33829 0.910841
-2.7201 1.60549 0.0374097
-2.72354 1.94689 -0.0549748
0.416328 2.43643 1.30883
-2.42964 2.12962 0.0638757
-0.110257 2.93488 0.415219
-0.617528 2.28876 0.755057
-1.98555 0.240097 1.147
-2.29086 1.69406 0.744701
-0.464726 3.74494 0.313226
-0.402786 1.61245 1.41048
-2.55605 1.07456 0.560536
0.222068 4.43045 -0.18488
0.866628 4.27371 -0.207677
0.330692 4.26594 -0.113133
-0.0227823 3.50267 -0.0646127
0.686259 4.98908 0.306219
0.320779 3.7128 0.0577872
0.316824 4.11871 -0.4769
-0.130517 3.49909 -0.607745
0.683338 3.78145 -1.75855
0.0877867 4.45543 -0.438067
0.09898 3.71542 0.105156
0.479046 4.68346 0.378847
0.650964 4.16142 -1.29246
0.0252736 4.1676 0.192357
0.0601516 3.85354 -0.400581
0.427491 4.02361 -0.868391
-0.0159967 4.20961 0.279051
0.707559 4.00632 -1.46289
0.723268 3.9201 -0.877067
0.672648 4.27745 -1.0803
-0.203413 3.79741 -0.0186389
0.619401 3.85182 -1.51866
-0.0730856 4.15805 -0.567869
0.627251 3.92196 0.084102
0.613522 3.86432 -0.746293
0.490619 4.24133 -0.891528
1.04686 4.41647 0.0701312
0.140393 4.40359 -0.297858
-0.0700502 3.59583 -1.93811
0.413028 4.31798 -0.625319
-0.0412869 4.43837 -0.339509
0.902291 4.71486 0.378583
1.11069 4.14343 0.42482
0.832862 4.38593 -0.178194
0.604363 3.89635 -0.623815
0.0454745 4.11929 -1.14884
-0.252179 4.15071 -0.974196
-0.520795 3.5506 -1.56023
0.590179 4.34747 -0.795985
0.815399 4.0933 -0.533674
0.738221 4.32537 -0.43299
0.998355 4.23407 -0.742888
-0.17529 4.19687 -1.3302
0.378845 4.11929 -1.51799
0.209977 3.81956 -1.649
0.530039 3.96362 -1.10689
-0.112365 3.79791 -1.7022
-0.362252 4.00291 -0.205999
0.416894 4.04347 -1.06446
0.954016 4.21262 -0.828978
