ply
format ascii 1.0
comment Created by Open3D
element vertex 400
property double x
property double y
property double z
end_header
2.09594 -1.69322 1.10756
2.70822 -0.0698496 0.850026
2.84443 -0.599166 0.758182
2.48473 -1.92239 0.828214
2.89584 -0.172073 0.77084
1.14528 -1.68576 1.46471
2.85165 -0.207261 0.794864
1.98746 -0.476077 1.19732
1.97395 -0.142087 1.08117
1.74814 -1.56644 1.13634
1.45334 -1.07454 1.5075
2.08855 -1.62731 0.939827
2.89759 0.385134 0.706556
2.70563 -0.980274 0.900502
2.90319 -0.175472 0.753511
2.98599 -0.404486 0.731014
2.58755 -1.78424 1.01897
1.67073 -2.43643 1.0813
2.78871 -0.176766 0.924963
2.68772 0.551847 1.01551
2.02058 -1.78202 1.08044
1.59268 -0.498431 1.633
2.74747 -0.723101 0.986881
1.88569 -0.346894 1.44969
1.93315 -0.738137 1.05576
2.01031 -1.52503 0.668354
2.63667 0.21256 0.894805
2.46223 -0.424938 0.699673
1.58803 -0.166512 1.58018
2.2089 -0.157202 1.13127
2.21074 -1.21042 1.00673
2.63715 -2.03675 0.528901
1.72066 -0.52505 1.17147
2.43156 -1.59677 0.975292
1.66637 -2.57497 1.18352
1.7083 -1.36635 1.53594
1.97793 0.0232164 1.04131
2.50984 0.0390543 1.12963
1.46985 -0.896913 1.22543
1.00699 -1.93446 1.38202
1.77148 -0.484461 1.52959
2.72271 -0.605249 0.710691
2.82426 -0.31767 0.766254
2.09891 -1.77854 1.05838
1.26476 -2.63322 1.56742
1.62089 -1.15512 1.33021
2.37179 -0.822532 0.947258
2.95652 -0.570407 0.828632
1.74551 -1.69846 1.01297
1.31638 -0.906903 1.61332
2.18735 0.102873 1.022
2.35011 -0.918565 0.987965
2.22421 -0.957601 1.10045
2.14122 -1.75004 0.948715
2.92163 -1.2544 0.851594
2.75876 -1.28847 0.637161
2.71062 -1.52289 0.792318
1.22447 -1.56079 1.82358
1.73579 -2.08413 0.884824
1.77905 -1.43722 1.37367
1.50622 -2.25742 1.45535
2.5658 -1.96344 0.600265
1.98623 -1.28701 1.11579
2.24677 -1.52914 1.03097
1.61777 -1.58896 1.39352
2.60339 -1.51826 0.756036
1.65662 -0.659673 1.46834
1.31444 -2.59296 1.11379
1.69852 -0.537 1.31085
1.79119 -2.12551 1.49369
2.32474 -0.952193 1.01089
1.23011 -1.4508 1.71596
2.31172 -0.0742145 0.814435
2.35576 0.390229 1.26762
1.4383 -1.75784 1.54045
2.59095 -1.44037 0.639135
1.1251 -1.00262 1.80201
1.1948 -0.795536 1.65285
1.99966 -0.462651 1.08892
2.1849 0.109556 1.20633
1.38041 -1.57817 1.49741
2.31789 -0.277577 1.12643
1.99854 -1.97771 1.02519
1.81099 -0.870682 1.52273
0.991617 -1.71231 1.77142
1.8529 -0.675324 1.33087
2.93067 -0.102649 0.713027
2.65677 0.314413 1.02122
0.989515 -0.718553 1.81688
2.67485 -0.824843 0.767774
1.96801 -0.938312 1.34413
2.71157 0.360889 0.741213
2.08913 0.123482 0.946102
1.64961 -2.01921 1.41056
2.89203 -0.0311948 0.861626
1.9974 0.192437 1.30329
1.8481 -2.05324 1.26067
2.80615 -2.07188 0.537428
1.72812 -1.60511 1.55536
1.40563 -1.90142 1.16956
1.34803 -1.59883 1.73198
2.05354 -0.768173 1.15787
1.78666 -2.00959 1.52062
1.28064 -1.05085 1.68114
1.27808 -2.47159 1.46559
1.94062 -2.29381 1.5152
2.13991 -0.668028 1.25888
1.89779 -0.0142525 1.25844
1.38114 -2.82154 1.41781
2.07431 0.00921359 0.974287
2.06249 -0.271507 1.01049
1.27216 -2.47897 1.63735
1.39914 -1.46625 1.34881
2.35775 -0.838907 0.722144
1.75423 -2.47269 1.01146
1.1092 -2.76439 1.72328
2.36963 0.228021 1.13242
1.34405 -1.69017 1.47369
1.80004 -0.839415 1.2303
2.34906 -0.882327 0.849703
2.50803 0.0649996 0.823343
2.80498 -1.96431 0.588178
1.84427 -1.84894 1.18263
1.75987 -2.06997 1.24098
1.80972 -1.59235 0.949712
1.76831 -0.843516 1.28831
1.94056 -0.174024 1.04739
1.08825 -1.54005 1.60568
2.65595 -1.86018 0.712335
1.51445 -1.77348 1.19759
1.87632 -0.52127 1.42322
2.26482 -0.204281 0.667001
1.85401 -2.01514 1.55434
1.26292 -2.85541 1.74026
1.79672 -0.436555 1.25657
1.61965 -2.33155 1.22168
1.02513 -0.766013 1.73207
1.16961 -1.30647 1.58758
2.39374 -1.88643 1.01961
1.36921 -2.4591 1.65744
1.0062 -2.16188 1.63558
1.37776 -0.505068 1.4371
1.82914 -2.36791 1.09943
1.11556 -1.44954 1.42754
1.06022 -2.83031 1.50663
2.62391 0.398903 0.95971
2.85471 -0.955663 0.803378
2.74982 0.40297 0.774498
2.51915 -2.08682 0.64381
1.47687 -1.46188 1.45243
1.74131 -1.82155 1.52669
2.1575 -1.75042 0.874754
2.05425 -1.92951 1.20662
1.50842 -0.349687 1.61112
1.81682 0.00067743 1.24005
2.7771 -1.79239 0.708843
2.71762 -0.622678 0.811179
0.928645 -2.40964 1.62604
1.42419 -0.458717 1.58841
2.38327 -0.54996 0.97896
2.43884 -1.48498 0.905693
1.50485 -0.142895 1.822
1.70636 -0.844221 1.37848
2.10773 -1.1986 0.759835
1.76484 -2.26988 1.05751
2.98392 0.0412273 0.740867
2.36085 -1.16639 0.552596
1.16213 -0.938378 1.88862
1.99291 -2.32687 1.27666
3.02 -1.64569 0.715512
2.68841 -0.861599 0.796495
1.76472 -1.98517 1.35365
2.59985 -1.08859 0.544215
1.38747 -0.434812 1.43428
2.80924 -1.07309 0.667364
2.80549 -0.900422 0.566796
1.31984 -1.94114 1.9133
1.3116 -1.54466 1.43372
1.21733 -0.83435 1.44654
1.44769 -0.937984 1.40994
3.00878 0.180888 0.873146
2.69122 -0.911153 0.777149
2.82752 -0.288487 0.914316
2.8769 -0.896705 0.882163
1.69966 -2.50777 1.31305
1.68827 -0.740308 1.44837
2.57389 -0.594142 0.845824
1.36223 -2.38866 1.81833
2.15421 -2.16941 1.20068
2.6024 0.152711 0.794537
2.83808 -1.4194 0.659154
2.7526 -0.0581644 0.742422
1.07276 -1.06892 1.65244
1.49187 -1.17527 1.62958
2.43502 -1.37712 1.07812
2.67327 -2.16664 0.489675
1.80154 -0.260402 0.87811
2.81333 -0.358218 0.742804
2.51757 0.205713 0.964424
1.11833 -2.97575 1.55006
2.11952 -0.7185 1.32242
1.05563 -1.91441 1.52221
1.60967 -1.76323 1.36019
2.58938 0.302915 0.81718
1.26137 -2.62167 1.46599
1.62941 -0.356929 1.80908
2.57434 -1.43957 1.0704
2.72455 -1.91861 0.508247
1.88152 -2.48338 0.985813
2.47026 -0.684039 0.95427
0.907707 -1.83188 1.60012
2.28261 -0.996656 0.831739
3.12419 -1.60357 0.800098
2.59459 -0.578601 0.663319
1.59341 -0.544036 1.66671
2.06526 -2.24523 1.03907
2.31403 -0.939437 0.884785
1.92667 -0.472317 1.37152
1.33134 -1.63249 1.47547
2.91723 -0.516745 0.654592
1.95821 -0.1145 1.3251
1.09084 -0.99557 1.74472
2.44805 -1.6528 0.855736
2.66333 0.0535602 0.849508
1.67051 -2.43346 0.879971
2.17348 -2.29903 0.948086
2.02529 -0.129312 1.16994
2.26105 -2.0653 0.678469
1.75996 -1.93316 1.35333
2.27925 -1.96519 1.03594
1.28593 -0.788435 1.60601
2.30811 -2.20247 0.632239
2.07736 -0.060697 1.05372
2.90486 -0.209471 0.705342
1.14281 -1.54571 1.89221
2.33051 -1.15464 1.14449
1.58287 -0.573728 1.67322
1.8549 -2.07923 1.37996
2.11992 -1.92526 0.951772
1.14748 -2.95465 1.35128
2.56475 -2.15093 0.57154
1.74977 -2.39019 1.3227
2.27716 -1.37756 1.00461
1.76528 -2.33361 1.24361
2.04379 -0.40834 0.957791
1.94036 -2.3919 1.14962
1.62062 -1.54043 1.37526
2.24013 -1.86996 0.636013
1.70039 -1.24194 0.976837
1.21868 -0.981296 1.42722
2.71207 -1.47997 0.638567
2.31742 -2.17243 0.877874
1.77008 -1.05691 1.32152
2.12457 -2.18793 1.00784
2.61834 -2.04881 0.751982
1.9611 -1.17916 1.38324
2.01712 -0.95008 1.14379
2.56542 -1.70205 0.826548
3.00735 0.144693 0.866606
1.88102 -1.74295 1.22285
2.59798 -1.0598 0.971807
1.58499 -0.795924 1.28066
2.37263 0.0626681 0.796277
1.55286 -1.69659 1.2777
2.23452 -0.38356 0.816018
1.472 -2.73719 1.48155
2.83373 -0.956427 0.915214
1.39218 -2.33728 1.72974
1.95464 -0.310504 1.64175
1.69369 -2.29831 1.01715
1.66912 -1.13726 1.28413
1.45069 -2.48097 1.5579
2.64527 -1.98556 0.844169
0.945739 -3.12324 1.58329
2.5152 -0.885676 0.724788
2.75401 -1.06664 1.02272
1.007 -2.08806 1.80026
1.84107 -1.73257 1.14037
1.42515 -1.24098 1.35572
1.67328 -1.94403 1.37949
1.58238 -0.662673 1.24285
1.2212 -0.487924 1.78424
2.4786 -0.287051 0.758675
1.01319 -1.66084 1.73528
2.22071 -1.6298 0.91431
1.85508 -1.24462 1.16047
2.38278 -1.8662 1.17167
1.53133 -1.79923 1.34274
1.8491 -1.59241 1.36272
2.75472 0.327084 0.796645
2.08458 -0.702941 1.11796
2.26538 -0.297019 1.1782
2.38019 -1.17791 0.77717
2.70135 -0.81763 0.644681
2.70065 0.0418751 1.06234
1.25605 -0.995202 1.84568
2.14862 0.253059 1.17959
2.31973 -2.08256 0.714835
2.05036 -1.81495 0.896619
1.13222 -2.24657 1.58734
2.60375 0.0136993 0.726788
2.55478 -0.537583 0.728294
1.30926 -1.94906 1.76884
1.93582 -1.84626 1.31887
1.11693 -2.60704 1.73344
2.01279 -1.65626 0.973598
1.62411 -1.88693 1.34485
2.69806 0.315609 0.766573
1.49881 -1.54729 1.41522
1.91733 -1.53984 1.26353
1.3269 -2.48524 1.7464
2.77465 -0.45061 0.79568
1.33304 -1.71433 1.48612
0.933782 -0.992037 1.50008
1.7342 -0.612428 1.46615
2.48794 -1.06788 1.0391
1.56689 -0.250159 1.31908
2.23266 -2.16516 0.667387
1.27901 -2.82611 1.51934
2.26917 -1.92045 0.858467
2.39594 -1.34652 0.782449
2.30453 -2.07134 0.768499
1.64719 -0.742217 1.33242
3.03221 -1.9009 0.66308
2.12234 -0.00500972 1.12266
2.52265 -0.844406 0.964204
2.73565 0.233757 1.04716
1.56201 -0.316737 1.76199
2.03154 -2.01783 1.12138
2.49702 -0.203782 0.987665
2.74502 -1.42338 0.832079
1.39895 -1.38114 1.59751
2.97822 -1.70427 0.664768
1.56094 -2.66281 1.24267
1.18916 -0.683505 1.5606
1.37709 -2.00629 1.71277
1.26579 -2.75087 1.55149
1.23269 -2.38069 1.53278
1.10444 -2.00157 1.71758
2.58091 -0.479953 0.760864
2.07265 -1.83176 0.636166
2.2011 0.179547 1.03769
3.12322 -1.04962 0.913249
1.41577 -1.17544 1.33066
1.68964 -0.959857 1.01498
2.39846 -0.815056 0.716481
2.36148 -0.642935 0.994922
3.02169 0.11051 0.915
2.13018 -1.616 0.835608
2.9899 0.584904 0.859587
1.45153 -0.275238 1.79838
2.19184 -0.0523272 1.09884
1.43999 -1.46157 1.94811
2.82388 -1.03908 0.649614
2.22555 -1.2695 0.845261
1.46206 -2.55815 1.53345
1.50308 -0.674256 1.20115
1.22538 -0.945474 1.50877
1.42975 -0.77154 1.61509
2.04376 -0.382582 1.22737
1.7128 -0.0998194 1.24569
0.895331 -1.59622 1.60396
2.65922 -1.44076 0.882578
1.60251 -2.467 1.40353
0.874036 -1.36154 1.65136
2.54211 -1.99644 0.922297
1.47387 -2.42364 1.45556
2.51243 -0.831858 1.04595
2.81492 -1.40996 0.89634
2.95433 0.193923 0.777427
1.17682 -1.01251 1.63458
1.60842 -1.75967 1.68686
2.43021 -1.89123 0.851943
1.65094 -1.91511 1.51179
1.25152 -0.966905 1.34989
1.71693 -2.17963 1.21546
2.18273 -1.15861 0.886868
2.29811 -0.0727118 0.764488
2.79187 -1.2462 0.612605
2.30183 -0.784253 1.10031
1.30286 -0.290968 1.81048
2.15641 -0.988035 1.16717
1.59691 -1.88602 1.65529
2.88858 -1.91382 0.673245
3.16221 -0.480823 0.908557
2.82057 -0.389187 0.723643
2.82224 -0.993995 0.828474
2.25157 -1.44025 0.9282
1.12199 -0.913556 1.59626
2.84484 -0.588794 0.626298
2.09294 -2.12228 1.05532
2.70785 -1.54229 0.732711
2.68306 -1.00082 0.764694
2.69169 -0.0154624 0.611826
2.34353 -0.537376 0.939939
2.03904 -0.118872 1.17776
2.06119 -2.27111 0.959898
2.31414 -0.863371 1.06808
1.95561 -1.49626 1.09827
2.03816 -1.67501 0.770307
