ply
format ascii 1.0
comment Created by Open3D
element vertex 250
property double x
property double y
property double z
end_header
-2.20141 0.54971 -1.39516
-1.82386 1.62778 0.324897
-2.38637 -0.841372 -0.786944
-2.76933 0.505252 -1.98658
-2.47724 -0.606709 -1.41278
-2.55373 -0.281971 -1.16787
-2.01243 1.12958 -0.179879
-2.12354 2.30283 -0.652788
-1.85594 1.49766 0.401498
-1.40719 2.614 -0.152967
-2.21611 -0.948582 -0.496905
-2.64568 1.42724 -1.19266
-2.48016 -0.824283 -1.28137
-1.30699 3.24285 -0.986692
-2.93558 -0.366659 -1.7657
-2.30032 2.30591 -1.37498
-2.72606 2.35134 -1.8285
-2.53895 -0.0128234 -1.421
-2.55552 0.573624 -0.564967
-2.32987 2.6336 -1.30692
-2.29967 1.69907 -0.55082
-1.69027 2.6304 -0.175584
-1.97755 -0.134904 -0.418922
-1.97363 1.21035 0.457375
-1.35827 2.40834 -0.150738
-2.28271 0.770715 -0.532015
-2.13358 -0.452293 -0.790299
-2.19618 1.53473 -1.01449
-2.45504 0.684216 -0.757851
-1.085 2.26938 0.43559
-1.93657 3.00324 -0.858215
-1.61918 3.3835 -0.845805
-1.74704 1.51553 0.623101
-2.53335 -1.16235 -1.11457
-1.46959 2.11277 0.254973
-2.14229 -0.918938 -0.066522
-2.93347 -0.525774 -2.34956
-1.3653 3.16155 -1.02013
-2.95813 0.910074 -1.22182
-2.46736 -0.0589712 -1.54753
-2.49385 0.273097 -1.62346
-1.71642 2.72285 -0.477545
-2.20062 0.376454 -0.322689
-2.22988 -1.32061 -0.571846
-3.02432 -1.06144 -2.05661
-1.20601 2.36127 0.494989
-2.54922 -1.90435 -0.688062
-0.956555 2.50161 0.397503
-2.57651 0.0294216 -0.982042
-2.53785 1.33863 -0.948577
-1.70851 2.66717 -0.336831
-2.58434 -1.47804 -0.870753
-2.14342 2.1576 -0.613055
-1.91133 2.23089 -0.600919
-1.88251 1.57626 0.177938
-1.44054 2.62176 -0.185981
-1.98155 1.21055 0.481698
-2.53628 0.829797 -0.900893
-2.22135 0.88014 -1.15181
-2.7474 -1.01424 -1.54364
-1.20881 3.33274 -0.451222
-1.31338 2.785 -0.479497
-1.08103 2.04184 0.784489
-1.04621 2.8423 -0.078671
-2.50779 -0.652267 -1.37522
-2.40867 -1.81476 -0.359899
-2.56964 1.43224 -1.04064
-2.12721 2.5934 -0.864768
-2.33969 1.66476 -1.41387
-2.33269 -1.66442 -0.340299
-2.05506 2.20664 -0.524052
-1.96191 -0.65346 0.102894
-3.00882 0.5059 -2.23411
-2.20855 2.82114 -1.43998
-2.55335 -1.59912 -0.646372
-2.72176 0.203034 -1.71124
-1.60676 2.24658 0.12464
-0.806739 3.23253 0.0185617
-2.44559 0.407948 -1.08374
-1.5692 2.76541 -0.416629
-1.97187 2.71068 -0.795239
-2.38019 -0.86268 -0.929154
-2.2256 2.87832 -1.47587
-1.79519 2.10171 0.0137592
-2.53865 1.45138 -1.75021
-2.1047 2.73639 -0.977476
-2.42503 0.469211 -1.73578
-1.48346 3.14824 -0.820454
-0.765034 4.01874 -0.173915
-2.56678 -1.67736 -0.767117
-2.87177 0.414704 -1.88098
-2.20989 1.08228 -1.07748
-2.36948 0.678393 -0.322128
-2.02768 1.51075 -1.20637
-2.50775 -1.17312 -0.830078
-1.69825 1.91719 0.135866
-2.26946 2.84314 -1.46704
-1.75836 1.78835 0.289376
-2.0242 -1.0541 -0.130314
-2.43303 -1.35937 -0.508137
-1.70144 2.20152 -0.318424
-2.15105 0.429932 -0.315149
-1.85674 -0.580303 0.149897
-2.23717 0.626002 0.164366
-0.934314 2.09639 0.734541
-2.21418 -1.14376 -0.595262
-1.53052 1.76858 0.366051
-2.0928 -0.446909 -0.4896
-1.63857 2.06373 0.19248
-2.45411 0.244669 -0.501406
-2.54451 2.48412 -1.57887
-1.49359 1.91747 0.496443
-2.89371 -0.672047 -2.16513
-2.52044 -0.309066 -0.275692
-1.81671 -0.894172 -0.115202
-2.47842 -1.17123 -1.06126
-2.46753 -0.533424 -1.44797
-2.26532 0.88031 0.20836
-2.31145 -0.589372 -0.905752
-1.07113 2.50735 0.129453
-2.32649 -1.21954 -0.77761
-2.20078 2.77935 -1.34627
-1.79613 1.54691 0.397528
-2.20538 1.28002 -0.364091
-2.22829 0.0981586 -1.03924
-2.50046 1.09923 -1.72109
-2.06905 -0.510487 -0.781727
-2.80128 1.70081 -1.80357
-2.59747 -0.0476814 -1.39774
-2.43203 2.40235 -1.40158
-2.19769 0.0561196 -0.646432
-2.35285 0.341552 -0.42651
-1.82605 -0.0958527 -0.176998
-2.16452 -0.230382 -0.278025
-2.45424 1.52635 -1.29912
-2.44157 1.07143 -1.52531
-2.28518 1.33215 -0.783011
-1.63085 1.96732 0.366912
-2.40416 2.32427 -1.47056
-2.55239 -0.0404625 -1.55107
-1.48012 1.74385 0.645885
-2.39069 -0.784894 -1.13842
-2.69069 1.60796 -1.53364
-2.41276 0.969683 -1.19875
-2.709 1.92399 -1.72607
-0.981308 1.98071 0.6938
-2.59253 -1.19567 -0.889414
-1.8427 1.25095 -0.0760593
-2.36837 -1.00036 -1.00826
-2.60014 1.85417 -1.48431
-2.33219 0.932997 -0.926233
-2.17283 2.56809 -0.920918
-2.80304 0.120051 -1.74535
-0.915149 2.34345 0.833203
-2.16527 2.4505 -0.921667
-2.07252 1.84833 -0.754811
-2.79192 0.915281 -1.27098
-1.81224 0.95743 0.24049
-1.71587 1.99874 0.220703
-2.63618 -1.58898 -0.992367
-2.80121 0.940416 -1.32265
-2.45781 0.351581 -1.73853
-2.60386 0.107713 -0.739364
-1.77517 3.04522 -1.06775
-2.50422 1.99656 -1.18863
-2.02895 2.25515 -0.54862
-1.81225 3.20514 -1.03337
-1.7755 0.466565 0.416724
-1.94611 -0.422769 0.102404
-2.20987 -0.227342 -0.917409
-2.80776 0.10004 -2.03776
-2.17181 2.57849 -1.23184
-2.55218 0.815067 -1.5624
-2.54197 -1.49303 -0.980424
-2.09766 0.837711 0.117534
-2.05159 0.585654 0.325094
-1.31312 2.16094 -0.00529279
-2.57609 1.88079 -1.3778
-2.33485 0.769966 -1.30462
-2.65038 1.1393 -0.930424
-2.38102 0.594466 -1.55877
-2.48839 0.184121 -1.32115
-2.379 0.0843893 -0.665064
-2.23413 0.609459 -0.710318
-2.38901 2.44568 -1.31229
-2.58716 -0.306551 -2.01193
-1.96346 3.17552 -1.2343
-2.50944 -1.25821 -0.576671
-2.17507 1.81018 -0.464044
-2.9441 -0.472321 -2.09202
-2.88059 -0.270069 -2.29371
-1.69541 2.07375 0.0949035
-2.78859 0.0390703 -2.13289
-2.36877 2.26878 -1.15601
-2.56927 1.45815 -0.852898
-2.40287 -1.02174 -0.260488
-2.36475 -0.335402 -1.2763
-2.56173 2.53782 -1.72313
-2.20696 1.02069 0.0968008
-2.61236 -0.833688 -1.3344
-1.76784 3.3847 -2.01942
-1.14974 3.65638 -1.63267
-1.78702 3.36789 -1.8547
-2.32067 2.74978 -1.73699
-1.2508 3.88764 -1.56147
-1.9692 3.04555 -1.52736
-1.69032 3.29906 -2.09663
-2.33637 2.75017 -2.23883
-0.146282 3.18265 -2.68311
-1.69282 3.30951 -2.28582
-2.1916 2.91717 -1.60875
-1.63491 3.62374 -1.5198
-0.443057 3.39271 -2.49116
-2.16057 3.10889 -1.73451
-2.10409 3.02646 -2.09144
-1.33475 3.29873 -2.29562
-2.17796 3.09125 -1.69663
-0.298681 3.33322 -2.53212
-1.0183 3.39502 -2.09989
-0.579206 3.48401 -2.3674
-2.43209 2.80298 -1.89985
-0.501479 3.23064 -2.58354
-1.99659 3.09944 -2.38803
-1.62298 3.327 -1.41397
-1.2863 3.32245 -2.0499
-1.06643 3.41399 -2.33589
-1.03411 3.81572 -1.36484
-1.79314 3.32607 -2.14065
-1.08409 2.73238 -3.19724
-1.35183 3.4314 -2.21224
-1.87013 3.22511 -2.27292
-1.23185 3.88218 -1.30553
-1.13427 3.67266 -0.949275
-1.16122 3.69516 -1.66617
-1.36462 3.33598 -1.97367
-1.38504 3.10081 -2.72931
-1.80502 2.96064 -2.77271
-2.13318 2.55756 -3.18964
-0.956385 3.51535 -2.24077
-1.07986 3.53783 -1.84876
-1.13048 3.6129 -1.89131
-0.589066 3.67452 -1.93689
-1.14819 2.93095 -2.96746
-0.486662 3.19093 -2.78045
-0.888414 2.99962 -2.89973
-1.02021 3.29966 -2.38821
-1.21232 2.81731 -3.11117
-2.44995 2.83192 -2.20313
-1.14221 3.28128 -2.44574
-0.574192 3.63473 -2.01691
