ply
format ascii 1.0
comment Created by Open3D
element vertex 400
property double x
property double y
property double z
end_header
-2.21889 -1.2444 -1.23713
-0.182025 -0.687309 -2.79171
-1.70402 -1.34713 -1.49844
-0.105797 -1.4293 -1.44451
-2.43247 -1.1151 -1.78697
-2.39601 -1.38072 -1.71571
-0.832908 -1.71798 -1.22577
-1.61123 -1.12634 -1.85526
-0.62218 -0.994034 -3.15729
0.392596 -0.840471 -3.03249
-2.72684 -1.78799 -1.31592
-1.05888 -1.29062 -1.794
0.0551698 -1.05154 -2.03284
-0.389523 -0.817973 -2.69078
-0.52543 -1.00315 -2.40063
-2.97874 -1.72312 -1.01845
-2.37741 -1.53956 -1.2677
0.251832 -1.0649 -2.69803
-1.62608 -1.79258 -1.01787
0.137219 -1.18964 -2.11438
-1.39463 -1.11234 -1.97972
-1.13593 -1.0255 -2.1957
-0.433596 -0.965594 -2.41144
-1.19233 -1.40867 -1.73999
-1.67687 -1.84184 -1.19808
-1.77076 -1.21668 -2.17165
-0.2639 -1.60962 -1.60684
-1.54362 -0.850163 -2.83331
-0.251891 -1.08537 -1.80735
-1.69625 -0.780381 -2.67443
-2.83003 -1.50387 -1.61103
-0.374521 -0.994513 -2.15142
-0.494683 -1.53873 -1.2801
-0.269937 -0.821537 -2.50684
-0.579405 -1.45234 -1.47738
-0.830496 -1.38197 -1.68911
-0.672397 -0.809788 -3.08529
-1.56444 -0.678874 -2.47338
-1.87965 -1.49853 -1.18701
-0.821222 -1.72087 -1.39443
-0.263832 -1.15027 -1.9811
-1.94941 -0.789969 -2.09679
0.262434 -0.787718 -2.47247
-0.557245 -0.865416 -2.14425
-0.28352 -0.65584 -2.55442
-0.92507 -1.77128 -1.08191
-1.6756 -0.802663 -2.31275
-0.415283 -1.01386 -1.74211
-1.80322 -0.705016 -2.87027
-0.609038 -1.07095 -1.75477
0.486968 -0.892371 -2.84546
-0.758204 -1.57261 -1.33677
0.00484451 -1.20322 -2.20336
0.257483 -0.783364 -3.00699
0.436383 -0.844866 -2.42934
-1.28639 -0.886236 -1.94143
-2.15933 -1.08474 -1.6873
-2.88298 -1.48676 -1.69134
-1.24697 -1.47249 -1.43122
-1.06746 -1.61776 -1.54215
0.307385 -1.10526 -2.39948
-2.00406 -0.898155 -1.99488
-0.500279 -1.34227 -1.38924
-2.66879 -1.34555 -1.33449
-2.07319 -0.912287 -2.27931
0.253006 -0.901812 -2.46249
-1.85084 -0.819139 -2.63562
-1.84585 -1.43639 -1.8922
-0.118284 -0.884377 -2.16191
-1.58416 -0.741073 -2.38629
-1.79545 -1.04063 -2.63172
-1.00639 -1.83468 -1.2762
-2.28647 -1.57878 -1.71263
0.37559 -0.94462 -3.01409
-0.247921 -0.805828 -2.61594
-2.26067 -1.13477 -1.78657
-2.24189 -1.57435 -1.21323
-2.48009 -1.64855 -0.936006
-1.10902 -0.915044 -2.42206
-1.90739 -0.874943 -2.29967
-1.43286 -0.926273 -2.7673
-1.63726 -0.729549 -2.79398
-0.829615 -0.611331 -2.53547
-1.59701 -1.0979 -2.39749
-0.138374 -0.693028 -2.70693
-1.45304 -1.58329 -1.25368
-1.92894 -1.39142 -1.62023
-0.838306 -0.777113 -2.51335
-1.90393 -1.56783 -1.47252
-2.50085 -1.38904 -1.66003
-0.789353 -0.539377 -2.74248
-0.6025 -0.970124 -2.3368
-0.520409 -1.51725 -1.37768
-0.254595 -1.05334 -2.50589
-1.38122 -0.879483 -2.77231
-1.95756 -1.53625 -1.413
-0.659416 -0.908671 -2.7388
-2.69098 -1.58664 -1.41407
-2.22738 -0.860782 -2.41413
-0.548283 -0.727804 -2.49713
-0.909361 -0.566555 -2.35063
-1.1229 -0.951219 -2.65835
-0.282645 -1.37647 -1.72872
-2.26782 -1.49466 -1.65178
-2.55139 -1.94791 -1.38034
-1.23144 -0.804163 -2.30533
-0.410218 -0.85438 -2.74329
-1.98035 -1.03346 -2.10815
-1.51687 -0.823674 -2.09559
-0.19319 -1.32541 -1.78456
-1.60785 -1.76063 -1.34351
-0.264728 -0.762715 -2.53476
0.387775 -0.839225 -2.24647
-0.291374 -1.23645 -1.40936
-1.8876 -0.932855 -2.35204
-2.20278 -1.20981 -1.67026
-0.44438 -1.04145 -2.49246
0.113968 -1.04894 -2.3455
-0.141751 -1.51227 -1.24931
-2.20288 -0.881497 -2.19931
-0.804349 -1.43502 -1.44577
-2.76903 -1.68921 -0.961607
-0.356225 -1.14084 -2.21971
-1.87534 -0.672606 -2.9968
-1.43875 -0.833858 -3.04652
-0.624307 -1.82273 -1.07881
-0.671158 -1.1557 -1.71384
-3.00694 -1.70926 -1.25089
-0.955048 -0.64245 -2.8508
-2.77345 -1.5557 -0.84373
-1.21927 -0.680648 -2.93011
-1.74568 -0.819866 -2.92138
-1.88003 -1.28828 -1.525
-0.9307 -1.60577 -1.22249
-2.00609 -1.54983 -1.19368
-0.941714 -1.09315 -1.80703
-1.61665 -1.65261 -1.52055
-0.304839 -0.85634 -2.46752
-1.94186 -1.82625 -1.20927
0.279149 -1.06813 -2.45354
0.121102 -1.28539 -1.80277
-1.90743 -1.64748 -0.900771
-0.822481 -1.77089 -0.990323
-1.88365 -0.885837 -2.3137
-0.565555 -0.790118 -2.79458
0.266133 -1.11509 -2.01052
0.13707 -0.843376 -2.47503
-0.544302 -1.85238 -1.68351
-0.391148 -0.748986 -2.55889
-2.0875 -0.995406 -2.54195
-3.0267 -1.6361 -0.956756
-1.82083 -1.56985 -1.0936
-1.68433 -1.77289 -1.05629
-1.74951 -1.11341 -2.03724
-0.833583 -1.6059 -1.43393
0.682151 -0.669045 -2.53856
-0.202789 -1.5333 -1.42829
-2.65468 -1.78157 -1.0233
-0.396935 -1.72833 -1.44332
-2.09537 -1.59053 -0.948428
-1.60603 -1.5323 -1.3702
-0.169301 -1.36046 -1.77092
-0.398372 -1.73097 -1.50408
-1.67539 -0.655347 -2.08909
-1.04834 -1.27562 -2.10966
-2.70578 -1.46618 -1.57916
-0.564903 -1.7537 -1.3839
-1.80528 -0.631827 -2.96649
-1.48829 -1.03884 -1.22662
-0.145442 -1.39479 -1.68845
-2.23692 -1.70722 -1.27108
-2.42287 -1.24742 -1.45525
-1.29393 -1.52176 -1.46606
-1.83462 -1.5378 -1.27314
-1.84746 -0.996627 -2.06571
-1.94678 -1.30559 -1.93281
-1.56462 -1.06339 -2.21343
-0.879162 -0.718748 -2.64912
-0.98896 -1.33007 -1.50901
-0.445806 -1.10831 -2.22475
-1.63529 -1.30733 -2.0349
-0.409306 -1.08159 -1.8517
-0.601909 -1.18466 -1.62667
-0.817364 -0.891073 -2.55312
-1.66211 -0.922557 -2.26037
-0.532234 -0.816463 -2.51223
0.515072 -0.632973 -2.78934
0.346334 -0.997141 -2.76807
-1.47553 -1.66706 -1.08834
0.550972 -0.811722 -2.62341
-2.0085 -1.27011 -1.19936
-2.00988 -1.8442 -1.16824
-0.759833 -1.72701 -0.972834
-1.94215 -0.895234 -2.33149
-1.51793 -0.722987 -2.60439
-1.44616 -0.808139 -2.42592
-2.2663 -0.983634 -1.97971
-1.17701 -1.02682 -1.82106
0.149528 -0.919193 -2.67885
-1.71043 -1.76294 -1.10528
-1.89867 -1.62845 -1.13118
-1.39878 -1.04611 -2.29431
-1.42022 -0.699738 -2.35116
-0.312903 -1.17972 -1.98029
-1.68793 -0.990054 -2.5201
-2.28597 -0.884104 -2.27974
-1.6225 -0.612597 -2.60056
-0.497152 -1.32806 -1.8162
-1.1258 -1.17954 -1.43596
-2.52435 -1.26897 -2.06394
-0.454919 -1.50588 -1.58445
-1.68779 -0.758086 -2.76109
-0.325114 -0.891733 -2.6538
0.382146 -0.947766 -2.29869
-0.892173 -1.52464 -0.999791
-2.40463 -1.09093 -1.50765
-0.236357 -1.0724 -2.20333
-1.82107 -0.624152 -2.8809
-0.803872 -0.84743 -3.04768
-1.84277 -1.57976 -1.23311
-0.975165 -0.624072 -2.60714
-0.67494 -0.808159 -2.18798
-0.17321 -1.56723 -1.51755
-2.04447 -1.23606 -2.33897
-0.71162 -1.14088 -2.36134
-1.11429 -1.3959 -1.79231
-2.46174 -1.19272 -1.67798
-2.30722 -1.00395 -1.80149
-0.192047 -0.847351 -2.24895
-0.58154 -1.31102 -1.87127
-1.43486 -0.929348 -2.26936
-1.61331 -1.02808 -2.27162
-0.161875 -1.50607 -1.62652
-2.50297 -1.29918 -1.42967
-1.45915 -0.896054 -2.09791
-1.95438 -0.627067 -1.90943
-1.67407 -0.509807 -2.62764
-2.16179 -1.66716 -1.2537
-0.88884 -1.59821 -1.49192
-0.846077 -1.23247 -1.60378
-1.24527 -0.925248 -2.03068
-0.252012 -1.00221 -2.69938
-1.83738 -0.779949 -3.10941
-1.90333 -1.17049 -1.84236
-0.434373 -0.745627 -2.93018
-1.56526 -1.11297 -2.01858
-1.12914 -1.2427 -1.79263
-0.0863096 -0.859022 -1.88604
-2.57644 -1.65114 -1.13731
-1.32293 -0.796883 -2.31708
-1.99788 -1.68111 -1.02093
-2.04221 -0.688394 -2.6855
-0.526725 -1.10997 -1.2756
-0.939843 -1.16392 -2.35931
-1.68501 -0.858079 -2.80026
-0.346795 -1.43838 -1.75965
-1.97398 -0.807651 -2.3351
0.134782 -1.2264 -1.91802
0.23032 -1.0325 -2.67871
-1.93988 -1.53439 -1.66165
-2.82684 -1.59593 -1.28212
-1.17285 -0.970084 -2.89077
-2.70405 -1.62277 -1.05077
-0.924696 -1.34955 -1.98149
-0.0685846 -0.978122 -2.73779
-1.46019 -0.633105 -2.70335
-1.88237 -1.10857 -2.03694
-1.16726 -0.730945 -2.84136
-1.70239 -0.97209 -2.30464
-2.16034 -0.84465 -2.19436
-0.674173 -1.67858 -1.1417
-1.31553 -1.34497 -1.23224
-0.707607 -1.10972 -2.14291
-1.56245 -0.688452 -2.94228
-0.128977 -1.38942 -2.02114
-1.78353 -0.616254 -2.79332
-1.62813 -1.83926 -1.0494
-1.91658 -0.641784 -2.67885
0.0215716 -0.849117 -2.81698
-0.787517 -1.39385 -1.14993
-0.927047 -0.821094 -2.06931
-2.49566 -1.45723 -1.55202
-1.85206 -0.915188 -2.7083
-1.82132 -1.24597 -2.0064
-0.281413 -0.821162 -2.7675
-2.48204 -1.70273 -1.14166
-1.66876 -1.40985 -1.0124
-1.24325 -1.37374 -1.19728
-1.56943 -0.901343 -2.68992
-0.21703 -0.873578 -3.07895
-1.64421 -0.737743 -2.83829
0.0742807 -0.652272 -2.88147
-2.2604 -1.06769 -1.99417
-1.29246 -1.30106 -1.90733
-0.340414 -0.706384 -2.85586
-2.64414 -1.47429 -1.44929
-0.295236 -0.778274 -2.53975
-1.46675 -0.866754 -3.0747
-1.06139 -1.80285 -1.54172
-2.52146 -1.61245 -0.957772
-0.439314 -0.763565 -2.52473
-1.53522 -1.30062 -1.25173
-0.0960998 -1.09028 -2.39657
-2.23825 -1.74705 -1.02931
-0.128121 -0.919416 -2.54243
-0.987154 -1.0603 -2.18524
-2.9128 -1.75289 -1.08139
-1.56287 -1.56519 -1.54597
-0.284986 -1.0604 -2.21461
-2.25215 -1.61048 -1.46742
-0.0492177 -1.17285 -2.60496
-2.08765 -0.792781 -1.82773
-1.52401 -0.977853 -2.00275
-1.07831 -1.81209 -1.22661
-2.0552 -1.2099 -1.75252
-1.72972 -1.2771 -1.84725
-2.08509 -0.722598 -2.50083
-0.251675 -1.44107 -1.99988
0.112546 -1.19904 -1.80797
-2.15402 -0.815655 -2.97219
-2.85297 -1.45582 -1.16213
-2.84262 -1.83259 -1.43079
-0.204663 -0.947747 -2.56218
-1.26502 -1.79608 -1.16351
-0.865731 -1.48453 -1.43158
-1.51163 -1.10632 -1.78189
0.146152 -0.741494 -2.63993
-0.187919 -0.761694 -3.02299
0.405814 -0.951251 -2.44325
-1.49996 -1.36909 -1.89411
-1.81479 -1.14137 -1.8954
-1.5536 -0.667865 -2.85068
-0.257255 -1.38645 -2.01309
-1.59313 -0.74572 -2.80146
-0.175774 -1.37566 -1.40219
-1.13956 -0.604976 -2.69163
-0.986288 -0.994986 -2.02411
-0.534752 -0.729829 -2.52661
-0.454513 -0.621899 -2.30288
0.451446 -0.91631 -3.03129
-0.583755 -1.44737 -1.71339
-0.848815 -1.81068 -1.48425
-2.577 -1.6973 -1.64464
-2.48387 -1.33653 -1.91445
-2.17904 -1.38417 -1.74191
-0.729774 -1.45378 -1.68022
-0.503577 -1.27174 -2.06866
-1.44245 -1.01212 -2.32415
-1.05829 -1.09833 -2.57246
-1.60207 -0.959546 -1.89586
-1.24788 -0.954633 -2.09788
0.300045 -0.808345 -2.79112
-1.7662 -1.09473 -2.18324
-2.05802 -1.61686 -1.02758
-2.05382 -1.05352 -2.03457
-2.1322 -1.68593 -1.319
-0.295482 -1.55176 -1.28498
-2.59848 -1.27509 -1.43578
-0.0866314 -1.0775 -2.4145
-1.17037 -1.45058 -1.13344
-1.04969 -1.63645 -1.38206
-0.454333 -1.33404 -1.18853
-1.55203 -1.14975 -1.77318
0.113777 -1.13702 -1.94339
-0.140349 -1.40426 -1.30053
-1.44632 -1.30029 -1.60977
-0.126998 -1.38131 -2.10902
-2.66961 -1.44234 -1.5145
0.0282467 -1.08965 -1.88619
-0.854468 -0.748402 -2.16798
-1.57639 -1.85122 -1.08275
-2.61387 -1.47814 -1.31749
-1.0796 -0.740834 -2.34414
-2.36605 -1.03939 -2.01191
-2.98813 -1.6425 -0.96707
-0.344928 -0.847483 -3.08444
-0.829478 -0.787109 -2.171
-1.97399 -0.84683 -2.15772
-0.694293 -1.33387 -2.00845
-2.38048 -1.40276 -1.58275
-0.633378 -1.07187 -2.70989
-2.4715 -1.58141 -1.48763
-1.84047 -1.51444 -0.986614
-0.208983 -0.580172 -2.69091
-1.70028 -1.24041 -1.99894
-0.0594405 -1.20746 -2.43301
-0.322685 -0.677412 -2.44991
-2.43983 -1.57641 -1.18401
0.04794 -0.888029 -2.29602
-1.91245 -1.43405 -1.48889
-2.40982 -1.22481 -1.84852
0.19705 -0.789477 -2.62341
-0.360339 -1.25964 -1.7944
-0.760333 -0.796042 -2.8992
-2.50454 -1.8663 -1.12247
-0.66256 -1.38203 -1.85716
-1.76283 -1.14189 -1.5028
-1.32424 -0.962639 -2.69019
0.265411 -0.811993 -2.44062
-0.101818 -1.20301 -1.54744
