ply
format ascii 1.0
comment Created by Open3D
element vertex 400
property double x
property double y
property double z
end_header
-2.75882 0.378796 -0.922254
-2.44798 -0.768804 1.38519
-2.63333 0.233351 -0.453929
-1.85801 0.600089 0.918679
-3.06092 -0.257704 -0.993044
-3.05541 -0.10901 -1.03681
-2.12676 0.705185 0.136245
-2.71644 -0.141093 -0.242553
-2.85451 -1.13906 0.984433
-2.33336 -0.800887 1.93533
-3.09085 0.30315 -1.51654
-2.42975 0.0264107 0.167001
-1.98017 -0.0347349 1.26747
-2.48658 -0.738129 1.11045
-2.41161 -0.506692 0.842468
-3.06349 0.512362 -1.78946
-2.88084 0.376403 -1.14083
-2.21041 -0.580586 1.60339
-2.42606 0.777856 -0.619874
-2.00022 -0.0576525 1.3249
-2.66185 -0.230169 -0.028109
-2.62209 -0.408033 0.265877
-2.37044 -0.503593 0.938567
-2.48383 0.0774728 0.00583281
-2.53344 0.60272 -0.64448
-2.93726 -0.463772 -0.350642
-2.02167 0.444257 0.756367
-3.13038 -1.0365 0.145137
-2.02541 0.120363 0.935973
-3.11403 -0.945805 -0.0136052
-3.21865 -0.0856561 -1.48792
-2.22437 -0.24999 0.9225
-1.97406 0.689967 0.501667
-2.33347 -0.565897 1.16029
-2.08336 0.455064 0.482414
-2.28223 0.182022 0.317452
-2.85587 -1.06404 1.01235
-2.94694 -0.756024 0.0863759
-2.60393 0.53919 -0.70676
-2.19308 0.542165 0.176535
-2.11234 -0.0397923 0.938788
-2.94434 -0.502559 -0.396689
-2.07032 -0.424086 1.64217
-2.30236 -0.287337 0.807113
-2.36572 -0.605663 1.23194
-2.11312 0.835318 0.0106683
-2.92459 -0.631126 -0.100116
-2.06771 0.140544 0.801054
-3.26859 -1.12325 -0.0177169
-2.17229 0.10371 0.61696
-2.18564 -0.639418 1.93643
-2.12225 0.582692 0.264532
-2.09652 -0.177547 1.21398
-2.37372 -0.823564 1.82064
-1.98013 -0.330467 1.776
-2.57553 -0.203918 0.133042
-2.8973 -0.0937414 -0.748471
-3.27073 -0.186795 -1.52083
-2.38862 0.387407 -0.114193
-2.3599 0.328518 0.0147982
-2.0481 -0.292448 1.57068
-2.93573 -0.39794 -0.49859
-1.99671 0.53673 0.56856
-3.01 0.191494 -1.34727
-3.09471 -0.681215 -0.507245
-2.07755 -0.404121 1.59262
-3.16325 -0.95011 -0.18171
-2.87486 -0.16834 -0.53597
-2.09964 -0.224591 1.18756
-2.91475 -0.682013 0.0221468
-3.14704 -0.915732 -0.212162
-2.24137 0.641269 -0.0436909
-3.02788 -0.0411843 -0.993894
-2.32843 -0.794901 1.868
-2.37867 -0.652965 1.21667
-2.99053 -0.205377 -0.837037
-2.79784 0.46321 -1.0407
-2.79799 0.698507 -1.32694
-2.70885 -0.619434 0.380676
-3.02826 -0.663607 -0.337777
-3.04098 -0.965651 0.189349
-3.15298 -1.02441 0.0995352
-2.62893 -0.670078 0.778772
-2.94505 -0.662261 -0.113141
-2.37795 -0.699979 1.39085
-2.4264 0.548908 -0.357162
-2.79816 0.0819075 -0.641202
-2.61769 -0.660177 0.691693
-2.74145 0.262272 -0.699228
-3.08006 -0.0767095 -1.14457
-2.73332 -0.80499 0.92194
-2.41814 -0.463648 0.773172
-2.02339 0.581884 0.500924
-2.33494 -0.546436 1.08789
-3.01934 -0.959518 0.256022
-2.74021 0.308116 -0.745954
-2.6429 -0.823127 0.852423
-3.09009 0.170154 -1.41203
-3.21483 -0.860511 -0.608771
-2.46509 -0.602979 0.955911
-2.57163 -0.532102 0.674428
-2.83219 -0.826142 0.415148
-2.0434 0.25454 0.8151
-2.98433 0.00697837 -0.963702
-3.05268 0.30346 -1.39633
-2.71042 -0.539895 0.289425
-2.52394 -0.784682 1.09262
-2.99066 -0.473811 -0.492681
-2.75135 -0.397415 -0.0149852
-2.02007 0.208857 0.920247
-2.5555 0.461149 -0.531091
-2.34468 -0.589213 1.19642
-1.91046 -0.185834 1.68504
-1.89564 0.538762 0.788612
-3.04903 -0.697766 -0.325836
-2.92658 -0.0581091 -0.823899
-2.41741 -0.572489 0.920841
-2.09522 -0.313291 1.38912
-1.80603 0.808622 0.832352
-3.10859 -0.650656 -0.638916
-2.17426 0.439263 0.282663
-2.94407 0.615241 -1.5961
-2.25811 -0.290677 0.905593
-3.3752 -1.22938 -0.023797
-3.20591 -1.16664 0.322461
-1.98404 0.921015 0.270865
-2.19309 0.146982 0.529322
-3.17445 0.276779 -1.76726
-2.87055 -0.921337 0.767073
-2.87691 0.697399 -1.58783
-3.04408 -1.0247 0.548946
-3.27249 -1.14629 0.00549613
-2.72453 0.167697 -0.583983
-2.15913 0.668244 0.0816739
-2.6733 0.519775 -0.830995
-2.36078 0.00360185 0.333342
-2.62556 0.269707 -0.472093
-2.33146 -0.537108 1.10578
-2.66963 0.551132 -0.863338
-2.07989 -0.358706 1.56594
-1.88905 0.268393 1.22905
-2.50613 0.833091 -0.833579
-2.02608 0.945659 0.0851286
-3.02529 -0.668888 -0.316158
-2.63108 -0.844677 1.00467
-1.89073 0.0616263 1.44573
-2.12974 -0.452376 1.50771
-2.21114 0.356415 0.449265
-2.419 -0.629958 1.09958
-3.23214 -0.909272 -0.484742
-3.04301 0.534761 -1.82613
-2.54111 0.650228 -0.696202
-2.47084 0.730461 -0.655129
-2.85998 -0.345012 -0.325122
-2.20191 0.47744 0.20501
-1.92598 -0.363582 2.1037
-1.90925 0.618266 0.800646
-2.93001 0.600272 -1.50647
-2.02899 0.602868 0.575158
-2.61535 0.750244 -0.967266
-2.54755 0.403848 -0.450662
-2.00924 0.237544 0.931364
-2.05538 0.542758 0.583828
-2.80739 -0.449181 -0.104711
-2.55665 -0.285282 0.237958
-3.14699 -0.0293298 -1.3676
-2.07902 0.621738 0.400608
-3.32951 -1.18558 0.0498119
-2.38565 0.490291 -0.219249
-1.97008 0.335331 0.931131
-2.83258 0.428733 -1.0667
-2.94001 0.111783 -1.07269
-2.43075 0.352885 -0.163985
-2.62124 0.466745 -0.665155
-2.90746 -0.410513 -0.370363
-2.92831 -0.247351 -0.576491
-2.84407 -0.488039 -0.112359
-2.71094 -0.773628 0.722882
-2.28018 0.32751 0.1653
-2.29983 -0.317645 0.837685
-2.81977 -0.295413 -0.288293
-2.11794 0.0452077 0.805688
-2.12587 0.250282 0.565412
-2.62685 -0.691492 0.672728
-2.90219 -0.566446 -0.140466
-2.46434 -0.613995 0.936615
-2.13709 -0.598374 2.04563
-2.20367 -0.617159 1.73703
-2.37355 0.718459 -0.434491
-2.03267 -0.457491 1.95386
-2.64887 0.465963 -0.747607
-2.68694 0.582712 -0.935538
-1.98531 0.968576 0.151316
-3.06028 -0.698022 -0.368752
-2.99516 -0.850841 0.149579
-2.87259 -0.683641 0.130639
-3.05282 -0.434377 -0.769117
-2.47931 -0.0533234 0.156847
-2.23235 -0.612699 1.54928
-2.50464 0.678434 -0.664376
-2.60029 0.60925 -0.77521
-2.79816 -0.538663 0.0541572
-2.8197 -0.620382 0.174808
-2.13785 -0.0439392 0.886031
-3.04029 -0.799915 -0.126165
-3.17894 -0.750939 -0.702169
-3.03822 -0.875366 0.0968239
-2.17083 0.108246 0.649066
-2.30476 0.357326 0.0830859
-3.24073 -0.515444 -1.06621
-2.07829 0.388121 0.599251
-3.15687 -1.01215 0.0302517
-2.43548 -0.697803 1.12453
-1.95017 -0.21282 1.66135
-2.03815 0.880422 0.0993416
-2.92883 0.0214689 -1.00997
-2.18892 -0.26095 1.03068
-3.28261 -1.13531 0.00314585
-2.89325 -1.0675 0.863755
-2.61195 0.51106 -0.69276
-2.73966 -0.748939 0.670831
-2.37857 -0.349583 0.737037
-1.94003 0.548 0.83679
-3.14213 -0.673379 -0.565039
-2.49172 -0.489044 0.623446
-2.46568 0.0352236 0.0858136
-3.04036 -0.135999 -1.05771
-2.99686 -0.266584 -0.845944
-2.17226 -0.322977 1.15451
-2.23155 0.0334914 0.588731
-2.79817 -0.532122 0.0588183
-2.89137 -0.555329 -0.130599
-1.96979 0.42413 0.87961
-2.97195 0.129859 -1.16411
-2.72989 -0.380288 0.0119117
-2.84061 -0.364753 -0.397673
-3.07311 -0.913599 0.0976608
-2.7851 0.452474 -0.992006
-2.25129 0.407499 0.168439
-2.24003 0.240067 0.335017
-2.59722 -0.278129 0.173211
-2.42608 -0.71857 1.15825
-3.42725 -1.2948 0.0108003
-2.8556 -0.173616 -0.514116
-2.64877 -0.914764 1.18875
-2.76269 -0.294987 -0.167987
-2.4602 0.010475 0.122035
-1.95899 0.0382293 1.16637
-2.92993 0.483767 -1.37527
-2.7603 -0.566299 0.215541
-2.60578 0.707632 -0.898878
-3.26006 -1.06138 -0.304255
-1.93621 0.601008 0.592828
-2.60479 -0.520785 0.418525
-3.17745 -1.0411 0.00437163
-2.09341 0.222976 0.745756
-3.06709 -0.724395 -0.370915
-1.92228 0.142041 1.27633
-2.2063 -0.576131 1.58744
-2.83457 0.0624047 -0.687205
-3.09465 0.267357 -1.56423
-2.97809 -1.02378 0.43222
-2.94634 0.531892 -1.50025
-2.44715 -0.129764 0.296956
-2.36115 -0.711554 1.34358
-3.02371 -0.913298 0.271492
-2.92232 -0.370938 -0.441018
-2.96079 -0.963379 0.534261
-2.94497 -0.609288 -0.182958
-3.08386 -0.641859 -0.589759
-2.01412 0.815132 0.275362
-2.32922 0.557146 -0.166654
-2.39057 -0.28483 0.59258
-3.20929 -1.10664 0.242062
-2.10165 0.00846546 1.00673
-3.21513 -1.06346 0.00949337
-2.44381 0.752288 -0.631432
-3.20427 -1.01963 -0.167894
-2.36137 -0.7562 1.50157
-2.03873 0.729765 0.258195
-2.45059 -0.276158 0.490662
-3.04275 0.0491688 -1.17568
-3.20555 -1.0032 -0.197089
-2.89334 -0.307208 -0.435128
-2.47564 -0.779648 1.22729
-2.89375 0.508965 -1.305
-2.41854 0.731663 -0.528537
-2.28094 0.606673 -0.120257
-3.0659 -0.92759 0.0571398
-2.62325 -0.994965 1.37092
-3.18127 -1.05871 0.105057
-2.38436 -0.774345 1.66453
-3.06889 -0.425736 -0.781806
-2.59465 -0.119127 -0.0159466
-2.56146 -0.84297 1.26175
-3.06787 0.118955 -1.33446
-2.36205 -0.598594 1.16484
-3.2336 -1.19549 0.292023
-2.37612 0.363017 -0.0349733
-2.82286 0.662431 -1.34899
-2.4249 -0.60973 1.04205
-2.44322 0.498781 -0.336849
-2.2146 -0.406749 1.19382
-2.73222 0.668793 -1.1268
-2.28709 -0.563999 1.25788
-2.54495 -0.373092 0.378428
-3.06726 0.477309 -1.72273
-2.60188 0.239682 -0.393818
-2.2155 -0.28346 0.99338
-2.91311 0.215799 -1.01537
-2.29958 -0.570537 1.26017
-2.88387 -0.284697 -0.582347
-2.72506 -0.290933 -0.0912335
-2.25142 0.671145 -0.110265
-2.8934 -0.107596 -0.676526
-2.78452 -0.129699 -0.393889
-3.18425 -0.918421 -0.409991
-2.15276 0.0093089 0.875349
-1.88023 0.235892 1.2413
-3.46989 -1.30441 -0.363786
-3.03204 0.339174 -1.57822
-3.19754 0.173408 -1.61276
-2.33358 -0.594914 1.18424
-2.31209 0.69573 -0.28116
-2.20303 0.451223 0.211763
-2.63489 -0.055467 -0.163367
-2.20791 -0.591347 1.60211
-2.58543 -0.934881 1.43242
-2.0105 -0.332924 1.7187
-2.69832 -0.127097 -0.217457
-2.83306 -0.214106 -0.417656
-3.15055 -1.0417 0.224063
-2.15282 -0.0187327 0.886277
-3.13726 -1.01989 0.13543
-1.86133 0.60802 0.85805
-2.86845 -0.837718 0.565912
-2.46958 -0.225828 0.369382
-2.47357 -0.625304 0.975076
-2.32039 -0.424625 1.02703
-2.31018 -0.77957 1.9615
-2.18255 0.217153 0.520423
-2.25452 0.466122 0.142902
-3.14954 -0.00795886 -1.29753
-3.17068 -0.33934 -1.07171
-2.96717 -0.087391 -0.838011
-2.23791 0.222251 0.383051
-2.27419 -0.152701 0.705269
-2.83143 -0.576477 0.0350425
-2.75961 -0.738822 0.389348
-2.71458 -0.204434 -0.174494
-2.63016 -0.339233 0.174597
-2.22593 -0.664786 1.76798
-2.93003 -0.491343 -0.305183
-2.63348 0.683416 -0.928204
-2.99394 -0.416078 -0.579668
-2.79995 0.395955 -0.960395
-1.89147 0.739871 0.683951
-3.01091 0.0904339 -1.2473
-2.21752 -0.422891 1.21053
-2.22431 0.691847 -0.0938232
-2.28637 0.49406 -0.00337007
-1.8911 0.745031 0.577311
-2.65486 -0.0469126 -0.213553
-1.92787 0.0872807 1.28249
-1.80863 0.727026 0.866986
-2.54734 0.154214 -0.199116
-2.13695 -0.0793218 1.02673
-3.10096 0.0386581 -1.33924
-1.93327 0.108617 1.20397
-2.45696 -0.36115 0.60165
-2.43358 0.729639 -0.584451
-3.00031 0.258899 -1.3304
-2.65302 -0.552297 0.454663
-3.11667 -0.480115 -0.871125
-3.03296 0.538562 -1.78853
-2.68984 -1.01857 1.27391
-2.44716 -0.358039 0.609091
-2.98917 -0.554616 -0.422576
-2.34531 -0.119245 0.507195
-2.99628 0.0325801 -1.05133
-2.61505 -0.795283 0.798887
-3.02133 0.146684 -1.19812
-2.50084 0.74447 -0.71485
-2.40973 -0.688997 1.37806
-2.83087 -0.28009 -0.32952
-2.22744 -0.410372 1.20086
-2.32956 -0.528138 1.15768
-2.87863 0.453081 -1.22232
-2.08586 -0.310827 1.36639
-2.73993 0.223225 -0.662355
-3.09444 -0.282911 -0.986901
-2.17739 -0.564351 1.62483
-2.09032 0.144843 0.787003
-2.78764 -0.950769 0.871681
-2.91096 0.548606 -1.37964
-2.27167 0.045058 0.493868
-2.64369 0.184805 -0.441735
-2.94801 -0.884108 0.246232
-2.05451 -0.393732 1.62793
-1.86344 0.437635 0.993985
