ply
format ascii 1.0
comment Created by Open3D
element vertex 200
property double x
property double y
property double z
end_header
-0.325408 1.09854 2.26198
0.9151 1.34743 1.91703
-2.08867 -0.38506 2.49885
1.02917 1.45487 1.74039
0.00814036 1.41725 1.74226
1.39848 1.34176 2.08884
-1.6045 0.320723 2.77112
-1.67278 0.583121 1.98402
-1.74005 0.962343 1.20758
-1.2811 0.683988 2.53201
-1.09934 0.956189 2.18445
-1.15331 0.224236 3.49012
-0.708065 0.775702 2.7671
1.37282 0.853924 2.87618
0.604922 1.36068 1.85645
-0.700552 1.10501 2.15111
0.149953 0.991133 2.50789
-1.98172 0.294733 1.2493
1.78124 1.47199 2.13973
0.535494 1.46473 1.67112
-0.864979 1.02559 2.21884
-1.77818 0.395822 2.07025
-0.249658 0.537436 3.24921
-1.77769 0.224086 2.51377
1.4158 1.88992 1.1125
-1.65633 0.545165 2.11747
-1.55974 0.790544 1.85005
-1.75955 -0.194735 3.35394
-1.51231 0.744497 2.03628
0.219368 0.658202 3.06329
1.66299 2.19077 0.814856
1.16112 0.914756 2.73327
-0.516578 0.40243 3.42725
-1.72839 0.774279 1.46086
-1.87042 0.672678 1.13872
0.850435 1.1817 2.21512
1.64322 2.02883 1.00685
-1.89904 0.165663 2.14335
1.32819 1.32651 2.08282
-1.64412 0.817369 1.61312
-1.71318 0.249568 2.65779
1.84549 1.92012 1.32217
-1.87584 0.245147 2.03621
-1.64585 0.884515 1.5091
1.58274 1.32919 2.23216
-1.98213 0.0967054 1.83408
-1.44545 0.272792 3.14347
-0.0172231 0.971446 2.53374
0.783748 1.78117 1.18865
0.246393 0.779854 2.87602
-2.00462 -0.190398 2.54212
-1.46819 0.332427 2.99756
-0.358734 0.388253 3.45177
0.892245 1.71833 1.27985
0.787863 1.24028 2.09688
-1.32337 0.718 2.40609
-1.14416 0.466795 3.10159
1.47896 1.51409 1.79971
-0.703259 1.0882 2.18009
0.943171 1.39922 1.82594
0.98767 1.76011 1.22423
1.20928 0.742119 2.97294
-1.7962 0.567315 1.59906
-1.83739 0.157123 2.45723
-1.67627 0.695377 1.74239
-2.08223 -0.66776 2.926
-0.431267 0.73555 2.9129
-1.96299 -0.129113 2.61043
-1.70899 0.769868 1.52173
-1.40897 0.610097 2.50718
1.14873 1.79811 1.18646
-1.20249 1.21488 1.68386
-1.04523 1.11309 1.95392
-1.32596 0.535506 2.78463
1.26544 0.866662 2.82772
-0.152452 1.24249 2.02603
-0.0128684 1.53678 1.56119
1.76635 1.61822 1.82416
1.05443 0.789513 2.89005
1.77364 1.61173 1.84525
-0.110876 0.688676 3.02052
-0.130399 1.11397 2.25997
-1.30404 0.904057 2.06526
-1.48108 0.317707 3.00667
0.705995 1.21597 2.13191
0.7744 1.4782 1.6613
-1.07854 0.622737 2.85693
1.36212 1.15642 2.41267
1.92739 2.06573 1.16221
-0.140583 1.69142 1.36576
-1.30599 0.948502 1.98324
-1.7993 0.735781 1.30224
-1.58055 1.07974 1.39887
1.79591 1.29201 2.4993
-0.0329242 0.432974 3.38104
1.02925 1.3228 1.98699
-2.03809 -0.180231 2.31253
-1.16214 0.0891457 3.66049
-1.89563 0.25777 1.89362
-1.36628 0.485743 2.83433
-1.81844 -0.929276 3.61871
-1.53757 -0.788251 3.94176
-1.65841 -1.06207 3.79331
-1.05178 -2.10232 3.55605
-1.17022 -1.54087 3.90943
-1.35034 -2.17466 3.25191
-1.15481 -1.9998 3.58198
-1.19435 -1.30437 4.01657
-1.39889 -0.811142 4.03496
-1.22935 -1.21415 4.03703
-1.03073 -1.80146 3.80493
-1.44989 -1.40881 3.82078
-1.02269 -1.97882 3.67663
-1.08352 -1.95144 3.66613
-1.26386 -1.7025 3.75316
-1.5632 -0.755781 3.91931
-1.80346 -1.32421 3.49556
-2.0477 -0.749883 3.0979
-1.60491 -1.71108 3.45472
-1.14142 -2.22089 3.38184
-1.35711 -2.08085 3.34531
-1.68305 -0.68152 3.79059
-1.36842 -1.23077 3.96238
-1.19628 -1.36594 3.98893
-2.0257 -0.81887 3.18713
-1.05667 -1.741 3.83475
-1.49922 -1.79707 3.48787
-0.964923 -1.38554 4.05246
-1.75981 -1.59097 3.36621
-1.6072 -0.894237 3.87752
-1.36666 -0.856381 4.05084
-0.811889 -1.88218 3.82945
-1.57365 -0.231952 3.67457
-0.960638 -2.30538 3.42497
-2.06757 -0.718221 3.01525
-0.671953 -2.02822 3.77349
-0.966246 -2.41011 3.31746
-1.95128 -1.19089 3.31363
-1.37766 -1.56448 3.77507
-0.641582 -2.04099 3.77281
-1.99412 -0.629292 3.19573
-1.33386 -1.08369 4.03032
-0.842788 -2.26527 3.52977
-1.06931 -2.46457 3.18001
-1.71664 -1.65026 3.37362
-0.927855 -1.75981 3.87096
-1.61221 -1.60022 3.54005
-1.95366 -0.717517 3.34395
-1.52454 -0.326329 3.79895
-1.38041 -1.29624 3.92686
-1.63033 -0.47301 3.77865
-1.53434 -1.73521 3.50822
-1.41887 -0.864468 4.02154
-0.934322 -2.36897 3.38042
-1.67559 -0.567068 3.76734
-0.907137 -1.75361 3.88125
-1.58913 -1.7454 3.44149
-1.80929 -0.744635 3.63025
-1.72595 -0.375282 3.59261
-1.7856 -0.532953 3.5987
-1.61348 -0.820446 3.8758
-1.12786 -1.37216 4.01242
-1.59813 -1.12237 3.83338
-1.41698 -1.04649 3.99396
-1.94865 -0.545418 3.26538
-1.2616 -2.24343 3.25879
-1.10083 -2.27739 3.35503
-1.45376 -0.767307 4.00125
-1.28263 -1.65007 3.77909
-1.7341 -0.340444 3.55163
-1.7146 -0.397926 3.62629
-1.99711 -0.892574 3.27301
-1.8735 -0.55552 3.44882
-1.53666 -0.714901 3.9376
-1.31421 -0.889125 4.07383
-1.81226 -1.41098 3.42751
-1.7685 -1.39422 3.5011
-1.30469 -1.26817 3.98174
-1.64411 -0.496536 3.77453
-1.17399 -1.10065 4.09137
-1.33062 -0.803921 4.06988
-1.69172 -1.56654 3.47491
-1.19357 -2.20071 3.36168
-1.47759 -1.3836 3.814
-1.78529 -1.4207 3.45997
-1.52076 -0.409174 3.85302
-1.13329 -1.20579 4.07422
-1.34583 -1.51148 3.83118
-1.36021 -1.23592 3.96503
-1.97146 -0.953633 3.33249
-1.23187 -1.51999 3.89181
-1.23641 -1.1167 4.0648
-1.52517 -1.74453 3.50922
-1.24737 -2.15933 3.36026
-1.37655 -1.82344 3.57459
-1.69446 -1.4852 3.53345
-2.03617 -0.673514 3.09403
-1.39193 -0.772045 4.0383
-1.1753 -1.10152 4.09073
-1.37865 -1.78754 3.60376
