ply
format ascii 1.0
comment Created by Open3D
element vertex 250
property double x
property double y
property double z
end_header
1.57603 0.276351 -2.50604
2.5061 0.296588 -0.625788
0.536563 0.940257 -2.27841
1.39762 -0.614959 -2.95247
0.737211 0.767271 -2.86743
0.913047 0.3313 -2.46135
2.17463 0.510548 -1.31103
2.92427 -0.623251 -1.32543
2.36725 0.243425 -0.539734
2.82871 -0.888822 -0.385372
0.509382 1.30373 -2.07499
2.22483 -0.720137 -2.05596
0.590377 0.93513 -2.81259
2.96865 -1.96896 -0.689902
0.746518 -0.248128 -2.9706
2.90287 -0.859128 -2.02113
2.71375 -1.85112 -2.22078
1.1061 0.162384 -2.63212
1.62889 -0.00788579 -1.70718
3.07113 -1.27358 -1.7805
2.41037 -0.582443 -1.32072
3.30893 -0.0521481 -0.910024
1.16716 1.16591 -1.82826
2.23309 0.495489 -0.649636
2.54867 -1.01947 -0.302635
1.83152 0.278305 -1.68022
0.898511 1.12755 -2.2524
2.3986 -0.110606 -1.94954
1.7224 0.0513514 -1.88157
2.54961 -0.408457 0.132266
3.40113 -0.975974 -1.28889
3.49774 -1.34338 -0.969455
2.46369 0.542003 -0.403172
0.300001 0.997067 -2.69741
2.58038 -0.34068 -0.251163
0.593193 1.50832 -1.70324
0.591172 -0.236921 -3.55854
2.89608 -2.0062 -0.732794
1.73834 -0.958516 -2.11833
1.07785 0.277164 -2.77801
1.30498 -0.0026576 -2.74036
3.01711 -1.00601 -0.79605
1.55304 0.639914 -1.59622
0.331756 1.75928 -2.36035
0.271114 0.192736 -3.49895
2.80763 -0.128386 0.0118475
-0.153795 1.677 -2.58285
2.69061 -0.500272 0.192933
1.17104 0.179617 -2.21773
2.18859 -0.485876 -1.86856
3.05831 -0.764205 -0.760201
0.0321727 1.06164 -2.5054
2.69638 -0.842709 -1.19622
2.51021 -1.23697 -0.903262
2.50544 0.360746 -0.827805
2.84431 -0.903263 -0.426865
2.21536 0.444287 -0.605904
1.81318 -0.16219 -1.9653
1.86369 0.153159 -2.2164
0.347501 0.540141 -3.01758
3.31056 -1.26236 -0.427215
2.73387 -1.43681 -0.424159
2.49688 0.0175395 0.291954
2.84465 -1.04054 -0.0812174
0.672455 0.690376 -2.80909
-0.0981691 1.73555 -2.21792
2.24751 -0.601414 -1.92308
3.11924 -0.857716 -1.43394
2.42139 -0.513004 -2.23285
0.0151663 1.72219 -2.15827
2.91462 -0.345834 -1.29037
0.835068 1.63171 -1.50828
1.3408 -0.993192 -3.1378
2.94365 -1.91278 -1.57258
-0.0349237 1.22297 -2.33945
1.21726 -0.27321 -2.80903
2.80244 -0.264796 -0.477017
3.16713 -0.964632 0.0893514
1.47796 0.137656 -2.24191
2.96843 -1.07908 -0.63637
3.03031 -1.20021 -1.14121
0.530014 0.98207 -2.4366
3.02577 -1.86963 -1.63546
2.79224 -0.128105 -0.733664
2.17927 -0.781362 -2.53807
3.24059 -0.887461 -1.52321
1.43572 -0.0916744 -2.78192
3.0862 -1.63324 -0.753304
3.94843 -0.934774 -0.0978135
-0.0879756 1.27033 -2.48745
1.34535 -0.625003 -2.8883
2.03403 0.0878619 -2.10765
1.75917 0.23974 -1.49195
2.35111 0.00114588 -2.11598
0.264512 0.962996 -2.38616
2.48166 -0.335509 -0.475109
3.04335 -1.7861 -1.68375
2.54167 0.0603012 -0.526004
0.503938 1.73724 -1.81672
0.16935 1.25762 -2.16281
2.48612 -1.01437 -0.626467
1.60089 0.675892 -1.58258
0.905539 1.7304 -1.45837
1.80115 0.599876 -1.1076
2.41228 -0.171684 0.392622
0.3985 1.50917 -2.2646
2.28705 -0.278809 -0.195143
0.90497 1.17092 -1.95286
2.65752 -0.205021 -0.450241
1.40314 0.342686 -1.75532
2.87387 -1.60358 -2.00072
2.53874 0.00630179 -0.176019
0.55302 0.0638676 -3.49113
1.00932 0.662427 -1.70271
0.701866 2.03646 -1.84274
0.337218 1.16329 -2.69399
0.789824 0.727073 -2.88024
1.9304 0.269808 -0.928245
0.742916 0.904976 -2.34781
2.615 -0.811235 0.0129309
0.338246 1.43435 -2.46375
3.21942 -1.13836 -1.8226
2.50642 0.520321 -0.641032
2.23211 0.0931613 -1.39462
1.27017 0.601202 -2.30782
1.91571 -0.529314 -2.60483
0.910624 1.36181 -2.31993
2.34223 -1.25275 -2.49785
1.07233 0.106468 -2.61003
2.92562 -1.16874 -1.96797
1.26662 0.724704 -1.95666
1.49801 0.439081 -1.67825
1.23802 1.39421 -1.62077
1.08422 1.00922 -1.70094
2.32904 -0.516374 -2.16794
1.93798 -0.349534 -2.46326
2.25096 -0.0669679 -1.77753
2.83049 0.453036 -0.567381
2.88205 -1.05756 -2.0743
1.07264 0.134881 -2.75589
2.39691 0.0964873 -0.0609749
0.626922 1.01773 -2.66655
2.32942 -0.948933 -2.31454
1.91339 -0.134449 -2.22021
2.52212 -1.26498 -2.37348
2.28777 -0.239983 0.361433
0.225187 0.837724 -2.42734
2.30371 0.698877 -1.21555
0.552237 1.37994 -2.68879
2.52586 -0.978553 -2.21134
1.92237 0.056363 -1.99712
3.02867 -1.06089 -1.41945
1.14115 -0.337897 -2.85057
2.75371 0.0753094 0.38914
3.06293 -0.686719 -1.58456
2.08961 -1.49 -1.01598
1.81289 -0.6249 -2.24254
2.11092 0.972526 -1.00804
2.74609 0.0883868 -0.588221
-0.0428378 1.09653 -2.6659
1.82822 -0.657867 -2.2836
1.3471 -0.0544227 -2.81607
1.25368 0.162739 -1.97975
3.05565 -1.74999 -1.07904
2.651 -0.924259 -1.89699
2.97113 -0.30042 -1.32359
3.32972 -1.5115 -1.16821
1.76683 1.36361 -0.990669
1.01097 1.51523 -1.44946
1.03544 0.838765 -2.28424
1.07897 -0.44442 -3.09734
2.72734 -1.81244 -1.39296
1.72781 -0.348623 -2.55034
0.141244 1.40351 -2.74935
1.96489 0.623579 -1.10251
1.82506 0.94059 -1.01642
2.32244 -0.923215 -0.180106
2.55762 -0.942071 -2.1104
1.74693 0.0237405 -2.36207
2.00299 -0.565237 -1.86528
1.56621 -0.0350358 -2.61057
1.27365 0.141963 -2.50044
1.26673 0.475434 -1.94483
1.69633 0.389809 -1.88674
2.73736 -1.68484 -1.628
0.908807 0.346973 -3.32743
3.33045 -1.58942 -1.402
0.222537 1.0654 -2.17942
2.40523 -0.738497 -1.10812
0.640215 -0.258194 -3.29622
0.762398 -0.387998 -3.41124
2.65474 -0.29277 -0.533957
1.01699 -0.427678 -3.19138
2.60471 -1.55775 -1.51962
2.19675 -0.78614 -1.65235
0.465214 1.18696 -1.86996
0.924969 0.678053 -2.64051
2.89407 -1.70166 -2.10874
2.03179 0.23404 -0.997603
0.492334 0.588937 -2.76968
3.12208 -2.40186 -1.73515
3.11666 -2.45274 -1.04848
3.1237 -2.37655 -1.5904
2.76521 -2.28343 -1.75368
3.62474 -1.88551 -1.27691
2.95704 -2.18288 -1.43156
2.87174 -2.72195 -1.6341
2.52343 -2.88378 -1.9934
1.81229 -3.45463 -1.19984
2.94678 -2.56853 -1.89321
2.94932 -2.11399 -1.64355
3.53429 -1.85087 -1.42298
2.28056 -3.12803 -1.28737
3.16998 -2.01308 -1.80063
2.79038 -2.67402 -1.83591
2.59837 -3.02556 -1.53756
3.20829 -1.8954 -1.82331
2.10954 -3.25291 -1.20762
2.56649 -3.01856 -1.20309
2.48272 -2.99654 -1.28361
2.88934 -2.2236 -1.99332
2.04351 -3.36747 -1.2986
2.78156 -2.76402 -2.04396
3.09755 -2.17691 -1.16562
2.63341 -2.94979 -1.30409
2.63108 -2.95654 -1.48847
3.3371 -2.18961 -0.846788
3.03596 -2.49353 -1.82664
1.63656 -3.72965 -2.01112
2.83969 -2.78035 -1.57178
2.97652 -2.4703 -2.00385
3.60857 -1.8924 -1.00937
3.38932 -1.81831 -0.642591
3.17385 -2.41977 -1.10191
2.72012 -2.85142 -1.30708
2.37295 -3.14225 -1.94148
2.46524 -3.001 -2.2365
1.93281 -3.64148 -2.51341
2.72852 -2.85596 -1.38912
2.85165 -2.73646 -1.10604
2.99083 -2.6323 -1.21798
2.75092 -2.81885 -0.937184
2.1408 -3.05577 -2.11221
2.05533 -3.22824 -1.55129
1.92371 -3.48588 -1.73518
2.40959 -3.16905 -1.4248
1.85645 -3.53204 -2.07114
2.85788 -2.38726 -2.23124
2.45731 -3.13145 -1.55388
2.68032 -2.87833 -0.983873
