ply
format ascii 1.0
comment Created by Open3D
element vertex 400
property double x
property double y
property double z
end_header
2.89324 -0.25352 -0.33214
2.38933 1.3944 -0.614227
2.69482 1.01358 -0.854562
3.13918 -0.289002 -0.805172
2.52806 1.39869 -0.799922
2.34256 -0.579159 0.358111
2.53025 1.34352 -0.755919
2.25232 0.745187 -0.0239434
1.98872 1.05596 -0.11688
2.56107 -0.251423 -0.178673
2.31994 0.0281279 0.404828
2.73883 -0.170266 -0.517216
2.18277 1.92683 -0.83514
2.88179 0.599779 -0.679551
2.52228 1.40375 -0.825715
2.6829 1.24841 -0.921886
3.28582 -0.173051 -0.592221
2.90455 -1.02496 -0.330168
2.56136 1.31307 -0.564877
2.16195 1.91306 -0.345701
2.85765 -0.348534 -0.353044
2.22711 0.549954 0.584614
2.84758 0.81597 -0.55219
2.27186 0.79046 0.31234
2.2441 0.524933 -0.207307
2.43643 -0.05907 -0.79761
2.21758 1.61023 -0.502867
2.26803 1.0312 -0.756463
2.01142 0.857405 0.556265
2.22744 1.09963 -0.125559
2.67464 0.214789 -0.418481
3.10319 -0.266685 -1.24116
2.03707 0.631324 0.015094
3.02848 -0.043702 -0.577772
3.04468 -1.16941 -0.222047
2.69667 -0.151307 0.320903
1.8759 1.21549 -0.150962
2.37282 1.36354 -0.194865
2.05396 0.228292 0.100222
2.29698 -0.820135 0.267695
2.30064 0.626271 0.418861
2.5699 0.971551 -0.866109
2.544 1.24468 -0.796098
2.90575 -0.318976 -0.401186
2.9924 -1.38183 0.316038
2.38036 0.0336929 0.141393
2.56997 0.608943 -0.484217
2.81766 1.06567 -0.807447
2.54187 -0.346502 -0.338982
2.19218 0.118241 0.588181
1.99672 1.34743 -0.222554
2.62871 0.51235 -0.44295
2.62334 0.419088 -0.276242
2.85078 -0.262579 -0.538749
3.15275 0.457049 -0.859851
2.88574 0.420393 -1.07171
3.08351 0.155753 -0.886327
2.58805 -0.504186 0.766974
2.64244 -0.66293 -0.53638
2.68172 -0.167278 0.103732
2.9246 -0.965976 0.163904
3.06047 -0.24419 -1.11898
2.60359 0.061902 -0.233118
2.88141 -0.0524262 -0.445736
2.63739 -0.347078 0.151642
2.97015 0.129938 -0.892162
2.25279 0.450611 0.358051
2.7063 -1.26226 -0.21691
2.11884 0.593316 0.180536
3.12248 -0.778984 0.147156
2.64085 0.471254 -0.412556
2.46469 -0.391608 0.656762
2.04811 1.26445 -0.524225
2.15427 1.61158 0.0462696
2.67195 -0.565523 0.348137
2.83542 0.221789 -1.02302
2.21006 -0.0501355 0.849524
2.05973 0.176332 0.680982
2.18186 0.777887 -0.151613
2.119 1.31883 -0.00293971
2.50514 -0.422633 0.341877
2.37571 1.02771 -0.178865
2.9023 -0.517618 -0.434898
2.52477 0.304235 0.347815
2.43756 -0.696966 0.756074
2.33197 0.513056 0.142486
2.47477 1.4913 -0.880921
2.2712 1.67943 -0.343797
1.95855 0.162638 0.935688
2.68438 0.751506 -0.808574
2.56853 0.318979 0.0868388
2.08095 1.81775 -0.715649
1.84925 1.35561 -0.286028
2.89254 -0.711255 0.102605
2.52104 1.49495 -0.664519
1.98031 1.33246 0.163262
2.97545 -0.663831 -0.128741
3.26176 -0.240357 -1.2941
2.8458 -0.352646 0.302894
2.46762 -0.643366 -0.0884959
2.64676 -0.485082 0.618228
2.42778 0.518999 -0.129301
3.07676 -0.681726 0.192754
2.28157 -0.0275522 0.657838
2.85023 -1.21824 0.212233
3.35422 -0.897963 0.119357
2.51717 0.614851 -0.0239985
1.97697 1.12327 0.120919
3.09161 -1.50213 0.0984051
1.91876 1.23983 -0.256325
2.08203 0.977142 -0.238158
2.96548 -1.25332 0.411698
2.36482 -0.299717 0.182273
2.40944 0.633903 -0.750667
2.94772 -1.02596 -0.435276
3.03678 -1.56731 0.526191
2.15949 1.49115 -0.130707
2.51511 -0.525444 0.308966
2.3031 0.371513 0.0193727
2.51368 0.568673 -0.601297
2.14049 1.45079 -0.562444
3.23981 -0.154125 -1.22201
2.8146 -0.47383 -0.19248
2.89663 -0.699605 -0.129385
2.49871 -0.22647 -0.41617
2.31794 0.350043 0.0947531
1.95429 1.02395 -0.150582
2.31787 -0.493405 0.559035
3.15984 -0.147845 -0.999995
2.51254 -0.50626 -0.0696303
2.33553 0.639298 0.262648
1.97332 1.16461 -0.70189
3.15912 -0.67362 0.21282
3.22883 -1.61575 0.500601
2.11283 0.716947 0.103067
2.90107 -0.965833 -0.144033
1.95546 0.143893 0.822163
2.25543 -0.26602 0.54713
3.18016 -0.322903 -0.543923
3.05047 -1.21265 0.410988
2.58203 -1.05452 0.528224
1.91574 0.518716 0.413316
3.01548 -0.925775 -0.342705
2.17456 -0.380282 0.358288
2.88188 -1.60314 0.279466
2.15384 1.76218 -0.403564
2.91447 0.701348 -0.853632
2.11316 1.86135 -0.683881
3.12309 -0.387177 -1.05584
2.49663 -0.288412 0.278958
2.94676 -0.531138 0.236282
2.81329 -0.244739 -0.630929
3.04771 -0.48933 -0.23356
2.06261 0.665052 0.596382
1.88648 1.12113 0.119595
3.21636 -0.0410198 -1.04253
2.64789 0.93021 -0.74171
2.63665 -1.2897 0.506105
2.03328 0.548633 0.581063
2.46466 0.840015 -0.411015
2.92819 0.0703221 -0.649608
2.09095 0.821457 0.857647
2.32749 0.318147 0.216117
2.41502 0.235254 -0.674016
2.88037 -0.846818 -0.365558
2.4614 1.63287 -0.850778
2.45527 0.391411 -1.00521
2.26705 0.00241103 0.947831
3.25501 -0.877876 -0.172326
3.32814 0.189492 -1.11967
2.73406 0.718558 -0.783662
2.9332 -0.641066 0.00954443
2.59533 0.551936 -1.09631
1.8846 0.585636 0.413836
2.83788 0.618479 -1.02421
2.6728 0.793307 -1.12693
2.91799 -0.814917 0.787073
2.38861 -0.404861 0.293919
1.95896 0.180508 0.431678
2.18052 0.158916 0.313036
2.50923 1.72594 -0.671908
2.74705 0.681843 -0.815847
2.64036 1.23383 -0.608001
2.95981 0.740629 -0.755171
3.12496 -1.12008 -0.0746381
2.30685 0.392386 0.315676
2.54579 0.893796 -0.642114
3.11724 -1.17767 0.607343
3.25575 -0.679783 -0.288953
2.1486 1.56922 -0.621971
3.02908 0.333096 -1.09334
2.33875 1.4489 -0.764641
2.09857 -0.098721 0.682239
2.48468 -0.0652536 0.519556
2.99053 0.129804 -0.428806
3.17481 -0.366499 -1.31047
1.76648 0.937959 -0.320251
2.53875 1.21155 -0.826962
2.17496 1.5493 -0.379162
3.03946 -1.72951 0.30382
2.56878 0.555487 0.0484366
2.42179 -0.809981 0.417779
2.69574 -0.493839 0.0908013
2.07341 1.69799 -0.577898
2.91457 -1.35619 0.200511
2.30345 0.658421 0.793731
3.13039 0.121163 -0.490337
3.08996 -0.115559 -1.29481
3.04546 -1.00116 -0.496409
2.5847 0.7589 -0.48867
2.31188 -0.796954 0.565196
2.50496 0.452172 -0.617088
3.45047 0.243109 -1.04658
2.42307 0.956124 -0.871406
2.27408 0.504734 0.617934
3.10963 -0.743786 -0.462366
2.53851 0.501569 -0.556221
2.31771 0.703972 0.195232
2.47695 -0.48021 0.32319
2.63016 1.14466 -1.00682
2.12745 1.03619 0.174409
2.13888 -0.044388 0.793542
2.98667 -0.0637347 -0.733325
2.28964 1.48743 -0.584366
2.76586 -0.9899 -0.56359
3.16882 -0.751059 -0.599889
2.08605 1.06622 -0.025596
2.925 -0.454962 -0.931872
2.90239 -0.596934 0.0170959
3.13788 -0.42983 -0.49942
2.10083 0.214893 0.602683
3.00504 -0.557494 -1.01273
2.01375 1.16231 -0.16929
2.50433 1.3891 -0.893224
2.56029 -0.527578 0.874082
2.83886 0.276676 -0.286834
2.28492 0.474735 0.624755
3.07538 -0.703527 0.00425272
2.92572 -0.42382 -0.54967
2.91693 -1.66937 0.0659977
3.14214 -0.414138 -1.16526
3.11125 -1.00148 -0.0660054
2.81131 0.0927567 -0.465713
3.04069 -0.93365 -0.15635
2.10089 0.86032 -0.31087
3.15835 -0.929621 -0.312661
2.60318 -0.30208 0.13691
2.77517 -0.277359 -0.956589
2.25165 0.03578 -0.30088
2.02282 0.0544787 0.391449
2.94882 0.234415 -1.07582
3.17181 -0.580673 -0.713883
2.44895 0.162608 0.101998
3.10751 -0.670142 -0.509952
3.26336 -0.349135 -0.947695
2.70964 0.105399 0.0986795
2.47944 0.35456 -0.16085
3.08633 -0.0627067 -0.812797
2.52204 1.69509 -0.683791
2.81853 -0.377562 -0.142532
2.88719 0.478101 -0.566089
2.13597 0.340086 0.144656
2.01236 1.41129 -0.552347
2.55968 -0.441052 0.0221676
2.14646 0.966349 -0.533891
3.16756 -1.41296 0.157328
2.98052 0.664633 -0.705847
3.05551 -1.10973 0.502196
2.44065 0.812076 0.519166
2.80778 -0.884708 -0.396448
2.38042 0.0698536 0.0770236
3.06342 -1.1952 0.272129
3.31799 -0.30423 -0.83716
2.99529 -1.91552 0.375567
2.55919 0.649701 -0.810589
3.05078 0.516106 -0.560024
2.65792 -1.01804 0.730243
2.72433 -0.367451 -0.224751
2.27817 -0.100487 0.215223
2.8531 -0.634593 0.0700566
2.0401 0.461479 0.118699
2.00888 0.439571 0.856741
2.25306 1.1437 -0.672078
2.40479 -0.640331 0.714769
2.83077 -0.127127 -0.588367
2.5046 0.0516745 -0.135826
3.26619 -0.336399 -0.358129
2.63703 -0.544814 0.0883264
2.81032 -0.278191 0.048499
2.17649 1.78374 -0.660016
2.3934 0.590768 -0.175752
2.37803 0.985898 -0.104712
2.63567 0.341041 -0.741779
2.61131 0.798395 -0.971345
2.47858 1.44144 -0.337226
2.34456 -0.0125137 0.862996
1.99157 1.44769 -0.0150331
3.00855 -0.461059 -0.906669
2.7733 -0.337527 -0.580807
2.69598 -1.08216 0.422937
2.17347 1.46133 -0.720841
2.41835 0.961201 -0.770489
2.81525 -0.802046 0.621824
2.98176 -0.466669 -0.0607191
2.96746 -1.42562 0.552013
2.71435 -0.224041 -0.458621
2.75982 -0.593927 0.0518431
2.11517 1.76162 -0.679434
2.53251 -0.349427 0.217363
2.77354 -0.198112 -0.0781916
3.08895 -1.26161 0.522779
2.59452 1.10318 -0.75811
2.52645 -0.551161 0.322949
1.83877 -0.0448406 0.552879
2.29214 0.513698 0.340028
2.85016 0.42075 -0.44952
1.86128 0.816515 0.252405
2.94733 -0.552629 -0.945139
3.07503 -1.54665 0.239887
2.98199 -0.358405 -0.703575
2.73674 0.200678 -0.764752
3.02814 -0.466786 -0.836056
2.19546 0.396467 0.193737
3.43755 -0.0288871 -1.20894
2.06958 1.21273 -0.0950869
2.71379 0.637904 -0.518106
2.39633 1.62641 -0.345494
2.19313 0.684595 0.760655
3.01657 -0.560172 -0.336282
2.38756 1.17453 -0.390648
3.08814 0.24634 -0.83764
2.4893 -0.26383 0.4802
3.28832 0.135396 -1.17489
3.04153 -1.28486 -0.135283
1.93348 0.289971 0.587121
2.86235 -0.822737 0.529213
3.04498 -1.48577 0.286398
2.81086 -1.16133 0.313411
2.63805 -0.90047 0.61648
2.43325 1.01294 -0.732024
2.61979 -0.297859 -0.897739
1.97765 1.41914 -0.201901
3.24731 0.701418 -0.837792
2.2206 -0.0432754 0.198505
2.12693 0.268471 -0.213349
2.42583 0.669758 -0.768332
2.50479 0.750278 -0.398292
2.58738 1.65642 -0.63091
2.69538 -0.129247 -0.651147
2.26261 2.10115 -0.656659
2.10106 0.689567 0.833577
2.13631 1.19364 -0.147127
2.80002 -0.373612 0.860158
2.81849 0.658805 -1.04828
2.6049 0.197672 -0.621908
3.09742 -1.25827 0.233571
1.95123 0.436111 0.0907806
2.06516 0.0751765 0.488116
2.21889 0.267943 0.575603
2.27179 0.838095 0.00669497
1.85549 1.00211 0.143766
2.18627 -0.599813 0.607557
3.06588 0.188368 -0.746552
3.08092 -1.12026 0.0567976
2.08268 -0.411923 0.701737
3.29496 -0.362893 -0.711253
2.98374 -1.12195 0.153863
2.75643 0.629426 -0.415334
3.18312 0.26777 -0.78139
2.38734 1.74534 -0.773995
2.14415 -0.0167692 0.638841
2.91254 -0.539416 0.466604
3.09461 -0.282261 -0.757031
2.9088 -0.635499 0.232181
1.99076 0.0879317 0.295052
2.89995 -0.80408 -0.16009
2.54346 0.271055 -0.542795
2.00073 1.27214 -0.580367
2.87087 0.47775 -1.11134
2.59981 0.591626 -0.275564
1.9895 0.638308 0.881208
2.62864 0.361027 -0.181893
2.94555 -0.64699 0.41626
3.34335 -0.103097 -1.13748
2.98671 1.20816 -0.780428
2.54564 1.19298 -0.858522
2.92727 0.649169 -0.814691
2.76934 0.0443032 -0.556357
2.02142 0.0608436 0.621864
2.59116 1.05936 -1.02185
3.07818 -0.626595 -0.440365
3.04757 0.15276 -0.96234
2.7766 0.60501 -0.84114
2.17121 1.50034 -0.903978
2.3991 0.845077 -0.442513
2.09748 1.078 -0.0191089
3.06556 -0.754658 -0.556558
2.62724 0.533578 -0.328872
2.67142 -0.123688 -0.274298
2.60509 -0.197507 -0.707197
