ply
format ascii 1.0
comment Created by Open3D
element vertex 250
property double x
property double y
property double z
end_header
2.53669 2.56794 -0.0155331
0.232491 2.15999 -1.29703
2.01219 0.787842 -1.08514
1.64434 2.40569 -0.569571
2.85562 1.57882 -0.415851
1.72383 1.3735 -0.998659
1.21854 2.24719 -0.910185
0.398759 3.24337 -0.783166
-0.078059 1.87623 -1.52782
-0.603244 2.82768 -0.750817
2.20954 0.652926 -1.04077
0.553535 2.65869 -1.10934
2.84221 1.31584 -0.552057
-0.893056 3.52878 -0.157935
1.48378 1.41541 -1.12745
1.14687 3.79536 -0.234906
-0.0904324 3.50569 -0.856373
1.9765 1.82272 -0.673757
0.441458 1.54883 -1.63949
0.38103 3.78673 -0.527913
-0.0544959 2.43284 -1.33515
0.969268 3.61714 -0.345157
2.28571 1.45577 -0.633175
0.131712 1.68589 -1.65125
-0.945445 2.44956 -0.90033
1.12046 1.98098 -1.08744
2.65211 1.41578 -0.497925
1.61543 3.08987 -0.34682
0.978332 1.92414 -1.19598
-0.769419 2.1759 -0.944993
0.481426 4.01205 -0.290782
0.0394165 4.13095 -0.0982036
0.155616 1.91881 -1.45361
2.48719 0.779627 -0.922673
-0.523473 2.25918 -1.12737
1.89284 0.421679 -1.33494
2.44441 1.81647 -0.450898
-0.965382 3.43437 -0.241589
-0.21063 1.86476 -1.81501
2.41833 1.98398 -0.371397
2.16627 2.2419 -0.371275
-0.308389 3.22491 -0.698802
1.2849 1.57392 -1.16343
3.03103 0.652368 -0.771158
2.46972 1.22257 -0.820114
-0.325292 2.48371 -0.881253
2.68469 -0.00262286 -1.28127
-0.724705 2.41509 -0.732057
1.25412 1.44943 -1.23423
0.570929 2.48942 -1.16383
-0.111801 3.21856 -0.703669
2.01486 0.195524 -1.37613
-0.172135 2.83421 -1.09269
-0.844337 2.55262 -1.148
0.568215 2.30509 -1.14411
-0.580359 2.86195 -0.750961
-0.0118923 1.61841 -1.73029
0.861534 2.07773 -1.19978
2.03208 2.63365 -0.289825
2.35794 1.03136 -0.890907
-0.386367 3.69456 -0.137446
-0.97783 2.89483 -0.59561
-0.666181 1.90036 -1.15047
-0.798044 2.87293 -0.491501
2.60956 1.4206 -0.575833
2.31499 -0.186721 -1.4657
0.544484 2.60484 -1.12816
0.457953 3.62353 -0.570972
1.55316 3.32828 -0.245894
2.3535 -0.0365271 -1.35486
0.68413 3.2225 -0.701503
2.02439 0.671467 -1.14675
1.2698 2.35777 -0.798595
-0.489695 3.59757 -0.653466
1.88536 -0.0493172 -1.55639
1.69002 2.03408 -0.737926
-0.127364 2.6388 -0.981887
-0.551973 3.30623 -0.132199
1.57897 1.97976 -0.832388
-0.487749 3.1391 -0.663605
-0.216923 3.39132 -0.716394
2.33203 0.940407 -0.875848
-0.321025 3.74467 -0.565452
0.198168 2.7052 -0.992569
1.45243 3.19099 -0.332376
0.674708 3.89004 -0.363693
2.30892 2.51937 -0.139633
-0.637427 3.54684 -0.327154
0.242868 4.51248 0.535796
2.14415 0.0165778 -1.41585
1.36373 2.18647 -0.856878
1.88015 2.75562 -0.331307
0.607246 1.62775 -1.51385
2.20697 3.33282 0.144836
1.92867 0.445802 -1.28795
-0.475295 2.16147 -1.29539
-0.206483 3.76749 -0.571674
-0.0615144 2.18897 -1.29802
2.41645 0.500341 -1.01516
1.86817 0.12978 -1.47169
-0.854681 2.39858 -1.12902
1.38338 1.65938 -1.06964
2.20256 0.789761 -0.987736
0.47102 1.36367 -1.73422
-0.870861 1.84256 -1.0616
2.6815 0.6828 -0.841752
-0.787052 1.77248 -1.43829
2.22766 1.15069 -0.799847
-0.230667 2.39429 -1.13648
0.87692 1.36035 -1.49037
0.0757713 3.61336 -0.731195
-0.378557 2.06828 -1.27309
2.644 1.69905 -0.473409
0.806058 0.715177 -1.84431
3.11256 0.921624 -0.513945
2.72819 0.851243 -0.807189
2.87864 1.67132 -0.359671
-0.12587 1.35922 -1.96242
2.29941 1.18767 -0.771288
-0.891511 2.43928 -0.752324
2.7816 0.719615 -0.819341
0.823591 4.11282 -0.173451
0.506618 2.17345 -1.22131
0.746962 2.28534 -1.13424
2.31194 1.91974 -0.443173
1.7262 2.93025 -0.292389
3.08104 1.52801 -0.285006
0.675545 3.18192 -0.790356
1.79225 1.7133 -0.822835
0.601517 3.69185 -0.535478
1.85502 1.57126 -0.8305
1.01255 1.47867 -1.36161
2.37234 1.43984 -0.586824
1.63132 1.0775 -1.16909
1.242 3.04649 -0.573688
1.73711 2.84481 -0.350942
1.16805 2.64662 -0.788375
0.690386 2.65922 -0.875085
0.9065 3.75593 -0.367909
2.13204 1.89761 -0.5573
-0.546363 1.77411 -1.45647
2.80049 1.28214 -0.558463
0.780939 3.04043 -0.821889
1.54226 2.56701 -0.611476
0.656568 3.36441 -0.701959
-1.00383 1.68449 -1.1646
1.75219 0.378864 -1.40838
1.51506 2.43881 -0.664544
3.17343 1.18705 -0.513362
0.788312 3.26576 -0.702834
1.44329 2.39982 -0.740262
0.136638 3.47914 -0.718028
1.55776 1.91705 -0.866551
-0.43777 2.26326 -0.859664
0.804376 3.65175 -0.468454
-1.30496 2.02663 -1.49168
0.574233 2.19011 -1.31816
1.35639 1.97974 -0.952104
0.229811 2.54319 -1.04976
2.22271 0.214353 -1.29845
0.610097 2.24684 -1.2768
2.31705 2.40934 -0.19395
0.828856 1.29027 -1.54655
-0.575542 3.59756 -0.451242
0.478914 3.18196 -0.871029
0.846849 3.34474 -0.585908
-0.107794 3.97221 -0.271874
1.57322 1.51451 -1.05341
1.91951 0.860949 -1.11648
2.40316 1.58815 -0.53984
1.85011 2.09753 -0.594664
-0.766882 3.1633 -0.910773
1.64162 2.57174 -0.533185
2.87176 0.576511 -0.931938
0.747291 1.68376 -1.41736
0.88761 1.42297 -1.49813
-1.121 2.06852 -1.07518
0.693992 3.22008 -0.772074
1.95798 2.55055 -0.364639
0.251868 2.16353 -1.45506
2.1858 2.54163 -0.216784
1.87657 1.94676 -0.674627
1.3628 1.43061 -1.17539
1.58194 2.04936 -0.798194
-0.515053 3.20919 -0.990949
3.20156 2.2152 0.0354447
0.0291521 4.08728 -0.247094
1.64232 0.169681 -1.56823
-0.412367 2.33829 -1.38981
1.97779 1.60549 -0.779721
2.19873 1.94689 -0.46983
-0.243149 2.43643 -1.13565
2.02406 2.12962 -0.469457
-0.62303 2.93488 -1.14851
-0.126142 2.28876 -1.49873
1.47693 0.240097 -1.65562
2.61552 1.69406 -0.420043
0.158854 3.74494 -0.619098
0.0873422 1.61245 -1.72592
2.21979 1.07456 -0.896801
-0.00586924 4.43045 0.401079
-0.447247 4.27371 0.627058
-0.258311 4.26594 0.185515
-0.758588 3.50267 -0.716757
0.605819 4.98908 0.985859
-0.671878 3.7128 -0.408886
-0.506909 4.11871 0.286814
-1.04797 3.49909 -0.570741
-0.467002 3.78145 1.97489
0.123135 4.45543 0.648989
-0.531206 3.71542 -0.537382
0.347715 4.68346 0.447913
-0.16132 4.16142 1.7821
-0.0127515 4.1676 -0.179835
-0.689533 3.85354 -0.2288
-0.633596 4.02361 0.662287
0.134152 4.20961 -0.160895
-0.31459 4.00632 1.85586
-0.812996 3.9201 0.787338
-0.121173 4.27745 1.63178
-0.368478 3.79741 -0.553252
-0.561213 3.85182 1.57685
-0.276417 4.15805 0.218367
-0.60884 3.92196 -0.0656906
-0.888256 3.86432 0.471559
-0.288101 4.24133 1.09405
-0.290405 4.41647 0.686327
-0.00863303 4.40359 0.429619
-0.622532 3.59583 1.24552
-0.245384 4.31798 0.792964
0.19226 4.43837 0.490482
0.150004 4.71486 0.673712
-0.400149 4.14343 0.285717
-0.309715 4.38593 0.701341
-0.849354 3.89635 0.378824
-0.217213 4.11929 0.977099
-0.0715762 4.15071 0.650442
-0.884956 3.5506 0.154483
-0.17461 4.34747 1.21155
-0.654869 4.0933 0.694204
-0.358662 4.32537 0.812549
-0.437044 4.23407 1.3042
0.355699 4.19687 1.51061
0.0355668 4.11929 1.93241
-0.476021 3.81956 1.38296
-0.648976 3.96362 0.987957
-0.389752 3.79791 1.20008
-0.14745 4.00291 -0.303703
-0.524005 4.04347 0.957345
-0.427408 4.21262 1.35559
