ply
format ascii 1.0
comment Created by Open3D
element vertex 250
property double x
property double y
property double z
end_header
2.65167 2.15603 1.49489
0.360601 2.62219 0.38596
2.07264 1.10721 -0.291054
1.77977 1.90433 1.20957
2.93479 1.4442 0.624226
1.81463 1.43521 0.194089
1.33892 2.48938 0.671287
0.571601 3.07773 1.48747
0.0447773 2.44362 0.0858894
-0.448858 2.74303 1.27737
2.2581 1.09497 -0.402866
0.713779 2.49807 0.995799
2.91183 1.30342 0.362557
-0.711912 2.81508 2.22178
1.58827 1.28019 0.245277
1.33264 3.19818 2.20565
0.112685 2.8641 1.812
2.07984 1.65729 0.683811
0.55974 1.90589 -0.0856144
0.578882 3.23608 2.07128
0.0986979 2.5367 0.67737
1.13787 3.48744 1.86971
2.35808 1.70409 0.317565
0.247261 2.36422 -0.133272
-0.801787 2.41605 0.98691
1.23822 2.17801 0.45959
2.72061 1.52618 0.401932
1.76513 2.78562 1.61984
1.09997 2.07042 0.401933
-0.644645 2.41593 0.694172
0.677321 3.52162 2.2827
0.23829 3.50491 2.51441
0.274298 2.56135 0.105524
2.54323 0.976527 -0.18644
-0.3896 2.52864 0.631327
1.93635 1.11524 -0.763411
2.54851 1.28834 0.916668
-0.78536 2.74102 2.12338
-0.0615061 1.94744 0.144044
2.5191 1.69427 0.95242
2.28128 1.87127 1.13952
-0.135835 3.00428 1.56805
1.38286 1.93199 0.123534
3.06743 1.0622 -0.292913
2.55361 1.00002 0.281869
-0.192003 2.74703 0.869776
2.70904 0.581319 -0.961354
-0.594808 2.54222 0.974404
1.35592 1.60607 0.103178
0.722168 2.45483 0.823003
0.0576987 3.07488 1.52306
2.05736 0.651761 -0.817759
-0.00591074 2.77073 1.091
-0.684918 2.45801 0.94631
0.698063 2.68277 0.561706
-0.424205 2.76528 1.30044
0.10347 2.3249 -0.214769
0.992611 2.14632 0.522177
2.15826 2.34912 1.36781
2.43016 1.02383 0.0578461
-0.207673 3.21208 2.21008
-0.818475 2.5805 1.49785
-0.55284 2.38314 0.338496
-0.648208 2.68542 1.47691
2.6872 1.34615 0.444126
2.33492 0.558392 -1.20391
0.701176 2.50978 0.930316
0.644156 3.2722 1.87519
1.71576 2.81248 1.89018
2.37672 0.66354 -1.04987
0.850421 3.10772 1.48308
2.07128 1.34592 -0.530785
1.41462 1.81595 1.10397
-0.289576 2.95883 1.97551
1.9201 0.563963 -1.10006
1.80986 1.736 0.836405
0.0184745 2.81921 0.933997
-0.395103 3.00435 1.92861
1.69271 1.93502 0.661863
-0.319502 2.9122 1.54667
-0.0334416 3.06009 1.69401
2.39306 1.15224 -0.0740385
-0.117401 3.06611 2.10957
0.346326 2.88392 0.953784
1.6156 2.58834 1.81123
0.867085 3.41986 2.16358
2.43042 2.01045 1.4566
-0.454419 2.98875 2.07704
0.432814 3.8698 3.03113
2.17761 0.557212 -0.976323
1.49783 1.82081 0.904787
2.01319 2.48465 1.41651
0.721836 2.03589 -0.00846731
2.35233 2.81767 2.05446
1.98023 0.849338 -0.61065
-0.340251 2.46865 0.47869
-0.00253241 3.10651 2.10765
0.070328 2.60034 0.434006
2.45192 1.10261 -0.54924
1.90727 0.741449 -0.957936
-0.705825 2.41023 0.826502
1.48189 1.98782 0.224545
2.24872 1.42999 -0.381342
0.575201 2.03946 -0.365583
-0.760624 2.25268 0.386595
2.72385 1.06652 -0.2854
-0.666151 2.21464 0.149989
2.29196 1.45897 0.044849
-0.0917223 2.6687 0.688848
0.97892 1.75163 -0.150384
0.276434 3.02298 1.90493
-0.253008 2.51611 0.376239
2.73999 1.28068 0.787645
0.886504 1.37472 -0.787493
3.14849 1.38045 -0.0419791
2.78209 1.04507 -0.0991775
2.96069 1.49666 0.718314
-0.0120777 2.06777 -0.467523
2.36874 1.341 0.139508
-0.75585 2.45571 1.02985
2.82635 1.03812 -0.231453
1.02394 3.43422 2.45852
0.630595 2.6643 0.407387
0.880456 2.48835 0.619479
2.40684 1.83317 0.803506
1.87428 2.37892 1.65305
3.14579 1.60043 0.565516
0.856713 2.64565 1.58967
1.89571 1.60187 0.536295
0.794834 3.14556 2.00414
1.94347 1.75253 0.331566
1.11463 1.85239 -0.0205859
2.43944 1.76874 0.294712
1.70411 1.54011 -0.212841
1.40165 2.68736 1.52363
1.88068 2.39556 1.53516
1.31023 2.58318 1.0795
0.825975 2.98272 0.90616
1.09683 3.15076 2.13243
2.23598 1.65222 0.808052
-0.429637 2.35301 0.0769601
2.86745 1.3214 0.321256
0.952846 2.63875 1.43648
1.67807 2.33786 1.17275
0.842848 2.80278 1.74521
-0.896574 2.11816 0.244423
1.80587 0.792724 -0.703181
1.63423 2.64114 0.900963
3.23087 1.30928 0.241276
0.966566 2.81601 1.6389
1.57271 2.32164 0.959849
0.323135 3.13889 1.732
1.6771 1.6514 0.701196
-0.31805 2.6452 0.713112
0.987329 3.27962 1.93502
-1.15511 2.00195 0.476909
0.719705 2.12735 0.592909
1.4602 2.42967 0.41165
0.369682 2.83677 0.787735
2.26388 0.620236 -0.757603
0.757336 2.14868 0.657494
2.43503 1.93148 1.35603
0.932192 1.61857 -0.18901
-0.384513 3.00252 2.05833
0.656792 2.87384 1.46577
1.01468 3.18486 1.61889
0.0917305 3.3431 2.34929
1.6553 2.13509 0.0249318
1.97486 1.49375 -0.389244
2.48371 1.62371 0.518409
1.97144 1.6401 0.999296
-0.579815 2.70474 1.54674
1.77888 2.19319 1.26994
2.91476 0.890135 -0.367122
0.855937 2.22388 0.00993835
0.983397 2.10946 -0.239768
-0.990236 2.16806 0.642691
0.871529 2.82821 1.56025
2.08464 2.23887 1.2994
0.398288 2.23957 0.468462
2.30929 2.10944 1.40557
1.98512 1.79428 0.751374
1.45788 1.69279 0.0736756
1.69372 2.11932 0.670361
-0.324531 2.77991 1.51195
3.30151 1.67458 1.34844
0.234512 3.38292 2.45073
1.68817 0.763506 -0.965859
-0.260492 2.45937 0.605392
2.08165 1.26038 0.584606
2.31031 1.40465 0.995896
-0.101149 2.67027 0.729814
2.1433 1.60738 1.09694
-0.44162 2.63456 1.23468
0.0288493 2.35245 0.537408
1.52597 0.955146 -1.01135
2.70014 1.57049 0.691592
0.363446 3.05734 2.06864
0.20592 2.19185 -0.168161
2.29274 1.12368 0.0615484
0.206256 3.15563 3.18779
-0.249703 3.00894 3.2222
-0.0478506 3.11847 2.95034
-0.555905 2.7578 1.94591
0.817988 3.67438 3.77313
-0.471025 2.91434 2.22973
-0.301509 2.82743 2.98517
-0.841899 2.48194 2.13642
-0.316823 1.65255 3.94779
0.331692 3.00139 3.38882
-0.326769 2.95511 2.14832
0.562058 3.59023 3.26375
0.00712864 2.18065 3.99503
0.20025 3.24523 2.61838
-0.480845 2.76752 2.51274
-0.439705 2.50665 3.20945
0.347118 3.30762 2.63685
-0.153685 1.97695 3.96967
-0.628171 2.41155 3.21539
0.0549948 2.39464 3.94611
-0.157763 2.95155 2.21492
-0.397421 1.89699 3.7286
-0.065689 2.81377 2.98671
-0.409598 3.01872 2.55176
-0.697359 2.4933 2.97939
-0.0980677 2.56351 3.59052
-0.0920622 3.23101 3.29197
0.202862 3.07614 3.20804
-0.454024 1.56604 3.45921
-0.045305 2.80101 3.42141
0.403769 3.06107 3.26909
0.358551 3.58298 3.4134
-0.20708 3.2749 2.82207
-0.109685 3.08686 3.32915
-0.65558 2.59095 2.92444
-0.0256136 2.36572 3.49416
0.129879 2.5247 3.29697
-0.686938 1.92338 2.75585
0.0151848 2.66214 3.7049
-0.463519 2.71531 3.20798
-0.161582 2.90133 3.4016
-0.256514 2.59938 3.67583
0.534965 2.21177 3.86564
0.199872 2.0036 4.0909
-0.305448 1.84064 3.62379
-0.465581 2.28917 3.39724
-0.21339 1.82734 3.51696
0.0676085 2.95919 2.52154
-0.336366 2.36858 3.42238
-0.248432 2.53216 3.70681
