ply
format ascii 1.0
comment Created by Open3D
element vertex 400
property double x
property double y
property double z
end_header
-2.64247 0.269493 -1.03383
-1.91525 1.84525 -0.751755
-2.41849 1.58081 -0.725186
-3.09271 0.387864 -0.781033
-2.13885 1.91337 -0.709856
-2.14702 -0.322044 -1.75504
-2.11938 1.85181 -0.707667
-1.70692 1.05419 -1.12719
-1.56012 1.32177 -1.20888
-2.43402 0.165872 -1.31685
-1.78322 0.266085 -1.49898
-2.70115 0.356649 -1.08711
-1.86824 2.3592 -0.889879
-2.50994 1.18008 -0.707727
-2.16011 1.92182 -0.719859
-2.38466 1.82011 -0.705473
-2.90511 0.490894 -0.646549
-3.02609 -0.490942 -1.32508
-1.96519 1.79236 -0.661516
-1.40919 2.24884 -0.813307
-2.69683 0.172 -1.09642
-1.35845 0.723966 -1.39262
-2.2839 1.36096 -0.64655
-1.44149 1.03127 -1.17531
-1.95646 0.872989 -1.19091
-2.77906 0.458786 -1.22673
-1.67295 1.99767 -0.812504
-2.16219 1.49056 -0.940971
-1.18886 0.983711 -1.47661
-1.60047 1.42069 -0.98603
-2.40942 0.703311 -0.987313
-3.45647 0.487308 -0.83194
-1.68315 0.884854 -1.36184
-2.76969 0.557662 -0.817747
-3.043 -0.624283 -1.27135
-2.04582 0.188661 -1.27939
-1.49061 1.45993 -1.25815
-1.56683 1.72767 -0.769056
-1.83249 0.470963 -1.54331
-2.3302 -0.552148 -1.88257
-1.45527 0.852104 -1.24975
-2.39868 1.5161 -0.801613
-2.20465 1.76537 -0.732191
-2.73108 0.222105 -1.037
-2.76395 -0.964466 -1.58275
-1.99174 0.341278 -1.38781
-2.23153 1.08422 -0.892861
-2.39979 1.64825 -0.640382
-2.59949 0.101302 -1.34145
-1.56785 0.287785 -1.60482
-1.5065 1.63291 -1.0871
-2.26461 0.992914 -0.894594
-2.17626 0.865132 -0.953217
-2.7948 0.294523 -1.03523
-2.83733 1.13104 -0.620461
-2.9568 1.07899 -0.827101
-2.9621 0.826829 -0.729433
-1.86696 -0.280278 -1.61853
-2.93812 -0.148135 -1.35888
-2.21178 0.21584 -1.24875
-2.65051 -0.535642 -1.43378
-3.32445 0.476386 -0.843873
-2.32236 0.497667 -1.13145
-2.62678 0.489554 -0.944598
-2.25994 0.0172418 -1.37841
-2.94133 0.778437 -0.809796
-1.57854 0.680371 -1.34968
-3.02423 -0.795826 -1.63636
-1.60164 0.829971 -1.35263
-2.61136 -0.30192 -1.17735
-2.26432 0.948658 -0.905255
-1.85645 -0.172309 -1.63748
-1.79243 1.62578 -1.02508
-1.2198 1.87127 -0.92755
-2.24029 -0.234113 -1.501
-2.97486 0.865066 -0.887721
-1.46293 0.0693817 -1.71882
-1.4392 0.295503 -1.71649
-1.76809 1.098 -1.14287
-1.3799 1.58615 -1.03115
-2.12187 -0.127475 -1.55709
-1.71674 1.39362 -0.889366
-2.85374 0.0321738 -1.10941
-1.73406 0.597726 -1.19838
-1.93068 -0.501857 -1.80885
-1.72398 0.806272 -1.20338
-2.1632 2.0073 -0.749666
-1.52255 2.04554 -0.753728
-1.23804 0.204131 -1.87739
-2.48604 1.31287 -0.790534
-1.93314 0.677597 -1.10025
-1.75294 2.21015 -0.922736
-1.52411 1.62014 -1.21448
-2.55598 -0.277192 -1.33403
-1.96579 1.98098 -0.659148
-1.23359 1.53076 -1.21787
-2.71877 -0.161585 -1.18087
-3.54194 0.557582 -0.722735
-2.20808 0.0253155 -1.25762
-2.54945 -0.263174 -1.59158
-1.98765 -0.21715 -1.53978
-1.95193 0.890947 -1.07124
-2.51944 -0.225942 -1.1908
-1.61439 0.14831 -1.61269
-2.72688 -0.812687 -1.61652
-2.72963 -0.359328 -0.986087
-1.84698 0.983396 -0.981828
-1.35651 1.33372 -1.26742
-2.98773 -1.01189 -1.44978
-1.56449 1.51646 -1.18278
-1.7097 1.29099 -1.12913
-2.62595 -0.864322 -1.58434
-2.13556 -0.00213397 -1.56765
-2.39103 1.1281 -0.98344
-3.10765 -0.458838 -1.24898
-2.7096 -1.18259 -1.6644
-1.40609 1.79197 -0.915908
-2.20425 -0.220419 -1.59116
-1.88199 0.685729 -1.26153
-2.33058 1.05604 -0.940989
-1.76891 1.83657 -0.906197
-3.44018 0.622519 -0.723746
-2.62953 0.00416166 -1.2187
-2.7192 -0.214675 -1.26319
-2.58312 0.22722 -1.3047
-1.84125 0.651613 -1.27713
-1.59288 1.28957 -1.24267
-1.94217 -0.284812 -1.77304
-3.20862 0.569011 -0.742806
-2.47469 -0.121118 -1.49714
-1.57064 0.906507 -1.1738
-1.96369 1.54722 -1.10255
-2.51945 -0.203591 -1.12144
-2.78246 -1.17976 -1.48098
-1.59354 0.967739 -1.28532
-2.86498 -0.473952 -1.3638
-1.32954 0.209322 -1.8581
-1.81449 -0.0704119 -1.71485
-2.9087 0.30991 -0.783926
-2.625 -0.804641 -1.49339
-2.33644 -0.77731 -1.82812
-1.43232 0.658907 -1.63901
-3.00733 -0.364577 -1.17857
-1.99407 -0.161487 -1.78808
-2.87487 -1.20034 -1.75433
-1.5117 2.11193 -0.836469
-2.63844 1.31967 -0.691587
-1.71759 2.25343 -0.890738
-3.33728 0.338987 -0.804529
-2.0945 0.0174288 -1.4854
-2.37815 -0.11521 -1.24435
-2.84829 0.323044 -1.04469
-2.7245 0.0499137 -1.02174
-1.26063 0.797291 -1.50462
-1.3453 1.31047 -1.36223
-3.22417 0.693416 -0.694934
-2.33014 1.46817 -0.747567
-2.48972 -0.993704 -1.88442
-1.32234 0.678931 -1.57026
-2.02298 1.27517 -0.8767
-2.74611 0.662697 -0.848795
-1.01348 0.900233 -1.5187
-1.77089 0.596105 -1.3132
-2.52429 0.720048 -1.13255
-2.9597 -0.312913 -1.27094
-2.07525 2.1368 -0.729759
-2.74542 0.948692 -1.05515
-1.37672 0.11325 -1.67149
-2.90416 -0.298431 -0.975896
-3.25792 0.954712 -0.633068
-2.4965 1.28606 -0.769025
-2.59714 -0.178426 -1.24479
-2.81109 1.15269 -0.950156
-1.39453 0.71753 -1.64624
-2.80936 1.25421 -0.79564
-2.77271 1.41014 -0.871261
-2.10953 -0.520649 -1.52064
-2.11533 -0.125178 -1.62502
-1.59509 0.330592 -1.73519
-1.74535 0.384615 -1.52678
-1.87819 2.20514 -0.630277
-2.54754 1.25881 -0.777708
-2.06817 1.73937 -0.64395
-2.54509 1.34916 -0.635655
-2.93173 -0.589384 -1.22631
-1.65334 0.643829 -1.32052
-2.22037 1.3917 -0.806288
-2.47983 -0.797225 -1.47343
-2.89523 -0.0778639 -0.876621
-1.77482 1.96582 -0.879792
-3.06861 1.02723 -0.775396
-2.01455 1.91645 -0.796511
-1.58497 0.0319468 -1.79358
-1.79261 0.185201 -1.44287
-2.5553 0.689937 -0.797536
-3.57133 0.419958 -0.787671
-1.71973 1.19816 -1.40155
-2.24634 1.73757 -0.750238
-1.58211 1.90385 -0.85919
-2.94352 -1.29327 -1.64719
-1.83746 0.920537 -0.983778
-2.24681 -0.5465 -1.81556
-2.39928 -0.102666 -1.38874
-1.66692 2.06593 -0.91748
-2.81806 -0.93191 -1.61066
-1.17143 0.80322 -1.34283
-2.65024 0.724521 -0.694354
-3.45396 0.640609 -0.849752
-3.15327 -0.397903 -1.11946
-2.1662 1.23644 -0.825814
-2.09411 -0.588484 -1.91399
-2.39831 0.942246 -0.990772
-3.20818 1.01938 -0.530394
-2.3549 1.47154 -0.885542
-1.36802 0.682631 -1.37994
-3.02364 -0.137334 -0.990422
-2.33423 0.985934 -0.952151
-1.5822 0.981104 -1.14325
-2.15866 -0.186883 -1.60131
-2.4907 1.72329 -0.779604
-1.38715 1.27119 -1.16815
-1.48422 0.0710575 -1.76254
-2.89508 0.5604 -0.846411
-1.81668 1.90924 -0.792097
-3.14807 -0.437536 -1.37222
-3.13395 -0.100621 -0.890901
-1.50877 1.33455 -1.14042
-3.21519 0.203031 -0.990473
-2.56134 -0.143223 -1.25315
-2.91373 0.185813 -0.860859
-1.48621 0.359823 -1.64483
-3.34103 0.137483 -0.935375
-1.55408 1.4435 -1.13821
-2.22649 1.91601 -0.753999
-1.78758 -0.331903 -1.66524
-2.32311 0.772948 -0.861944
-1.38089 0.653899 -1.3851
-2.66519 -0.206949 -1.14663
-2.90067 0.154338 -1.03237
-3.06255 -1.2108 -1.67508
-3.44594 0.338774 -0.794449
-2.86756 -0.477624 -1.20304
-2.55004 0.621927 -0.936132
-2.88524 -0.407296 -1.21738
-1.82732 1.19513 -1.14459
-3.01028 -0.341278 -1.04345
-2.23729 0.0575714 -1.37943
-3.11736 0.349185 -1.0582
-2.28572 0.409165 -1.38719
-1.70305 0.228925 -1.72207
-3.06041 0.911072 -0.830942
-3.14748 0.0912067 -0.823241
-1.97131 0.492827 -1.26617
-3.02439 -0.0551637 -0.957821
-3.26086 0.386429 -0.673348
-2.07801 0.493895 -1.09825
-2.07701 0.745762 -1.10156
-2.99022 0.599169 -0.771867
-1.9062 2.17995 -0.630608
-2.54362 0.0897994 -1.18503
-2.46921 1.0391 -0.73734
-1.76237 0.590598 -1.43829
-1.74314 1.76747 -1.01578
-2.38477 -0.0655698 -1.45183
-1.96521 1.35603 -1.04391
-2.91716 -0.91914 -1.36318
-2.54025 1.26955 -0.635613
-2.50884 -0.721425 -1.47315
-1.32042 1.04607 -1.07919
-2.9852 -0.360245 -1.342
-2.0203 0.39095 -1.35592
-2.71799 -0.754244 -1.43367
-3.16307 0.420335 -0.621324
-2.9684 -1.50196 -1.76567
-2.48864 1.18698 -0.892507
-2.50113 1.11011 -0.621755
-2.18272 -0.766835 -1.78863
-2.57464 0.0964806 -1.23577
-1.98052 0.169694 -1.54628
-2.52997 -0.202983 -1.32379
-1.6953 0.694988 -1.45847
-1.17682 0.505369 -1.72082
-2.03223 1.5814 -0.911907
-1.92396 -0.444236 -1.80154
-2.76221 0.434191 -0.993294
-2.2249 0.44536 -1.22663
-2.79153 0.27707 -0.745775
-2.4123 -0.165725 -1.45723
-2.34731 0.145802 -1.19032
-1.73767 2.18789 -0.83878
-1.94058 0.964337 -1.05698
-1.68026 1.33732 -0.914945
-2.60103 0.885383 -0.947322
-2.59069 1.37441 -0.849478
-1.67964 1.85625 -0.661541
-1.46913 0.133602 -1.60019
-1.30962 1.68551 -1.11812
-3.21683 0.210754 -0.922725
-2.84348 0.212141 -1.11721
-2.46282 -0.75745 -1.73466
-1.91409 1.88505 -0.89209
-2.25865 1.45621 -0.872327
-2.1998 -0.495559 -1.56048
-2.57066 0.0203797 -1.11152
-2.60787 -1.06418 -1.68268
-2.67579 0.285815 -1.13635
-2.49801 -0.179492 -1.37551
-1.74652 2.15661 -0.89032
-2.18313 -0.0221794 -1.47365
-2.38962 0.244159 -1.1536
-2.57652 -0.868388 -1.50827
-2.2485 1.63005 -0.731487
-2.21073 -0.246455 -1.59794
-1.59245 0.0543615 -1.96145
-1.56857 0.755624 -1.28465
-2.38653 0.951196 -0.783491
-1.39169 0.975323 -1.53277
-3.27248 0.115152 -0.992899
-2.90991 -1.091 -1.53365
-3.0035 0.263561 -0.940455
-2.72122 0.773076 -0.932243
-3.16702 0.195048 -0.914118
-1.7121 0.649245 -1.37748
-3.44909 0.783738 -0.58478
-1.48712 1.49008 -1.08837
-2.29311 1.15035 -0.788685
-1.58052 2.02157 -0.669982
-1.16028 0.810874 -1.42561
-2.82767 -0.00508406 -1.05005
-1.82039 1.58455 -0.808938
-2.88131 0.907124 -0.699698
-1.92907 -0.00263326 -1.52402
-3.31825 0.903816 -0.67923
-3.03771 -0.757988 -1.34481
-1.42468 0.399185 -1.76162
-2.29314 -0.486031 -1.51423
-2.84448 -1.04834 -1.56003
-2.61486 -0.786987 -1.6524
-2.20472 -0.630868 -1.73446
-2.2058 1.50277 -0.843745
-3.03316 0.283131 -1.1808
-1.4562 1.69445 -1.09118
-2.75459 1.38505 -0.521145
-1.94679 0.217381 -1.55973
-2.06208 0.594155 -1.39218
-2.39489 1.17042 -0.961653
-2.06967 1.19251 -0.885374
-1.89301 2.14625 -0.583996
-2.77422 0.415467 -1.08615
-1.66273 2.51209 -0.783871
-1.09174 0.778219 -1.53984
-1.5498 1.49751 -1.0247
-1.78896 -0.124094 -1.42262
-2.80882 1.29405 -0.804198
-2.56076 0.713059 -1.02403
-2.78202 -0.800195 -1.41204
-1.70797 0.655805 -1.53786
-1.63211 0.238141 -1.70294
-1.50674 0.444794 -1.51546
-1.64173 1.144 -1.07948
-1.37868 1.18071 -1.43962
-1.92196 -0.429258 -1.9243
-2.81768 0.827841 -0.719683
-2.83489 -0.628968 -1.31815
-1.72354 -0.285592 -1.93684
-3.07935 0.332044 -0.662513
-2.74929 -0.674354 -1.44222
-2.22491 1.13041 -0.766224
-2.85248 0.937554 -0.626428
-1.92951 2.21688 -0.732642
-1.58743 0.132482 -1.71326
-2.20422 -0.180421 -1.33209
-3.04 0.374601 -0.820506
-2.42615 -0.226327 -1.32093
-1.74824 0.275639 -1.70904
-2.79505 -0.310704 -1.295
-2.44017 0.75626 -1.04185
-1.82281 1.63423 -1.05727
-2.96693 1.13918 -0.835776
-2.08014 1.03082 -0.896216
-1.0672 0.690741 -1.69087
-2.13393 0.789082 -0.988106
-2.30674 -0.269082 -1.34316
-3.37094 0.678959 -0.623504
-2.38483 1.81684 -0.526191
-2.28746 1.72663 -0.759287
-2.62879 1.26389 -0.689076
-2.63435 0.583562 -0.975883
-1.53105 0.185369 -1.77966
-2.52352 1.63485 -0.817444
-2.94834 -0.0341119 -0.99078
-3.02123 0.830767 -0.764559
-2.6164 1.19428 -0.787688
-2.07044 1.95707 -0.924208
-2.02579 1.27245 -0.917305
-1.5008 1.34738 -1.12763
-3.08878 -0.137925 -1.01065
-2.16089 0.990246 -0.896181
-2.47045 0.337077 -1.15748
-2.82624 0.33989 -1.17156
