ply
format ascii 1.0
comment Created by Open3D
element vertex 250
property double x
property double y
property double z
end_header
1.2067 3.04489 -0.985839
1.8843 0.666247 -1.54225
1.15318 2.0536 -0.170905
0.664336 2.2934 -2.0307
1.08818 3.08226 -0.306108
0.999293 1.99519 -0.945022
1.78872 1.62915 -1.15963
1.52213 1.21595 -2.57751
1.8021 0.310507 -1.59051
1.25903 0.165838 -2.60053
1.34258 2.15553 0.244178
1.13275 1.27931 -2.57196
1.12239 2.98682 -0.110518
0.606279 0.203005 -3.55011
0.590595 1.87391 -1.55673
1.3113 2.11422 -2.72502
0.701239 1.00857 -3.83984
0.967519 2.36555 -1.11864
1.28151 0.81837 -1.71722
1.19338 1.42499 -3.26654
1.32913 0.59889 -2.47816
2.01059 1.74959 -1.98947
1.5729 2.41242 -0.0252581
1.90007 0.439521 -1.34617
1.0341 -0.229365 -2.6243
1.48853 1.52381 -1.34211
1.38857 2.77761 0.0423431
1.48345 2.30451 -1.78291
1.31163 1.41427 -1.58089
1.39439 -0.221508 -1.97525
1.51109 1.51011 -2.97107
1.3012 1.1511 -3.24417
2.02315 0.49723 -1.30087
1.04121 2.51644 -0.0174209
1.49834 0.0371613 -2.06096
1.54584 1.75799 0.36179
0.426621 2.90544 -1.33512
0.555627 0.119859 -3.58732
0.81276 0.408492 -2.82101
0.980226 2.81487 -0.913473
0.94231 2.66607 -1.28798
1.30838 0.566629 -2.86354
1.55241 1.54009 -0.868351
1.4855 2.8921 0.813215
0.553698 2.73848 -0.884436
1.71205 0.2367 -1.83476
1.23764 2.43718 0.7537
1.38617 -0.115958 -2.04649
1.08503 1.57174 -1.25836
1.2542 1.21949 -2.31441
1.4789 0.718777 -2.64745
0.984418 1.91957 0.0515163
1.29665 0.604671 -2.76094
0.943205 -0.0574655 -3.01206
1.90798 1.019 -1.46294
1.26124 0.198789 -2.6298
1.86882 0.292387 -1.40658
1.23947 1.36824 -1.84754
1.33124 2.57988 -1.29203
0.800217 2.52278 -0.526478
1.22295 0.616249 -2.98775
0.847651 -0.100705 -3.0303
1.6472 -0.248005 -1.5846
1.12308 -0.00106929 -2.60566
1.02546 2.82003 -0.393883
1.31885 2.01993 0.783252
1.2155 1.23729 -2.45181
1.46636 1.39216 -2.84369
1.24879 2.36346 -2.19596
1.35784 2.08913 0.764409
1.67101 1.44553 -2.27123
1.72598 1.91386 0.462343
0.444198 1.98282 -2.48058
0.740086 0.629459 -3.82235
1.06368 1.71311 0.20576
0.785676 2.2035 -1.64692
1.66257 0.497572 -2.08846
1.29648 0.31232 -2.53427
1.17937 2.00571 -1.31273
1.22298 0.380196 -2.86748
1.21561 0.730566 -3.12584
1.14922 2.39432 -0.0819392
0.803824 0.819667 -3.80207
1.75232 0.815047 -2.00321
0.969387 2.28619 -2.4193
1.49161 1.66579 -2.87516
0.931244 2.87745 -1.36351
0.908522 0.407239 -3.35886
1.67994 1.33989 -2.69126
1.04586 1.9752 0.300582
0.669033 1.97491 -2.10495
1.39366 2.4651 -1.43438
1.48021 0.952006 -1.46053
1.45463 2.91692 -1.50732
1.04263 1.90016 -0.105561
1.47886 0.0697341 -2.10776
0.868007 0.924684 -3.74183
1.75747 0.419458 -1.76853
1.58792 2.25089 0.718938
1.18447 1.72377 0.199729
1.04954 -0.142209 -2.72915
1.58741 1.64775 -0.821772
1.80082 2.09512 0.58767
1.74145 0.698644 -1.14434
1.46426 -0.434047 -1.67366
1.37955 2.59419 0.53258
1.40871 -0.332323 -1.95601
1.45252 2.29464 0.0279727
1.63623 0.335941 -2.00913
1.34066 1.14915 -1.22429
0.917329 1.14862 -3.59739
1.70405 0.0833573 -1.74577
0.587604 3.02707 -1.02344
1.35538 0.894515 -0.838032
1.81021 2.97048 1.08104
1.14623 2.74018 0.165166
1.08662 3.13054 -0.353187
1.64447 0.163257 -1.57365
1.20785 2.42389 -0.208409
1.1634 -0.220558 -2.34711
1.30363 2.71637 0.462367
1.31006 1.90379 -3.09216
2.00948 0.90183 -1.30374
1.607 1.24552 -1.6836
1.28149 2.63535 -0.63811
0.964007 2.46036 -2.04429
1.50816 3.18401 0.324405
0.847807 1.6014 -3.10832
0.935688 2.17165 -1.20451
1.18059 1.60875 -3.13057
1.39923 2.08982 -0.59167
1.43199 1.28876 -1.11914
1.7374 2.45242 0.212832
1.50604 1.71822 -0.301857
1.24014 2.00111 -2.25813
1.08941 2.4217 -1.87798
1.48377 1.76562 -1.79338
2.10293 1.1904 -1.39284
1.2012 1.90436 -2.96202
0.918406 2.53993 -1.1095
1.69868 -0.158601 -1.63291
1.18887 2.92235 -0.0250628
1.02198 1.62253 -2.78834
1.23549 2.13469 -1.70788
0.927393 1.61966 -3.1554
1.3666 -0.585266 -1.71951
0.963649 1.73507 -0.256532
1.93727 1.92578 -0.938355
1.35907 3.21025 0.371377
1.09692 1.67863 -2.85328
1.36711 1.96809 -1.53446
1.31155 1.08004 -3.04307
0.723136 2.06159 -1.72447
1.7846 0.0384209 -1.53574
1.52778 1.71297 -2.64277
0.599395 -0.57415 -3.18815
0.988143 1.19158 -2.38399
2.02553 1.6276 -0.64442
1.85934 0.774546 -1.7664
0.956315 2.12468 0.120614
0.972505 1.24453 -2.41601
0.911522 2.85752 -1.30925
1.16148 1.12153 -1.38346
0.852662 0.505988 -3.55952
1.21617 1.34343 -2.86595
1.71549 1.62331 -2.22074
1.13531 1.00623 -3.41993
2.07544 1.68001 -0.130939
1.75161 1.86805 0.284585
1.30152 2.61717 -0.323519
0.59033 2.40627 -1.74389
0.705643 0.248237 -3.67714
0.997983 2.27395 -1.85329
1.19843 2.78705 0.438499
1.80321 1.03018 -1.08933
1.92233 1.06091 -0.728764
0.981045 -0.498558 -2.45913
1.14418 1.56908 -2.84032
1.20154 2.51432 -1.41126
1.1414 0.853166 -2.4012
1.04714 2.74931 -1.37036
1.04832 2.29411 -1.19791
1.30048 1.62038 -0.951477
1.44085 1.97475 -1.10257
0.811597 0.490773 -3.63151
0.883806 3.62906 -0.717967
1.09457 1.18238 -3.52902
1.11456 1.54276 -0.0485026
1.23054 0.248506 -2.60569
0.482107 2.40402 -1.44911
0.432274 2.71308 -1.54504
1.5847 0.348508 -2.10691
0.548691 2.58182 -1.66954
0.830374 0.305696 -3.47987
1.11888 0.539811 -2.68607
1.3317 1.37 -0.0273726
1.13549 2.88032 -0.445115
0.856928 1.27489 -3.68131
1.64893 0.430804 -1.58687
0.905511 2.38311 -0.508549
0.392009 1.35099 -4.0339
0.293533 0.875053 -3.87348
0.435433 1.0635 -4.06076
0.427113 0.409496 -4.14446
0.892226 1.97039 -3.49698
0.539941 0.512482 -3.97486
0.0631826 0.843478 -4.23815
-0.0926462 0.22453 -4.5913
-1.28591 0.900326 -3.73077
0.155878 1.51034 -4.04686
0.606207 0.64618 -3.98967
0.949316 1.65596 -3.63728
-0.777862 1.23258 -3.73593
0.749131 1.23417 -3.90425
0.132652 0.610554 -4.3725
-0.344631 0.741336 -4.24131
0.841303 1.3687 -3.80795
-0.969382 1.06672 -3.72946
-0.392825 0.533438 -4.11279
-0.555732 1.27708 -3.76358
0.521681 0.84872 -4.13463
-1.03096 0.815379 -3.92253
0.0126094 1.09459 -4.33308
0.561969 0.608023 -3.86804
-0.258479 0.442463 -4.21134
-0.352163 1.10964 -4.0285
0.565622 1.01198 -3.67302
0.285044 1.35897 -4.08544
-1.40927 0.778387 -4.31563
-0.0720422 1.14475 -4.08624
0.262347 1.56304 -4.04433
0.915225 1.46357 -3.55777
0.875243 0.786891 -3.44854
0.338104 1.02889 -3.8537
-0.133126 0.472768 -4.1939
-0.5797 1.19442 -4.20261
-0.376337 1.33153 -4.28379
-0.991058 0.52026 -4.85993
-0.255993 1.22391 -3.92055
-0.0430416 0.679028 -3.99994
0.0888378 1.00339 -3.94781
-0.253929 0.925366 -3.78023
-0.738982 1.75721 -3.84506
-0.983404 1.43713 -3.71451
-1.12489 0.922914 -4.12551
-0.598249 0.730426 -4.14794
-1.14994 1.01984 -4.26304
0.375307 1.13789 -4.23048
-0.537 0.867165 -4.17028
-0.337625 0.940271 -3.7923
