ply
format ascii 1.0
comment Created by Open3D
element vertex 250
property double x
property double y
property double z
end_header
-1.96128 2.42545 0.120992
0.114649 2.6185 0.485163
-2.09999 1.10897 0.776525
-2.25308 2.21508 -0.709671
-2.59789 1.60586 0.51842
-2.06785 1.53875 0.214426
-0.67383 2.55541 0.563877
-0.292919 3.3037 -0.445712
0.1764 2.40145 0.454389
0.606295 2.91201 -0.610473
-1.98042 1.05023 1.12586
-1.14076 2.71806 -0.622953
-2.60946 1.42042 0.680309
0.516095 3.18989 -1.67645
-2.48747 1.45543 -0.368878
-0.936225 3.57221 -0.776399
-0.979297 3.25863 -1.67165
-2.16059 1.84138 0.0278939
-1.07557 1.93381 0.0727864
-0.580246 3.59981 -1.1008
-0.412781 2.66294 -0.395221
0.0864998 3.70038 0.109521
-1.56183 1.73605 1.03106
-0.00110993 2.28601 0.678119
0.635353 2.55663 -0.729017
-1.06773 2.25676 0.306847
-2.03371 1.60062 0.926662
-1.13077 3.04477 -0.102263
-1.24339 2.16789 0.0801629
0.941847 2.45802 -0.119998
-0.088925 3.86295 -0.777641
0.291265 3.88157 -1.09612
0.277139 2.49451 0.743054
-2.57557 1.0167 0.760284
0.587327 2.57619 -0.0767026
-1.62992 0.987855 1.37988
-3.11452 1.5888 -0.48065
0.465866 3.10868 -1.71268
-1.26159 2.08126 -0.821968
-2.33844 1.91647 0.0930352
-2.1927 2.12775 -0.146884
0.290694 3.23539 -0.749689
-1.12401 1.94647 0.636763
-2.38689 1.02443 1.48528
-3.20356 1.19341 -0.0686047
0.849819 2.79525 0.138572
-2.69305 0.481169 1.39896
1.04379 2.62139 -0.207483
-1.73146 1.68687 0.133913
-1.01231 2.62873 -0.386773
0.294864 3.28238 -0.520014
-2.46007 0.599186 0.858335
-0.183515 2.95528 -0.625132
0.109307 2.63694 -0.968734
-0.0928736 2.70946 0.512456
0.574141 2.93992 -0.626713
0.0472794 2.23688 0.640422
-1.26036 2.27475 -0.118657
-1.57661 2.58601 0.0762916
-2.78661 1.13955 0.308603
0.736207 3.52033 -0.978773
0.629764 2.81722 -1.139
1.01396 2.34432 0.301981
0.910156 2.87538 -0.742114
-2.54079 1.48656 0.462056
-2.33689 0.401694 1.50659
-1.02912 2.70642 -0.497716
-0.310491 3.56548 -0.677349
-1.32646 3.14636 -0.507468
-2.25228 0.522698 1.49809
-0.313517 3.31499 -0.193741
-1.40951 1.22669 1.5124
-2.36809 2.14562 -1.06105
-0.306174 3.34093 -1.6689
-2.34222 0.456528 1.03359
-2.2189 1.97287 -0.378385
0.417429 2.90886 -0.0257336
1.13034 3.2344 -0.664701
-1.6802 2.0878 0.0795007
0.437864 3.13818 -0.808055
0.00430152 3.33692 -0.959386
-2.26676 1.18939 0.782292
-0.353751 3.46488 -1.637
0.151064 2.98112 0.0762816
-1.63035 2.94937 -0.79272
-0.364964 3.75563 -0.722592
-2.19083 2.31428 -0.243714
0.439734 3.32339 -1.3509
1.13579 4.23716 -0.659521
-2.51015 0.472792 1.04813
-2.19267 2.08851 -0.692396
-1.41446 2.72199 0.0408837
-0.885323 2.04525 0.319826
-1.34125 3.1395 -0.0588391
-2.2711 0.818741 0.786411
0.356586 2.50879 -0.0856705
-0.408105 3.50192 -1.56283
0.258308 2.61146 0.278946
-1.81443 0.999093 1.54803
-2.12965 0.637002 1.08861
0.323656 2.54627 -0.740142
-1.10832 2.01202 0.666591
-1.36712 1.32095 1.59961
-0.564344 1.95787 0.709751
1.11314 2.22918 0.124004
-2.23289 1.03815 1.27373
0.562209 2.19771 -0.00755569
-1.74464 1.46665 1.02063
0.399256 2.72377 0.0353822
-1.24953 1.75834 0.364708
-0.776224 3.40005 -1.42226
0.593919 2.50522 0.260079
-3.11194 1.54308 -0.197242
-1.34753 1.28305 0.668572
-1.85751 1.32453 1.793
-2.59552 1.08607 0.906862
-2.59105 1.67283 0.478862
-0.293911 1.97941 0.449498
-2.11615 1.40177 0.724744
0.907727 2.57219 -0.514827
-2.42472 1.03323 1.17998
-0.617668 3.84105 -0.999765
0.0590015 2.65089 0.683949
-0.655317 2.5748 0.193046
-1.89587 1.98675 0.455242
-1.81057 2.71378 -0.586901
-2.14313 1.68635 1.11958
-1.44674 2.99789 -1.17534
-2.13299 1.76887 -0.0114383
-0.813885 3.50715 -1.03068
-1.5709 1.81646 0.634507
-1.17314 1.86469 0.456482
-1.38842 1.7716 1.26225
-1.41453 1.5045 0.937633
-1.27576 2.97039 -0.483209
-1.69948 2.69577 -0.401213
-0.997748 2.76099 -0.0186005
0.213619 3.02922 0.621188
-0.952164 3.52983 -0.954907
-2.28656 1.86213 -0.0210914
0.655547 2.29382 0.360236
-2.47607 1.41949 0.773325
-1.3285 2.94297 -0.875739
-1.50304 2.56396 -0.159583
-1.28218 3.16594 -1.17045
1.06566 2.08423 0.0584504
-2.2939 0.760051 0.674317
-0.591601 2.71912 0.734773
-2.58119 1.37786 1.09692
-1.17764 3.13923 -0.890376
-1.31786 2.4957 0.0489942
-0.28081 3.42646 -0.85718
-2.26215 1.87773 -0.436309
1.1533 2.64244 0.357101
-0.501079 3.57995 -0.546002
-0.0543661 2.14884 -1.21183
-1.4366 2.30701 -0.562244
-0.483791 2.41905 1.01838
0.240544 2.89224 0.291655
-2.64085 0.583912 0.863958
-1.46714 2.34081 -0.599008
-2.25128 2.22342 -0.213833
-1.46835 1.64608 0.172245
0.1511 3.35861 -1.48128
-0.84971 3.15089 -0.788303
-0.341978 3.40816 -0.160899
0.0946758 3.72169 -1.26668
-0.62462 2.0566 1.367
-1.28721 1.39313 1.41941
-1.97472 1.72923 0.669495
-2.50505 1.92781 -0.584684
-0.202967 3.01898 -1.55195
-1.83129 2.46708 -0.407191
-2.73689 0.888121 1.12093
-0.53257 2.18768 0.716461
-0.540724 2.01956 1.01483
0.679228 2.25577 -0.628749
-1.07722 3.13253 -0.839302
-1.72024 2.48461 -0.0583802
-1.03398 2.37448 -0.447611
-2.00009 2.3907 -0.160267
-1.98716 1.97767 0.0325278
-1.50185 1.73559 0.434204
-1.33091 2.23442 0.357335
-0.438784 3.09312 -1.44918
-2.93092 1.97908 0.0605117
-0.112342 3.79172 -1.36281
-2.0935 0.668825 0.921102
-0.185748 2.57464 -0.514864
-2.83638 1.50203 -0.444881
-2.90241 1.71295 -0.593387
0.334812 2.74046 -0.0538081
-2.61893 1.91392 -0.592592
-0.388301 2.90033 -1.31715
-0.741062 2.49409 -0.615042
-1.7527 0.824769 1.08574
-2.31767 1.73024 0.470191
-0.86037 3.46761 -1.53103
-0.335511 2.14742 0.396862
-2.52196 1.22062 0.387097
-0.373794 3.73686 -2.2117
0.267426 3.56399 -2.21257
-0.232103 3.65828 -2.15658
-0.459652 3.17201 -2.03456
0.0811662 4.26836 -1.70743
-0.135302 3.34021 -1.92424
-0.28873 3.40194 -2.50434
-0.65606 2.977 -2.6393
-0.126195 2.41143 -3.34849
-0.55347 3.633 -2.41253
-0.342242 3.3764 -1.87062
-0.0625358 4.12186 -1.65055
-0.125507 2.91771 -3.00886
-0.461823 3.72676 -1.80772
-0.485479 3.28649 -2.44175
-0.239166 3.13306 -2.82437
-0.493348 3.78469 -1.70034
-0.080122 2.71883 -3.13381
0.0589904 3.02264 -2.79861
-0.0815789 3.11125 -2.8615
-0.667675 3.40761 -2.00758
-0.151707 2.61894 -3.22932
-0.687998 3.4139 -2.58228
0.136608 3.47139 -1.91283
-0.0146933 3.07095 -2.71415
-0.215262 3.23485 -2.78973
0.470289 3.76372 -1.94112
-0.469178 3.67259 -2.31297
-0.856375 2.3194 -3.63025
-0.252038 3.43684 -2.59644
-0.658585 3.67499 -2.31727
0.342955 4.11506 -1.66353
0.631309 3.70913 -1.54237
0.224167 3.65571 -2.18966
-0.00602228 3.15287 -2.6103
-0.674909 3.06465 -3.01125
-0.935429 3.2001 -2.87576
-1.2114 2.59137 -3.48668
-0.117463 3.33552 -2.69088
0.185246 3.29568 -2.50273
0.0957014 3.50376 -2.41798
0.30227 3.24347 -2.61995
-0.938109 2.97158 -3.00705
-0.425214 2.77926 -3.15356
-0.565616 2.5803 -3.37177
-0.175938 2.94968 -2.98544
-0.883348 2.57364 -3.43547
-0.883054 3.47993 -2.204
-0.288844 3.03538 -2.95734
0.246713 3.18837 -2.68814
