ply
format ascii 1.0
comment Created by Open3D
element vertex 400
property double x
property double y
property double z
end_header
1.1355 1.83145 -2.3749
-1.46755 2.07846 -1.46207
0.554137 1.79995 -2.02053
-0.127646 2.14223 -0.623461
0.553274 1.56258 -2.81332
0.59079 1.54144 -2.68726
0.38048 1.90913 -1.06771
0.122366 1.76479 -2.14843
-1.76477 1.75499 -1.90962
-1.98411 2.18229 -1.04785
1.14945 1.4818 -2.69519
-0.118573 1.80125 -1.60784
-0.857783 2.06112 -0.828385
-1.33521 1.92459 -1.55227
-1.02497 1.82297 -1.48719
1.6169 1.52007 -2.79717
1.10956 1.68081 -2.44524
-1.69127 1.97048 -0.947676
0.984088 1.79147 -1.63348
-1.00742 2.02692 -0.759672
-0.130871 1.76156 -2.01984
-0.492386 1.77181 -1.91396
-1.06827 1.85934 -1.42436
-0.0158562 1.75095 -1.66765
0.778539 1.69744 -1.7392
-0.210165 1.57771 -2.39212
-0.293245 1.97855 -0.777923
-0.934499 1.69786 -2.58922
-0.465296 2.03914 -0.982807
-0.680934 1.70685 -2.66627
0.867844 1.40167 -2.97525
-0.802816 1.92769 -1.25518
0.206944 2.04387 -0.852233
-1.1992 1.96234 -1.36795
0.0129314 1.96471 -1.02724
-0.121763 1.84513 -1.34566
-1.56277 1.92671 -1.9784
-0.487708 1.82532 -2.49496
0.987792 1.83297 -2.00054
0.168063 1.84611 -1.12742
-0.685684 1.94759 -1.04859
0.0552356 1.72433 -2.62358
-1.3771 2.13235 -0.914266
-0.668091 1.96271 -1.44294
-1.1724 2.07574 -1.44946
0.583005 1.91712 -1.07113
-0.304633 1.75247 -2.48372
-0.295542 2.05416 -1.11257
-0.803106 1.72564 -2.86661
-0.233543 1.98786 -1.26719
-1.86256 2.16488 -0.867868
0.241383 1.93587 -1.08865
-1.06977 1.94 -0.903567
-1.89162 2.16154 -1.16446
-1.40736 2.18101 -0.735477
-0.0736287 1.90215 -1.97303
0.579153 1.70975 -2.55196
0.787606 1.34885 -3.05647
0.37853 1.84248 -1.56926
0.118342 1.76718 -1.42386
-1.38464 2.03982 -0.761588
0.175856 1.70163 -2.59816
0.109141 2.05762 -0.95233
1.1718 1.60971 -2.76549
-0.136795 1.58432 -2.77277
-1.39507 2.07521 -0.886711
-0.593402 1.63545 -2.76727
0.112528 1.57643 -2.28074
-0.900104 2.03576 -1.07279
-0.406308 1.79589 -2.45575
-0.684035 1.52945 -2.65734
0.368984 1.80211 -1.20453
0.509972 1.50775 -2.54282
-2.00651 2.09563 -1.02253
-1.31913 1.96588 -1.40217
0.488393 1.62293 -2.66535
1.10845 1.72146 -2.29895
1.53376 1.73607 -2.3645
-0.729576 1.78024 -2.01899
-0.214866 1.65159 -2.65298
-0.951566 1.66679 -2.44309
-0.803336 1.76099 -2.68586
-0.861003 2.02888 -1.92019
-0.526435 1.59708 -2.37248
-1.41033 2.07506 -1.38419
0.671436 1.83334 -1.64159
0.500426 1.69125 -2.25054
-0.909562 1.89952 -1.86801
0.629456 1.68436 -2.12132
0.700358 1.52859 -2.74987
-1.03766 2.12095 -2.004
-0.903614 1.8441 -1.53458
0.100233 2.00255 -0.919746
-1.28429 1.83081 -1.28936
-0.960397 1.71191 -2.41541
0.737075 1.71286 -2.15069
-1.29477 1.80569 -1.7764
1.05001 1.51546 -2.75734
-0.22935 1.50228 -2.97156
-1.0156 1.98086 -1.62793
-0.61058 2.0611 -1.91877
-0.997379 1.71256 -2.12355
-0.408467 1.97117 -0.90153
0.594595 1.56698 -2.5237
0.957242 1.43911 -2.53198
-0.498014 1.85384 -2.1043
-1.39556 1.8905 -1.58256
0.00354037 1.62454 -2.59103
-0.130024 1.83857 -2.25098
-0.504586 1.99186 -0.862753
0.59026 1.6933 -1.76324
-1.20802 2.00016 -1.39295
-1.1868 2.19674 -0.697534
0.0144781 2.13927 -0.811898
-0.29742 1.61984 -2.64345
0.596979 1.66763 -2.54964
-1.1803 1.79561 -1.44726
-1.24733 1.98867 -0.912841
0.11845 2.19316 -0.552188
0.00760474 1.56456 -2.85414
0.156362 1.93066 -1.20874
1.61314 1.62633 -2.60719
-0.930742 1.84418 -1.22927
-0.877695 1.7422 -2.99538
-1.1726 1.76023 -2.60441
0.456456 1.99655 -0.804675
-0.174472 1.9567 -1.2804
1.34895 1.43127 -2.92175
-1.11472 2.00863 -2.1629
1.77956 1.70479 -2.59522
-1.08131 1.93684 -2.41259
-0.92193 1.6676 -2.80839
0.61925 1.78043 -2.19671
0.452189 1.92815 -1.17824
1.02766 1.78597 -2.0972
-0.140407 1.90338 -1.56644
0.405357 1.67109 -1.87347
-1.15311 1.939 -1.37033
0.901884 1.6621 -1.97431
-1.43095 2.02481 -0.817576
-0.633812 2.11664 -0.619197
1.30824 1.86359 -1.86408
0.649673 1.97717 -0.946381
-0.243035 1.65119 -2.63624
-1.33997 1.91762 -1.75763
-0.91564 2.13522 -0.627864
-1.34855 2.0601 -1.00477
-0.316854 1.78872 -0.983045
-1.16708 1.98482 -1.5152
-0.451146 1.48172 -2.87573
1.71901 1.54113 -2.8325
1.05457 1.84633 -1.8923
0.973147 1.78014 -1.70481
-0.0310814 1.67521 -2.34534
0.147704 1.86644 -1.18399
-1.55017 2.36944 -0.629322
-0.0847589 2.09076 -0.671844
1.47315 1.60703 -2.51323
-0.057092 1.9695 -0.791472
1.35837 1.84258 -2.05961
0.617684 1.7875 -1.83431
-0.501733 1.99733 -0.828426
-0.132047 1.94383 -0.817242
-0.0105009 1.87299 -2.42688
-0.507288 1.68708 -1.7344
0.867635 1.47117 -2.8681
0.073134 1.92241 -0.900062
-0.854707 1.79976 -2.93553
0.861967 2.07716 -1.80612
-0.412736 2.03234 -0.765879
1.00329 1.64567 -2.28364
0.944821 1.6743 -2.63521
0.346017 1.79948 -1.61059
0.849576 1.78908 -1.9875
0.00658827 1.69018 -2.47105
0.141412 1.59413 -2.41797
-0.315232 1.6758 -2.2762
-1.00336 1.93032 -1.98107
0.190551 1.91237 -1.41956
-0.888172 1.83588 -1.31583
-0.13291 1.61161 -2.19531
-0.448437 1.98621 -1.13531
-0.106361 1.99342 -1.17773
-1.01089 1.81539 -1.83415
-0.284895 1.71024 -2.41716
-1.07725 1.91744 -1.59481
-1.71999 2.34057 -0.893314
-1.77646 2.03911 -0.919239
0.861479 1.85302 -1.56905
-1.63825 2.23276 -0.736391
1.0865 1.89369 -2.17534
0.979989 1.65737 -2.0102
0.654246 2.01777 -0.897874
-0.242759 1.62354 -2.69031
-0.660563 1.80039 -2.50165
-0.533272 1.78479 -2.33779
0.276282 1.58491 -2.78841
-0.0217563 1.8946 -1.79107
-1.59482 2.00008 -1.0635
0.930284 1.76448 -1.75043
1.03109 1.79256 -1.95852
-0.485102 1.68974 -2.17424
-0.424829 1.86824 -2.31381
-0.669949 1.92399 -1.0819
-0.590518 1.60608 -2.53217
-0.0601056 1.50318 -2.95629
-0.571761 1.84087 -2.61942
-0.419215 1.88765 -1.13033
0.387253 1.98663 -1.54621
0.226316 1.38536 -2.96701
-0.181085 1.94078 -0.953409
-0.763184 1.72284 -2.70474
-1.35853 1.88605 -1.45932
-1.26593 2.14518 -0.69665
0.725956 2.05386 -1.0741
0.89194 1.69172 -2.68022
-0.946476 1.90922 -1.13949
-0.772637 1.77797 -2.91013
-1.48925 1.85653 -2.06028
0.891887 1.78483 -1.96653
-0.867437 1.99469 -2.0728
-0.641239 1.96552 -1.57806
-0.20882 2.06094 -0.67615
-0.291613 1.45058 -2.689
-0.934076 1.72487 -1.59046
-0.11606 1.74724 -1.62621
0.689401 1.57963 -2.77334
0.50504 1.63028 -2.7428
-0.956627 2.01409 -1.18256
-0.446242 1.85113 -1.22891
-0.401754 1.75334 -2.22664
-0.350679 1.66594 -2.35187
-0.342301 2.03042 -0.72668
0.999746 1.6443 -2.67855
-0.179967 1.81498 -2.18336
0.30572 1.82712 -2.58954
-0.540905 1.8882 -2.70414
0.998953 1.68372 -2.22326
0.102325 1.8327 -1.25676
0.0272068 1.9382 -1.36311
-0.211594 1.8601 -1.96502
-1.48237 1.82555 -1.38587
-1.03648 1.70133 -2.98533
0.26332 1.69129 -2.37903
-1.50604 1.99678 -1.72279
-0.0951425 1.71825 -2.18123
-0.0694105 1.81258 -1.68006
-0.581772 2.14021 -0.935611
1.33143 1.63797 -2.52947
-0.465201 1.83842 -2.18918
1.19874 1.79132 -1.98257
-0.541274 1.61821 -2.98385
0.311077 2.1819 -0.988062
-0.827363 1.67536 -1.77761
-0.844156 1.65426 -2.69099
-0.431089 1.9212 -0.952464
-0.214438 1.64622 -2.74152
-0.773468 2.08866 -0.670289
-1.65563 1.97682 -0.965511
0.420403 1.6144 -2.23921
1.26214 1.51649 -2.81336
-1.22394 1.67259 -2.26415
1.4934 1.63912 -2.60748
-0.43057 1.7229 -1.5557
-1.59195 1.88748 -1.25545
-0.745132 1.88269 -2.5245
0.0304768 1.64692 -2.45888
-1.05539 1.88158 -2.3107
-0.332434 1.66438 -2.45663
0.00519357 1.59453 -2.82615
0.424721 1.99988 -0.909388
0.692328 1.96991 -1.57941
-0.667606 1.8109 -1.50315
-0.948964 1.84035 -2.70493
-0.828504 1.90698 -0.891785
-0.702033 1.78652 -2.84049
0.933301 1.75655 -1.63569
-0.558635 1.70286 -2.89038
-1.65914 1.99812 -1.25275
0.524265 2.0705 -1.08255
-0.381995 1.95338 -1.73888
0.822058 1.55715 -2.68366
-0.701712 1.57339 -2.77368
0.00695761 1.61569 -2.35803
-1.46517 1.9418 -1.49416
1.27431 1.64226 -2.4383
1.12212 1.97508 -1.77196
0.691981 1.98191 -1.4955
-0.79749 1.66115 -2.5316
-1.81323 1.94369 -1.56774
-0.846503 1.75599 -2.70964
-1.64273 2.18894 -1.29876
0.244361 1.56101 -2.76856
-0.144795 1.71636 -1.85144
-1.46186 2.03929 -1.62051
1.00489 1.54542 -2.76092
-1.20533 1.98276 -1.41651
-1.20356 1.72747 -2.63094
0.0747141 1.69803 -1.36998
1.53352 1.73143 -2.41799
-1.11395 1.96903 -1.53671
0.789147 1.94878 -1.78685
-1.23533 1.88627 -1.0992
1.28627 1.7147 -2.17271
-1.33697 1.92972 -1.23584
-0.565309 1.77825 -1.77291
1.51291 1.51594 -2.76136
0.369724 1.70742 -1.86156
-0.935609 1.8984 -1.18848
0.791618 1.60427 -2.40384
-1.51151 1.81742 -1.12779
0.424383 1.75694 -2.62399
-0.0592151 1.79381 -2.17597
0.466091 1.81131 -1.25042
0.432885 1.67551 -2.45964
0.151326 1.68207 -2.20566
-0.342472 1.59945 -2.92786
-0.764752 1.85682 -0.972161
-0.628127 2.12667 -0.649478
-0.83003 1.50287 -3.17107
1.43485 1.58035 -2.8194
1.04835 1.38954 -2.82889
-1.33493 1.89039 -1.30106
0.632518 1.80099 -1.38642
0.191415 1.90489 -1.24191
0.169537 1.81966 -2.0385
-1.48945 2.11014 -1.09938
-1.71205 2.04999 -1.55245
-1.43636 2.12468 -0.738904
-0.0429469 1.66017 -2.00473
0.164761 1.70212 -2.33389
-0.860976 1.84303 -2.66067
-0.770763 1.86354 -0.995993
-0.835459 1.76305 -2.64751
-0.0437073 2.1433 -0.67723
-0.861126 1.9853 -2.25711
-0.353449 1.86571 -1.72216
-1.05429 1.97866 -1.62888
-0.808964 2.09577 -1.49336
-2.03114 2.15881 -0.97688
-0.277465 1.86752 -1.12995
0.052131 1.77395 -1.16493
0.698969 1.42378 -2.72927
0.386007 1.44325 -2.8543
0.465504 1.58926 -2.51466
-0.173055 1.84312 -1.23782
-0.714472 1.80816 -1.25559
-0.487962 1.69212 -2.23356
-0.992492 1.63889 -1.98836
0.110625 1.82323 -2.20215
-0.299025 1.82296 -1.98759
-1.72282 2.12373 -1.02054
-0.194164 1.62937 -2.42589
1.23777 1.80919 -2.05397
0.117954 1.62077 -2.61652
0.899999 1.65586 -2.22031
0.123316 2.10862 -0.684799
1.02918 1.60948 -2.76635
-1.25662 1.88999 -1.10235
0.714458 1.9842 -1.38617
0.303702 1.82809 -1.3374
0.339911 2.15487 -0.832529
0.188743 1.79718 -2.05764
-0.785656 2.09016 -0.720389
0.0660839 2.19261 -0.598594
0.300407 1.81454 -1.85945
-0.935546 1.87625 -0.928842
0.937665 1.5165 -2.81708
-0.677184 2.09216 -0.779573
-0.507519 1.98011 -1.73961
0.864377 1.74756 -1.60237
1.15592 1.6085 -2.68
-0.591465 1.9124 -2.01004
0.264196 1.51951 -2.87074
1.69333 1.55346 -2.80343
-1.74463 1.94227 -1.68693
-0.537153 1.95967 -1.70862
-0.018384 1.67808 -2.65528
-0.568774 1.76339 -1.37545
0.745923 1.59481 -2.61356
-1.34469 1.69717 -1.69356
0.870247 1.55364 -2.60508
1.20972 1.90891 -1.87929
-1.30269 2.16085 -1.47179
-0.039916 1.64398 -2.25359
-1.31808 1.84388 -1.05339
-1.05465 2.05918 -1.42964
1.23178 1.68418 -2.45342
-1.12618 2.04499 -0.989427
0.645834 1.73174 -2.17088
0.455396 1.52321 -2.79302
-1.51101 2.09603 -1.03555
-0.437802 1.95551 -1.02367
-1.34607 1.89103 -1.97012
1.26708 1.57468 -2.40571
-0.407627 1.81195 -1.27302
0.625035 1.8696 -2.12654
-0.937409 1.66794 -2.30582
-1.35113 2.12529 -0.891092
-0.228185 2.15028 -0.718665
