ply
format ascii 1.0
comment Created by Open3D
element vertex 250
property double x
property double y
property double z
end_header
-0.479341 3.03929 -0.995617
-1.00428 2.15502 1.0572
-1.6355 1.30137 -1.48432
-0.878531 2.78444 -1.17333
-1.13695 2.211 -1.82735
-1.4133 1.80987 -1.2686
-0.932697 2.44818 0.270439
-0.462397 3.2335 0.945205
-1.18745 1.83653 1.07398
-0.156355 2.59611 1.64282
-1.63665 1.19263 -1.43709
-0.989995 2.78051 0.0491728
-1.29932 1.96309 -1.89798
0.550271 3.20404 1.68981
-1.53406 1.85035 -1.59787
-0.108358 3.91513 0.419432
-0.483254 3.4641 0.447598
-1.11072 2.27625 -1.27455
-1.60609 1.71407 -0.153302
-0.18212 3.76472 0.818697
-1.01279 2.41441 0.691794
-0.06812 3.63633 1.30485
-1.10735 1.92431 -0.877524
-1.39697 1.70783 0.868339
-0.271047 2.18118 1.5846
-1.16569 2.21619 -0.133194
-1.1209 1.97872 -1.35254
-0.429075 3.33543 0.0171186
-1.26914 2.15723 -0.283657
-0.346625 1.92431 1.77143
0.115025 3.94743 1.28459
0.456961 3.9502 1.64316
-1.1477 1.90432 1.15596
-1.64248 1.4032 -1.96118
-0.608338 2.08093 1.50754
-1.8357 0.902618 -1.13171
-1.11922 2.41528 -2.19097
0.467125 3.1092 1.63217
-1.61967 1.93293 -0.159274
-0.917171 2.50518 -1.4542
-0.812326 2.69952 -1.22957
-0.159226 3.04902 1.47081
-1.33204 1.8603 -0.309255
-1.60473 1.34841 -1.88211
-1.56478 1.87222 -2.39697
-0.352678 2.29716 1.76288
-2.14186 0.709479 -2.26293
-0.108848 2.14396 1.89939
-1.4867 1.78826 -0.880319
-1.05088 2.61275 0.118275
-0.205886 3.07496 1.46653
-2.03574 0.774949 -1.94703
-0.675503 2.75149 0.987475
-0.583987 2.34977 1.19105
-0.937214 2.35972 0.878013
-0.161128 2.63536 1.62454
-1.44457 1.61893 0.909616
-1.23075 2.28701 -0.243336
-0.577555 2.99984 -0.558768
-1.57976 1.63944 -2.06882
0.511437 3.42722 1.92031
0.083338 2.59088 1.6693
-0.591014 1.67952 1.78092
0.177982 2.5721 1.88719
-1.2507 2.02094 -1.78913
-2.21784 0.451009 -1.95613
-0.998647 2.71905 0.135396
-0.225857 3.60054 1.01222
-0.314037 3.56572 -0.0967753
-2.09002 0.589909 -1.85329
-0.450001 3.25846 0.894216
-1.62359 1.13801 -0.892309
-1.0392 2.69606 -1.23523
-0.106476 3.42365 1.0564
-2.19684 0.516746 -1.88313
-1.09213 2.43959 -1.2347
-0.526754 2.51776 1.43887
0.552896 2.99522 2.15016
-1.09708 2.32934 -0.747664
-0.0794745 2.92389 1.5739
-0.211057 3.24772 1.2692
-1.5049 1.50496 -1.63479
-0.045441 3.59259 1.03956
-0.631731 2.65688 1.21269
-0.4317 3.44587 -0.394465
-0.0465528 3.88752 1.00406
-0.585363 2.97929 -1.18569
0.326415 3.27645 1.65089
1.17734 4.25437 2.39752
-2.13026 0.630151 -2.04793
-1.11422 2.53522 -1.12663
-0.548909 3.08052 -0.35984
-1.48662 1.79618 0.0134303
-0.0797887 3.66201 -0.206362
-1.87717 0.98191 -1.70886
-0.821371 2.02086 1.29897
-0.0797758 3.63792 0.995565
-0.920798 2.12306 1.20602
-1.65411 1.0655 -1.3508
-2.06224 0.664924 -1.64905
-0.55569 2.18203 1.32906
-1.25028 1.95322 -0.2884
-1.48869 1.2706 -0.851974
-1.66119 1.50354 0.261033
-0.457058 1.57879 1.84082
-1.57465 1.31081 -1.70824
-0.915001 1.58583 1.39314
-1.31663 1.64394 -1.10817
-0.686171 2.27417 1.37509
-1.60171 1.61246 -0.415335
-0.359042 3.57285 0.6354
-0.801994 1.92701 1.47332
-1.19767 2.336 -2.23008
-2.01984 1.00456 -0.645884
-1.27393 1.56626 -1.37078
-1.5765 1.50816 -1.98598
-1.07545 2.30062 -1.80226
-1.71913 1.38906 0.566649
-1.3473 1.72024 -1.43701
-0.107189 2.1518 1.79511
-1.59429 1.3772 -1.87586
0.0999759 4.13831 0.809374
-0.995329 2.21418 0.987661
-1.04007 2.41543 0.359102
-0.914917 2.39307 -1.06114
-0.50749 3.25353 -0.659391
-1.00775 2.15664 -1.4694
-0.683254 3.31414 -0.117823
-1.22474 2.14508 -1.2509
-0.27802 3.72911 0.57165
-1.19153 1.9736 -0.794597
-1.48242 1.73659 -0.337223
-1.06118 1.90715 -0.739237
-1.51087 1.4646 -0.744696
-0.591179 3.25395 -0.0706219
-0.562507 3.16672 -0.577154
-0.796181 2.84448 0.0903449
-0.62147 2.68332 1.21386
-0.191784 3.84479 0.426034
-1.0388 2.37897 -1.39054
-0.971371 1.61992 1.47246
-1.28381 1.91333 -1.78684
-0.73861 3.18732 -0.0561737
-0.780768 2.86313 -0.435989
-0.550439 3.46904 0.0736848
-0.553561 1.41353 1.77046
-1.96647 0.895676 -1.72214
-0.725568 2.66363 0.349953
-1.34522 1.88982 -1.93415
-0.578352 3.38746 0.130396
-0.880615 2.67681 -0.297009
-0.313003 3.41313 1.03058
-1.2076 2.31454 -1.28283
-0.297205 2.04162 1.96192
-0.221959 3.69556 0.818909
-0.902884 1.79737 0.95261
-1.29149 2.36711 -0.331473
-1.01164 2.2004 0.355716
-0.702284 2.5017 1.24927
-2.02616 0.838524 -2.12505
-1.25621 2.42818 -0.349311
-0.660762 2.88224 -1.26609
-1.68215 1.55752 -0.622208
0.163923 3.36393 1.43054
-0.642505 3.23672 0.439805
-0.361978 3.39988 0.88121
0.276633 3.79705 1.45295
-1.23152 1.80521 0.0876685
-1.53274 1.29143 -0.722227
-1.07888 2.1003 -1.22599
-1.0174 2.54401 -1.50338
-0.335862 2.96393 1.06455
-0.768202 2.90742 -0.747216
-1.77928 1.28478 -2.18453
-1.37174 1.84008 0.324783
-1.51292 1.61686 0.241943
-0.443863 1.79057 1.53777
-0.617608 3.32291 0.221924
-0.662361 2.92279 -0.69804
-1.30613 2.26175 0.0582424
-0.605956 2.96817 -0.988222
-1.0525 2.36482 -1.07444
-1.42643 1.76683 -0.695764
-1.01151 2.36672 -0.418185
-0.490462 3.07171 0.874901
-0.740128 2.88654 -2.01444
0.259396 3.9457 1.29583
-2.09713 0.667322 -1.57705
-0.972141 2.24891 0.887082
-1.32634 2.12751 -1.93189
-1.04162 2.48371 -1.94552
-0.685634 2.31778 1.33151
-0.944867 2.60734 -1.62499
-0.646716 2.7933 0.863566
-1.21447 2.298 0.383786
-2.0933 0.683687 -1.22569
-1.03963 2.25962 -1.52888
-0.263402 3.71488 0.579002
-1.51112 1.66047 0.560161
-1.51681 1.63697 -1.81133
0.897783 4.26356 1.05155
1.2701 3.97932 1.54667
0.742154 4.06183 1.17443
-0.141648 3.30374 0.908984
1.45696 4.83823 1.51037
0.202918 3.4803 1.20706
0.866124 3.8803 1.06425
0.034115 3.26288 0.713768
2.45306 3.47979 0.773065
1.08811 4.31296 0.846619
0.023838 3.52804 1.04216
0.939361 4.53686 1.39286
2.25159 3.90234 0.925553
0.298219 4.04158 0.99758
0.352237 3.63348 0.905632
1.24705 3.74867 1.0096
0.286465 4.1077 0.974434
2.34099 3.72168 0.906192
1.42995 3.59051 1.22497
2.11933 4.0229 1.03072
-0.0571301 3.6605 0.774844
2.09735 3.55053 0.853149
0.705572 3.99113 0.724387
0.579524 3.65486 1.45183
1.12693 3.54382 1.20374
1.61794 3.99418 1.008
1.33756 4.12295 1.75885
0.910127 4.24392 0.95178
1.67052 3.36608 0.202569
1.32541 4.09024 1.05667
0.905988 4.32306 0.774765
1.25344 4.4922 1.73032
0.963111 3.84657 1.89377
1.32073 4.10992 1.52589
1.03498 3.58407 1.23854
1.41669 3.93101 0.575579
1.0435 4.0198 0.410028
0.62986 3.35405 0.0879611
1.73235 4.10174 1.10423
1.34519 3.77615 1.40774
1.41359 4.04965 1.37107
1.91611 3.91195 1.43445
1.78239 4.09844 0.242821
2.31018 3.91229 0.607207
1.83653 3.5753 0.505656
1.56282 3.6699 0.984481
1.59967 3.60214 0.245746
0.133489 3.901 0.594004
1.50263 3.77743 0.911149
1.95349 3.89533 1.36735
