ply
format ascii 1.0
comment Created by Open3D
element vertex 250
property double x
property double y
property double z
end_header
-1.78816 2.47975 1.14449
-0.785012 0.79788 2.36058
-2.45899 0.669493 0.182723
-2.09003 2.10939 0.987628
-2.52825 1.76808 0.273657
-2.29738 1.10433 0.552231
-1.2606 1.34069 1.91462
-0.718499 1.96007 2.69721
-0.821738 0.441992 2.25244
0.0908403 1.37931 2.75346
-2.41319 0.573615 0.161443
-1.48593 1.62521 1.94057
-2.62466 1.51285 0.135873
0.508537 2.20254 2.88478
-2.56715 1.17374 0.360499
-0.932362 2.86302 2.56843
-1.04219 2.27898 2.44533
-2.20012 1.63317 0.709915
-1.78163 0.536678 1.39641
-0.709828 2.56065 2.80236
-1.04378 1.10698 2.22488
-0.35118 2.37612 3.0726
-1.9049 1.23986 0.820046
-1.06547 0.302983 2.0978
0.0933643 1.00873 2.51018
-1.58936 1.16701 1.55389
-2.19516 1.43758 0.497829
-1.25645 2.38562 2.05279
-1.72813 1.11248 1.4388
0.195983 0.712794 2.53764
-0.28584 2.70991 3.16129
0.18228 2.7666 3.31356
-0.773858 0.493955 2.34326
-2.76155 0.910393 -0.114857
-0.195204 0.786873 2.5166
-2.31602 0.137236 0.295175
-2.74697 2.04509 0.0975654
0.441641 2.10227 2.81476
-1.82956 0.686639 1.50872
-2.22307 1.98112 0.641938
-2.06539 2.10843 0.882814
-0.132587 1.79101 2.88128
-1.72278 0.864291 1.2792
-2.69556 0.874115 -0.0893297
-3.05638 1.45631 -0.212015
0.0727242 1.01084 2.74902
-3.12963 0.211415 -0.560972
0.38708 0.968069 2.67825
-2.12491 0.911963 0.854471
-1.45239 1.44094 1.92043
-0.184539 1.7921 2.91153
-2.87359 0.20072 -0.329555
-0.712288 1.4477 2.52304
-0.404028 1.10401 2.41186
-0.894658 1.05763 2.32075
0.0663086 1.41363 2.76345
-1.05152 0.192352 2.09349
-1.70723 1.21762 1.5274
-1.60298 2.24384 1.48176
-2.8282 1.15878 -0.0882224
0.524328 2.29083 3.20722
0.303691 1.48532 2.68326
0.0741919 0.393008 2.4926
0.490657 1.45385 2.80994
-2.53641 1.54284 0.231241
-2.94364 -0.13701 -0.451212
-1.43024 1.54475 1.97486
-0.600074 2.349 2.87444
-1.28708 2.6606 2.05457
-2.82882 0.00556847 -0.337692
-0.752853 2.00882 2.67252
-2.09266 0.356723 0.539916
-2.20962 1.96784 0.939556
-0.404491 2.24007 2.7535
-2.89068 -0.10818 -0.372541
-2.19743 1.75024 0.820993
-0.298266 1.19939 2.68727
0.797995 1.89973 3.12424
-1.90942 1.50116 1.13147
0.0227893 1.69882 2.86002
-0.335111 1.98512 2.85755
-2.50374 0.95232 0.142355
-0.417109 2.4124 2.81714
-0.547322 1.33236 2.63318
-1.50044 2.60025 1.79834
-0.550087 2.67358 2.97135
-1.94661 2.43408 0.998066
0.287796 2.15838 2.97582
1.0488 3.14226 3.81862
-2.96626 0.0742458 -0.453564
-2.17049 1.77025 0.959506
-1.49109 2.25336 1.66685
-1.62886 0.612842 1.53183
-1.21422 2.90921 1.95537
-2.67672 0.365469 -0.0869142
-0.455483 0.69656 2.39679
-0.482876 2.44616 2.8224
-0.622915 0.762411 2.42337
-2.35465 0.442348 0.165421
-2.70137 0.00120402 -0.156701
-0.264421 0.94392 2.41362
-1.67692 0.974902 1.32092
-2.00894 0.52158 0.601916
-1.54936 0.210153 1.61445
0.242702 0.361926 2.43313
-2.55768 0.796627 0.00673575
-0.351608 0.272592 2.25204
-2.11222 0.985794 0.557017
-0.386697 0.94487 2.55471
-1.90632 0.555205 1.14461
-0.881615 2.37143 2.61016
-0.326702 0.579473 2.47244
-2.81423 1.95928 0.0531288
-2.18721 -0.0633753 0.769096
-2.23016 1.05318 0.312259
-2.76033 1.03998 -0.0936676
-2.49212 1.86238 0.322467
-1.37995 -0.0218019 1.79421
-2.33318 1.13733 0.359951
0.336831 1.00534 2.59972
-2.68289 0.894441 -0.0759345
-0.612426 3.01205 2.91547
-0.840471 0.877088 2.34185
-1.27044 1.21926 1.99313
-1.97914 1.76513 0.877154
-1.65854 2.50348 1.51823
-2.23259 1.68273 0.476436
-1.48409 2.25793 2.00933
-2.23395 1.45948 0.690413
-0.913236 2.56761 2.6297
-1.92305 1.197 0.932868
-1.81078 0.692011 1.2354
-1.79455 1.20786 0.901803
-1.99964 0.61261 0.791074
-1.39271 2.2571 1.98934
-1.6346 2.38058 1.55138
-1.35407 1.77741 1.95165
-0.563378 1.36867 2.65319
-0.965783 2.75697 2.55866
-2.23915 1.79198 0.656774
-0.370315 0.248591 2.35477
-2.5391 1.44541 0.187025
-1.46419 2.11264 2.00594
-1.64023 1.97967 1.56045
-1.32047 2.3854 2.19697
0.179501 0.202864 2.31753
-2.72331 0.251871 -0.117766
-1.12668 1.59779 2.03028
-2.67166 1.45084 0.0880512
-1.29499 2.29186 2.20623
-1.59041 1.73508 1.59474
-0.59638 2.14472 2.80808
-2.274 1.60504 0.751369
0.292401 0.775018 2.73738
-0.737218 2.49521 2.78405
-0.61361 0.574983 2.02145
-1.81153 1.2699 1.52101
-1.21556 1.08225 1.87009
-0.542308 1.16361 2.59875
-2.98501 0.317567 -0.429996
-1.81129 1.34247 1.53013
-2.02195 2.34537 0.908044
-2.06182 0.536404 0.982322
0.0207063 2.21323 2.91266
-1.12905 2.0336 2.37525
-0.73525 2.17274 2.7144
-0.0116401 2.61126 3.14143
-1.43048 0.751869 1.52212
-1.96918 0.465924 0.723268
-2.11878 1.50729 0.644417
-2.31607 1.9617 0.651199
-0.445279 1.75389 2.57593
-1.81119 2.12418 1.34464
-2.96782 0.827445 -0.299267
-1.39178 0.609307 1.75754
-1.49041 0.391753 1.61946
0.0449519 0.626154 2.31164
-1.25611 2.18921 2.2519
-1.71916 2.18303 1.35983
-1.5764 1.04655 1.75978
-1.85015 2.34755 1.14784
-2.06883 1.6652 0.891086
-1.97881 0.869542 0.964756
-1.67859 1.46815 1.37519
-0.702134 1.8228 2.54793
-2.51331 2.56983 0.379429
-0.152413 2.77143 3.11261
-2.68245 -0.0438111 -0.0920249
-0.852419 0.92889 2.26197
-2.67583 1.61798 0.197536
-2.56621 2.05384 0.293217
-0.420482 0.992847 2.54544
-2.34791 2.09256 0.571778
-0.750929 1.5258 2.4348
-1.32907 1.00882 1.99174
-2.49119 -0.147184 0.181798
-2.29915 1.75478 0.492121
-0.878538 2.55224 2.61536
-1.3028 0.305287 1.87384
-2.63745 1.1033 0.083609
0.125398 3.43436 2.88609
0.764964 3.24041 2.97166
0.133373 3.15019 2.916
-0.468642 2.17072 2.58136
0.62528 4.03938 3.37806
-0.095323 2.39468 2.79221
0.226685 3.10569 2.68398
-0.416348 2.28938 2.34485
1.39426 3.73143 1.69763
0.144981 3.64297 2.69437
-0.33803 2.39363 2.75607
0.254081 3.56459 3.29151
1.19843 3.90902 2.12425
-0.304855 2.96246 2.92444
-0.180583 2.69015 2.59649
0.529268 3.22046 2.43683
-0.348843 3.01821 2.95011
1.30982 3.81939 1.97542
0.832194 3.12073 2.44779
1.1196 3.89898 2.31782
-0.582944 2.54399 2.65605
1.14848 3.56974 1.91803
-0.114604 3.22228 2.54455
0.275647 2.65089 2.94991
0.603268 2.92941 2.50735
0.736141 3.61503 2.45236
0.886078 3.32168 3.19383
0.0871244 3.45813 2.79457
0.525858 3.4115 1.4617
0.510608 3.51963 2.6436
-0.0381439 3.57929 2.70818
0.693352 3.58203 3.41443
0.747022 2.86305 3.26786
0.753483 3.37814 3.01387
0.539188 2.90141 2.5884
0.365947 3.60198 2.15605
-0.03711 3.53027 2.20854
-0.321402 2.88281 1.71737
0.842721 3.73003 2.54902
0.80971 3.16354 2.72283
0.760117 3.42999 2.82939
1.21864 3.56704 2.62845
0.405286 4.04619 1.88008
1.06457 4.05575 1.86966
0.754029 3.5659 1.75639
0.779626 3.33448 2.2658
0.423924 3.54783 1.65472
-0.603944 2.89489 2.59114
0.661665 3.41251 2.29243
1.21571 3.59603 2.55528
