ply
format ascii 1.0
comment Created by Open3D
element vertex 400
property double x
property double y
property double z
end_header
-2.75882 1.1355 -0.473553
-2.44798 -1.46755 0.412839
-2.63333 0.554137 -0.184204
-1.85801 -0.127646 1.03349
-3.06092 0.553274 -0.89821
-3.05541 0.59079 -0.783184
-2.12676 0.38048 0.604019
-2.71644 0.122366 -0.292247
-2.85451 -1.76477 -0.000298755
-2.33336 -1.98411 0.822599
-3.09085 1.14945 -0.801138
-2.42975 -0.118573 0.144699
-1.98017 -0.857783 0.845572
-2.48658 -1.33521 0.274896
-2.41161 -1.02497 0.266828
-3.06349 1.6169 -0.898596
-2.88084 1.10956 -0.555737
-2.21041 -1.69127 0.784108
-2.42606 0.984088 0.113473
-2.00022 -1.00742 0.908424
-2.66185 -0.130871 -0.187603
-2.62209 -0.492386 -0.09395
-2.37044 -1.06827 0.327668
-2.48383 -0.0158562 0.0864567
-2.53344 0.778539 0.0132855
-2.93726 -0.210165 -0.52196
-2.02167 -0.293245 0.87902
-3.13038 -0.934499 -0.589304
-2.02541 -0.465296 0.700788
-3.11403 -0.680934 -0.669389
-3.21865 0.867844 -1.06144
-2.22437 -0.802816 0.46466
-1.97406 0.206944 0.812046
-2.33347 -1.1992 0.411438
-2.08336 0.0129314 0.649531
-2.28223 -0.121763 0.363951
-2.85587 -1.56277 0.00260736
-2.94694 -0.487708 -0.518231
-2.60393 0.987792 -0.162717
-2.19308 0.168063 0.545674
-2.11234 -0.685684 0.633086
-2.94434 0.0552356 -0.689753
-2.07032 -1.3771 0.826538
-2.30236 -0.668091 0.323712
-2.36572 -1.1724 0.390247
-2.11312 0.583005 0.598249
-2.92459 -0.304633 -0.546413
-2.06771 -0.295542 0.594769
-3.26859 -0.803106 -0.797928
-2.17229 -0.233543 0.456
-2.18564 -1.86256 0.934177
-2.12225 0.241383 0.59228
-2.09652 -1.06977 0.768416
-2.37372 -1.89162 0.714103
-1.98013 -1.40736 0.988123
-2.57553 -0.0736287 -0.118312
-2.8973 0.579153 -0.643661
-3.27073 0.787606 -1.14298
-2.38862 0.37853 0.183315
-2.3599 0.118342 0.285629
-2.0481 -1.38464 0.931685
-2.93573 0.175856 -0.677305
-1.99671 0.109141 0.727028
-3.01 1.1718 -0.851938
-3.09471 -0.136795 -0.83466
-2.07755 -1.39507 0.83342
-3.16325 -0.593402 -0.779581
-2.87486 0.112528 -0.436956
-2.09964 -0.900104 0.640147
-2.91475 -0.406308 -0.504541
-3.14704 -0.684035 -0.720276
-2.24137 0.368984 0.470334
-3.02788 0.509972 -0.664106
-2.32843 -2.00651 0.809974
-2.37867 -1.31913 0.397397
-2.99053 0.488393 -0.754388
-2.79784 1.10845 -0.426997
-2.79799 1.53376 -0.486436
-2.70885 -0.729576 -0.159552
-3.02826 -0.214866 -0.714519
-3.04098 -0.951566 -0.493068
-3.15298 -0.803336 -0.650433
-2.62893 -0.861003 0.00913868
-2.94505 -0.526435 -0.491068
-2.37795 -1.41033 0.460308
-2.4264 0.671436 0.122848
-2.79816 0.500426 -0.39097
-2.61769 -0.909562 0.00308494
-2.74145 0.629456 -0.288087
-3.08006 0.700358 -0.840903
-2.73332 -1.03766 0.00670324
-2.41814 -0.903614 0.2309
-2.02339 0.100233 0.747855
-2.33494 -1.28429 0.436155
-3.01934 -0.960397 -0.45566
-2.74021 0.737075 -0.306175
-2.6429 -1.29477 0.06627
-3.09009 1.05001 -0.849653
-3.21483 -0.22935 -1.01767
-2.46509 -1.0156 0.213646
-2.57163 -0.61058 0.000165822
-2.83219 -0.997379 -0.241055
-2.0434 -0.408467 0.761358
-2.98433 0.594595 -0.638489
-3.05268 0.957242 -0.671422
-2.71042 -0.498014 -0.213727
-2.52394 -1.39556 0.245957
-2.99066 0.00354037 -0.679353
-2.75135 -0.130024 -0.349765
-2.02007 -0.504586 0.799043
-2.5555 0.59026 -0.00333011
-2.34468 -1.20802 0.406739
-1.91046 -1.1868 1.00372
-1.89564 0.0144781 0.859419
-3.04903 -0.29742 -0.709536
-2.92658 0.596979 -0.646656
-2.41741 -1.1803 0.297832
-2.09522 -1.24733 0.77876
-1.80603 0.11845 1.10433
-3.10859 0.00760474 -0.918454
-2.17426 0.156362 0.491579
-2.94407 1.61314 -0.714067
-2.25811 -0.930742 0.469959
-3.3752 -0.877695 -0.875681
-3.20591 -1.1726 -0.547365
-1.98404 0.456456 0.844141
-2.19309 -0.174472 0.438503
-3.17445 1.34895 -1.014
-2.87055 -1.11472 -0.141873
-2.87691 1.77956 -0.69742
-3.04408 -1.08131 -0.349431
-3.27249 -0.92193 -0.762141
-2.72453 0.61925 -0.330698
-2.15913 0.452189 0.514771
-2.6733 1.02766 -0.250104
-2.36078 -0.140407 0.199835
-2.62556 0.405357 -0.0937449
-2.33146 -1.15311 0.398556
-2.66963 0.901884 -0.180047
-2.07989 -1.43095 0.882649
-1.88905 -0.633812 1.04002
-2.50613 1.30824 -0.0540809
-2.02608 0.649673 0.711817
-3.02529 -0.243035 -0.699177
-2.63108 -1.33997 0.126507
-1.89073 -0.91564 1.03974
-2.12974 -1.34855 0.730726
-2.21114 -0.316854 0.673751
-2.419 -1.16708 0.308922
-3.23214 -0.451146 -0.923188
-3.04301 1.71901 -0.933686
-2.54111 1.05457 -0.0749668
-2.47084 0.973147 0.0560069
-2.85998 -0.0310814 -0.466807
-2.20191 0.147704 0.501177
-1.92598 -1.55017 1.1499
-1.90925 -0.0847589 0.985013
-2.93001 1.47315 -0.633924
-2.02899 -0.057092 0.864754
-2.61535 1.35837 -0.213068
-2.54755 0.617684 -0.0386757
-2.00924 -0.501733 0.831152
-2.05538 -0.132047 0.839283
-2.80739 -0.0105009 -0.488204
-2.55665 -0.507288 0.023409
-3.14699 0.867635 -0.955195
-2.07902 0.073134 0.757381
-3.32951 -0.854707 -0.810914
-2.38565 0.861967 0.0424363
-1.97008 -0.412736 0.891978
-2.83258 1.00329 -0.428685
-2.94001 0.944821 -0.723896
-2.43075 0.346017 0.141635
-2.62124 0.849576 -0.160678
-2.90746 0.00658827 -0.566651
-2.92831 0.141412 -0.544715
-2.84407 -0.315232 -0.404006
-2.71094 -1.00336 -0.0585963
-2.28018 0.190551 0.317051
-2.29983 -0.888172 0.397229
-2.81977 -0.13291 -0.359775
-2.11794 -0.448437 0.564683
-2.12587 -0.106361 0.528539
-2.62685 -1.01089 0.00588392
-2.90219 -0.284895 -0.506622
-2.46434 -1.07725 0.220176
-2.13709 -1.71999 0.961394
-2.20367 -1.77646 0.838179
-2.37355 0.861479 0.181651
-2.03267 -1.63825 1.03041
-2.64887 1.0865 -0.293747
-2.68694 0.979989 -0.210726
-1.98531 0.654246 0.760256
-3.06028 -0.242759 -0.75021
-2.99516 -0.660563 -0.515269
-2.87259 -0.533272 -0.408639
-3.05282 0.276282 -0.867395
-2.47931 -0.0217563 0.0206563
-2.23235 -1.59482 0.689631
-2.50464 0.930284 0.0179044
-2.60029 1.03109 -0.138943
-2.79816 -0.485102 -0.315295
-2.8197 -0.424829 -0.372004
-2.13785 -0.669949 0.600569
-3.04029 -0.590518 -0.607574
-3.17894 -0.0601056 -1.01689
-3.03822 -0.571761 -0.598429
-2.17083 -0.419215 0.550743
-2.30476 0.387253 0.231336
-3.24073 0.226316 -1.05083
-2.07829 -0.181085 0.711347
-3.15687 -0.763184 -0.683496
-2.43548 -1.35853 0.330713
-1.95017 -1.26593 0.999699
-2.03815 0.725956 0.620869
-2.92883 0.89194 -0.766328
-2.18892 -0.946476 0.558014
-3.28261 -0.772637 -0.813974
-2.89325 -1.48925 -0.0928493
-2.61195 0.891887 -0.145323
-2.73966 -0.867437 -0.111768
-2.37857 -0.641239 0.221317
-1.94003 -0.20882 0.981105
-3.14213 -0.291613 -0.786635
-2.49172 -0.934076 0.156103
-2.46568 -0.11606 0.118842
-3.04036 0.689401 -0.859676
-2.99686 0.50504 -0.826179
-2.17226 -0.956627 0.551486
-2.23155 -0.446242 0.462192
-2.79817 -0.401754 -0.341346
-2.89137 -0.350679 -0.464169
-1.96979 -0.342301 0.930262
-2.97195 0.999746 -0.766439
-2.72989 -0.179967 -0.30081
-2.84061 0.30572 -0.656108
-3.07311 -0.540905 -0.649096
-2.7851 0.998953 -0.372208
-2.25129 0.102325 0.434884
-2.24003 0.0272068 0.367567
-2.59722 -0.211594 -0.118738
-2.42608 -1.48237 0.375211
-3.42725 -1.03648 -0.861002
-2.8556 0.26332 -0.49564
-2.64877 -1.50604 0.201454
-2.76269 -0.0951425 -0.32516
-2.4602 -0.0694105 0.0897743
-1.95899 -0.581772 0.762333
-2.92993 1.33143 -0.637387
-2.7603 -0.465201 -0.284327
-2.60578 1.19874 -0.161228
-3.26006 -0.541274 -0.963199
-1.93621 0.311077 0.717713
-2.60479 -0.827363 -0.00472059
-3.17745 -0.844156 -0.689627
-2.09341 -0.431089 0.710442
-3.06709 -0.214438 -0.78921
-1.92228 -0.773468 0.991096
-2.2063 -1.65563 0.767193
-2.83457 0.420403 -0.396382
-3.09465 1.26214 -0.903366
-2.97809 -1.22394 -0.337775
-2.94634 1.4934 -0.708118
-2.44715 -0.43057 0.171587
-2.36115 -1.59195 0.504382
-3.02371 -0.745132 -0.492199
-2.92232 0.0304768 -0.566237
-2.96079 -1.05539 -0.304923
-2.94497 -0.332434 -0.547373
-3.08386 0.00519357 -0.888296
-2.01412 0.424721 0.753266
-2.32922 0.692328 0.201344
-2.39057 -0.667606 0.237157
-3.20929 -0.948964 -0.613299
-2.10165 -0.828504 0.768642
-3.21513 -0.702033 -0.768733
-2.44381 0.933301 0.104154
-3.20427 -0.558635 -0.857784
-2.36137 -1.65914 0.553011
-2.03873 0.524265 0.619555
-2.45059 -0.381995 0.0853083
-3.04275 0.822058 -0.778322
-3.20555 -0.701712 -0.794177
-2.89334 0.00695761 -0.490325
-2.47564 -1.46517 0.335607
-2.89375 1.27431 -0.559417
-2.41854 1.12212 0.04794
-2.28094 0.691981 0.270234
-3.0659 -0.79749 -0.573591
-2.62325 -1.81323 0.323955
-3.18127 -0.846503 -0.664563
-2.38436 -1.64273 0.595568
-3.06889 0.244361 -0.850788
-2.59465 -0.144795 -0.0657558
-2.56146 -1.46186 0.285185
-3.06787 1.00489 -0.850039
-2.36205 -1.20533 0.383162
-3.2336 -1.20356 -0.575995
-2.37612 0.0747141 0.317583
-2.82286 1.53352 -0.531542
-2.4249 -1.11395 0.283315
-2.44322 0.789147 0.0323775
-2.2146 -1.23533 0.599437
-2.73222 1.28627 -0.330733
-2.28709 -1.33697 0.510824
-2.54495 -0.565309 0.0178162
-3.06726 1.51291 -0.862936
-2.60188 0.369724 -0.0765881
-2.2155 -0.935609 0.515553
-2.91311 0.791618 -0.532681
-2.29958 -1.51151 0.57753
-2.88387 0.424383 -0.701698
-2.72506 -0.0592151 -0.304196
-2.25142 0.466091 0.432411
-2.8934 0.432885 -0.567129
-2.78452 0.151326 -0.355535
-3.18425 -0.342472 -0.946388
-2.15276 -0.764752 0.688661
-1.88023 -0.628127 1.01024
-3.46989 -0.83003 -1.11128
-3.03204 1.43485 -0.908879
-3.19754 1.04835 -0.928861
-2.33358 -1.33493 0.448559
-2.31209 0.632518 0.317273
-2.20303 0.191415 0.459651
-2.63489 0.169537 -0.19336
-2.20791 -1.48945 0.689221
-2.58543 -1.71205 0.367602
-2.0105 -1.43636 0.973943
-2.69832 -0.0429469 -0.199381
-2.83306 0.164761 -0.45535
-3.15055 -0.860976 -0.592258
-2.15282 -0.770763 0.667636
-3.13726 -0.835459 -0.617734
-1.86133 -0.0437073 0.981541
-2.86845 -0.861126 -0.24662
-2.46958 -0.353449 0.0735779
-2.47357 -1.05429 0.215287
-2.32039 -0.808964 0.335867
-2.31018 -2.03114 0.874237
-2.18255 -0.277465 0.547649
-2.25452 0.052131 0.50372
-3.14954 0.698969 -0.834935
-3.17068 0.386007 -0.943147
-2.96717 0.465504 -0.627325
-2.23791 -0.173055 0.452598
-2.27419 -0.714472 0.435375
-2.83143 -0.487962 -0.359842
-2.75961 -0.992492 -0.166445
-2.71458 0.110625 -0.322534
-2.63016 -0.299025 -0.143053
-2.22593 -1.72282 0.781154
-2.93003 -0.194164 -0.537329
-2.63348 1.23777 -0.213763
-2.99394 0.117954 -0.705042
-2.79995 0.899999 -0.374646
-1.89147 0.123316 0.972094
-3.01091 1.02918 -0.852515
-2.21752 -1.25662 0.599035
-2.22431 0.714458 0.357046
-2.28637 0.303702 0.366866
-1.8911 0.339911 0.843365
-2.65486 0.188743 -0.213549
-1.92787 -0.785656 0.943935
-1.80863 0.0660839 1.05877
-2.54734 0.300407 -0.052695
-2.13695 -0.935546 0.733479
-3.10096 0.937665 -0.904468
-1.93327 -0.677184 0.887815
-2.45696 -0.507519 0.0982831
-2.43358 0.864377 0.129515
-3.00031 1.15592 -0.770967
-2.65302 -0.591465 -0.118977
-3.11667 0.264196 -0.95038
-3.03296 1.69333 -0.90367
-2.68984 -1.74463 0.231756
-2.44716 -0.537153 0.116751
-2.98917 -0.018384 -0.722038
-2.34531 -0.568774 0.326436
-2.99628 0.745923 -0.711867
-2.61505 -1.34469 0.0926168
-3.02133 0.870247 -0.71006
-2.50084 1.20972 -0.052714
-2.40973 -1.30269 0.421408
-2.83087 -0.039916 -0.400048
-2.22744 -1.31808 0.633005
-2.32956 -1.05465 0.388239
-2.87863 1.23178 -0.56344
-2.08586 -1.12618 0.721628
-2.73993 0.645834 -0.318645
-3.09444 0.455396 -0.88033
-2.17739 -1.51101 0.734555
-2.09032 -0.437802 0.652174
-2.78764 -1.34607 -0.0321484
-2.91096 1.26708 -0.547702
-2.27167 -0.407627 0.418469
-2.64369 0.625035 -0.257066
-2.94801 -0.937409 -0.393828
-2.05451 -1.35113 0.840236
-1.86344 -0.228185 0.943874
