ply
format ascii 1.0
comment Created by Open3D
element vertex 250
property double x
property double y
property double z
end_header
-2.51876 0.0249527 1.49894
-1.79127 -1.08277 -0.69077
-2.45459 0.6536 0.252981
-3.10913 -1.04873 0.854438
-2.71966 0.748637 1.25435
-2.70507 -0.0866723 0.328119
-2.08323 -0.476015 0.0789325
-2.31003 -1.92884 0.0283121
-1.78064 -1.1965 -1.01778
-1.50632 -2.28794 -0.480279
-2.2445 1.04972 0.293539
-2.8494 -1.81494 -0.0899111
-2.68235 0.92097 1.10295
-1.59161 -3.22094 0.051331
-3.1554 -0.640169 0.262317
-2.65216 -1.85591 0.903177
-3.06954 -3.09471 0.0360853
-2.77076 -0.183139 0.748391
-2.58312 -1.08869 -0.733409
-2.64675 -2.52185 0.379124
-2.38942 -1.92505 -0.63567
-1.86918 -1.32386 0.505163
-2.06636 0.793909 0.670585
-1.87346 -0.911177 -1.05055
-1.42565 -2.39805 -0.756475
-2.37212 -0.625966 -0.0411602
-2.28038 0.964511 0.979712
-2.46059 -0.913061 0.87424
-2.56199 -0.850523 -0.135397
-1.06064 -1.81175 -0.857753
-2.22487 -2.28679 0.519948
-1.92411 -2.68079 0.490014
-1.6519 -0.895764 -0.912131
-2.65803 0.926004 0.61869
-1.46008 -1.77729 -0.846793
-2.08001 1.06817 -0.144781
-3.30402 -0.209489 1.27117
-1.64296 -3.26375 -0.0386056
-3.0698 -2.17968 -0.958481
-2.74835 0.0977009 1.17639
-2.79612 -0.295078 1.11532
-1.88234 -2.41061 -0.22729
-2.23805 -0.173006 -0.108051
-2.29218 1.75958 0.823527
-3.30015 0.212469 0.908379
-1.196 -1.56289 -0.620414
-2.55427 1.66636 0.288176
-0.965117 -1.88216 -0.660036
-2.68756 -0.477988 -0.0534124
-2.69768 -1.59483 -0.184647
-1.8565 -2.17094 -0.181006
-2.61238 0.880702 0.0100662
-2.27864 -2.22792 -0.461642
-2.02377 -2.64597 -0.794675
-1.88916 -0.92272 -0.407949
-1.54572 -2.30414 -0.461764
-1.86828 -0.998854 -1.17417
-2.66842 -1.10651 -0.142308
-2.4874 -0.368849 1.06409
-2.94166 0.468169 0.696706
-1.43633 -2.6093 0.177093
-1.46793 -2.77533 -0.44879
-0.983046 -1.43787 -1.05555
-1.15658 -2.38819 -0.384092
-2.72435 0.614825 1.02206
-2.3466 1.58433 -0.0692187
-2.7496 -1.71995 -0.141339
-2.37605 -2.15242 0.278016
-2.67474 -1.27826 1.02067
-2.284 1.56638 0.0344104
-2.23141 -1.59507 0.171912
-1.90482 1.16523 0.0303295
-3.35921 -1.5094 0.588128
-2.51971 -3.24564 -0.0453304
-2.52616 0.983257 -0.234819
-2.99527 -0.700533 0.665655
-1.64559 -1.68802 -0.527068
-0.954074 -2.29758 -0.0117403
-2.62767 -0.466168 0.427803
-1.72483 -2.47722 -0.29301
-2.18614 -2.58875 -0.126472
-2.49158 0.809744 0.569171
-2.55606 -3.18455 0.104103
-1.85237 -1.50768 -0.378286
-2.90343 -1.47517 0.972518
-2.39785 -2.13136 0.556759
-2.77358 -0.337587 1.38294
-1.73595 -2.96459 0.00193227
-1.05062 -2.25272 0.923288
-2.57026 1.13259 -0.00353806
-3.16417 -1.16917 0.499557
-2.46846 -0.534788 0.971415
-2.37983 -0.844272 -0.619002
-2.3687 -0.545999 1.51558
-2.54906 0.708647 0.05346
-1.68691 -1.77658 -0.932425
-2.59998 -3.09712 0.14535
-1.7303 -1.36514 -0.798094
-2.00063 1.49858 0.308075
-2.40308 0.957149 -0.192146
-1.77119 -2.42363 -0.854463
-2.19924 -0.114271 0.00361524
-1.81221 1.30616 0.214978
-2.15442 -0.612348 -0.947708
-0.845666 -1.58659 -1.06915
-2.27401 1.4218 0.64278
-1.45807 -1.73848 -1.23728
-2.16293 0.843447 0.515454
-1.64449 -1.63753 -0.712942
-2.47756 -0.555698 -0.485464
-2.87124 -2.86237 0.151648
-1.43321 -1.45706 -0.957151
-3.23392 0.112257 1.28745
-2.45603 -0.217776 -0.867083
-1.85298 1.9626 0.973596
-2.60958 1.14015 0.791858
-2.72338 0.710704 1.31854
-2.15661 -1.13717 -1.35406
-2.43968 0.679114 0.648413
-1.1132 -2.17582 -0.685911
-2.41386 1.39844 0.737072
-2.56758 -2.27644 0.84245
-1.76183 -0.80687 -0.541743
-2.28272 -1.03289 -0.226636
-2.43451 0.285708 0.978731
-2.85299 -1.07819 1.07941
-2.23835 1.31186 1.30854
-3.13428 -2.24437 0.350961
-2.80879 -0.29659 0.55551
-2.75696 -2.3329 0.470628
-2.30465 0.212549 0.415621
-2.38279 -0.442627 -0.344466
-1.88672 1.0073 0.689072
-2.17303 0.413466 -0.0294106
-2.73442 -1.3936 0.617538
-2.76024 -0.934779 0.996339
-2.46249 -1.01846 0.299233
-1.65133 -0.864889 -0.17357
-2.75524 -2.11203 0.729048
-2.81422 -0.135444 0.924462
-1.37136 -1.39829 -1.20932
-2.57207 0.975202 1.05101
-2.97997 -1.94755 0.304776
-2.65502 -0.833652 0.64591
-3.04751 -2.3038 0.40768
-0.881767 -1.65321 -1.20117
-2.6283 0.542395 -0.0961057
-1.92942 -0.229425 0.367328
-2.53344 1.41711 1.19626
-2.90313 -2.01638 0.403019
-2.52083 -0.713367 0.447279
-2.40921 -2.40217 0.0446377
-3.06488 -0.790823 0.518261
-0.851695 -1.36168 -0.735663
-2.43222 -1.8837 0.501141
-2.15092 -2.89245 -1.23825
-2.96711 -1.62141 -0.257271
-1.81308 -0.0087011 -0.00262003
-1.73419 -1.29883 -0.4614
-2.68772 0.999905 0.172582
-2.98915 -1.64014 -0.198561
-2.79726 -0.282528 1.33815
-2.65017 -0.68926 -0.50433
-2.05305 -3.08981 -0.00862071
-2.75071 -2.11572 0.0964783
-2.22397 -1.51416 0.334023
-2.11984 -2.84734 0.330878
-1.72411 0.498672 -0.0656182
-1.90016 0.978428 0.0277908
-2.37721 0.587079 0.892224
-3.13814 -0.736676 0.899676
-2.41403 -3.18739 -0.417334
-2.84804 -0.920545 0.811794
-2.64047 1.42824 0.719373
-2.06188 -0.515347 -0.575807
-1.97076 -0.164878 -0.641848
-1.32898 -2.29846 -1.01288
-2.85739 -2.03092 0.291822
-2.61057 -0.477936 1.00397
-2.76839 -1.73419 -0.550273
-2.70139 -0.37967 1.24728
-2.71284 -0.285316 0.700234
-2.45312 -0.203975 -0.0322444
-2.37395 -0.306334 0.386881
-2.63904 -3.05649 -0.35466
-2.97393 0.4785 1.88545
-2.30519 -2.89144 0.45221
-2.48194 0.690675 -0.332714
-2.24313 -2.14242 -0.841363
-3.24399 -0.423017 0.784581
-3.24774 -0.464092 1.16178
-1.71601 -1.72035 -0.694426
-3.14311 -0.63055 1.07848
-2.57274 -2.94949 -0.564425
-2.67832 -2.09168 -0.734167
-2.33059 0.654759 -0.514995
-2.59372 0.550757 1.1405
-2.92241 -2.91504 0.303964
-2.14395 -1.10543 -1.05749
-2.7806 0.432351 0.601178
-2.27658 -3.37725 1.08132
-1.61573 -3.42362 0.977104
-2.24895 -3.45979 0.781854
-2.65951 -3.58335 -0.147295
-1.77479 -2.8195 1.69902
-2.31488 -3.45828 0.0833127
-2.18273 -3.69108 0.788844
-2.74951 -4.05038 -0.061006
-0.825365 -3.43302 2.08224
-2.25653 -3.36735 1.36187
-2.53892 -3.4076 0.0640722
-2.09672 -2.95567 1.1802
-1.10292 -3.3247 2.06418
-2.57576 -3.21033 0.587972
-2.54308 -3.79969 0.32647
-1.8759 -3.77179 1.03445
-2.59245 -3.08641 0.655921
-0.961048 -3.37507 2.04952
-1.53765 -3.74271 1.00442
-1.21763 -3.32182 1.96024
-2.82063 -3.46542 0.181346
-1.1407 -3.58004 1.75045
-2.52454 -3.67888 0.891841
-1.99044 -3.39428 0.348199
-1.77229 -3.8132 0.736391
-1.65767 -3.53397 1.50433
-1.47771 -3.22236 1.04201
-2.31838 -3.42044 1.12155
-1.76479 -3.86736 1.58771
-1.90837 -3.53734 1.29115
-2.41972 -3.32461 1.27296
-1.68358 -2.98669 1.223
-1.48003 -3.03484 0.609218
-1.64331 -3.37121 1.10085
-1.83553 -3.77783 0.674254
-2.01267 -3.62921 1.51497
-2.41587 -3.61034 1.35273
-2.72719 -4.27729 0.706366
-1.54995 -3.42494 1.62357
-1.56899 -3.59582 0.968048
-1.64683 -3.47099 1.19845
-1.14351 -3.41235 1.51584
-1.85335 -3.20219 2.17238
-1.19411 -3.25161 2.30078
-1.55271 -3.68873 1.7055
-1.59487 -3.73389 1.27132
-1.88951 -3.7472 1.64936
-2.90765 -3.49518 0.523177
-1.72651 -3.70733 1.31758
-1.14185 -3.42267 1.56961
