ply
format ascii 1.0
comment Created by Open3D
element vertex 400
property double x
property double y
property double z
end_header
-1.40041 2.80594 1.1355
-1.96736 1.57317 -1.46755
-1.66364 2.15684 0.554137
-1.94697 0.818723 -0.127646
-1.49596 2.87994 0.553274
-1.67197 2.55673 0.59079
-1.95278 1.02406 0.38048
-1.66354 2.24968 0.122366
-2.28147 1.38314 -1.76477
-2.28091 0.949226 -1.98411
-1.75634 2.42065 1.14945
-1.83957 1.56952 -0.118573
-1.93509 0.954408 -0.857783
-1.98072 1.49614 -1.33521
-1.96491 1.34525 -1.02497
-1.54154 2.7757 1.6169
-1.60739 2.51866 1.10956
-2.26441 0.653752 -1.69127
-1.79998 1.62497 0.984088
-2.08653 0.70006 -1.00742
-1.73755 2.04385 -0.130871
-1.80353 1.88224 -0.492386
-1.95636 1.32734 -1.06827
-1.88398 1.53462 -0.0158562
-1.90417 1.53247 0.778539
-1.83805 2.13178 -0.210165
-2.12365 0.632824 -0.293245
-1.89576 2.39132 -0.934499
-1.81629 1.20566 -0.465296
-1.75039 2.62273 -0.680934
-1.64908 2.72784 0.867844
-1.87517 1.3077 -0.802816
-1.89628 0.999824 0.206944
-1.91955 1.41074 -1.1992
-1.90017 1.09178 0.0129314
-1.89713 1.29366 -0.121763
-2.11579 1.78932 -1.56277
-1.6094 2.71088 -0.487708
-1.61942 2.21409 0.987792
-2.02707 0.946463 0.168063
-1.93504 1.06114 -0.685684
-1.46414 2.88377 0.0552356
-1.96442 1.0822 -1.3771
-1.75111 1.65454 -0.668091
-1.82178 1.70342 -1.1724
-1.91734 1.07091 0.583005
-1.61078 2.62541 -0.304633
-1.71115 1.45558 -0.295542
-1.7684 2.82385 -0.803106
-1.7291 1.52595 -0.233543
-2.24721 0.785543 -1.86256
-1.90305 1.12147 0.241383
-2.11163 0.73194 -1.06977
-2.20531 1.12069 -1.89162
-2.01673 0.899764 -1.40736
-1.57288 2.3023 -0.0736287
-1.47737 2.78434 0.579153
-1.66025 2.74507 0.787606
-1.79479 1.61695 0.37853
-1.97416 1.21688 0.118342
-2.17423 0.627178 -1.38464
-1.49226 2.80753 0.175856
-1.79432 1.21563 0.109141
-1.44225 2.93295 1.1718
-1.61188 2.74521 -0.136795
-2.04153 0.920391 -1.39507
-1.73557 2.66715 -0.593402
-1.87128 1.98589 0.112528
-1.83888 1.26967 -0.900104
-1.61267 2.63897 -0.406308
-1.90252 2.28427 -0.684035
-2.03282 0.973818 0.368984
-1.83514 2.21543 0.509972
-2.34274 0.775418 -2.00651
-1.96008 1.40797 -1.31913
-1.53945 2.74883 0.488393
-1.63141 2.389 1.10845
-1.53296 2.56761 1.53376
-1.82502 1.97421 -0.729576
-1.62053 2.68404 -0.214866
-1.93651 2.17337 -0.951566
-1.77815 2.6687 -0.803336
-1.7019 2.24717 -0.861003
-1.87338 2.09618 -0.526435
-1.93884 1.52041 -1.41033
-1.77184 1.70309 0.671436
-1.71303 2.22876 0.500426
-1.80681 1.96072 -0.909562
-1.78522 2.02046 0.629456
-1.63806 2.6404 0.700358
-1.75402 2.37093 -1.03766
-1.9022 1.47648 -0.903614
-1.91658 1.00572 0.100233
-2.0881 1.03207 -1.28429
-1.91367 2.21365 -0.960397
-1.72939 2.13416 0.737075
-2.02565 1.55644 -1.29477
-1.65299 2.61981 1.05001
-1.60496 2.86888 -0.22935
-1.80745 1.80134 -1.0156
-1.57597 2.4039 -0.61058
-1.95187 1.88424 -0.997379
-1.99535 0.877347 -0.408467
-1.75054 2.34014 0.594595
-1.92849 2.0426 0.957242
-1.67703 2.28111 -0.498014
-2.02672 1.44634 -1.39556
-1.64414 2.57143 0.00354037
-1.55778 2.53177 -0.130024
-1.99497 0.859638 -0.504586
-1.91602 1.54052 0.59026
-1.89094 1.50217 -1.20802
-1.92453 0.969736 -1.1868
-1.75697 1.1942 0.0144781
-1.6887 2.57459 -0.29742
-1.55666 2.66061 0.596979
-2.04433 1.19854 -1.1803
-2.07575 0.825761 -1.24733
-1.9227 0.822648 0.11845
-1.53275 2.88595 0.00760474
-1.83941 1.29999 0.156362
-1.52737 2.70615 1.61314
-2.01389 1.05956 -0.930742
-1.79264 2.94494 -0.877695
-1.99952 2.36512 -1.1726
-2.00309 0.798136 0.456456
-1.76494 1.47216 -0.174472
-1.62407 2.72895 1.34895
-1.8503 2.32123 -1.11472
-1.37747 2.92254 1.77956
-1.87398 2.47545 -1.08131
-1.88258 2.59341 -0.92193
-1.60496 2.37218 0.61925
-1.85331 1.25308 0.452189
-1.64094 2.24223 1.02766
-1.71787 1.75195 -0.140407
-1.90944 1.63512 0.405357
-1.92183 1.3875 -1.15311
-1.8587 1.77771 0.901884
-2.16485 0.677535 -1.43095
-2.02569 0.710151 -0.633812
-1.60413 2.12354 1.30824
-1.8948 1.02875 0.649673
-1.63843 2.649 -0.243035
-1.98219 1.69306 -1.33997
-2.00908 0.753996 -0.91564
-1.98521 1.07966 -1.34855
-2.29112 0.480648 -0.316854
-1.87304 1.62698 -1.16708
-1.78363 2.57382 -0.451146
-1.4419 2.93173 1.71901
-1.64132 2.09731 1.05457
-1.79337 1.69158 0.973147
-1.70924 2.31131 -0.0310814
-1.95631 1.09412 0.147704
-1.98052 1.01824 -1.55017
-2.00235 0.76025 -0.0847589
-1.64012 2.48014 1.47315
-2.12287 0.6381 -0.057092
-1.55476 2.34743 1.35837
-1.76059 1.86122 0.617684
-2.01959 0.80617 -0.501733
-2.14984 0.611229 -0.132047
-1.40684 2.89303 -0.0105009
-1.96168 1.4598 -0.507288
-1.6285 2.71077 0.867635
-2.08886 0.733605 0.073134
-1.76207 2.97322 -0.854707
-1.35667 2.52661 0.861967
-2.01522 0.782996 -0.412736
-1.75394 2.17537 1.00329
-1.45976 2.84975 0.944821
-1.83841 1.57166 0.346017
-1.69068 2.0859 0.849576
-1.62022 2.54101 0.00658827
-1.77678 2.23532 0.141412
-1.77497 2.17703 -0.315232
-1.82065 2.09074 -1.00336
-1.76067 1.57126 0.190551
-1.97834 1.17337 -0.888172
-1.86736 1.93956 -0.13291
-1.8076 1.31392 -0.448437
-1.76048 1.41067 -0.106361
-1.90786 1.74168 -1.01089
-1.67761 2.44979 -0.284895
-1.87904 1.63321 -1.07725
-2.04136 1.19252 -1.71999
-2.26271 0.695637 -1.77646
-1.76058 1.66149 0.861479
-2.09908 0.870065 -1.63825
-1.43695 2.63208 1.0865
-1.84452 1.82305 0.979989
-1.86505 1.05059 0.654246
-1.6434 2.67045 -0.242759
-1.70671 2.59533 -0.660563
-1.69977 2.42281 -0.533272
-1.50574 2.86758 0.276282
-1.64088 2.04479 -0.0217563
-2.13222 0.93136 -1.59482
-1.80294 1.71197 0.930284
-1.68831 2.06277 1.03109
-1.82157 2.04241 -0.485102
-1.59333 2.58872 -0.424829
-1.94871 1.05718 -0.669949
-1.83429 2.30396 -0.590518
-1.55442 2.90505 -0.0601056
-1.60951 2.85078 -0.571761
-1.96124 1.05674 -0.419215
-1.59995 1.93289 0.387253
-1.71163 2.64074 0.226316
-2.00437 0.889823 -0.181085
-1.77503 2.65255 -0.763184
-2.02594 1.31943 -1.35853
-2.02656 0.815268 -1.26593
-1.70656 1.4214 0.725956
-1.36652 3.00542 0.89194
-1.97553 1.07318 -0.946476
-1.71321 2.97489 -0.772637
-2.10383 1.81298 -1.48925
-1.70351 2.04785 0.891887
-1.72171 2.34578 -0.867437
-1.71128 1.8323 -0.641239
-2.07017 0.666921 -0.20882
-1.88059 2.25899 -0.291613
-2.01972 1.29561 -0.934076
-1.90782 1.46563 -0.11606
-1.50432 2.84865 0.689401
-1.43954 2.93354 0.50504
-1.83786 1.35879 -0.956627
-1.95839 1.12165 -0.446242
-1.72113 2.25885 -0.401754
-1.76664 2.25117 -0.350679
-2.07088 0.686225 -0.342301
-1.47476 2.84809 0.999746
-1.62026 2.37808 -0.179967
-1.26223 3.15443 0.30572
-1.53987 3.05247 -0.540905
-1.72862 2.17836 0.998953
-1.96613 1.12333 0.102325
-1.7495 1.55181 0.0272068
-1.645 2.18012 -0.211594
-2.13607 1.07535 -1.48237
-1.92789 2.75877 -1.03648
-1.64619 2.42413 0.26332
-2.03405 1.68552 -1.50604
-1.72893 2.17055 -0.0951425
-1.79363 1.69901 -0.0694105
-1.70832 1.3675 -0.581772
-1.60418 2.56326 1.33143
-1.66313 2.36447 -0.465201
-1.6658 2.10809 1.19874
-1.63003 2.97203 -0.541274
-1.57131 1.59865 0.311077
-2.0017 1.45127 -0.827363
-1.86406 2.48119 -0.844156
-2.04405 0.829607 -0.431089
-1.57519 2.81255 -0.214438
-2.03147 0.727481 -0.773468
-2.22833 0.713997 -1.65563
-1.83371 2.0199 0.420403
-1.58246 2.74739 1.26214
-2.06138 1.87536 -1.22394
-1.5262 2.7204 1.4934
-1.98056 1.29804 -0.43057
-2.16499 0.977938 -1.59195
-1.69741 2.70978 -0.745132
-1.68508 2.42072 0.0304768
-1.87439 2.31789 -1.05539
-1.72633 2.39468 -0.332434
-1.51046 2.91022 0.00519357
-1.91379 0.995479 0.424721
-1.60886 1.94046 0.692328
-1.90527 1.40878 -0.667606
-1.83093 2.71435 -0.948964
-2.15223 0.646529 -0.828504
-1.67321 2.9538 -0.702033
-1.84682 1.54542 0.933301
-1.61558 2.97766 -0.558635
-2.12344 1.12743 -1.65914
-1.68888 1.46417 0.524265
-1.63293 2.05933 -0.381995
-1.64523 2.59558 0.822058
-1.8368 2.51027 -0.701712
-1.78268 2.19104 0.00695761
-2.03391 1.40205 -1.46517
-1.65898 2.42158 1.27431
-1.51304 2.234 1.12212
-1.62599 1.85142 0.691981
-1.86351 2.32924 -0.79749
-2.22428 1.28715 -1.81323
-1.80317 2.66246 -0.846503
-2.02531 1.46239 -1.64273
-1.57585 2.75372 0.244361
-1.86004 1.70776 -0.144795
-1.98648 1.67332 -1.46186
-1.59107 2.71527 1.00489
-1.89955 1.49972 -1.20533
-2.03094 2.32747 -1.20356
-2.11144 0.956569 0.0747141
-1.50898 2.64044 1.53352
-1.86096 1.64478 -1.11395
-1.55225 2.18338 0.789147
-2.09338 0.892093 -1.23533
-1.68151 2.2059 1.28627
-2.02713 1.13843 -1.33697
-1.84606 1.7051 -0.565309
-1.60145 2.67585 1.51291
-1.86388 1.7051 0.369724
-1.96389 1.12299 -0.935609
-1.76217 2.24594 0.791618
-2.25142 0.693787 -1.51151
-1.32912 3.05181 0.424383
-1.62982 2.33996 -0.0592151
-1.9842 1.07753 0.466091
-1.61433 2.52082 0.432885
-1.75304 2.13469 0.151326
-1.56536 2.96195 -0.342472
-2.16156 0.667423 -0.764752
-1.96106 0.815088 -0.628127
-1.8327 2.84124 -0.83003
-1.42225 2.9775 1.43485
-1.81886 2.39957 1.04835
-2.04415 1.1473 -1.33493
-1.91749 1.26992 0.632518
-1.86071 1.28609 0.191415
-1.63318 2.22498 0.169537
-1.98702 1.2225 -1.48945
-2.12623 1.47621 -1.71205
-2.09597 0.76761 -1.43636
-1.87386 1.79104 -0.0429469
-1.66047 2.37554 0.164761
-1.77493 2.72877 -0.860976
-2.12519 0.734344 -0.770763
-1.8001 2.61046 -0.835459
-1.87712 0.943411 -0.0437073
-1.72252 2.51989 -0.861126
-1.73086 1.85701 -0.353449
-1.82396 1.78358 -1.05429
-1.66075 1.92838 -0.808964
-2.34464 0.791054 -2.03114
-1.99356 1.00391 -0.277465
-2.12679 0.812088 0.052131
-1.84957 2.30348 0.698969
-1.70696 2.59059 0.386007
-1.71979 2.38413 0.465504
-1.96183 1.11911 -0.173055
-2.02375 1.04 -0.714472
-1.80323 2.12245 -0.487962
-2.0284 1.59885 -0.992492
-1.55963 2.46575 0.110625
-1.69434 2.11621 -0.299025
-2.12893 1.01534 -1.72282
-1.75442 2.30084 -0.194164
-1.61281 2.25035 1.23777
-1.61622 2.62107 0.117954
-1.77404 2.10213 0.899999
-1.94107 0.852347 0.123316
-1.44295 2.93288 1.02918
-2.09322 0.899121 -1.25662
-1.66639 1.70398 0.714458
-1.92416 1.24133 0.303702
-1.71224 1.27516 0.339911
-1.65536 2.19946 0.188743
-1.97119 0.839359 -0.785656
-1.8625 0.928695 0.0660839
-1.71341 1.96058 0.300407
-2.18315 0.62194 -0.935546
-1.58981 2.74377 0.937665
-1.89747 0.974263 -0.677184
-1.63354 2.08618 -0.507519
-1.87721 1.47272 0.864377
-1.54427 2.74423 1.15592
-1.67128 2.25116 -0.591465
-1.54409 2.84616 0.264196
-1.4578 2.89909 1.69333
-2.18948 1.43972 -1.74463
-1.66625 2.00204 -0.537153
-1.52812 2.80524 -0.018384
-2.01502 1.12382 -0.568774
-1.63584 2.57253 0.745923
-2.13205 1.25868 -1.34469
-1.71498 2.44374 0.870247
-1.55326 2.23494 1.20972
-1.84298 1.78966 -1.30269
-1.79372 2.10385 -0.039916
-2.20141 0.695862 -1.31808
-1.78437 1.70445 -1.05465
-1.59 2.5476 1.23178
-1.9254 1.10902 -1.12618
-1.69248 2.21014 0.645834
-1.60801 2.70822 0.455396
-2.02208 1.1095 -1.51101
-1.92297 1.05621 -0.437802
-2.00583 1.85532 -1.34607
-1.76748 2.21291 1.26708
-1.99249 1.09248 -0.407627
-1.5056 2.49054 0.625035
-1.94422 2.02954 -0.937409
-1.9685 1.04788 -1.35113
-1.81986 1.04909 -0.228185
