ply
format ascii 1.0
comment Created by Open3D
element vertex 250
property double x
property double y
property double z
end_header
1.22326 -0.135659 -0.597902
1.5491 -2.35337 -0.803146
0.570666 -2.49493 -0.296919
0.0693636 -1.03245 -0.0149416
0.364454 -1.28533 0.264866
-0.151468 -1.26284 -0.0204497
0.410128 -0.383816 0.459079
0.80294 -3.42316 -0.604094
0.590986 0.054998 -1.22786
-1.19507 0.788162 -0.970709
0.139079 -0.428869 0.185233
0.094886 0.151386 -1.33482
0.87583 -4.32066 -1.19935
0.586737 -0.0593087 -0.612233
-0.140116 -1.7753 -0.317313
1.44107 -1.46302 -0.318314
-0.711089 0.142186 -0.682562
0.82076 -1.37591 -0.215278
0.469594 -0.707108 -1.30587
0.656758 -0.643395 0.0782029
1.16565 -2.15484 -1.16179
0.857187 0.375222 0.674461
-0.811274 1.04878 -0.62759
-0.626809 0.0967355 -0.182904
0.770706 -1.15197 -0.226806
0.760218 -0.257455 -0.790034
-0.47474 1.36841 -1.19842
0.0336535 0.243993 0.349943
0.713104 -5.74663 -2.29146
-0.208759 0.125388 0.101697
0.155269 1.19238 -1.84664
-1.08288 1.09216 -0.914362
-0.0864567 0.87732 -0.517755
-0.795598 -0.0390175 -0.325249
0.773639 -0.149164 -0.921721
-0.169187 0.548599 -0.440297
0.446746 -1.22474 -0.292145
1.59122 -4.92184 -2.34066
0.88929 -5.97463 -3.15231
0.971203 -1.91651 -0.0960892
1.39422 -5.93976 -2.65912
-0.250835 1.053 -1.32156
0.965588 -1.48139 -0.129964
1.16611 -2.0906 -0.077051
-0.710201 0.0966129 -0.642831
1.4026 -4.26563 -1.21694
0.378185 -1.45785 -0.0206808
1.53646 -4.44057 -1.51754
1.46831 -5.42806 -2.8812
0.24237 0.0731675 -1.17274
0.205655 0.665653 -0.303489
1.3447 -3.58197 -2.116
1.8326 -5.59391 -3.47636
0.98997 -4.7278 -1.82325
0.692489 -1.81082 0.199935
0.863983 -3.73976 -0.830728
-0.622728 -0.0917911 -0.162367
-0.524373 -0.240515 -0.176802
0.80327 0.388486 -0.708535
0.0611138 -0.660578 -0.122961
1.27127 -5.66778 -2.15206
1.4008 -4.52273 -1.79287
1.37222 -4.20254 -1.28706
0.965644 -3.99014 -0.961355
0.680008 -0.753089 -9.70505e-05
1.29933 -5.45445 -2.47858
0.490885 -0.562769 -0.507752
1.24962 -0.915938 -0.369217
0.165762 0.936703 -0.771729
1.77525 -5.5482 -3.2831
1.4567 -3.85405 -1.02038
0.306011 0.289075 0.0802255
0.450328 -3.23447 -0.864441
-0.0606949 0.266163 -0.998515
-0.372793 -1.07116 -0.17777
-0.245865 -0.288739 -0.14539
1.71825 -3.55254 -1.33235
1.97106 -5.06527 -2.13351
-0.745972 1.00703 -1.27883
1.31247 -1.35039 -0.789838
-0.858843 0.623652 -0.598187
0.431002 -0.640076 0.0688739
0.220752 0.168953 -1.31048
0.594473 -0.115819 0.229041
0.517659 -0.196441 -0.0936742
0.214924 0.35555 0.302398
0.55031 -1.52914 0.225762
1.23085 -1.24385 -0.659786
-0.0117916 1.90685 -0.334595
-0.155416 -1.52997 -0.141462
0.58878 -3.64723 -1.01755
1.40611 -4.0985 -1.10234
0.173807 -1.09434 0.0158256
0.716534 0.874205 0.0641639
0.891326 -3.10719 -0.895145
-0.218697 -0.853469 0.0850076
0.110294 -0.569242 0.0321291
0.361621 0.085334 -0.0216358
-0.774668 1.15239 -0.960894
0.908048 -1.59249 -1.01219
-0.179001 0.383228 -0.939213
1.38806 -2.9164 -0.753278
1.31386 -1.87293 -0.0189037
0.358933 -0.126319 -0.585327
1.0907 -0.613453 -0.720555
0.670456 -1.03246 0.251743
1.02469 -1.46389 -0.792531
0.568457 -2.1321 0.0498467
-1.01475 1.07294 -1.11802
0.457596 -3.8393 -1.00545
0.612604 -1.7394 -0.21782
1.25656 -2.01664 -0.382891
1.07178 -1.64261 -1.25868
0.638118 -3.73872 -1.11538
1.89124 -2.498 -0.472272
0.33901 0.339531 -1.13318
1.0085 -4.30739 -1.18761
-0.918845 0.8219 -1.88307
0.546752 -2.49405 -0.173464
1.83337 -3.66228 -2.04341
1.63672 -2.78748 -1.27989
-0.253002 1.15009 -0.581433
1.1427 -2.44576 -0.130819
1.75686 -4.83774 -2.36159
-0.297332 1.03106 -0.541394
1.82121 -4.7938 -2.44379
-0.125781 1.49038 -1.17868
-0.141563 0.357026 -1.98669
-1.06242 0.808917 -1.23408
1.43746 -2.564 -0.894586
0.118518 0.750292 -0.8395
0.844027 -1.25607 -0.455626
0.380619 1.1653 -1.04429
1.00565 -4.91578 -1.67532
1.60272 -4.61677 -1.90522
0.285349 0.653305 -1.45453
0.698769 -0.663349 0.202672
1.17781 -0.364864 0.366832
1.6423 -2.904 -1.1281
1.60916 -5.59175 -2.79015
-0.127184 0.536343 -0.374983
0.903951 -2.61227 -0.227188
1.09821 -1.63536 -1.16555
0.95395 -5.01606 -1.70179
0.619096 -2.01915 -0.235148
1.01965 -2.94172 -0.528512
-0.0132709 -0.854319 -0.238709
1.54573 -1.54029 0.0832319
-0.584124 0.7761 -0.29748
1.02381 -5.76265 -2.37697
1.88437 -5.52473 -2.95452
0.821387 -3.21631 -0.548423
-0.879361 0.181276 -0.663353
0.166265 0.507071 0.313612
1.61077 -3.04665 -0.753079
-1.22335 -0.589475 -0.760334
-0.11699 -0.611505 -0.329248
0.504912 -0.953867 0.525843
0.163644 0.901226 -0.520201
0.801974 -2.15712 -0.720654
-1.22625 0.375886 -1.11925
0.134818 0.52399 -0.288115
-0.163751 0.144641 -1.45297
0.956506 -2.48032 -0.388521
-0.555536 0.654854 -0.687902
-0.0936022 1.14963 -0.443853
1.38998 -1.81894 -0.397726
1.23854 -3.1905 -0.407311
0.204546 0.653708 -0.224405
1.55089 -2.8782 -0.776999
1.10904 -6.11671 -2.87384
0.931504 -3.87885 -1.36648
1.51371 -3.63915 -1.47394
0.747457 -0.327601 -0.997275
0.660288 -0.930166 0.132464
0.841877 -0.33443 -0.422439
0.823733 -1.52372 -0.455622
0.354326 -1.17691 0.0945362
1.39711 -1.42274 -0.532325
-0.377539 0.367663 -2.07801
0.773215 -1.12409 0.261173
0.956602 -1.72266 -0.259148
0.818995 -2.62916 -0.439488
0.462544 0.00383472 0.0612262
1.21113 -5.36681 -2.55452
1.41806 -4.0752 -1.20272
0.620007 0.193222 -0.360162
-0.421007 0.426203 -1.88662
-0.628722 0.642432 -1.32009
0.384021 -4.33358 -1.3749
-0.695787 0.735022 -2.0534
0.249828 0.605568 -1.64299
0.253565 -0.139895 -0.838849
0.675291 -5.84123 -2.49392
0.674629 -5.14727 -1.99944
-0.713719 0.678923 -1.42834
1.4401 -2.02153 -0.578329
-0.497541 0.403318 -0.572875
-0.843257 0.347628 -0.602641
-0.576558 -0.209681 -0.209246
0.30462 0.342713 -3.1541
0.908964 0.0323599 -1.54601
1.01954 -1.54594 -5.0267
-0.112982 -1.29044 -6.57529
0.763507 -1.37256 -8.39236
-0.0929133 -1.81987 -8.57166
0.178664 0.166829 -2.83258
-0.12377 -1.49563 -6.13649
0.986202 -1.19298 -4.741
0.942767 -0.452229 -2.64717
0.200782 -0.0173554 -2.24763
1.23336 -0.338538 -3.17239
0.555638 0.543212 -2.03292
0.41269 0.130755 -2.58341
0.653464 -1.90157 -5.45904
0.711089 -1.26651 -4.88907
0.128311 0.559753 -2.64224
0.908276 -1.54056 -6.33361
0.0627002 -0.288727 -5.16295
0.770755 -0.725416 -5.39145
0.20751 -2.36869 -8.28669
0.427636 0.164456 -2.55755
-0.0802972 -0.517324 -5.59826
0.0786203 0.087491 -4.31529
0.374906 -2.49613 -8.61564
0.253697 -1.99072 -8.9772
0.815039 0.306658 -2.88197
1.07256 -1.81667 -5.59618
-0.165467 -1.94394 -8.35468
0.79645 -0.1061 -1.477
0.775983 -1.68328 -6.54287
1.19142 0.408387 -1.10997
1.0733 0.143984 -1.45702
0.360554 -1.40092 -8.12335
0.177691 -1.48633 -7.26946
0.818194 -2.14011 -6.55217
-0.0752321 -0.582693 -5.81181
-0.644016 -0.738659 -5.40698
0.179587 0.370175 -4.20679
0.720617 -0.0343418 -1.96564
0.652928 -0.126534 -3.77444
0.98457 -2.21097 -7.80769
0.0976685 -0.792015 -6.90302
0.43849 -2.14385 -9.13391
0.68831 -0.941545 -3.89131
0.0671314 -1.30856 -7.50089
0.559926 -0.650019 -2.38043
0.210427 -2.34899 -8.37025
0.174669 -1.93233 -8.48655
0.710979 -0.212647 -4.23535
