ply
format ascii 1.0
comment Created by Open3D
element vertex 400
property double x
property double y
property double z
end_header
-1.79676 -1.3813 0.75777
-2.62672 -2.66044 0.96722
-1.91627 -1.07846 0.40054
-2.65062 -2.51862 -0.87303
-1.79275 -1.36975 0.7525
-1.03913 -1.23318 -0.98144
-1.39913 -0.49006 -0.02594
-2.22268 -1.24548 -0.10202
-2.25968 -1.27668 -0.01163
-2.58208 -1.88519 -0.46734
-2.88217 -2.39091 0.56052
-2.76374 -1.92768 -0.13463
-2.90837 -2.28542 0.41324
-1.0927 -0.30004 0.03932
-1.53796 -1.11873 0.72622
-1.31083 -0.4396 -0.10018
-1.42839 -0.9434 -0.65827
-1.54018 -0.59308 0.00602
-2.91139 -2.2552 0.36899
-2.91801 -2.84721 0.84765
-2.34202 -1.92229 0.74232
-1.50445 -0.86618 -0.54803
-2.69283 -1.81287 0.00566
-1.21527 -1.25498 0.94115
-1.46934 -1.17928 0.79971
-2.30103 -1.55411 0.48002
-2.91674 -2.22095 0.30676
-1.53888 -1.10122 0.71357
-2.03881 -1.45362 -0.64377
-1.76405 -0.78127 -0.05745
-2.81726 -2.55162 -0.75325
-2.78642 -1.95445 -0.11585
-1.28544 -0.4216 -0.09228
-2.35777 -2.28868 -0.94811
-1.6065 -0.64528 -0.00859
-2.6685 -1.78218 -0.04418
-2.28892 -2.28495 0.9875
-2.65766 -1.97225 -0.45438
-2.5305 -1.60092 0.00796
-1.87309 -0.87728 -0.01282
-2.52428 -2.19413 -0.77533
-1.45213 -0.76417 0.48682
-1.77658 -1.71041 -0.95987
-1.86626 -1.17306 0.54984
-1.81758 -1.57158 -0.86353
-1.02815 -0.70242 -0.66193
-2.26827 -1.44906 0.40348
-1.93557 -1.6267 0.83072
-2.82892 -2.61873 -0.78616
-2.5154 -1.99286 0.64113
-1.1874 -0.38917 -0.19154
-2.16924 -2.02078 0.9189
-1.07028 -0.47773 0.43744
-1.47625 -0.81238 0.51725
-2.93364 -2.47403 0.56786
-2.52736 -1.67285 -0.27562
-2.64819 -2.05578 -0.55005
-2.35681 -1.39068 -0.04517
-1.95365 -1.30495 0.59225
-1.37949 -0.82374 0.58991
-2.82543 -2.59517 -0.77422
-2.65974 -1.7962 0.16625
-2.92836 -2.16783 0.15496
-1.05819 -0.36485 -0.29139
-1.2821 -0.41311 0.04657
-1.25327 -1.39126 -0.99929
-1.07834 -0.29104 -0.01835
-1.69359 -0.71706 0.00203
-2.90273 -2.3714 0.51472
-2.6705 -1.80991 0.16435
-2.93159 -2.69953 -0.74228
-1.5059 -0.5922 -0.15896
-2.79874 -1.95976 0.03894
-2.39425 -1.80087 -0.60643
-1.55039 -0.83503 0.48384
-1.6277 -0.67839 -0.12665
-2.46939 -1.52969 -0.07222
-2.25566 -1.77978 0.71258
-2.56406 -2.30966 -0.81613
-1.01337 -0.54599 -0.53782
-1.17802 -1.1339 0.88711
-1.02604 -0.39247 0.35955
-1.79774 -0.81113 0.05619
-1.02384 -0.66712 0.63645
-1.76423 -1.53718 -0.87123
-1.31893 -0.44433 0.09718
-2.4487 -2.06445 -0.75194
-2.2015 -1.86515 -0.80839
-2.60026 -1.74597 -0.23587
-1.85462 -0.8766 -0.1292
-1.57167 -0.94715 0.57412
-2.24053 -1.5098 -0.50478
-1.34246 -1.43211 0.99074
-1.49146 -0.68375 -0.35727
-2.60166 -1.70013 -0.08925
-2.30367 -1.32819 -0.03832
-1.41469 -0.51268 0.1111
-1.79464 -0.85604 -0.22551
-1.17228 -1.16986 0.90901
-2.9281 -2.17389 0.17452
-2.24796 -2.21027 -0.97311
-1.58379 -1.44656 -0.90524
-2.1866 -1.94947 0.86843
-1.62699 -1.30932 -0.8047
-2.74698 -1.93143 0.21204
-2.22795 -1.65134 -0.64063
-2.03217 -1.35715 -0.56984
-1.35459 -0.92424 0.68228
-2.76515 -1.93414 -0.15043
-2.99051 -3.14082 -0.95133
-2.08668 -1.52494 0.66059
-2.85373 -2.44294 0.63796
-1.92197 -1.02093 -0.31215
-1.57803 -1.38829 0.87507
-1.31057 -0.48562 0.23711
-1.43687 -0.55735 0.20299
-2.30176 -1.36338 0.19713
-2.02231 -1.23994 0.46637
-2.28302 -1.35149 -0.2201
-2.44642 -1.53648 -0.20059
-1.22297 -0.43085 0.2386
-2.97274 -2.27234 0.25109
-1.29963 -0.79625 0.61154
-1.92937 -1.77301 0.91782
-2.51272 -1.58896 0.10258
-2.82764 -2.14164 0.37782
-2.02132 -1.1904 -0.41106
-1.98256 -1.61093 0.79265
-1.97562 -1.25677 -0.5301
-2.11234 -1.14667 0.17657
-2.81023 -2.20644 0.48177
-1.27074 -0.8088 -0.63648
-2.45684 -1.80407 0.54319
-2.29643 -1.47436 -0.39492
-2.05326 -1.07048 -0.12851
-2.04871 -1.83808 0.88813
-1.78907 -1.66861 -0.93189
-2.31732 -1.35372 -0.10599
-1.66025 -1.47722 -0.88776
-1.2108 -0.37231 -0.07616
-2.653 -2.09475 -0.57892
-1.20036 -0.89901 0.73402
-2.91509 -2.4629 0.58178
-2.90738 -2.73528 0.78872
-1.37645 -1.13575 0.81369
-1.98526 -1.75575 -0.87774
-2.51043 -1.57558 -0.00419
-2.89268 -2.68738 -0.77167
-2.57302 -1.75829 -0.32123
-1.64331 -1.10863 0.65841
-2.05327 -1.59409 -0.73493
-2.45074 -1.71528 0.46233
-1.86826 -0.94375 0.26676
-2.64532 -2.04346 0.54224
-1.03359 -0.34909 0.28637
-2.06938 -1.10802 -0.19347
-2.76858 -1.93838 -0.14872
-2.26597 -1.42858 -0.38069
-1.23593 -1.34907 -0.98346
-2.24861 -1.63154 -0.6062
-1.8378 -1.20919 -0.604
-2.19816 -1.29056 -0.28738
-2.8802 -2.76533 0.83153
-2.90759 -2.1565 -0.20732
-1.65672 -1.27382 0.76658
-2.49721 -2.44035 -0.93879
-2.7651 -1.96279 0.22658
-1.5165 -0.83734 -0.51224
-1.75475 -1.74258 -0.9863
-2.34424 -1.60898 0.48489
-2.68856 -2.24536 0.66202
-2.93212 -2.19924 -0.22341
-1.42044 -0.97459 -0.68569
-2.62254 -1.98615 -0.51644
-1.91305 -1.66428 -0.86564
-2.6098 -1.79949 -0.31101
-1.64242 -1.44256 -0.87646
-2.44503 -1.69374 0.44631
-2.4703 -1.57842 -0.22985
-1.20925 -0.37496 -0.09688
-1.7446 -1.09285 0.57615
-2.4994 -2.14699 0.76501
-2.11482 -1.38053 0.51227
-2.6948 -1.99731 -0.4264
-1.77786 -1.74096 0.97507
-1.87478 -1.12362 0.4949
-1.64554 -0.91664 0.48958
-1.75116 -0.93397 -0.40905
-2.50576 -1.79058 -0.46997
-1.19434 -0.57595 0.46833
-2.99217 -2.25585 0.13259
-1.97081 -1.01028 0.19814
-1.39977 -0.6335 0.37902
-1.02236 -0.26386 0.05057
-2.19339 -2.19376 -0.9955
-1.68955 -0.73719 -0.15345
-1.46386 -0.69003 0.39282
-1.81704 -1.10639 0.53008
-2.19109 -1.29698 -0.31107
-1.93645 -1.6823 0.86304
-1.71332 -0.81243 0.28029
-1.35035 -0.66764 0.46019
-2.37144 -2.32005 -0.9561
-2.19279 -1.91848 -0.84641
-1.59184 -1.40575 0.87878
-2.0104 -1.92215 -0.95484
-2.13704 -1.15654 -0.12166
-1.47479 -0.81333 -0.51921
-1.88691 -1.71377 0.90756
-2.00535 -1.8021 0.89261
-2.41409 -1.70615 -0.49919
-2.94209 -2.48277 -0.56462
-1.52809 -0.87031 -0.5353
-1.7583 -0.79376 -0.14443
-2.0884 -1.18866 -0.31354
-2.25134 -1.49027 0.47237
-1.88153 -1.42549 -0.73515
-2.73862 -1.87508 -0.00783
-1.66176 -1.10977 0.64762
-2.19511 -1.70259 0.70566
-1.10621 -0.53672 0.48041
-1.70962 -1.13222 -0.63366
-1.82456 -1.1071 -0.52426
-2.98282 -3.19947 -0.98751
-1.49678 -0.6349 -0.27353
-2.18954 -1.84934 0.80674
-1.53214 -1.02642 -0.66299
-1.50426 -0.84946 -0.53269
-1.89066 -1.27936 -0.62106
-1.13875 -1.06978 0.86347
-1.19264 -0.98516 -0.79345
-2.4915 -2.42468 0.93423
-2.41129 -1.97261 0.72044
-1.52252 -1.08096 -0.70813
-1.59836 -0.71933 -0.28397
-1.49334 -0.55783 0.01756
-1.84822 -1.07293 0.46792
-1.23442 -0.55416 -0.41619
-2.29233 -1.60107 0.53607
-1.81396 -1.58283 0.87191
-2.00576 -1.45223 -0.66818
-2.25853 -1.30621 0.17599
-2.68059 -2.58473 -0.88789
-1.97286 -1.19875 -0.47509
-1.83414 -1.11386 -0.52234
-1.41939 -0.55568 -0.22807
-1.80836 -0.85234 -0.18654
-2.95509 -2.3636 -0.4248
-1.52793 -1.42071 0.91492
-2.46556 -1.52529 0.07449
-1.93083 -0.95989 0.16693
-2.93357 -2.52947 0.61483
-2.34686 -2.20516 -0.91007
-2.00422 -1.4175 -0.64286
-2.4757 -1.53313 -0.02938
-2.52805 -1.81338 -0.46434
-1.15402 -0.45571 0.35038
-2.6082 -1.91365 0.46149
-1.91931 -1.17249 0.50154
-2.52598 -1.69443 -0.31509
-1.3221 -0.50135 -0.25369
-1.49807 -0.75856 -0.44441
-2.48862 -1.80473 0.50638
-1.25279 -1.3242 -0.96531
-2.25455 -1.91921 0.80528
-2.86716 -2.05651 0.03699
-2.75977 -2.42648 0.72277
-1.11119 -0.74072 -0.65729
-2.37623 -1.78015 0.60707
-1.38607 -1.40222 0.96017
-2.91199 -2.12857 0.093
-2.10336 -1.10835 -0.04823
-1.82638 -1.8337 0.99989
-1.15166 -1.12228 0.88921
-2.65889 -2.52867 0.8725
-2.31501 -1.36222 0.14969
-1.14648 -0.3617 -0.18192
-1.72117 -0.91929 0.42272
-2.51687 -1.58369 0.00599
-1.25284 -0.59039 -0.44496
-2.70412 -2.07567 0.4976
-1.52353 -0.64564 -0.25564
-1.77093 -1.45151 0.81699
-1.3932 -0.88176 -0.62969
-1.11197 -0.41838 0.33055
-1.75047 -0.97043 0.45209
-2.19722 -1.73575 -0.72719
-2.12758 -1.43563 0.55134
-1.19055 -0.4644 0.33174
-1.97155 -1.10648 -0.36706
-1.80114 -0.86064 -0.22276
-1.26787 -0.44358 -0.20423
-2.20827 -1.21949 -0.01945
-2.60176 -1.74057 -0.21972
-1.02525 -0.27596 -0.11477
-2.07019 -1.77651 -0.83969
-2.50141 -1.70554 -0.37587
-2.54059 -1.69009 -0.27648
-2.61576 -1.86787 0.39664
-2.39002 -1.47643 0.21997
-1.53497 -0.61121 0.14891
-2.1124 -1.11568 0.01076
-2.9025 -2.79444 0.82965
-2.74519 -2.22042 0.58
-2.02673 -1.85688 0.91103
-2.386 -2.35133 -0.96337
-1.58531 -1.23336 0.77785
-1.78591 -0.88797 -0.30101
-1.69433 -1.35812 -0.80027
-2.1453 -1.20515 -0.2336
-1.8811 -1.36846 0.69557
-1.80305 -1.46074 -0.80498
-1.92061 -1.35514 0.65799
-1.71631 -1.67895 -0.97084
-2.49266 -2.11611 0.75018
-2.01403 -1.0433 0.17095
-2.23722 -2.05013 -0.89378
-2.80897 -2.45098 0.69167
-2.20049 -1.8995 -0.83004
-1.19775 -0.89107 -0.72967
-2.23563 -1.3776 0.35789
-1.93905 -1.65072 -0.84305
-2.79857 -2.32702 0.60747
-1.79721 -1.78427 0.98832
-2.41106 -1.84985 0.62972
-2.99216 -2.59656 0.59859
-1.90445 -1.21627 0.55636
-1.86227 -1.67374 -0.89818
-1.13875 -0.4811 -0.39612
-2.35074 -1.50032 -0.34472
-1.22397 -0.39902 0.1565
-1.27053 -0.71389 0.55708
-1.66989 -1.10802 0.64101
-2.454 -1.51852 -0.11398
-2.8116 -1.99861 -0.14944
-2.25502 -1.64363 0.61021
-1.66121 -1.59023 -0.94885
-2.85456 -2.03924 0.04601
-1.95276 -0.99266 -0.19833
-1.22807 -0.58011 -0.45063
-1.76929 -1.29701 -0.71723
-2.12001 -1.14952 0.16097
-2.26605 -1.94363 -0.81233
-1.81858 -0.89358 0.25841
-2.57132 -1.65975 0.08265
-1.7656 -0.86602 0.29442
-2.01413 -1.93162 -0.95783
-1.95377 -0.97411 -0.14072
-2.13735 -1.22934 0.29542
-1.89322 -1.04936 -0.39152
-1.05754 -0.37074 -0.3019
-2.21712 -1.64616 -0.64596
-2.33711 -1.36933 -0.06165
-2.01954 -1.24025 0.4697
-2.45879 -2.29795 -0.88687
-1.04321 -0.93519 -0.81432
-2.50029 -2.41665 -0.92401
-2.22261 -2.04159 -0.8981
-1.84305 -1.69575 0.92008
-2.87202 -2.98233 -0.95928
-1.16307 -0.60427 0.51584
-2.20477 -1.37227 0.39626
-1.16605 -1.29985 -0.97976
-1.73518 -0.79121 -0.19621
-1.38997 -0.92545 -0.66516
-2.48552 -1.66431 0.34621
-1.44705 -1.31354 -0.88885
-1.23083 -0.93196 -0.74379
-1.19128 -0.38157 -0.16365
-1.38898 -1.02005 -0.7333
-1.24212 -0.64994 -0.51403
-1.80326 -1.17649 0.60296
-1.00107 -1.21833 -0.98377
-2.29679 -1.65453 -0.57941
-2.09491 -1.59865 0.70816
-1.30457 -1.24974 0.90789
-2.88076 -2.67505 0.77483
-1.28167 -0.60428 -0.44002
-1.11274 -0.81948 -0.71409
-1.90592 -1.05706 0.38591
-1.17396 -1.05038 0.84014
-2.81253 -2.21478 0.48704
-1.03748 -1.01626 -0.86439
-2.36542 -1.99738 0.77368
-2.2423 -1.61062 -0.59468
-1.54062 -1.30386 0.8429
-2.34179 -1.42921 -0.24127
-1.3718 -0.51699 -0.21571
-2.02248 -1.83175 -0.89953
-2.0112 -1.43272 0.64922
-1.62295 -1.3624 0.83899
-1.19931 -0.51131 -0.38952
-1.67631 -1.34588 -0.80211
-1.14003 -0.32758 0.05167
-1.63141 -1.3429 0.82312
-2.1911 -1.40273 0.45
-1.02244 -0.6928 -0.65685
-1.00868 -0.27878 0.15629
-1.39184 -0.50841 0.15526
-2.92064 -2.17782 -0.21279
