ply
format ascii 1.0
comment Created by Open3D
element vertex 200
property double x
property double y
property double z
end_header
1.16932 2.0205 -2.16735
2.00174 2.60189 -2.6176
5.65549 4.40992 -3.77289
2.11418 6.9624 -3.85543
1.76839 2.66632 -2.60047
1.18949 0.363022 -1.16811
4.23868 6.45913 -4.46673
5.42181 5.44451 -4.24527
7.01249 3.55592 -3.2071
2.32936 2.26676 -2.50534
1.58108 -0.633693 0.216011
0.375638 5.54993 -2.38284
2.30548 -0.0298326 -0.885043
1.87092 1.97032 -2.28743
6.26994 9.41088 -5.69635
1.33321 5.71938 -3.28996
1.44331 0.657947 -1.43141
5.91774 4.62827 -3.88343
4.01379 1.20645 -1.86697
1.3137 -0.0197972 -0.845677
6.3997 4.4887 -3.80336
1.03885 0.279757 -1.07132
-0.623772 1.49736 -0.459558
3.68785 0.895335 -1.64595
-0.318859 0.886906 -0.876591
0.657873 -0.370535 0.342
0.459939 2.96378 -2.2701
5.20091 7.97434 -5.09925
5.15968 1.71409 -2.13424
-0.342625 0.808173 0.0708984
2.07045 7.03854 -3.83615
0.189862 1.32474 -1.48442
1.02885 5.35795 -3.06186
0.580992 2.99963 -2.34094
-0.258081 2.59702 -1.67044
0.529997 -0.275899 -0.275955
0.0443349 0.178572 0.297158
-0.633891 2.29515 -0.818514
-0.146522 4.34557 -1.79111
0.0650071 0.083389 0.253624
-0.119969 4.58206 -1.67085
0.929623 -0.483295 0.358435
2.89179 -0.0468162 -0.821369
-0.22765 2.46011 -1.66564
-0.63946 1.81115 -0.824895
1.47846 3.06608 -2.69259
1.30574 -0.446307 -0.300715
5.11127 6.41111 -4.5923
3.86667 1.32404 -1.96797
-0.167191 0.229128 0.0240793
2.38485 -0.185966 -0.702341
6.2565 9.89486 -5.81085
-0.512409 1.07196 -0.730406
0.26695 2.58961 -2.05067
3.97008 4.98585 -3.91401
2.64011 1.87794 -2.32533
-0.193376 3.92358 -1.83314
7.81397 3.88894 -3.32448
3.93444 0.859198 -1.5902
2.9866 1.88516 -2.35006
-0.167652 4.46009 -1.34607
2.22108 1.6479 -2.15579
-0.320721 3.79408 -0.962461
4.45071 6.58429 -4.54604
4.44678 7.96299 -4.91925
0.287823 -0.166034 0.254527
1.35986 -0.434134 0.662679
-0.522215 0.897406 -0.321641
2.2023 0.639845 -1.48489
-0.02674 1.52716 -1.46711
4.20057 0.888633 -1.58226
1.31354 1.81318 -2.10114
0.278682 4.8945 -2.39252
1.88011 6.64123 -3.69659
6.05355 5.54064 -4.31928
1.80565 -0.291818 0.899949
0.357373 0.544924 -1.07378
1.90128 6.78181 -3.71945
2.15731 6.66379 -3.84763
0.26227 4.22213 -2.38446
4.16454 7.05265 -4.62139
1.45446 3.67463 -2.89883
4.33251 3.59142 -3.33241
-0.327988 3.91025 -1.42019
3.61661 1.81851 -2.31924
0.293877 -0.225174 0.133544
5.3945 4.84396 -3.97713
-0.424296 2.25798 -1.40146
1.64675 4.67854 -3.25419
-0.647928 1.98312 -0.681069
1.70583 5.8729 -3.51602
1.07609 -0.132967 -0.684038
5.80513 7.60755 -5.09377
1.01539 0.221054 -1.01658
-0.492521 1.82681 -1.17598
6.42735 9.79486 -5.82476
-0.393384 3.6584 -1.11658
2.90263 3.94042 -3.3438
0.0426761 4.60004 -2.10224
-0.645433 2.06577 -0.828888
2.57791 1.63255 -2.17633
6.01536 7.74298 -5.16743
-0.543919 2.84439 -0.787061
1.3038 -0.442154 0.633461
2.82572 1.85017 -2.32125
0.478302 -0.247153 -0.291026
0.350973 0.0573997 -0.637361
-0.312743 1.16336 -1.06377
4.13275 7.13472 -4.63539
1.35441 1.10885 -1.71683
1.29894 -0.590486 0.0927429
7.08991 4.07366 -3.5249
1.36082 -0.60603 0.150865
3.18669 0.905633 -1.68694
1.71201 2.53134 -2.5287
-0.373195 1.89256 -1.34639
1.1424 0.851411 -1.51303
5.18118 8.80937 -5.30407
0.704504 1.86315 -1.95486
-0.519851 3.0942 -1.15999
2.2077 1.84853 -2.26807
0.849963 -0.415632 -0.198303
0.108605 -0.0502465 -0.278338
4.30396 4.27425 -3.6543
4.20793 5.14253 -4.00596
5.61937 5.66835 -4.35311
6.47571 9.82359 -5.84195
2.71348 6.37929 -4.03558
1.95063 0.713053 -1.5256
3.38744 2.06567 -2.47107
4.54533 4.9357 -3.96077
4.31138 8.22153 -4.93705
1.58275 0.121971 -1.01359
0.627008 -0.20701 -0.447783
2.70277 6.18053 -3.98912
-0.615332 1.88629 -0.949233
4.17127 1.07106 -1.74208
0.798874 -0.423591 -0.145782
4.0595 2.51345 -2.74333
0.23791 -0.153481 0.201666
0.411168 -0.00506427 0.506045
3.27868 4.5142 -3.62923
-0.00803455 4.31457 -2.07587
-0.503979 3.05402 -0.828068
0.402088 5.63953 -2.39476
2.96016 1.675 -2.22116
0.849365 4.54977 -2.84775
0.77201 0.187372 -0.92724
1.89839 -0.469317 -0.316814
1.33458 -0.383964 0.704136
1.7003 -0.536175 -0.180911
4.98404 3.76419 -3.43725
6.99994 3.33996 -3.06504
6.89115 10.1917 -6.01762
5.54395 2.2152 -2.46148
0.929571 6.32675 -2.95565
5.74279 3.95424 -3.53306
-0.625108 1.46856 -0.692601
1.04843 0.350979 -1.13168
0.925965 4.94976 -2.95182
-0.0793676 0.699762 -0.949373
5.34534 2.69014 -2.80452
-0.273623 3.98867 -1.61193
1.54351 0.594791 -1.39857
0.312769 1.77291 -1.75865
0.612394 2.3558 -2.12979
6.61249 3.12612 -2.96896
2.73394 -0.177427 -0.680385
2.31402 -0.299098 -0.560347
0.87503 2.71567 -2.36744
2.26756 1.30869 -1.95418
3.04654 1.59051 -2.17022
4.63403 2.15702 -2.5034
2.63917 0.689298 -1.53065
0.993484 0.578836 -1.29381
-0.222066 0.370994 0.0644487
0.877047 -0.503959 0.159942
2.0563 4.39745 -3.31352
0.534847 2.69934 -2.22182
3.98957 6.85247 -4.52579
0.109326 5.27124 -1.79532
1.38231 3.87013 -2.9345
0.157825 -0.0511516 0.236435
2.9963 1.31296 -1.98642
3.20688 3.1686 -3.04789
0.751352 3.20568 -2.48252
4.03562 6.64253 -4.47837
0.552343 3.75697 -2.52432
-0.53078 0.917764 -0.353693
5.24601 1.81872 -2.20366
-0.0342562 4.51682 -1.9834
-0.294261 3.70185 -1.678
-0.460732 2.62625 -1.41862
0.488357 -0.346897 0.13013
5.14651 4.43686 -3.77652
-0.473809 3.1447 -0.803068
4.42111 3.03233 -3.03999
1.67998 -0.0804889 -0.821445
2.03818 -0.467851 -0.316498
1.21422 -0.427556 0.614769
