ply
format ascii 1.0
comment Created by Open3D
element vertex 400
property double x
property double y
property double z
end_header
-0.429394 2.09594 -1.24047
0.531315 2.70822 -1.95103
0.105608 2.84443 -1.99074
-0.78347 2.48473 -2.14205
0.410762 2.89584 -2.16668
-0.0961752 1.14528 -0.563875
0.397439 2.85165 -2.05289
0.495473 1.98746 -1.12989
0.690481 1.97395 -1.67106
-0.266738 1.74814 -0.966328
0.304381 1.45334 -0.610769
-0.455621 2.08855 -1.38832
0.809909 2.89759 -3.1384
-0.0963324 2.70563 -1.64279
0.401766 2.90319 -2.21412
0.2256 2.98599 -2.24253
-0.618259 2.58755 -1.90256
-0.907731 1.67073 -1.54281
0.474493 2.78871 -1.75067
1.06641 2.68772 -2.50339
-0.492781 2.02058 -1.27178
0.752478 1.59268 -0.821662
0.116035 2.74747 -1.49338
0.722971 1.88569 -0.970259
0.252586 1.93315 -1.17079
-0.49012 2.01031 -1.63413
0.76598 2.63667 -2.16841
0.244241 2.46223 -1.92161
0.978166 1.58803 -1.3964
0.658692 2.2089 -1.41177
-0.148052 2.21074 -1.22631
-1.00345 2.63715 -2.82147
0.496514 1.72066 -1.26963
-0.472077 2.43156 -1.60858
-0.965716 1.66637 -1.62491
0.0667879 1.7083 -0.499622
0.797641 1.97793 -2.01759
0.751705 2.50984 -1.50295
0.298129 1.46985 -1.03109
-0.286967 1.00699 -0.646807
0.681062 1.77148 -0.818408
0.0933892 2.72271 -1.98043
0.310141 2.82426 -2.03902
-0.51366 2.09891 -1.35442
-0.750455 1.26476 -0.964175
0.135736 1.62089 -0.736244
0.0769285 2.37179 -1.34955
0.143605 2.95652 -1.95664
-0.41668 1.74551 -1.13975
0.497754 1.31638 -0.669716
0.808888 2.18735 -1.97257
0.0297355 2.35011 -1.28004
0.0705153 2.22421 -1.08264
-0.548707 2.14122 -1.49173
-0.332694 2.92163 -2.05385
-0.42121 2.75876 -2.23734
-0.529618 2.71062 -2.07786
0.143353 1.22447 -0.213837
-0.749859 1.73579 -1.47303
-0.0708073 1.77905 -0.691967
-0.571617 1.50622 -0.887497
-0.913454 2.5658 -2.55431
-0.117826 1.98623 -1.014
-0.370143 2.24677 -1.34159
-0.141324 1.61777 -0.662804
-0.52784 2.60339 -2.00742
0.547237 1.65662 -0.816563
-0.937704 1.31444 -1.33955
0.55585 1.69852 -1.09262
-0.512284 1.79119 -0.958024
0.0196278 2.32474 -1.23868
0.171239 1.23011 -0.332731
0.56704 2.31172 -2.0179
1.10185 2.35576 -1.89256
-0.161886 1.4383 -0.516346
-0.515073 2.59095 -2.12013
0.548024 1.1251 -0.508376
0.619392 1.1948 -0.832048
0.454016 1.99966 -1.28513
0.894193 2.1849 -1.66268
-0.0447421 1.38041 -0.527262
0.55113 2.31789 -1.27791
-0.656089 1.99854 -1.46015
0.393894 1.81099 -0.571176
0.0495473 0.991617 -0.278563
0.437134 1.8529 -0.875956
0.439191 2.93067 -2.40177
0.889038 2.65677 -2.02812
0.789165 0.989515 -0.961685
-0.03564 2.67485 -1.81593
0.236448 1.96801 -0.743172
0.816898 2.71157 -2.87787
0.811892 2.08913 -2.26505
-0.446228 1.64961 -0.845578
0.545269 2.89203 -2.04306
1.03995 1.9974 -1.90697
-0.57696 1.8481 -1.15802
-1.04664 2.80615 -3.10351
-0.0968429 1.72812 -0.535013
-0.430101 1.40563 -0.912391
0.0543419 1.34803 -0.297468
0.257616 2.05354 -1.01285
-0.414062 1.78666 -0.827822
0.431503 1.28064 -0.511997
-0.680094 1.27808 -0.899054
-0.660141 1.94062 -1.29281
0.360417 2.13991 -0.912083
0.881633 1.89779 -1.69436
-0.985965 1.38114 -1.44484
0.738621 2.07431 -2.00121
0.547112 2.06249 -1.5526
-0.606096 1.27216 -0.761586
-0.037722 1.39914 -0.683502
-0.0284479 2.35775 -1.68913
-0.984057 1.75423 -1.74452
-0.748374 1.1092 -0.867024
0.917138 2.36963 -1.82446
-0.128744 1.34405 -0.555584
0.282865 1.80004 -0.928855
-0.00416304 2.34906 -1.48101
0.645313 2.50803 -2.13797
-0.944994 2.80498 -2.90047
-0.463683 1.84427 -1.08368
-0.581584 1.75987 -1.12063
-0.380894 1.80972 -1.20611
0.312202 1.76831 -0.865208
0.658008 1.94056 -1.70721
0.0810687 1.08825 -0.454181
-0.805335 2.65595 -2.42331
-0.345177 1.51445 -0.880367
0.586117 1.87632 -0.855223
0.417397 2.26482 -2.16202
-0.41549 1.85401 -0.85329
-0.842228 1.26292 -1.13597
0.585793 1.79672 -1.1946
-0.755359 1.61965 -1.25395
0.709206 1.02513 -0.955354
0.225134 1.16961 -0.527246
-0.66175 2.39374 -1.78485
-0.600837 1.36921 -0.798477
-0.332269 1.0062 -0.455829
0.700864 1.37776 -1.29053
-0.88056 1.82914 -1.61986
0.0591183 1.11556 -0.657372
-0.884681 1.06022 -1.05322
0.93516 2.62391 -2.34279
-0.130834 2.85471 -1.93731
0.85667 2.74982 -2.86609
-0.987079 2.51915 -2.59187
0.000143839 1.47687 -0.574286
-0.26697 1.74131 -0.66552
-0.583996 2.1575 -1.59116
-0.54945 2.05425 -1.28175
0.869911 1.50842 -1.14306
0.902632 1.81682 -1.87149
-0.769066 2.7771 -2.5137
0.120116 2.71762 -1.77939
-0.500575 0.928645 -0.546875
0.795057 1.42419 -1.10932
0.28217 2.38327 -1.36197
-0.421401 2.43884 -1.62641
1.12449 1.50485 -1.25256
0.364261 1.70636 -0.777659
-0.233059 2.10773 -1.50426
-0.813076 1.76484 -1.48135
0.550724 2.98392 -2.50934
-0.329938 2.36085 -1.96327
0.626954 1.16213 -0.437666
-0.804896 1.99291 -1.6109
-0.674808 3.02 -2.68977
-0.0517248 2.68841 -1.77901
-0.469099 1.76472 -0.950929
-0.300861 2.59985 -2.17651
0.750631 1.38747 -1.39735
-0.260328 2.80924 -2.1667
-0.172852 2.80549 -2.33969
-0.101011 1.31984 -0.207651
-0.0388292 1.3116 -0.593959
0.492663 1.21733 -1.01362
0.357919 1.44769 -0.798851
0.695015 3.00878 -2.29176
-0.0946392 2.69122 -1.82023
0.386533 2.82752 -1.74017
-0.061336 2.8769 -1.80648
-0.862757 1.69966 -1.46353
0.474197 1.68827 -0.764013
0.169778 2.57389 -1.63361
-0.474711 1.36223 -0.600251
-0.752113 2.15421 -1.66582
0.687462 2.6024 -2.3247
-0.513501 2.83808 -2.36248
0.495045 2.7526 -2.23123
0.44184 1.07276 -0.65993
0.282573 1.49187 -0.431417
-0.269537 2.43502 -1.34412
-1.12408 2.67327 -3.09109
0.545192 1.80154 -1.97709
0.273483 2.81333 -2.06451
0.805617 2.51757 -2.03339
-0.987997 1.11833 -1.27151
0.356902 2.11952 -0.816688
-0.216574 1.05563 -0.512944
-0.279077 1.60967 -0.743697
0.8128 2.58938 -2.53662
-0.787226 1.26137 -1.0281
0.930264 1.62941 -0.740286
-0.338927 2.57434 -1.51329
-0.926552 2.72455 -2.83767
-1.03126 1.88152 -1.94598
0.164478 2.47026 -1.39307
-0.0988734 0.907707 -0.443673
-0.0836769 2.28261 -1.47445
-0.623998 3.12419 -2.67504
0.105928 2.59459 -1.98842
0.734455 1.59341 -0.731615
-0.862954 2.06526 -1.80428
-0.024693 2.31403 -1.4117
0.588557 1.92667 -0.932263
-0.0849683 1.33134 -0.549398
0.123364 2.91723 -2.31678
0.823516 1.95821 -1.35995
0.533422 1.09084 -0.605388
-0.565537 2.44805 -1.81301
0.626675 2.66333 -2.06415
-0.996535 1.67051 -1.72762
-0.967108 2.17348 -2.11296
0.729721 2.02529 -1.50697
-0.916022 2.26105 -2.19417
-0.430754 1.75996 -0.912034
-0.69334 2.27925 -1.72313
0.586153 1.28593 -0.812087
-1.04754 2.30811 -2.46685
0.719671 2.07736 -1.74596
0.360711 2.90486 -2.31763
0.198007 1.14281 -0.158533
-0.0656988 2.33051 -1.09976
0.717786 1.58287 -0.702664
-0.542786 1.8549 -1.07359
-0.671669 2.11992 -1.60557
-1.06669 1.14748 -1.40917
-1.07063 2.56475 -2.82199
-0.779607 1.74977 -1.3588
-0.277902 2.27716 -1.32087
-0.776178 1.76528 -1.37739
0.427209 2.04379 -1.50633
-0.900414 1.94036 -1.74651
-0.115928 1.62062 -0.673338
-0.785094 2.24013 -2.0427
-0.102467 1.70039 -1.12353
0.376384 1.21868 -0.888366
-0.555118 2.71207 -2.27839
-0.926704 2.31742 -2.19396
0.175642 1.77008 -0.753218
-0.844812 2.12457 -1.83361
-0.933283 2.61834 -2.56946
0.085283 1.9611 -0.687617
0.128227 2.01712 -0.986363
-0.630399 2.56542 -2.01574
0.666219 3.00735 -2.26964
-0.375596 1.88102 -1.00359
-0.110776 2.59798 -1.47328
0.375409 1.58499 -0.977181
0.652827 2.37263 -2.23182
-0.260133 1.55286 -0.789343
0.352993 2.23452 -1.7108
-0.912383 1.472 -1.38377
-0.0870498 2.83373 -1.72597
-0.482736 1.39218 -0.644426
0.824821 1.95464 -0.714189
-0.838635 1.69369 -1.48098
0.118726 1.66912 -0.786564
-0.678439 1.45069 -0.968349
-0.853238 2.64527 -2.42425
-1.05114 0.945739 -1.2815
-0.0790298 2.5152 -1.77266
-0.114097 2.75401 -1.52861
-0.205911 1.007 -0.289601
-0.398992 1.84107 -1.06296
0.120598 1.42515 -0.719812
-0.410723 1.67328 -0.841353
0.454903 1.58238 -1.13864
0.903497 1.2212 -1.08203
0.365224 2.4786 -1.90413
0.0663592 1.01319 -0.316731
-0.489572 2.22071 -1.51919
-0.0458011 1.85508 -0.924521
-0.579312 2.38278 -1.59176
-0.299074 1.53133 -0.746614
-0.198121 1.8491 -0.771591
0.803323 2.75472 -2.62694
0.280831 2.08458 -1.087
0.568569 2.26538 -1.19751
-0.248126 2.38019 -1.63105
-0.0798789 2.70135 -2.06816
0.697791 2.70065 -1.60981
0.550538 1.25605 -0.381352
1.00031 2.14862 -2.03068
-0.924075 2.31973 -2.2451
-0.603674 2.05036 -1.52081
-0.435631 1.13222 -0.568221
0.557839 2.60375 -2.29706
0.164684 2.55478 -1.85307
-0.170589 1.30926 -0.334369
-0.415864 1.93582 -1.00543
-0.628243 1.11693 -0.699703
-0.449007 2.01279 -1.31292
-0.376961 1.62411 -0.818051
0.790847 2.69806 -2.69331
-0.0812827 1.49881 -0.615633
-0.218144 1.91733 -0.886714
-0.571753 1.3269 -0.722883
0.230706 2.77465 -1.88774
-0.138211 1.33304 -0.544981
0.454792 0.933782 -1.03958
0.566084 1.7342 -0.810416
-0.0732833 2.48794 -1.30518
0.800097 1.56689 -1.62973
-0.991666 2.23266 -2.28436
-0.921061 1.27901 -1.25594
-0.733954 2.26917 -1.85539
-0.367837 2.39594 -1.68698
-0.89109 2.30453 -2.15533
0.426669 1.64719 -0.921301
-0.89149 3.03221 -3.06653
0.783194 2.12234 -1.67766
0.0483592 2.52265 -1.39597
0.827627 2.73565 -1.84166
0.95228 1.56201 -0.93229
-0.648662 2.03154 -1.42851
0.517274 2.49702 -1.54295
-0.445529 2.74502 -1.9897
0.137776 1.39895 -0.437354
-0.732041 2.97822 -2.7608
-0.983041 1.56094 -1.56928
0.661831 1.18916 -1.09749
-0.248671 1.37709 -0.430001
-0.846318 1.26579 -1.11659
-0.574793 1.23269 -0.742663
-0.197313 1.10444 -0.353743
0.2158 2.58091 -1.82679
-0.732618 2.07265 -1.85892
0.871795 2.2011 -2.07493
-0.177638 3.12322 -2.08567
0.157205 1.41577 -0.773825
0.117099 1.68964 -1.16399
-0.018926 2.39846 -1.72226
0.226204 2.36148 -1.30485
0.656592 3.02169 -2.11513
-0.499932 2.13018 -1.5374
1.00573 2.9899 -3.07755
1.02348 1.45153 -1.10744
0.724642 2.19184 -1.59644
0.235207 1.43999 -0.0844829
-0.243382 2.82388 -2.20907
-0.262956 2.22555 -1.45926
-0.749716 1.46206 -1.08704
0.442304 1.50308 -1.2397
0.438523 1.22538 -0.821197
0.575844 1.42975 -0.702946
0.566727 2.04376 -1.13892
0.850417 1.7128 -1.8133
0.0718206 0.895331 -0.492509
-0.428432 2.65922 -1.83976
-0.769667 1.60251 -1.22549
0.264056 0.874036 -0.566684
-0.813338 2.54211 -2.21449
-0.687301 1.47387 -1.01309
0.0934525 2.51243 -1.26957
-0.419084 2.81492 -1.96755
0.677573 2.95433 -2.55594
0.456167 1.17682 -0.654633
-0.124959 1.60842 -0.425999
-0.741401 2.43021 -2.01495
-0.324718 1.65094 -0.685998
0.345193 1.25152 -0.966977
-0.665299 1.71693 -1.20255
-0.160052 2.18273 -1.36145
0.549798 2.29811 -2.12497
-0.401796 2.79187 -2.30333
0.181219 2.30183 -1.11397
1.04969 1.30286 -1.30634
0.0895819 2.15641 -0.978468
-0.227795 1.59691 -0.510285
-0.88752 2.88858 -2.85779
0.223263 3.16221 -2.01661
0.243878 2.82057 -2.10043
-0.145911 2.82224 -1.87091
-0.352201 2.25157 -1.42603
0.52073 1.12199 -0.83503
0.0661068 2.84484 -2.28322
-0.767821 2.09294 -1.66947
-0.565864 2.70785 -2.17309
-0.162207 2.68306 -1.84938
0.486389 2.69169 -2.5967
0.279967 2.34353 -1.42066
0.738367 2.03904 -1.49775
-0.916658 2.06119 -1.9082
0.109148 2.31414 -1.1558
-0.269156 1.95561 -1.07227
-0.556619 2.03816 -1.5804
