ply
format ascii 1.0
comment Created by Open3D
element vertex 400
property double x
property double y
property double z
end_header
0.59247 1.3742 -1.96103
1.60806 2.26697 -1.93954
1.3602 2.18089 -2.33808
1.10812 1.40362 -2.86048
1.67641 2.34459 -2.23188
0.0477391 0.919479 -0.965104
1.59876 2.31032 -2.15847
0.973692 1.76114 -1.19805
1.38671 1.81732 -1.35297
0.300047 1.26238 -1.57228
0.467069 1.30112 -0.815577
0.540873 1.38838 -2.08218
2.52191 2.46442 -2.47215
1.1024 1.97246 -2.2141
1.69083 2.34624 -2.26964
1.60879 2.32671 -2.451
1.21518 1.52775 -2.62769
0.435497 0.807197 -2.28433
1.52072 2.29532 -1.89559
2.42803 2.41016 -1.81188
0.531249 1.29603 -1.99697
1.02461 1.55525 -0.639886
1.18559 2.09934 -1.98854
1.11929 1.76034 -0.876575
0.741165 1.63866 -1.39316
0.436569 1.37113 -2.25056
1.90944 2.2954 -1.84886
1.22076 2.00268 -2.05455
1.52611 1.61416 -0.78538
1.31981 1.9717 -1.3233
0.663503 1.62851 -1.82037
1.29307 1.41179 -3.48323
0.937186 1.5786 -1.17194
0.899033 1.56447 -2.33081
0.594177 0.723477 -2.34137
0.402091 1.35421 -1.01916
1.66865 1.84583 -1.4655
1.56157 2.2079 -1.42206
0.57549 1.33213 -1.08621
-0.114285 0.746455 -1.10312
0.989541 1.66277 -0.772379
1.27018 2.10338 -2.29885
1.50743 2.25861 -2.20735
0.607897 1.33101 -2.08675
0.251029 0.566949 -1.64737
0.415712 1.35796 -1.09102
0.883836 1.85168 -1.79831
1.45012 2.26174 -2.32747
0.262514 1.19675 -1.78537
0.634116 1.27228 -0.639839
1.71898 1.99886 -1.51752
0.833317 1.81001 -1.78037
0.744048 1.73838 -1.582
0.620455 1.35646 -2.21714
1.33221 1.96885 -2.68914
1.15262 1.86398 -2.82371
1.15896 1.72884 -2.75953
0.228662 1.03425 -0.587761
0.272635 1.00946 -2.20406
0.388385 1.35055 -1.26728
0.26731 0.86447 -1.5979
1.16506 1.42015 -3.24164
0.50397 1.49186 -1.58572
0.695799 1.5146 -2.04326
0.269495 1.20934 -1.238
1.02794 1.67767 -2.68652
0.816983 1.53838 -0.832259
0.0901085 0.587559 -2.06658
0.930457 1.57814 -1.00864
0.536518 1.05335 -1.69052
0.805872 1.78629 -1.75236
0.248336 1.06724 -0.648843
1.50938 2.01384 -1.7947
2.07639 2.19951 -1.29524
0.178737 1.06125 -1.08602
0.986235 1.70564 -2.75616
0.605562 1.1391 -0.417046
0.797191 1.22358 -0.584768
0.990634 1.7591 -1.32926
1.6777 2.02474 -1.26584
0.180756 1.09359 -0.994213
1.20468 2.0076 -1.37348
0.562428 1.18504 -2.2056
0.662524 1.57799 -0.86506
0.0892537 0.839734 -0.605536
0.790507 1.63997 -1.03666
1.81297 2.37851 -2.36103
1.98718 2.34833 -1.67463
1.02514 1.11348 -0.426437
1.12338 2.00506 -2.27392
0.64726 1.62822 -1.15268
2.33162 2.34684 -2.24367
1.83206 1.92452 -1.6423
0.314444 1.04195 -1.55192
1.74483 2.39132 -2.05233
1.91923 1.92424 -1.20432
0.489154 1.09943 -1.89935
1.57576 1.4637 -3.72206
0.378464 1.27383 -1.15644
0.041358 0.956618 -1.52494
0.227814 1.08617 -0.756177
0.757574 1.71162 -1.33835
0.485271 1.11429 -1.55173
0.516557 1.21676 -0.581177
0.126978 0.656928 -1.59157
0.886054 1.00474 -2.00602
0.853128 1.8039 -1.23057
1.60238 1.81479 -1.17398
0.514019 0.482299 -2.11485
1.6173 1.8989 -1.54601
1.20776 1.83629 -1.43805
0.200458 0.658028 -1.43769
0.195512 1.12999 -1.10004
0.88628 1.8162 -2.08182
0.561973 0.809203 -2.47999
0.24758 0.43088 -1.50867
1.83121 2.15986 -1.41682
0.124916 1.03085 -1.05805
0.647229 1.54964 -1.169
0.849566 1.8089 -1.93135
1.71809 2.17101 -1.87883
1.49076 1.53083 -3.54079
0.396003 1.19265 -1.79713
0.391346 1.05279 -1.85474
0.307768 1.26636 -1.82923
0.644027 1.53595 -1.09436
1.35555 1.78418 -1.3872
0.14331 0.94474 -0.7384
1.25394 1.51706 -3.11355
0.1324 1.06604 -1.48536
0.935317 1.707 -0.914797
1.39577 1.93411 -1.98206
0.573745 1.14156 -1.58405
0.558008 0.425678 -1.75702
1.02786 1.65874 -1.08565
0.348852 0.856672 -1.99173
0.925401 1.1212 -0.507212
0.295859 1.0655 -0.707875
1.0188 1.39201 -2.52271
0.303642 0.710332 -1.48468
-0.0688184 0.674092 -0.994161
1.09876 1.38791 -0.868129
0.615131 0.903551 -2.35874
0.156884 0.975614 -0.897462
0.115598 0.370298 -1.71856
2.17544 2.33332 -1.80404
1.25397 2.05957 -2.47215
2.38481 2.38478 -2.21922
1.2293 1.3173 -3.27702
0.249243 1.1848 -1.03031
0.391318 1.18477 -1.35084
0.62273 1.35901 -2.31216
0.657139 1.24476 -2.02945
1.26959 1.52845 -0.695023
1.69103 1.75854 -1.22379
1.36477 1.61427 -3.18717
1.22859 2.1032 -2.15425
-0.11329 0.52687 -1.12956
1.14944 1.44615 -0.701907
1.03127 1.95031 -1.65812
0.863042 1.61857 -2.32227
1.63847 1.58746 -0.539153
0.644975 1.50839 -0.974878
0.579228 1.55542 -2.02538
0.439341 0.936271 -2.22928
1.98856 2.45204 -2.35558
0.788129 1.68827 -2.46896
0.679704 1.18704 -0.324779
0.906258 0.987508 -2.32701
1.57802 1.82581 -3.31997
1.11952 2.00144 -2.26626
0.400328 1.10526 -1.67359
1.02214 1.85142 -2.66037
1.20587 1.40795 -0.892674
1.21162 1.98244 -2.69084
1.27142 2.04168 -2.7394
0.227943 0.947473 -0.777667
0.152008 1.06095 -1.00825
0.716743 1.20911 -0.809382
0.561181 1.32686 -0.887294
2.04517 2.51933 -2.12325
1.1118 1.98335 -2.32273
1.46729 2.28428 -1.97093
1.27482 2.09874 -2.34896
0.633969 0.783359 -2.17895
0.737874 1.53427 -0.872109
1.13198 2.03272 -1.97791
0.33417 0.75125 -1.2664
0.973377 1.13771 -2.39438
1.88293 2.24589 -1.98993
1.25694 1.84878 -2.9804
1.70833 2.28378 -2.14979
0.521249 1.07522 -0.574586
0.431073 1.30482 -0.734494
0.866346 1.67667 -2.03907
1.46138 1.34156 -3.72066
1.30374 1.65163 -1.58046
1.48133 2.23759 -2.24663
1.84865 2.22759 -1.69041
0.354674 0.298634 -1.90776
0.819124 1.78331 -1.16614
-0.0450659 0.790964 -0.980386
0.2381 1.13263 -1.3782
2.11711 2.27017 -2.00295
0.190694 0.568644 -1.72257
1.20807 1.63095 -0.458774
1.02724 1.71225 -2.2284
1.3037 1.53208 -3.48629
0.769594 0.838774 -2.66253
1.00588 1.95461 -1.79655
-0.0390684 0.738832 -0.791569
0.763124 1.73032 -1.96099
1.71604 1.89549 -3.30135
1.20355 2.03194 -2.24915
0.973427 1.54846 -0.601181
0.842615 1.05493 -2.53785
0.803211 1.7729 -1.89019
0.979066 1.7452 -0.979863
0.137109 1.04489 -1.01888
1.5182 2.24367 -2.54808
1.40349 1.84479 -1.05378
0.61033 1.1136 -0.473538
0.913215 1.53893 -2.52906
1.72823 2.26999 -1.91221
0.362515 0.797665 -2.47581
1.04456 1.0479 -2.81869
1.37668 1.86548 -1.24582
0.849706 1.22859 -2.92103
0.380482 1.12823 -1.62591
0.921635 1.30268 -2.46582
0.768805 1.28146 -0.640222
1.01645 1.16085 -3.17259
1.48251 1.89841 -1.41515
1.69668 2.33257 -2.36331
0.237191 0.994491 -0.477418
0.776465 1.72467 -1.72021
0.942933 1.53502 -0.59302
0.548322 1.09631 -1.81388
0.663701 1.25865 -2.34949
0.258558 0.320668 -2.08001
1.33063 1.29629 -3.48307
0.603504 0.874814 -2.08803
0.706359 1.59417 -1.98549
0.548734 0.910404 -2.11633
1.05993 1.78419 -1.50033
0.836006 0.923676 -2.46458
0.2763 1.22776 -1.22956
0.70631 1.32592 -2.75839
0.350975 1.33819 -1.54451
0.546849 1.17202 -0.830561
1.12571 1.75177 -2.91593
1.11091 1.17973 -2.90297
0.513019 1.47454 -1.12935
0.869056 1.11 -2.56914
1.40206 1.3723 -3.24232
0.556102 1.5446 -1.22232
0.642303 1.63082 -1.40488
1.07066 1.56566 -2.72833
2.00695 2.50866 -2.13285
0.421717 1.26133 -1.70235
0.997516 1.88776 -2.07962
0.671447 1.43688 -1.03871
1.7193 2.07961 -1.87275
0.185674 1.12331 -1.38054
1.13859 1.89021 -1.75643
0.598144 0.567994 -2.0557
1.22439 2.05255 -2.30046
0.297245 0.788415 -1.32207
1.15768 1.83557 -0.668794
0.3531 0.89067 -2.22791
0.43246 1.3868 -1.1544
0.368036 0.726156 -1.67106
1.42235 1.42053 -3.10546
0.292972 0.139592 -1.8836
0.979413 1.88967 -2.22437
1.14511 1.96955 -2.16327
0.00549113 0.711251 -0.792197
0.366628 1.24014 -1.74812
0.323066 1.21897 -1.01511
0.309503 1.08573 -1.53958
0.805894 1.46525 -1.07042
1.24404 1.31979 -0.503459
1.32998 2.05769 -1.95555
0.105452 0.868172 -0.627741
0.667472 1.44797 -2.2277
0.444936 1.44166 -1.43188
1.03947 1.40459 -2.33453
0.177614 1.07681 -1.36721
0.418037 1.32315 -1.42519
2.20887 2.37879 -2.12897
0.808684 1.74528 -1.37828
1.17211 1.97672 -1.29085
0.791937 1.71124 -2.20599
1.17614 2.01413 -2.47123
1.62805 2.31809 -1.60312
0.600951 1.23015 -0.393459
1.9649 2.02136 -1.37332
0.958646 1.24116 -2.96628
0.53055 1.28068 -2.24475
-0.00910999 0.70221 -1.17983
1.7343 2.20629 -2.08016
1.18187 2.02762 -2.10857
0.164642 0.931172 -0.911926
0.52228 1.24531 -1.73432
0.157607 0.524077 -1.34512
0.479309 1.34194 -2.00419
0.248928 1.08565 -1.49212
2.20638 2.33487 -2.15459
0.22152 1.16312 -1.12325
0.449449 1.37013 -1.54017
0.315424 0.681304 -1.39431
1.36845 2.19116 -2.15866
0.116979 1.01686 -1.05312
0.63195 0.98753 -0.732661
0.856938 1.59922 -0.845447
0.904762 1.8319 -1.91095
1.40138 1.55222 -1.06385
0.882887 1.15671 -3.00739
0.413449 0.450819 -1.92086
0.822898 1.31866 -2.59327
0.792783 1.65154 -2.3235
0.947439 1.24226 -2.88135
0.724693 1.49564 -0.989143
1.78637 1.67375 -3.66828
1.53847 1.94887 -1.34118
0.977921 1.92908 -1.89941
1.86803 2.38484 -1.6482
1.29543 1.58877 -0.524525
0.65097 1.18266 -2.17825
1.34399 2.11934 -1.62804
1.17284 1.79578 -2.66301
0.292441 1.18054 -0.809965
1.54347 1.77535 -3.38926
0.542744 0.636544 -2.27518
0.942769 1.23546 -0.704779
0.189927 0.938477 -1.05031
0.338136 0.495876 -1.79088
0.0762637 0.685914 -1.41163
0.0288761 0.796456 -0.871085
1.22704 2.06404 -2.06339
0.508367 1.26674 -2.56358
1.84451 2.02416 -1.5294
1.5281 2.17355 -2.67263
0.359967 1.23098 -1.01718
0.521734 1.42458 -1.39925
0.925449 1.84683 -2.10965
0.963187 1.91028 -1.65717
1.93941 2.51497 -2.05565
0.562423 1.40574 -2.22399
2.74865 2.58528 -2.31148
1.43833 1.52388 -0.517913
1.45959 1.98085 -1.37088
0.372954 1.20296 -0.518962
1.23438 2.00377 -2.71121
0.654071 1.59914 -2.05452
0.429927 0.683547 -1.7869
0.806643 1.40674 -1.10794
0.595113 1.19347 -0.741644
0.753262 1.38044 -0.644577
1.06711 1.82405 -1.16895
1.57668 1.6701 -1.19011
0.0849211 0.808081 -0.690048
1.08886 1.74542 -2.52858
0.490542 0.782182 -1.94573
0.273607 0.866447 -0.575453
1.30607 1.37391 -2.91537
0.315237 0.762677 -1.72752
0.972226 1.93537 -1.78395
1.26007 1.83752 -2.64804
2.12135 2.47496 -2.26946
0.555493 1.15636 -0.604689
0.331657 1.15932 -1.05362
1.01685 1.40067 -2.74223
0.32455 1.09863 -1.37013
0.545317 1.18902 -0.917758
0.382698 0.976618 -1.94183
0.646155 1.62242 -1.90796
1.53254 1.99846 -1.86565
1.18887 1.90059 -2.8644
0.857422 1.84118 -1.54987
1.53879 1.41569 -0.544842
0.698464 1.69734 -1.47787
0.321894 1.09638 -1.16896
1.6098 1.59085 -3.49347
1.65659 2.41983 -2.37554
1.47497 2.23075 -2.29327
1.21521 2.02714 -2.42934
0.675597 1.54882 -2.09483
0.671246 1.14161 -0.637156
1.42193 2.17469 -2.54528
0.782972 1.1419 -2.41468
1.15148 1.71808 -2.84526
1.08727 1.94395 -2.38429
1.83114 2.23851 -2.34601
1.02637 1.9266 -1.68081
1.38659 1.87774 -1.23895
0.830499 1.03425 -2.6403
0.831137 1.81758 -1.63262
0.449856 1.39242 -1.71293
0.471221 1.33024 -2.26163
