ply
format ascii 1.0
comment Created by Open3D
element vertex 400
property double x
property double y
property double z
end_header
1.74832 1.66182 0.757426
2.85281 1.90471 0.0376375
2.7688 2.09937 0.363833
2.03793 2.63604 0.742018
2.98812 2.13538 0.0956902
1.04212 0.376713 0.256064
2.92436 2.06737 0.149176
2.10235 1.08513 0.103229
2.28806 1.22923 -0.381953
1.51897 1.01498 0.515697
1.48126 0.591375 0.209069
1.77344 1.55614 0.620215
3.35679 2.49587 -0.757913
2.48185 2.05934 0.667691
2.99967 2.15129 0.0723374
2.98727 2.26679 0.221237
2.13954 2.72299 0.911342
1.22338 1.74638 0.619632
2.84666 1.95617 0.276648
3.17299 2.22032 -0.59041
1.66618 1.61019 0.717197
1.83111 0.823603 -0.0615886
2.58658 1.9946 0.665316
2.0847 1.04563 0.043507
1.96179 1.007 0.154789
1.76798 1.31808 0.33724
2.94256 1.94482 -0.278402
2.53017 1.61238 0.0122949
2.03832 1.04968 -0.559239
2.40647 1.35944 -0.0158468
1.99054 1.46593 0.603766
2.1938 2.96178 0.510246
1.92258 0.877336 -0.192876
2.05869 2.139 0.801003
1.18654 2.01691 0.672545
1.53812 0.926358 0.647818
2.40501 1.37367 -0.66051
2.7009 1.67246 0.0993947
1.58758 0.595482 -0.103818
0.862596 0.290651 0.206037
1.94346 0.926274 0.0938931
2.67011 1.9421 0.272957
2.86081 2.03653 0.185361
1.73084 1.74387 0.743016
0.847104 1.36651 0.675526
1.56517 0.734355 0.325973
2.25492 1.52082 0.475954
2.8624 2.23901 0.464948
1.48247 1.07431 0.481382
1.46968 0.52493 -0.0256233
2.56708 1.52774 -0.4876
2.1986 1.52492 0.547016
2.07704 1.37704 0.572972
1.78071 1.76572 0.682155
2.60426 2.60235 0.750854
2.49146 2.3147 0.491396
2.34664 2.50473 0.713112
1.12691 0.516444 0.476447
1.37147 1.36329 0.494007
1.57151 1.02443 0.637779
1.12757 1.28771 0.721182
2.13261 2.74389 0.565522
1.78656 1.19802 0.5639
1.92019 1.75454 0.744856
1.40569 0.889994 0.582755
2.25776 2.29929 0.652217
1.79493 0.796908 0.0750224
0.903377 1.22805 0.465743
1.89204 0.85732 -0.104867
1.38027 1.68527 0.89066
2.16456 1.50449 0.566497
1.17618 0.465134 0.355351
2.57402 1.54496 -0.32852
2.80363 1.78476 -0.427294
1.21826 0.77584 0.589397
2.2902 2.17229 0.51173
1.30018 0.416485 -0.0497357
1.45796 0.50525 -0.279098
2.12761 1.10323 0.0171492
2.53738 1.48539 -0.309239
1.23928 0.608709 0.437109
2.41661 1.41626 0.214096
1.60037 1.7741 0.703346
1.79279 0.913732 0.456059
0.915842 0.316913 0.30826
1.9152 0.94115 0.224448
3.0766 2.2192 -0.0590579
2.98152 1.97086 -0.219748
1.38629 0.504402 -0.565502
2.5336 1.93442 0.446614
1.8816 1.07345 0.531447
3.16317 2.24475 -0.724964
2.54863 1.53717 -0.756937
1.30083 1.27089 0.744603
3.01937 2.1182 0.110508
2.49528 1.4945 -0.659943
1.4503 1.63562 0.781226
2.34556 3.37879 0.525889
1.47414 1.08673 0.770295
1.16205 0.733951 0.401539
1.20145 0.636256 0.554811
2.02097 1.13205 0.368808
1.40506 1.53924 0.888812
1.37674 0.484345 0.103404
0.898152 1.12805 0.617049
1.46089 2.30166 0.977766
2.11161 1.21743 0.457012
2.30975 1.27343 -0.524864
0.9008 1.89321 0.654034
2.45451 1.41252 -0.559448
2.27366 1.22279 -0.173864
0.888854 1.1979 0.702604
1.29814 0.565659 0.307118
2.27267 1.51292 0.262046
1.28538 1.97586 0.616718
0.693448 1.34164 0.671081
2.72594 1.68467 -0.299381
1.17637 0.605791 0.443735
1.81712 0.88054 0.224533
2.22931 1.50948 0.404691
2.78507 1.77807 -0.300566
2.3605 3.20938 0.572532
1.50478 1.38711 0.695414
1.37776 1.48053 0.723006
1.56763 1.09321 0.445626
1.791 0.853706 0.234746
2.25561 1.19687 -0.417652
1.05326 0.32181 0.200538
2.22237 2.82642 0.67501
1.28002 0.815242 0.455212
1.99401 0.986942 0.184281
2.50356 1.48773 -0.397736
1.45488 1.68531 0.947209
0.796367 1.86181 0.750693
2.00442 0.958148 -0.123321
1.20313 1.52835 0.666724
1.38256 0.47189 -0.511156
1.20129 0.3683 0.116992
1.94929 2.46498 0.855699
0.968225 1.36351 0.768223
0.779404 0.490088 0.442063
1.73633 0.730049 -0.523353
1.36641 2.00345 0.69931
1.11535 0.297033 0.059819
0.642504 1.22323 0.541487
3.03756 2.05238 -0.477126
2.64336 2.26045 0.590734
3.20722 2.29245 -0.704989
2.0529 2.8974 0.604789
1.34818 0.670008 0.439535
1.42104 1.26813 0.826494
1.80016 1.77856 0.636041
1.64725 1.87363 0.840134
1.87884 0.87914 -0.394785
2.2888 1.27734 -0.708786
2.35256 2.95215 0.680433
2.63369 1.92693 0.406666
0.649206 0.567925 0.453491
1.77372 0.777939 -0.39834
2.3642 1.4833 0.34728
2.10327 2.01888 0.724306
1.99874 1.06197 -0.561756
1.74573 0.803576 0.22986
1.94142 1.29785 0.334758
1.33889 1.69387 0.641221
3.18863 2.31573 -0.1482
2.1897 1.63186 0.254413
1.34703 0.469897 -0.00432314
1.50337 2.4012 0.866494
2.6257 3.16651 0.671426
2.52652 1.96837 0.500982
1.39972 1.42479 0.777088
2.42946 1.94096 0.280888
1.78618 0.78668 -0.610653
2.59826 2.2494 0.459999
2.68238 2.15834 0.247478
1.0658 0.854352 0.766345
1.2069 0.507362 0.318643
1.46372 0.478574 -0.348562
1.54373 0.58597 0.0300223
3.22614 2.31727 -0.0470678
2.51641 1.99449 0.502218
2.83355 2.0045 0.365947
2.66395 2.26594 0.665739
1.22472 2.02522 0.758798
1.77677 0.803362 0.172022
2.51698 1.73005 0.364065
0.977569 1.32981 0.8386
1.67307 2.47101 0.890587
2.91429 1.92755 -0.377399
2.52372 2.5606 0.559801
2.92937 2.00037 -0.108493
1.24784 0.343712 -0.155913
1.45852 0.65147 0.396429
2.11144 1.94829 0.835246
2.20328 3.26308 0.480577
2.15405 1.10114 -0.658344
2.84118 2.02922 0.178403
2.83857 1.81762 -0.290364
0.656825 1.63588 0.58769
2.07211 1.20274 0.518778
0.898242 0.37698 0.320768
1.34627 0.978544 0.62023
2.99844 2.02726 -0.583818
0.84858 1.29622 0.622143
1.91605 0.919893 -0.0483886
2.21055 2.25313 0.903138
2.3132 2.90751 0.477869
1.38917 2.30469 0.64973
2.38144 1.61034 0.467706
0.822816 0.214697 0.190962
2.13889 1.45914 0.407025
2.71849 3.35045 0.761165
2.58179 1.77899 0.149613
1.80474 0.807061 0.0129503
1.59052 2.32767 0.757888
2.17651 1.48185 0.444805
2.05168 1.03552 0.161736
1.18738 0.567528 0.406563
2.90393 2.20507 0.168799
2.2661 1.20901 -0.227696
1.2883 0.390109 -0.140758
2.07132 2.19907 0.720715
2.88297 1.90192 -0.123243
1.23158 1.6743 0.50207
1.67514 2.66848 0.734329
2.31119 1.25059 -0.246392
1.82555 2.31766 0.570854
1.41003 1.36213 0.763966
1.83301 2.34445 0.830226
1.51364 0.54557 -0.191273
1.83898 2.63284 0.554178
2.39741 1.34141 -0.373057
3.00426 2.16958 0.0213517
1.07416 0.454151 0.432373
2.08816 1.62465 0.761726
1.78302 0.790621 0.0344131
1.44493 1.71689 0.856961
1.71711 1.92778 0.703622
0.685985 1.54686 0.508934
2.09018 3.07365 0.549618
1.29032 1.93792 0.789062
1.99107 1.67543 0.698859
1.31767 1.85122 0.75206
2.19803 1.16529 -0.0993983
1.45077 2.34227 0.771147
1.42436 0.86542 0.554139
1.86239 1.99826 0.50459
1.60717 0.806393 0.215806
1.38904 0.423163 -0.20523
2.39092 2.40716 0.541355
1.83033 2.73568 0.73632
1.70326 0.875389 0.403802
1.65437 2.35382 0.760534
2.1364 3.13004 0.712169
1.78774 1.14597 0.677197
1.92591 1.11981 0.439639
2.16406 2.47178 0.739933
3.20799 2.305 -0.0187958
1.56081 1.36163 0.717679
2.35361 1.95212 0.723581
1.7 0.704543 -0.0172785
2.70115 1.68379 -0.468823
1.32901 0.839066 0.504136
2.35792 1.35951 -0.0683136
0.990627 1.98352 0.731116
2.59902 2.24028 0.714287
1.01474 1.27846 0.805943
2.12714 1.10426 0.235885
1.27686 1.57295 0.584512
1.60667 0.777226 0.331943
1.02797 1.51529 0.764819
2.16321 3.12916 0.79263
0.488226 1.55663 0.510906
2.38431 1.73583 0.367855
2.47599 2.2076 0.835144
0.797778 0.51046 0.508415
1.5375 1.27113 0.637453
1.40189 0.552509 0.200018
1.34032 1.23001 0.726078
1.76718 0.738229 -0.176023
1.646 0.720646 -0.546866
2.59295 1.63654 -0.0251888
0.951236 0.312422 0.277879
1.88137 1.77955 0.669012
1.70275 1.01069 0.474273
1.93318 2.46726 0.955721
1.27873 0.884726 0.563356
1.57439 1.2187 0.739798
3.14203 2.19749 -0.519039
2.07259 1.15997 0.321774
2.36602 1.36013 0.224971
2.16404 1.67705 0.489868
2.58989 1.97482 0.300672
2.84829 1.86297 0.193713
1.3778 0.505097 0.134855
2.62513 1.61564 -0.626622
1.86829 2.48865 0.61723
1.69381 1.65677 0.613643
0.847063 0.706054 0.53795
2.85487 1.88064 -0.299551
2.54928 1.71454 0.183486
1.05962 0.792371 0.681737
1.57016 1.57844 0.832561
0.736449 1.13094 0.670791
1.70265 1.46031 0.609892
1.32076 1.09074 0.65874
3.1056 2.16202 -0.600592
1.33488 0.721136 0.478406
1.64594 1.26803 0.708424
0.927906 1.36001 0.790491
2.75347 1.97311 0.303013
1.1601 0.606093 0.452224
1.22445 0.287535 -0.537606
1.86316 0.862963 0.125785
2.25162 1.79712 0.733569
1.99827 0.984667 -0.672727
1.77811 2.4134 0.560282
0.816582 1.70407 0.657766
1.85008 2.19249 0.696883
2.12371 1.80942 0.561623
1.85221 2.46203 0.653212
1.75889 0.764542 0.045312
2.58338 3.59366 0.640902
2.44527 1.38902 -0.319335
2.36366 1.73048 0.591199
2.97948 1.975 -0.00487794
1.9111 0.919583 -0.239576
1.61151 1.91988 0.785407
2.59743 1.62127 0.174461
2.39793 2.46917 0.739501
1.3194 0.59039 0.409357
2.58186 3.1427 0.621227
1.08122 1.94686 0.654831
1.52747 0.558164 -0.49322
1.0935 0.912132 0.719575
0.821667 1.55218 0.670022
0.885916 0.969808 0.609158
0.897592 0.543701 0.508898
2.58695 1.73787 0.195163
1.73144 1.65549 0.432348
2.62406 1.59848 -0.572283
2.84185 2.75914 0.783016
1.42408 0.536442 0.128821
1.71027 0.766158 0.0466614
2.31536 1.56019 0.264805
2.3085 1.46738 0.4071
3.18295 2.28488 0.106029
1.81935 1.59769 0.561312
3.49776 2.64541 -0.728214
1.88611 0.931403 -0.460257
2.45929 1.40313 -0.188483
1.30466 0.745299 0.697226
2.62816 2.25021 0.424846
2.00037 1.50567 0.505882
1.01971 1.6508 0.760568
1.72053 0.685536 -0.300108
1.40556 0.446846 -0.17664
1.60092 0.631407 -0.00855551
2.1793 1.15128 0.103969
2.17281 1.15937 -0.720151
0.905421 0.16208 0.0373689
2.30813 2.35375 0.770267
1.15362 1.75976 0.762938
0.990617 0.164615 -0.133975
2.06056 2.95582 0.830776
1.06136 1.43894 0.7211
2.34818 1.71355 0.654249
2.45333 2.59905 0.815446
3.23014 2.32492 -0.264084
1.33658 0.416188 -0.0892862
1.33604 1.05314 0.804998
1.99544 2.48116 0.742994
1.32751 1.2003 0.779563
1.41964 0.439706 -0.228795
1.31719 1.52275 0.699508
1.99848 1.39072 0.469017
2.57797 1.55233 -0.405713
2.54254 2.32949 0.449484
2.19735 1.42255 0.537947
1.81582 0.912989 -0.701694
2.01015 1.30379 0.588937
1.29155 1.12777 0.81474
2.43516 3.36095 0.660553
3.06648 2.49471 0.550119
2.84074 2.04462 0.175018
2.59553 2.23702 0.628123
1.95951 1.67041 0.644954
1.35932 0.414298 -0.289573
2.81544 2.12148 0.166482
1.64033 2.18662 0.777483
2.3499 2.49919 0.656242
2.48225 2.0272 0.523411
2.95332 2.02269 -0.406878
2.34602 1.44081 0.271468
2.32376 1.26316 -0.233737
1.58571 2.33292 0.706727
2.18128 1.46056 0.562763
1.6978 1.27086 0.611061
1.73437 1.48294 0.480604
