ply
format ascii 1.0
comment Created by Open3D
element vertex 250
property double x
property double y
property double z
end_header
0.877362 0.0515135 1.61098
1.56036 -2.0055 1.75898
1.04399 -2.24283 0.462429
0.0185895 -1.06349 -0.126116
0.736275 -1.17782 0.187717
0.325433 -1.14762 -0.288144
0.460864 -0.395999 0.248725
2.36635 -2.71208 0.999107
0.579794 0.382261 1.23389
1.06942 1.60195 -0.257132
0.131328 -0.45534 0.0065338
0.20901 0.464865 0.728716
3.07742 -3.28163 1.33869
0.229603 0.0245066 0.85402
0.00674485 -1.73256 -0.345718
1.06978 -1.33728 1.49331
-0.210323 0.337071 -0.413706
0.369543 -1.39728 0.690245
0.15811 -0.511593 0.883904
0.192767 -0.732551 0.509373
0.946379 -1.87823 1.41397
0.615471 0.311388 0.769679
1.10282 1.74261 0.0199846
0.420084 0.403276 -0.371555
0.255294 -1.19623 0.659771
0.399828 -0.117882 1.09882
1.03154 2.08926 0.612291
0.527583 0.364882 0.084283
4.10332 -4.1423 1.6492
0.311033 0.259829 -0.124129
1.48633 2.07248 1.56254
1.51249 2.03911 0.00950881
0.382614 1.15117 0.413481
0.365836 0.304048 -0.512318
0.514923 0.0565657 1.21958
0.104785 0.716269 0.161088
-0.0282149 -1.29713 0.2897
3.45626 -3.68446 2.46742
3.17986 -4.57454 1.86268
0.91023 -1.81155 0.828819
4.60355 -4.22355 2.54082
0.737405 1.64158 0.726974
0.590094 -1.47116 0.832069
1.27101 -1.90306 1.07107
-0.218205 0.279784 -0.440449
3.34628 -3.22726 1.9247
0.285255 -1.46347 0.156784
3.37045 -3.36679 2.14637
3.61643 -4.02095 2.52211
0.208885 0.325513 0.784099
0.280829 0.801134 0.527356
1.92586 -2.84822 1.9732
4.35624 -3.88522 3.28519
2.6805 -3.74386 1.51058
1.19327 -1.60537 0.547342
2.51177 -2.95404 1.12887
0.373756 0.188652 -0.4263
0.0590767 -0.0918396 -0.446877
0.683643 0.622134 1.31239
-0.193073 -0.734897 -0.0763468
4.95816 -3.89121 2.37048
2.98071 -3.51125 2.00684
3.02752 -3.25657 1.84729
2.89536 -3.06946 1.3374
0.187684 -0.836526 0.540476
3.66062 -4.07641 2.20547
-0.0277228 -0.585068 0.549792
0.736874 -0.847674 1.34843
0.581236 1.28255 0.821754
4.21567 -3.91394 3.12095
2.89323 -3.01342 1.84624
0.163539 0.280905 0.355541
1.01161 -2.88253 0.43036
0.0131272 0.479053 0.411558
-0.0398414 -1.00834 -0.495783
-0.155931 -0.277008 -0.270262
2.58803 -2.80322 2.19179
4.48989 -3.57671 3.00139
0.605578 1.63433 0.200733
0.933237 -1.156 1.55134
0.571902 1.12129 -0.270379
0.0663432 -0.729019 0.267289
0.321415 0.494077 0.871469
0.223445 -0.196896 0.501014
0.072564 -0.257232 0.504003
0.343843 0.388426 0.242905
0.858246 -1.41291 0.364168
0.786744 -1.10775 1.40078
1.58322 2.58509 0.949647
0.228559 -1.43246 -0.321665
1.55907 -3.1092 0.697157
3.19834 -3.1307 1.87146
0.0875238 -1.12838 -0.0339062
0.614637 0.966039 0.987942
1.23915 -2.74976 0.944163
0.443236 -0.692782 -0.280841
-0.0435627 -0.626932 -0.0341993
0.0753555 0.0491702 0.384596
0.877996 1.82539 0.148363
0.47225 -1.44849 1.0875
0.0102705 0.609591 0.298758
1.77539 -2.48561 1.53869
1.26429 -1.72139 1.22573
-0.00313233 -0.0883836 0.551142
0.661351 -0.466889 1.38303
0.462994 -1.07148 0.450867
0.568423 -1.34641 1.15814
1.39731 -1.81039 0.48843
0.960701 1.84904 -0.00299326
2.02068 -3.11956 0.662929
0.370056 -1.72979 0.4259
1.08271 -1.85328 1.24292
0.766391 -1.38004 1.4157
1.57988 -3.18658 0.771589
2.23507 -2.04271 2.10467
0.440026 0.654949 0.9757
3.15642 -3.26762 1.48268
0.534339 1.56687 0.232405
1.41342 -2.12959 0.494027
2.78753 -2.73205 2.62795
1.90768 -2.25396 2.05105
0.664847 1.57534 0.417766
1.6271 -2.12642 1.10278
3.63489 -3.56247 2.69781
0.548847 1.41288 0.30364
3.67306 -3.50055 2.81126
1.21168 2.20781 1.00487
0.569991 0.973185 0.919814
0.51049 1.44936 -0.178933
1.50832 -2.2014 1.6365
0.426746 1.05829 0.725313
0.309795 -1.25431 0.817764
1.05621 1.69644 1.31433
3.51652 -3.671 1.6643
3.3486 -3.49448 2.32759
0.816333 1.18191 1.22647
0.291597 -0.749616 0.521298
0.65323 -0.437791 1.06171
1.99209 -2.37347 1.99468
4.14991 -4.04378 2.73517
0.11032 0.685208 0.172495
1.55645 -2.25837 0.867045
0.771031 -1.3937 1.40465
3.74803 -3.67677 1.67295
0.576907 -1.9414 0.442941
1.6152 -2.54058 1.05158
-0.295928 -0.934038 -0.165109
1.33665 -1.41811 1.4857
0.727143 1.22315 -0.0642218
4.18265 -4.17386 1.99391
4.47866 -3.87975 3.16629
1.96297 -2.65714 0.919512
-0.0151734 0.475082 -0.515738
0.441784 0.58591 0.250306
2.21665 -2.50529 1.84608
-0.166407 -0.285354 -0.990711
-0.379774 -0.677544 -0.200734
1.02743 -0.810694 0.358556
0.472199 1.16007 0.678044
0.49701 -2.05423 0.764465
0.156649 0.888854 -0.564452
0.162966 0.624538 0.393708
0.0494795 0.473273 0.489518
1.13928 -2.25053 0.890315
0.1952 0.978461 -0.0508697
0.64805 1.51225 0.504901
1.13569 -1.6543 1.42735
2.5473 -2.52985 1.42137
0.271453 0.770742 0.488665
1.94739 -2.41202 1.75674
4.17618 -4.46152 2.20745
1.78564 -3.26587 1.18003
2.29434 -2.93034 1.95908
0.456004 -0.128132 1.17467
0.293769 -1.00198 0.462702
0.342241 -0.302775 0.991843
0.345923 -1.51229 0.756613
0.262121 -1.20065 0.135424
1.00794 -1.26885 1.531
0.444534 1.0021 0.703756
0.570461 -1.14883 0.555412
0.636475 -1.67605 0.842902
1.12916 -2.37086 0.750961
0.119972 -0.0536989 0.441269
3.28479 -4.08862 2.06511
2.97463 -3.16946 1.86521
0.28961 0.250761 0.847479
0.336749 0.995889 0.565057
0.180762 1.09464 0.13535
2.16005 -3.49312 0.689467
0.592028 1.4878 0.510301
0.87954 1.19796 1.2797
-0.031034 -0.0439019 0.546903
3.62906 -4.36213 1.54451
2.89378 -4.00476 1.26723
0.233899 1.1878 0.122921
1.26691 -1.79094 1.54622
-0.0158683 0.612395 -0.153357
0.189491 0.70005 -0.416489
0.0802436 -0.0365193 -0.470152
2.07478 1.62906 2.24222
1.15144 0.561523 1.81973
3.85164 0.540268 3.81656
4.13748 1.41501 3.52993
7.79756 2.8076 6.12004
6.35116 2.03297 4.89691
1.46631 1.19554 1.7849
3.42336 0.869571 3.096
3.67332 0.791337 3.68606
1.86397 0.519814 2.41306
0.836733 0.667629 1.34941
2.84929 1.03046 3.20284
1.45864 1.35506 1.87816
1.48106 1.07161 1.89758
3.56554 0.225892 3.50256
3.37334 0.690164 3.39094
1.56105 1.60596 1.76314
5.21648 1.29994 4.64037
3.4808 1.90807 3.12082
4.40782 1.69683 4.05339
6.02215 1.2412 4.85886
1.49957 1.105 1.9127
3.61793 1.83221 3.16117
2.83917 1.90234 2.67745
6.63742 1.3593 5.30043
7.30394 2.20658 5.62457
2.39906 1.55776 2.69119
4.44131 0.569788 4.21534
5.84611 1.699 4.57209
0.89516 0.336857 1.58642
5.17246 1.20291 4.56284
1.37054 0.888352 2.03913
1.34504 0.696455 2.01315
6.78305 2.44434 5.33963
5.30198 1.70361 4.37969
4.97612 0.658002 4.46091
3.83067 1.88024 3.30159
2.45136 1.26244 2.18186
3.09834 2.24457 2.85577
1.21045 0.629778 1.82085
2.80841 1.45904 2.93957
6.77513 1.43066 5.63082
5.28282 2.35516 4.28428
7.6936 2.18215 5.94226
2.44995 0.510685 2.75954
5.58256 2.05084 4.48643
1.01216 0.0370178 1.66528
6.15033 1.32225 4.93629
6.55901 1.92394 5.14844
3.33821 1.6352 3.31742
