ply
format ascii 1.0
comment Created by Open3D
element vertex 250
property double x
property double y
property double z
end_header
1.41432 0.509791 -0.524878
2.11433 2.17113 -1.00842
1.12763 2.0272 -0.509466
0.00731342 0.661359 -0.345321
0.656534 1.48394 0.0893124
0.184436 0.861254 -0.0514552
0.40907 0.961816 0.241303
2.43352 3.08274 -0.141564
1.10706 -0.469873 -0.665166
0.801749 -1.1729 1.19524
0.0963238 0.521294 -0.00746005
0.626989 -0.975663 -0.66026
3.22955 3.54871 -0.286517
0.608626 -0.0979744 -0.585724
-0.0215489 0.804316 -0.623067
1.53121 1.71679 -0.747103
-0.247054 -0.978347 -0.0721144
0.650829 1.17308 -0.783386
0.684202 -0.305213 -1.17179
0.372955 0.798147 -0.416982
1.54375 1.33769 -1.37417
0.681263 0.900678 0.426815
0.885497 -0.910512 1.26009
0.186565 -0.237859 0.624576
0.543513 0.952706 -0.776381
0.870395 0.0356574 -0.735181
1.13625 -1.44897 0.748039
0.380195 0.379531 0.649169
4.34013 4.02226 -0.504972
0.167043 0.0685057 0.459034
1.96539 -1.37887 0.244654
1.22854 -1.06453 1.57458
0.492281 -0.787537 0.286659
0.111626 -0.352473 0.565774
1.02034 -0.0718186 -0.705615
0.180631 -0.688938 0.0831823
0.187076 0.690001 -0.841208
4.15653 3.50183 -1.3211
3.84735 3.13508 -1.8794
1.12625 1.91182 -0.569225
5.14378 4.35781 -0.844283
0.988917 -1.4027 0.222682
0.870263 1.46309 -0.692667
1.50523 2.27932 -0.4669
-0.267344 -0.923325 -0.0682112
3.67529 3.82929 -0.415519
0.345151 1.16375 -0.473653
3.83148 3.77053 -0.714146
4.39266 3.43174 -1.59925
0.631779 -0.747803 -0.679692
0.442551 -0.43081 0.092641
2.70341 2.02494 -1.76052
5.35428 3.5704 -1.69006
3.0968 3.17934 -1.14524
1.18267 2.10073 0.0238873
2.6404 3.19777 -0.302627
0.133977 -0.126244 0.544253
-0.10582 -0.157518 0.197606
1.13661 -0.149891 -0.312969
-0.134669 0.245686 -0.450358
5.26588 4.69812 -0.121209
3.51692 3.37465 -1.10469
3.40742 3.57389 -0.654359
3.0456 3.47368 -0.236821
0.396698 0.812618 -0.514829
4.24448 3.71172 -1.22673
0.295011 0.133879 -0.801462
1.20209 1.10923 -0.739531
0.842127 -0.827578 0.139153
5.15257 3.60091 -1.6281
3.25542 3.5303 -0.5436
0.248199 0.076666 0.0608853
1.19482 1.99012 -1.01642
0.298695 -0.94237 -0.47084
-0.166391 0.365303 -0.217974
-0.198814 -0.100072 -0.132195
3.19358 3.06072 -1.03096
5.14166 4.38375 -0.718362
0.668379 -1.59258 0.450354
1.5081 1.17404 -1.01531
0.375962 -0.895885 0.790646
0.178215 0.643109 -0.372062
0.767349 -0.866708 -0.637211
0.351117 0.578247 -0.108244
0.283075 0.281145 -0.387955
0.307227 0.256014 0.403951
0.837246 1.73328 -0.0340072
1.31324 1.10677 -0.962168
1.5595 -0.684897 1.53873
0.123899 0.886439 -0.271991
1.7584 2.441 -0.914797
3.51886 3.74449 -0.408517
0.0962766 0.79548 -0.360475
0.829344 0.073454 0.297689
1.5781 2.16385 -1.10808
0.246199 0.719266 0.262339
-0.0276427 0.397235 -0.251376
0.214877 0.104073 -0.160609
0.806491 -1.32146 0.902578
1.00562 0.781304 -1.30424
0.237463 -1.01578 -0.327974
2.20428 2.59776 -0.885455
1.54708 2.2422 -0.465819
0.306182 -0.233246 -0.616973
1.19213 0.558324 -0.815371
0.548059 1.30428 -0.238129
1.0738 0.95937 -1.13745
1.3467 2.2345 0.0673691
0.830972 -1.44415 0.997529
2.10198 2.73826 -0.541683
0.557941 1.31672 -0.760838
1.46956 1.94544 -0.823884
1.39878 0.826333 -1.35349
1.82147 2.45156 -1.01635
2.73277 2.96326 -0.572476
0.870206 -0.735587 -0.46783
3.34683 3.63743 -0.301201
0.713882 -2.03844 0.0904454
1.40555 2.28718 -0.14811
3.62235 2.72499 -1.41501
2.5792 2.27407 -1.22217
0.70571 -0.933743 0.64252
1.81108 2.61792 -0.327395
4.38648 3.58176 -1.28178
0.570222 -0.90168 0.573761
4.47111 3.53457 -1.3305
1.42721 -1.29101 0.708242
1.05686 -1.51796 -0.574298
0.442207 -1.60159 0.548283
2.04507 2.16432 -1.09343
0.701532 -0.855482 -0.0406433
0.684243 0.896317 -0.950435
1.4323 -0.869197 0.25784
3.78468 3.81132 -0.506643
3.94744 3.59861 -1.05647
1.2886 -1.01593 -0.256104
0.437631 0.968273 -0.302138
0.901274 1.26299 -0.151637
2.60527 2.50397 -1.10721
4.88119 3.90921 -1.2894
0.181516 -0.612985 0.0961894
1.67985 2.52296 -0.335674
1.3853 0.905095 -1.30886
3.97203 3.9434 -0.34907
0.736285 1.577 -0.705951
1.85362 2.56859 -0.643619
-0.226243 0.199947 -0.605877
1.68189 2.23717 -0.399202
0.533271 -0.582613 0.956663
4.5542 4.12276 -0.698799
5.32743 4.00332 -1.29968
2.07794 2.81282 -0.355615
-0.144706 -0.959095 0.201013
0.377 0.199031 0.558481
2.67193 2.97263 -0.739701
-0.410388 -0.759686 0.0202819
-0.303013 -0.098271 -0.584282
0.900435 1.66992 0.469567
0.668644 -0.666534 0.200253
0.877007 1.32365 -1.21193
0.0174092 -1.47704 0.331496
0.301779 -0.414533 0.017777
0.422885 -1.23567 -0.687084
1.38758 2.14029 -0.733568
0.190102 -1.04721 0.277135
0.710836 -0.775969 0.611676
1.57945 1.88793 -0.819399
2.70956 3.34063 -0.0966836
0.409661 -0.368023 0.130241
2.42639 2.6997 -0.864533
4.71685 3.99195 -1.1599
2.18478 2.55596 -1.24206
2.89647 2.789 -1.22848
0.974357 -0.0571705 -0.830627
0.435484 1.06592 -0.397403
0.737744 0.367094 -0.631939
0.697743 1.07105 -0.990393
0.291974 1.05804 -0.323306
1.52594 1.48268 -0.881055
0.883975 -1.74344 -0.569124
0.675446 1.45816 -0.245437
0.936964 1.53221 -0.801735
1.33541 2.13627 -0.728804
0.264727 0.277126 -0.166077
3.90702 3.38763 -1.46727
3.35821 3.55184 -0.634005
0.608113 -0.0206042 -0.336731
0.717437 -1.70142 -0.489094
0.338865 -1.55614 -0.0694324
2.28785 2.8001 -0.760357
0.898023 -2.00243 -0.135736
1.38522 -1.1136 -0.314102
0.316896 -0.471432 -0.72676
3.96661 3.68666 -0.979633
3.19946 3.28551 -1.01885
0.386796 -1.66826 -0.0305836
1.76027 1.95675 -0.92264
-0.0171911 -0.882426 0.0793057
0.0369806 -0.904583 0.414624
-0.0963435 -0.211072 0.235887
2.89914 -1.51456 -0.451115
1.82562 -0.305978 -0.642246
5.22251 -0.659885 -1.2755
5.51367 -2.29288 -1.20082
9.60524 -1.55534 -0.171253
8.04346 -2.4285 -0.935439
2.21331 -1.4978 -0.67934
4.74298 -2.17503 -1.51809
4.98106 -0.757441 -1.11002
2.77603 -0.494808 -0.941837
1.48634 -1.22883 -0.861403
3.91461 -0.386833 -0.680495
2.12566 -0.980978 -0.332766
2.23986 -1.18961 -0.677856
4.94693 -1.04493 -1.61925
4.65378 -1.07201 -1.2676
2.23516 -1.56947 -0.347255
6.77051 -1.05337 -0.980874
4.61931 -2.07999 -0.652758
5.75653 -1.27496 -0.683697
7.76316 -1.91447 -1.35973
2.25538 -1.17623 -0.648182
4.80667 -2.25988 -0.789845
3.82221 -1.9649 -0.516281
8.46132 -1.73061 -1.2471
9.12798 -2.04774 -0.746191
3.29659 -0.936762 -0.382537
5.92098 -0.62654 -1.29597
7.50235 -2.454 -1.16845
1.53137 -0.332394 -0.759662
6.73841 -1.19596 -1.09733
2.00994 0.00567946 -0.28674
2.03622 -0.152632 -0.517107
8.4782 -1.96791 -0.511192
6.84827 -2.03736 -1.00054
6.56737 -0.998186 -1.40967
5.05696 -2.27931 -0.783608
3.5003 -2.74588 -1.24398
4.0668 -1.89524 -0.240387
1.92858 -0.628242 -0.750813
3.84496 -1.21675 -0.641451
8.58461 -0.993608 -0.962551
6.71756 -2.22629 -0.538765
9.58206 -1.81729 -0.715207
3.54744 -0.959411 -1.23952
7.12849 -2.23229 -0.80988
1.79359 -0.719533 -1.22627
7.90265 -1.92833 -1.31135
8.2987 -2.09371 -0.933818
4.46738 -1.24116 -0.589425
