ply
format ascii 1.0
comment Created by Open3D
element vertex 400
property double x
property double y
property double z
end_header
0.513823 0.964103 -1.49924
1.6561 2.34898 -2.19263
0.290614 1.17997 -1.23221
1.59477 1.66653 -0.746876
0.748671 0.872871 -2.38355
0.355273 0.809313 -1.99634
0.758406 1.20831 -0.558285
0.475525 1.35576 -1.65759
1.29065 2.02169 -2.60584
2.49768 2.49579 -2.4169
0.0308132 0.421433 -1.59004
0.49795 1.45843 -1.19789
1.6074 1.99271 -1.28683
1.32475 2.12317 -2.07735
1.01227 1.871 -1.73241
0.287306 0.252846 -1.66349
0.212135 0.740175 -1.4226
2.07364 2.13083 -2.01107
0.137234 0.880134 -0.563169
1.81265 1.93059 -1.39198
0.501045 1.46118 -1.6408
0.645025 1.63084 -1.75801
1.10577 1.93132 -1.73267
0.382476 1.33242 -1.15686
0.0619839 0.843494 -0.724845
0.395314 1.24138 -2.02565
1.45374 1.49404 -0.913828
1.05612 1.68085 -2.86768
1.20723 1.85823 -1.06511
1.12547 1.59957 -2.89532
0.412233 0.467173 -2.24665
1.10255 1.90246 -1.44147
1.101 1.45162 -0.582773
1.34 2.11811 -1.84199
0.931359 1.49023 -0.761476
0.645426 1.465 -1.00359
1.43278 2.17794 -2.64402
1.1734 1.6968 -2.65446
0.20173 1.00442 -0.97622
0.744884 1.21907 -0.707505
1.2068 1.81387 -1.23435
1.02599 1.34095 -2.51903
1.94612 2.31729 -1.76181
1.0061 1.94299 -1.52172
1.45934 2.27395 -1.96096
0.695973 1.12716 -0.443212
0.950738 1.53294 -2.45812
1.03723 1.85621 -1.03333
1.41975 1.63657 -3.31096
0.865357 1.75532 -1.07884
2.52592 2.4129 -2.2123
0.779971 1.34375 -0.647678
1.61087 1.87771 -1.46591
2.27276 2.48848 -2.3787
2.21388 2.32768 -1.73181
0.729568 1.64669 -1.68295
0.659023 1.072 -2.01811
0.460956 0.432326 -2.40377
0.36399 1.26432 -0.868298
0.451281 1.22109 -0.882097
2.10307 2.07769 -1.70584
0.868839 1.25484 -2.35483
1.00277 1.5909 -0.67418
0.584665 0.624575 -1.97615
0.914405 1.22293 -2.70549
1.94291 2.21866 -1.74721
1.08733 1.4694 -2.96043
0.173444 1.07333 -1.64698
1.37899 2.06859 -1.43407
1.0442 1.63171 -2.51408
0.70748 1.37307 -2.67633
0.587836 1.06876 -0.621591
0.0849631 0.783683 -1.71711
2.44665 2.37691 -2.38885
1.41295 2.16158 -1.96267
0.630224 0.989034 -2.17011
0.152755 0.792405 -1.22717
0.180436 0.603126 -1.14043
0.802444 1.74369 -2.04842
0.910167 1.35236 -2.5948
0.888775 1.66046 -2.63475
1.26979 1.7036 -3.03093
1.2658 2.11984 -2.21759
0.5501 1.40873 -2.21773
1.63238 2.32839 -2.0816
0.247975 1.11149 -0.756802
0.239367 1.05675 -1.4803
1.04959 1.96941 -2.08403
0.102239 0.962259 -1.21056
0.394548 0.737528 -2.04445
1.5201 2.27452 -2.49025
0.957092 1.86583 -1.69862
1.04213 1.46138 -0.669641
1.28382 1.92924 -1.78381
0.960803 1.72222 -2.64247
0.133889 0.956559 -1.21232
1.09433 1.96442 -2.17913
0.250472 0.533522 -1.82472
1.10781 1.14112 -3.08078
1.21016 2.10883 -1.95804
1.22672 2.07999 -2.0954
0.835722 1.74844 -2.28784
1.26268 1.64437 -0.990965
0.180821 0.833541 -1.712
-0.193725 0.437395 -1.36653
0.887404 1.75736 -2.08398
1.30847 2.09587 -2.12751
0.67034 1.21962 -2.30696
0.839793 1.58562 -2.06928
1.3631 1.71037 -1.04481
0.0961379 0.937068 -0.846656
1.38804 2.1772 -1.89119
2.07484 2.28549 -1.52764
1.21871 1.73222 -0.680068
0.823814 1.34282 -2.56991
0.508 0.99619 -1.92265
1.08874 1.87662 -1.79998
1.7384 2.03943 -1.61353
1.62769 1.59384 -0.580978
1.01662 1.13202 -2.80231
0.694575 1.43103 -0.762207
0.235418 0.407918 -1.41527
1.1152 1.80283 -1.48359
1.61601 1.65674 -3.5778
1.22203 1.82431 -3.04782
1.1227 1.19095 -0.445475
0.801228 1.67479 -1.03479
0.278834 0.258114 -1.91009
1.41315 2.14808 -2.63964
0.435022 0.447242 -1.4465
1.40268 2.02648 -2.88752
1.20851 1.61434 -3.18137
0.346784 1.1342 -1.42716
0.624802 1.26001 -0.567346
0.156735 0.918035 -1.04116
0.648021 1.63404 -1.2383
0.107928 1.0177 -1.04769
1.27906 2.07032 -1.79614
-0.0327873 0.762933 -0.869213
2.04422 2.09987 -1.75208
1.84528 1.85041 -1.09696
0.142354 0.873584 -0.665129
0.836371 1.15213 -0.358236
0.887369 1.36394 -2.57432
1.29232 2.12183 -2.26755
1.97945 2.02421 -1.29753
1.77342 2.22712 -1.75796
1.16952 1.23343 -0.997515
1.31309 2.15457 -1.95923
0.841689 1.20713 -2.90528
0.451979 0.238279 -1.7589
0.170772 0.977712 -0.815617
0.109441 0.879741 -0.626864
0.505814 1.3034 -1.95649
0.690966 1.2994 -0.74356
2.645 2.59781 -1.88656
1.51715 1.56245 -0.740384
0.0689512 0.441161 -1.27375
1.34896 1.36235 -0.770922
0.168844 0.835444 -0.867551
0.195608 1.09792 -0.955902
1.41867 1.69481 -1.03727
1.33972 1.36213 -0.826572
1.12711 1.58092 -2.37221
0.506379 1.48036 -1.50903
0.399561 0.568881 -2.1143
1.11074 1.28185 -0.703942
1.65621 1.72499 -3.51883
0.592504 1.44883 -1.02318
1.48241 1.67903 -0.965469
0.0161377 0.722548 -1.18272
0.573524 0.834824 -1.91232
0.317939 1.21542 -0.90341
0.16134 1.00248 -1.00098
0.677143 1.31264 -2.17338
0.311375 1.09952 -1.85933
0.562667 1.43034 -2.0302
1.17327 2.03652 -2.2977
0.550002 1.44873 -0.88909
1.02456 1.79921 -1.50617
0.298836 1.2429 -1.72684
1.03957 1.81271 -1.12898
0.860545 1.67426 -0.928438
0.956048 1.8891 -2.04974
0.760907 1.46831 -2.27645
1.15087 2.03987 -1.92562
2.5307 2.6513 -2.15501
2.25009 2.23997 -2.10139
0.238119 1.03253 -0.595371
2.49152 2.44395 -1.96585
0.425885 1.0714 -1.24579
-0.051374 0.720836 -0.864968
0.898777 1.20505 -0.336109
0.897788 1.32393 -2.64188
1.14713 1.72514 -2.71286
0.929375 1.67099 -2.37413
0.862622 1.03991 -2.53239
0.607799 1.59584 -1.40214
1.87332 2.20836 -1.97697
0.0931648 0.882955 -0.684126
0.113249 0.909999 -0.867915
0.595772 1.52054 -2.00827
1.06138 1.74214 -2.37103
1.15296 1.77703 -1.23485
0.729938 1.44521 -2.51141
1.07159 1.07283 -2.98005
1.37048 1.73228 -2.92461
0.966688 1.60931 -1.07943
0.541429 1.50563 -0.926994
0.558224 0.767774 -2.58685
1.0982 1.49592 -0.860114
1.20974 1.64251 -3.00955
1.31365 2.0679 -1.99336
2.12549 2.20911 -1.59192
0.689959 1.31915 -0.368963
0.785376 0.895276 -2.10955
1.24791 1.89118 -1.46367
1.60504 1.68021 -3.44178
1.2888 2.0744 -2.6331
0.136879 0.970429 -0.947845
1.26945 2.06958 -2.38262
0.986451 1.95275 -1.63822
1.58448 1.55352 -0.836025
0.429678 1.09908 -2.40847
0.804658 1.70109 -1.69849
0.427851 1.36746 -1.1817
0.653109 0.827689 -2.22519
0.849476 0.997566 -2.37908
1.32631 2.0832 -1.54286
0.8702 1.59581 -1.14372
0.726335 1.57819 -2.09618
0.616481 1.43299 -2.15598
1.54148 1.5993 -0.92551
0.545242 0.761742 -1.92332
0.740469 1.5724 -1.96349
1.26922 1.37915 -2.51812
1.60584 1.76736 -3.12901
0.0502713 0.780191 -1.13606
0.623557 1.28936 -0.804331
0.661324 1.56389 -0.959303
0.700592 1.64461 -1.71868
1.35875 2.00334 -2.00198
1.46684 1.65968 -3.54171
0.461689 1.1886 -1.84532
1.51528 2.25911 -2.40263
0.492116 1.38979 -1.79589
0.48421 1.46797 -1.24396
1.37895 2.07781 -1.15025
0.17038 0.56346 -1.40341
0.90155 1.72224 -2.16975
0.08549 0.82541 -0.809353
1.43741 1.40554 -3.37834
0.958476 1.74447 -0.590977
0.645042 1.61032 -1.76463
1.0501 1.58732 -2.94511
1.19975 1.58119 -1.02313
1.05574 1.34123 -2.77552
1.82412 1.89699 -1.201
2.01821 2.14441 -1.9842
0.103862 0.971472 -1.4306
0.328473 0.429953 -1.84683
0.908008 1.76622 -2.56304
0.272597 0.488757 -1.48333
0.559511 1.46384 -1.3169
1.59668 2.09334 -2.03469
1.35087 1.85044 -2.86711
0.536245 1.23678 -2.07357
1.24107 1.9674 -2.69635
0.708605 1.42321 -2.31249
1.05537 1.17588 -2.79194
0.954723 1.28414 -0.474793
0.410313 1.32366 -0.760839
0.794303 1.71116 -1.48342
1.44335 1.83722 -3.18234
1.49213 1.6952 -1.28938
1.54133 1.67943 -3.30791
0.11667 0.84651 -0.578912
1.46942 1.52636 -3.28778
1.78419 2.26288 -2.14229
0.749316 1.45685 -0.492995
0.861768 1.84299 -1.63168
0.313435 0.713745 -1.87108
0.950967 1.42899 -2.93772
0.361775 1.19478 -1.87757
1.45098 2.17519 -2.13552
0.083411 0.591951 -1.27705
0.315912 1.13929 -0.730167
0.433549 1.32745 -0.685082
0.904033 1.5942 -2.67888
1.6882 2.2524 -2.46858
1.28497 1.70819 -3.07992
2.00381 2.50788 -2.26616
0.729346 1.01802 -2.44619
0.381351 1.37454 -1.40643
1.56356 2.302 -2.30365
0.372929 0.606419 -1.91747
1.35581 2.15466 -1.8988
1.18483 1.79188 -3.07117
0.474873 1.08943 -0.863708
0.229797 0.599947 -1.2272
1.25492 2.11862 -1.93075
0.375118 1.27197 -0.920609
1.45593 1.94028 -1.65731
0.026165 0.677955 -0.949017
1.46008 2.08606 -1.83379
0.6668 1.6584 -1.65287
0.199413 0.295673 -1.61321
0.167345 1.09651 -1.08022
1.19432 1.88542 -1.48135
0.0779472 0.778587 -1.43794
1.5862 1.91729 -1.8776
1.06216 1.22338 -2.39455
0.638315 1.48737 -1.85129
0.51319 1.05915 -0.58674
0.454014 1.08498 -1.85969
0.327044 1.21575 -1.62921
1.31167 1.31643 -3.1797
1.32969 1.61654 -1.26176
1.76665 1.90355 -1.08373
1.39692 1.33838 -3.67065
0.565125 0.445165 -1.92068
0.00112292 0.337423 -1.76766
1.37556 2.0406 -1.85812
0.348686 1.00754 -0.56855
0.642323 1.37625 -0.755212
0.495743 1.4097 -1.52757
1.87336 2.35637 -1.9546
1.7693 2.36219 -2.43966
2.20903 2.23586 -1.7513
0.274086 1.25422 -1.46948
0.479202 1.2507 -1.84636
1.409 1.82105 -3.08752
1.29295 1.65195 -1.269
1.23343 1.72113 -2.98132
1.4499 1.67604 -0.689175
1.35151 2.03928 -2.61504
0.69771 1.69558 -1.52083
1.22812 2.1179 -1.98418
1.27506 2.19335 -1.76004
2.60116 2.44564 -2.42517
0.900132 1.49666 -0.983317
0.731947 1.14959 -0.794498
0.0341058 0.566436 -1.81832
0.441316 0.771306 -2.32312
0.277681 0.935631 -1.81038
0.743582 1.44555 -0.967234
0.948931 1.65351 -1.33229
0.637321 1.52669 -2.09463
0.678271 1.6418 -2.07068
0.661202 1.45459 -1.82043
0.678284 1.62871 -1.76929
2.16449 2.39479 -2.12177
0.541618 1.31254 -2.13351
0.130846 0.842466 -0.892354
0.66265 1.16202 -2.28504
0.0223457 0.785836 -1.16039
1.4008 1.51208 -0.601199
0.632753 0.699243 -2.06424
1.47051 1.95513 -1.67675
0.458619 1.29417 -0.575563
0.490746 1.20772 -0.7302
1.0803 1.60628 -0.485679
0.453355 1.36636 -1.51782
1.73211 1.94985 -1.20912
1.53738 1.66725 -0.603639
0.353128 1.31363 -1.20253
1.49112 1.70398 -1.37544
0.421855 0.600605 -2.03876
1.575 1.95009 -1.1397
0.967403 1.93266 -1.73838
0.136617 0.857727 -0.584771
0.372076 0.621396 -1.76069
0.985097 1.87374 -2.0692
0.830192 0.950182 -2.61524
0.416014 0.268054 -1.71386
1.59895 2.24186 -2.51171
0.939349 1.91322 -1.70525
0.955445 1.30666 -2.54569
0.755498 1.54753 -1.29265
0.333794 0.807904 -1.83455
0.980273 1.8235 -2.06903
0.159115 0.675065 -1.6747
0.226732 0.999042 -0.763475
1.6647 2.41524 -2.13005
0.360995 1.25382 -1.78247
1.54382 1.86869 -1.69657
1.3661 2.21694 -1.84713
0.203108 0.682558 -1.37599
1.60386 2.13419 -1.56287
0.212844 1.03802 -1.3155
0.569521 0.858001 -2.29679
1.92179 2.32615 -1.92796
1.11382 1.70048 -1.05142
1.26288 2.08509 -2.47024
-0.0738095 0.485381 -1.16199
0.792434 1.52003 -1.13363
0.486 1.26838 -1.42208
0.805873 1.6643 -2.44177
1.93987 2.29212 -1.7258
1.44715 1.8202 -0.810315
