ply
format ascii 1.0
comment Created by Open3D
element vertex 250
property double x
property double y
property double z
end_header
-0.0260907 0.627432 -0.936196
1.07265 1.38333 -2.45971
1.34428 0.963604 -1.83016
0.377138 0.340684 -0.623683
1.16991 0.773458 -0.647839
0.718566 0.226292 -0.680612
0.785816 0.663252 -0.00510809
2.35026 1.20536 -2.65601
-0.724842 -0.248439 -1.09334
-0.123903 -1.70106 0.132816
0.385351 0.327395 -0.150035
-1.03057 -0.705236 -0.955062
2.69316 1.17481 -3.63561
-0.422447 0.126575 -0.694639
0.433447 0.22824 -1.20552
0.8057 1.32285 -1.55335
-0.647646 -0.95345 -0.196843
0.462081 0.896832 -1.22283
-0.78557 -0.154449 -1.55088
0.331405 0.725899 -0.528834
0.324944 0.852584 -2.49505
0.712717 0.901994 0.440932
0.0201268 -1.29492 0.411418
0.223379 -0.619477 0.134608
0.294743 0.790924 -1.08813
-0.403075 0.214863 -0.999423
-0.683601 -1.43838 0.0458937
0.572715 0.13306 0.399123
3.09016 0.83545 -5.20944
0.297532 -0.148732 0.22322
-0.937387 -1.27073 -0.754689
0.1081 -1.68311 0.315975
-0.468958 -0.610835 0.141976
0.146596 -0.786317 0.00604477
-0.472521 0.119134 -1.04066
-0.46676 -0.530369 0.0380329
0.120071 0.535109 -1.07232
2.12052 1.26257 -5.08234
1.7659 0.590128 -6.0626
1.12745 1.21812 -1.48574
3.09946 1.19925 -5.824
-0.917945 -1.23569 -0.306933
0.706171 1.07895 -1.26502
1.43461 1.41843 -1.63268
-0.603371 -0.917789 -0.193125
2.75987 1.54636 -3.79351
0.670649 0.689397 -0.972602
2.57033 1.53438 -4.16636
1.99903 1.01403 -5.73711
-0.892401 -0.48115 -0.926997
-0.335671 -0.206361 0.0830932
0.743945 0.852237 -4.08178
2.03691 0.99642 -6.39799
2.02284 1.04882 -4.38415
1.58565 1.12827 -1.10302
2.37535 1.21536 -3.02744
0.277238 -0.549833 0.040693
0.0774679 -0.431327 -0.0922104
-0.381434 0.0996435 -0.580486
-0.00331589 0.174272 -0.493068
3.69469 1.29455 -5.23861
2.11568 1.31379 -4.38032
2.45369 1.47506 -3.80407
2.61965 1.28369 -3.29935
0.299973 0.732562 -0.658718
2.40427 1.11074 -5.38906
-0.315075 0.261315 -0.873086
0.351316 1.00007 -1.21862
-0.602874 -0.578376 -0.100062
2.08884 1.04859 -6.20759
2.43255 1.5891 -3.43345
0.0224219 0.1913 0.123571
1.14903 0.774297 -2.64161
-0.908655 -0.668631 -0.584101
0.2914 -0.0747379 -0.619507
-0.0816051 -0.181059 -0.193127
1.79503 1.54088 -3.59037
3.02462 1.68094 -5.12425
-0.874017 -1.57546 -0.133965
0.296109 0.93796 -1.80431
-0.169671 -1.17941 0.201148
0.270641 0.550033 -0.458727
-0.957921 -0.603404 -0.968075
0.291124 0.608384 -0.0920136
-0.0416481 0.400304 -0.358224
0.327471 0.218968 0.362947
1.28464 0.961362 -0.878329
0.272675 0.919697 -1.61893
0.147511 -0.780472 0.856752
0.649519 0.236341 -0.924505
1.54733 0.900819 -3.03379
2.68497 1.56761 -3.61425
0.457415 0.45353 -0.670379
0.042522 0.31767 0.310888
1.16285 1.05326 -2.73956
0.748675 0.111806 -0.342919
0.190149 0.266565 -0.338402
-0.0586705 0.239078 -0.0897938
-0.463677 -1.47268 0.202856
-0.0589946 0.587919 -1.97881
-0.884944 -0.760482 -0.432182
1.50859 1.44287 -2.68584
1.37048 1.50126 -1.51475
-0.5029 -0.0080961 -0.637738
-0.0807132 0.601507 -1.25917
0.81392 0.935665 -0.62077
0.123898 0.757938 -1.77752
1.75042 1.03793 -1.35549
-0.462875 -1.72204 0.121049
1.98482 0.849731 -3.0842
0.63322 0.840035 -1.36134
1.00169 1.30451 -1.85523
-0.0613486 0.58549 -2.24644
1.50696 0.910914 -3.17666
1.82796 1.85017 -2.39991
-0.810092 -0.467916 -0.775224
2.73172 1.2771 -3.66333
-1.32704 -1.9831 -0.639551
1.71659 1.0027 -1.72365
1.36989 1.26701 -4.22866
1.07513 1.30549 -3.09439
-0.392155 -0.859031 0.309253
1.78404 1.46359 -1.86392
2.17135 1.34935 -5.10446
-0.389998 -0.833964 0.285412
2.10292 1.3402 -5.16312
-0.64405 -1.19969 0.0138848
-1.34775 -1.31114 -1.24716
-0.775823 -1.73439 -0.106575
1.0579 1.30955 -2.61181
-0.692053 -0.594087 -0.243508
0.170499 0.750599 -1.34522
-0.610339 -0.640548 -0.243722
2.81559 1.17353 -4.37484
2.28761 1.42456 -4.58347
-0.914412 -0.784511 -0.817114
0.506057 0.829224 -0.459018
0.707148 1.19116 -0.322986
1.30473 1.42388 -3.04674
2.4958 1.20468 -5.80316
-0.411273 -0.45911 0.0663227
1.75733 1.27746 -1.95159
0.0119476 0.654422 -2.18066
3.00703 1.14208 -4.43182
0.871857 0.910335 -1.53385
1.65335 1.29456 -2.40654
-0.0876473 0.11228 -0.667223
1.34194 1.63757 -1.32558
0.0865495 -0.852274 0.424412
3.02831 1.02956 -5.3881
2.52308 1.29809 -5.97922
2.02499 1.20122 -2.5068
-0.476606 -1.08838 -0.100489
0.358797 0.141731 0.475575
1.83676 1.63952 -2.83056
-0.316349 -1.18013 -0.498486
-0.296419 -0.0841586 -0.563032
1.44708 0.920985 -0.305318
-0.458964 -0.429564 0.0697668
0.431514 0.827097 -2.04362
-0.744026 -1.6638 -0.215016
-0.342201 -0.208555 0.0366381
-1.19597 -0.962001 -0.962373
1.26428 1.2028 -2.02133
-0.579875 -0.994797 0.043423
-0.317636 -0.661053 0.358862
0.929985 1.34064 -1.79843
2.48062 1.57544 -2.52015
-0.272113 -0.160343 0.136481
1.57008 1.53932 -2.73538
2.72965 0.925262 -5.9957
1.44843 1.03356 -3.54425
1.53419 1.33924 -3.68097
-0.505998 0.110519 -1.1915
0.556381 0.837836 -0.651328
-0.124767 0.501872 -0.793189
0.300689 0.810852 -1.49059
0.648113 0.654059 -0.717173
0.576076 1.16231 -1.67833
-1.47683 -1.54175 -1.23152
0.915714 1.04308 -0.69958
0.724652 1.06948 -1.49696
1.29458 1.11245 -2.09823
0.0553104 0.383944 -0.107284
2.05299 0.986379 -5.37103
2.42973 1.52116 -3.6837
-0.270803 0.21576 -0.370153
-1.41008 -1.4845 -1.03956
-1.09747 -1.39229 -0.418058
1.97726 0.729607 -3.61952
-1.43297 -1.88166 -0.893368
-1.00116 -0.902668 -0.974356
-0.709938 -0.222756 -0.802115
2.62278 0.735503 -5.40953
2.24279 0.825419 -4.64726
-1.14798 -1.52847 -0.449757
0.942072 1.33508 -2.06639
-0.551924 -0.809776 -0.0350845
-0.347672 -1.08063 0.0305382
0.0632708 -0.498476 -0.081217
-1.30508 -1.64213 -2.27418
-0.623988 -0.186908 -1.44881
-0.993623 -1.62174 -4.9931
-1.97193 -3.41703 -5.63253
-0.965635 -3.8102 -7.31171
-1.83885 -4.39856 -7.42847
-1.38841 -1.49664 -2.09513
-2.04303 -3.10795 -5.42171
-1.01188 -1.5878 -4.56597
-0.84831 -0.642228 -2.56294
-1.29096 -1.09074 -1.77177
-0.667892 -0.764807 -2.98342
-0.937452 -0.878479 -1.40266
-1.19816 -1.17109 -2.00628
-1.36102 -2.02911 -5.4025
-1.27528 -1.85069 -4.6301
-1.30122 -1.54649 -1.7085
-1.07794 -2.45843 -5.92669
-1.68004 -2.78087 -4.05813
-1.16104 -2.26179 -4.71034
-1.6852 -3.8464 -7.63159
-1.17864 -1.15565 -1.97232
-1.83169 -3.06636 -4.46822
-1.58293 -2.39666 -3.21401
-1.49629 -3.87735 -8.00332
-1.48529 -4.33033 -7.94
-0.920955 -1.10021 -2.25827
-0.948983 -1.83002 -5.59026
-1.96323 -4.2868 -7.31604
-0.679646 -0.189041 -1.44023
-1.20662 -2.63211 -6.12223
-0.294888 0.154268 -0.997309
-0.481288 -0.0493803 -1.3713
-1.39223 -3.93745 -6.99886
-1.68628 -3.54776 -6.35559
-1.19129 -2.46861 -6.40654
-1.832 -3.16597 -4.66658
-2.33177 -3.30001 -4.27148
-1.43011 -2.34787 -3.00182
-0.871877 -0.542994 -1.74015
-1.17568 -1.59856 -3.12186
-0.939927 -3.05386 -7.43402
-1.64315 -3.60763 -5.6548
-1.3093 -4.24055 -8.20439
-1.2305 -1.39204 -3.6916
-1.72389 -3.81735 -6.38869
-1.09941 -0.71098 -2.3534
-1.67015 -3.89884 -7.68317
-1.6228 -4.12006 -7.51668
-1.15434 -1.79505 -3.53383
