ply
format ascii 1.0
comment Created by Open3D
element vertex 250
property double x
property double y
property double z
end_header
0.621823 1.18458 -0.719636
-0.576669 0.696785 -2.72656
-1.25481 -0.263805 -2.30725
-0.569612 -0.504173 -0.952073
-0.667019 -0.187211 -1.02124
-0.899223 -0.461527 -0.947962
-0.0734374 0.00369475 -0.261473
-1.84381 0.411823 -2.96445
0.423695 1.22393 -0.521037
-0.402829 1.35624 1.32117
-0.200619 -0.188849 -0.350695
0.22714 0.931931 -0.318707
-2.39559 0.769917 -3.79299
0.359323 0.599481 -0.510824
-1.12012 -0.805765 -1.60743
-0.0786331 0.539515 -1.85782
-0.28797 0.082098 0.205667
-0.325324 -0.13276 -1.62303
-0.0329887 0.528276 -1.28551
0.00747438 -0.0661787 -0.836709
-0.579313 0.442041 -2.65462
0.625187 0.523173 0.293687
-0.0320808 1.44497 1.47639
-0.403203 0.278276 0.483558
-0.205478 -0.104101 -1.43602
0.341505 0.753296 -0.790138
0.434843 1.94114 1.35949
0.052604 0.337476 0.478578
-3.42458 1.26492 -5.04251
-0.120019 0.181709 0.35166
0.719491 2.67014 0.777101
-0.225778 1.83463 1.6833
0.445089 0.975573 0.758601
-0.573098 0.195461 0.387655
0.406675 0.963091 -0.712624
0.234789 0.54238 0.455003
-0.408067 -0.398134 -1.43507
-2.2551 1.49365 -4.99252
-3.22524 0.967367 -5.91597
-0.645766 -0.0508094 -1.97896
-3.14721 1.88861 -5.55605
0.450925 1.68641 0.828867
-0.33648 -0.0352704 -1.69811
-0.682367 0.157875 -2.12265
-0.316428 0.0325376 0.17626
-2.06249 1.14 -3.95146
-0.664059 -0.452366 -1.4164
-2.05857 1.25327 -4.27562
-2.61718 1.58359 -5.51572
0.263341 0.847521 -0.410552
0.5083 0.760006 0.458713
-1.39053 0.923849 -4.05394
-2.54979 2.42462 -5.84286
-2.44765 0.618341 -4.55148
-0.834361 -0.0166868 -1.54806
-1.99704 0.48049 -3.31308
-0.506651 0.136531 0.307478
-0.47884 -0.133637 0.0234996
0.700326 1.26655 -0.126916
-0.311073 -0.407331 -0.719133
-3.16469 1.99571 -4.96608
-2.10987 1.03475 -4.48878
-1.98742 0.97252 -3.9994
-2.13099 0.716583 -3.51978
-0.0352869 -0.0816547 -0.975198
-2.78288 1.35219 -5.29521
0.0312187 0.0717948 -0.946751
0.179747 0.564207 -1.38804
0.633002 1.34481 0.647468
-2.55302 2.23474 -5.74654
-1.72571 0.946872 -3.68308
0.337538 0.309684 0.169586
-1.72033 -0.420155 -3.10589
0.198267 0.640166 -0.0753808
-0.8573 -0.601002 -0.824062
-0.294119 -0.255038 -0.221882
-1.30163 1.11477 -3.756
-2.27763 2.15377 -4.94046
0.11951 1.41484 1.02834
-0.0346237 0.706247 -1.89438
-0.231821 0.813555 0.975798
-0.116117 -0.210079 -0.754177
0.299215 1.04268 -0.328255
0.262842 0.140418 -0.273909
0.21592 0.133371 -0.461979
0.270359 0.336851 0.408767
-0.707451 -0.159086 -1.31384
-0.0113904 0.569794 -1.75494
0.89538 2.30391 2.05563
-1.03477 -0.611128 -1.25391
-1.95145 -0.13105 -3.43487
-1.94642 1.06482 -3.80968
-0.552124 -0.475314 -1.03141
0.880116 1.05766 0.598518
-1.39234 -0.0577187 -3.17139
-0.727636 -0.233055 -0.476964
-0.261797 -0.317881 -0.565572
0.275377 0.205748 -0.102749
0.116965 1.51742 1.36509
-0.348449 0.254365 -2.10846
0.186436 0.638271 0.111503
-1.05455 0.486361 -3.05763
-0.460744 0.277312 -1.99049
0.206896 0.323515 -0.508843
0.297014 0.805524 -1.17987
-0.272585 -0.16195 -1.04741
-0.22984 0.310361 -1.95149
-1.12649 0.00356499 -1.75754
-0.0868347 1.55088 1.39321
-2.22654 0.057408 -3.39217
-0.676344 -0.377636 -1.83464
-0.524082 0.241202 -2.26853
-0.299165 0.607089 -2.23805
-1.96904 -0.101569 -3.57021
-0.576443 1.02652 -2.72005
0.443637 1.15877 -0.142944
-2.3152 0.86268 -3.82441
-0.0417381 1.5272 0.724879
-1.33979 -0.0678486 -2.13976
-1.26595 1.59124 -4.10264
-0.794573 0.982137 -3.22008
0.458236 1.30937 1.15209
-0.961697 0.246951 -2.33682
-2.12468 1.72035 -4.96025
0.374252 1.13159 1.04941
-2.05619 1.82959 -4.9729
0.703373 2.21684 1.34186
0.19044 1.56675 -0.128543
-0.192143 1.13584 1.00906
-0.758375 0.565462 -2.90103
0.522191 1.15795 0.437497
-0.209667 0.0156996 -1.63087
0.853844 2.00051 0.782838
-2.69657 1.04702 -4.42402
-2.08477 1.3592 -4.60888
0.560416 1.7422 0.165001
-0.0032626 -0.0579547 -0.803858
0.413415 0.401796 -0.629806
-0.886235 0.905681 -3.24816
-2.71663 1.87051 -5.54435
0.248576 0.517883 0.446073
-1.19646 0.094317 -2.41147
-0.286062 0.573973 -2.21193
-2.82505 1.1597 -4.42497
-0.870277 -0.366278 -2.03006
-1.30162 0.146572 -2.85276
-0.448314 -0.543932 -0.922288
-0.132586 0.513867 -1.76235
-0.01247 0.925184 1.1153
-3.23789 1.43907 -5.22893
-2.53765 2.29757 -5.59073
-1.64825 0.208542 -2.89265
-0.407364 0.188017 0.395636
0.311889 0.468133 0.602445
-1.05853 0.792673 -3.15972
-1.05617 -0.367969 -0.182806
-0.350607 -0.457706 -0.708227
-0.447453 0.100517 -0.624228
0.607604 1.11986 0.672017
-0.780535 -0.201209 -2.44332
-0.507856 0.552852 0.646579
0.395965 0.574467 0.340993
0.0904754 0.805539 -0.275343
-1.00316 -0.03909 -2.50404
0.0522945 0.686248 0.696833
0.553058 1.26955 1.10927
-0.327319 0.426109 -2.1539
-1.46787 0.679485 -2.8684
0.495523 0.706576 0.473446
-0.951895 0.684829 -3.06752
-3.35088 1.52284 -5.76342
-1.87419 0.177216 -3.87711
-1.42689 0.876525 -3.86082
0.299453 0.858385 -0.900813
-0.181281 -0.171419 -1.04362
0.328102 0.506644 -0.791334
-0.38761 -0.104704 -1.84646
-0.518488 -0.38585 -1.12138
-0.0557498 0.613395 -1.89169
0.0711119 1.46629 -0.0623198
-0.278338 -0.110776 -1.14808
-0.482475 -0.0658801 -1.93826
-1.17513 -0.13528 -2.58321
0.278602 0.179503 -0.186749
-2.72113 1.1444 -5.30961
-1.88036 0.971031 -3.89753
0.500495 0.656262 -0.198933
0.0793675 1.31128 0.047138
0.0514895 0.970811 0.500462
-2.5601 0.0649949 -3.87785
0.0563505 1.66837 0.486502
0.514189 1.84855 0.0950236
0.155621 0.397116 -0.561175
-3.41193 0.968296 -5.31904
-2.92183 0.556028 -4.75197
0.0181501 1.06046 0.556543
-0.421447 0.518368 -2.38384
-0.0345674 0.359734 0.419496
-0.323253 0.40087 0.606388
-0.495238 -0.0996263 0.073813
0.324065 3.34736 -0.334799
0.550522 1.86708 -0.650437
-0.466546 4.76531 -2.5105
-0.970654 5.59004 -2.13154
-0.893277 9.32186 -2.20737
-1.46678 7.91474 -2.64238
0.209933 2.62257 -0.494029
-1.01979 4.7452 -2.36924
-0.273227 4.6696 -2.13377
0.259686 2.68995 -1.26775
0.168985 1.78387 -0.654432
0.399619 3.79885 -1.20956
0.614204 2.50933 -0.0858415
0.317883 2.54975 -0.56002
-0.833944 4.49562 -2.86638
-0.435051 4.41832 -2.19338
0.37951 2.78727 -0.0240015
-0.649619 6.37906 -2.49162
-0.271154 4.97698 -1.04271
-0.201384 5.71455 -1.60999
-1.56732 7.32534 -3.28921
0.34249 2.57158 -0.523573
-0.486375 5.13783 -1.27931
-0.00302254 4.28966 -0.615089
-1.6068 7.91011 -3.42162
-1.46389 8.80468 -2.83451
0.559741 3.5578 -0.447737
-0.64161 5.34806 -2.8002
-1.5236 7.35849 -2.7896
0.431009 1.54585 -0.765893
-0.796085 6.34354 -2.63346
0.886196 2.07548 -0.250549
0.685002 2.06285 -0.550291
-1.02988 8.33721 -2.22779
-1.02963 6.75003 -2.35291
-1.00728 5.97843 -3.12324
-0.538838 5.36546 -1.35048
-0.811086 3.93955 -1.45751
0.179584 4.59573 -0.302897
0.413291 2.03723 -0.737232
0.204016 4.0328 -0.932991
-1.1296 7.91043 -3.17228
-0.696408 6.89459 -1.57266
-1.48489 9.13159 -3.00674
-0.189185 3.41585 -1.8228
-1.02245 7.13262 -2.13252
0.0094076 1.73909 -1.40108
-1.56763 7.47067 -3.26392
-1.40018 8.03212 -2.79322
0.142619 4.61609 -1.04187
