ply
format ascii 1.0
comment Created by Open3D
element vertex 400
property double x
property double y
property double z
end_header
-0.111475 -0.875055 -1.29891
0.134448 -3.0701 -1.70513
0.246395 -1.06784 -1.21804
0.296915 -2.18108 -0.331074
-0.721619 -1.61038 -1.91251
-0.444989 -1.37752 -1.73995
0.35988 -1.46991 -0.430607
0.106884 -1.45613 -1.53948
-0.214223 -3.37121 -2.12371
-0.232529 -4.08762 -1.5422
-0.437099 -0.951879 -1.44013
0.37435 -1.56435 -1.1583
0.292682 -2.58573 -0.865625
0.136516 -2.82916 -1.69667
0.222653 -2.44481 -1.47943
-0.687737 -0.807587 -1.35111
-0.156283 -0.868243 -1.30457
-0.169332 -3.65147 -1.29248
0.369992 -0.761348 -0.63774
0.0909763 -2.93182 -0.840391
0.178615 -1.6135 -1.5375
0.190715 -1.91103 -1.61246
0.233951 -2.50516 -1.45336
0.335092 -1.49136 -1.14168
0.280848 -0.930522 -0.794964
-0.150607 -1.8003 -1.85075
0.11397 -2.37189 -0.484595
-0.468682 -2.71269 -2.37917
0.469042 -2.0391 -0.828614
-0.559723 -2.56476 -2.35542
-0.861761 -1.41135 -1.83849
0.360069 -2.25601 -1.2036
0.410444 -1.68171 -0.361535
0.243009 -2.67527 -1.49054
0.423423 -1.70349 -0.598744
0.404058 -1.649 -0.926259
-0.138465 -3.22636 -2.14063
-0.369649 -2.3248 -2.16011
0.271665 -0.752625 -0.998626
0.292845 -1.64726 -0.562682
0.337345 -2.27685 -0.955792
-0.518322 -1.92536 -2.02427
0.188253 -3.11076 -1.19863
0.411238 -2.05672 -1.33114
0.279292 -2.66538 -1.5829
0.379918 -1.30024 -0.341955
-0.319765 -2.0861 -2.05108
0.565922 -1.77096 -0.882334
-0.846363 -2.9187 -2.58495
0.531766 -1.679 -0.97196
-0.214199 -3.99384 -1.33443
0.422745 -1.50631 -0.533231
0.0914268 -2.88035 -0.979116
-0.11959 -3.84068 -1.61225
0.0954577 -3.322 -1.05312
0.235483 -1.58764 -1.52465
-0.34523 -1.38887 -1.69637
-0.987628 -1.53599 -1.93968
0.438855 -1.17569 -0.892282
0.33745 -1.49033 -0.845628
-0.0687353 -3.3999 -1.01005
-0.448201 -1.76578 -1.93289
0.530222 -1.58605 -0.522786
-0.649605 -1.13216 -1.58072
-0.675263 -2.11991 -2.1962
0.106628 -3.18928 -1.1589
-0.680144 -2.53618 -2.39418
-0.0172263 -1.47247 -1.58589
0.388779 -2.41328 -1.11682
-0.304224 -2.18597 -2.08207
-0.489176 -2.40062 -2.29295
0.277133 -1.4694 -0.522049
-0.240625 -1.28915 -1.6128
-0.304753 -4.12881 -1.50736
0.187129 -2.82621 -1.56995
-0.481262 -1.51344 -1.81402
0.000722236 -0.785508 -1.17846
-0.10844 -0.55801 -1.04788
0.0776044 -2.18491 -1.8162
-0.516312 -2.10146 -2.13779
-0.313492 -2.58772 -2.24957
-0.599634 -2.74318 -2.43202
0.131238 -2.41337 -1.85411
-0.17539 -2.08181 -1.9853
0.181632 -2.98561 -1.61681
0.421378 -0.955152 -0.812357
0.0437394 -1.18552 -1.41762
0.145 -2.37143 -1.79422
0.144344 -1.04009 -1.22405
-0.537763 -1.35689 -1.74576
0.0225567 -2.72662 -2.01048
0.26555 -2.30215 -1.47706
0.397644 -1.7279 -0.463162
0.117792 -2.82426 -1.41024
-0.293136 -2.60979 -2.24073
0.133565 -0.973265 -1.21222
0.0489451 -2.75612 -1.84421
-0.537684 -1.1021 -1.57221
-1.0003 -2.39676 -2.40539
0.2505 -2.46028 -1.65059
0.18765 -2.16315 -1.76251
-0.0607462 -2.47805 -2.00063
0.289003 -2.20108 -0.67902
-0.226678 -1.23997 -1.58145
-0.246988 -0.955908 -1.34946
0.0567354 -2.03486 -1.81786
0.0916499 -2.8976 -1.73767
-0.390761 -1.81956 -1.967
-0.040392 -1.78622 -1.78728
0.275028 -2.30857 -0.696219
0.282096 -1.05808 -0.906233
0.252418 -2.68908 -1.52736
0.225417 -3.02477 -0.93513
0.556914 -1.71187 -0.468044
-0.484978 -2.12748 -2.1506
-0.307796 -1.3314 -1.66129
0.153403 -2.63689 -1.50032
0.103719 -3.02054 -1.08982
0.309097 -2.04454 -0.158531
-0.828461 -2.10932 -2.21118
0.48048 -1.45687 -0.693616
-0.41972 -0.66726 -1.20538
0.236637 -2.45303 -1.20212
-1.03708 -3.1582 -2.72781
-0.513803 -3.01295 -2.4917
0.245944 -1.67701 -0.164582
0.510088 -1.64225 -0.941513
-0.808954 -1.04584 -1.56159
-0.118496 -2.82743 -2.14893
-0.466877 -0.613187 -1.15755
-0.331263 -2.91194 -2.332
-0.730627 -2.88987 -2.56012
0.101299 -1.093 -1.34852
0.464322 -1.27294 -0.515932
0.187288 -0.756292 -1.05095
0.450059 -1.5568 -1.17488
0.246609 -1.1802 -1.09212
0.250257 -2.61582 -1.46654
0.193397 -0.835823 -0.941678
-0.0479782 -3.38417 -1.08178
0.163589 -2.6792 -0.558187
0.341458 -0.505232 -0.728918
0.386145 -1.316 -0.213994
-0.489915 -2.10444 -2.13307
0.061573 -2.85952 -1.87324
0.153597 -2.89666 -0.712573
0.184548 -3.02121 -1.24892
-0.0401737 -2.39743 -0.609956
0.235885 -2.63193 -1.61412
-0.773858 -2.39262 -2.38769
-0.801571 -0.824641 -1.3573
0.33664 -0.68199 -0.868757
0.351985 -0.760315 -0.70457
-0.096332 -1.66676 -1.76358
0.370676 -1.56443 -0.640946
0.0727846 -3.61568 -1.06248
0.241678 -2.17162 -0.331751
-0.270549 -0.659929 -1.16498
0.120464 -2.18761 -0.377341
0.210548 -0.524812 -0.880912
0.338856 -0.992664 -1.0018
0.240808 -2.36126 -0.659906
0.0938136 -2.24955 -0.427413
-0.287609 -1.8885 -1.91897
0.223273 -1.9098 -1.41833
-0.707966 -1.33194 -1.75948
0.188692 -1.95259 -0.40854
-0.965683 -3.12126 -2.67884
0.478207 -0.790853 -0.986566
0.237838 -2.34259 -0.566737
0.00606055 -0.836329 -1.17949
-0.447153 -1.1785 -1.58532
0.396099 -1.2116 -0.928451
0.265172 -0.847288 -1.03424
-0.251537 -1.7506 -1.87585
-0.142097 -1.53019 -1.71404
-0.061407 -1.87083 -1.83027
0.0485222 -2.542 -1.93735
0.503714 -1.32235 -0.87426
0.264751 -2.35723 -1.26275
0.0287692 -1.64635 -1.64032
0.471692 -1.94469 -0.947047
0.536868 -1.61834 -0.824739
0.120398 -2.4386 -1.78201
-0.216463 -1.97021 -1.96332
0.224028 -2.50838 -1.62868
0.0321013 -3.71863 -1.35452
-0.194098 -3.80035 -1.31833
0.440693 -0.829297 -0.660271
-0.0421842 -3.696 -1.15411
0.128072 -0.777538 -1.15038
0.171315 -0.786195 -0.936313
0.417577 -1.31551 -0.181943
-0.559554 -2.14083 -2.17498
-0.374587 -2.46371 -2.22533
-0.169896 -2.18718 -2.02194
-0.706751 -1.81906 -2.0296
0.368979 -1.47274 -1.32563
0.00756547 -3.36091 -1.37922
0.332877 -0.790303 -0.760924
0.274907 -0.717333 -0.919707
0.00178983 -1.97723 -1.81797
-0.151314 -2.13047 -1.98251
0.327816 -2.25304 -0.970491
-0.353366 -2.2659 -2.16434
-0.987222 -2.25007 -2.32046
-0.548095 -2.55022 -2.30994
0.342848 -2.02409 -0.87957
0.556689 -1.11061 -0.931883
-0.852477 -1.86559 -2.1349
0.299441 -1.99636 -0.60421
-0.615217 -2.69281 -2.42488
0.128585 -2.85592 -1.6137
0.100275 -3.19812 -0.943092
0.599136 -1.02152 -0.339866
-0.570072 -1.31139 -1.6753
0.267833 -2.49351 -1.14968
-0.941006 -3.00794 -2.62608
-0.158333 -3.11316 -2.16947
0.27327 -0.81452 -0.991542
0.00991492 -2.48546 -1.97909
0.378021 -2.03128 -1.4433
0.153013 -2.34565 -0.377416
-0.467369 -2.0197 -2.12108
0.179694 -2.33775 -1.49827
0.329111 -1.58204 -1.15006
-0.642883 -1.46118 -1.80999
-0.653541 -1.62885 -1.89755
0.37098 -2.42946 -1.23679
0.34092 -1.99254 -0.974154
-0.0335997 -1.96161 -1.85272
-0.139939 -1.94739 -1.91364
0.163229 -2.39355 -0.483948
-0.501397 -1.16463 -1.588
0.0318834 -1.76522 -1.73648
-0.563052 -1.81637 -1.9311
-0.703526 -2.68207 -2.38914
0.0638029 -0.817687 -1.14039
0.359707 -1.56709 -0.719799
0.517476 -1.45387 -0.913217
0.219088 -1.69285 -1.56442
0.0388659 -3.03572 -1.57912
-0.971302 -3.21971 -2.76058
-0.108778 -1.4555 -1.66256
0.0143762 -3.11725 -1.92178
0.052543 -1.64088 -1.65506
0.372021 -1.51038 -1.20802
0.547973 -2.1004 -0.884025
-0.271341 -0.771261 -1.2619
-0.0160599 -2.04881 -1.87577
0.24953 -0.61017 -0.861908
-1.06205 -2.78435 -2.57757
0.739868 -1.25344 -0.52094
0.143775 -2.21082 -1.60404
-0.575617 -2.68625 -2.42427
0.242513 -2.22758 -0.716456
-0.665947 -2.21184 -2.22393
0.158214 -2.75091 -0.667282
-0.118779 -3.56468 -1.29955
0.0390466 -1.22622 -1.40983
-0.655122 -1.03387 -1.53171
-0.217675 -2.77067 -2.2024
-0.402295 -0.744945 -1.26711
0.277136 -1.87594 -1.22643
-0.00427298 -3.24644 -1.52178
-0.425598 -2.63675 -2.29797
-0.21522 -1.68592 -1.83282
-0.22628 -2.76272 -2.22625
-0.254767 -2.01204 -2.00385
-0.801089 -2.10715 -2.19718
0.385721 -1.50925 -0.292498
0.544178 -0.889402 -0.803726
0.309265 -2.07081 -1.32803
-0.636128 -2.96511 -2.51613
0.0734053 -2.71637 -0.834854
-0.848637 -2.87323 -2.54222
0.337594 -0.815956 -0.649692
-0.930657 -2.75173 -2.51886
0.0132226 -3.35677 -1.57491
0.627808 -1.14167 -0.454067
0.354843 -1.79978 -1.46927
-0.440433 -1.21413 -1.62956
-0.65856 -2.57268 -2.42207
-0.0961362 -1.61221 -1.73086
0.0932405 -3.00987 -1.70053
-0.159009 -0.741249 -1.19938
0.464177 -0.596163 -0.777668
0.57136 -0.89615 -0.729233
-0.385508 -2.50184 -2.26574
-0.117836 -3.52075 -1.88997
-0.62776 -2.80149 -2.46712
0.0814073 -3.39563 -1.65027
-0.636452 -1.77983 -2.00862
0.253353 -1.58822 -1.36542
0.0810149 -3.06003 -1.82868
-0.566761 -1.16601 -1.61641
0.242639 -2.68027 -1.54217
-0.539981 -3.03868 -2.51858
0.213508 -1.64579 -0.779973
-0.169819 -0.596049 -1.09918
0.245324 -2.56272 -1.6073
0.449186 -0.834924 -0.944339
0.115529 -2.88048 -1.22787
0.0872025 -0.611377 -0.968572
0.157227 -2.89602 -1.41638
0.247566 -1.95549 -1.51856
-0.599887 -0.818337 -1.35713
0.275635 -1.19374 -1.11492
0.278207 -2.45195 -1.18785
-0.09795 -1.03269 -1.38158
-0.0801817 -3.26267 -1.34373
-0.55273 -1.67876 -1.87718
0.0575114 -1.64104 -1.66522
0.322898 -1.33612 -0.525775
-0.1914 -1.37679 -1.65291
0.0576733 -1.43405 -1.54291
-0.982775 -2.53721 -2.44461
0.0883476 -2.60019 -0.864058
0.25173 -2.56648 -0.598386
-1.2609 -3.12181 -2.81914
-0.756796 -1.01005 -1.49717
-0.58583 -1.08776 -1.57961
0.14137 -2.86937 -1.46271
0.366483 -1.1143 -0.574251
0.458773 -1.43246 -0.696407
0.207855 -1.38068 -1.43533
0.157433 -3.17172 -1.40486
-0.0342087 -3.4248 -1.86185
0.0041341 -3.41306 -1.0449
0.16979 -1.52494 -1.43607
-0.0685918 -1.50864 -1.67086
-0.585187 -2.84361 -2.44863
0.132426 -2.5483 -0.897194
-0.549639 -2.73337 -2.41007
0.399254 -1.98448 -0.352572
-0.155954 -2.60096 -2.13208
0.342931 -1.75476 -1.40717
0.236189 -2.50571 -1.66639
0.404026 -2.23472 -1.48098
-0.327866 -4.2334 -1.48678
0.322322 -1.93872 -0.7982
0.188106 -1.79986 -0.620264
-0.444024 -1.25372 -1.66514
-0.67335 -1.64465 -1.96601
-0.228299 -1.34289 -1.64827
0.357297 -1.77552 -0.843477
0.255896 -2.24813 -1.11025
-0.0486598 -2.01297 -1.87486
0.00827888 -2.39774 -1.85603
0.0457 -1.52763 -1.62324
0.184879 -1.76995 -1.61122
-0.0253961 -3.59767 -1.42018
-0.19402 -1.83993 -1.89783
0.212249 -0.601571 -0.918434
-0.420119 -1.74965 -1.93814
0.0620673 -0.882283 -1.17311
0.323144 -1.93393 -0.255941
-0.652215 -1.23548 -1.65256
0.112375 -2.90116 -1.24163
0.581144 -0.909346 -0.614818
0.390104 -1.35883 -0.697957
0.612276 -1.41961 -0.335737
0.192346 -1.36728 -1.4342
0.240865 -2.64646 -0.731364
0.400211 -1.95909 -0.239316
0.334245 -1.22282 -1.19648
0.0355169 -2.80698 -0.909094
-0.650238 -1.26027 -1.69528
0.347004 -2.42701 -0.746283
0.333434 -1.93283 -1.53527
0.331428 -0.880832 -0.647184
-0.472643 -1.01916 -1.49006
0.1187 -2.10646 -1.79162
-0.810624 -1.87215 -2.08956
-0.742737 -0.806137 -1.34263
-0.104528 -3.42073 -1.96596
0.340347 -1.9474 -1.51334
-0.537585 -1.97326 -2.06735
0.270453 -2.06444 -1.13725
-0.354494 -1.22537 -1.61404
0.0176371 -2.78487 -1.76063
-0.321925 -1.09949 -1.52059
0.367498 -0.566402 -0.808574
0.230662 -2.88166 -1.67062
-0.00462716 -1.60352 -1.66533
-0.0100324 -3.07605 -1.19875
0.328607 -2.50954 -1.51474
-0.174121 -0.794691 -1.25514
0.277807 -2.73984 -1.13803
0.12156 -1.04868 -1.28625
-0.631439 -1.59963 -1.91203
0.120708 -3.23725 -1.35093
0.374053 -2.07252 -0.814414
-0.0519392 -2.91899 -2.049
-0.139151 -0.713921 -1.14106
0.312655 -1.96297 -0.979917
0.166762 -1.07897 -1.3198
-0.187529 -2.48389 -2.12351
0.186688 -3.09417 -1.16412
0.463629 -2.02768 -0.495216
