ply
format ascii 1.0
comment Created by Open3D
element vertex 250
property double x
property double y
property double z
end_header
-0.242055 -0.849504 0.0970777
-1.75747 -1.90172 1.27273
-1.74976 -1.2253 1.39433
-0.619656 -0.532314 0.517558
-0.766514 -0.288462 1.18222
-0.889876 -0.338456 0.64581
-0.0640309 0.0970723 0.859174
-2.70363 -1.35158 1.98932
-0.456741 -0.922106 -0.845797
-0.459197 1.05215 -1.34298
-0.184859 -0.0997577 0.458713
-0.46923 -0.807069 -1.23553
-3.64209 -1.86849 2.08866
-0.195514 -0.727469 -0.311878
-1.23799 -0.955083 0.536897
-0.929948 -1.32772 1.12381
-0.305405 -0.0339403 -0.966962
-0.81329 -1.15742 0.809427
-0.87549 -1.4684 -0.694011
-0.248242 -0.591116 0.628808
-1.72169 -2.11292 0.564147
0.551478 0.380775 0.857476
-0.0803015 1.17038 -1.032
-0.268078 0.556157 -0.282984
-0.666142 -1.08511 0.643404
-0.386627 -0.972692 -0.284629
-0.0159044 0.663501 -1.64454
0.166108 0.604012 0.359848
-5.23297 -2.6567 2.00211
-0.00993445 0.428975 0.0582771
-0.341388 -0.0572865 -1.8591
-0.334225 1.38551 -1.287
0.210546 0.308898 -0.83413
-0.434404 0.479861 -0.412159
-0.398542 -0.962766 -0.425471
0.0904962 0.121206 -0.699787
-0.744603 -1.09183 0.44845
-4.38282 -3.22572 1.62648
-5.44561 -3.95001 1.1101
-1.18995 -1.15302 1.37595
-5.45577 -3.20291 2.08464
-0.130209 0.12896 -1.62066
-0.862507 -1.13241 1.04216
-1.32957 -1.16777 1.63297
-0.315031 -0.0325526 -0.909426
-3.55512 -2.07129 2.26894
-0.871012 -0.807074 0.881744
-3.75484 -2.43861 2.1192
-4.97414 -3.67182 1.37906
-0.416502 -0.831179 -1.00382
0.262913 0.108736 -0.474579
-3.16472 -3.06016 0.691867
-5.4061 -4.02633 1.21058
-4.01292 -2.77068 1.63108
-1.14424 -0.566436 1.59756
-3.00696 -1.62324 1.99025
-0.361807 0.455301 -0.182752
-0.356846 0.148002 -0.180722
-0.0218926 -0.49653 -0.436055
-0.38738 -0.535206 0.174384
-5.2052 -2.46064 2.48551
-3.85143 -2.77584 1.75788
-3.47393 -2.23306 2.07718
-3.28054 -1.70272 2.12465
-0.339132 -0.714932 0.614853
-4.88097 -3.26995 1.73132
-0.418884 -0.95923 -0.0647568
-0.582966 -1.14783 0.662608
0.157098 0.093627 -0.974079
-5.28058 -3.90494 1.31381
-3.10305 -2.01096 2.14258
0.240637 0.0691445 0.0649405
-2.4454 -1.90006 1.18458
-0.254818 -0.516769 -1.07586
-0.800009 -0.395439 0.242385
-0.253841 -0.15053 -0.106635
-2.90698 -2.41714 1.69534
-4.54949 -2.87566 2.27982
-0.227685 0.402336 -1.73562
-1.04718 -1.58384 0.554777
-0.207393 0.750836 -0.953967
-0.273186 -0.508956 0.519564
-0.446204 -0.80905 -1.15489
0.109214 -0.181595 0.501186
-0.0498284 -0.467928 0.176701
0.30342 0.407448 0.262588
-0.915155 -0.492441 1.35167
-0.914394 -1.46423 0.560649
0.630949 1.48414 -0.82054
-1.07724 -0.59446 0.636523
-2.85774 -2.01206 1.43277
-3.37095 -1.9919 2.2546
-0.636709 -0.575052 0.625231
0.57686 0.287977 0.00287387
-2.33035 -2.04147 1.28143
-0.644743 0.0322149 0.556143
-0.29502 -0.341677 0.328969
0.111514 -0.179475 0.0617992
-0.0864921 0.849059 -1.44445
-1.2667 -1.81534 0.225169
-0.187937 -0.342738 -1.11258
-2.17032 -1.91314 1.60798
-1.13727 -1.12824 1.62081
-0.223034 -0.706448 -0.382312
-0.559441 -1.18014 0.120465
-0.477864 -0.524706 1.05903
-1.0967 -1.63246 0.426479
-1.47874 -0.632891 1.63525
-0.275335 0.907167 -1.59817
-3.11415 -1.76901 1.62637
-1.08478 -1.1896 0.92606
-1.3388 -1.50156 1.28601
-1.42825 -1.96838 0.146627
-2.94547 -2.14508 1.40616
-1.79649 -1.62546 1.93367
-0.272768 -0.625285 -1.00713
-3.61686 -1.9029 2.15251
-0.605011 -0.0219757 -2.27724
-1.79639 -0.934179 1.60271
-3.27846 -2.93471 1.17304
-2.27496 -2.31559 1.16051
0.241185 0.649761 -0.998213
-1.65931 -1.17338 1.84725
-4.34422 -3.22051 1.66161
0.202825 0.591851 -0.946679
-4.34428 -3.28034 1.59215
0.105561 0.592036 -1.53724
-0.750056 -0.816398 -1.91394
-0.382633 0.504307 -1.71297
-1.93567 -2.01535 1.24471
0.0436313 -0.0881275 -1.00135
-0.816273 -1.31334 0.516804
0.122001 0.111803 -1.14991
-4.26925 -2.33878 2.0932
-3.99501 -2.84478 1.85699
-0.316022 -0.470748 -1.37385
-0.224839 -0.492151 0.793602
0.0479585 -0.375475 1.03556
-2.30441 -2.22599 1.38385
-5.13411 -3.50709 1.72968
0.117861 0.135124 -0.619333
-1.83873 -1.19373 1.7516
-1.38149 -1.91608 0.238759
-4.40983 -2.25068 2.16591
-1.31046 -1.23126 1.10528
-2.14524 -1.60417 1.68121
-0.543625 -0.708796 0.112236
-0.856932 -1.02038 1.63882
0.0329015 0.924819 -0.627505
-5.22159 -2.89159 2.04058
-5.17359 -3.60566 1.71154
-2.45261 -1.43522 1.8353
-0.362385 0.210916 -0.963238
0.364004 0.569291 0.211432
-2.30395 -1.89775 1.85576
-0.913814 -0.064148 -0.814964
-0.436917 -0.630485 -0.143823
-0.499186 0.10216 1.38237
0.262186 0.196132 -0.752291
-1.52422 -1.7952 0.750611
-0.551838 0.309009 -1.53644
0.195079 0.0400444 -0.44303
-0.543464 -0.799615 -1.45975
-1.7081 -1.49237 1.4379
-0.0589238 0.306406 -1.06874
0.338226 0.628691 -0.828653
-1.20582 -1.48154 1.2277
-2.42382 -1.30672 2.23245
0.289256 0.153662 -0.39781
-2.1597 -1.93293 1.66044
-5.61234 -3.46152 1.7734
-3.11056 -2.4761 1.38051
-2.99306 -2.56854 1.46742
-0.528673 -1.11132 -0.431905
-0.424355 -0.638927 0.848624
-0.252879 -0.839524 0.103736
-0.992248 -1.40687 0.652168
-0.65482 -0.591408 0.838261
-0.986299 -1.45868 0.875015
-0.805966 -0.780031 -2.10591
-0.531317 -0.575254 1.17139
-1.07382 -1.30507 1.05008
-1.84921 -1.51014 1.42134
0.108479 -0.205558 0.220071
-4.78712 -3.41457 1.49004
-3.3391 -2.17298 2.09209
0.0513825 -0.42647 -0.174812
-0.678126 -0.646432 -1.99784
-0.332701 -0.0940335 -1.67724
-3.61302 -2.13525 1.54114
-0.686166 -0.300828 -2.31406
-0.44419 -0.566972 -1.5192
-0.350878 -0.831271 -0.649859
-5.26378 -3.0586 1.71986
-4.46559 -2.76785 1.64043
-0.387236 -0.0672103 -1.80597
-1.42082 -1.6678 1.20865
-0.0997624 0.120466 -0.878845
-0.278883 0.411594 -0.922241
-0.368838 0.18604 -0.235276
-1.4865 -1.1577 -2.45912
-0.661249 -1.07319 -0.885112
-3.64255 -2.90735 -2.59162
-4.44781 -2.94809 -4.40758
-5.91004 -2.95421 -4.81631
-6.10358 -3.45352 -5.40228
-1.3458 -1.24556 -2.27439
-4.22447 -3.10038 -4.09487
-3.27889 -2.61336 -2.55633
-1.561 -1.7184 -1.4711
-1.06426 -1.26588 -1.80325
-1.87358 -1.71791 -1.66578
-0.706158 -0.774263 -1.60744
-1.21563 -1.24035 -1.95334
-4.04836 -3.27327 -3.00288
-3.37503 -2.71885 -2.81861
-1.06705 -0.847191 -2.27825
-4.52235 -3.03248 -3.474
-3.07383 -1.95748 -3.70998
-3.487 -2.32132 -3.25433
-6.1696 -3.88529 -4.87076
-1.18584 -1.20723 -1.93644
-3.45407 -2.19886 -4.00747
-2.34635 -1.53528 -3.27381
-6.48884 -3.96939 -4.8999
-6.51944 -3.5584 -5.33853
-1.3567 -1.16385 -1.95347
-4.1658 -3.16099 -2.81448
-5.98571 -3.57211 -5.2971
-0.681791 -1.14629 -0.854663
-4.71333 -3.17755 -3.64897
-0.245256 -0.673242 -0.522525
-0.566102 -0.970628 -0.757243
-5.66779 -3.03088 -4.94256
-5.0594 -3.11782 -4.55919
-4.93561 -3.52757 -3.47482
-3.62988 -2.27133 -4.11529
-3.36112 -2.38965 -4.19885
-2.17105 -1.26266 -3.21194
-0.928832 -1.23727 -1.28163
-2.11473 -1.6645 -2.50846
-5.88094 -3.6172 -4.0744
-4.50689 -2.49477 -4.58613
-6.72598 -3.66302 -5.25078
-2.55888 -2.33551 -2.30496
-5.1394 -2.97588 -4.81761
-1.45745 -1.80632 -1.46633
-6.22175 -3.86997 -4.92269
-6.12449 -3.52101 -5.13468
-2.46686 -1.79055 -2.73547
