ply
format ascii 1.0
comment Created by Open3D
element vertex 400
property double x
property double y
property double z
end_header
-0.515901 -2.32233 0.503126
-0.416784 -3.24545 -0.433045
-0.563817 -3.40248 -0.072612
-0.18536 -3.24804 0.83065
-0.441983 -3.54925 -0.349778
-0.761578 -1.35372 -0.194155
-0.45955 -3.42443 -0.310241
-0.521749 -2.16924 -0.425347
-0.368347 -2.64127 -0.818199
-0.770728 -2.00968 0.0862221
-0.585501 -1.45529 -0.295859
-0.672921 -2.53216 0.308339
-0.0510099 -4.35975 -0.993231
-0.518838 -2.97841 0.289108
-0.446619 -3.60166 -0.368114
-0.494876 -3.68435 -0.20006
-0.0348097 -2.98878 0.990681
-0.384722 -2.39421 0.663949
-0.416001 -3.0781 -0.211047
0.113738 -3.56957 -0.864208
-0.548772 -2.33604 0.476799
-0.255031 -1.58701 -0.512102
-0.475953 -2.82857 0.224295
-0.3161 -1.88227 -0.448589
-0.702202 -2.26239 -0.387734
-0.940024 -2.8562 -0.06826
-0.231764 -3.35655 -0.68368
-0.67355 -3.22049 -0.485539
-0.0104751 -2.05853 -0.874594
-0.388334 -2.48758 -0.513448
-0.672658 -2.42065 0.167468
-0.235467 -4.01135 0.700411
-0.548731 -2.20964 -0.686886
-0.391764 -2.77804 0.629623
-0.135345 -2.3712 0.877884
-0.544973 -1.43296 0.189768
-0.233704 -2.93368 -1.01448
-0.27674 -2.65719 -0.391135
-0.693966 -1.92737 -0.616011
-0.858912 -1.41969 -0.213587
-0.336124 -1.69141 -0.401218
-0.634622 -3.37108 -0.184311
-0.514133 -3.42183 -0.276079
-0.500626 -2.43118 0.53504
-0.231055 -1.58376 0.735125
-0.695076 -1.69555 -0.193344
-0.657168 -2.60419 -0.0225315
-0.479777 -3.38 0.0446452
-0.824847 -2.20443 0.0882002
-0.446993 -1.40013 -0.489246
-0.230457 -2.97406 -0.873992
-0.643939 -2.52022 0.0636355
-0.629482 -2.26468 0.0767153
-0.563695 -2.61214 0.462193
-0.334606 -3.40263 0.563826
-0.597978 -3.62775 0.23127
-0.371524 -3.35452 0.592502
-0.467115 -0.914516 0.0616931
-0.758039 -2.50601 0.275801
-0.617887 -1.68481 0.195733
-0.411473 -1.68183 0.593183
-0.30218 -3.74227 0.669846
-0.70637 -2.12931 0.102174
-0.535792 -2.49417 0.456517
-0.657018 -1.60505 0.156436
-0.486308 -3.28721 0.47408
-0.45078 -1.68948 -0.428583
-0.613034 -2.13794 0.415136
-0.478869 -1.99452 -0.59763
-0.207288 -1.78582 0.828616
-0.640444 -2.4669 0.0860078
-0.539811 -1.06586 -0.0927612
-0.462027 -3.16682 -0.77768
0.0829765 -2.83398 -0.761775
-0.604305 -1.36242 0.201334
-0.632986 -3.45553 0.266487
-0.335675 -1.11345 -0.464836
-0.333322 -1.46502 -0.683028
-0.570365 -2.34967 -0.507964
-0.157801 -2.63306 -0.719007
-0.67531 -1.37877 -0.0149421
-0.44922 -2.42408 -0.31407
-0.48236 -2.48777 0.571871
-0.485161 -1.52227 -0.0695457
-0.549382 -0.916866 -0.0869727
-0.536914 -1.86585 -0.309646
-0.418217 -3.78892 -0.475829
-0.121624 -3.17897 -0.621542
-0.0927207 -1.40996 -0.849675
-0.634822 -3.18684 0.01288
-0.571705 -1.79516 0.00742798
-0.101524 -4.04309 -0.998422
-0.199567 -3.21306 -1.08027
-0.476166 -1.7261 0.522752
-0.355898 -3.3884 -0.342791
0.0391642 -2.7181 -0.954533
-0.391633 -2.08575 0.65676
-0.0134154 -4.27141 0.861336
-0.484255 -1.45141 0.394577
-0.858197 -1.8501 0.00807913
-0.51085 -1.06744 0.137862
-0.631299 -2.12495 -0.170984
-0.279876 -1.68381 0.743878
-0.460893 -1.23336 -0.363057
-0.450195 -1.61493 0.529166
0.180632 -2.02182 1.18926
-0.533769 -2.01956 -0.0833634
-0.154684 -2.54452 -0.890607
0.00644394 -2.01426 0.953995
-0.30337 -2.98608 -0.947119
-0.503756 -2.61557 -0.665748
-0.297047 -1.41157 0.659104
-0.770199 -1.58207 -0.181122
-0.788201 -2.99222 -0.232848
-0.293575 -2.59275 0.746543
-0.100177 -1.36796 0.807246
-0.124132 -2.85741 -0.700622
-0.699324 -1.40198 0.0112756
-0.653715 -1.94523 -0.314095
-0.723992 -2.75391 -0.087123
-0.36169 -3.32665 -0.728167
-0.0961178 -4.10215 0.809426
-0.58135 -2.08841 0.427617
-0.478813 -2.04793 0.559376
-0.85532 -2.31001 0.0259057
-0.625091 -1.85659 -0.301018
-0.400729 -2.677 -0.853292
-0.650378 -1.17434 -0.248431
-0.201289 -3.60681 0.774865
-0.80996 -1.84317 0.0456233
-0.420953 -1.80678 -0.336703
-0.598437 -3.34802 -0.852943
-0.18506 -1.6979 0.84839
0.223214 -1.56663 1.10151
-0.460477 -2.12956 -0.614547
-0.430142 -2.103 0.613241
-0.201466 -1.46343 -0.835234
-0.607854 -1.2635 -0.352406
-0.146059 -2.83687 0.89743
-0.20555 -1.45077 0.764883
-0.621586 -1.13008 0.139731
-0.305416 -1.98772 -0.902776
-0.243514 -2.47838 0.80142
-0.759201 -1.43392 -0.419662
-0.303951 -1.61828 0.636979
-0.0500177 -3.45037 -0.81192
-0.513749 -3.33257 0.242626
-0.0580988 -4.02917 -0.97291
-0.142585 -3.6944 0.826361
-0.678027 -1.46688 -0.0331162
-0.419884 -1.56072 0.54931
-0.605595 -2.73567 0.414064
-0.323071 -2.26647 0.73433
-0.129791 -1.82163 -0.763409
-0.108825 -2.66912 -1.02481
-0.169469 -3.73421 0.782974
-0.586637 -3.14806 -0.0565041
-0.581856 -1.17254 0.242185
-0.200729 -1.78239 -0.776903
-0.59873 -2.59715 -0.17991
-0.505791 -2.84612 0.478299
0.18772 -1.79813 -0.821189
-0.577889 -1.72383 -0.298979
-0.876629 -2.74042 -0.139659
-0.458098 -2.40212 0.599644
-0.322176 -3.87877 -0.539616
-0.887773 -3.30889 -0.172618
-0.25018 -1.02267 -0.409826
0.0929311 -2.39789 1.10566
-0.133992 -3.9962 0.757252
-0.609876 -3.14521 0.0791952
-0.44403 -1.86582 0.577961
-0.78936 -3.58037 -0.105081
-0.248871 -2.07514 -0.962589
-0.60919 -3.58266 0.132052
-0.696889 -3.79042 -0.131612
-0.312455 -0.883769 0.493669
-0.738367 -1.44308 -0.152469
-0.492485 -1.72185 -0.781317
-0.599838 -1.64696 -0.474761
-0.213847 -3.62661 -0.452145
-0.616558 -3.19036 0.0940808
-0.442516 -3.09466 -0.116167
-0.459345 -3.1884 0.307844
-0.0622621 -2.19334 0.949503
-0.499213 -1.6701 -0.346343
-0.617151 -2.95538 -0.130242
-0.122471 -1.21523 0.819609
0.0458282 -2.53914 1.07617
-0.299279 -3.52661 -0.772718
-0.476615 -3.73547 0.397259
-0.433949 -3.55114 -0.549135
-0.462286 -1.29577 -0.58298
-0.524482 -1.26662 -0.0958674
-0.43269 -2.53196 0.550123
-0.0642728 -4.22502 0.826082
-0.507713 -2.93361 -1.06863
-0.538474 -3.45287 -0.280917
-0.215334 -3.1654 -0.700383
-0.00894109 -1.73844 0.890863
-0.512463 -1.90689 -0.0182575
-0.737837 -1.25582 -0.0767741
-0.646805 -1.67836 0.250523
-0.15838 -3.67478 -0.9131
-0.339587 -1.69124 0.642554
-0.0658975 -1.44251 -0.464016
-0.296352 -2.70237 0.714973
-0.332241 -4.10384 0.585048
-0.11574 -2.77327 0.897618
-0.606625 -2.66756 -0.036022
-0.706992 -1.1125 -0.214993
-0.763431 -2.73616 -0.0753569
0.00796179 -3.96582 0.893702
-0.696872 -3.35179 -0.328152
-0.263223 -1.50066 -0.447685
-0.125807 -2.71185 0.911606
-0.719357 -2.66817 -0.042673
-0.427599 -1.90743 -0.360283
-0.704816 -1.3928 -0.0408683
-0.575491 -3.76351 -0.248376
-0.23357 -2.26782 -0.666564
-0.364774 -1.20832 -0.551238
-0.437788 -3.00836 0.574863
-0.354377 -3.31413 -0.569265
-0.553823 -2.64897 0.504285
0.0262308 -3.00238 1.02429
-0.330873 -2.48292 -0.700199
-0.42391 -3.30632 0.604018
-0.478653 -1.8393 0.530926
-0.181896 -2.74257 0.86842
-0.381913 -1.50293 -0.624967
-0.253674 -3.52797 0.744402
-0.336334 -2.74574 -0.804169
-0.473971 -3.71719 -0.409369
-0.422005 -0.806699 0.0289674
-0.529215 -2.2843 0.348241
-0.274614 -1.47206 -0.429674
-0.270823 -1.95409 0.776114
-0.460992 -2.67462 0.591071
-0.205823 -1.96973 0.742886
-0.0871728 -3.92046 0.847725
-0.132012 -2.13826 0.899273
-0.593538 -2.50995 0.346378
-0.242627 -2.20909 0.802402
-0.605531 -2.60372 -0.614011
-0.00890637 -2.55393 1.00659
-0.674872 -1.62416 0.111752
-0.649225 -3.23951 0.362906
-0.903247 -2.20199 -0.307887
-0.589488 -1.63734 -0.671236
-0.538879 -3.62498 0.362742
-0.0213467 -3.16271 0.981336
-0.652225 -1.75657 -0.120298
-0.145362 -2.77385 0.894828
0.0603604 -3.62901 1.01192
-0.556482 -1.73043 0.199703
-0.677872 -2.10266 -0.0859929
-0.322677 -3.21203 0.685081
-0.236763 -3.6134 -0.430221
-0.57478 -2.02081 0.413424
-0.512261 -2.76158 0.345244
-0.620052 -1.89054 -0.533031
-0.36453 -3.36559 -0.872333
-0.750075 -1.74325 0.0860066
-0.645423 -2.90371 -0.580887
0.0805063 -1.96015 1.03076
-0.445797 -3.08439 0.36665
-0.219015 -1.31181 0.739324
-0.19806 -1.60587 -0.262259
-0.542545 -2.40726 0.513785
-0.710715 -1.77232 -0.190514
-0.191118 -1.64841 0.802661
0.112709 -3.47327 1.07608
0.0172649 -1.66609 0.868759
-0.727511 -3.11583 -0.0886898
-0.382485 -2.82779 0.515063
-0.493229 -0.911016 0.217549
-0.665366 -2.10116 0.303588
-0.728779 -1.612 -0.311162
-0.52103 -1.75026 0.466417
-0.574045 -2.03186 -0.670517
-0.021856 -1.59692 -0.840083
-0.591184 -3.17567 -0.518456
-0.572455 -0.973526 -0.132621
-0.591389 -2.684 0.410588
-0.737869 -1.99856 -0.0203611
-0.0452304 -2.59748 1.00521
-0.693074 -1.66799 0.184586
-0.553811 -1.76691 0.370519
-0.141219 -3.82648 -0.845457
-0.631785 -2.21215 -0.219849
-0.437316 -2.317 -0.305311
-0.735119 -2.92145 0.0779743
-0.694947 -3.47495 -0.124919
-0.287531 -2.84755 -0.296989
-0.322164 -1.03507 -0.305042
-0.00918586 -2.92447 -0.938833
-0.30371 -3.33177 0.716185
-0.640716 -2.63549 0.383086
-0.576641 -1.27605 0.288309
-0.416398 -3.54805 -0.723141
-0.670052 -3.18884 -0.308716
-0.437838 -1.05804 0.378951
-0.407583 -1.9761 0.623216
-0.233757 -1.25917 0.678997
-0.691349 -2.43301 0.286253
-0.606981 -1.7422 0.346299
-0.15273 -3.87415 -0.914593
-0.695024 -1.52435 0.0228573
-0.596053 -1.92779 0.328076
-0.139649 -1.33035 0.809887
-0.549648 -3.26471 -0.166514
-0.692222 -1.38387 0.0263888
-0.482121 -1.62606 -0.916168
-0.434117 -1.70856 -0.384576
-0.52778 -2.55433 0.328897
-0.213503 -2.36719 -1.01378
-0.356376 -3.35677 0.666154
-0.0335753 -1.79963 0.906759
-0.391549 -2.9575 0.651966
-0.682132 -2.96196 0.218043
-0.281279 -3.22641 0.74547
-0.567675 -1.83873 -0.471731
0.118784 -4.27331 0.96979
-0.273053 -2.66986 -0.748906
-0.584812 -2.68312 0.127159
-0.176853 -3.04806 -0.450453
-0.0392329 -1.59555 -0.6159
-0.340294 -2.41096 0.719998
-0.458892 -2.76733 -0.338546
-0.374295 -3.28176 0.577911
-0.591236 -1.26171 -0.0642841
-0.171195 -4.06533 0.717579
-0.117397 -2.26447 0.880899
-0.307472 -1.71742 -0.862849
-0.430036 -1.17854 0.447209
-0.115807 -1.68886 0.837782
-0.490901 -1.4566 0.455167
-0.551204 -1.03953 0.180427
-0.633289 -3.15815 -0.29868
-0.808567 -3.05236 0.187982
-0.153776 -3.05035 -0.925285
-0.26035 -3.48719 0.569742
-0.730432 -1.66281 -0.386275
-0.827012 -2.20642 -0.494301
-0.7741 -3.03638 -0.226246
-0.61492 -2.53771 -0.116656
-0.24148 -3.46678 -0.325588
-0.72159 -2.71864 0.249388
0.153378 -4.25248 -0.930012
0.0687768 -1.6802 -0.76494
-0.331514 -2.64165 -0.650498
-0.324159 -0.815216 0.290287
-0.621333 -3.63613 0.0887979
-0.757651 -2.69494 0.0841844
-0.118632 -1.74178 0.871124
-0.592691 -2.10779 -0.779016
-0.520191 -1.54424 -0.632697
-0.393669 -1.45823 -0.476216
-0.461291 -2.17655 -0.418833
-0.163021 -2.59029 -1.04434
-0.671521 -1.14152 -0.392159
-0.382811 -3.09981 0.591328
-0.163528 -1.95701 0.855053
-0.561945 -1.16149 -0.549544
0.0819217 -3.23353 1.07312
-0.309719 -1.75188 0.700639
-0.54118 -2.53442 0.186273
-0.273363 -3.24676 0.688996
-0.227647 -3.87396 -0.632787
-0.464222 -1.33437 -0.534853
-0.407863 -1.26117 0.479721
-0.255683 -3.12748 0.772839
-0.451925 -1.55703 0.515582
-0.634741 -1.74829 -0.704347
-0.459734 -2.10415 0.585761
-0.767812 -2.58361 0.00506846
-0.475848 -3.27398 -0.842582
-0.614848 -3.71444 0.178624
-0.593574 -2.31329 0.0228791
0.146852 -1.78518 -0.930073
-0.616783 -2.12716 0.0894819
-0.391582 -1.33394 0.539925
0.0382701 -4.03843 0.93726
-0.348509 -3.4708 0.159103
-0.552239 -3.49749 -0.279522
-0.504423 -3.24886 0.285309
-0.641301 -2.6243 0.304519
-0.424295 -1.47552 -0.70413
-0.627855 -3.72166 -0.257253
-0.221532 -2.62816 0.832359
-0.416571 -3.46727 0.534016
-0.617261 -3.21642 0.139213
-0.444245 -3.89565 -0.798771
-0.625241 -2.65037 -0.257333
-0.322229 -2.47582 -0.688233
-0.169451 -2.83216 0.865902
-0.611571 -2.36767 0.0627478
-0.696097 -2.17064 0.209944
-0.808047 -2.75934 0.155361
