ply
format ascii 1.0
comment Created by Open3D
element vertex 400
property double x
property double y
property double z
end_header
-2.0222 1.26978 0.610386
-2.60994 1.12252 1.80442
-2.81143 1.37282 1.49884
-2.43755 2.12561 0.984252
-2.83486 1.31523 1.85302
-1.43562 0.116266 0.185549
-2.76445 1.27584 1.77624
-1.91734 0.533248 1.18437
-2.10167 0.539204 1.606
-1.92866 0.654007 0.404427
-1.44482 0.226936 0.65137
-2.23583 1.12608 0.585878
-3.08091 1.4252 2.70022
-2.51285 1.46245 1.1899
-2.86953 1.32215 1.86654
-2.96045 1.45701 1.758
-2.21513 2.23204 1.09435
-1.91451 1.43852 0.327179
-2.52527 1.2204 1.70515
-2.48552 1.26018 2.62533
-2.03656 1.22844 0.542845
-1.3523 0.33908 1.23327
-2.40713 1.38475 1.3082
-1.61131 0.506067 1.33449
-2.06829 0.486133 0.938908
-2.56869 0.828047 0.529747
-2.55437 1.09101 2.11608
-2.70353 0.894806 1.41084
-1.48445 0.420761 1.73086
-2.06366 0.70783 1.53666
-2.19132 0.995259 0.772153
-2.94019 2.33883 1.13401
-1.91104 0.316873 1.15366
-2.27402 1.66142 0.8824
-1.75421 1.72582 0.422202
-1.45174 0.61575 0.52879
-2.19477 0.600887 1.88225
-2.14928 0.966453 1.77456
-1.78773 0.134565 0.78096
-1.50755 0.0560561 0.00416857
-1.49164 0.43492 1.20021
-2.81363 1.22459 1.42095
-2.7902 1.26362 1.67814
-2.07753 1.34674 0.605197
-1.2801 1.19392 0.143458
-1.67849 0.355084 0.587779
-2.31739 0.965543 1.03587
-2.76826 1.50925 1.57923
-2.07399 0.704052 0.347048
-1.30788 0.131865 0.82978
-2.25245 0.744261 1.93424
-2.25673 0.996811 0.97284
-2.07697 0.893407 0.889023
-2.22774 1.33837 0.623559
-2.69049 1.96655 1.33261
-2.9487 1.6506 1.18923
-2.64774 1.91967 1.12621
-1.01943 0.297352 0.355095
-2.20985 0.999581 0.274329
-1.65413 0.690161 0.501689
-1.48466 1.05778 0.234144
-2.8094 2.15802 1.03846
-2.00189 0.781425 0.625862
-2.16039 1.31464 0.730106
-1.60265 0.586847 0.376298
-2.65715 1.72781 1.01934
-1.53796 0.33367 1.02368
-1.837 0.97947 0.0228672
-1.7403 0.32912 1.14475
-1.47485 1.42151 0.473351
-2.2191 0.989515 0.942577
-1.15163 0.208923 0.395599
-2.52236 0.771648 1.72251
-2.01568 0.969625 2.2874
-1.39886 0.527201 0.270365
-2.83953 1.5633 1.01066
-1.04192 0.0723818 0.788582
-1.25844 0.0735547 0.994505
-2.0536 0.522568 1.20279
-2.00972 0.754868 1.89557
-1.44009 0.332423 0.311351
-2.08083 0.800068 1.41186
-2.08276 1.39475 0.526448
-1.48665 0.51688 0.844582
-1.02904 0.116762 0.213296
-1.72542 0.464186 0.992239
-2.96731 1.34353 1.99054
-2.38927 1.12835 2.19649
-1.05002 0.0489481 1.20778
-2.69761 1.28178 1.24748
-1.72413 0.652692 0.814634
-2.89309 1.23821 2.52184
-2.35751 0.703578 2.04154
-1.57309 1.00582 0.320645
-2.68955 1.30351 1.93146
-1.91198 0.716184 2.12649
-1.7683 1.32314 0.450771
-2.99145 2.71092 1.36177
-1.43038 0.806186 0.4587
-1.82765 0.43986 0.13002
-1.15583 0.403927 0.344869
-1.9669 0.638608 0.941674
-1.45684 1.27627 0.457481
-1.2122 0.13954 0.701379
-1.429 0.93444 0.0793641
-1.4115 2.01965 0.711924
-1.86285 0.72452 1.03832
-1.90677 0.56385 1.81701
-1.41312 1.68024 0.308485
-2.28281 0.641105 1.8331
-2.18113 0.567779 1.4254
-1.21916 1.03108 0.136452
-1.61798 0.245814 0.347213
-2.61905 0.899098 1.04363
-1.99175 1.64269 0.41897
-1.05032 1.21332 0.113334
-2.15311 0.902933 2.04686
-1.46151 0.342096 0.243087
-1.83126 0.419086 0.841201
-2.44034 0.939986 0.998648
-2.59089 0.955452 1.92665
-2.94054 2.55551 1.31495
-1.88033 1.05062 0.420373
-1.78207 1.17684 0.370061
-2.1647 0.693675 0.406024
-1.75713 0.404535 0.838147
-2.13584 0.506171 1.57482
-1.25561 0.0618059 0.294798
-2.68643 2.24621 1.12884
-1.81401 0.504997 0.22866
-1.6269 0.491356 1.14389
-2.70036 0.707886 1.60615
-1.42111 1.41972 0.526021
-1.00364 1.71178 0.337348
-1.82548 0.39578 1.24455
-1.76177 1.24924 0.281497
-1.15115 0.0219234 1.11401
-1.29689 0.0599942 0.468377
-2.15806 2.0145 0.911992
-1.20517 1.18749 0.221776
-1.19874 0.324855 -0.00889897
-1.57968 0.173225 1.30717
-1.90828 1.67253 0.483194
-1.4761 -0.0121854 0.326363
-1.30792 1.0713 -0.0046756
-2.50067 1.14411 2.37948
-2.74291 1.59735 1.33327
-2.86606 1.28056 2.57427
-2.67987 2.33669 1.0544
-1.50985 0.366179 0.389697
-1.45897 1.00018 0.422988
-2.32744 1.33294 0.627203
-1.86937 1.51802 0.610254
-1.40192 0.321704 1.47664
-1.939 0.537605 1.90051
-2.7632 2.33805 1.24059
-2.654 1.25007 1.37496
-1.18703 0.428755 -0.0964556
-1.40603 0.244133 1.35568
-2.28101 0.886973 1.21371
-2.38194 1.5167 0.88052
-1.20155 0.456675 1.83248
-1.64108 0.371119 0.840101
-2.48045 0.778559 0.712515
-1.97828 1.36477 0.365822
-2.97282 1.39836 2.16934
-2.86341 1.0149 0.90366
-0.945006 0.12825 0.861364
-1.69215 2.07128 0.720312
-2.93756 2.47863 1.46601
-2.66093 1.32769 1.23511
-1.65586 1.13552 0.395136
-3.00579 1.26175 1.12331
-1.59943 0.201443 1.41287
-2.93752 1.56132 1.28387
-3.10995 1.40912 1.37995
-0.927181 0.692237 0.271735
-1.5029 0.216531 0.296887
-1.50599 0.019934 0.920774
-1.56453 0.170745 0.759539
-2.76592 1.42224 2.2334
-2.69178 1.35334 1.2199
-2.55716 1.28352 1.63899
-2.6304 1.6183 1.35725
-1.61292 1.74964 0.468181
-1.56041 0.359264 0.939473
-2.53435 1.08281 1.29496
-1.01733 1.17644 0.261219
-1.83015 2.10091 0.808118
-2.68766 1.05479 2.08729
-2.95432 1.89331 1.2493
-2.80668 1.16238 1.90073
-1.2139 -0.0161577 0.708499
-1.30517 0.330622 0.59822
-2.15444 1.47972 0.900136
-2.97127 2.62086 1.24189
-2.32498 0.380661 1.5218
-2.82077 1.25747 1.64949
-2.41233 0.995197 2.0601
-1.21547 1.48046 0.151904
-1.78088 0.733898 0.999176
-1.34897 0.161745 0.0628911
-1.63823 0.688743 0.314259
-2.68968 1.09785 2.31825
-1.40605 1.10899 0.0979852
-1.16317 0.428476 1.41438
-2.1983 1.76364 1.01842
-3.06605 2.24948 1.18061
-2.01516 1.94391 0.579983
-2.3418 1.02381 1.16558
-1.22157 0.00476776 0.086877
-2.44165 0.909789 0.903906
-2.85449 2.65833 1.58516
-2.81681 1.06288 1.36982
-1.30665 0.344154 1.18005
-2.0166 1.94475 0.689947
-2.38139 0.934367 0.947081
-1.69839 0.518588 1.18952
-1.45718 0.296667 0.265483
-3.04225 1.40007 1.66293
-1.80125 0.568777 1.62242
-1.10866 0.0293816 0.796352
-2.43873 1.69314 0.886757
-2.60591 1.08575 1.93141
-2.16277 1.33207 0.270826
-2.1163 2.24696 0.838831
-1.99577 0.585234 1.59634
-2.57305 1.82262 0.747787
-1.65978 1.07041 0.390403
-2.10417 1.92004 0.815712
-1.32475 0.112907 0.969298
-2.61125 2.11913 0.852036
-2.16186 0.623698 1.70122
-2.95352 1.32501 1.86954
-0.915833 0.24607 0.365599
-2.04797 1.16516 0.872462
-1.29475 0.33709 1.14847
-1.62158 1.4246 0.491997
-2.20052 1.51296 0.620068
-1.47128 1.35983 0.0802657
-2.78765 2.48343 1.12694
-1.63011 1.65653 0.469383
-2.20868 1.21316 0.771729
-1.73906 1.55446 0.438232
-2.23059 0.537564 1.27382
-1.83418 1.99982 0.651369
-1.6248 0.553055 0.392061
-2.66231 1.48993 0.67817
-2.11075 0.371568 0.516821
-1.51354 0.00610822 0.746887
-2.90445 1.77137 1.12235
-2.26278 2.27259 0.923405
-1.71474 0.475214 0.684476
-2.07455 1.95431 0.724195
-2.5397 2.57173 1.19627
-1.67612 0.769923 0.689016
-1.97488 0.657775 0.809251
-2.51074 1.93711 1.00692
-2.77135 1.41867 2.19397
-1.8432 1.02089 0.46297
-2.36352 1.40312 1.08067
-1.74261 0.23525 0.877614
-2.59213 0.851552 1.93
-1.72698 0.531903 0.287145
-2.46242 0.68502 1.34537
-1.35362 1.76652 0.39251
-2.55413 1.61951 1.29869
-1.1356 1.10675 0.242626
-1.39208 0.600843 1.36952
-2.01855 1.24808 0.291778
-1.7409 0.385577 0.604242
-1.32647 1.3144 0.267109
-2.42243 2.58653 1.22229
-1.12812 1.42927 0.071698
-2.68292 1.10689 1.11372
-2.35305 1.64558 1.20069
-0.995361 0.364428 0.0649966
-1.93647 0.918595 0.421796
-1.61571 0.193677 0.498977
-1.61758 0.95258 0.332349
-1.798 0.223204 1.019
-1.15778 0.202792 1.43569
-2.63184 0.903201 1.52806
-1.07945 0.0970546 0.237755
-2.29969 1.32507 0.688559
-1.92124 0.606257 0.588268
-1.95688 2.04928 0.928859
-1.64581 0.601214 0.259215
-1.6767 0.893792 0.491703
-2.79686 1.23863 2.40449
-2.0236 0.643659 0.997693
-2.00212 0.76251 1.38044
-2.55035 1.12338 0.892796
-2.90615 1.27168 1.30353
-2.29985 1.12871 1.83212
-1.01055 0.176707 0.781694
-2.08714 0.802792 2.17397
-2.52761 1.99 0.830164
-2.27094 1.23597 0.538222
-1.27954 0.531997 0.020094
-2.76905 1.03028 1.93607
-2.69882 1.02 1.35475
-1.1009 0.608574 0.219991
-1.72846 1.25531 0.520565
-1.06617 1.00026 0.0759066
-2.17555 1.04941 0.5295
-1.65477 0.807989 0.296567
-2.8218 1.19587 2.4018
-1.55723 0.422268 0.34863
-1.80739 0.913953 0.527717
-1.08876 1.2029 0.225933
-2.71045 1.24919 1.53007
-1.44486 0.348108 0.231719
-1.39516 -0.143424 0.825991
-1.5527 0.391868 1.06409
-2.23232 1.28328 0.998892
-1.78057 0.328699 1.61131
-2.55818 1.92357 0.751314
-1.29331 1.52211 0.229645
-2.35115 1.73198 0.751984
-2.54574 1.27216 0.857876
-2.45015 1.97837 0.821143
-1.69225 0.295363 0.930628
-2.95391 2.89326 1.57714
-2.08806 0.673869 1.75723
-2.34713 1.16477 1.10905
-2.35847 1.17232 2.07606
-1.22563 0.391911 1.50078
-1.9602 1.55489 0.587105
-2.3183 0.941003 1.54616
-2.61264 1.88176 1.15808
-1.32545 0.300546 0.443424
-2.99268 2.45235 1.42732
-1.66308 1.68147 0.363463
-1.39018 0.0654062 1.14352
-1.17855 0.71955 0.227489
-1.27433 1.37768 0.186842
-1.35231 0.787181 0.0588891
-1.12132 0.369272 0.102169
-2.66379 1.0391 1.40289
-2.61729 1.17506 0.524096
-2.25458 0.786181 2.05691
-2.73112 2.07371 1.54523
-1.64483 0.159505 0.543803
-2.06684 0.284941 0.717266
-2.64364 0.935253 1.08185
-2.25194 0.894951 1.13739
-2.69069 1.4309 2.1254
-2.38072 1.13818 0.60833
-2.91418 1.5564 2.92517
-1.19299 0.371454 1.63606
-2.1177 0.705953 1.67832
-0.914493 0.52775 0.488802
-2.97846 1.54755 1.31266
-2.40433 1.00199 0.756526
-1.34066 1.44533 0.299226
-1.8398 0.157394 1.021
-1.41956 0.0362026 0.79367
-1.33013 0.210136 0.954055
-1.89586 0.583127 1.28002
-1.90672 0.446774 1.78657
-1.21567 -0.0892113 0.238872
-2.49632 1.80049 1.07941
-1.51713 1.51386 0.365006
-1.15952 -0.130624 0.444678
-2.28233 2.45458 1.12065
-1.46053 1.21846 0.237037
-2.23271 1.1693 1.10366
-2.545 2.01342 1.22989
-2.90955 1.38227 2.30883
-1.2555 0.0453545 0.746112
-1.25366 0.817822 0.390248
-2.39877 1.98698 0.916255
-1.46008 0.945077 0.350895
-1.61068 0.00613077 0.748268
-1.79647 1.22476 0.340124
-2.33771 0.888784 0.772027
-2.59089 0.760394 1.74496
-3.01505 1.64342 1.233
-2.09773 0.905923 1.01789
-1.18324 0.32587 1.72577
-1.97735 0.844687 0.844757
-1.28477 0.898676 0.355816
-2.83884 2.70838 1.41806
-2.77985 1.72964 1.77501
-2.85621 1.26976 1.63986
-2.68284 1.59438 1.28946
-2.29925 1.19984 0.735471
-1.30539 0.000860446 0.866967
-3.03598 1.337 1.56565
-2.0284 1.80133 0.669832
-2.73969 1.89829 1.12056
-2.70606 1.39465 1.18151
-3.00407 1.11514 2.02388
-2.32089 0.833916 1.21384
-1.9889 0.597484 1.60624
-2.11195 1.93621 0.675747
-2.14224 0.947593 0.980403
-2.01483 0.877053 0.538279
-2.43942 1.02674 0.523293
