ply
format ascii 1.0
comment Created by Open3D
element vertex 250
property double x
property double y
property double z
end_header
0.951407 1.46372 -0.237008
-0.0325567 3.17558 -0.148561
-0.86735 2.25193 0.191071
-0.700612 0.539482 -0.124752
-0.518704 1.381 0.469293
-0.702147 0.706753 0.224519
-0.144246 0.818545 0.407028
-0.498453 3.73442 0.932662
1.11205 0.680966 -0.506912
1.52805 -0.529062 1.04104
-0.290886 0.40164 0.105819
0.92039 0.028633 -0.61913
-0.375757 4.6452 1.07542
0.501953 0.539752 -0.461312
-1.11639 0.707253 -0.269241
0.0285535 2.38756 -0.149756
0.195181 -0.758399 -0.189917
-0.502437 1.44316 -0.35894
0.325676 0.652981 -0.91835
-0.268156 0.891537 -0.188913
-0.162111 2.36381 -0.659265
0.454423 0.898545 0.502622
1.62349 -0.334237 1.09258
0.325525 -0.200684 0.583121
-0.418331 1.22442 -0.415928
0.58559 0.85452 -0.525836
2.14306 -0.348069 0.563248
0.336899 0.30453 0.653272
-0.217741 5.81628 1.27348
0.201383 0.0219873 0.441049
2.72955 0.428834 0.239493
2.01301 -0.28138 1.42023
1.10744 -0.245415 0.155612
0.239319 -0.303243 0.529775
0.80283 0.882211 -0.500061
0.647346 -0.335641 -0.024302
-0.667958 0.833234 -0.534444
0.121397 5.58487 0.322145
-0.505216 5.33188 -0.113852
-0.57893 2.1828 0.0405119
0.253498 6.69119 1.12065
1.83096 -0.261344 0.0987906
-0.457242 1.7519 -0.207159
-0.452642 2.6496 0.241413
0.138256 -0.738751 -0.178639
-0.0743046 5.16723 1.02838
-0.781215 1.13429 -0.0998563
-0.0115807 5.33246 0.792239
0.114444 5.80161 0.165403
0.807529 0.179975 -0.609725
0.832835 0.0014575 0.0217732
-0.048689 3.7501 -0.597459
0.819534 6.59276 0.25133
-0.585359 4.58604 0.285588
-0.517275 2.16256 0.602803
-0.507869 4.00558 0.865861
0.153194 -0.140609 0.535809
-0.128117 -0.22303 0.195982
1.18839 0.787309 -0.200104
-0.518556 0.205185 -0.327193
0.397575 6.76807 1.79974
-0.200262 4.98419 0.366081
-0.200951 4.8902 0.739157
-0.361318 4.44699 1.04144
-0.306251 0.948509 -0.260109
-0.104082 5.76168 0.517065
-0.0844491 0.538203 -0.617968
0.200361 1.76637 -0.312135
1.44186 0.0171615 0.0553367
0.657493 6.45069 0.276003
-0.158762 4.71546 0.766541
0.316639 0.196335 0.0545541
-1.14729 2.44323 -0.167685
0.685281 -0.239625 -0.50288
-0.754034 0.19895 -0.0439399
-0.269509 -0.155228 -0.116142
0.0590546 4.51786 0.223152
0.630196 6.64678 1.1097
1.61501 -0.66873 0.261148
0.236805 2.11272 -0.45835
0.96477 -0.534839 0.643278
-0.376967 0.646137 -0.18538
1.01174 0.187071 -0.572764
0.0395188 0.637157 0.00448217
0.0358954 0.490298 -0.275962
0.352302 0.246173 0.387461
-0.565123 1.70362 0.43236
0.141755 1.91628 -0.456647
2.51551 0.174665 1.33745
-0.892717 0.751026 0.0502607
-0.995047 3.09718 0.100159
-0.106124 4.99893 0.981973
-0.699591 0.690521 -0.108051
1.08926 0.518259 0.272302
-0.827907 2.84287 -0.206519
-0.401227 0.560539 0.457489
-0.428972 0.313123 -0.128421
0.176354 0.259762 -0.126049
1.72688 -0.540789 0.702281
-0.179314 1.60879 -0.791707
0.717933 -0.372566 -0.399784
-0.345703 3.47969 0.0926108
-0.308315 2.65031 0.213371
0.257762 0.254978 -0.532881
0.516779 1.43468 -0.467009
-0.457195 1.28363 0.0962598
-0.118549 1.71426 -0.632518
-0.560582 2.35546 0.724063
1.76311 -0.624933 0.798645
-0.866169 3.4171 0.548453
-0.791263 1.46898 -0.287028
-0.352301 2.52152 -0.132603
0.120145 1.92818 -0.771395
-0.989989 3.17997 0.028109
0.180823 3.97363 0.424099
1.1378 0.286163 -0.415618
-0.301194 4.78611 1.08232
1.71294 -0.801391 -0.0728252
-0.698647 2.50138 0.587606
0.480567 4.72721 -0.0827184
0.131484 3.63879 -0.211323
1.48418 -0.296624 0.469884
-0.45589 3.04095 0.491948
0.330613 5.78188 0.384688
1.29958 -0.348869 0.405887
0.437093 5.82538 0.341238
2.38892 -0.037986 0.559721
1.58175 -0.0339096 -0.544161
1.34201 -0.856696 0.34992
-0.186675 3.15296 -0.207307
1.23856 -0.0414122 -0.107686
-0.331733 1.34203 -0.547641
2.07405 0.365317 0.214091
-0.26137 5.27601 1.05433
0.0538604 5.41258 0.501887
1.74955 0.337361 -0.222688
-0.275243 1.00861 -0.0573671
0.1589 1.46401 0.12536
0.0274975 3.76797 -0.0667277
0.312711 6.35205 0.582776
0.616261 -0.291743 -0.00502363
-0.608306 2.89698 0.483968
0.0859477 1.95397 -0.72718
-0.181057 5.44528 1.25298
-0.848876 1.74546 -0.150727
-0.635629 3.14546 0.271679
-0.674785 0.163123 -0.460511
-0.0411917 2.71396 0.245142
1.06446 -0.283909 0.819963
-0.0868513 6.08555 1.13101
0.693731 6.72456 0.63307
-0.631817 3.37599 0.631756
0.309836 -0.755592 0.0767968
0.508123 0.211027 0.516157
-0.123697 3.99945 0.340914
-0.337674 -0.746974 -0.00234661
-0.527218 -0.0868589 -0.507476
-0.207927 1.54712 0.824354
1.22199 -0.0224228 0.104118
-0.725699 1.83973 -0.602509
0.728485 -1.00384 0.158692
0.639125 -0.0618589 -0.0463909
0.832599 -0.26674 -0.689892
-0.689706 2.56924 0.022962
0.841792 -0.609049 0.119386
1.42995 -0.18683 0.452286
-0.150242 2.55695 -0.146124
-0.248294 4.068 0.996741
0.778818 0.00633678 0.058414
-0.17222 3.69129 0.145086
-0.0800899 6.263 0.765051
-0.787186 3.56886 -0.104224
-0.149766 4.20194 -0.0101312
0.672815 0.900025 -0.596443
-0.433834 1.10184 -0.100759
0.324277 0.937248 -0.41399
-0.501594 1.47755 -0.531531
-0.658251 0.98079 -0.015245
0.11777 2.27787 -0.298116
1.51802 -0.295909 -0.580682
-0.442494 1.47227 0.131586
-0.535684 1.87929 -0.259437
-0.797905 2.5325 0.0419746
0.12157 0.404979 -0.100281
-0.255719 5.39338 0.208041
-0.179031 4.83291 0.73075
0.598156 0.507823 -0.259957
1.38892 -0.411825 -0.535163
1.12768 -0.71633 -0.217369
-0.955341 3.6621 0.447507
1.80837 -0.581598 -0.243705
1.84409 0.363209 -0.262827
0.340255 0.148279 -0.648478
-0.489444 5.48866 0.76577
-0.709748 4.69709 0.488836
1.22758 -0.764016 -0.187003
-0.112628 2.76157 -0.182448
0.482168 -0.588861 -0.0474312
0.532392 -0.661175 0.282241
-0.0850256 -0.261335 0.225105
3.17615 1.22572 -0.163245
1.66665 1.28016 -0.368492
4.01031 3.67178 -0.266854
4.96437 2.84223 -0.302928
8.26555 5.8694 1.31
6.98799 4.47024 0.377361
2.48662 0.825817 -0.448129
4.14712 2.47181 -0.672427
3.99961 3.3849 -0.205101
2.32877 1.9309 -0.454691
1.66998 0.539057 -0.677335
3.34028 2.71731 -0.0564366
2.40916 0.971675 -0.156524
2.3833 1.03472 -0.416873
3.73523 3.35075 -0.601875
3.78808 3.00939 -0.409985
2.72165 0.689953 -0.196485
5.51112 4.42976 0.203615
4.58166 2.15992 -0.0509185
5.08508 3.47403 0.201525
6.29715 4.72801 0.0551943
2.40833 1.04433 -0.390912
4.70097 2.22653 -0.130918
4.02203 1.62184 -0.0848835
6.78657 5.30157 0.292014
7.72671 5.41495 0.760993
3.30099 1.84138 0.00205872
4.48393 4.19543 -0.143751
6.46117 4.14599 0.0980413
1.35433 1.09518 -0.50188
5.46565 4.35708 0.101361
1.89866 1.48798 -0.0434143
1.84975 1.48301 -0.227249
7.40596 4.92436 0.806334
5.95429 3.88277 0.122087
5.02954 4.46172 -0.134991
4.89651 2.39008 -0.0808882
3.62188 1.14866 -0.74356
4.34786 1.74859 0.171691
1.83614 1.18742 -0.467485
3.67258 2.14056 -0.117065
6.7693 5.75154 0.583828
6.2381 3.52206 0.42092
7.97218 5.87041 0.893236
2.93305 2.28572 -0.582426
6.35535 3.89916 0.301574
1.4564 1.19108 -0.847635
6.43427 4.80273 0.116679
7.03984 4.85794 0.45457
4.18568 2.54939 0.031844
