ply
format ascii 1.0
comment Created by Open3D
element vertex 200
property double x
property double y
property double z
end_header
0.741912 3.05235 -0.52901
1.477 3.86874 -0.692825
4.84863 6.35785 -1.31728
1.70121 7.95941 1.25011
1.26496 3.8817 -0.575476
0.859977 1.15855 -0.910696
3.51705 8.20131 -0.0858
4.60429 7.41819 -0.912194
6.2121 5.48825 -1.84231
1.78624 3.57798 -0.921031
1.5061 -0.45266 -0.689075
0.289448 5.75801 1.8391
1.96401 0.794548 -1.26917
1.37573 3.16582 -0.836554
5.43411 11.4288 0.423396
0.978034 6.57686 1.04925
1.0622 1.57803 -0.972893
5.09233 6.62098 -1.32376
3.46136 2.54013 -1.61812
1.02646 0.673655 -0.966401
5.56084 6.5139 -1.48874
0.733364 1.01727 -0.855891
-0.566315 1.35865 0.822033
3.17699 2.12866 -1.57688
-0.450544 1.20482 0.0458384
0.68383 -0.433199 -0.178252
0.132836 3.75348 0.206523
4.42375 9.85057 0.19642
4.53834 3.21413 -1.78555
-0.225054 0.524333 0.670811
1.67246 7.9994 1.32532
-0.0827801 1.98296 -0.235588
0.711015 6.12526 1.05678
0.23324 3.83917 0.147092
-0.4301 3.01231 0.585237
0.40402 0.0282346 -0.518785
0.141335 -0.0556071 0.314783
-0.590519 2.19044 1.09213
-0.174909 4.4141 1.61202
0.139484 -0.0964141 0.216225
-0.0924634 4.51565 1.84437
0.936694 -0.500364 -0.31383
2.54064 0.800927 -1.39389
-0.413851 2.90964 0.490963
-0.647696 1.83103 0.772936
1.00394 4.21168 -0.301002
1.12215 -0.00306443 -0.857534
4.31326 8.33769 -0.442085
3.30539 2.67908 -1.57291
-0.129777 0.138803 0.211953
2.07324 0.566311 -1.26345
5.44037 11.8651 0.662239
-0.577071 1.22807 0.322476
-0.0312442 3.30952 0.169466
3.25697 6.70745 -0.584751
2.0921 3.20094 -1.13184
-0.274826 4.12022 1.3193
6.98192 5.89769 -1.92464
3.42435 2.09067 -1.6278
2.41779 3.25839 -1.23838
-0.062846 4.20707 2.00725
1.71311 2.87426 -1.04885
-0.174514 3.4411 1.88483
3.71148 8.36895 -0.117487
3.7495 9.64638 0.520348
0.327158 -0.260998 -0.0063731
1.43589 -0.617698 -0.183001
-0.493922 0.829099 0.500135
1.77229 1.67799 -1.22792
-0.264449 2.10104 -0.0325084
3.68426 2.13512 -1.67497
0.876396 2.86855 -0.656655
0.126158 5.26272 1.4303
1.48689 7.59052 1.21595
5.19885 7.60405 -1.07267
1.94151 -0.619802 -0.0428848
0.10791 1.14718 -0.499993
1.51553 7.71309 1.2859
1.71367 7.73482 1.04888
0.0430076 4.75148 1.0012
3.4657 8.73981 0.212636
0.988178 4.80034 -0.0427862
3.61684 5.31922 -1.18253
-0.2933 3.8265 1.63902
3.02221 3.25351 -1.4306
0.294091 -0.22569 -0.132195
4.58852 6.78977 -1.10753
-0.551509 2.5651 0.598925
1.18001 5.80533 0.309733
-0.599073 1.86518 0.989275
1.28939 6.87827 0.888858
0.831067 0.458578 -0.861741
4.96555 9.63447 -0.202827
0.719641 0.935048 -0.84918
-0.600441 2.08735 0.495155
5.58978 11.8169 0.540848
-0.299816 3.4325 1.70687
2.28135 5.44034 -0.575665
-0.0516677 4.82781 1.50706
-0.628126 2.02399 0.938072
2.04748 2.91312 -1.16996
5.16086 9.80593 -0.223329
-0.439019 2.59114 1.44884
1.3735 -0.610431 -0.193731
2.26798 3.19667 -1.19732
0.353441 0.0542868 -0.496674
0.169394 0.495771 -0.508157
-0.466711 1.53508 0.0924361
3.43998 8.80722 0.264946
0.946571 2.09346 -0.856086
1.20717 -0.368943 -0.671664
6.25381 6.09218 -1.74975
1.28051 -0.412163 -0.657465
2.68731 2.11126 -1.46353
1.21644 3.72774 -0.597652
-0.525538 2.26034 0.385315
0.772147 1.74529 -0.822796
4.43591 10.6086 0.602443
0.338241 2.74739 -0.355767
-0.491028 3.02462 1.34182
1.69069 3.0967 -0.993558
0.716805 -0.0941596 -0.641744
0.0234254 0.155394 -0.259028
3.57312 6.03866 -0.956338
3.47596 6.90966 -0.611779
4.78737 7.67697 -0.895676
5.63439 11.8547 0.534372
2.16566 7.70183 0.579624
1.52797 1.73343 -1.14077
2.78739 3.51434 -1.31449
3.7897 6.75996 -0.806243
3.64186 9.83789 0.713298
1.25322 0.917537 -1.06532
0.457507 0.202199 -0.621534
2.14741 7.52129 0.485526
-0.650467 1.97111 0.727576
3.63186 2.37331 -1.66087
0.681295 -0.13973 -0.595982
3.40331 4.09763 -1.39633
0.266382 -0.222219 -0.0220451
0.529942 -0.29181 0.243258
2.62345 6.09608 -0.504411
-0.122629 4.59123 1.35294
-0.390181 2.77929 1.54598
0.320816 5.83574 1.88204
2.4056 3.01383 -1.27737
0.513481 5.36066 0.728779
0.50739 0.826222 -0.742155
1.68264 0.0515666 -1.04432
1.42811 -0.609772 -0.114072
1.52289 -0.107873 -0.938295
4.22994 5.58475 -1.3201
6.21616 5.23217 -1.87955
6.0226 12.2886 0.538221
4.86947 3.84354 -1.79356
0.745063 6.77219 1.79165
4.9499 5.86845 -1.46901
-0.633637 1.48915 0.638795
0.733571 1.1111 -0.854629
0.600054 5.73658 0.895767
-0.260399 1.13681 -0.19269
4.63573 4.40327 -1.67212
-0.285032 4.01621 1.53996
1.16044 1.51959 -1.01804
0.00705617 2.51097 -0.169981
0.253761 3.22162 -0.132698
5.84918 4.9689 -1.84646
2.41419 0.594521 -1.33681
2.03216 0.381365 -1.21779
0.478089 3.67397 -0.136717
1.77702 2.49296 -1.14047
2.49331 2.92613 -1.31992
3.98121 3.73306 -1.61499
2.18316 1.79021 -1.34618
0.660708 1.38223 -0.805556
-0.156683 0.213147 0.348027
0.830521 -0.391635 -0.453459
1.52683 5.67569 -0.0266704
0.190212 3.53136 0.0476362
3.30337 8.5091 0.196805
0.164683 5.1376 2.14454
0.929719 4.96279 0.079229
0.209737 -0.176479 0.0910616
2.46622 2.59269 -1.35767
2.57269 4.69966 -0.95297
0.379319 4.10384 0.135491
3.33854 8.32543 0.0807224
0.234621 4.52402 0.51993
-0.508684 0.86442 0.493088
4.61302 3.34689 -1.78964
-0.101759 4.67978 1.55755
-0.352362 3.84212 1.31146
-0.552888 2.84874 0.83724
0.4667 -0.294614 -0.266754
4.3633 6.32771 -1.16452
-0.34515 2.83409 1.61473
3.72286 4.71804 -1.36498
1.3773 0.650235 -1.08803
1.81666 0.066934 -1.08096
1.28422 -0.596547 -0.173173
