ply
format ascii 1.0
comment Created by Open3D
element vertex 250
property double x
property double y
property double z
end_header
0.948673 0.223671 -0.881564
2.68707 0.714615 -1.42773
2.22162 0.600199 -0.66747
0.567548 0.261814 -0.26908
1.48966 0.641012 0.0846625
0.868757 0.16408 -0.0575532
0.882954 0.623016 0.305395
3.74902 0.625972 -0.683056
0.165749 -0.617334 -1.18175
-0.27313 -1.63925 0.463988
0.445268 0.302577 0.0543276
-0.386215 -0.972137 -1.13931
4.59674 0.386324 -1.13827
0.170199 -0.118907 -0.803672
0.76248 0.0919495 -0.589066
1.9716 0.839913 -0.954196
-0.730635 -0.919075 -0.273433
1.19419 0.593585 -0.800535
0.146181 -0.540392 -1.53865
0.72871 0.56133 -0.36055
1.82086 0.232956 -1.76685
0.838524 0.849884 0.477329
-0.129668 -1.23287 0.625488
0.0296792 -0.539244 0.407144
0.963637 0.51386 -0.785264
0.399889 -0.117735 -1.0312
-0.46685 -1.52817 -0.0501458
0.452231 0.182966 0.590085
5.71485 -0.25173 -1.88057
0.164607 -0.0936729 0.380931
-0.0506227 -1.63804 -0.834835
-0.00917955 -1.63453 0.716883
-0.365057 -0.653872 -0.0566969
-0.0517728 -0.70415 0.32139
0.392437 -0.239143 -1.08292
-0.419669 -0.549875 -0.135657
0.641295 0.319211 -0.801624
5.00969 0.0658322 -2.54656
4.79877 -0.66613 -3.23151
2.01319 0.851237 -0.651611
6.30053 -0.126681 -2.42317
-0.522286 -1.39958 -0.492846
1.50869 0.746537 -0.729732
2.46929 0.989856 -0.621292
-0.698017 -0.878585 -0.251322
4.94813 0.639948 -1.32482
1.10285 0.510375 -0.424157
4.9861 0.533735 -1.70206
5.1597 -0.295163 -3.0036
-0.237593 -0.752381 -1.09435
-0.165659 -0.276783 -0.122851
3.06108 -0.107553 -2.6026
5.74251 -0.538487 -3.45537
4.27866 0.114433 -2.03868
2.21722 0.866663 -0.0707803
3.9659 0.556536 -0.926895
0.0985273 -0.475809 0.361578
-0.0582571 -0.375108 0.116935
0.342938 -0.200401 -0.713499
0.156156 0.108217 -0.377596
6.60657 0.0884111 -1.67223
4.55994 0.301341 -2.06799
4.61637 0.579251 -1.5016
4.39406 0.548705 -0.984822
0.758884 0.542474 -0.471159
5.31057 -0.0930865 -2.52615
0.229437 0.0357705 -0.879123
1.33368 0.593155 -0.921951
-0.250111 -0.724495 -0.330164
5.65872 -0.430103 -3.30051
4.453 0.752205 -1.29349
0.111193 0.15453 0.0328247
2.32462 0.287351 -1.28827
-0.527632 -0.826456 -0.807905
0.338748 -0.0943498 -0.196392
-0.111123 -0.168832 -0.123213
4.00777 0.62433 -1.80064
6.13416 0.392923 -2.14095
-0.745934 -1.62851 -0.23773
1.58026 0.406047 -1.34545
-0.350117 -1.10466 0.347092
0.548475 0.43495 -0.295151
-0.253958 -0.894995 -1.1352
0.518066 0.514382 -0.0593342
0.288312 0.26363 -0.393781
0.281533 0.237997 0.383212
1.76012 0.764411 -0.0558265
1.42827 0.441034 -1.22345
0.18306 -0.795197 0.833329
0.880216 0.140783 -0.266933
2.9751 0.309416 -1.34887
4.78426 0.698052 -1.25355
0.700983 0.352641 -0.283675
0.301619 0.210349 0.112255
2.57255 0.469345 -1.44024
0.772431 0.101966 0.219131
0.306562 0.218345 -0.177685
0.12287 0.163881 -0.175886
-0.484531 -1.46404 0.222389
1.11443 0.101869 -1.57498
-0.605225 -0.876345 -0.66164
3.12525 0.773233 -1.31416
2.41922 1.06686 -0.60968
-0.0479358 -0.196549 -0.767577
0.930413 0.182684 -1.11777
1.22402 0.765797 -0.1729
1.24732 0.2926 -1.37147
2.45606 0.745645 -0.112692
-0.510344 -1.70237 0.238609
3.41879 0.255764 -1.09476
1.31717 0.556735 -0.7612
2.1873 0.813415 -1.02045
1.34009 0.00499443 -1.77103
3.01789 0.285066 -1.47661
3.55179 1.13613 -1.05078
-0.140042 -0.74546 -0.951838
4.70102 0.461386 -1.1656
-0.993361 -2.12132 -0.758903
2.56525 0.651172 -0.374102
3.9938 0.180148 -2.4462
3.04421 0.489872 -1.84808
-0.350629 -0.876231 0.168614
2.91934 0.993334 -0.572368
5.15715 0.112589 -2.56212
-0.383023 -0.836853 0.15224
5.15458 0.0761625 -2.64711
-0.264817 -1.35677 -0.125762
-0.518488 -1.65464 -1.38659
-0.803513 -1.72292 -0.10033
2.68366 0.636135 -1.51551
-0.321302 -0.747658 -0.47478
0.998239 0.407738 -1.03327
-0.0140986 -0.887519 -0.437112
5.12667 0.216249 -1.57565
4.93236 0.329072 -2.14044
-0.132365 -1.10845 -0.974194
0.881208 0.673832 -0.231379
1.23705 0.971668 -0.130549
3.234 0.624751 -1.70052
5.76328 -0.148754 -2.79623
-0.370643 -0.475939 -0.100766
2.83597 0.830673 -0.590064
1.38399 0.0861049 -1.69807
5.34323 0.174393 -1.48674
1.62834 0.596989 -0.74768
2.97672 0.746404 -0.975311
0.104503 0.0326885 -0.528308
2.41777 1.19195 -0.545976
-0.100443 -0.774819 0.564796
5.85328 -0.140584 -2.10522
6.02292 -0.151589 -2.94104
3.33618 0.658101 -0.780958
-0.635515 -1.02255 -0.0619658
0.27259 0.177439 0.498699
3.62643 0.898218 -1.27106
-0.504715 -1.1021 -0.186937
-0.157774 -0.141587 -0.535923
1.70113 0.815753 0.444199
-0.226186 -0.525984 -0.157625
1.50612 0.38198 -1.36022
-0.877749 -1.60841 -0.155553
-0.205557 -0.265155 -0.152061
-0.640359 -1.19214 -1.1709
2.37852 0.741271 -0.927184
-0.615959 -0.97985 -0.0733501
-0.261749 -0.684202 0.193761
2.16444 0.829309 -1.04412
3.98897 0.950656 -0.623601
-0.137339 -0.216168 -0.0572404
3.28914 0.827263 -1.34359
5.86886 -0.37504 -2.68529
3.25633 0.284702 -1.81127
3.69255 0.445223 -1.96281
0.399498 -0.264549 -1.20177
0.982702 0.661248 -0.32977
0.558335 0.218922 -0.787364
1.16066 0.454642 -1.06322
0.974387 0.518911 -0.255322
1.80424 0.653591 -1.14239
-0.73623 -1.84852 -1.3877
1.39598 0.844147 -0.194899
1.62008 0.698579 -0.873149
2.38492 0.660822 -0.930891
0.265233 0.296992 -0.156412
4.89868 -0.192342 -2.69533
4.55321 0.641584 -1.44783
0.195164 0.0227498 -0.51209
-0.796019 -1.73886 -1.22493
-0.885694 -1.48001 -0.614317
3.62624 0.0465789 -1.43178
-0.895811 -2.10416 -1.03511
-0.138564 -1.25997 -1.10653
-0.193692 -0.436593 -0.952484
5.28398 -0.366801 -2.2778
4.50617 -0.112102 -2.0109
-0.928821 -1.61925 -0.63154
2.32456 0.762436 -1.22156
-0.597185 -0.791028 -0.152514
-0.518742 -1.00977 0.101045
-0.0855683 -0.436825 0.133888
0.423273 -2.35804 -2.02602
0.626828 -0.705013 -1.40035
2.37769 -3.01818 -3.74418
1.53439 -4.8694 -4.3113
4.17447 -5.9393 -4.82797
2.87787 -6.35229 -5.24801
0.0964169 -2.11167 -1.97498
1.21656 -4.45812 -4.27449
2.14604 -2.89585 -3.46973
1.05593 -1.43099 -2.20214
-0.096539 -1.58549 -1.78164
1.69949 -1.74541 -2.37608
0.318062 -1.39853 -1.38852
0.295782 -1.7899 -1.88506
2.0468 -3.44068 -4.13194
1.79424 -3.12212 -3.59704
0.0273161 -2.09679 -1.64499
2.9659 -4.13345 -4.2474
1.06722 -3.91882 -3.21055
2.1927 -3.65095 -3.50192
3.09469 -5.82629 -5.43075
0.308098 -1.77147 -1.85452
1.08795 -4.27571 -3.51068
0.671641 -3.33053 -2.65904
3.59483 -5.98617 -5.57516
3.70564 -6.48049 -5.42205
0.973121 -1.88477 -1.93473
2.80346 -3.38433 -4.08358
2.58616 -6.17122 -5.26467
0.478602 -0.668803 -1.41877
2.88238 -4.32583 -4.41187
0.867108 -0.327046 -0.986836
0.813884 -0.585858 -1.30261
3.3295 -5.89325 -4.81648
2.42193 -5.24943 -4.62468
2.9675 -4.19124 -4.63265
1.21728 -4.42903 -3.62535
0.137812 -4.32294 -3.58761
0.811497 -3.27637 -2.4402
0.490859 -1.10746 -1.66032
1.14393 -2.55938 -2.56001
4.05977 -5.1248 -5.06951
2.16037 -5.1831 -4.10387
4.10439 -6.48297 -5.52784
1.23825 -2.41463 -3.02559
2.43784 -5.5412 -4.60537
0.438474 -1.34799 -2.1674
3.15911 -5.89918 -5.446
3.22393 -6.12765 -5.25555
1.46752 -2.88106 -2.79081
