ply
format ascii 1.0
comment Created by Open3D
element vertex 400
property double x
property double y
property double z
end_header
0.955781 -1.49924 -0.102879
2.80901 -2.19263 -0.434391
1.01163 -1.23221 -0.560716
2.26564 -0.746876 0.0468888
1.13281 -2.38355 -0.0545123
0.85052 -1.99634 -0.386319
1.39971 -0.558285 -0.339948
1.27394 -1.65759 -0.571794
2.45122 -2.60584 -0.780162
3.55135 -2.4169 -0.0479744
0.376645 -1.59004 -0.413478
1.39131 -1.19789 -0.698323
2.51956 -1.28683 -0.209444
2.44967 -2.07735 -0.592633
2.06818 -1.73241 -0.678186
0.386392 -1.66349 0.0136307
0.658178 -1.4226 -0.336667
3.03388 -2.01107 -0.187402
0.721151 -0.563169 -0.529566
2.65922 -1.39198 -0.113202
1.38253 -1.6408 -0.666908
1.61585 -1.75801 -0.71294
2.16764 -1.73267 -0.632264
1.24016 -1.15686 -0.738222
0.683085 -0.724845 -0.655976
1.21124 -2.02565 -0.728432
2.11445 -0.913828 -0.101046
1.97631 -2.86768 -0.540704
2.12145 -1.06511 -0.348899
1.9359 -2.89532 -0.357008
0.673074 -2.24665 -0.162552
2.11398 -1.44147 -0.539362
1.77441 -0.582773 -0.17413
2.43638 -1.84199 -0.528809
1.69895 -0.761476 -0.36291
1.50306 -1.00359 -0.605523
2.59232 -2.64402 -0.62145
1.98482 -2.65446 -0.262141
0.80865 -0.97622 -0.460815
1.4262 -0.707505 -0.425779
2.13334 -1.23435 -0.422987
1.61979 -2.51903 -0.0926133
2.9799 -1.76181 -0.178489
2.04149 -1.52172 -0.556679
2.58723 -1.96096 -0.449039
1.2892 -0.443212 -0.305008
1.72688 -2.45812 -0.34083
1.97493 -1.03333 -0.407597
2.17 -3.31096 -0.174693
1.7995 -1.07884 -0.499917
3.50932 -2.2123 0.0387545
1.4949 -0.647678 -0.382243
2.50235 -1.46591 -0.274498
3.37578 -2.3787 -0.174424
3.17735 -1.73181 0.00167474
1.61207 -1.68295 -0.483864
1.17589 -2.01811 -0.175832
0.69614 -2.40377 -0.135458
1.14151 -0.868298 -0.612784
1.22541 -0.882097 -0.647829
2.98408 -1.70584 -0.0492587
1.45831 -2.35483 -0.168258
1.77947 -0.67418 -0.284222
0.820379 -1.97615 0.0555116
1.51704 -2.70549 -0.231944
2.9357 -1.74721 -0.178145
1.82862 -2.96043 -0.320226
0.94267 -1.64698 -0.783744
2.39703 -1.43407 -0.389184
1.85421 -2.51408 -0.323824
1.54844 -2.67633 -0.65718
1.21917 -0.621591 -0.455418
0.682031 -1.71711 -0.657766
3.46195 -2.38885 -0.0742426
2.52638 -1.96267 -0.526465
1.1277 -2.17011 -0.211975
0.64968 -1.22717 -0.407277
0.511997 -1.14043 -0.197333
1.80967 -2.04842 -0.687956
1.59341 -2.5948 -0.297145
1.85844 -2.63475 -0.680525
2.10606 -3.03093 -0.315333
2.32629 -2.21759 -0.440409
1.44232 -2.21773 -0.745292
2.77247 -2.0816 -0.424045
0.948548 -0.756802 -0.579846
0.921003 -1.4803 -0.588865
2.11555 -2.08403 -0.604056
0.773602 -1.21056 -0.658553
0.82317 -2.04445 -0.297257
2.60721 -2.49025 -0.349992
2.00814 -1.69862 -0.671626
1.75245 -0.669641 -0.253469
2.32527 -1.78381 -0.585026
1.93897 -2.64247 -0.639286
0.774486 -1.21232 -0.58998
2.20842 -2.17913 -0.725227
0.582849 -1.82472 -0.26891
1.61149 -3.08078 -0.0748963
2.31097 -1.95804 -0.54875
2.23773 -2.0954 -0.360787
1.87684 -2.28784 -0.765045
2.06061 -0.990965 -0.281987
0.755278 -1.712 -0.553322
0.273655 -1.36653 -0.690961
1.83352 -2.08398 -0.526751
2.43545 -2.12751 -0.624889
1.34046 -2.30696 -0.398202
1.65687 -2.06928 -0.386986
2.17392 -1.04481 -0.247114
0.776714 -0.846656 -0.705987
2.49839 -1.89119 -0.503412
3.02685 -1.52764 -0.0128508
2.00744 -0.680068 -0.171958
1.5463 -2.56991 -0.401422
1.04064 -1.92265 -0.289719
2.14834 -1.79998 -0.681473
2.68936 -1.61353 -0.256401
2.22195 -0.580978 0.159165
1.51273 -2.80231 -0.065694
1.48413 -0.762207 -0.475127
0.434411 -1.41527 -0.0724931
2.0985 -1.48359 -0.571079
2.32463 -3.5778 -0.0540214
2.20364 -3.04782 -0.545521
1.63735 -0.445475 -0.0515295
1.71109 -1.03479 -0.521817
0.419609 -1.91009 -0.0817486
2.48537 -2.63964 -0.440507
0.556064 -1.4465 0.155019
2.41176 -2.88752 -0.409664
2.04058 -3.18137 -0.394457
1.01088 -1.42716 -0.469058
1.31726 -0.567346 -0.41174
0.72994 -1.04116 -0.465804
1.57524 -1.2383 -0.604467
0.845302 -1.04769 -0.762479
2.36482 -1.79614 -0.550919
0.557007 -0.869213 -0.660956
2.95931 -1.75208 -0.109371
2.59441 -1.09696 0.0418493
0.664641 -0.665129 -0.387329
1.38902 -0.358236 -0.182089
1.58927 -2.57432 -0.330603
2.42754 -2.26755 -0.618835
2.80489 -1.29753 0.0314162
2.8133 -1.75796 -0.283369
1.80319 -0.997515 -0.29639
2.42885 -1.95923 -0.539124
1.51126 -2.90528 -0.409363
0.467536 -1.7589 0.200722
0.769643 -0.815617 -0.46809
0.702196 -0.626864 -0.551297
1.28636 -1.95649 -0.580998
1.42601 -0.74356 -0.475158
3.62667 -1.88656 0.227828
2.1593 -0.740384 0.0121713
0.367557 -1.27375 -0.279737
1.94895 -0.770922 -0.0861541
0.650529 -0.867551 -0.327445
0.909088 -0.955902 -0.624575
2.20617 -1.03727 -0.206389
1.95316 -0.826572 -0.118853
1.81832 -2.37221 -0.0878159
1.46171 -1.50903 -0.826009
0.717375 -2.1143 -0.198392
1.72629 -0.703942 -0.204222
2.38307 -3.51883 -0.0297889
1.29423 -1.02318 -0.24527
2.23193 -0.965469 -0.130473
0.544753 -1.18272 -0.553643
0.951418 -1.91232 -0.0774933
1.09231 -0.90341 -0.654079
0.802565 -1.00098 -0.545574
1.3925 -2.17338 -0.414388
1.03548 -1.85933 -0.648632
1.42981 -2.0302 -0.663122
2.24695 -2.2977 -0.555576
1.3819 -0.88909 -0.559647
2.02622 -1.50617 -0.618991
1.14314 -1.72684 -0.795426
1.97988 -1.12898 -0.457389
1.74413 -0.928438 -0.458911
2.03097 -2.04974 -0.706002
1.56953 -2.27645 -0.483889
2.24824 -1.92562 -0.609422
3.60227 -2.15501 0.0643265
3.22127 -2.10139 -0.104645
0.879339 -0.595371 -0.515512
3.46222 -1.96585 0.100474
0.964148 -1.24579 -0.228079
0.512142 -0.864968 -0.639611
1.456 -0.336109 -0.14021
1.5751 -2.64188 -0.311256
2.01159 -2.71286 -0.361874
1.82112 -2.37413 -0.481887
1.3289 -2.53239 -0.0857781
1.50566 -1.40214 -0.571793
2.91355 -1.97697 -0.302978
0.698184 -0.684126 -0.577691
0.701955 -0.867915 -0.511261
1.52376 -2.00827 -0.719826
1.92545 -2.37103 -0.343914
2.07694 -1.23485 -0.453645
1.58532 -2.51141 -0.619877
1.52695 -2.98005 -0.0264968
2.14607 -2.92461 -0.14015
1.83675 -1.07943 -0.491198
1.36741 -0.926994 -0.488457
1.0052 -2.58685 -0.311312
1.84749 -0.860114 -0.313024
2.02766 -3.00955 -0.332111
2.42009 -1.99336 -0.603283
3.04046 -1.59192 0.000180956
1.34873 -0.368963 -0.271255
1.12105 -2.10955 0.0848906
2.2334 -1.46367 -0.488016
2.30961 -3.44178 -0.0207775
2.42936 -2.6331 -0.679152
0.766145 -0.947845 -0.548752
2.30451 -2.38262 -0.429285
2.02568 -1.63822 -0.55616
2.22081 -0.836025 0.0172772
1.17005 -2.40847 -0.688342
1.8329 -1.69849 -0.781299
1.30273 -1.1817 -0.744692
1.03149 -2.22519 -0.0857926
1.26655 -2.37908 -0.00934472
2.37439 -1.54286 -0.447086
1.76595 -1.14372 -0.566712
1.62288 -2.09618 -0.586252
1.47005 -2.15598 -0.627709
2.22925 -0.92551 -0.0611125
0.889064 -1.92332 -0.0683181
1.59512 -1.96349 -0.490903
1.75569 -2.51812 0.20471
2.31307 -3.12901 0.0599516
0.596524 -1.13606 -0.53858
1.38027 -0.804331 -0.537507
1.53439 -0.959303 -0.543867
1.61376 -1.71868 -0.559971
2.44167 -2.00198 -0.611053
2.25771 -3.54171 -0.24964
1.15759 -1.84532 -0.491453
2.67662 -2.40263 -0.544604
1.33292 -1.79589 -0.640088
1.37648 -1.24396 -0.686149
2.35485 -1.15025 -0.278225
0.511907 -1.40341 -0.261057
1.819 -2.16975 -0.492672
0.618107 -0.809353 -0.460441
2.01271 -3.37834 0.0166266
1.78481 -0.590977 -0.250486
1.66237 -1.76463 -0.845727
1.90839 -2.94511 -0.484769
1.99187 -1.02313 -0.331147
1.68021 -2.77552 -0.166362
2.61937 -1.201 -0.022931
2.9955 -1.9842 -0.214994
0.805795 -1.4306 -0.723144
0.549952 -1.84683 -0.104743
1.97149 -2.56304 -0.801241
0.514972 -1.48333 -0.0963866
1.48409 -1.3169 -0.768291
2.66671 -2.03469 -0.48995
2.2253 -2.86711 -0.260608
1.26162 -2.07357 -0.514427
2.26724 -2.69635 -0.509995
1.52025 -2.31249 -0.536271
1.56033 -2.79194 -0.0431796
1.56529 -0.474793 -0.189889
1.15133 -0.760839 -0.465312
1.79118 -1.48342 -0.695501
2.31777 -3.18234 -0.273798
2.30457 -1.28938 -0.26622
2.25395 -3.30791 -0.0409942
0.699768 -0.578912 -0.561211
2.10026 -3.28778 0.00337356
2.88766 -2.14229 -0.401144
1.48095 -0.492995 -0.309484
1.84618 -1.63168 -0.533599
0.744569 -1.87108 -0.327104
1.73744 -2.93772 -0.469718
1.13523 -1.87757 -0.672515
2.58317 -2.13552 -0.558146
0.481015 -1.27705 -0.367949
0.933293 -0.730167 -0.351198
1.1715 -0.685082 -0.454119
1.80843 -2.67888 -0.589205
2.84454 -2.46858 -0.539244
2.12626 -3.07992 -0.322855
3.15635 -2.26616 -0.274613
1.23864 -2.44619 -0.211539
1.27136 -1.40643 -0.774127
2.72243 -2.30365 -0.495751
0.70196 -1.91747 -0.187931
2.46505 -1.8988 -0.523271
2.1677 -3.07117 -0.580984
1.19175 -0.863708 -0.641267
0.540646 -1.2272 -0.150508
2.36307 -1.93075 -0.556694
1.08254 -0.920609 -0.435901
2.44438 -1.65731 -0.44604
0.491013 -0.949017 -0.444288
2.52767 -1.83379 -0.491341
1.65821 -1.65287 -0.735071
0.367789 -1.61321 -0.110822
0.926087 -1.08022 -0.735251
2.19127 -1.48135 -0.521428
0.638364 -1.43794 -0.574378
2.56723 -1.8776 -0.451116
1.52751 -2.39455 0.0999127
1.46913 -1.85129 -0.518382
1.14762 -0.58674 -0.472501
1.07556 -1.85969 -0.415572
1.10562 -1.62921 -0.663898
1.85128 -3.1797 0.0136765
2.14641 -1.26176 -0.355203
2.56093 -1.08373 -0.0139976
2.00245 -3.67065 -0.123518
0.681639 -1.92068 0.163875
0.328303 -1.76766 -0.452461
2.44744 -1.85812 -0.547136
0.98312 -0.56855 -0.524125
1.4182 -0.755212 -0.496876
1.30873 -1.52757 -0.553028
2.96537 -1.9546 -0.279979
2.93719 -2.43966 -0.457355
3.13707 -1.7513 -0.00461863
1.12493 -1.46948 -0.799898
1.2146 -1.84636 -0.524703
2.26989 -3.08752 -0.257312
2.13654 -1.269 -0.384676
2.09686 -2.98132 -0.36338
2.15525 -0.689175 -0.0268145
2.34323 -2.61504 -0.354936
1.66438 -1.52083 -0.638173
2.33396 -1.98418 -0.551822
2.36245 -1.76004 -0.431822
3.60711 -2.42517 0.0170563
1.72089 -0.983317 -0.484831
1.40352 -0.794498 -0.471736
0.512831 -1.81832 -0.589309
0.91207 -2.32312 -0.365195
0.884974 -1.81038 -0.530505
1.57254 -0.967234 -0.55572
1.88485 -1.33229 -0.606009
1.5532 -2.09463 -0.684432
1.72121 -2.07068 -0.876073
1.4415 -1.82043 -0.429216
1.60466 -1.76929 -0.607748
3.22497 -2.12177 -0.165443
1.33699 -2.13351 -0.607652
0.647566 -0.892354 -0.405004
1.28929 -2.28504 -0.35083
0.595945 -1.16039 -0.598955
2.02502 -0.601199 0.00508752
0.907374 -2.06424 0.0362497
2.46439 -1.67675 -0.444293
1.17359 -0.575563 -0.431917
1.22089 -0.7302 -0.555008
1.80802 -0.485679 -0.150609
1.25736 -1.51782 -0.574677
2.5789 -1.20912 -0.0944803
2.19765 -0.603639 0.0732186
1.15763 -1.20253 -0.628611
2.32284 -1.37544 -0.303966
0.738173 -2.03876 -0.163053
2.45229 -1.1397 -0.167884
1.97888 -1.73838 -0.509259
0.729959 -0.584771 -0.574727
0.689189 -1.76069 -0.144183
1.97156 -2.0692 -0.5078
1.26401 -2.61524 -0.0971357
0.463897 -1.71386 0.152453
2.76706 -2.51171 -0.57821
1.9563 -1.70525 -0.541919
1.56849 -2.54569 -0.173368
1.6806 -1.29265 -0.685864
0.8158 -1.83455 -0.355763
2.07264 -2.06903 -0.813697
0.623269 -1.6747 -0.445502
0.793095 -0.763475 -0.36828
2.81911 -2.13005 -0.371774
1.17285 -1.78247 -0.706187
2.48706 -1.69657 -0.408483
2.47667 -1.84713 -0.464226
0.606756 -1.37599 -0.291932
2.61844 -1.56287 -0.315202
0.876365 -1.3155 -0.563856
1.02697 -2.29679 -0.246387
2.98844 -1.92796 -0.248951
1.98326 -1.05142 -0.398558
2.39115 -2.47024 -0.638789
0.330956 -1.16199 -0.491809
1.67255 -1.13363 -0.604761
1.16514 -1.42208 -0.371222
1.8039 -2.44177 -0.74514
2.95999 -1.7258 -0.170683
2.24193 -0.810315 -0.098572
