ply
format ascii 1.0
comment Created by Open3D
element vertex 250
property double x
property double y
property double z
end_header
0.951407 -0.734301 0.966427
-0.0325567 -2.84434 0.479807
-0.86735 -2.45697 -0.396112
-0.700612 -0.934678 -0.270443
-0.518704 -1.10862 -0.196914
-0.702147 -1.05245 -0.570216
-0.144246 -0.264424 0.147093
-0.498453 -3.41837 -0.616611
1.11205 -0.628824 0.559055
1.52805 0.735918 -0.834188
-0.290886 -0.340779 -0.0449577
0.92039 -0.43923 0.208533
-0.375757 -4.44478 -0.875004
0.501953 -0.489404 0.511661
-1.11639 -1.64204 -0.665543
0.0285535 -1.84845 0.688865
0.195181 0.0712598 -0.497223
-0.502437 -1.55345 0.24865
0.325676 -1.30772 0.263609
-0.268156 -0.742714 0.337737
-0.162111 -2.71669 0.306387
0.454423 0.348463 0.744386
1.62349 0.97971 -0.447109
0.325525 0.236273 -0.547532
-0.418331 -1.34991 0.290435
0.58559 -0.786895 0.593461
2.14306 0.910215 -0.00110245
0.336899 0.369838 0.0210959
-0.217741 -6.04765 -1.50485
0.201383 0.234814 -0.184247
2.72955 0.298869 0.48821
2.01301 1.00777 -0.693836
1.10744 0.602199 0.201172
0.239319 0.112316 -0.720702
0.80283 -0.745554 0.636719
0.647346 0.361072 0.0497331
-0.667958 -1.34516 0.0225195
0.121397 -5.66401 -0.401284
-0.505216 -6.70071 -1.25498
-0.57893 -2.00559 0.136696
0.253498 -6.57354 -1.00299
1.83096 0.495472 0.135337
-0.457242 -1.64957 0.309496
-0.452642 -2.19982 0.208363
0.138256 0.0469794 -0.513133
-0.0743046 -4.56735 -0.428505
-0.781215 -1.40166 -0.167516
-0.0115807 -4.88816 -0.347932
0.114444 -6.28309 -0.646885
0.807529 -0.490224 0.299476
0.832835 0.403047 0.382732
-0.048689 -4.3795 -0.0319442
0.819534 -6.76294 -0.421511
-0.585359 -5.11415 -0.813691
-0.517275 -1.68599 -0.126241
-0.507869 -3.80361 -0.663887
0.153194 0.0758872 -0.600532
-0.128117 -0.106911 -0.525924
1.18839 -0.18842 0.798993
-0.518556 -0.659128 -0.126749
0.397575 -6.06982 -1.10149
-0.200262 -5.04534 -0.427228
-0.200951 -4.54451 -0.393466
-0.361318 -4.09441 -0.688864
-0.306251 -0.879192 0.329426
-0.104082 -6.08236 -0.837745
-0.0844491 -0.867534 0.288637
0.200361 -1.33989 0.738615
1.44186 0.474429 0.436253
0.657493 -6.63025 -0.455564
-0.158762 -4.16272 -0.213796
0.316639 0.192032 0.333812
-1.14729 -3.30114 -0.690227
0.685281 -0.156721 0.106534
-0.754034 -0.891125 -0.648235
-0.269509 -0.238247 -0.277333
0.0590546 -4.1267 0.168005
0.630196 -5.78634 -0.249259
1.61501 0.631733 -0.298145
0.236805 -1.90684 0.664237
0.96477 0.611551 -0.566565
-0.376967 -0.673999 0.157518
1.01174 -0.450806 0.30903
0.0395188 -0.195477 0.437198
0.0358954 -0.380075 0.386185
0.352302 0.379943 0.238655
-0.565123 -1.39528 -0.124018
0.141755 -1.73895 0.633974
2.51551 1.60831 0.44553
-0.892717 -1.33962 -0.638859
-0.995047 -3.74889 -0.751875
-0.106124 -4.38103 -0.364067
-0.699591 -1.0081 -0.20953
1.08926 0.581938 0.827895
-0.827907 -3.33894 -0.289554
-0.401227 -0.622249 -0.519199
-0.428972 -0.525007 -0.0834634
0.176354 -0.0510523 0.334759
1.72688 0.911541 -0.33153
-0.179314 -2.09626 0.304229
0.717933 0.00968483 0.0369027
-0.345703 -3.25515 0.131923
-0.308315 -2.03426 0.40268
0.257762 -0.471413 0.316446
0.516779 -1.16942 0.732263
-0.457195 -1.00566 0.181707
-0.118549 -1.9276 0.419181
-0.560582 -1.97972 -0.348325
1.76311 0.860549 -0.563029
-0.866169 -3.84893 -0.980281
-0.791263 -1.80428 -0.0482722
-0.352301 -2.29905 0.355072
0.120145 -2.28351 0.416064
-0.989989 -3.885 -0.733134
0.180823 -2.91974 0.629789
1.1378 -0.262301 0.43948
-0.301194 -4.46903 -0.765237
1.71294 0.274893 -0.453672
-0.698647 -2.38146 -0.46768
0.480567 -4.54546 0.264462
0.131484 -3.43582 0.414297
1.48418 0.883004 0.116496
-0.45589 -2.51054 0.0384639
0.330613 -5.6462 -0.248998
1.29958 0.804748 0.0499933
0.437093 -5.66123 -0.177088
2.38892 0.917093 0.319385
1.58175 -0.432863 0.0773884
1.34201 0.577433 -0.629183
-0.186675 -3.03197 0.328296
1.23856 0.291945 0.358219
-0.331733 -1.55753 0.332137
2.07405 0.511901 0.663127
-0.26137 -5.18735 -0.965676
0.0538604 -5.22543 -0.314729
1.74955 -0.0850813 0.474967
-0.275243 -0.718691 0.347286
0.1589 -0.532849 0.805797
0.0274975 -3.47381 0.360884
0.312711 -6.41311 -0.643839
0.616261 0.363472 0.0767525
-0.608306 -2.62 -0.206986
0.0859477 -2.24739 0.433763
-0.181057 -5.25907 -1.06677
-0.848876 -2.05019 -0.154012
-0.635629 -3.06919 -0.195409
-0.674785 -0.85654 -0.232906
-0.0411917 -1.77424 0.69458
1.06446 0.784483 -0.319388
-0.0868513 -6.19686 -1.24233
0.693731 -6.49931 -0.407816
-0.631817 -3.23744 -0.493203
0.309836 0.177888 -0.654501
0.508123 0.537978 0.232848
-0.123697 -3.42443 0.23411
-0.337674 -0.430674 -1.1753
-0.527218 -0.649799 -0.229181
-0.207927 -0.74437 -0.0215986
1.22199 0.542842 0.416301
-0.725699 -2.43549 0.00675016
0.728485 0.28383 -0.878698
0.639125 0.303506 0.288038
0.832599 -0.414643 0.00850892
-0.689706 -2.60611 -0.0598316
0.841792 0.484829 -0.243606
1.42995 0.885492 0.246376
-0.150242 -2.17372 0.529352
-0.248294 -3.27023 -0.198973
0.778818 0.425087 0.37301
-0.17222 -3.27813 0.26807
-0.0800899 -6.74085 -1.2429
-0.787186 -4.2001 -0.527017
-0.149766 -4.20566 0.00640815
0.672815 -0.927121 0.569346
-0.433834 -0.968904 0.233692
0.324277 -0.732768 0.618469
-0.501594 -1.78415 0.224925
-0.658251 -1.10069 -0.104653
0.11777 -1.88925 0.686731
1.51802 -0.388039 -0.103265
-0.442494 -1.11175 0.228926
-0.535684 -1.90953 0.229189
-0.797905 -2.71243 -0.221905
0.12157 -0.120121 0.385139
-0.255719 -6.0236 -0.838257
-0.179031 -4.41554 -0.313374
0.598156 -0.172435 0.595346
1.38892 -0.248049 -0.124712
1.12768 0.237363 -0.261598
-0.955341 -4.40441 -1.18982
1.80837 0.0567929 -0.2811
1.84409 -0.190029 0.436006
0.340255 -0.553861 0.242896
-0.489444 -6.22195 -1.49906
-0.709748 -5.44076 -1.23251
1.22758 0.255397 -0.321616
-0.112628 -2.43691 0.507106
0.482168 0.282989 -0.258441
0.532392 0.345731 -0.597685
-0.0850256 -0.0749297 -0.561369
3.17615 -1.00952 0.379444
1.66665 -0.86078 0.787874
4.01031 -3.59939 0.339235
4.96437 -3.6236 -0.478442
8.26555 -4.57732 -0.0179191
6.98799 -4.82134 -0.728459
2.48662 -1.0159 0.258043
4.14712 -3.6503 -0.506059
3.99961 -3.16856 0.421437
2.32877 -1.71998 0.665613
1.66998 -0.971284 0.245109
3.34028 -1.89054 0.883197
2.40916 -0.482031 0.646168
2.3833 -1.0222 0.429395
3.73523 -3.98013 -0.027506
3.78808 -3.2155 0.203881
2.72165 -0.571798 0.314641
5.51112 -4.03679 0.189355
4.58166 -2.24965 -0.03881
5.08508 -2.92255 0.349949
6.29715 -5.2999 -0.627085
2.40833 -0.986139 0.4491
4.70097 -2.57604 -0.218584
4.02203 -1.60343 0.103295
6.78657 -5.57631 -0.566748
7.72671 -5.21243 -0.558475
3.30099 -1.08492 0.7544
4.48393 -4.06367 0.275511
6.46117 -4.83858 -0.790623
1.35433 -0.92754 0.669524
5.46565 -4.20611 0.0496118
1.89866 -0.435688 1.09571
1.84975 -0.77247 0.937786
7.40596 -4.40122 -0.283187
5.95429 -4.12776 -0.367078
5.02954 -4.63346 -0.0367477
4.89651 -2.71383 -0.242867
3.62188 -2.55441 -0.662191
4.34786 -1.33302 0.243878
1.83614 -1.02689 0.628015
3.67258 -1.761 0.496625
6.7693 -5.19023 -0.0225169
6.2381 -3.34165 -0.24051
7.97218 -5.456 -0.478824
2.93305 -2.55176 0.316381
6.35535 -4.0181 -0.420511
1.4564 -1.69319 0.345518
6.43427 -5.31244 -0.626381
7.03984 -4.96505 -0.561681
4.18568 -2.02278 0.494763
