ply
format ascii 1.0
comment Created by Open3D
element vertex 400
property double x
property double y
property double z
end_header
0.503126 -2.0222 -1.24047
-0.433045 -2.60994 -1.95103
-0.072612 -2.81143 -1.99074
0.83065 -2.43755 -2.14205
-0.349778 -2.83486 -2.16668
-0.194155 -1.43562 -0.563875
-0.310241 -2.76445 -2.05289
-0.425347 -1.91734 -1.12989
-0.818199 -2.10167 -1.67106
0.0862221 -1.92866 -0.966328
-0.295859 -1.44482 -0.610769
0.308339 -2.23583 -1.38832
-0.993231 -3.08091 -3.1384
0.289108 -2.51285 -1.64279
-0.368114 -2.86953 -2.21412
-0.20006 -2.96045 -2.24253
0.990681 -2.21513 -1.90256
0.663949 -1.91451 -1.54281
-0.211047 -2.52527 -1.75067
-0.864208 -2.48552 -2.50339
0.476799 -2.03656 -1.27178
-0.512102 -1.3523 -0.821662
0.224295 -2.40713 -1.49338
-0.448589 -1.61131 -0.970259
-0.387734 -2.06829 -1.17079
-0.06826 -2.56869 -1.63413
-0.68368 -2.55437 -2.16841
-0.485539 -2.70353 -1.92161
-0.874594 -1.48445 -1.3964
-0.513448 -2.06366 -1.41177
0.167468 -2.19132 -1.22631
0.700411 -2.94019 -2.82147
-0.686886 -1.91104 -1.26963
0.629623 -2.27402 -1.60858
0.877884 -1.75421 -1.62491
0.189768 -1.45174 -0.499622
-1.01448 -2.19477 -2.01759
-0.391135 -2.14928 -1.50295
-0.616011 -1.78773 -1.03109
-0.213587 -1.50755 -0.646807
-0.401218 -1.49164 -0.818408
-0.184311 -2.81363 -1.98043
-0.276079 -2.7902 -2.03902
0.53504 -2.07753 -1.35442
0.735125 -1.2801 -0.964175
-0.193344 -1.67849 -0.736244
-0.0225315 -2.31739 -1.34955
0.0446452 -2.76826 -1.95664
0.0882002 -2.07399 -1.13975
-0.489246 -1.30788 -0.669716
-0.873992 -2.25245 -1.97257
0.0636355 -2.25673 -1.28004
0.0767153 -2.07697 -1.08264
0.462193 -2.22774 -1.49173
0.563826 -2.69049 -2.05385
0.23127 -2.9487 -2.23734
0.592502 -2.64774 -2.07786
0.0616931 -1.01943 -0.213837
0.275801 -2.20985 -1.47303
0.195733 -1.65413 -0.691967
0.593183 -1.48466 -0.887497
0.669846 -2.8094 -2.55431
0.102174 -2.00189 -1.014
0.456517 -2.16039 -1.34159
0.156436 -1.60265 -0.662804
0.47408 -2.65715 -2.00742
-0.428583 -1.53796 -0.816563
0.415136 -1.837 -1.33955
-0.59763 -1.7403 -1.09262
0.828616 -1.47485 -0.958024
0.0860078 -2.2191 -1.23868
-0.0927612 -1.15163 -0.332731
-0.77768 -2.52236 -2.0179
-0.761775 -2.01568 -1.89256
0.201334 -1.39886 -0.516346
0.266487 -2.83953 -2.12013
-0.464836 -1.04192 -0.508376
-0.683028 -1.25844 -0.832048
-0.507964 -2.0536 -1.28513
-0.719007 -2.00972 -1.66268
-0.0149421 -1.44009 -0.527262
-0.31407 -2.08083 -1.27791
0.571871 -2.08276 -1.46015
-0.0695457 -1.48665 -0.571176
-0.0869727 -1.02904 -0.278563
-0.309646 -1.72542 -0.875956
-0.475829 -2.96731 -2.40177
-0.621542 -2.38927 -2.02812
-0.849675 -1.05002 -0.961685
0.01288 -2.69761 -1.81593
0.00742798 -1.72413 -0.743172
-0.998422 -2.89309 -2.87787
-1.08027 -2.35751 -2.26505
0.522752 -1.57309 -0.845578
-0.342791 -2.68955 -2.04306
-0.954533 -1.91198 -1.90697
0.65676 -1.7683 -1.15802
0.861336 -2.99145 -3.10351
0.394577 -1.43038 -0.535013
0.00807913 -1.82765 -0.912391
0.137862 -1.15583 -0.297468
-0.170984 -1.9669 -1.01285
0.743878 -1.45684 -0.827822
-0.363057 -1.2122 -0.511997
0.529166 -1.429 -0.899054
1.18926 -1.4115 -1.29281
-0.0833634 -1.86285 -0.912083
-0.890607 -1.90677 -1.69436
0.953995 -1.41312 -1.44484
-0.947119 -2.28281 -2.00121
-0.665748 -2.18113 -1.5526
0.659104 -1.21916 -0.761586
-0.181122 -1.61798 -0.683502
-0.232848 -2.61905 -1.68913
0.746543 -1.99175 -1.74452
0.807246 -1.05032 -0.867024
-0.700622 -2.15311 -1.82446
0.0112756 -1.46151 -0.555584
-0.314095 -1.83126 -0.928855
-0.087123 -2.44034 -1.48101
-0.728167 -2.59089 -2.13797
0.809426 -2.94054 -2.90047
0.427617 -1.88033 -1.08368
0.559376 -1.78207 -1.12063
0.0259057 -2.1647 -1.20611
-0.301018 -1.75713 -0.865208
-0.853292 -2.13584 -1.70721
-0.248431 -1.25561 -0.454181
0.774865 -2.68643 -2.42331
0.0456233 -1.81401 -0.880367
-0.336703 -1.6269 -0.855223
-0.852943 -2.70036 -2.16202
0.84839 -1.42111 -0.85329
1.10151 -1.00364 -1.13597
-0.614547 -1.82548 -1.1946
0.613241 -1.76177 -1.25395
-0.835234 -1.15115 -0.955354
-0.352406 -1.29689 -0.527246
0.89743 -2.15806 -1.78485
0.764883 -1.20517 -0.798477
0.139731 -1.19874 -0.455829
-0.902776 -1.57968 -1.29053
0.80142 -1.90828 -1.61986
-0.419662 -1.4761 -0.657372
0.636979 -1.30792 -1.05322
-0.81192 -2.50067 -2.34279
0.242626 -2.74291 -1.93731
-0.97291 -2.86606 -2.86609
0.826361 -2.67987 -2.59187
-0.0331162 -1.50985 -0.574286
0.54931 -1.45897 -0.66552
0.414064 -2.32744 -1.59116
0.73433 -1.86937 -1.28175
-0.763409 -1.40192 -1.14306
-1.02481 -1.939 -1.87149
0.782974 -2.7632 -2.5137
-0.0565041 -2.654 -1.77939
0.242185 -1.18703 -0.546875
-0.776903 -1.40603 -1.10932
-0.17991 -2.28101 -1.36197
0.478299 -2.38194 -1.62641
-0.821189 -1.20155 -1.25256
-0.298979 -1.64108 -0.777659
-0.139659 -2.48045 -1.50426
0.599644 -1.97828 -1.48135
-0.539616 -2.97282 -2.50934
-0.172618 -2.86341 -1.96327
-0.409826 -0.945006 -0.437666
1.10566 -1.69215 -1.6109
0.757252 -2.93756 -2.68977
0.0791952 -2.66093 -1.77901
0.577961 -1.65586 -0.950929
-0.105081 -3.00579 -2.17651
-0.962589 -1.59943 -1.39735
0.132052 -2.93752 -2.1667
-0.131612 -3.10995 -2.33969
0.493669 -0.927181 -0.207651
-0.152469 -1.5029 -0.593959
-0.781317 -1.50599 -1.01362
-0.474761 -1.56453 -0.798851
-0.452145 -2.76592 -2.29176
0.0940808 -2.69178 -1.82023
-0.116167 -2.55716 -1.74017
0.307844 -2.6304 -1.80648
0.949503 -1.61292 -1.46353
-0.346343 -1.56041 -0.764013
-0.130242 -2.53435 -1.63361
0.819609 -1.01733 -0.600251
1.07617 -1.83015 -1.66582
-0.772718 -2.68766 -2.3247
0.397259 -2.95432 -2.36248
-0.549135 -2.80668 -2.23123
-0.58298 -1.2139 -0.65993
-0.0958674 -1.30517 -0.431417
0.550123 -2.15444 -1.34412
0.826082 -2.97127 -3.09109
-1.06863 -2.32498 -1.97709
-0.280917 -2.82077 -2.06451
-0.700383 -2.41233 -2.03339
0.890863 -1.21547 -1.27151
-0.0182575 -1.78088 -0.816688
-0.0767741 -1.34897 -0.512944
0.250523 -1.63823 -0.743697
-0.9131 -2.68968 -2.53662
0.642554 -1.40605 -1.0281
-0.464016 -1.16317 -0.740286
0.714973 -2.1983 -1.51329
0.585048 -3.06605 -2.83767
0.897618 -2.01516 -1.94598
-0.036022 -2.3418 -1.39307
-0.214993 -1.22157 -0.443673
-0.0753569 -2.44165 -1.47445
0.893702 -2.85449 -2.67504
-0.328152 -2.81681 -1.98842
-0.447685 -1.30665 -0.731615
0.911606 -2.0166 -1.80428
-0.042673 -2.38139 -1.4117
-0.360283 -1.69839 -0.932263
-0.0408683 -1.45718 -0.549398
-0.248376 -3.04225 -2.31678
-0.666564 -1.80125 -1.35995
-0.551238 -1.10866 -0.605388
0.574863 -2.43873 -1.81301
-0.569265 -2.60591 -2.06415
0.504285 -2.16277 -1.72762
1.02429 -2.1163 -2.11296
-0.700199 -1.99577 -1.50697
0.604018 -2.57305 -2.19417
0.530926 -1.65978 -0.912034
0.86842 -2.10417 -1.72313
-0.624967 -1.32475 -0.812087
0.744402 -2.61125 -2.46685
-0.804169 -2.16186 -1.74596
-0.409369 -2.95352 -2.31763
0.0289674 -0.915833 -0.158533
0.348241 -2.04797 -1.09976
-0.429674 -1.29475 -0.702664
0.776114 -1.62158 -1.07359
0.591071 -2.20052 -1.60557
0.742886 -1.47128 -1.40917
0.847725 -2.78765 -2.82199
0.899273 -1.63011 -1.3588
0.346378 -2.20868 -1.32087
0.802402 -1.73906 -1.37739
-0.614011 -2.23059 -1.50633
1.00659 -1.83418 -1.74651
0.111752 -1.6248 -0.673338
0.362906 -2.66231 -2.0427
-0.307887 -2.11075 -1.12353
-0.671236 -1.51354 -0.888366
0.362742 -2.90445 -2.27839
0.981336 -2.26278 -2.19396
-0.120298 -1.71474 -0.753218
0.894828 -2.07455 -1.83361
1.01192 -2.5397 -2.56946
0.199703 -1.67612 -0.687617
-0.0859929 -1.97488 -0.986363
0.685081 -2.51074 -2.01574
-0.430221 -2.77135 -2.26964
0.413424 -1.8432 -1.00359
0.345244 -2.36352 -1.47328
-0.533031 -1.74261 -0.977181
-0.872333 -2.59213 -2.23182
0.0860066 -1.72698 -0.789343
-0.580887 -2.46242 -1.7108
1.03076 -1.35362 -1.38377
0.36665 -2.55413 -1.72597
0.739324 -1.1356 -0.644426
-0.262259 -1.39208 -0.714189
0.513785 -2.01855 -1.48098
-0.190514 -1.7409 -0.786564
0.802661 -1.32647 -0.968349
1.07608 -2.42243 -2.42425
0.868759 -1.12812 -1.2815
-0.0886898 -2.68292 -1.77266
0.515063 -2.35305 -1.52861
0.217549 -0.995361 -0.289601
0.303588 -1.93647 -1.06296
-0.311162 -1.61571 -0.719812
0.466417 -1.61758 -0.841353
-0.670517 -1.798 -1.13864
-0.840083 -1.15778 -1.08203
-0.518456 -2.63184 -1.90413
-0.132621 -1.07945 -0.316731
0.410588 -2.29969 -1.51919
-0.0203611 -1.92124 -0.924521
1.00521 -1.95688 -1.59176
0.184586 -1.64581 -0.746614
0.370519 -1.6767 -0.771591
-0.845457 -2.79686 -2.62694
-0.219849 -2.0236 -1.087
-0.305311 -2.00212 -1.19751
0.0779743 -2.55035 -1.63105
-0.124919 -2.90615 -2.06816
-0.296989 -2.29985 -1.60981
-0.305042 -1.01055 -0.381352
-0.938833 -2.08714 -2.03068
0.716185 -2.52761 -2.2451
0.383086 -2.27094 -1.52081
0.288309 -1.27954 -0.568221
-0.723141 -2.76905 -2.29706
-0.308716 -2.69882 -1.85307
0.378951 -1.1009 -0.334369
0.623216 -1.72846 -1.00543
0.678997 -1.06617 -0.699703
0.286253 -2.17555 -1.31292
0.346299 -1.65477 -0.818051
-0.914593 -2.8218 -2.69331
0.0228573 -1.55723 -0.615633
0.328076 -1.80739 -0.886714
0.809887 -1.08876 -0.722883
-0.166514 -2.71045 -1.88774
0.0263888 -1.44486 -0.544981
-0.916168 -1.39516 -1.03958
-0.384576 -1.5527 -0.810416
0.328897 -2.23232 -1.30518
-1.01378 -1.78057 -1.62973
0.666154 -2.55818 -2.28436
0.906759 -1.29331 -1.25594
0.651966 -2.35115 -1.85539
0.218043 -2.54574 -1.68698
0.74547 -2.45015 -2.15533
-0.471731 -1.69225 -0.921301
0.96979 -2.95391 -3.06653
-0.748906 -2.08806 -1.67766
0.127159 -2.34713 -1.39597
-0.450453 -2.35847 -1.84166
-0.6159 -1.22563 -0.93229
0.719998 -1.9602 -1.42851
-0.338546 -2.3183 -1.54295
0.577911 -2.61264 -1.9897
-0.0642841 -1.32545 -0.437354
0.717579 -2.99268 -2.7608
0.880899 -1.66308 -1.56928
-0.862849 -1.39018 -1.09749
0.447209 -1.17855 -0.430001
0.837782 -1.27433 -1.11659
0.455167 -1.35231 -0.742663
0.180427 -1.12132 -0.353743
-0.29868 -2.66379 -1.82679
0.187982 -2.61729 -1.85892
-0.925285 -2.25458 -2.07493
0.569742 -2.73112 -2.08567
-0.386275 -1.64483 -0.773825
-0.494301 -2.06684 -1.16399
-0.226246 -2.64364 -1.72226
-0.116656 -2.25194 -1.30485
-0.325588 -2.69069 -2.11513
0.249388 -2.38072 -1.5374
-0.930012 -2.91418 -3.07755
-0.76494 -1.19299 -1.10744
-0.650498 -2.1177 -1.59644
0.290287 -0.914493 -0.0844829
0.0887979 -2.97846 -2.20907
0.0841844 -2.40433 -1.45926
0.871124 -1.34066 -1.08704
-0.779016 -1.8398 -1.2397
-0.632697 -1.41956 -0.821197
-0.476216 -1.33013 -0.702946
-0.418833 -1.89586 -1.13892
-1.04434 -1.90672 -1.8133
-0.392159 -1.21567 -0.492509
0.591328 -2.49632 -1.83976
0.855053 -1.51713 -1.22549
-0.549544 -1.15952 -0.566684
1.07312 -2.28233 -2.21449
0.700639 -1.46053 -1.01309
0.186273 -2.23271 -1.26957
0.688996 -2.545 -1.96755
-0.632787 -2.90955 -2.55594
-0.534853 -1.2555 -0.654633
0.479721 -1.25366 -0.425999
0.772839 -2.39877 -2.01495
0.515582 -1.46008 -0.685998
-0.704347 -1.61068 -0.966977
0.585761 -1.79647 -1.20255
0.00506846 -2.33771 -1.36145
-0.842582 -2.59089 -2.12497
0.178624 -3.01505 -2.30333
0.0228791 -2.09773 -1.11397
-0.930073 -1.18324 -1.30634
0.0894819 -1.97735 -0.978468
0.539925 -1.28477 -0.510285
0.93726 -2.83884 -2.85779
0.159103 -2.77985 -2.01661
-0.279522 -2.85621 -2.10043
0.285309 -2.68284 -1.87091
0.304519 -2.29925 -1.42603
-0.70413 -1.30539 -0.83503
-0.257253 -3.03598 -2.28322
0.832359 -2.0284 -1.66947
0.534016 -2.73969 -2.17309
0.139213 -2.70606 -1.84938
-0.798771 -3.00407 -2.5967
-0.257333 -2.32089 -1.42066
-0.688233 -1.9889 -1.49775
0.865902 -2.11195 -1.9082
0.0627478 -2.14224 -1.1558
0.209944 -2.01483 -1.07227
0.155361 -2.43942 -1.5804
