ply
format ascii 1.0
comment Created by Open3D
element vertex 250
property double x
property double y
property double z
end_header
0.997687 -0.173695 -0.741438
2.62772 -1.35521 -0.741562
2.04549 -1.36575 -0.0323807
0.639096 -0.460122 -0.0169307
1.37492 -0.533371 0.462717
0.698785 -0.721382 0.215895
0.902285 0.0579221 0.497668
3.02693 -2.20649 0.166876
0.00602208 -0.517412 -1.23747
-1.48449 -0.778563 0.0068933
0.482369 -0.0959879 0.1932
-0.597281 -0.5907 -1.29661
3.53233 -3.06246 -0.129137
0.254988 -0.185528 -0.769539
0.751677 -1.00914 -0.221157
2.11698 -0.624682 -0.442628
-1.02143 -0.439843 -0.474624
1.42076 -0.556529 -0.383191
0.173662 -0.831501 -1.43716
0.965269 -0.0901515 -0.109107
1.85075 -1.40074 -1.2146
0.964545 0.613761 0.57406
-1.16339 -0.378254 0.195117
-0.484773 -0.360326 0.275626
1.21281 -0.446352 -0.428491
0.467756 -0.348142 -0.944466
-1.39095 -0.374673 -0.565556
0.227333 0.150528 0.569714
4.01898 -4.55681 -0.671902
-0.0800597 -0.0449806 0.330594
-0.981587 -0.675506 -1.28714
-1.40202 -0.692447 0.207261
-0.694031 0.0243885 -0.329966
-0.622546 -0.531546 0.184164
0.389235 -0.387319 -1.03365
-0.621569 -0.0429436 -0.333788
0.884953 -0.543097 -0.478463
3.98373 -3.7441 -1.41092
3.56525 -4.77022 -2.02603
2.07516 -0.838803 -0.0759999
4.62828 -4.72681 -1.11223
-1.19623 -0.426043 -0.913118
1.70348 -0.574157 -0.259577
2.44787 -0.939645 0.02307
-0.977996 -0.439334 -0.437596
3.97916 -2.94254 -0.257569
1.19896 -0.625088 -0.029858
4.04169 -3.12778 -0.604881
3.96675 -4.31531 -1.82064
-0.361799 -0.500429 -1.19614
-0.280097 0.153103 -0.282979
2.64986 -2.7049 -1.78835
4.28628 -4.74882 -2.24519
3.41871 -3.40354 -0.977919
2.03887 -0.815887 0.468922
3.18994 -2.47701 -0.016987
-0.379286 -0.423021 0.277468
-0.328432 -0.382579 0.0818961
0.263991 -0.0750069 -0.766539
0.300253 -0.289042 -0.224293
4.74155 -4.49486 -0.393744
3.72558 -3.23881 -0.996227
3.78322 -2.87342 -0.459024
3.46968 -2.72075 -0.0163907
1.00557 -0.168501 -0.198349
4.06392 -4.20285 -1.32058
0.436733 -0.329418 -0.727797
1.52802 -0.37505 -0.570116
-0.59603 -0.0385178 -0.608377
4.26557 -4.61784 -2.08915
3.73568 -2.52417 -0.29397
0.159672 0.228126 0.0148703
2.08803 -2.0048 -0.552144
-0.680021 -0.377928 -0.97956
0.227148 -0.685959 -0.0134188
-0.143493 -0.241177 -0.10344
3.51223 -2.36875 -0.865335
4.78808 -3.85711 -0.902147
-1.56776 -0.555427 -0.711951
1.68137 -0.804572 -0.925243
-1.11437 -0.434344 0.0159964
0.746625 -0.134366 -0.0766117
-0.463587 -0.559086 -1.27703
0.701061 0.193796 0.073651
0.482687 0.017521 -0.2842
0.219075 0.286882 0.358131
1.67511 -0.633948 0.401503
1.57489 -0.682429 -0.826163
-0.746988 0.290442 0.339856
0.757635 -0.876762 0.0574137
2.53003 -2.36426 -0.513717
3.89484 -2.77164 -0.213087
0.790864 -0.45734 0.000559934
0.275978 0.504341 0.0100588
2.40889 -1.87562 -0.676253
0.504085 -0.53752 0.396384
0.409405 -0.196526 -0.0242058
0.239801 0.128166 -0.147654
-1.4295 -0.41866 -0.259652
1.25505 -1.03331 -1.17459
-0.808522 -0.334556 -0.871659
2.91956 -1.69797 -0.513665
2.46235 -0.762099 0.0099206
0.0582039 -0.217292 -0.745868
1.03957 -0.437097 -0.894671
1.36885 -0.251444 0.188506
1.40849 -0.856738 -0.963479
2.1202 -1.12855 0.469419
-1.61651 -0.630766 -0.274631
2.69448 -2.61074 -0.233713
1.46851 -0.792401 -0.287538
2.2647 -0.972321 -0.410584
1.38263 -1.19691 -1.36189
2.57861 -2.44181 -0.622804
3.34869 -1.32792 -0.252331
-0.346225 -0.388916 -1.10011
3.65672 -3.02778 -0.140121
-1.91112 -0.966179 -1.27398
2.20611 -1.4115 0.268005
3.37989 -2.77213 -1.54104
2.82101 -1.84282 -1.09649
-0.915812 -0.0106677 -0.20032
2.72088 -1.22861 0.145505
4.10904 -3.70798 -1.42598
-0.899612 -0.0300297 -0.190234
4.10515 -3.7159 -1.52072
-1.12766 -0.241798 -0.619738
-1.09522 -0.98047 -1.69291
-1.70415 -0.703927 -0.567357
2.60149 -1.51804 -0.804214
-0.60864 -0.130846 -0.721648
1.2338 -0.593016 -0.664785
-0.542682 -0.118053 -0.76872
3.87929 -3.63335 -0.457468
3.99632 -3.36531 -1.03107
-0.600868 -0.515533 -1.23822
1.10106 -0.0520455 0.0427017
1.49156 0.225418 0.155183
2.99278 -1.84399 -0.905791
4.38328 -4.44032 -1.54821
-0.549077 -0.00499916 -0.283561
2.5646 -1.41073 0.124206
1.44546 -1.14172 -1.27759
3.95885 -3.76962 -0.35592
1.69093 -0.980504 -0.209741
2.71209 -1.68189 -0.197404
0.264471 -0.430108 -0.350812
2.52219 -0.504163 0.0375725
-0.795909 -0.171618 0.265778
4.24796 -4.52317 -0.857974
4.58002 -4.48365 -1.68817
2.82026 -1.97349 0.0302302
-1.09919 -0.519685 -0.295112
0.132917 0.319549 0.431611
3.3052 -1.79976 -0.410536
-1.01772 -0.991309 -0.295398
-0.0236753 -0.374679 -0.439087
1.51398 -0.287947 0.788477
-0.490012 0.0931289 -0.401997
1.64597 -1.19347 -0.812232
-1.6402 -0.807824 -0.530099
-0.283763 0.103401 -0.286578
-0.898878 -0.693518 -1.37411
2.31627 -1.30043 -0.250853
-1.06698 -0.263751 -0.376275
-0.732862 0.111715 -0.138734
2.26333 -0.859088 -0.463929
3.37955 -1.91036 0.251566
-0.238619 0.187442 -0.206724
3.06538 -1.68331 -0.532398
4.26998 -4.89166 -1.39218
2.82515 -2.58266 -0.909207
3.24249 -2.46607 -1.04863
0.415104 -0.497886 -1.12132
1.1902 -0.220499 -0.00511258
0.734175 -0.165983 -0.633794
1.38239 -0.731311 -0.634523
1.06962 -0.443807 0.0808991
1.93642 -0.706555 -0.667695
-1.36543 -1.06405 -1.73833
1.5383 -0.283081 0.203058
1.78598 -0.760945 -0.36043
2.26846 -1.43535 -0.243819
0.417608 0.152059 -0.0866122
3.78885 -4.1294 -1.52869
3.7696 -2.7461 -0.420175
0.278706 0.0450182 -0.507951
-1.37324 -0.932146 -1.57579
-1.42826 -0.591066 -0.987952
2.78484 -3.07322 -0.502027
-1.75668 -1.02853 -1.51561
-0.672142 -0.655464 -1.38348
-0.146644 -0.371751 -0.9677
3.79252 -4.58429 -1.07012
3.40091 -3.839 -0.914138
-1.5492 -0.668027 -1.03688
2.37101 -1.05553 -0.60519
-0.891748 -0.249067 -0.375274
-1.07089 -0.456736 -0.161226
-0.394603 -0.406762 0.0808566
-0.831996 -1.7916 -2.3905
0.289648 -0.724664 -1.44062
0.446288 -3.7767 -3.7581
-1.2218 -4.84709 -4.70181
-0.214888 -6.42322 -5.27559
-1.1644 -6.61524 -5.72153
-0.867023 -1.60026 -2.28045
-1.12959 -4.54743 -4.57056
0.301795 -3.44366 -3.54223
0.28423 -1.64664 -2.23703
-0.663287 -1.23274 -1.97874
0.501918 -2.00814 -2.45435
-0.40773 -0.921015 -1.64958
-0.542569 -1.4246 -2.12412
0.0677549 -4.19062 -4.15536
-0.0341699 -3.55973 -3.70431
-1.00561 -1.37181 -2.03175
0.161845 -4.79254 -4.41594
-1.18199 -3.48643 -3.66818
-0.208156 -3.8045 -3.78404
-0.591044 -6.54417 -5.7021
-0.531826 -1.39684 -2.09693
-1.3284 -3.88141 -3.97876
-1.17781 -2.73693 -3.11521
-0.353317 -6.86554 -5.8288
-0.694361 -7.02247 -5.85168
-0.186658 -1.59513 -2.19307
0.553234 -4.3091 -4.08603
-1.20598 -6.45963 -5.69489
0.234017 -0.724717 -1.434
0.026432 -4.98947 -4.5861
0.573264 -0.309671 -1.0335
0.456698 -0.627974 -1.33812
-0.700765 -6.1743 -5.28226
-0.852392 -5.47741 -5.00322
0.250694 -5.13678 -4.69297
-1.32283 -4.06725 -4.09971
-1.91343 -3.77067 -4.05795
-1.1256 -2.59105 -2.93931
-0.000911998 -1.03275 -1.75373
-0.366162 -2.37918 -2.83032
0.385538 -6.18538 -5.22429
-1.13598 -5.00739 -4.6209
-0.4176 -7.20843 -5.91286
-0.0478981 -2.70079 -3.10831
-1.05988 -5.61684 -5.06605
-0.0385701 -1.51222 -2.17859
-0.599441 -6.60773 -5.73059
-0.788678 -6.59229 -5.65728
-0.326863 -2.75821 -3.08139
