ply
format ascii 1.0
comment Created by Open3D
element vertex 250
property double x
property double y
property double z
end_header
-0.480068 -0.274891 1.2543
-2.63042 0.205785 1.33966
-2.47831 0.53357 0.304425
-0.949865 0.264882 -0.0498745
-1.18475 0.721254 0.183067
-1.15671 0.305734 -0.294242
-0.30048 0.667911 0.312817
-3.51908 0.617092 0.457615
-0.387616 -1.08899 0.717309
0.512138 -1.29286 -0.988387
-0.363255 0.33093 0.0683214
-0.249085 -1.33855 0.249662
-4.55103 0.32589 0.486935
-0.30031 -0.474468 0.636072
-1.68188 0.116583 -0.311717
-1.64592 0.400781 1.28621
0.0370384 -0.860672 -0.615025
-1.42283 0.314146 0.673097
-1.05833 -1.02699 0.51705
-0.648448 0.375068 0.565805
-2.46345 -0.322145 1.02129
0.386671 0.778654 0.820193
0.796842 -0.947234 -0.614619
0.0792295 -0.282318 -0.588987
-1.20947 0.226597 0.650888
-0.559045 -0.556436 0.802806
0.899696 -1.54695 -0.185893
0.276827 0.336715 0.0251987
-6.19239 -0.340457 0.273602
0.143429 0.0587241 -0.202232
0.463683 -2.0009 0.483049
0.760856 -1.25825 -0.848189
0.639453 -0.726576 0.0701252
-0.0601652 -0.423631 -0.756701
-0.505749 -0.703947 0.842273
0.390125 -0.602163 -0.0577512
-1.23813 0.0996595 0.329284
-5.51081 -0.502516 1.24196
-6.58965 -1.18807 0.51057
-1.93433 0.644085 0.746432
-6.57662 -0.496942 0.961936
0.575208 -1.57407 0.0114461
-1.52639 0.470357 0.795004
-2.13315 0.772251 0.916677
0.00688819 -0.809734 -0.62356
-4.58242 0.408833 1.01539
-1.3897 0.44515 0.206281
-4.83911 0.179057 1.15845
-6.11389 -0.920219 1.11777
-0.292463 -1.13064 0.369443
0.479979 -0.415307 0.311864
-4.10321 -0.79445 1.13111
-6.51612 -1.34649 1.51988
-5.07538 -0.205689 0.617142
-1.74646 0.887449 0.452674
-3.88441 0.495108 0.504601
-0.0835946 -0.216365 -0.608975
-0.212067 -0.201527 -0.527548
0.0252104 -0.610246 0.911858
-0.626458 0.0419797 -0.00358502
-6.20275 -0.0523428 0.819456
-4.94689 -0.131169 1.04354
-4.51925 0.290554 1.00005
-4.18423 0.478988 0.589399
-0.771442 0.328758 0.584147
-6.01297 -0.537057 0.906053
-0.700809 -0.278603 0.472131
-1.11954 0.147576 1.16601
0.583114 -0.934865 0.352437
-6.4064 -1.18697 1.44854
-4.13101 0.470742 1.09635
0.239085 0.072891 0.327481
-3.28769 0.133402 0.158507
-0.0232852 -1.07574 0.0744944
-0.97618 0.029877 -0.474201
-0.263622 -0.126916 -0.26128
-3.95029 0.101633 1.42212
-5.69684 -0.105702 1.5788
0.608851 -1.61724 -0.487351
-1.64803 -0.133271 1.22119
0.460241 -0.860976 -0.713934
-0.614397 0.314799 0.3442
-0.248098 -1.28732 0.373477
-0.124005 0.381445 0.549924
-0.265913 0.0537462 0.498178
0.357517 0.276845 0.222165
-1.44543 0.78776 0.342349
-1.49715 -0.0573284 1.13949
1.5338 -0.695543 0.244245
-1.42492 0.244898 -0.316607
-3.75611 0.156811 0.263081
-4.39008 0.468499 1.02642
-1.01392 0.335621 0.0428935
0.689681 0.0156037 0.802508
-3.24477 0.166152 0.61201
-0.757177 0.303654 -0.324049
-0.517108 0.194492 0.0394917
0.0264024 0.0260041 0.369319
0.811678 -1.31932 -0.531827
-1.85198 -0.402353 0.81676
0.112318 -1.06762 -0.0349075
-3.12452 0.390497 1.10999
-1.93579 0.799551 1.08187
-0.312834 -0.489651 0.400538
-0.917569 -0.315543 1.08062
-0.974264 0.67371 0.516095
-1.69519 -0.187579 0.924112
-2.07874 0.815639 0.308369
0.717997 -1.49095 -0.761914
-3.94383 0.234005 0.109854
-1.73033 0.36889 0.425538
-2.14622 0.447732 1.04635
-2.00232 -0.582449 0.99816
-3.87253 0.0930232 0.311324
-2.75555 0.689924 1.62636
-0.0663859 -1.12354 0.491692
-4.55586 0.364028 0.618286
0.301062 -2.20943 -0.616943
-2.4664 0.683369 0.268035
-4.26886 -0.543661 1.59676
-3.18677 -0.114275 1.42515
0.869066 -0.866078 -0.0561396
-2.49151 0.83573 0.857807
-5.47061 -0.501172 1.41747
0.784672 -0.812852 -0.117881
-5.46273 -0.580161 1.49465
0.964869 -1.48252 0.170865
-0.237398 -2.05406 0.107525
0.48271 -1.58482 -0.827546
-2.83044 0.14482 1.21442
0.41128 -0.975709 0.291176
-1.37776 0.0422074 0.734931
0.660725 -1.18879 0.619378
-5.26417 0.0631635 0.595298
-5.10994 -0.153083 1.24363
0.111721 -1.50341 0.508384
-0.644161 0.520181 0.592058
-0.406363 0.721354 1.08279
-3.2577 0.0754483 1.40137
-6.28946 -0.717826 1.22834
0.391679 -0.525933 -0.0244606
-2.63749 0.734661 0.612655
-1.97374 -0.486262 1.01545
-5.37227 0.0728579 0.535282
-2.00359 0.442103 0.401212
-3.03491 0.543693 0.719889
-0.818434 -0.0453462 -0.0875402
-1.63685 0.862502 1.33892
0.639137 -0.538762 -0.456089
-6.2699 -0.360729 0.587485
-6.32593 -0.82366 1.52493
-3.29104 0.58892 0.494168
0.0831552 -0.864712 -0.778717
0.496814 0.248659 0.190524
-3.29719 0.500136 1.31473
-0.594179 -0.835815 -1.19793
-0.605474 -0.223554 -0.152376
-0.848501 0.945483 0.333188
0.626709 -0.683904 0.320166
-2.27525 0.0179462 0.616168
0.162988 -1.41673 -1.0515
0.371422 -0.385685 0.22387
-0.247777 -1.51347 0.00570055
-2.53908 0.513808 0.696698
0.456121 -0.937023 -0.401355
0.889416 -0.701999 0.0869864
-1.98921 0.409741 1.20263
-3.31514 0.845122 0.894452
0.491333 -0.334194 0.301183
-3.12597 0.399837 1.27769
-6.73486 -0.751505 0.682057
-4.11418 -0.0531569 0.610821
-4.02473 -0.0778548 1.22476
-0.681257 -0.742948 0.80353
-0.901189 0.512252 0.530335
-0.53441 -0.15985 0.836418
-1.62083 0.110663 0.683787
-1.09933 0.48174 0.203408
-1.65832 0.163718 1.26967
-0.217861 -2.19984 -0.114824
-1.07351 0.733721 0.60595
-1.78248 0.405778 0.771488
-2.67204 0.476327 0.548874
-0.0392939 0.151196 0.450935
-5.91883 -0.682371 0.837055
-4.38233 0.345605 1.05138
-0.0105815 -0.276876 0.67212
-0.100755 -2.04033 -0.170781
0.282581 -1.57946 -0.409535
-4.49377 -0.00894063 0.0180453
0.147441 -2.31333 -0.389069
0.0169809 -1.68034 0.487282
-0.380306 -0.760223 0.321178
-6.29683 -0.564598 0.246346
-5.48325 -0.310991 0.275177
0.292176 -1.70746 -0.478036
-2.23643 0.301261 1.2473
0.266906 -0.76475 -0.385177
0.232713 -0.823507 -0.730068
-0.188532 -0.249257 -0.572151
-0.718072 -3.01285 0.667314
-0.568308 -1.29757 1.06163
-3.13889 -4.12329 1.34788
-3.22064 -5.91075 0.419455
-4.13246 -7.24568 1.46333
-4.39419 -7.58034 0.584341
-0.735397 -2.71919 0.489255
-3.23838 -5.48102 0.339605
-2.72541 -3.94957 1.32636
-1.35846 -2.20737 1.15276
-0.703828 -2.13603 0.429177
-1.49653 -2.6282 1.50726
-0.218363 -1.95191 0.822409
-0.727523 -2.41874 0.690378
-3.51886 -4.55158 0.989867
-2.78148 -4.15179 1.0615
-0.328089 -2.6312 0.46541
-3.56827 -5.33583 1.37384
-1.90389 -4.78199 0.56303
-2.50326 -4.69628 1.23517
-4.82599 -7.12906 0.787837
-0.69284 -2.39742 0.70637
-2.22274 -5.17156 0.440343
-1.29109 -4.0829 0.534692
-5.09097 -7.34415 0.972362
-4.76202 -7.80117 0.94871
-0.755527 -2.6152 1.139
-3.58469 -4.56392 1.42773
-4.40574 -7.38649 0.475868
-0.645436 -1.23406 0.927306
-3.73686 -5.53496 1.2483
-0.155025 -0.891079 1.33904
-0.474206 -1.19249 1.22764
-3.97198 -7.12494 1.03434
-3.69756 -6.40558 0.755551
-4.14531 -5.43552 1.23793
-2.3549 -5.3494 0.459853
-2.23034 -5.11959 -0.161769
-1.03389 -4.00802 0.655956
-0.725698 -1.72768 0.911343
-1.40026 -3.38939 1.02101
-4.69009 -6.49217 1.52386
-2.95803 -6.23405 0.719175
-4.99029 -7.85335 1.12962
-2.15116 -3.31985 0.973471
-3.60571 -6.67854 0.690942
-1.36558 -2.0281 0.724153
-4.83975 -7.20641 0.801647
-4.51688 -7.4021 0.826707
-1.64561 -3.77324 1.11603
