ply
format ascii 1.0
comment Created by Open3D
element vertex 250
property double x
property double y
property double z
end_header
-0.173695 0.997687 1.47086
-1.35521 2.62772 1.07281
-1.36575 2.04549 -0.17266
-0.460122 0.639096 -0.378265
-0.533371 1.37492 -0.190338
-0.721382 0.698785 -0.561592
0.0579221 0.902285 0.0564525
-2.20649 3.02693 0.149175
-0.517412 0.00602208 1.28961
-0.778563 -1.48449 0.199963
-0.0959879 0.482369 -0.132339
-0.5907 -0.597281 0.886017
-3.06246 3.53233 0.329555
-0.185528 0.254988 0.819887
-1.00914 0.751677 -0.713627
-0.624682 2.11698 0.981738
-0.439843 -1.02143 -0.212515
-0.556529 1.42076 0.272902
-0.831501 0.173662 0.78242
-0.0901515 0.965269 0.25793
-1.40074 1.85075 0.861718
0.613761 0.964545 0.672948
-0.378254 -1.16339 0.450356
-0.360326 -0.484773 -0.240037
-0.446352 1.21281 0.302998
-0.348142 0.467756 1.01209
-0.374673 -1.39095 1.1277
0.150528 0.227333 0.104654
-4.55681 4.01898 0.440532
-0.0449806 -0.0800597 -0.0737923
-0.675506 -0.981587 2.01484
-0.692447 -1.40202 0.519131
0.0243885 -0.694031 0.68675
-0.531546 -0.622546 -0.375091
-0.387319 0.389235 1.17031
-0.0429436 -0.621569 0.359219
-0.543097 0.884953 -0.033461
-3.7441 3.98373 1.33178
-4.77022 3.56525 0.6572
-0.838803 2.07516 0.253207
-4.72681 4.62828 1.22989
-0.426043 -1.19623 1.14725
-0.574157 1.70348 0.361914
-0.939645 2.44787 0.426707
-0.439334 -0.977996 -0.254175
-2.94254 3.97916 0.857444
-0.625088 1.19896 -0.237514
-3.12778 4.04169 1.04919
-4.31531 3.96675 1.33915
-0.500429 -0.361799 0.885888
0.153103 -0.280097 0.687484
-2.7049 2.64986 1.15895
-4.74882 4.28628 2.07501
-3.40354 3.41871 0.449817
-0.815887 2.03887 0.00763938
-2.47701 3.18994 0.218961
-0.423021 -0.379286 -0.34219
-0.382579 -0.328432 -0.411838
-0.0750069 0.263991 1.36543
-0.289042 0.300253 -0.22965
-4.49486 4.74155 1.09199
-3.23881 3.72558 0.93508
-2.87342 3.78322 0.804715
-2.72075 3.46968 0.368969
-0.168501 1.00557 0.267667
-4.20285 4.06392 0.999903
-0.329418 0.436733 0.398466
-0.37505 1.52802 0.996596
-0.0385178 -0.59603 1.09997
-4.61784 4.26557 1.90959
-2.52417 3.73568 0.846715
0.228126 0.159672 0.373496
-2.0048 2.08803 -0.305768
-0.377928 -0.680021 0.583214
-0.685959 0.227148 -0.678756
-0.241177 -0.143493 -0.290035
-2.36875 3.51223 1.25649
-3.85711 4.78808 1.76258
-0.555427 -1.56776 0.674954
-0.804572 1.68137 1.13113
-0.434344 -1.11437 0.060716
-0.134366 0.746625 0.0487497
-0.559086 -0.463587 1.0133
0.193796 0.701061 0.368029
0.017521 0.482687 0.394423
0.286882 0.219075 0.267985
-0.633948 1.67511 -0.0931612
-0.682429 1.57489 1.00349
0.290442 -0.746988 1.44312
-0.876762 0.757635 -0.646012
-2.36426 2.53003 -0.137999
-2.77164 3.89484 0.830993
-0.45734 0.790864 -0.318141
0.504341 0.275978 1.09014
-1.87562 2.40889 0.18018
-0.53752 0.504085 -0.458094
-0.196526 0.409405 -0.187678
0.128166 0.239801 0.356364
-0.41866 -1.4295 0.630403
-1.03331 1.25505 0.68711
-0.334556 -0.808522 0.508778
-1.69797 2.91956 0.738199
-0.762099 2.46235 0.60613
-0.217292 0.0582039 0.529433
-0.437097 1.03957 1.15992
-0.251444 1.36885 0.08946
-0.856738 1.40849 0.750142
-1.12855 2.1202 -0.093681
-0.630766 -1.61651 0.510246
-2.61074 2.69448 -0.198116
-0.792401 1.46851 -0.0477616
-0.972321 2.2647 0.633053
-1.19691 1.38263 1.00656
-2.44181 2.57861 -0.0822207
-1.32792 3.34869 1.30622
-0.388916 -0.346225 1.12397
-3.02778 3.65672 0.457206
-0.966179 -1.91112 0.747487
-1.4115 2.20611 -0.14808
-2.77213 3.37989 1.72278
-1.84282 2.82101 1.29946
-0.0106677 -0.915812 0.7867
-1.22861 2.72088 0.384907
-3.70798 4.10904 1.56167
-0.0300297 -0.899612 0.646114
-3.7159 4.10515 1.68487
-0.241798 -1.12766 1.49885
-0.98047 -1.09522 1.22614
-0.703927 -1.70415 0.288094
-1.51804 2.60149 0.925203
-0.130846 -0.60864 0.972181
-0.593016 1.2338 0.449281
-0.118053 -0.542682 1.64594
-3.63335 3.87929 0.546123
-3.36531 3.99632 1.21823
-0.515533 -0.600868 1.4905
-0.0520455 1.10106 0.247218
0.225418 1.49156 0.775975
-1.84399 2.99278 1.19995
-4.44032 4.38328 1.48714
-0.00499916 -0.549077 0.355289
-1.41073 2.5646 0.152775
-1.14172 1.44546 0.984177
-3.76962 3.95885 0.542132
-0.980504 1.69093 -0.0949982
-1.68189 2.71209 0.273674
-0.430108 0.264471 -0.342605
-0.504163 2.52219 0.90215
-0.171618 -0.795909 0.234796
-4.52317 4.24796 0.74666
-4.48365 4.58002 1.91342
-1.97349 2.82026 0.108323
-0.519685 -1.09919 -0.282592
0.319549 0.132917 0.317394
-1.79976 3.3052 0.98556
-0.991309 -1.01772 -0.882249
-0.374679 -0.0236753 -0.297571
-0.287947 1.51398 0.0142777
0.0931289 -0.490012 0.922416
-1.19347 1.64597 0.216473
-0.807824 -1.6402 -0.189906
0.103401 -0.283763 0.528225
-0.693518 -0.898878 0.692731
-1.30043 2.31627 0.213983
-0.263751 -1.06698 0.252055
0.111715 -0.732862 0.837396
-0.859088 2.26333 0.847157
-1.91036 3.37955 0.546202
0.187442 -0.238619 0.638148
-1.68331 3.06538 0.945554
-4.89166 4.26998 0.914332
-2.58266 2.82515 0.277966
-2.46607 3.24249 1.0449
-0.497886 0.415104 1.09422
-0.220499 1.1902 0.138045
-0.165983 0.734175 0.838273
-0.731311 1.38239 0.327917
-0.443807 1.06962 -0.200797
-0.706555 1.93642 1.05631
-1.06405 -1.36543 1.05438
-0.283081 1.5383 0.157455
-0.760945 1.78598 0.330183
-1.43535 2.26846 0.063889
0.152059 0.417608 0.37147
-4.1294 3.78885 0.898475
-2.7461 3.7696 0.837551
0.0450182 0.278706 0.84334
-0.932146 -1.37324 0.915919
-0.591066 -1.42826 0.508985
-3.07322 2.78484 -0.240285
-1.02853 -1.75668 0.990801
-0.655464 -0.672142 1.55666
-0.371751 -0.146644 0.562118
-4.58429 3.79252 0.336831
-3.839 3.40091 0.170467
-0.668027 -1.5492 0.528264
-1.05553 2.37101 0.929847
-0.249067 -0.891748 0.0694026
-0.456736 -1.07089 -0.154218
-0.406762 -0.394603 -0.417121
-1.7916 -0.831996 2.60669
-0.724664 0.289648 1.86
-3.7767 0.446288 3.83048
-4.84709 -1.2218 3.92044
-6.42322 -0.214888 6.56767
-6.61524 -1.1644 5.37043
-1.60026 -0.867023 2.09036
-4.54743 -1.12959 3.39207
-3.44366 0.301795 3.75856
-1.64664 0.28423 2.44795
-1.23274 -0.663287 1.54652
-2.00814 0.501918 3.28112
-0.921015 -0.40773 2.13922
-1.4246 -0.542569 2.13664
-4.19062 0.0677549 3.52598
-3.55973 -0.0341699 3.49821
-1.37181 -1.00561 2.14991
-4.79254 0.161845 4.80891
-3.48643 -1.18199 3.57845
-3.8045 -0.208156 4.33552
-6.54417 -0.591044 5.13021
-1.39684 -0.531826 2.15511
-3.88141 -1.3284 3.62925
-2.73693 -1.17781 3.13362
-6.86554 -0.353317 5.55406
-7.02247 -0.694361 6.05419
-1.59513 -0.186658 2.94953
-4.3091 0.553234 4.21779
-6.45963 -1.20598 5.00231
-0.724717 0.234017 1.60165
-4.98947 0.026432 4.73707
-0.309671 0.573264 2.0858
-0.627974 0.456698 2.04865
-6.1743 -0.700765 5.80541
-5.47741 -0.852392 4.75823
-5.13678 0.250694 4.52123
-4.06725 -1.32283 3.77596
-3.77067 -1.91343 2.6522
-2.59105 -1.1256 3.35488
-1.03275 -0.000911998 1.91426
-2.37918 -0.366162 3.20988
-6.18538 0.385538 5.7856
-5.00739 -1.13598 4.80131
-7.20843 -0.4176 6.32727
-2.70079 -0.0478981 2.84227
-5.61684 -1.05988 4.94712
-1.51222 -0.0385701 1.67648
-6.60773 -0.599441 5.22089
-6.59229 -0.788678 5.55017
-2.75821 -0.326863 3.608
