ply
format ascii 1.0
comment Created by Open3D
element vertex 400
property double x
property double y
property double z
end_header
1.25769 -1.19733 -0.496869
2.97998 -2.02166 -0.0382486
1.37833 -0.865507 -0.554969
2.09719 -0.915328 0.723504
1.36964 -2.14672 -0.687474
1.15973 -1.68713 -0.79993
1.42916 -0.528837 0.195765
1.65616 -1.27537 -0.631938
2.65522 -2.40184 -0.442832
3.3701 -2.59815 0.568168
0.652242 -1.31444 -0.802005
1.69695 -0.89225 -0.383534
2.49371 -1.31268 0.42371
2.66921 -1.85781 -0.213049
2.30183 -1.49876 -0.261477
0.55809 -1.49179 -0.621318
0.967569 -1.11321 -0.646232
2.86127 -2.18368 0.482809
0.959423 -0.324897 -0.292459
2.50661 -1.54459 0.574653
1.76332 -1.26001 -0.609204
1.98057 -1.39329 -0.563988
2.38161 -1.5187 -0.195288
1.54434 -0.852684 -0.433317
0.935231 -0.472699 -0.411635
1.59151 -1.64538 -0.830242
1.93162 -1.09666 0.580162
2.29874 -2.54525 -0.758048
2.22955 -0.957009 0.202668
2.23765 -2.59357 -0.716755
0.88671 -2.03301 -0.814256
2.306 -1.24945 -0.0636997
1.74547 -0.611707 0.420507
2.63071 -1.64766 -0.0918569
1.76871 -0.691724 0.189304
1.71206 -0.794587 -0.160048
2.83566 -2.40068 -0.398427
2.29955 -2.33973 -0.596524
1.14826 -0.636613 -0.48513
1.46211 -0.671605 0.122255
2.21816 -1.14953 0.145963
1.90094 -2.23788 -0.607104
2.95734 -1.78437 0.423459
2.3276 -1.23561 -0.208557
2.82072 -1.72747 -0.094168
1.31772 -0.414687 0.207398
2.06056 -2.12444 -0.656721
2.17682 -0.831438 0.0613092
2.40748 -3.07348 -0.678892
2.04651 -0.831832 -0.0846451
3.26736 -2.45426 0.705017
1.57496 -0.567619 0.141722
2.41977 -1.54849 0.384798
3.29962 -2.45486 0.390676
3.02995 -1.87921 0.665868
1.99492 -1.3001 -0.493998
1.47927 -1.71473 -0.627596
0.89049 -2.20942 -0.8395
1.4268 -0.58301 -0.313558
1.41699 -0.690517 -0.213247
2.76823 -1.92169 0.651807
1.75673 -2.05641 -0.641265
1.8641 -0.589551 0.25858
1.02827 -1.76826 -0.597841
1.79613 -2.4264 -0.748495
2.86408 -1.81883 0.456374
2.11479 -2.67426 -0.756945
1.32079 -1.26886 -0.8021
2.52865 -1.30245 0.136684
2.18539 -2.1829 -0.623688
1.8943 -2.33047 -0.896742
1.2679 -0.57286 0.0583291
1.0327 -1.36644 -0.866899
3.24395 -2.60685 0.571419
2.70935 -1.7797 -0.0924647
1.41944 -1.87837 -0.700612
0.973589 -0.903261 -0.60857
0.783217 -0.869213 -0.525563
2.17086 -1.68723 -0.590004
1.90095 -2.28726 -0.721787
2.20547 -2.28772 -0.773996
2.39236 -2.74463 -0.679345
2.6602 -1.88368 -0.372673
1.81899 -1.84106 -0.817016
2.93732 -1.91675 -0.00256927
1.23477 -0.47058 -0.335882
1.28871 -1.11259 -0.688337
2.44972 -1.74986 -0.444152
1.12689 -0.857274 -0.648488
1.10725 -1.76037 -0.78213
2.91054 -2.18692 -0.318735
2.27559 -1.43117 -0.299608
1.75469 -0.667398 0.331779
2.43649 -1.67259 -0.0519809
2.28165 -2.29979 -0.732458
1.12704 -0.859767 -0.630254
2.47954 -1.90801 -0.420397
0.84465 -1.56292 -0.762461
1.8234 -2.86887 -0.751296
2.60241 -1.6666 -0.272869
2.58961 -1.74352 -0.355472
2.22468 -1.94 -0.661857
2.03537 -1.0162 0.343975
1.09928 -1.368 -0.804722
0.585168 -1.05501 -0.861995
2.20367 -1.71383 -0.560215
2.64879 -1.91417 -0.239732
1.67333 -1.97409 -0.757886
2.02208 -1.70407 -0.579115
2.13089 -1.08784 0.390917
1.05165 -0.571716 -0.455436
2.70447 -1.68511 -0.090978
2.92163 -1.63286 0.644276
2.05059 -0.636918 0.406932
1.86962 -2.24659 -0.771306
1.35866 -1.60463 -0.685099
2.33945 -1.60887 -0.219764
2.62549 -1.6774 0.387399
2.00928 -0.793653 0.837412
1.74705 -2.56799 -0.702486
1.65215 -0.594188 -0.00726706
0.653536 -1.19614 -0.576679
2.22671 -1.35538 -0.0363566
2.51516 -3.38727 -0.646952
2.50516 -2.7463 -0.723229
1.48598 -0.596849 0.561815
1.94898 -0.796897 -0.0986279
0.602325 -1.72738 -0.734881
2.79099 -2.33402 -0.444597
0.73872 -1.26384 -0.451326
2.71119 -2.58809 -0.549779
2.31964 -2.90231 -0.773314
1.37593 -1.06211 -0.601853
1.44298 -0.441628 0.0573539
1.06592 -0.705183 -0.53626
1.90168 -0.911864 -0.324538
1.16169 -0.731303 -0.556078
2.5638 -1.59716 -0.111293
0.855267 -0.570953 -0.553963
2.78168 -1.92971 0.575794
2.39025 -1.30112 0.746158
0.961238 -0.368532 -0.365859
1.36177 -0.38549 0.357514
1.90389 -2.2597 -0.730808
2.68793 -2.00716 -0.334757
2.61844 -1.48398 0.731296
2.83012 -1.74114 0.300819
1.63423 -1.16648 0.370885
2.67396 -1.71412 -0.185928
1.8004 -2.61614 -0.879727
0.595629 -1.63081 -0.538834
1.09169 -0.493565 -0.426457
0.961569 -0.367491 -0.347484
1.6615 -1.58135 -0.733862
1.52802 -0.64155 0.0370101
3.41211 -2.10112 0.893653
1.98046 -0.919216 0.686806
0.627017 -1.01429 -0.639203
1.7587 -0.961167 0.582318
0.960141 -0.557939 -0.441811
1.2389 -0.626091 -0.474562
2.12936 -1.11408 0.446384
1.76593 -1.0138 0.552088
2.12815 -2.06238 -0.503851
1.77278 -1.19796 -0.510652
0.958774 -1.87291 -0.783125
1.61269 -0.817542 0.425618
2.57923 -3.32267 -0.602273
1.6628 -0.654605 -0.292644
2.11848 -1.07892 0.534921
0.872078 -0.855392 -0.672187
1.21594 -1.6478 -0.611102
1.37625 -0.619468 -0.35429
1.14342 -0.66012 -0.519775
1.74179 -1.82409 -0.708188
1.40804 -1.48677 -0.805996
1.80998 -1.65003 -0.734034
2.57565 -1.969 -0.456998
1.6497 -0.621295 -0.20296
2.20307 -1.32932 -0.127305
1.52494 -1.34504 -0.763883
2.15477 -0.95409 0.0388777
1.94648 -0.726091 0.00099173
2.35006 -1.73065 -0.475907
1.92794 -1.91804 -0.707156
2.52092 -1.65294 -0.28319
3.47678 -2.2805 0.663326
3.02094 -2.30172 0.564996
1.13216 -0.342553 -0.255221
3.24584 -2.18223 0.771969
1.30051 -0.909431 -0.463582
0.809422 -0.567688 -0.562518
1.42264 -0.369466 0.406811
1.87908 -2.3379 -0.746457
2.33237 -2.39208 -0.639636
2.17676 -2.01849 -0.647306
1.57942 -2.28187 -0.690392
1.87698 -1.03082 -0.442258
2.8755 -2.01502 0.300771
0.969727 -0.412583 -0.387866
1.02322 -0.54665 -0.481355
1.90237 -1.62966 -0.704638
2.27165 -2.02483 -0.563167
2.17064 -1.14115 0.109011
1.94041 -2.15632 -0.820675
1.73268 -2.77432 -0.727174
2.42188 -2.6488 -0.570171
1.94226 -0.973917 0.0573461
1.70043 -0.593968 -0.261894
1.26313 -2.32892 -0.895604
1.83419 -0.873408 0.294826
2.31682 -2.72039 -0.707333
2.60378 -1.80967 -0.163763
2.87526 -1.75712 0.682455
1.47856 -0.239133 0.175287
1.35229 -1.87831 -0.549201
2.33839 -1.35868 0.0632296
2.51147 -3.23992 -0.603669
2.70073 -2.36173 -0.49467
1.09937 -0.614623 -0.507625
2.63882 -2.04831 -0.439119
2.34781 -1.31609 -0.289423
2.00572 -1.05112 0.707875
1.52511 -2.05341 -0.953909
2.08697 -1.44442 -0.381014
1.59369 -0.890735 -0.409286
1.27905 -1.97763 -0.684144
1.50977 -2.13586 -0.630309
2.54603 -1.37122 0.0373233
1.91566 -0.994012 -0.0516936
1.99809 -1.72097 -0.662582
1.84444 -1.78159 -0.751219
2.05284 -1.10192 0.62296
1.1419 -1.67048 -0.625376
1.97171 -1.5869 -0.600153
1.98894 -2.28487 -0.436178
2.54068 -2.9014 -0.488729
0.927027 -0.805553 -0.634726
1.51178 -0.67282 -0.0449309
1.79691 -0.696782 -0.163743
1.99439 -1.33805 -0.524469
2.5597 -1.88395 -0.102455
2.48075 -3.31867 -0.73842
1.52191 -1.481 -0.707321
2.89402 -2.18523 -0.234924
1.71653 -1.41228 -0.680322
1.70766 -0.912784 -0.425625
2.48877 -1.01633 0.252869
0.786387 -1.12893 -0.642293
2.18619 -1.80256 -0.585724
0.926098 -0.501362 -0.465583
2.1997 -3.19135 -0.66688
1.97729 -0.398503 0.203923
1.97083 -1.45617 -0.53377
2.21942 -2.63408 -0.786973
1.96687 -1.04813 0.293646
1.95195 -2.50378 -0.6904
2.44579 -1.37458 0.672751
2.85519 -2.12451 0.442554
1.17192 -1.06447 -0.746205
0.766092 -1.63069 -0.699178
2.3046 -2.22993 -0.724885
0.749746 -1.24855 -0.592258
1.7416 -1.05939 -0.368569
2.70911 -1.99229 0.0676808
2.52305 -2.56936 -0.570688
1.62261 -1.71258 -0.756243
2.58793 -2.37566 -0.577724
1.87985 -1.95289 -0.753423
1.79561 -2.55666 -0.676064
1.53466 -0.505417 0.380537
1.46994 -0.442233 -0.261429
2.05645 -1.21815 -0.304555
2.58501 -2.9151 -0.629223
2.19178 -1.40217 0.40606
2.47372 -3.08814 -0.596032
0.926886 -0.351794 -0.304492
2.30708 -3.08096 -0.622234
2.92939 -2.10056 0.13334
1.64231 -0.331641 0.140215
2.20861 -1.26925 -0.383358
1.03817 -1.57748 -0.763411
2.04364 -2.63152 -0.839154
1.514 -1.4988 -0.787668
2.76017 -1.95852 -0.138283
0.774939 -0.983121 -0.652285
1.26232 -0.401141 -0.310127
1.46843 -0.38815 -0.203742
2.15028 -2.33703 -0.78031
2.94787 -2.36525 -0.0941202
2.40864 -2.79754 -0.688438
3.22816 -2.19435 0.19306
1.51537 -2.16946 -0.748106
1.62124 -1.05655 -0.564132
2.92991 -2.09617 -0.15983
0.955832 -1.6636 -0.7245
2.67674 -1.68711 -0.116304
2.47019 -2.76868 -0.755257
1.30045 -0.755013 -0.143258
0.804636 -0.963214 -0.528354
2.62095 -1.67287 -0.21569
1.43398 -0.569168 -0.367459
2.47003 -1.63166 0.151361
0.79339 -0.64664 -0.554897
2.63311 -1.72835 0.0339515
1.99808 -1.313 -0.493132
0.571687 -1.40931 -0.670841
1.25426 -0.752052 -0.541653
2.32205 -1.35057 0.00940968
0.980048 -1.09625 -0.750106
2.51974 -1.92509 0.179273
1.77414 -2.14792 -0.514132
1.8493 -1.47112 -0.615613
1.23319 -0.501173 0.00746018
1.42244 -1.51281 -0.707546
1.48611 -1.24872 -0.706149
2.0525 -2.97848 -0.666586
2.07365 -1.33452 0.298904
2.41725 -1.22741 0.670147
2.17776 -3.49534 -0.804826
0.843834 -1.75849 -0.559541
0.595119 -1.50084 -0.887827
2.57375 -1.73181 -0.0378592
1.13829 -0.413384 -0.12214
1.58706 -0.58635 -0.0354722
1.69122 -1.14508 -0.566397
3.00615 -1.91382 0.263878
3.06278 -2.31407 -0.047676
2.94782 -1.94055 0.679471
1.49062 -1.10379 -0.662342
1.58599 -1.47497 -0.701631
2.54528 -2.81213 -0.614842
2.0981 -1.30744 0.254272
2.39339 -2.68479 -0.68608
2.05948 -0.784942 0.619965
2.66468 -2.29359 -0.479788
2.01591 -1.1693 -0.427158
2.61997 -1.69817 -0.270004
2.6626 -1.45989 -0.157945
3.35182 -2.68046 0.668725
1.80532 -0.898886 0.0705231
1.41032 -0.787702 0.0956916
0.829867 -1.50128 -0.918909
1.19676 -2.03843 -0.87052
1.234 -1.46135 -0.791676
1.71469 -0.825078 -0.0483339
2.02147 -1.19567 -0.0760061
1.93066 -1.71717 -0.715402
2.056 -1.73589 -0.656502
1.8161 -1.44583 -0.586159
1.98363 -1.39032 -0.557533
3.14407 -2.20267 0.436449
1.70788 -1.76262 -0.783723
0.963768 -0.576152 -0.478204
1.61234 -1.96199 -0.747558
0.931234 -0.825096 -0.663965
1.88039 -0.745832 0.656271
1.12469 -1.84692 -0.611676
2.49062 -1.65052 0.151509
1.42796 -0.321188 -0.118763
1.38845 -0.562641 -0.11314
1.86515 -0.428548 0.398181
1.63907 -1.13611 -0.586733
2.4727 -1.31532 0.576016
2.05847 -0.742818 0.732071
1.5186 -0.841557 -0.502701
2.21441 -1.48387 0.367273
0.9811 -1.79583 -0.739667
2.42119 -1.1708 0.468747
2.33568 -1.38158 -0.36238
0.944661 -0.370069 -0.287961
0.943661 -1.50622 -0.660411
2.33535 -1.70541 -0.493137
1.50071 -2.37854 -0.735615
0.608648 -1.56911 -0.551003
2.92076 -2.35801 -0.193781
2.30682 -1.35473 -0.361409
1.85774 -2.25644 -0.664206
1.86696 -1.10629 -0.20204
1.12661 -1.52374 -0.74643
2.30655 -1.83512 -0.419813
0.936035 -1.36193 -0.783691
1.11389 -0.442676 -0.371345
3.03011 -1.91905 -0.0307373
1.55586 -1.39946 -0.751215
2.43379 -1.74984 0.232808
2.72554 -1.59826 -0.110648
0.902712 -1.08004 -0.624344
2.66887 -1.51244 0.262618
1.23817 -0.95369 -0.632155
1.30251 -2.02125 -0.779146
2.98693 -1.92947 0.328059
2.05898 -0.975701 0.172593
2.67662 -2.18477 -0.450649
0.622127 -0.870823 -0.695114
1.82443 -0.981745 -0.094337
1.53269 -1.05453 -0.519655
2.16035 -2.08532 -0.748153
2.92675 -1.75904 0.440973
2.21256 -0.839688 0.529285
