ply
format ascii 1.0
comment Created by Open3D
element vertex 250
property double x
property double y
property double z
end_header
0.627432 0.755509 -0.936196
1.38333 -0.741403 -2.45971
0.963604 -1.54932 -1.83016
0.340684 -0.772333 -0.623683
0.773458 -0.897528 -0.647839
0.226292 -1.06426 -0.680612
0.663252 -0.231696 -0.00510809
1.20536 -2.03421 -2.65601
-0.248439 0.776985 -1.09334
-1.70106 0.330759 0.132816
0.327395 -0.32449 -0.150035
-0.705236 0.619972 -0.955062
1.17481 -2.49274 -3.63561
0.126575 0.472795 -0.694639
0.22824 -1.36823 -1.20552
1.32285 -0.266591 -1.55335
-0.95345 -0.0394937 -0.196843
0.896832 -0.572371 -1.22283
-0.154449 0.130829 -1.55088
0.725899 -0.182582 -0.528834
0.852584 -0.677821 -2.49505
0.901994 0.534291 0.440932
-1.29492 0.625346 0.411418
-0.619477 -0.187791 0.134608
0.790924 -0.420236 -1.08813
0.214863 0.4707 -0.999423
-1.43838 1.24575 0.0458937
0.13306 0.101653 0.399123
0.83545 -3.32153 -5.20944
-0.148732 -0.0407307 0.22322
-1.27073 1.66509 -0.754689
-1.68311 0.618292 0.315975
-0.610835 0.825742 0.141976
-0.786317 -0.337523 0.00604477
0.119134 0.609179 -1.04066
-0.530369 0.492191 0.0380329
0.535109 -0.631995 -1.07232
1.26257 -2.19966 -5.08234
0.590128 -3.13473 -6.0626
1.21812 -0.950242 -1.48574
1.19925 -2.9818 -5.824
-1.23569 1.15207 -0.306933
1.07895 -0.603834 -1.26502
1.41843 -0.984834 -1.63268
-0.917789 -0.0884006 -0.193125
1.54636 -2.15999 -3.79351
0.689397 -0.938021 -0.972602
1.53438 -2.12602 -4.16636
1.01403 -2.48052 -5.73711
-0.48115 0.582152 -0.926997
-0.206361 0.740176 0.0830932
0.852237 -1.37335 -4.08178
0.99642 -2.20709 -6.39799
1.04882 -2.55094 -4.38415
1.12827 -1.10909 -1.10302
1.21536 -2.17337 -3.02744
-0.549833 -0.34196 0.040693
-0.431327 -0.40741 -0.0922104
0.0996435 0.980322 -0.580486
0.174272 -0.450627 -0.493068
1.29455 -2.99645 -5.23861
1.31379 -2.17682 -4.38032
1.47506 -2.108 -3.80407
1.28369 -2.26707 -3.29935
0.732562 -0.230655 -0.658718
1.11074 -2.72495 -5.38906
0.261315 -0.0142559 -0.873086
1.00007 0.0751648 -1.21862
-0.578376 1.09446 -0.100062
1.04859 -2.2684 -6.20759
1.5891 -1.87981 -3.43345
0.1913 0.365944 0.123571
0.774297 -2.00694 -2.64161
-0.668631 0.512309 -0.584101
-0.0747379 -0.983575 -0.619507
-0.181059 -0.31187 -0.193127
1.54088 -1.40387 -3.59037
1.68094 -2.16418 -5.12425
-1.57546 0.83702 -0.133965
0.93796 -0.0902223 -1.80431
-1.17941 0.246383 0.201148
0.550033 -0.298503 -0.458727
-0.603404 0.694186 -0.968075
0.608384 0.150555 -0.0920136
0.400304 0.151871 -0.358224
0.218968 0.298645 0.362947
0.961362 -0.976298 -0.878329
0.919697 -0.0953486 -1.61893
-0.780472 1.63547 0.856752
0.236341 -1.23812 -0.924505
0.900819 -2.19905 -3.03379
1.56761 -2.06706 -3.61425
0.45353 -0.774997 -0.670379
0.31767 1.05768 0.310888
1.05326 -1.65892 -2.73956
0.111806 -0.810385 -0.342919
0.266565 -0.402033 -0.338402
0.239078 0.26738 -0.0897938
-1.47268 0.834429 0.202856
0.587919 -0.428484 -1.97881
-0.760482 0.522062 -0.432182
1.44287 -1.28406 -2.68584
1.50126 -0.754427 -1.51475
-0.0080961 0.286465 -0.637738
0.601507 0.345967 -1.25917
0.935665 -0.535954 -0.62077
0.757938 -0.337235 -1.77752
1.03793 -1.37468 -1.35549
-1.72204 0.698491 0.121049
0.849731 -2.41665 -3.0842
0.840035 -0.96852 -1.36134
1.30451 -0.779219 -1.85523
0.58549 -0.293983 -2.24644
0.910914 -2.21198 -3.17666
1.85017 -0.774074 -2.39991
-0.467916 0.833954 -0.775224
1.2771 -2.41464 -3.66333
-1.9831 0.800547 -0.639551
1.0027 -1.59666 -1.72365
1.26701 -1.18815 -4.22866
1.30549 -0.872161 -3.09439
-0.859031 0.978535 0.309253
1.46359 -1.25363 -1.86392
1.34935 -2.03566 -5.10446
-0.833964 0.845878 0.285412
1.3402 -1.93877 -5.16312
-1.19969 1.52316 0.0138848
-1.31114 0.880979 -1.24716
-1.73439 0.49656 -0.106575
1.30955 -0.936915 -2.61181
-0.594087 0.942587 -0.243508
0.750599 -0.386004 -1.34522
-0.640548 1.48756 -0.243722
1.17353 -2.72693 -4.37484
1.42456 -2.10045 -4.58347
-0.784511 1.16669 -0.817114
0.829224 -0.216138 -0.459018
1.19116 0.224009 -0.322986
1.42388 -1.01058 -3.04674
1.20468 -2.55687 -5.80316
-0.45911 0.483002 0.0663227
1.27746 -1.48035 -1.95159
0.654422 -0.305365 -2.18066
1.14208 -2.82082 -4.43182
0.910335 -1.1766 -1.53385
1.29456 -1.57708 -2.40654
0.11228 -0.60577 -0.667223
1.63757 -0.402214 -1.32558
-0.852274 0.414025 0.424412
1.02956 -3.13962 -5.3881
1.29809 -2.29783 -5.97922
1.20122 -1.88644 -2.5068
-1.08838 -0.101098 -0.100489
0.141731 0.390208 0.475575
1.63952 -1.26173 -2.83056
-1.18013 -0.861299 -0.498486
-0.0841586 -0.440239 -0.563032
0.920985 -0.644321 -0.305318
-0.429564 0.979383 0.0697668
0.827097 -1.02727 -2.04362
-1.6638 0.0240205 -0.215016
-0.208555 0.583849 0.0366381
-0.962001 0.51459 -0.962373
1.2028 -1.30115 -2.02133
-0.994797 0.455655 0.043423
-0.661053 1.0163 0.358862
1.34064 -0.546757 -1.79843
1.57544 -1.68285 -2.52015
-0.160343 0.703538 0.136481
1.53932 -1.15693 -2.73538
0.925262 -3.20749 -5.9957
1.03356 -2.07967 -3.54425
1.33924 -1.53792 -3.68097
0.110519 0.478901 -1.1915
0.837836 -0.423448 -0.651328
0.501872 0.329247 -0.793189
0.810852 -0.607295 -1.49059
0.654059 -0.768011 -0.717173
1.16231 -0.18746 -1.67833
-1.54175 0.792882 -1.23152
1.04308 -0.555202 -0.69958
1.06948 -0.7549 -1.49696
1.11245 -1.47452 -2.09823
0.383944 0.229547 -0.107284
0.986379 -2.68321 -5.37103
1.52116 -2.01236 -3.6837
0.21576 0.606192 -0.370153
-1.4845 0.750205 -1.03956
-1.39229 0.618507 -0.418058
0.729607 -2.71958 -3.61952
-1.88166 0.908167 -0.893368
-0.902668 1.17434 -0.974356
-0.222756 0.304357 -0.802115
0.735503 -3.35607 -5.40953
0.825419 -2.98646 -4.64726
-1.52847 0.639356 -0.449757
1.33508 -0.617414 -2.06639
-0.809776 0.246052 -0.0350845
-1.08063 0.0322285 0.0305382
-0.498476 -0.399535 -0.081217
-1.64213 1.52128 -2.27418
-0.186908 1.04337 -1.44881
-1.62174 1.066 -4.9931
-3.41703 1.19056 -5.63253
-3.8102 2.25771 -7.31171
-4.39856 1.48775 -7.42847
-1.49664 1.19832 -2.09513
-3.10795 0.864543 -5.42171
-1.5878 1.22821 -4.56597
-0.642228 1.05923 -2.56294
-1.09074 0.858738 -1.77177
-0.764807 1.49465 -2.98342
-0.878479 1.4271 -1.40266
-1.17109 1.21068 -2.00628
-2.02911 0.731642 -5.4025
-1.85069 1.06917 -4.6301
-1.54649 1.41938 -1.7085
-2.45843 1.47091 -5.92669
-2.78087 1.59032 -4.05813
-2.26179 1.71251 -4.71034
-3.8464 1.1133 -7.63159
-1.15565 1.23682 -1.97232
-3.06636 1.48219 -4.46822
-2.39666 1.60134 -3.21401
-3.87735 1.22156 -8.00332
-4.33033 1.68781 -7.94
-1.10021 1.67741 -2.25827
-1.83002 1.08074 -5.59026
-4.2868 1.27064 -7.31604
-0.189041 0.847291 -1.44023
-2.63211 1.35759 -6.12223
0.154268 1.34718 -0.997309
-0.0493803 1.19182 -1.3713
-3.93745 1.91538 -6.99886
-3.54776 1.44129 -6.35559
-2.46861 1.01955 -6.40654
-3.16597 1.50825 -4.66658
-3.30001 0.926021 -4.27148
-2.34787 1.84567 -3.00182
-0.542994 1.03241 -1.74015
-1.59856 1.55524 -3.12186
-3.05386 1.50124 -7.43402
-3.60763 1.82356 -5.6548
-4.24055 1.72371 -8.20439
-1.39204 0.964453 -3.6916
-3.81735 1.60495 -6.38869
-0.71098 0.597294 -2.3534
-3.89884 1.16044 -7.68317
-4.12006 1.51569 -7.51668
-1.79505 1.68095 -3.53383
