ply
format ascii 1.0
comment Created by Open3D
element vertex 250
property double x
property double y
property double z
end_header
0.558649 1.61873 -0.186584
-0.225353 3.13415 0.648143
-0.676502 2.04611 1.02378
-0.616475 0.445536 0.26342
-0.298803 1.20881 1.00202
-0.459061 0.547575 0.608707
-0.03844 0.72928 0.70549
-0.11251 3.42571 1.91035
0.698559 0.896811 -0.799686
1.81777 -0.50454 0.0917183
-0.220898 0.338854 0.327808
0.569098 0.238219 -1.04002
0.0643781 4.29933 2.14974
0.192118 0.674485 -0.503317
-0.961711 0.561827 0.265144
-0.191028 2.38143 0.487929
0.210287 -0.708644 -0.557833
-0.625874 1.40552 0.22417
-0.0677734 0.817237 -0.926785
-0.370595 0.876274 0.190055
-0.454454 2.39077 -0.0409138
0.411056 0.892496 0.660344
1.84756 -0.294371 0.221083
0.567214 -0.258768 0.307064
-0.573112 1.21228 0.0849458
0.223832 1.00436 -0.525793
2.05635 -0.150852 -0.496271
0.492156 0.248332 0.59999
0.347189 5.4088 2.413
0.347169 -0.0226368 0.337511
2.3648 0.745373 -0.847295
2.33256 -0.249933 0.344243
0.986573 -0.114862 -0.373072
0.506607 -0.369002 0.23448
0.413576 1.05663 -0.586672
0.555554 -0.241162 -0.395147
-0.774761 0.8054 -0.0610292
0.15701 5.40289 1.42058
-0.378243 5.105 1.0309
-0.561977 2.05704 0.820424
0.605431 6.36273 2.32059
1.61094 -0.0346022 -0.791946
-0.554977 1.6935 0.442388
-0.409911 2.5029 1.08873
0.16652 -0.698806 -0.517917
0.225274 4.8707 2.16106
-0.709054 1.01639 0.478268
0.187402 5.07612 1.93468
0.137973 5.62573 1.25666
0.454989 0.374066 -0.925433
0.668264 0.11769 -0.293941
-0.308114 3.73535 0.205263
0.725078 6.48266 1.23157
-0.37959 4.32877 1.41566
-0.283713 1.95558 1.32684
-0.139828 3.6966 1.89409
0.409535 -0.217161 0.341193
0.0448679 -0.282052 0.113015
0.820031 0.976567 -0.441019
-0.539525 0.176276 -0.0802508
0.96285 6.35647 2.96534
-0.0922037 4.76943 1.48276
0.0225276 4.62659 1.86264
0.0387808 4.11993 2.10118
-0.426347 0.936764 0.143791
0.0928663 5.50249 1.68375
-0.331381 0.612802 -0.436128
-0.0881316 1.82162 0.109874
1.20068 0.206555 -0.532514
0.600462 6.31896 1.2964
0.0413066 4.46468 1.86947
0.232673 0.236749 0.0175397
-0.989291 2.23644 0.760752
0.424222 -0.0732779 -0.885255
-0.565843 0.0802431 0.223763
-0.221693 -0.179858 -0.0844582
-0.00270334 4.3906 1.22706
0.80346 6.398 2.27237
1.55674 -0.499102 -0.694515
-0.0978079 2.18167 -0.000835759
1.15429 -0.514087 -0.00868829
-0.428506 0.615583 0.155539
0.643105 0.401705 -0.979614
-0.0519864 0.643344 0.212811
-0.132826 0.53696 -0.123406
0.385089 0.239299 0.343402
-0.370364 1.52586 1.07008
-0.170808 1.97669 -0.00301968
2.54118 0.314758 0.347384
-0.670161 0.588689 0.511052
-0.774613 2.85343 1.10145
0.175386 4.7116 2.10339
-0.623835 0.593102 0.32573
0.885183 0.636487 0.0509651
-0.799736 2.68766 0.736334
-0.127813 0.411849 0.690266
-0.407633 0.266593 0.119155
0.051179 0.306496 -0.0924513
1.79799 -0.423568 -0.261171
-0.495159 1.67048 -0.337616
0.500267 -0.216148 -0.835005
-0.368959 3.34401 1.0471
-0.325993 2.5333 1.03003
-0.00443277 0.368406 -0.564562
0.146589 1.55905 -0.276753
-0.426379 1.18894 0.634385
-0.413145 1.7632 -0.152463
-0.249225 2.11252 1.47271
1.90144 -0.523872 -0.241541
-0.487256 3.10964 1.53706
-0.804963 1.3727 0.38268
-0.463909 2.44884 0.648454
-0.253353 2.02112 -0.365727
-0.79815 2.94571 1.04493
0.100895 3.86499 1.35516
0.778917 0.497263 -0.825788
0.109951 4.44954 2.17452
1.56482 -0.57558 -1.15307
-0.396044 2.25204 1.40207
0.246433 4.69433 0.770243
-0.101134 3.6128 0.592328
1.43089 -0.165231 -0.248166
-0.312351 2.84238 1.4057
0.329349 5.61854 1.46109
1.26188 -0.232936 -0.253045
0.395205 5.68324 1.38883
2.20859 0.195656 -0.484322
1.1934 0.244127 -1.31383
1.40721 -0.742249 -0.57922
-0.352301 3.09504 0.623789
0.98587 0.143784 -0.636635
-0.54922 1.358 -0.0608377
1.7567 0.611988 -0.542732
0.159269 4.92844 2.19288
0.144468 5.20456 1.62178
1.36687 0.598002 -0.893519
-0.338931 0.971518 0.359551
0.0103935 1.46267 0.538181
-0.139384 3.7034 0.811431
0.431743 6.12907 1.7236
0.529068 -0.20385 -0.345116
-0.403066 2.67423 1.38873
-0.272626 2.03651 -0.293756
0.30623 5.07172 2.38096
-0.799693 1.6119 0.59275
-0.501929 2.94351 1.23441
-0.699392 0.130208 -0.177363
-0.133812 2.63594 1.00961
1.25027 -0.271786 0.234771
0.365537 5.71832 2.31233
0.732026 6.54246 1.72502
-0.338097 3.1065 1.60277
0.422023 -0.735282 -0.361851
0.563788 0.206184 0.396519
-0.124608 3.84807 1.33778
-0.0797029 -0.81741 -0.241567
-0.580955 -0.0884985 -0.350498
0.0522017 1.36685 1.30073
1.02874 0.132807 -0.389715
-0.865745 1.78911 0.111041
0.856644 -0.945567 -0.572738
0.49501 0.037507 -0.306976
0.510245 -0.0589551 -1.17768
-0.639112 2.41488 0.899241
0.826641 -0.515451 -0.45419
1.35357 -0.0572524 -0.191039
-0.322352 2.51749 0.581309
0.0480523 3.79005 2.01616
0.634393 0.110166 -0.230645
-0.228568 3.57019 1.09385
0.250946 5.94366 1.96195
-0.706841 3.37726 0.935713
-0.225049 4.0826 0.978548
0.280489 1.06861 -0.636398
-0.473801 1.04423 0.38639
0.0256104 1.0377 -0.261189
-0.676923 1.46246 0.0445711
-0.582196 0.872612 0.488403
-0.157848 2.30631 0.264953
1.16245 -0.0215174 -1.41561
-0.414348 1.37174 0.715316
-0.629168 1.81212 0.436076
-0.699105 2.35639 0.929934
-4.24354e-05 0.439715 0.00243344
-0.129999 5.16757 1.34923
0.0265945 4.5778 1.84698
0.326748 0.630411 -0.32674
1.07052 -0.157994 -1.33615
0.973858 -0.537812 -0.971467
-0.56692 3.34337 1.48426
1.55951 -0.31835 -1.29577
1.44257 0.639126 -0.982735
0.045397 0.287924 -0.763494
-0.0457314 5.12672 1.93597
-0.3545 4.37636 1.62897
1.08189 -0.5785 -1.00917
-0.301752 2.72605 0.565417
0.461866 -0.517872 -0.458484
0.670003 -0.641934 -0.218555
0.098579 -0.319536 0.107858
2.62714 1.63091 -1.33104
1.1747 1.54041 -0.739452
3.27592 4.13464 -1.3091
4.25304 3.4171 -2.14359
7.50359 6.57504 -1.25191
6.24245 5.15295 -2.07863
1.96407 1.18973 -1.41679
3.43504 3.00433 -2.23287
3.27849 3.84801 -1.28505
1.73143 2.26531 -1.02607
1.18709 0.839545 -1.33726
2.68685 3.11174 -0.869469
1.92056 1.29684 -0.963031
1.85038 1.38306 -1.25499
2.99826 3.81951 -1.67579
3.07362 3.47532 -1.52658
2.24265 1.05347 -1.281
4.74409 4.98975 -1.38779
3.9397 2.68566 -1.75758
4.3651 4.01071 -1.3648
5.51443 5.36736 -2.01483
1.87694 1.3927 -1.23341
4.0473 2.76964 -1.91989
3.42822 2.10114 -1.61756
5.99428 5.95729 -1.85942
6.95999 6.11989 -1.78339
2.7119 2.23889 -1.00623
3.72783 4.68493 -1.30189
5.71138 4.8075 -2.20709
0.883821 1.33492 -0.796431
4.69708 4.92196 -1.51797
1.42406 1.73876 -0.399396
1.34966 1.74733 -0.60283
6.65852 5.60574 -1.63569
5.21075 4.50079 -1.91441
4.25375 4.99929 -1.5553
4.23441 2.94566 -1.92883
3.00916 1.65151 -2.37948
3.76767 2.23509 -1.44535
1.32006 1.47866 -0.976309
3.0353 2.58371 -1.29403
5.9703 6.37481 -1.33622
5.53987 4.14741 -1.78699
7.19297 6.57955 -1.64472
2.26934 2.69107 -1.43923
5.62651 4.53959 -1.92208
0.915458 1.4769 -1.2533
5.65191 5.44881 -1.99843
6.27568 5.53349 -1.90369
3.52184 3.02574 -1.29094
