ply
format ascii 1.0
comment Created by Open3D
element vertex 250
property double x
property double y
property double z
end_header
-0.38488 -0.659153 0.916003
-2.20991 -1.65698 -0.316898
-2.02769 -1.21596 -1.22882
-0.948552 -0.356171 -0.658616
-0.929852 -0.314679 -0.729638
-0.884648 -0.479882 -0.954404
-0.2658 0.180385 -0.15137
-2.34387 -1.96128 -1.5943
-0.114114 -1.06516 0.851829
1.74555 -0.678894 0.115138
-0.365374 -0.00994169 -0.266946
0.0286678 -1.06649 0.629421
-2.89436 -2.84368 -1.94932
-0.315911 -0.552005 0.553665
-1.5447 -0.845624 -1.19993
-1.54945 -0.898085 0.0511805
0.306212 -0.477059 -0.129306
-1.49156 -0.684423 -0.33446
-0.953168 -1.32029 0.272044
-0.807258 -0.177924 -0.0412319
-2.18831 -1.79514 -0.311964
0.283074 0.583522 0.586664
1.83731 -0.319114 0.42439
0.601852 -0.175145 -0.271475
-1.32521 -0.603441 -0.210439
-0.518103 -0.786831 0.593418
1.8418 -0.668822 1.05842
0.509593 0.29043 0.074378
-3.69478 -4.34939 -2.64437
0.389893 0.0805078 -0.080709
1.50896 -1.32081 1.575
2.18929 -0.595805 0.382149
0.957224 -0.185717 0.729856
0.523685 -0.327771 -0.425408
-0.38638 -0.874633 0.72333
0.576079 -0.191611 0.420578
-1.37331 -0.639612 -0.450895
-3.74897 -4.02697 -1.49972
-4.56166 -4.99465 -2.39973
-1.76332 -0.843262 -0.643216
-4.0122 -4.78522 -2.20294
1.28064 -0.832023 1.02607
-1.53874 -0.681525 -0.340051
-1.83478 -0.937039 -0.638951
0.265993 -0.458659 -0.173854
-2.98487 -2.87928 -1.56118
-1.35376 -0.540063 -0.745641
-3.23469 -3.18554 -1.49037
-4.12117 -4.65675 -1.73814
-0.097903 -0.960734 0.615184
0.591567 -0.0674727 0.698446
-3.17386 -3.18318 -0.834666
-4.15631 -5.30206 -1.40175
-3.59336 -3.42997 -1.94376
-1.34514 -0.606929 -0.850283
-2.61178 -2.27121 -1.69211
0.41078 -0.214156 -0.405915
0.0661963 -0.230561 -0.442957
0.188757 -0.547464 1.03991
-0.73312 -0.291101 -0.373692
-3.46474 -4.33268 -2.26709
-3.46827 -3.38111 -1.54391
-3.08272 -2.87014 -1.51695
-2.70952 -2.51505 -1.7486
-0.929206 -0.277246 -0.0744738
-3.98552 -4.34361 -2.00443
-0.832303 -0.596533 0.106797
-1.13716 -0.710953 0.316606
0.948749 -0.401665 1.0241
-4.13337 -5.10952 -1.47596
-2.85143 -2.51899 -1.31672
0.1913 0.136868 0.370826
-2.70989 -1.91746 -1.61866
0.153612 -0.726587 0.488908
-0.802939 -0.492158 -0.915938
-0.226319 -0.191027 -0.309017
-2.91096 -2.63054 -0.8359
-3.52572 -4.05356 -1.41194
1.4352 -0.792524 0.657518
-1.50889 -1.22499 0.206722
1.21808 -0.360096 0.0854008
-0.752213 -0.165916 -0.183401
0.0388279 -1.05715 0.715879
-0.270833 0.115002 0.228869
-0.418499 -0.152715 0.233628
0.416147 0.31428 0.282715
-1.18666 -0.44486 -0.761742
-1.42984 -1.0629 0.180346
2.46581 0.132787 1.43559
-1.18444 -0.652892 -1.09965
-2.89127 -2.25664 -1.75316
-2.89864 -2.70974 -1.48548
-1.0193 -0.361624 -0.643311
0.725953 0.252073 1.04923
-2.714 -1.93378 -1.23241
-0.412453 -0.275334 -0.751976
-0.582692 -0.156036 -0.331039
-0.0761816 -0.000979876 0.301161
1.75625 -0.524324 0.631923
-1.77508 -1.41952 -0.149862
0.325141 -0.63894 0.472123
-2.51319 -1.83264 -0.822569
-1.7138 -0.817165 -0.413979
-0.371854 -0.518628 0.348127
-0.866134 -0.885878 0.542007
-1.00322 -0.203676 -0.356418
-1.64558 -1.21215 -0.0608741
-1.48213 -0.863991 -1.09697
1.83276 -0.689675 0.477157
-2.75931 -2.37557 -1.96889
-1.70749 -0.806195 -0.71798
-1.94839 -1.13501 -0.425985
-1.78596 -1.67893 0.0103958
-2.99982 -2.36959 -1.74996
-2.13468 -1.53215 -0.301273
0.211091 -0.873592 0.84965
-2.91001 -2.84129 -1.85744
1.25024 -1.33504 0.626575
-1.81252 -1.16763 -1.28215
-3.05427 -3.27426 -0.5885
-2.52466 -2.23811 -0.389354
1.42181 -0.18713 0.834546
-1.96553 -1.14874 -0.87529
-3.67218 -4.042 -1.3254
1.28494 -0.177279 0.708925
-3.65713 -4.09997 -1.22468
1.86291 -0.638881 1.36343
0.437851 -1.57993 0.847059
1.38026 -0.807296 0.299957
-2.37714 -1.79336 -0.5028
0.720712 -0.496366 0.887168
-1.45636 -0.83203 -0.154666
1.24804 -0.616018 1.41995
-3.32799 -3.49054 -2.10422
-3.48445 -3.55641 -1.43462
0.669809 -1.08484 1.1458
-0.781668 -0.0973433 -0.0696318
-0.561337 0.0823925 0.392977
-2.57018 -2.16506 -0.517274
-4.05915 -4.7129 -1.78466
0.554116 -0.143379 0.416845
-2.03748 -1.27161 -1.11174
-1.77952 -1.60144 0.000338663
-3.2766 -3.57801 -2.19475
-1.85762 -0.942166 -0.897489
-2.39816 -1.6344 -1.15814
-0.933324 -0.434555 -0.516054
-1.48865 -0.634929 -0.0698867
1.32654 -0.0876474 0.265803
-3.84064 -4.4363 -2.42364
-3.99597 -4.87193 -1.49977
-2.36642 -1.79031 -1.46421
0.529486 -0.475843 -0.215853
0.627367 0.359677 0.352486
-2.52159 -1.93877 -0.762755
-0.0671862 -0.787192 -0.936081
-0.716548 -0.415849 -0.386159
-0.528221 -0.0344114 -0.497974
0.893727 -0.193134 0.910134
-2.17514 -1.37206 -0.7068
0.914353 -0.806245 -0.147267
0.444327 -0.0848527 0.548623
0.0617935 -1.14161 0.496298
-2.17793 -1.30016 -0.93611
0.886892 -0.369991 0.32997
1.34694 -0.0732772 0.889701
-1.81646 -1.0896 -0.198081
-2.24711 -1.75096 -1.21839
0.586396 -0.00570765 0.66207
-2.47955 -1.86416 -0.680693
-4.26428 -4.95706 -2.4398
-3.20351 -2.65024 -1.56695
-3.04783 -2.7322 -0.982271
-0.570837 -0.986669 0.609302
-1.00694 -0.242889 -0.253458
-0.613413 -0.505043 0.465668
-1.66608 -0.925567 -0.351177
-1.08865 -0.350084 -0.608301
-1.54812 -1.05009 0.123662
0.495216 -1.63236 0.731661
-1.0827 -0.2418 -0.354803
-1.74138 -0.872988 -0.466323
-2.25053 -1.38907 -1.10986
-0.168527 0.032958 0.282424
-4.06106 -4.32284 -1.97945
-3.0095 -2.75198 -1.4296
-0.047028 -0.271964 0.662129
0.53875 -1.44179 0.676277
0.829429 -0.886495 0.4925
-3.13615 -2.8593 -2.22657
1.06545 -1.51113 0.770961
0.654709 -1.26293 1.15591
-0.374283 -0.725274 0.357913
-4.02412 -4.47796 -2.66926
-3.71706 -3.74158 -2.37264
0.919761 -0.969906 0.500551
-1.97865 -1.32234 -0.240759
0.539843 -0.329617 0.152613
0.769957 -0.400622 -0.0968889
0.12752 -0.249667 -0.444122
0.81254 -2.74992 1.54724
-0.0489014 -1.41363 1.15883
-0.57102 -5.15269 1.38148
0.200412 -6.3668 1.36222
1.30262 -8.39542 2.54399
0.594839 -8.48158 1.72753
0.4525 -2.45953 1.2267
-0.284684 -5.97588 1.05438
-0.294547 -4.77805 1.50139
-0.272047 -2.57152 1.23699
0.029637 -1.95479 0.905031
0.112939 -3.10224 1.69623
0.685857 -1.684 1.45267
0.336707 -2.27127 1.26751
-0.895402 -5.58062 1.04641
-0.387099 -4.87959 1.32047
0.899957 -2.18808 1.39915
0.0227762 -6.40851 1.78076
0.841876 -4.79314 1.66785
0.526332 -5.25691 1.91628
-0.181956 -8.38492 1.44294
0.371504 -2.24175 1.2916
0.728691 -5.2422 1.57038
0.947594 -3.88762 1.63597
-0.111214 -8.78267 1.58469
0.695294 -9.00441 1.98591
0.712701 -2.58761 1.76269
-0.610888 -5.78967 1.43365
0.292848 -8.27399 1.51451
-0.235151 -1.36652 0.964076
-0.0835248 -6.61945 1.66894
0.303616 -0.96622 1.45169
0.0740751 -1.33221 1.31337
1.006 -8.04065 2.15884
0.379519 -7.16283 1.66942
-0.613048 -6.75019 1.38356
0.74941 -5.46789 1.60508
0.257124 -4.99248 0.973731
1.29148 -3.74296 1.86092
-0.0318818 -1.78521 1.13684
0.509103 -3.51508 1.67359
-0.00537832 -8.05174 1.89753
1.07482 -6.63216 1.9674
0.640957 -9.2384 2.05913
-0.431233 -3.82869 1.17319
0.709099 -7.33209 1.80314
-0.648059 -2.29776 0.751178
-0.111236 -8.46466 1.48873
0.471255 -8.47964 1.79657
0.614099 -3.99417 1.81755
