ply
format ascii 1.0
comment Created by Open3D
element vertex 250
property double x
property double y
property double z
end_header
0.00106039 -0.895627 -0.0750802
1.10457 -2.22486 -1.44739
1.35631 -1.61057 -1.4487
0.371334 -0.522641 -0.807745
1.17026 -0.514084 -0.636613
0.71903 -0.589044 -0.66589
0.780938 0.0701285 -0.159841
2.39148 -2.4038 -1.34873
-0.68552 -1.14424 0.153797
-0.0682397 -0.137329 1.89822
0.380648 -0.0937197 -0.299203
-0.994104 -1.04522 0.201476
2.758 -3.35666 -1.5793
-0.405857 -0.685807 -0.168464
0.430859 -1.06793 -1.28761
0.821464 -1.36295 -1.05338
-0.632321 -0.296757 0.289183
0.463387 -1.05508 -1.18143
-0.757644 -1.52635 -0.665212
0.32711 -0.419241 -0.665073
0.354834 -2.30374 -1.54704
0.708872 0.486297 0.31898
0.0684331 0.165468 1.94349
0.23993 0.0469305 0.659536
0.295419 -0.941263 -1.06669
-0.380542 -0.975166 -0.284776
-0.622843 -0.231911 1.97288
0.577212 0.376056 0.541765
3.19487 -4.91422 -1.88846
0.303478 0.187087 0.411779
-0.855216 -1.02078 1.85143
0.173388 0.0106101 2.38664
-0.442822 0.00728815 0.970909
0.165199 -0.0881266 0.596039
-0.4438 -1.03777 -0.129763
-0.450102 -0.0562708 0.566358
0.117057 -0.936321 -1.16789
2.2138 -4.76919 -2.12382
1.86882 -5.74068 -2.79831
1.13372 -1.27134 -1.28684
3.21964 -5.49757 -2.01223
-0.863479 -0.531435 1.4205
0.708992 -1.08028 -1.17554
1.44636 -1.40048 -1.25994
-0.589432 -0.286124 0.248943
2.82909 -3.48971 -1.59826
0.666881 -0.818333 -1.0921
2.64553 -3.85317 -1.78132
2.10593 -5.42331 -2.34673
-0.860837 -0.988849 0.0740705
-0.319268 0.0081564 0.603338
0.808045 -3.83687 -2.0488
2.17129 -6.10399 -2.13616
2.09085 -4.07577 -2.22721
1.59286 -0.91648 -0.874474
2.42287 -2.7594 -1.52032
0.291143 -0.0258115 0.481709
0.0836086 -0.124244 0.102547
-0.350945 -0.620996 0.386479
-0.00885455 -0.424708 -0.66873
3.81276 -4.93436 -1.49411
2.189 -4.06918 -2.05471
2.51818 -3.49902 -1.75864
2.67658 -3.02319 -1.49352
0.296648 -0.541103 -0.764147
2.50318 -5.06575 -2.252
-0.309164 -0.807856 -0.685595
0.365202 -1.0838 -0.778221
-0.56715 -0.242664 1.03297
2.21615 -5.90572 -2.17003
2.48964 -3.13373 -1.62304
0.0245579 0.118583 0.191316
1.16972 -2.39256 -1.9853
-0.882997 -0.670448 0.229644
0.289757 -0.557075 -0.67161
-0.0822888 -0.187295 -0.214811
1.85362 -3.30243 -1.73221
3.13291 -4.79933 -1.68981
-0.82164 -0.386042 1.52722
0.32124 -1.65545 -1.00727
-0.135907 0.0155433 1.27198
0.264786 -0.362784 -0.644406
-0.920013 -1.05316 0.234185
0.287401 -0.029909 -0.210092
-0.0412047 -0.306374 -0.344161
0.32905 0.349141 0.413017
1.2863 -0.714047 -0.825652
0.292565 -1.47316 -0.988131
0.201206 0.590509 2.55974
0.649134 -0.810792 -0.936716
1.58037 -2.7666 -1.98584
2.74929 -3.31318 -1.57415
0.451569 -0.556311 -0.85579
0.0566373 0.263888 0.758564
1.18813 -2.47833 -1.93767
0.751964 -0.294365 -0.238606
0.18454 -0.272343 -0.516308
-0.0575076 -0.073097 -0.0529119
-0.411901 -0.0589857 1.84498
-0.0383859 -1.83262 -1.32519
-0.859545 -0.535629 0.373358
1.54123 -2.41738 -1.65086
1.38143 -1.28757 -1.16744
-0.491436 -0.629563 -0.274147
-0.0576942 -1.18204 -0.529108
0.808955 -0.475262 -0.778245
0.141712 -1.62582 -1.21253
1.76413 -1.1658 -0.920788
-0.405106 -0.164969 1.95325
2.02692 -2.82845 -1.74896
0.633248 -1.17635 -1.36047
1.01665 -1.63181 -1.38069
-0.0295652 -2.10864 -1.23841
1.54199 -2.90325 -2.06549
1.86437 -2.13406 -1.24517
-0.773249 -0.861944 0.393276
2.79752 -3.37764 -1.57649
-1.26239 -0.918931 1.41096
1.73379 -1.51485 -1.17805
1.44839 -3.96939 -1.73916
1.12278 -2.85311 -1.58332
-0.356081 0.119945 1.45336
1.80269 -1.61834 -1.2725
2.26881 -4.79463 -2.01345
-0.357912 0.110894 1.30305
2.20314 -4.85846 -1.98456
-0.580566 -0.253826 2.02735
-1.28592 -1.42752 0.713882
-0.72645 -0.358974 1.45931
1.09003 -2.36906 -1.59283
-0.659007 -0.369616 0.804592
0.176805 -1.19778 -1.14525
-0.557439 -0.425943 1.43404
2.89696 -4.07477 -1.79404
2.37012 -4.26914 -1.96655
-0.85975 -0.971631 0.916507
0.500671 -0.341399 -0.629846
0.705543 -0.201021 -0.373897
1.34989 -2.78914 -1.61437
2.6105 -5.4802 -2.16534
-0.396281 -0.0200253 0.541815
1.77669 -1.71198 -1.33744
0.0415738 -2.0364 -1.24104
3.09363 -4.1378 -1.68525
0.875033 -1.33179 -1.4331
1.6786 -2.146 -1.60577
-0.0935519 -0.588745 -0.854491
1.35311 -1.10836 -0.971236
0.116379 0.256835 1.37046
3.13537 -5.0745 -1.99269
2.64802 -5.66355 -2.01662
2.05737 -2.2523 -1.47994
-0.456588 -0.224852 0.534398
0.363347 0.440067 0.619903
1.8772 -2.55065 -1.54775
-0.300575 -0.57709 0.00178452
-0.3001 -0.517245 -0.67978
1.44901 -0.189183 -0.244074
-0.431722 -0.0509629 0.933759
0.442802 -1.83763 -1.6856
-0.706952 -0.418436 0.960824
-0.329273 -0.0248168 0.446663
-1.15915 -1.07257 0.205666
1.27902 -1.7812 -1.5539
-0.553196 -0.109694 0.889569
-0.285824 0.190851 1.3678
0.947091 -1.58593 -1.25591
2.52073 -2.2514 -1.24806
-0.257842 0.0674017 0.5891
1.60655 -2.46603 -1.57884
2.84576 -5.66946 -2.31308
1.49176 -3.25682 -2.17006
1.59009 -3.3968 -1.90815
-0.477746 -1.17566 -0.295487
0.551233 -0.515742 -0.814608
-0.112936 -0.7321 -0.417961
0.306233 -1.32114 -1.31477
0.642938 -0.583812 -0.881301
0.595969 -1.50461 -1.04742
-1.41452 -1.43168 0.744701
0.911867 -0.541217 -0.82159
0.730088 -1.29946 -1.32455
1.30997 -1.8576 -1.61035
0.0545746 -0.0720528 -0.130619
2.14647 -5.05134 -2.40624
2.49168 -3.37997 -1.71895
-0.257455 -0.370831 0.0531999
-1.35407 -1.23343 0.736907
-1.056 -0.610665 0.89741
2.02837 -3.34982 -1.99856
-1.36451 -1.15859 1.2779
-0.940836 -1.14048 0.938722
-0.692756 -0.814153 -0.257168
2.7216 -5.09963 -2.27547
2.31831 -4.34376 -2.25223
-1.10223 -0.660957 1.00108
0.964826 -1.84648 -1.34472
-0.534278 -0.144473 0.524579
-0.323802 -0.111857 0.787584
0.0710349 -0.123068 0.16503
-1.18519 -2.54651 1.52798
-0.566281 -1.51406 0.381423
-0.805706 -5.21053 0.966829
-1.73516 -6.06403 1.87683
-0.611164 -7.92207 3.93059
-1.51058 -8.01434 2.98298
-1.28978 -2.31723 1.03283
-1.83321 -5.77988 1.23282
-0.832255 -4.79572 1.13086
-0.752375 -2.6718 0.479705
-1.22092 -1.91529 0.449871
-0.538823 -3.15081 1.11008
-0.857088 -1.5847 1.14615
-1.10627 -2.19282 0.908167
-1.16976 -5.62802 0.663686
-1.09796 -4.87063 0.993677
-1.20244 -1.96498 1.4245
-0.829288 -6.28472 1.95939
-1.48534 -4.46273 2.11692
-0.946511 -5.06901 2.09345
-1.37531 -8.11173 2.19673
-1.08681 -2.16016 0.940032
-1.62458 -4.89303 2.10045
-1.41982 -3.57801 1.95907
-1.16684 -8.50254 2.44556
-1.12937 -8.54506 3.34853
-0.802802 -2.48465 1.48905
-0.736789 -5.83489 1.13963
-1.65142 -7.86249 2.57311
-0.629474 -1.48678 0.150998
-0.954314 -6.48734 1.87977
-0.241596 -1.06007 0.692873
-0.421495 -1.43705 0.52507
-1.06451 -7.58085 3.39503
-1.41041 -6.83357 2.39385
-0.945957 -6.71747 1.37441
-1.61569 -5.10583 2.19398
-2.15337 -4.66062 1.38653
-1.26265 -3.38921 2.30899
-0.802644 -1.84029 0.455608
-1.02964 -3.3879 1.50996
-0.627304 -7.87157 2.48106
-1.37178 -6.1832 2.95213
-0.94296 -8.80549 3.41434
-1.09454 -3.86946 0.620358
-1.43498 -6.91717 2.77442
-1.02777 -2.42338 -0.0813141
-1.35541 -8.17505 2.29875
-1.29383 -8.07449 2.9169
-0.986772 -3.8354 1.78079
