ply
format ascii 1.0
comment Created by Open3D
element vertex 400
property double x
property double y
property double z
end_header
2.09594 -0.536654 -1.19605
2.70822 -1.70615 -1.02425
2.84443 -1.46585 -1.33982
2.48473 -0.937071 -2.07843
2.89584 -1.79203 -1.25425
1.14528 -0.475879 -0.406597
2.85165 -1.68905 -1.18864
1.98746 -1.11424 -0.463122
1.97395 -1.73372 -0.666922
1.74814 -0.584943 -0.834523
1.45334 -0.642848 -0.218414
2.08855 -0.733159 -1.27336
2.89759 -2.88354 -1.60853
2.70563 -0.997125 -1.26967
2.90319 -1.83289 -1.2885
2.98599 -1.73246 -1.43147
2.58755 -0.721927 -1.85962
1.67073 -0.57096 -1.68231
2.78871 -1.4417 -0.956952
2.68772 -2.42313 -1.05797
2.02058 -0.558827 -1.24442
1.59268 -0.992897 -0.098704
2.74747 -0.967866 -1.04442
1.88569 -1.0601 -0.231685
1.93315 -1.07406 -0.621281
2.01031 -1.08813 -1.38643
2.63667 -2.03378 -1.00871
2.46223 -1.65214 -1.1361
1.58803 -1.62729 -0.31719
2.2089 -1.39141 -0.562586
2.21074 -0.752737 -0.975844
2.63715 -1.43705 -2.64186
1.72066 -1.34404 -0.507245
2.43156 -0.724854 -1.50387
1.66637 -0.510034 -1.81366
1.7083 -0.272234 -0.359194
1.97793 -2.09909 -0.817725
2.50984 -1.41399 -0.605884
1.46985 -1.09884 -0.452447
1.00699 -0.504722 -0.55661
1.77148 -0.920364 -0.155076
2.72271 -1.51187 -1.31551
2.82426 -1.64408 -1.22956
2.09891 -0.583817 -1.32536
1.26476 -0.158788 -1.20925
1.62089 -0.645387 -0.412693
2.37179 -0.981475 -0.911146
2.95652 -1.39098 -1.321
1.74551 -0.675528 -1.03253
1.31638 -0.821272 -0.123358
2.18735 -1.99934 -0.809365
2.35011 -0.879469 -0.90344
2.22421 -0.741792 -0.746176
2.14122 -0.710073 -1.42489
2.92163 -1.10148 -1.73541
2.75876 -1.37917 -1.84054
2.71062 -1.06333 -1.85679
1.22447 -0.150048 -0.092306
1.73579 -0.748387 -1.47364
1.77905 -0.376764 -0.565236
1.50622 -0.212578 -1.03622
2.5658 -1.28207 -2.40163
1.98623 -0.641514 -0.797078
2.24677 -0.643732 -1.22827
1.61777 -0.361186 -0.571734
2.60339 -1.0731 -1.78157
1.65662 -0.905025 -0.215016
1.31444 -0.545434 -1.50204
1.69852 -1.18653 -0.370901
1.79119 -0.15702 -1.10518
2.32474 -0.836942 -0.88388
1.23011 -0.317122 -0.130446
2.31172 -1.93315 -0.982288
2.35576 -1.94733 -0.629554
1.4383 -0.230917 -0.487752
2.59095 -1.25924 -1.81189
1.1251 -0.705393 0.010807
1.1948 -1.05814 -0.137191
1.99966 -1.25674 -0.576517
2.1849 -1.72039 -0.579682
1.38041 -0.371035 -0.392107
2.31789 -1.1748 -0.563008
1.99854 -0.610665 -1.47896
1.81099 -0.520233 -0.192532
0.991617 -0.250722 -0.154187
1.8529 -0.86475 -0.336697
2.93067 -2.02718 -1.38016
2.65677 -1.929 -0.860855
0.989515 -1.26829 -0.109458
2.67485 -1.27024 -1.30454
1.96801 -0.570758 -0.408816
2.71157 -2.70336 -1.41973
2.08913 -2.30991 -0.971954
1.64961 -0.244122 -0.929294
2.89203 -1.72899 -1.10103
1.9974 -2.04108 -0.63077
1.8481 -0.370972 -1.24334
2.80615 -1.54708 -2.89623
1.72812 -0.160966 -0.508452
1.40563 -0.552041 -0.861881
1.34803 -0.152665 -0.211723
2.05354 -0.855042 -0.551976
1.78666 -0.127664 -0.946452
1.28064 -0.632932 -0.0710931
1.27808 -0.230292 -1.08537
1.94062 -0.182806 -1.49053
2.13991 -0.761267 -0.447467
1.89779 -1.82599 -0.572824
1.38114 -0.340456 -1.71221
2.07431 -2.0416 -0.849603
2.06249 -1.54404 -0.686416
1.27216 -0.0834445 -0.978076
1.39914 -0.566057 -0.464658
2.35775 -1.30493 -1.16039
1.75423 -0.656483 -1.8802
1.1092 -0.0544621 -1.15445
2.36963 -1.83035 -0.686417
1.34405 -0.360556 -0.459565
1.80004 -0.87243 -0.450316
2.34906 -1.08993 -1.03127
2.50803 -2.0095 -1.03831
2.80498 -1.45052 -2.69108
1.84427 -0.45644 -1.08668
1.75987 -0.39227 -1.19905
1.80972 -0.761013 -1.04866
1.76831 -0.826962 -0.39335
1.94056 -1.77011 -0.701455
1.08825 -0.46216 -0.229168
2.65595 -1.15931 -2.27668
1.51445 -0.528213 -0.80455
1.87632 -0.894474 -0.241942
2.26482 -2.0417 -1.14343
1.85401 -0.0931218 -0.98682
1.26292 -0.0780633 -1.45249
1.79672 -1.2733 -0.424534
1.61965 -0.423616 -1.39136
1.02513 -1.24004 -0.147952
1.16961 -0.595649 -0.187267
2.39374 -0.676311 -1.77882
1.36921 -0.0577294 -1.02344
1.0062 -0.183639 -0.517394
1.37776 -1.50908 -0.375137
1.82914 -0.562334 -1.75167
1.11556 -0.686907 -0.348358
1.06022 -0.243027 -1.319
2.62391 -2.25624 -1.02087
2.85471 -1.22148 -1.48555
2.74982 -2.69051 -1.3968
2.51915 -1.21512 -2.49741
1.47687 -0.42267 -0.399151
1.74131 -0.140647 -0.717844
2.1575 -0.797136 -1.50287
2.05425 -0.425375 -1.33314
1.50842 -1.37013 -0.215202
1.81682 -2.02269 -0.659782
2.7771 -1.22669 -2.32414
2.71762 -1.31135 -1.18646
0.928645 -0.161934 -0.687144
1.42419 -1.33752 -0.22598
2.38327 -1.11145 -0.784713
2.43884 -0.823622 -1.45981
1.50485 -1.52918 -0.153374
1.70636 -0.774818 -0.305837
2.10773 -1.08523 -1.15128
1.76484 -0.579254 -1.5782
2.98392 -2.15824 -1.38725
2.36085 -1.40622 -1.51746
1.16213 -0.644236 0.0888781
1.99291 -0.419545 -1.77051
3.02 -1.38357 -2.39619
2.68841 -1.20764 -1.30022
1.76472 -0.286274 -1.02666
2.59985 -1.52926 -1.66769
1.38747 -1.62483 -0.4134
2.80924 -1.41215 -1.6896
2.80549 -1.68442 -1.71358
1.31984 0.120923 -0.299579
1.3116 -0.488185 -0.40783
1.21733 -1.20943 -0.308588
1.44769 -0.876381 -0.287587
3.00878 -1.99053 -1.17937
2.69122 -1.22046 -1.3539
2.82752 -1.36862 -1.01316
2.8769 -1.11075 -1.3718
1.69966 -0.381436 -1.6629
1.68827 -0.81162 -0.231411
2.57389 -1.25542 -1.04328
1.36223 0.0836788 -0.831544
2.15421 -0.484063 -1.77685
2.6024 -2.17255 -1.14004
2.83808 -1.36555 -2.00955
2.7526 -1.95482 -1.21647
1.07276 -0.849639 -0.124981
1.49187 -0.411515 -0.143917
2.43502 -0.61955 -1.19914
2.67327 -1.53988 -2.91886
1.80154 -2.04524 -0.904096
2.81333 -1.65693 -1.26491
2.51757 -1.95487 -0.889963
1.11833 -0.249039 -1.57759
2.11952 -0.660531 -0.395253
1.05563 -0.356239 -0.455093
1.60967 -0.342813 -0.717297
2.58938 -2.41855 -1.19815
1.26137 -0.242656 -1.25366
1.62941 -0.948133 0.0377714
2.57434 -0.642375 -1.38759
2.72455 -1.52212 -2.59098
1.88152 -0.713627 -2.07755
2.47026 -1.03713 -0.895351
0.907707 -0.400744 -0.318635
2.28261 -1.06294 -1.06882
3.12419 -1.31545 -2.38863
2.59459 -1.59204 -1.2851
1.59341 -0.893283 -0.0573839
2.06526 -0.641295 -1.8961
2.31403 -1.01445 -1.00173
1.92667 -0.961245 -0.290314
1.33134 -0.39132 -0.422503
2.91723 -1.78795 -1.52509
1.95821 -1.46547 -0.411824
1.09084 -0.814168 -0.047198
2.44805 -0.877432 -1.68382
2.66333 -1.874 -1.02834
1.67051 -0.763077 -1.82432
2.17348 -0.781646 -2.18978
2.02529 -1.56682 -0.555712
2.26105 -1.05979 -2.13462
1.75996 -0.29023 -0.970241
2.27925 -0.640631 -1.74496
1.28593 -1.00811 -0.151721
2.30811 -1.15517 -2.42226
2.07736 -1.78571 -0.708195
2.90486 -1.9182 -1.37367
1.14281 -0.138624 -0.0190952
2.33051 -0.58992 -0.882619
1.58287 -0.860353 -0.0489766
1.8549 -0.258668 -1.19127
2.11992 -0.700666 -1.59356
1.14748 -0.404074 -1.68364
2.56475 -1.34985 -2.70634
1.74977 -0.349716 -1.53686
2.27716 -0.703253 -1.14469
1.76528 -0.412007 -1.52823
2.04379 -1.46062 -0.724367
1.94036 -0.545197 -1.89365
1.62062 -0.396236 -0.55723
2.24013 -1.10036 -1.91212
1.70039 -0.927175 -0.781922
1.21868 -1.04174 -0.30096
2.71207 -1.31472 -1.96375
2.31742 -0.868772 -2.21796
1.77008 -0.629131 -0.41987
2.12457 -0.674179 -1.90429
2.61834 -1.11764 -2.4931
1.9611 -0.40403 -0.484937
2.01712 -0.767017 -0.615541
2.56542 -0.952243 -1.88243
3.00735 -1.95797 -1.18267
1.88102 -0.425142 -0.983064
2.59798 -0.846199 -1.16865
1.58499 -1.03524 -0.392873
2.37263 -2.14951 -1.07106
1.55286 -0.461271 -0.706029
2.23452 -1.57327 -0.912914
1.472 -0.274136 -1.64814
2.83373 -1.01909 -1.33991
1.39218 0.0139622 -0.850165
1.95464 -0.806964 -0.0382822
1.69369 -0.616628 -1.57293
1.66912 -0.676031 -0.457365
1.45069 -0.142886 -1.19018
2.64527 -0.999449 -2.36368
0.945739 -0.25408 -1.61165
2.5152 -1.28144 -1.27461
2.75401 -0.799727 -1.24461
1.007 -0.053359 -0.35279
1.84107 -0.517199 -1.014
1.42515 -0.689542 -0.384241
1.67328 -0.276654 -0.896886
1.58238 -1.23461 -0.438817
1.2212 -1.37227 -0.139377
2.4786 -1.68129 -1.05643
1.01319 -0.304016 -0.163316
2.22071 -0.767543 -1.40405
1.85508 -0.65443 -0.672419
2.38278 -0.502962 -1.62339
1.53133 -0.373703 -0.715702
1.8491 -0.319306 -0.721395
2.75472 -2.44663 -1.28076
2.08458 -0.936711 -0.582677
2.26538 -1.11718 -0.499251
2.38019 -1.06295 -1.29354
2.70135 -1.50833 -1.47648
2.70065 -1.43132 -0.727903
1.25605 -0.536198 0.0687887
2.14862 -2.1125 -0.741317
2.31973 -1.03805 -2.19789
2.05036 -0.75881 -1.45655
1.13222 -0.167417 -0.679319
2.60375 -2.10137 -1.19558
2.55478 -1.49878 -1.16404
1.30926 -0.0116293 -0.400213
1.93582 -0.313213 -1.04795
1.11693 -0.0251531 -0.949511
2.01279 -0.692254 -1.21216
1.62411 -0.327229 -0.838651
2.69806 -2.52555 -1.31962
1.49881 -0.407055 -0.480693
1.91733 -0.417784 -0.80402
1.3269 0.0122024 -0.964765
2.77465 -1.46587 -1.185
1.33304 -0.343541 -0.459931
0.933782 -1.28737 -0.317952
1.7342 -0.882579 -0.21036
2.48794 -0.743278 -1.02766
1.56689 -1.82499 -0.542386
2.23266 -1.07683 -2.24908
1.27901 -0.243947 -1.53641
2.26917 -0.833972 -1.81396
2.39594 -1.00767 -1.42195
2.30453 -0.966762 -2.12399
1.64719 -0.975689 -0.340425
3.03221 -1.49884 -2.81496
2.12234 -1.72294 -0.639581
2.52265 -0.933536 -0.989256
2.73565 -1.69889 -0.795147
1.56201 -1.1644 -0.0555317
2.03154 -0.515769 -1.48356
2.49702 -1.36743 -0.762276
2.74502 -1.0257 -1.74938
1.39895 -0.369932 -0.227054
2.97822 -1.44178 -2.46682
1.56094 -0.465605 -1.78361
1.18916 -1.34454 -0.266425
1.37709 -0.0289505 -0.521012
1.26579 -0.195377 -1.38622
1.23269 -0.178515 -0.906807
1.10444 -0.119056 -0.386159
2.58091 -1.48577 -1.12198
2.07265 -1.06873 -1.71969
2.2011 -2.1104 -0.83967
3.12322 -1.15313 -1.68161
1.41577 -0.772872 -0.388574
1.68964 -1.09447 -0.662143
2.39846 -1.32702 -1.18042
2.36148 -1.02784 -0.785403
3.02169 -1.7944 -1.09989
2.13018 -0.858874 -1.38872
2.9899 -2.84946 -1.48068
1.45153 -1.37752 -0.112914
2.19184 -1.60418 -0.631808
1.43999 0.0366921 -0.0022553
2.82388 -1.46724 -1.70213
2.22555 -0.935297 -1.18076
1.46206 -0.177817 -1.32392
1.50308 -1.35771 -0.494106
1.22538 -0.987844 -0.230377
1.42975 -0.854427 -0.110508
2.04376 -1.13213 -0.435234
1.7128 -1.9805 -0.640699
0.895331 -0.559211 -0.231128
2.65922 -0.916514 -1.63759
1.60251 -0.279621 -1.42847
0.874036 -0.730166 -0.154864
2.54211 -0.860871 -2.1948
1.47387 -0.223699 -1.20512
2.51243 -0.823938 -0.889572
2.81492 -0.959978 -1.74351
2.95433 -2.26404 -1.33748
1.17682 -0.824797 -0.12404
1.60842 -0.0354865 -0.46306
2.43021 -0.884817 -1.95555
1.65094 -0.160032 -0.754214
1.25152 -1.10742 -0.365284
1.71693 -0.419662 -1.3043
2.18273 -0.92701 -1.04377
2.29811 -2.03774 -1.05318
2.79187 -1.45617 -1.86659
2.30183 -0.813789 -0.701825
1.30286 -1.60616 -0.206256
2.15641 -0.665694 -0.665623
1.59691 -0.0436854 -0.586545
2.88858 -1.36832 -2.65864
3.16221 -1.39264 -1.34728
2.82057 -1.6755 -1.3054
2.82224 -1.15006 -1.45498
2.25157 -0.783154 -1.24752
1.12199 -1.05037 -0.18426
2.84484 -1.7568 -1.52815
2.09294 -0.605293 -1.73679
2.70785 -1.15241 -1.93014
2.68306 -1.20451 -1.41764
2.69169 -2.33626 -1.42752
2.34353 -1.19121 -0.811281
2.03904 -1.55611 -0.54735
2.06119 -0.726502 -1.98696
2.31414 -0.808507 -0.775697
1.95561 -0.59749 -0.936265
2.03816 -0.92455 -1.428
