ply
format ascii 1.0
comment Created by Open3D
element vertex 250
property double x
property double y
property double z
end_header
0.0573785 1.6893 0.6199
-2.12644 2.09696 0.628484
-2.40942 0.777109 0.242541
-1.07372 -0.0302503 -0.275245
-1.28282 0.370529 0.280742
-1.25954 -0.143501 0.000370291
-0.418503 0.326388 0.240254
-3.1301 1.51043 1.24468
0.334569 1.26593 0.535857
1.18391 -0.239636 1.52595
-0.462308 0.0583495 -0.0257233
0.410648 0.7208 0.300771
-3.85969 1.9887 1.70871
0.0586444 0.871501 0.131891
-1.7937 -0.18454 -0.4334
-1.35094 1.71165 0.388744
0.251139 -0.448053 0.00478313
-1.36663 0.843166 -0.156729
-0.508567 0.948912 -0.0533515
-0.673935 0.583026 -0.114468
-1.94233 1.67871 0.178899
0.347884 0.791188 0.501995
1.39222 0.0178755 1.53908
0.214409 -0.342721 0.559456
-1.14716 0.782313 -0.196476
-0.0972517 1.14698 0.220629
1.80038 0.568139 1.52676
0.27597 0.110851 0.55167
-5.00216 2.5104 2.40511
0.167657 -0.106712 0.368359
1.77659 1.56569 1.83897
1.55635 0.0377602 2.014
1.06314 0.362159 0.654534
0.093242 -0.476295 0.509129
0.0550332 1.26661 0.366487
0.667034 0.116741 0.306868
-1.24616 0.395027 -0.427294
-4.25863 3.19236 1.84332
-5.24287 2.65591 1.4641
-1.87192 1.07885 0.185195
-5.08528 3.45713 2.73153
1.44024 0.684046 1.1214
-1.46133 1.01402 -0.003416
-2.00704 1.36783 0.450077
0.195712 -0.470956 -0.0176518
-3.77352 2.59066 1.88762
-1.48464 0.313515 -0.189672
-3.90591 2.82723 1.85541
-4.66803 3.30317 1.91353
0.297578 0.784144 0.242985
0.782276 0.487209 0.432248
-3.12624 2.44494 0.759067
-4.63853 4.13908 2.55078
-4.24428 2.1573 1.22712
-1.75958 0.816178 0.523151
-3.40191 1.67963 1.30066
0.00707179 -0.384051 0.461324
-0.196856 -0.418971 0.0986271
0.605251 1.32659 0.658959
-0.699956 -0.033954 -0.371385
-4.82837 3.29779 3.14347
-4.0014 2.65941 1.49604
-3.74402 2.47919 1.6056
-3.58532 1.94295 1.59248
-0.776723 0.62295 -0.149197
-4.75121 2.9971 1.9579
-0.520739 0.592354 -0.2426
-0.817213 1.48797 0.253604
1.1907 0.778954 0.830619
-4.64309 3.96036 2.42688
-3.44821 2.43648 1.53992
0.304261 0.342674 0.176031
-3.08734 0.805521 0.0637245
0.448581 0.3797 0.152294
-1.08284 -0.400991 -0.251455
-0.2936 -0.2576 -0.176056
-3.13599 2.72389 1.29549
-4.29537 3.82976 2.72351
1.37941 0.153054 1.07043
-1.17171 1.74382 0.337341
0.863702 -0.279311 0.916204
-0.6817 0.330513 -0.193716
0.438464 0.87141 0.389775
-0.142289 0.530569 0.0620527
-0.193289 0.52527 -0.0737859
0.366774 0.242021 0.373207
-1.51733 0.578818 0.300258
-1.10245 1.57224 0.232304
2.28861 0.909861 2.0738
-1.53271 -0.162025 -0.158731
-3.41231 1.15593 0.46448
-3.64117 2.5102 1.78279
-1.13591 0.0734637 -0.246385
0.974561 0.958815 0.697274
-2.92743 1.3253 0.238896
-0.830085 -0.162243 0.232529
-0.609124 0.014012 -0.219468
0.0936018 0.381581 0.0305231
1.5205 0.114042 1.36142
-1.44597 1.26178 -0.0878337
0.563807 0.256954 0.199993
-2.68439 1.94818 0.710401
-1.79507 1.50182 0.472268
-0.0448127 0.555707 -0.0711323
-0.449794 1.48581 0.311912
-1.06777 0.585231 0.02904
-1.33724 1.33046 0.0064779
-2.03465 0.803718 0.664612
1.48366 -0.0231741 1.4731
-3.53998 1.18022 0.882863
-1.73921 0.613076 -0.216587
-1.91026 1.51338 0.288215
-1.41664 1.61733 0.166895
-3.48962 1.23948 0.456059
-2.23915 2.51618 1.16077
0.601475 0.971398 0.519326
-3.83959 2.13789 1.76363
1.28156 0.190882 1.01679
-2.37174 0.842024 0.59812
-3.1042 3.18068 1.47729
-2.44874 2.4545 0.857081
1.40657 0.366186 1.03658
-2.31318 1.46277 0.705569
-4.14483 3.4297 2.00976
1.25919 0.253411 0.897768
-4.08126 3.54144 2.05138
1.94174 0.963898 1.66879
0.796634 0.919744 0.786637
1.15994 -0.214966 0.980425
-2.33557 1.98893 0.546475
0.985246 0.685746 0.642737
-1.21124 0.952254 -0.172816
1.54141 1.28862 1.32842
-4.33724 2.40237 1.97448
-4.03013 3.01899 1.79566
1.04193 1.22358 0.997182
-0.701644 0.606317 -0.0389156
-0.376276 1.15026 0.294833
-2.58291 2.41749 0.897581
-4.77626 3.57793 2.35449
0.642935 0.130151 0.297465
-2.47459 1.23633 0.641354
-1.42472 1.60672 0.163266
-4.40036 2.44038 2.18245
-1.99656 0.673618 -0.0926747
-2.76221 1.45302 0.603955
-0.896299 -0.114619 -0.503546
-1.46085 1.7375 0.584349
0.988177 -0.0721245 1.04044
-5.0015 2.8614 2.42486
-4.63643 4.02891 2.64944
-2.98611 1.37712 0.90379
0.323599 -0.535762 0.234513
0.539425 0.244375 0.517723
-2.75908 2.30501 1.06108
-0.477329 -0.952608 -0.0528455
-0.637676 -0.180173 -0.494355
-0.940137 0.538057 0.612456
1.09491 0.631234 0.701669
-2.07687 0.995732 -0.214338
0.639475 -0.589889 0.543639
0.615906 0.356722 0.291748
0.406481 0.468387 0.198886
-2.37554 1.20948 0.272527
0.844535 -0.0976049 0.508729
1.37581 0.45243 0.982997
-1.69732 1.68359 0.369523
-2.90534 1.92699 1.3917
0.755172 0.449502 0.415695
-2.61894 2.17681 0.858591
-5.29117 3.10206 2.33416
-3.5708 1.67521 0.576926
-3.24174 2.47315 1.03321
-0.126741 1.23238 0.269883
-0.966768 0.571922 -0.0984477
-0.250314 1.04495 0.108214
-1.4843 0.918884 -0.206979
-1.21371 0.265501 -0.137576
-1.28131 1.73855 0.359919
0.810675 0.691987 0.716796
-1.15144 0.707184 0.0886248
-1.68401 1.04991 -0.0153277
-2.51979 1.08303 0.25048
-0.00139628 0.449915 0.0282257
-4.7022 2.81566 1.63832
-3.63476 2.48137 1.57586
0.288126 0.849124 0.23855
0.824436 0.540411 0.625687
0.937321 0.0832048 0.54026
-3.97021 1.26128 0.917479
1.22176 0.479296 1.01724
1.03442 1.28518 1.06251
-0.0177338 0.548488 -0.0681782
-5.13867 2.37143 1.93831
-4.61037 1.97081 1.38764
1.00416 0.071468 0.62345
-1.85976 1.83066 0.442259
0.528778 -0.194654 0.218609
0.517335 -0.433547 0.467984
-0.15448 -0.443291 0.139
1.19505 2.36233 2.22296
0.442644 1.89948 1.04232
-0.2099 4.24503 3.40191
0.39294 3.95105 4.04455
1.14763 6.84779 7.50665
0.51407 5.54173 6.15236
0.868026 1.8715 1.59102
-0.00387538 3.47763 3.27443
0.0840807 4.06931 3.31553
0.229843 2.58944 1.65578
0.480672 1.40313 0.894251
0.579106 3.44875 2.61669
1.11458 1.93504 1.57164
0.784089 1.98998 1.53824
-0.541713 3.93646 3.11984
-0.00582345 3.75465 3.06414
1.26208 1.82388 1.78849
0.227265 5.17619 4.819
1.09554 3.40461 3.56989
0.799794 4.45294 4.23056
-0.16547 5.52656 5.61266
0.817319 2.00379 1.56114
0.95518 3.47464 3.69124
1.24715 2.87827 3.00055
-0.153796 6.0298 6.1613
0.539834 6.36301 6.9872
1.1467 2.84307 2.41754
-0.308022 4.71475 3.92133
0.272924 5.1865 5.63069
0.250607 1.65762 0.773338
0.110538 5.10663 4.77367
0.787276 2.10614 1.28031
0.569095 2.09961 1.22485
0.92909 5.98568 6.57582
0.475034 4.91285 5.10412
-0.395848 5.02922 4.45176
0.955245 3.63768 3.89049
0.529701 2.41808 2.59466
1.5607 3.05378 3.30384
0.457882 1.90895 1.13962
0.911784 3.15965 2.77594
0.0116979 6.35057 6.21435
1.13741 4.7557 5.26901
0.460736 6.7265 7.29747
0.0250688 3.02192 2.20671
0.745545 5.02617 5.45771
-0.140682 1.78957 0.832791
-0.111332 5.6126 5.74631
0.406572 5.82128 6.26877
0.978736 3.58723 3.28066
