ply
format ascii 1.0
comment Created by Open3D
element vertex 400
property double x
property double y
property double z
end_header
-0.786853 -0.324415 -1.29891
-2.09883 -2.21041 -1.70513
-0.609084 -0.861152 -1.21804
-1.37275 -1.65458 -0.331074
-1.66277 -0.595138 -1.91251
-1.26167 -0.724662 -1.73995
-0.775871 -1.31568 -0.430607
-0.975027 -1.05459 -1.53948
-2.42625 -2.49557 -2.12371
-3.03438 -2.77527 -1.5422
-0.925298 -0.501273 -1.44013
-0.833521 -1.39003 -1.1583
-1.64753 -1.97233 -0.865625
-1.89236 -2.12512 -1.69667
-1.5419 -1.95715 -1.47943
-1.05291 -0.095483 -1.35111
-0.739657 -0.466718 -1.30457
-2.64084 -2.60921 -1.29248
-0.274967 -0.804235 -0.63774
-1.99644 -2.16725 -0.840391
-1.01959 -1.25521 -1.5375
-1.20988 -1.50202 -1.61246
-1.58589 -1.98536 -1.45336
-0.790053 -1.35801 -1.14168
-0.416574 -0.959932 -0.794964
-1.32558 -1.29668 -1.85075
-1.56654 -1.83032 -0.484595
-2.20858 -1.68571 -2.37917
-1.15635 -1.6621 -0.828614
-2.20033 -1.43955 -2.35542
-1.55609 -0.512323 -1.83849
-1.35151 -1.82359 -1.2036
-0.929484 -1.40558 -0.361535
-1.72873 -2.04214 -1.49054
-0.918509 -1.47168 -0.598744
-0.869539 -1.47773 -0.926259
-2.34013 -2.27802 -2.14063
-1.94998 -1.27454 -2.16011
-0.384317 -0.61751 -0.998626
-0.920236 -1.46233 -0.562682
-1.37403 -1.84224 -0.955792
-1.78183 -0.864831 -2.02427
-2.1013 -2.24878 -1.19863
-1.20736 -1.63931 -1.33114
-1.73981 -1.95522 -1.5829
-0.650721 -1.18816 -0.341955
-1.73055 -1.17814 -2.05108
-0.923131 -1.48091 -0.882334
-2.65345 -1.48674 -2.58495
-0.86481 -1.43387 -0.97196
-2.95848 -2.71377 -1.33443
-0.77299 -1.34763 -0.533231
-1.93652 -2.18718 -0.979116
-2.79127 -2.6531 -1.61225
-2.31554 -2.33437 -1.05312
-1.02431 -1.1245 -1.52465
-1.27432 -0.621776 -1.69637
-1.71997 -0.543451 -1.93968
-0.530895 -1.11781 -0.892282
-0.772341 -1.39593 -0.845628
-2.42486 -2.42269 -1.01005
-1.60888 -0.826984 -1.93289
-0.801112 -1.36478 -0.522786
-1.29458 -0.257482 -1.58072
-1.97078 -1.0353 -2.1962
-2.18674 -2.31372 -1.1589
-2.25355 -1.36248 -2.39418
-0.992306 -1.17644 -1.58589
-1.47231 -1.88292 -1.11682
-1.79878 -1.23899 -2.08207
-1.96613 -1.53813 -2.29295
-0.795276 -1.35034 -0.522049
-1.01391 -0.905112 -1.6128
-3.08383 -2.82757 -1.50736
-1.86731 -2.12786 -1.56995
-1.42776 -0.68812 -1.81402
-0.573577 -0.510925 -1.17846
-0.513316 -0.21634 -1.04788
-1.48081 -1.62223 -1.8162
-1.85748 -1.10534 -2.13779
-1.99561 -1.74298 -2.24957
-2.36017 -1.5243 -2.43202
-1.68143 -1.63582 -1.85411
-1.53886 -1.48619 -1.9853
-2.01092 -2.17147 -1.61681
-0.390172 -0.942606 -0.812357
-0.80285 -0.880108 -1.41762
-1.59353 -1.73303 -1.79422
-0.612497 -0.887946 -1.22405
-1.31705 -0.633946 -1.74576
-1.98806 -1.7605 -2.01048
-1.42806 -1.84469 -1.47706
-0.958435 -1.46 -0.463162
-1.86047 -2.20899 -1.41024
-2.01089 -1.739 -2.24073
-0.590335 -0.790912 -1.21222
-1.86871 -2.09346 -1.84421
-1.13102 -0.467868 -1.57221
-2.38082 -1.03879 -2.40539
-1.59846 -1.83011 -1.65059
-1.49736 -1.4197 -1.76251
-1.74563 -1.82894 -2.00063
-1.34703 -1.77284 -0.67902
-0.999059 -0.808284 -1.58145
-0.749222 -0.745974 -1.34946
-1.43537 -1.39058 -1.81786
-1.95589 -2.18183 -1.73767
-1.55887 -1.02012 -1.967
-1.34976 -1.09409 -1.78728
-1.43729 -1.82844 -0.696219
-0.50258 -1.05901 -0.906233
-1.7456 -2.02535 -1.52736
-2.03582 -2.16213 -0.93513
-0.895851 -1.41312 -0.468044
-1.83303 -1.19585 -2.1506
-1.18207 -0.668311 -1.66129
-1.70458 -2.09739 -1.50032
-2.04447 -2.25273 -1.08982
-1.28316 -1.52905 -0.158531
-2.08391 -0.889799 -2.21118
-0.709311 -1.32428 -0.693616
-0.789107 -0.125554 -1.20538
-1.53208 -1.98674 -1.20212
-2.95607 -1.52508 -2.72781
-2.44424 -1.88681 -2.4917
-1.01056 -1.363 -0.164582
-0.840277 -1.42605 -0.941513
-1.27161 -0.263906 -1.56159
-2.11587 -1.83634 -2.14893
-0.83151 0.0602029 -1.15755
-2.30631 -1.79339 -2.332
-2.51555 -1.6343 -2.56012
-0.737578 -0.756766 -1.34852
-0.587279 -1.19101 -0.515932
-0.432384 -0.594695 -1.05095
-0.821005 -1.32631 -1.17488
-0.610785 -1.12808 -1.09212
-1.67626 -2.01804 -1.46654
-0.413547 -0.826066 -0.941678
-2.39789 -2.42906 -1.08178
-1.79764 -1.96468 -0.558187
-0.169541 -0.468971 -0.728918
-0.674563 -1.16241 -0.213994
-1.83713 -1.13525 -2.13307
-1.96507 -2.09781 -1.87324
-1.96576 -2.09379 -0.712573
-2.02133 -2.22937 -1.24892
-1.6196 -1.91803 -0.609956
-1.71741 -1.97196 -1.61412
-2.17651 -1.29559 -2.38769
-1.17046 0.0333007 -1.3573
-0.286657 -0.617777 -0.868757
-0.285993 -0.793128 -0.70457
-1.23965 -1.12748 -1.76358
-0.825503 -1.41326 -0.640946
-2.58575 -2.41368 -1.06248
-1.38299 -1.66226 -0.331751
-0.651094 -0.291878 -1.16498
-1.42993 -1.70874 -0.377341
-0.281828 -0.376066 -0.880912
-0.467886 -0.928072 -1.0018
-1.49478 -1.85107 -0.659906
-1.48167 -1.76001 -0.427413
-1.63528 -0.898924 -1.91897
-1.13568 -1.64561 -1.41833
-1.40984 -0.519878 -1.75948
-1.21279 -1.59734 -0.40854
-2.89771 -1.50538 -2.67884
-0.370294 -0.537115 -0.986566
-1.49183 -1.81608 -0.566737
-0.564665 -0.649795 -1.17949
-1.19395 -0.409869 -1.58532
-0.568585 -1.15628 -0.928451
-0.431998 -0.737426 -1.03424
-1.43021 -1.02502 -1.87585
-1.14466 -1.07285 -1.71404
-1.34576 -1.32904 -1.83027
-1.78587 -1.77694 -1.93735
-0.610279 -1.21537 -0.87426
-1.4501 -1.92525 -1.26275
-1.09084 -1.31236 -1.64032
-1.07856 -1.61934 -0.947047
-0.812961 -1.40749 -0.824739
-1.62007 -1.85572 -1.78201
-1.55297 -1.22377 -1.96332
-1.62323 -1.91291 -1.62868
-2.66874 -2.50256 -1.35452
-2.77819 -2.6618 -1.31833
-0.293929 -0.851798 -0.660271
-2.67098 -2.5168 -1.15411
-0.553837 -0.41199 -1.15038
-0.396026 -0.770638 -0.936313
-0.666564 -1.14912 -0.181943
-1.90535 -1.12806 -2.17498
-2.02638 -1.43039 -2.22533
-1.68431 -1.38392 -2.02194
-1.80242 -0.746937 -2.0296
-0.833024 -1.17544 -1.32563
-2.34381 -2.44794 -1.37922
-0.315486 -0.813434 -0.760924
-0.334433 -0.649493 -0.919707
-1.36954 -1.46529 -1.81797
-1.6704 -1.26202 -1.98251
-1.35622 -1.8373 -0.970491
-1.80483 -1.46647 -2.16434
-2.2785 -0.91859 -2.32046
-2.23876 -1.30004 -2.30994
-1.17358 -1.71048 -0.87957
-0.471764 -0.985623 -0.931883
-1.85439 -0.879514 -2.1349
-1.18673 -1.65517 -0.60421
-2.32832 -1.49517 -2.42488
-1.89955 -2.18031 -1.6137
-2.21507 -2.273 -0.943092
-0.370601 -0.97233 -0.339866
-1.39775 -0.361591 -1.6753
-1.56006 -1.98572 -1.14968
-2.80573 -1.42916 -2.62608
-2.26208 -2.21303 -2.16947
-0.399563 -0.728526 -0.991542
-1.80701 -1.628 -1.97909
-1.22168 -1.57652 -1.4433
-1.54851 -1.77143 -0.377416
-1.66957 -1.31267 -2.12108
-1.46491 -1.92753 -1.49827
-0.852698 -1.43167 -1.15006
-1.5034 -0.540971 -1.80999
-1.6534 -0.594278 -1.89755
-1.49206 -1.89209 -1.23679
-1.14566 -1.70363 -0.974154
-1.4175 -1.34721 -1.85272
-1.45511 -1.32841 -1.91364
-1.5687 -1.82814 -0.483948
-1.21317 -0.384204 -1.588
-1.26598 -1.17338 -1.73648
-1.7995 -0.603789 -1.9311
-2.46612 -1.22488 -2.38914
-0.523778 -0.645756 -1.14039
-0.826116 -1.42917 -0.719799
-0.701213 -1.29961 -0.913217
-1.08666 -1.24439 -1.56442
-2.05479 -2.32932 -1.57912
-2.91657 -1.70315 -2.76058
-1.11545 -0.929725 -1.66256
-2.18635 -2.23303 -1.92178
-1.12091 -1.20277 -1.65506
-0.808866 -1.32158 -1.20802
-1.18718 -1.65674 -0.884025
-0.744227 -0.336604 -1.2619
-1.49639 -1.34973 -1.87577
-0.281008 -0.545138 -0.861908
-2.71737 -1.22376 -2.57757
-0.489607 -1.10419 -0.52094
-1.39403 -1.82812 -1.60404
-2.26304 -1.59734 -2.42427
-1.37821 -1.80805 -0.716456
-2.04961 -1.0576 -2.22393
-1.84515 -2.02846 -0.667282
-2.55251 -2.56238 -1.29955
-0.794042 -1.00433 -1.40983
-1.18064 -0.300803 -1.53171
-2.03256 -1.99963 -2.2024
-0.834608 -0.185829 -1.26711
-1.07716 -1.65129 -1.22643
-2.24113 -2.43132 -1.52178
-2.20378 -1.47088 -2.29797
-1.33641 -1.05902 -1.83282
-2.11503 -1.78994 -2.22625
-1.59004 -1.27355 -2.00385
-2.07385 -0.88149 -2.19718
-0.812284 -1.2969 -0.292498
-0.318886 -0.83317 -0.803726
-1.22605 -1.73015 -1.32803
-2.54841 -1.64213 -2.51613
-1.81807 -2.0953 -0.834854
-2.65522 -1.37494 -2.54222
-0.319556 -0.860819 -0.649692
-2.62191 -1.24405 -2.51886
-2.33829 -2.4456 -1.57491
-0.442395 -1.0604 -0.454067
-1.08809 -1.36332 -1.46927
-1.15171 -0.59113 -1.62956
-2.23028 -1.48519 -2.42207
-1.1734 -1.15552 -1.73086
-2.04329 -2.24028 -1.70053
-0.633117 -0.420063 -1.19938
-0.18902 -0.518754 -0.777668
-0.303376 -0.859723 -0.729233
-1.99975 -1.59765 -2.26574
-2.51475 -2.54652 -1.88997
-2.41507 -1.56065 -2.46712
-2.3774 -2.37682 -1.65027
-1.7055 -0.81591 -2.00862
-0.914136 -1.37402 -1.36542
-2.11742 -2.19465 -1.82868
-1.2158 -0.446563 -1.61641
-1.7409 -2.02521 -1.54217
-2.46765 -1.91858 -2.51858
-0.927157 -1.52143 -0.779973
-0.587622 -0.190162 -1.09918
-1.66103 -1.93155 -1.6073
-0.354883 -0.709735 -0.944339
-1.91222 -2.22205 -1.22787
-0.377523 -0.477373 -0.968572
-1.91645 -2.20768 -1.41638
-1.19364 -1.5917 -1.51856
-0.985126 -0.197224 -1.35713
-0.616798 -1.11724 -1.11492
-1.52351 -1.96326 -1.18785
-0.766781 -0.739912 -1.38158
-2.27387 -2.46736 -1.34373
-1.66651 -0.582311 -1.87718
-1.15369 -1.11906 -1.66522
-0.680649 -1.25955 -0.525775
-1.12155 -0.807606 -1.65291
-0.958545 -1.09029 -1.54291
-2.49607 -1.08211 -2.44461
-1.71303 -2.05345 -0.864058
-1.67107 -1.90997 -0.598386
-3.03073 -1.48077 -2.81914
-1.28209 -0.100024 -1.49717
-1.09449 -0.569579 -1.57961
-1.89714 -2.2058 -1.46271
-0.504657 -1.10532 -0.574251
-0.697649 -1.31521 -0.696407
-0.86793 -1.03002 -1.43533
-2.15692 -2.2925 -1.40486
-2.4301 -2.43563 -1.86185
-2.41642 -2.40197 -1.0449
-0.913981 -1.3052 -1.43607
-1.1239 -0.99744 -1.67086
-2.43863 -1.56289 -2.44863
-1.65409 -2.02639 -0.897194
-2.31376 -1.56265 -2.41007
-1.17605 -1.55246 -0.352572
-2.00386 -1.59749 -2.13208
-1.02624 -1.41586 -1.40717
-1.63683 -1.86147 -1.66639
-1.38459 -1.64837 -1.48098
-3.18681 -2.85454 -1.48678
-1.11686 -1.66182 -0.7982
-1.06661 -1.58213 -0.620264
-1.11231 -0.78544 -1.66514
-1.58446 -0.818669 -1.96601
-1.08396 -0.853399 -1.64827
-0.978252 -1.56748 -0.843477
-1.36408 -1.87841 -1.11025
-1.43478 -1.44453 -1.87486
-1.60893 -1.89607 -1.85603
-1.10247 -0.980717 -1.62324
-1.14745 -1.31797 -1.61122
-2.56082 -2.52857 -1.42018
-1.41232 -1.22636 -1.89783
-0.315963 -0.47727 -0.918434
-1.5352 -0.937841 -1.93814
-0.555506 -0.726842 -1.17311
-1.1737 -1.51222 -0.255941
-1.36929 -0.329169 -1.65256
-1.92988 -2.2325 -1.24163
-0.297894 -0.89503 -0.614818
-0.665094 -1.28471 -0.697957
-0.662545 -1.21545 -0.335737
-0.860179 -1.03191 -1.4342
-1.72565 -1.98217 -0.731364
-1.17066 -1.50323 -0.239316
-0.649265 -1.05045 -1.19648
-1.89616 -2.1634 -0.909094
-1.33575 -0.468014 -1.69528
-1.5111 -1.86418 -0.746283
-1.20272 -1.4292 -1.53527
-0.361635 -0.922023 -0.647184
-1.06817 -0.354335 -1.49006
-1.4555 -1.45286 -1.79162
-1.89192 -0.762905 -2.08956
-1.11503 0.00299897 -1.34263
-2.44153 -2.46851 -1.96596
-1.19713 -1.47097 -1.51334
-1.8065 -0.940197 -2.06735
-1.21642 -1.77683 -1.13725
-1.10864 -0.636322 -1.61404
-1.86666 -2.19912 -1.76063
-0.97168 -0.630495 -1.52059
-0.214304 -0.482541 -0.808574
-1.94037 -2.0418 -1.67062
-1.10612 -1.20545 -1.66533
-2.10814 -2.34677 -1.19875
-1.59907 -1.86947 -1.51474
-0.70456 -0.391719 -1.25514
-1.76569 -2.074 -1.13803
-0.663705 -0.80785 -1.28625
-1.56004 -0.727014 -1.91203
-2.21905 -2.33746 -1.35093
-1.20774 -1.71371 -0.814414
-2.07699 -2.08471 -2.049
-0.563282 -0.502826 -1.14106
-1.12956 -1.69938 -0.979917
-0.720416 -0.69886 -1.3198
-1.83176 -1.76191 -2.12351
-2.08837 -2.24152 -1.16412
-1.17439 -1.59641 -0.495216
