ply
format ascii 1.0
comment Created by Open3D
element vertex 400
property double x
property double y
property double z
end_header
0.503126 0.589632 2.39606
-0.433045 0.515055 3.34372
-0.072612 0.596814 3.43548
0.83065 0.232541 3.29522
-0.349778 0.502966 3.61023
-0.194155 0.471248 1.06339
-0.310241 0.546748 3.51163
-0.425347 0.591874 2.23936
-0.818199 0.240628 2.51355
0.0862221 0.590212 1.82916
-0.295859 0.594023 1.46381
0.308339 0.525639 2.38488
-0.993231 -0.132313 4.17643
0.289108 0.711613 3.17118
-0.368114 0.480271 3.63531
-0.20006 0.520416 3.70989
0.990681 0.407231 3.3612
0.663949 0.140941 2.15043
-0.211047 0.679448 3.34155
-0.864208 0.088466 3.77177
0.476799 0.53279 2.32006
-0.512102 0.495407 1.82738
0.224295 0.816284 3.1689
-0.448589 0.590482 2.15665
-0.387734 0.567055 2.12724
-0.06826 0.381644 2.29782
-0.68368 0.314065 3.43886
-0.485539 0.432252 2.97919
-0.874594 0.114046 2.1621
-0.513448 0.533578 2.63282
0.167468 0.692073 2.44007
0.700411 -0.0675718 3.70831
-0.686886 0.358359 2.01927
0.629623 0.54931 2.93558
0.877884 0.0475129 2.28337
0.189768 0.801528 1.68951
-1.01448 0.0168666 2.71684
-0.391135 0.637309 3.01776
-0.616011 0.376085 1.60949
-0.213587 0.358358 0.919136
-0.401218 0.615967 1.97125
-0.184311 0.543701 3.28016
-0.276079 0.548196 3.45589
0.53504 0.522006 2.45256
0.735125 0.215724 1.56843
-0.193344 0.637467 1.63794
-0.0225315 0.711565 2.65858
0.0446452 0.668027 3.56825
0.0882002 0.496368 1.87595
-0.489246 0.455501 1.40864
-0.873992 0.165353 2.90896
0.0636355 0.73731 2.61359
0.0767153 0.776713 2.41191
0.462193 0.477181 2.52563
0.563826 0.565739 3.63376
0.23127 0.408037 3.43781
0.592502 0.434408 3.41741
0.0616931 0.672161 1.11956
0.275801 0.283981 2.03195
0.195733 0.742813 1.80974
0.593183 0.433039 1.7034
0.669846 0.058572 3.49866
0.102174 0.690717 2.11366
0.456517 0.622166 2.58054
0.156436 0.672131 1.62016
0.47408 0.432549 3.23346
-0.428583 0.569434 1.80813
0.415136 0.0904667 1.61537
-0.59763 0.437089 1.95274
0.828616 0.52362 2.10215
0.0860078 0.746079 2.57254
-0.0927612 0.618289 1.14433
-0.77768 0.251387 2.95618
-0.761775 0.257094 3.17405
0.201334 0.643753 1.40187
0.266487 0.384399 3.20694
-0.464836 0.418864 1.19664
-0.683028 0.269685 1.40138
-0.507964 0.516416 2.29572
-0.719007 0.332987 2.80824
-0.0149421 0.615626 1.31908
-0.31407 0.68628 2.66114
0.571871 0.398143 2.40355
-0.0695457 0.809509 1.84662
-0.0869727 0.511957 0.87944
-0.309646 0.664403 1.99334
-0.475829 0.381578 3.75229
-0.621542 0.389119 3.44647
-0.849675 0.0322109 1.34945
0.01288 0.612062 3.16408
0.00742798 0.815581 2.03903
-0.998422 -0.0799994 3.86157
-1.08027 -0.0688086 2.94468
0.522752 0.552689 1.80263
-0.342791 0.558377 3.59087
-0.954533 0.0462494 2.80351
0.65676 0.471433 2.16555
0.861336 -0.171892 4.08611
0.394577 0.781989 1.74914
0.00807913 0.436176 1.42808
0.137862 0.703054 1.25965
-0.170984 0.717932 2.21158
0.743878 0.609692 2.01362
-0.363057 0.52934 1.30181
0.529166 0.299267 1.464
1.18926 0.348485 2.55094
-0.0833634 0.810822 2.29661
-0.890607 0.145709 2.53555
0.953995 -0.0384149 1.98228
-0.947119 0.0948725 2.77758
-0.665748 0.385119 2.49694
0.659104 0.350054 1.46458
-0.181122 0.551355 1.36323
-0.232848 0.526905 2.73093
0.746543 0.0560611 2.35523
0.807246 0.159049 1.42683
-0.700622 0.340649 3.07393
0.0112756 0.581855 1.28451
-0.314095 0.622486 1.914
-0.087123 0.632706 2.66263
-0.728167 0.278836 3.24379
0.809426 -0.0394502 3.96658
0.427617 0.545283 2.05234
0.559376 0.456604 2.02572
0.0259057 0.500331 1.95502
-0.301018 0.636275 1.86777
-0.853292 0.205445 2.48172
-0.248431 0.483015 1.00698
0.774865 0.170819 3.57634
0.0456233 0.510406 1.54362
-0.336703 0.670367 2.0562
-0.852943 0.162891 2.91248
0.84839 0.617959 2.1308
1.10151 0.0360708 1.82591
-0.614547 0.431723 2.10081
0.613241 0.288024 1.96088
-0.835234 0.0754372 1.3374
-0.352406 0.480581 1.13622
0.89743 0.38174 3.07255
0.764883 0.369596 1.61481
0.139731 0.429048 0.937542
-0.902776 0.103504 1.78581
0.80142 0.164374 2.39924
-0.419662 0.398658 1.07338
0.636979 0.0562487 1.37058
-0.81192 0.173258 3.57361
0.242626 0.625541 3.44437
-0.97291 -0.0581413 3.91293
0.826361 -0.0181339 3.53368
-0.0331162 0.645055 1.4339
0.54931 0.702224 1.84306
0.414064 0.435662 2.56574
0.73433 0.50795 2.45135
-0.763409 0.236292 1.92813
-1.02481 -0.0133516 2.54694
0.782974 0.183377 3.74811
-0.0565041 0.650249 3.21167
0.242185 0.323467 0.914156
-0.776903 0.218882 1.80054
-0.17991 0.700989 2.69941
0.478299 0.562689 2.90301
-0.821189 0.115581 2.10143
-0.298979 0.643171 1.78911
-0.139659 0.503912 2.3677
0.599644 0.244667 2.18869
-0.539616 0.333284 3.88988
-0.172618 0.385217 2.80634
-0.409826 0.467308 1.23979
1.10566 0.207836 2.69866
0.757252 0.216436 4.07864
0.0791952 0.637347 3.17268
0.577961 0.552892 1.97469
-0.105081 0.383419 3.17443
-0.962589 0.0369134 1.86319
0.132052 0.480914 3.45438
-0.131612 0.392424 3.48596
0.493669 0.705114 1.27643
-0.152469 0.547068 1.25179
-0.781317 0.203831 1.43319
-0.474761 0.482997 1.53012
-0.452145 0.456716 3.86948
0.0940808 0.616 3.1898
-0.116167 0.712882 3.36503
0.307844 0.705853 3.4349
0.949503 0.149007 2.28009
-0.346343 0.627067 1.79795
-0.130242 0.656687 2.99492
0.819609 0.467369 1.56013
1.07617 0.278226 2.8632
-0.772718 0.214024 3.44136
0.397259 0.360373 3.61923
-0.549135 0.37986 3.49706
-0.58298 0.321146 1.15463
-0.0958674 0.711187 1.45332
0.550123 0.713276 2.81255
0.826082 -0.233724 3.92702
-1.06863 -0.0157222 2.41018
-0.280917 0.531039 3.44544
-0.700383 0.320568 3.27063
0.890863 -0.0881936 1.6413
-0.0182575 0.851108 2.24554
-0.0767741 0.444488 0.962472
0.250523 0.618251 1.64981
-0.9131 0.0580794 3.57448
0.642554 0.194915 1.54656
-0.464016 0.532145 1.90875
0.714973 0.672399 3.07841
0.585048 -0.00926321 3.76233
0.897618 -0.0179043 2.63963
-0.036022 0.735081 2.79601
-0.214993 0.393125 0.798637
-0.0753569 0.604397 2.57713
0.893702 0.261742 4.23553
-0.328152 0.474648 3.12957
-0.447685 0.549992 1.78743
0.911606 0.174459 2.7605
-0.042673 0.651991 2.60081
-0.360283 0.655872 2.13571
-0.0408683 0.578979 1.26697
-0.248376 0.450478 3.6385
-0.666564 0.390523 2.42477
-0.551238 0.346957 1.19051
0.574863 0.447113 3.01769
-0.569265 0.411788 3.37154
0.504285 0.0615722 2.15672
1.02429 0.0309542 3.05956
-0.700199 0.360395 2.51245
0.604018 0.111907 2.99431
0.530926 0.578825 1.93947
0.86842 0.356976 2.91765
-0.624967 0.343098 1.46412
0.744402 -0.0494617 3.22484
-0.804169 0.251837 2.66125
-0.409369 0.425313 3.66853
0.0289674 0.648979 1.03367
0.348241 0.811757 2.56684
-0.429674 0.562727 1.76017
0.776114 0.504152 2.18742
0.591071 0.380395 2.59402
0.742886 -0.117986 1.64592
0.847725 -0.135737 3.69755
0.899273 0.251678 2.25792
0.346378 0.662014 2.57843
0.802402 0.268852 2.23532
-0.614011 0.418728 2.41691
1.00659 0.115078 2.6601
0.111752 0.670696 1.61999
0.362906 0.227036 2.81732
-0.307887 0.492893 1.79164
-0.671236 0.294636 1.34248
0.362742 0.346503 3.4326
0.981336 0.0759795 3.21734
-0.120298 0.70757 1.81191
0.894828 0.195379 2.82386
1.01192 0.0182734 3.70765
0.199703 0.841468 2.01542
-0.0859929 0.720106 2.1449
0.685081 0.377359 3.26671
-0.430221 0.472762 3.84939
0.413424 0.612608 2.05864
0.345244 0.746728 2.99605
-0.533031 0.462429 1.73292
-0.872333 0.145025 3.14608
0.0860066 0.575948 1.56912
-0.580887 0.417528 2.67582
1.03076 0.0378677 2.07852
0.36665 0.725398 3.364
0.739324 0.475604 1.5684
-0.262259 0.760621 2.16843
0.513785 0.217694 2.08241
-0.190514 0.638926 1.70053
0.802661 0.315341 1.77263
1.07608 0.110136 3.69611
0.868759 -0.199647 1.48371
-0.0886898 0.559791 2.94812
0.515063 0.78345 3.22875
0.217549 0.504866 0.922653
0.303588 0.569963 2.00576
-0.311162 0.538215 1.42143
0.466417 0.576725 1.80596
-0.670517 0.358431 1.81625
-0.840083 0.0852707 1.66034
-0.518456 0.437953 3.02244
-0.132621 0.506194 0.907265
0.410588 0.512405 2.60502
-0.0203611 0.671706 1.93239
1.00521 0.471127 3.02337
0.184586 0.578586 1.5535
0.370519 0.726208 1.93931
-0.845457 0.0990842 3.78434
-0.219849 0.692767 2.27314
-0.305311 0.700575 2.58026
0.0779743 0.564968 2.7513
-0.124919 0.49015 3.27015
-0.296989 0.688333 3.24836
-0.305042 0.56766 1.28056
-0.938833 0.0706606 2.98595
0.716185 0.0958199 3.12388
0.383086 0.420128 2.4149
0.288309 0.429318 1.12873
-0.723141 0.251096 3.38274
-0.308716 0.526019 3.0448
0.378951 0.646199 1.2664
0.623216 0.614936 2.18345
0.678997 0.28451 1.30993
0.286253 0.528594 2.27026
0.346299 0.57632 1.71154
-0.914593 0.0289828 3.7504
0.0228573 0.636599 1.46592
0.328076 0.705985 2.03772
0.809887 0.377784 1.56848
-0.166514 0.61384 3.3289
0.0263888 0.5804 1.27205
-0.916168 0.0207449 1.16469
-0.384576 0.615625 1.89007
0.328897 0.783394 2.80995
-1.01378 -0.000183092 2.15351
0.666154 0.0308639 3.03126
0.906759 0.0192739 1.78533
0.651966 0.309562 2.87551
0.218043 0.532338 2.81216
0.74547 0.135659 3.08079
-0.471731 0.522613 1.79367
0.96979 -0.0404847 4.35161
-0.748906 0.307341 2.70415
0.127159 0.760331 2.85864
-0.450453 0.554026 3.42523
-0.6159 0.375613 1.93193
0.719998 0.411629 2.48229
-0.338546 0.637619 2.94605
0.577911 0.506676 3.41414
-0.0642841 0.664727 1.33521
0.717579 0.156733 4.05087
0.880899 0.0152558 2.16233
-0.862849 0.106454 1.5164
0.447209 0.628574 1.37707
0.837782 0.107271 1.68033
0.455167 0.371275 1.33697
0.180427 0.534318 1.02265
-0.29868 0.550408 3.07527
0.187982 0.263931 2.50772
-0.925285 0.100287 2.99687
0.569742 0.652454 3.87929
-0.386275 0.501362 1.43374
-0.494301 0.44981 1.82922
-0.226246 0.528928 2.7912
-0.116656 0.724468 2.64726
-0.325588 0.572484 3.79778
0.249388 0.471045 2.4681
-0.930012 -0.0776619 4.32819
-0.76494 0.189763 1.93873
-0.650498 0.405659 2.71579
0.290287 0.849653 1.34071
0.0887979 0.466749 3.48154
0.0841844 0.57888 2.51617
0.871124 0.240041 1.86319
-0.779016 0.255979 1.77108
-0.632697 0.326017 1.35006
-0.476216 0.493297 1.55786
-0.418833 0.609184 2.32444
-1.04434 -0.0309047 2.39637
-0.392159 0.351182 0.821182
0.591328 0.545706 3.26271
0.855053 0.248913 2.04239
-0.549544 0.276457 0.875999
1.07312 0.177862 3.49332
0.700639 0.323057 1.76522
0.186273 0.820905 2.81414
0.688996 0.543275 3.51667
-0.632787 0.272433 3.91874
-0.534853 0.385537 1.25569
0.479721 0.762625 1.61593
0.772839 0.287121 3.15892
0.515582 0.642789 1.7479
-0.704347 0.275588 1.38914
0.585761 0.380196 2.02462
0.00506846 0.612829 2.42862
-0.842582 0.183063 2.9812
0.178624 0.391676 3.49126
0.0228791 0.797672 2.51738
-0.930073 -0.0272381 1.90479
0.0894819 0.795847 2.30623
0.539925 0.703712 1.64607
0.93726 0.0114708 4.08817
0.159103 0.730875 3.85316
-0.279522 0.516595 3.46185
0.285309 0.64382 3.38826
0.304519 0.593619 2.57661
-0.70413 0.240895 1.29212
-0.257253 0.436708 3.53051
0.832359 0.286071 2.6927
0.534016 0.384723 3.43542
0.139213 0.594267 3.19342
-0.798771 0.131863 3.58327
-0.257333 0.647876 2.673
-0.688233 0.372362 2.52596
0.865902 0.118695 2.7814
0.0627478 0.783466 2.53957
0.209944 0.636885 2.11143
0.155361 0.40679 2.35808
