ply
format ascii 1.0
comment Created by Open3D
element vertex 400
property double x
property double y
property double z
end_header
1.66817 1.21789 0.904587
2.90281 2.20993 -0.301741
1.63476 0.745396 0.320516
1.63977 1.56801 -0.838229
1.85359 1.72939 0.96483
1.58519 1.13115 0.652656
1.18213 0.732229 -0.647661
1.9565 1.07627 0.393493
2.63081 1.89977 -0.526179
2.93387 2.93576 -0.921221
1.04138 0.650762 0.526602
1.75568 0.795199 -0.183021
2.15886 1.77355 -0.719548
2.63466 1.83624 -0.331024
2.25869 1.39996 -0.408772
0.996974 1.03143 0.877124
1.34112 0.813083 0.629163
2.40411 2.34692 -1.07803
1.00935 0.266453 -0.121987
2.05476 1.93682 -0.968036
2.00374 1.04361 0.211617
2.16398 1.17816 0.06223
2.31442 1.48887 -0.424692
1.60697 0.657027 -0.219483
0.991356 0.209846 -0.220014
1.91131 1.06524 0.26162
1.46174 1.42144 -1.02412
2.63541 2.01068 0.391396
2.03021 1.37921 -0.477932
2.63089 2.15679 0.625851
1.36363 1.30869 0.814036
2.20394 1.40403 -0.41214
1.4277 1.07708 -0.664454
2.54964 1.77153 -0.368642
1.54192 0.983051 -0.584989
1.63711 0.817541 -0.415949
2.89621 2.15105 -0.191693
2.6893 2.1659 0.734149
1.40055 0.597863 0.376263
1.21347 0.739284 -0.726626
1.99366 1.38659 -0.620534
2.35699 2.04203 0.949947
2.64041 2.26924 -0.658602
2.35585 1.41896 -0.112108
2.80838 1.99377 -0.136293
1.08169 0.650499 -0.598471
2.45445 1.87225 0.688107
2.08513 1.26615 -0.251751
2.82751 2.61069 0.755172
2.01353 1.12357 -0.19724
2.76314 2.87616 -1.0165
1.36959 0.80581 -0.55946
2.03174 1.7649 -0.940044
2.96321 2.74749 -0.757877
2.59362 2.47982 -0.823837
2.27071 1.35359 0.447588
1.91968 1.5067 0.876039
1.37994 1.40857 0.831578
1.47892 0.578585 -0.135625
1.33517 0.565359 -0.492611
2.26506 2.29044 -1.0661
2.20426 1.81826 0.886675
1.65254 1.06441 -0.463732
1.50195 1.46204 1.0194
2.25175 1.94322 0.8071
2.49617 2.22042 -0.79974
2.5355 2.15343 0.679459
1.59734 0.697454 0.142104
2.35879 1.66919 -0.443273
2.56951 1.982 0.687759
2.25864 1.59305 0.347204
1.04548 0.564564 -0.701046
1.38523 0.686514 0.336714
2.76697 2.83671 -1.05709
2.62174 1.87311 -0.391603
1.87005 1.51124 0.837872
1.30327 0.663623 0.517043
1.13911 0.716424 0.689544
2.37728 1.43603 0.114768
2.33073 1.88854 0.745581
2.49758 1.72589 0.223352
2.77682 2.34301 0.633267
2.86245 2.00841 0.317839
2.12119 1.26256 0.214772
2.84315 2.14714 -0.324092
1.31518 0.451668 -0.0613519
1.59845 0.78107 0.36919
2.60605 1.68623 0.0896249
1.37166 0.511643 0.187233
1.55057 1.20759 0.731437
3.1094 2.35498 0.360223
2.2787 1.36996 -0.289
1.46366 1.04441 -0.661885
2.24861 1.60319 -0.693445
2.57055 1.80913 0.2539
1.39648 0.573805 0.289645
2.51884 1.64875 -0.28623
1.27655 0.993497 0.712127
2.31145 2.27814 0.914987
2.67055 1.77188 -0.0402344
2.83577 1.9825 0.484966
2.41905 1.50633 0.00174531
1.70454 1.32285 -0.785542
1.46822 0.815501 0.454931
0.890958 0.259838 0.182038
2.48213 1.61217 0.390533
2.60707 1.81967 -0.382183
2.08855 1.53927 0.659747
2.37639 1.63056 0.630555
1.78144 1.43417 -0.802157
1.12079 0.27986 -0.21939
2.64398 1.85482 -0.297521
2.51867 2.30802 -0.731519
1.79166 1.27815 -0.477121
2.28318 1.76417 0.640684
1.78122 1.29303 0.757624
2.24374 1.45586 -0.546548
2.25842 1.95739 -0.86584
1.51977 1.55362 -0.83387
2.23113 2.11573 0.950266
1.53703 0.800569 -0.400321
1.06057 0.888073 0.813033
2.05001 1.36238 -0.639661
2.94636 2.90563 0.825239
2.80722 2.20494 0.308075
1.07227 1.00402 -0.850679
1.9056 1.03204 -0.246737
1.05809 1.07881 0.8212
3.00914 2.27421 0.300207
1.17105 1.15883 1.02474
2.99297 2.36917 0.412289
2.7064 2.30057 0.547159
1.70046 0.913042 0.506162
1.29733 0.662121 -0.439929
1.33872 0.577416 0.395136
1.99253 1.00651 -0.0143251
1.28221 0.372435 -0.144605
2.4847 1.69344 -0.381384
1.01267 0.216953 -0.0165473
2.3135 2.25785 -1.02269
1.89373 1.8886 -0.949063
1.16023 0.428999 0.313539
1.0727 0.756937 -0.629443
2.32646 1.84989 0.711943
2.73002 1.90051 -0.191073
2.13666 2.0919 -0.913604
2.54993 2.09623 -0.655834
1.18111 1.1172 -1.17615
2.67067 1.82919 -0.197138
2.24003 1.87459 0.621272
1.05598 1.26968 1.03291
1.2986 0.491663 0.279973
1.04307 0.272767 -0.0692331
2.0032 1.20561 0.432773
1.34407 0.735637 -0.591043
2.92748 2.97467 -0.76098
1.51669 1.47139 -0.896607
0.990216 0.618006 0.600836
1.28994 1.27655 -1.01813
1.23625 0.569652 0.500892
1.3971 0.494794 0.0655843
1.74866 1.47252 -0.853408
1.29806 1.27565 -1.0453
2.55525 2.10144 0.954356
1.83506 0.861079 -0.298011
1.42184 1.25252 0.797865
1.21744 1.04633 -0.923839
3.00419 2.93541 0.848606
1.94712 1.09079 0.678056
1.70557 1.50895 -0.874862
1.1628 0.456395 0.320415
1.66979 1.40849 0.938444
1.42714 0.529655 -0.180565
1.37154 0.530402 0.259082
2.13567 1.50017 0.636609
1.75015 0.962005 0.362065
2.11425 1.24658 0.304834
2.75878 1.89553 0.168264
1.66071 0.761981 -0.165349
2.08229 1.30764 -0.539691
1.77914 0.835085 0.104025
2.0303 1.25716 -0.386077
1.85961 1.0459 -0.295601
2.46064 1.52759 -0.0983561
2.29301 1.58561 0.539258
2.55063 1.66163 -0.181784
3.08854 2.96794 -0.662186
2.54447 2.55459 -1.06178
1.18078 0.386371 -0.0892094
2.75709 2.80466 -0.896733
1.6561 1.01058 0.750493
0.981084 0.208874 0.0235741
1.12555 0.819276 -0.607544
2.31163 1.88549 0.73035
2.69807 2.12006 0.608951
2.51094 1.76933 0.493661
2.05887 1.88158 0.946565
2.07478 1.08674 0.233056
2.54671 2.21167 -0.821769
1.06682 0.277034 -0.0563556
1.23544 0.438687 0.243197
2.16249 1.23772 0.183465
2.62608 1.94532 0.646916
1.95557 1.3315 -0.625291
2.2919 1.57663 0.379366
2.2285 2.22726 0.96565
2.83192 2.47012 0.829791
1.7426 1.09998 -0.624337
1.82264 0.858436 0.155336
1.73766 1.52811 0.724553
1.52087 1.12315 -0.774933
2.70889 2.27612 0.631304
2.5139 1.75965 -0.470607
2.41731 2.33369 -0.881081
1.34709 0.717899 -0.273571
1.83285 1.72295 1.09153
2.13701 1.49374 -0.624326
2.94566 2.87049 0.878726
2.80038 2.01478 -0.154449
1.31443 0.480877 0.226637
2.88012 2.07999 0.384752
2.44222 1.47592 0.0329171
1.50833 1.53929 -0.990335
1.90895 1.23955 0.356625
2.06648 1.17005 -0.450957
1.63173 0.692122 -0.279418
1.75328 1.5787 0.934984
1.99223 1.84414 1.01692
2.42519 1.6683 -0.375254
1.76401 1.0384 -0.569448
2.30156 1.4497 0.373554
2.17092 1.35441 0.363471
1.58606 1.52824 -0.970718
1.59921 1.38271 0.935981
2.29263 1.4607 0.49553
2.47431 2.36438 1.22099
2.97596 2.81444 0.997424
1.2088 0.478882 0.327312
1.35848 0.692684 -0.568316
1.79248 0.889907 -0.178873
2.24578 1.30176 0.333842
2.38886 1.74427 -0.685729
2.88285 2.69001 0.634438
1.88746 1.16055 0.54074
2.8929 2.14907 -0.238726
2.0079 1.11023 0.31448
1.81157 0.827814 -0.0708257
2.31792 1.61906 -0.330447
1.17109 0.778013 0.671173
2.49236 1.67167 0.459613
1.14645 0.406532 0.286752
2.67368 2.70555 0.951381
1.88618 1.10019 -0.107127
2.03297 1.06769 -0.321621
2.59046 2.05324 0.479833
1.63679 1.25535 -0.833298
2.40612 2.12063 0.86023
1.97522 1.90235 -0.933904
2.42719 2.30099 -1.01871
1.44235 0.574738 0.177078
1.21614 1.11466 0.837394
2.50197 1.64376 -0.051015
1.16369 0.947532 0.821042
1.72383 0.819497 -0.429253
2.46027 1.96361 -0.781898
2.88863 2.38906 0.677481
1.99878 1.29825 0.528083
2.84856 2.12223 0.312117
2.2427 1.5281 0.485427
2.27842 2.15791 0.972364
1.2278 0.898376 -0.667174
1.59328 0.679934 0.159704
2.04855 1.13169 -0.331523
2.9517 2.55783 0.622721
1.77588 1.57281 -1.0139
2.90664 2.76854 0.882047
0.959124 0.229284 -0.194426
2.76613 2.70919 0.945056
2.69166 2.21297 -0.678329
1.53155 0.824025 -0.237925
2.38977 1.40855 0.235148
1.46394 1.06363 0.690238
2.44488 1.96686 0.530763
1.8394 1.0064 0.323335
2.6754 1.95119 -0.427713
1.12494 0.616403 0.542703
1.47444 0.65106 0.4141
1.5532 0.659304 0.0856937
2.48756 1.79739 0.371229
2.79837 2.23417 -0.604545
2.79111 2.36789 0.617377
3.04511 2.54104 -0.431932
1.97933 1.69066 0.835952
1.76365 0.770464 -0.0779158
2.90866 2.17022 -0.232375
1.40363 1.17014 0.804381
2.62295 1.8241 -0.299958
2.77122 2.16417 0.272525
1.1283 0.513743 -0.730997
1.18023 0.810078 0.753998
2.63279 1.76909 -0.175245
1.64827 0.751417 0.364157
2.18947 1.70512 -0.806543
1.06251 0.410717 0.363927
2.44501 1.81903 -0.608236
2.11744 1.12584 -0.0856238
0.995874 0.899614 0.777424
1.38951 0.460342 -0.0798681
2.14911 1.45801 -0.581047
1.30952 0.608879 0.374779
2.17096 1.83987 -1.01153
2.25555 2.09433 1.12952
2.16673 1.31767 0.468184
1.05371 0.507751 -0.605309
1.8137 1.18273 0.628311
1.77629 0.887575 0.284565
2.53491 2.53015 0.980472
1.69514 1.40829 -0.993399
1.97359 1.83669 -0.844625
2.64237 2.70091 0.781458
1.32023 1.44019 1.06698
1.00147 0.665169 0.499539
2.40842 1.74338 -0.602321
1.04701 0.388163 -0.433767
1.47576 0.741831 -0.415469
1.96837 1.05441 0.37984
2.76305 2.28004 -0.566099
2.94675 2.35386 -0.443838
2.47195 2.44512 -0.945237
1.68043 0.700299 -0.0143011
1.93706 1.16556 0.49701
2.91878 2.50673 0.660362
1.75145 1.39245 -0.929284
2.76442 2.27672 0.580686
1.66837 1.44223 -0.715359
2.95441 2.26664 0.5094
2.15897 1.1611 0.0612779
2.68131 1.79153 -0.0605925
2.7379 1.81961 0.0991471
2.84547 3.00099 -1.06006
1.58735 0.990819 -0.673691
1.13141 0.71377 -0.85656
1.21884 0.686515 0.409145
1.65073 1.32074 0.679433
1.61139 0.953435 0.496795
1.56152 0.859548 -0.571302
1.85306 1.14848 -0.650965
2.21305 1.32368 0.248738
2.18296 1.21943 -0.223065
2.15946 1.36607 0.586126
2.2265 1.27607 0.271667
2.78592 2.55562 -0.786346
2.05818 1.28726 0.412271
1.22396 0.512337 0.410137
2.03913 1.53976 0.709598
1.20082 0.437334 0.256474
1.45252 1.34124 -0.804546
1.60232 1.53583 1.01905
2.21126 1.72664 -0.802265
1.45126 0.615706 -0.0392343
1.286 0.569026 -0.462934
1.63115 1.10517 -0.400735
1.915 1.002 0.355371
2.06237 1.84463 -0.824965
1.63063 1.50076 -0.728669
1.71089 0.750395 0.153825
1.80212 1.58926 -1.04038
1.44118 1.26243 0.831152
2.08089 1.7058 -0.693125
2.51454 1.54928 0.248283
0.953095 0.231985 -0.259165
1.38171 1.13239 0.835193
2.58526 1.69662 0.360103
1.98733 1.86734 0.9258
1.06273 1.21069 0.99933
2.83724 2.19433 -0.478964
2.46442 1.49055 0.176671
2.30768 1.95646 0.872002
1.75683 0.964796 -0.578064
1.54171 1.0676 0.670833
2.27501 1.43178 -0.527503
1.32629 0.81034 0.54872
1.34227 0.569956 0.408366
3.00879 2.25825 -0.103532
1.8492 0.956382 0.250312
2.07549 1.75062 -0.990535
2.72473 1.87389 -0.113421
1.27819 0.79874 0.65762
2.41562 1.88529 -0.602032
1.52815 0.702975 0.357915
1.76372 1.47524 0.79553
2.69735 2.29299 -0.660605
1.82694 1.24028 -0.619626
2.7844 1.96219 -0.0826484
0.929668 0.370478 0.354898
1.67662 0.949019 -0.599011
1.8668 1.08442 0.621074
2.41391 1.55548 0.117552
2.59742 2.24517 -0.683444
1.87786 1.50481 -0.613446
