ply
format ascii 1.0
comment Created by Open3D
element vertex 400
property double x
property double y
property double z
end_header
-1.30164 0.589632 2.03477
-2.62144 0.515055 2.03781
-2.4641 0.596814 2.37107
-1.71912 0.232541 2.90766
-2.76966 0.502966 2.29286
-1.03439 0.471248 0.674774
-2.65887 0.546748 2.24567
-1.84917 0.591874 1.26818
-2.41976 0.240628 1.22525
-1.3227 0.590212 1.39177
-1.24001 0.594023 0.824099
-1.54198 0.525639 1.93489
-3.74716 -0.132313 2.28883
-1.94155 0.711613 2.40687
-2.81402 0.480271 2.30329
-2.75198 0.520416 2.47654
-1.49 0.407231 3.00011
-1.17299 0.140941 2.04055
-2.38034 0.679448 2.15904
-3.17703 0.088466 2.01408
-1.31137 0.53279 1.98099
-1.53408 0.495407 0.880261
-1.91198 0.816284 2.32887
-1.70499 0.590482 1.15096
-1.84593 0.567055 1.25801
-1.95226 0.381644 1.69218
-2.87392 0.314065 1.93116
-2.57059 0.432252 1.81325
-2.09548 0.114046 0.888951
-2.15213 0.533578 1.46854
-1.59726 0.692073 1.83979
-2.27842 -0.0675718 3.1802
-2.00873 0.358359 0.981564
-1.55179 0.54931 2.48835
-1.03775 0.0475129 2.25353
-0.932202 0.801528 1.27572
-2.74686 0.0168666 1.24866
-2.23017 0.637309 1.78262
-1.73261 0.376085 0.768332
-1.05123 0.358358 0.602567
-1.53767 0.615967 1.05222
-2.49521 0.543701 2.20793
-2.62187 0.548196 2.24141
-1.3452 0.522006 2.10813
-0.596904 0.215724 1.63204
-1.32372 0.637467 1.03341
-1.86864 0.711565 1.8527
-2.39744 0.668027 2.51572
-1.42837 0.496368 1.45689
-1.33775 0.455501 0.648347
-2.7075 0.165353 1.45242
-1.7564 0.73731 1.87375
-1.57762 0.776713 1.72923
-1.50233 0.477181 2.13062
-2.05521 0.565739 2.92027
-2.36233 0.408037 2.63377
-1.96607 0.434408 2.82241
-0.645503 0.672161 0.792807
-1.47881 0.283981 1.73001
-1.07881 0.742813 1.39221
-0.774258 0.433039 1.61946
-2.12208 0.058572 2.99803
-1.43016 0.690717 1.57007
-1.45872 0.622166 2.12964
-1.02745 0.672131 1.25312
-1.97805 0.432549 2.63276
-1.52227 0.569434 0.950912
-1.10998 0.0904667 1.54401
-1.82428 0.437089 0.966863
-0.74236 0.52362 2.00685
-1.70542 0.746079 1.858
-0.835519 0.618289 0.727321
-2.74556 0.251387 1.58406
-2.61301 0.257094 1.63531
-0.829183 0.643753 1.12547
-2.20351 0.384399 2.50757
-1.13325 0.418864 0.500234
-1.50572 0.269685 0.521132
-2.00948 0.516416 1.27531
-2.40655 0.332987 1.44103
-0.973141 0.615626 0.934529
-1.98526 0.68628 1.61054
-1.3373 0.398143 2.12139
-1.19276 0.809509 1.18941
-0.70207 0.511957 0.56811
-1.56471 0.664403 1.16415
-3.00805 0.381578 2.32439
-2.74277 0.389119 1.94212
-1.58527 0.0322109 0.365928
-2.23962 0.612062 2.25116
-1.31462 0.815581 1.39656
-3.52729 -0.0799994 2.06215
-2.98026 -0.0688086 1.37392
-0.866747 0.552689 1.62844
-2.68028 0.558377 2.25481
-2.61463 0.0462494 1.28974
-1.02697 0.471433 1.97915
-2.37291 -0.171892 3.53675
-0.808955 0.781989 1.45418
-1.2151 0.436176 1.10292
-0.697119 0.703054 0.948381
-1.64141 0.717932 1.42498
-0.732938 0.609692 1.88154
-1.14302 0.52934 0.649624
-0.736491 0.299267 1.44064
-0.698294 0.348485 2.53514
-1.54437 0.810822 1.50762
-2.42714 0.145709 1.16501
-0.743096 -0.0384149 2.08288
-2.73801 0.0948725 1.33751
-2.29567 0.385119 1.31942
-0.543056 0.350054 1.49069
-1.20144 0.551355 0.881198
-2.22635 0.526905 1.82053
-1.25627 0.0560611 2.24248
-0.408679 0.159049 1.56754
-2.56075 0.340649 1.63334
-0.959045 0.581855 0.940585
-1.59112 0.622486 1.13777
-1.99001 0.632706 1.84006
-2.85003 0.278836 1.79597
-2.30023 -0.0394502 3.40522
-1.16689 0.545283 1.76106
-1.04796 0.456604 1.83254
-1.54158 0.500331 1.47425
-1.52797 0.636275 1.10555
-2.45585 0.205445 1.19192
-0.971392 0.483015 0.571038
-1.99618 0.170819 3.08308
-1.20902 0.510406 1.1858
-1.56733 0.670367 1.16421
-2.88033 0.162891 1.54651
-0.690351 0.617959 2.01695
-0.382587 0.0360708 2.0163
-1.93442 0.431723 1.0569
-1.02399 0.288024 1.84961
-1.5993 0.0754372 0.381184
-1.11626 0.480581 0.580602
-1.4202 0.38174 2.75839
-0.518967 0.369596 1.64872
-0.660407 0.429048 0.801623
-2.00207 0.103504 0.666217
-1.1694 0.164374 2.2796
-1.23601 0.398658 0.536919
-0.642583 0.0562487 1.47086
-3.03942 0.173258 1.92728
-2.20808 0.625541 2.58394
-3.51293 -0.0581413 2.10298
-1.99472 -0.0181339 3.1163
-1.05383 0.645055 0.997335
-0.773646 0.702224 1.63318
-1.60643 0.435662 2.14223
-1.12168 0.50795 2.21432
-1.84996 0.236292 0.801525
-2.5867 -0.0133516 1.10161
-2.08972 0.183377 3.20108
-2.27914 0.650249 2.21787
-0.604349 0.323467 0.871171
-1.81345 0.218882 0.72006
-1.98486 0.700989 1.76038
-1.68608 0.562689 2.37917
-1.91496 0.115581 0.842454
-1.44386 0.643171 1.04016
-1.95933 0.503912 1.65266
-1.23034 0.244667 2.01585
-3.12657 0.333284 2.36669
-2.35772 0.385217 1.9664
-1.05789 0.467308 0.541907
-0.976036 0.207836 2.62777
-2.30735 0.216436 3.40242
-2.17369 0.637347 2.29373
-0.933202 0.552892 1.78245
-2.52193 0.383419 2.25443
-2.1041 0.0369134 0.680717
-2.41338 0.480914 2.56256
-2.71024 0.392424 2.43494
-0.357165 0.705114 1.17033
-1.08861 0.547068 0.816953
-1.71022 0.203831 0.520728
-1.47609 0.482997 0.770452
-2.93442 0.456716 2.36612
-2.18928 0.616 2.32217
-2.32639 0.712882 2.2413
-2.08791 0.705853 2.59547
-0.897492 0.149007 2.2657
-1.45232 0.627067 0.999962
-2.19006 0.656687 2.01744
-0.35118 0.467369 1.6113
-1.10159 0.278226 2.71844
-3.02243 0.214024 1.90467
-2.3364 0.360373 2.86416
-2.88813 0.37986 2.0957
-1.29924 0.321146 0.433447
-1.00209 0.711187 0.921199
-1.45948 0.713276 2.31966
-2.34169 -0.233724 3.42267
-2.7216 -0.0157222 1.05703
-2.63865 0.531039 2.23919
-2.75531 0.320568 1.79565
-0.57921 -0.0881936 1.81063
-1.43142 0.851108 1.50479
-0.881532 0.444488 0.687038
-1.00372 0.618251 1.34965
-3.22335 0.0580794 1.90265
-0.711567 0.194915 1.5779
-1.44468 0.532145 0.925021
-1.48318 0.672399 2.60445
-2.41743 -0.00926321 3.14479
-1.29861 -0.0179043 2.52889
-1.93832 0.735081 1.92501
-0.873678 0.393125 0.477702
-1.95511 0.604397 1.80195
-2.22817 0.261742 3.57106
-2.55609 0.474648 2.02692
-1.43708 0.549992 0.88795
-1.28304 0.174459 2.5865
-1.9029 0.651991 1.82283
-1.65079 0.655872 1.20814
-0.987697 0.578979 0.893043
-2.81094 0.450478 2.42307
-2.10743 0.390523 1.21073
-1.24051 0.346957 0.455722
-1.72268 0.447113 2.53838
-2.75786 0.411788 1.96962
-1.41457 0.0615722 1.98356
-1.41056 0.0309542 2.87588
-2.25692 0.360395 1.27534
-1.8462 0.111907 2.60902
-0.945904 0.578825 1.72609
-1.36148 0.356976 2.6409
-1.49661 0.343098 0.601407
-1.9055 -0.0494617 2.86946
-2.49267 0.251837 1.33065
-2.90784 0.425313 2.31465
-0.596947 0.648979 0.704393
-1.42751 0.811757 2.00276
-1.4044 0.562727 0.881133
-0.881279 0.504152 2.04721
-1.4566 0.380395 2.26889
-0.800446 -0.117986 1.7562
-2.12658 -0.135737 3.26016
-0.900878 0.251678 2.20769
-1.54406 0.662014 2.05397
-1.00011 0.268852 2.14256
-2.23659 0.418728 1.31353
-1.11612 0.115078 2.57075
-1.06857 0.670696 1.22539
-1.94663 0.227036 2.3362
-1.68976 0.492893 1.13416
-1.57134 0.294636 0.53571
-2.26691 0.346503 2.72355
-1.55378 0.0759795 2.9576
-1.33861 0.70757 1.18469
-1.33903 0.195379 2.61915
-1.86685 0.0182734 3.32095
-1.14141 0.841468 1.50731
-1.55636 0.720106 1.44712
-1.79815 0.377359 2.78301
-2.90815 0.472762 2.36884
-1.14443 0.612608 1.74018
-1.75717 0.746728 2.31409
-1.68108 0.462429 0.881091
-2.9512 0.145025 1.65325
-1.13578 0.575948 1.20642
-2.41678 0.417528 1.52854
-0.681694 0.0378677 2.17408
-1.97964 0.725398 2.58006
-0.457947 0.475604 1.57866
-1.43748 0.760621 1.23135
-1.27161 0.217694 1.90306
-1.37307 0.638926 1.08261
-0.623761 0.315341 1.79528
-1.74122 0.110136 3.3283
-0.526024 -0.199647 1.70122
-2.23121 0.559791 2.05665
-1.71839 0.78345 2.56423
-0.492765 0.504866 0.803835
-1.25132 0.569963 1.65271
-1.32041 0.538215 0.824548
-0.919352 0.576725 1.59528
-1.86621 0.358431 0.854807
-1.73636 0.0852707 0.566874
-2.58041 0.437953 1.80232
-0.768441 0.506194 0.561479
-1.59119 0.512405 2.14871
-1.41389 0.671706 1.36571
-1.21411 0.471127 2.76043
-1.02521 0.578586 1.25273
-1.0231 0.726208 1.59759
-3.29483 0.0990842 2.08683
-1.73232 0.692767 1.43926
-1.90878 0.700575 1.55411
-1.9754 0.564968 2.03584
-2.50308 0.49015 2.26643
-2.30654 0.688333 2.00392
-0.998445 0.56766 0.638955
-2.7445 0.0706606 1.4348
-1.80644 0.0958199 2.75839
-1.54701 0.420128 2.02416
-0.66793 0.429318 1.03251
-2.98595 0.251096 1.91486
-2.44331 0.526019 1.96454
-0.523343 0.646199 1.12029
-0.999579 0.614936 1.94167
-0.420759 0.28451 1.39587
-1.48428 0.528594 1.84143
-0.9807 0.57632 1.46146
-3.36052 0.0289828 2.03085
-1.04961 0.636599 1.06483
-1.15394 0.705985 1.6501
-0.417339 0.377784 1.63244
-2.43954 0.61384 2.22285
-0.936726 0.5804 0.941294
-1.70208 0.0207449 0.271284
-1.51767 0.615625 1.02695
-1.62656 0.783394 2.16656
-2.34646 -0.000183092 0.850163
-1.83514 0.0308639 2.68188
-0.628394 0.0192739 1.90656
-1.61328 0.309562 2.51128
-1.90922 0.532338 2.1737
-1.72413 0.135659 2.73573
-1.62441 0.522613 0.944082
-2.35216 -0.0404847 3.74658
-2.42454 0.307341 1.37546
-1.84369 0.760331 2.07493
-2.55194 0.554026 2.02537
-1.6334 0.375613 0.860904
-1.21046 0.411629 2.24959
-2.2332 0.637619 1.80677
-1.93933 0.506676 2.79539
-0.952843 0.664727 0.883457
-2.36422 0.156733 3.3748
-0.957179 0.0152558 2.17304
-1.78289 0.106454 0.50376
-0.558245 0.628574 1.24884
-0.600038 0.107271 1.78234
-0.683342 0.371275 1.29201
-0.603982 0.534318 0.854198
-2.42719 0.550408 1.98051
-1.91262 0.263931 2.01895
-2.80012 0.100287 1.47591
-2.14415 0.652454 3.06474
-1.40148 0.501362 0.788111
-1.83158 0.44981 1.02205
-2.25624 0.528928 1.86448
-1.89961 0.724468 1.76672
-2.75016 0.572484 2.38666
-1.69414 0.471045 1.97344
-3.68025 -0.0776619 2.3872
-1.78252 0.189763 0.776453
-2.34325 0.405659 1.44503
-0.480014 0.849653 1.04446
-2.47632 0.466749 2.55663
-1.80906 0.57888 1.87575
-0.640792 0.240041 1.90831
-1.97155 0.255979 0.771232
-1.49911 0.326017 0.54747
-1.3885 0.493297 0.744204
-1.86584 0.609184 1.31684
-2.52991 -0.0309047 0.996189
-1.01813 0.351182 0.369709
-1.8075 0.545706 2.69148
-0.796882 0.248913 2.03112
-1.15076 0.276457 0.289965
-1.58144 0.177862 3.17516
-0.7461 0.323057 1.74086
-1.71832 0.820905 2.06368
-1.86451 0.543275 2.91796
-3.19602 0.272433 2.31425
-1.30545 0.385537 0.526004
-0.626042 0.762625 1.40838
-1.6715 0.287121 2.77366
-0.775947 0.642789 1.56099
-1.6599 0.275588 0.558605
-1.05719 0.380196 1.86229
-1.7912 0.612829 1.75298
-2.85021 0.183063 1.57287
-2.45398 0.391676 2.64122
-1.66183 0.797672 1.75397
-1.94474 -0.0272381 0.664456
-1.47794 0.795847 1.65694
-0.6261 0.703712 1.48109
-2.20316 0.0114708 3.54321
-2.42091 0.730875 2.75791
-2.66337 0.516595 2.25763
-2.12442 0.64382 2.56873
-1.63046 0.593619 2.04714
-1.50326 0.240895 0.453757
-2.77393 0.436708 2.35413
-1.28319 0.286071 2.47922
-2.06753 0.384723 2.81341
-2.17115 0.594267 2.36129
-3.25476 0.131863 2.03363
-2.06074 0.647876 1.70345
-2.24771 0.372362 1.28908
-1.37984 0.118695 2.58955
-1.66543 0.783466 1.80451
-1.37416 0.636885 1.65372
-1.75819 0.40679 1.86037
