ply
format ascii 1.0
comment Created by Open3D
element vertex 200
property double x
property double y
property double z
end_header
-1.27884 2.84667 0.638869
-2.09945 3.59167 0.566452
-5.64642 5.81158 -0.10025
-1.88714 8.00201 -0.464436
-1.86064 3.63448 0.572279
-1.32565 0.913135 0.565688
-4.13298 7.9075 -0.168253
-5.37423 6.93976 -0.135498
-6.97519 4.81932 -0.47534
-2.44076 3.25155 0.557674
-1.58288 -0.624335 -0.229663
-0.102126 6.01302 -0.673706
-2.41256 0.456083 0.266364
-1.99127 2.87666 0.611978
-5.9674 11.1264 -0.958476
-1.17867 6.62479 -0.188595
-1.58386 1.3045 0.595511
-5.89491 6.06167 -0.166437
-4.10169 2.0509 0.146779
-1.43658 0.424321 0.444476
-6.36816 5.91114 -0.273944
-1.17164 0.789975 0.555347
0.712947 1.51713 -0.179984
-3.78275 1.66454 0.176441
0.264003 1.19516 0.398226
-0.626549 -0.476223 -0.260204
-0.487328 3.70433 0.43514
-4.99636 9.55876 -0.555201
-5.20439 2.64885 -0.115355
0.448081 0.662803 -0.368073
-1.83149 8.05805 -0.507373
-0.287131 1.88505 0.598872
-0.885785 6.19155 -0.145867
-0.613718 3.77281 0.452225
0.275421 3.07593 0.253524
-0.601307 -0.0943447 0.250392
0.0326119 0.0114182 -0.347797
0.757862 2.38814 -0.24881
0.363403 4.66222 -0.495048
-0.00729945 -0.0498665 -0.27012
0.388729 4.81025 -0.715373
-0.902817 -0.576767 -0.280197
-2.97525 0.422719 0.0920855
0.229484 2.95484 0.307549
0.701645 1.96904 -0.0131737
-1.5444 4.02192 0.525065
-1.38393 -0.214217 0.182834
-5.01296 7.94573 -0.2288
-3.96165 2.19968 0.209464
0.196101 0.184467 -0.0924606
-2.4766 0.232306 0.16696
-5.91441 11.6042 -1.08677
0.502315 1.28094 0.228143
-0.306269 3.26661 0.466981
-3.95548 6.34669 0.115582
-2.76011 2.83112 0.52015
0.348794 4.31375 -0.249305
-7.73669 5.18431 -0.707621
-4.01781 1.61106 0.0921398
-3.10172 2.85694 0.462223
0.478529 4.54409 -0.924484
-2.34949 2.53863 0.575721
0.613743 3.77245 -0.90342
-4.33849 8.05997 -0.206049
-4.22958 9.44471 -0.538876
-0.255706 -0.263052 -0.201523
-1.26161 -0.673397 -0.657043
0.563721 0.928666 -0.0360378
-2.33628 1.33113 0.484068
-0.0473819 2.04847 0.535619
-4.27235 1.63856 0.0133506
-1.43353 2.6366 0.648958
-0.0912044 5.44407 -0.334201
-1.67029 7.63924 -0.396985
-5.99191 7.07332 -0.255687
-1.63601 -0.655712 -1.02419
-0.474046 1.00781 0.580734
-1.6775 7.77347 -0.4486
-1.96514 7.7387 -0.339241
-0.157784 4.8534 -0.0194177
-4.01433 8.49913 -0.300848
-1.48208 4.65295 0.41844
-4.3786 4.85406 0.199746
0.552874 4.09737 -0.566096
-3.71916 2.79726 0.329943
-0.290806 -0.255355 -0.0715999
-5.37434 6.28435 -0.0742925
0.443679 2.6452 0.220607
-1.60823 5.7063 0.204862
0.75732 2.04853 -0.215447
-1.56376 6.87717 -0.149587
-1.18978 0.241512 0.411906
-5.63074 9.24917 -0.518224
-1.14622 0.711514 0.541512
0.496978 2.15749 0.247015
-6.09611 11.5274 -1.06488
0.639906 3.72791 -0.69182
-2.94195 5.13333 0.356436
0.154556 5.04031 -0.391158
0.738582 2.19293 -0.128922
-2.70324 2.54295 0.522637
-5.83219 9.40779 -0.565302
0.744403 2.8537 -0.555135
-1.21318 -0.66731 -0.616075
-2.94393 2.80889 0.489295
-0.549993 -0.0630161 0.260939
-0.450102 0.369161 0.440266
0.258866 1.52789 0.425865
-3.97558 8.57687 -0.32078
-1.49219 1.83536 0.645212
-1.32441 -0.532444 -0.0833082
-7.04328 5.42786 -0.465911
-1.37626 -0.573086 -0.13907
-3.29989 1.68281 0.31594
-1.80957 3.48047 0.587184
0.358068 2.30069 0.335324
-1.28081 1.50667 0.639326
-4.90964 10.3867 -0.771114
-0.806713 2.59561 0.633379
0.684949 3.25438 -0.36026
-2.33158 2.7682 0.579563
-0.916958 -0.247304 0.180384
-0.162396 0.0945751 0.237644
-4.32339 5.6063 0.157689
-4.18453 6.53338 0.0680334
-5.55843 7.19192 -0.192467
-6.1428 11.5619 -1.07435
-2.5772 7.5944 -0.165607
-2.08891 1.40948 0.539111
-3.49205 3.08211 0.392628
-4.53142 6.33815 0.0536741
-4.06836 9.67598 -0.616441
-1.71162 0.635811 0.462007
-0.718308 0.0518127 0.343294
-2.58323 7.39811 -0.108897
0.665092 2.09588 0.0521406
-4.24975 1.87515 0.0698536
-0.858645 -0.281016 0.150471
-4.14083 3.62014 0.266496
-0.214965 -0.227334 -0.151448
-0.310605 -0.24298 -0.51928
-3.28856 5.78132 0.246542
0.1731 4.77737 -0.267546
0.724249 3.05741 -0.628023
-0.11888 6.09756 -0.711691
-3.07896 2.61007 0.457393
-0.773115 5.37821 0.0928924
-0.896878 0.633248 0.534311
-1.96793 -0.213703 0.0781127
-1.22321 -0.650452 -0.710647
-1.75853 -0.342695 0.0369765
-5.01156 5.06996 0.0652992
-6.96434 4.56126 -0.491685
-6.53377 11.9777 -1.18923
-5.57563 3.25408 -0.156972
-0.648688 6.98239 -0.673186
-5.74535 5.29881 -0.108435
0.668658 1.60591 0.0328465
-1.18295 0.881797 0.571078
-0.816605 5.77956 -0.0242249
-0.00616572 1.07267 0.496614
-5.3843 3.83171 -0.0455036
0.475086 4.26066 -0.451402
-1.6836 1.23552 0.575488
-0.400441 2.41259 0.5941
-0.686786 3.10879 0.569731
-6.59574 4.3195 -0.387963
-2.81217 0.236507 0.0679889
-2.39604 0.0627106 0.114741
-0.940868 3.54444 0.545008
-2.4009 2.14525 0.553966
-3.16463 2.51335 0.43503
-4.70269 3.20432 0.104932
-2.76457 1.406 0.404383
-1.13008 1.1586 0.613666
0.274648 0.287277 -0.182056
-0.889871 -0.498883 -0.0895217
-2.05363 5.49896 0.299094
-0.584769 3.45172 0.502686
-3.85141 8.27406 -0.249553
0.228735 5.47705 -0.985221
-1.39368 4.83933 0.372145
-0.117772 -0.156807 -0.212057
-3.11718 2.18037 0.420416
-3.28195 4.32209 0.402597
-0.779686 4.02538 0.438408
-3.91404 8.06878 -0.200758
-0.524144 4.52233 0.256719
0.568846 0.961905 -0.0164419
-5.28805 2.77589 -0.124438
0.240627 4.90798 -0.436435
0.447464 4.04238 -0.254817
0.522171 2.97398 0.0689772
-0.496382 -0.355671 -0.0535467
-5.14713 5.82593 0.00118811
0.710654 3.12492 -0.698847
-4.48223 4.22543 0.19531
-1.79716 0.367401 0.372563
-2.10407 -0.209581 0.0466409
-1.12733 -0.647363 -0.587477
