ply
format ascii 1.0
comment Created by Open3D
element vertex 400
property double x
property double y
property double z
end_header
0.621048 -2.29092 0.610386
1.17039 -2.59011 1.80442
1.05708 -2.94222 1.49884
0.277529 -3.20305 0.984252
1.14815 -2.90407 1.85302
0.582461 -1.24251 0.185549
1.15787 -2.81332 1.77624
1.06335 -1.69776 1.18437
0.95066 -1.93124 1.606
0.683412 -1.91648 0.404427
0.87146 -1.17785 0.65137
0.606929 -2.45087 0.585878
0.949473 -3.27797 2.70022
0.975449 -2.71457 1.1899
1.13479 -2.94714 1.86654
1.09392 -3.11085 1.758
0.437594 -2.95841 1.09435
0.0423032 -2.49284 0.327179
1.24069 -2.51686 1.70515
1.11053 -2.5475 2.62533
0.552135 -2.3167 0.542845
1.00662 -1.0758 1.23327
1.13375 -2.5111 1.3082
1.11273 -1.36002 1.33449
0.955619 -1.87383 0.938908
0.556796 -2.68105 0.529747
1.1341 -2.53652 2.11608
0.987688 -2.66506 1.41084
0.877166 -1.29541 1.73086
1.13404 -1.88712 1.53666
0.869181 -2.24355 0.772153
0.059428 -3.88435 1.13401
0.897444 -1.67056 1.15366
0.623347 -2.704 0.8824
-0.0859534 -2.50467 0.422202
0.900826 -1.33366 0.52879
0.865299 -2.08525 1.88225
1.27163 -2.02287 1.77456
0.785248 -1.51821 0.78096
0.422137 -1.35591 0.00416857
1.08501 -1.22236 1.20021
1.01387 -2.90091 1.42095
1.12057 -2.84945 1.67814
0.542555 -2.41063 0.605197
0.0424285 -1.75706 0.143458
0.866253 -1.46676 0.587779
1.02156 -2.29419 1.03587
1.1175 -2.93054 1.57923
0.572182 -2.12861 0.347048
0.841835 -1.0138 0.82978
0.987864 -2.15155 1.93424
1.00361 -2.25392 0.97284
1.01463 -2.02676 0.889023
0.524443 -2.56488 0.623559
0.790911 -3.17746 1.33261
0.688617 -3.34717 1.18923
0.590729 -3.1982 1.12621
0.758097 -0.82858 0.355095
0.28355 -2.50644 0.274329
0.832425 -1.5952 0.501689
0.327878 -1.78699 0.234144
0.166536 -3.6343 1.03846
0.844102 -1.97592 0.625862
0.702299 -2.41403 0.730106
0.736527 -1.54065 0.376298
0.592252 -3.12751 1.01934
0.994791 -1.26412 1.02368
-0.0244263 -2.25283 0.0228672
0.947421 -1.48419 1.14475
0.419565 -1.88987 0.473351
0.996963 -2.21602 0.942577
0.761326 -0.922818 0.395599
0.983675 -2.43454 1.72251
1.15018 -1.9409 2.2874
0.663972 -1.3422 0.270365
0.602361 -3.23757 1.01066
0.785982 -0.746333 0.788582
0.761023 -0.97368 0.994505
1.01748 -1.8486 1.20279
1.09878 -1.86726 1.89557
0.711195 -1.2832 0.311351
1.19179 -1.91857 1.41186
0.384839 -2.50108 0.526448
1.07725 -1.25453 0.844582
0.599903 -0.828919 0.213296
1.04572 -1.48454 0.992239
1.10396 -3.06654 1.99054
1.2145 -2.35359 2.19649
0.634826 -0.807346 1.20778
0.973666 -2.82524 1.24748
1.05201 -1.55873 0.814634
0.95106 -3.01203 2.52184
0.845547 -2.2987 2.04154
0.493493 -1.7853 0.320645
1.22449 -2.72228 1.93146
0.948661 -1.81569 2.12649
0.4111 -2.14608 0.450771
-0.0253177 -4.12484 1.36177
0.80077 -1.43263 0.4587
0.471891 -1.81438 0.13002
0.763685 -1.00681 0.344869
1.04382 -1.79906 0.941674
0.525808 -1.76769 0.457481
0.841105 -0.921599 0.701379
0.167523 -1.74667 0.0793641
0.208677 -2.16163 0.711924
1.13936 -1.69102 1.03832
0.938753 -1.75148 1.81701
-0.22748 -2.20332 0.308485
0.909181 -2.17177 1.8331
0.997603 -2.00309 1.4254
0.196973 -1.56466 0.136452
0.706101 -1.42732 0.347213
0.900777 -2.61835 1.04363
-0.0398829 -2.68869 0.41897
-0.0441932 -1.5712 0.113334
1.14537 -2.05269 2.04686
0.649751 -1.33408 0.243087
0.960864 -1.60685 0.841201
0.950721 -2.4359 0.998648
1.05641 -2.54907 1.92665
0.108614 -3.95408 1.31495
0.543162 -2.09053 0.420373
0.401155 -2.10337 0.370061
0.611665 -2.19867 0.406024
0.969928 -1.52293 0.838147
0.916623 -1.96583 1.57482
0.642123 -1.01524 0.294798
0.274496 -3.50314 1.12884
0.564017 -1.78956 0.22866
1.10402 -1.37313 1.14389
0.883143 -2.62777 1.60615
0.523539 -1.79232 0.526021
-0.187748 -1.79045 0.337348
0.976239 -1.58504 1.24455
0.190858 -2.20017 0.281497
0.646357 -0.892505 1.11401
0.720983 -1.0231 0.468377
0.386005 -2.8326 0.911992
0.210524 -1.60984 0.221776
0.385515 -1.17361 -0.00889897
0.750782 -1.34044 1.30717
0.0711675 -2.57159 0.483194
0.617163 -1.21542 0.326363
-0.131687 -1.80622 -0.0046756
1.108 -2.51563 2.37948
0.944983 -3.01313 1.33327
0.980803 -2.99022 2.57427
0.0486568 -3.62761 1.0544
0.768894 -1.34304 0.389697
0.665225 -1.59771 0.422988
0.498089 -2.67324 0.627203
0.471609 -2.30281 0.610254
0.892386 -1.16553 1.47664
0.843455 -1.81231 1.90051
0.317411 -3.60017 1.24059
1.06952 -2.72879 1.37496
0.224281 -1.27173 -0.0964556
0.843501 -1.15777 1.35568
1.10917 -2.18897 1.21371
0.680497 -2.72831 0.88052
0.892823 -1.02089 1.83248
0.9768 -1.3902 0.840101
0.753508 -2.49083 0.712515
0.176182 -2.4706 0.365822
1.12672 -3.08533 2.16934
0.700452 -2.99366 0.90366
0.83963 -0.650343 0.861364
0.094969 -2.51076 0.720312
0.424027 -3.7886 1.46601
0.975907 -2.80665 1.23511
0.499344 -1.91937 0.395136
0.743207 -3.22058 1.12331
0.73267 -1.37939 1.41287
0.818273 -3.2453 1.28387
0.835151 -3.3477 1.37995
0.640111 -0.948772 0.271735
0.678682 -1.31147 0.296887
0.702362 -1.22332 0.920774
0.844515 -1.28545 0.759539
1.24329 -2.84004 2.2334
0.945744 -2.86061 1.2199
1.22695 -2.58059 1.63899
1.01322 -2.88103 1.35725
0.0080315 -2.33432 0.468181
1.00367 -1.29349 0.939473
1.07412 -2.53795 1.29496
0.30382 -1.37878 0.261219
0.199716 -2.61765 0.808118
1.0517 -2.68894 2.08729
0.609931 -3.48591 1.2493
1.09741 -2.8336 1.90073
0.699412 -0.917501 0.708499
0.914481 -1.06333 0.59822
0.815792 -2.42945 0.900136
-0.111937 -4.10323 1.24189
0.742998 -2.17489 1.5218
1.09644 -2.88747 1.64949
1.12909 -2.35687 2.0601
-0.304629 -1.95488 0.151904
1.14911 -1.60889 0.999176
0.485395 -1.21491 0.0628911
0.636919 -1.65969 0.314259
1.00452 -2.72834 2.31825
0.0354148 -1.85074 0.0979852
1.08231 -0.892337 1.41438
0.761276 -2.61349 1.01842
0.165174 -3.9294 1.18061
-0.110938 -2.86631 0.579983
1.08702 -2.31562 1.16558
0.481541 -1.02409 0.086877
0.891216 -2.44934 0.903906
0.464265 -3.7633 1.58516
0.971972 -2.85447 1.36982
1.02675 -1.02391 1.18005
0.109536 -2.77677 0.689947
0.941884 -2.37828 0.947081
1.1098 -1.45351 1.18952
0.668707 -1.30307 0.265483
1.01029 -3.2037 1.66293
1.06095 -1.59739 1.62242
0.741657 -0.813624 0.796352
0.538465 -2.91701 0.886757
1.14422 -2.5817 1.93141
-0.00680614 -2.71734 0.270826
-0.0233662 -3.0567 0.838831
1.03304 -1.81028 1.59634
0.154016 -3.26421 0.747787
0.537667 -1.88045 0.390403
0.341538 -2.75801 0.815712
0.810048 -1.03598 0.969298
-0.0179366 -3.49645 0.852036
0.985647 -2.01193 1.70122
1.09279 -3.04971 1.86954
0.747577 -0.708102 0.365599
0.965298 -2.13076 0.872462
1.02495 -1.00983 1.14847
0.420936 -2.03731 0.491997
0.388888 -2.66612 0.620068
-0.312063 -2.16381 0.0802657
-0.0539557 -3.83867 1.12694
0.125766 -2.26417 0.469383
0.786597 -2.38537 0.771729
0.162189 -2.31575 0.438232
0.97166 -2.05078 1.27382
0.0110371 -2.65797 0.651369
0.752796 -1.54206 0.392061
0.319375 -3.14717 0.67817
0.734445 -1.96044 0.516821
0.709995 -1.22198 0.746887
0.568987 -3.40249 1.12235
0.0590117 -3.17968 0.923405
0.943282 -1.52086 0.684476
0.145401 -2.82382 0.724195
0.0722694 -3.57502 1.19627
0.984785 -1.58712 0.689016
0.982317 -1.84045 0.809251
0.471624 -3.11776 1.00692
1.24137 -2.84479 2.19397
0.627119 -2.0063 0.46297
0.962129 -2.54618 1.08067
0.875598 -1.47737 0.877614
0.96581 -2.54481 1.93
0.63486 -1.68434 0.287145
0.981717 -2.33952 1.34537
-0.14907 -2.14709 0.39251
0.998386 -2.81141 1.29869
0.330125 -1.45729 0.242626
1.23856 -1.12793 1.36952
0.15267 -2.47228 0.291778
0.871705 -1.53954 0.604242
0.158481 -1.80527 0.267109
0.15296 -3.43045 1.22229
-0.433101 -1.89954 0.071698
0.911968 -2.76366 1.11372
0.984266 -2.62697 1.20069
0.460185 -0.955697 0.0649966
0.604586 -2.06654 0.421796
0.775499 -1.37471 0.498977
0.537457 -1.78953 0.332349
0.853278 -1.53701 1.019
0.751829 -0.930364 1.43569
1.03736 -2.57626 1.52806
0.614674 -0.865046 0.237755
0.593821 -2.60258 0.688559
0.84997 -1.82029 0.588268
0.448765 -2.61984 0.928859
0.600445 -1.64613 0.259215
0.761702 -1.73141 0.491703
1.05097 -2.87459 2.40449
1.04938 -1.85554 0.997693
1.19432 -1.82326 1.38044
0.803623 -2.68279 0.892796
0.908532 -3.05657 1.30353
1.31194 -2.22395 1.83212
0.885957 -0.716771 0.781694
0.98238 -2.01275 2.17397
0.129204 -3.29838 0.830164
0.465566 -2.59005 0.538222
0.35076 -1.35461 0.020094
1.02996 -2.76918 1.93607
1.01324 -2.70162 1.35475
0.599641 -1.1046 0.219991
0.58487 -2.00617 0.520565
0.107869 -1.43582 0.0759066
0.59984 -2.36176 0.5295
0.561753 -1.75676 0.296567
1.00033 -2.9028 2.4018
0.732016 -1.42893 0.34863
0.764459 -1.86932 0.527717
0.206747 -1.50138 0.225933
1.11076 -2.76779 1.53007
0.64054 -1.32373 0.231719
0.531011 -1.1158 0.825991
1.03993 -1.28426 1.06409
0.979631 -2.3581 0.998892
0.768688 -1.59832 1.61131
0.0558066 -3.33183 0.751314
-0.179048 -1.99795 0.229645
0.338856 -2.9282 0.751984
0.719741 -2.77455 0.857876
0.157823 -3.20424 0.821143
0.933355 -1.42799 0.930628
0.137403 -4.09542 1.57714
1.04137 -1.93583 1.75723
1.04792 -2.39553 1.10905
1.29402 -2.30806 2.07606
0.995574 -0.975585 1.50078
0.372706 -2.44988 0.587105
1.18964 -2.21531 1.54616
0.676604 -3.11183 1.15808
0.813432 -1.11301 0.443424
0.364611 -3.85745 1.42732
-0.136298 -2.41602 0.363463
0.694105 -1.12976 1.14352
0.564219 -1.24289 0.227489
-0.0833847 -1.87952 0.186842
0.255208 -1.57266 0.0588891
0.511397 -1.06245 0.102169
1.04879 -2.65978 1.40289
0.362376 -2.95391 0.524096
0.973751 -2.17689 2.05691
0.938169 -3.20147 1.54523
0.773776 -1.3904 0.543803
0.80467 -1.85156 0.717266
0.912061 -2.65324 1.08185
1.09177 -2.17041 1.13739
1.29036 -2.7489 2.1254
0.576177 -2.61351 0.60833
1.0515 -3.12332 2.92517
0.892999 -0.976959 1.63606
1.08775 -1.95955 1.67832
0.907796 -0.757072 0.488802
0.82521 -3.27766 1.31266
0.775804 -2.49802 0.756526
0.0725355 -1.90929 0.299226
0.78319 -1.58058 1.021
0.743791 -1.12646 0.79367
0.912214 -1.03932 0.954055
1.10677 -1.67896 1.28002
0.798251 -1.76114 1.78657
0.536007 -0.956696 0.238872
0.688661 -2.95686 1.07941
0.105382 -2.10054 0.365006
0.567658 -0.870286 0.444678
0.191784 -3.21961 1.12065
0.187271 -1.88766 0.237037
1.0896 -2.26572 1.10366
0.701699 -3.08834 1.22989
1.13401 -3.01238 2.30883
0.760722 -0.959188 0.746112
0.736419 -1.28738 0.390248
0.329126 -3.08548 0.916255
0.594553 -1.60527 0.350895
0.701049 -1.32283 0.748268
0.308251 -2.1761 0.340124
0.837465 -2.35897 0.772027
0.940935 -2.51611 1.74496
0.700496 -3.40562 1.233
1.0891 -2.02186 1.01789
0.750641 -1.0073 1.72577
1.01706 -1.90595 0.844757
0.649788 -1.38787 0.355816
0.152294 -3.8976 1.41806
1.20416 -2.99751 1.77501
1.07877 -2.93532 1.63986
0.937928 -2.95475 1.28946
0.719842 -2.49807 0.735471
0.701059 -1.01536 0.866967
0.970626 -3.18774 1.56565
0.238468 -2.67576 0.669832
0.556517 -3.29548 1.12056
0.899549 -2.91113 1.18151
0.958599 -3.06891 2.02388
1.07877 -2.21947 1.21384
1.0444 -1.80378 1.60624
0.0630001 -2.88786 0.675747
1.05224 -2.0989 0.980403
0.733052 -2.07447 0.538279
0.514555 -2.65157 0.523293
