ply
format ascii 1.0
comment Created by Open3D
element vertex 400
property double x
property double y
property double z
end_header
1.62836 1.25769 -0.496869
2.13275 2.97998 -0.0382486
1.00182 1.37833 -0.554969
1.11059 2.09719 0.723504
2.21334 1.36964 -0.687474
1.5566 1.15973 -0.79993
0.485195 1.42916 0.195765
1.37661 1.65616 -0.631938
1.87536 2.65522 -0.442832
2.49953 3.3701 0.568168
1.0399 0.652242 -0.802005
0.853928 1.69695 -0.383534
1.4387 2.49371 0.42371
1.80168 2.66921 -0.213049
1.35682 2.30183 -0.261477
1.47032 0.55809 -0.621318
1.18664 0.967569 -0.646232
1.88976 2.86127 0.482809
0.316383 0.959423 -0.292459
1.48498 2.50661 0.574653
1.28402 1.76332 -0.609204
1.36157 1.98057 -0.563988
1.42168 2.38161 -0.195288
0.719657 1.54434 -0.433317
0.26597 0.935231 -0.411635
1.38504 1.59151 -0.830242
0.951557 1.93162 0.580162
2.34734 2.29874 -0.758048
1.17986 2.22955 0.202668
2.55003 2.23765 -0.716755
1.7856 0.88671 -0.814256
1.30197 2.306 -0.0636997
0.759298 1.74547 0.420507
1.69046 2.63071 -0.0918569
0.756265 1.76871 0.189304
0.742589 1.71206 -0.160048
2.2116 2.83566 -0.398427
2.55564 2.29955 -0.596524
0.850159 1.14826 -0.48513
0.490652 1.46211 0.122255
1.16208 2.21816 0.145963
2.49808 1.90094 -0.607104
1.95231 2.95734 0.423459
1.44721 2.3276 -0.208557
1.98143 2.82072 -0.094168
0.414465 1.31772 0.207398
2.26614 2.06056 -0.656721
1.17446 2.17682 0.0613092
3.03072 2.40748 -0.678892
1.09059 2.04651 -0.0846451
2.37194 3.26736 0.705017
0.600439 1.57496 0.141722
1.37686 2.41977 0.384798
2.41109 3.29962 0.390676
2.0435 3.02995 0.665868
1.62937 1.99492 -0.493998
1.9471 1.47927 -0.627596
1.89801 0.89049 -0.8395
0.6307 1.4268 -0.313558
0.483535 1.41699 -0.213247
1.78728 2.76823 0.651807
2.26578 1.75673 -0.641265
0.852848 1.8641 0.25858
1.93572 1.02827 -0.597841
2.39884 1.79613 -0.748495
1.85251 2.86408 0.456374
2.57414 2.11479 -0.756945
0.974005 1.32079 -0.8021
1.49932 2.52865 0.136684
2.36611 2.18539 -0.623688
1.9574 1.8943 -0.896742
0.342148 1.2679 0.0583291
1.03904 1.0327 -0.866899
2.35974 3.24395 0.571419
1.78549 2.70935 -0.0924647
1.96185 1.41944 -0.700612
0.993308 0.973589 -0.60857
1.07232 0.783217 -0.525563
1.64245 2.17086 -0.590004
2.31832 1.90095 -0.721787
2.01801 2.20547 -0.773996
2.72746 2.39236 -0.679345
2.21065 2.6602 -0.372673
1.56477 1.81899 -0.817016
2.05297 2.93732 -0.00256927
0.532076 1.23477 -0.335882
1.09081 1.28871 -0.688337
1.84257 2.44972 -0.444152
0.75642 1.12689 -0.648488
1.6509 1.10725 -0.78213
2.55385 2.91054 -0.318735
1.37307 2.27559 -0.299608
0.753368 1.75469 0.331779
1.4153 2.43649 -0.0519809
2.09803 2.28165 -0.732458
0.843238 1.12704 -0.630254
1.68805 2.47954 -0.420397
1.42539 0.84465 -0.762461
2.76618 1.8234 -0.751296
1.84001 2.60241 -0.272869
2.22865 2.58961 -0.355472
1.70069 2.22468 -0.661857
0.992021 2.03537 0.343975
1.18444 1.09928 -0.804722
0.565629 0.585168 -0.861995
1.89064 2.20367 -0.560215
1.77794 2.64879 -0.239732
1.95448 1.67333 -0.757886
1.98486 2.02208 -0.579115
1.08473 2.13089 0.390917
0.348996 1.05165 -0.455436
1.79432 2.70447 -0.090978
1.90506 2.92163 0.644276
1.01922 2.05059 0.406932
2.17774 1.86962 -0.771306
1.7156 1.35866 -0.685099
1.36015 2.33945 -0.219764
1.59032 2.62549 0.387399
1.06411 2.00928 0.837412
2.59981 1.74705 -0.702486
0.685446 1.65215 -0.00726706
1.29511 0.653536 -0.576679
1.18567 2.22671 -0.0363566
3.33682 2.51516 -0.646952
2.50701 2.50516 -0.723229
0.590311 1.48598 0.561815
0.988663 1.94898 -0.0986279
1.53458 0.602325 -0.734881
2.49235 2.79099 -0.444597
1.59116 0.73872 -0.451326
2.65095 2.71119 -0.549779
2.68733 2.31964 -0.773314
1.23757 1.37593 -0.601853
0.516471 1.44298 0.0573539
0.850216 1.06592 -0.53626
1.09737 1.90168 -0.324538
0.492953 1.16169 -0.556078
1.61433 2.5638 -0.111293
0.374358 0.855267 -0.553963
1.78966 2.78168 0.575794
1.39208 2.39025 0.746158
0.62799 0.961238 -0.365859
0.467864 1.36177 0.357514
2.27247 1.90389 -0.730808
1.94259 2.68793 -0.334757
1.61012 2.61844 0.731296
1.81603 2.83012 0.300819
0.664086 1.63423 0.370885
1.82591 2.67396 -0.185928
2.31422 1.8004 -0.879727
1.73004 0.595629 -0.538834
0.698572 1.09169 -0.426457
0.354265 0.961569 -0.347484
1.54731 1.6615 -0.733862
0.551685 1.52802 0.0370101
2.49004 3.41211 0.893653
1.00762 1.98046 0.686806
0.981204 0.627017 -0.639203
0.807795 1.7587 0.582318
0.845763 0.960141 -0.441811
0.653 1.2389 -0.474562
1.09182 2.12936 0.446384
0.80779 1.76593 0.552088
2.52854 2.12815 -0.503851
0.92336 1.77278 -0.510652
1.71558 0.958774 -0.783125
0.651085 1.61269 0.425618
3.36036 2.57923 -0.602273
1.3751 1.6628 -0.292644
1.09603 2.11848 0.534921
0.747121 0.872078 -0.672187
1.86235 1.21594 -0.611102
0.580538 1.37625 -0.35429
0.758524 1.14342 -0.519775
1.89405 1.74179 -0.708188
1.30412 1.40804 -0.805996
1.55086 1.80998 -0.734034
2.07867 2.57565 -0.456998
0.772997 1.6497 -0.20296
1.18685 2.20307 -0.127305
1.08929 1.52494 -0.763883
1.1327 2.15477 0.0388777
0.959029 1.94648 0.00099173
1.63818 2.35006 -0.475907
1.95067 1.92794 -0.707156
1.69133 2.52092 -0.28319
2.57971 3.47678 0.663326
2.07812 3.02094 0.564996
0.434994 1.13216 -0.255221
2.31591 3.24584 0.771969
1.36618 1.30051 -0.463582
0.380537 0.809422 -0.562518
0.522178 1.42264 0.406811
2.31804 1.87908 -0.746457
2.48576 2.33237 -0.639636
2.10351 2.17676 -0.647306
2.36104 1.57942 -0.690392
1.28453 1.87698 -0.442258
1.88289 2.8755 0.300771
0.374131 0.969727 -0.387866
0.650903 1.02322 -0.481355
1.49783 1.90237 -0.704638
2.29974 2.27165 -0.563167
1.11643 2.17064 0.109011
1.92811 1.94041 -0.820675
2.72308 1.73268 -0.727174
2.88016 2.42188 -0.570171
0.900322 1.94226 0.0573461
0.98064 1.70043 -0.261894
2.00265 1.26313 -0.895604
0.809822 1.83419 0.294826
2.6682 2.31682 -0.707333
1.66978 2.60378 -0.163763
1.87574 2.87526 0.682455
0.586432 1.47856 0.175287
2.20351 1.35229 -0.549201
1.29236 2.33839 0.0632296
3.30467 2.51147 -0.603669
2.11443 2.70073 -0.49467
0.695938 1.09937 -0.507625
2.3213 2.63882 -0.439119
1.57033 2.34781 -0.289423
1.04189 2.00572 0.707875
1.6234 1.52511 -0.953909
1.14957 2.08697 -0.381014
0.73016 1.59369 -0.409286
2.05294 1.27905 -0.684144
2.3266 1.50977 -0.630309
1.54746 2.54603 0.0373233
0.886755 1.91566 -0.0516936
1.75318 1.99809 -0.662582
1.6809 1.84444 -0.751219
1.06146 2.05284 0.62296
1.84002 1.1419 -0.625376
1.78162 1.97171 -0.600153
2.84976 1.98894 -0.436178
3.24973 2.54068 -0.488729
0.760656 0.927027 -0.634726
0.539388 1.51178 -0.0449309
0.885475 1.79691 -0.163743
1.55316 1.99439 -0.524469
1.57343 2.5597 -0.102455
3.09211 2.48075 -0.73842
1.5261 1.52191 -0.707321
2.14796 2.89402 -0.234924
1.4016 1.71653 -0.680322
0.931733 1.70766 -0.425625
1.44821 2.48877 0.252869
1.16272 0.786387 -0.642293
1.97785 2.18619 -0.585724
0.626885 0.926098 -0.465583
3.17953 2.1997 -0.66688
1.00909 1.97729 0.203923
1.12983 1.97083 -0.53377
2.42428 2.21942 -0.786973
0.925277 1.96687 0.293646
2.5748 1.95195 -0.6904
1.43177 2.44579 0.672751
1.873 2.85519 0.442554
0.845162 1.17192 -0.746205
1.56472 0.766092 -0.699178
1.84114 2.3046 -0.724885
1.36148 0.749746 -0.592258
0.801723 1.7416 -0.368569
1.71478 2.70911 0.0676808
2.75464 2.52305 -0.570688
1.67442 1.62261 -0.756243
2.38286 2.58793 -0.577724
1.89095 1.87985 -0.753423
2.64073 1.79561 -0.676064
0.591508 1.53466 0.380537
0.803281 1.46994 -0.261429
1.12379 2.05645 -0.304555
2.92452 2.58501 -0.629223
1.15692 2.19178 0.40606
3.20146 2.47372 -0.596032
0.261521 0.926886 -0.304492
3.16823 2.30708 -0.622234
1.97524 2.92939 0.13334
0.71327 1.64231 0.140215
1.5897 2.20861 -0.383358
1.48939 1.03817 -0.763411
2.3681 2.04364 -0.839154
1.33181 1.514 -0.787668
1.86642 2.76017 -0.138283
0.966407 0.774939 -0.652285
0.863181 1.26232 -0.310127
0.744077 1.46843 -0.203742
2.13467 2.15028 -0.78031
2.08467 2.94787 -0.0941202
2.75035 2.40864 -0.688438
2.35798 3.22816 0.19306
2.15462 1.51537 -0.748106
0.912874 1.62124 -0.564132
2.14898 2.92991 -0.15983
1.61794 0.955832 -0.7245
1.77031 2.67674 -0.116304
2.46521 2.47019 -0.755257
0.341598 1.30045 -0.143258
1.18567 0.804636 -0.528354
1.78094 2.62095 -0.21569
0.965703 1.43398 -0.367459
1.42455 2.47003 0.151361
0.679835 0.79339 -0.554897
1.63094 2.63311 0.0339515
1.24519 1.99808 -0.493132
1.3238 0.571687 -0.670841
0.595596 1.25426 -0.541653
1.28507 2.32205 0.00940968
0.938351 0.980048 -0.750106
1.49109 2.51974 0.179273
2.57575 1.77414 -0.514132
1.63511 1.8493 -0.615613
0.328275 1.23319 0.00746018
1.57399 1.42244 -0.707546
1.17775 1.48611 -0.706149
3.01256 2.0525 -0.666586
1.02978 2.07365 0.298904
1.39302 2.41725 0.670147
3.16552 2.17776 -0.804826
1.91659 0.843834 -0.559541
1.07152 0.595119 -0.887827
1.57805 2.57375 -0.0378592
0.296889 1.13829 -0.12214
0.630533 1.58706 -0.0354722
1.33156 1.69122 -0.566397
2.03695 3.00615 0.263878
2.23783 3.06278 -0.047676
1.96926 2.94782 0.679471
0.890106 1.49062 -0.662342
1.51663 1.58599 -0.701631
2.88023 2.54528 -0.614842
1.04579 2.0981 0.254272
2.64774 2.39339 -0.68608
1.05112 2.05948 0.619965
2.55637 2.66468 -0.479788
1.30416 2.01591 -0.427158
1.85286 2.61997 -0.270004
1.89491 2.6626 -0.157945
2.49464 3.35182 0.668725
0.772844 1.80532 0.0705231
0.434862 1.41032 0.0956916
1.07549 0.829867 -0.918909
1.77471 1.19676 -0.87052
1.33082 1.234 -0.791676
0.706374 1.71469 -0.0483339
0.980083 2.02147 -0.0760061
1.60607 1.93066 -0.715402
1.34638 2.056 -0.656502
1.70942 1.8161 -0.586159
1.51893 1.98363 -0.557533
2.19748 3.14407 0.436449
1.63756 1.70788 -0.783723
0.772527 0.963768 -0.478204
1.96655 1.61234 -0.747558
0.706925 0.931234 -0.663965
0.913381 1.88039 0.656271
2.01345 1.12469 -0.611676
1.44729 2.49062 0.151509
0.638999 1.42796 -0.118763
0.466574 1.38845 -0.11314
0.871178 1.86515 0.398181
1.27794 1.63907 -0.586733
1.43429 2.4727 0.576016
1.07292 2.05847 0.732071
0.942687 1.5186 -0.502701
1.17697 2.21441 0.367273
1.72251 0.9811 -0.739667
1.36549 2.42119 0.468747
1.72814 2.33568 -0.36238
0.240419 0.944661 -0.287961
1.57044 0.943661 -0.660411
1.94653 2.33535 -0.493137
2.35396 1.50071 -0.735615
1.66477 0.608648 -0.551003
2.1108 2.92076 -0.193781
1.64815 2.30682 -0.361409
2.40641 1.85774 -0.664206
0.854661 1.86696 -0.20204
1.48271 1.12661 -0.74643
1.40023 2.30655 -0.419813
1.20059 0.936035 -0.783691
0.798328 1.11389 -0.371345
2.23693 3.03011 -0.0307373
1.24972 1.55586 -0.751215
1.39231 2.43379 0.232808
1.87308 2.72554 -0.110648
1.17422 0.902712 -0.624344
1.63204 2.66887 0.262618
0.992959 1.23817 -0.632155
1.93645 1.30251 -0.779146
2.00342 2.98693 0.328059
1.00825 2.05898 0.172593
2.06998 2.67662 -0.450649
0.678019 0.622127 -0.695114
0.801204 1.82443 -0.094337
1.41854 1.53269 -0.519655
1.80904 2.16035 -0.748153
1.91583 2.92675 0.440973
1.17012 2.21256 0.529285
