ply
format ascii 1.0
comment Created by Open3D
element vertex 250
property double x
property double y
property double z
end_header
-0.219205 1.53093 -0.0968824
-2.19911 2.02776 0.537608
-2.18517 0.904799 0.82616
-1.02331 -0.0784256 0.127397
-1.07326 0.483845 0.847348
-1.02301 0.0246014 0.497967
-0.340428 0.326705 0.599301
-2.58789 2.06652 1.78259
0.0974894 1.26729 -0.562632
1.73527 0.747551 0.583949
-0.417589 0.0401895 0.244691
0.22628 0.785005 -0.776431
-3.16341 2.79199 2.08455
-0.17858 0.719897 -0.427179
-1.66212 -0.163314 0.0986678
-1.51664 1.50278 0.361812
0.340653 -0.218971 -0.391108
-1.49743 0.611339 0.0584039
-0.781186 0.808967 -0.816865
-0.803381 0.363767 0.0625295
-2.11932 1.52843 -0.107012
0.284389 0.680652 0.599353
1.84441 0.857048 0.66221
0.533757 0.105075 0.451603
-1.31019 0.530415 -0.0591549
-0.361663 0.988367 -0.439104
1.99979 1.24754 0.047838
0.451845 0.317636 0.632901
-4.01026 3.78457 2.48215
0.341438 0.114011 0.390712
1.79107 2.16572 -0.212807
2.18195 1.16766 0.910605
1.06698 0.585872 -0.117657
0.447481 0.0195592 0.392548
-0.20821 1.15415 -0.450794
0.655476 0.251552 -0.222433
-1.37654 0.163503 -0.211283
-3.8445 3.84263 1.45779
-4.69677 3.47492 1.09163
-1.84526 0.991625 0.616123
-4.24087 4.64536 2.43158
1.47539 1.13863 -0.321482
-1.56136 0.807869 0.262996
-1.93243 1.34191 0.885776
0.291758 -0.247111 -0.364913
-3.20016 3.28087 2.09563
-1.44165 0.232575 0.294442
-3.40752 3.46878 1.88942
-4.207 4.0656 1.34836
0.0884393 0.781232 -0.711514
0.695611 0.535585 -0.138354
-3.12663 2.59801 0.216793
-4.1743 5.05414 1.46151
-3.76989 2.74335 1.34635
-1.51103 0.965508 1.14251
-2.8515 2.26421 1.77577
0.327826 0.0377601 0.451699
0.00450762 -0.173526 0.160944
0.373977 1.28275 -0.253144
-0.750359 -0.155745 -0.17389
-3.77902 4.68731 3.07823
-3.60145 3.19846 1.43784
-3.26697 3.05261 1.78173
-2.96286 2.63802 2.00987
-0.920185 0.389654 0.0127008
-4.15295 3.8454 1.72263
-0.746185 0.36125 -0.466641
-1.05512 1.2377 0.0397004
1.11696 0.980998 -0.222877
-4.17288 4.84082 1.48737
-3.02612 2.92391 1.76607
0.230349 0.285593 0.0365997
-2.86065 0.958767 0.568443
0.306893 0.428757 -0.674536
-0.907718 -0.282775 0.139033
-0.249444 -0.222477 -0.0963689
-2.96702 2.98347 1.15845
-3.6802 4.73974 2.3485
1.56873 0.763934 -0.213073
-1.40796 1.5415 -0.0381419
1.21363 0.348966 0.312182
-0.766132 0.155941 0.0331595
0.242666 0.928374 -0.714592
-0.254523 0.362568 0.137467
-0.363496 0.329109 -0.166382
0.407365 0.298121 0.362381
-1.32961 0.657137 0.889689
-1.3392 1.34551 -0.0593548
2.56834 1.62366 0.843974
-1.32209 -0.0378934 0.374608
-3.07145 1.46793 0.935314
-3.10677 3.14056 2.02244
-1.09508 0.00712579 0.176184
0.836402 0.927609 0.170105
-2.81105 1.38714 0.557464
-0.547651 0.0928571 0.634742
-0.617539 -0.0662396 0.0250583
-0.0272983 0.259967 -0.0978174
1.83678 0.85049 0.22024
-1.6829 1.03817 -0.391319
0.465573 0.357962 -0.609803
-2.58794 2.02245 0.893103
-1.78365 1.41459 0.832972
-0.256774 0.403398 -0.511172
-0.724778 1.28395 -0.243906
-1.0704 0.460392 0.457667
-1.56558 1.09754 -0.224524
-1.68077 1.08438 1.30617
1.89476 0.850335 0.285405
-3.00122 1.73498 1.4095
-1.76772 0.461619 0.186633
-1.97465 1.37572 0.477259
-1.66187 1.44678 -0.36225
-3.16909 1.53766 0.881919
-2.18254 2.57264 1.22255
0.410904 1.0292 -0.563889
-3.16853 2.91719 2.1078
1.43684 0.848259 -0.587907
-2.01298 1.13189 1.22971
-3.01824 3.47847 0.822445
-2.49344 2.48583 0.540268
1.52512 0.786088 0.100949
-2.10945 1.58614 1.20982
-3.74904 4.0853 1.52082
1.3748 0.640777 0.0634125
-3.71353 4.18724 1.46762
2.05895 1.57107 0.0657454
0.69257 1.24746 -0.850487
1.45916 0.48683 -0.117107
-2.38092 1.94171 0.50399
0.887116 0.839993 -0.354554
-1.41234 0.6913 -0.179158
1.46947 1.60415 -0.117517
-3.59044 3.32203 2.17251
-3.60802 3.62273 1.61126
0.910353 1.47194 -0.486713
-0.797896 0.408156 0.216714
-0.540922 0.90221 0.411092
-2.57425 2.47683 0.728
-4.18713 4.49599 1.8308
0.628094 0.248206 -0.187818
-2.20587 1.42971 1.19824
-1.66497 1.42594 -0.306709
-3.56409 3.47599 2.3838
-1.95023 0.598233 0.387213
-2.5409 1.61597 1.04959
-0.952727 -0.250807 -0.283014
-1.52225 1.58807 0.828691
1.31591 0.50321 0.520945
-4.11293 4.03556 2.37826
-4.0827 4.96863 1.88594
-2.57417 1.76266 1.44294
0.53205 -0.152706 -0.156349
0.617417 0.365721 0.44907
-2.60748 2.46334 1.20143
-0.145878 -0.503131 -0.110808
-0.710817 -0.299447 -0.41064
-0.682287 0.717431 1.16863
1.03036 0.785348 -0.140255
-2.18405 0.81042 -0.0545177
0.944111 0.0232466 -0.215854
0.533454 0.382862 -0.180908
0.25411 0.578586 -0.893104
-2.28081 1.21238 0.699293
0.957431 0.24597 -0.183539
1.4512 0.795425 0.119791
-1.81175 1.51581 0.434068
-2.45844 2.37489 1.87191
0.678847 0.493308 -0.0910699
-2.5389 2.25372 0.956274
-4.48519 4.23331 2.05817
-3.32645 1.9319 0.79784
-3.09758 2.69809 0.90405
-0.396123 1.10299 -0.515991
-1.03984 0.385155 0.223898
-0.501274 0.821462 -0.26042
-1.64853 0.67482 -0.102835
-1.17124 0.191114 0.320976
-1.48354 1.52625 0.176576
0.742917 1.07025 -0.931308
-1.15293 0.58036 0.529543
-1.76951 0.862113 0.253282
-2.37433 1.13754 0.729046
-0.128477 0.300503 -0.030482
-4.19806 3.54901 1.37468
-3.18639 3.0155 1.75841
0.0758749 0.711823 -0.255818
0.765874 0.892055 -0.886026
0.979506 0.458726 -0.591004
-3.3841 1.89684 1.37726
1.29212 1.06445 -0.724205
0.909544 1.57583 -0.539784
-0.235797 0.432241 -0.663694
-4.29413 3.46491 1.97345
-3.9543 2.77194 1.5856
1.07442 0.50762 -0.592347
-1.96725 1.69257 0.433925
0.593876 0.0288421 -0.270191
0.769235 0.022465 0.0199702
0.0652816 -0.165525 0.172073
1.18999 3.13479 -0.527721
0.208279 2.00425 -0.408756
-0.109211 5.41962 -0.280772
0.745553 5.75369 -0.693434
1.97419 9.80958 0.862374
1.24151 8.26192 -0.0961626
0.793162 2.43775 -0.75359
0.225296 4.97877 -0.968498
0.163046 5.19015 -0.277601
0.0597084 2.97477 -0.48958
0.315121 1.68776 -0.874441
0.501415 4.12651 -0.134712
0.991153 2.33718 -0.417588
0.66685 2.45824 -0.655929
-0.428425 5.1452 -0.625295
0.0706661 4.86894 -0.517257
1.23403 2.45897 -0.583254
0.569937 6.97885 0.0350665
1.33277 4.8697 -0.508549
1.04154 5.98983 -0.0805984
0.436746 7.96427 -0.216157
0.701424 2.47389 -0.633322
1.23617 5.05689 -0.598997
1.39217 4.07084 -0.541047
0.525195 8.65112 0.03838
1.36754 9.32956 0.331372
1.09055 3.52701 -0.256285
-0.121572 6.1104 -0.146202
0.921607 7.7229 -0.332178
0.00342193 1.70014 -0.51711
0.46809 6.94647 -0.0728723
0.550845 2.18536 -0.090078
0.335696 2.21599 -0.262756
1.65192 8.69611 0.340552
0.968727 7.07615 -0.256451
-0.0800685 6.75798 -0.195312
1.26888 5.30662 -0.555255
0.724173 3.75086 -1.2139
1.73999 4.3165 -0.327422
0.252242 2.1219 -0.560888
0.931679 4.08158 -0.387373
0.606109 8.76576 0.429049
1.66082 6.95912 -0.09611
1.32079 9.77312 0.508219
-0.0321722 3.76052 -0.665151
1.31446 7.36033 -0.159115
-0.363086 1.9781 -0.85883
0.513173 8.10363 -0.167919
1.11622 8.50901 0.0528375
1.06833 4.70675 -0.258732
