ply
format ascii 1.0
comment Created by Open3D
element vertex 400
property double x
property double y
property double z
end_header
0.757426 2.39606 -0.0243036
0.0376375 3.34372 -0.621272
0.363833 3.43548 -0.456857
0.742018 3.29522 0.446518
0.0956902 3.61023 -0.57249
0.256064 1.06339 -0.615676
0.149176 3.51163 -0.562384
0.103229 2.23936 -0.684221
-0.381953 2.51355 -0.812563
0.515697 1.82916 -0.446633
0.209069 1.46381 -0.624981
0.620215 2.38488 -0.227295
-0.757913 4.17643 -0.700423
0.667691 3.17118 -0.202369
0.0723374 3.63531 -0.583073
0.221237 3.70989 -0.496683
0.911342 3.3612 0.598772
0.619632 2.15043 0.247932
0.276648 3.34155 -0.497952
-0.59041 3.77177 -0.57254
0.717197 2.32006 -0.0475825
-0.0615886 1.82738 -0.592229
0.665316 3.1689 -0.248434
0.043507 2.15665 -0.597543
0.154789 2.12724 -0.742711
0.33724 2.29782 -0.59732
-0.278402 3.43886 -0.664362
0.0122949 2.97919 -0.769625
-0.559239 2.1621 -0.647289
-0.0158468 2.63282 -0.667737
0.603766 2.44007 -0.361244
0.510246 3.70831 0.391526
-0.192876 2.01927 -0.834286
0.801003 2.93558 0.135563
0.672545 2.28337 0.543245
0.647818 1.68951 -0.304302
-0.66051 2.71684 -0.83769
0.0993947 3.01776 -0.546935
-0.103818 1.60949 -0.860458
0.206037 0.919136 -0.654703
0.0938931 1.97125 -0.579337
0.272957 3.28016 -0.560243
0.185361 3.45589 -0.565819
0.743016 2.45256 0.0199065
0.675526 1.56843 0.359606
0.325973 1.63794 -0.616277
0.475954 2.65858 -0.491886
0.464948 3.56825 -0.346672
0.481382 1.87595 -0.452858
-0.0256233 1.40864 -0.663783
-0.4876 2.90896 -0.76748
0.547016 2.61359 -0.429674
0.572972 2.41191 -0.421358
0.682155 2.52563 -0.053855
0.750854 3.63376 0.114214
0.491396 3.43781 -0.219964
0.713112 3.41741 0.143232
0.476447 1.11956 -0.329143
0.494007 2.03195 -0.242813
0.637779 1.80974 -0.324381
0.721182 1.7034 0.124022
0.565522 3.49866 0.310432
0.5639 2.11366 -0.42399
0.744856 2.58054 -0.0739443
0.582755 1.62016 -0.357095
0.652217 3.23346 0.0024873
0.0750224 1.80813 -0.646378
0.465743 1.61537 -0.0317074
-0.104867 1.95274 -0.752547
0.89066 2.10215 0.37383
0.566497 2.57254 -0.413923
0.355351 1.14433 -0.463549
-0.32852 2.95618 -0.83298
-0.427294 3.17405 -0.550414
0.589397 1.40187 -0.293113
0.51173 3.20694 -0.20767
-0.0497357 1.19664 -0.583276
-0.279098 1.40138 -0.705488
0.0171492 2.29572 -0.751321
-0.309239 2.80824 -0.656279
0.437109 1.31908 -0.475721
0.214096 2.66114 -0.588824
0.703346 2.40355 0.0807358
0.456059 1.84662 -0.459411
0.30826 0.87944 -0.44222
0.224448 1.99334 -0.625012
-0.0590579 3.75229 -0.624598
-0.219748 3.44647 -0.580898
-0.565502 1.34945 -0.653842
0.446614 3.16408 -0.435066
0.531447 2.03903 -0.449513
-0.724964 3.86157 -0.740184
-0.756937 2.94468 -0.849397
0.744603 1.80263 0.0170927
0.110508 3.59087 -0.535982
-0.659943 2.80351 -0.664953
0.781226 2.16555 0.170946
0.525889 4.08611 0.637949
0.770295 1.74914 -0.125075
0.401539 1.42808 -0.513721
0.554811 1.25965 -0.303549
0.368808 2.21158 -0.585242
0.888812 2.01362 0.259792
0.103404 1.30181 -0.596796
0.617049 1.464 0.0870989
0.977766 2.55094 0.859076
0.457012 2.29661 -0.493758
-0.524864 2.53555 -0.737274
0.654034 1.98228 0.685754
-0.559448 2.77758 -0.841048
-0.173864 2.49694 -0.802394
0.702604 1.46458 0.245034
0.307118 1.36323 -0.627362
0.262046 2.73093 -0.667874
0.616718 2.35523 0.369488
0.671081 1.42683 0.487781
-0.299381 3.07393 -0.628031
0.443735 1.28451 -0.462195
0.224533 1.914 -0.677877
0.404691 2.66263 -0.554639
-0.300566 3.24379 -0.753486
0.572532 3.96658 0.532462
0.695414 2.05234 -0.101236
0.723006 2.02572 0.0615658
0.445626 1.95502 -0.512964
0.234746 1.86777 -0.657174
-0.417652 2.48172 -0.846282
0.200538 1.00698 -0.600892
0.67501 3.57634 0.41189
0.455212 1.54362 -0.478428
0.184281 2.0562 -0.587399
-0.397736 2.91248 -0.936076
0.947209 2.1308 0.379389
0.750693 1.82591 0.883023
-0.123321 2.10081 -0.754201
0.666724 1.96088 0.158904
-0.511156 1.3374 -0.706956
0.116992 1.13622 -0.652648
0.855699 3.07255 0.482489
0.768223 1.61481 0.361533
0.442063 0.937542 -0.300847
-0.523353 1.78581 -0.812503
0.69931 2.39924 0.41089
0.059819 1.07338 -0.758911
0.541487 1.37058 0.286787
-0.477126 3.57361 -0.635006
0.590734 3.44437 -0.214866
-0.704989 3.91293 -0.704959
0.604789 3.53368 0.516789
0.439535 1.4339 -0.496025
0.826494 1.84306 0.0330439
0.636041 2.56574 -0.100239
0.840134 2.45135 0.252514
-0.394785 1.92813 -0.653645
-0.708786 2.54694 -0.776296
0.680433 3.74811 0.430933
0.406666 3.21167 -0.467944
0.453491 0.914156 -0.186669
-0.39834 1.80054 -0.69505
0.34728 2.69941 -0.57176
0.724306 2.90301 -0.031224
-0.561756 2.10143 -0.510746
0.22986 1.78911 -0.63356
0.334758 2.3677 -0.641432
0.641221 2.18869 0.144291
-0.1482 3.88988 -0.61168
0.254413 2.80634 -0.645727
-0.00432314 1.23979 -0.511663
0.866494 2.69866 0.785244
0.671426 4.07864 0.423636
0.500982 3.17268 -0.380938
0.777088 1.97469 0.0721577
0.280888 3.17443 -0.548392
-0.610653 1.86319 -0.812733
0.459999 3.45438 -0.310821
0.247478 3.48596 -0.522782
0.766345 1.27643 0.0468153
0.318643 1.25179 -0.590297
-0.348562 1.43319 -0.840932
0.0300223 1.53012 -0.735658
-0.0470678 3.86948 -0.521228
0.502218 3.1898 -0.369332
0.365947 3.36503 -0.451043
0.665739 3.4349 -0.158181
0.758798 2.28009 0.609408
0.172022 1.79795 -0.624378
0.364065 2.99492 -0.536675
0.8386 1.56013 0.42152
0.890587 2.8632 0.726257
-0.377399 3.44136 -0.740359
0.559801 3.61923 -0.032039
-0.108493 3.49706 -0.683943
-0.155913 1.15463 -0.709883
0.396429 1.45332 -0.477321
0.835246 2.81255 0.0249264
0.480577 3.92702 0.600397
-0.658344 2.41018 -1.00623
0.178403 3.44544 -0.577857
-0.290364 3.27063 -0.669304
0.58769 1.6413 0.64373
0.518778 2.24554 -0.445412
0.320768 0.962472 -0.515262
0.62023 1.64981 -0.2743
-0.583818 3.57448 -0.736878
0.622143 1.54656 0.244193
-0.0483886 1.90875 -0.471269
0.903138 3.07841 0.218128
0.477869 3.76233 0.249489
0.64973 2.63963 0.58055
0.467706 2.79601 -0.481024
0.190962 0.798637 -0.586938
0.407025 2.57713 -0.560175
0.761165 4.23553 0.581715
0.149613 3.12957 -0.678777
0.0129503 1.78743 -0.56208
0.757888 2.7605 0.545568
0.444805 2.60081 -0.524885
0.161736 2.13571 -0.604394
0.406563 1.26697 -0.501217
0.168799 3.6385 -0.556671
-0.227696 2.42477 -0.668996
-0.140758 1.19051 -0.644028
0.720715 3.01769 0.0949948
-0.123243 3.37154 -0.665003
0.50207 2.15672 0.0669197
0.734329 3.05956 0.730989
-0.246392 2.51245 -0.735192
0.570854 2.99431 0.191974
0.763966 1.93947 0.0162164
0.830226 2.91765 0.449186
-0.191273 1.46412 -0.703933
0.554178 3.22484 0.409778
-0.373057 2.66125 -0.788957
0.0213517 3.66853 -0.614538
0.432373 1.03367 -0.324927
0.761726 2.56684 -0.186484
0.0344131 1.76017 -0.557677
0.856961 2.18742 0.308971
0.703622 2.59402 0.108672
0.508934 1.64592 0.446824
0.549618 3.69755 0.583958
0.789062 2.25792 0.517752
0.698859 2.57843 -0.188951
0.75206 2.23532 0.39039
-0.0993983 2.41691 -0.823658
0.771147 2.6601 0.683477
0.554139 1.61999 -0.397321
0.50459 2.81732 -0.11502
0.215806 1.79164 -0.771414
-0.20523 1.34248 -0.8304
0.541355 3.4326 -0.0847053
0.73632 3.21734 0.6675
0.403802 1.81191 -0.557718
0.760534 2.82386 0.519594
0.712169 3.70765 0.741929
0.677197 2.01542 -0.311303
0.439639 2.1449 -0.548881
0.739933 3.26671 0.244933
-0.0187958 3.84939 -0.520506
0.717679 2.05864 -0.121931
0.723581 2.99605 -0.166659
-0.0172785 1.73292 -0.782709
-0.468823 3.14608 -0.829133
0.504136 1.56912 -0.433504
-0.0683136 2.67582 -0.819934
0.731116 2.07852 0.761266
0.714287 3.364 -0.113873
0.805943 1.5684 0.314773
0.235885 2.16843 -0.442005
0.584512 2.08241 0.0469423
0.331943 1.70053 -0.622397
0.764819 1.77263 0.406699
0.79263 3.69611 0.79445
0.510906 1.48371 0.664286
0.367855 2.94812 -0.542405
0.835144 3.22875 0.0107043
0.508415 0.922653 -0.197345
0.637453 2.00576 -0.236057
0.200018 1.42143 -0.695882
0.726078 1.80596 -0.0501518
-0.176023 1.81625 -0.835383
-0.546866 1.66034 -0.622616
-0.0251888 3.02244 -0.752899
0.277879 0.907265 -0.484841
0.669012 2.60502 -0.111488
0.474273 1.93239 -0.522447
0.955721 3.02337 0.590601
0.563356 1.5535 -0.335844
0.739798 1.93931 -0.165312
-0.519039 3.78434 -0.688959
0.321774 2.27314 -0.614826
0.224971 2.58026 -0.579639
0.489868 2.7513 -0.429432
0.300672 3.27015 -0.537318
0.193713 3.24836 -0.496327
0.134855 1.28056 -0.494345
-0.626622 2.98595 -0.683082
0.61723 3.12388 0.33472
0.613643 2.4149 -0.136487
0.53795 1.12873 -0.17337
-0.299551 3.38274 -0.771541
0.183486 3.0448 -0.662264
0.681737 1.2664 -0.0847926
0.832561 2.18345 0.109531
0.670791 1.30993 0.304321
0.609892 2.27026 -0.252738
0.65874 1.71154 -0.17798
-0.600592 3.7504 -0.729082
0.478406 1.46592 -0.463194
0.708424 2.03772 -0.212256
0.790491 1.56848 0.424611
0.303013 3.3289 -0.519697
0.452224 1.27205 -0.447656
-0.537606 1.16469 -0.893186
0.125785 1.89007 -0.616495
0.733569 2.80995 -0.193571
-0.672727 2.15351 -0.823567
0.560282 3.03126 0.286462
0.657766 1.78533 0.620396
0.696883 2.87551 0.201123
0.561623 2.81216 -0.297137
0.653212 3.08079 0.358392
0.045312 1.79367 -0.725638
0.640902 4.35161 0.753522
-0.319335 2.70415 -0.729735
0.591199 2.85864 -0.359961
-0.00487794 3.42523 -0.521688
-0.239576 1.93193 -0.532916
0.785407 2.48229 0.253717
0.174461 2.94605 -0.600889
0.739501 3.41414 0.116561
0.409357 1.33521 -0.478743
0.621227 4.05087 0.389347
0.654831 2.16233 0.561031
-0.49322 1.5164 -0.78591
0.719575 1.37707 -0.0289751
0.670022 1.68033 0.512282
0.609158 1.33697 -0.000492108
0.508898 1.02265 -0.258682
0.195163 3.07527 -0.641837
0.432348 2.50772 -0.326022
-0.572283 2.99687 -0.751933
0.783016 3.87929 0.137566
0.128821 1.43374 -0.742189
0.0466614 1.82922 -0.856189
0.264805 2.7912 -0.656575
0.4071 2.64726 -0.53999
0.106029 3.79778 -0.469531
0.561312 2.4681 -0.282008
-0.728214 4.32819 -0.564844
-0.460257 1.93873 -0.545807
-0.188483 2.71579 -0.709743
0.697226 1.34071 -0.132784
0.424846 3.48154 -0.344544
0.505882 2.51617 -0.439188
0.760568 1.86319 0.506948
-0.300108 1.77108 -0.900208
-0.17664 1.35006 -0.775
-0.00855551 1.55786 -0.635736
0.103969 2.32444 -0.652971
-0.720151 2.39637 -0.813571
0.0373689 0.821182 -0.685791
0.770267 3.26271 0.113707
0.762938 2.04239 0.471298
-0.133975 0.875999 -0.726815
0.830776 3.49332 0.762936
0.7211 1.76522 0.27366
0.654249 2.81414 -0.308891
0.815446 3.51667 0.237996
-0.264084 3.91874 -0.617694
-0.0892862 1.25569 -0.690156
0.804998 1.61593 -0.0226624
0.742994 3.15892 0.359174
0.779563 1.7479 0.00548265
-0.228795 1.38914 -0.872495
0.699508 2.02462 0.105588
0.469017 2.42862 -0.507243
-0.405713 2.9812 -0.871633
0.449484 3.49126 -0.262236
0.537947 2.51738 -0.445813
-0.701694 1.90479 -0.578594
0.588937 2.30623 -0.409943
0.81474 1.64607 0.0402502
0.660553 4.08817 0.679503
0.550119 3.85316 -0.213121
0.175018 3.46185 -0.580762
0.628123 3.38826 -0.183807
0.644954 2.57661 -0.228266
-0.289573 1.29212 -0.759933
0.166482 3.53051 -0.586278
0.777483 2.6927 0.418553
0.656242 3.43542 0.0896424
0.523411 3.19342 -0.333269
-0.406878 3.58327 -0.814248
0.271468 2.673 -0.628762
-0.233737 2.52596 -0.724887
0.706727 2.7814 0.502977
0.562763 2.53957 -0.423677
0.611061 2.11143 -0.331499
0.480604 2.35808 -0.378416
