ply
format ascii 1.0
comment Created by Open3D
element vertex 400
property double x
property double y
property double z
end_header
-0.683695 -2.32233 -0.0243036
0.060633 -3.24545 -0.621272
-0.330837 -3.40248 -0.456857
-0.694837 -3.24804 0.446518
-0.0347068 -3.54925 -0.57249
-0.546394 -1.35372 -0.615676
-0.0619785 -3.42443 -0.562384
-0.0331034 -2.16924 -0.684221
0.254235 -2.64127 -0.812563
-0.696213 -2.00968 -0.446633
-0.200547 -1.45529 -0.624981
-0.767496 -2.53216 -0.227295
0.57459 -4.35975 -0.700423
-0.474916 -2.97841 -0.202369
-0.0386852 -3.60166 -0.583073
-0.195696 -3.68435 -0.496683
-0.538921 -2.98878 0.598772
-0.863413 -2.39421 0.247932
-0.0132016 -3.0781 -0.497952
0.792614 -3.56957 -0.57254
-0.733179 -2.33604 -0.0475825
0.301964 -1.58701 -0.592229
-0.324985 -2.82857 -0.248434
0.230875 -1.88227 -0.597543
-0.289937 -2.26239 -0.742711
-0.89562 -2.8562 -0.59732
0.360703 -3.35655 -0.664362
-0.253593 -3.22049 -0.769625
0.66281 -2.05853 -0.647289
0.161091 -2.48758 -0.667737
-0.584351 -2.42065 -0.361244
-0.813285 -4.01135 0.391526
0.00250399 -2.20964 -0.834286
-0.643457 -2.77804 0.135563
-0.760377 -2.3712 0.543245
-0.391262 -1.43296 -0.304302
0.443673 -2.93368 -0.83769
0.261175 -2.65719 -0.546935
-0.214063 -1.92737 -0.860458
-0.70659 -1.41969 -0.654703
0.185951 -1.69141 -0.579337
-0.363879 -3.37108 -0.560243
-0.151298 -3.42183 -0.565819
-0.721636 -2.43118 0.0199065
-0.690857 -1.58376 0.359606
-0.383582 -1.69555 -0.616277
-0.421557 -2.60419 -0.491886
-0.276697 -3.38 -0.346672
-0.809862 -2.20443 -0.452858
0.0341311 -1.40013 -0.663783
0.422496 -2.97406 -0.76748
-0.453645 -2.52022 -0.429674
-0.425742 -2.26468 -0.421358
-0.768669 -2.61214 -0.053855
-0.519721 -3.40263 0.114214
-0.681337 -3.62775 -0.219964
-0.650227 -3.35452 0.143232
-0.271401 -0.914516 -0.329143
-0.968065 -2.50601 -0.242813
-0.512853 -1.68481 -0.324381
-0.699616 -1.68183 0.124022
-0.80913 -3.74227 0.310432
-0.579553 -2.12931 -0.42399
-0.658481 -2.49417 -0.0739443
-0.567643 -1.60505 -0.357095
-0.705977 -3.28721 0.0024873
0.0436313 -1.68948 -0.646378
-0.98831 -2.13794 -0.0317074
0.0630864 -1.99452 -0.752547
-0.574329 -1.78582 0.37383
-0.460861 -2.4669 -0.413923
-0.276873 -1.06586 -0.463549
0.11788 -3.16682 -0.83298
0.767365 -2.83398 -0.550414
-0.549948 -1.36242 -0.293113
-0.760316 -3.45553 -0.20767
0.132924 -1.11345 -0.583276
0.215462 -1.46502 -0.705488
-0.0710982 -2.34967 -0.751321
0.484425 -2.63306 -0.656279
-0.496793 -1.37877 -0.475721
0.0229646 -2.42408 -0.588824
-0.787563 -2.48777 0.0807358
-0.13171 -1.52227 -0.459411
-0.345686 -0.916866 -0.44222
-0.096959 -1.86585 -0.625012
0.0224189 -3.78892 -0.624598
0.487243 -3.17897 -0.580898
0.504993 -1.40996 -0.653842
-0.469374 -3.18684 -0.435066
-0.287571 -1.79516 -0.449513
0.543441 -4.04309 -0.740184
0.488562 -3.21306 -0.849397
-0.66808 -1.7261 0.0170927
0.0919708 -3.3884 -0.535982
0.745357 -2.7181 -0.664953
-0.701426 -2.08575 0.170946
-0.711197 -4.27141 0.637949
-0.472561 -1.45141 -0.125075
-0.823561 -1.8501 -0.513721
-0.362607 -1.06744 -0.303549
-0.282176 -2.12495 -0.585242
-0.558996 -1.68381 0.259792
-0.0349572 -1.23336 -0.596796
-0.767977 -1.61493 0.0870989
-0.448648 -2.02182 0.859076
-0.179959 -2.01956 -0.493758
0.515889 -2.54452 -0.737274
-0.686005 -2.01426 0.685754
0.35095 -2.98608 -0.841048
0.0552273 -2.61557 -0.802394
-0.649597 -1.41157 0.245034
-0.525962 -1.58207 -0.627362
-0.523342 -2.99222 -0.667874
-0.854231 -2.59275 0.369488
-0.612209 -1.36796 0.487781
0.515898 -2.85741 -0.628031
-0.561204 -1.40198 -0.462195
-0.255762 -1.94523 -0.677877
-0.495977 -2.75391 -0.554639
0.217711 -3.32665 -0.753486
-0.7081 -4.10215 0.532462
-0.73148 -2.08841 -0.101236
-0.745215 -2.04793 0.0615658
-0.800615 -2.31001 -0.512964
-0.223562 -1.85659 -0.657174
0.222368 -2.677 -0.846282
-0.3679 -1.17434 -0.600892
-0.70548 -3.60681 0.41189
-0.754765 -1.84317 -0.478428
0.065133 -1.80678 -0.587399
-0.03781 -3.34802 -0.936076
-0.51431 -1.6979 0.379389
-0.491409 -1.56663 0.883023
0.0945673 -2.12956 -0.754201
-0.808843 -2.103 0.158904
0.385128 -1.46343 -0.706956
-0.244265 -1.2635 -0.652648
-0.620018 -2.83687 0.482489
-0.604177 -1.45077 0.361533
-0.634601 -1.13008 -0.300847
0.321441 -1.98772 -0.812503
-0.77845 -2.47838 0.41089
-0.420362 -1.43392 -0.758911
-0.789189 -1.61828 0.286787
0.600366 -3.45037 -0.635006
-0.478942 -3.33257 -0.214866
0.588749 -4.02917 -0.704959
-0.765507 -3.6944 0.516789
-0.472507 -1.46688 -0.496025
-0.544153 -1.56072 0.0330439
-0.805974 -2.73567 -0.100239
-0.655255 -2.26647 0.252514
0.501287 -1.82163 -0.653645
0.58661 -2.66912 -0.776296
-0.666525 -3.73421 0.430933
-0.343055 -3.14806 -0.467944
-0.71188 -1.17254 -0.186669
0.416493 -1.78239 -0.69505
-0.24502 -2.59715 -0.57176
-0.667408 -2.84612 -0.031224
0.865057 -1.79813 -0.510746
-0.164578 -1.72383 -0.63356
-0.707476 -2.74042 -0.641432
-0.854653 -2.40212 0.144291
0.159307 -3.87877 -0.61168
-0.756969 -3.30889 -0.645727
0.221451 -1.02267 -0.511663
-0.565726 -2.39789 0.785244
-0.588983 -3.9962 0.423636
-0.473512 -3.14521 -0.380938
-0.668226 -1.86582 0.0721577
-0.686829 -3.58037 -0.548392
0.398696 -2.07514 -0.812733
-0.588276 -3.58266 -0.310821
-0.551943 -3.79042 -0.522782
-0.373687 -0.883769 0.0468153
-0.509941 -1.44308 -0.590297
0.059908 -1.72185 -0.840932
-0.146864 -1.64696 -0.735658
0.289937 -3.62661 -0.521228
-0.502777 -3.19036 -0.369332
-0.0955808 -3.09466 -0.451043
-0.419231 -3.1884 -0.158181
-0.672053 -2.19334 0.609408
-0.0441686 -1.6701 -0.624378
-0.324529 -2.95538 -0.536675
-0.493702 -1.21523 0.42152
-0.566533 -2.53914 0.726257
0.292144 -3.52661 -0.740359
-0.676044 -3.73547 -0.032039
0.0544038 -3.55114 -0.683943
0.014774 -1.29577 -0.709883
-0.209724 -1.26662 -0.477321
-0.554661 -2.53196 0.0249264
-0.778574 -4.22502 0.600397
0.134909 -2.93361 -1.00623
-0.185837 -3.45287 -0.577857
0.395598 -3.1654 -0.669304
-0.684825 -1.73844 0.64373
-0.180133 -1.90689 -0.445412
-0.614116 -1.25582 -0.515262
-0.648784 -1.67836 -0.2743
0.483517 -3.67478 -0.736878
-0.766814 -1.69124 0.244193
0.514636 -1.44251 -0.471269
-0.527092 -2.70237 0.218128
-0.819374 -4.10384 0.249489
-0.783374 -2.77327 0.58055
-0.33925 -2.66756 -0.481024
-0.504829 -1.1125 -0.586938
-0.566058 -2.73616 -0.560175
-0.491461 -3.96582 0.581715
-0.371836 -3.35179 -0.678777
0.273819 -1.50066 -0.56208
-0.709236 -2.71185 0.545568
-0.512171 -2.66817 -0.524885
0.0665372 -1.90743 -0.604394
-0.5324 -1.3928 -0.501217
-0.293811 -3.76351 -0.556671
0.384649 -2.26782 -0.668996
0.122942 -1.20832 -0.644028
-0.71139 -3.00836 0.0949948
0.180654 -3.31413 -0.665003
-0.99432 -2.64897 0.0669197
-0.677144 -3.00238 0.730989
0.275914 -2.48292 -0.735192
-0.882857 -3.30632 0.191974
-0.663794 -1.8393 0.0162164
-0.655145 -2.74257 0.449186
0.152458 -1.50293 -0.703933
-0.857314 -3.52797 0.409778
0.28856 -2.74574 -0.788957
-0.0700095 -3.71719 -0.614538
-0.205398 -0.806699 -0.324927
-0.479184 -2.2843 -0.186484
0.2537 -1.47206 -0.557677
-0.623632 -1.95409 0.308971
-0.78422 -2.67462 0.108672
-0.832742 -1.96973 0.446824
-0.772528 -3.92046 0.583958
-0.669395 -2.13826 0.517752
-0.630383 -2.50995 -0.188951
-0.725835 -2.20909 0.39039
-0.0874046 -2.60372 -0.823658
-0.664976 -2.55393 0.683477
-0.558315 -1.62416 -0.397321
-0.926779 -3.23951 -0.11502
-0.62616 -2.20199 -0.771414
-0.0896213 -1.63734 -0.8304
-0.73373 -3.62498 -0.0847053
-0.681688 -3.16271 0.6675
-0.348457 -1.75657 -0.557718
-0.710517 -2.77385 0.519594
-0.633535 -3.62901 0.741929
-0.392211 -1.73043 -0.311303
-0.397405 -2.10266 -0.548881
-0.685252 -3.21203 0.244933
0.254794 -3.6134 -0.520506
-0.679852 -2.02081 -0.121931
-0.489114 -2.76158 -0.166659
-0.140344 -1.89054 -0.782709
0.249318 -3.36559 -0.829133
-0.678262 -1.74325 -0.433504
-0.159581 -2.90371 -0.819934
-0.612742 -1.96015 0.761266
-0.434687 -3.08439 -0.113873
-0.549354 -1.31181 0.314773
0.326676 -1.60587 -0.442005
-0.909363 -2.40726 0.0469423
-0.403731 -1.77232 -0.622397
-0.640596 -1.64841 0.406699
-0.569785 -3.47327 0.79445
-0.693288 -1.66609 0.664286
-0.535574 -3.11583 -0.542405
-0.434179 -2.82779 0.0107043
-0.496777 -0.911016 -0.197345
-0.732856 -2.10116 -0.236057
-0.390582 -1.612 -0.695882
-0.670383 -1.75026 -0.0501518
-0.0395906 -2.03186 -0.835383
0.610281 -1.59692 -0.622616
-0.128043 -3.17567 -0.752899
-0.344141 -0.973526 -0.484841
-0.747997 -2.684 -0.111488
-0.540436 -1.99856 -0.522447
-0.529824 -2.59748 0.590601
-0.677844 -1.66799 -0.335844
-0.567401 -1.76691 -0.165312
0.476904 -3.82648 -0.688959
-0.260792 -2.21215 -0.614826
0.0382876 -2.317 -0.579639
-0.660019 -2.92145 -0.429432
-0.50547 -3.47495 -0.537318
0.207089 -2.84755 -0.496327
0.110641 -1.03507 -0.494345
0.688097 -2.92447 -0.683082
-0.825119 -3.33177 0.33472
-0.834232 -2.63549 -0.136487
-0.685273 -1.27605 -0.17337
0.134249 -3.54805 -0.771541
-0.327519 -3.18884 -0.662264
-0.473376 -1.05804 -0.0847926
-0.625209 -1.9761 0.109531
-0.620037 -1.25917 0.304321
-0.772646 -2.43301 -0.252738
-0.689402 -1.7422 -0.17798
0.476846 -3.87415 -0.729082
-0.536832 -1.52435 -0.463194
-0.598492 -1.92779 -0.212256
-0.552356 -1.33035 0.424611
-0.23882 -3.26471 -0.519697
-0.564046 -1.38387 -0.447656
0.0762294 -1.62606 -0.893186
0.0557229 -1.70856 -0.616495
-0.477955 -2.55433 -0.193571
0.45904 -2.36719 -0.823567
-0.885794 -3.35677 0.286462
-0.672068 -1.79963 0.620396
-0.77887 -2.9575 0.201123
-0.711417 -2.96196 -0.297137
-0.798831 -3.22641 0.358392
-0.0903733 -1.83873 -0.725638
-0.562602 -4.27331 0.753522
0.353623 -2.66986 -0.729735
-0.415681 -2.68312 -0.359961
0.382051 -3.04806 -0.521688
0.575955 -1.59555 -0.532916
-0.714072 -2.41096 0.253717
0.00426671 -2.76733 -0.600889
-0.60712 -3.28176 0.116561
-0.335865 -1.26171 -0.478743
-0.635689 -4.06533 0.389347
-0.756973 -2.26447 0.561031
0.292201 -1.71742 -0.78591
-0.521037 -1.17854 -0.0289751
-0.678557 -1.68886 0.512282
-0.728784 -1.4566 -0.000492108
-0.525785 -1.03953 -0.258682
-0.278044 -3.15815 -0.641837
-0.976984 -3.05236 -0.326022
0.518794 -3.05035 -0.751933
-0.390912 -3.48719 0.137566
-0.35789 -1.66281 -0.742189
-0.423864 -2.20642 -0.856189
-0.509977 -3.03638 -0.656575
-0.297552 -2.53771 -0.53999
0.224975 -3.46678 -0.469531
-0.811857 -2.71864 -0.282008
0.803931 -4.25248 -0.564844
0.718797 -1.6802 -0.545807
0.262628 -2.64165 -0.709743
-0.171732 -0.815216 -0.132784
-0.57943 -3.63613 -0.344544
-0.684653 -2.69494 -0.439188
-0.639159 -1.74178 0.506948
-0.0366044 -2.10779 -0.900208
-0.0175335 -1.54424 -0.775
0.108183 -1.45823 -0.635736
0.043925 -2.17655 -0.652971
0.526226 -2.59029 -0.813571
-0.357708 -1.14152 -0.685791
-0.607372 -3.09981 0.113707
-0.677552 -1.95701 0.471298
-0.151513 -1.16149 -0.726815
-0.570993 -3.23353 0.762936
-0.707762 -1.75188 0.27366
-0.374524 -2.53442 -0.308891
-0.545535 -3.24676 0.237996
0.30887 -3.87396 -0.617694
0.0106008 -1.33437 -0.690156
-0.450236 -1.26117 -0.0226624
-0.711556 -3.12748 0.359174
-0.588699 -1.55703 0.00548265
-0.130358 -1.74829 -0.872495
-0.779045 -2.10415 0.105588
-0.624 -2.58361 -0.507243
0.112928 -3.27398 -0.871633
-0.672655 -3.71444 -0.262236
-0.333849 -2.31329 -0.445813
0.821308 -1.78518 -0.578594
-0.409873 -2.12716 -0.409943
-0.50261 -1.33394 0.0402502
-0.610812 -4.03843 0.679503
-0.167753 -3.4708 -0.213121
-0.210662 -3.49749 -0.580762
-0.488726 -3.24886 -0.183807
-0.692637 -2.6243 -0.228266
0.106174 -1.47552 -0.759933
-0.357628 -3.72166 -0.586278
-0.712945 -2.62816 0.418553
-0.68809 -3.46727 0.0896424
-0.546405 -3.21642 -0.333269
0.0944969 -3.89565 -0.814248
-0.248833 -2.65037 -0.628762
0.283871 -2.47582 -0.724887
-0.757483 -2.83216 0.502977
-0.390867 -2.36767 -0.423677
-0.670273 -2.17064 -0.331499
-0.881862 -2.75934 -0.378416
