ply
format ascii 1.0
comment Created by Open3D
element vertex 400
property double x
property double y
property double z
end_header
2.24723 0.75777 0.293775
3.73859 0.96722 -0.0238436
2.11759 0.40054 0.592421
3.6552 -0.87303 0.0933381
2.23623 0.7525 0.299106
1.60677 -0.98144 -0.137214
1.33586 -0.02594 0.64281
2.45236 -0.10202 0.690985
2.50058 -0.01163 0.695086
3.15884 -0.46734 0.492776
3.72863 0.56052 0.347373
3.31733 -0.13463 0.591184
3.67256 0.41324 0.440492
0.984816 0.03932 0.560495
1.87856 0.72622 0.29644
1.23774 -0.10018 0.616053
1.67711 -0.65827 0.34294
1.50844 0.00602 0.669701
3.65333 0.36899 0.463996
4.07663 0.84765 0.0500632
3.01532 0.74232 0.296794
1.67629 -0.54803 0.451325
3.18601 0.00566 0.622226
1.74673 0.94115 -0.0280792
1.87286 0.79971 0.205103
2.726 0.48002 0.528152
3.6329 0.30676 0.491998
1.86683 0.71357 0.309472
2.46952 -0.64377 0.413792
1.79981 -0.05745 0.69493
3.79637 -0.75325 0.187836
3.3523 -0.11585 0.588292
1.20706 -0.09228 0.610827
3.28554 -0.94811 0.048854
1.59225 -0.00859 0.679685
3.14711 -0.04418 0.626723
3.23421 0.9875 0.00280721
3.27384 -0.45438 0.484658
2.92136 0.00796 0.657312
1.94481 -0.01282 0.704144
3.33642 -0.77533 0.233451
1.56716 0.48682 0.486461
2.46567 -0.95987 0.0467893
2.14912 0.54984 0.490166
2.3965 -0.86353 0.173948
1.2237 -0.66193 0.230326
2.62855 0.40348 0.579269
2.51891 0.83072 0.218404
3.85207 -0.78616 0.148627
3.18782 0.64113 0.369492
1.1148 -0.19154 0.564434
2.96279 0.9189 0.104977
1.09461 0.43744 0.418996
1.61831 0.51725 0.469427
3.8238 0.56786 0.324993
2.97 -0.27562 0.60423
3.32621 -0.55005 0.418897
2.64988 -0.04517 0.683157
2.30418 0.59225 0.4587
1.55792 0.58991 0.392975
3.83294 -0.77422 0.162818
3.15083 0.16625 0.610615
3.60355 0.15496 0.537776
1.00624 -0.29139 0.490265
1.19869 0.04657 0.614469
1.86997 -0.99929 -0.0975737
0.968298 -0.01835 0.556705
1.70459 0.00203 0.690511
3.72937 0.51472 0.375707
3.16813 0.16435 0.608529
3.9818 -0.74228 0.164091
1.48358 -0.15896 0.646083
3.36477 0.03894 0.593248
2.9664 -0.60643 0.419583
1.68675 0.48384 0.505836
1.63065 -0.12665 0.671264
2.82778 -0.07222 0.664468
2.85349 0.71258 0.336498
3.44624 -0.81613 0.179888
1.10263 -0.53782 0.330488
1.63477 0.88711 0.0311976
1.00304 0.35955 0.448002
1.84475 0.05619 0.697639
1.19569 0.63645 0.252239
2.33445 -0.87123 0.160549
1.24681 0.09718 0.618436
3.19128 -0.75194 0.271706
2.87556 -0.80839 0.237835
3.07325 -0.23587 0.604074
1.93126 -0.1292 0.691565
1.78107 0.57412 0.441602
2.65188 -0.50478 0.516704
1.96192 0.99074 -0.0633921
1.53811 -0.35727 0.571137
3.04182 -0.08925 0.637478
2.56811 -0.03832 0.689769
1.36286 0.1111 0.637817
1.87431 -0.22551 0.66369
1.65614 0.90901 0.0017112
3.60765 0.17452 0.533307
3.15244 -0.97311 0.0266509
2.14278 -0.90524 0.0970363
2.92464 0.86843 0.167676
2.07628 -0.8047 0.224627
3.30814 0.21204 0.576681
2.74307 -0.64063 0.407725
2.39661 -0.56984 0.477311
1.61138 0.68228 0.304303
3.3229 -0.15043 0.587613
4.33551 -0.95133 -0.106285
2.5538 0.66059 0.39721
3.74531 0.63796 0.290472
2.08094 -0.31215 0.637131
2.0975 0.87507 0.134166
1.2701 0.23711 0.583328
1.41013 0.20299 0.621915
2.59165 0.19713 0.663535
2.30676 0.46637 0.553219
2.56999 -0.2201 0.658691
2.81634 -0.20059 0.643425
1.16943 0.2386 0.560113
3.70883 0.25109 0.495258
1.48201 0.61154 0.355943
2.61798 0.91782 0.110563
2.90033 0.10258 0.653197
3.51381 0.37782 0.485075
2.27103 -0.41106 0.587549
2.54098 0.79265 0.262782
2.28564 -0.5301 0.508304
2.30447 0.17657 0.682832
3.54732 0.48177 0.426944
1.47046 -0.63648 0.326641
3.01292 0.54319 0.461578
2.66635 -0.39492 0.581291
2.20882 -0.12851 0.69493
2.74838 0.88813 0.148938
2.44495 -0.93189 0.0851781
2.59582 -0.10599 0.681368
2.21853 -0.88776 0.129422
1.11943 -0.07616 0.592902
3.35717 -0.57892 0.394742
1.48448 0.73402 0.213087
3.80281 0.58178 0.319747
3.98996 0.78872 0.121693
1.77639 0.81369 0.170201
2.64529 -0.87774 0.162288
2.88925 -0.00419 0.661039
3.9457 -0.77167 0.145169
3.0627 -0.32123 0.576101
1.94592 0.65841 0.378076
2.57907 -0.73493 0.324689
2.94582 0.46233 0.520049
1.98839 0.26676 0.653727
3.31547 0.54224 0.425579
0.977702 0.28637 0.484015
2.24676 -0.19347 0.679784
3.32832 -0.14872 0.58704
2.61244 -0.38069 0.592124
1.82787 -0.98346 -0.0800021
2.74368 -0.6062 0.436334
2.15455 -0.604 0.444494
2.4669 -0.28738 0.64177
3.99199 0.83153 0.0812254
3.58085 -0.20732 0.531101
2.0722 0.76658 0.270751
3.49138 -0.93879 0.0402061
3.34312 0.22658 0.567319
1.66442 -0.51224 0.480239
2.47299 -0.9863 0.00860549
2.79535 0.48489 0.519907
3.48881 0.66202 0.31339
3.62842 -0.22341 0.518224
1.69354 -0.68569 0.315264
3.25884 -0.51644 0.449996
2.52955 -0.86564 0.175907
3.11784 -0.31101 0.572976
2.18141 -0.87646 0.141322
2.92655 0.44631 0.531242
2.86288 -0.22985 0.630654
1.12021 -0.09688 0.589932
2.00638 0.57615 0.460857
3.28549 0.76501 0.249192
2.47159 0.51227 0.519221
3.31782 -0.4264 0.4932
2.48818 0.97507 0.0260922
2.12019 0.4949 0.53115
1.81173 0.48958 0.51541
1.89867 -0.40905 0.577841
3.03797 -0.46997 0.505709
1.25178 0.46833 0.437268
3.71091 0.13259 0.520657
2.10795 0.19814 0.679197
1.43774 0.37902 0.541835
0.909495 0.05057 0.53634
3.10218 -0.9955 -0.00026163
1.71596 -0.15345 0.67342
1.52303 0.39282 0.54718
2.06718 0.53008 0.502505
2.46644 -0.31107 0.632231
2.55884 0.86304 0.179711
1.78597 0.28029 0.637025
1.42693 0.46019 0.482749
3.31738 -0.9561 0.0363382
2.90711 -0.84641 0.193966
2.11962 0.87878 0.131586
2.78073 -0.95484 0.0624022
2.32891 -0.12166 0.693318
1.61795 -0.51921 0.467723
2.54607 0.90756 0.122428
2.69227 0.89261 0.143719
2.91345 -0.49919 0.500589
3.83596 -0.56462 0.324788
1.69592 -0.5353 0.465121
1.80458 -0.14443 0.682033
2.31723 -0.31354 0.636212
2.64572 0.47237 0.538158
2.33842 -0.73515 0.322469
3.26238 -0.00783 0.610615
1.95977 0.64762 0.390316
2.75609 0.70566 0.348264
1.16173 0.48041 0.40269
2.00948 -0.63366 0.408283
2.073 -0.52426 0.507321
4.37154 -0.98751 -0.153195
1.50733 -0.27353 0.609441
2.85592 0.80674 0.240558
1.80918 -0.66299 0.357598
1.66433 -0.53269 0.463014
2.24154 -0.62106 0.432254
1.56167 0.86347 0.0487692
1.53994 -0.79345 0.146711
3.47626 0.93423 0.0472489
3.09989 0.72044 0.310194
1.84094 -0.70813 0.31223
1.63885 -0.28397 0.621568
1.4504 0.01756 0.661505
2.06556 0.46792 0.548213
1.26472 -0.41619 0.481016
2.75305 0.53607 0.488795
2.40189 0.87191 0.163434
2.44517 -0.66818 0.391405
2.52065 0.17599 0.673392
3.72314 -0.88789 0.0677833
2.24267 -0.47509 0.547378
2.08455 -0.52234 0.509315
1.39659 -0.22807 0.610735
1.8814 -0.18654 0.676008
3.76088 -0.4248 0.418247
2.085 0.91492 0.075816
2.82196 0.07449 0.664871
2.04405 0.16693 0.686558
3.86295 0.61483 0.285742
3.21876 -0.91007 0.100197
2.41952 -0.64286 0.414874
2.83467 -0.02938 0.666498
3.06985 -0.46434 0.505348
1.13825 0.35038 0.49378
3.19743 0.46149 0.491121
2.18623 0.50154 0.528081
2.98428 -0.31509 0.587995
1.28937 -0.25369 0.580358
1.59568 -0.44441 0.522913
3.03586 0.50638 0.483583
1.82221 -0.96531 -0.0504945
2.95129 0.80528 0.237121
3.48156 0.03699 0.573216
3.66723 0.72277 0.235672
1.3095 -0.65729 0.261962
2.939 0.60707 0.421492
1.97162 0.96017 -0.0114198
3.56421 0.093 0.553962
2.27102 -0.04823 0.703578
2.58807 0.99989 -0.00517602
1.60792 0.88921 0.0207748
3.66816 0.8725 0.0920794
2.60019 0.14969 0.673724
1.06644 -0.18192 0.554923
1.86709 0.42272 0.567015
2.89953 0.00599 0.659858
1.30336 -0.44496 0.468423
3.37982 0.4976 0.444381
1.53383 -0.25564 0.620762
2.27861 0.81699 0.225864
1.60864 -0.62969 0.361643
1.08212 0.33055 0.490442
1.92397 0.45209 0.551572
2.78103 -0.72719 0.326309
2.51957 0.55134 0.489283
1.17023 0.33174 0.513466
2.1765 -0.36706 0.611697
1.88216 -0.22276 0.665034
1.21018 -0.20423 0.582861
2.42379 -0.01945 0.699173
3.07049 -0.21972 0.608953
0.920094 -0.11477 0.529828
2.72003 -0.83969 0.207663
2.97476 -0.37587 0.562765
2.99154 -0.27648 0.601394
3.17041 0.39664 0.528838
2.73399 0.21997 0.646006
1.51758 0.14891 0.653197
2.2826 0.01076 0.704787
4.02834 0.82965 0.07641
3.51122 0.58 0.371068
2.74613 0.91103 0.120102
3.3498 -0.96337 0.0245154
1.9931 0.77785 0.248866
1.89072 -0.30101 0.634939
2.15841 -0.80027 0.237736
2.36913 -0.2336 0.664786
2.29779 0.69557 0.362491
2.30785 -0.80498 0.24205
2.31631 0.65799 0.399848
2.40081 -0.97084 0.0264175
3.25889 0.75018 0.266261
2.16186 0.17095 0.68641
3.03161 -0.89378 0.132293
3.71935 0.69167 0.253137
2.89913 -0.83004 0.212832
1.47702 -0.72967 0.216856
2.55494 0.35789 0.606719
2.53835 -0.84305 0.20388
3.62434 0.60747 0.333436
2.53249 0.98832 0.00914996
3.01292 0.62972 0.396835
3.95182 0.59859 0.279731
2.20668 0.55636 0.486617
2.50034 -0.89818 0.133311
1.14541 -0.39612 0.465029
2.72311 -0.34472 0.601338
1.14763 0.1565 0.583328
1.4032 0.55708 0.393604
1.96428 0.64101 0.397302
2.809 -0.11398 0.661484
3.40133 -0.14944 0.574871
2.75676 0.61021 0.432318
2.29912 -0.94885 0.0501904
3.46044 0.04601 0.576518
2.08273 -0.19833 0.678893
1.27858 -0.45063 0.458177
2.1682 -0.71723 0.333952
2.31191 0.16097 0.68624
2.97669 -0.81233 0.227985
1.91779 0.25841 0.654074
2.99182 0.08265 0.644577
1.86084 0.29442 0.636099
2.79007 -0.95783 0.0583434
2.07032 -0.14072 0.692724
2.38061 0.29542 0.64206
2.08072 -0.39152 0.596699
1.00995 -0.3019 0.485641
2.73175 -0.64596 0.40373
2.62085 -0.06165 0.684324
2.30502 0.4697 0.551041
3.36352 -0.88687 0.113731
1.39894 -0.81432 0.0763817
3.4768 -0.92401 0.0591424
3.01524 -0.8981 0.128
2.50231 0.92008 0.104157
4.13965 -0.95928 -0.0780009
1.2497 0.51584 0.395131
2.52935 0.39626 0.588666
1.74365 -0.97976 -0.0946109
1.78643 -0.19621 0.667488
1.63725 -0.66516 0.328465
2.93437 0.34621 0.580683
1.95203 -0.88885 0.0944058
1.52932 -0.74379 0.211333
1.11217 -0.16365 0.572551
1.70344 -0.7333 0.260873
1.33789 -0.51403 0.418734
2.107 0.60296 0.443193
1.56935 -0.98377 -0.153626
2.79401 -0.57941 0.454146
2.61174 0.70816 0.350909
1.80617 0.90789 0.0387707
3.92855 0.77483 0.145459
1.33357 -0.44002 0.478987
1.36629 -0.71409 0.207366
2.09514 0.38591 0.600235
1.57285 0.84014 0.0873843
3.55484 0.48704 0.422673
1.45221 -0.86439 0.0150048
3.08497 0.77368 0.260244
2.72443 -0.59468 0.446665
2.01135 0.8429 0.167415
2.6665 -0.24127 0.645292
1.33558 -0.21571 0.604442
2.72535 -0.89953 0.134866
2.43522 0.64922 0.409047
2.11096 0.83899 0.184237
1.20959 -0.38952 0.486489
2.13701 -0.80211 0.233649
1.03776 0.05167 0.574489
2.10315 0.82312 0.204007
2.54122 0.45 0.557462
1.21286 -0.65685 0.233091
0.910372 0.15629 0.516117
1.34368 0.15526 0.624679
3.60516 -0.21279 0.525253
