ply
format ascii 1.0
comment Created by Open3D
element vertex 250
property double x
property double y
property double z
end_header
-0.596193 0.617985 1.32732
-2.59384 -0.637314 1.13439
-2.27022 -1.31819 0.0918781
-0.9767 -0.59916 -0.380254
-1.03039 -0.70757 0.00751321
-0.958705 -0.928468 -0.325247
-0.284343 -0.0961565 0.0950413
-2.83028 -1.91823 0.920145
-0.35293 0.445981 1.28
1.50578 -0.330566 1.17756
-0.371169 -0.217517 -0.124371
-0.165347 0.259178 0.924224
-3.57426 -2.47737 1.39977
-0.431649 0.362521 0.662581
-1.62364 -1.1608 -0.617471
-1.78394 -0.127174 0.857424
0.259787 -0.259964 -0.00457731
-1.60843 -0.369711 0.104988
-1.15942 -0.0323466 0.65113
-0.844935 -0.0213729 0.0706206
-2.52438 -0.626382 0.80891
0.282703 0.613182 0.572547
1.63799 0.0342581 1.27306
0.529418 -0.38219 0.218493
-1.42228 -0.243605 0.101313
-0.685791 0.341502 0.857659
1.58437 0.515494 1.76056
0.485917 0.0566599 0.324425
-4.68341 -3.51132 2.06009
0.364679 -0.112137 0.155105
1.0972 0.802218 2.57434
1.90118 -0.143873 1.64075
0.859885 0.485333 0.874539
0.439519 -0.55062 0.134321
-0.584191 0.413267 1.05838
0.520267 0.263018 0.465728
-1.43788 -0.444103 -0.21978
-4.645 -2.33872 2.26153
-5.53794 -3.31238 1.78348
-1.95332 -0.705133 0.273297
-5.12708 -3.23855 2.77677
1.03902 0.518728 1.55569
-1.67911 -0.385924 0.232302
-2.07795 -0.746865 0.526828
0.224618 -0.290602 -0.04894
-3.7081 -2.14871 1.81681
-1.43196 -0.708066 -0.246692
-4.00424 -2.14553 1.96184
-5.11721 -2.70025 2.39971
-0.274769 0.287373 0.862489
0.52752 0.532332 0.707994
-3.79838 -1.45164 1.48659
-5.33642 -2.6244 3.30618
-4.30713 -2.53367 1.29515
-1.53182 -0.889476 0.276626
-3.15435 -2.07531 1.0327
0.343068 -0.491837 0.0976447
0.0357467 -0.472524 -0.15314
0.00614785 0.718665 1.30742
-0.737284 -0.32987 -0.330982
-4.55753 -3.25341 2.85031
-4.21914 -2.19487 1.73172
-3.76911 -2.07294 1.63276
-3.32798 -2.21166 1.31393
-0.978694 -0.0660319 0.0694144
-4.93598 -2.87169 2.1579
-0.909712 0.017377 0.178421
-1.31804 0.147624 0.795698
0.790933 0.677749 1.26332
-5.26824 -2.63069 3.10354
-3.47889 -1.80966 1.57313
0.182207 0.340356 0.308141
-3.0345 -1.79101 0.00652868
0.0329504 0.227374 0.602169
-0.83991 -0.877678 -0.514404
-0.227054 -0.296531 -0.248085
-3.53143 -1.37805 1.72351
-4.54522 -2.36614 2.99395
1.22106 0.192256 1.24184
-1.77998 -0.0694499 0.995725
1.08664 -0.182193 0.674899
-0.771298 -0.142068 -0.0967359
-0.168495 0.330184 1.04674
-0.281412 0.246984 0.212639
-0.449834 0.204308 0.203897
0.412496 0.273713 0.323718
-1.31622 -0.755995 0.0825797
-1.66122 -0.0459208 0.837112
2.24817 0.970744 2.11757
-1.26626 -1.06985 -0.447136
-3.32117 -2.02767 0.365831
-3.58339 -2.03178 1.72025
-1.05551 -0.585143 -0.333407
0.661589 0.896964 1.03603
-3.07542 -1.46411 0.399072
-0.479706 -0.745355 -0.146718
-0.586447 -0.280643 -0.244013
-0.0910096 0.27282 0.230345
1.54801 0.190303 1.33165
-2.01189 -0.383014 0.524712
0.216115 0.219566 0.576332
-2.93144 -1.1272 0.977813
-1.94537 -0.522909 0.634955
-0.451342 0.209308 0.368892
-1.07239 0.282532 0.98581
-1.06516 -0.313547 0.0262234
-1.86636 -0.266382 0.579194
-1.72171 -1.18348 0.325891
1.59403 -0.00765532 1.35364
-3.25428 -2.30179 0.573624
-1.83077 -0.727323 -0.11748
-2.20327 -0.583536 0.60536
-2.09703 -0.330045 0.903346
-3.4474 -2.04644 0.410359
-2.57672 -0.647316 1.52616
0.0122993 0.474859 1.15705
-3.60036 -2.39834 1.5047
0.967644 0.0404908 1.35657
-2.09021 -1.40178 0.293389
-3.79514 -1.33087 2.22515
-3.02689 -0.855747 1.48287
1.28533 0.512894 1.16781
-2.27222 -1.03125 0.661231
-4.59524 -2.20662 2.49728
1.16726 0.42441 0.997274
-4.59545 -2.13593 2.60794
1.58235 0.782846 2.05779
0.11917 0.249027 1.51992
1.1836 -0.121416 0.954816
-2.76896 -0.821638 1.01558
0.571998 0.562455 1.09003
-1.59274 -0.246723 0.240122
0.993464 0.911454 1.92151
-4.14276 -2.78324 1.76398
-4.30427 -2.17002 2.09238
0.386324 0.61148 1.70681
-0.818203 -0.0349986 0.0872474
-0.625256 0.38199 0.564326
-3.06764 -0.953081 1.42226
-5.12235 -2.80347 2.72909
0.505049 0.274464 0.446711
-2.34785 -1.26533 0.504169
-2.07963 -0.319054 0.872134
-4.12833 -2.91091 1.888
-2.01789 -0.926871 -0.0695912
-2.76297 -1.37491 0.604781
-0.941419 -0.469867 -0.454708
-1.71228 -0.190777 0.85649
1.21211 0.032075 0.798055
-4.85441 -3.32781 2.26566
-5.1264 -2.62077 3.17978
-2.7858 -1.72216 0.686977
0.461131 -0.373974 0.0856494
0.615488 0.320996 0.435393
-3.00578 -1.13441 1.3281
-0.140604 -1.03796 -0.417313
-0.718003 -0.362557 -0.407409
-0.630135 -0.483715 0.276912
0.781758 0.645195 1.04062
-2.39028 -0.83485 0.124895
0.772877 -0.45218 0.399245
0.39601 0.415801 0.529762
-0.122626 0.127606 0.771588
-2.44864 -1.06987 0.351651
0.793765 0.0959554 0.563682
1.22843 0.602028 1.14251
-2.07744 -0.382692 0.780954
-2.73292 -1.54547 1.20508
0.533318 0.517527 0.655829
-2.92527 -1.02412 1.19016
-5.3483 -3.44199 2.396
-3.71705 -1.95335 0.735235
-3.64548 -1.50215 1.47022
-0.773729 0.302495 0.970178
-1.05815 -0.218363 0.000468288
-0.729535 0.316471 0.626919
-1.8132 -0.431464 0.149017
-1.1427 -0.556826 -0.214434
-1.79962 -0.0986108 0.92094
0.184963 0.134667 1.39406
-1.16134 -0.322772 0.09934
-1.90965 -0.535418 0.228901
-2.52818 -1.24272 0.259557
-0.181928 0.270784 0.223632
-4.96641 -2.80799 1.92431
-3.67563 -1.96533 1.6201
-0.134088 0.505578 0.69555
0.269131 0.140339 1.22674
0.659358 0.108892 0.841126
-3.707 -2.63902 0.632586
0.749332 0.136434 1.52859
0.338136 0.568989 1.81617
-0.481009 0.164376 0.433267
-4.97452 -3.501 1.76063
-4.48854 -3.00861 1.25577
0.730437 0.0807338 0.919724
-2.28541 -0.478375 0.902987
0.484067 -0.00327785 0.267003
0.684361 -0.285132 0.287197
0.091289 -0.486313 -0.127019
0.135035 0.412958 3.3703
-0.410162 0.57876 1.96539
-1.77788 -0.38721 5.09908
-1.22327 -0.830542 5.79392
-0.864388 -0.698263 9.68444
-1.39669 -1.27983 8.22056
-0.103411 0.283668 2.6425
-1.55929 -0.901013 4.958
-1.43275 -0.19102 4.95734
-0.880951 0.30318 2.85809
-0.370359 0.219219 1.8154
-0.69812 0.461508 3.99915
0.236035 0.675596 2.52257
-0.193097 0.381681 2.59594
-2.12138 -0.752197 4.82966
-1.50143 -0.350055 4.68297
0.364153 0.462063 2.7604
-1.53511 -0.528481 6.72657
-0.293361 -0.141242 5.07322
-0.782216 -0.0821546 5.94292
-2.1076 -1.40974 7.7148
-0.157003 0.406621 2.61574
-0.483775 -0.350197 5.24876
0.0154782 0.113645 4.3337
-2.1675 -1.44303 8.34091
-1.48579 -1.27021 9.17972
0.0187499 0.636492 3.63843
-1.97711 -0.553452 5.72794
-1.60386 -1.34813 7.6621
-0.554377 0.453431 1.64465
-1.66347 -0.672821 6.69384
-0.027537 0.913294 2.16226
-0.301855 0.713591 2.16756
-0.983974 -0.843994 8.6465
-1.29914 -0.874612 7.02447
-2.17771 -0.899168 6.38043
-0.520706 -0.398171 5.48805
-0.769798 -0.686559 4.00123
0.342551 0.302674 4.62236
-0.453571 0.452023 2.12617
-0.361383 0.293607 4.154
-1.97893 -0.983449 8.369
-0.538896 -0.528341 7.08343
-1.61878 -1.2917 9.54832
-1.2855 -0.123965 3.62527
-1.03223 -0.853188 7.38195
-1.10662 0.0402867 1.87831
-2.06463 -1.40663 7.86055
-1.54343 -1.22067 8.37944
-0.389799 0.24331 4.76195
