ply
format ascii 1.0
comment Created by Open3D
element vertex 250
property double x
property double y
property double z
end_header
-0.0260907 0.101987 1.66561
1.07265 -1.05208 2.79095
1.34428 -1.16864 1.62512
0.377138 -0.735879 0.228488
1.16991 -0.501079 0.920218
0.718566 -0.571989 0.334915
0.785816 -0.109131 0.559229
2.35026 -0.889304 2.97206
-0.724842 0.300582 1.14548
-0.123903 1.90792 0.0740396
0.385351 -0.266533 0.210896
-1.03057 0.294639 0.544465
2.69316 -0.974395 3.83602
-0.422447 -0.076227 0.744987
0.433447 -1.16302 0.27074
0.8057 -0.783736 2.09246
-0.647646 0.266311 -0.490296
0.462081 -1.00712 1.11254
-0.78557 -0.500292 0.896136
0.331405 -0.577076 0.677658
0.324944 -1.20546 2.14217
0.712717 0.345014 0.806076
0.0201268 1.94039 0.234055
0.223379 0.655066 -0.0990195
0.294743 -0.916417 0.962639
-0.403075 -0.147238 1.06705
-0.683601 2.00053 0.516252
0.572715 0.541308 0.275245
3.09016 -1.06682 4.97807
0.297532 0.405534 0.0335811
-0.937387 1.99844 1.48239
0.1081 2.4095 0.410416
-0.468958 0.967618 0.214808
0.146596 0.595389 -0.196972
-0.472521 0.0175236 1.17732
-0.46676 0.555801 -0.0126018
0.120071 -1.04703 0.5604
2.12052 -1.3417 5.0032
1.7659 -1.95896 4.69377
1.12745 -1.04092 1.66295
3.09946 -1.0816 5.94165
-0.917945 1.46982 0.541061
0.706171 -0.976614 1.36736
1.43461 -0.968657 2.08246
-0.603371 0.226018 -0.498646
2.75987 -0.946482 4.39339
0.670649 -0.956769 0.70523
2.57033 -1.09007 4.61066
1.99903 -1.49551 5.25563
-0.892401 0.170901 0.616748
-0.335671 0.610866 0.321412
0.743945 -1.48164 3.45237
2.03691 -1.1666 6.22781
2.02284 -1.57693 3.85605
1.58565 -0.651705 1.57958
2.37535 -1.01339 3.22941
0.277238 0.485111 -0.105415
0.0774679 0.101385 -0.237732
-0.381434 0.499245 1.17937
-0.00331589 -0.628215 0.0391252
3.69469 -0.596302 5.93686
2.11568 -1.37493 4.31917
2.45369 -1.12937 4.14976
2.61965 -0.931111 3.65193
0.299973 -0.663244 0.728035
2.40427 -1.43142 5.06838
-0.315075 -0.590646 0.543755
0.351316 -0.573585 1.6451
-0.602874 1.06997 0.591652
2.08884 -1.22815 6.02803
2.43255 -1.03636 3.98619
0.0224219 0.197066 0.264795
1.14903 -1.63221 1.7837
-0.908655 0.272285 0.187755
0.2914 -0.617437 -0.0726677
-0.0816051 -0.212416 -0.200348
1.79503 -1.14972 3.98153
3.02462 -0.820501 5.98468
-0.874017 1.53846 0.0969677
0.296109 -0.732073 2.0102
-0.169671 1.25612 -0.124436
0.270641 -0.577895 0.430865
-0.957921 0.33967 0.70434
0.291124 -0.166705 0.533693
-0.0416481 -0.290081 0.468447
0.327471 0.407148 0.263169
1.28464 -0.653021 1.18667
0.272675 -0.742371 1.79626
0.147511 2.56345 0.926223
0.649519 -0.824939 0.335907
1.54733 -1.55253 2.38208
2.68497 -0.949699 4.23215
0.457415 -0.771112 0.352798
0.042522 0.782527 0.789309
1.16285 -1.54933 2.24349
0.748675 -0.173516 0.281209
0.190149 -0.478449 0.126518
-0.0586705 -0.0303688 0.298503
-0.463677 1.84343 0.167896
-0.0589946 -1.0754 1.49133
-0.884944 0.3976 0.069301
1.50859 -1.21834 2.91037
1.37048 -0.88521 2.1308
-0.5029 -0.208339 0.421303
-0.0807132 -0.336252 1.52443
0.81392 -0.657698 0.898737
0.123898 -0.971275 1.56418
1.75042 -0.662192 1.73123
-0.462875 1.95765 0.114566
1.98482 -1.28156 2.65237
0.63322 -1.17534 1.02604
1.00169 -1.08204 2.0777
-0.0613486 -0.940822 1.89111
1.50696 -1.61594 2.47164
1.82796 -0.79628 3.4538
-0.810092 0.491779 0.799086
2.73172 -0.96001 3.98042
-1.32704 1.45661 0.113053
1.71659 -0.882776 1.84357
1.36989 -1.08526 4.41041
1.07513 -1.10252 3.29737
-0.392155 1.44541 0.277127
1.78404 -0.933182 2.39433
2.17135 -1.21366 5.24015
-0.389998 1.28984 0.170468
2.10292 -1.17605 5.32727
-0.64405 2.0788 0.865222
-1.34775 0.84437 0.780385
-0.775823 1.45513 -0.172687
1.0579 -1.18856 2.7328
-0.692053 0.84462 0.494041
0.170499 -0.966103 1.12972
-0.610339 1.51777 1.12094
2.81559 -1.08487 4.4635
2.28761 -1.23741 4.77063
-0.914412 1.03679 1.06939
0.506057 -0.539305 0.748937
0.707148 -0.260002 1.25414
1.30473 -1.12972 3.3409
2.4958 -1.26574 5.7421
-0.411273 0.530839 0.00540614
1.75733 -1.00048 2.22857
0.0119476 -0.947839 1.88724
3.00703 -0.955865 4.61804
0.871857 -1.21507 1.22911
1.65335 -1.21829 2.48281
-0.0876473 -0.805697 -0.0261939
1.34194 -0.697847 2.2653
0.0865495 1.35285 0.0761622
3.02831 -1.14087 5.27679
2.52308 -1.07284 6.20447
2.02499 -1.06266 2.64536
-0.476606 0.510673 -0.477215
0.358797 0.607274 0.27343
1.83676 -1.0645 3.40558
-0.316349 0.00247943 -0.679162
-0.296419 -0.652499 -0.173626
1.44708 -0.11823 1.10807
-0.458964 0.949984 0.450652
0.431514 -1.42286 1.44786
-0.744026 0.94379 -0.504989
-0.342201 0.450202 0.205009
-1.19597 0.280618 0.28099
1.26428 -1.23967 1.98446
-0.579875 0.870577 -0.167643
-0.317636 1.35971 0.3398
0.929985 -0.957408 2.18166
2.48062 -0.777669 3.31792
-0.272113 0.591767 0.294943
1.57008 -1.12617 3.14854
2.72965 -1.40311 5.51785
1.44843 -1.6648 2.91301
1.53419 -1.34297 3.67725
-0.505998 -0.137616 1.16441
0.556381 -0.704903 0.784261
-0.124767 -0.297393 0.997669
0.300689 -1.11746 1.18398
0.648113 -0.773956 0.597275
0.576076 -0.773696 2.06695
-1.47683 0.857806 0.547577
0.915714 -0.682566 1.06009
0.724652 -1.09972 1.46671
1.29458 -1.29238 1.9183
0.0553104 -0.0990865 0.392142
2.05299 -1.6166 4.74081
2.42973 -1.10378 4.10108
-0.270803 0.119629 0.705542
-1.41008 0.82463 0.379687
-1.09747 0.913322 -0.0609089
1.97726 -1.47192 2.8772
-1.43297 1.35685 0.368563
-1.00116 1.07585 1.14754
-0.709938 -0.182825 0.396533
2.62278 -1.46879 4.67624
2.24279 -1.56909 3.90359
-1.14798 1.01986 -0.0588626
0.942072 -1.01042 2.39104
-0.551924 0.503904 -0.270787
-0.347672 0.76519 -0.345982
0.0632708 0.162212 -0.255047
-1.30508 1.85833 2.49038
-0.623988 0.606289 1.86819
-0.993623 1.69412 5.06548
-1.97193 2.63566 4.85116
-0.965635 5.10228 8.60379
-1.83885 4.04746 7.07737
-1.38841 1.30655 1.90505
-2.04303 1.92947 4.24322
-1.01188 1.80413 4.78231
-0.84831 0.85315 2.77386
-1.29096 0.658515 1.33955
-0.667892 1.59157 3.81018
-0.937452 1.36812 1.8923
-1.19816 1.18361 2.0188
-1.36102 1.39973 4.77312
-1.27528 1.64458 4.42399
-1.30122 1.66464 1.82666
-1.07794 2.8514 6.31966
-1.68004 2.69114 3.9684
-1.16104 2.81326 5.26181
-1.6852 3.27451 7.0597
-1.17864 1.21384 2.03051
-1.83169 2.71686 4.11871
-1.58293 2.41507 3.23243
-1.49629 3.60262 7.72858
-1.48529 4.53285 8.14252
-0.920955 1.85667 3.01473
-0.948983 1.96178 5.72202
-1.96323 3.59422 6.62346
-0.679646 0.356686 1.60788
-1.20662 2.78308 6.27321
-0.294888 0.898027 2.0496
-0.481288 0.759917 2.08184
-1.39223 4.46059 7.522
-1.68628 3.30277 6.1106
-1.19129 2.29687 6.23481
-1.832 2.84222 4.34283
-2.33177 1.89426 2.86573
-1.43011 2.76344 3.41739
-0.871877 0.703524 1.90068
-1.17568 1.97812 3.50142
-0.939927 3.61517 7.99533
-1.64315 3.78804 5.83521
-1.3093 4.65496 8.61881
-1.2305 1.126 3.42555
-1.72389 3.69841 6.26975
-1.09941 0.208863 1.85129
-1.67015 3.38913 7.17347
-1.6228 4.01295 7.40957
-1.15434 2.32166 4.06044
