ply
format ascii 1.0
comment Created by Open3D
element vertex 250
property double x
property double y
property double z
end_header
0.971474 -0.849504 0.632341
2.08871 -1.90172 -0.941484
1.54472 -1.2253 -1.59937
0.224461 -0.532314 -0.912754
1.03889 -0.288462 -0.909842
0.544179 -0.338456 -0.991507
0.618151 0.0970723 -0.305054
3.01968 -1.35158 -1.67326
0.508883 -0.922106 0.89794
0.666053 1.05215 1.54983
0.24572 -0.0997577 -0.397851
0.0586325 -0.807069 0.824929
3.8425 -1.86849 -1.88824
0.245862 -0.727469 0.362226
0.303202 -0.955083 -1.47168
1.46906 -1.32772 -0.584701
-0.381734 -0.0339403 0.279823
0.703 -1.15742 -0.919717
0.220749 -1.4684 0.0392704
0.397065 -0.591116 -0.479984
1.36881 -2.11292 -0.917025
0.69553 0.380775 0.389532
0.725774 1.17038 1.67747
0.303667 0.556157 0.318573
0.540649 -1.08511 -0.768897
0.454252 -0.972692 0.352254
0.57805 0.663501 2.20669
0.508259 0.604012 0.31452
5.0016 -2.6567 -2.23348
0.266736 0.428975 0.198525
1.06909 -0.0572865 2.5868
1.06062 1.38551 2.01339
0.146238 0.308898 1.19091
0.243476 0.479861 0.221231
0.5352 -0.962766 0.562129
-0.0650652 0.121206 0.725218
0.232679 -1.09183 -0.960375
4.30368 -3.22572 -1.70561
4.07678 -3.95001 -2.47893
1.36715 -1.15302 -1.19874
5.57342 -3.20291 -1.96699
0.364337 0.12896 1.85479
0.964844 -1.13241 -0.939818
1.77934 -1.16777 -1.18319
-0.37674 -0.0325526 0.217655
4.155 -2.07129 -1.66907
0.60364 -0.807074 -1.14912
4.19914 -2.43861 -1.67489
4.49265 -3.67182 -1.86054
0.106253 -0.831179 0.693574
0.141592 0.108736 0.879084
2.53532 -3.06016 -1.32127
5.23591 -4.02633 -1.38076
3.48482 -2.77068 -2.15919
1.6208 -0.566436 -1.121
3.20893 -1.62324 -1.78828
0.297085 0.455301 0.11803
0.0269044 0.148002 -0.14922
0.620781 -0.49653 1.03494
-0.0665628 -0.535206 -0.628327
5.90345 -2.46064 -1.78726
3.79029 -2.77584 -1.81903
3.81962 -2.23306 -1.73149
3.63312 -1.70272 -1.77207
0.408449 -0.714932 -0.545536
4.56029 -3.26995 -2.052
0.0895527 -0.95923 -0.264574
1.00945 -1.14783 -0.236127
0.334492 0.093627 1.46567
5.10102 -3.90494 -1.49337
3.6558 -2.01096 -1.58983
0.147729 0.0691445 0.323426
1.58749 -1.90006 -2.0425
-0.141528 -0.516769 0.679519
0.107834 -0.395439 -0.934559
-0.139634 -0.15053 -0.28684
3.29814 -2.41714 -1.30418
5.40992 -2.87566 -1.41938
0.190688 0.402336 1.69862
1.25307 -1.58384 -0.34889
0.284106 0.750836 1.03068
0.245324 -0.508956 -0.547426
0.18247 -0.80905 0.891153
0.332466 -0.181595 -0.0595063
0.160051 -0.467928 -0.0664782
0.322696 0.407448 0.363528
1.2235 -0.492441 -1.04333
1.09172 -1.46423 -0.383323
1.15203 1.48414 2.60352
0.488646 -0.59446 -1.22512
2.20602 -2.01206 -2.08449
3.98886 -1.9919 -1.63669
0.319127 -0.575052 -0.942812
0.523337 0.287977 1.09732
1.83428 -2.04147 -1.7775
0.583033 0.0322149 -0.617853
0.0831355 -0.341677 -0.540853
0.0971948 -0.179475 0.14691
0.457244 0.849059 1.81521
0.779226 -1.81534 -0.712648
-0.174944 -0.342738 0.749697
2.39485 -1.91314 -1.38345
1.75332 -1.12824 -1.00476
0.00659864 -0.706448 0.165877
0.824695 -1.18014 0.14479
0.75583 -0.524706 -0.781062
0.883359 -1.63246 -0.639816
1.85448 -0.632891 -1.25951
0.51095 0.907167 1.83379
2.68232 -1.76901 -2.0582
0.749482 -1.1896 -1.26136
1.56127 -1.50156 -1.06354
1.07292 -1.96838 -0.501959
2.24045 -2.14508 -2.11119
2.85037 -1.62546 -0.879785
0.29663 -0.625285 1.031
3.93395 -1.9029 -1.83542
0.0785139 -0.0219757 1.75074
1.91631 -0.934179 -1.48279
3.4602 -2.93471 -0.991293
2.47793 -2.31559 -0.957537
0.345195 0.649761 1.58459
2.18972 -1.17338 -1.31684
4.47991 -3.22051 -1.52593
0.253055 0.591851 1.40256
4.50843 -3.28034 -1.428
0.773546 0.592036 2.41635
0.283283 -0.816398 1.44717
0.103371 0.504307 1.43371
2.05666 -2.01535 -1.12372
0.206902 -0.0881275 1.25189
0.600769 -1.31334 -0.732308
0.755217 0.111803 2.02713
4.3579 -2.33878 -2.00455
4.18217 -2.84478 -1.66984
0.568302 -0.470748 1.62613
0.514758 -0.492151 -0.503683
0.883199 -0.375475 -0.104404
2.59856 -2.22599 -1.08969
5.07305 -3.50709 -1.79074
-0.0461317 0.135124 0.691061
2.11571 -1.19373 -1.47462
1.08807 -1.91608 -0.532176
4.59604 -2.25068 -1.9797
1.00572 -1.23126 -1.41002
2.22151 -1.60417 -1.60494
-0.149792 -0.708796 -0.805653
1.79665 -1.02038 -0.699095
0.467673 0.924819 1.12808
5.11027 -2.89159 -2.1519
5.39884 -3.60566 -1.48628
2.59117 -1.43522 -1.69675
-0.215319 0.210916 0.385534
0.385001 0.569291 0.537573
2.87897 -1.89775 -1.28073
-0.263833 -0.064148 -0.362683
-0.29974 -0.630485 -0.592834
1.30194 0.10216 -0.579618
0.258233 0.196132 1.27271
0.928456 -1.7952 -1.34637
-0.168167 0.309009 0.81643
0.0465679 0.0400444 0.684677
-0.137919 -0.799615 0.778368
1.67123 -1.49237 -1.47477
-0.065296 0.306406 0.944522
0.360436 0.628691 1.52731
1.58905 -1.48154 -0.844476
3.22159 -1.30672 -1.43468
0.142168 0.153662 0.829234
2.57286 -1.93293 -1.24728
5.13449 -3.46152 -2.25125
2.47932 -2.4761 -2.01175
2.98933 -2.56854 -1.47114
0.501576 -1.11132 0.404808
0.557288 -0.638927 -0.715692
0.457359 -0.839524 0.100744
0.685643 -1.40687 -0.958773
0.534922 -0.591408 -0.958159
1.37491 -1.45868 -0.4864
0.122018 -0.780031 1.42197
0.89183 -0.575254 -0.810875
1.04357 -1.30507 -1.08032
1.66928 -1.51014 -1.60127
0.176379 -0.205558 0.0647865
4.1569 -3.41457 -2.12025
3.75648 -2.17298 -1.67471
0.284006 -0.42647 0.5102
0.0182515 -0.646432 1.33796
-0.146266 -0.0940335 1.19828
2.87071 -2.13525 -2.28345
0.161361 -0.300828 1.78925
0.617369 -0.566972 1.69238
-0.054704 -0.831271 0.244277
4.53049 -3.0586 -2.45314
3.72192 -2.76785 -2.3841
-0.121383 -0.0672103 1.29735
1.74548 -1.6678 -0.883993
-0.206109 0.120466 0.572973
-0.0365608 0.411594 0.606797
0.0325731 0.18604 -0.100989
1.7027 -1.1577 2.67532
1.08063 -1.07319 1.30449
3.71493 -2.90735 2.664
3.66644 -2.94809 3.62621
7.20212 -2.95421 6.10839
5.75248 -3.45352 5.05118
1.15571 -1.24556 2.0843
3.04598 -3.10038 2.91639
3.49523 -2.61336 2.77266
1.77192 -1.7184 1.68202
0.632029 -1.26588 1.37102
2.70034 -1.71791 2.49254
1.1958 -0.774263 2.09708
1.22815 -1.24035 1.96587
3.41898 -3.27327 2.3735
3.16892 -2.71885 2.6125
1.18521 -0.847191 2.39641
4.91532 -3.03248 3.86696
2.9841 -1.95748 3.62025
4.03848 -2.32132 3.8058
5.59771 -3.88529 4.29887
1.24402 -1.20723 1.99463
3.10457 -2.19886 3.65797
2.36476 -1.53528 3.29222
6.2141 -3.96939 4.62517
6.72195 -3.5584 5.54105
2.11316 -1.16385 2.70993
4.29756 -3.16099 2.94624
5.29313 -3.57211 4.60452
0.849436 -1.14629 1.02231
4.8643 -3.17755 3.79994
1.29755 -0.673242 1.57482
1.27664 -0.970628 1.46778
6.19094 -3.03088 5.46571
4.81441 -3.11782 4.3142
4.76387 -3.52757 3.30308
3.30612 -2.27133 3.79154
1.95537 -2.38965 2.7931
2.58662 -1.26266 3.62751
1.08936 -1.23727 1.44216
2.49429 -1.6645 2.88802
6.44225 -3.6172 4.63571
4.6873 -2.49477 4.76654
7.14039 -3.66302 5.66519
2.29284 -2.33551 2.03891
5.02046 -2.97588 4.69867
0.955329 -1.80632 0.964208
5.71205 -3.86997 4.41298
6.01737 -3.52101 5.02757
2.99347 -1.79055 3.26208
