ply
format ascii 1.0
comment Created by Open3D
element vertex 250
property double x
property double y
property double z
end_header
0.170769 -0.889311 -0.186584
0.556599 -2.80291 0.648143
0.471461 -2.25115 1.02378
0.221279 -0.840731 0.26342
0.571183 -0.936428 1.00202
0.113364 -0.893272 0.608707
0.59256 -0.17516 0.70549
0.428561 -3.10966 1.91035
-0.646416 -0.844669 -0.799686
-1.61091 0.711396 0.0917183
0.281759 -0.277993 0.327808
-0.979695 -0.648817 -1.04002
0.13604 -4.09891 2.14974
-0.14177 -0.624137 -0.503317
0.0269266 -1.49661 0.265144
0.730138 -1.84232 0.487929
-0.897426 0.0215048 -0.557833
0.515584 -1.51581 0.22417
-0.586967 -1.47198 -0.926785
0.519418 -0.727451 0.190055
0.101577 -2.74365 -0.0409138
0.835952 0.354512 0.660344
-1.20209 0.939844 0.221083
-0.531626 0.294356 0.307064
0.447619 -1.33777 0.0849458
-0.156207 -0.936734 -0.525793
-1.49421 0.712997 -0.496271
0.182212 0.426036 0.59999
-0.578559 -5.64017 2.413
-0.0903678 0.279438 0.337511
-1.6371 -0.0176703 -0.847295
-1.60617 0.976325 0.344243
-0.629789 0.471646 -0.373072
-0.697534 0.178074 0.23448
-0.276918 -0.919974 -0.586672
-0.530123 0.266593 -0.395147
0.262837 -1.31732 -0.0610292
-0.236148 -5.48203 1.42058
-0.990587 -6.47383 1.0309
0.739185 -1.87983 0.820424
-0.487779 -6.24508 2.32059
-1.37681 0.26873 -0.791946
0.657314 -1.59116 0.442388
0.859688 -2.05312 1.08873
-0.858292 0.00703485 -0.517917
0.374602 -4.27082 2.16106
0.441682 -1.28376 0.478268
0.256905 -4.63181 1.93468
-0.619456 -6.10721 1.25666
-0.765239 -0.684315 -0.925433
-0.263759 0.286815 -0.293941
-0.321289 -4.36475 0.205263
-0.895259 -6.65284 1.23157
-0.148513 -4.85687 1.41566
0.760275 -1.47902 1.32684
0.341802 -3.49462 1.89409
-0.474257 0.152439 0.341193
-0.37481 -0.04789 0.113015
-0.221142 -0.377678 -0.441019
0.0855829 -0.630219 -0.0802508
-0.264603 -5.65822 2.96534
0.0310566 -4.83058 1.48276
0.323163 -4.2809 1.86264
0.313797 -3.76735 2.10118
0.495664 -0.867447 0.143791
-0.413546 -5.82317 1.68375
0.00204951 -0.942133 -0.436128
0.514612 -1.39514 0.109874
-0.709092 0.285036 -0.532514
-0.780022 -6.49852 1.2964
0.511439 -3.91194 1.86947
0.155693 0.151617 0.0175397
0.131378 -3.09435 0.760752
-0.820568 -0.323068 -0.885255
-0.126332 -0.772418 0.223763
-0.171782 -0.213617 -0.0844582
0.393861 -3.99944 1.22706
0.0569785 -5.53756 2.27237
-1.59374 0.462105 -0.694515
0.303695 -1.97578 -0.000835759
-1.07758 0.590799 -0.00868829
0.400643 -0.643445 0.155539
-0.906839 -0.66544 -0.979614
0.493666 -0.201664 0.212811
0.243049 -0.426737 -0.123406
0.241027 0.386817 0.343402
0.678706 -1.21752 1.07008
0.348134 -1.79936 -0.00301968
-0.758207 1.46822 0.347384
0.0815625 -1.17729 0.511052
0.122896 -3.50515 1.10145
0.44252 -4.0937 2.10339
0.306253 -0.910684 0.32573
0.215014 0.46371 0.0509651
0.303663 -3.18373 0.736334
0.0661028 -0.473559 0.690266
0.195749 -0.478477 0.119155
0.15753 -0.0977865 -0.0924513
-1.42724 0.794319 -0.261171
0.00768101 -2.15796 -0.337616
-0.863149 -0.146734 -0.835005
0.593493 -3.11947 1.0471
0.942044 -1.91725 1.03003
-0.212002 -0.584841 -0.564562
0.118665 -1.2938 -0.276753
0.704346 -0.910973 0.634385
0.199808 -1.97654 -0.152463
0.624963 -1.73678 1.47271
-1.66583 0.759488 -0.241541
0.0554281 -3.54147 1.53706
0.469663 -1.708 0.38268
0.686377 -2.22637 0.648454
-0.101978 -2.37646 -0.365727
0.093125 -3.65073 1.04493
0.952993 -2.81111 1.35516
-0.755055 -0.473401 -0.825788
0.207135 -4.13245 2.17452
-2.09132 0.0490829 -1.15307
0.515969 -2.13212 1.40207
-0.0646888 -4.51259 0.770243
0.304108 -3.40982 0.592328
-0.844506 0.751611 -0.248166
0.842763 -2.31197 1.4057
-0.193659 -5.48285 1.46109
-0.806003 0.688816 -0.253045
-0.231055 -5.51909 1.38883
-1.32948 0.683451 -0.484322
-1.66017 -0.7109 -1.31383
-1.68647 0.462987 -0.57922
0.47329 -2.97405 0.623789
-0.735337 0.106749 -0.636635
0.333716 -1.5735 -0.0608377
-0.87948 0.26523 -0.542732
-0.0706133 -4.83979 2.19288
0.0426906 -5.0174 1.62178
-1.11459 -0.345723 -0.893519
0.62885 -0.681599 0.359551
0.920764 -0.531514 0.538181
0.433541 -3.40925 0.811431
-0.492806 -6.19013 1.7236
-0.457339 0.275579 -0.345116
0.680047 -2.39724 1.38873
-0.0207918 -2.32993 -0.293756
-0.120019 -4.88551 2.38096
0.494954 -1.91663 0.59275
0.578199 -2.86725 1.23441
0.00597443 -0.823625 -0.177363
1.07353 -1.69622 1.00961
-0.749697 0.77236 0.234771
-0.476851 -5.82963 2.31233
-0.506772 -6.3172 1.72502
0.476651 -2.96795 1.60277
-0.999727 0.157578 -0.361851
0.185217 0.542821 0.396519
0.699632 -3.27304 1.33778
-1.09794 -0.360238 -0.241567
-0.155702 -0.648159 -0.350498
0.750553 -0.564097 1.30073
-0.508317 0.387612 -0.389715
0.269986 -2.38487 0.111041
-1.57665 0.225562 -0.572738
-0.253363 0.20414 -0.306976
-1.19163 -0.622428 -1.17768
0.602243 -2.45175 0.899241
-0.95086 0.391231 -0.45419
-0.654911 0.755915 -0.191039
0.70558 -2.13426 0.581309
0.749716 -2.99228 2.01616
-0.202969 0.321258 -0.230645
0.641725 -3.15703 1.09385
-0.72879 -6.42151 1.96195
0.0756002 -4.0085 0.935713
0.221326 -4.08632 0.978548
-0.307586 -1.09571 -0.636398
0.606733 -0.911295 0.38639
0.178869 -0.833217 -0.261189
0.370317 -1.76907 0.0445711
0.462298 -0.992509 0.488403
0.546464 -1.9177 0.264953
-1.8464 -0.66243 -1.41561
0.774861 -1.01123 0.715316
0.59892 -1.84237 0.436076
0.519175 -2.53632 0.929934
0.2849 -0.154858 0.00243344
-0.500216 -5.79779 1.34923
0.390782 -4.16043 1.84698
0.00864083 -0.295023 -0.32674
-1.73039 -0.501881 -1.33615
-1.45283 0.058845 -0.971467
-0.175391 -4.08568 1.48426
-2.08432 -0.206455 -1.29577
-1.26939 -0.465946 -0.982735
-0.450979 -0.693505 -0.763494
-0.687555 -5.86001 1.93597
-0.389171 -5.12003 1.62897
-1.59051 0.0698806 -1.00917
0.62641 -2.40139 0.565417
-0.767737 0.212 -0.458484
-0.985446 0.32649 -0.218555
-0.434843 -0.0167279 0.107858
-2.41094 -1.41471 -1.33104
-0.755321 -1.12103 -0.739452
-3.20354 -4.06226 -1.3091
-5.03441 -4.19847 -2.14359
-6.21151 -5.28296 -1.25191
-6.59354 -5.50405 -2.07863
-2.15416 -1.37982 -1.41679
-4.61353 -4.18281 -2.23287
-3.06215 -3.63167 -1.28505
-1.52051 -2.05439 -1.02607
-1.61931 -1.27177 -1.33726
-1.86009 -2.28498 -0.869469
-1.43092 -0.8072 -0.963031
-1.83786 -1.37054 -1.25499
-3.62764 -4.44889 -1.67579
-3.27973 -3.68143 -1.52658
-2.1245 -0.935312 -1.281
-4.35112 -4.59678 -1.38779
-4.02942 -2.77538 -1.75758
-3.81363 -3.45923 -1.3648
-6.08632 -5.93925 -2.01483
-1.81875 -1.33451 -1.23341
-4.39681 -3.11915 -1.91989
-3.40981 -2.08273 -1.61756
-6.26901 -6.23202 -1.85942
-6.75747 -5.91738 -1.78339
-1.95544 -1.48243 -1.00623
-3.59607 -4.55317 -1.30189
-6.40396 -5.50008 -2.20709
-0.716176 -1.16727 -0.796431
-4.54611 -4.77099 -1.51797
-0.371762 -0.686469 -0.399396
-0.639126 -1.03679 -0.60283
-6.13538 -5.08259 -1.63569
-5.45574 -4.74578 -1.91441
-4.42548 -5.17103 -1.5553
-4.55817 -3.26941 -1.92883
-4.41491 -3.05726 -2.37948
-3.3521 -1.81953 -1.44535
-1.15953 -1.31813 -0.976309
-2.65574 -2.20415 -1.29403
-5.40898 -5.8135 -1.33622
-5.35946 -3.967 -1.78699
-6.77856 -6.16514 -1.64472
-2.53538 -2.95712 -1.43923
-5.74545 -4.65853 -1.92208
-1.41758 -1.97902 -1.2533
-6.16161 -5.95851 -1.99843
-6.38279 -5.6406 -1.90369
-2.99523 -2.49914 -1.29094
