ply
format ascii 1.0
comment Created by Open3D
element vertex 400
property double x
property double y
property double z
end_header
-0.771858 1.65317 -0.524747
-1.18771 1.99169 -2.69791
-0.406661 1.43233 -0.875318
-0.463646 0.730667 -2.07038
-1.61357 1.80439 -1.06619
-1.20372 1.52723 -0.981048
-0.176209 0.582466 -1.44336
-0.71715 1.69863 -1.1727
-1.55419 1.75875 -2.9777
-1.7244 1.62388 -3.64997
-0.96922 1.0853 -0.651181
-0.372411 1.29457 -1.42963
-0.698816 1.21015 -2.39354
-1.07792 1.82021 -2.5058
-0.816419 1.5332 -2.21013
-1.19664 1.14071 -0.407864
-0.731159 1.33263 -0.584751
-1.43649 1.19976 -3.3278
-0.0280174 0.762404 -0.729664
-0.934037 0.992364 -2.71884
-0.676642 1.66079 -1.35851
-0.754835 1.70893 -1.64757
-0.826615 1.55514 -2.26467
-0.362533 1.17945 -1.37319
-0.152063 0.726844 -0.889813
-1.04744 1.63317 -1.47158
-0.647273 0.542474 -2.25955
-1.74437 2.1712 -2.17422
-0.395011 1.26887 -1.89859
-1.81662 2.24719 -1.97944
-1.59738 1.40491 -0.920481
-0.611627 1.46406 -2.06146
-0.215158 0.71337 -1.62682
-0.907159 1.72807 -2.39359
-0.249558 0.872969 -1.63441
-0.307474 1.07505 -1.55506
-1.52471 2.08079 -2.78141
-1.58367 2.32299 -1.7689
-0.257674 1.27391 -0.595104
-0.289687 0.582924 -1.60716
-0.567442 1.18706 -2.12079
-1.58564 2.1608 -1.35959
-1.03561 1.57472 -2.81196
-0.576583 1.72508 -1.82989
-0.942111 2.01068 -2.33328
-0.0978355 0.528803 -1.28942
-1.4263 2.1502 -1.58518
-0.270951 1.43295 -1.63191
-2.23906 2.41312 -2.21275
-0.279977 1.4287 -1.54075
-1.6329 1.43756 -3.59164
-0.171281 0.767881 -1.46208
-0.92827 1.02348 -2.67398
-1.58055 1.75249 -3.41955
-1.14362 1.4217 -3.01306
-0.683242 1.92964 -1.2828
-1.1865 1.83185 -0.943516
-1.75964 1.41961 -1.00754
-0.15683 1.10485 -1.09382
-0.269144 0.831971 -1.4324
-1.23859 1.0788 -3.11849
-1.44146 2.03683 -1.24893
-0.144093 0.99552 -1.51617
-1.35287 1.56024 -0.652914
-1.76284 2.04381 -1.5446
-1.09265 1.40208 -2.90202
-1.91697 2.19892 -1.92874
-0.757825 1.36286 -1.23752
-0.640406 1.52688 -2.20016
-1.45714 2.22786 -1.67099
-1.61429 1.90681 -1.92151
-0.232858 0.483066 -1.44988
-0.912765 1.28409 -1.00942
-1.76023 1.44338 -3.70906
-1.01266 1.76708 -2.52058
-1.34287 1.78516 -1.04421
-0.534728 1.26443 -0.559633
-0.565319 1.19112 -0.30889
-0.984388 1.88085 -1.85445
-1.60915 2.08241 -1.56235
-1.5167 2.01867 -2.12816
-1.9288 2.34545 -2.12322
-1.09317 2.27419 -1.99931
-1.17932 1.76165 -1.71862
-1.10396 1.93619 -2.63625
-0.0943792 1.01939 -0.887051
-0.641228 1.43683 -0.942783
-1.00015 2.01268 -2.02284
-0.440754 1.19992 -0.874456
-1.29019 1.5237 -0.932637
-1.32993 2.45128 -2.24028
-0.755243 1.60588 -2.06624
-0.251293 0.756513 -1.66648
-0.976314 1.36444 -2.58256
-1.51734 2.077 -2.14073
-0.448328 1.25447 -0.791015
-1.13804 1.78817 -2.42838
-1.16889 1.31441 -0.720375
-2.17682 2.10745 -1.71418
-0.909812 1.98189 -2.13756
-0.983992 2.32239 -1.7526
-1.19643 1.86984 -2.11615
-0.513414 0.870921 -2.08479
-0.911089 1.38025 -0.938837
-0.722388 0.864125 -0.763038
-1.01273 2.05949 -1.65671
-1.13063 1.7818 -2.57167
-1.3595 1.88917 -1.36007
-1.04916 2.07578 -1.37608
-0.565615 0.909771 -2.17703
-0.210828 0.829038 -0.999434
-0.926697 1.82507 -2.38917
-0.935019 1.41787 -2.75464
-0.16814 1.06395 -1.62514
-1.56778 2.01793 -1.61516
-1.09917 1.69833 -0.929673
-0.915265 1.45443 -2.39705
-1.00318 1.21713 -2.77644
-0.388131 0.62474 -1.95149
-1.91917 2.06638 -1.48092
-0.157367 0.985085 -1.39288
-0.900003 1.17147 -0.335446
-0.730092 1.24802 -2.26821
-2.51691 2.5072 -2.37507
-1.88904 2.25203 -2.44293
-0.281831 0.343542 -1.64389
-0.266842 1.33217 -1.51933
-1.38923 1.17571 -0.612409
-1.47585 2.36912 -2.32704
-0.968782 1.30832 -0.228745
-1.72068 2.40734 -2.3489
-2.07814 2.26899 -2.25556
-0.589751 1.55263 -0.835414
-0.0726088 0.782662 -1.24242
-0.334322 1.24065 -0.584907
-0.355432 1.52696 -1.38973
-0.320848 0.992268 -1.08365
-0.87192 1.68035 -2.34764
-0.245557 0.844683 -0.753601
-1.23159 1.1472 -3.09935
-0.759785 0.855868 -2.50345
-0.0667056 1.05739 -0.405183
-0.0833681 0.481501 -1.30665
-1.58016 2.0695 -1.57651
-1.1981 1.96304 -2.49211
-0.876643 1.04754 -2.67875
-1.00525 1.53384 -2.73841
-0.746969 0.308482 -2.30559
-0.948273 1.90154 -2.31707
-1.91584 1.97936 -1.81318
-1.33605 1.22158 -0.368308
-0.143236 1.15518 -0.564637
-0.0600468 0.817121 -0.715422
-0.989638 1.75319 -1.32039
-0.234722 0.753286 -1.51588
-1.30064 1.64237 -3.23775
-0.487933 0.62164 -2.07089
-0.71942 1.05854 -0.400646
-0.56089 0.420908 -2.10232
-0.238 1.19242 -0.362705
-0.220829 1.15005 -0.882179
-0.598648 0.852531 -2.22843
-0.60344 0.419836 -2.15917
-1.38223 2.3022 -1.35217
-0.620271 1.31965 -1.73631
-1.43342 1.44541 -0.874704
-0.436585 0.441238 -1.89274
-2.44828 2.55475 -2.34538
-0.189822 1.76664 -0.573733
-0.581873 0.79561 -2.21481
-0.498958 1.0971 -0.653023
-1.19015 1.66599 -0.73687
-0.195768 1.05432 -1.13124
-0.272815 1.21236 -0.70416
-1.20882 1.91427 -1.32254
-0.947415 1.55291 -1.21814
-1.01626 1.78476 -1.52898
-1.17703 2.14995 -2.13728
-0.1571 1.20753 -1.2302
-0.698564 1.33075 -2.16868
-0.786486 1.4748 -1.39889
-0.385585 1.33733 -1.80127
-0.215537 1.26219 -1.51119
-0.9964 1.83698 -2.12345
-1.25121 1.99125 -1.5369
-0.911496 1.83889 -2.20985
-1.41971 1.83951 -3.30306
-1.52372 1.28999 -3.44487
-0.0102482 0.897099 -0.786898
-1.39428 1.48038 -3.32854
-0.491259 1.59352 -0.507403
-0.252928 0.837986 -0.699293
-0.0621657 0.521147 -1.30329
-1.65793 2.06421 -1.59496
-1.61555 2.28725 -1.91791
-1.2955 2.12214 -1.7361
-1.69043 1.94689 -1.24973
-0.460286 1.70204 -1.25195
-1.24976 1.45266 -3.04569
-0.094486 0.845825 -0.736635
-0.200066 1.10107 -0.597702
-0.976981 1.76992 -1.65559
-1.29593 2.2516 -1.65054
-0.564756 1.1641 -2.10166
-1.45162 1.93868 -1.81353
-2.1141 2.0641 -1.57819
-1.85323 2.44639 -1.91471
-0.452743 1.02177 -1.91034
-0.116757 1.46763 -0.980734
-1.77219 1.65546 -1.33147
-0.418644 0.752778 -1.91107
-1.91933 2.29991 -2.07985
-1.05288 1.66724 -2.55998
-1.06648 1.26872 -2.92184
0.104559 0.871929 -1.00143
-1.3891 1.82421 -0.795846
-0.723047 1.30001 -2.29971
-2.38664 2.52656 -2.24486
-1.5053 2.0436 -2.67666
-0.241545 1.15641 -0.68483
-1.24472 2.31784 -2.03153
-0.638017 1.85855 -1.77144
-0.607991 0.567801 -2.23004
-1.43132 1.67071 -1.60006
-0.795982 1.39756 -2.12775
-0.389296 1.16833 -1.46331
-1.47513 1.72502 -0.956178
-1.58028 1.91912 -1.07581
-0.686711 1.61983 -2.19816
-0.461637 1.07999 -1.8732
-1.05158 1.93564 -1.59067
-1.131 1.84681 -1.57075
-0.631449 0.648814 -2.26971
-1.22691 1.61295 -0.719523
-0.943918 1.97057 -1.4004
-1.64289 2.3177 -1.19081
-2.08077 2.59062 -1.96474
-0.444928 1.12995 -0.641421
-0.255388 0.787757 -1.5137
-0.199411 1.29067 -1.34569
-0.711779 1.8709 -1.39866
-1.1388 1.47287 -2.75218
-2.44113 2.4074 -2.48427
-0.934779 1.70679 -1.11249
-1.33246 2.03902 -2.71389
-0.822616 1.70961 -1.3436
-0.384961 1.38767 -1.35753
-0.400672 1.53142 -1.92296
-0.790875 1.21774 -0.478122
-1.09823 2.09421 -1.64371
-0.183957 1.0494 -0.492583
-2.40651 2.36283 -2.02453
0.064529 1.33205 -1.17423
-0.812933 1.45187 -1.98871
-1.84462 2.17205 -2.11818
-0.550737 0.80932 -2.11472
-1.80944 2.16595 -1.60919
-0.804424 0.934486 -2.56218
-1.37677 1.25146 -3.24702
-0.609895 1.2582 -1.0251
-1.26483 1.30033 -0.615925
-1.44018 1.9096 -2.36028
-0.924254 1.25334 -0.402049
-0.516758 1.16342 -1.74176
-1.23105 1.4502 -2.94423
-1.75043 2.43528 -2.04002
-1.12156 1.78394 -1.29977
-1.54239 2.27592 -2.26004
-1.28695 1.93961 -1.58219
-1.90164 2.10621 -1.47626
-0.158411 0.573923 -1.4792
-0.0284453 1.30284 -0.790283
-0.604329 1.42682 -1.88554
-2.05194 2.45523 -2.30835
-0.846111 0.803926 -2.54983
-2.2534 2.50482 -2.14063
-0.0576531 0.69722 -0.79004
-2.28356 2.42778 -2.01298
-1.29383 1.64721 -3.01298
0.0610531 1.02811 -1.09933
-0.616231 1.91791 -1.52573
-1.1358 1.44803 -0.832652
-1.87685 2.09146 -2.00085
-0.935596 1.60161 -1.30222
-1.16143 1.79353 -2.67527
-0.651185 1.14301 -0.497729
-0.0369519 1.32237 -0.471253
0.0146485 1.23518 -0.815571
-1.5788 2.06661 -2.01079
-1.50454 1.78815 -3.12513
-1.97313 2.34916 -2.17345
-1.32642 1.99413 -2.99271
-1.58755 1.86139 -1.25348
-0.518943 1.36846 -1.41503
-1.25197 2.04322 -2.66962
-1.2458 1.43363 -0.747618
-0.931047 1.8131 -2.38184
-1.91256 2.21614 -2.47117
-0.363997 0.565143 -1.60517
-0.650111 1.24272 -0.31819
-0.91757 1.88934 -2.255
-0.144473 1.43786 -0.686006
-0.960049 1.23729 -2.65149
-0.3403 1.02528 -0.457818
-0.99796 1.52653 -2.62508
-0.682887 1.60668 -1.72602
-1.10511 1.11585 -0.453301
-0.322161 1.09487 -1.08254
-0.711514 1.33712 -2.25676
-0.689579 1.23232 -0.796265
-1.22567 1.12276 -3.00123
-1.54994 2.13899 -1.09968
-0.860517 1.87356 -1.30514
-0.167228 0.54029 -1.32052
-0.990552 1.6827 -1.01438
-0.718063 1.5358 -1.17659
-2.24101 2.27986 -1.8172
-0.793399 0.775511 -2.45115
-0.673612 0.976122 -2.39532
-2.67311 2.28475 -2.33228
-1.39495 1.43309 -0.523537
-1.14464 1.05162 -0.757625
-1.00389 1.51516 -2.6012
-0.0896605 0.632016 -1.09962
-0.16058 0.938693 -1.37402
-0.595864 1.6963 -1.12225
-1.12258 1.72871 -2.84225
-1.43982 1.95647 -3.01343
-1.22074 1.27627 -3.10836
-0.580309 1.34676 -1.33861
-0.913723 1.72688 -1.17294
-1.96721 2.44736 -2.20179
-0.756134 0.853486 -2.39819
-1.86969 2.32034 -2.13391
-0.335269 0.82759 -1.88906
-1.46674 2.41729 -2.08045
-0.556704 1.68943 -1.52953
-0.935486 1.97996 -2.17926
-0.721688 2.07499 -1.92743
-1.81983 1.47849 -3.79293
-0.415503 0.885992 -1.84693
-0.404647 0.469447 -1.75636
-1.08194 1.18848 -0.938621
-1.51632 1.5826 -1.17578
-0.97027 1.49769 -1.0155
-0.350337 0.933602 -1.69124
-0.621351 1.11034 -2.10044
-1.05271 1.83098 -1.6643
-1.03947 1.61349 -2.11072
-0.851941 1.90892 -1.17791
-0.757029 1.83607 -1.47604
-1.38593 1.61104 -3.23016
-1.14148 1.78734 -1.46204
-0.246421 1.15442 -0.451191
-1.36541 1.86934 -1.28474
-0.456077 1.1014 -0.714116
-0.344935 0.623763 -1.85747
-1.402 1.63502 -0.740843
-0.973094 1.25448 -2.66762
0.0573328 1.09603 -0.855775
-0.171913 0.792816 -1.31696
-0.0156156 0.984225 -1.36539
-0.595993 1.65082 -1.11554
-0.728687 1.0654 -2.45993
-0.31356 0.773531 -1.86755
-0.355258 1.41689 -1.0565
-0.911095 0.817053 -2.62975
-1.36298 1.46842 -0.811488
-0.589835 1.15962 -2.2576
-0.695837 2.00766 -1.63231
-0.0719276 0.663387 -0.85961
-1.11093 1.42448 -0.624964
-0.983511 2.11328 -1.73044
-1.79286 1.88827 -1.28859
-1.27185 1.21955 -0.368238
-1.4908 1.8865 -3.01427
-0.675888 1.94318 -1.66288
-1.6025 2.10368 -1.41853
-0.554877 1.09528 -1.93223
-1.06618 1.49925 -0.856833
-1.1051 1.51344 -2.50752
-0.949846 1.30445 -0.784609
-0.10162 1.22958 -0.437443
-1.08435 2.15277 -2.50124
-0.835912 1.579 -1.32259
-1.08958 1.05692 -2.84459
-0.840451 1.96611 -2.20186
-0.719458 1.29309 -0.512575
-0.822438 1.47236 -2.49884
-0.511855 1.3763 -0.837095
-1.49225 1.69593 -1.11177
-1.15026 1.62857 -2.91449
-0.445368 1.06458 -1.95072
-1.35243 2.05984 -2.50595
-0.570295 0.936681 -0.52376
-0.464235 1.01129 -1.85309
-0.561061 1.70745 -0.801136
-1.33784 1.91999 -2.08017
-1.02124 1.53028 -2.8032
-0.338064 1.04154 -1.91151
