ply
format ascii 1.0
comment Created by Open3D
element vertex 250
property double x
property double y
property double z
end_header
0.621823 -0.455163 1.44905
-0.576669 -0.36554 3.05781
-1.25481 0.0587642 2.1022
-0.569612 0.108978 0.556878
-0.667019 0.45959 1.29362
-0.899223 0.11583 0.602265
-0.0734374 0.550426 0.815594
-1.84381 -0.0957725 3.2805
0.423695 -1.17179 0.57318
-0.402829 -1.14938 -1.11431
-0.200619 0.24971 0.411556
0.22714 -1.34253 -0.0918902
-2.39559 -0.569499 3.9934
0.359323 -0.549133 0.561172
-1.12012 -0.129019 0.67265
-0.0786331 -0.000405418 2.39693
-0.28797 -0.769237 -0.892806
-0.325324 0.0224699 1.51274
-0.0329887 -1.18302 0.630766
0.00747438 0.215002 0.985533
-0.579313 -0.794919 2.30174
0.625187 0.723835 0.953321
-0.0320808 -0.799501 -0.83092
-0.403203 -0.242687 -0.447969
-0.205478 -0.0213917 1.31053
0.341505 -0.685671 0.857763
0.434843 -1.37899 -0.797343
0.052604 0.336892 0.19579
-3.42458 -1.49629 4.81114
-0.120019 0.0750928 -0.0948589
0.719491 -1.94244 -0.049398
-0.225778 -1.10824 -0.956904
0.445089 -0.618789 -0.401817
-0.573098 -0.386389 -0.578582
0.406675 -0.826434 0.849282
0.234789 -0.516949 -0.429572
-0.408067 -0.11379 0.923145
-2.2551 -1.57279 4.91338
-3.22524 -2.3362 4.54714
-0.645766 0.228017 2.15617
-3.14721 -1.77096 5.6737
0.450925 -1.45228 -0.594739
-0.33648 0.137608 1.80045
-0.682367 0.291902 2.57243
-0.316428 -0.724309 -0.868031
-2.06249 -0.54012 4.55134
-0.664059 0.184994 1.14902
-2.05857 -0.808966 4.71993
-2.61718 -2.06507 5.03424
0.263341 -1.15777 0.100303
0.5083 -0.355501 -0.0542083
-1.39053 -1.55325 3.42454
-2.54979 -2.5948 5.67268
-2.44765 -1.14644 4.02338
-0.834361 0.493248 2.02462
-1.99704 -0.278516 3.51505
-0.506651 -0.201254 -0.3722
-0.47884 -0.196305 -0.353442
0.700326 -0.667666 0.725804
-0.311073 -0.0466117 0.26519
-3.16469 -1.29746 5.66432
-2.10987 -1.0959 4.42763
-1.98742 -0.626829 4.34509
-2.13099 -0.364005 3.87236
-0.0352869 0.150972 1.04451
-2.78288 -1.67287 4.97453
0.0312187 -0.401126 0.61742
0.179747 -0.137727 1.81452
0.633002 -0.853224 -0.155878
-2.55302 -2.41431 5.56698
-1.72571 -0.394127 4.23582
0.337538 0.078682 0.21878
-1.72033 -0.437758 2.24798
0.198267 -1.03651 -0.320965
-0.8573 -0.091173 0.131887
-0.294119 -0.138437 -0.171593
-1.30163 -0.723612 4.14715
-2.27763 -1.29333 5.8009
0.11951 -1.45183 -1.06534
-0.0346237 -0.500361 2.10026
-0.231821 -0.736842 -0.899086
-0.116117 0.182217 0.726315
0.299215 -1.30641 0.0645205
0.262842 0.301261 0.715588
0.21592 -0.0231483 0.572202
0.270359 0.289265 0.217349
-0.707451 0.467427 1.62218
-0.0113904 -0.392467 1.93227
0.89538 -0.52093 -0.272652
-1.03477 0.0225298 0.665312
-1.95145 -0.520666 2.78316
-1.94642 -0.446911 4.42758
-0.552124 0.157732 0.713833
0.880116 0.0425333 0.501679
-1.39234 -0.438354 2.67532
-0.727636 0.171345 0.415254
-0.261797 0.105997 0.353688
0.275377 0.00296082 0.311458
0.116965 -1.14667 -0.994334
-0.348449 -0.741843 1.62098
0.186436 -1.00115 -0.474384
-1.05455 -0.261826 3.28216
-0.460744 0.338738 2.60654
0.206896 -0.53995 0.292408
0.297014 -0.54027 1.44513
-0.272585 0.439917 1.32537
-0.22984 -0.523698 1.73815
-1.12649 0.372173 2.13328
-0.0868347 -1.31527 -1.15759
-2.22654 -0.489236 2.96034
-0.676344 0.042336 1.49934
-0.524082 -0.0187335 2.491
-0.299165 -0.96242 1.88272
-1.96904 -0.603456 2.86518
-0.576443 0.0273656 3.77394
0.443637 -1.1349 0.166806
-2.3152 -0.545595 4.1415
-0.0417381 -2.0537 -1.25138
-1.33979 0.187774 2.25969
-1.26595 -1.40949 4.28438
-0.794573 -0.779164 3.42305
0.458236 -0.722986 -0.565713
-0.961697 0.283461 2.86723
-2.12468 -1.58466 5.09594
0.374252 -0.675706 -0.593527
-2.05619 -1.66544 5.13705
0.703373 -1.33773 -0.462758
0.19044 -2.03352 -0.33823
-0.192143 -1.41511 -1.28833
-0.758375 -0.444472 3.02202
0.522191 -0.907419 -0.186964
-0.209667 -0.231204 1.41537
0.853844 -1.12329 0.0943795
-2.69657 -0.958361 4.51267
-2.08477 -1.17205 4.79604
0.560416 -1.48992 0.0872783
-0.0032626 0.347874 1.09378
0.413415 0.529362 1.56096
-0.886235 -0.611525 3.54232
-2.71663 -1.93158 5.48329
0.248576 -0.446154 -0.374344
-1.19646 0.182664 2.68845
-0.286062 -0.86739 1.91851
-2.82505 -0.973488 4.61119
-0.870277 0.0615387 1.72532
-1.30162 -0.0703024 2.92903
-0.448314 -0.149485 0.228871
-0.132586 0.425855 2.70208
-0.01247 -0.42461 -0.614723
-3.23789 -1.55039 5.11761
-2.53765 -2.07231 5.81598
-1.64825 -0.0699883 3.0312
-0.407364 -0.765721 -0.97334
0.311889 0.280872 0.14656
-1.05853 -0.217648 3.73475
-1.05617 -0.809679 -0.994842
-0.350607 -0.278952 -0.0284306
-0.447453 0.702238 1.42698
0.607604 -0.599441 -0.151598
-0.780535 -0.39455 1.84756
-0.507856 -1.27286 -1.36658
0.395965 -0.33282 -0.099346
0.0904754 -1.48692 -0.40604
-1.00316 0.00222041 2.46717
0.0522945 -0.810468 -0.821053
0.553058 -0.570885 -0.41061
-0.327319 -0.0428812 2.53713
-1.46787 0.118283 3.66617
0.495523 -0.275152 -0.0420218
-0.951895 -0.271673 3.48067
-3.35088 -2.00069 5.28558
-1.87419 -0.808457 3.24587
-1.42689 -0.880248 3.8571
0.299453 -0.885482 0.873716
-0.181281 0.304352 1.17655
0.328102 -0.302165 0.995814
-0.38761 -0.201902 1.53985
-0.518488 0.265952 1.00148
-0.0557498 -0.224779 2.28031
0.0711119 -2.15024 -0.621628
-0.278338 0.471289 1.50859
-0.482475 0.0356328 1.90802
-1.17513 -0.0446506 2.40328
0.278602 0.105355 0.471607
-2.72113 -1.77461 4.67939
-1.88036 -0.553655 4.31491
0.500495 -0.320873 0.534322
0.0793675 -1.97115 -0.707013
0.0514895 -1.44978 -0.979429
-2.5601 -0.807306 3.13553
0.0563505 -2.19317 -1.01131
0.514189 -1.67537 0.0781558
0.155621 -0.802698 0.155593
-3.41193 -1.70158 4.58575
-2.92183 -1.2997 4.0083
0.0181501 -1.56908 -1.06516
-0.421447 -0.19371 2.70849
-0.0345674 -0.665606 -0.725367
-0.323253 -0.716314 -0.921832
-0.495238 -0.236638 -0.410077
0.324065 -3.13116 0.550998
0.550522 -1.4477 1.06982
-0.466546 -4.69293 2.58288
-0.970654 -6.37141 1.35017
-0.893277 -8.02978 3.49945
-1.46678 -8.26584 2.29128
0.209933 -2.81266 0.303944
-1.01979 -5.92369 1.19076
-0.273227 -4.45326 2.3501
0.259686 -2.47903 1.47867
0.168985 -2.2161 0.222206
0.399619 -2.97209 2.03632
0.614204 -2.01968 0.575485
0.317883 -2.53722 0.572542
-0.833944 -5.125 2.237
-0.435051 -4.62442 1.98728
0.37951 -2.66911 0.142157
-0.649619 -5.98609 2.88459
-0.271154 -5.06671 0.952982
-0.201384 -5.16308 2.16147
-1.56732 -7.89723 2.71732
0.34249 -2.51339 0.581761
-0.486375 -5.48734 0.929804
-0.00302254 -4.27125 0.6335
-1.6068 -8.18484 3.14688
-1.46389 -8.60216 3.03703
0.559741 -2.80134 1.2042
-0.64161 -5.21629 2.93196
-1.5236 -8.05107 2.09702
0.431009 -1.37821 0.933538
-0.796085 -6.19257 2.78444
0.886196 -1.02318 1.30284
0.685002 -1.35232 1.26083
-1.02988 -7.81406 2.75093
-1.02963 -6.99502 2.10792
-1.00728 -6.15016 2.95151
-0.538838 -5.68921 1.02672
-0.811086 -5.3453 0.0517621
0.179584 -4.18016 0.718467
0.413291 -1.8767 0.897762
0.204016 -3.65324 1.31255
-1.1296 -7.34912 3.73359
-0.696408 -6.71418 1.75307
-1.48489 -8.71718 3.42115
-0.189185 -3.6819 1.55676
-1.02245 -7.25156 2.01358
0.0094076 -2.24121 0.898962
-1.56763 -7.98037 2.75422
-1.40018 -8.13923 2.6861
0.142619 -4.08948 1.56848
