ply
format ascii 1.0
comment Created by Open3D
element vertex 200
property double x
property double y
property double z
end_header
1.19028 2.72004 -1.154
1.27334 3.49749 -1.94289
0.977897 6.02313 -5.3322
4.98819 5.38886 -3.72657
1.448 3.41797 -1.79434
-0.268321 1.52664 -0.71311
3.48168 6.5519 -4.95873
1.99785 6.5566 -5.48459
-0.466786 5.7866 -6.19698
0.814629 3.44249 -2.08003
-1.36146 0.196691 -1.02752
4.63043 3.23574 -2.17021
-1.18613 1.55208 -1.51115
0.790061 3.04623 -1.64654
5.00252 8.81696 -7.58692
4.30823 4.41398 -2.69601
-0.138714 1.90037 -0.966613
1.03339 6.24442 -5.609
-0.97713 3.20863 -3.13074
-0.669086 1.20314 -0.739018
0.663961 6.29966 -5.95345
-0.264941 1.37515 -0.586485
1.61685 0.472196 -0.0720456
-1.08243 2.84902 -2.79686
0.94795 0.860817 0.130649
-0.664912 -0.171013 -0.46444
2.36637 2.74279 -1.01306
4.30374 7.69039 -6.2432
-1.12327 3.90232 -4.19827
0.867143 -0.0452389 -0.146897
5.07543 5.36919 -3.73573
1.07843 1.66021 -0.274201
4.14852 4.04654 -2.35723
2.33683 2.85306 -1.10208
2.40458 1.89622 -0.473145
-0.501435 0.381496 -0.190239
0.12236 -0.235225 -0.227714
2.31585 0.932405 -0.327065
3.84996 2.32438 -1.37424
0.0312883 -0.203225 -0.182278
4.03588 2.25821 -1.55354
-0.901653 -0.118474 -0.63185
-1.5036 1.6753 -1.99295
2.27141 1.87942 -0.432186
1.90383 0.859091 -0.0837632
1.94224 3.47641 -1.72597
-1.04541 0.622757 -0.716848
2.99562 6.93766 -5.58676
-0.797992 3.27536 -3.03519
0.281727 -0.0387063 0.0128131
-1.36571 1.38135 -1.56272
5.42754 8.99729 -7.7723
1.20214 0.692543 0.142856
2.13874 2.41664 -0.753812
2.3414 5.71415 -4.21972
0.316717 3.3102 -2.20142
3.51329 2.28128 -1.11572
-0.589786 6.20323 -6.95746
-1.24159 2.86912 -2.99556
0.145576 3.44409 -2.47254
3.94705 1.91992 -1.57072
0.330145 2.98227 -1.81473
3.44423 1.40614 -1.25868
3.48223 6.71317 -5.16097
4.67657 7.28171 -5.69987
-0.297089 -0.173532 -0.238365
-1.0887 -0.258976 -1.10656
1.04649 0.279276 0.0914906
-0.542706 2.18757 -1.54416
1.36281 1.60793 -0.206525
-1.35328 2.9506 -3.225
0.936633 2.67056 -1.19108
4.11844 3.10915 -1.76905
4.82875 5.11485 -3.43904
1.75774 6.84104 -6.00923
-1.20206 -0.317012 -1.61555
0.312603 1.20434 -0.171757
4.93903 5.16544 -3.51657
4.70976 5.34738 -3.61774
3.55008 2.98873 -1.43013
4.0329 6.76812 -5.13506
2.48197 3.75913 -1.93141
0.943781 5.06166 -4.03271
3.5599 1.85044 -1.14785
-0.23605 3.6039 -2.95329
-0.347658 -0.0679657 -0.171509
1.48967 6.20105 -5.26402
2.19199 1.53783 -0.269945
3.25364 4.31302 -2.44988
2.05178 0.749474 -0.211929
4.25454 4.76782 -2.9883
-0.648421 0.958711 -0.55135
3.67866 7.81767 -6.5477
-0.3047 1.30714 -0.558431
1.85123 1.23636 -0.0844791
5.25439 9.04832 -7.85476
3.36935 1.50553 -1.07992
1.97792 4.67588 -3.05895
3.97936 2.71591 -1.53952
2.12536 0.901716 -0.202062
0.134233 3.1119 -2.08453
3.68878 7.97474 -6.75552
2.73978 1.01943 -0.678439
-1.06599 -0.250674 -1.04761
0.197447 3.36066 -2.33731
-0.449822 0.383839 -0.157736
-0.113925 0.716171 -0.0826232
1.18692 1.08204 0.0568001
4.11998 6.7843 -5.14488
0.301305 2.21133 -1.01523
-1.17615 0.229617 -0.780045
-0.0540215 6.19116 -6.39946
-1.22283 0.192356 -0.842344
-0.815043 2.73047 -2.38772
1.35928 3.31141 -1.70877
1.85089 1.44397 -0.151532
0.183965 1.91248 -0.792357
5.03546 8.0094 -6.56326
1.28842 2.34912 -0.78151
2.95167 1.41574 -0.687905
0.512089 3.11516 -1.86244
-0.787723 0.387728 -0.404561
-0.0913894 0.286562 0.0363569
1.55266 5.46297 -4.22994
2.35604 5.90046 -4.45349
2.09121 6.75577 -5.71344
5.25464 9.0843 -7.90129
4.18513 5.65349 -3.85577
-0.349542 2.15775 -1.36484
0.0977033 3.71295 -2.83767
2.00414 5.93182 -4.63743
4.96832 7.29693 -5.71198
-0.681213 1.46796 -0.963531
-0.487572 0.583883 -0.240532
4.01893 5.57483 -3.76649
1.95922 0.995018 -0.0957786
-1.17749 3.11998 -3.2343
-0.769717 0.321184 -0.378495
0.143779 4.25184 -3.49629
-0.259261 -0.137884 -0.186006
-0.229186 -0.343907 -0.504349
2.28446 5.15362 -3.53844
3.7599 2.62949 -1.36885
2.90013 1.10398 -0.798271
4.694 3.26961 -2.23089
-0.024531 3.28154 -2.39428
3.54191 3.66012 -1.89471
-0.210961 1.14122 -0.379455
-1.36917 0.821604 -1.17255
-1.03381 -0.297699 -1.12559
-1.32839 0.621158 -1.02994
0.760056 5.39347 -4.59971
-0.649353 5.6152 -6.13162
5.36163 9.43893 -8.35046
-0.882152 4.41013 -4.634
5.02743 4.07098 -2.78921
0.535824 5.75351 -5.26385
1.59912 0.685063 0.0254916
-0.207159 1.44602 -0.6076
3.84836 3.84573 -2.11454
0.666395 0.974658 0.0568704
-0.363616 4.74412 -4.5865
3.60438 2.05948 -1.16175
-0.24523 1.89124 -1.02726
1.40699 2.02729 -0.49435
1.76291 2.56245 -0.887037
-0.636274 5.36856 -5.75205
-1.53831 1.47262 -1.85306
-1.43016 1.20806 -1.50113
1.94299 2.92538 -1.18839
0.00996058 2.75414 -1.75725
-0.14273 3.24771 -2.43989
-0.46348 4.15216 -3.86507
-0.723492 2.37648 -1.90056
0.0208246 1.61674 -0.617848
0.430486 -0.0710905 -0.0270475
-0.887022 0.0471809 -0.509641
2.8038 4.45304 -2.61812
2.09982 2.67899 -0.960593
3.94855 6.59132 -4.93146
4.51244 2.55751 -2.02931
2.68764 3.80097 -1.95683
-0.131305 -0.179339 -0.184454
-0.359872 3.0155 -2.32912
1.1518 4.37182 -3.0289
2.42982 3.07233 -1.28861
3.74358 6.52792 -4.88232
3.00593 3.13677 -1.38462
1.06921 0.309796 0.0997006
-1.07603 4.0113 -4.29372
3.94432 2.56712 -1.4795
3.3708 2.06878 -0.981722
2.52697 1.60133 -0.414853
-0.551857 -0.0227479 -0.265896
1.26256 5.86982 -4.93817
2.96172 1.10467 -0.875501
0.410957 4.72672 -3.93344
-0.909946 1.28663 -1.01003
-1.43973 0.865762 -1.28486
-1.00696 -0.259195 -0.976699
