ply
format ascii 1.0
comment Created by Open3D
element vertex 250
property double x
property double y
property double z
end_header
0.762639 1.12625 1.44905
1.06609 0.016332 3.05781
0.598224 -1.03136 2.1022
-0.151325 -0.677433 0.556878
0.475465 -0.660443 1.29362
0.13665 -0.8906 0.602265
0.331601 -0.164078 0.815594
1.753 -1.07802 3.2805
0.591925 1.15425 0.57318
1.34728 0.631322 -1.11431
0.0387538 -0.288 0.411556
0.293064 0.904624 -0.0918902
2.33856 -1.19103 3.9934
0.194991 0.66755 0.561172
-0.245106 -1.16821 0.67265
0.706652 0.21424 2.39693
-0.0818922 -0.00326214 -0.892806
0.0810187 -0.301072 1.51274
0.0695033 0.485822 0.630766
0.0223312 -0.0723326 0.985533
0.545768 -0.0239825 2.30174
0.551369 0.55375 0.953321
1.36717 0.865384 -0.83092
0.499673 -0.0957077 -0.447969
0.00893754 -0.192915 1.31053
0.324993 0.760136 0.857763
1.34618 1.56365 -0.797343
0.538619 0.136162 0.19579
3.20029 -1.4792 4.81114
0.341754 -0.009564 -0.0948589
1.74317 2.24612 -0.049398
1.82012 0.98719 -0.956904
0.553501 0.930667 -0.401817
0.447989 -0.227487 -0.578582
0.461775 0.940268 0.849282
0.230216 0.544274 -0.429572
-0.248939 -0.464047 0.923145
2.6112 -0.522041 4.91338
2.28021 -1.31307 4.54714
0.509301 -0.529254 2.15617
3.61969 -0.914333 5.6737
0.990683 1.46283 -0.594739
0.264156 -0.284062 1.80045
0.819029 -0.464024 2.57243
-0.0991295 -0.0574704 -0.868031
2.56444 -0.776539 4.55134
0.0160032 -0.734058 1.14902
2.56398 -0.661451 4.71993
2.72965 -0.631139 5.03424
0.257953 0.849753 0.100303
0.380236 0.813052 -0.0542083
1.32181 -0.199641 3.42454
3.43234 -0.0532614 5.67268
1.90393 -1.18414 4.02338
0.816464 -0.700481 2.02462
1.85287 -1.1142 3.51505
0.422437 -0.24831 -0.3722
0.0791239 -0.364753 -0.353442
0.699829 1.26676 0.725804
-0.295036 -0.413974 0.26519
3.99807 -0.971205 5.66432
2.19301 -0.747561 4.42763
2.26584 -0.789234 4.34509
2.18983 -1.07316 3.87236
0.00187169 -0.0970463 1.04451
2.7636 -0.945237 4.97453
-0.135974 0.141048 0.61742
0.485094 0.437728 1.81452
0.749123 1.29672 -0.155878
3.29568 -0.187863 5.56698
2.16617 -0.665198 4.23582
0.174487 0.377222 0.21878
0.490408 -1.33587 2.24798
0.114297 0.674948 -0.320965
-0.164857 -0.887821 0.131887
-0.169103 -0.306821 -0.171593
1.90423 -0.21314 4.14715
3.56369 -0.265789 5.8009
0.897435 1.09261 -1.06534
0.626818 0.432269 2.10026
0.777548 0.39546 -0.899086
-0.0803724 -0.224885 0.726315
0.39384 1.00348 0.0645205
0.134273 0.193673 0.715588
-0.00325998 0.224158 0.572202
0.360075 0.29969 0.217349
0.541923 -0.676594 1.62218
0.499623 0.358125 1.93227
1.88747 1.89297 -0.272652
0.00526081 -1.04192 0.665312
0.961362 -1.33758 2.78316
2.43822 -0.751359 4.42758
-0.104478 -0.660735 0.713833
0.675644 1.14236 0.501679
0.695686 -0.922609 2.67532
0.318867 -0.666531 0.415254
-0.145599 -0.366012 0.353688
0.0551197 0.296982 0.311458
1.17565 1.0789 -0.994334
0.182514 0.0344325 1.62098
0.138054 0.658311 -0.474384
1.20185 -0.448271 3.28216
0.829911 -0.257294 2.60654
-0.0257554 0.419883 0.292408
0.492198 0.724676 1.44513
0.217214 -0.364831 1.32537
0.275311 0.10112 1.73815
0.986939 -0.871846 2.13328
1.27585 0.986441 -1.15759
1.39908 -1.44437 2.96034
0.0435687 -0.675834 1.49934
0.652372 -0.246101 2.491
0.463152 0.291326 1.88272
0.967988 -1.31813 2.86518
1.66041 0.0999868 3.77394
0.517604 1.12813 0.166806
2.40564 -1.09276 4.1415
0.846158 1.15942 -1.25138
0.959358 -1.02019 2.25969
2.1112 0.192375 4.28438
1.35781 0.0905908 3.42305
0.89503 1.12844 -0.565713
1.11985 -0.615253 2.86723
2.78669 -0.314009 5.09594
0.763456 0.970372 -0.593527
2.82973 -0.19423 5.13705
1.50974 1.88283 -0.462758
0.73981 1.33919 -0.33823
0.799397 0.725134 -1.28833
0.996589 -0.161468 3.02202
0.574818 1.13615 -0.186964
0.0516062 -0.0925234 1.41537
1.24942 1.83666 0.0943795
2.69145 -1.18477 4.51267
2.52884 -0.551815 4.79604
0.961789 1.57595 0.0872783
0.106286 -0.103331 1.09378
0.457363 0.383592 1.56096
1.41415 -0.0471715 3.54232
3.21307 -0.585648 5.48329
0.226293 0.527113 -0.374344
1.05121 -0.836695 2.68845
0.461427 0.264352 1.91851
2.91075 -1.21615 4.61119
0.204012 -0.811263 1.72532
1.06216 -0.832541 2.92903
-0.414321 -0.558013 0.228871
0.926972 0.0749839 2.70208
0.913309 0.541714 -0.614723
3.25145 -1.2489 5.11761
3.53164 -0.216415 5.81598
1.38222 -1.04672 3.0312
0.132146 -0.0354556 -0.97334
0.484983 0.396435 0.14656
1.59651 -0.307083 3.73475
-0.10219 -0.763122 -0.994842
-0.444059 -0.418997 -0.0284306
0.788851 -0.411577 1.42698
0.622429 1.11372 -0.151598
0.111766 -0.570812 1.84756
0.390032 0.180935 -1.36658
0.247043 0.636152 -0.099346
0.164935 0.774697 -0.40604
0.663268 -0.729349 2.46717
0.386163 0.547955 -0.821053
0.855965 1.14408 -0.41061
0.724368 -0.00951432 2.53713
1.91729 -0.722696 3.66617
0.364949 0.760662 -0.0420218
1.36392 -0.274412 3.48067
3.20732 -1.19365 5.28558
1.13495 -1.06921 3.24587
1.6269 -0.388395 3.8571
0.381676 0.824327 0.873716
0.0734398 -0.276928 1.17655
0.228488 0.547906 0.995814
0.0467421 -0.284619 1.53985
0.0338402 -0.614632 1.00148
0.667464 0.31383 2.28031
0.644567 1.22876 -0.621628
0.298741 -0.34981 1.50859
0.279453 -0.381481 1.90802
0.645317 -0.889332 2.40328
0.0723547 0.264933 0.471607
2.41823 -0.984394 4.67939
2.22492 -0.729432 4.31491
0.277838 0.748489 0.534322
0.541154 1.12 -0.707013
0.410575 0.822073 -0.979429
1.48507 -1.61057 3.13553
0.877467 1.32825 -1.01131
1.03013 1.63484 0.0781558
-0.0320274 0.474843 0.155593
2.73064 -1.57604 4.58575
2.08738 -1.51885 4.0083
0.482714 0.868031 -1.06516
0.826878 0.00129457 2.70849
0.125877 0.293276 -0.725367
0.354311 0.120214 -0.921832
0.111607 -0.35099 -0.410077
2.24589 2.55131 0.550998
1.14064 1.62265 1.06982
3.73567 3.0247 2.58288
4.24843 3.42823 1.35017
7.86923 5.69231 3.49945
6.45819 4.63211 2.29128
1.61095 2.04225 0.303944
3.48723 2.87834 1.19076
3.60327 3.0639 2.3501
1.82392 2.04203 1.47867
0.925782 1.47039 0.222206
2.817 2.79754 2.03632
1.58488 2.10726 0.575485
1.58443 2.02513 0.572542
3.45388 2.71954 2.237
3.3288 2.85928 1.98728
1.76162 2.21478 0.142157
5.16651 3.96994 2.88459
3.66613 3.34611 0.952982
4.45893 3.78418 2.16147
6.00211 4.18998 2.71732
1.6053 2.0485 0.581761
3.80216 3.36146 0.929804
3.04459 3.0273 0.6335
6.5921 4.51401 3.14688
7.36223 5.14878 3.03703
2.49818 2.75487 1.2042
4.30121 3.30067 2.93196
5.9343 4.26933 2.09702
0.872134 1.36313 0.933538
5.12397 3.89138 2.78444
1.3671 1.87628 1.30284
1.32956 1.79587 1.26083
6.88511 5.05871 2.75093
5.37856 4.09567 2.10792
4.85377 3.5507 2.95151
4.01309 3.47999 1.02672
2.65633 2.5033 0.0517621
3.33047 3.29059 0.718467
1.22856 1.69953 0.897762
2.89714 2.91727 1.31255
6.67292 4.67852 3.73359
5.45785 4.34541 1.75307
7.71419 5.32121 3.42115
2.41613 2.3367 1.55676
5.70704 4.34517 2.01358
0.972012 1.34037 0.898962
6.13619 4.27964 2.75422
6.61609 4.71167 2.6861
3.42653 3.25585 1.56848
