ply
format ascii 1.0
comment Created by Open3D
element vertex 400
property double x
property double y
property double z
end_header
-2.0222 1.31421 -0.429394
-2.60994 2.04931 0.531315
-2.81143 2.02374 0.105608
-2.43755 2.18923 -0.78347
-2.83486 2.22766 0.410762
-1.43562 0.273545 -0.0961752
-2.76445 2.14009 0.397439
-1.91734 1.20001 0.495473
-2.10167 1.54334 0.690481
-1.92866 0.785812 -0.266738
-1.44482 0.619291 0.304381
-2.23583 1.24104 -0.455621
-3.08091 2.95508 0.809909
-2.51285 1.83557 -0.0963324
-2.86953 2.24778 0.401766
-2.96045 2.26807 0.2256
-2.21513 2.27498 -0.618259
-1.91451 1.29903 -0.907731
-2.52527 2.01411 0.474493
-2.48552 2.70559 1.06641
-2.03656 1.2558 -0.492781
-1.3523 1.06204 0.752478
-2.40713 1.83372 0.116035
-1.61131 1.24464 0.722971
-2.06829 1.03565 0.252586
-2.56869 1.07575 -0.49012
-2.55437 2.25071 0.76598
-2.70353 1.68031 0.244241
-1.48445 1.49998 0.978166
-2.06366 1.55701 0.658692
-2.19132 1.24573 -0.148052
-2.94019 2.51843 -1.00345
-1.91104 1.07925 0.496514
-2.27402 1.76612 -0.472077
-1.75421 1.53707 -0.965716
-1.45174 0.756178 0.0667879
-2.19477 1.80075 0.797641
-2.14928 1.86351 0.751705
-1.78773 0.713209 0.298129
-1.50755 0.146253 -0.286967
-1.49164 1.09825 0.681062
-2.81363 1.88951 0.0933892
-2.7902 2.07308 0.310141
-2.07753 1.3758 -0.51366
-1.2801 0.948845 -0.750455
-1.67849 0.678636 0.135736
-2.31739 1.40395 0.0769285
-2.76826 2.1449 0.143605
-2.07399 0.81127 -0.41668
-1.30788 0.678224 0.497754
-2.25245 1.90747 0.808888
-2.25673 1.37342 0.0297355
-2.07697 1.22988 0.0705153
-2.22774 1.40521 -0.548707
-2.69049 2.28499 -0.332694
-2.9487 2.0474 -0.42121
-2.64774 2.14074 -0.529618
-1.01943 0.418883 0.143353
-2.20985 0.998971 -0.749859
-1.65413 0.816893 -0.0708073
-1.48466 0.909063 -0.571617
-2.8094 2.31071 -0.913454
-2.00189 0.998344 -0.117826
-2.16039 1.42797 -0.370143
-1.60265 0.677916 -0.141324
-2.65715 1.95366 -0.52784
-1.53796 0.935217 0.547237
-1.837 0.816986 -0.937704
-1.7403 1.05084 0.55585
-1.47485 1.27436 -0.512284
-2.2191 1.34432 0.0196278
-1.15163 0.411209 0.171239
-2.52236 1.80726 0.56704
-2.01568 2.23264 1.10185
-1.39886 0.555794 -0.161886
-2.83953 1.87155 -0.515073
-1.04192 0.591564 0.548024
-1.25844 0.768412 0.619392
-2.0536 1.23119 0.454016
-2.00972 1.83786 0.894193
-1.44009 0.467578 -0.0447421
-2.08083 1.51497 0.55113
-2.08276 1.37593 -0.656089
-1.48665 0.895524 0.393894
-1.02904 0.241137 0.0495473
-1.72542 1.00344 0.437134
-2.96731 2.36513 0.439191
-2.38927 2.29562 0.889038
-1.05002 0.901175 0.789165
-2.69761 1.79317 -0.03564
-1.72413 0.987048 0.236448
-2.89309 2.69635 0.816898
-2.35751 1.99667 0.811892
-1.57309 0.922102 -0.446228
-2.68955 2.24554 0.545269
-1.91198 1.99239 1.03995
-1.7683 1.23782 -0.57696
-2.99145 2.91821 -1.04664
-1.43038 0.832747 -0.0968429
-1.82765 0.490369 -0.430101
-1.15583 0.489672 0.0543419
-1.9669 1.09949 0.257616
-1.45684 1.15764 -0.414062
-1.2122 0.580443 0.431503
-1.429 0.748126 -0.680094
-1.4115 1.82193 -0.660141
-1.86285 1.18914 0.360417
-1.90677 1.68538 0.881633
-1.41312 1.41286 -0.985965
-2.28281 1.79271 0.738621
-2.18113 1.43396 0.547112
-1.21916 0.814594 -0.606096
-1.61798 0.464658 -0.037722
-2.61905 1.42783 -0.0284479
-1.99175 1.507 -0.984057
-1.05032 0.925896 -0.748374
-2.15311 2.04098 0.917138
-1.46151 0.438116 -0.128744
-1.83126 0.897625 0.282865
-2.44034 1.38973 -0.00416304
-2.59089 2.05511 0.645313
-2.94054 2.76491 -0.944994
-1.88033 1.04762 -0.463683
-1.78207 1.09843 -0.581584
-2.1647 0.851126 -0.380894
-1.75713 0.876392 0.312202
-2.13584 1.51193 0.658008
-1.25561 0.286819 0.0810687
-2.68643 2.39283 -0.805335
-1.81401 0.580813 -0.345177
-1.6269 1.10464 0.586117
-2.70036 1.72648 0.417397
-1.42111 1.28619 -0.41549
-1.00364 1.39525 -0.842228
-1.82548 1.16584 0.585793
-1.76177 1.11183 -0.755359
-1.15115 0.829326 0.709206
-1.29689 0.399974 0.225134
-2.15806 2.02053 -0.66175
-1.20517 0.962523 -0.600837
-1.19874 0.263291 -0.332269
-1.57968 1.08861 0.700864
-1.90828 1.54072 -0.88056
-1.4761 0.296828 0.0591183
-1.30792 0.805519 -0.884681
-2.50067 2.46603 0.93516
-2.74291 2.04911 -0.130834
-2.86606 2.74985 0.85667
-2.67987 2.43115 -0.987079
-1.50985 0.541314 0.000143839
-1.45897 0.94786 -0.26697
-2.32744 1.42122 -0.583996
-1.86937 1.46663 -0.54945
-1.40192 1.24956 0.869911
-1.939 1.74931 0.902632
-2.7632 2.5276 -0.769066
-2.654 1.84301 0.120116
-1.18703 0.288485 -0.500575
-1.40603 1.12748 0.795057
-2.28101 1.46423 0.28217
-2.38194 1.68331 -0.421401
-1.20155 1.55586 1.12449
-1.64108 0.842941 0.364261
-2.48045 1.13154 -0.233059
-1.97828 1.26791 -0.813076
-2.97282 2.52044 0.550724
-2.86341 1.46071 -0.329938
-0.945006 0.654794 0.626954
-1.69215 1.91166 -0.804896
-2.93756 2.77221 -0.674808
-2.66093 1.80649 -0.0517248
-1.65586 1.05979 -0.469099
-3.00579 1.77057 -0.300861
-1.59943 1.18539 0.750631
-2.93752 2.03842 -0.260328
-3.10995 2.03523 -0.172852
-0.927181 0.600309 -0.101011
-1.5029 0.402661 -0.0388292
-1.50599 0.724963 0.492663
-1.56453 0.682009 0.357919
-2.76592 2.53462 0.695015
-2.69178 1.81967 -0.0946392
-2.55716 2.01053 0.386533
-2.6304 2.05298 -0.061336
-1.61292 1.55027 -0.862757
-1.56041 0.891867 0.474197
-2.53435 1.67315 0.169778
-1.01733 0.945149 -0.474711
-1.83015 1.98988 -0.752113
-2.68766 2.23944 0.687462
-2.95432 2.24624 -0.513501
-2.80668 2.17715 0.495045
-1.2139 0.51879 0.44184
-1.30517 0.618123 0.282573
-2.15444 1.6247 -0.269537
-2.97127 2.79309 -1.12408
-2.32498 1.45365 0.545192
-2.82077 2.05707 0.273483
-2.41233 2.13863 0.805617
-1.21547 1.17437 -0.987997
-1.78088 1.15533 0.356902
-1.34897 0.219596 -0.216574
-1.63823 0.715143 -0.279077
-2.68968 2.43632 0.8128
-1.40605 0.883424 -0.787226
-1.16317 1.20653 0.930264
-2.1983 1.88933 -0.338927
-3.06605 2.49617 -0.926552
-2.01516 1.81234 -1.03126
-2.3418 1.52153 0.164478
-1.22157 0.129807 -0.0988734
-2.44165 1.31541 -0.0836769
-2.85449 2.94474 -0.623998
-2.81681 1.7662 0.105928
-1.30665 1.01838 0.734455
-2.0166 1.85294 -0.862954
-2.38139 1.34434 -0.024693
-1.69839 1.16054 0.588557
-1.45718 0.423562 -0.0849683
-3.04225 2.19176 0.123364
-1.80125 1.51691 0.823516
-1.10866 0.587572 0.533422
-2.43873 1.82233 -0.565537
-2.60591 2.12157 0.626675
-2.16277 1.23536 -0.996535
-2.1163 2.17014 -0.967108
-1.99577 1.53649 0.729721
-2.57305 1.88217 -0.916022
-1.65978 1.01221 -0.430754
-2.10417 1.89821 -0.69334
-1.32475 0.773273 0.586153
-2.61125 2.16371 -1.04754
-2.16186 1.66146 0.719671
-2.95352 2.26897 0.360711
-0.915833 0.385507 0.198007
-2.04797 1.3823 -0.0656988
-1.29475 0.990776 0.717786
-1.62158 1.30691 -0.542786
-2.20052 1.52497 -0.671669
-1.47128 1.08537 -1.06669
-2.78765 2.59909 -1.07063
-1.63011 1.47846 -0.779607
-2.20868 1.38935 -0.277902
-1.73906 1.40361 -0.776178
-2.23059 1.31953 0.427209
-1.83418 1.85269 -0.900414
-1.6248 0.669162 -0.115928
-2.66231 1.62052 -0.785094
-2.11075 0.713173 -0.102467
-1.51354 0.593514 0.376384
-2.90445 2.08601 -0.555118
-2.26278 2.2486 -0.926704
-1.71474 0.808562 0.175642
-2.07455 1.88363 -0.844812
-2.5397 2.6481 -0.933283
-1.67612 0.972603 0.085283
-1.97488 1.0286 0.128227
-2.51074 2.07042 -0.630399
-2.77135 2.50564 0.666219
-1.8432 1.04141 -0.375596
-2.36352 1.70774 -0.110776
-1.74261 0.819559 0.375409
-2.59213 2.01232 0.652827
-1.72698 0.615217 -0.260133
-2.46242 1.4829 0.352993
-1.35362 1.50215 -0.912383
-2.55413 2.00557 -0.0870498
-1.1356 0.901014 -0.482736
-1.39208 1.27675 0.824821
-2.01855 1.15612 -0.838635
-1.7409 0.714776 0.118726
-1.32647 1.09257 -0.678439
-2.42243 2.64709 -0.853238
-1.12812 1.09912 -1.05114
-2.68292 1.60494 -0.0790298
-2.35305 1.92957 -0.114097
-0.995361 0.301239 -0.205911
-1.93647 0.967558 -0.398992
-1.61571 0.529248 0.120598
-1.61758 0.897047 -0.410723
-1.798 0.923023 0.454903
-1.15778 1.14545 0.903497
-2.63184 1.75089 0.365224
-1.07945 0.250469 0.0663592
-2.29969 1.44021 -0.489572
-1.92124 0.858359 -0.0458011
-1.95688 2.01766 -0.579312
-1.64581 0.632126 -0.299074
-1.6767 0.943989 -0.198121
-2.79686 2.5848 0.803323
-2.0236 1.14798 0.280831
-2.00212 1.46077 0.568569
-2.55035 1.46089 -0.248126
-2.90615 1.86336 -0.0798789
-2.29985 2.01061 0.697791
-1.01055 0.626848 0.550538
-2.08714 2.09216 1.00031
-2.52761 2.03722 -0.924075
-2.27094 1.30023 -0.603674
-1.27954 0.420899 -0.435631
-2.76905 2.13176 0.557839
-2.69882 1.70903 0.164684
-1.1009 0.542731 -0.170589
-1.72846 1.21279 -0.415864
-1.06617 0.750457 -0.628243
-2.17555 1.15016 -0.449007
-1.65477 0.787389 -0.376961
-2.8218 2.56957 0.790847
-1.55723 0.557207 -0.0812827
-1.80739 0.996646 -0.218144
-1.08876 0.961017 -0.571753
-2.71045 1.95194 0.230706
-1.44486 0.433159 -0.138211
-1.39516 0.578202 0.454792
-1.5527 0.991924 0.566084
-2.23232 1.5608 -0.0732833
-1.78057 1.41605 0.800097
-2.55818 1.95884 -0.991666
-1.29331 1.24164 -0.921061
-2.35115 1.77341 -0.733954
-2.54574 1.53718 -0.367837
-2.45015 2.00971 -0.89109
-1.69225 0.876239 0.426669
-2.95391 3.14483 -0.89149
-2.08806 1.71194 0.783194
-2.34713 1.57149 0.0483592
-2.35847 2.21884 0.827627
-1.22563 1.26867 0.95228
-1.9602 1.49985 -0.648662
-2.3183 1.72167 0.517274
-2.61264 2.12208 -0.445529
-1.32545 0.510846 0.137776
-2.99268 2.74634 -0.732041
-1.66308 1.46714 -0.983041
-1.39018 0.896471 0.661831
-1.17855 0.628539 -0.248671
-1.27433 1.10805 -0.846318
-1.35231 0.623037 -0.574793
-1.12132 0.336857 -0.197313
-2.66379 1.74391 0.2158
-2.61729 1.31428 -0.732618
-2.25458 2.02145 0.871795
-2.73112 2.47777 -0.177638
-1.64483 0.544755 0.157205
-2.06684 0.786789 0.117099
-2.64364 1.47708 -0.018926
-2.25194 1.41439 0.226204
-2.69069 2.44613 0.656592
-2.38072 1.28686 -0.499932
-2.91418 3.15327 1.00573
-1.19299 1.36598 1.02348
-2.1177 1.67058 0.724642
-0.914493 0.609977 0.235207
-2.97846 2.05449 -0.243382
-2.40433 1.28048 -0.262956
-1.34066 1.20844 -0.749716
-1.8398 0.902984 0.442304
-1.41956 0.627023 0.438523
-1.33013 0.802574 0.575844
-1.89586 1.28682 0.566727
-1.90672 1.61938 0.850417
-1.21567 0.172171 0.0718206
-2.49632 2.00266 -0.428432
-1.51713 1.31087 -0.769667
-1.15952 0.281196 0.264056
-2.28233 2.47427 -0.813338
-1.46053 1.02643 -0.687301
-2.23271 1.54929 0.0934525
-2.545 2.23747 -0.419084
-2.90955 2.60072 0.677573
-1.2555 0.575947 0.456167
-1.25366 0.780761 -0.124959
-2.39877 2.04639 -0.741401
-1.46008 0.876862 -0.324718
-1.61068 0.607823 0.345193
-1.79647 1.12301 -0.665299
-2.33771 1.20647 -0.160052
-2.59089 1.83219 0.549798
-3.01505 2.08015 -0.401796
-2.09773 1.31807 0.181219
-1.18324 1.42596 1.04969
-1.97735 1.15753 0.0895819
-1.28477 0.822415 -0.227795
-2.83884 2.90753 -0.88752
-2.77985 2.39897 0.223263
-2.85621 2.06479 0.243878
-2.68284 2.01031 -0.145911
-2.29925 1.37835 -0.352201
-1.30539 0.65163 0.52073
-3.03598 2.09208 0.0661068
-2.0284 1.73401 -0.767821
-2.73969 2.14125 -0.565864
-2.70606 1.82638 -0.162207
-3.00407 2.28432 0.486389
-2.32089 1.4433 0.279967
-1.9889 1.54789 0.738367
-2.11195 1.85744 -0.916658
-2.14224 1.3277 0.109148
-2.01483 1.01305 -0.269156
-2.43942 1.17914 -0.556619
