ply
format ascii 1.0
comment Created by Open3D
element vertex 400
property double x
property double y
property double z
end_header
-1.23713 0.904587 1.21789
-2.79171 -0.301741 2.20993
-1.49844 0.320516 0.745396
-1.44451 -0.838229 1.56801
-1.78697 0.96483 1.72939
-1.71571 0.652656 1.13115
-1.22577 -0.647661 0.732229
-1.85526 0.393493 1.07627
-3.15729 -0.526179 1.89977
-3.03249 -0.921221 2.93576
-1.31592 0.526602 0.650762
-1.794 -0.183021 0.795199
-2.03284 -0.719548 1.77355
-2.69078 -0.331024 1.83624
-2.40063 -0.408772 1.39996
-1.01845 0.877124 1.03143
-1.2677 0.629163 0.813083
-2.69803 -1.07803 2.34692
-1.01787 -0.121987 0.266453
-2.11438 -0.968036 1.93682
-1.97972 0.211617 1.04361
-2.1957 0.06223 1.17816
-2.41144 -0.424692 1.48887
-1.73999 -0.219483 0.657027
-1.19808 -0.220014 0.209846
-2.17165 0.26162 1.06524
-1.60684 -1.02412 1.42144
-2.83331 0.391396 2.01068
-1.80735 -0.477932 1.37921
-2.67443 0.625851 2.15679
-1.61103 0.814036 1.30869
-2.15142 -0.41214 1.40403
-1.2801 -0.664454 1.07708
-2.50684 -0.368642 1.77153
-1.47738 -0.584989 0.983051
-1.68911 -0.415949 0.817541
-3.08529 -0.191693 2.15105
-2.47338 0.734149 2.1659
-1.18701 0.376263 0.597863
-1.39443 -0.726626 0.739284
-1.9811 -0.620534 1.38659
-2.09679 0.949947 2.04203
-2.47247 -0.658602 2.26924
-2.14425 -0.112108 1.41896
-2.55442 -0.136293 1.99377
-1.08191 -0.598471 0.650499
-2.31275 0.688107 1.87225
-1.74211 -0.251751 1.26615
-2.87027 0.755172 2.61069
-1.75477 -0.19724 1.12357
-2.84546 -1.0165 2.87616
-1.33677 -0.55946 0.80581
-2.20336 -0.940044 1.7649
-3.00699 -0.757877 2.74749
-2.42934 -0.823837 2.47982
-1.94143 0.447588 1.35359
-1.6873 0.876039 1.5067
-1.69134 0.831578 1.40857
-1.43122 -0.135625 0.578585
-1.54215 -0.492611 0.565359
-2.39948 -1.0661 2.29044
-1.99488 0.886675 1.81826
-1.38924 -0.463732 1.06441
-1.33449 1.0194 1.46204
-2.27931 0.8071 1.94322
-2.46249 -0.79974 2.22042
-2.63562 0.679459 2.15343
-1.8922 0.142104 0.697454
-2.16191 -0.443273 1.66919
-2.38629 0.687759 1.982
-2.63172 0.347204 1.59305
-1.2762 -0.701046 0.564564
-1.71263 0.336714 0.686514
-3.01409 -1.05709 2.83671
-2.61594 -0.391603 1.87311
-1.78657 0.837872 1.51124
-1.21323 0.517043 0.663623
-0.936006 0.689544 0.716424
-2.42206 0.114768 1.43603
-2.29967 0.745581 1.88854
-2.7673 0.223352 1.72589
-2.79398 0.633267 2.34301
-2.53547 0.317839 2.00841
-2.39749 0.214772 1.26256
-2.70693 -0.324092 2.14714
-1.25368 -0.0613519 0.451668
-1.62023 0.36919 0.78107
-2.51335 0.0896249 1.68623
-1.47252 0.187233 0.511643
-1.66003 0.731437 1.20759
-2.74248 0.360223 2.35498
-2.3368 -0.289 1.36996
-1.37768 -0.661885 1.04441
-2.50589 -0.693445 1.60319
-2.77231 0.2539 1.80913
-1.413 0.289645 0.573805
-2.7388 -0.28623 1.64875
-1.41407 0.712127 0.993497
-2.41413 0.914987 2.27814
-2.49713 -0.0402344 1.77188
-2.35063 0.484966 1.9825
-2.65835 0.00174531 1.50633
-1.72872 -0.785542 1.32285
-1.65178 0.454931 0.815501
-1.38034 0.182038 0.259838
-2.30533 0.390533 1.61217
-2.74329 -0.382183 1.81967
-2.10815 0.659747 1.53927
-2.09559 0.630555 1.63056
-1.78456 -0.802157 1.43417
-1.34351 -0.21939 0.27986
-2.53476 -0.297521 1.85482
-2.24647 -0.731519 2.30802
-1.40936 -0.477121 1.27815
-2.35204 0.640684 1.76417
-1.67026 0.757624 1.29303
-2.49246 -0.546548 1.45586
-2.3455 -0.86584 1.95739
-1.24931 -0.83387 1.55362
-2.19931 0.950266 2.11573
-1.44577 -0.400321 0.800569
-0.961607 0.813033 0.888073
-2.21971 -0.639661 1.36238
-2.9968 0.825239 2.90563
-3.04652 0.308075 2.20494
-1.07881 -0.850679 1.00402
-1.71384 -0.246737 1.03204
-1.25089 0.8212 1.07881
-2.8508 0.300207 2.27421
-0.84373 1.02474 1.15883
-2.93011 0.412289 2.36917
-2.92138 0.547159 2.30057
-1.525 0.506162 0.913042
-1.22249 -0.439929 0.662121
-1.19368 0.395136 0.577416
-1.80703 -0.0143251 1.00651
-1.52055 -0.144605 0.372435
-2.46752 -0.381384 1.69344
-1.20927 -0.0165473 0.216953
-2.45354 -1.02269 2.25785
-1.80277 -0.949063 1.8886
-0.900771 0.313539 0.428999
-0.990323 -0.629443 0.756937
-2.3137 0.711943 1.84989
-2.79458 -0.191073 1.90051
-2.01052 -0.913604 2.0919
-2.47503 -0.655834 2.09623
-1.68351 -1.17615 1.1172
-2.55889 -0.197138 1.82919
-2.54195 0.621272 1.87459
-0.956756 1.03291 1.26968
-1.0936 0.279973 0.491663
-1.05629 -0.0692331 0.272767
-2.03724 0.432773 1.20561
-1.43393 -0.591043 0.735637
-2.53856 -0.76098 2.97467
-1.42829 -0.896607 1.47139
-1.0233 0.600836 0.618006
-1.44332 -1.01813 1.27655
-0.948428 0.500892 0.569652
-1.3702 0.0655843 0.494794
-1.77092 -0.853408 1.47252
-1.50408 -1.0453 1.27565
-2.08909 0.954356 2.10144
-2.10966 -0.298011 0.861079
-1.57916 0.797865 1.25252
-1.3839 -0.923839 1.04633
-2.96649 0.848606 2.93541
-1.22662 0.678056 1.09079
-1.68845 -0.874862 1.50895
-1.27108 0.320415 0.456395
-1.45525 0.938444 1.40849
-1.46606 -0.180565 0.529655
-1.27314 0.259082 0.530402
-2.06571 0.636609 1.50017
-1.93281 0.362065 0.962005
-2.21343 0.304834 1.24658
-2.64912 0.168264 1.89553
-1.50901 -0.165349 0.761981
-2.22475 -0.539691 1.30764
-2.0349 0.104025 0.835085
-1.8517 -0.386077 1.25716
-1.62667 -0.295601 1.0459
-2.55312 -0.0983561 1.52759
-2.26037 0.539258 1.58561
-2.51223 -0.181784 1.66163
-2.78934 -0.662186 2.96794
-2.76807 -1.06178 2.55459
-1.08834 -0.0892094 0.386371
-2.62341 -0.896733 2.80466
-1.19936 0.750493 1.01058
-1.16824 0.0235741 0.208874
-0.972834 -0.607544 0.819276
-2.33149 0.73035 1.88549
-2.60439 0.608951 2.12006
-2.42592 0.493661 1.76933
-1.97971 0.946565 1.88158
-1.82106 0.233056 1.08674
-2.67885 -0.821769 2.21167
-1.10528 -0.0563556 0.277034
-1.13118 0.243197 0.438687
-2.29431 0.183465 1.23772
-2.35116 0.646916 1.94532
-1.98029 -0.625291 1.3315
-2.5201 0.379366 1.57663
-2.27974 0.96565 2.22726
-2.60056 0.829791 2.47012
-1.8162 -0.624337 1.09998
-1.43596 0.155336 0.858436
-2.06394 0.724553 1.52811
-1.58445 -0.774933 1.12315
-2.76109 0.631304 2.27612
-2.6538 -0.470607 1.75965
-2.29869 -0.881081 2.33369
-0.999791 -0.273571 0.717899
-1.50765 1.09153 1.72295
-2.20333 -0.624326 1.49374
-2.8809 0.878726 2.87049
-3.04768 -0.154449 2.01478
-1.23311 0.226637 0.480877
-2.60714 0.384752 2.07999
-2.18798 0.0329171 1.47592
-1.51755 -0.990335 1.53929
-2.33897 0.356625 1.23955
-2.36134 -0.450957 1.17005
-1.79231 -0.279418 0.692122
-1.67798 0.934984 1.5787
-1.80149 1.01692 1.84414
-2.24895 -0.375254 1.6683
-1.87127 -0.569448 1.0384
-2.26936 0.373554 1.4497
-2.27162 0.363471 1.35441
-1.62652 -0.970718 1.52824
-1.42967 0.935981 1.38271
-2.09791 0.49553 1.4607
-1.90943 1.22099 2.36438
-2.62764 0.997424 2.81444
-1.2537 0.327312 0.478882
-1.49192 -0.568316 0.692684
-1.60378 -0.178873 0.889907
-2.03068 0.333842 1.30176
-2.69938 -0.685729 1.74427
-3.10941 0.634438 2.69001
-1.84236 0.54074 1.16055
-2.93018 -0.238726 2.14907
-2.01858 0.31448 1.11023
-1.79263 -0.0708257 0.827814
-1.88604 -0.330447 1.61906
-1.13731 0.671173 0.778013
-2.31708 0.459613 1.67167
-1.02093 0.286752 0.406532
-2.6855 0.951381 2.70555
-1.2756 -0.107127 1.10019
-2.35931 -0.321621 1.06769
-2.80026 0.479833 2.05324
-1.75965 -0.833298 1.25535
-2.3351 0.86023 2.12063
-1.91802 -0.933904 1.90235
-2.67871 -1.01871 2.30099
-1.66165 0.177078 0.574738
-1.28212 0.837394 1.11466
-2.89077 -0.051015 1.64376
-1.05077 0.821042 0.947532
-1.98149 -0.429253 0.819497
-2.73779 -0.781898 1.96361
-2.70335 0.677481 2.38906
-2.03694 0.528083 1.29825
-2.84136 0.312117 2.12223
-2.30464 0.485427 1.5281
-2.19436 0.972364 2.15791
-1.1417 -0.667174 0.898376
-1.23224 0.159704 0.679934
-2.14291 -0.331523 1.13169
-2.94228 0.622721 2.55783
-2.02114 -1.0139 1.57281
-2.79332 0.882047 2.76854
-1.0494 -0.194426 0.229284
-2.67885 0.945056 2.70919
-2.81698 -0.678329 2.21297
-1.14993 -0.237925 0.824025
-2.06931 0.235148 1.40855
-1.55202 0.690238 1.06363
-2.7083 0.530763 1.96686
-2.0064 0.323335 1.0064
-2.7675 -0.427713 1.95119
-1.14166 0.542703 0.616403
-1.0124 0.4141 0.65106
-1.19728 0.0856937 0.659304
-2.68992 0.371229 1.79739
-3.07895 -0.604545 2.23417
-2.83829 0.617377 2.36789
-2.88147 -0.431932 2.54104
-1.99417 0.835952 1.69066
-1.90733 -0.0779158 0.770464
-2.85586 -0.232375 2.17022
-1.44929 0.804381 1.17014
-2.53975 -0.299958 1.8241
-3.0747 0.272525 2.16417
-1.54172 -0.730997 0.513743
-0.957772 0.753998 0.810078
-2.52473 -0.175245 1.76909
-1.25173 0.364157 0.751417
-2.39657 -0.806543 1.70512
-1.02931 0.363927 0.410717
-2.54243 -0.608236 1.81903
-2.18524 -0.0856238 1.12584
-1.08139 0.777424 0.899614
-1.54597 -0.0798681 0.460342
-2.21461 -0.581047 1.45801
-1.46742 0.374779 0.608879
-2.60496 -1.01153 1.83987
-1.82773 1.12952 2.09433
-2.00275 0.468184 1.31767
-1.22661 -0.605309 0.507751
-1.75252 0.628311 1.18273
-1.84725 0.284565 0.887575
-2.50083 0.980472 2.53015
-1.99988 -0.993399 1.40829
-1.80797 -0.844625 1.83669
-2.97219 0.781458 2.70091
-1.16213 1.06698 1.44019
-1.43079 0.499539 0.665169
-2.56218 -0.602321 1.74338
-1.16351 -0.433767 0.388163
-1.43158 -0.415469 0.741831
-1.78189 0.37984 1.05441
-2.63993 -0.566099 2.28004
-3.02299 -0.443838 2.35386
-2.44325 -0.945237 2.44512
-1.89411 -0.0143011 0.700299
-1.8954 0.49701 1.16556
-2.85068 0.660362 2.50673
-2.01309 -0.929284 1.39245
-2.80146 0.580686 2.27672
-1.40219 -0.715359 1.44223
-2.69163 0.5094 2.26664
-2.02411 0.0612779 1.1611
-2.52661 -0.0605925 1.79153
-2.30288 0.0991471 1.81961
-3.03129 -1.06006 3.00099
-1.71339 -0.673691 0.990819
-1.48425 -0.85656 0.71377
-1.64464 0.409145 0.686515
-1.91445 0.679433 1.32074
-1.74191 0.496795 0.953435
-1.68022 -0.571302 0.859548
-2.06866 -0.650965 1.14848
-2.32415 0.248738 1.32368
-2.57246 -0.223065 1.21943
-1.89586 0.586126 1.36607
-2.09788 0.271667 1.27607
-2.79112 -0.786346 2.55562
-2.18324 0.412271 1.28726
-1.02758 0.410137 0.512337
-2.03457 0.709598 1.53976
-1.319 0.256474 0.437334
-1.28498 -0.804546 1.34124
-1.43578 1.01905 1.53583
-2.4145 -0.802265 1.72664
-1.13344 -0.0392343 0.615706
-1.38206 -0.462934 0.569026
-1.18853 -0.400735 1.10517
-1.77318 0.355371 1.002
-1.94339 -0.824965 1.84463
-1.30053 -0.728669 1.50076
-1.60977 0.153825 0.750395
-2.10902 -1.04038 1.58926
-1.5145 0.831152 1.26243
-1.88619 -0.693125 1.7058
-2.16798 0.248283 1.54928
-1.08275 -0.259165 0.231985
-1.31749 0.835193 1.13239
-2.34414 0.360103 1.69662
-2.01191 0.9258 1.86734
-0.96707 0.99933 1.21069
-3.08444 -0.478964 2.19433
-2.171 0.176671 1.49055
-2.15772 0.872002 1.95646
-2.00845 -0.578064 0.964796
-1.58275 0.670833 1.0676
-2.70989 -0.527503 1.43178
-1.48763 0.54872 0.81034
-0.986614 0.408366 0.569956
-2.69091 -0.103532 2.25825
-1.99894 0.250312 0.956382
-2.43301 -0.990535 1.75062
-2.44991 -0.113421 1.87389
-1.18401 0.65762 0.79874
-2.29602 -0.602032 1.88529
-1.48889 0.357915 0.702975
-1.84852 0.79553 1.47524
-2.62341 -0.660605 2.29299
-1.7944 -0.619626 1.24028
-2.8992 -0.0826484 1.96219
-1.12247 0.354898 0.370478
-1.85716 -0.599011 0.949019
-1.5028 0.621074 1.08442
-2.69019 0.117552 1.55548
-2.44062 -0.683444 2.24517
-1.54744 -0.613446 1.50481
