ply
format ascii 1.0
comment Created by Open3D
element vertex 400
property double x
property double y
property double z
end_header
2.03477 -0.515901 -1.30164
2.03781 -0.416784 -2.62144
2.37107 -0.563817 -2.4641
2.90766 -0.18536 -1.71912
2.29286 -0.441983 -2.76966
0.674774 -0.761578 -1.03439
2.24567 -0.45955 -2.65887
1.26818 -0.521749 -1.84917
1.22525 -0.368347 -2.41976
1.39177 -0.770728 -1.3227
0.824099 -0.585501 -1.24001
1.93489 -0.672921 -1.54198
2.28883 -0.0510099 -3.74716
2.40687 -0.518838 -1.94155
2.30329 -0.446619 -2.81402
2.47654 -0.494876 -2.75198
3.00011 -0.0348097 -1.49
2.04055 -0.384722 -1.17299
2.15904 -0.416001 -2.38034
2.01408 0.113738 -3.17703
1.98099 -0.548772 -1.31137
0.880261 -0.255031 -1.53408
2.32887 -0.475953 -1.91198
1.15096 -0.3161 -1.70499
1.25801 -0.702202 -1.84593
1.69218 -0.940024 -1.95226
1.93116 -0.231764 -2.87392
1.81325 -0.67355 -2.57059
0.888951 -0.0104751 -2.09548
1.46854 -0.388334 -2.15213
1.83979 -0.672658 -1.59726
3.1802 -0.235467 -2.27842
0.981564 -0.548731 -2.00873
2.48835 -0.391764 -1.55179
2.25353 -0.135345 -1.03775
1.27572 -0.544973 -0.932202
1.24866 -0.233704 -2.74686
1.78262 -0.27674 -2.23017
0.768332 -0.693966 -1.73261
0.602567 -0.858912 -1.05123
1.05222 -0.336124 -1.53767
2.20793 -0.634622 -2.49521
2.24141 -0.514133 -2.62187
2.10813 -0.500626 -1.3452
1.63204 -0.231055 -0.596904
1.03341 -0.695076 -1.32372
1.8527 -0.657168 -1.86864
2.51572 -0.479777 -2.39744
1.45689 -0.824847 -1.42837
0.648347 -0.446993 -1.33775
1.45242 -0.230457 -2.7075
1.87375 -0.643939 -1.7564
1.72923 -0.629482 -1.57762
2.13062 -0.563695 -1.50233
2.92027 -0.334606 -2.05521
2.63377 -0.597978 -2.36233
2.82241 -0.371524 -1.96607
0.792807 -0.467115 -0.645503
1.73001 -0.758039 -1.47881
1.39221 -0.617887 -1.07881
1.61946 -0.411473 -0.774258
2.99803 -0.30218 -2.12208
1.57007 -0.70637 -1.43016
2.12964 -0.535792 -1.45872
1.25312 -0.657018 -1.02745
2.63276 -0.486308 -1.97805
0.950912 -0.45078 -1.52227
1.54401 -0.613034 -1.10998
0.966863 -0.478869 -1.82428
2.00685 -0.207288 -0.74236
1.858 -0.640444 -1.70542
0.727321 -0.539811 -0.835519
1.58406 -0.462027 -2.74556
1.63531 0.0829765 -2.61301
1.12547 -0.604305 -0.829183
2.50757 -0.632986 -2.20351
0.500234 -0.335675 -1.13325
0.521132 -0.333322 -1.50572
1.27531 -0.570365 -2.00948
1.44103 -0.157801 -2.40655
0.934529 -0.67531 -0.973141
1.61054 -0.44922 -1.98526
2.12139 -0.48236 -1.3373
1.18941 -0.485161 -1.19276
0.56811 -0.549382 -0.70207
1.16415 -0.536914 -1.56471
2.32439 -0.418217 -3.00805
1.94212 -0.121624 -2.74277
0.365928 -0.0927207 -1.58527
2.25116 -0.634822 -2.23962
1.39656 -0.571705 -1.31462
2.06215 -0.101524 -3.52729
1.37392 -0.199567 -2.98026
1.62844 -0.476166 -0.866747
2.25481 -0.355898 -2.68028
1.28974 0.0391642 -2.61463
1.97915 -0.391633 -1.02697
3.53675 -0.0134154 -2.37291
1.45418 -0.484255 -0.808955
1.10292 -0.858197 -1.2151
0.948381 -0.51085 -0.697119
1.42498 -0.631299 -1.64141
1.88154 -0.279876 -0.732938
0.649624 -0.460893 -1.14302
1.44064 -0.450195 -0.736491
2.53514 0.180632 -0.698294
1.50762 -0.533769 -1.54437
1.16501 -0.154684 -2.42714
2.08288 0.00644394 -0.743096
1.33751 -0.30337 -2.73801
1.31942 -0.503756 -2.29567
1.49069 -0.297047 -0.543056
0.881198 -0.770199 -1.20144
1.82053 -0.788201 -2.22635
2.24248 -0.293575 -1.25627
1.56754 -0.100177 -0.408679
1.63334 -0.124132 -2.56075
0.940585 -0.699324 -0.959045
1.13777 -0.653715 -1.59112
1.84006 -0.723992 -1.99001
1.79597 -0.36169 -2.85003
3.40522 -0.0961178 -2.30023
1.76106 -0.58135 -1.16689
1.83254 -0.478813 -1.04796
1.47425 -0.85532 -1.54158
1.10555 -0.625091 -1.52797
1.19192 -0.400729 -2.45585
0.571038 -0.650378 -0.971392
3.08308 -0.201289 -1.99618
1.1858 -0.80996 -1.20902
1.16421 -0.420953 -1.56733
1.54651 -0.598437 -2.88033
2.01695 -0.18506 -0.690351
2.0163 0.223214 -0.382587
1.0569 -0.460477 -1.93442
1.84961 -0.430142 -1.02399
0.381184 -0.201466 -1.5993
0.580602 -0.607854 -1.11626
2.75839 -0.146059 -1.4202
1.64872 -0.20555 -0.518967
0.801623 -0.621586 -0.660407
0.666217 -0.305416 -2.00207
2.2796 -0.243514 -1.1694
0.536919 -0.759201 -1.23601
1.47086 -0.303951 -0.642583
1.92728 -0.0500177 -3.03942
2.58394 -0.513749 -2.20808
2.10298 -0.0580988 -3.51293
3.1163 -0.142585 -1.99472
0.997335 -0.678027 -1.05383
1.63318 -0.419884 -0.773646
2.14223 -0.605595 -1.60643
2.21432 -0.323071 -1.12168
0.801525 -0.129791 -1.84996
1.10161 -0.108825 -2.5867
3.20108 -0.169469 -2.08972
2.21787 -0.586637 -2.27914
0.871171 -0.581856 -0.604349
0.72006 -0.200729 -1.81345
1.76038 -0.59873 -1.98486
2.37917 -0.505791 -1.68608
0.842454 0.18772 -1.91496
1.04016 -0.577889 -1.44386
1.65266 -0.876629 -1.95933
2.01585 -0.458098 -1.23034
2.36669 -0.322176 -3.12657
1.9664 -0.887773 -2.35772
0.541907 -0.25018 -1.05789
2.62777 0.0929311 -0.976036
3.40242 -0.133992 -2.30735
2.29373 -0.609876 -2.17369
1.78245 -0.44403 -0.933202
2.25443 -0.78936 -2.52193
0.680717 -0.248871 -2.1041
2.56256 -0.60919 -2.41338
2.43494 -0.696889 -2.71024
1.17033 -0.312455 -0.357165
0.816953 -0.738367 -1.08861
0.520728 -0.492485 -1.71022
0.770452 -0.599838 -1.47609
2.36612 -0.213847 -2.93442
2.32217 -0.616558 -2.18928
2.2413 -0.442516 -2.32639
2.59547 -0.459345 -2.08791
2.2657 -0.0622621 -0.897492
0.999962 -0.499213 -1.45232
2.01744 -0.617151 -2.19006
1.6113 -0.122471 -0.35118
2.71844 0.0458282 -1.10159
1.90467 -0.299279 -3.02243
2.86416 -0.476615 -2.3364
2.0957 -0.433949 -2.88813
0.433447 -0.462286 -1.29924
0.921199 -0.524482 -1.00209
2.31966 -0.43269 -1.45948
3.42267 -0.0642728 -2.34169
1.05703 -0.507713 -2.7216
2.23919 -0.538474 -2.63865
1.79565 -0.215334 -2.75531
1.81063 -0.00894109 -0.57921
1.50479 -0.512463 -1.43142
0.687038 -0.737837 -0.881532
1.34965 -0.646805 -1.00372
1.90265 -0.15838 -3.22335
1.5779 -0.339587 -0.711567
0.925021 -0.0658975 -1.44468
2.60445 -0.296352 -1.48318
3.14479 -0.332241 -2.41743
2.52889 -0.11574 -1.29861
1.92501 -0.606625 -1.93832
0.477702 -0.706992 -0.873678
1.80195 -0.763431 -1.95511
3.57106 0.00796179 -2.22817
2.02692 -0.696872 -2.55609
0.88795 -0.263223 -1.43708
2.5865 -0.125807 -1.28304
1.82283 -0.719357 -1.9029
1.20814 -0.427599 -1.65079
0.893043 -0.704816 -0.987697
2.42307 -0.575491 -2.81094
1.21073 -0.23357 -2.10743
0.455722 -0.364774 -1.24051
2.53838 -0.437788 -1.72268
1.96962 -0.354377 -2.75786
1.98356 -0.553823 -1.41457
2.87588 0.0262308 -1.41056
1.27534 -0.330873 -2.25692
2.60902 -0.42391 -1.8462
1.72609 -0.478653 -0.945904
2.6409 -0.181896 -1.36148
0.601407 -0.381913 -1.49661
2.86946 -0.253674 -1.9055
1.33065 -0.336334 -2.49267
2.31465 -0.473971 -2.90784
0.704393 -0.422005 -0.596947
2.00276 -0.529215 -1.42751
0.881133 -0.274614 -1.4044
2.04721 -0.270823 -0.881279
2.26889 -0.460992 -1.4566
1.7562 -0.205823 -0.800446
3.26016 -0.0871728 -2.12658
2.20769 -0.132012 -0.900878
2.05397 -0.593538 -1.54406
2.14256 -0.242627 -1.00011
1.31353 -0.605531 -2.23659
2.57075 -0.00890637 -1.11612
1.22539 -0.674872 -1.06857
2.3362 -0.649225 -1.94663
1.13416 -0.903247 -1.68976
0.53571 -0.589488 -1.57134
2.72355 -0.538879 -2.26691
2.9576 -0.0213467 -1.55378
1.18469 -0.652225 -1.33861
2.61915 -0.145362 -1.33903
3.32095 0.0603604 -1.86685
1.50731 -0.556482 -1.14141
1.44712 -0.677872 -1.55636
2.78301 -0.322677 -1.79815
2.36884 -0.236763 -2.90815
1.74018 -0.57478 -1.14443
2.31409 -0.512261 -1.75717
0.881091 -0.620052 -1.68108
1.65325 -0.36453 -2.9512
1.20642 -0.750075 -1.13578
1.52854 -0.645423 -2.41678
2.17408 0.0805063 -0.681694
2.58006 -0.445797 -1.97964
1.57866 -0.219015 -0.457947
1.23135 -0.19806 -1.43748
1.90306 -0.542545 -1.27161
1.08261 -0.710715 -1.37307
1.79528 -0.191118 -0.623761
3.3283 0.112709 -1.74122
1.70122 0.0172649 -0.526024
2.05665 -0.727511 -2.23121
2.56423 -0.382485 -1.71839
0.803835 -0.493229 -0.492765
1.65271 -0.665366 -1.25132
0.824548 -0.728779 -1.32041
1.59528 -0.52103 -0.919352
0.854807 -0.574045 -1.86621
0.566874 -0.021856 -1.73636
1.80232 -0.591184 -2.58041
0.561479 -0.572455 -0.768441
2.14871 -0.591389 -1.59119
1.36571 -0.737869 -1.41389
2.76043 -0.0452304 -1.21411
1.25273 -0.693074 -1.02521
1.59759 -0.553811 -1.0231
2.08683 -0.141219 -3.29483
1.43926 -0.631785 -1.73232
1.55411 -0.437316 -1.90878
2.03584 -0.735119 -1.9754
2.26643 -0.694947 -2.50308
2.00392 -0.287531 -2.30654
0.638955 -0.322164 -0.998445
1.4348 -0.00918586 -2.7445
2.75839 -0.30371 -1.80644
2.02416 -0.640716 -1.54701
1.03251 -0.576641 -0.66793
1.91486 -0.416398 -2.98595
1.96454 -0.670052 -2.44331
1.12029 -0.437838 -0.523343
1.94167 -0.407583 -0.999579
1.39587 -0.233757 -0.420759
1.84143 -0.691349 -1.48428
1.46146 -0.606981 -0.9807
2.03085 -0.15273 -3.36052
1.06483 -0.695024 -1.04961
1.6501 -0.596053 -1.15394
1.63244 -0.139649 -0.417339
2.22285 -0.549648 -2.43954
0.941294 -0.692222 -0.936726
0.271284 -0.482121 -1.70208
1.02695 -0.434117 -1.51767
2.16656 -0.52778 -1.62656
0.850163 -0.213503 -2.34646
2.68188 -0.356376 -1.83514
1.90656 -0.0335753 -0.628394
2.51128 -0.391549 -1.61328
2.1737 -0.682132 -1.90922
2.73573 -0.281279 -1.72413
0.944082 -0.567675 -1.62441
3.74658 0.118784 -2.35216
1.37546 -0.273053 -2.42454
2.07493 -0.584812 -1.84369
2.02537 -0.176853 -2.55194
0.860904 -0.0392329 -1.6334
2.24959 -0.340294 -1.21046
1.80677 -0.458892 -2.2332
2.79539 -0.374295 -1.93933
0.883457 -0.591236 -0.952843
3.3748 -0.171195 -2.36422
2.17304 -0.117397 -0.957179
0.50376 -0.307472 -1.78289
1.24884 -0.430036 -0.558245
1.78234 -0.115807 -0.600038
1.29201 -0.490901 -0.683342
0.854198 -0.551204 -0.603982
1.98051 -0.633289 -2.42719
2.01895 -0.808567 -1.91262
1.47591 -0.153776 -2.80012
3.06474 -0.26035 -2.14415
0.788111 -0.730432 -1.40148
1.02205 -0.827012 -1.83158
1.86448 -0.7741 -2.25624
1.76672 -0.61492 -1.89961
2.38666 -0.24148 -2.75016
1.97344 -0.72159 -1.69414
2.3872 0.153378 -3.68025
0.776453 0.0687768 -1.78252
1.44503 -0.331514 -2.34325
1.04446 -0.324159 -0.480014
2.55663 -0.621333 -2.47632
1.87575 -0.757651 -1.80906
1.90831 -0.118632 -0.640792
0.771232 -0.592691 -1.97155
0.54747 -0.520191 -1.49911
0.744204 -0.393669 -1.3885
1.31684 -0.461291 -1.86584
0.996189 -0.163021 -2.52991
0.369709 -0.671521 -1.01813
2.69148 -0.382811 -1.8075
2.03112 -0.163528 -0.796882
0.289965 -0.561945 -1.15076
3.17516 0.0819217 -1.58144
1.74086 -0.309719 -0.7461
2.06368 -0.54118 -1.71832
2.91796 -0.273363 -1.86451
2.31425 -0.227647 -3.19602
0.526004 -0.464222 -1.30545
1.40838 -0.407863 -0.626042
2.77366 -0.255683 -1.6715
1.56099 -0.451925 -0.775947
0.558605 -0.634741 -1.6599
1.86229 -0.459734 -1.05719
1.75298 -0.767812 -1.7912
1.57287 -0.475848 -2.85021
2.64122 -0.614848 -2.45398
1.75397 -0.593574 -1.66183
0.664456 0.146852 -1.94474
1.65694 -0.616783 -1.47794
1.48109 -0.391582 -0.6261
3.54321 0.0382701 -2.20316
2.75791 -0.348509 -2.42091
2.25763 -0.552239 -2.66337
2.56873 -0.504423 -2.12442
2.04714 -0.641301 -1.63046
0.453757 -0.424295 -1.50326
2.35413 -0.627855 -2.77393
2.47922 -0.221532 -1.28319
2.81341 -0.416571 -2.06753
2.36129 -0.617261 -2.17115
2.03363 -0.444245 -3.25476
1.70345 -0.625241 -2.06074
1.28908 -0.322229 -2.24771
2.58955 -0.169451 -1.37984
1.80451 -0.611571 -1.66543
1.65372 -0.696097 -1.37416
1.86037 -0.808047 -1.75819
