ply
format ascii 1.0
comment Created by Open3D
element vertex 200
property double x
property double y
property double z
end_header
-1.53604 1.88532 -2.05749
-1.5799 2.75738 -2.74397
-0.923642 6.15411 -5.19042
-4.73684 5.99567 -3.06976
-1.75772 2.67025 -2.60367
-0.0378275 0.787534 -1.51311
-3.39062 6.77173 -4.72078
-1.92452 6.73363 -5.29296
0.724038 6.40766 -5.52475
-1.11644 2.71385 -2.8687
1.48575 0.49676 -0.702726
-4.26582 4.11598 -1.21745
1.04197 1.20406 -1.88785
-1.12126 2.24665 -2.51201
-4.48379 10.0693 -6.23143
-4.20617 4.66039 -2.4293
-0.183574 1.12229 -1.80879
-0.943319 6.46188 -5.37363
0.897694 3.01685 -3.33832
0.428537 0.622402 -1.3676
-0.515703 6.65758 -5.56604
-0.0356107 0.649558 -1.37187
-1.51945 0.707357 0.182491
0.98694 2.61849 -3.04638
-1.16347 0.340511 -0.432527
0.805734 0.16896 -0.0964556
-2.60187 2.17425 -1.62844
-4.00326 8.4158 -5.45803
1.1857 4.05304 -4.03514
-0.667943 0.435671 0.373636
-4.80084 6.0321 -3.0182
-1.40254 0.877743 -1.12113
-4.06957 4.23712 -2.15094
-2.58157 2.2622 -1.74162
-2.54178 1.56497 -0.831683
0.365924 0.0543429 -0.544347
0.0658664 0.219193 0.264144
-2.18119 1.25749 0.0248057
-3.58204 2.97119 -0.674133
0.114899 0.149704 0.199729
-3.64873 3.19289 -0.54185
1.05329 0.247621 -0.235592
1.45376 1.55498 -2.12317
-2.43786 1.47759 -0.867126
-1.8967 0.876303 -0.0651327
-2.2264 2.79039 -2.46853
0.946466 0.383872 -0.975415
-2.87179 7.2366 -5.26319
0.684631 3.00168 -3.33141
-0.231688 0.0820993 0.143572
1.27535 1.16321 -1.79883
-4.83938 10.4172 -6.23538
-1.32561 0.394459 -0.179787
-2.39147 1.8065 -1.41422
-2.40395 5.56314 -4.38318
-0.59822 2.63059 -2.93703
-3.37837 2.60701 -0.763148
0.972748 7.12778 -5.95673
1.19173 2.74874 -3.12586
-0.395729 2.84017 -3.12622
-3.44672 3.12781 -0.2633
-0.641723 2.23006 -2.62892
-2.9553 2.58652 0.0189441
-3.37071 6.98239 -4.86957
-4.38493 7.98579 -4.93778
0.406153 0.08977 0.0466315
1.44429 0.599492 -0.177365
-1.02698 0.326362 0.142456
0.28073 1.55511 -2.22874
-1.65269 0.908107 -0.964004
1.34606 2.93316 -3.24388
-1.28785 1.82266 -2.10884
-3.93757 3.54581 -1.29642
-4.6139 5.63353 -2.87762
-1.61937 7.17511 -5.64763
1.75635 1.02116 -0.167126
-0.626894 0.445577 -0.993039
-4.69625 5.75156 -2.88215
-4.52616 5.79062 -3.13799
-3.53957 3.0141 -1.40267
-3.87008 7.16119 -4.7096
-2.70843 3.21241 -2.52317
-1.05188 4.80068 -4.3152
-3.25353 2.59008 -0.347266
0.0574868 3.17281 -3.4199
0.386408 0.025584 -0.070251
-1.44946 6.29812 -5.15896
-2.31138 1.24959 -0.58193
-3.36451 4.04536 -2.7396
-1.93518 1.03097 0.092759
-4.17359 4.96327 -2.77675
0.425499 0.42053 -1.13387
-3.3982 8.49476 -5.81483
0.011636 0.599621 -1.32424
-1.98491 0.913616 -0.433811
-4.67808 10.4396 -6.34879
-2.99494 2.40944 -0.101535
-2.17083 4.21017 -3.56303
-3.76767 3.22698 -0.98634
-2.05558 1.07016 -0.0197384
-0.417082 2.42904 -2.82365
-3.38284 8.71334 -5.95607
-2.43934 1.74474 0.10664
1.39941 0.554267 -0.176345
-0.462252 2.72136 -3.02928
0.308603 0.0429051 -0.52676
-0.124345 0.140936 -0.705253
-1.4174 0.525625 -0.545465
-3.94637 7.20342 -4.69123
-0.650491 1.36832 -1.9277
1.22123 0.338464 -0.66223
0.306171 6.7999 -5.74056
1.29809 0.37406 -0.64567
0.644058 2.31767 -2.83453
-1.67707 2.54422 -2.53917
-2.03237 1.00585 -0.625751
-0.529965 1.07716 -1.6965
-4.61814 9.01691 -5.47274
-1.6312 1.52157 -1.67724
-2.7567 1.88645 -0.178422
-0.825746 2.35793 -2.68206
0.6901 0.152045 -0.659663
-0.0372223 -0.0239345 -0.299722
-1.638 5.25694 -4.45295
-2.39286 5.81157 -4.5497
-1.98705 7.00724 -5.44125
-4.67321 10.488 -6.38193
-4.09551 5.86987 -3.62156
0.0577778 1.45336 -2.12726
-0.310192 3.19996 -3.39293
-2.03318 5.8617 -4.71334
-4.6347 8.10235 -4.8402
0.431177 0.864318 -1.61691
0.301783 0.135348 -0.726023
-3.96 5.71711 -3.61249
-1.98744 0.926893 -0.169517
1.13969 3.02871 -3.33309
0.688283 0.124584 -0.591293
-0.288005 3.90365 -3.87317
0.341224 0.0599918 0.0281731
0.510218 0.334564 0.230023
-2.41789 4.8315 -3.8871
-3.61511 2.97906 -0.990482
-2.56024 1.92453 0.0898873
-4.30883 4.19948 -1.22441
-0.223008 2.68393 -3.04114
-3.59218 3.53875 -2.02608
-0.0782057 0.443113 -1.13508
1.32689 0.719545 -1.28302
1.41841 0.630806 -0.120584
1.30838 0.572846 -1.08223
-0.795396 5.30815 -4.69205
0.915451 6.25762 -5.43627
-4.71802 10.9927 -6.66863
0.967105 4.61522 -4.41201
-4.66311 4.95054 -1.83718
-0.47714 5.89519 -5.1105
-1.61689 0.642147 -0.0209603
-0.101906 0.699872 -1.41523
-3.83525 3.87738 -2.08028
-0.93516 0.3258 -0.645448
0.388242 4.80357 -4.52214
-3.36008 2.64926 -0.523372
-0.066222 1.13933 -1.84112
-1.72852 1.25106 -1.33454
-2.07125 1.81806 -1.69276
0.846239 5.87545 -5.20339
1.50151 1.38379 -1.94921
1.36806 1.05814 -1.66339
-2.23794 2.21329 -1.95915
-0.309765 2.03035 -2.54068
-0.0927066 2.67931 -3.05511
0.406691 4.01506 -4.01346
0.504642 1.84813 -2.47245
-0.352938 0.814946 -1.4857
-0.331958 0.166778 0.230419
0.935471 0.164147 -0.383038
-2.96567 4.06225 -3.0411
-2.37187 2.0222 -1.6715
-3.81349 6.91737 -4.57854
-3.97925 3.84477 -0.635995
-2.88904 3.31474 -2.48312
0.246069 0.0977261 0.11544
0.132345 2.4662 -2.92368
-1.36968 3.8458 -3.59826
-2.66708 2.49953 -1.90862
-3.63493 6.79022 -4.59841
-3.14487 2.80135 -1.74768
-1.06031 0.331279 0.122953
1.14338 4.17389 -4.11774
-3.70812 3.13735 -0.862288
-3.2329 2.40172 -0.621357
-2.5643 1.5112 -0.512402
0.580836 0.0472142 -0.19017
-1.26321 5.86827 -4.93985
-2.5835 2.01776 0.112818
-0.516658 4.47154 -4.20965
0.708317 0.799851 -1.53691
1.41449 0.804822 -1.35082
1.3249 0.508381 -0.145881
