ply
format ascii 1.0
comment Created by Open3D
element vertex 400
property double x
property double y
property double z
end_header
-1.67459 -1.58809 0.757426
-2.75454 -1.80644 0.0376375
-2.7358 -2.06637 0.363833
-1.99074 -2.58885 0.742018
-2.92714 -2.0744 0.0956902
-1.33245 -0.667044 0.256064
-2.83717 -1.98018 0.149176
-2.03222 -1.015 0.103229
-2.41578 -1.35695 -0.381953
-1.69949 -1.1955 0.515697
-1.47274 -0.582853 0.209069
-1.92073 -1.70343 0.620215
-3.54012 -2.6792 -0.757913
-2.28908 -1.86657 0.667691
-2.96602 -2.11764 0.0723374
-2.96173 -2.24125 0.221237
-1.76712 -2.35057 0.911342
-1.46716 -1.99016 0.619632
-2.58321 -1.69272 0.276648
-2.97079 -2.01812 -0.59041
-1.68217 -1.62618 0.717197
-1.59074 -0.583227 -0.0615886
-2.24625 -1.65427 0.665316
-1.81032 -0.771249 0.043507
-2.09694 -1.14215 0.154789
-2.32636 -1.87646 0.33724
-2.86026 -1.86252 -0.278402
-2.77146 -1.85367 0.0122949
-1.93475 -0.946109 -0.559239
-2.26123 -1.2142 -0.0158468
-1.97112 -1.44651 0.603766
-2.49684 -3.26482 0.510246
-2.11295 -1.06771 -0.192876
-1.90114 -1.98145 0.801003
-1.27437 -2.10474 0.672545
-1.28156 -0.669802 0.647818
-2.62185 -1.59051 -0.66051
-2.34033 -1.31189 0.0993947
-1.90546 -0.913363 -0.103818
-1.36315 -0.791204 0.206037
-1.66362 -0.64643 0.0938931
-2.76104 -2.03303 0.272957
-2.82675 -2.00247 0.185361
-1.70946 -1.72249 0.743016
-0.862435 -1.38184 0.675526
-1.62278 -0.791964 0.325973
-2.20052 -1.46642 0.475954
-2.67415 -2.05076 0.464948
-1.81095 -1.40279 0.481382
-1.46117 -0.516422 -0.0256233
-2.63218 -1.59284 -0.4876
-2.10523 -1.43155 0.547016
-1.92981 -1.22981 0.572972
-1.86723 -1.85224 0.682155
-2.37313 -2.37122 0.750854
-2.6814 -2.50464 0.491396
-2.28375 -2.44184 0.713112
-0.921866 -0.311398 0.476447
-1.84553 -1.83735 0.494007
-1.44659 -0.899507 0.637779
-1.10601 -1.26615 0.721182
-2.37622 -2.9875 0.565522
-1.80221 -1.21367 0.5639
-1.83382 -1.66817 0.744856
-1.39058 -0.874881 0.582755
-2.31152 -2.35305 0.652217
-1.67627 -0.678255 0.0750224
-1.42594 -1.75061 0.465743
-1.93382 -0.899101 -0.104867
-1.06394 -1.36894 0.89066
-2.05893 -1.39886 0.566497
-1.09771 -0.386656 0.355351
-2.78466 -1.7556 -0.32852
-2.46356 -1.44469 -0.427294
-1.17881 -0.736391 0.589397
-2.53879 -2.42088 0.51173
-1.217 -0.333296 -0.0497357
-1.5216 -0.568887 -0.279098
-2.18156 -1.15718 0.0171492
-2.36219 -1.3102 -0.309239
-1.29896 -0.668393 0.437109
-2.17954 -1.17919 0.214096
-1.68459 -1.85832 0.703346
-1.46844 -0.589383 0.456059
-0.953267 -0.354338 0.30826
-1.78771 -0.813661 0.224448
-3.11324 -2.25584 -0.0590579
-2.71403 -1.70337 -0.219748
-1.4468 -0.564912 -0.565502
-2.55636 -1.95718 0.446614
-1.63773 -0.829575 0.531447
-3.34469 -2.42627 -0.724964
-2.81701 -1.80555 -0.756937
-1.2243 -1.19436 0.744603
-2.81689 -1.91572 0.110508
-2.40987 -1.40909 -0.659943
-1.3705 -1.55582 0.781226
-2.53087 -3.5641 0.525889
-1.1764 -0.788992 0.770295
-1.58407 -1.15597 0.401539
-1.00924 -0.444052 0.554811
-1.93434 -1.04542 0.368808
-1.07524 -1.20942 0.888812
-1.30829 -0.415898 0.103404
-1.04908 -1.27898 0.617049
-0.931769 -1.77254 0.977766
-1.83456 -0.940375 0.457012
-2.31872 -1.2824 -0.524864
-0.932771 -1.92518 0.654034
-2.663 -1.62101 -0.559448
-2.3923 -1.34143 -0.173864
-0.835847 -1.1449 0.702604
-1.51698 -0.784503 0.307118
-2.53396 -1.77421 0.262046
-1.52289 -2.21337 0.616718
-0.634575 -1.28277 0.671081
-2.50942 -1.46815 -0.299381
-1.29384 -0.72326 0.443735
-1.84835 -0.911769 0.224533
-2.32059 -1.60076 0.404691
-2.86793 -1.86093 -0.300566
-2.49607 -3.34495 0.572532
-1.54084 -1.42317 0.695414
-1.39997 -1.50274 0.723006
-1.92262 -1.4482 0.445626
-1.77981 -0.842522 0.234746
-2.4509 -1.39216 -0.417652
-1.22062 -0.489173 0.200538
-2.25284 -2.85689 0.67501
-1.57958 -1.1148 0.455212
-1.7446 -0.737528 0.184281
-2.93911 -1.92328 -0.397736
-1.02199 -1.25242 0.947209
-0.537082 -1.60252 0.750693
-2.03317 -0.986902 -0.123321
-1.34525 -1.67047 0.666724
-1.50859 -0.597919 -0.511156
-1.32856 -0.495572 0.116992
-1.71361 -2.2293 0.855699
-0.804178 -1.19947 0.768223
-0.971942 -0.682626 0.442063
-1.93824 -0.931961 -0.523353
-1.44555 -2.08259 0.69931
-1.4759 -0.657577 0.059819
-0.890206 -1.47094 0.541487
-2.91432 -1.92914 -0.477126
-2.53157 -2.14866 0.590734
-3.32346 -2.40869 -0.704989
-2.21362 -3.05812 0.604789
-1.38115 -0.702981 0.439535
-1.1387 -0.985788 0.826494
-1.9701 -1.9485 0.636041
-1.46237 -1.68875 0.840134
-1.77234 -0.772638 -0.394785
-2.41097 -1.39951 -0.708786
-2.33865 -2.93824 0.680433
-2.57008 -1.86332 0.406666
-0.907595 -0.826314 0.453491
-1.75557 -0.759786 -0.39834
-2.26194 -1.38104 0.34728
-2.04637 -1.96198 0.724306
-1.69544 -0.758669 -0.561756
-1.68044 -0.738294 0.22986
-2.31414 -1.67057 0.334758
-1.55232 -1.9073 0.641221
-3.17753 -2.30463 -0.1482
-2.69226 -2.13442 0.254413
-1.1299 -0.252769 -0.00432314
-1.20261 -2.10044 0.866494
-2.54326 -3.08407 0.671426
-2.49905 -1.9409 0.500982
-1.29086 -1.31593 0.777088
-2.8354 -2.3469 0.280888
-1.99814 -0.998638 -0.610653
-2.72654 -2.37768 0.459999
-2.98684 -2.4628 0.247478
-0.673138 -0.461694 0.766345
-1.3982 -0.69866 0.318643
-1.75238 -0.767228 -0.348562
-1.66057 -0.702812 0.0300223
-2.98327 -2.0744 -0.0470678
-2.51696 -1.99504 0.502218
-2.56319 -1.73414 0.365947
-2.41744 -2.01943 0.665739
-1.13797 -1.93847 0.758798
-1.64892 -0.675508 0.172022
-2.47745 -1.69052 0.364065
-0.632671 -0.984911 0.8386
-1.34902 -2.14696 0.890587
-2.99955 -2.01281 -0.377399
-2.63996 -2.67684 0.559801
-2.98346 -2.05446 -0.108493
-1.38898 -0.484852 -0.155913
-1.27182 -0.464765 0.396429
-1.83085 -1.6677 0.835246
-2.50128 -3.56108 0.480577
-2.67749 -1.62458 -0.658344
-2.84862 -2.03666 0.178403
-2.73334 -1.71239 -0.290364
-0.753959 -1.73302 0.58769
-1.73347 -0.8641 0.518778
-1.19159 -0.670328 0.320768
-1.37483 -1.0071 0.62023
-3.09874 -2.12756 -0.583818
-0.993251 -1.44089 0.622143
-1.44981 -0.453646 -0.0483886
-1.8345 -1.87708 0.903138
-2.65471 -3.24902 0.477869
-1.52281 -2.43833 0.64973
-2.25299 -1.48189 0.467706
-1.13668 -0.528564 0.190962
-2.29792 -1.61817 0.407025
-2.44878 -3.08074 0.761165
-2.80402 -2.00122 0.149613
-1.51797 -0.520291 0.0129503
-1.54187 -2.27902 0.757888
-2.24388 -1.54922 0.444805
-1.82341 -0.807251 0.161736
-1.31321 -0.693365 0.406563
-3.02894 -2.33008 0.168799
-2.10915 -1.05206 -0.227696
-1.30612 -0.407925 -0.140758
-2.06199 -2.18974 0.720715
-2.82556 -1.84451 -0.123243
-1.72383 -2.16655 0.50207
-1.61796 -2.6113 0.734329
-2.28167 -1.22107 -0.246392
-2.13756 -2.62967 0.570854
-1.30986 -1.26196 0.763966
-1.65793 -2.16937 0.830226
-1.55245 -0.584384 -0.191273
-2.14212 -2.93598 0.554178
-2.48191 -1.42591 -0.373057
-3.05291 -2.21823 0.0213517
-0.847189 -0.227177 0.432373
-1.80562 -1.34211 0.761726
-1.49491 -0.502508 0.0344131
-1.2116 -1.48356 0.856961
-1.79771 -2.00838 0.703622
-1.00979 -1.87066 0.508934
-2.31309 -3.29656 0.549618
-1.17065 -1.81825 0.789062
-1.9226 -1.60696 0.698859
-1.29145 -1.825 0.75206
-2.38483 -1.35209 -0.0993983
-1.3446 -2.2361 0.771147
-1.42854 -0.869596 0.554139
-2.28457 -2.42044 0.50459
-2.01753 -1.21675 0.215806
-1.68389 -0.718015 -0.20523
-2.5833 -2.59954 0.541355
-1.7757 -2.68105 0.73632
-1.64791 -0.820044 0.403802
-1.60436 -2.30381 0.760534
-2.05776 -3.0514 0.712169
-1.50275 -0.860984 0.677197
-1.88367 -1.07757 0.439639
-2.10938 -2.4171 0.739933
-2.97199 -2.069 -0.0187958
-1.52298 -1.3238 0.717679
-2.11914 -1.71765 0.723581
-1.85763 -0.862166 -0.0172785
-2.92066 -1.9033 -0.468823
-1.50313 -1.01319 0.504136
-2.58581 -1.5874 -0.0683136
-0.872253 -1.86514 0.731116
-2.31942 -1.96068 0.714287
-0.75815 -1.02187 0.805943
-1.56457 -0.541694 0.235885
-1.60172 -1.89781 0.584512
-1.67845 -0.849014 0.331943
-0.903748 -1.39107 0.764819
-1.94036 -2.90631 0.79263
-0.670608 -1.73901 0.510906
-2.55203 -1.90355 0.367855
-2.07502 -1.80663 0.835144
-0.78614 -0.498822 0.508415
-1.6329 -1.36653 0.637453
-1.59245 -0.743074 0.200018
-1.28462 -1.17431 0.726078
-1.98279 -0.953843 -0.176023
-1.58258 -0.657231 -0.546866
-2.74619 -1.78978 -0.0251888
-1.0175 -0.378684 0.277879
-1.96035 -1.85853 0.669012
-1.76891 -1.07685 0.474273
-1.50728 -2.04136 0.955721
-1.39321 -0.999214 0.563356
-1.40199 -1.0463 0.739798
-3.18417 -2.23963 -0.519039
-2.01161 -1.09899 0.321774
-2.10276 -1.09687 0.224971
-2.33419 -1.8472 0.489868
-2.79469 -2.17962 0.300672
-2.44749 -1.46217 0.193713
-1.1323 -0.259601 0.134855
-2.56366 -1.55417 -0.626622
-2.07618 -2.69654 0.61723
-1.9144 -1.87736 0.613643
-0.994386 -0.853377 0.53795
-3.02017 -2.04594 -0.299551
-2.69331 -1.85857 0.183486
-0.851259 -0.58401 0.681737
-1.36281 -1.37109 0.832561
-0.685695 -1.08018 0.670791
-1.8654 -1.62306 0.609892
-1.35142 -1.1214 0.65874
-3.22935 -2.28577 -0.600592
-1.3933 -0.779562 0.478406
-1.53601 -1.1581 0.708424
-0.689771 -1.12187 0.790491
-2.68928 -1.90892 0.303013
-1.27193 -0.717916 0.452224
-1.68582 -0.748912 -0.537606
-1.68166 -0.681456 0.125785
-1.996 -1.5415 0.733569
-2.21195 -1.19835 -0.672727
-2.10362 -2.73891 0.560282
-0.830883 -1.71837 0.657766
-1.93207 -2.27448 0.696883
-2.2735 -1.95921 0.561623
-1.99783 -2.60765 0.653212
-1.80395 -0.809604 0.045312
-2.50508 -3.51536 0.640902
-2.41098 -1.35473 -0.319335
-2.18814 -1.55496 0.591199
-2.60231 -1.59783 -0.00487794
-1.57472 -0.583204 -0.239576
-1.54017 -1.84854 0.785407
-2.4187 -1.44254 0.174461
-2.26555 -2.33679 0.739501
-1.24591 -0.516898 0.409357
-2.59632 -3.15716 0.621227
-1.18336 -2.049 0.654831
-1.72849 -0.759183 -0.49322
-0.894958 -0.713593 0.719575
-0.830202 -1.56071 0.670022
-1.00554 -1.08943 0.609158
-0.914479 -0.560588 0.508898
-2.66983 -1.82075 0.195163
-2.27608 -2.20013 0.432348
-2.67755 -1.65197 -0.572283
-2.44975 -2.36704 0.783016
-1.65315 -0.765511 0.128821
-2.08747 -1.14336 0.0466614
-2.56053 -1.80536 0.264805
-2.19895 -1.35783 0.4071
-2.85194 -1.95387 0.106029
-2.06989 -1.84823 0.561312
-3.42204 -2.56969 -0.728214
-1.62757 -0.672864 -0.460257
-2.38515 -1.32899 -0.188483
-0.779171 -0.219805 0.697226
-2.78274 -2.40479 0.424846
-2.17914 -1.68444 0.505882
-0.898304 -1.52939 0.760568
-2.05724 -1.02225 -0.300108
-1.59973 -0.64102 -0.17664
-1.50129 -0.53178 -0.00855551
-2.0314 -1.00338 0.103969
-2.36673 -1.35329 -0.720151
-1.22576 -0.482419 0.0373689
-2.14523 -2.19085 0.770267
-1.06824 -1.67438 0.762938
-1.2761 -0.450103 -0.133975
-1.80078 -2.69604 0.830776
-1.04802 -1.4256 0.7211
-2.06845 -1.43382 0.654249
-2.18342 -2.32914 0.815446
-3.18535 -2.28013 -0.264084
-1.41526 -0.494873 -0.0892862
-0.981281 -0.698377 0.804998
-1.964 -2.44972 0.742994
-1.13664 -1.00943 0.779563
-1.77879 -0.798859 -0.228795
-1.39673 -1.60229 0.699508
-2.15346 -1.5457 0.469017
-2.87075 -1.84511 -0.405713
-2.76571 -2.55266 0.449484
-1.99325 -1.21845 0.537947
-1.69621 -0.793376 -0.701694
-1.83109 -1.12473 0.588937
-0.979423 -0.815636 0.81474
-2.38542 -3.31121 0.660553
-2.68411 -2.11234 0.550119
-2.87638 -2.08026 0.175018
-2.45613 -2.09762 0.628123
-2.00719 -1.71809 0.644954
-1.54272 -0.597697 -0.289573
-3.00658 -2.31262 0.166482
-1.57579 -2.12208 0.777483
-2.38175 -2.53104 0.656242
-2.50524 -2.05019 0.523411
-3.2657 -2.33507 -0.406878
-2.32338 -1.41817 0.271468
-2.27363 -1.21303 -0.233737
-1.63647 -2.38368 0.706727
-2.00938 -1.28866 0.562763
-1.75702 -1.33008 0.611061
-2.13562 -1.88419 0.480604
