ply
format ascii 1.0
comment Created by Open3D
element vertex 250
property double x
property double y
property double z
end_header
0.998763 -0.783622 -0.0750802
2.51989 -0.860774 -1.44739
1.99538 -0.137323 -1.4487
0.434538 -0.0251424 -0.807745
1.3272 0.407576 -0.636613
0.7521 0.16351 -0.66589
0.779678 0.487032 -0.159841
3.5488 -0.0741676 -1.34873
0.350435 -1.30463 0.153797
0.152282 -0.1882 1.89822
0.365859 0.190284 -0.299203
-0.16915 -1.35699 0.201476
4.42392 -0.464823 -1.5793
0.223129 -0.782351 -0.168464
0.592409 -0.256875 -1.28761
1.81417 -0.494543 -1.05338
-0.580849 -0.514646 0.289183
1.01858 -0.395552 -1.18143
0.216184 -1.47942 -0.665212
0.602162 -0.0959691 -0.665073
1.70346 -1.305 -1.54704
0.780889 0.586848 0.31898
0.254123 0.031711 1.94349
0.154266 0.195471 0.659536
0.81172 -0.43069 -1.06669
0.454275 -0.972636 -0.284776
0.00464256 -0.720827 1.97288
0.479423 0.534396 0.541765
5.61831 -1.16784 -1.88846
0.210702 0.293696 0.411779
0.480925 -1.47724 1.85143
0.478298 -0.020334 2.38664
-0.139884 -0.381861 0.970909
0.0836641 0.0940405 0.596039
0.488327 -1.07593 -0.129763
-0.265765 -0.363327 0.566358
0.488889 -0.473284 -1.16789
4.89815 -1.79054 -2.12382
4.69632 -2.45432 -2.79831
1.78924 -0.134014 -1.28684
6.22283 -1.63511 -2.01223
-0.117726 -1.03484 1.4205
1.31638 -0.283736 -1.17554
2.23791 -0.0607051 -1.25994
-0.560357 -0.475841 0.248943
4.768 -0.59137 -1.59826
0.916519 -0.0517179 -1.0921
4.81742 -0.945947 -1.78132
5.08324 -2.24602 -2.34673
-0.0646068 -1.24367 0.0740705
-0.0292714 -0.303765 0.603338
2.96975 -2.01135 -2.0488
5.76641 -2.74559 -2.13616
4.09641 -1.29418 -2.22721
2.01265 0.379571 -0.874474
3.76541 -0.279797 -1.52032
0.19176 0.201022 0.481709
-0.0179973 0.0396 0.102547
0.490399 -0.8113 0.386479
0.0670814 -0.21256 -0.66873
6.53427 -0.937705 -1.49411
4.39463 -1.31682 -2.05471
4.42765 -0.765152 -1.75864
4.20664 -0.31811 -1.49352
0.627038 -0.187211 -0.764147
5.1917 -1.74559 -2.252
0.187963 -0.721645 -0.685595
1.23784 -0.596449 -0.778221
0.0163494 -0.674437 1.03297
5.65325 -2.57174 -2.17003
4.2527 -0.569923 -1.62304
0.127697 0.0207828 0.191316
2.08995 -0.686997 -1.9853
-0.348468 -1.01637 0.229644
0.252714 -0.0456681 -0.67161
-0.122487 -0.109133 -0.214811
3.84145 -1.10547 -1.73221
6.03916 -1.35655 -1.68981
-0.326513 -0.846297 1.52722
1.50067 -0.986069 -1.00727
-0.0687356 -0.100998 1.27198
0.429828 -0.0635242 -0.644406
-0.0377159 -1.34063 0.234185
0.445212 0.0905997 -0.210092
0.242614 -0.268603 -0.344161
0.298851 0.349881 0.413017
1.56863 0.340785 -0.825652
1.33722 -0.871535 -0.988131
0.616209 0.190561 2.55974
0.738025 0.00759266 -0.936716
2.74792 -0.703814 -1.98584
4.59576 -0.526699 -1.57415
0.553888 -0.00829042 -0.85579
0.40355 -0.00121295 0.758564
2.34454 -0.80957 -1.93767
0.709011 0.336352 -0.238606
0.217123 -0.0182034 -0.516308
0.115378 -0.135577 -0.0529119
-0.0641728 -0.409752 1.84498
1.02498 -1.22204 -1.32519
-0.410484 -0.911381 0.373358
2.91142 -0.666034 -1.65086
2.1953 -0.0612237 -1.16744
-0.0105469 -0.747841 -0.274147
0.927661 -0.931561 -0.529108
1.04706 0.178388 -0.778245
1.14316 -1.00524 -1.21253
2.25964 0.345261 -0.920788
-0.051994 -0.451901 1.95325
3.21735 -0.477331 -1.74896
1.11193 -0.314585 -1.36047
1.98398 -0.481055 -1.38069
1.29246 -1.43835 -1.23841
2.79075 -0.816543 -2.06549
3.35426 -0.408965 -1.24517
0.0746478 -1.1612 0.393276
4.52504 -0.475877 -1.57649
-0.506112 -1.43339 1.41096
2.3571 0.129974 -1.17805
3.92182 -1.82026 -1.73916
2.91286 -1.26557 -1.58332
-0.0434111 -0.288417 1.45336
2.68424 0.0204967 -1.2725
5.06245 -1.81413 -2.01345
-0.103556 -0.269084 1.30305
5.07538 -1.9116 -1.98456
0.208514 -0.772073 2.02735
-0.13326 -1.82202 0.713882
-0.399476 -0.709673 1.45931
2.50644 -0.929468 -1.59283
-0.0793636 -0.779233 0.804592
0.864225 -0.677305 -1.14525
0.345627 -0.877034 1.43404
4.97408 -0.851197 -1.79404
4.78825 -1.38157 -1.96655
0.205251 -1.34723 0.916507
0.740393 0.0525784 -0.629846
1.10662 0.163902 -0.373897
3.07382 -1.07862 -1.61437
5.69046 -2.01653 -2.16534
-0.230188 -0.309228 0.541815
2.60536 -0.0116072 -1.33744
1.32264 -1.34978 -1.24104
5.2065 -0.776904 -1.68525
1.40809 -0.25986 -1.4331
2.74253 -0.346298 -1.60577
0.00344599 -0.338846 -0.854491
2.21038 -0.0215583 -0.971236
0.150969 0.16023 1.37046
5.7496 -1.34812 -1.99269
5.9898 -2.17895 -2.01662
3.11667 -0.166537 -1.47994
-0.452714 -0.362205 0.534398
0.320253 0.412976 0.619903
3.41847 -0.595287 -1.54775
-0.393298 -0.376704 0.00178452
-0.214784 -0.425383 -0.67978
1.55975 0.724574 -0.244074
-0.00902768 -0.449092 0.933759
1.31463 -0.862904 -1.6856
-0.564014 -0.646651 0.960824
-0.0944597 -0.300426 0.446663
-0.401909 -1.43694 0.205666
2.14547 -0.347458 -1.5539
-0.375713 -0.443007 0.889569
0.0122712 -0.211854 1.3678
1.98273 -0.531099 -1.25591
3.77329 0.0252176 -1.24806
-0.0142701 -0.224013 0.5891
3.08633 -0.693311 -1.57884
5.78225 -1.89769 -2.31308
3.04213 -1.11735 -2.17006
3.5244 -1.27677 -1.90815
0.479952 -1.16352 -0.295487
0.820931 -0.00243549 -0.814608
0.540054 -0.63988 -0.417961
0.997427 -0.654151 -1.31477
0.807494 0.06664 -0.881301
1.67964 -0.722995 -1.04742
-0.329841 -1.87091 0.744701
1.20774 0.187425 -0.82159
1.41998 -0.396342 -1.32455
2.14984 -0.34997 -1.61035
0.231968 -0.0713549 -0.130619
4.77451 -1.92353 -2.40624
4.36057 -0.714555 -1.71895
0.247864 -0.513726 0.0531999
-0.41524 -1.69297 0.736907
-0.554381 -1.07931 0.89741
3.4318 -0.780663 -1.99856
-0.40801 -1.67541 1.2779
0.227758 -1.50758 0.938722
-0.11695 -0.981547 -0.257168
5.1638 -1.52965 -2.27547
4.33896 -1.27819 -2.25223
-0.566337 -1.14142 1.00108
2.15022 -0.690662 -1.34472
-0.42857 -0.416601 0.524579
-0.30759 -0.242727 0.787584
-0.0308804 0.0328494 0.16503
1.0707 -2.68349 1.52798
0.879869 -1.55788 0.381423
3.15087 -4.26911 0.966829
2.67029 -5.35303 1.87683
5.81563 -6.3015 3.93059
4.42331 -6.66242 2.98298
0.631474 -2.51118 1.03283
2.20148 -5.1392 1.23282
2.91076 -4.02438 1.13086
1.4627 -2.46494 0.479705
0.274881 -2.12811 0.449871
2.26033 -2.78019 1.11008
0.759323 -1.82802 1.14615
0.774567 -2.3354 0.908167
2.83778 -4.6764 0.663686
2.56463 -4.17774 0.993677
0.598273 -2.26417 1.4245
4.05406 -5.11175 1.95939
2.06047 -4.18734 2.11692
3.19079 -4.36783 2.09345
4.47742 -6.5899 2.19673
0.788066 -2.308 0.940032
2.13639 -4.53626 2.10045
1.53528 -3.53781 1.95907
5.04975 -6.78038 2.44556
5.34494 -6.88279 3.34853
1.56747 -2.48124 1.48905
3.67078 -4.67417 1.13963
4.0456 -6.58391 2.57311
0.690026 -1.53114 0.150998
3.98793 -5.29331 1.87977
1.1049 -1.13835 0.692873
1.07338 -1.46135 0.52507
4.86932 -6.22154 3.39503
3.71226 -5.77863 2.39385
3.99521 -5.38329 1.37441
2.30602 -4.68578 2.19398
1.07002 -4.52708 1.38653
1.71149 -3.37543 2.30899
0.813988 -1.90208 0.455608
1.85732 -3.20228 1.50996
5.40313 -6.12586 2.48106
3.49239 -5.37954 2.95213
5.76686 -6.97902 3.41434
1.82914 -3.45498 0.620358
3.81703 -5.88123 2.77442
0.735787 -2.33634 -0.0813141
4.56736 -6.63349 2.29875
4.7411 -6.60222 2.9169
2.27759 -3.51885 1.78079
