ply
format ascii 1.0
comment Created by Open3D
element vertex 250
property double x
property double y
property double z
end_header
-0.783622 0.998763 0.804499
-0.860774 2.51989 1.77864
-0.137323 1.99538 1.24366
-0.0251424 0.434538 0.41255
0.407576 1.3272 0.908993
0.16351 0.7521 0.320193
0.487032 0.779678 0.713961
-0.0741676 3.5488 1.66479
-1.30463 0.350435 -0.101654
-0.1882 0.152282 -1.69137
0.190284 0.365859 0.360065
-1.35699 -0.16915 -0.612073
-0.464823 4.42392 1.77971
-0.782351 0.223129 0.218812
-0.256875 0.592409 0.352826
-0.494543 1.81417 1.59249
-0.514646 -0.580849 -0.976322
-0.395552 1.01858 1.07114
-1.47942 0.216184 0.0104706
-0.0959691 0.602162 0.813897
-1.305 1.70346 1.19416
0.586848 0.780889 0.928028
0.031711 0.254123 -1.29801
0.195471 0.154266 -0.623947
-0.43069 0.81172 0.941193
-0.972636 0.454275 0.352401
-0.720827 0.00464256 -1.41074
0.534396 0.479423 0.132603
-1.16784 5.61831 1.65709
0.293696 0.210702 -0.154977
-1.47724 0.480925 -1.12373
-0.020334 0.478298 -1.66025
-0.381861 -0.139884 -0.614125
0.0940405 0.0836641 -0.786967
-1.07593 0.488327 0.26642
-0.363327 -0.265765 -0.540927
-0.473284 0.488889 0.655964
-1.79054 4.89815 2.04468
-2.45432 4.69632 1.42948
-0.134014 1.78924 1.46405
-1.63511 6.22283 2.12989
-1.03484 -0.117726 -1.18638
-0.283736 1.31638 1.27787
-0.0607051 2.23791 1.70972
-0.475841 -0.560357 -0.940714
-0.59137 4.768 2.19814
-0.0517179 0.916519 0.824724
-0.945947 4.81742 2.22563
-2.24602 5.08324 1.86524
-1.24367 -0.0646068 -0.38432
-0.303765 -0.0292714 -0.198833
-2.01135 2.96975 1.41939
-2.74559 5.76641 1.96598
-1.29418 4.09641 1.69911
0.379571 2.01265 1.35104
-0.279797 3.76541 1.7223
0.201022 0.19176 -0.546431
0.0396 -0.0179973 -0.432489
-0.8113 0.490399 0.212409
-0.21256 0.0670814 0.214788
-0.937705 6.53427 2.19235
-1.31682 4.39463 1.99357
-0.765152 4.42765 2.10434
-0.31811 4.20664 1.8461
-0.187211 0.627038 0.833465
-1.74559 5.1917 1.93132
-0.721645 0.187963 0.356264
-0.596449 1.23784 1.2047
-0.674437 0.0163494 -0.541378
-2.57174 5.65325 1.99046
-0.569923 4.2527 2.17579
0.0207828 0.127697 0.197051
-0.686997 2.08995 1.12739
-1.01637 -0.348468 -0.62599
-0.0456681 0.252714 -0.0205649
-0.109133 -0.122487 -0.178664
-1.10547 3.84145 2.12337
-1.35655 6.03916 2.55025
-0.846297 -0.326513 -1.56422
-0.986069 1.50067 1.21316
-0.100998 -0.0687356 -1.19527
-0.0635242 0.429828 0.616544
-1.34063 -0.0377159 -0.497919
0.0905997 0.445212 0.651772
-0.268603 0.242614 0.454384
0.349881 0.298851 0.213099
0.340785 1.56863 1.13399
-0.871535 1.33722 1.16546
0.190561 0.616209 -0.776769
0.00759266 0.738025 0.348118
-0.703814 2.74792 1.33412
-0.526699 4.59576 2.19206
-0.00829042 0.553888 0.538208
-0.00121295 0.40355 0.341633
-0.80957 2.34454 1.4416
0.336352 0.709011 0.176896
-0.0182034 0.217123 0.304424
-0.135577 0.115378 0.261621
-0.409752 -0.0641728 -1.47423
-1.22204 1.02498 0.837715
-0.911381 -0.410484 -0.73624
-0.666034 2.91142 1.87539
-0.0612237 2.1953 1.78349
-0.747841 -0.0105469 0.0577123
-0.931561 0.927661 0.794362
0.178388 1.04706 1.05621
-1.00524 1.14316 0.999195
0.345261 2.25964 1.29653
-0.451901 -0.051994 -1.71763
-0.477331 3.21735 1.31713
-0.314585 1.11193 1.02517
-0.481055 1.98398 1.60315
-1.43835 1.29246 0.883079
-0.816543 2.79075 1.36046
-0.408965 3.35426 2.29906
-1.1612 0.0746478 -0.369414
-0.475877 4.52504 1.89358
-1.43339 -0.506112 -1.93745
0.129974 2.3571 1.29798
-1.82026 3.92182 1.9209
-1.26557 2.91286 1.7863
-0.288417 -0.0434111 -0.866983
0.0204967 2.68424 1.80291
-1.81413 5.06245 2.14914
-0.269084 -0.103556 -0.847173
-1.9116 5.07538 2.14871
-0.772073 0.208514 -1.14824
-1.82202 -0.13326 -1.18066
-0.709673 -0.399476 -1.73858
-0.929468 2.50644 1.71381
-0.779233 -0.0793636 -0.554059
-0.677305 0.864225 0.929742
-0.877034 0.345627 -0.556823
-0.851197 4.97408 1.8827
-1.38157 4.78825 2.15371
-1.34723 0.205251 -0.664228
0.0525784 0.740393 0.919765
0.163902 1.10662 1.30505
-1.07862 3.07382 1.90853
-2.01653 5.69046 2.10428
-0.309228 -0.230188 -0.470086
-0.0116072 2.60536 1.61442
-1.34978 1.32264 0.947626
-0.776904 5.2065 1.87147
-0.25986 1.40809 1.12837
-0.346298 2.74253 1.68204
-0.338846 0.00344599 0.161074
-0.0215583 2.21038 1.91096
0.16023 0.150969 -0.869889
-1.34812 5.7496 1.88138
-2.17895 5.9898 2.24188
-0.166537 3.11667 1.61849
-0.362205 -0.452714 -1.1121
0.412976 0.320253 0.129102
-0.595287 3.41847 2.12278
-0.376704 -0.393298 -1.17943
-0.425383 -0.214784 -0.0568775
0.724574 1.55975 1.04683
-0.449092 -0.00902768 -0.41334
-0.862904 1.31463 1.08984
-0.646651 -0.564014 -1.68083
-0.300426 -0.0944597 -0.205016
-1.43694 -0.401909 -0.88705
-0.347458 2.14547 1.51703
-0.443007 -0.375713 -1.01379
-0.211854 0.0122712 -0.669135
-0.531099 1.98273 1.63913
0.0252176 3.77329 2.04583
-0.224013 -0.0142701 -0.157676
-0.693311 3.08633 1.992
-1.89769 5.78225 1.83524
-1.11735 3.04213 1.53882
-1.27677 3.5244 1.90442
-1.16352 0.479952 0.268391
-0.00243549 0.820931 0.94754
-0.63988 0.540054 0.62244
-0.654151 0.997427 1.00816
0.06664 0.807494 0.761403
-0.722995 1.67964 1.43604
-1.87091 -0.329841 -1.42865
0.187425 1.20774 1.1821
-0.396342 1.41998 1.29431
-0.34997 2.14984 1.43041
-0.0713549 0.231968 0.415477
-1.92353 4.77451 1.77603
-0.714555 4.36057 2.13633
-0.513726 0.247864 0.282189
-1.69297 -0.41524 -1.39678
-1.07931 -0.554381 -1.37638
-0.780663 3.4318 1.25625
-1.67541 -0.40801 -1.80271
-1.50758 0.227758 -0.765543
-0.981547 -0.11695 -0.148413
-1.52965 5.1638 1.54218
-1.27819 4.33896 1.50856
-1.14142 -0.566337 -1.5097
-0.690662 2.15022 1.66938
-0.416601 -0.42857 -0.83045
-0.242727 -0.30759 -1.10303
0.0328494 -0.0308804 -0.501294
-2.68349 1.0707 -1.31178
-1.55788 0.879869 0.0379582
-4.26911 3.15087 -0.894448
-5.35303 2.67029 -2.6582
-6.3015 5.81563 -2.63851
-6.66242 4.42331 -3.33408
-2.51118 0.631474 -1.22291
-5.1392 2.20148 -2.4113
-4.02438 2.91076 -0.914524
-2.46494 1.4627 -0.268783
-2.12811 0.274881 -0.882097
-2.78019 2.26033 -0.283324
-1.82802 0.759323 -0.656507
-2.3354 0.774567 -0.895645
-4.6764 2.83778 -1.29307
-4.17774 2.56463 -1.19978
-2.26417 0.598273 -1.30634
-5.11175 4.05406 -1.56642
-4.18734 2.06047 -2.20665
-4.36783 3.19079 -1.54198
-6.5899 4.47742 -2.76862
-2.308 0.788066 -0.881844
-4.53626 2.13639 -2.44995
-3.53781 1.53528 -1.94066
-6.78038 5.04975 -2.72029
-6.88279 5.34494 -3.14602
-2.48124 1.56747 -0.732591
-4.67417 3.67078 -1.00787
-6.58391 4.0456 -3.26569
-1.53114 0.690026 0.0166463
-5.29331 3.98793 -1.72879
-1.13835 1.1049 0.359422
-1.46135 1.07338 0.185467
-6.22154 4.86932 -2.87188
-5.77863 3.71226 -2.63884
-5.38329 3.99521 -1.54615
-4.68578 2.30602 -2.51773
-4.52708 1.07002 -2.79229
-3.37543 1.71149 -1.89342
-1.90208 0.813988 -0.295078
-3.20228 1.85732 -1.1304
-6.12586 5.40313 -1.91975
-5.37954 3.49239 -2.77172
-6.97902 5.76686 -2.99993
-3.45498 1.82914 -0.886403
-5.88123 3.81703 -2.89336
-2.33634 0.735787 -0.420803
-6.63349 4.56736 -2.80845
-6.60222 4.7411 -3.02402
-3.51885 2.27759 -1.25418
