ply
format ascii 1.0
comment Created by Open3D
element vertex 400
property double x
property double y
property double z
end_header
0.0340587 -1.65738 -0.00601923
-1.05922 -2.85631 -1.72047
-0.574797 -1.5044 -0.232279
-0.725567 -1.26009 -1.60384
0.0599781 -2.56762 -0.507315
-0.275143 -2.18947 -0.403608
-0.809037 -0.937247 -0.997551
-0.612778 -1.9813 -0.432176
-1.35961 -3.25968 -1.97864
-1.10216 -3.21532 -2.77661
-0.24475 -1.69665 -0.225063
-0.948912 -1.59941 -0.710867
-0.954988 -1.88297 -1.69988
-1.13022 -2.69156 -1.56055
-1.15173 -2.28486 -1.34994
0.24172 -1.68831 -0.11985
-0.201234 -1.57005 -0.0933378
-1.16944 -2.73225 -2.56877
-0.644497 -0.797477 -0.278925
-0.98962 -2.01802 -2.08385
-0.780754 -2.01196 -0.576299
-0.921185 -2.19329 -0.804942
-1.13876 -2.29996 -1.4016
-0.964557 -1.53513 -0.686299
-0.779168 -0.975728 -0.407321
-0.780114 -2.36731 -0.698415
-0.886247 -1.42867 -1.80182
-0.732448 -3.33243 -1.24396
-0.906145 -1.58456 -1.20177
-0.484393 -3.31057 -1.10431
0.00966007 -2.36047 -0.473474
-1.04391 -1.98328 -1.25797
-0.751041 -1.01607 -1.15765
-1.08629 -2.44638 -1.49193
-0.868453 -1.20197 -1.0765
-0.9752 -1.42879 -0.898208
-1.1351 -3.28354 -1.75111
-0.375259 -3.05939 -0.904441
-0.427778 -1.18836 -0.0499221
-0.915703 -1.10931 -1.12703
-1.02226 -1.77576 -1.41297
-0.078662 -2.81044 -0.64212
-1.00236 -2.44506 -1.98633
-0.937599 -2.03285 -0.976828
-0.967299 -2.57082 -1.3792
-0.738934 -0.791184 -0.883266
-0.405282 -2.82394 -0.766466
-0.845934 -1.51731 -0.901808
-0.331538 -3.74016 -1.33343
-0.869131 -1.5367 -0.804574
-1.05311 -2.99509 -2.79369
-0.833668 -1.0472 -0.948982
-1.08491 -2.08139 -1.9985
-1.11598 -3.14937 -2.50056
-0.947891 -2.43959 -2.2539
-0.588628 -2.06053 -0.476001
-0.0838913 -2.23425 -0.329755
0.0342112 -2.51734 -0.563696
-0.80741 -1.20268 -0.481178
-0.980912 -1.26064 -0.851589
-1.03699 -2.39575 -2.44064
-0.132155 -2.62771 -0.554041
-0.775093 -1.11247 -0.94891
0.237889 -2.07609 -0.229261
-0.226812 -3.00469 -0.817138
-1.04281 -2.42981 -2.11874
-0.411823 -3.34483 -1.09232
-0.81396 -1.94837 -0.540118
-0.985351 -2.01439 -1.3953
-0.417261 -2.9038 -0.823557
-0.758875 -3.0722 -1.06749
-0.889079 -0.983309 -1.01028
-0.583645 -1.93426 -0.411042
-1.1541 -3.18084 -2.87689
-1.11105 -2.58676 -1.5985
-0.118254 -2.38388 -0.434403
-0.299384 -1.39 -0.0586242
-0.0306822 -1.23354 0.0825465
-0.921425 -2.517 -0.956664
-0.320033 -2.92309 -0.792664
-0.886794 -3.10575 -1.19731
-0.481439 -3.47488 -1.21755
-0.745329 -2.7446 -1.03192
-0.858928 -2.61256 -0.879048
-1.05073 -2.73756 -1.67932
-0.713071 -1.04189 -0.332012
-0.562846 -1.73489 -0.302133
-0.922051 -2.6052 -1.08262
-0.656132 -1.45586 -0.27982
-0.165607 -2.2141 -0.391422
-0.711349 -3.05963 -1.22705
-1.09135 -2.23041 -1.20211
-0.813305 -1.10986 -1.16354
-1.2261 -2.39313 -1.75261
-0.857472 -3.12226 -1.20059
-0.561576 -1.44156 -0.209196
-1.1776 -2.76008 -1.47822
-0.0984658 -1.94162 -0.267722
-0.0741824 -3.36999 -1.01524
-0.96123 -2.51946 -1.19465
-0.599938 -2.58227 -0.816348
-1.0411 -2.78848 -1.18355
-0.945187 -1.50668 -1.50295
-0.467871 -1.92186 -0.346741
-0.582087 -1.51335 -0.299704
-0.691269 -2.51717 -0.775426
-1.1729 -2.74661 -1.62506
-0.38425 -2.60287 -0.631717
-0.450528 -2.43085 -0.566711
-0.944764 -1.57989 -1.58288
-0.841027 -1.12422 -0.464383
-1.05231 -2.50039 -1.46733
-0.89648 -2.20078 -2.01318
-0.731218 -1.14995 -1.05001
-0.436369 -2.91008 -0.828854
-0.194954 -2.13464 -0.323108
-1.21984 -2.37787 -1.54028
-1.08196 -2.26059 -2.03987
-0.619143 -1.06843 -1.55298
-0.0334009 -3.06758 -0.808198
-0.854455 -1.16345 -0.803529
0.135604 -1.46654 -0.00357845
-1.14822 -2.04064 -1.50051
-0.23579 -4.0171 -1.49628
-0.8131 -3.56541 -1.46093
-0.683851 -0.843731 -1.31474
-0.887012 -1.48055 -0.808351
0.133657 -1.95915 -0.278558
-0.784595 -3.20067 -1.31666
0.379452 -1.4768 0.0688438
-0.703396 -3.422 -1.35229
-0.565857 -3.62857 -1.34734
-0.430771 -1.67451 -0.199976
-0.779794 -0.927144 -0.741846
-0.409062 -1.23658 -0.056375
-0.847252 -1.65393 -0.629088
-0.87701 -1.34319 -0.484777
-1.09485 -2.38973 -1.45853
-0.685372 -1.08237 -0.263407
-1.06782 -2.44302 -2.38971
-0.837143 -1.68572 -1.96105
-0.357404 -0.840484 0.0480865
-0.665641 -0.710761 -0.939132
-0.359626 -2.9087 -0.798269
-1.09852 -2.87252 -1.51125
-0.877103 -1.92926 -2.06214
-1.0564 -2.4219 -1.90855
-1.04227 -1.48572 -1.87284
-1.0329 -2.55317 -1.37694
-0.442754 -3.24053 -1.03719
0.439688 -1.76368 -0.117808
-0.459952 -1.02658 -0.0471843
-0.640469 -0.857229 -0.248444
-0.609318 -2.28174 -0.563497
-0.909874 -1.14433 -0.983037
-0.825692 -2.65046 -2.44704
-0.753814 -1.24019 -1.63023
-0.102466 -1.3544 -0.0286855
-0.837139 -1.24894 -1.69927
-0.237129 -1.01985 0.0952914
-0.698199 -1.23167 -0.290043
-0.934803 -1.57617 -1.65581
-0.875528 -1.3119 -1.74417
-0.114126 -2.70377 -0.578032
-1.11314 -1.95081 -0.956901
-0.0358233 -2.24353 -0.400151
-0.858466 -1.14742 -1.47635
-0.218948 -3.96527 -1.45674
-0.237665 -1.28602 0.0684021
-0.882924 -1.49989 -1.67705
-0.472102 -1.35718 -0.150288
0.0686003 -2.06379 -0.225102
-0.848356 -1.23638 -0.521666
-0.540293 -1.23137 -0.14265
-0.417024 -2.48384 -0.575651
-0.640088 -2.14681 -0.515547
-0.754357 -2.40495 -0.715504
-0.880083 -2.83421 -1.16653
-0.822349 -1.26728 -0.57987
-1.13879 -2.0492 -1.37749
-0.878912 -2.07377 -0.644813
-0.936951 -1.62943 -1.07264
-0.857437 -1.3748 -0.832115
-1.05801 -2.57972 -1.19596
-0.54743 -2.63966 -0.723563
-1.05007 -2.49152 -1.28429
-0.925266 -2.93182 -2.41729
-1.13186 -2.84827 -2.66896
-0.653675 -0.858395 -0.290065
-0.948332 -2.72258 -2.55044
-0.12902 -1.43335 0.0444614
-0.643675 -1.06328 -0.224603
-0.636023 -0.695043 -0.932558
-0.33367 -2.96937 -0.826737
-0.510197 -3.14553 -1.02168
-0.613948 -2.79192 -0.859524
-0.0137788 -2.76276 -0.621574
-0.717491 -1.78357 -0.476787
-1.15256 -2.6746 -2.21104
-0.657614 -0.916744 -0.254968
-0.495785 -1.07341 -0.0861057
-0.865126 -2.41814 -0.811382
-0.463604 -2.78092 -0.780652
-1.03843 -1.76936 -1.39602
-0.723303 -2.9075 -0.960695
0.0025515 -3.2416 -0.917713
-0.270716 -3.33927 -1.04421
-1.0204 -1.56964 -1.25608
-0.645203 -1.2723 -0.303831
-0.217736 -2.79668 -0.73134
-0.92379 -1.33559 -1.37394
-0.480216 -3.43984 -1.18916
-1.18254 -2.61148 -1.64698
-0.941054 -2.27504 -2.21388
-0.607583 -0.704613 -0.527426
0.226197 -2.26308 -0.28388
-1.09983 -2.03556 -1.53086
-0.185394 -3.86985 -1.37601
-1.13744 -3.24507 -1.65753
-0.546934 -1.17313 -0.139117
-0.707667 -2.89943 -1.06222
-0.882606 -2.13721 -0.893238
-0.795335 -1.35351 -1.79333
-0.703777 -2.72997 -0.839331
-1.20592 -2.21987 -1.29365
-1.00423 -1.57751 -0.76727
0.0437105 -2.39467 -0.417525
0.0892482 -2.58107 -0.489562
-1.00604 -2.12285 -1.35689
-1.05079 -1.627 -1.19055
-0.704436 -2.49549 -0.744849
-0.711734 -2.53031 -0.751049
-0.857056 -1.45504 -1.78726
0.0884748 -2.06068 -0.231115
-0.574175 -2.33568 -0.585118
0.242801 -2.77769 -0.526057
-0.0752383 -3.53878 -1.11066
-0.467528 -1.31862 -0.129624
-0.945584 -1.20338 -0.958377
-0.845243 -1.36758 -0.661395
-0.694155 -2.11466 -0.576871
-1.26969 -2.63875 -1.87353
-0.456361 -4.00737 -1.56679
-0.468046 -2.12424 -0.415722
-1.1036 -3.05122 -1.70707
-0.711221 -2.14661 -0.56802
-0.895783 -1.63382 -0.62596
-0.842016 -1.69875 -1.16257
-0.0915501 -1.50695 -0.0586547
-0.63475 -2.59075 -0.769412
-0.419643 -0.987403 -0.0219356
-0.0662901 -3.73504 -1.24629
-0.621325 -1.00381 -0.548412
-1.17987 -2.25228 -1.14556
-0.639369 -3.38224 -1.21747
-0.989796 -1.53471 -1.53833
-0.185844 -3.09568 -0.855727
-0.892247 -1.8035 -1.97694
-1.16407 -2.69787 -2.47314
-0.721521 -1.69264 -0.39084
0.0927604 -1.92527 -0.229046
-1.11025 -3.09179 -1.39279
0.101357 -1.55429 -0.0329804
-1.11491 -1.76282 -1.01183
-1.24693 -2.70616 -2.08013
-0.443792 -3.32505 -1.11763
-0.513675 -2.37816 -0.56367
-0.794518 -3.22167 -1.27634
-0.600965 -2.67644 -0.768252
-0.0162277 -3.06244 -0.796277
-0.722144 -0.867254 -1.06397
-0.579153 -1.05774 -0.187334
-1.08182 -1.97635 -1.08183
-0.493561 -3.66469 -1.36362
-1.06299 -1.86716 -1.95171
-0.189948 -3.72722 -1.27729
-0.69269 -0.81782 -0.344745
-0.0979699 -3.66494 -1.20379
-1.18028 -2.84024 -2.10712
-0.654997 -0.859467 -0.560097
-0.754675 -2.07791 -0.669491
-0.18937 -2.03132 -0.308068
-0.573111 -3.33415 -1.14718
-0.694826 -2.19156 -0.566499
-1.16262 -2.7782 -1.72819
-0.221811 -1.39763 -0.0604708
-0.346651 -0.949771 0.063464
-0.599943 -0.989013 -0.22764
-0.746207 -3.11719 -1.10963
-1.26314 -3.17335 -2.14757
-0.497662 -3.53011 -1.26139
-1.04081 -2.98628 -2.02039
-0.141538 -2.68299 -0.61179
-0.951613 -1.78783 -0.671731
-1.06914 -2.95418 -1.67249
-0.0213985 -2.04158 -0.28146
-1.06322 -2.50416 -1.46034
-0.848495 -3.58867 -1.48933
-1.05262 -1.24878 -1.08687
0.0261408 -1.31548 0.0715734
-1.02653 -2.51231 -1.32082
-0.467517 -1.18656 -0.0755667
-1.17212 -2.2778 -1.87956
-0.352248 -1.0937 -0.0164881
-1.15793 -2.46614 -1.76505
-1.00112 -2.10914 -0.890535
0.104096 -1.65845 -0.129158
-0.847612 -1.38454 -0.460214
-1.10432 -2.04678 -1.47458
-0.489967 -1.63153 -0.244484
-1.27437 -2.53671 -2.23324
0.16827 -2.62776 -0.468311
-0.581205 -2.20307 -0.518686
-0.854994 -0.930334 -0.873502
-0.355328 -2.10519 -0.361443
-0.695045 -1.93815 -0.461877
-0.0250906 -3.50163 -1.07875
-1.09894 -1.81857 -1.85062
-0.840953 -1.6674 -1.81317
-0.243863 -4.05605 -1.52217
0.375939 -1.97313 -0.184849
-0.27758 -1.87161 -0.331779
-1.18684 -2.48166 -1.73554
-0.804339 -0.875229 -0.63944
-0.864719 -1.1469 -0.796244
-0.608792 -1.85656 -0.383753
-1.05327 -2.64409 -1.95096
-1.15561 -3.14187 -2.01639
-0.987843 -2.45902 -2.38299
-0.920792 -1.82047 -0.61214
-0.523695 -2.1446 -0.451907
-0.456266 -3.55526 -1.27153
-1.09939 -1.8242 -1.77254
-0.539135 -3.43358 -1.2178
-0.722171 -1.18286 -1.39256
-0.608156 -3.12142 -1.11117
-0.867754 -1.95527 -0.710262
-0.97581 -2.55205 -1.2323
-0.822808 -2.30655 -0.999042
-1.10729 -3.23404 -2.96451
-1.00842 -1.45159 -1.24001
-0.996171 -1.20622 -1.28681
-0.464563 -1.98601 -0.409025
-0.260393 -2.52428 -0.585331
-0.460455 -2.04122 -0.388158
-1.00201 -1.40896 -1.07112
-1.13778 -1.85089 -1.3802
-0.817934 -2.50145 -0.815649
-1.18311 -2.56898 -1.21475
-0.457676 -2.14628 -0.419705
-0.755032 -2.17415 -0.645911
-1.08714 -2.86161 -2.36573
-0.649802 -2.47439 -0.68124
-0.334802 -1.0609 0.0259212
-0.315592 -2.56039 -0.584734
-0.543987 -1.35597 -0.186973
-0.699503 -1.06865 -1.43353
0.203305 -2.18504 -0.282153
-1.17326 -2.30087 -1.88982
-0.625594 -0.884254 -0.304207
-0.890255 -1.09242 -0.77774
-0.644688 -0.906498 -0.843524
-0.625283 -1.84083 -0.386325
-0.90642 -1.80711 -1.8282
-0.650276 -1.09227 -1.41139
-0.721921 -1.52501 -0.371274
-1.10836 -1.96414 -2.01289
0.0018017 -2.1651 -0.341619
-0.896239 -1.71422 -1.59895
-0.756738 -2.20774 -0.746663
-0.733369 -0.835839 -0.412121
0.0294814 -1.87388 -0.178039
-0.714443 -2.53004 -0.824499
-0.0173748 -2.83509 -0.678059
0.387367 -1.72699 -0.101625
-1.23595 -3.19852 -2.01391
-0.805258 -2.17906 -0.782343
-0.164525 -2.84302 -0.691847
-1.13786 -1.77622 -1.21678
-0.235445 -2.01492 -0.301075
-1.31029 -2.64945 -1.60286
-0.315341 -1.83574 -0.265664
-0.334222 -0.956892 0.0635646
-0.93779 -2.77463 -1.51109
-0.757176 -2.11361 -0.574135
-1.21396 -2.33157 -2.11705
-0.949278 -2.43493 -1.26783
-0.142339 -1.50452 -0.0526965
-1.02419 -2.18785 -1.699
-0.53624 -1.55786 -0.22436
-0.141735 -2.49731 -0.523028
-1.06498 -2.62342 -2.05154
-0.970008 -1.55812 -1.29888
-1.06968 -3.06402 -1.50332
-0.362853 -1.28103 -0.107419
-1.07438 -1.60493 -1.18489
-0.338584 -1.68007 -0.145634
-0.968055 -2.91737 -1.15491
-1.00036 -2.40529 -1.99244
-0.765342 -1.32628 -1.33262
