ply
format ascii 1.0
comment Created by Open3D
element vertex 250
property double x
property double y
property double z
end_header
0.728358 -0.895627 0.804499
-0.773321 -2.22486 1.77864
-1.56135 -1.61057 1.24366
-0.766529 -0.522641 0.41255
-0.897882 -0.514084 0.908993
-1.06473 -0.589044 0.320193
-0.226817 0.0701285 0.713961
-2.07543 -2.4038 1.66479
0.737663 -1.14424 -0.101654
0.275096 -0.137329 -1.69137
-0.319787 -0.0937197 0.360065
0.583506 -1.04522 -0.612073
-2.55758 -3.35666 1.77971
0.456205 -0.685807 0.218812
-1.36564 -1.06793 0.352826
-0.282355 -1.36295 1.59249
-0.0548182 -0.296757 -0.976322
-0.573677 -1.05508 1.07114
0.102903 -1.52635 0.0104706
-0.178286 -0.419241 0.813897
-0.707712 -2.30374 1.19416
0.538136 0.486297 0.928028
0.57704 0.165468 -1.29801
-0.204342 0.0469305 -0.623947
-0.420912 -0.941263 0.941193
0.448167 -0.975166 0.352401
1.18499 -0.231911 -1.41074
0.0971554 0.376056 0.132603
-3.42624 -4.91422 1.65709
-0.046676 0.187087 -0.154977
1.58292 -1.02078 -1.12373
0.553003 0.0106101 -1.66025
0.799606 0.00728815 -0.614125
-0.356126 -0.0881266 -0.786967
0.580458 -1.03777 0.26642
0.475533 -0.0562708 -0.540927
-0.628982 -0.936321 0.655964
-2.29294 -4.76919 2.04468
-3.23765 -5.74068 1.42948
-0.956513 -1.27134 1.46405
-3.10199 -5.49757 2.12989
1.09761 -0.531435 -1.18638
-0.606655 -1.08028 1.27787
-0.996586 -1.40048 1.70972
-0.102339 -0.286124 -0.940714
-2.22921 -3.48971 2.19814
-0.934254 -0.818333 0.824724
-2.20122 -3.85317 2.22563
-2.58741 -5.42331 1.86524
0.550588 -0.988849 -0.38432
0.723773 0.0081564 -0.198833
-1.43745 -3.83687 1.41939
-2.34147 -6.10399 1.96598
-2.61895 -4.07577 1.69911
-1.11629 -0.91648 1.35104
-2.22089 -2.7594 1.7223
-0.355865 -0.0258115 -0.546431
-0.413551 -0.124244 -0.432489
0.949834 -0.620996 0.212409
-0.445088 -0.424708 0.214788
-3.11451 -4.93436 2.19235
-2.25015 -4.06918 1.99357
-2.17249 -3.49902 2.10434
-2.32401 -3.02319 1.8461
-0.227331 -0.541103 0.833465
-2.82386 -5.06575 1.93132
-0.0201675 -0.807856 0.356264
0.0612789 -1.0838 1.2047
1.05874 -0.242664 -0.541378
-2.39571 -5.90572 1.99046
-1.93689 -3.13373 2.17579
0.363808 0.118583 0.197051
-2.02763 -2.39256 1.12739
0.486651 -0.670448 -0.62599
-0.981932 -0.557075 -0.0205649
-0.311186 -0.187295 -0.178664
-1.46246 -3.30243 2.12337
-2.27247 -4.79933 2.55025
0.784643 -0.386042 -1.56422
-0.115353 -1.65545 1.21316
0.21262 0.0155433 -1.19527
-0.292648 -0.362784 0.616544
0.656279 -1.05316 -0.497919
0.154278 -0.029909 0.651772
0.151427 -0.306374 0.454384
0.297066 0.349141 0.213099
-0.977959 -0.714047 1.13399
-0.115238 -1.47316 1.16546
1.58177 0.590509 -0.776769
-1.23773 -0.810792 0.348118
-2.23209 -2.7666 1.33412
-2.13139 -3.31318 2.19206
-0.769151 -0.556311 0.538208
1.04356 0.263888 0.341633
-1.6842 -2.47833 1.4416
-0.813674 -0.294365 0.176896
-0.396424 -0.272343 0.304424
0.266217 -0.073097 0.261621
0.782652 -0.0589857 -1.47423
-0.449093 -1.83262 0.837715
0.496663 -0.535629 -0.73624
-1.31669 -2.41738 1.87539
-0.765377 -1.28757 1.78349
0.275001 -0.629563 0.0577123
0.322948 -1.18204 0.794362
-0.530988 -0.475262 1.05621
-0.355049 -1.62582 0.999195
-1.38839 -1.1658 1.29653
0.640721 -0.164969 -1.71763
-2.45875 -2.82845 1.31713
-0.968548 -1.17635 1.02517
-0.794181 -1.63181 1.60315
-0.325766 -2.10864 0.883079
-2.24702 -2.90325 1.36046
-0.810483 -2.13406 2.29906
0.797111 -0.861944 -0.369414
-2.48044 -3.37764 1.89358
0.735894 -0.918931 -1.93745
-1.61386 -1.51485 1.29798
-1.26664 -3.96939 1.9209
-0.919805 -2.85311 1.7863
0.942461 0.119945 -0.866983
-1.27227 -1.61834 1.80291
-2.13312 -4.79463 2.14914
0.813792 0.110894 -0.847173
-2.03899 -4.85846 2.14871
1.45967 -0.253826 -1.14824
0.819147 -1.42752 -1.18066
0.447187 -0.358974 -1.73858
-0.969044 -2.36906 1.71381
0.90954 -0.369616 -0.554059
-0.392309 -1.19778 0.929742
1.43466 -0.425943 -0.556823
-2.8083 -4.07477 1.8827
-2.18297 -4.26914 2.15371
1.11203 -0.971631 -0.664228
-0.210752 -0.341399 0.919765
0.225615 -0.201021 1.30505
-1.05574 -2.78914 1.90853
-2.67157 -5.4802 2.10428
0.46801 -0.0200253 -0.470086
-1.49971 -1.71198 1.61442
-0.334991 -2.0364 0.947626
-2.90742 -4.1378 1.87147
-1.17977 -1.33179 1.12837
-1.60233 -2.146 1.68204
-0.599865 -0.588745 0.161074
-0.413386 -1.10836 1.91096
0.384196 0.256835 -0.869889
-3.24668 -5.0745 1.88138
-2.42277 -5.66355 2.24188
-1.91881 -2.2523 1.61849
-0.121116 -0.224852 -1.1121
0.385658 0.440067 0.129102
-1.30218 -2.55065 2.12278
-0.877072 -0.57709 -1.17943
-0.436558 -0.517245 -0.0568775
-0.646252 -0.189183 1.04683
0.952141 -0.0509629 -0.41334
-1.03856 -1.83763 1.08984
-0.0130539 -0.418436 -1.68083
0.570921 -0.0248168 -0.205016
0.477762 -1.07257 -0.88705
-1.31589 -1.7812 1.51703
0.428976 -0.109694 -1.01379
0.984486 0.190851 -0.669135
-0.563863 -1.58593 1.63913
-1.72296 -2.2514 2.04583
0.689266 0.0674017 -0.157676
-1.19339 -2.46603 1.992
-3.32361 -5.66946 1.83524
-2.123 -3.25682 1.53882
-1.59381 -3.3968 1.90442
0.45065 -1.17566 0.268391
-0.4183 -0.515742 0.94754
0.317416 -0.7321 0.62244
-0.612838 -1.32114 1.00816
-0.762836 -0.583812 0.761403
-0.207353 -1.50461 1.43604
0.730571 -1.43168 -1.42865
-0.551355 -0.541217 1.1821
-0.760336 -1.29946 1.29431
-1.4899 -1.8576 1.43041
0.230283 -0.0720528 0.415477
-2.77669 -5.05134 1.77603
-2.07431 -3.37997 2.13633
0.592843 -0.370831 0.282189
0.694193 -1.23343 -1.39678
0.57703 -0.610665 -1.37638
-2.77068 -3.34982 1.25625
0.839707 -1.15859 -1.80271
1.11402 -1.14048 -0.765543
0.287175 -0.814153 -0.148413
-3.45489 -5.09963 1.54218
-3.06198 -4.34376 1.50856
0.593611 -0.660957 -1.5097
-0.640168 -1.84648 1.66938
0.228406 -0.144473 -0.83045
0.00835875 -0.111857 -1.10303
-0.407299 -0.123068 -0.501294
1.40139 -2.54651 -1.31178
0.985662 -1.51406 0.0379582
0.878087 -5.21053 -0.894448
0.953791 -6.06403 -2.6582
1.90324 -7.92207 -2.63851
1.15948 -8.01434 -3.33408
1.0997 -2.31723 -1.22291
0.654725 -5.77988 -2.4113
1.04859 -4.79572 -0.914524
0.963297 -2.6718 -0.268783
0.788689 -1.91529 -0.882097
1.36558 -3.15081 -0.283324
1.34673 -1.5847 -0.656507
1.11879 -2.19282 -0.895645
0.540374 -5.62802 -1.29307
0.891855 -4.87063 -1.19978
1.3206 -1.96498 -1.30634
1.22226 -6.28472 -1.56642
1.39562 -4.46273 -2.20665
1.49799 -5.06901 -1.54198
0.803416 -8.11173 -2.76862
1.145 -2.16016 -0.881844
1.27508 -4.89303 -2.44995
1.43823 -3.57801 -1.94066
0.892105 -8.50254 -2.72029
1.33188 -8.54506 -3.14602
1.55926 -2.48465 -0.732591
0.868549 -5.83489 -1.00787
0.958839 -7.86249 -3.26569
0.797119 -1.48678 0.0166463
1.10529 -6.48734 -1.72879
1.29389 -1.06007 0.359422
1.13203 -1.43705 0.185467
1.58766 -7.58085 -2.87188
1.16542 -6.83357 -2.63884
0.774218 -6.71747 -1.54615
1.29193 -5.10583 -2.51773
0.747623 -4.66062 -2.79229
1.67822 -3.38921 -1.89342
0.963175 -1.84029 -0.295078
1.4092 -3.3879 -1.1304
1.18861 -7.87157 -1.91975
1.55218 -6.1832 -2.77172
1.35737 -8.80549 -2.99993
0.828496 -3.86946 -0.886403
1.31604 -6.91717 -2.89336
0.525654 -2.42338 -0.420803
0.845712 -8.17505 -2.80845
1.18672 -8.07449 -3.02402
1.51338 -3.8354 -1.25418
