ply
format ascii 1.0
comment Created by Open3D
element vertex 400
property double x
property double y
property double z
end_header
-0.655011 1.39935 -0.980511
-0.701933 3.3247 -1.21519
-0.827157 1.38835 -0.58917
0.210293 2.39121 -0.280332
-0.871542 1.70272 -1.82468
-0.993063 1.34103 -1.4189
-0.183197 1.51945 -0.112479
-0.955648 1.73967 -0.917067
-1.09667 2.99614 -1.60679
-0.230248 3.98861 -1.54354
-0.90862 0.758243 -1.16392
-0.785052 1.72495 -0.479134
-0.172428 2.79155 -0.593169
-0.827262 2.93839 -1.1321
-0.813926 2.48071 -0.872216
-0.64614 0.778977 -1.37547
-0.793684 1.05103 -0.931189
-0.238366 3.36939 -1.25204
-0.526767 0.906694 -0.11243
-0.0513899 2.89664 -0.756995
-0.980364 1.83637 -0.85859
-0.999275 2.08348 -0.915378
-0.762576 2.57911 -0.869605
-0.811587 1.55507 -0.469967
-0.662518 0.885649 -0.242353
-1.1719 1.71518 -1.25249
0.0653233 2.23514 -0.456099
-1.2228 2.64417 -1.93742
-0.316785 2.39678 -0.368288
-1.13201 2.61942 -2.02018
-0.92808 1.17532 -1.79964
-0.605508 2.4742 -0.637975
-0.0127913 1.90191 -0.113609
-0.696252 2.87922 -0.940331
-0.251193 1.88377 -0.203563
-0.58525 1.76674 -0.346736
-1.03795 3.19161 -1.61372
-1.00145 2.64912 -1.79001
-0.697268 1.13241 -0.431039
-0.279553 1.56451 -0.227379
-0.395454 2.41513 -0.526529
-0.898512 2.25079 -1.80156
-0.259788 3.35556 -0.936175
-0.719689 2.46236 -0.668657
-0.704029 3.08804 -1.00688
-0.140574 1.38932 -0.0370574
-1.02254 2.34838 -1.6394
-0.422674 2.28359 -0.303228
-1.10809 2.92085 -2.43164
-0.542511 2.12208 -0.342664
-0.0777723 3.88811 -1.41435
-0.257798 1.65589 -0.134578
-0.230678 2.76399 -0.790431
-0.379987 3.84158 -1.45971
-0.041911 3.50986 -0.972648
-0.871578 2.10685 -0.876152
-0.843741 1.70678 -1.40435
-0.953069 1.21865 -1.95992
-0.64794 1.40984 -0.255653
-0.591792 1.44278 -0.30129
-0.038099 3.26023 -1.02799
-0.914145 2.0551 -1.65994
-0.179713 1.97115 -0.106915
-0.697781 1.30789 -1.5525
-1.04769 2.15625 -1.97804
-0.226231 3.28007 -0.963917
-1.14134 2.51519 -2.12401
-1.10349 1.36399 -0.949575
-0.443641 2.75298 -0.629204
-1.01341 2.49087 -1.66664
-1.29261 2.16539 -1.82231
-0.303389 1.33829 -0.181987
-1.08405 1.10646 -1.11873
-0.22057 3.86726 -1.55668
-0.716548 2.98705 -1.04059
-0.914384 1.67124 -1.5603
-0.771404 1.00803 -0.726161
-0.618672 0.848659 -0.748997
-1.05858 2.33506 -1.15064
-1.05008 2.2241 -1.82511
-1.245 2.47783 -1.7039
-1.12329 2.81586 -2.12527
-0.899679 2.91723 -1.25021
-1.21185 1.98334 -1.37815
-0.658526 3.26597 -1.12466
-0.620971 1.19549 -0.201763
-0.942926 1.33302 -0.839648
-0.965321 2.65464 -1.14381
-0.893792 1.11735 -0.615922
-0.951777 1.31846 -1.50323
-0.888109 3.2498 -1.47702
-0.831396 2.43226 -0.834487
-0.108435 1.9007 -0.166707
-0.661299 2.70064 -0.95386
-1.21225 2.56572 -1.70233
-0.859486 1.12712 -0.630504
-1.00135 2.71637 -1.22896
-0.879356 1.0232 -1.37207
-1.04051 2.30098 -2.38183
-0.83429 2.81981 -1.01513
-0.842338 2.825 -1.15915
-1.1625 2.42777 -1.35524
-0.171737 2.25594 -0.409125
-1.01458 1.19159 -1.11991
-1.00882 0.597234 -0.903192
-0.993399 2.39185 -1.2027
-0.858826 2.92445 -1.18089
-1.0538 1.91371 -1.5786
-0.940688 2.22148 -1.2599
-0.144164 2.37738 -0.450662
-0.732997 1.00953 -0.311606
-0.700183 2.96174 -0.969339
-0.0288602 3.3406 -0.786178
-0.0629477 2.20052 -0.104938
-1.11148 2.16612 -1.7836
-0.897094 1.54347 -1.31608
-0.797652 2.55135 -0.943209
-0.259657 2.99581 -0.876957
0.349957 2.30799 -0.182466
-0.967761 2.16503 -2.12958
-0.408505 1.70065 -0.17286
-0.627946 0.801951 -1.0834
-0.593405 2.42574 -0.715888
-1.08625 3.1162 -2.69901
-1.24082 2.8984 -2.06582
0.163559 1.6846 -0.116322
-0.544392 2.01494 -0.323813
-0.783943 0.848753 -1.57624
-1.00563 3.13797 -1.62926
-0.481628 0.943037 -1.14891
-1.08426 3.10399 -1.89091
-1.22051 2.75893 -2.27315
-0.849201 1.43154 -0.791725
-0.302444 1.47934 -0.0667707
-0.731682 1.059 -0.512629
-0.740172 1.94652 -0.477654
-0.85158 1.13027 -0.448814
-0.704878 2.79687 -0.907032
-0.767122 0.804027 -0.379019
-0.115154 3.25565 -1.04243
0.157397 2.77122 -0.55456
-0.541214 0.916133 -0.21186
0.00498887 1.46376 0.00928193
-1.06519 2.2159 -1.79608
-0.939734 2.96675 -1.28669
0.0995668 3.03207 -0.680923
-0.363116 3.19007 -0.928109
-0.11732 1.90827 -0.564765
-0.779871 2.91799 -1.0191
-1.21498 2.16639 -2.12929
-0.543612 0.87961 -1.5084
-0.637422 1.05412 -0.298165
-0.577849 0.906623 -0.159886
-1.05911 1.79791 -1.1996
-0.363764 1.60058 -0.210721
0.129748 3.99482 -1.09585
0.186996 2.26941 -0.299719
-0.719846 0.703927 -0.901793
0.104301 2.03701 -0.367872
-0.594109 0.950693 -0.409555
-0.750329 1.20645 -0.363766
-0.0925228 2.3962 -0.464645
0.0667623 2.04817 -0.411567
-0.835406 2.44864 -1.59808
-0.952425 1.83691 -0.729623
-0.912353 1.20967 -1.63975
-0.0178561 1.82157 -0.287547
-1.04871 3.1732 -2.6302
-0.555475 1.6887 -0.381049
0.000496174 2.40043 -0.427705
-0.846652 0.874361 -0.679981
-0.76257 1.44717 -1.40055
-0.687256 1.35855 -0.293836
-0.750173 1.1199 -0.439465
-1.01865 1.95217 -1.42648
-1.09348 1.51077 -1.15674
-1.10878 1.95135 -1.21673
-0.993513 2.83045 -1.32694
-0.581149 1.66018 -0.238762
-0.670334 2.3752 -0.714988
-1.11081 1.58612 -0.972769
-0.461571 2.28342 -0.400354
-0.445367 2.01981 -0.24936
-1.00589 2.53937 -1.12225
-1.07037 2.14936 -1.46311
-0.84909 2.73089 -1.00006
-0.113476 4.04281 -1.26924
-0.181882 3.57465 -1.32549
-0.518245 1.08627 -0.0985383
0.0152379 3.81983 -1.18775
-0.65114 1.36798 -0.693928
-0.760825 0.758973 -0.390278
0.0478765 1.53166 0.0346224
-1.07395 2.20923 -1.87365
-1.07231 2.6771 -1.81662
-1.0651 2.42579 -1.49755
-0.920759 1.93495 -1.90424
-0.823691 1.93108 -0.626976
-0.396864 3.29817 -1.14231
-0.620484 0.915423 -0.202458
-0.686855 0.986598 -0.35632
-1.11451 2.03693 -1.16406
-0.973064 2.54638 -1.50114
-0.425503 2.35757 -0.529207
-1.21677 2.18582 -1.65857
-0.988718 2.19909 -2.31958
-0.984826 2.85652 -2.05411
-0.432863 2.08359 -0.425169
-0.607203 1.69697 -0.250091
-1.10543 1.58271 -1.98672
-0.18065 2.01514 -0.32298
-1.13762 2.73024 -2.11886
-0.781875 2.87224 -1.08036
-0.000663565 3.33405 -0.883964
-0.160363 1.49913 0.105039
-0.702733 1.65936 -1.59759
-0.508663 2.56042 -0.694817
-1.03174 3.08826 -2.57293
-1.10664 3.02857 -1.61397
-0.732914 1.06847 -0.402133
-0.955927 2.92415 -1.41332
-0.788406 2.48564 -0.760019
0.190385 2.33001 -0.399308
-1.27541 1.72833 -1.64774
-0.902393 2.22855 -0.864398
-0.805098 1.61606 -0.485658
-0.85362 1.57265 -1.68654
-0.832302 1.85026 -1.79283
-0.542667 2.76245 -0.701588
-0.534969 2.03556 -0.46107
-1.06189 2.17024 -1.25036
-1.12555 2.0158 -1.33628
0.0934339 2.36507 -0.443063
-0.762735 1.37901 -1.43491
-0.972345 2.13224 -1.14822
-0.695749 2.40402 -1.85337
-0.898498 3.06385 -2.27493
-0.817288 0.923962 -0.62426
-0.443984 1.57155 -0.249008
-0.572023 1.8295 -0.275004
-0.920445 2.10347 -0.896893
-0.739223 2.85871 -1.12333
-1.20408 3.03309 -2.62423
-0.986236 1.65115 -1.14855
-0.883506 3.23403 -1.39581
-1.03104 1.81611 -1.02031
-0.815483 1.73307 -0.512399
-0.295626 2.67702 -0.389856
-0.74583 0.886455 -0.983946
-1.00672 2.39407 -1.29546
-0.643633 0.888936 -0.338705
-1.02358 2.76593 -2.60011
-0.208905 2.02681 0.0348384
-1.02142 2.08439 -0.921479
-1.2241 2.58772 -2.0444
-0.217926 2.18372 -0.446738
-1.01056 2.34198 -2.02206
0.0702526 2.82319 -0.615755
-0.271116 3.3393 -1.21032
-1.00825 1.18661 -0.796337
-0.77762 0.988917 -1.45995
-1.25363 2.55962 -1.59556
-0.663223 0.902636 -1.11426
-0.814487 1.80557 -0.586975
-0.603795 3.07179 -1.17059
-1.02863 2.92549 -1.94472
-1.06083 1.79285 -1.33747
-1.10304 2.92034 -1.71266
-1.11737 2.09809 -1.49855
-0.946558 2.21618 -2.11196
-0.011924 1.66357 -0.0595625
-0.558333 1.43961 -0.15789
-0.797483 2.16633 -0.679712
-1.11157 3.0561 -2.23762
-0.171722 2.51318 -0.691262
-1.01534 3.01514 -2.44457
-0.5434 0.876838 -0.133617
-0.99939 2.85079 -2.47859
-0.564607 3.33059 -1.23643
-0.226257 1.66984 0.0462327
-0.829595 2.32345 -0.775444
-0.92365 1.20896 -1.3465
-1.23558 2.40827 -2.08406
-1.10166 1.61774 -1.14184
-0.780958 3.06775 -1.18844
-0.772871 0.829857 -0.839787
-0.529731 1.22873 -0.19545
-0.507673 1.43721 -0.0971503
-1.21862 2.44241 -1.77772
-0.798886 3.35701 -1.49102
-1.13863 2.84195 -2.16786
-0.527059 3.66367 -1.29384
-0.984908 1.82478 -1.8045
-0.945533 1.65024 -0.663133
-0.810361 3.26577 -1.30652
-0.848609 1.16871 -1.45131
-0.721658 2.92892 -0.977297
-1.27276 2.86093 -2.08933
-0.528332 1.35966 -0.345413
-0.616629 0.895165 -0.837441
-0.797254 2.84966 -0.996571
-0.633407 1.4172 -0.310171
-0.469133 2.77369 -0.885387
-0.699578 0.779563 -0.507687
-0.598397 2.92826 -0.97375
-0.949401 2.09305 -0.817392
-0.716084 0.752761 -1.28907
-0.845972 1.22973 -0.457895
-0.556025 2.52959 -0.699167
-0.943697 1.0199 -0.886156
-0.479843 2.89724 -1.10961
-0.74734 2.13997 -1.76318
-0.967395 1.98087 -1.06484
-0.336134 1.2763 -0.139723
-0.953048 1.56865 -1.20675
-1.01509 1.54714 -0.914496
-0.988521 2.57229 -2.44124
-0.257911 2.35486 -0.661224
0.0864769 2.76044 -0.501583
-1.19023 2.77986 -2.86054
-0.611991 1.1433 -1.58199
-0.99178 0.728088 -1.34181
-0.661404 2.85334 -0.992457
-0.428819 1.13425 -0.108374
-0.427159 1.62864 -0.17744
-0.895392 1.75644 -0.789067
-0.425611 3.39487 -1.06332
-0.74989 3.47135 -1.44262
-0.0282526 3.44732 -1.02593
-1.01333 1.51425 -0.743011
-0.999875 1.71008 -1.12533
-1.08258 2.99705 -2.15727
-0.300925 2.36101 -0.643342
-1.13834 2.79733 -2.06521
0.126279 2.29749 -0.192666
-0.986166 3.00619 -1.64575
-0.861604 2.09628 -0.701565
-0.83787 2.84469 -1.03722
-0.704448 2.85992 -0.831655
-0.140136 4.01536 -1.59675
-0.397754 1.93622 -0.376389
-0.316031 1.53352 -0.324948
-1.0866 0.938183 -1.28872
-1.07168 1.44928 -1.73267
-1.02252 1.34863 -1.18303
-0.490055 1.8022 -0.347109
-0.594608 2.17847 -0.61204
-1.12222 2.08606 -1.24598
-1.1548 2.20779 -1.17471
-0.912006 1.95554 -1.06222
-0.962392 2.09541 -0.939162
-0.303393 3.64017 -1.25734
-1.1246 1.87453 -1.35271
-0.646752 0.945327 -0.415243
-1.02291 1.85763 -1.58504
-0.859547 0.922235 -0.633242
0.188817 2.12452 -0.177254
-0.732475 1.41579 -1.60555
-0.472613 2.79829 -0.898956
-0.427454 1.40021 -0.0239946
-0.475355 1.41125 -0.190982
-0.0226376 1.97118 0.0361872
-0.909743 1.69819 -0.788613
-0.0219699 2.81053 -0.577399
0.243444 2.31609 -0.147484
-0.825181 1.52288 -0.517305
-0.221428 2.54417 -0.758579
-0.866008 1.22397 -1.56889
-0.105769 2.69938 -0.481054
-0.831738 2.4793 -0.852729
-0.539029 0.900528 -0.137283
-0.773599 1.13502 -1.31377
-0.953983 2.53163 -1.16326
-0.955465 1.87242 -2.00472
-0.564133 0.871152 -1.44725
-0.880589 3.30667 -1.51135
-0.835218 2.44252 -0.824712
-0.961545 2.19597 -1.819
-0.685612 1.97684 -0.577203
-0.926795 1.28253 -1.27879
-1.00023 2.52463 -1.16437
-0.944731 1.04501 -1.15576
-0.564762 1.082 -0.262468
-0.67532 3.35498 -1.1399
-1.08236 1.63869 -1.03401
-0.402185 2.78581 -0.969034
-0.698448 2.96058 -0.913105
-0.752869 0.98817 -0.916116
-0.362358 2.96927 -0.763034
-0.87452 1.25885 -0.70276
-0.979665 1.57457 -1.70804
-0.367398 3.39495 -1.06501
-0.334108 2.22657 -0.399583
-1.04443 2.97448 -1.46761
-0.814153 0.636929 -0.745653
-0.565635 1.93312 -0.465426
-0.777654 1.60501 -0.766572
-1.22375 2.3854 -1.51651
-0.238516 3.32392 -0.91504
0.0133177 2.43537 -0.23143
