ply
format ascii 1.0
comment Created by Open3D
element vertex 400
property double x
property double y
property double z
end_header
-0.429394 1.31421 2.09594
0.531315 2.04931 2.70822
0.105608 2.02374 2.84443
-0.78347 2.18923 2.48473
0.410762 2.22766 2.89584
-0.0961752 0.273545 1.14528
0.397439 2.14009 2.85165
0.495473 1.20001 1.98746
0.690481 1.54334 1.97395
-0.266738 0.785812 1.74814
0.304381 0.619291 1.45334
-0.455621 1.24104 2.08855
0.809909 2.95508 2.89759
-0.0963324 1.83557 2.70563
0.401766 2.24778 2.90319
0.2256 2.26807 2.98599
-0.618259 2.27498 2.58755
-0.907731 1.29903 1.67073
0.474493 2.01411 2.78871
1.06641 2.70559 2.68772
-0.492781 1.2558 2.02058
0.752478 1.06204 1.59268
0.116035 1.83372 2.74747
0.722971 1.24464 1.88569
0.252586 1.03565 1.93315
-0.49012 1.07575 2.01031
0.76598 2.25071 2.63667
0.244241 1.68031 2.46223
0.978166 1.49998 1.58803
0.658692 1.55701 2.2089
-0.148052 1.24573 2.21074
-1.00345 2.51843 2.63715
0.496514 1.07925 1.72066
-0.472077 1.76612 2.43156
-0.965716 1.53707 1.66637
0.0667879 0.756178 1.7083
0.797641 1.80075 1.97793
0.751705 1.86351 2.50984
0.298129 0.713209 1.46985
-0.286967 0.146253 1.00699
0.681062 1.09825 1.77148
0.0933892 1.88951 2.72271
0.310141 2.07308 2.82426
-0.51366 1.3758 2.09891
-0.750455 0.948845 1.26476
0.135736 0.678636 1.62089
0.0769285 1.40395 2.37179
0.143605 2.1449 2.95652
-0.41668 0.81127 1.74551
0.497754 0.678224 1.31638
0.808888 1.90747 2.18735
0.0297355 1.37342 2.35011
0.0705153 1.22988 2.22421
-0.548707 1.40521 2.14122
-0.332694 2.28499 2.92163
-0.42121 2.0474 2.75876
-0.529618 2.14074 2.71062
0.143353 0.418883 1.22447
-0.749859 0.998971 1.73579
-0.0708073 0.816893 1.77905
-0.571617 0.909063 1.50622
-0.913454 2.31071 2.5658
-0.117826 0.998344 1.98623
-0.370143 1.42797 2.24677
-0.141324 0.677916 1.61777
-0.52784 1.95366 2.60339
0.547237 0.935217 1.65662
-0.937704 0.816986 1.31444
0.55585 1.05084 1.69852
-0.512284 1.27436 1.79119
0.0196278 1.34432 2.32474
0.171239 0.411209 1.23011
0.56704 1.80726 2.31172
1.10185 2.23264 2.35576
-0.161886 0.555794 1.4383
-0.515073 1.87155 2.59095
0.548024 0.591564 1.1251
0.619392 0.768412 1.1948
0.454016 1.23119 1.99966
0.894193 1.83786 2.1849
-0.0447421 0.467578 1.38041
0.55113 1.51497 2.31789
-0.656089 1.37593 1.99854
0.393894 0.895524 1.81099
0.0495473 0.241137 0.991617
0.437134 1.00344 1.8529
0.439191 2.36513 2.93067
0.889038 2.29562 2.65677
0.789165 0.901175 0.989515
-0.03564 1.79317 2.67485
0.236448 0.987048 1.96801
0.816898 2.69635 2.71157
0.811892 1.99667 2.08913
-0.446228 0.922102 1.64961
0.545269 2.24554 2.89203
1.03995 1.99239 1.9974
-0.57696 1.23782 1.8481
-1.04664 2.91821 2.80615
-0.0968429 0.832747 1.72812
-0.430101 0.490369 1.40563
0.0543419 0.489672 1.34803
0.257616 1.09949 2.05354
-0.414062 1.15764 1.78666
0.431503 0.580443 1.28064
-0.680094 0.748126 1.27808
-0.660141 1.82193 1.94062
0.360417 1.18914 2.13991
0.881633 1.68538 1.89779
-0.985965 1.41286 1.38114
0.738621 1.79271 2.07431
0.547112 1.43396 2.06249
-0.606096 0.814594 1.27216
-0.037722 0.464658 1.39914
-0.0284479 1.42783 2.35775
-0.984057 1.507 1.75423
-0.748374 0.925896 1.1092
0.917138 2.04098 2.36963
-0.128744 0.438116 1.34405
0.282865 0.897625 1.80004
-0.00416304 1.38973 2.34906
0.645313 2.05511 2.50803
-0.944994 2.76491 2.80498
-0.463683 1.04762 1.84427
-0.581584 1.09843 1.75987
-0.380894 0.851126 1.80972
0.312202 0.876392 1.76831
0.658008 1.51193 1.94056
0.0810687 0.286819 1.08825
-0.805335 2.39283 2.65595
-0.345177 0.580813 1.51445
0.586117 1.10464 1.87632
0.417397 1.72648 2.26482
-0.41549 1.28619 1.85401
-0.842228 1.39525 1.26292
0.585793 1.16584 1.79672
-0.755359 1.11183 1.61965
0.709206 0.829326 1.02513
0.225134 0.399974 1.16961
-0.66175 2.02053 2.39374
-0.600837 0.962523 1.36921
-0.332269 0.263291 1.0062
0.700864 1.08861 1.37776
-0.88056 1.54072 1.82914
0.0591183 0.296828 1.11556
-0.884681 0.805519 1.06022
0.93516 2.46603 2.62391
-0.130834 2.04911 2.85471
0.85667 2.74985 2.74982
-0.987079 2.43115 2.51915
0.000143839 0.541314 1.47687
-0.26697 0.94786 1.74131
-0.583996 1.42122 2.1575
-0.54945 1.46663 2.05425
0.869911 1.24956 1.50842
0.902632 1.74931 1.81682
-0.769066 2.5276 2.7771
0.120116 1.84301 2.71762
-0.500575 0.288485 0.928645
0.795057 1.12748 1.42419
0.28217 1.46423 2.38327
-0.421401 1.68331 2.43884
1.12449 1.55586 1.50485
0.364261 0.842941 1.70636
-0.233059 1.13154 2.10773
-0.813076 1.26791 1.76484
0.550724 2.52044 2.98392
-0.329938 1.46071 2.36085
0.626954 0.654794 1.16213
-0.804896 1.91166 1.99291
-0.674808 2.77221 3.02
-0.0517248 1.80649 2.68841
-0.469099 1.05979 1.76472
-0.300861 1.77057 2.59985
0.750631 1.18539 1.38747
-0.260328 2.03842 2.80924
-0.172852 2.03523 2.80549
-0.101011 0.600309 1.31984
-0.0388292 0.402661 1.3116
0.492663 0.724963 1.21733
0.357919 0.682009 1.44769
0.695015 2.53462 3.00878
-0.0946392 1.81967 2.69122
0.386533 2.01053 2.82752
-0.061336 2.05298 2.8769
-0.862757 1.55027 1.69966
0.474197 0.891867 1.68827
0.169778 1.67315 2.57389
-0.474711 0.945149 1.36223
-0.752113 1.98988 2.15421
0.687462 2.23944 2.6024
-0.513501 2.24624 2.83808
0.495045 2.17715 2.7526
0.44184 0.51879 1.07276
0.282573 0.618123 1.49187
-0.269537 1.6247 2.43502
-1.12408 2.79309 2.67327
0.545192 1.45365 1.80154
0.273483 2.05707 2.81333
0.805617 2.13863 2.51757
-0.987997 1.17437 1.11833
0.356902 1.15533 2.11952
-0.216574 0.219596 1.05563
-0.279077 0.715143 1.60967
0.8128 2.43632 2.58938
-0.787226 0.883424 1.26137
0.930264 1.20653 1.62941
-0.338927 1.88933 2.57434
-0.926552 2.49617 2.72455
-1.03126 1.81234 1.88152
0.164478 1.52153 2.47026
-0.0988734 0.129807 0.907707
-0.0836769 1.31541 2.28261
-0.623998 2.94474 3.12419
0.105928 1.7662 2.59459
0.734455 1.01838 1.59341
-0.862954 1.85294 2.06526
-0.024693 1.34434 2.31403
0.588557 1.16054 1.92667
-0.0849683 0.423562 1.33134
0.123364 2.19176 2.91723
0.823516 1.51691 1.95821
0.533422 0.587572 1.09084
-0.565537 1.82233 2.44805
0.626675 2.12157 2.66333
-0.996535 1.23536 1.67051
-0.967108 2.17014 2.17348
0.729721 1.53649 2.02529
-0.916022 1.88217 2.26105
-0.430754 1.01221 1.75996
-0.69334 1.89821 2.27925
0.586153 0.773273 1.28593
-1.04754 2.16371 2.30811
0.719671 1.66146 2.07736
0.360711 2.26897 2.90486
0.198007 0.385507 1.14281
-0.0656988 1.3823 2.33051
0.717786 0.990776 1.58287
-0.542786 1.30691 1.8549
-0.671669 1.52497 2.11992
-1.06669 1.08537 1.14748
-1.07063 2.59909 2.56475
-0.779607 1.47846 1.74977
-0.277902 1.38935 2.27716
-0.776178 1.40361 1.76528
0.427209 1.31953 2.04379
-0.900414 1.85269 1.94036
-0.115928 0.669162 1.62062
-0.785094 1.62052 2.24013
-0.102467 0.713173 1.70039
0.376384 0.593514 1.21868
-0.555118 2.08601 2.71207
-0.926704 2.2486 2.31742
0.175642 0.808562 1.77008
-0.844812 1.88363 2.12457
-0.933283 2.6481 2.61834
0.085283 0.972603 1.9611
0.128227 1.0286 2.01712
-0.630399 2.07042 2.56542
0.666219 2.50564 3.00735
-0.375596 1.04141 1.88102
-0.110776 1.70774 2.59798
0.375409 0.819559 1.58499
0.652827 2.01232 2.37263
-0.260133 0.615217 1.55286
0.352993 1.4829 2.23452
-0.912383 1.50215 1.472
-0.0870498 2.00557 2.83373
-0.482736 0.901014 1.39218
0.824821 1.27675 1.95464
-0.838635 1.15612 1.69369
0.118726 0.714776 1.66912
-0.678439 1.09257 1.45069
-0.853238 2.64709 2.64527
-1.05114 1.09912 0.945739
-0.0790298 1.60494 2.5152
-0.114097 1.92957 2.75401
-0.205911 0.301239 1.007
-0.398992 0.967558 1.84107
0.120598 0.529248 1.42515
-0.410723 0.897047 1.67328
0.454903 0.923023 1.58238
0.903497 1.14545 1.2212
0.365224 1.75089 2.4786
0.0663592 0.250469 1.01319
-0.489572 1.44021 2.22071
-0.0458011 0.858359 1.85508
-0.579312 2.01766 2.38278
-0.299074 0.632126 1.53133
-0.198121 0.943989 1.8491
0.803323 2.5848 2.75472
0.280831 1.14798 2.08458
0.568569 1.46077 2.26538
-0.248126 1.46089 2.38019
-0.0798789 1.86336 2.70135
0.697791 2.01061 2.70065
0.550538 0.626848 1.25605
1.00031 2.09216 2.14862
-0.924075 2.03722 2.31973
-0.603674 1.30023 2.05036
-0.435631 0.420899 1.13222
0.557839 2.13176 2.60375
0.164684 1.70903 2.55478
-0.170589 0.542731 1.30926
-0.415864 1.21279 1.93582
-0.628243 0.750457 1.11693
-0.449007 1.15016 2.01279
-0.376961 0.787389 1.62411
0.790847 2.56957 2.69806
-0.0812827 0.557207 1.49881
-0.218144 0.996646 1.91733
-0.571753 0.961017 1.3269
0.230706 1.95194 2.77465
-0.138211 0.433159 1.33304
0.454792 0.578202 0.933782
0.566084 0.991924 1.7342
-0.0732833 1.5608 2.48794
0.800097 1.41605 1.56689
-0.991666 1.95884 2.23266
-0.921061 1.24164 1.27901
-0.733954 1.77341 2.26917
-0.367837 1.53718 2.39594
-0.89109 2.00971 2.30453
0.426669 0.876239 1.64719
-0.89149 3.14483 3.03221
0.783194 1.71194 2.12234
0.0483592 1.57149 2.52265
0.827627 2.21884 2.73565
0.95228 1.26867 1.56201
-0.648662 1.49985 2.03154
0.517274 1.72167 2.49702
-0.445529 2.12208 2.74502
0.137776 0.510846 1.39895
-0.732041 2.74634 2.97822
-0.983041 1.46714 1.56094
0.661831 0.896471 1.18916
-0.248671 0.628539 1.37709
-0.846318 1.10805 1.26579
-0.574793 0.623037 1.23269
-0.197313 0.336857 1.10444
0.2158 1.74391 2.58091
-0.732618 1.31428 2.07265
0.871795 2.02145 2.2011
-0.177638 2.47777 3.12322
0.157205 0.544755 1.41577
0.117099 0.786789 1.68964
-0.018926 1.47708 2.39846
0.226204 1.41439 2.36148
0.656592 2.44613 3.02169
-0.499932 1.28686 2.13018
1.00573 3.15327 2.9899
1.02348 1.36598 1.45153
0.724642 1.67058 2.19184
0.235207 0.609977 1.43999
-0.243382 2.05449 2.82388
-0.262956 1.28048 2.22555
-0.749716 1.20844 1.46206
0.442304 0.902984 1.50308
0.438523 0.627023 1.22538
0.575844 0.802574 1.42975
0.566727 1.28682 2.04376
0.850417 1.61938 1.7128
0.0718206 0.172171 0.895331
-0.428432 2.00266 2.65922
-0.769667 1.31087 1.60251
0.264056 0.281196 0.874036
-0.813338 2.47427 2.54211
-0.687301 1.02643 1.47387
0.0934525 1.54929 2.51243
-0.419084 2.23747 2.81492
0.677573 2.60072 2.95433
0.456167 0.575947 1.17682
-0.124959 0.780761 1.60842
-0.741401 2.04639 2.43021
-0.324718 0.876862 1.65094
0.345193 0.607823 1.25152
-0.665299 1.12301 1.71693
-0.160052 1.20647 2.18273
0.549798 1.83219 2.29811
-0.401796 2.08015 2.79187
0.181219 1.31807 2.30183
1.04969 1.42596 1.30286
0.0895819 1.15753 2.15641
-0.227795 0.822415 1.59691
-0.88752 2.90753 2.88858
0.223263 2.39897 3.16221
0.243878 2.06479 2.82057
-0.145911 2.01031 2.82224
-0.352201 1.37835 2.25157
0.52073 0.65163 1.12199
0.0661068 2.09208 2.84484
-0.767821 1.73401 2.09294
-0.565864 2.14125 2.70785
-0.162207 1.82638 2.68306
0.486389 2.28432 2.69169
0.279967 1.4433 2.34353
0.738367 1.54789 2.03904
-0.916658 1.85744 2.06119
0.109148 1.3277 2.31414
-0.269156 1.01305 1.95561
-0.556619 1.17914 2.03816
