ply
format ascii 1.0
comment Created by Open3D
element vertex 400
property double x
property double y
property double z
end_header
1.41155 0.437054 -1.23713
1.32628 1.83157 -2.79171
0.725483 0.368592 -1.49844
0.475593 1.7991 -1.44451
1.8913 0.573936 -1.78697
1.28837 0.27308 -1.71571
0.068837 0.953908 -1.22577
1.01831 0.533421 -1.85526
1.08031 1.45217 -3.15729
1.44492 2.67799 -3.03249
0.88938 -0.0494738 -1.31592
0.440812 0.672545 -1.794
0.719193 1.8259 -2.03284
1.07597 1.50442 -2.69078
0.730272 1.20799 -2.40063
1.354 0.0983774 -1.01845
1.00462 0.166764 -1.2677
0.958111 2.27484 -2.69803
0.103917 0.270412 -1.01787
0.697382 2.02424 -2.11438
0.882604 0.600312 -1.97972
0.883658 0.773222 -2.1957
0.77258 1.30458 -2.41144
0.336941 0.553273 -1.73999
0.0356244 0.200592 -1.19808
0.99215 0.438075 -2.17165
0.310999 1.65672 -1.60684
1.73951 1.04605 -2.83331
0.591143 1.42462 -1.80735
1.97664 1.06077 -2.67443
1.55223 0.226067 -1.61103
0.690495 1.31049 -2.15142
0.2612 1.30524 -1.2801
0.983127 1.53473 -2.50684
0.268105 1.14104 -1.47738
0.294737 0.84621 -1.68911
1.42463 1.56202 -3.08529
2.00593 1.12036 -2.47338
0.644584 0.263468 -1.18701
0.0464267 0.946079 -1.39443
0.539081 1.42552 -1.9811
2.06176 0.902314 -2.09679
1.10411 2.15426 -2.47247
0.880261 1.18843 -2.14425
1.26084 1.63316 -2.55442
0.0368352 0.883044 -1.08191
1.7811 0.908161 -2.31275
0.646247 1.24483 -1.74211
2.38888 1.29067 -2.87027
0.601423 1.06333 -1.75477
1.33202 2.71136 -2.84546
0.167399 0.981802 -1.33677
0.618804 1.82687 -2.20336
1.41594 2.45678 -3.00699
1.13693 2.41818 -2.42934
1.20543 0.805277 -1.94143
1.63672 0.562133 -1.6873
1.64852 0.252291 -1.69134
0.303343 0.528868 -1.43122
0.0943078 0.644607 -1.54215
0.893583 2.30623 -2.39948
1.86931 0.763412 -1.99488
0.370212 1.21221 -1.38924
1.71996 0.396726 -1.33449
1.95048 0.789578 -2.27931
0.997597 2.15242 -2.46249
2.02389 0.992193 -2.63562
0.654723 0.245266 -1.8922
0.826078 1.59217 -2.16191
1.84986 1.00677 -2.38629
1.44924 0.694413 -2.63172
-0.0487256 0.779565 -1.2762
0.791337 0.08365 -1.71263
1.30957 2.62978 -3.01409
1.04638 1.60429 -2.61594
1.64378 0.517886 -1.78657
0.816208 0.148671 -1.21323
0.952104 0.120561 -0.936006
1.10585 0.91188 -2.42206
1.85617 0.823726 -2.29967
1.43418 0.927598 -2.7673
2.1081 1.20039 -2.79398
1.57719 1.3589 -2.53547
1.10186 0.602751 -2.39749
1.26088 1.81553 -2.70693
0.263259 0.393508 -1.25368
0.817867 0.280353 -1.62023
1.23652 1.17533 -2.51335
0.515067 0.178965 -1.47252
1.39377 0.281956 -1.66003
1.84395 1.59397 -2.74248
0.776387 1.14401 -2.3368
0.252678 1.24951 -1.37768
0.69657 1.49532 -2.50589
1.50057 0.998833 -2.77231
0.613975 0.192667 -1.413
1.009 1.25826 -2.7388
1.23454 0.130196 -1.41407
2.27915 0.91255 -2.41413
1.18854 1.36806 -2.49713
1.64428 1.30148 -2.35063
1.11593 0.944244 -2.65835
0.384942 1.47877 -1.72872
0.936347 0.163182 -1.65178
0.413809 -0.189679 -1.38034
1.37951 0.952233 -2.30533
1.04467 1.48883 -2.74329
1.559 0.612112 -2.10815
1.54069 0.847502 -2.09559
0.447548 1.57977 -1.78456
0.0888855 0.241663 -1.34351
1.07856 1.57654 -2.53476
1.05838 2.28538 -2.24647
0.487236 1.43231 -1.40936
1.71475 0.760001 -2.35204
1.42705 0.434076 -1.67026
0.694493 1.29156 -2.49246
0.789877 1.95278 -2.3455
0.452926 1.82344 -1.24931
2.1614 0.840011 -2.19931
0.264118 0.894786 -1.44577
1.18237 0.102544 -0.961607
0.546185 1.3308 -2.21971
2.64857 1.44584 -2.9968
1.82653 1.22164 -3.04652
0.109783 1.3082 -1.07881
0.515579 1.00012 -1.71384
1.38344 0.085758 -1.25089
1.78759 1.475 -2.8508
1.47623 0.258476 -0.84373
1.95377 1.41515 -2.93011
2.05817 1.13236 -2.92138
0.967189 0.375439 -1.525
0.141614 0.816688 -1.22249
0.657661 0.201408 -1.19368
0.663164 0.814598 -1.80703
0.210464 0.246428 -1.52055
0.924205 1.47571 -2.46752
0.182424 0.0668122 -1.20927
0.902393 2.24967 -2.45354
0.645513 2.05201 -1.80277
0.471318 0.211372 -0.900771
0.0730912 1.02151 -0.990323
1.80885 0.811035 -2.3137
1.22212 1.44669 -2.79458
0.807056 2.18828 -2.01052
1.003 1.98345 -2.47503
0.0623677 1.37044 -1.68351
1.13089 1.48872 -2.55889
1.82737 0.735273 -2.54195
1.60763 0.217035 -0.956756
0.503171 0.252191 -1.0936
0.146659 0.235217 -1.05629
1.16556 0.529463 -2.03724
0.120855 0.893171 -1.43393
1.48477 2.83596 -2.53856
0.388126 1.71863 -1.42829
0.868704 -0.00440345 -1.0233
0.214501 1.5459 -1.44332
0.697379 0.192533 -0.948428
0.390675 0.316952 -1.3702
0.442389 1.63355 -1.77092
0.205554 1.53815 -1.50408
2.06423 1.04418 -2.08909
0.455021 0.682299 -2.10966
1.48242 0.242822 -1.57916
0.12109 1.30989 -1.3839
2.66789 1.49444 -2.96649
1.10154 0.65209 -1.22662
0.444822 1.69417 -1.68845
0.571711 0.0420172 -1.27108
1.6151 0.439649 -1.45525
0.254907 0.482736 -1.46606
0.53787 0.241054 -1.27314
1.49644 0.645608 -2.06571
0.974087 0.332896 -1.93281
1.11756 0.616331 -2.21343
1.43661 1.2762 -2.64912
0.390464 0.731572 -1.50901
0.572526 1.23503 -2.22475
0.717018 0.389062 -2.0349
0.578961 1.25125 -1.8517
0.482298 1.06505 -1.62667
1.02978 1.10348 -2.55312
1.49575 0.756199 -2.26037
1.03846 1.32268 -2.51223
1.56845 2.71649 -2.78934
1.10188 2.44536 -2.76807
0.190979 0.382506 -1.08834
1.32142 2.68411 -2.62341
1.15067 0.412284 -1.19936
0.203126 0.037451 -1.16824
0.118089 1.08527 -0.972834
1.85379 0.806878 -2.33149
1.9103 1.11536 -2.60439
1.58257 0.944545 -2.42592
1.98341 0.700744 -1.97971
0.880689 0.730499 -1.82106
1.01018 2.0789 -2.67885
0.164007 0.216517 -1.10528
0.460573 0.190359 -1.13118
1.03223 0.679553 -2.29431
1.77605 1.05556 -2.35116
0.504484 1.3713 -1.98029
1.43036 0.732486 -2.5201
2.26834 0.866473 -2.27974
2.28547 1.27557 -2.60056
0.351574 1.18248 -1.8162
0.636762 0.690503 -1.43596
1.66045 0.405065 -2.06394
0.259393 1.31035 -1.58445
2.06667 1.13697 -2.76109
0.940466 1.50708 -2.6538
1.00258 2.33249 -2.29869
0.24226 0.874724 -0.999791
1.92279 0.609083 -1.50765
0.628505 1.46455 -2.20333
2.63768 1.44076 -2.8809
1.36667 1.41023 -3.04768
0.483448 0.220432 -1.23311
1.6863 1.33521 -2.60714
1.01425 1.14747 -2.18798
0.390078 1.7841 -1.51755
1.21773 0.409321 -2.33897
0.569544 0.9988 -2.36134
0.325083 0.606695 -1.79231
1.76185 0.492833 -1.67798
1.98357 0.680304 -1.80149
0.87782 1.53312 -2.24895
0.353814 1.08329 -1.87127
1.28257 0.777057 -2.26936
1.23558 0.650351 -2.27162
0.402608 1.7468 -1.62652
1.60445 0.400656 -1.42967
1.34294 0.779839 -2.09791
2.41825 1.09094 -1.90943
2.62326 1.45899 -2.62764
0.579363 0.0847279 -1.2537
0.115576 0.824946 -1.49192
0.463697 0.850088 -1.60378
1.112 0.791975 -2.03068
0.812813 1.56301 -2.69938
2.39766 1.34023 -3.10941
1.19365 0.460822 -1.84236
1.35854 1.66979 -2.93018
1.00963 0.55734 -2.01858
0.531347 0.644909 -1.79263
0.821743 1.59445 -1.88604
1.01773 0.0924398 -1.13731
1.47074 0.944699 -2.31708
0.464229 0.147459 -1.02093
2.58829 1.23448 -2.6855
0.575747 1.159 -1.2756
0.595138 0.81922 -2.35931
1.83461 1.00767 -2.80026
0.323881 1.41547 -1.75965
2.09308 0.926748 -2.3351
0.672947 2.03413 -1.91802
0.958803 2.22163 -2.67871
0.577034 0.171537 -1.66165
1.39398 0.163073 -1.28212
1.20677 1.004 -2.89077
1.22718 0.145903 -1.05077
0.329308 0.754166 -1.98149
0.893074 1.80261 -2.73779
2.13 1.30291 -2.70335
1.29932 0.525515 -2.03694
1.71985 1.28354 -2.84136
1.43661 0.706306 -2.30464
2.19603 0.880344 -2.19436
0.145654 1.15006 -1.1417
0.518938 0.548382 -1.23224
0.585345 0.987462 -2.14291
2.24704 1.37304 -2.94228
0.446006 1.70645 -2.02114
2.55788 1.39061 -2.79332
0.0433438 0.254472 -1.0494
2.56586 1.29106 -2.67885
1.11111 1.9818 -2.81698
0.335397 0.941727 -1.14993
1.0959 0.989947 -2.06931
1.25841 0.219985 -1.55202
1.82064 0.883769 -2.7083
0.974852 0.399508 -2.0064
1.09634 1.63608 -2.7675
0.823073 0.0437567 -1.14166
0.65749 0.398576 -1.0124
0.453078 0.583567 -1.19728
1.57536 0.907266 -2.68992
1.21043 1.86698 -3.07895
2.12067 1.2142 -2.83829
1.45747 2.18403 -2.88147
1.78966 0.596953 -1.99417
0.519461 0.528059 -1.90733
1.35933 1.7253 -2.85586
1.40565 0.235802 -1.44929
1.0605 1.54354 -2.53975
1.78586 1.18586 -3.0747
-0.0680012 0.673457 -1.54172
1.0599 0.150882 -0.957772
1.10464 1.42889 -2.52473
0.706706 0.472102 -1.25173
0.678281 1.67246 -2.39657
0.540882 0.049683 -1.02931
0.876338 1.66763 -2.54243
0.749585 0.822728 -2.18524
1.20355 0.0436451 -1.08139
0.301439 0.303758 -1.54597
0.633673 1.40909 -2.21461
0.728254 0.086583 -1.46742
0.675609 1.79924 -2.60496
2.191 0.896136 -1.82773
1.22883 0.682674 -2.00275
-0.0331758 0.700603 -1.22661
1.26793 0.422625 -1.75252
0.843527 0.390908 -1.84725
2.47533 1.11283 -2.50083
0.356486 1.54588 -1.99988
0.667194 1.97878 -1.80797
2.53071 1.19234 -2.97219
1.74009 0.34295 -1.16213
0.912489 -0.0975427 -1.43079
0.838695 1.58178 -2.56218
-0.00812048 0.522945 -1.16351
0.221623 0.840426 -1.43158
0.975546 0.570233 -1.78189
1.18644 2.07409 -2.63993
1.36638 1.94015 -3.02299
1.05463 2.4117 -2.44325
0.529329 0.398457 -1.89411
1.16699 0.493566 -1.8954
2.22537 1.33963 -2.85068
0.381694 1.51089 -2.01309
2.02816 1.18075 -2.80146
0.458848 1.65874 -1.40219
1.90853 1.37395 -2.69163
0.836421 0.845118 -2.02411
1.19192 1.38699 -2.52661
1.26667 1.43406 -2.30288
1.41093 2.77868 -3.03129
0.250348 1.11397 -1.71339
-0.0278923 0.933971 -1.48425
0.862932 -0.016765 -1.64464
1.46896 0.321618 -1.91445
1.0525 0.257629 -1.74191
0.228405 0.952411 -1.68022
0.39645 1.16461 -2.06866
1.13488 0.704545 -2.32415
0.785203 0.82524 -2.57246
1.32582 0.683297 -1.89586
1.06778 0.774525 -2.09788
1.25214 2.36053 -2.79112
1.22765 0.556182 -2.18324
0.611618 0.170454 -1.02758
1.58959 0.58929 -2.03457
0.515071 0.0688016 -1.319
0.344803 1.60108 -1.28498
1.77208 0.448684 -1.43578
0.695726 1.68659 -2.4145
0.341806 0.622018 -1.13344
0.094915 0.681672 -1.38206
0.406442 1.28615 -1.18853
0.930435 0.528147 -1.77318
0.696369 1.94717 -1.94339
0.477585 1.7415 -1.30053
0.618435 0.472404 -1.60977
0.451677 1.70599 -2.10902
1.49557 0.268303 -1.5145
0.675744 1.79364 -1.88619
1.1993 1.09323 -2.16798
0.00763185 0.28247 -1.08275
1.37799 0.242265 -1.31749
1.40439 1.06563 -2.34414
1.98014 0.653479 -2.01191
1.54291 0.197284 -0.96707
1.26414 1.7667 -3.08444
1.11813 1.07576 -2.171
1.96897 0.841811 -2.15772
0.325574 0.965152 -2.00845
1.23776 0.260042 -1.58275
0.729486 1.16798 -2.70989
0.994415 0.104323 -1.48763
0.61812 0.292087 -0.986614
1.45778 1.82897 -2.69091
0.884273 0.424399 -1.99894
0.611505 1.75952 -2.43301
1.18792 1.54265 -2.44991
1.0103 0.146877 -1.18401
0.88263 1.8186 -2.29602
0.742029 0.263629 -1.48889
1.62324 0.438227 -1.84852
1.13896 2.12549 -2.62341
0.43213 1.33143 -1.7944
1.35281 1.38852 -2.8992
0.552849 -0.0853853 -1.12247
0.284885 1.00435 -1.85716
1.13058 0.509642 -1.5028
1.24023 0.878632 -2.69019
1.07183 2.14924 -2.44062
0.561859 1.66305 -1.54744
