ply
format ascii 1.0
comment Created by Open3D
element vertex 400
property double x
property double y
property double z
end_header
-0.655011 -0.968311 1.41155
-0.701933 -3.2136 1.32628
-0.827157 -1.25204 0.725483
0.210293 -2.19595 0.475593
-0.871542 -1.6361 1.8913
-0.993063 -1.47155 1.28837
-0.183197 -1.56309 0.068837
-0.955648 -1.63843 1.01831
-1.09667 -3.52262 1.08031
-0.230248 -4.08723 1.44492
-0.90862 -1.03278 0.88938
-0.785052 -1.76327 0.440812
-0.172428 -2.66553 0.719193
-0.827262 -2.99452 1.07597
-0.813926 -2.62266 0.730272
-0.64614 -0.80045 1.354
-0.793684 -0.977604 1.00462
-0.238366 -3.66332 0.958111
-0.526767 -0.915207 0.103917
-0.0513899 -2.95625 0.697382
-0.980364 -1.81235 0.882604
-0.999275 -2.1152 0.883658
-0.762576 -2.67614 0.77258
-0.811587 -1.6881 0.336941
-0.662518 -1.09238 0.0356244
-1.1719 -1.97552 0.99215
0.0653233 -2.38024 0.310999
-1.2228 -2.84208 1.73951
-0.316785 -2.17392 0.591143
-1.13201 -2.66295 1.97664
-0.92808 -1.42273 1.55223
-0.605508 -2.42168 0.690495
-0.0127913 -1.75432 0.2612
-0.696252 -2.83642 0.983127
-0.251193 -1.81923 0.268105
-0.58525 -1.81874 0.294737
-1.03795 -3.38069 1.42463
-1.00145 -2.4332 2.00593
-0.697268 -0.918868 0.644584
-0.279553 -1.74546 0.0464267
-0.395454 -2.40257 0.539081
-0.898512 -1.99059 2.06176
-0.259788 -3.18763 1.10411
-0.719689 -2.25076 0.880261
-0.704029 -2.83409 1.26084
-0.140574 -1.38954 0.0368352
-1.02254 -2.20668 1.7811
-0.422674 -1.94057 0.646247
-1.10809 -2.96361 2.38888
-0.542511 -1.86332 0.601423
-0.0777723 -3.97043 1.33202
-0.257798 -1.62307 0.167399
-0.230678 -2.93562 0.618804
-0.379987 -3.88536 1.41594
-0.041911 -3.34557 1.13693
-0.871578 -1.77758 1.20543
-0.843741 -1.4744 1.63672
-0.953069 -1.53006 1.64852
-0.64794 -1.36215 0.303343
-0.591792 -1.64976 0.0943078
-0.038099 -3.39464 0.893583
-0.914145 -1.84572 1.86931
-0.179713 -1.70785 0.370212
-0.697781 -1.14042 1.71996
-1.04769 -2.18381 1.95048
-0.226231 -3.24639 0.997597
-1.14134 -2.61531 2.02389
-1.10349 -1.65884 0.654723
-0.443641 -2.5561 0.826078
-1.01341 -2.30765 1.84986
-1.29261 -2.53846 1.44924
-0.303389 -1.569 -0.0487256
-1.08405 -1.43385 0.791337
-0.22057 -4.11437 1.30957
-0.716548 -2.98126 1.04638
-0.914384 -1.58775 1.64378
-0.771404 -0.917984 0.816208
-0.618672 -0.645552 0.952104
-1.05858 -2.37984 1.10585
-1.05008 -2.19304 1.85617
-1.245 -2.74754 1.43418
-1.12329 -2.83303 2.1081
-0.899679 -2.59025 1.57719
-1.21185 -2.25964 1.10186
-0.658526 -3.12976 1.26088
-0.620971 -1.13399 0.263259
-0.942926 -1.35481 0.817867
-0.965321 -2.56193 1.23652
-0.893792 -1.2182 0.515067
-0.951777 -1.42793 1.39377
-0.888109 -2.88287 1.84395
-0.831396 -2.49036 0.776387
-0.108435 -1.81473 0.252678
-0.661299 -2.95793 0.69657
-1.21225 -2.76748 1.50057
-0.859486 -1.14365 0.613975
-1.00135 -2.93633 1.009
-0.879356 -1.16073 1.23454
-1.04051 -2.40366 2.27915
-0.83429 -2.6464 1.18854
-0.842338 -2.33987 1.64428
-1.1625 -2.66708 1.11593
-0.171737 -2.28013 0.384942
-1.01458 -1.37515 0.936347
-1.00882 -1.08662 0.413809
-0.993399 -2.21504 1.37951
-0.858826 -3.06068 1.04467
-1.0538 -1.93332 1.559
-0.940688 -1.94069 1.54069
-0.144164 -2.38049 0.447548
-0.732997 -1.23225 0.0888855
-0.700183 -2.85252 1.07856
-0.0288602 -3.0684 1.05838
-0.0629477 -1.81822 0.487236
-1.11148 -2.23497 1.71475
-0.897094 -1.4325 1.42705
-0.797652 -2.80006 0.694493
-0.259657 -3.08289 0.789877
0.349957 -2.03753 0.452926
-0.967761 -2.13322 2.1614
-0.408505 -1.6094 0.264118
-0.627946 -0.702986 1.18237
-0.593405 -2.59545 0.546185
-1.08625 -3.16664 2.64857
-1.24082 -3.13769 1.82653
0.163559 -1.69114 0.109783
-0.544392 -1.82317 0.515579
-0.783943 -1.04155 1.38344
-1.00563 -2.97963 1.78759
-0.481628 -0.615718 1.47623
-1.08426 -3.04114 1.95377
-1.22051 -2.97392 2.05817
-0.849201 -1.25608 0.967189
-0.302444 -1.40449 0.141614
-0.731682 -0.913962 0.657661
-0.740172 -1.76101 0.663164
-0.85158 -1.36862 0.210464
-0.704878 -2.7797 0.924205
-0.767122 -1.00062 0.182424
-0.115154 -3.39569 0.902393
0.157397 -2.68026 0.645513
-0.541214 -0.656674 0.471318
0.00498887 -1.38139 0.0730912
-1.06519 -2.20314 1.80885
-0.939734 -3.03131 1.22212
0.0995668 -2.90593 0.807056
-0.363116 -3.11518 1.003
-0.11732 -2.41067 0.0623677
-0.779871 -2.8062 1.13089
-1.21498 -2.4683 1.82737
-0.543612 -0.780382 1.60763
-0.637422 -0.849112 0.503171
-0.577849 -0.919849 0.146659
-1.05911 -1.83195 1.16556
-0.363764 -1.69044 0.120855
0.129748 -3.6059 1.48477
0.186996 -2.181 0.388126
-0.719846 -0.737016 0.868704
0.104301 -2.19038 0.214501
-0.594109 -0.662869 0.697379
-0.750329 -1.17954 0.390675
-0.0925228 -2.41845 0.442389
0.0667623 -2.25419 0.205554
-0.835406 -1.98249 2.06423
-0.952425 -2.11152 0.455021
-0.912353 -1.367 1.48242
-0.0178561 -1.98803 0.12109
-1.04871 -3.13551 2.66789
-0.555475 -0.968205 1.10154
0.000496174 -2.38331 0.444822
-0.846652 -0.982632 0.571711
-0.76257 -1.23262 1.6151
-0.687256 -1.39748 0.254907
-0.750173 -1.02149 0.53787
-1.01865 -1.88221 1.49644
-1.09348 -1.69342 0.974087
-1.10878 -2.05053 1.11756
-0.993513 -2.72078 1.43661
-0.581149 -1.50848 0.390464
-0.670334 -2.51766 0.572526
-1.11081 -1.84187 0.717018
-0.461571 -2.10481 0.578961
-0.445367 -1.78687 0.482298
-1.00589 -2.63184 1.02978
-1.07037 -2.11672 1.49575
-0.84909 -2.6925 1.03846
-0.113476 -3.74361 1.56845
-0.181882 -3.79825 1.10188
-0.518245 -0.993825 0.190979
0.0152379 -3.68615 1.32142
-0.65114 -0.91123 1.15067
-0.760825 -0.946125 0.203126
0.0478765 -1.37894 0.118089
-1.07395 -2.22909 1.85379
-1.07231 -2.58342 1.9103
-1.0651 -2.34077 1.58257
-0.920759 -1.85578 1.98341
-0.823691 -1.67737 0.880689
-0.396864 -3.4303 1.01018
-0.620484 -0.953874 0.164007
-0.686855 -0.882345 0.460573
-1.11451 -2.16876 1.03223
-0.973064 -2.27146 1.77605
-0.425503 -2.38229 0.504484
-1.21677 -2.41403 1.43036
-0.988718 -2.25033 2.26834
-0.984826 -2.62516 2.28547
-0.432863 -2.15718 0.351574
-0.607203 -1.3103 0.636762
-1.10543 -1.90899 1.66045
-0.18065 -2.07873 0.259393
-1.13762 -2.78244 2.06667
-0.781875 -3.01214 0.940466
-0.000663565 -3.21543 1.00258
-0.160363 -1.15183 0.24226
-0.702733 -1.33415 1.92279
-0.508663 -2.62673 0.628505
-1.03174 -3.0235 2.63768
-1.10664 -3.27587 1.36667
-0.732914 -0.987154 0.483448
-0.955927 -2.65117 1.6863
-0.788406 -2.23141 1.01425
0.190385 -2.33923 0.390078
-1.27541 -2.15834 1.21773
-0.902393 -2.5234 0.569544
-0.805098 -1.77664 0.325083
-0.85362 -1.49734 1.76185
-0.832302 -1.65952 1.98357
-0.542667 -2.58622 0.87782
-0.534969 -2.14282 0.353814
-1.06189 -2.13804 1.28257
-1.12555 -2.11649 1.23558
0.0934339 -2.40553 0.402608
-0.762735 -1.20947 1.60445
-0.972345 -1.93751 1.34294
-0.695749 -1.83914 2.41825
-0.898498 -2.71552 2.62326
-0.817288 -0.968858 0.579363
-0.443984 -1.70498 0.115576
-0.572023 -1.6408 0.463697
-0.920445 -1.88837 1.112
-0.739223 -3.16922 0.812813
-1.20408 -3.25965 2.39766
-0.986236 -1.60605 1.19365
-0.883506 -3.27131 1.35854
-1.03104 -1.82679 1.00963
-0.815483 -1.71412 0.531347
-0.295626 -2.24514 0.821743
-0.74583 -0.85267 1.01773
-1.00672 -2.21878 1.47074
-0.643633 -0.763413 0.464229
-1.02358 -2.77775 2.58829
-0.208905 -1.41623 0.575747
-1.02142 -2.41073 0.595138
-1.2241 -2.79751 1.83461
-0.217926 -2.30658 0.323881
-1.01056 -2.27096 2.09308
0.0702526 -2.766 0.672947
-0.271116 -3.59082 0.958803
-1.00825 -1.40591 0.577034
-0.77762 -1.05489 1.39398
-1.25363 -2.94841 1.20677
-0.663223 -0.789713 1.22718
-0.814487 -2.06324 0.329308
-0.603795 -3.3493 0.893074
-1.02863 -2.74021 2.13
-1.06083 -1.831 1.29932
-1.10304 -2.91315 1.71985
-1.11737 -2.16004 1.43661
-0.946558 -2.13211 2.19603
-0.011924 -1.57747 0.145654
-0.558333 -1.07856 0.518938
-0.797483 -2.26069 0.585345
-1.11157 -3.04668 2.24704
-0.171722 -2.75843 0.446006
-1.01534 -2.90183 2.55788
-0.5434 -0.96711 0.0433438
-0.99939 -2.76352 2.56586
-0.564607 -3.45591 1.11111
-0.226257 -1.28821 0.335397
-0.829595 -2.00299 1.0959
-0.92365 -1.29704 1.25841
-1.23558 -2.67168 1.82064
-1.10166 -1.78473 0.974852
-0.780958 -3.15986 1.09634
-0.772871 -0.846571 0.823073
-0.529731 -0.766691 0.65749
-0.507673 -1.08128 0.453078
-1.21862 -2.64478 1.57536
-0.798886 -3.6376 1.21043
-1.13863 -2.88914 2.12067
-0.527059 -3.50003 1.45747
-0.984908 -1.83962 1.78966
-0.945533 -1.79391 0.519461
-0.810361 -3.21296 1.35933
-0.848609 -1.21437 1.40565
-0.721658 -2.84572 1.0605
-1.27276 -3.16441 1.78586
-0.528332 -1.77307 -0.0680012
-0.616629 -0.672709 1.0599
-0.797254 -2.74159 1.10464
-0.633407 -1.02067 0.706706
-0.469133 -2.98079 0.678281
-0.699578 -0.746368 0.540882
-0.598397 -3.02567 0.876338
-0.949401 -2.16086 0.749585
-0.716084 -0.838274 1.20355
-0.845972 -1.38618 0.301439
-0.556025 -2.59508 0.633673
-0.943697 -1.1778 0.728254
-0.479843 -3.33124 0.675609
-0.74734 -1.71215 2.191
-0.967395 -1.81688 1.22883
-0.336134 -1.44919 -0.0331758
-0.953048 -1.50747 1.26793
-1.01509 -1.6181 0.843527
-0.988521 -2.5382 2.47533
-0.257911 -2.6596 0.356486
0.0864769 -2.59483 0.667194
-1.19023 -3.10968 2.53071
-0.611991 -0.985201 1.74009
-0.99178 -1.15741 0.912489
-0.661404 -3.0071 0.838695
-0.428819 -1.25075 -0.00812048
-0.427159 -1.58446 0.221623
-0.895392 -1.56996 0.975546
-0.425611 -3.27175 1.18644
-0.74989 -3.54759 1.36638
-0.0282526 -3.41861 1.05463
-1.01333 -1.72793 0.529329
-0.999875 -1.66842 1.16699
-1.08258 -2.92895 2.22537
-0.300925 -2.62266 0.381694
-1.13834 -2.83437 2.02816
0.126279 -2.03131 0.458848
-0.986166 -2.74341 1.90853
-0.861604 -1.96142 0.836421
-0.83787 -2.68999 1.19192
-0.704448 -2.42491 1.26667
-0.140136 -4.20119 1.41093
-0.397754 -2.06226 0.250348
-0.316031 -1.88636 -0.0278923
-1.0866 -1.36397 0.862932
-1.07168 -1.71299 1.46896
-1.02252 -1.47916 1.0525
-0.490055 -1.92091 0.228405
-0.594608 -2.39406 0.39645
-1.12222 -2.19716 1.13488
-1.1548 -2.59729 0.785203
-0.912006 -1.69195 1.32582
-0.962392 -1.96679 1.06778
-0.303393 -3.64536 1.25214
-1.1246 -1.99959 1.22765
-0.646752 -0.748952 0.611618
-1.02291 -1.85307 1.58959
-0.859547 -1.04041 0.515071
0.188817 -1.95697 0.344803
-0.732475 -1.24926 1.77208
-0.472613 -3.00152 0.695726
-0.427454 -1.08239 0.341806
-0.475355 -1.50732 0.094915
-0.0226376 -1.52855 0.406442
-0.909743 -1.55637 0.930435
-0.0219699 -2.69156 0.696369
0.243444 -1.98599 0.477585
-0.825181 -1.42175 0.618435
-0.221428 -2.85107 0.451677
-0.866008 -1.29729 1.49557
-0.105769 -2.50469 0.675744
-0.831738 -2.13274 1.1993
-0.539029 -1.03018 0.00763185
-0.773599 -1.0708 1.37799
-0.953983 -2.2905 1.40439
-0.955465 -1.897 1.98014
-0.564133 -0.775493 1.54291
-0.880589 -3.55388 1.26414
-0.835218 -2.1491 1.11813
-0.961545 -2.046 1.96897
-0.685612 -2.22847 0.325574
-0.926795 -1.32357 1.23776
-1.00023 -2.95951 0.729486
-0.944731 -1.20635 0.994415
-0.564762 -0.726352 0.61812
-0.67532 -3.0371 1.45778
-1.08236 -1.78843 0.884273
-0.402185 -3.14334 0.611505
-0.698448 -2.68576 1.18792
-0.752869 -0.893989 1.0103
-0.362358 -2.84968 0.88263
-0.87452 -1.21958 0.742029
-0.979665 -1.65938 1.62324
-0.367398 -3.321 1.13896
-0.334108 -2.19402 0.43213
-1.04443 -3.08927 1.35281
-0.814153 -0.829733 0.552849
-0.565635 -2.11367 0.284885
-0.777654 -1.241 1.13058
-1.22375 -2.66168 1.24023
-0.238516 -3.16713 1.07183
0.0133177 -2.10494 0.561859
