ply
format ascii 1.0
comment Created by Open3D
element vertex 250
property double x
property double y
property double z
end_header
0.726969 -0.827267 -0.237008
2.43412 -1.82261 -0.148561
2.10314 -1.22655 0.191071
0.679281 -0.363107 -0.124752
1.47948 -0.280941 0.469293
0.823394 -0.42055 0.224519
0.957856 0.192081 0.407028
3.15112 -1.90667 0.932662
-0.278749 -1.20491 -0.506912
-1.35117 -0.456695 1.04104
0.52012 -0.00484886 0.105819
-0.835866 -1.1667 -0.61913
3.65056 -2.77702 1.07542
0.0519021 -0.675821 -0.461312
0.822118 -0.839081 -0.269241
1.93762 -1.05769 -0.149756
-1.01785 -0.431195 -0.189917
1.3206 -0.798324 -0.35894
-0.0959312 -1.48236 -0.91835
0.894439 -0.261151 -0.188913
1.60966 -1.9828 -0.659265
0.937546 0.548579 0.502622
-1.06159 -0.132485 1.09258
-0.354292 -0.0453167 0.583121
1.09885 -0.721473 -0.415928
0.223975 -0.936681 -0.525836
-1.48042 -0.59068 0.563248
0.314296 0.360475 0.653272
4.15101 -4.23805 1.27348
0.00154916 0.152041 0.441049
-1.263 -1.3549 0.239493
-1.25918 -0.347613 1.42023
-0.778223 -0.178869 0.155612
-0.479113 -0.185269 0.529775
0.12446 -1.02654 -0.500061
-0.682362 -0.189711 -0.024302
0.805541 -0.734815 -0.534444
3.82369 -4.13047 0.322145
3.44303 -5.06529 -0.113852
2.04144 -0.920198 0.0405119
4.61096 -4.76862 1.12065
-1.36242 -0.827269 0.0987906
1.61327 -0.791932 -0.207159
2.4185 -1.01055 0.241413
-0.966023 -0.410428 -0.178639
4.00626 -2.87712 1.02838
1.22078 -0.572408 -0.0998563
4.00096 -3.22611 0.792239
3.78069 -4.76448 0.165403
-0.598873 -1.07278 -0.609725
-0.38562 -0.101653 0.0217732
2.37145 -3.37705 -0.597459
3.9972 -5.44671 0.25133
3.39268 -3.46639 0.285588
2.13321 -0.588128 0.602803
3.29248 -2.22945 0.865861
-0.240112 -0.0870253 0.535809
-0.232085 -0.149977 0.195982
0.0158346 -0.67411 -0.200104
0.284791 -0.32637 -0.327193
4.85374 -4.22402 1.79974
3.63539 -3.45656 0.366081
3.77283 -2.89851 0.739157
3.57628 -2.46341 1.04144
0.921909 -0.370472 -0.260109
3.98738 -4.38762 0.517065
0.275616 -0.71839 -0.617968
1.32057 -0.87588 -0.312135
-0.761617 -0.438281 0.0553367
4.00663 -5.24299 0.276003
3.72297 -2.55485 0.766541
0.109115 0.106073 0.0545541
2.10992 -1.95196 -0.167685
-0.85218 -0.793558 -0.50288
0.327774 -0.443025 -0.0439399
-0.115929 -0.174632 -0.116142
3.34843 -2.7642 0.223152
4.68458 -4.10696 1.1097
-1.63335 -0.713783 0.261148
1.42942 -1.41284 -0.45835
-1.02203 -0.211407 0.643278
0.709513 -0.223964 -0.18538
-0.714998 -1.16604 -0.572764
0.643434 0.0546726 0.00448217
0.376423 -0.239024 -0.275962
0.238014 0.332604 0.387461
1.75842 -0.43284 0.43236
1.34344 -1.2412 -0.456647
-0.763739 0.250002 1.33745
0.868003 -0.61031 0.0502607
2.56778 -2.27312 0.100159
3.91877 -2.71386 0.981973
0.824166 -0.376942 -0.108051
0.146341 0.191369 0.272302
2.34759 -2.02361 -0.206519
0.649216 -0.187141 0.457489
0.418798 -0.173849 -0.128421
0.163333 -0.0564459 -0.126049
-1.41811 -0.391153 0.702281
1.02064 -1.59923 -0.791707
-0.95254 -0.682248 -0.399784
2.81723 -1.94502 0.0926108
2.40009 -0.912402 0.213371
-0.110186 -0.623822 -0.532881
0.781679 -1.0597 -0.467009
1.36993 -0.248842 0.0962598
1.18932 -1.38586 -0.632518
2.24982 -0.815614 0.724063
-1.5708 -0.520401 0.798645
2.81282 -2.32504 0.548453
1.43059 -0.883965 -0.287028
2.14333 -1.26533 -0.132603
1.1008 -1.8773 -0.771395
2.5961 -2.39959 0.028109
3.20887 -1.66549 0.424099
-0.590269 -0.978092 -0.415618
3.75581 -2.78856 1.08232
-2.04115 -1.2801 -0.0728252
2.32272 -1.12996 0.587606
3.0937 -3.46307 -0.0827184
2.58153 -2.42098 -0.211323
-0.966032 -0.131908 0.469884
2.73785 -1.18765 0.491948
3.92248 -4.1584 0.384688
-0.937691 -0.121961 0.405887
3.89217 -4.23009 0.341238
-1.27653 -0.601185 0.559721
-1.37583 -1.65794 -0.544161
-1.69435 -0.680267 0.34992
2.42197 -1.95143 -0.207307
-0.779812 -0.544093 -0.107686
1.07577 -0.974521 -0.547641
-0.769648 -0.665997 0.214091
3.95985 -3.43887 1.05433
3.88277 -3.63944 0.501887
-0.87243 -1.17114 -0.222688
1.05278 -0.168605 -0.0573671
1.38843 -0.0235612 0.12536
2.79199 -2.32872 -0.0667277
4.23993 -4.78641 0.582776
-0.606191 -0.142885 -0.00502363
2.6171 -1.28399 0.483968
1.17418 -1.79663 -0.72718
4.07153 -3.49759 1.25298
1.6821 -1.00183 -0.150727
2.71177 -1.68266 0.271679
0.245782 -0.475229 -0.460511
2.41805 -0.755589 0.245142
-0.703152 0.0523154 0.819963
4.30889 -4.37609 1.13101
4.37707 -4.97362 0.63307
2.90323 -1.77318 0.631756
-1.04222 -0.382153 0.0767968
0.164424 0.395613 0.516157
3.20302 -2.04646 0.340914
-0.878242 -0.654584 -0.00234661
-0.056948 -0.455006 -0.507476
1.64239 0.0220554 0.824354
-0.619723 -0.22002 0.104118
1.51615 -1.50688 -0.602509
-1.58494 -0.674421 0.158692
-0.374847 -0.116495 -0.0463909
-1.11804 -1.22262 -0.689892
2.28599 -1.37354 0.022962
-1.08801 -0.314521 0.119386
-0.793907 -0.0356603 0.452286
2.10589 -1.2392 -0.146124
3.45096 -1.73795 0.996741
-0.330514 -0.0344129 0.058414
2.93849 -1.98963 0.145086
4.24632 -4.94879 0.765051
2.76457 -2.72891 -0.104224
3.07526 -2.86981 -0.0101312
0.147113 -1.14487 -0.596443
1.15235 -0.311886 -0.100759
0.535676 -0.645204 -0.41399
1.24616 -1.06021 -0.531531
1.09903 -0.372799 -0.015245
1.72173 -1.22487 -0.298116
-1.62461 -1.68976 -0.580682
1.5342 -0.292981 0.131586
1.69252 -0.986583 -0.259437
2.26499 -1.44374 0.0419746
0.342829 -0.0284728 -0.100281
3.67941 -4.39362 0.208041
3.75267 -2.78697 0.73075
0.10382 -0.377195 -0.259957
-1.60326 -1.48745 -0.535163
-1.54339 -0.86903 -0.217369
2.89387 -2.81001 0.447507
-1.95237 -1.50096 -0.243705
-0.960554 -1.35175 -0.262827
-0.338539 -0.835026 -0.648478
3.86052 -4.42014 0.76577
3.45137 -3.71717 0.488836
-1.66258 -0.941748 -0.187003
2.19469 -1.48119 -0.182448
-0.910268 -0.293777 -0.0474312
-1.0017 -0.289711 0.282241
-0.292802 -0.160993 0.225105
-1.27107 -2.85161 -0.163245
-0.063596 -1.57747 -0.368492
-0.203191 -5.34469 -0.266854
-1.89126 -6.4633 -0.302928
-1.0483 -8.43524 1.31
-1.95587 -8.526 0.377361
-1.26941 -2.5717 -0.448129
-1.77387 -6.10285 -0.672427
-0.326496 -4.96049 -0.205101
-0.175876 -2.75743 -0.454691
-1.0158 -2.08377 -0.677335
-0.0271267 -3.28537 -0.0564366
-0.771635 -1.79956 -0.156524
-0.947333 -2.40179 -0.416873
-0.586563 -5.77028 -0.601875
-0.653668 -5.05533 -0.409985
-1.37755 -2.26974 -0.196485
-0.568153 -6.55491 0.203615
-1.75729 -4.87533 -0.0509185
-0.863446 -5.38651 0.201525
-1.3955 -8.4863 0.0551943
-0.935404 -2.37116 -0.390912
-1.92444 -5.32037 -0.130918
-1.68799 -3.96859 -0.0848835
-1.18742 -8.87924 0.292014
-1.5334 -9.04809 0.760993
-0.653869 -2.72307 0.00205872
-0.138126 -5.97819 -0.143751
-1.98336 -8.33642 0.0980413
-0.0994187 -1.5297 -0.50188
-0.708387 -6.76348 0.101361
0.235757 -1.12448 -0.0434143
0.0959386 -1.49892 -0.227249
-1.49318 -8.08736 0.806334
-1.58728 -7.25158 0.122087
-0.487377 -6.91864 -0.134991
-1.93419 -5.5432 -0.0808882
-2.4517 -5.07017 -0.74356
-1.63018 -3.80921 0.171691
-0.378448 -1.9442 -0.467485
-0.893525 -3.65234 -0.117065
-0.43901 -8.17601 0.583828
-1.83033 -6.6837 0.42092
-1.27896 -9.28795 0.893236
-0.590755 -4.01137 -0.582426
-1.79625 -7.39461 0.301574
-0.438674 -2.47816 -0.847635
-1.40852 -8.56103 0.116679
-1.5964 -8.5423 0.45457
-0.893729 -4.12674 0.031844
