ply
format ascii 1.0
comment Created by Open3D
element vertex 250
property double x
property double y
property double z
end_header
0.755509 0.627432 1.66561
-0.741403 1.38333 2.79095
-1.54932 0.963604 1.62512
-0.772333 0.340684 0.228488
-0.897528 0.773458 0.920218
-1.06426 0.226292 0.334915
-0.231696 0.663252 0.559229
-2.03421 1.20536 2.97206
0.776985 -0.248439 1.14548
0.330759 -1.70106 0.0740396
-0.32449 0.327395 0.210896
0.619972 -0.705236 0.544465
-2.49274 1.17481 3.83602
0.472795 0.126575 0.744987
-1.36823 0.22824 0.27074
-0.266591 1.32285 2.09246
-0.0394937 -0.95345 -0.490296
-0.572371 0.896832 1.11254
0.130829 -0.154449 0.896136
-0.182582 0.725899 0.677658
-0.677821 0.852584 2.14217
0.534291 0.901994 0.806076
0.625346 -1.29492 0.234055
-0.187791 -0.619477 -0.0990195
-0.420236 0.790924 0.962639
0.4707 0.214863 1.06705
1.24575 -1.43838 0.516252
0.101653 0.13306 0.275245
-3.32153 0.83545 4.97807
-0.0407307 -0.148732 0.0335811
1.66509 -1.27073 1.48239
0.618292 -1.68311 0.410416
0.825742 -0.610835 0.214808
-0.337523 -0.786317 -0.196972
0.609179 0.119134 1.17732
0.492191 -0.530369 -0.0126018
-0.631995 0.535109 0.5604
-2.19966 1.26257 5.0032
-3.13473 0.590128 4.69377
-0.950242 1.21812 1.66295
-2.9818 1.19925 5.94165
1.15207 -1.23569 0.541061
-0.603834 1.07895 1.36736
-0.984834 1.41843 2.08246
-0.0884006 -0.917789 -0.498646
-2.15999 1.54636 4.39339
-0.938021 0.689397 0.70523
-2.12602 1.53438 4.61066
-2.48052 1.01403 5.25563
0.582152 -0.48115 0.616748
0.740176 -0.206361 0.321412
-1.37335 0.852237 3.45237
-2.20709 0.99642 6.22781
-2.55094 1.04882 3.85605
-1.10909 1.12827 1.57958
-2.17337 1.21536 3.22941
-0.34196 -0.549833 -0.105415
-0.40741 -0.431327 -0.237732
0.980322 0.0996435 1.17937
-0.450627 0.174272 0.0391252
-2.99645 1.29455 5.93686
-2.17682 1.31379 4.31917
-2.108 1.47506 4.14976
-2.26707 1.28369 3.65193
-0.230655 0.732562 0.728035
-2.72495 1.11074 5.06838
-0.0142559 0.261315 0.543755
0.0751648 1.00007 1.6451
1.09446 -0.578376 0.591652
-2.2684 1.04859 6.02803
-1.87981 1.5891 3.98619
0.365944 0.1913 0.264795
-2.00694 0.774297 1.7837
0.512309 -0.668631 0.187755
-0.983575 -0.0747379 -0.0726677
-0.31187 -0.181059 -0.200348
-1.40387 1.54088 3.98153
-2.16418 1.68094 5.98468
0.83702 -1.57546 0.0969677
-0.0902223 0.93796 2.0102
0.246383 -1.17941 -0.124436
-0.298503 0.550033 0.430865
0.694186 -0.603404 0.70434
0.150555 0.608384 0.533693
0.151871 0.400304 0.468447
0.298645 0.218968 0.263169
-0.976298 0.961362 1.18667
-0.0953486 0.919697 1.79626
1.63547 -0.780472 0.926223
-1.23812 0.236341 0.335907
-2.19905 0.900819 2.38208
-2.06706 1.56761 4.23215
-0.774997 0.45353 0.352798
1.05768 0.31767 0.789309
-1.65892 1.05326 2.24349
-0.810385 0.111806 0.281209
-0.402033 0.266565 0.126518
0.26738 0.239078 0.298503
0.834429 -1.47268 0.167896
-0.428484 0.587919 1.49133
0.522062 -0.760482 0.069301
-1.28406 1.44287 2.91037
-0.754427 1.50126 2.1308
0.286465 -0.0080961 0.421303
0.345967 0.601507 1.52443
-0.535954 0.935665 0.898737
-0.337235 0.757938 1.56418
-1.37468 1.03793 1.73123
0.698491 -1.72204 0.114566
-2.41665 0.849731 2.65237
-0.96852 0.840035 1.02604
-0.779219 1.30451 2.0777
-0.293983 0.58549 1.89111
-2.21198 0.910914 2.47164
-0.774074 1.85017 3.4538
0.833954 -0.467916 0.799086
-2.41464 1.2771 3.98042
0.800547 -1.9831 0.113053
-1.59666 1.0027 1.84357
-1.18815 1.26701 4.41041
-0.872161 1.30549 3.29737
0.978535 -0.859031 0.277127
-1.25363 1.46359 2.39433
-2.03566 1.34935 5.24015
0.845878 -0.833964 0.170468
-1.93877 1.3402 5.32727
1.52316 -1.19969 0.865222
0.880979 -1.31114 0.780385
0.49656 -1.73439 -0.172687
-0.936915 1.30955 2.7328
0.942587 -0.594087 0.494041
-0.386004 0.750599 1.12972
1.48756 -0.640548 1.12094
-2.72693 1.17353 4.4635
-2.10045 1.42456 4.77063
1.16669 -0.784511 1.06939
-0.216138 0.829224 0.748937
0.224009 1.19116 1.25414
-1.01058 1.42388 3.3409
-2.55687 1.20468 5.7421
0.483002 -0.45911 0.00540614
-1.48035 1.27746 2.22857
-0.305365 0.654422 1.88724
-2.82082 1.14208 4.61804
-1.1766 0.910335 1.22911
-1.57708 1.29456 2.48281
-0.60577 0.11228 -0.0261939
-0.402214 1.63757 2.2653
0.414025 -0.852274 0.0761622
-3.13962 1.02956 5.27679
-2.29783 1.29809 6.20447
-1.88644 1.20122 2.64536
-0.101098 -1.08838 -0.477215
0.390208 0.141731 0.27343
-1.26173 1.63952 3.40558
-0.861299 -1.18013 -0.679162
-0.440239 -0.0841586 -0.173626
-0.644321 0.920985 1.10807
0.979383 -0.429564 0.450652
-1.02727 0.827097 1.44786
0.0240205 -1.6638 -0.504989
0.583849 -0.208555 0.205009
0.51459 -0.962001 0.28099
-1.30115 1.2028 1.98446
0.455655 -0.994797 -0.167643
1.0163 -0.661053 0.3398
-0.546757 1.34064 2.18166
-1.68285 1.57544 3.31792
0.703538 -0.160343 0.294943
-1.15693 1.53932 3.14854
-3.20749 0.925262 5.51785
-2.07967 1.03356 2.91301
-1.53792 1.33924 3.67725
0.478901 0.110519 1.16441
-0.423448 0.837836 0.784261
0.329247 0.501872 0.997669
-0.607295 0.810852 1.18398
-0.768011 0.654059 0.597275
-0.18746 1.16231 2.06695
0.792882 -1.54175 0.547577
-0.555202 1.04308 1.06009
-0.7549 1.06948 1.46671
-1.47452 1.11245 1.9183
0.229547 0.383944 0.392142
-2.68321 0.986379 4.74081
-2.01236 1.52116 4.10108
0.606192 0.21576 0.705542
0.750205 -1.4845 0.379687
0.618507 -1.39229 -0.0609089
-2.71958 0.729607 2.8772
0.908167 -1.88166 0.368563
1.17434 -0.902668 1.14754
0.304357 -0.222756 0.396533
-3.35607 0.735503 4.67624
-2.98646 0.825419 3.90359
0.639356 -1.52847 -0.0588626
-0.617414 1.33508 2.39104
0.246052 -0.809776 -0.270787
0.0322285 -1.08063 -0.345982
-0.399535 -0.498476 -0.255047
1.52128 -1.64213 2.49038
1.04337 -0.186908 1.86819
1.066 -1.62174 5.06548
1.19056 -3.41703 4.85116
2.25771 -3.8102 8.60379
1.48775 -4.39856 7.07737
1.19832 -1.49664 1.90505
0.864543 -3.10795 4.24322
1.22821 -1.5878 4.78231
1.05923 -0.642228 2.77386
0.858738 -1.09074 1.33955
1.49465 -0.764807 3.81018
1.4271 -0.878479 1.8923
1.21068 -1.17109 2.0188
0.731642 -2.02911 4.77312
1.06917 -1.85069 4.42399
1.41938 -1.54649 1.82666
1.47091 -2.45843 6.31966
1.59032 -2.78087 3.9684
1.71251 -2.26179 5.26181
1.1133 -3.8464 7.0597
1.23682 -1.15565 2.03051
1.48219 -3.06636 4.11871
1.60134 -2.39666 3.23243
1.22156 -3.87735 7.72858
1.68781 -4.33033 8.14252
1.67741 -1.10021 3.01473
1.08074 -1.83002 5.72202
1.27064 -4.2868 6.62346
0.847291 -0.189041 1.60788
1.35759 -2.63211 6.27321
1.34718 0.154268 2.0496
1.19182 -0.0493803 2.08184
1.91538 -3.93745 7.522
1.44129 -3.54776 6.1106
1.01955 -2.46861 6.23481
1.50825 -3.16597 4.34283
0.926021 -3.30001 2.86573
1.84567 -2.34787 3.41739
1.03241 -0.542994 1.90068
1.55524 -1.59856 3.50142
1.50124 -3.05386 7.99533
1.82356 -3.60763 5.83521
1.72371 -4.24055 8.61881
0.964453 -1.39204 3.42555
1.60495 -3.81735 6.26975
0.597294 -0.71098 1.85129
1.16044 -3.89884 7.17347
1.51569 -4.12006 7.40957
1.68095 -1.79505 4.06044
