ply
format ascii 1.0
comment Created by Open3D
element vertex 400
property double x
property double y
property double z
end_header
-1.52044 0.533913 0.904587
-3.48114 0.545489 -0.301741
-1.51848 0.697029 0.320516
-2.03254 0.148373 -0.838229
-2.45313 0.121133 0.96483
-2.0783 0.255791 0.652656
-1.40634 0.296306 -0.647661
-2.02228 0.673039 0.393493
-3.83912 0.253685 -0.526179
-4.2695 -0.0506473 -0.921221
-1.52792 0.138942 0.526602
-1.85 0.660001 -0.183021
-2.62851 0.335467 -0.719548
-3.22915 0.536504 -0.331024
-2.7584 0.536242 -0.408772
-1.46022 -0.0351031 0.877124
-1.43462 0.410094 0.629163
-3.71428 -0.106523 -1.07803
-0.912408 0.521053 -0.121987
-2.89444 0.0535899 -0.968036
-2.12581 0.690921 0.211617
-2.40154 0.68122 0.06223
-2.80645 0.53524 -0.424692
-1.76146 0.605196 -0.219483
-1.09892 0.449247 -0.220014
-2.419 0.468092 0.26162
-2.21387 -0.0440534 -1.02412
-3.52417 0.342797 0.391396
-2.14181 0.571754 -0.477932
-3.43796 0.313471 0.625851
-2.18826 -0.0848554 0.814036
-2.48782 0.591881 -0.41214
-1.59298 0.321721 -0.664454
-3.00387 0.571605 -0.368642
-1.70752 0.427452 -0.584989
-1.79847 0.553524 -0.415949
-3.79719 0.432365 -0.191693
-3.17251 0.478059 0.734149
-1.15532 0.67436 0.376263
-1.59924 0.244827 -0.726626
-2.37504 0.435539 -0.620534
-2.79649 0.352807 0.949947
-3.26893 0.346424 -0.658602
-2.41377 0.768283 -0.112108
-3.08908 0.702993 -0.136293
-1.22511 0.304786 -0.598471
-2.88839 0.482525 0.688107
-1.95565 0.750616 -0.251751
-3.897 0.131937 0.755172
-1.90591 0.758676 -0.19724
-4.08696 -0.12108 -1.0165
-1.49862 0.415063 -0.55946
-2.8918 0.102871 -0.940044
-4.09092 0.13065 -0.757877
-3.38916 0.162612 -0.823837
-2.16529 0.81314 0.447588
-2.14231 0.40821 0.876039
-2.34767 -0.175947 0.831578
-1.39731 0.660475 -0.135625
-1.59373 0.440847 -0.492611
-3.38348 -0.0851514 -1.0661
-2.59161 0.377629 0.886675
-1.60334 0.547519 -0.463732
-1.89371 0.111953 1.0194
-2.99956 0.204384 0.8071
-3.29448 0.211825 -0.79974
-3.43643 0.220103 0.679459
-1.97858 0.488892 0.142104
-2.61056 0.586058 -0.443273
-2.99724 0.507041 0.687759
-3.1739 0.284107 0.347204
-1.41697 0.224706 -0.701046
-1.86014 0.330374 0.336714
-4.2607 -0.17287 -1.05709
-3.17134 0.532258 -0.391603
-2.29016 0.295459 0.837872
-1.28211 0.497324 0.517043
-1.06689 0.400441 0.689544
-2.75047 0.643172 0.114768
-2.94598 0.328207 0.745581
-3.31202 0.410809 0.223352
-3.64098 0.298167 0.633267
-3.04952 0.767386 0.317839
-2.72619 0.468995 0.214772
-3.36424 0.560262 -0.324092
-1.17512 0.641342 -0.0613519
-1.70887 0.567085 0.36919
-2.9232 0.696766 0.0896249
-1.45344 0.557698 0.187233
-2.08245 0.18779 0.731437
-3.42099 0.716919 0.360223
-2.65013 0.613526 -0.289
-1.66969 0.33944 -0.661885
-3.0342 0.327736 -0.693445
-3.34045 0.437525 0.2539
-1.41315 0.573451 0.289645
-3.21245 0.505267 -0.28623
-1.77117 0.131384 0.712127
-3.36928 -0.0277888 0.914987
-2.93194 0.722161 -0.0402344
-2.82142 0.845919 0.484966
-3.06453 0.525736 0.00174531
-2.16988 0.257804 -0.785542
-1.83641 0.369763 0.454931
-1.40447 0.201578 0.182038
-2.68169 0.703558 0.390533
-3.29461 0.488663 -0.382183
-2.58892 0.378597 0.659747
-2.49439 0.667777 0.630555
-2.27754 0.244 -0.802157
-1.25926 0.483267 -0.21939
-3.04929 0.612629 -0.297521
-3.08441 0.285053 -0.731519
-1.70921 0.554255 -0.477121
-2.94503 0.332569 0.640684
-2.03988 0.400686 0.757624
-2.91624 0.432757 -0.546548
-3.08614 0.16932 -0.86584
-1.84674 0.111294 -0.83387
-3.03529 0.0975063 0.950266
-1.54277 0.566385 -0.400321
-1.25844 0.171459 0.813033
-2.61777 0.401376 -0.639661
-4.19887 0.00357948 0.825239
-3.83299 0.306231 0.308075
-1.47605 0.0449906 -0.850679
-1.84575 0.713583 -0.246737
-1.74375 -0.111051 0.8212
-3.54476 0.598841 0.300207
-1.25236 0.172301 1.02474
-3.71573 0.472523 0.412289
-3.79997 0.179474 0.547159
-1.63622 0.644522 0.506162
-1.2952 0.486583 -0.439929
-1.17984 0.610837 0.395136
-1.89672 0.789976 -0.0143251
-1.45772 0.52413 -0.144605
-2.93366 0.568092 -0.381384
-1.10679 0.464362 -0.0165473
-3.40148 -0.0306701 -1.02269
-2.56472 0.0491042 -0.949063
-0.81056 0.646787 0.313539
-1.19431 0.264463 -0.629443
-2.93772 0.343369 0.711943
-3.35221 0.554269 -0.191073
-2.83778 0.0947164 -0.913604
-3.19492 0.35826 -0.655834
-2.2316 -0.206008 -1.17615
-3.04695 0.650909 -0.197138
-3.27392 0.107447 0.621272
-1.52472 -0.101495 1.03291
-1.01844 0.673096 0.279973
-0.9464 0.538071 -0.0692331
-2.31006 0.546964 0.432773
-1.57905 0.385292 -0.591043
-3.70398 0.161092 -0.76098
-2.00618 0.0762352 -0.896607
-1.17713 0.246648 0.600836
-1.99992 -0.0672177 -1.01813
-0.929533 0.615269 0.500892
-1.30529 0.651484 0.0655843
-2.30459 0.184132 -0.853408
-2.06857 -0.0871603 -1.0453
-2.73008 0.553968 0.954356
-2.23793 0.551407 -0.298011
-2.08096 0.0410628 0.797865
-1.80166 0.0377645 -0.923839
-4.15443 0.0674807 0.848606
-1.27841 0.965763 0.678056
-2.25234 0.14759 -0.874862
-1.27564 0.445372 0.320415
-1.9177 0.292041 0.938444
-1.43065 0.615149 -0.180565
-1.22609 0.643978 0.259082
-2.48648 0.484345 0.636609
-2.13827 0.465981 0.362065
-2.49618 0.563949 0.304834
-3.15872 0.665244 0.168264
-1.52998 0.711349 -0.165349
-2.56901 0.476529 -0.539691
-2.15726 0.539676 0.104025
-2.10899 0.635996 -0.386077
-1.77332 0.691849 -0.295601
-2.93173 0.61353 -0.0983561
-2.7032 0.516525 0.539258
-2.93217 0.647814 -0.181784
-3.92141 0.234881 -0.662186
-3.87549 -0.118957 -1.06178
-0.996557 0.607953 -0.0892094
-3.77139 0.0331998 -0.896733
-1.33429 0.684824 0.750493
-1.06734 0.452459 0.0235741
-1.19086 0.292921 -0.607544
-2.99178 0.291397 0.73035
-3.29385 0.455555 0.608951
-2.92398 0.566908 0.493661
-2.69076 0.164948 0.946565
-1.92927 0.825506 0.233056
-3.52419 0.17084 -0.821769
-0.996666 0.53924 -0.0563556
-1.05794 0.615514 0.243197
-2.56344 0.587997 0.183465
-2.90061 0.618826 0.646916
-2.35415 0.428923 -0.625291
-3.01093 0.391668 0.379366
-3.21255 -0.0247431 0.96565
-3.46983 0.371512 0.829791
-2.09885 0.417604 -0.624337
-1.42905 0.875128 0.155336
-2.7031 -0.0149632 0.724553
-1.94636 0.249437 -0.774933
-3.58794 0.279918 0.631304
-3.19073 0.463388 -0.470607
-3.21628 0.118437 -0.881081
-1.04094 0.618554 -0.273571
-2.12178 0.240313 1.09153
-2.64738 0.421705 -0.624326
-4.03447 0.0855289 0.878726
-3.70335 0.431854 -0.154449
-1.17132 0.630066 0.226637
-3.17781 0.702269 0.384752
-2.46365 0.810394 0.0329171
-2.16613 -0.0265068 -0.990335
-2.7454 0.258332 0.356625
-2.6445 0.486445 -0.450957
-1.83704 0.584117 -0.279418
-2.26517 0.161101 0.934984
-2.48248 0.200086 1.01692
-2.6818 0.623318 -0.375254
-2.11108 0.459455 -0.569448
-2.61367 0.61846 0.373554
-2.61434 0.527011 0.363471
-2.25098 0.0206574 -0.970718
-1.90388 0.237859 0.935981
-2.41896 0.685624 0.49553
-2.7396 0.360175 1.22099
-3.67397 0.288375 0.997424
-1.24757 0.493683 0.327312
-1.61146 0.404076 -0.568316
-1.66896 0.73256 -0.178873
-2.24884 0.775075 0.333842
-3.29739 0.300535 -0.685729
-4.21409 0.0230767 0.634438
-2.10083 0.536553 0.54074
-3.61021 0.507331 -0.238726
-2.21774 0.629409 0.31448
-1.84346 0.705098 -0.0708257
-2.26254 0.710112 -0.330447
-1.33744 0.294842 0.671173
-2.73283 0.667959 0.459613
-0.946605 0.585964 0.286752
-3.81796 -0.0284444 0.951381
-1.37464 0.861071 -0.107127
-2.58643 0.519385 -0.321621
-3.53684 0.274975 0.479833
-2.19336 0.208291 -0.833298
-3.11517 0.237382 0.86023
-2.67281 0.0801227 -0.933904
-3.64694 -0.0365205 -1.01871
-1.69102 0.503841 0.177078
-1.72777 0.0387709 0.837394
-3.40079 0.412451 -0.051015
-1.35655 0.20931 0.821042
-2.10943 0.510625 -0.429253
-3.46315 0.212434 -0.781898
-3.50824 0.44589 0.677481
-2.37741 0.476272 0.528083
-3.50619 0.51719 0.312117
-2.74113 0.474326 0.485427
-3.03549 0.127247 0.972364
-1.39951 0.275981 -0.667174
-1.17158 0.82636 0.159704
-2.36268 0.601135 -0.331523
-3.88445 0.283219 0.622721
-2.66393 0.0209646 -1.0139
-3.87617 0.154309 0.882047
-0.9493 0.470938 -0.194426
-3.76628 0.0838989 0.945056
-3.61937 0.275826 -0.678329
-1.20498 0.691114 -0.237925
-2.29899 0.854056 0.235148
-1.89359 0.23902 0.690238
-3.43754 0.206305 0.530763
-2.21387 0.505524 0.323335
-3.38267 0.466041 -0.427713
-1.25149 0.351235 0.542703
-0.945224 0.813238 0.4141
-1.13484 0.810046 0.0856937
-3.27419 0.386843 0.371229
-3.89724 0.258655 -0.604545
-3.70492 0.275668 0.617377
-3.75248 0.43825 -0.431932
-2.61299 0.196702 0.835952
-1.96532 0.630456 -0.0779158
-3.52757 0.54856 -0.232375
-1.87505 0.142273 0.804381
-3.04411 0.606474 -0.299958
-3.85618 0.277514 0.272525
-1.66014 0.227852 -0.730997
-1.13883 0.372963 0.753998
-2.98215 0.664763 -0.175245
-1.21817 0.832436 0.364157
-3.00389 0.238934 -0.806543
-1.00166 0.477483 0.363927
-3.13272 0.393929 -0.608236
-2.37519 0.667263 -0.0856238
-1.44353 0.0253098 0.777424
-1.4969 0.578794 -0.0798681
-2.62968 0.455935 -0.581047
-1.54712 0.416477 0.374779
-3.35997 0.017116 -1.01153
-2.5594 0.327912 1.12952
-2.2659 0.68237 0.468184
-1.31283 0.299603 -0.605309
-2.04494 0.476754 0.628311
-1.9693 0.592928 0.284565
-3.5404 0.0204081 0.980472
-2.56231 0.0504645 -0.993399
-2.49436 0.179608 -0.844625
-4.1764 -0.206306 0.781458
-1.76107 -0.00577371 1.06698
-1.69673 0.0231392 0.499539
-3.12137 0.393373 -0.602321
-1.15544 0.40763 -0.433767
-1.51474 0.541058 -0.415469
-1.91233 0.739507 0.37984
-3.41738 0.4031 -0.566099
-3.84013 0.381118 -0.443838
-3.44225 0.0333247 -0.945237
-1.94137 0.586215 -0.0143011
-2.1436 0.566362 0.49701
-3.75421 0.325415 0.660362
-2.5389 0.123027 -0.929284
-3.60934 0.326332 0.580686
-1.87822 0.292996 -0.715359
-3.37464 0.617717 0.5094
-2.18486 0.773029 0.0612779
-2.97604 0.706517 -0.0605925
-2.69753 0.866836 0.0991471
-4.35838 -0.202882 -1.06006
-1.97519 0.35879 -0.673691
-1.73065 0.118896 -0.85656
-1.86127 0.163519 0.409145
-2.41948 0.101481 0.679433
-1.97116 0.399976 0.496795
-1.85524 0.437016 -0.571302
-2.38266 0.390418 -0.650965
-2.63496 0.573328 0.248738
-2.87603 0.486564 -0.223065
-2.17474 0.692807 0.586126
-2.32144 0.736363 0.271667
-3.78331 0.16025 -0.786346
-2.51654 0.482594 0.412271
-0.9907 0.601379 0.410137
-2.52515 0.355386 0.709598
-1.301 0.480783 0.256474
-1.77324 0.162461 -0.804546
-2.01798 0.130281 1.01905
-3.02984 0.241063 -0.802265
-1.07793 0.749729 -0.0392343
-1.42766 0.458941 -0.462934
-1.40058 0.593239 -0.400735
-1.89144 0.7165 0.355371
-2.61905 0.213451 -0.824965
-1.81576 0.256883 -0.728669
-1.61832 0.729741 0.153825
-2.76853 -0.00293629 -1.04038
-2.00024 0.0897377 0.831152
-2.44258 0.362574 -0.693125
-2.45522 0.855825 0.248283
-0.99448 0.445076 -0.259165
-1.70021 0.208409 0.835193
-2.73669 0.748926 0.360103
-2.75533 0.0725558 0.9258
-1.49208 -0.056794 0.99933
-3.85626 0.331002 -0.478964
-2.4424 0.835341 0.176671
-2.83418 0.323332 0.872002
-2.22822 0.434235 -0.578064
-1.8946 0.31473 0.670833
-3.14605 0.37881 -0.527503
-1.70558 0.284161 0.54872
-0.922835 0.723932 0.408366
-3.34065 0.68965 -0.103532
-2.1646 0.556451 0.250312
-3.13704 0.050953 -0.990535
-2.91998 0.739043 -0.113421
-1.35493 0.386113 0.65762
-2.89683 0.434798 -0.602032
-1.53024 0.603125 0.357915
-2.39265 0.161586 0.79553
-3.43944 0.322901 -0.660605
-2.12957 0.431105 -0.619626
-3.49492 0.523992 -0.0826484
-1.15208 0.299005 0.354898
-2.07454 0.42422 -0.599011
-1.64744 0.73523 0.621074
-3.14028 0.468863 0.117552
-3.23496 0.327474 -0.683444
-1.99305 0.429 -0.613446
