ply
format ascii 1.0
comment Created by Open3D
element vertex 400
property double x
property double y
property double z
end_header
-1.24047 -1.74881 1.16315
-1.95103 -1.49017 2.27034
-1.99074 -1.92014 2.07916
-2.14205 -2.28738 1.1932
-2.16668 -1.72673 2.32549
-0.563875 -1.02301 0.801962
-2.05289 -1.69179 2.27939
-1.12989 -1.01993 1.74118
-1.67106 -0.97141 1.91049
-0.966328 -1.51499 1.0849
-0.610769 -0.808176 1.24113
-1.38832 -1.87264 1.18516
-3.1384 -1.56787 2.65956
-1.64279 -1.8849 1.80513
-2.21412 -1.75194 2.32998
-2.24253 -1.93912 2.26565
-1.90256 -2.08064 1.31537
-1.54281 -1.94514 0.59001
-1.75067 -1.50468 2.25287
-2.50339 -1.04534 2.6127
-1.27178 -1.7852 1.08363
-0.821662 -0.473923 1.60849
-1.49338 -1.69054 1.95432
-0.970259 -0.684976 1.78778
-1.17079 -1.25591 1.57354
-1.63413 -2.04726 1.19058
-2.16841 -1.28163 2.38899
-1.92161 -1.689 1.96374
-1.3964 -0.379451 1.79312
-1.41177 -1.02354 1.99761
-1.22631 -1.65821 1.45452
-2.82147 -2.72581 1.21796
-1.26963 -0.960791 1.60721
-1.60858 -1.97441 1.35294
-1.62491 -1.90508 0.513631
-0.499622 -1.03244 1.20204
-2.01759 -0.94301 2.00753
-1.50295 -1.06291 2.23159
-1.03109 -0.987472 1.31599
-0.646807 -1.16524 0.612804
-0.818408 -0.631122 1.67625
-1.98043 -1.90467 2.01011
-2.03902 -1.76072 2.2093
-1.35442 -1.83668 1.11651
-0.964175 -1.43264 0.366847
-0.736244 -1.07896 1.25405
-1.34955 -1.59551 1.72024
-1.95664 -1.8949 2.15313
-1.13975 -1.69314 1.00766
-0.669716 -0.574605 1.28103
-1.97257 -1.00727 2.13214
-1.28004 -1.59406 1.66346
-1.08264 -1.44927 1.59212
-1.49173 -1.94532 1.144
-2.05385 -2.18559 1.78278
-2.23734 -2.34355 1.69224
-2.07786 -2.25975 1.52918
-0.213837 -0.661944 0.924733
-1.47303 -1.99465 0.79534
-0.691967 -1.24559 1.18204
-0.887497 -1.45847 0.656399
-2.55431 -2.58201 1.21884
-1.014 -1.49562 1.32441
-1.34159 -1.80725 1.30909
-0.662804 -1.23631 1.04087
-2.00742 -2.24099 1.47877
-0.816563 -0.725123 1.53379
-1.33955 -1.85379 0.374618
-1.09262 -0.82888 1.60273
-0.958024 -1.47063 0.838805
-1.23868 -1.57714 1.63584
-0.332731 -0.709495 0.974649
-2.0179 -1.339 2.07922
-1.89256 -0.716613 2.37446
-0.516346 -1.11178 0.894394
-2.12013 -2.32058 1.51935
-0.508376 -0.366463 1.16585
-0.832048 -0.438695 1.29601
-1.28513 -1.11991 1.74618
-1.66268 -0.825077 2.14097
-0.527262 -1.03758 0.956819
-1.27791 -1.13076 1.97961
-1.46015 -1.91922 0.966699
-0.571176 -0.839867 1.49192
-0.278563 -0.684857 0.743966
-0.875956 -0.937356 1.5929
-2.40177 -1.78006 2.39044
-2.02812 -1.11623 2.45186
-0.961685 -0.171924 1.27025
-1.81593 -1.92799 1.87092
-0.743172 -1.10246 1.50828
-2.87787 -1.4305 2.5326
-2.26505 -1.03733 2.10692
-0.845578 -1.44372 0.835072
-2.04306 -1.55817 2.3886
-1.90697 -0.634313 2.13004
-1.15802 -1.67488 0.882304
-3.10351 -2.81699 1.28253
-0.535013 -1.14157 1.09182
-0.912391 -1.50907 0.777206
-0.297468 -0.818675 0.951821
-1.01285 -1.22659 1.61629
-0.827822 -1.39124 0.902265
-0.511997 -0.566209 1.19649
-0.899054 -1.4601 0.454095
-1.29281 -1.57446 0.795851
-0.912083 -1.11976 1.71062
-1.69436 -0.723021 1.96721
-1.44484 -1.68979 0.286055
-2.00121 -1.04872 2.03222
-1.5526 -1.13085 1.86984
-0.761586 -1.30163 0.460002
-0.683502 -1.12544 1.00799
-1.68913 -1.81795 1.70118
-1.74452 -2.05502 0.593788
-0.867024 -1.28406 0.242947
-1.82446 -0.918807 2.27925
-0.555584 -1.10015 0.883676
-0.928855 -1.08842 1.4793
-1.48101 -1.70962 1.677
-2.13797 -1.35857 2.24691
-2.90047 -2.71941 1.34328
-1.08368 -1.65 0.98369
-1.12063 -1.66676 0.83777
-1.20611 -1.72649 1.08385
-0.865208 -1.02403 1.46883
-1.70721 -1.00454 1.87791
-0.454181 -0.795865 0.861494
-2.42331 -2.46274 1.3149
-0.880367 -1.46473 0.888843
-0.855223 -0.787602 1.68955
-2.16202 -1.5241 1.98682
-0.85329 -1.38833 0.92753
-1.13597 -1.35892 0.243776
-1.1946 -0.870634 1.69065
-1.25395 -1.75045 0.64058
-0.955354 -0.286403 1.25246
-0.527246 -0.731485 1.01259
-1.78485 -2.04272 1.17589
-0.798477 -1.31101 0.509349
-0.455829 -1.04271 0.516418
-1.29053 -0.579597 1.51163
-1.61986 -1.95562 0.687138
-0.657372 -0.927288 0.905293
-1.05322 -1.4991 0.175424
-2.34279 -1.13251 2.49112
-1.93731 -2.0552 1.90292
-2.86609 -1.39678 2.57425
-2.59187 -2.55964 1.11662
-0.574286 -1.06069 1.05124
-0.66552 -1.2789 0.984042
-1.59116 -2.0235 1.14783
-1.28175 -1.74865 1.02576
-1.14306 -0.398244 1.65968
-1.87149 -0.707518 1.94825
-2.5137 -2.50057 1.41702
-1.77939 -1.8049 1.9934
-0.546875 -1.13981 0.356206
-1.10932 -0.435785 1.56548
-1.36197 -1.43457 1.86357
-1.62641 -1.99405 1.41476
-1.25256 -0.117304 1.79641
-0.777659 -0.916367 1.45063
-1.50426 -1.84155 1.40279
-1.48135 -1.92958 0.717205
-2.50934 -1.71498 2.49707
-1.96327 -2.15395 1.54016
-0.437666 -0.269865 1.22011
-1.6109 -1.82797 0.777764
-2.68977 -2.5714 1.64123
-1.77901 -1.92383 1.85873
-0.950929 -1.52512 0.893597
-2.17651 -2.25408 1.7097
-1.39735 -0.556293 1.55576
-2.1667 -2.23465 1.82892
-2.33969 -2.25824 1.92461
-0.207651 -0.808363 0.78052
-0.593959 -1.05055 0.939605
-1.01362 -0.656746 1.26893
-0.798851 -0.829005 1.30096
-2.29176 -1.51465 2.56868
-1.82023 -1.97018 1.83618
-1.74017 -1.59086 2.21669
-1.80648 -1.9544 1.93985
-1.46353 -1.76853 0.573816
-0.764013 -0.79455 1.50261
-1.63361 -1.68019 1.93188
-0.600251 -1.12646 0.556139
-1.66582 -1.89305 0.924316
-2.3247 -1.39669 2.34394
-2.36248 -2.42805 1.6678
-2.23123 -1.62337 2.30763
-0.65993 -0.516697 1.10022
-0.431417 -0.761752 1.21605
-1.34412 -1.77212 1.47312
-3.09109 -2.83413 1.15716
-1.97709 -1.15009 1.7678
-2.06451 -1.79966 2.18425
-2.03339 -1.15791 2.32805
-1.27151 -1.53797 0.112278
-0.816688 -1.07704 1.68096
-0.512944 -1.04626 0.654054
-0.743697 -1.34982 0.946787
-2.53662 -1.30638 2.42648
-1.0281 -1.52091 0.365236
-0.740286 -0.26125 1.7134
-1.51329 -1.87197 1.5028
-2.83767 -2.75247 1.3421
-1.94598 -2.12647 0.6289
-1.39307 -1.5662 1.83644
-0.443673 -0.868693 0.636935
-1.47445 -1.75274 1.58782
-2.67504 -2.51552 1.71205
-1.98842 -1.87086 1.95558
-0.731615 -0.463992 1.58666
-1.80428 -2.04623 0.84008
-1.4117 -1.68741 1.63276
-0.932263 -0.83205 1.73125
-0.549398 -1.0644 0.907381
-2.31678 -2.03807 2.17592
-1.35995 -0.72387 1.93447
-0.605388 -0.403064 1.15222
-1.81301 -2.12627 1.32921
-2.06415 -1.41142 2.31449
-1.72762 -2.13201 0.578524
-2.11296 -2.19214 0.841193
-1.50697 -0.901345 1.94197
-2.19417 -2.40253 1.0157
-0.912034 -1.49898 0.919142
-1.72313 -2.0144 1.08515
-0.812087 -0.514226 1.3318
-2.46685 -2.52437 0.954142
-1.74596 -1.00228 1.9953
-2.31763 -1.82331 2.31919
-0.158533 -0.554587 0.901091
-1.09976 -1.55311 1.54295
-0.702664 -0.467647 1.56714
-1.07359 -1.57876 0.879484
-1.60557 -2.01425 1.04076
-1.40917 -1.72756 0.124184
-2.82199 -2.68206 1.10266
-1.3588 -1.72871 0.661228
-1.32087 -1.77246 1.39951
-1.37739 -1.78397 0.693971
-1.50633 -1.2365 1.78595
-1.74651 -1.95564 0.713361
-0.673338 -1.23001 1.06484
-2.0427 -2.35025 1.1163
-1.12353 -1.47999 1.21489
-0.888366 -0.743022 1.18895
-2.27839 -2.40644 1.56504
-2.19396 -2.26662 0.972068
-0.753218 -1.09977 1.36437
-1.83361 -2.07466 0.894566
-2.56946 -2.47206 1.17523
-0.687617 -1.18391 1.38799
-0.986363 -1.31453 1.50824
-2.01574 -2.23245 1.35694
-2.26964 -1.53743 2.54873
-1.00359 -1.57676 1.05666
-1.47328 -1.79815 1.71016
-0.977181 -0.934114 1.41885
-2.23182 -1.32584 2.18478
-0.789343 -1.36904 0.950156
-1.7108 -1.44439 1.87685
-1.38377 -1.62682 0.371191
-1.72597 -1.9255 1.88429
-0.644426 -1.19747 0.589936
-0.714189 -0.517623 1.84887
-1.48098 -1.95305 0.671897
-0.786564 -1.13219 1.27906
-0.968349 -1.44341 0.520338
-2.42425 -2.3624 1.22101
-1.2815 -1.5032 -0.036758
-1.77266 -1.91826 1.75737
-1.52861 -1.82758 1.78366
-0.289601 -0.851838 0.564044
-1.06296 -1.63166 1.03946
-0.719812 -1.01774 1.13247
-0.841353 -1.44576 0.881226
-1.13864 -0.905055 1.48523
-1.08203 -0.19294 1.48925
-1.90413 -1.571 2.04263
-0.316731 -0.702641 0.777079
-1.51919 -1.95595 1.24046
-0.924521 -1.37721 1.29306
-1.59176 -1.88157 1.18704
-0.746614 -1.35153 0.895045
-0.771591 -1.3614 1.13171
-2.62694 -1.40092 2.52464
-1.087 -1.24495 1.65997
-1.19751 -1.0682 1.94938
-1.63105 -1.94358 1.54284
-2.06816 -2.06903 1.89608
-1.60981 -1.21583 2.32005
-0.381352 -0.376123 1.22661
-2.03068 -0.78124 2.21389
-2.2451 -2.39766 1.02993
-1.52081 -1.98698 1.06864
-0.568221 -1.1823 0.523073
-2.29706 -1.52933 2.26982
-1.85307 -1.76207 1.95278
-0.334369 -0.942231 0.762009
-1.00543 -1.55921 1.03182
-0.699703 -1.20864 0.33504
-1.31292 -1.82213 1.13947
-0.818051 -1.4303 0.888217
-2.69331 -1.41047 2.49266
-0.615633 -1.14651 1.01444
-0.886714 -1.45504 1.17874
-0.722883 -1.22348 0.484649
-1.88774 -1.76674 2.11181
-0.544981 -1.09624 0.86803
-1.03958 -0.569385 1.07742
-0.810416 -0.735232 1.58896
-1.30518 -1.68325 1.65448
-1.62973 -0.649045 1.71797
-2.28436 -2.4427 0.944934
-1.25594 -1.56284 0.25607
-1.85539 -2.16452 1.10254
-1.68698 -2.02918 1.46511
-2.15533 -2.33245 1.02961
-0.921301 -0.885569 1.47577
-3.06653 -2.73533 1.4975
-1.67766 -0.929778 2.04742
-1.39597 -1.66183 1.78163
-1.84166 -1.16059 2.4415
-0.93229 -0.262954 1.7082
-1.42851 -1.85952 0.963067
-1.54295 -1.31053 2.09441
-1.9897 -2.18987 1.59857
-0.437354 -0.855036 1.07141
-2.7608 -2.63078 1.59128
-1.56928 -1.84994 0.42979
-1.09749 -0.473388 1.35048
-0.430001 -1.05032 0.756794
-1.11659 -1.49776 0.298381
-0.742663 -1.33789 0.489977
-0.353743 -0.92892 0.64493
-1.82679 -1.71383 1.99474
-1.85892 -2.25594 1.06034
-2.07493 -0.966702 2.18394
-2.08567 -2.13801 2.00163
-0.773825 -1.00447 1.1597
-1.16399 -1.30055 1.35568
-1.72226 -1.83194 1.73336
-1.30485 -1.4551 1.80708
-2.11513 -1.50688 2.53239
-1.5374 -1.98504 1.20465
-3.07755 -1.36516 2.80965
-1.10744 -0.173407 1.69655
-1.59644 -1.00039 2.04691
-0.0844829 -0.589161 1.07571
-2.20907 -2.24617 1.8567
-1.45926 -1.84903 1.42479
-1.08704 -1.50326 0.478562
-1.2397 -0.918441 1.44533
-0.821197 -0.653481 1.21677
-0.702946 -0.553992 1.39754
-1.13892 -0.970471 1.81526
-1.8133 -0.706757 1.85263
-0.492509 -0.742479 0.750223
-1.83976 -2.10185 1.54367
-1.22549 -1.63469 0.571227
-0.566684 -0.574065 0.863879
-2.21449 -2.24277 1.16862
-1.01309 -1.52151 0.553425
-1.26957 -1.57061 1.78471
-1.96755 -2.15183 1.63821
-2.55594 -1.58752 2.55887
-0.654633 -0.548919 1.17099
-0.425999 -1.0483 0.975492
-2.01495 -2.22695 1.18766
-0.685998 -1.30157 0.898252
-0.966977 -0.820449 1.20343
-1.20255 -1.72426 0.760089
-1.36145 -1.73409 1.46235
-2.12497 -1.38263 2.07441
-2.30333 -2.36985 1.73626
-1.11397 -1.39745 1.71351
-1.30634 -0.119212 1.63873
-0.978468 -1.37194 1.55107
-0.510285 -1.13419 0.903463
-2.85779 -2.64524 1.40466
-2.01661 -1.88697 2.3147
-2.10043 -1.83982 2.17427
-1.87091 -2.0291 1.86358
-1.42603 -1.86498 1.35293
-0.83503 -0.516855 1.19956
-2.28322 -2.06043 2.09794
-1.66947 -1.99059 0.923634
-2.17309 -2.33079 1.52121
-1.84938 -2.02341 1.78728
-2.5967 -1.71557 2.31194
-1.42066 -1.44784 1.8504
-1.49775 -0.894646 1.95354
-1.9082 -2.13104 0.81982
-1.1558 -1.47322 1.67792
-1.07227 -1.60276 1.20477
-1.5804 -2.03542 1.13071
