ply
format ascii 1.0
comment Created by Open3D
element vertex 400
property double x
property double y
property double z
end_header
-0.547317 2.36465 0.610386
-1.07212 2.68838 1.80442
-1.02409 2.97521 1.49884
-0.230348 3.25023 0.984252
-1.08717 2.96505 1.85302
-0.872791 0.952181 0.185549
-1.07067 2.90052 1.77624
-0.993223 1.76789 1.18437
-1.07838 1.80352 1.606
-0.863928 1.73596 0.404427
-0.862938 1.18637 0.65137
-0.75421 2.30359 0.585878
-1.1328 3.09464 2.70022
-0.782674 2.90735 1.1899
-1.10113 2.9808 1.86654
-1.06838 3.13639 1.758
-0.0651731 3.33083 1.09435
-0.286084 2.24906 0.327179
-0.977242 2.78031 1.70515
-0.908325 2.74971 2.62533
-0.568116 2.30071 0.542845
-0.76624 1.31618 1.23327
-0.793421 2.85143 1.3082
-0.83835 1.6344 1.33449
-1.09077 1.73868 0.938908
-1.11518 2.12267 0.529747
-1.05179 2.61883 2.11608
-1.22899 2.42376 1.41084
-0.773595 1.39898 1.73086
-0.988796 2.03236 1.53666
-0.849766 2.26296 0.772153
-0.362467 3.58131 1.13401
-1.08782 1.48018 1.15366
-0.465801 2.86155 0.8824
-0.0018787 2.41684 0.422202
-0.64427 1.59022 0.52879
-1.08214 1.86841 1.88225
-0.911058 2.38344 1.77456
-1.10313 1.20033 0.78096
-0.922691 0.855357 0.00416857
-0.80517 1.5022 1.20021
-1.10479 2.80999 1.42095
-1.08651 2.88351 1.67814
-0.521175 2.43201 0.605197
-0.0577592 1.74173 0.143458
-0.923861 1.40915 0.587779
-0.967167 2.34858 1.03587
-0.929245 3.11879 1.57923
-0.900662 1.80013 0.347048
-0.833327 1.0223 0.82978
-1.05297 2.08644 1.93424
-0.910238 2.34729 0.97284
-0.867402 2.17399 0.889023
-0.610958 2.47836 0.623559
-0.559778 3.40859 1.33261
-0.878557 3.15723 1.18923
-0.527844 3.26109 1.12621
-0.55305 1.03363 0.355095
-0.757608 2.03238 0.274329
-0.7075 1.72013 0.501689
-0.306313 1.80856 0.234144
-0.410144 3.3907 1.03846
-0.859755 1.96027 0.625862
-0.615924 2.50041 0.730106
-0.721414 1.55577 0.376298
-0.646012 3.07375 1.01934
-0.876138 1.38277 1.02368
-0.498141 1.73026 0.0228672
-0.989202 1.44241 1.14475
-0.103234 2.20621 0.473351
-0.891327 2.32165 0.942577
-0.682848 1.0013 0.395599
-1.19432 2.2239 1.72251
-0.810107 2.28097 2.2874
-0.624523 1.38165 0.270365
-0.850948 2.98898 1.01066
-0.702793 0.829522 0.788582
-0.82466 0.910043 0.994505
-1.07143 1.79465 1.20279
-0.923594 2.04245 1.89557
-0.770879 1.22352 0.311351
-0.954732 2.15563 1.41186
-0.469056 2.41686 0.526448
-0.752903 1.57888 0.844582
-0.637329 0.791493 0.213296
-0.918228 1.61203 0.992239
-1.1406 3.0299 1.99054
-0.947007 2.62108 2.19649
-0.695336 0.746836 1.20778
-0.996426 2.80248 1.24748
-0.808131 1.80261 0.814634
-1.13258 2.83051 2.52184
-1.11392 2.03033 2.04154
-0.41697 1.86182 0.320645
-1.02201 2.92476 1.93146
-0.863248 1.9011 2.12649
-0.331301 2.22588 0.450771
-0.15999 3.93953 1.36177
-0.503036 1.73036 0.4587
-0.893913 1.39236 0.13002
-0.571481 1.19902 0.344869
-0.957189 1.88569 0.941674
-0.195992 2.09751 0.457481
-0.772659 0.990045 0.701379
-0.318451 1.59574 0.0793641
0.320441 2.69075 0.711924
-0.862303 1.96808 1.03832
-0.947727 1.7425 1.81701
0.195509 2.17135 0.308485
-1.11768 1.96327 1.8331
-1.11624 1.88445 1.4254
-0.143966 1.61766 0.136452
-0.924945 1.20848 0.347213
-1.16207 2.35706 1.04363
-0.197631 2.45118 0.41897
0.103066 1.63008 0.113334
-0.928852 2.26921 2.04686
-0.76722 1.21661 0.243087
-0.992093 1.57562 0.841201
-1.04201 2.34461 0.998648
-1.13927 2.46621 1.92665
-0.244182 3.81851 1.31495
-0.579228 2.05446 0.420373
-0.423364 2.08117 0.370061
-0.966654 1.84369 0.406024
-0.958744 1.53412 0.838147
-1.11191 1.77054 1.57482
-0.809486 0.847873 0.294798
-0.304967 3.47267 1.12884
-0.86357 1.49001 0.22866
-0.854608 1.62254 1.14389
-1.31869 2.19222 1.60615
-0.0906402 2.22522 0.526021
0.447032 2.04973 0.337348
-1.00499 1.55629 1.24455
-0.332977 2.05805 0.281497
-0.772385 0.766477 1.11401
-0.848256 0.895823 0.468377
-0.150324 3.06828 0.911992
-0.0464776 1.77388 0.221776
-0.578053 0.981075 -0.00889897
-0.952694 1.13853 1.30717
-0.150307 2.49245 0.483194
-0.977707 0.854873 0.326363
-0.116015 1.55851 -0.0046756
-0.984757 2.63887 2.37948
-0.833192 3.12492 1.33327
-1.09704 2.87398 2.57427
-0.209375 3.46689 1.0544
-0.801866 1.31006 0.389697
-0.382885 1.88006 0.422988
-0.668022 2.50331 0.627203
-0.28673 2.48769 0.610254
-0.785885 1.27204 1.47664
-0.965631 1.69013 1.90051
-0.303503 3.61408 1.24059
-1.0059 2.79241 1.37496
-0.48267 1.01334 -0.0964556
-0.825347 1.17592 1.35568
-1.00691 2.29123 1.21371
-0.623599 2.78521 0.88052
-0.589521 1.32419 1.83248
-0.911518 1.45548 0.840101
-1.12623 2.11811 0.712515
-0.389614 2.25717 0.365822
-1.11561 3.09644 2.16934
-1.20301 2.4911 0.90366
-0.622503 0.86747 0.861364
0.205798 2.81153 0.720312
-0.341584 3.87105 1.46601
-0.948437 2.83412 1.23511
-0.390482 2.02823 0.395136
-1.14915 2.81464 1.12331
-0.944627 1.16743 1.41287
-0.94655 3.11702 1.28387
-1.13962 3.04323 1.37995
-0.247452 1.34143 0.271735
-0.86998 1.12017 0.296887
-0.991016 0.934662 0.920774
-0.961356 1.1686 0.759539
-1.00043 3.0829 2.2334
-0.946302 2.86005 1.2199
-0.956589 2.85095 1.63899
-0.766711 3.12754 1.35725
0.0787137 2.42106 0.468181
-0.87582 1.42134 0.939473
-1.03458 2.57749 1.29496
0.0410775 1.72368 0.261219
0.124338 2.94171 0.808118
-1.13696 2.60368 2.08729
-0.726174 3.36967 1.2493
-1.1515 2.77951 1.90073
-0.840551 0.776362 0.708499
-0.727775 1.25003 0.59822
-0.535206 2.71003 0.900136
-0.18606 3.80523 1.24189
-1.26643 1.65146 1.5218
-1.10388 2.88003 1.64949
-1.02386 2.4621 2.0601
0.207495 1.85774 0.151904
-0.810462 1.94754 0.999176
-0.778744 0.921565 0.0628911
-0.665473 1.63114 0.314259
-1.10482 2.62804 2.31825
-0.180086 1.70606 0.0979852
-0.616067 1.35858 1.41438
-0.38523 2.98954 1.01842
-0.506679 3.58789 1.18061
-0.0227064 2.73266 0.579983
-0.958567 2.44407 1.16558
-0.795408 0.710221 0.086877
-1.05025 2.29031 0.903906
-0.19456 4.033 1.58516
-1.1942 2.63224 1.36982
-0.739976 1.31068 1.18005
-0.0608845 2.82543 0.689947
-1.00925 2.31091 0.947081
-0.881526 1.68178 1.18952
-0.794544 1.17724 0.265483
-1.1353 3.07869 1.66293
-0.903998 1.75434 1.62242
-0.759474 0.795807 0.796352
-0.52914 2.92634 0.886757
-1.08681 2.63911 1.93141
-0.485444 2.22509 0.270826
0.0805512 3.11388 0.838831
-1.00351 1.83981 1.59634
-0.466019 2.95221 0.747787
-0.437495 1.98063 0.390403
-0.166458 2.93309 0.815712
-0.848862 0.997168 0.969298
-0.285199 3.19331 0.852036
-1.07014 1.92744 1.70122
-1.14145 3.00105 1.86954
-0.520602 0.935077 0.365599
-0.682755 2.4133 0.872462
-0.736841 1.29794 1.14847
-0.187607 2.27064 0.491997
-0.469485 2.58553 0.620068
-0.0117457 1.84 0.0802657
-0.168954 3.61576 1.12694
-0.00609971 2.38384 0.469383
-0.718121 2.45385 0.771729
-0.135964 2.34198 0.438232
-1.15846 1.86398 1.27382
0.0951343 2.76414 0.651369
-0.756972 1.53789 0.392061
-0.741564 2.72498 0.67817
-1.1448 1.55008 0.516821
-1.00485 0.927125 0.746887
-0.761362 3.21012 1.12235
-0.00437883 3.23431 0.923405
-0.887937 1.5762 0.684476
-0.0953849 2.87384 0.724195
0.00636433 3.65365 1.19627
-0.699798 1.8721 0.689016
-0.940083 1.88269 0.809251
-0.416943 3.17244 1.00692
-1.00537 3.08079 2.19397
-0.589292 2.04413 0.46297
-0.727662 2.78065 1.08067
-1.03322 1.31975 0.877614
-1.18532 2.3253 1.93
-0.808987 1.51021 0.287145
-1.20961 2.11163 1.34537
0.267444 2.26546 0.39251
-0.718786 3.09101 1.29869
-0.0735358 1.71387 0.242626
-0.675999 1.69049 1.36952
-0.47752 2.14743 0.291778
-0.943493 1.46775 0.604242
-0.0342578 1.92949 0.267109
0.0698849 3.65329 1.22229
0.250719 1.71716 0.071698
-1.07969 2.59594 1.11372
-0.583301 3.02794 1.20069
-0.448547 0.967335 0.0649966
-0.699989 1.97114 0.421796
-0.966064 1.18415 0.498977
-0.481762 1.84523 0.332349
-1.06889 1.3214 1.019
-0.688414 0.993779 1.43569
-1.19059 2.42303 1.52806
-0.680936 0.798784 0.237755
-0.672805 2.5236 0.688559
-0.916132 1.75413 0.588268
-0.0228681 3.04573 0.928859
-0.714933 1.53164 0.259215
-0.589305 1.90381 0.491703
-1.09311 2.83245 2.40449
-0.988395 1.91653 0.997693
-0.93106 2.08652 1.38044
-0.973775 2.51264 0.892796
-1.11333 2.85177 1.30353
-0.911132 2.62476 1.83212
-0.640461 0.962267 0.781694
-0.920905 2.07423 2.17397
-0.337093 3.09049 0.830164
-0.686155 2.36947 0.538222
-0.498082 1.20729 0.020094
-1.19526 2.60388 1.93607
-1.15727 2.55759 1.35475
-0.39128 1.31296 0.219991
-0.377518 2.21352 0.520565
-0.0571156 1.48657 0.0759066
-0.762594 2.19901 0.5295
-0.592415 1.7261 0.296567
-1.12408 2.77905 2.4018
-0.790441 1.37051 0.34863
-0.654526 1.97925 0.527717
0.0313877 1.73952 0.225933
-1.04656 2.83199 1.53007
-0.752362 1.21191 0.231719
-0.992388 0.654421 0.825991
-0.858421 1.46577 1.06409
-0.724017 2.61371 0.998892
-0.982374 1.38464 1.61131
-0.381319 3.00632 0.751314
0.164747 1.98365 0.229645
-0.420843 2.84622 0.751984
-0.869535 2.62476 0.857876
-0.303443 3.05862 0.821143
-0.978416 1.38292 0.930628
-0.0591033 4.17372 1.57714
-1.00708 1.97012 1.75723
-0.872403 2.57105 1.10905
-0.916852 2.68523 2.07606
-0.659195 1.31196 1.50078
-0.30137 2.52122 0.587105
-1.01091 2.39404 1.54616
-0.544223 3.24421 1.15808
-0.73994 1.1865 0.443424
-0.379073 3.84299 1.42732
0.034156 2.31388 0.363463
-0.895124 0.928745 1.14352
-0.365681 1.44143 0.227489
0.0748492 1.87099 0.186842
-0.374833 1.45304 0.0588891
-0.528283 1.04557 0.102169
-1.13167 2.5769 1.40289
-0.907012 2.40928 0.524096
-1.02724 2.1234 2.05691
-0.546065 3.59358 1.54523
-1.00285 1.16133 0.543803
-1.18187 1.47436 0.717266
-1.15723 2.40807 1.08185
-0.982221 2.27996 1.13739
-0.959359 3.0799 2.1254
-0.826721 2.36297 0.60833
-0.975779 3.19904 2.92517
-0.634459 1.2355 1.63606
-1.01361 2.03369 1.67832
-0.382302 1.28257 0.488802
-0.979794 3.12308 1.31266
-0.954575 2.31924 0.756526
0.0488731 2.0307 0.299226
-1.1199 1.24387 1.021
-0.937964 0.932291 0.79367
-0.812586 1.13894 0.954055
-0.958874 1.82686 1.28002
-0.992176 1.56721 1.78657
-0.856346 0.636357 0.238872
-0.525766 3.11975 1.07941
-0.0199965 2.18592 0.365006
-0.853146 0.584798 0.444678
0.0679997 3.47939 1.12065
-0.173933 1.901 0.237037
-0.809878 2.54544 1.10366
-0.431787 3.35825 1.22989
-1.08923 3.05716 2.30883
-0.839408 0.880502 0.746112
-0.381657 1.64214 0.390248
-0.297688 3.11692 0.916255
-0.40369 1.79613 0.350895
-1.0602 0.963679 0.748268
-0.387788 2.09656 0.340124
-0.992448 2.20399 0.772027
-1.23372 2.22333 1.74496
-0.923667 3.18245 1.233
-0.885005 2.22595 1.01789
-0.631027 1.12691 1.72577
-0.837998 2.08501 0.844757
-0.337658 1.7 0.355816
-0.102553 3.94734 1.41806
-0.821797 3.37987 1.77501
-1.11441 2.89968 1.63986
-0.798531 3.09415 1.28946
-0.767524 2.45039 0.735471
-0.884458 0.831959 0.866967
-1.16177 2.9966 1.56565
-0.173929 2.7403 0.669832
-0.588365 3.26363 1.12056
-0.922544 2.88814 1.18151
-1.27098 2.75653 2.02388
-1.05614 2.2421 1.21384
-0.994265 1.85392 1.60624
-0.113755 2.8371 0.675747
-0.880345 2.27079 0.980403
-0.792263 2.01526 0.538279
-0.915812 2.25031 0.523293
