ply
format ascii 1.0
comment Created by Open3D
element vertex 250
property double x
property double y
property double z
end_header
-0.147944 0.0515135 -0.881564
-1.22911 -2.0055 -1.42773
-1.24903 -2.24283 -0.66747
-0.413785 -1.06349 -0.26908
-0.463896 -1.17782 0.0846625
-0.67113 -1.14762 -0.0575532
0.0932562 -0.395999 0.305395
-2.0503 -2.71208 -0.683056
-0.527652 0.382261 -1.18175
-0.862563 1.60195 0.463988
-0.0704671 -0.45534 0.0543276
-0.619607 0.464865 -1.13931
-2.87701 -3.28163 -1.13827
-0.179255 0.0245066 -0.803672
-0.941529 -1.73256 -0.589066
-0.530671 -1.33728 -0.954196
-0.476816 0.337071 -0.273433
-0.479833 -1.39728 -0.800535
-0.812851 -0.511593 -1.53865
-0.0439436 -0.732551 -0.36055
-1.29926 -1.87823 -1.76685
0.631537 0.311388 0.477329
-0.457344 1.74261 0.625488
-0.384495 0.403276 0.407144
-0.380787 -1.19623 -0.785264
-0.332203 -0.117882 -1.0312
-0.46939 2.08926 -0.0501458
0.146785 0.364882 0.590085
-4.33469 -4.1423 -1.88057
-0.054231 0.259829 0.380931
-0.758626 2.07248 -0.834835
-0.786101 2.03911 0.716883
-0.0258305 1.15117 -0.0566969
-0.556764 0.304048 0.32139
-0.378265 0.0565657 -1.08292
-0.0793543 0.716269 -0.135657
-0.483709 -1.29713 -0.801624
-3.5354 -3.68446 -2.54656
-4.54869 -4.57454 -3.23151
-0.733022 -1.81155 -0.651611
-4.4859 -4.22355 -2.42317
-0.503277 1.64158 -0.492846
-0.487757 -1.47116 -0.729732
-0.82123 -1.90306 -0.621292
-0.473566 0.279784 -0.251322
-2.74641 -3.22726 -1.32482
-0.552627 -1.46347 -0.424157
-2.92615 -3.36679 -1.70206
-4.09791 -4.02095 -3.0036
-0.519135 0.325513 -1.09435
0.123676 0.801134 -0.122851
-2.55527 -2.84822 -2.6026
-4.52642 -3.88522 -3.45537
-3.2086 -3.74386 -2.03868
-0.716705 -1.60537 -0.0707803
-2.3098 -2.95404 -0.926895
-0.438478 0.188652 0.361578
-0.389019 -0.0918396 0.116935
-0.0847541 0.622134 -0.713499
-0.26087 -0.734897 -0.377596
-4.25991 -3.89121 -1.67223
-3.04186 -3.51125 -2.06799
-2.68183 -3.25657 -1.5016
-2.54278 -3.06946 -0.984822
-0.118366 -0.836526 -0.471159
-3.9813 -4.07641 -2.52615
-0.301608 -0.585068 -0.879123
-0.310393 -0.847674 -0.921951
-0.0896454 1.28255 -0.330164
-4.39523 -3.91394 -3.30051
-2.34049 -3.01342 -1.29349
0.224827 0.280905 0.0328247
-1.86952 -2.88253 -1.28827
-0.409473 0.479053 -0.807905
-0.652333 -1.00834 -0.196392
-0.237544 -0.277008 -0.123213
-2.19687 -2.80322 -1.80064
-3.62945 -3.57671 -2.14095
-0.642575 1.63433 -0.23773
-0.72735 -1.156 -1.34545
-0.49519 1.12129 0.347092
-0.0942053 -0.729019 -0.295151
-0.585149 0.494077 -1.1352
0.218235 -0.196896 -0.0593342
0.0376586 -0.257232 -0.393781
0.282273 0.388426 0.383212
-0.549904 -1.41291 -0.0558265
-0.609418 -1.10775 -1.22345
0.199756 2.58509 0.833329
-0.817157 -1.43246 -0.266933
-2.21078 -3.1092 -1.34887
-2.58043 -3.1307 -1.25355
-0.405105 -1.12838 -0.283675
0.48556 0.966039 0.112255
-1.73523 -2.74976 -1.44024
-0.504946 -0.692782 0.219131
-0.168321 -0.626932 -0.177685
0.133354 0.0491702 -0.175886
-0.507245 1.82539 0.222389
-0.959729 -1.44849 -1.57498
-0.373152 0.609591 -0.66164
-1.55086 -2.48561 -1.31416
-0.648234 -1.72139 -0.60968
-0.213303 -0.0883836 -0.767577
-0.396097 -0.466889 -1.11777
-0.185028 -1.07148 -0.1729
-0.78176 -1.34641 -1.37147
-1.02158 -1.81039 -0.112692
-0.725085 1.84904 0.238609
-2.45251 -3.11956 -1.09476
-0.705356 -1.72979 -0.7612
-0.860246 -1.85328 -1.02045
-1.12172 -1.38004 -1.77103
-2.28491 -3.18658 -1.47661
-1.18118 -2.04271 -1.05078
-0.416164 0.654949 -0.951838
-2.83933 -3.26762 -1.1656
-1.06084 1.56687 -0.758903
-1.2935 -2.12959 -0.374102
-2.60579 -2.73205 -2.4462
-1.7047 -2.25396 -1.84808
-0.0784671 1.57534 0.168614
-1.09669 -2.12642 -0.572368
-3.4992 -3.56247 -2.56212
-0.0929665 1.41288 0.15224
-3.50891 -3.50055 -2.64711
-0.332576 2.20781 -0.125762
-1.03676 0.973185 -1.38659
-0.789753 1.44936 -0.10033
-1.38733 -2.2014 -1.51551
-0.176213 1.05829 -0.47478
-0.525299 -1.25431 -1.03327
-0.178993 1.69644 -0.437112
-3.42786 -3.671 -1.57565
-3.16144 -3.49448 -2.14044
-0.564054 1.18191 -0.974194
-0.00167742 -0.749616 -0.231379
0.277927 -0.437791 -0.130549
-1.69794 -2.37347 -1.70052
-4.21097 -4.04378 -2.79623
-0.0385915 0.685208 -0.100766
-1.27947 -2.25837 -0.590064
-1.06445 -1.3937 -1.69807
-3.56181 -3.67677 -1.48674
-0.881646 -1.9414 -0.74768
-1.53893 -2.54058 -0.975311
-0.397489 -0.934038 -0.528308
-0.396924 -1.41811 -0.545976
-0.226569 1.22315 0.564796
-4.29396 -4.17386 -2.10522
-4.25341 -3.87975 -2.94104
-1.82441 -2.65714 -0.780958
-0.562531 0.475082 -0.0619658
0.307221 0.58591 0.498699
-1.64162 -2.50529 -1.27106
-1.01124 -0.285354 -0.186937
-0.356883 -0.677544 -0.535923
-0.224679 -0.810694 0.444199
0.0482203 1.16007 -0.157625
-1.09277 -2.05423 -1.36022
-0.876655 0.888854 -0.155553
0.078681 0.624538 -0.152061
-0.730863 0.473273 -1.1709
-1.17614 -2.25053 -0.927184
-0.31942 0.978461 -0.0733501
0.0506119 1.51225 0.193761
-0.752466 -1.6543 -1.04412
-1.74953 -2.52985 -0.623601
0.159971 0.770742 -0.0572404
-1.53424 -2.41202 -1.34359
-4.65402 -4.46152 -2.68529
-2.41688 -3.26587 -1.81127
-2.29807 -2.93034 -1.96281
-0.483101 -0.128132 -1.20177
-0.160836 -1.00198 -0.32977
-0.137762 -0.302775 -0.787364
-0.652529 -1.51229 -1.06322
-0.382019 -1.20065 -0.255322
-0.61932 -1.26885 -1.14239
-1.12848 1.0021 -1.3877
-0.209948 -1.14883 -0.194899
-0.666722 -1.67605 -0.873149
-1.30909 -2.37086 -0.930891
0.164886 -0.0536989 -0.156412
-3.915 -4.08862 -2.69533
-2.55725 -3.16946 -1.44783
0.0457788 0.250761 -0.51209
-0.996624 0.995889 -1.22493
-0.65973 1.09464 -0.614317
-2.90236 -3.49312 -1.43178
-1.11683 1.4878 -1.03511
-0.706361 1.19796 -1.10653
-0.374548 -0.0439019 -0.952484
-4.36235 -4.36213 -2.2778
-3.63745 -4.00476 -2.0109
-0.742518 1.1878 -0.63154
-0.942257 -1.79094 -1.22156
-0.290003 0.612395 -0.152514
-0.504934 0.70005 0.101045
-0.416508 -0.0365193 0.133888
-1.85858 1.62906 -2.02602
-0.732063 0.561523 -1.40035
-3.77926 0.540268 -3.74418
-4.91885 1.41501 -4.3113
-6.50548 2.8076 -4.82797
-6.70226 2.03297 -5.24801
-1.6564 1.19554 -1.97498
-4.60184 0.869571 -4.27449
-3.45699 0.791337 -3.46973
-1.65305 0.519814 -2.20214
-1.26896 0.667629 -1.78164
-2.02253 1.03046 -2.37608
-0.968992 1.35506 -1.38852
-1.46854 1.07161 -1.88506
-4.19492 0.225892 -4.13194
-3.57944 0.690164 -3.59704
-1.44289 1.60596 -1.64499
-4.82351 1.29994 -4.2474
-3.57053 1.90807 -3.21055
-3.85635 1.69683 -3.50192
-6.59404 1.2412 -5.43075
-1.44138 1.105 -1.85452
-3.96743 1.83221 -3.51068
-2.82076 1.90234 -2.65904
-6.91215 1.3593 -5.57516
-7.10142 2.20658 -5.42205
-1.6426 1.55776 -1.93473
-4.30955 0.569788 -4.08358
-6.5387 1.699 -5.26467
-0.727516 0.336857 -1.41877
-5.02149 1.20291 -4.41187
-0.318246 0.888352 -0.986836
-0.634499 0.696455 -1.30261
-6.2599 2.44434 -4.81648
-5.54697 1.70361 -4.62468
-5.14786 0.658002 -4.63265
-4.15443 1.88024 -3.62535
-3.85711 1.26244 -3.58761
-2.68277 2.24457 -2.4402
-1.04992 0.629778 -1.66032
-2.42885 1.45904 -2.56001
-6.21382 1.43066 -5.06951
-5.10241 2.35516 -4.10387
-7.27919 2.18215 -5.52784
-2.716 0.510685 -3.02559
-5.7015 2.05084 -4.60537
-1.51428 0.0370178 -2.1674
-6.66003 1.32225 -5.446
-6.66612 1.92394 -5.25555
-2.81161 1.6352 -2.79081
