ply
format ascii 1.0
comment Created by Open3D
element vertex 200
property double x
property double y
property double z
end_header
-2.25554 -0.601874 -2.16735
-3.25526 -0.424368 -2.6176
-7.11732 0.880747 -3.77289
-6.41811 -3.42821 -3.85543
-3.13581 -0.634931 -2.60047
-1.09779 0.584404 -1.16811
-7.56449 -1.5701 -4.46673
-7.68365 -0.0160502 -4.24527
-7.473 2.44417 -3.2071
-3.24995 0.0442635 -2.50534
-0.669905 1.56608 0.216011
-4.19001 -3.65878 -2.38284
-1.60913 1.65131 -0.885043
-2.71616 -0.070286 -2.28743
-11.088 -2.22098 -5.69635
-4.98694 -3.10149 -3.28996
-1.48581 0.555335 -1.43141
-7.45716 0.911789 -3.88343
-3.69126 1.98509 -1.86697
-0.914926 0.942923 -0.845677
-7.69926 1.35128 -3.80336
-0.932397 0.536761 -1.07132
-0.617721 -1.49987 -0.459558
-3.2408 1.97461 -1.64595
-0.40167 -0.852604 -0.876591
-0.203179 0.727194 0.342
-2.42094 -1.77049 -2.2701
-9.31631 -1.96111 -5.09925
-4.86049 2.4364 -2.13424
-0.329192 -0.813737 0.0708984
-6.44103 -3.51297 -3.83615
-1.07099 -0.802482 -1.48442
-4.51615 -3.06114 -3.06186
-2.53188 -1.71023 -2.34094
-1.65388 -2.01886 -1.67044
-0.179674 0.569854 -0.275955
-0.157619 -0.0949203 0.297158
-1.17469 -2.07114 -0.818514
-2.96917 -3.17639 -1.79111
-0.104932 -0.012998 0.253624
-3.15517 -3.32483 -1.67085
-0.315602 0.999084 0.358435
-2.0117 2.07791 -0.821369
-1.57859 -1.90054 -1.66564
-0.828508 -1.73284 -0.824895
-3.21347 -1.12262 -2.69259
-0.607714 1.23889 -0.300715
-8.14755 -0.919127 -4.5923
-3.67039 1.79791 -1.96797
-0.0437966 -0.28024 0.0240793
-1.55484 1.81784 -0.702341
-11.4207 -2.57271 -5.81085
-0.395666 -1.12032 -0.730406
-2.01989 -1.64237 -2.05067
-6.3328 -0.71826 -3.91401
-3.19474 0.538936 -2.32533
-2.63765 -2.91113 -1.83314
-8.27521 2.77542 -3.32448
-3.38961 2.17452 -1.5902
-3.44485 0.778836 -2.35006
-3.03521 -3.27231 -1.34607
-2.73578 0.405303 -2.15579
-2.45603 -2.9096 -0.962461
-7.80292 -1.50867 -4.54604
-8.77504 -2.48634 -4.91925
-0.0861177 0.320925 0.254527
-0.654584 1.26854 0.662679
-0.2653 -1.00382 -0.321641
-2.0097 1.10483 -1.48489
-1.06095 -1.09877 -1.46711
-3.59861 2.3419 -1.58226
-2.21093 -0.3533 -2.10114
-3.65799 -3.26387 -2.39252
-6.02549 -3.36662 -3.69659
-8.19833 0.36268 -4.31928
-1.07044 1.48313 0.899949
-0.63802 -0.132619 -1.07378
-6.13987 -3.45105 -3.71945
-6.23746 -3.18656 -3.84763
-3.17095 -2.80004 -2.38446
-7.93175 -2.0422 -4.62139
-3.62682 -1.5699 -2.89883
-5.60307 0.52403 -3.33241
-2.53304 -2.99688 -1.42019
-3.84321 1.27144 -2.31924
-0.048581 0.367024 0.133544
-7.23968 0.389293 -3.97713
-1.29661 -1.89665 -1.40146
-4.47265 -2.1438 -3.25419
-0.944124 -1.86043 -0.681069
-5.35897 -2.94656 -3.51602
-0.666891 0.854934 -0.684038
-9.4842 -1.2745 -5.09377
-0.874296 0.561678 -1.01658
-0.943487 -1.64002 -1.17598
-11.4708 -2.38119 -5.82476
-2.30871 -2.86504 -1.11658
-4.83877 -0.733831 -3.3438
-3.2829 -3.22254 -2.10224
-1.00433 -1.91711 -0.828888
-2.97724 0.668466 -2.17633
-9.72861 -1.22161 -5.16743
-1.62668 -2.3959 -0.787061
-0.609275 1.23457 0.633461
-3.30635 0.689813 -2.32125
-0.163447 0.512974 -0.291026
-0.288763 0.207587 -0.637361
-0.601481 -1.04377 -1.06377
-7.96731 -2.12271 -4.63539
-1.74179 0.173635 -1.71683
-0.50095 1.33602 0.0927429
-7.89384 2.13281 -3.5249
-0.533714 1.39077 0.150865
-2.89371 1.61295 -1.68694
-3.0005 -0.579353 -2.5287
-1.07435 -1.60213 -1.34639
-1.40984 0.205764 -1.51303
-9.89281 -2.56552 -5.30407
-1.81561 -0.819288 -1.95486
-1.82034 -2.55552 -1.15999
-2.86819 0.253975 -2.26807
-0.307118 0.89491 -0.198303
-0.0412655 0.112325 -0.278338
-6.06571 0.0210115 -3.6543
-6.61177 -0.660859 -4.00596
-7.98162 -0.0346314 -4.35311
-11.5253 -2.36731 -5.84195
-6.42956 -2.59212 -4.03558
-1.88351 0.875098 -1.5256
-3.85593 0.934639 -2.47107
-6.7041 -0.276036 -3.96077
-8.86211 -2.76489 -4.93705
-1.20542 1.03293 -1.01359
-0.296983 0.58974 -0.447783
-6.28144 -2.45914 -3.98912
-0.898703 -1.76891 -0.949233
-3.70688 2.19218 -1.74208
-0.265365 0.864414 -0.145782
-4.64778 1.09322 -2.74333
-0.0597006 0.276755 0.201666
-0.287159 0.294321 0.506045
-5.5104 -0.873647 -3.62923
-3.04518 -3.05654 -2.07587
-1.80315 -2.51589 -0.828068
-4.27207 -3.70343 -2.39476
-3.27755 0.908746 -2.22116
-3.81776 -2.61658 -2.84775
-0.678386 0.413401 -0.92724
-1.01051 1.67422 -0.316814
-0.672187 1.21519 0.704136
-0.823162 1.58143 -0.180911
-6.18593 0.862565 -3.43725
-7.31141 2.588 -3.06504
-12.0794 -2.33385 -6.01762
-5.48655 2.35378 -2.46148
-5.13099 -3.81638 -2.95565
-6.85684 1.2647 -3.53306
-0.596412 -1.48045 -0.692601
-0.989528 0.493169 -1.13168
-4.15476 -2.84525 -2.95182
-0.438685 -0.550928 -0.949373
-5.68194 1.87751 -2.80452
-2.62693 -3.0139 -1.61193
-1.51201 0.670843 -1.39857
-1.4748 -1.03248 -1.75865
-2.09883 -1.23278 -2.12979
-6.88623 2.46523 -2.96896
-1.80773 2.05865 -0.680385
-1.42476 1.84775 -0.560347
-2.53901 -1.30153 -2.36744
-2.52879 0.678023 -1.95418
-3.27889 1.02957 -2.17022
-4.802 1.75151 -2.5034
-2.35358 1.37877 -1.53065
-1.1118 0.293201 -1.29381
-0.105308 -0.419357 0.0644487
-0.263813 0.976519 0.159942
-4.56349 -1.65545 -3.31352
-2.28692 -1.53053 -2.22182
-7.66648 -2.02438 -4.52579
-3.80464 -3.65003 -1.79532
-3.71404 -1.75915 -2.9345
-0.0754292 0.147768 0.236435
-3.04711 1.1903 -1.98642
-4.50814 0.0270644 -3.04789
-2.79804 -1.73547 -2.48252
-7.55059 -1.84336 -4.47837
-3.04714 -2.26601 -2.52432
-0.273639 -1.02428 -0.353693
-4.99552 2.42346 -2.20366
-3.16965 -3.21809 -1.9834
-2.40953 -2.82568 -1.678
-1.53125 -2.18283 -1.41862
-0.100027 0.590614 0.13013
-6.77647 0.501801 -3.77652
-1.88861 -2.55867 -0.803068
-5.27038 0.982013 -3.03999
-1.13101 1.24484 -0.821445
-1.11039 1.77203 -0.316498
-0.556259 1.16091 0.614769
