ply
format ascii 1.0
comment Created by Open3D
element vertex 400
property double x
property double y
property double z
end_header
-2.32233 -0.683695 0.0980352
-3.24545 0.060633 0.719543
-3.40248 -0.330837 0.489853
-3.24804 -0.694837 -0.399337
-3.54925 -0.0347068 0.633473
-1.35372 -0.546394 0.325346
-3.42443 -0.0619785 0.649581
-2.16924 -0.0331034 0.754347
-2.64127 0.254235 0.684845
-2.00968 -0.696213 0.266117
-1.45529 -0.200547 0.633503
-2.53216 -0.767496 0.0800137
-4.35975 0.57459 0.5171
-2.97841 -0.474916 0.395144
-3.60166 -0.0386852 0.616725
-3.68435 -0.195696 0.522224
-2.98878 -0.538921 -0.226351
-2.39421 -0.863413 -0.491713
-3.0781 -0.0132016 0.761398
-3.56957 0.792614 0.774744
-2.33604 -0.733179 0.0316009
-1.58701 0.301964 0.832604
-2.82857 -0.324985 0.588765
-1.88227 0.230875 0.871925
-2.26239 -0.289937 0.607563
-2.8562 -0.89562 0.03894
-3.35655 0.360703 0.746663
-3.22049 -0.253593 0.528327
-2.05853 0.66281 0.75086
-2.48758 0.161091 0.812981
-2.42065 -0.584351 0.380659
-4.01135 -0.813285 -0.694565
-2.20964 0.00250399 0.643914
-2.77804 -0.643457 0.021983
-2.3712 -0.760377 -0.631077
-1.43296 -0.391262 0.560858
-2.93368 0.443673 0.620853
-2.65719 0.261175 0.907505
-1.92737 -0.214063 0.542577
-1.41969 -0.70659 0.15415
-1.69141 0.185951 0.859181
-3.37108 -0.363879 0.469321
-3.42183 -0.151298 0.599882
-2.43118 -0.721636 0.00147358
-1.58376 -0.690857 -0.374937
-1.69555 -0.383582 0.558668
-2.60419 -0.421557 0.546283
-3.38 -0.276697 0.534923
-2.20443 -0.809862 0.124378
-1.40013 0.0341311 0.672291
-2.97406 0.422496 0.702376
-2.52022 -0.453645 0.523045
-2.26468 -0.425742 0.568588
-2.61214 -0.768669 -0.0326593
-3.40263 -0.519721 0.116919
-3.62775 -0.681337 0.0300234
-3.35452 -0.650227 -0.080347
-0.914516 -0.271401 0.534189
-2.50601 -0.968065 -0.231245
-1.68481 -0.512853 0.449307
-1.68183 -0.699616 -0.102456
-3.74227 -0.80913 -0.55404
-2.12931 -0.579553 0.408337
-2.49417 -0.658481 0.160319
-1.60505 -0.567643 0.372207
-3.28721 -0.705977 -0.0562471
-1.68948 0.0436313 0.765031
-2.13794 -0.98831 -0.49086
-1.99452 0.0630864 0.710766
-1.78582 -0.574329 -0.0574992
-2.4669 -0.460861 0.519559
-1.06586 -0.276873 0.542027
-3.16682 0.11788 0.62234
-2.83398 0.767365 0.890485
-1.36242 -0.549948 0.332562
-3.45553 -0.760316 -0.0409165
-1.11345 0.132924 0.666464
-1.46502 0.215462 0.641852
-2.34967 -0.0710982 0.697372
-2.63306 0.484425 0.831465
-1.37877 -0.496793 0.416037
-2.42408 0.0229646 0.825885
-2.48777 -0.787563 -0.164953
-1.52227 -0.13171 0.78376
-0.916866 -0.345686 0.404794
-1.86585 -0.096959 0.752501
-3.78892 0.0224189 0.587959
-3.17897 0.487243 0.848393
-1.40996 0.504993 0.593333
-3.18684 -0.469374 0.412306
-1.79516 -0.287571 0.693389
-4.04309 0.543441 0.558661
-3.21306 0.488562 0.581022
-1.7261 -0.66808 0.0594304
-3.3884 0.0919708 0.738461
-2.7181 0.745357 0.750367
-2.08575 -0.701426 -0.0911462
-4.27141 -0.711197 -0.823257
-1.45141 -0.472561 0.422809
-1.8501 -0.823561 0.0916991
-1.06744 -0.362607 0.495753
-2.12495 -0.282176 0.671874
-1.68381 -0.558996 0.0700244
-1.23336 -0.0349572 0.665243
-1.61493 -0.767977 -0.238027
-2.02182 -0.448648 -0.329958
-2.01956 -0.179959 0.770811
-2.54452 0.515889 0.728299
-2.01426 -0.686005 -0.717725
-2.98608 0.35095 0.63255
-2.61557 0.0552273 0.683757
-1.41157 -0.649597 -0.192027
-1.58207 -0.525962 0.408518
-2.99222 -0.523342 0.406578
-2.59275 -0.854231 -0.607001
-1.36796 -0.612209 -0.428909
-2.85741 0.515898 0.844548
-1.40198 -0.561204 0.344726
-1.94523 -0.255762 0.646648
-2.75391 -0.495977 0.463353
-3.32665 0.217711 0.670631
-4.10215 -0.7081 -0.66803
-2.08841 -0.73148 0.0651696
-2.04793 -0.745215 -0.0837747
-2.31001 -0.800615 0.157975
-1.85659 -0.223562 0.668358
-2.677 0.222368 0.650998
-1.17434 -0.3679 0.43353
-3.60681 -0.70548 -0.44236
-1.84317 -0.754765 0.178875
-1.80678 0.065133 0.836813
-3.34802 -0.03781 0.50053
-1.6979 -0.51431 0.0535105
-1.56663 -0.491409 -0.623739
-2.12956 0.0945673 0.725447
-2.103 -0.808843 -0.301023
-1.46343 0.385128 0.580928
-1.2635 -0.244265 0.525375
-2.83687 -0.620018 -0.246808
-1.45077 -0.604177 -0.197487
-1.13008 -0.634601 0.108309
-1.98772 0.321441 0.610591
-2.47838 -0.77845 -0.49003
-1.43392 -0.420362 0.398368
-1.61828 -0.789189 -0.534489
-3.45037 0.600366 0.758246
-3.33257 -0.478942 0.326658
-4.02917 0.588749 0.588719
-3.6944 -0.765507 -0.677507
-1.46688 -0.472507 0.463053
-1.56072 -0.544153 0.249297
-2.73567 -0.805974 -0.0696939
-2.26647 -0.655255 -0.0676352
-1.82163 0.501287 0.760147
-2.66912 0.58661 0.65412
-3.73421 -0.666525 -0.417025
-3.14806 -0.343055 0.531555
-1.17254 -0.71188 -0.07172
-1.78239 0.416493 0.713203
-2.59715 -0.24502 0.67402
-2.84612 -0.667408 0.0881221
-1.79813 0.865057 0.814047
-1.72383 -0.164578 0.698842
-2.74042 -0.707476 0.268714
-2.40212 -0.854653 -0.357723
-3.87877 0.159307 0.622787
-3.30889 -0.756969 0.143171
-1.02267 0.221451 0.728791
-2.39789 -0.565726 -0.484476
-3.9962 -0.588983 -0.341193
-3.14521 -0.473512 0.408408
-1.86582 -0.668226 0.0367044
-3.58037 -0.686829 0.142451
-2.07514 0.398696 0.600776
-3.58266 -0.588276 0.182544
-3.79042 -0.551943 0.218317
-0.883769 -0.373687 0.345843
-1.44308 -0.509941 0.398999
-1.72185 0.059908 0.552278
-1.64696 -0.146864 0.618816
-3.62661 0.289937 0.764097
-3.19036 -0.502777 0.368773
-3.09466 -0.0955808 0.721409
-3.1884 -0.419231 0.404689
-2.19334 -0.672053 -0.522663
-1.6701 -0.0441686 0.752231
-2.95538 -0.324529 0.576211
-1.21523 -0.493702 -0.0766222
-2.53914 -0.566533 -0.402203
-3.52661 0.292144 0.655104
-3.73547 -0.676044 -0.0842036
-3.55114 0.0544038 0.629854
-1.29577 0.014774 0.568744
-1.26662 -0.209724 0.664026
-2.53196 -0.554661 0.255659
-4.22502 -0.778574 -0.898394
-2.93361 0.134909 0.482799
-3.45287 -0.185837 0.570423
-3.1654 0.395598 0.774538
-1.73844 -0.684825 -0.740865
-1.90689 -0.180133 0.784057
-1.25582 -0.614116 0.221914
-1.67836 -0.648784 0.245746
-3.67478 0.483517 0.636577
-1.69124 -0.766814 -0.388864
-1.44251 0.514636 0.937516
-2.70237 -0.527092 0.157918
-4.10384 -0.819374 -0.590994
-2.77327 -0.783374 -0.714194
-2.66756 -0.33925 0.60948
-1.1125 -0.504829 0.273071
-2.73616 -0.566058 0.401142
-3.96582 -0.491461 -0.312011
-3.35179 -0.371836 0.456554
-1.50066 0.273819 0.848849
-2.71185 -0.709236 -0.496916
-2.66817 -0.512171 0.457519
-1.90743 0.0665372 0.832667
-1.3928 -0.5324 0.37538
-3.76351 -0.293811 0.431659
-2.26782 0.384649 0.825949
-1.20832 0.122942 0.626212
-3.00836 -0.71139 -0.0856697
-3.31413 0.180654 0.722414
-2.64897 -0.99432 -0.55917
-3.00238 -0.677144 -0.673804
-2.48292 0.275914 0.764714
-3.30632 -0.882857 -0.503977
-1.8393 -0.663794 0.0839559
-2.74257 -0.655145 -0.274105
-1.50293 0.152458 0.665118
-3.52797 -0.857314 -0.712914
-2.74574 0.28856 0.70446
-3.71719 -0.0700095 0.565881
-0.806699 -0.205398 0.551902
-2.2843 -0.479184 0.469026
-1.47206 0.2537 0.84579
-1.95409 -0.623632 -0.0756423
-2.67462 -0.78422 -0.18927
-1.96973 -0.832742 -0.770632
-3.92046 -0.772528 -0.806868
-2.13826 -0.669395 -0.398085
-2.50995 -0.630383 0.257427
-2.20909 -0.725835 -0.364165
-2.60372 -0.0874046 0.636855
-2.55393 -0.664976 -0.577306
-1.62416 -0.558315 0.393145
-3.23951 -0.926779 -0.307169
-2.20199 -0.62616 0.36106
-1.63734 -0.0896213 0.535549
-3.62498 -0.73373 -0.10767
-3.16271 -0.681688 -0.612868
-1.75657 -0.348457 0.613063
-2.77385 -0.710517 -0.469577
-3.62901 -0.633535 -0.663295
-1.73043 -0.392211 0.596289
-2.10266 -0.397405 0.591115
-3.21203 -0.685252 -0.190252
-3.6134 0.254794 0.756504
-2.02081 -0.679852 0.159758
-2.76158 -0.489114 0.401126
-1.89054 -0.140344 0.625086
-3.36559 0.249318 0.609628
-1.74325 -0.678262 0.259378
-2.90371 -0.159581 0.592039
-1.96015 -0.612742 -0.642892
-3.08439 -0.434687 0.393473
-1.31181 -0.549354 -0.0581841
-1.60587 0.326676 1.00457
-2.40726 -0.909363 -0.371793
-1.77232 -0.403731 0.550609
-1.64841 -0.640596 -0.282476
-3.47327 -0.569785 -0.571605
-1.66609 -0.693288 -0.846668
-3.11583 -0.535574 0.374686
-2.82779 -0.434179 0.390261
-0.911016 -0.496777 0.208983
-2.10116 -0.732856 0.140654
-1.612 -0.390582 0.505318
-1.75026 -0.670383 0.105847
-2.03186 -0.0395906 0.619769
-1.59692 0.610281 0.686031
-3.17567 -0.128043 0.599667
-0.973526 -0.344141 0.418579
-2.684 -0.747997 0.0325032
-1.99856 -0.540436 0.456284
-2.59748 -0.529824 -0.164704
-1.66799 -0.677844 0.221356
-1.76691 -0.567401 0.337709
-3.82648 0.476904 0.646824
-2.21215 -0.260792 0.675808
-2.317 0.0382876 0.842898
-2.92145 -0.660019 0.259281
-3.47495 -0.50547 0.33252
-2.84755 0.207089 0.897129
-1.03507 0.110641 0.739841
-2.92447 0.688097 0.744557
-3.33177 -0.825119 -0.542609
-2.63549 -0.834232 -0.0841016
-1.27605 -0.685273 0.0260472
-3.54805 0.134249 0.606239
-3.18884 -0.327519 0.518231
-1.05804 -0.473376 0.293154
-1.9761 -0.625209 0.0978209
-1.25917 -0.620037 -0.253567
-2.43301 -0.772646 0.0899843
-1.7422 -0.689402 0.147318
-3.87415 0.476846 0.605336
-1.52435 -0.536832 0.404768
-1.92779 -0.598492 0.322188
-1.33035 -0.552356 -0.186476
-3.26471 -0.23882 0.58389
-1.38387 -0.564046 0.335834
-1.62606 0.0762294 0.431809
-1.70856 0.0557229 0.798003
-2.55433 -0.477955 0.449185
-2.36719 0.45904 0.60988
-3.35677 -0.885794 -0.611974
-1.79963 -0.672068 -0.634698
-2.9575 -0.77887 -0.28311
-2.96196 -0.711417 0.147343
-3.22641 -0.798831 -0.504011
-1.83873 -0.0903733 0.680577
-4.27331 -0.562602 -0.675222
-2.66986 0.353623 0.764023
-2.68312 -0.415681 0.535479
-3.04806 0.382051 0.898861
-1.59555 0.575955 0.869295
-2.41096 -0.714072 -0.182382
-2.76733 0.00426671 0.779617
-3.28176 -0.60712 0.0158199
-1.26171 -0.335865 0.552235
-4.06533 -0.635689 -0.403809
-2.26447 -0.756973 -0.663173
-1.71742 0.292201 0.584891
-1.17854 -0.521037 0.227513
-1.68886 -0.678557 -0.520817
-1.4566 -0.728784 -0.119134
-1.03953 -0.525785 0.241795
-3.15815 -0.278044 0.558956
-3.05236 -0.976984 -0.218614
-3.05035 0.518794 0.698444
-3.48719 -0.390912 0.254538
-1.66281 -0.35789 0.51312
-2.20642 -0.423864 0.478986
-3.03638 -0.509977 0.411403
-2.53771 -0.297552 0.649538
-3.46678 0.224975 0.800535
-2.71864 -0.811857 0.0314631
-4.25248 0.803931 0.640561
-1.6802 0.718797 0.804347
-2.64165 0.262628 0.783888
-0.815216 -0.171732 0.658278
-3.63613 -0.57943 0.18996
-2.69494 -0.684653 0.260417
-1.74178 -0.639159 -0.385539
-2.10779 -0.0366044 0.563496
-1.54424 -0.0175335 0.580826
-1.45823 0.108183 0.735363
-2.17655 0.043925 0.800865
-2.59029 0.526226 0.619646
-1.14152 -0.357708 0.365452
-3.09981 -0.607372 0.0491879
-1.95701 -0.677552 -0.385912
-1.16149 -0.151513 0.441327
-3.23353 -0.570993 -0.503153
-1.75188 -0.707762 -0.260322
-2.53442 -0.374524 0.588616
-3.24676 -0.545535 0.0319154
-3.87396 0.30887 0.66248
-1.33437 0.0106008 0.611471
-1.26117 -0.450236 0.377424
-3.12748 -0.711556 -0.327736
-1.55703 -0.588699 0.185381
-1.74829 -0.130358 0.513342
-2.10415 -0.779045 -0.185125
-2.58361 -0.624 0.35226
-3.27398 0.112928 0.578848
-3.71444 -0.672655 0.0390649
-2.31329 -0.333849 0.649911
-1.78518 0.821308 0.698208
-2.12716 -0.409873 0.589007
-1.33394 -0.50261 0.27188
-4.03843 -0.610812 -0.629762
-3.4708 -0.167753 0.595487
-3.49749 -0.210662 0.545118
-3.24886 -0.488726 0.323204
-2.6243 -0.692637 0.180583
-1.47552 0.106174 0.576534
-3.72166 -0.357628 0.395132
-2.62816 -0.712945 -0.354015
-3.46727 -0.68809 -0.12149
-3.21642 -0.546405 0.310275
-3.89565 0.0944969 0.501867
-2.65037 -0.248833 0.651397
-2.47582 0.283871 0.775021
-2.83216 -0.757483 -0.553733
-2.36767 -0.390867 0.595573
-2.17064 -0.670273 0.272287
-2.75934 -0.881862 -0.0228416
