ply
format ascii 1.0
comment Created by Open3D
element vertex 250
property double x
property double y
property double z
end_header
-0.396835 0.762639 1.44905
0.314913 1.06609 3.05781
0.826315 0.598224 2.1022
0.282238 -0.151325 0.556878
0.932822 0.475465 1.29362
0.544902 0.13665 0.602265
0.718198 0.331601 0.815594
1.39407 1.753 3.2805
-1.10211 0.591925 0.57318
-0.424466 1.34728 -1.11431
0.348862 0.0387538 0.411556
-1.31522 0.293064 -0.0918902
1.39145 2.33856 3.9934
-0.617201 0.194991 0.561172
0.233426 -0.245106 0.67265
0.32487 0.706652 2.39693
-0.683877 -0.0818922 -0.892806
0.190783 0.0810187 1.51274
-1.14056 0.0695033 0.630766
0.221156 0.0223312 0.985533
-0.328895 0.545768 2.30174
0.693258 0.551369 0.953321
-0.219912 1.36717 -0.83092
0.131297 0.499673 -0.447969
0.067422 0.00893754 1.31053
-0.692511 0.324993 0.857763
-1.0015 1.34618 -0.797343
0.538206 0.538619 0.19579
1.24783 3.20029 4.81114
0.266366 0.341754 -0.0948589
-1.51842 1.74317 -0.049398
-0.260798 1.82012 -0.956904
-0.573883 0.553501 -0.401817
0.0365594 0.447989 -0.578582
-0.80361 0.461775 0.849282
-0.518843 0.230216 -0.429572
-0.0478773 -0.248939 0.923145
0.442902 2.6112 4.91338
-0.0557631 2.28021 4.54714
0.706461 0.509301 2.15617
1.03199 3.61969 5.6737
-1.22871 0.990683 -0.594739
0.386399 0.264156 1.80045
0.9138 0.819029 2.57243
-0.634301 -0.0991295 -0.868031
1.37641 2.56444 4.55134
0.466685 0.0160032 1.14902
1.10576 2.56398 4.71993
0.149657 2.72965 5.03424
-1.16 0.257953 0.100303
-0.408547 0.380236 -0.0542083
-0.429762 1.32181 3.42454
-0.11692 3.43234 5.67268
0.656042 1.90393 4.02338
1.17704 0.816464 2.02462
1.31617 1.85287 3.51505
0.183588 0.422437 -0.3722
0.0348113 0.0791239 -0.353442
-0.667872 0.699829 0.725804
-0.0399689 -0.295036 0.26519
1.66945 3.99807 5.66432
0.686414 2.19301 4.42763
1.13493 2.26584 4.34509
1.42574 2.18983 3.87236
0.166364 0.00187169 1.04451
0.624557 2.7636 4.97453
-0.470379 -0.135974 0.61742
-0.0112478 0.485094 1.81452
-0.805125 0.749123 -0.155878
0.00830297 3.29568 5.56698
1.21794 2.16617 4.23582
0.011144 0.174487 0.21878
0.477961 0.490408 2.24798
-1.07129 0.114297 -0.320965
0.195646 -0.164857 0.131887
-0.0866539 -0.169103 -0.171593
0.604298 1.90423 4.14715
1.12623 3.56369 5.8009
-1.12961 0.897435 -1.06534
-0.226382 0.626818 2.10026
-0.318748 0.777548 -0.899086
0.197023 -0.0803724 0.726315
-1.26722 0.39384 0.0645205
0.248006 0.134273 0.715588
-0.113936 -0.00325998 0.572202
0.326427 0.360075 0.217349
0.984935 0.541923 1.62218
-0.180799 0.499623 1.93227
-0.109994 1.88747 -0.272652
0.453325 0.00526081 0.665312
0.685862 0.961362 2.78316
1.36926 2.43822 4.42758
0.343153 -0.104478 0.713833
-0.0421621 0.675644 0.501679
0.426536 0.695686 2.67532
0.604821 0.318867 0.415254
0.154128 -0.145599 0.353688
-0.0882728 0.0551197 0.311458
-0.708146 1.17565 -0.994334
-0.521911 0.182514 1.62098
-1.02119 0.138054 -0.474384
0.672805 1.20185 3.28216
0.873345 0.829911 2.60654
-0.636318 -0.0257554 0.292408
-0.459422 0.492198 1.44513
0.642798 0.217214 1.32537
-0.314457 0.275311 1.73815
1.24758 0.986939 2.13328
-0.750825 1.27585 -1.15759
1.01254 1.39908 2.96034
0.340534 0.0435687 1.49934
0.46857 0.652372 2.491
-0.646658 0.463152 1.88272
0.6131 0.967988 2.86518
0.953901 1.66041 3.77394
-1.10427 0.517604 0.166806
1.40984 2.40564 4.1415
-1.68592 0.846158 -1.25138
1.14011 0.959358 2.25969
-0.0106307 2.1112 4.28438
0.112383 1.35781 3.42305
-0.54206 0.89503 -0.565713
1.14567 1.11985 2.86723
0.449699 2.78669 5.09594
-0.514492 0.763456 -0.593527
0.35838 2.82973 5.13705
-1.00373 1.50974 -0.462758
-1.80596 0.73981 -0.33823
-1.0044 0.799397 -1.28833
0.282457 0.996589 3.02202
-0.88562 0.574818 -0.186964
-0.122981 0.0516062 1.41537
-0.959437 1.24942 0.0943795
1.27343 2.69145 4.51267
0.738974 2.52884 4.79604
-1.32367 0.961789 0.0872783
0.393251 0.106286 1.09378
0.547566 0.457363 1.56096
0.341328 1.41415 3.54232
0.524586 3.21307 5.48329
-0.455384 0.226293 -0.374344
1.11368 1.05121 2.68845
-0.55777 0.461427 1.91851
1.40236 2.91075 4.61119
0.506524 0.204012 1.72532
0.908811 1.06216 2.92903
-0.135404 -0.414321 0.228871
0.864738 0.926972 2.70208
-0.04114 0.913309 -0.614723
1.13759 3.25145 5.11761
0.44167 3.53164 5.81598
1.18527 1.38222 3.0312
-0.542248 0.132146 -0.97334
0.35257 0.484983 0.14656
0.882107 1.59651 3.73475
-0.414526 -0.10219 -0.994842
-0.317661 -0.444059 -0.0284306
1.21433 0.788851 1.42698
-0.5933 0.622429 -0.151598
-0.0249473 0.111766 1.84756
-0.90094 0.390032 -1.36658
-0.394505 0.247043 -0.099346
-1.45608 0.164935 -0.40604
0.692479 0.663268 2.46717
-0.672175 0.386163 -0.821053
-0.445416 0.855965 -0.41061
0.392742 0.724368 2.53713
1.52046 1.91729 3.66617
-0.329238 0.364949 -0.0420218
0.687568 1.36392 3.48067
0.715809 3.20732 5.28558
0.437969 1.13495 3.24587
0.384672 1.6269 3.8571
-0.851424 0.381676 0.873716
0.409861 0.0734398 1.17655
-0.343426 0.228488 0.995814
-0.021987 0.0467421 1.53985
0.494734 0.0338402 1.00148
0.0747859 0.667464 2.28031
-1.91271 0.644567 -0.621628
0.710323 0.298741 1.50859
0.351234 0.279453 1.90802
0.709402 0.645317 2.40328
0.0199246 0.0723547 0.471607
0.354179 2.41823 4.67939
1.14681 2.22492 4.31491
-0.413101 0.277838 0.534322
-1.77987 0.541154 -0.707013
-1.30104 0.410575 -0.979429
0.86826 1.48507 3.13553
-1.85306 0.877467 -1.01131
-1.46167 1.03013 0.0781558
-0.880424 -0.0320274 0.155593
0.842753 2.73064 4.58575
0.775181 2.08738 4.0083
-1.37665 0.482714 -1.06516
0.323363 0.826878 2.70849
-0.599147 0.125877 -0.725367
-0.435658 0.354311 -0.921832
0.0147253 0.111607 -0.410077
-2.33512 2.24589 0.550998
-1.20326 1.14064 1.06982
-2.95232 3.73567 2.58288
-4.2096 4.24843 1.35017
-4.40023 7.86923 3.49945
-4.98321 6.45819 2.29128
-2.23234 1.61095 0.303944
-4.05682 3.48723 1.19076
-2.84756 3.60327 2.3501
-1.83111 1.82392 1.47867
-1.90262 0.925782 0.222206
-1.97078 2.817 2.03632
-1.61762 1.58488 0.575485
-2.0126 1.58443 0.572542
-3.34892 3.45388 2.237
-3.06538 3.3288 1.98728
-2.09662 1.76162 0.142157
-3.57697 5.16651 2.88459
-3.43583 3.66613 0.952982
-3.23271 4.45893 2.16147
-4.76187 6.00211 2.71732
-1.99032 1.6053 0.581761
-3.71096 3.80216 0.929804
-3.00889 3.04459 0.6335
-4.78874 6.5921 3.14688
-4.94626 7.36223 3.03703
-1.99841 2.49818 1.2042
-3.16891 4.30121 2.93196
-4.96191 5.9343 2.09702
-1.19549 0.872134 0.933538
-3.74041 5.12397 2.78444
-0.823986 1.3671 1.30284
-1.08533 1.32956 1.26083
-4.53557 6.88511 2.75093
-4.34066 5.37856 2.10792
-3.72244 4.85377 2.95151
-3.80374 4.01309 1.02672
-3.90905 2.65633 0.0517621
-2.87502 3.33047 0.718467
-1.539 1.22856 0.897762
-2.53771 2.89714 1.31255
-4.1172 6.67292 3.73359
-4.165 5.45785 1.75307
-4.9068 7.71419 3.42115
-2.60274 2.41613 1.55676
-4.46411 5.70704 2.01358
-1.84248 0.972012 0.898962
-4.78935 6.13619 2.75422
-4.81878 6.61609 2.6861
-2.72925 3.42653 1.56848
