ply
format ascii 1.0
comment Created by Open3D
element vertex 400
property double x
property double y
property double z
end_header
0.610386 -2.0222 1.26978
1.80442 -2.60994 1.12252
1.49884 -2.81143 1.37282
0.984252 -2.43755 2.12561
1.85302 -2.83486 1.31523
0.185549 -1.43562 0.116266
1.77624 -2.76445 1.27584
1.18437 -1.91734 0.533248
1.606 -2.10167 0.539204
0.404427 -1.92866 0.654007
0.65137 -1.44482 0.226936
0.585878 -2.23583 1.12608
2.70022 -3.08091 1.4252
1.1899 -2.51285 1.46245
1.86654 -2.86953 1.32215
1.758 -2.96045 1.45701
1.09435 -2.21513 2.23204
0.327179 -1.91451 1.43852
1.70515 -2.52527 1.2204
2.62533 -2.48552 1.26018
0.542845 -2.03656 1.22844
1.23327 -1.3523 0.33908
1.3082 -2.40713 1.38475
1.33449 -1.61131 0.506067
0.938908 -2.06829 0.486133
0.529747 -2.56869 0.828047
2.11608 -2.55437 1.09101
1.41084 -2.70353 0.894806
1.73086 -1.48445 0.420761
1.53666 -2.06366 0.70783
0.772153 -2.19132 0.995259
1.13401 -2.94019 2.33883
1.15366 -1.91104 0.316873
0.8824 -2.27402 1.66142
0.422202 -1.75421 1.72582
0.52879 -1.45174 0.61575
1.88225 -2.19477 0.600887
1.77456 -2.14928 0.966453
0.78096 -1.78773 0.134565
0.00416857 -1.50755 0.0560561
1.20021 -1.49164 0.43492
1.42095 -2.81363 1.22459
1.67814 -2.7902 1.26362
0.605197 -2.07753 1.34674
0.143458 -1.2801 1.19392
0.587779 -1.67849 0.355084
1.03587 -2.31739 0.965543
1.57923 -2.76826 1.50925
0.347048 -2.07399 0.704052
0.82978 -1.30788 0.131865
1.93424 -2.25245 0.744261
0.97284 -2.25673 0.996811
0.889023 -2.07697 0.893407
0.623559 -2.22774 1.33837
1.33261 -2.69049 1.96655
1.18923 -2.9487 1.6506
1.12621 -2.64774 1.91967
0.355095 -1.01943 0.297352
0.274329 -2.20985 0.999581
0.501689 -1.65413 0.690161
0.234144 -1.48466 1.05778
1.03846 -2.8094 2.15802
0.625862 -2.00189 0.781425
0.730106 -2.16039 1.31464
0.376298 -1.60265 0.586847
1.01934 -2.65715 1.72781
1.02368 -1.53796 0.33367
0.0228672 -1.837 0.97947
1.14475 -1.7403 0.32912
0.473351 -1.47485 1.42151
0.942577 -2.2191 0.989515
0.395599 -1.15163 0.208923
1.72251 -2.52236 0.771648
2.2874 -2.01568 0.969625
0.270365 -1.39886 0.527201
1.01066 -2.83953 1.5633
0.788582 -1.04192 0.0723818
0.994505 -1.25844 0.0735547
1.20279 -2.0536 0.522568
1.89557 -2.00972 0.754868
0.311351 -1.44009 0.332423
1.41186 -2.08083 0.800068
0.526448 -2.08276 1.39475
0.844582 -1.48665 0.51688
0.213296 -1.02904 0.116762
0.992239 -1.72542 0.464186
1.99054 -2.96731 1.34353
2.19649 -2.38927 1.12835
1.20778 -1.05002 0.0489481
1.24748 -2.69761 1.28178
0.814634 -1.72413 0.652692
2.52184 -2.89309 1.23821
2.04154 -2.35751 0.703578
0.320645 -1.57309 1.00582
1.93146 -2.68955 1.30351
2.12649 -1.91198 0.716184
0.450771 -1.7683 1.32314
1.36177 -2.99145 2.71092
0.4587 -1.43038 0.806186
0.13002 -1.82765 0.43986
0.344869 -1.15583 0.403927
0.941674 -1.9669 0.638608
0.457481 -1.45684 1.27627
0.701379 -1.2122 0.13954
0.0793641 -1.429 0.93444
0.711924 -1.4115 2.01965
1.03832 -1.86285 0.72452
1.81701 -1.90677 0.56385
0.308485 -1.41312 1.68024
1.8331 -2.28281 0.641105
1.4254 -2.18113 0.567779
0.136452 -1.21916 1.03108
0.347213 -1.61798 0.245814
1.04363 -2.61905 0.899098
0.41897 -1.99175 1.64269
0.113334 -1.05032 1.21332
2.04686 -2.15311 0.902933
0.243087 -1.46151 0.342096
0.841201 -1.83126 0.419086
0.998648 -2.44034 0.939986
1.92665 -2.59089 0.955452
1.31495 -2.94054 2.55551
0.420373 -1.88033 1.05062
0.370061 -1.78207 1.17684
0.406024 -2.1647 0.693675
0.838147 -1.75713 0.404535
1.57482 -2.13584 0.506171
0.294798 -1.25561 0.0618059
1.12884 -2.68643 2.24621
0.22866 -1.81401 0.504997
1.14389 -1.6269 0.491356
1.60615 -2.70036 0.707886
0.526021 -1.42111 1.41972
0.337348 -1.00364 1.71178
1.24455 -1.82548 0.39578
0.281497 -1.76177 1.24924
1.11401 -1.15115 0.0219234
0.468377 -1.29689 0.0599942
0.911992 -2.15806 2.0145
0.221776 -1.20517 1.18749
-0.00889897 -1.19874 0.324855
1.30717 -1.57968 0.173225
0.483194 -1.90828 1.67253
0.326363 -1.4761 -0.0121854
-0.0046756 -1.30792 1.0713
2.37948 -2.50067 1.14411
1.33327 -2.74291 1.59735
2.57427 -2.86606 1.28056
1.0544 -2.67987 2.33669
0.389697 -1.50985 0.366179
0.422988 -1.45897 1.00018
0.627203 -2.32744 1.33294
0.610254 -1.86937 1.51802
1.47664 -1.40192 0.321704
1.90051 -1.939 0.537605
1.24059 -2.7632 2.33805
1.37496 -2.654 1.25007
-0.0964556 -1.18703 0.428755
1.35568 -1.40603 0.244133
1.21371 -2.28101 0.886973
0.88052 -2.38194 1.5167
1.83248 -1.20155 0.456675
0.840101 -1.64108 0.371119
0.712515 -2.48045 0.778559
0.365822 -1.97828 1.36477
2.16934 -2.97282 1.39836
0.90366 -2.86341 1.0149
0.861364 -0.945006 0.12825
0.720312 -1.69215 2.07128
1.46601 -2.93756 2.47863
1.23511 -2.66093 1.32769
0.395136 -1.65586 1.13552
1.12331 -3.00579 1.26175
1.41287 -1.59943 0.201443
1.28387 -2.93752 1.56132
1.37995 -3.10995 1.40912
0.271735 -0.927181 0.692237
0.296887 -1.5029 0.216531
0.920774 -1.50599 0.019934
0.759539 -1.56453 0.170745
2.2334 -2.76592 1.42224
1.2199 -2.69178 1.35334
1.63899 -2.55716 1.28352
1.35725 -2.6304 1.6183
0.468181 -1.61292 1.74964
0.939473 -1.56041 0.359264
1.29496 -2.53435 1.08281
0.261219 -1.01733 1.17644
0.808118 -1.83015 2.10091
2.08729 -2.68766 1.05479
1.2493 -2.95432 1.89331
1.90073 -2.80668 1.16238
0.708499 -1.2139 -0.0161577
0.59822 -1.30517 0.330622
0.900136 -2.15444 1.47972
1.24189 -2.97127 2.62086
1.5218 -2.32498 0.380661
1.64949 -2.82077 1.25747
2.0601 -2.41233 0.995197
0.151904 -1.21547 1.48046
0.999176 -1.78088 0.733898
0.0628911 -1.34897 0.161745
0.314259 -1.63823 0.688743
2.31825 -2.68968 1.09785
0.0979852 -1.40605 1.10899
1.41438 -1.16317 0.428476
1.01842 -2.1983 1.76364
1.18061 -3.06605 2.24948
0.579983 -2.01516 1.94391
1.16558 -2.3418 1.02381
0.086877 -1.22157 0.00476776
0.903906 -2.44165 0.909789
1.58516 -2.85449 2.65833
1.36982 -2.81681 1.06288
1.18005 -1.30665 0.344154
0.689947 -2.0166 1.94475
0.947081 -2.38139 0.934367
1.18952 -1.69839 0.518588
0.265483 -1.45718 0.296667
1.66293 -3.04225 1.40007
1.62242 -1.80125 0.568777
0.796352 -1.10866 0.0293816
0.886757 -2.43873 1.69314
1.93141 -2.60591 1.08575
0.270826 -2.16277 1.33207
0.838831 -2.1163 2.24696
1.59634 -1.99577 0.585234
0.747787 -2.57305 1.82262
0.390403 -1.65978 1.07041
0.815712 -2.10417 1.92004
0.969298 -1.32475 0.112907
0.852036 -2.61125 2.11913
1.70122 -2.16186 0.623698
1.86954 -2.95352 1.32501
0.365599 -0.915833 0.24607
0.872462 -2.04797 1.16516
1.14847 -1.29475 0.33709
0.491997 -1.62158 1.4246
0.620068 -2.20052 1.51296
0.0802657 -1.47128 1.35983
1.12694 -2.78765 2.48343
0.469383 -1.63011 1.65653
0.771729 -2.20868 1.21316
0.438232 -1.73906 1.55446
1.27382 -2.23059 0.537564
0.651369 -1.83418 1.99982
0.392061 -1.6248 0.553055
0.67817 -2.66231 1.48993
0.516821 -2.11075 0.371568
0.746887 -1.51354 0.00610822
1.12235 -2.90445 1.77137
0.923405 -2.26278 2.27259
0.684476 -1.71474 0.475214
0.724195 -2.07455 1.95431
1.19627 -2.5397 2.57173
0.689016 -1.67612 0.769923
0.809251 -1.97488 0.657775
1.00692 -2.51074 1.93711
2.19397 -2.77135 1.41867
0.46297 -1.8432 1.02089
1.08067 -2.36352 1.40312
0.877614 -1.74261 0.23525
1.93 -2.59213 0.851552
0.287145 -1.72698 0.531903
1.34537 -2.46242 0.68502
0.39251 -1.35362 1.76652
1.29869 -2.55413 1.61951
0.242626 -1.1356 1.10675
1.36952 -1.39208 0.600843
0.291778 -2.01855 1.24808
0.604242 -1.7409 0.385577
0.267109 -1.32647 1.3144
1.22229 -2.42243 2.58653
0.071698 -1.12812 1.42927
1.11372 -2.68292 1.10689
1.20069 -2.35305 1.64558
0.0649966 -0.995361 0.364428
0.421796 -1.93647 0.918595
0.498977 -1.61571 0.193677
0.332349 -1.61758 0.95258
1.019 -1.798 0.223204
1.43569 -1.15778 0.202792
1.52806 -2.63184 0.903201
0.237755 -1.07945 0.0970546
0.688559 -2.29969 1.32507
0.588268 -1.92124 0.606257
0.928859 -1.95688 2.04928
0.259215 -1.64581 0.601214
0.491703 -1.6767 0.893792
2.40449 -2.79686 1.23863
0.997693 -2.0236 0.643659
1.38044 -2.00212 0.76251
0.892796 -2.55035 1.12338
1.30353 -2.90615 1.27168
1.83212 -2.29985 1.12871
0.781694 -1.01055 0.176707
2.17397 -2.08714 0.802792
0.830164 -2.52761 1.99
0.538222 -2.27094 1.23597
0.020094 -1.27954 0.531997
1.93607 -2.76905 1.03028
1.35475 -2.69882 1.02
0.219991 -1.1009 0.608574
0.520565 -1.72846 1.25531
0.0759066 -1.06617 1.00026
0.5295 -2.17555 1.04941
0.296567 -1.65477 0.807989
2.4018 -2.8218 1.19587
0.34863 -1.55723 0.422268
0.527717 -1.80739 0.913953
0.225933 -1.08876 1.2029
1.53007 -2.71045 1.24919
0.231719 -1.44486 0.348108
0.825991 -1.39516 -0.143424
1.06409 -1.5527 0.391868
0.998892 -2.23232 1.28328
1.61131 -1.78057 0.328699
0.751314 -2.55818 1.92357
0.229645 -1.29331 1.52211
0.751984 -2.35115 1.73198
0.857876 -2.54574 1.27216
0.821143 -2.45015 1.97837
0.930628 -1.69225 0.295363
1.57714 -2.95391 2.89326
1.75723 -2.08806 0.673869
1.10905 -2.34713 1.16477
2.07606 -2.35847 1.17232
1.50078 -1.22563 0.391911
0.587105 -1.9602 1.55489
1.54616 -2.3183 0.941003
1.15808 -2.61264 1.88176
0.443424 -1.32545 0.300546
1.42732 -2.99268 2.45235
0.363463 -1.66308 1.68147
1.14352 -1.39018 0.0654062
0.227489 -1.17855 0.71955
0.186842 -1.27433 1.37768
0.0588891 -1.35231 0.787181
0.102169 -1.12132 0.369272
1.40289 -2.66379 1.0391
0.524096 -2.61729 1.17506
2.05691 -2.25458 0.786181
1.54523 -2.73112 2.07371
0.543803 -1.64483 0.159505
0.717266 -2.06684 0.284941
1.08185 -2.64364 0.935253
1.13739 -2.25194 0.894951
2.1254 -2.69069 1.4309
0.60833 -2.38072 1.13818
2.92517 -2.91418 1.5564
1.63606 -1.19299 0.371454
1.67832 -2.1177 0.705953
0.488802 -0.914493 0.52775
1.31266 -2.97846 1.54755
0.756526 -2.40433 1.00199
0.299226 -1.34066 1.44533
1.021 -1.8398 0.157394
0.79367 -1.41956 0.0362026
0.954055 -1.33013 0.210136
1.28002 -1.89586 0.583127
1.78657 -1.90672 0.446774
0.238872 -1.21567 -0.0892113
1.07941 -2.49632 1.80049
0.365006 -1.51713 1.51386
0.444678 -1.15952 -0.130624
1.12065 -2.28233 2.45458
0.237037 -1.46053 1.21846
1.10366 -2.23271 1.1693
1.22989 -2.545 2.01342
2.30883 -2.90955 1.38227
0.746112 -1.2555 0.0453545
0.390248 -1.25366 0.817822
0.916255 -2.39877 1.98698
0.350895 -1.46008 0.945077
0.748268 -1.61068 0.00613077
0.340124 -1.79647 1.22476
0.772027 -2.33771 0.888784
1.74496 -2.59089 0.760394
1.233 -3.01505 1.64342
1.01789 -2.09773 0.905923
1.72577 -1.18324 0.32587
0.844757 -1.97735 0.844687
0.355816 -1.28477 0.898676
1.41806 -2.83884 2.70838
1.77501 -2.77985 1.72964
1.63986 -2.85621 1.26976
1.28946 -2.68284 1.59438
0.735471 -2.29925 1.19984
0.866967 -1.30539 0.000860446
1.56565 -3.03598 1.337
0.669832 -2.0284 1.80133
1.12056 -2.73969 1.89829
1.18151 -2.70606 1.39465
2.02388 -3.00407 1.11514
1.21384 -2.32089 0.833916
1.60624 -1.9889 0.597484
0.675747 -2.11195 1.93621
0.980403 -2.14224 0.947593
0.538279 -2.01483 0.877053
0.523293 -2.43942 1.02674
