ply
format ascii 1.0
comment Created by Open3D
element vertex 200
property double x
property double y
property double z
end_header
-1.81705 -0.972365 -2.42898
-2.69093 -0.861874 -3.10559
-6.13695 0.293051 -5.28381
-5.75906 -3.95683 -4.35727
-2.59335 -1.06781 -3.02212
-0.796307 0.360174 -1.46538
-6.61867 -2.23343 -5.55369
-6.66317 -0.664592 -5.6764
-6.48046 1.95101 -5.12858
-2.67311 -0.380524 -3.0904
-0.580659 1.59696 -0.246185
-3.89256 -3.94314 -2.43317
-1.27266 1.47846 -1.51458
-2.20351 -0.463572 -2.74672
-9.86515 -3.01612 -7.34214
-4.44892 -3.56412 -3.58006
-1.12515 0.288709 -1.79322
-6.44466 0.310928 -5.46728
-3.08657 1.66419 -2.95891
-0.655089 0.772503 -1.18973
-6.66436 0.764894 -5.52913
-0.657535 0.328726 -1.32846
-0.624021 -1.54257 -0.270987
-2.69124 1.68613 -2.65051
-0.281501 -1.00473 -0.753632
-0.212361 0.788949 0.139713
-2.04546 -2.13058 -2.3293
-8.23355 -2.69289 -6.44971
-4.14209 2.08609 -3.55059
-0.396543 -0.76973 0.160721
-5.79163 -4.03487 -4.32675
-0.810658 -1.06235 -1.48618
-4.03133 -3.49167 -3.27075
-2.13525 -2.08308 -2.43244
-1.43397 -2.27149 -1.54452
-0.0780314 0.504464 -0.415445
-0.220299 -0.0252245 0.270163
-1.13938 -2.15859 -0.617904
-2.78155 -3.3861 -1.7061
-0.154028 0.0439895 0.22326
-2.99833 -3.49994 -1.60055
-0.305181 1.06164 0.077625
-1.64684 1.92147 -1.62331
-1.35253 -2.15726 -1.54765
-0.774595 -1.84037 -0.618584
-2.6873 -1.56124 -3.02947
-0.44138 1.16657 -0.662479
-7.11475 -1.60526 -5.92623
-3.06003 1.45938 -3.01389
-0.068517 -0.267366 0.0696635
-1.24358 1.67788 -1.36147
-10.1937 -3.37331 -7.45166
-0.324749 -1.23575 -0.559119
-1.68774 -1.97198 -2.06044
-5.46168 -1.32396 -4.93527
-2.61809 0.138937 -3.00504
-2.42944 -3.1463 -1.72943
-7.21618 2.27547 -5.47568
-2.83282 1.89792 -2.66829
-2.83963 0.37609 -3.12913
-2.9419 -3.38411 -1.27493
-2.2134 0.0294459 -2.7196
-2.42532 -2.96741 -0.858195
-6.83125 -2.18252 -5.69199
-7.77976 -3.18542 -6.05893
-0.11089 0.369859 0.161557
-0.676895 1.39971 0.243824
-0.270104 -1.04007 -0.16367
-1.58536 0.831017 -2.06409
-0.826426 -1.34854 -1.40848
-3.02612 2.06977 -2.738
-1.76809 -0.716973 -2.40575
-3.34131 -3.57622 -2.4092
-5.40248 -3.87572 -4.13491
-7.12304 -0.293745 -5.93096
-1.11448 1.67252 0.34068
-0.419392 -0.3352 -1.13552
-5.51599 -3.95939 -4.16403
-5.56606 -3.72482 -4.35994
-2.83239 -3.13679 -2.39142
-6.98196 -2.7156 -5.68492
-3.08349 -2.02853 -3.22471
-4.77176 -0.0109554 -4.4726
-2.41589 -3.14654 -1.2951
-3.19823 0.876563 -3.28157
-0.0466674 0.388259 0.0444753
-6.25252 -0.226229 -5.40712
-1.12934 -2.10685 -1.23626
-3.88201 -2.63717 -3.62843
-0.925744 -1.93111 -0.47983
-4.75582 -3.44847 -3.90556
-0.451505 0.71265 -0.965316
-8.34742 -2.01551 -6.61658
-0.60981 0.362743 -1.2688
-0.810065 -1.81988 -0.99729
-10.2256 -3.18751 -7.51366
-2.24734 -2.96098 -0.983592
-4.11662 -1.2667 -4.07212
-3.02955 -3.48669 -2.06069
-0.959358 -2.01568 -0.622683
-2.42558 0.289935 -2.84248
-8.56762 -1.97156 -6.74904
-1.61154 -2.45493 -0.618189
-0.629338 1.35893 0.232159
-2.71669 0.290765 -3.05468
-0.0634206 0.4452 -0.415124
-0.139673 0.0779283 -0.712127
-0.453722 -1.22454 -0.936729
-7.01992 -2.79608 -5.68977
-1.34691 -0.13616 -2.0442
-0.408194 1.34087 -0.282789
-6.8516 1.5933 -5.45925
-0.447699 1.40763 -0.24496
-2.37094 1.3131 -2.54468
-2.47129 -1.0027 -2.93604
-0.901152 -1.81455 -1.19547
-1.06076 -0.0724436 -1.78572
-8.80119 -3.30823 -6.64661
-1.44576 -1.15408 -2.08974
-1.73839 -2.68319 -0.984057
-2.3317 -0.137831 -2.82477
-0.193756 0.842464 -0.432694
0.0235184 0.05251 -0.297458
-5.19724 -0.555471 -4.7778
-5.71166 -1.27836 -5.0934
-6.93422 -0.695964 -5.8386
-10.2744 -3.17583 -7.54435
-5.67192 -3.17742 -4.69867
-1.4711 0.593975 -2.03074
-3.20556 0.515932 -3.36246
-5.78214 -0.889903 -5.14624
-7.88209 -3.45858 -6.03879
-0.898761 0.834356 -1.42948
-0.156937 0.491474 -0.608544
-5.52653 -3.04242 -4.64953
-0.821104 -1.89955 -0.745169
-3.11126 1.8933 -2.88391
-0.165699 0.822387 -0.367567
-3.9132 0.638771 -3.82122
-0.0778446 0.314741 0.12532
-0.359423 0.403165 0.365293
-4.72645 -1.44202 -4.45874
-2.79013 -3.3265 -2.01852
-1.78476 -2.57518 -0.670657
-3.97371 -3.98667 -2.45295
-2.69214 0.524826 -2.99644
-3.3584 -3.03444 -3.00747
-0.447256 0.23043 -1.11254
-0.79924 1.60136 -0.849354
-0.706338 1.35686 0.290428
-0.650185 1.53332 -0.66138
-5.29511 0.316297 -4.76301
-6.34013 2.11629 -4.98728
-10.7783 -3.16248 -7.83571
-4.69479 1.95642 -3.97904
-4.70966 -4.18773 -3.14797
-5.90154 0.71039 -5.07596
-0.555322 -1.5733 -0.49342
-0.70459 0.275251 -1.38955
-3.68403 -3.26906 -3.13241
-0.280642 -0.724094 -0.89118
-4.85292 1.4251 -4.25359
-2.47071 -3.20052 -1.49498
-1.14867 0.409314 -1.79031
-1.16776 -1.33194 -1.78778
-1.71853 -1.5859 -2.23437
-5.953 2.00304 -4.78142
-1.47707 1.92583 -1.44163
-1.14253 1.73284 -1.20416
-2.10641 -1.68909 -2.54073
-2.03094 0.331757 -2.53742
-2.69458 0.653643 -2.97204
-4.06253 1.33737 -3.75517
-1.8918 1.09999 -2.23481
-0.806691 0.0496374 -1.53062
-0.147051 -0.392851 0.123077
-0.216719 0.996193 -0.0969636
-3.92249 -2.1696 -3.80162
-1.9062 -1.89022 -2.3027
-6.74047 -2.6865 -5.54117
-3.63241 -3.82324 -1.79152
-3.17574 -2.21818 -3.23949
-0.109772 0.196522 0.180987
-2.49272 0.841991 -2.77938
-3.79569 -0.471483 -3.87093
-2.36899 -2.12907 -2.61891
-6.62316 -2.50333 -5.50747
-2.64368 -2.64834 -2.60564
-0.273395 -1.06654 -0.192027
-4.26116 2.06314 -3.64286
-2.94224 -3.46094 -1.92401
-2.23106 -3.03742 -1.54997
-1.37657 -2.38263 -1.24503
-0.07956 0.607646 -0.0141588
-5.83148 -0.0888133 -5.14008
-1.87644 -2.60902 -0.656182
-4.47074 0.487487 -4.21398
-0.848508 1.07947 -1.27214
-0.889591 1.70016 -0.889548
-0.579312 1.28134 0.240097
