ply
format ascii 1.0
comment Created by Open3D
element vertex 400
property double x
property double y
property double z
end_header
1.31421 1.16315 -1.74881
2.04931 2.27034 -1.49017
2.02374 2.07916 -1.92014
2.18923 1.1932 -2.28738
2.22766 2.32549 -1.72673
0.273545 0.801962 -1.02301
2.14009 2.27939 -1.69179
1.20001 1.74118 -1.01993
1.54334 1.91049 -0.97141
0.785812 1.0849 -1.51499
0.619291 1.24113 -0.808176
1.24104 1.18516 -1.87264
2.95508 2.65956 -1.56787
1.83557 1.80513 -1.8849
2.24778 2.32998 -1.75194
2.26807 2.26565 -1.93912
2.27498 1.31537 -2.08064
1.29903 0.59001 -1.94514
2.01411 2.25287 -1.50468
2.70559 2.6127 -1.04534
1.2558 1.08363 -1.7852
1.06204 1.60849 -0.473923
1.83372 1.95432 -1.69054
1.24464 1.78778 -0.684976
1.03565 1.57354 -1.25591
1.07575 1.19058 -2.04726
2.25071 2.38899 -1.28163
1.68031 1.96374 -1.689
1.49998 1.79312 -0.379451
1.55701 1.99761 -1.02354
1.24573 1.45452 -1.65821
2.51843 1.21796 -2.72581
1.07925 1.60721 -0.960791
1.76612 1.35294 -1.97441
1.53707 0.513631 -1.90508
0.756178 1.20204 -1.03244
1.80075 2.00753 -0.94301
1.86351 2.23159 -1.06291
0.713209 1.31599 -0.987472
0.146253 0.612804 -1.16524
1.09825 1.67625 -0.631122
1.88951 2.01011 -1.90467
2.07308 2.2093 -1.76072
1.3758 1.11651 -1.83668
0.948845 0.366847 -1.43264
0.678636 1.25405 -1.07896
1.40395 1.72024 -1.59551
2.1449 2.15313 -1.8949
0.81127 1.00766 -1.69314
0.678224 1.28103 -0.574605
1.90747 2.13214 -1.00727
1.37342 1.66346 -1.59406
1.22988 1.59212 -1.44927
1.40521 1.144 -1.94532
2.28499 1.78278 -2.18559
2.0474 1.69224 -2.34355
2.14074 1.52918 -2.25975
0.418883 0.924733 -0.661944
0.998971 0.79534 -1.99465
0.816893 1.18204 -1.24559
0.909063 0.656399 -1.45847
2.31071 1.21884 -2.58201
0.998344 1.32441 -1.49562
1.42797 1.30909 -1.80725
0.677916 1.04087 -1.23631
1.95366 1.47877 -2.24099
0.935217 1.53379 -0.725123
0.816986 0.374618 -1.85379
1.05084 1.60273 -0.82888
1.27436 0.838805 -1.47063
1.34432 1.63584 -1.57714
0.411209 0.974649 -0.709495
1.80726 2.07922 -1.339
2.23264 2.37446 -0.716613
0.555794 0.894394 -1.11178
1.87155 1.51935 -2.32058
0.591564 1.16585 -0.366463
0.768412 1.29601 -0.438695
1.23119 1.74618 -1.11991
1.83786 2.14097 -0.825077
0.467578 0.956819 -1.03758
1.51497 1.97961 -1.13076
1.37593 0.966699 -1.91922
0.895524 1.49192 -0.839867
0.241137 0.743966 -0.684857
1.00344 1.5929 -0.937356
2.36513 2.39044 -1.78006
2.29562 2.45186 -1.11623
0.901175 1.27025 -0.171924
1.79317 1.87092 -1.92799
0.987048 1.50828 -1.10246
2.69635 2.5326 -1.4305
1.99667 2.10692 -1.03733
0.922102 0.835072 -1.44372
2.24554 2.3886 -1.55817
1.99239 2.13004 -0.634313
1.23782 0.882304 -1.67488
2.91821 1.28253 -2.81699
0.832747 1.09182 -1.14157
0.490369 0.777206 -1.50907
0.489672 0.951821 -0.818675
1.09949 1.61629 -1.22659
1.15764 0.902265 -1.39124
0.580443 1.19649 -0.566209
0.748126 0.454095 -1.4601
1.82193 0.795851 -1.57446
1.18914 1.71062 -1.11976
1.68538 1.96721 -0.723021
1.41286 0.286055 -1.68979
1.79271 2.03222 -1.04872
1.43396 1.86984 -1.13085
0.814594 0.460002 -1.30163
0.464658 1.00799 -1.12544
1.42783 1.70118 -1.81795
1.507 0.593788 -2.05502
0.925896 0.242947 -1.28406
2.04098 2.27925 -0.918807
0.438116 0.883676 -1.10015
0.897625 1.4793 -1.08842
1.38973 1.677 -1.70962
2.05511 2.24691 -1.35857
2.76491 1.34328 -2.71941
1.04762 0.98369 -1.65
1.09843 0.83777 -1.66676
0.851126 1.08385 -1.72649
0.876392 1.46883 -1.02403
1.51193 1.87791 -1.00454
0.286819 0.861494 -0.795865
2.39283 1.3149 -2.46274
0.580813 0.888843 -1.46473
1.10464 1.68955 -0.787602
1.72648 1.98682 -1.5241
1.28619 0.92753 -1.38833
1.39525 0.243776 -1.35892
1.16584 1.69065 -0.870634
1.11183 0.64058 -1.75045
0.829326 1.25246 -0.286403
0.399974 1.01259 -0.731485
2.02053 1.17589 -2.04272
0.962523 0.509349 -1.31101
0.263291 0.516418 -1.04271
1.08861 1.51163 -0.579597
1.54072 0.687138 -1.95562
0.296828 0.905293 -0.927288
0.805519 0.175424 -1.4991
2.46603 2.49112 -1.13251
2.04911 1.90292 -2.0552
2.74985 2.57425 -1.39678
2.43115 1.11662 -2.55964
0.541314 1.05124 -1.06069
0.94786 0.984042 -1.2789
1.42122 1.14783 -2.0235
1.46663 1.02576 -1.74865
1.24956 1.65968 -0.398244
1.74931 1.94825 -0.707518
2.5276 1.41702 -2.50057
1.84301 1.9934 -1.8049
0.288485 0.356206 -1.13981
1.12748 1.56548 -0.435785
1.46423 1.86357 -1.43457
1.68331 1.41476 -1.99405
1.55586 1.79641 -0.117304
0.842941 1.45063 -0.916367
1.13154 1.40279 -1.84155
1.26791 0.717205 -1.92958
2.52044 2.49707 -1.71498
1.46071 1.54016 -2.15395
0.654794 1.22011 -0.269865
1.91166 0.777764 -1.82797
2.77221 1.64123 -2.5714
1.80649 1.85873 -1.92383
1.05979 0.893597 -1.52512
1.77057 1.7097 -2.25408
1.18539 1.55576 -0.556293
2.03842 1.82892 -2.23465
2.03523 1.92461 -2.25824
0.600309 0.78052 -0.808363
0.402661 0.939605 -1.05055
0.724963 1.26893 -0.656746
0.682009 1.30096 -0.829005
2.53462 2.56868 -1.51465
1.81967 1.83618 -1.97018
2.01053 2.21669 -1.59086
2.05298 1.93985 -1.9544
1.55027 0.573816 -1.76853
0.891867 1.50261 -0.79455
1.67315 1.93188 -1.68019
0.945149 0.556139 -1.12646
1.98988 0.924316 -1.89305
2.23944 2.34394 -1.39669
2.24624 1.6678 -2.42805
2.17715 2.30763 -1.62337
0.51879 1.10022 -0.516697
0.618123 1.21605 -0.761752
1.6247 1.47312 -1.77212
2.79309 1.15716 -2.83413
1.45365 1.7678 -1.15009
2.05707 2.18425 -1.79966
2.13863 2.32805 -1.15791
1.17437 0.112278 -1.53797
1.15533 1.68096 -1.07704
0.219596 0.654054 -1.04626
0.715143 0.946787 -1.34982
2.43632 2.42648 -1.30638
0.883424 0.365236 -1.52091
1.20653 1.7134 -0.26125
1.88933 1.5028 -1.87197
2.49617 1.3421 -2.75247
1.81234 0.6289 -2.12647
1.52153 1.83644 -1.5662
0.129807 0.636935 -0.868693
1.31541 1.58782 -1.75274
2.94474 1.71205 -2.51552
1.7662 1.95558 -1.87086
1.01838 1.58666 -0.463992
1.85294 0.84008 -2.04623
1.34434 1.63276 -1.68741
1.16054 1.73125 -0.83205
0.423562 0.907381 -1.0644
2.19176 2.17592 -2.03807
1.51691 1.93447 -0.72387
0.587572 1.15222 -0.403064
1.82233 1.32921 -2.12627
2.12157 2.31449 -1.41142
1.23536 0.578524 -2.13201
2.17014 0.841193 -2.19214
1.53649 1.94197 -0.901345
1.88217 1.0157 -2.40253
1.01221 0.919142 -1.49898
1.89821 1.08515 -2.0144
0.773273 1.3318 -0.514226
2.16371 0.954142 -2.52437
1.66146 1.9953 -1.00228
2.26897 2.31919 -1.82331
0.385507 0.901091 -0.554587
1.3823 1.54295 -1.55311
0.990776 1.56714 -0.467647
1.30691 0.879484 -1.57876
1.52497 1.04076 -2.01425
1.08537 0.124184 -1.72756
2.59909 1.10266 -2.68206
1.47846 0.661228 -1.72871
1.38935 1.39951 -1.77246
1.40361 0.693971 -1.78397
1.31953 1.78595 -1.2365
1.85269 0.713361 -1.95564
0.669162 1.06484 -1.23001
1.62052 1.1163 -2.35025
0.713173 1.21489 -1.47999
0.593514 1.18895 -0.743022
2.08601 1.56504 -2.40644
2.2486 0.972068 -2.26662
0.808562 1.36437 -1.09977
1.88363 0.894566 -2.07466
2.6481 1.17523 -2.47206
0.972603 1.38799 -1.18391
1.0286 1.50824 -1.31453
2.07042 1.35694 -2.23245
2.50564 2.54873 -1.53743
1.04141 1.05666 -1.57676
1.70774 1.71016 -1.79815
0.819559 1.41885 -0.934114
2.01232 2.18478 -1.32584
0.615217 0.950156 -1.36904
1.4829 1.87685 -1.44439
1.50215 0.371191 -1.62682
2.00557 1.88429 -1.9255
0.901014 0.589936 -1.19747
1.27675 1.84887 -0.517623
1.15612 0.671897 -1.95305
0.714776 1.27906 -1.13219
1.09257 0.520338 -1.44341
2.64709 1.22101 -2.3624
1.09912 -0.036758 -1.5032
1.60494 1.75737 -1.91826
1.92957 1.78366 -1.82758
0.301239 0.564044 -0.851838
0.967558 1.03946 -1.63166
0.529248 1.13247 -1.01774
0.897047 0.881226 -1.44576
0.923023 1.48523 -0.905055
1.14545 1.48925 -0.19294
1.75089 2.04263 -1.571
0.250469 0.777079 -0.702641
1.44021 1.24046 -1.95595
0.858359 1.29306 -1.37721
2.01766 1.18704 -1.88157
0.632126 0.895045 -1.35153
0.943989 1.13171 -1.3614
2.5848 2.52464 -1.40092
1.14798 1.65997 -1.24495
1.46077 1.94938 -1.0682
1.46089 1.54284 -1.94358
1.86336 1.89608 -2.06903
2.01061 2.32005 -1.21583
0.626848 1.22661 -0.376123
2.09216 2.21389 -0.78124
2.03722 1.02993 -2.39766
1.30023 1.06864 -1.98698
0.420899 0.523073 -1.1823
2.13176 2.26982 -1.52933
1.70903 1.95278 -1.76207
0.542731 0.762009 -0.942231
1.21279 1.03182 -1.55921
0.750457 0.33504 -1.20864
1.15016 1.13947 -1.82213
0.787389 0.888217 -1.4303
2.56957 2.49266 -1.41047
0.557207 1.01444 -1.14651
0.996646 1.17874 -1.45504
0.961017 0.484649 -1.22348
1.95194 2.11181 -1.76674
0.433159 0.86803 -1.09624
0.578202 1.07742 -0.569385
0.991924 1.58896 -0.735232
1.5608 1.65448 -1.68325
1.41605 1.71797 -0.649045
1.95884 0.944934 -2.4427
1.24164 0.25607 -1.56284
1.77341 1.10254 -2.16452
1.53718 1.46511 -2.02918
2.00971 1.02961 -2.33245
0.876239 1.47577 -0.885569
3.14483 1.4975 -2.73533
1.71194 2.04742 -0.929778
1.57149 1.78163 -1.66183
2.21884 2.4415 -1.16059
1.26867 1.7082 -0.262954
1.49985 0.963067 -1.85952
1.72167 2.09441 -1.31053
2.12208 1.59857 -2.18987
0.510846 1.07141 -0.855036
2.74634 1.59128 -2.63078
1.46714 0.42979 -1.84994
0.896471 1.35048 -0.473388
0.628539 0.756794 -1.05032
1.10805 0.298381 -1.49776
0.623037 0.489977 -1.33789
0.336857 0.64493 -0.92892
1.74391 1.99474 -1.71383
1.31428 1.06034 -2.25594
2.02145 2.18394 -0.966702
2.47777 2.00163 -2.13801
0.544755 1.1597 -1.00447
0.786789 1.35568 -1.30055
1.47708 1.73336 -1.83194
1.41439 1.80708 -1.4551
2.44613 2.53239 -1.50688
1.28686 1.20465 -1.98504
3.15327 2.80965 -1.36516
1.36598 1.69655 -0.173407
1.67058 2.04691 -1.00039
0.609977 1.07571 -0.589161
2.05449 1.8567 -2.24617
1.28048 1.42479 -1.84903
1.20844 0.478562 -1.50326
0.902984 1.44533 -0.918441
0.627023 1.21677 -0.653481
0.802574 1.39754 -0.553992
1.28682 1.81526 -0.970471
1.61938 1.85263 -0.706757
0.172171 0.750223 -0.742479
2.00266 1.54367 -2.10185
1.31087 0.571227 -1.63469
0.281196 0.863879 -0.574065
2.47427 1.16862 -2.24277
1.02643 0.553425 -1.52151
1.54929 1.78471 -1.57061
2.23747 1.63821 -2.15183
2.60072 2.55887 -1.58752
0.575947 1.17099 -0.548919
0.780761 0.975492 -1.0483
2.04639 1.18766 -2.22695
0.876862 0.898252 -1.30157
0.607823 1.20343 -0.820449
1.12301 0.760089 -1.72426
1.20647 1.46235 -1.73409
1.83219 2.07441 -1.38263
2.08015 1.73626 -2.36985
1.31807 1.71351 -1.39745
1.42596 1.63873 -0.119212
1.15753 1.55107 -1.37194
0.822415 0.903463 -1.13419
2.90753 1.40466 -2.64524
2.39897 2.3147 -1.88697
2.06479 2.17427 -1.83982
2.01031 1.86358 -2.0291
1.37835 1.35293 -1.86498
0.65163 1.19956 -0.516855
2.09208 2.09794 -2.06043
1.73401 0.923634 -1.99059
2.14125 1.52121 -2.33079
1.82638 1.78728 -2.02341
2.28432 2.31194 -1.71557
1.4433 1.8504 -1.44784
1.54789 1.95354 -0.894646
1.85744 0.81982 -2.13104
1.3277 1.67792 -1.47322
1.01305 1.20477 -1.60276
1.17914 1.13071 -2.03542
