ply
format ascii 1.0
comment Created by Open3D
element vertex 400
property double x
property double y
property double z
end_header
-1.49924 -0.102879 0.955781
-2.19263 -0.434391 2.80901
-1.23221 -0.560716 1.01163
-0.746876 0.0468888 2.26564
-2.38355 -0.0545123 1.13281
-1.99634 -0.386319 0.85052
-0.558285 -0.339948 1.39971
-1.65759 -0.571794 1.27394
-2.60584 -0.780162 2.45122
-2.4169 -0.0479744 3.55135
-1.59004 -0.413478 0.376645
-1.19789 -0.698323 1.39131
-1.28683 -0.209444 2.51956
-2.07735 -0.592633 2.44967
-1.73241 -0.678186 2.06818
-1.66349 0.0136307 0.386392
-1.4226 -0.336667 0.658178
-2.01107 -0.187402 3.03388
-0.563169 -0.529566 0.721151
-1.39198 -0.113202 2.65922
-1.6408 -0.666908 1.38253
-1.75801 -0.71294 1.61585
-1.73267 -0.632264 2.16764
-1.15686 -0.738222 1.24016
-0.724845 -0.655976 0.683085
-2.02565 -0.728432 1.21124
-0.913828 -0.101046 2.11445
-2.86768 -0.540704 1.97631
-1.06511 -0.348899 2.12145
-2.89532 -0.357008 1.9359
-2.24665 -0.162552 0.673074
-1.44147 -0.539362 2.11398
-0.582773 -0.17413 1.77441
-1.84199 -0.528809 2.43638
-0.761476 -0.36291 1.69895
-1.00359 -0.605523 1.50306
-2.64402 -0.62145 2.59232
-2.65446 -0.262141 1.98482
-0.97622 -0.460815 0.80865
-0.707505 -0.425779 1.4262
-1.23435 -0.422987 2.13334
-2.51903 -0.0926133 1.61979
-1.76181 -0.178489 2.9799
-1.52172 -0.556679 2.04149
-1.96096 -0.449039 2.58723
-0.443212 -0.305008 1.2892
-2.45812 -0.34083 1.72688
-1.03333 -0.407597 1.97493
-3.31096 -0.174693 2.17
-1.07884 -0.499917 1.7995
-2.2123 0.0387545 3.50932
-0.647678 -0.382243 1.4949
-1.46591 -0.274498 2.50235
-2.3787 -0.174424 3.37578
-1.73181 0.00167474 3.17735
-1.68295 -0.483864 1.61207
-2.01811 -0.175832 1.17589
-2.40377 -0.135458 0.69614
-0.868298 -0.612784 1.14151
-0.882097 -0.647829 1.22541
-1.70584 -0.0492587 2.98408
-2.35483 -0.168258 1.45831
-0.67418 -0.284222 1.77947
-1.97615 0.0555116 0.820379
-2.70549 -0.231944 1.51704
-1.74721 -0.178145 2.9357
-2.96043 -0.320226 1.82862
-1.64698 -0.783744 0.94267
-1.43407 -0.389184 2.39703
-2.51408 -0.323824 1.85421
-2.67633 -0.65718 1.54844
-0.621591 -0.455418 1.21917
-1.71711 -0.657766 0.682031
-2.38885 -0.0742426 3.46195
-1.96267 -0.526465 2.52638
-2.17011 -0.211975 1.1277
-1.22717 -0.407277 0.64968
-1.14043 -0.197333 0.511997
-2.04842 -0.687956 1.80967
-2.5948 -0.297145 1.59341
-2.63475 -0.680525 1.85844
-3.03093 -0.315333 2.10606
-2.21759 -0.440409 2.32629
-2.21773 -0.745292 1.44232
-2.0816 -0.424045 2.77247
-0.756802 -0.579846 0.948548
-1.4803 -0.588865 0.921003
-2.08403 -0.604056 2.11555
-1.21056 -0.658553 0.773602
-2.04445 -0.297257 0.82317
-2.49025 -0.349992 2.60721
-1.69862 -0.671626 2.00814
-0.669641 -0.253469 1.75245
-1.78381 -0.585026 2.32527
-2.64247 -0.639286 1.93897
-1.21232 -0.58998 0.774486
-2.17913 -0.725227 2.20842
-1.82472 -0.26891 0.582849
-3.08078 -0.0748963 1.61149
-1.95804 -0.54875 2.31097
-2.0954 -0.360787 2.23773
-2.28784 -0.765045 1.87684
-0.990965 -0.281987 2.06061
-1.712 -0.553322 0.755278
-1.36653 -0.690961 0.273655
-2.08398 -0.526751 1.83352
-2.12751 -0.624889 2.43545
-2.30696 -0.398202 1.34046
-2.06928 -0.386986 1.65687
-1.04481 -0.247114 2.17392
-0.846656 -0.705987 0.776714
-1.89119 -0.503412 2.49839
-1.52764 -0.0128508 3.02685
-0.680068 -0.171958 2.00744
-2.56991 -0.401422 1.5463
-1.92265 -0.289719 1.04064
-1.79998 -0.681473 2.14834
-1.61353 -0.256401 2.68936
-0.580978 0.159165 2.22195
-2.80231 -0.065694 1.51273
-0.762207 -0.475127 1.48413
-1.41527 -0.0724931 0.434411
-1.48359 -0.571079 2.0985
-3.5778 -0.0540214 2.32463
-3.04782 -0.545521 2.20364
-0.445475 -0.0515295 1.63735
-1.03479 -0.521817 1.71109
-1.91009 -0.0817486 0.419609
-2.63964 -0.440507 2.48537
-1.4465 0.155019 0.556064
-2.88752 -0.409664 2.41176
-3.18137 -0.394457 2.04058
-1.42716 -0.469058 1.01088
-0.567346 -0.41174 1.31726
-1.04116 -0.465804 0.72994
-1.2383 -0.604467 1.57524
-1.04769 -0.762479 0.845302
-1.79614 -0.550919 2.36482
-0.869213 -0.660956 0.557007
-1.75208 -0.109371 2.95931
-1.09696 0.0418493 2.59441
-0.665129 -0.387329 0.664641
-0.358236 -0.182089 1.38902
-2.57432 -0.330603 1.58927
-2.26755 -0.618835 2.42754
-1.29753 0.0314162 2.80489
-1.75796 -0.283369 2.8133
-0.997515 -0.29639 1.80319
-1.95923 -0.539124 2.42885
-2.90528 -0.409363 1.51126
-1.7589 0.200722 0.467536
-0.815617 -0.46809 0.769643
-0.626864 -0.551297 0.702196
-1.95649 -0.580998 1.28636
-0.74356 -0.475158 1.42601
-1.88656 0.227828 3.62667
-0.740384 0.0121713 2.1593
-1.27375 -0.279737 0.367557
-0.770922 -0.0861541 1.94895
-0.867551 -0.327445 0.650529
-0.955902 -0.624575 0.909088
-1.03727 -0.206389 2.20617
-0.826572 -0.118853 1.95316
-2.37221 -0.0878159 1.81832
-1.50903 -0.826009 1.46171
-2.1143 -0.198392 0.717375
-0.703942 -0.204222 1.72629
-3.51883 -0.0297889 2.38307
-1.02318 -0.24527 1.29423
-0.965469 -0.130473 2.23193
-1.18272 -0.553643 0.544753
-1.91232 -0.0774933 0.951418
-0.90341 -0.654079 1.09231
-1.00098 -0.545574 0.802565
-2.17338 -0.414388 1.3925
-1.85933 -0.648632 1.03548
-2.0302 -0.663122 1.42981
-2.2977 -0.555576 2.24695
-0.88909 -0.559647 1.3819
-1.50617 -0.618991 2.02622
-1.72684 -0.795426 1.14314
-1.12898 -0.457389 1.97988
-0.928438 -0.458911 1.74413
-2.04974 -0.706002 2.03097
-2.27645 -0.483889 1.56953
-1.92562 -0.609422 2.24824
-2.15501 0.0643265 3.60227
-2.10139 -0.104645 3.22127
-0.595371 -0.515512 0.879339
-1.96585 0.100474 3.46222
-1.24579 -0.228079 0.964148
-0.864968 -0.639611 0.512142
-0.336109 -0.14021 1.456
-2.64188 -0.311256 1.5751
-2.71286 -0.361874 2.01159
-2.37413 -0.481887 1.82112
-2.53239 -0.0857781 1.3289
-1.40214 -0.571793 1.50566
-1.97697 -0.302978 2.91355
-0.684126 -0.577691 0.698184
-0.867915 -0.511261 0.701955
-2.00827 -0.719826 1.52376
-2.37103 -0.343914 1.92545
-1.23485 -0.453645 2.07694
-2.51141 -0.619877 1.58532
-2.98005 -0.0264968 1.52695
-2.92461 -0.14015 2.14607
-1.07943 -0.491198 1.83675
-0.926994 -0.488457 1.36741
-2.58685 -0.311312 1.0052
-0.860114 -0.313024 1.84749
-3.00955 -0.332111 2.02766
-1.99336 -0.603283 2.42009
-1.59192 0.000180956 3.04046
-0.368963 -0.271255 1.34873
-2.10955 0.0848906 1.12105
-1.46367 -0.488016 2.2334
-3.44178 -0.0207775 2.30961
-2.6331 -0.679152 2.42936
-0.947845 -0.548752 0.766145
-2.38262 -0.429285 2.30451
-1.63822 -0.55616 2.02568
-0.836025 0.0172772 2.22081
-2.40847 -0.688342 1.17005
-1.69849 -0.781299 1.8329
-1.1817 -0.744692 1.30273
-2.22519 -0.0857926 1.03149
-2.37908 -0.00934472 1.26655
-1.54286 -0.447086 2.37439
-1.14372 -0.566712 1.76595
-2.09618 -0.586252 1.62288
-2.15598 -0.627709 1.47005
-0.92551 -0.0611125 2.22925
-1.92332 -0.0683181 0.889064
-1.96349 -0.490903 1.59512
-2.51812 0.20471 1.75569
-3.12901 0.0599516 2.31307
-1.13606 -0.53858 0.596524
-0.804331 -0.537507 1.38027
-0.959303 -0.543867 1.53439
-1.71868 -0.559971 1.61376
-2.00198 -0.611053 2.44167
-3.54171 -0.24964 2.25771
-1.84532 -0.491453 1.15759
-2.40263 -0.544604 2.67662
-1.79589 -0.640088 1.33292
-1.24396 -0.686149 1.37648
-1.15025 -0.278225 2.35485
-1.40341 -0.261057 0.511907
-2.16975 -0.492672 1.819
-0.809353 -0.460441 0.618107
-3.37834 0.0166266 2.01271
-0.590977 -0.250486 1.78481
-1.76463 -0.845727 1.66237
-2.94511 -0.484769 1.90839
-1.02313 -0.331147 1.99187
-2.77552 -0.166362 1.68021
-1.201 -0.022931 2.61937
-1.9842 -0.214994 2.9955
-1.4306 -0.723144 0.805795
-1.84683 -0.104743 0.549952
-2.56304 -0.801241 1.97149
-1.48333 -0.0963866 0.514972
-1.3169 -0.768291 1.48409
-2.03469 -0.48995 2.66671
-2.86711 -0.260608 2.2253
-2.07357 -0.514427 1.26162
-2.69635 -0.509995 2.26724
-2.31249 -0.536271 1.52025
-2.79194 -0.0431796 1.56033
-0.474793 -0.189889 1.56529
-0.760839 -0.465312 1.15133
-1.48342 -0.695501 1.79118
-3.18234 -0.273798 2.31777
-1.28938 -0.26622 2.30457
-3.30791 -0.0409942 2.25395
-0.578912 -0.561211 0.699768
-3.28778 0.00337356 2.10026
-2.14229 -0.401144 2.88766
-0.492995 -0.309484 1.48095
-1.63168 -0.533599 1.84618
-1.87108 -0.327104 0.744569
-2.93772 -0.469718 1.73744
-1.87757 -0.672515 1.13523
-2.13552 -0.558146 2.58317
-1.27705 -0.367949 0.481015
-0.730167 -0.351198 0.933293
-0.685082 -0.454119 1.1715
-2.67888 -0.589205 1.80843
-2.46858 -0.539244 2.84454
-3.07992 -0.322855 2.12626
-2.26616 -0.274613 3.15635
-2.44619 -0.211539 1.23864
-1.40643 -0.774127 1.27136
-2.30365 -0.495751 2.72243
-1.91747 -0.187931 0.70196
-1.8988 -0.523271 2.46505
-3.07117 -0.580984 2.1677
-0.863708 -0.641267 1.19175
-1.2272 -0.150508 0.540646
-1.93075 -0.556694 2.36307
-0.920609 -0.435901 1.08254
-1.65731 -0.44604 2.44438
-0.949017 -0.444288 0.491013
-1.83379 -0.491341 2.52767
-1.65287 -0.735071 1.65821
-1.61321 -0.110822 0.367789
-1.08022 -0.735251 0.926087
-1.48135 -0.521428 2.19127
-1.43794 -0.574378 0.638364
-1.8776 -0.451116 2.56723
-2.39455 0.0999127 1.52751
-1.85129 -0.518382 1.46913
-0.58674 -0.472501 1.14762
-1.85969 -0.415572 1.07556
-1.62921 -0.663898 1.10562
-3.1797 0.0136765 1.85128
-1.26176 -0.355203 2.14641
-1.08373 -0.0139976 2.56093
-3.67065 -0.123518 2.00245
-1.92068 0.163875 0.681639
-1.76766 -0.452461 0.328303
-1.85812 -0.547136 2.44744
-0.56855 -0.524125 0.98312
-0.755212 -0.496876 1.4182
-1.52757 -0.553028 1.30873
-1.9546 -0.279979 2.96537
-2.43966 -0.457355 2.93719
-1.7513 -0.00461863 3.13707
-1.46948 -0.799898 1.12493
-1.84636 -0.524703 1.2146
-3.08752 -0.257312 2.26989
-1.269 -0.384676 2.13654
-2.98132 -0.36338 2.09686
-0.689175 -0.0268145 2.15525
-2.61504 -0.354936 2.34323
-1.52083 -0.638173 1.66438
-1.98418 -0.551822 2.33396
-1.76004 -0.431822 2.36245
-2.42517 0.0170563 3.60711
-0.983317 -0.484831 1.72089
-0.794498 -0.471736 1.40352
-1.81832 -0.589309 0.512831
-2.32312 -0.365195 0.91207
-1.81038 -0.530505 0.884974
-0.967234 -0.55572 1.57254
-1.33229 -0.606009 1.88485
-2.09463 -0.684432 1.5532
-2.07068 -0.876073 1.72121
-1.82043 -0.429216 1.4415
-1.76929 -0.607748 1.60466
-2.12177 -0.165443 3.22497
-2.13351 -0.607652 1.33699
-0.892354 -0.405004 0.647566
-2.28504 -0.35083 1.28929
-1.16039 -0.598955 0.595945
-0.601199 0.00508752 2.02502
-2.06424 0.0362497 0.907374
-1.67675 -0.444293 2.46439
-0.575563 -0.431917 1.17359
-0.7302 -0.555008 1.22089
-0.485679 -0.150609 1.80802
-1.51782 -0.574677 1.25736
-1.20912 -0.0944803 2.5789
-0.603639 0.0732186 2.19765
-1.20253 -0.628611 1.15763
-1.37544 -0.303966 2.32284
-2.03876 -0.163053 0.738173
-1.1397 -0.167884 2.45229
-1.73838 -0.509259 1.97888
-0.584771 -0.574727 0.729959
-1.76069 -0.144183 0.689189
-2.0692 -0.5078 1.97156
-2.61524 -0.0971357 1.26401
-1.71386 0.152453 0.463897
-2.51171 -0.57821 2.76706
-1.70525 -0.541919 1.9563
-2.54569 -0.173368 1.56849
-1.29265 -0.685864 1.6806
-1.83455 -0.355763 0.8158
-2.06903 -0.813697 2.07264
-1.6747 -0.445502 0.623269
-0.763475 -0.36828 0.793095
-2.13005 -0.371774 2.81911
-1.78247 -0.706187 1.17285
-1.69657 -0.408483 2.48706
-1.84713 -0.464226 2.47667
-1.37599 -0.291932 0.606756
-1.56287 -0.315202 2.61844
-1.3155 -0.563856 0.876365
-2.29679 -0.246387 1.02697
-1.92796 -0.248951 2.98844
-1.05142 -0.398558 1.98326
-2.47024 -0.638789 2.39115
-1.16199 -0.491809 0.330956
-1.13363 -0.604761 1.67255
-1.42208 -0.371222 1.16514
-2.44177 -0.74514 1.8039
-1.7258 -0.170683 2.95999
-0.810315 -0.098572 2.24193
