ply
format ascii 1.0
comment Created by Open3D
element vertex 200
property double x
property double y
property double z
end_header
-1.11707 -2.1664 -2.05085
-0.972728 -2.95855 -2.81592
0.397848 -5.88395 -5.55766
-3.00869 -3.47004 -6.8349
-1.15106 -2.79434 -2.80458
0.0281893 -1.59779 -0.597859
-1.69161 -5.31058 -6.96955
-0.383744 -5.98514 -6.41029
1.99385 -6.37702 -5.24055
-0.562354 -3.11209 -2.61525
1.47417 -0.87709 0.0746701
-2.92058 -1.4239 -5.10523
1.13229 -2.10838 -0.61
-0.667748 -2.69644 -2.21318
-1.89628 -7.16162 -10.2684
-2.83926 -2.69897 -5.47419
-0.0420059 -1.92357 -0.929023
0.451689 -6.10484 -5.83511
1.37942 -3.77407 -2.21477
0.435692 -1.46823 -0.309599
0.893179 -6.35466 -5.86436
0.00468128 -1.43985 -0.481685
-1.19975 0.203637 -1.16684
1.37639 -3.43901 -1.84113
-1.04647 -0.382264 -0.644566
0.801957 -0.180957 0.105722
-1.98677 -1.69827 -2.70509
-1.85572 -6.21245 -8.63734
1.88629 -4.62446 -3.02848
-0.455301 0.362555 -0.660921
-3.0521 -3.41902 -6.89485
-1.1889 -1.11617 -1.1555
-2.80669 -2.37766 -5.06067
-1.95396 -1.8235 -2.76987
-2.02292 -0.833854 -2.19408
0.299191 -0.573604 0.120958
0.159744 0.226254 -0.213183
-1.6761 0.025448 -1.87871
-2.55969 -0.786409 -3.86562
0.177442 0.168156 -0.125469
-2.53982 -0.680394 -4.10947
1.04377 -0.348324 0.124323
1.60111 -2.42026 -0.786169
-1.95541 -0.865211 -2.07512
-1.53372 -0.0342636 -1.41991
-1.54183 -2.64043 -3.0802
0.898265 -1.08914 0.038646
-1.1226 -5.94951 -7.18748
1.17418 -3.74857 -2.26862
-0.177328 0.148855 -0.165618
1.35082 -2.03317 -0.506823
-2.12691 -7.18462 -10.7087
-1.15393 -0.127211 -0.772932
-1.87498 -1.45356 -2.31392
-1.08772 -4.89135 -5.55259
-0.105754 -3.20883 -2.36563
-2.48842 -0.841188 -3.44854
2.39809 -6.92016 -5.7961
1.60042 -3.55105 -1.89089
0.127511 -3.43976 -2.47956
-2.33629 -0.41225 -4.01301
-0.233058 -2.84714 -2.03364
-2.00378 -0.0989107 -3.37629
-1.62592 -5.48749 -7.14647
-2.28702 -5.61082 -8.40657
0.416725 0.00225468 0.0390901
1.52735 -0.368737 -0.0897238
-0.854897 0.176954 -0.647563
0.479935 -2.43295 -1.14667
-1.39786 -0.945512 -1.27958
1.78877 -3.70453 -2.0037
-0.9075 -2.22807 -1.90788
-2.79312 -1.45075 -4.45553
-2.98043 -3.24106 -6.47441
-0.002033 -6.41878 -6.69324
1.95198 -0.439789 -0.389597
-0.57238 -0.991994 -0.515743
-3.02286 -3.25501 -6.6113
-2.87991 -3.52626 -6.56779
-2.59117 -1.51516 -3.81719
-2.02494 -5.31456 -7.4897
-1.87532 -2.71361 -3.62506
-0.0338709 -4.82708 -4.41272
-2.32721 -0.437846 -3.43612
0.623136 -3.81006 -2.61933
0.364919 -0.103015 0.105465
-0.0517161 -5.8312 -5.86315
-1.87213 -0.562658 -1.84964
-2.26701 -2.98836 -4.59572
-1.50463 0.103874 -1.59428
-2.75661 -3.08552 -5.71348
0.398506 -1.20992 -0.144417
-1.30114 -6.62279 -8.48332
0.0396729 -1.38977 -0.424575
-1.64861 -0.396583 -1.44484
-1.98078 -7.31226 -10.667
-2.1092 -0.190973 -3.20939
-1.18409 -3.91717 -4.288
-2.69356 -1.11477 -4.13324
-1.6196 -0.0031282 -1.6577
0.0172771 -3.08384 -2.12999
-1.23647 -6.79294 -8.66993
-1.76221 0.0608106 -2.42833
1.47127 -0.358133 -0.0613913
0.0397053 -3.32281 -2.39863
0.243563 -0.550214 0.111778
-0.156621 -0.705926 -0.099219
-1.24327 -0.49893 -0.887796
-2.08207 -5.29614 -7.55557
-0.422297 -2.03771 -1.29649
1.1806 -0.795109 0.136005
1.6932 -6.6104 -5.72033
1.26603 -0.789548 0.125055
0.985248 -3.16244 -1.68796
-1.1057 -2.71995 -2.66689
-1.68769 -0.594901 -1.52695
-0.370161 -1.77952 -1.00774
-2.25561 -6.25994 -9.39724
-1.27362 -1.73436 -1.77736
-2.05222 -0.215079 -2.63288
-0.374258 -2.90248 -2.20696
0.622006 -0.725988 0.14339
-0.0773271 -0.289936 0.0418229
-0.465006 -4.97884 -5.0142
-1.02093 -5.09017 -5.76609
-0.376759 -6.16359 -6.67272
-1.96529 -7.3519 -10.7076
-2.50487 -4.04825 -6.45612
0.249972 -2.3016 -1.13182
0.286954 -3.75836 -2.76411
-0.684666 -5.28666 -5.68255
-2.47629 -5.51063 -8.60564
0.482888 -1.74728 -0.511053
0.242106 -0.758966 0.043088
-2.42224 -4.02929 -6.27013
-1.61622 -0.137103 -1.48553
1.6124 -3.7894 -2.14989
0.619873 -0.654611 0.161628
0.466431 -4.32926 -3.37087
0.344128 -0.00689726 0.0485271
0.61099 0.14231 -0.177779
-1.26608 -4.30168 -4.9185
-2.62533 -1.09738 -3.85074
-1.8237 0.0294865 -2.63439
-2.93662 -1.43867 -5.19686
0.253096 -3.34816 -2.28637
-2.55359 -2.19753 -4.26399
-0.0709379 -1.17482 -0.325029
1.32438 -1.46791 -0.125589
1.51903 -0.314845 -0.133321
1.28555 -1.24836 -0.0139163
0.319357 -5.28772 -4.771
2.1394 -6.28436 -5.04765
-1.88725 -7.69959 -11.168
1.80705 -5.05539 -3.58873
-3.11401 -2.11747 -5.95373
0.750379 -5.805 -5.18046
-1.33539 0.0190608 -1.11513
-0.0477073 -1.48428 -0.545622
-2.68654 -2.2777 -4.65461
-0.859871 -0.608436 -0.536378
1.30438 -5.14435 -3.93816
-2.43039 -0.611455 -3.50742
0.0703638 -1.96696 -0.904591
-1.40817 -1.3518 -1.58858
-1.60112 -1.75526 -2.19461
1.98464 -5.99743 -4.73332
1.61433 -2.22909 -0.62765
1.42221 -1.89247 -0.392433
-1.66929 -2.05863 -2.59246
0.03019 -2.75899 -1.74939
0.373248 -3.37151 -2.23933
1.14079 -4.5371 -3.2415
0.752527 -2.73064 -1.32685
-0.258167 -1.5498 -0.72629
-0.23623 0.231067 -0.286195
0.889819 -0.473528 0.181004
-1.91987 -3.31961 -4.45418
-1.82066 -1.73828 -2.48446
-2.03047 -5.15667 -7.25546
-2.66467 -0.835388 -4.819
-2.01024 -2.67373 -3.78286
0.275812 0.0816532 -0.0262102
0.536371 -3.23055 -1.98076
-0.541798 -3.96545 -3.68719
-1.98192 -2.01375 -3.00342
-1.9027 -5.17311 -7.07699
-2.32295 -1.85812 -3.45592
-0.887171 0.159629 -0.660729
1.87348 -4.71903 -3.14727
-2.65014 -0.984805 -4.04272
-2.39695 -0.684833 -3.2236
-2.02346 -0.509466 -2.18357
0.541369 -0.239568 0.159032
0.0189077 -5.57141 -5.42157
-1.81463 0.0413965 -2.73203
0.384124 -4.72028 -3.94387
0.734549 -1.68122 -0.370824
1.42528 -1.55321 -0.171251
1.39039 -0.316041 -0.0448665
