ply
format ascii 1.0
comment Created by Open3D
element vertex 250
property double x
property double y
property double z
end_header
-0.801516 0.948623 0.826301
-1.69651 2.53035 -0.206363
-1.10984 1.98013 -1.0312
-0.31677 0.62811 -0.522592
-0.211466 1.34564 -0.574969
-0.370299 0.677314 -0.843664
0.227416 0.894549 -0.04518
-1.75047 2.90394 -1.46654
-1.21515 -0.0453466 0.614775
-0.540695 -1.52842 -0.377093
0.0206719 0.47845 -0.18383
-1.1956 -0.636877 0.365834
-2.59158 3.36382 -1.88413
-0.669548 0.228928 0.477527
-0.77147 0.727332 -1.03345
-0.963675 2.05575 0.177298
-0.468168 -1.02779 -0.296031
-0.721628 1.38714 -0.168694
-1.46371 0.126445 0.162125
-0.214943 0.952204 0.0862941
-1.88131 1.76644 -0.245866
0.566356 0.962619 0.647655
-0.211575 -1.19894 -0.0167375
-0.0694859 -0.498168 -0.416015
-0.655908 1.1847 -0.0663381
-0.920742 0.429288 0.506729
-0.685397 -1.43764 0.514308
0.356732 0.222523 0.0414666
-4.01594 3.77889 -2.71352
0.14279 -0.0846359 -0.133911
-1.43802 -1.06337 0.94051
-0.441266 -1.45555 -0.184214
-0.229088 -0.710192 0.474441
-0.210487 -0.638408 -0.583476
-1.01749 0.344868 0.587452
-0.226121 -0.630045 0.247864
-0.675427 0.864615 -0.300641
-3.92177 3.76536 -1.53692
-4.84375 3.32794 -2.46046
-0.814417 2.02247 -0.438916
-4.5277 4.35852 -2.31393
-0.904503 -1.24126 0.55561
-0.705531 1.6637 -0.160659
-0.892138 2.3822 -0.435999
-0.44466 -0.983529 -0.326858
-2.68099 3.80004 -1.49576
-0.499948 1.17427 -0.561815
-3.02448 3.85183 -1.44511
-4.54709 3.72552 -1.82984
-1.09148 -0.398689 0.401265
-0.13108 -0.291106 0.542859
-3.22741 2.49723 -0.846196
-5.22432 4.00412 -1.63169
-3.27145 3.24179 -1.87445
-0.488946 1.98759 -0.665943
-2.06224 3.05347 -1.5738
-0.102482 -0.392548 -0.516421
-0.156416 -0.33445 -0.490885
-0.683857 0.224911 0.852033
-0.298198 0.296417 -0.280053
-3.98907 4.47727 -2.37998
-3.2596 3.5403 -1.49899
-2.70692 3.61266 -1.43604
-2.28544 3.31544 -1.6573
-0.320337 0.989502 0.0566165
-4.16608 3.83227 -2.04331
-0.690581 0.416854 0.13731
-0.811223 1.4816 0.38678
-0.489408 -0.625375 0.714467
-5.02038 3.99332 -1.66693
-2.37117 3.57887 -1.21332
0.102773 0.158018 0.351766
-1.81668 2.00273 -1.42636
-0.825104 -0.703239 0.27819
-0.4094 0.215543 -0.831208
-0.170998 -0.144031 -0.297106
-2.59231 3.35817 -0.767296
-3.8793 4.54063 -1.48806
-0.800931 -1.60573 0.176076
-1.33562 1.61384 0.244029
-0.272253 -1.13692 -0.23547
-0.183803 0.73827 -0.0610215
-1.19211 -0.5064 0.450857
0.0791115 0.696203 0.304212
-0.218887 0.473719 0.276605
0.327995 0.218752 0.263735
-0.348796 1.63795 -0.581348
-1.16819 1.51652 0.236681
0.159316 -0.785362 0.939002
-0.550705 0.73349 -0.963206
-2.11964 2.41973 -1.58703
-2.52265 3.72467 -1.40453
-0.324707 0.777496 -0.493766
0.172588 0.263795 0.930092
-1.88321 2.31498 -1.05354
-0.154567 0.485941 -0.696452
-0.145644 0.405655 -0.236942
-0.0512577 0.236008 0.306527
-0.479738 -1.46603 0.150511
-1.52565 1.19543 -0.0961593
-0.720843 -0.828454 0.246922
-1.79792 2.81248 -0.668568
-0.798537 2.3997 -0.216921
-0.619832 0.0403388 0.294737
-1.0187 0.990032 0.50916
-0.182426 1.34836 -0.1797
-1.31088 1.35224 0.0111866
-0.708639 2.05651 -0.930436
-0.61472 -1.65914 -0.0497892
-2.16681 2.56939 -1.84133
-0.79692 1.43242 -0.521933
-1.15325 2.19711 -0.25479
-1.80212 1.30654 0.00691851
-2.24269 2.46407 -1.58694
-1.51876 3.23642 -0.168664
-1.00534 -0.387042 0.587751
-2.60011 3.48561 -1.79071
-1.37476 -1.96334 0.06141
-1.01196 2.1329 -1.10979
-3.29672 3.19998 -0.640701
-2.28285 2.69642 -0.337294
-0.199708 -0.938745 0.485431
-1.05573 2.63986 -0.679409
-3.94961 3.88473 -1.38513
-0.184897 -0.91892 0.392468
-4.02309 3.87768 -1.30347
-0.691963 -1.17984 0.813362
-1.71423 -1.15934 0.383714
-0.766093 -1.73842 -0.162156
-1.82072 2.50191 -0.383001
-0.58946 -0.636583 0.605087
-0.906804 1.19683 -0.0363463
-0.726937 -0.592252 0.994735
-3.23338 3.67909 -2.08385
-3.43557 3.79518 -1.4241
-1.21966 -0.658073 0.738993
-0.118237 1.08782 0.0732056
0.0289481 1.47208 0.520066
-2.18267 2.86841 -0.433843
-4.55706 4.12607 -1.89187
-0.176477 -0.556365 0.259547
-1.15273 2.48285 -0.921256
-1.71936 1.37155 0.0132911
-3.28978 3.7503 -2.19759
-0.902972 1.64549 -0.691952
-1.5397 2.61716 -0.973316
-0.44261 0.25931 -0.410403
-0.64835 2.46197 0.111031
-0.00263536 -0.815332 -0.0203708
-4.14688 4.00162 -2.48958
-4.74338 4.30796 -1.66069
-1.6241 2.71272 -1.30439
-0.424998 -1.10975 -0.421355
0.383284 0.131588 0.299935
-1.88832 3.1825 -0.62641
-0.674517 -1.03177 -1.06684
-0.437211 -0.0258407 -0.326018
0.0853238 1.48504 -0.365877
-0.264929 -0.509936 0.660674
-1.40618 1.58829 -0.541241
-0.743252 -1.66412 -0.504152
-0.141215 -0.291807 0.422555
-1.25997 -0.935493 0.211721
-1.24925 2.24394 -0.736163
-0.37019 -1.08165 0.059319
-0.0967633 -0.752541 0.578871
-1.13258 2.19498 -0.0508401
-1.57712 3.25621 -1.07414
-0.0618837 -0.247423 0.522494
-1.84056 2.95206 -0.543118
-4.71115 4.00734 -2.53601
-2.56314 2.69521 -1.42908
-2.70181 3.09385 -0.907773
-1.13009 0.369027 0.488894
-0.252223 1.17277 -0.0909657
-0.616982 0.705754 0.4649
-0.981426 1.34192 -0.203771
-0.311012 1.05134 -0.440874
-1.13764 1.87215 0.212039
-1.75419 -1.42687 0.24736
-0.219848 1.51344 -0.169031
-0.89236 1.73927 -0.283529
-1.31747 2.1944 -0.908977
-0.0156457 0.413335 0.31534
-4.17922 3.56785 -2.00489
-2.59812 3.60376 -1.34103
-0.376435 0.259514 0.591207
-1.55193 -1.42575 0.226151
-0.937693 -1.45847 0.112037
-2.63915 2.64179 -2.11957
-1.58926 -1.81692 0.1994
-1.40265 -0.736365 0.712963
-0.837823 -0.169785 0.258112
-4.1982 3.56085 -2.70674
-3.51561 3.21063 -2.32927
-1.01624 -1.58304 0.0837276
-1.36791 2.29191 -0.109267
-0.334714 -0.899747 -0.0356806
-0.337909 -1.08468 -0.335414
-0.170739 -0.401546 -0.508338
-2.91859 -0.973791 0.74392
-1.58487 0.211102 0.828138
-5.34724 0.181592 0.353153
-6.53506 -1.52692 -0.0879366
-8.5175 -0.682113 0.429704
-8.61302 -1.59261 -0.254936
-2.62783 -0.983248 0.563504
-6.15726 -1.40378 -0.209988
-4.97382 0.0532905 0.493937
-2.76385 0.151213 0.700502
-2.11999 -0.747347 0.442214
-3.29975 0.325345 0.961473
-1.84754 -0.501509 0.907232
-2.44572 -0.654328 0.668451
-5.77458 -0.200956 -0.00408623
-5.07505 -0.27677 0.311153
-2.34082 -1.11588 0.701409
-6.58588 -0.176968 0.357903
-4.95943 -1.4225 0.418821
-5.43836 -0.490064 0.632073
-8.53616 -1.00864 -0.355734
-2.41571 -0.643236 0.69151
-5.40639 -1.58567 0.249495
-4.05242 -1.37376 0.559459
-8.92585 -0.799929 -0.313114
-9.12704 -1.16502 -0.128853
-2.77055 -0.334087 1.01274
-5.97864 0.253333 0.277963
-8.41548 -1.61419 -0.360404
-1.5325 0.164223 0.684755
-6.7955 -0.317117 0.223845
-1.13306 0.50145 1.14237
-1.50545 0.374841 0.973293
-8.17296 -1.12878 0.182595
-7.32115 -1.21372 0.0114602
-6.92972 -0.0916703 0.0235736
-5.63038 -1.59264 0.2315
-5.15661 -2.12992 -0.191851
-3.90093 -1.32442 0.742992
-1.96137 -0.0917115 0.721419
-3.70202 -0.55212 0.766933
-8.20445 -0.0447973 0.132263
-6.77871 -1.48041 0.276519
-9.35871 -0.906376 -0.0938072
-4.02657 -0.233873 0.399106
-7.47927 -1.4334 0.0401777
-2.48022 -0.139031 0.356712
-8.61333 -1.02287 -0.341783
-8.61612 -1.22334 -0.159949
-4.18014 -0.541725 0.78534
