ply
format ascii 1.0
comment Created by Open3D
element vertex 250
property double x
property double y
property double z
end_header
0.0573785 -0.959877 0.109519
-2.12644 -1.76571 -0.297239
-2.40942 -0.98215 -0.447582
-1.07372 -0.364945 -0.11995
-1.28282 -0.0981503 -0.00836237
-1.25954 -0.202197 -0.346067
-0.418503 0.227733 0.313866
-3.1301 -1.19438 -0.928625
0.334569 -1.21379 -0.483714
1.18391 0.446492 -1.3191
-0.462308 0.00251183 0.0865847
0.410648 -1.1314 -0.711368
-3.85969 -1.78828 -1.5083
0.0586444 -0.821153 -0.0815427
-1.7937 -0.750243 -0.501384
-1.35094 -1.17254 0.150366
0.251139 -0.239086 -0.691922
-1.36663 -0.953456 0.0464393
-0.508567 -1.60365 -0.601389
-0.673935 -0.434203 0.263292
-1.94233 -2.03159 -0.531776
0.347884 0.455821 0.745013
1.39222 0.627597 -0.893609
0.214409 0.378309 -0.523867
-1.14716 -0.907806 0.0709834
-0.0972517 -1.07936 -0.153004
1.80038 -0.00599319 -0.964612
0.27597 0.563517 0.122698
-5.00216 -2.74178 -2.63648
0.167657 0.363514 -0.111557
1.77659 -0.837988 -1.11127
1.55635 0.688632 -1.28761
1.06314 -0.0053751 -0.29775
0.093242 0.285368 -0.700057
0.0550332 -1.12996 -0.22983
0.667034 -0.0913094 -0.281437
-1.24616 -0.906951 -0.0846308
-4.25863 -3.2715 -1.92246
-5.24287 -4.02474 -2.83293
-1.87192 -0.901638 -0.00798781
-5.08528 -3.33948 -2.61387
1.44024 -0.449918 -0.887276
-1.46133 -0.911678 0.105753
-2.00704 -0.918054 -0.000300045
0.195712 -0.220816 -0.674119
-3.77352 -1.99078 -1.28774
-1.48464 -0.580887 -0.0777006
-3.90591 -2.38292 -1.4111
-4.66803 -3.78465 -2.39501
0.297578 -1.09439 -0.553235
0.782276 -0.0827045 -0.0277428
-3.12624 -3.07434 -1.38847
-4.63853 -4.30926 -2.72096
-4.24428 -2.6854 -1.75523
-1.75958 -0.339616 -0.0465892
-3.40191 -1.47765 -1.09868
0.00707179 0.319329 -0.526046
-0.196856 0.0890287 -0.428569
0.605251 -0.727699 -0.0600707
-0.699956 -0.419989 -0.0825573
-4.82837 -2.59954 -2.44522
-4.0014 -2.72056 -1.55718
-3.74402 -2.1335 -1.25991
-3.58532 -1.59038 -1.2399
-0.776723 -0.553633 0.218515
-4.75121 -3.31778 -2.27858
-0.520739 -0.921685 -0.0867312
-0.817213 -1.06149 0.172877
1.1907 -0.287364 -0.339028
-4.64309 -4.13992 -2.60645
-3.44821 -1.88374 -0.987173
0.304261 0.0456922 0.212336
-3.08734 -1.66343 -0.921637
0.448581 -0.776047 -0.54864
-1.08284 -0.291184 -0.44072
-0.2936 -0.135875 -0.217419
-3.13599 -2.33273 -0.90433
-4.29537 -2.96933 -1.86307
1.37941 -0.190051 -1.10743
-1.17171 -1.53794 -0.131454
0.863702 0.356024 -0.839491
-0.6817 -0.358375 0.165854
0.438464 -1.13514 -0.653509
-0.142289 -0.0888891 0.379627
-0.193289 -0.415048 0.184009
0.366774 0.384095 0.252909
-1.51733 -0.270476 0.00808389
-1.10245 -1.39491 -0.0549775
2.28861 0.873114 -0.290824
-1.53271 -0.426573 -0.429867
-3.41231 -1.80764 -1.1162
-3.64117 -1.89229 -1.16488
-1.13591 -0.391045 -0.0711966
0.974561 0.141382 0.402923
-2.92743 -1.82138 -0.734969
-0.830085 0.100533 -0.294239
-0.609124 -0.225896 0.00758376
0.0936018 -0.172872 0.178186
1.5205 0.25671 -0.990666
-1.44597 -1.74926 -0.399645
0.563807 -0.619836 -0.562875
-2.68439 -1.72365 -0.485867
-1.79507 -0.885771 0.143783
-0.0448127 -0.772142 -0.145303
-0.449794 -1.22056 -0.0466575
-1.06777 -0.307265 0.248926
-1.33724 -1.54379 -0.219815
-2.03465 -0.42798 -0.288874
1.48366 0.25879 -1.23748
-3.53998 -1.61205 -1.31469
-1.73921 -0.948376 -0.118713
-1.91026 -1.29091 -0.0657459
-1.41664 -1.97266 -0.522226
-3.48962 -1.94451 -1.16108
-2.23915 -1.46229 -0.106886
0.601475 -0.947536 -0.495464
-3.83959 -1.82081 -1.44654
1.28156 -0.717379 -1.54328
-2.37174 -0.722099 -0.478195
-3.1042 -2.99894 -1.29554
-2.44874 -2.25153 -0.654107
1.40657 0.220194 -0.450203
-2.31318 -0.932359 -0.175157
-4.14483 -3.29401 -1.87407
1.25919 0.202469 -0.441888
-4.08126 -3.37729 -1.88723
1.94174 -0.0847907 -0.789681
0.796634 -1.38652 -1.25341
1.15994 -0.0642966 -1.25969
-2.33557 -1.86794 -0.425485
0.985246 -0.435213 -0.392204
-1.21124 -1.16776 -0.0426878
1.54141 -0.4114 -0.451203
-4.33724 -2.31372 -1.88583
-4.03013 -2.83183 -1.6085
1.04193 -0.971298 -0.744903
-0.701644 -0.316398 0.328835
-0.376276 -0.219099 0.636325
-2.58291 -2.12334 -0.603424
-4.77626 -3.639 -2.41555
0.642935 -0.058422 -0.225736
-2.47459 -0.959346 -0.364372
-1.42472 -1.90014 -0.456684
-4.40036 -2.25417 -1.99623
-1.99656 -0.978357 -0.212064
-2.76221 -1.37675 -0.527685
-0.896299 -0.578798 -0.189871
-1.46085 -0.797773 0.355373
0.988177 0.572699 -0.539864
-5.0015 -2.97271 -2.53618
-4.63643 -3.80366 -2.42418
-2.98611 -1.23857 -0.765236
0.323599 -0.0419419 -0.812217
0.539425 0.50463 0.231282
-2.75908 -1.72999 -0.486058
-0.477329 -0.225039 -1.1248
-0.637676 -0.556484 -0.242303
-0.940137 0.264698 0.190299
1.09491 -0.110815 -0.18125
-2.07687 -1.59149 -0.381421
0.639475 -0.130117 -1.26364
0.615906 -0.115075 -0.050101
0.406481 -1.14977 -0.88027
-2.37554 -1.24635 -0.309397
0.844535 -0.0266149 -0.632949
1.37581 0.246233 -0.284335
-1.69732 -1.30036 0.0137045
-2.90534 -1.12922 -0.593931
0.755172 -0.018078 0.0157288
-2.61894 -1.76365 -0.445435
-5.29117 -3.57991 -2.81201
-3.5708 -2.30645 -1.20817
-3.24174 -2.47687 -1.03693
-0.126741 -1.25947 -0.296979
-0.966768 -0.43899 0.23138
-0.250314 -0.84047 0.0962653
-1.4843 -1.22549 -0.0996272
-1.21371 -0.385398 0.0176781
-1.28131 -1.34994 0.0286968
0.810675 -1.37593 -1.40074
-1.15144 -0.346672 0.271888
-1.68401 -1.08016 -0.0149196
-2.51979 -1.26296 -0.43041
-0.00139628 -0.165058 0.256632
-4.7022 -3.44587 -2.26853
-3.63476 -2.064 -1.15848
0.288126 -0.513735 0.0968388
0.824436 -1.20029 -1.28556
0.937321 -0.562172 -1.01923
-3.97021 -2.00359 -1.65979
1.22176 -1.0041 -1.54205
1.03442 -1.112 -0.889333
-0.0177338 -0.954069 -0.337403
-5.13867 -3.10472 -2.67159
-4.61037 -2.71448 -2.13131
1.00416 -0.580087 -1.13207
-1.85976 -1.506 -0.117601
0.528778 -0.111218 -0.52448
0.517335 0.118103 -0.783428
-0.15448 0.107026 -0.475264
1.19505 -2.14613 -2.00676
0.442644 -1.4801 -0.622942
-0.2099 -4.17265 -3.32953
0.39294 -4.73242 -4.82592
1.14763 -5.55572 -6.21457
0.51407 -5.89283 -6.50346
0.868026 -2.06159 -1.78111
-0.00387538 -4.65612 -4.45292
0.0840807 -3.85297 -3.0992
0.229843 -2.37851 -1.44486
0.480672 -1.83535 -1.32648
0.579106 -2.62199 -1.78993
1.11458 -1.4454 -1.08199
0.784089 -1.97746 -1.52571
-0.541713 -4.56584 -3.74922
-0.00582345 -3.96076 -3.27025
1.26208 -1.70572 -1.67033
0.227265 -4.78322 -4.42603
1.09554 -3.49434 -3.65962
0.799794 -3.90146 -3.67909
-0.16547 -6.09845 -6.18455
0.817319 -1.9456 -1.50295
0.95518 -3.82414 -4.04074
1.24715 -2.85986 -2.98214
-0.153796 -6.30453 -6.43603
0.539834 -6.16049 -6.78468
1.1467 -2.08662 -1.66109
-0.308022 -4.58299 -3.78957
0.272924 -5.87909 -6.32327
0.250607 -1.48997 -0.605694
0.110538 -4.95566 -4.62269
0.787276 -1.05384 -0.228018
0.569095 -1.38907 -0.514313
0.92909 -5.46254 -6.05267
0.475034 -5.15784 -5.34911
-0.395848 -5.20096 -4.6235
0.955245 -3.96143 -4.21425
0.529701 -3.82383 -4.00041
1.5607 -2.63821 -2.88827
0.457882 -1.74842 -0.979093
0.911784 -2.78009 -2.39638
0.0116979 -5.78926 -5.65304
1.13741 -4.57529 -5.0886
0.460736 -6.31209 -6.88305
0.0250688 -3.28797 -2.47276
0.745545 -5.14511 -5.57665
-0.140682 -2.29169 -1.33491
-0.111332 -6.1223 -6.25602
0.406572 -5.9284 -6.37588
0.978736 -3.06062 -2.75406
