ply
format ascii 1.0
comment Created by Open3D
element vertex 200
property double x
property double y
property double z
end_header
-2.46735 -1.42346 1.42586
-3.1566 -2.28311 1.56585
-5.28239 -5.94836 1.54274
-7.68126 -2.31398 1.85822
-3.20854 -2.04688 1.58571
-0.638248 -1.36787 0.795444
-7.38562 -4.5492 2.09662
-6.38524 -5.73689 1.8379
-4.37204 -7.22535 0.885878
-2.81594 -2.60589 1.45625
0.614383 -1.54917 -0.413114
-5.93608 -0.427333 1.09593
-0.230304 -2.43124 0.368016
-2.46587 -2.13667 1.40319
-10.593 -6.55851 2.25812
-6.32292 -1.53105 1.72893
-0.989878 -1.64631 0.935303
-5.52733 -6.21032 1.54987
-1.69914 -4.20375 0.702151
-0.20031 -1.45358 0.536983
-5.38943 -6.67572 1.39964
-0.531741 -1.20761 0.75109
-1.53993 0.629746 0.272759
-1.33829 -3.86447 0.621153
-1.04088 0.203147 0.729377
0.413092 -0.602345 -0.391909
-3.38811 -0.680356 1.48551
-9.02978 -5.50227 2.19772
-2.2878 -5.33874 0.615751
-0.763866 0.409253 -0.156786
-7.75021 -2.26172 1.83379
-1.61273 -0.382326 1.11688
-5.91211 -1.2152 1.64665
-3.44188 -0.810074 1.5207
-2.88077 0.113303 1.1357
0.194687 -0.593441 0.207587
-0.113379 0.0292154 -0.329314
-2.39465 0.627693 0.459509
-4.61822 0.110827 0.879363
-0.0301904 -0.00676395 -0.273034
-4.82484 0.1265 0.71156
0.518092 -0.873019 -0.442343
-0.218946 -2.99271 0.187114
-2.74696 0.0743039 1.15197
-1.92289 0.595722 0.563213
-3.60931 -1.75209 1.65523
0.331332 -1.36909 0.10204
-7.39285 -5.43041 2.04281
-1.83061 -4.07134 0.80634
-0.213504 0.18527 -0.0335221
-0.0418316 -2.48406 0.207559
-11.0896 -6.53205 2.27412
-1.1848 0.435208 0.593312
-2.97021 -0.476011 1.39064
-5.82126 -4.28665 1.91763
-2.40803 -2.9027 1.29606
-4.21324 0.116723 1.01352
-4.74759 -8.00699 0.76327
-1.29909 -4.09701 0.523127
-2.43129 -3.24564 1.2454
-4.63583 0.228688 0.43504
-2.13427 -2.47666 1.26777
-3.89949 0.404943 0.232776
-7.53134 -4.76283 2.10299
-8.95686 -4.7304 2.18635
0.206631 -0.242923 -0.271081
0.520389 -1.22912 -0.83384
-0.927929 0.513192 0.238919
-1.00756 -2.39993 0.830423
-1.79998 -0.152121 1.10556
-1.33464 -4.35327 0.453674
-2.25544 -1.56667 1.37346
-5.29461 -0.383469 1.25617
-7.32658 -2.0776 1.81942
-6.51481 -6.36172 1.75668
0.417079 -1.60681 -1.18307
-0.769698 -0.522423 0.843979
-7.46942 -2.09235 1.80883
-7.38921 -2.37686 1.90117
-4.63542 -0.416033 1.38585
-7.99574 -4.46325 2.142
-4.24655 -1.72429 1.73643
-4.34792 -4.62904 1.56254
-4.10907 0.329528 0.649256
-2.37971 -3.86006 1.09664
0.238773 -0.277358 -0.144779
-5.74116 -5.70162 1.70666
-2.48763 0.303984 0.980765
-5.30834 -1.908 1.8361
-2.0604 0.645491 0.393076
-6.53232 -1.92871 1.83632
-0.0481768 -1.19766 0.454808
-8.68944 -6.11896 2.13844
-0.46212 -1.17816 0.715324
-2.01673 0.383373 0.865206
-11.0002 -6.70922 2.27141
-3.79703 0.435106 0.422605
-4.64589 -3.2081 1.80472
-4.93833 -0.117023 1.08665
-2.17234 0.619777 0.517563
-2.13494 -2.83056 1.21542
-8.84394 -6.32893 2.13774
-2.92756 0.58706 0.301055
0.52386 -1.18076 -0.792485
-2.38594 -3.08532 1.25864
0.165071 -0.543785 0.22716
-0.201322 -0.465629 0.524753
-1.35058 0.180525 0.85216
-8.07786 -4.42885 2.14574
-1.48768 -1.58263 1.13735
0.555199 -1.29481 -0.244385
-4.94724 -7.32564 1.07062
0.580648 -1.34486 -0.309935
-1.34105 -3.38219 0.763767
-3.05976 -1.98757 1.55577
-2.12061 0.237738 0.990106
-1.18652 -1.3541 1.03818
-9.88816 -5.46144 2.23154
-2.25413 -0.938703 1.35161
-3.25087 0.507902 0.603152
-2.3535 -2.47098 1.33807
0.337388 -0.901045 0.0937927
-0.0129096 -0.165322 0.253562
-5.08193 -4.61428 1.74059
-6.00125 -4.52567 1.92438
-6.63291 -5.93469 1.85496
-11.0334 -6.75776 2.27196
-7.16844 -2.97898 2.02073
-1.07966 -2.15666 0.907746
-2.64586 -3.64794 1.24093
-5.80038 -4.86179 1.85136
-9.20892 -4.58233 2.18037
-0.382707 -1.73934 0.612847
0.0881444 -0.717319 0.337913
-6.96411 -2.97411 2.01811
-2.02324 0.552986 0.662172
-1.54558 -4.34285 0.576455
0.357837 -0.841258 0.0558584
-3.16203 -4.32541 1.27092
0.184831 -0.203747 -0.212488
0.0983396 -0.301316 -0.569828
-5.27853 -3.58956 1.88448
-4.65224 -0.0835368 1.12896
-3.14228 0.555518 0.290138
-6.02698 -0.448862 1.08392
-2.19799 -3.20982 1.16946
-5.07168 -1.05752 1.6405
-0.402681 -0.925072 0.687729
0.331594 -1.95309 -0.00264445
0.480892 -1.19242 -0.878196
0.431807 -1.73745 -0.0777254
-4.55949 -5.27363 1.4914
-4.13074 -7.2009 0.795579
-11.4433 -7.1712 2.27937
-2.85849 -5.74199 0.748285
-6.83322 -1.02469 1.37287
-4.78946 -6.01991 1.38561
-1.56078 0.582473 0.501825
-0.614333 -1.22367 0.792651
-5.48684 -1.12323 1.6443
-0.880939 -0.0593351 0.785938
-3.38841 -5.58081 1.02378
-4.22776 0.244065 0.805712
-0.924444 -1.74238 0.895372
-2.11223 -0.523588 1.26422
-2.76938 -0.846767 1.44027
-3.88927 -6.81915 0.827735
-0.0566499 -2.82014 0.111405
0.100832 -2.39501 0.109095
-3.17934 -1.12386 1.54078
-1.76189 -2.50724 1.1326
-2.10746 -3.29039 1.11936
-2.78154 -4.8656 0.991424
-1.07939 -2.83222 0.772464
-0.869337 -1.18527 0.913998
-0.341885 0.257524 -0.088879
0.498197 -0.862735 -0.237187
-5.05919 -2.34099 1.86273
-3.12194 -0.763678 1.47623
-7.77446 -4.28819 2.12719
-5.53171 -0.07088 0.64515
-4.44279 -1.6463 1.7468
0.0947044 -0.110927 -0.249305
-1.79601 -3.2254 1.00931
-3.83916 -3.50406 1.61126
-3.67841 -0.989353 1.57932
-7.56081 -4.33941 2.11395
-4.21955 -0.762063 1.55137
-0.954291 0.516694 0.267342
-2.40738 -5.42911 0.643191
-4.82957 -0.0243902 1.00567
-3.96075 0.229651 0.930427
-2.84992 0.363668 0.931482
0.350811 -0.477154 -0.158175
-5.2933 -5.44975 1.64792
-3.22659 0.537791 0.241797
-3.74293 -4.6991 1.3754
-0.14755 -1.81117 0.448826
0.325787 -2.0895 -0.0326458
0.508511 -1.09587 -0.758659
