ply
format ascii 1.0
comment Created by Open3D
element vertex 400
property double x
property double y
property double z
end_header
-2.84604 -0.320713 -1.08942
-2.17453 0.00236778 -2.17207
-2.39276 0.346058 -2.04616
-2.83332 0.434877 -1.14602
-2.20742 0.277659 -2.26451
-3.06212 -1.82066 -1.09229
-2.22268 0.231526 -2.1922
-2.42135 -0.929363 -1.67105
-2.27314 -0.989667 -2.03821
-2.94433 -0.929448 -1.26541
-2.72132 -1.57236 -1.23261
-2.89394 -0.349766 -1.33244
-1.97175 0.115933 -2.84289
-2.50668 0.295279 -1.61235
-2.2139 0.287521 -2.29633
-2.29894 0.461451 -2.24011
-2.68543 0.520375 -0.942947
-3.16327 -0.584807 -0.833791
-2.17864 0.135578 -1.98943
-1.80036 -0.179047 -2.41049
-2.90674 -0.393375 -1.09961
-2.35172 -1.51152 -1.36812
-2.37805 0.253379 -1.61399
-2.29322 -1.1305 -1.51339
-2.60093 -0.920369 -1.70868
-2.99013 -0.489702 -1.74896
-2.03525 -0.164563 -2.30669
-2.43789 -0.219901 -2.20504
-2.14478 -1.53492 -1.68955
-2.2341 -0.683894 -1.85237
-2.70854 -0.349753 -1.4351
-2.949 0.691601 -1.521
-2.50009 -1.27594 -1.79758
-2.73625 0.16739 -1.19539
-3.12447 -0.492378 -0.601463
-2.76173 -1.12022 -0.945485
-2.17997 -0.999684 -2.22437
-2.07667 -0.318528 -1.87102
-2.7226 -1.55088 -1.63387
-3.21817 -1.92421 -1.11336
-2.36024 -1.26982 -1.39641
-2.44283 0.186491 -2.10103
-2.28492 0.2292 -2.17524
-2.88009 -0.267524 -1.09513
-3.17152 -1.1563 -0.382177
-2.7774 -1.29225 -1.31166
-2.54253 -0.247667 -1.66584
-2.3277 0.48521 -1.96488
-3.02401 -0.861815 -1.33613
-2.61744 -1.79881 -1.27252
-2.12003 -0.741569 -2.19725
-2.57063 -0.250257 -1.57009
-2.58983 -0.436139 -1.44489
-2.89698 -0.207053 -1.23051
-2.54242 0.711899 -1.55165
-2.69344 0.486532 -1.88218
-2.6973 0.542939 -1.46629
-2.85416 -1.77304 -0.719687
-3.16246 -0.676814 -1.2694
-2.81508 -0.965219 -1.05711
-3.07801 -1.00017 -0.634834
-2.92166 0.557592 -1.46244
-2.77788 -0.673818 -1.34006
-2.77419 -0.157281 -1.22271
-2.91179 -1.1527 -1.02576
-2.74687 0.384362 -1.53253
-2.49116 -1.38178 -1.41513
-3.34583 -1.09369 -0.897185
-2.4672 -1.32453 -1.64451
-2.90948 -0.606005 -0.522474
-2.5832 -0.278095 -1.5302
-2.854 -1.79513 -0.896172
-2.26549 -0.520805 -2.28986
-1.85348 -0.599574 -2.03439
-2.9707 -1.37051 -0.854946
-2.78144 0.324577 -1.76793
-2.61227 -2.03519 -1.08266
-2.54203 -1.96662 -1.35964
-2.44423 -0.898588 -1.80013
-2.06241 -0.771697 -1.96578
-2.94822 -1.52307 -1.0165
-2.2742 -0.507437 -1.74255
-2.97273 -0.318102 -1.05092
-2.54645 -1.12935 -1.16757
-2.9779 -2.03583 -0.781391
-2.50708 -1.09131 -1.46541
-2.19318 0.298296 -2.42708
-1.93864 -0.170907 -2.18437
-2.41414 -2.21379 -1.33076
-2.51422 0.196273 -1.89368
-2.58812 -0.856558 -1.2644
-1.9942 -0.0995268 -2.71412
-2.13616 -0.858919 -2.37529
-2.99507 -0.899226 -0.758549
-2.11452 0.232238 -2.18612
-1.98533 -1.02788 -2.04462
-2.96485 -0.539789 -0.802505
-2.90206 0.950735 -1.46784
-2.81891 -0.993951 -0.794088
-3.15684 -1.32111 -1.19923
-2.87543 -1.58174 -0.759618
-2.55164 -0.755716 -1.52966
-2.88785 -0.687132 -0.572449
-2.67405 -1.82491 -1.12805
-3.20357 -1.2454 -0.605023
-2.82489 -0.224126 -0.266733
-2.45505 -0.675559 -1.43356
-2.14364 -1.12748 -1.97618
-3.1697 -0.802593 -0.318026
-2.20206 -0.866372 -2.24072
-2.35579 -0.840413 -1.98848
-3.12871 -1.25045 -0.406995
-2.95463 -1.51777 -1.22683
-2.62639 -0.240194 -1.96248
-3.14923 -0.410938 -0.831301
-3.16614 -1.30857 -0.184075
-1.99334 -0.540855 -2.06274
-3.00545 -1.53266 -1.00115
-2.62665 -1.10948 -1.51053
-2.60308 -0.249857 -1.76828
-2.15608 -0.293361 -2.32977
-2.85847 0.891498 -1.47885
-2.9605 -0.652551 -1.01976
-3.01674 -0.675293 -0.859979
-2.99039 -0.79978 -1.43884
-2.61813 -1.16202 -1.45765
-2.30576 -1.02321 -2.07319
-2.96145 -1.95427 -1.02886
-2.81816 0.643132 -1.34537
-3.0708 -1.21117 -1.1884
-2.39724 -1.10704 -1.44013
-2.38617 -0.538755 -2.42236
-2.84268 -0.573177 -0.494631
-3.06359 -0.958442 0.0155082
-2.41427 -1.20334 -1.7194
-3.12471 -0.749701 -0.782699
-2.48507 -2.16915 -1.37849
-2.85036 -1.90588 -1.13987
-2.78193 0.273565 -0.940211
-3.07214 -1.10209 -0.345303
-3.17841 -1.83994 -0.708956
-2.42522 -1.74832 -1.71354
-3.06772 -0.358025 -0.766278
-2.98504 -1.9286 -1.26584
-3.30435 -1.35945 -0.423127
-1.9144 -0.225651 -2.36788
-2.49468 0.490862 -1.79112
-1.9555 -0.0623491 -2.69049
-2.93013 0.576097 -1.27734
-2.8951 -1.41837 -1.08421
-2.87439 -0.866111 -0.701701
-2.91801 -0.176513 -1.31776
-2.86993 -0.26623 -0.840885
-2.26304 -1.62453 -1.55318
-2.1388 -1.22461 -2.07042
-2.77137 0.774802 -1.40311
-2.41383 0.183671 -1.92979
-3.26099 -1.83177 -0.614595
-2.34393 -1.7148 -1.54733
-2.42302 -0.321917 -1.76131
-2.73567 0.12457 -1.35786
-2.03729 -1.65693 -1.49311
-2.60403 -1.26193 -1.38535
-2.82137 -0.48058 -1.7755
-3.11084 -0.532921 -0.930637
-2.11022 0.322976 -2.48597
-2.80115 -0.110362 -2.04271
-2.53969 -2.00451 -1.00298
-2.89937 -0.101558 -0.476997
-2.68121 1.0136 -1.55878
-2.51232 0.227815 -1.83125
-2.95862 -0.724801 -0.784735
-2.7115 0.189206 -2.11565
-2.37707 -1.74023 -1.76772
-2.6018 0.467771 -1.9572
-2.58898 0.389358 -2.22908
-2.90312 -1.48227 -0.387861
-2.97818 -1.62775 -1.1309
-2.63903 -1.91436 -1.55759
-2.68776 -1.59799 -1.4178
-1.99288 0.32089 -2.32581
-2.53555 0.250306 -1.83673
-2.21929 0.221698 -1.94632
-2.43746 0.500785 -1.69335
-3.04937 -0.486947 -0.487071
-2.53458 -1.32051 -1.37476
-2.4302 -0.0260862 -1.89234
-2.99488 -1.15794 -0.211241
-2.84255 0.0637736 -0.600262
-2.10369 -0.188753 -2.4292
-2.69981 0.651768 -1.78404
-2.19647 0.0610813 -2.36172
-2.71052 -2.0796 -1.24135
-2.71637 -1.50707 -1.02935
-2.64604 0.0585179 -1.19253
-2.97562 0.821726 -1.45516
-2.42132 -1.16497 -2.29123
-2.31252 0.227327 -2.19168
-2.03623 -0.324284 -2.22282
-3.2383 -1.13197 -0.209413
-2.4625 -0.699881 -1.34232
-3.14221 -1.87001 -0.947402
-2.97503 -1.08628 -0.975341
-2.01713 -0.240552 -2.52678
-3.22104 -1.17244 -0.509907
-2.20249 -1.50334 -1.24715
-2.60931 0.303956 -1.12675
-2.91985 0.731246 -1.68361
-3.08988 -0.177098 -0.762544
-2.4587 -0.152923 -1.70798
-3.11397 -2.10739 -0.950802
-2.67079 -0.304497 -1.74685
-2.60057 1.14762 -1.44234
-2.48151 0.0071507 -2.1778
-2.36789 -1.50893 -1.29989
-2.96271 -0.0345003 -0.791428
-2.62317 -0.284448 -1.70012
-2.37872 -1.04061 -1.50298
-2.9892 -1.57289 -1.03322
-2.38769 0.406181 -2.30093
-2.18553 -1.05084 -1.77752
-2.63142 -2.074 -1.17003
-2.78977 0.223816 -1.31988
-2.12546 -0.0888094 -2.25708
-3.24518 -0.578134 -1.07077
-2.94767 0.192919 -0.784008
-2.23389 -0.938323 -1.91245
-3.01229 0.164776 -1.3277
-2.95195 -0.761237 -0.818969
-2.83646 0.136132 -0.910067
-2.55272 -1.85294 -1.37062
-3.03035 0.3253 -1.25728
-2.22123 -0.863545 -2.0798
-2.24637 0.297784 -2.36784
-2.83428 -1.88948 -0.674116
-2.60222 -0.206006 -1.26041
-2.384 -1.51892 -1.27902
-2.91834 -0.520649 -0.646155
-2.93775 -0.146165 -1.12136
-3.32976 -1.11559 -0.447993
-2.95905 0.676334 -1.32557
-3.01726 -0.487876 -0.541561
-2.73318 -0.17812 -1.33103
-3.04024 -0.498781 -0.667747
-2.44649 -0.829913 -1.97275
-2.98476 -0.143987 -0.607189
-2.90223 -1.16568 -1.06902
-3.00449 0.0207331 -1.53849
-2.90071 -1.09785 -1.62525
-2.73297 -1.89067 -1.4838
-2.75777 0.509422 -1.75741
-2.90521 0.33891 -0.917435
-2.69948 -1.10504 -1.30903
-2.94277 0.0266054 -0.844549
-2.83073 0.720893 -1.09659
-2.66533 -0.789513 -1.103
-2.63982 -0.750933 -1.46601
-2.76828 0.427539 -1.30226
-2.01202 0.329112 -2.31273
-2.90768 -0.651062 -1.01884
-2.53922 0.16954 -1.47569
-2.63375 -1.42417 -1.57648
-2.1871 -0.4673 -2.40429
-3.00693 -1.19394 -1.12428
-2.43605 -0.554522 -2.10474
-3.09158 -0.707203 -0.252817
-2.45502 0.465758 -1.60469
-3.02001 -1.14509 -0.333347
-2.20449 -1.07467 -1.2863
-3.16517 -0.632844 -0.996748
-2.77188 -1.22149 -1.35085
-3.07784 -0.94871 -0.396115
-2.76629 0.73222 -0.998162
-3.29332 -1.29644 -0.145624
-2.59669 -0.0024593 -1.92509
-2.47007 0.398041 -1.38269
-3.08204 -1.86913 -0.552407
-2.95086 -0.710797 -1.13486
-2.85386 -1.54931 -1.32304
-2.9826 -0.898604 -0.825531
-2.57382 -1.44634 -1.70085
-2.28229 -1.96459 -1.42584
-2.3537 -0.240321 -2.19586
-2.97017 -2.02334 -0.843341
-2.85084 -0.140561 -1.31944
-2.79485 -0.893966 -1.35922
-2.71981 0.242282 -0.761141
-3.02066 -1.19026 -1.00953
-2.83606 -0.788837 -0.959315
-1.98844 -0.0370422 -2.56678
-2.52751 -0.723756 -1.59899
-2.27999 -0.583181 -1.68612
-2.71801 -0.0896911 -1.71299
-2.5517 0.229529 -2.10087
-2.05635 -0.0534883 -1.91925
-2.58444 -1.87893 -0.981109
-1.97895 -0.83064 -2.15242
-2.97363 0.270166 -1.23782
-2.96804 -0.31401 -1.28923
-3.1776 -1.60975 -0.670396
-2.1958 -0.149885 -2.43512
-2.45262 -0.0625157 -2.09682
-2.97248 -1.49263 -0.553648
-2.86964 -0.517963 -0.824472
-3.15752 -1.41235 -0.284286
-2.9197 -0.4579 -1.30223
-3.00441 -1.00334 -0.918879
-2.01217 -0.104957 -2.6164
-2.93103 -1.35094 -1.07287
-2.82916 -0.693686 -1.0688
-3.0507 -1.15205 -0.246514
-2.33909 0.204855 -2.04762
-3.01203 -1.54078 -0.979852
-2.72143 -2.24244 -1.5388
-2.45511 -1.28699 -1.40745
-2.55549 0.00572896 -1.39887
-2.28833 -1.52154 -1.93165
-3.04183 0.1825 -1.27045
-3.17923 -0.979165 -0.270371
-2.90952 0.0936016 -1.18453
-2.76134 0.0024377 -1.6149
-2.95408 0.241545 -1.17523
-2.57923 -1.35871 -1.52083
-2.75103 1.17267 -1.4192
-2.16284 -0.823689 -2.01314
-2.49714 -0.0228484 -1.60611
-1.95993 -0.0519118 -2.06433
-2.19117 -1.58144 -1.37183
-2.92576 -0.245557 -0.891731
-2.23992 -0.26017 -1.91569
-2.64533 0.54522 -1.46619
-2.83389 -1.57272 -0.997914
-2.73166 0.978596 -1.60575
-3.15675 -0.612771 -0.531932
-2.50067 -1.97334 -1.5515
-2.98521 -1.35945 -0.558255
-3.17617 -1.06406 -0.306917
-3.18409 -1.37661 -0.609603
-3.0713 -1.76955 -0.661817
-2.4115 -0.0463935 -2.07762
-3.0602 -0.254926 -1.60498
-2.06631 -0.737007 -2.23743
-2.40677 0.894087 -1.60953
-2.83507 -1.57651 -1.38877
-2.77358 -1.20104 -1.73288
-2.60752 -0.190127 -1.97854
-2.46195 -0.326667 -1.69754
-2.00695 0.358152 -2.20138
-2.91184 -0.281735 -1.45519
-1.80068 0.183487 -2.73394
-2.1417 -1.71365 -1.43801
-2.18872 -0.721521 -1.97277
-2.71795 -1.51317 -0.550214
-2.59522 0.472038 -2.01129
-2.77571 -0.287204 -1.60356
-3.08355 -0.871768 -0.357153
-2.60262 -1.54184 -1.78204
-2.68346 -1.8966 -1.41095
-2.53066 -1.67675 -1.29791
-2.35392 -0.876894 -1.66737
-2.20703 -1.34465 -2.04656
-3.01616 -2.19265 -1.07056
-2.65554 0.432108 -1.38077
-3.06488 -0.692702 -0.485841
-2.88239 -2.27241 -1.14937
-2.77065 0.584796 -0.908841
-3.1088 -0.947629 -0.540087
-2.46871 -0.049729 -1.50498
-2.59118 0.642824 -1.3683
-2.03132 0.245444 -2.51408
-2.67961 -1.95896 -1.24968
-2.85407 -1.12069 -0.62073
-2.8405 0.331108 -1.15622
-2.937 -0.961345 -0.707389
-2.74824 -1.84191 -1.56259
-3.06225 -0.680018 -0.839627
-2.74115 -0.398366 -1.61733
-2.28191 -0.533596 -2.3672
-2.68415 0.50952 -1.95943
-2.50177 -0.381161 -1.50941
-2.12964 -1.87647 -1.51911
-2.60206 -0.535233 -1.37201
-2.89842 -1.07372 -0.591332
-2.77762 0.998483 -1.35492
-2.2165 0.722455 -1.93234
-2.33056 0.246131 -2.20992
-2.50511 0.46304 -1.72418
-2.78663 -0.18286 -1.40061
-2.63733 -2.03607 -1.38296
-2.4416 0.337126 -2.28908
-2.93368 -0.0729249 -0.859095
-2.73018 0.543534 -1.55305
-2.57216 0.273106 -1.81027
-2.23347 -0.0281743 -2.62432
-2.44066 -0.377098 -1.82777
-2.22384 -0.923169 -1.9034
-3.00047 -0.0226214 -0.870575
-2.53706 -0.33207 -1.50603
-2.85784 -0.633072 -1.26398
-2.98591 -0.391126 -1.53197
