ply
format ascii 1.0
comment Created by Open3D
element vertex 400
property double x
property double y
property double z
end_header
1.89683 2.52735 0.250411
2.795 1.56779 0.235003
2.6902 1.64129 0.632168
1.97403 2.26361 0.960178
2.8725 1.4615 0.49044
1.45636 2.79111 -1.15826
2.83256 1.53231 0.462611
2.28598 2.15544 -0.523746
2.37734 1.74959 -0.686773
1.77312 2.49629 -0.352033
1.8367 2.66303 -1.00448
1.90156 2.30285 0.182805
3.0838 0.904757 0.174142
2.47611 2.02591 0.687276
2.87593 1.43004 0.494837
2.84991 1.46621 0.690207
2.09641 2.47162 1.05859
1.37817 2.64858 0.0911373
2.80984 1.74155 0.402368
3.01749 1.31397 -0.0594802
1.82119 2.51363 0.187977
2.11812 2.49643 -1.04151
2.59822 2.06243 0.625581
2.30547 2.33236 -0.710243
2.15087 2.10907 -0.490786
1.87208 1.92482 -0.0181799
2.8553 1.43622 0.0195283
2.51666 1.53364 0.0584149
2.21801 2.09698 -1.17273
2.5063 1.94127 -0.356672
2.12823 2.26848 0.133641
2.00517 1.8624 1.15425
2.1219 2.03902 -0.873376
2.09391 2.34429 0.680748
1.32045 2.7974 0.215345
1.87472 2.88822 -0.501417
2.43223 1.53231 -0.75344
2.73977 1.89898 -0.0333003
1.86947 2.23847 -1.06626
1.2852 2.75378 -1.23683
2.208 2.46812 -0.809302
2.61098 1.59745 0.474852
2.77611 1.54288 0.474536
1.85908 2.49134 0.305161
1.1536 3.15289 -0.370914
1.87702 2.552 -0.738777
2.34786 2.06255 0.158614
2.77236 1.71423 0.772358
1.70799 2.3887 -0.288573
1.82917 2.62023 -1.25302
2.57256 1.55966 -0.5063
2.30608 2.1514 0.180036
2.2363 2.30531 0.0292073
1.88106 2.35061 0.339535
2.50005 1.99495 1.10666
2.38658 1.70342 0.849476
2.26734 2.04256 0.983847
1.58098 3.16294 -1.07383
1.53894 2.33939 -0.0777784
1.86543 2.7375 -0.365711
1.42056 2.9954 -0.279158
1.99596 1.94742 1.03208
1.99502 2.41303 -0.14784
2.0299 2.39399 0.370276
1.72997 2.78006 -0.52442
2.20679 2.00225 0.826222
2.08 2.45844 -0.898278
1.15108 2.67177 -0.379972
2.12341 2.20583 -0.894807
1.61361 3.04524 0.0940053
2.28266 2.19283 0.163277
1.61127 3.001 -1.13012
2.56065 1.46701 -0.28286
2.79081 1.71002 -0.383514
1.59339 2.96224 -0.691368
2.22659 1.80155 0.728905
1.70952 2.80225 -1.44729
1.80107 2.50501 -1.45053
2.28393 2.01433 -0.516561
2.59268 1.8077 -0.498049
1.62327 2.84678 -0.873921
2.5247 2.04626 -0.154954
1.72476 2.49909 0.278656
2.09962 2.70208 -0.591531
1.3931 3.09858 -1.3212
2.16341 2.38784 -0.623002
2.91998 1.30635 0.475677
2.91108 1.56026 0.0207769
1.72285 2.46606 -1.71461
2.507 1.77941 0.537419
2.13687 2.56127 -0.340098
2.95302 1.01992 -0.00747406
2.51893 1.36408 -0.655542
1.58258 2.91308 -0.217372
2.92123 1.54619 0.445583
2.53063 1.70053 -0.780633
1.64605 2.77653 0.112896
2.08751 1.87474 1.40694
1.79965 2.98396 -0.34108
1.47934 2.58325 -0.681756
1.62527 3.10647 -0.892209
2.21776 2.27901 -0.303062
1.66403 3.04865 0.00462166
1.76972 2.77479 -1.23831
1.22262 3.01917 -0.490746
1.60334 3.13195 0.491391
2.31063 2.37738 -0.222473
2.40008 1.79991 -0.833269
1.09958 3.05181 -0.0246561
2.47286 1.51948 -0.622108
2.37367 1.80568 -0.515309
1.23241 3.20027 -0.470356
1.65453 2.6429 -0.909702
2.31422 1.7551 0.120176
1.39136 2.59358 0.254863
1.03163 3.31272 -0.483549
2.72774 1.69519 -0.305546
1.56138 2.84979 -0.87077
2.06703 2.33715 -0.628727
2.30508 1.95111 0.145986
2.72311 1.41692 -0.0890105
2.13531 1.89688 1.34138
1.71912 2.63642 -0.0364162
1.5953 2.74843 -0.0197092
1.77272 2.28854 -0.254584
2.05608 2.39871 -0.670294
2.3444 1.71437 -0.720792
1.49071 2.87145 -1.29301
2.09179 2.06536 1.12083
1.58542 2.59524 -0.587488
2.23921 2.41607 -0.652884
2.47662 1.33068 -0.305741
1.69678 3.09516 0.121339
1.05437 3.36555 -0.130177
2.20322 2.11683 -0.802061
1.41639 2.77133 -0.0613962
1.72079 2.44323 -1.66594
1.61274 2.76641 -1.28779
1.9548 2.49711 0.836879
1.28852 3.23034 -0.325337
1.22648 3.09582 -1.08434
1.9734 2.11178 -1.33275
1.48153 2.67445 0.30625
1.51697 2.63784 -1.3114
0.963702 3.09532 -0.555153
2.91981 1.36611 -0.0751157
2.57054 1.83602 0.839359
2.99292 1.04342 0.0266757
1.91223 2.07747 1.08509
1.70975 2.77741 -0.79495
1.71948 3.00758 -0.192451
1.88244 2.2581 0.355136
1.78991 2.70511 0.353064
2.11724 2.26866 -1.20875
2.35931 1.68832 -0.949536
2.19161 2.01407 1.22995
2.60597 1.76539 0.501296
1.08865 3.12921 -1.04687
2.03211 2.28394 -1.28054
2.45209 1.99558 0.047195
2.1372 2.21665 0.608456
2.20706 2.27612 -1.27299
2.03415 2.48466 -0.754895
2.05175 1.9409 -0.0419319
1.4928 2.59094 0.115731
3.00656 1.25455 0.47343
2.18844 1.62452 0.258713
1.76009 2.87738 -1.41459
1.58734 2.8906 0.579809
2.40698 1.89172 1.41819
2.50339 1.83356 0.579952
1.64519 2.85551 -0.0610073
2.3596 1.53377 0.519413
2.00148 2.04151 -1.34572
2.49805 1.66533 0.802139
2.55828 1.43506 0.671168
1.50142 3.39334 -0.72096
1.59107 2.74649 -0.993007
1.77805 2.31059 -1.42173
1.867 2.47014 -1.0737
3.07102 1.41321 0.482522
2.48647 1.81999 0.604433
2.79377 1.77263 0.501777
2.60742 1.93648 0.858734
1.37922 2.92571 0.231303
2.06797 2.50058 -0.822188
2.5333 1.82516 0.30835
1.33016 3.38488 -0.365235
1.7267 2.78357 0.707497
2.80865 1.31184 -0.0167241
2.38629 1.75965 1.02899
2.8221 1.37515 0.257752
1.64295 2.64657 -1.50489
1.83836 2.86531 -0.900411
2.19105 2.41232 0.563421
1.9646 1.87199 1.29546
2.22001 1.48559 -0.883544
2.75454 1.52427 0.474198
2.78842 1.52531 -0.119134
0.920226 3.1711 -0.31162
2.29026 2.47419 -0.226017
1.33326 2.91243 -1.16447
1.65706 2.78993 -0.440855
2.85771 1.20702 -0.103333
1.14859 3.04481 -0.402157
2.20554 2.60711 -1.03674
2.23907 2.41934 0.805773
2.11391 1.74598 1.15828
1.43844 2.59186 0.48151
2.45177 2.02024 0.227591
1.28901 2.93188 -1.40073
2.22624 1.96825 0.108795
2.48538 1.99177 1.55706
2.54008 1.53589 0.292018
2.10775 2.57315 -1.0216
1.63814 2.60519 0.595318
2.26883 2.01988 0.129635
2.27616 2.34389 -0.604689
1.57552 2.82981 -0.918652
2.76604 1.40143 0.639564
2.40684 2.02929 -0.708201
1.68637 2.7102 -1.49983
2.07181 2.20191 0.71905
2.81172 1.48663 0.120027
1.35957 2.42024 0.0651047
1.65271 2.53771 0.810934
2.41989 1.88414 -0.617512
1.78963 2.1083 0.693499
1.66402 2.84247 -0.103199
1.8656 2.53441 0.718951
1.84975 2.5046 -1.33885
1.74864 2.10631 0.862613
2.4586 1.69803 -0.581962
2.86515 1.35883 0.496277
1.54699 3.21 -1.18197
2.22648 2.4308 0.289491
2.09302 2.59741 -1.02398
1.6509 2.91739 0.153726
1.79888 2.40441 0.424422
0.930126 2.96982 -0.324616
1.90653 2.00326 1.17664
1.45793 2.9148 0.216817
2.10119 2.31723 0.322904
1.48323 2.81617 0.186805
2.31105 1.82402 -0.485273
1.52221 2.75866 0.527232
1.74687 2.74515 -0.546981
1.85941 1.98092 0.514745
1.84425 2.1882 -0.593639
1.72879 2.40339 -1.36522
2.28425 1.78542 0.90556
1.77644 2.42158 0.92032
1.9886 2.53849 -0.570423
1.68934 2.55764 0.641139
1.98097 2.22416 1.24282
2.05344 2.69462 -0.229978
2.13386 2.33186 -0.270366
2.11291 2.17367 0.914563
3.05703 1.42519 0.496589
1.78351 2.65959 -0.0426506
2.39035 2.16628 0.598131
1.97233 2.29177 -0.947054
2.64252 1.34208 -0.268653
1.64314 2.66999 -0.568394
2.41015 1.66393 -0.246644
1.18495 3.11609 0.0676707
2.56074 2.01712 0.845007
1.35946 3.28762 -0.370997
2.37918 2.57325 -0.624635
1.44343 2.54374 0.0158373
1.90283 2.50338 -0.679212
1.30689 3.14095 -0.187471
2.02558 2.32699 1.26253
0.770307 3.20072 -0.452179
2.38877 1.76185 0.352615
2.47885 2.22431 0.825354
1.26843 3.25362 -1.09849
1.75812 2.55697 -0.115777
1.74666 2.56197 -0.977097
1.6207 2.86423 -0.231227
2.01019 2.15461 -1.00572
1.92924 2.3715 -1.51392
2.57807 1.54982 0.0256162
1.41994 3.04421 -1.32237
1.96626 2.27435 0.379167
1.94734 2.43626 -0.360807
1.96954 2.67921 0.831561
1.60197 2.76872 -0.540264
1.84199 2.7784 -0.173852
2.9658 1.1703 0.0826759
2.25193 2.20525 -0.290536
2.49512 2.11261 -0.215819
2.21077 1.94938 0.330338
2.52127 1.57489 0.534947
2.84318 1.83316 0.211173
1.79159 2.91687 -1.27793
2.62055 1.58895 -0.610987
1.81315 2.16727 0.80549
1.80427 2.30057 0.236513
1.25513 3.08443 -0.85527
2.75637 1.30649 0.0367741
2.53398 1.6254 0.235701
1.47935 3.23874 -0.751313
1.78001 2.80151 0.116106
1.10875 3.30084 -0.600309
1.8552 2.34945 0.0890416
1.61505 2.80596 -0.346015
2.92666 1.11906 0.0103625
1.68636 2.76973 -0.721634
1.88422 2.65683 -0.105116
1.26447 3.32167 -0.358624
2.69997 1.66129 0.485673
1.54836 2.86902 -0.873366
1.57224 2.31461 -1.72504
2.13749 2.46187 -0.810835
2.33226 2.26718 0.458214
2.14764 1.85529 -1.18273
1.72979 2.13179 0.725242
1.06284 3.13934 -0.182999
1.86748 2.29387 0.637493
2.15781 2.00816 0.445203
1.81305 2.23375 0.786932
2.03039 2.34695 -0.881643
2.30012 1.94268 1.60802
2.50989 1.76564 -0.539955
2.4255 2.09092 0.380059
2.92955 1.68397 0.165602
2.17544 2.46026 -1.14209
1.73287 2.62723 0.371047
2.63579 1.84481 0.0435106
2.32804 2.06178 0.978141
1.7139 2.8897 -0.937548
2.35864 1.84172 1.38332
1.23865 2.86445 0.117321
1.82395 2.28617 -1.50546
1.48645 3.20244 -0.622055
1.09698 3.15681 -0.269948
1.2458 3.06739 -0.619577
1.34656 3.16049 -1.02398
2.57144 1.64742 0.248143
1.78598 1.97338 0.246133
2.60886 1.50991 -0.520398
2.70495 1.96121 1.25043
1.76064 2.49807 -1.02027
1.93995 2.10485 -0.737524
2.34541 1.73534 0.162205
2.4095 2.05606 0.0622547
3.05397 1.53315 0.546379
1.91731 2.16864 0.226857
3.21682 1.008 0.230956
2.131 2.35876 -1.29638
2.52911 1.81008 -0.426868
1.74638 3.3198 -0.810879
2.51982 1.61877 0.794731
2.09842 2.07715 0.171117
1.27379 3.13166 -0.106902
1.95794 2.06927 -1.11068
1.75369 2.4759 -1.36523
1.93669 2.58842 -1.15495
2.35155 2.15526 -0.484151
2.26916 1.72096 -1.04913
1.36297 2.82886 -1.5248
2.27388 2.15417 0.887177
1.36586 2.99674 0.0383331
1.43277 2.74165 -1.64357
1.97049 2.43084 1.1383
1.33346 3.02484 -0.2079
2.43153 2.19936 0.369664
2.37513 2.14329 1.08243
3.04212 1.22907 0.377846
1.71866 2.64314 -1.39381
1.69602 3.15122 -0.424027
1.96117 2.2814 0.860009
1.63652 3.00136 -0.275477
1.74246 2.32124 -1.33098
1.52619 2.74091 -0.0140725
2.1195 2.09611 0.0558072
2.54945 1.3861 -0.308338
2.42365 1.63653 0.855409
2.33894 2.2478 0.0545274
2.04299 2.237 -1.47728
2.19717 2.39379 -0.0495735
1.63762 3.14478 -0.3668
2.20239 2.00427 1.45528
2.93746 1.74275 0.990604
2.7479 1.50355 0.491968
2.53723 1.89724 0.827163
2.05673 2.23703 0.313034
1.71542 2.48978 -1.50536
2.6932 1.409 0.583842
1.70914 2.58769 0.542538
2.25713 1.95847 0.972992
2.44879 1.83219 0.637641
2.79777 1.11607 0.124207
2.43044 1.93286 -0.0167719
2.43182 1.893 -0.602687
1.61778 2.5198 0.597257
2.31434 2.23608 0.108473
1.90047 2.45211 -0.0808985
1.84045 2.10127 0.118394
