ply
format ascii 1.0
comment Created by Open3D
element vertex 400
property double x
property double y
property double z
end_header
2.55521 2.22401 -0.993169
1.87089 2.51646 1.01732
2.66371 1.95913 -0.786949
3.06462 1.33602 0.198834
1.85858 2.40012 -0.901134
2.09484 2.09318 -1.08174
3.17972 1.15825 -0.566145
2.29487 2.21541 -0.490458
1.48017 2.27937 0.673733
1.84423 2.23616 1.46089
2.41952 1.66672 -1.60844
2.61792 1.80763 -0.360389
2.58759 1.77401 0.59443
1.90463 2.33193 0.702536
2.14701 2.04165 0.332248
2.41793 1.76087 -1.73097
2.57312 1.89955 -1.27742
2.05027 1.79799 0.991379
3.20058 1.31634 -1.17012
2.52124 1.5852 0.635168
2.27294 2.16685 -0.345299
2.148 2.20698 -0.084588
2.15479 2.06667 0.421177
2.65381 1.69697 -0.526772
3.04951 1.27615 -1.19236
1.96225 2.14955 -0.551797
2.89958 1.15102 0.0367518
1.35753 2.7034 0.159262
2.75043 1.80854 0.278893
1.38729 2.79689 0.0590948
1.9451 2.01271 -1.40207
2.4069 1.98195 0.34577
3.17745 1.29545 -0.212938
2.09339 2.24288 0.678703
3.01039 1.43229 -0.210681
2.78326 1.60533 -0.307448
1.50684 2.60092 0.816483
1.58632 2.86687 0.127881
2.9061 1.81673 -1.04465
3.04288 1.1547 -0.52597
2.59475 1.72961 0.280973
1.73513 2.73055 -0.325479
2.23753 2.1363 1.06254
2.34677 2.22664 0.329033
2.02917 2.52047 0.846697
3.27797 1.108 -0.688302
1.71149 2.68856 -0.111196
2.77575 1.95568 0.190214
1.15559 2.99555 0.181463
2.73024 1.94517 0.0361599
1.99149 2.0594 1.3862
3.10797 1.33051 -0.426038
2.43074 1.5998 0.534688
1.83075 2.33778 1.37749
2.30354 2.01314 1.15805
2.27316 2.43688 -0.119748
2.1157 2.39842 -0.758486
1.82645 2.03488 -1.40454
2.92867 1.63424 -0.665933
2.88825 1.37369 -0.624147
2.30077 1.68606 0.910767
1.84416 2.60055 -0.466365
3.09818 1.55181 -0.11981
2.20357 2.17043 -1.26294
1.55981 2.61389 -0.42933
2.24498 1.97473 0.980564
1.34894 2.75926 -0.0845098
2.27261 1.8828 -0.83252
2.4381 2.05507 0.593684
1.67234 2.7648 0.0210068
1.46514 2.43516 -0.255452
3.11134 1.05684 -0.739816
2.26454 1.82923 -1.17919
1.84399 2.06177 1.35064
2.00444 2.28473 0.759
1.98834 2.35671 -0.823677
2.71754 1.82243 -1.25546
2.81762 1.77154 -1.46968
1.91875 2.37895 0.109046
1.62401 2.63713 -0.300532
1.48451 2.5336 0.100374
1.30795 2.90079 0.21001
1.85103 2.77933 0.601612
1.79215 2.27147 -0.298321
1.94964 2.4601 0.983711
3.03994 1.55715 -0.887492
2.4605 1.969 -0.895947
1.90445 2.51103 0.414073
2.67192 1.73397 -1.04976
2.0773 2.10147 -1.14946
1.68996 2.96941 0.838195
2.17871 2.10927 0.289472
3.09664 1.33093 -0.208726
2.12065 1.8958 0.511109
1.49028 2.59303 0.177147
2.68694 1.7924 -1.06211
1.79679 2.29171 0.489238
2.26091 1.90287 -1.42628
1.32343 2.70799 -0.438906
2.00763 2.48245 0.601971
1.96344 2.82809 0.511163
1.71413 2.36921 0.171878
2.81803 1.44251 0.10909
2.28968 1.92942 -1.11969
2.54873 1.42536 -1.64252
1.9371 2.5656 0.105545
1.85926 2.29479 0.684013
1.82449 2.43546 -0.524671
1.99628 2.5983 -0.127105
2.77779 1.48341 0.215397
2.94303 1.37016 -1.07078
2.06391 2.33818 0.746532
2.44731 1.99819 1.04553
3.10382 1.62533 0.090772
1.61542 2.56408 -0.318371
2.16948 2.25914 -0.874089
2.08999 1.97005 0.387896
2.32249 1.78772 0.741229
3.21168 1.24237 0.113232
1.53082 2.65831 -0.508226
3.00903 1.52835 -0.370697
2.60925 1.77356 -1.62126
2.36369 1.77883 0.286208
1.01905 3.11387 0.253308
1.23881 2.78868 0.371391
3.27885 0.954459 -0.448445
2.76643 1.8526 -0.0657579
2.21538 1.79417 -1.69193
1.55811 2.88966 0.708118
2.62189 1.92438 -1.5473
1.39487 2.94188 0.586716
1.18004 2.828 0.131976
2.52789 2.08754 -0.815393
3.18173 1.34102 -0.589081
2.8547 1.7878 -1.13815
2.5959 2.03333 -0.153608
2.76959 1.5225 -0.965033
2.12286 2.19418 0.610517
2.94717 1.39247 -1.31325
2.25371 1.74518 0.917674
2.78198 1.46354 0.519688
3.16594 1.61203 -1.229
3.35318 1.07112 -0.624061
1.63038 2.62034 -0.291423
1.76293 2.47107 0.693013
2.62554 1.64842 0.753356
2.21256 2.08593 0.928349
2.79501 0.91619 -0.27165
2.00629 2.40846 0.698107
1.36393 2.54208 -0.409977
2.37111 1.85763 -1.70407
3.03284 1.70011 -1.09086
3.15189 1.3682 -1.17931
2.05265 2.27517 -0.495772
3.01596 1.31101 -0.478195
2.26984 2.25496 1.53514
3.06121 1.23058 0.0802564
2.69018 1.64354 -1.62974
3.014 1.03426 -0.145177
3.02005 1.75142 -1.25799
2.87667 1.6815 -0.905387
2.7893 1.43381 0.221559
2.96401 1.03191 -0.136607
1.84296 2.85555 -0.0709558
2.32457 1.8249 -0.263342
2.04356 2.04197 -1.31939
3.05739 1.04071 -0.320432
1.06941 3.15829 0.322452
2.8947 2.29586 -0.512644
2.85945 1.38605 0.216051
2.72472 1.65019 -1.34363
2.22857 2.25255 -1.05122
2.8928 1.58423 -0.71693
2.86672 1.75102 -1.03654
1.92146 2.45134 -0.441168
2.12958 2.08084 -0.766976
1.96202 2.29575 -0.314829
1.76084 2.65401 0.525987
2.90469 1.73285 -0.411655
2.33881 1.85188 0.246965
2.18796 1.98513 -0.599253
2.68377 1.86395 0.181893
2.86402 1.79055 -0.0598283
1.90285 2.33441 0.332633
1.81433 2.51721 -0.226221
2.01524 2.34104 0.5338
2.05402 2.43551 1.56741
2.01479 1.89711 1.14846
3.18021 1.44449 -0.989586
2.17283 2.0924 1.37265
2.734 2.14689 -0.925167
2.95543 1.38845 -1.36727
3.37829 1.11144 -0.559374
1.58529 2.62066 -0.324732
1.51723 2.82475 0.176449
1.73248 2.64165 0.0473744
1.73226 2.53413 -0.676067
2.48076 2.20664 -0.217163
2.04864 2.01858 0.981391
3.10406 1.39461 -1.17548
2.98284 1.64717 -1.16255
1.95685 2.27329 -0.194838
1.77119 2.77783 0.128778
2.58981 1.70534 0.229041
1.59776 2.46187 -0.20096
1.40883 2.66854 -0.536739
1.43015 3.00973 0.222709
2.71878 1.56592 -0.0210889
2.90058 1.98532 -0.400109
1.64096 2.24107 -0.994179
2.92459 1.32639 -0.110934
1.31559 2.85494 0.132682
1.96136 2.1844 0.654382
2.40042 1.86354 1.0096
3.37248 1.43262 -0.565578
2.10546 2.42378 -0.926016
2.39428 1.83486 0.40731
1.11644 3.12759 0.257556
1.49241 2.55793 0.673345
2.90965 1.69707 -1.07978
1.73637 2.82931 0.558226
2.25847 2.35551 0.328957
2.98114 1.1836 0.11835
1.67511 2.20369 -0.649654
2.15753 1.9043 0.102766
2.62516 1.68553 -0.463096
1.97718 2.31734 -0.990829
1.87059 2.51119 -0.754924
2.34136 2.13937 0.600593
2.65568 1.61484 -0.0601336
1.9211 2.44568 -0.118477
1.87164 2.36198 -0.288854
2.89916 1.25457 0.16107
2.2222 2.20473 -1.13138
2.05235 2.48465 -0.160058
1.81166 2.91041 -0.267933
1.34867 3.17902 0.304151
2.76495 1.68068 -1.28378
2.95944 1.33933 -0.502931
2.83846 1.81189 -0.245158
2.22316 2.37446 -0.105489
1.95026 2.00287 0.632135
0.988246 2.99579 0.24883
2.17408 2.24018 -0.663536
1.69396 2.55827 0.903781
2.16056 2.22144 -0.414587
2.58675 1.89754 -0.364315
2.6903 2.06175 0.544199
2.59866 1.79929 -1.47364
1.88258 2.60564 0.072876
3.0391 1.60239 -1.26992
1.14881 2.97282 -0.0699501
3.1886 1.86805 -0.0452274
2.10019 1.95169 -0.0440995
1.31675 2.71446 0.0564966
2.78317 1.38133 0.0389064
1.52373 2.73784 -0.272315
2.68852 1.53378 0.573251
2.0629 1.84161 0.980589
2.47499 1.78748 -1.00129
2.27016 1.90684 -1.52079
1.50121 2.41426 0.24846
2.55904 1.85098 -1.52549
2.49086 1.67945 -0.277729
1.957 1.99718 0.799191
1.4409 2.98283 0.355862
1.97979 2.31604 -0.555113
1.49266 2.79665 0.489341
1.77431 2.46483 -0.272998
1.54418 2.69742 -0.458189
3.26138 1.16067 -0.437983
3.05804 1.8324 -0.656689
2.35386 1.93437 0.0583104
1.22651 3.01773 0.397292
2.57118 1.39024 0.302765
1.1973 3.09686 0.232573
3.17802 1.25237 -1.19565
1.21288 3.02767 0.052086
1.91 2.1969 1.0109
3.26671 1.57811 -0.396875
2.28216 2.41519 0.148342
2.21165 2.02236 -1.21632
1.3239 2.64062 -0.137519
2.10127 2.12265 -0.643723
1.87169 2.31393 0.806407
2.68158 1.71482 -1.47128
3.12403 1.86471 -0.918367
3.11801 1.76763 -0.646407
1.47844 2.59115 0.0175398
1.65142 2.32963 0.99582
1.27288 2.90609 0.224792
1.87487 2.54338 1.28108
1.76905 2.43729 -0.727611
2.44076 1.87627 -0.462397
1.77649 2.56282 0.9484
2.20289 2.02533 -1.31823
2.05335 2.32514 0.716826
1.21158 2.75216 0.337623
2.89101 1.12361 -0.714988
2.75716 1.82731 -1.45529
2.02349 2.39395 0.640235
2.94379 1.96772 -0.726524
2.24726 1.78758 0.565581
2.9294 1.58628 -1.42433
2.10531 2.05897 0.709816
2.22079 2.10487 -0.0427272
2.44217 1.72447 -1.71016
2.74575 1.62124 -0.871053
2.37451 1.8666 0.38352
2.51243 1.7817 -1.23733
2.07685 1.68939 0.632658
1.88108 2.72766 -0.482337
2.14071 2.38849 -0.288948
3.14607 1.10876 -0.793265
2.18714 2.22791 -0.785886
2.30613 2.05467 -0.665909
1.28045 2.88404 -0.211541
2.57855 1.35405 0.171174
2.78461 1.56946 0.535147
0.912864 2.9 -0.0981613
2.25959 2.06011 -1.45914
2.26897 1.63731 -1.67135
2.07382 2.04322 0.644561
3.17089 1.19144 -0.926865
3.01341 1.48326 -0.441082
2.40201 2.21066 -0.447382
2.07633 2.27755 1.09149
1.70008 2.49519 1.09788
2.28433 1.87765 1.08385
2.39642 1.85748 -0.618797
2.16059 2.25435 -0.586291
1.29214 3.00658 0.360608
2.56869 1.42394 0.188907
1.32925 2.86919 0.222965
3.10624 1.41806 0.139255
1.59431 2.94249 0.550107
2.35291 2.18864 -0.0400284
1.98701 2.48138 0.621996
2.18636 2.57393 0.65895
1.85325 2.10869 1.45547
2.80238 1.43809 -0.164102
2.95729 1.04626 -0.565853
2.20346 1.75216 -1.41171
1.83731 2.15799 -1.05244
2.20882 2.04314 -0.977291
2.81324 1.47639 -0.280644
2.48585 1.64345 0.0646989
1.89821 2.33728 -0.175412
1.85159 2.10952 0.0276633
2.19174 2.43113 -0.341444
2.17033 2.33833 -0.110148
1.99389 2.19092 1.24511
1.90256 2.30961 -0.446168
2.98585 1.70899 -1.24585
1.85637 2.42211 -0.597983
2.73275 1.64851 -1.27203
3.17602 1.22786 -0.0375085
2.13126 2.24124 -1.16237
2.2327 1.80451 0.586479
3.20458 1.63601 -0.670028
3.02984 1.34215 -0.654655
3.27616 1.54901 -0.120259
2.4082 2.16625 -0.502458
2.67024 1.64856 0.587851
3.18879 1.37444 0.146021
2.65788 1.93386 -0.607426
2.49498 1.40144 0.327608
2.11094 2.06445 -1.2968
2.71406 1.72647 0.516912
2.19819 2.5042 0.2836
3.16674 1.21905 -1.16721
2.33664 2.01599 -1.33035
1.94809 2.61626 0.254273
1.66697 2.48189 -0.76272
2.40127 1.84976 -1.68777
1.61106 2.41869 0.950034
2.21547 2.43926 0.262581
1.69462 2.66938 -0.362916
2.51288 1.62162 -0.11645
2.23316 2.06533 -1.1169
1.85436 2.02121 0.339027
2.3477 1.87022 -1.30839
3.09593 1.77819 -1.07999
1.93398 2.67063 1.05102
2.1655 2.09396 -0.58533
2.22316 1.6253 0.546498
2.10885 2.47213 0.749012
2.61847 1.86579 -1.34856
2.35091 2.01683 0.759533
2.60387 1.91088 -0.948785
1.88325 2.27508 -0.950351
2.10171 2.18652 1.08348
2.75395 1.61349 0.109148
1.61547 2.56905 0.652596
2.74618 1.5057 -1.61179
2.66035 1.54739 -0.157787
2.54658 2.24064 -0.65527
1.60804 2.42543 0.0782415
2.26472 2.09406 1.03512
2.99889 1.61407 0.287195
