ply
format ascii 1.0
comment Created by Open3D
element vertex 400
property double x
property double y
property double z
end_header
3.33383 -0.761072 0.75545
2.31099 0.290079 2.32151
3.04233 -1.08706 0.997464
2.28397 -1.48242 1.84984
3.08633 -0.267905 0.661759
3.00555 -0.767711 0.594134
2.51419 -1.97972 1.27204
2.94499 -0.594997 1.15584
2.03658 0.0680519 1.96909
1.85191 0.160738 2.67665
3.0341 -1.46611 0.226736
2.68776 -1.1151 1.35171
2.23267 -0.793354 2.09835
2.30438 -0.000747267 2.06899
2.33984 -0.48992 1.81521
3.19453 -1.32043 0.0740105
3.17352 -1.20323 0.540145
1.78813 -0.462054 2.31528
2.92692 -2.03956 0.795721
2.01519 -0.928465 2.10764
2.82174 -0.606386 1.27923
2.67359 -0.447381 1.4703
2.32765 -0.43792 1.88833
2.68095 -1.29346 1.22498
2.81647 -2.04513 0.753203
2.73449 -0.56156 1.03634
2.10071 -1.66309 1.68522
2.59136 0.435438 1.4878
2.48545 -0.933173 1.88495
2.74211 0.514636 1.39601
3.01067 -0.833007 0.264915
2.4223 -0.630496 1.87611
2.48272 -1.71948 1.55317
2.3387 -0.157708 2.08493
2.50679 -1.54986 1.53622
2.57456 -1.35339 1.42573
2.2758 0.428712 2.08893
2.88264 0.540805 1.49046
3.16211 -1.38529 0.831055
2.41749 -1.93064 1.28138
2.33018 -0.957059 1.85479
3.05255 0.254386 1.12502
2.15724 -0.175435 2.41672
2.61511 -0.371368 1.85091
2.47751 0.194574 2.20917
2.57817 -2.09495 1.18794
2.89693 0.245629 1.31984
2.66663 -0.833252 1.82393
2.7424 0.840283 1.44399
2.69889 -0.882603 1.69263
1.81301 -0.0663711 2.63145
2.56349 -1.75336 1.38045
2.01989 -0.928196 2.01555
1.97043 0.234906 2.60932
2.04519 -0.275405 2.49865
2.9676 -0.249301 1.45378
3.15025 -0.354529 0.854154
2.97047 -0.758954 0.232047
2.8355 -1.49221 1.1655
2.564 -1.72145 1.18894
1.86448 -0.665508 2.28828
3.05568 0.035248 1.03636
2.62083 -1.43202 1.62808
3.23232 -0.710963 0.424947
2.89819 0.160657 1.00774
2.05503 -0.358604 2.3474
2.75494 0.460014 1.26236
2.7828 -1.04335 0.881584
2.39739 -0.481877 2.07979
2.88447 0.372798 1.42221
2.59565 0.0101981 1.16506
2.46187 -2.11743 1.11963
2.89195 -1.17001 0.57772
1.74755 -0.0376654 2.58046
2.29207 -0.0619408 2.13365
3.07453 -0.366606 0.771603
3.16701 -1.34669 0.600972
3.28207 -1.45341 0.419448
2.6198 -0.127758 1.57744
2.89218 0.184131 1.1364
2.531 0.189929 1.47327
2.72363 0.686454 1.50714
2.72465 0.45564 1.9628
2.63917 -0.303211 1.20989
2.31912 0.199936 2.30769
2.92583 -1.672 1.0041
2.99337 -1.02574 0.858328
2.59452 0.101161 1.82574
2.96063 -1.40174 0.787091
3.03813 -0.756123 0.524479
2.70107 0.768552 2.12743
2.43617 -0.446467 1.78659
2.46629 -1.66452 1.54597
2.1186 -0.563441 1.9517
2.55324 0.271209 1.53724
3.02882 -1.3427 0.774382
2.30399 -0.0713798 1.8735
3.08454 -1.09587 0.330342
2.86573 0.360705 0.936104
2.54045 0.0898597 2.00352
2.87178 0.44895 1.90483
2.47184 -0.0510478 1.58963
2.27541 -1.35642 1.74866
2.97163 -1.04848 0.624725
2.88962 -1.81663 0.256591
2.80258 0.070083 1.56739
2.25448 -0.0295992 2.04561
2.91649 -0.168194 1.00051
2.9727 0.0342438 1.37488
2.24419 -1.26491 1.82532
2.78681 -1.88541 0.83629
2.37779 -0.0313349 2.13456
2.15981 -0.372654 2.43433
2.59922 -1.28469 1.79542
2.82718 0.0966874 1.127
3.10218 -0.563333 0.779278
2.22085 -0.523657 1.84868
2.03649 -0.643911 2.16565
2.32218 -1.63628 1.7995
2.96397 0.217424 0.921611
2.65766 -1.52095 1.41554
3.25099 -1.37738 0.22452
2.2448 -0.834453 1.81703
2.74266 1.02893 1.47464
2.50511 0.610191 1.64752
2.3483 -2.12671 1.35646
2.68031 -1.02145 1.61782
3.09481 -1.21552 0.0711067
2.61596 0.693381 1.99467
3.36881 -1.17302 0.267116
2.6306 0.774658 1.85625
2.62319 0.630366 1.41932
3.10247 -0.895842 0.932229
2.68295 -1.82555 1.26585
3.15178 -1.41793 0.739728
2.78794 -0.809732 1.51182
2.78138 -1.64378 0.889732
2.34124 -0.23793 2.03521
2.92009 -1.92396 0.629471
1.88667 -0.595858 2.28902
2.10315 -1.15848 2.05563
3.20328 -1.72951 0.728429
2.56245 -2.11919 1.24478
2.87535 0.163057 1.14802
2.35578 0.183165 2.03324
2.07823 -0.855176 2.21993
2.15699 -0.262899 2.30426
1.96915 -1.96419 1.41564
2.4305 0.0430367 2.08374
2.71542 0.145888 0.993678
3.25284 -1.16394 0.0659266
3.14525 -1.56668 0.822783
2.95022 -1.97639 0.779902
2.87377 -0.437794 1.09344
2.51752 -1.76449 1.3234
2.07522 0.0912781 2.80259
2.24107 -1.62099 1.75066
3.17143 -1.58038 0.258789
2.14056 -1.86875 1.55537
3.26658 -1.52944 0.66389
2.95704 -1.49435 0.954981
2.2052 -1.30994 1.82881
2.1069 -1.85413 1.554
3.10551 0.404093 1.36508
2.50215 -0.965104 1.37101
3.04899 -0.829291 0.362549
2.24258 -1.94898 1.43089
2.77823 1.07457 1.54307
3.35132 -0.726144 1.25761
2.2053 -1.3746 1.8332
3.05119 -1.56797 0.541524
3.21618 -0.60794 0.624416
2.79365 -1.54708 1.11735
3.07593 -1.44531 0.83583
2.94329 -0.171017 1.09497
2.86036 -0.748137 0.890202
2.7603 -0.341212 1.22987
2.59576 0.331283 1.88661
2.79898 -1.30362 1.36707
2.31253 -0.769932 1.78279
2.72478 -0.841611 1.05661
2.53905 -0.89482 1.79794
2.67598 -1.11197 1.64043
2.47009 -0.107806 1.76325
2.84606 -0.0137925 1.25641
2.44763 -0.0787899 1.9513
2.09804 0.328319 2.80177
1.78732 -0.30463 2.4382
2.94832 -1.85675 0.944239
1.94934 -0.0889832 2.65048
3.32209 -0.915491 0.868736
2.94635 -1.94169 0.583486
2.58385 -2.06585 1.30184
2.8675 0.174482 1.1082
2.78281 0.524212 1.52407
2.78972 0.214885 1.46894
3.03568 -0.0302382 0.826107
2.91162 -0.603789 1.42915
1.98435 -0.259411 2.31581
2.94551 -1.93504 0.774983
3.10279 -1.62415 0.753746
2.68164 -0.335686 1.33346
2.89903 0.373964 1.53693
2.32821 -0.997934 1.81258
2.66629 0.00496884 1.23826
2.92254 0.27161 0.86735
2.88606 0.775655 1.5314
2.38268 -1.26442 1.63688
3.01833 -1.04036 1.37229
2.86276 -0.400541 0.55324
2.32593 -1.57999 1.59158
2.72208 0.618115 1.44298
2.22501 -0.181714 2.04042
2.03195 -0.495726 2.39162
2.85915 -1.78563 1.31963
3.25384 -0.329461 0.686794
2.25914 -0.746456 1.91941
2.80739 1.01699 1.49392
2.29425 0.351684 1.96573
3.06978 -1.52872 0.809841
2.72779 0.537079 1.90099
2.68335 -0.208212 1.83075
2.14063 -1.62264 1.7622
2.67771 -0.412132 0.882658
2.32294 -0.707411 1.63267
2.62724 -1.27493 1.2711
3.11443 -0.426164 0.61628
3.12681 -0.117655 0.785019
2.41614 -0.36621 2.06833
2.40757 -1.213 1.59638
2.7865 -0.111381 1.37941
2.76135 -0.226956 1.22771
2.13759 -1.52224 1.78769
3.20715 -0.671963 0.553745
2.91225 -0.124085 1.3681
3.23734 0.457968 1.16867
2.96078 1.01261 1.5732
3.07271 -1.5366 0.600859
2.52135 -1.73119 1.29574
2.76091 -1.14731 1.4883
2.87676 -0.297141 1.4595
2.06746 -0.364325 2.0188
2.6174 0.899883 1.47658
2.98487 -0.556672 0.974825
2.30145 0.352724 2.19576
2.84371 -0.521328 1.19209
2.75357 -1.01282 1.34053
2.56223 -0.574752 2.08862
3.19092 -1.34866 0.370389
2.8253 0.12668 1.52501
3.14359 -1.71039 0.670661
2.84057 0.784497 1.21194
2.91552 -1.13646 1.71478
2.39864 -0.687289 1.50178
2.62808 0.442216 1.38754
2.23255 -1.42905 1.68519
2.92006 0.34629 1.12862
2.08937 -1.04805 2.08565
1.83779 -0.429306 2.31086
2.88138 -1.26195 0.785029
3.14373 -1.0902 0.23483
2.36243 0.0885301 1.61084
3.24794 -1.26321 0.298752
2.46831 -1.17373 1.39362
1.99366 -0.315285 2.1538
2.80303 0.763083 1.65616
2.90118 -0.374318 1.02086
2.59656 0.564112 1.79713
2.79766 -0.0695403 1.2116
2.98385 0.266936 0.965558
2.50855 -1.94793 1.38299
3.08028 -1.3273 1.19422
2.47557 -0.758543 1.63578
2.69784 0.876577 1.65155
2.01312 -1.25113 1.85004
2.83541 0.953275 1.48826
2.86883 -2.10413 0.770547
2.86731 0.84387 1.33133
2.0517 -0.0383671 2.32028
2.85472 -1.56109 1.44203
2.83087 -0.205955 1.68377
3.06696 -0.912788 0.503047
2.6555 0.32015 1.22178
2.82652 -0.663777 0.988528
2.2243 0.0233863 2.14818
3.15301 -1.48536 0.403349
3.2659 -1.37736 0.980794
3.05 -1.4111 1.21565
2.6196 0.239185 1.39529
2.0324 0.161422 2.26593
2.70229 0.706189 1.51347
2.21969 0.393487 2.54046
2.98762 -0.172339 0.801073
2.69917 -1.01343 1.23035
2.33109 0.345197 2.24746
3.11744 -0.909424 0.400905
2.37344 -0.0504419 2.10841
2.4724 0.571347 1.61511
2.38576 -1.98845 1.10802
3.29563 -1.3614 0.412618
2.4525 0.00504847 2.03962
3.17348 -1.16106 1.10627
2.06956 -0.686639 2.01495
3.14324 -1.7168 0.510568
2.16853 -0.331755 2.11027
2.60133 -0.569519 1.52389
3.15895 -1.38565 0.111711
2.81554 -1.50589 0.96078
2.28645 -0.718385 1.89777
3.00841 -1.32411 0.58201
1.86119 -0.70176 2.03336
3.20523 0.179845 1.01014
2.92999 -0.295077 1.28305
2.54886 -2.10046 1.08666
3.03881 -0.596796 0.868788
2.88305 -0.822194 1.01932
2.89793 0.617454 1.1162
2.04073 -1.33899 1.74872
2.18919 -1.06022 2.07558
2.65619 0.767636 1.15095
3.25865 -0.871443 0.258126
2.9563 -1.45529 0.140257
2.16559 -0.359491 2.05203
2.69209 -2.07884 0.988822
2.65063 -1.59034 1.35939
2.97798 -0.629767 1.2165
2.17983 0.0171183 2.41563
2.16125 0.341665 2.35939
1.94824 -0.42152 2.43067
2.72833 -1.0622 1.09151
2.95443 -0.520362 1.0391
2.74125 0.837891 1.631
2.08834 -1.26618 1.76474
2.69966 0.645443 1.52561
2.40184 -1.44883 1.81864
2.75792 0.705893 1.86027
2.74718 -0.526935 1.55072
2.51933 0.101389 2.01616
2.69477 0.142272 2.08339
1.74786 0.0375413 2.66871
2.37744 -1.46378 1.53578
2.29308 -2.01823 1.22929
2.89973 -1.27174 0.359649
2.91618 -0.58601 0.554956
2.9674 -0.85922 0.72287
2.46614 -1.47592 1.44878
2.28681 -1.08471 1.66282
2.70025 -0.238468 1.33342
2.375 -0.415113 1.50656
3.02149 -0.275914 1.24431
2.81734 -0.319174 1.44658
1.99079 0.00878553 2.52338
2.80254 -0.33209 1.10131
3.2019 -1.5678 0.673645
2.95621 -0.207484 0.942398
3.01934 -1.56204 0.608671
2.35168 -1.7037 1.67976
3.21062 -0.589259 0.495699
2.06749 -0.658491 2.02927
2.99027 -1.57825 1.21284
2.62763 -1.80456 1.18865
2.71723 -1.48681 1.65808
2.96556 -0.695188 1.17374
2.17218 -0.934778 2.10114
2.40793 -1.50597 1.83333
2.93367 -1.06895 1.15158
1.97028 -1.20854 1.8565
3.09546 -0.823127 0.394699
2.29357 -0.905808 2.05887
2.80592 -0.0430959 1.77577
2.82008 -2.12616 0.792372
3.1865 -0.969593 0.418561
2.78686 0.158511 1.69399
2.99369 -0.0805578 0.738325
3.25168 -1.18962 0.0926601
2.10977 0.248499 2.2213
2.76559 -0.124498 1.76439
2.99086 0.188823 1.09016
2.35962 -1.18085 1.5252
3.07011 -0.857567 0.595289
2.15927 -0.411768 1.76423
3.03924 -1.16423 0.469155
3.24697 -1.49634 0.838193
2.46866 0.436601 2.35968
2.807 -0.707488 1.05572
1.92256 -0.837613 1.98924
2.52106 0.0902501 2.14428
3.20164 -1.26583 0.4859
2.24487 -0.431279 2.1936
3.04099 -1.15492 0.847119
3.00285 -0.443602 0.642213
2.11715 -0.0803983 2.41141
2.38855 -1.18123 1.74626
2.3815 0.320254 1.96991
3.05961 -1.77504 0.310022
2.39241 -1.3148 1.51884
3.18029 -0.692409 1.06287
2.50861 0.0228572 1.48563
2.14703 -0.233054 2.39831
2.44939 -1.18497 1.92684
