ply
format ascii 1.0
comment Created by Open3D
element vertex 400
property double x
property double y
property double z
end_header
2.09594 -1.91307 1.32741
2.70822 -0.745129 1.52531
2.84443 -0.960342 1.11936
2.48473 -1.7699 0.675727
2.89584 -0.69599 1.29476
1.14528 -2.40675 2.1857
2.85165 -0.745377 1.33298
1.98746 -1.3498 2.07104
1.97395 -1.098 2.03708
1.74814 -2.06168 1.63158
1.45334 -1.93463 2.36758
2.08855 -1.89195 1.20447
2.89759 -0.290401 1.38209
2.70563 -1.24197 1.1622
2.90319 -0.690995 1.26903
2.98599 -0.76825 1.09478
2.58755 -1.65138 0.886105
1.67073 -2.42971 1.07458
2.78871 -0.779157 1.52735
2.68772 -0.307125 1.87448
2.02058 -1.99285 1.29128
1.59268 -1.48452 2.61909
2.74747 -1.10061 1.36439
1.88569 -1.29765 2.40045
1.93315 -1.53426 1.85189
2.01031 -1.88907 1.03239
2.63667 -0.587376 1.69474
2.46223 -1.07088 1.34561
1.58803 -1.1848 2.59847
2.2089 -1.04459 2.01866
2.21074 -1.6407 1.43701
2.63715 -1.7311 0.223254
1.72066 -1.46962 2.11604
2.43156 -1.67394 1.05247
1.66637 -2.46023 1.06878
1.7083 -1.98446 2.15405
1.97793 -0.949147 2.01367
2.50984 -0.793543 1.96222
1.46985 -1.81354 2.14206
1.00699 -2.59714 2.04469
1.77148 -1.43239 2.47752
2.72271 -1.02999 1.13543
2.82426 -0.8206 1.26918
2.09891 -1.94458 1.22442
1.26476 -2.68914 1.62335
1.62089 -1.91848 2.09356
2.37179 -1.35993 1.48466
2.95652 -0.886257 1.14448
1.74551 -2.12141 1.43593
1.31638 -1.85916 2.56559
2.18735 -0.835811 1.96068
2.35011 -1.42243 1.49183
2.22421 -1.51518 1.65802
2.14122 -1.90943 1.1081
2.92163 -1.23223 0.829426
2.75876 -1.33414 0.682826
2.71062 -1.47391 0.743336
1.22447 -2.28473 2.54752
1.73579 -2.28226 1.08296
1.77905 -1.98439 1.92084
1.50622 -2.45091 1.64884
2.5658 -1.74181 0.378644
1.98623 -1.80363 1.63241
2.24677 -1.758 1.25984
1.61777 -2.13752 1.94208
2.60339 -1.53549 0.773261
1.65662 -1.59147 2.40013
1.31444 -2.69806 1.21889
1.69852 -1.48804 2.2619
1.79119 -2.23182 1.59999
2.32474 -1.45412 1.51282
1.23011 -2.23122 2.49638
2.31172 -0.917715 1.65794
2.35576 -0.56764 2.22549
1.4383 -2.29903 2.08164
2.59095 -1.50476 0.703524
1.1251 -1.96563 2.76502
1.1948 -1.79385 2.65116
1.99966 -1.3313 1.95757
2.1849 -0.8467 2.16259
1.38041 -2.24618 2.16543
2.31789 -1.08492 1.93377
1.99854 -2.07957 1.12705
1.81099 -1.67405 2.3261
0.991617 -2.4586 2.51771
1.8529 -1.53517 2.19071
2.93067 -0.623935 1.23431
2.65677 -0.520701 1.85634
0.989515 -1.73454 2.83287
2.67485 -1.17613 1.11906
1.96801 -1.64137 2.04718
2.71157 -0.405049 1.50715
2.08913 -0.828559 1.89814
1.64961 -2.28973 1.68108
2.89203 -0.627166 1.4576
1.9974 -0.801451 2.29718
1.8481 -2.1885 1.39593
2.80615 -1.65023 0.11578
1.72812 -2.08017 2.03042
1.40563 -2.39389 1.66203
1.34803 -2.25812 2.39126
2.05354 -1.50214 1.89184
1.78666 -2.19689 1.70791
1.28064 -1.96856 2.59884
1.27808 -2.65203 1.64602
1.94062 -2.17837 1.39976
2.13991 -1.4084 1.99926
1.89779 -1.00898 2.25316
1.38114 -2.67203 1.2683
2.07431 -0.938218 1.92172
2.06249 -1.16929 1.90828
1.27216 -2.63689 1.79527
1.39914 -2.1855 2.06806
2.35775 -1.36103 1.24426
1.75423 -2.39194 0.93071
1.1092 -2.78734 1.74623
2.36963 -0.695135 2.05558
1.34405 -2.31856 2.10208
1.80004 -1.65701 2.04789
2.34906 -1.39714 1.36451
2.50803 -0.739122 1.62747
2.80498 -1.60377 0.227638
1.84427 -2.12165 1.45534
1.75987 -2.24941 1.42042
1.80972 -2.03891 1.39627
1.76831 -1.67327 2.11807
1.94056 -1.13016 2.00353
1.08825 -2.34136 2.40699
2.65595 -1.6462 0.498358
1.51445 -2.27915 1.70326
1.87632 -1.42587 2.32782
2.26482 -1.01333 1.47605
1.85401 -2.15478 1.69398
1.26292 -2.69823 1.58309
1.79672 -1.38442 2.20443
1.61965 -2.42108 1.31121
1.02513 -1.78106 2.74712
1.16961 -2.17393 2.45504
2.39374 -1.80543 0.938608
1.36921 -2.56997 1.7683
1.0062 -2.67605 2.14976
1.37776 -1.5198 2.45183
1.82914 -2.30754 1.03906
1.11556 -2.28755 2.26555
1.06022 -2.86989 1.54621
2.62391 -0.45234 1.81095
2.85471 -1.13395 0.981661
2.74982 -0.36207 1.53954
2.51915 -1.81817 0.375152
1.47687 -2.14498 2.13552
1.74131 -2.15885 1.86399
2.1575 -1.90013 1.02446
2.05425 -2.02197 1.29907
1.50842 -1.36632 2.62775
1.81682 -1.00025 2.24098
2.7771 -1.54701 0.463462
2.71762 -1.05263 1.24114
0.928645 -2.80898 2.02538
1.42419 -1.47359 2.60329
2.38327 -1.2091 1.6381
2.43884 -1.62364 1.04436
1.50485 -1.15921 2.83831
1.70636 -1.69849 2.23275
2.10773 -1.684 1.24524
1.76484 -2.32135 1.10898
2.98392 -0.508131 1.29023
2.36085 -1.51138 0.897579
1.16213 -1.90554 2.85579
1.99291 -2.17595 1.12575
3.02 -1.34011 0.409936
2.68841 -1.18854 1.12343
1.76472 -2.2119 1.58038
2.59985 -1.33037 0.785989
1.38747 -1.45294 2.45241
2.80924 -1.20574 0.80001
2.80549 -1.11439 0.780767
1.31984 -2.40295 2.3751
1.3116 -2.26278 2.15184
1.21733 -1.82628 2.43847
1.44769 -1.84848 2.32043
3.00878 -0.430413 1.48445
2.69122 -1.20935 1.07534
2.82752 -0.821066 1.44689
2.8769 -1.09886 1.08432
1.69966 -2.40889 1.21417
1.68827 -1.63744 2.3455
2.57389 -1.12207 1.37375
1.36223 -2.53402 1.9637
2.15421 -2.03578 1.06705
2.6024 -0.629972 1.57722
2.83808 -1.34602 0.585777
2.7526 -0.69852 1.38278
1.07276 -2.03273 2.61625
1.49187 -1.97793 2.43223
2.43502 -1.58356 1.28455
2.67327 -1.76643 0.0894664
1.80154 -1.22258 1.84028
2.81333 -0.846588 1.23117
2.51757 -0.647808 1.81794
1.11833 -2.84941 1.42372
2.11952 -1.44855 2.05248
1.05563 -2.55553 2.16333
1.60967 -2.2179 1.81486
2.58938 -0.518644 1.63874
1.26137 -2.70224 1.54656
1.62941 -1.35997 2.81212
2.57434 -1.52529 1.15612
2.72455 -1.62874 0.218369
1.88152 -2.31545 0.817882
2.47026 -1.23493 1.50516
0.907707 -2.56962 2.33787
2.28261 -1.49058 1.32567
3.12419 -1.26306 0.459591
2.59459 -1.08371 1.16843
1.59341 -1.52046 2.64313
2.06526 -2.12601 0.919855
2.31403 -1.44745 1.3928
1.92667 -1.3742 2.27341
1.33134 -2.29664 2.13962
2.91723 -0.859324 0.997171
1.95821 -1.09136 2.30196
1.09084 -1.96922 2.71837
2.44805 -1.68617 0.889112
2.66333 -0.684306 1.58737
1.67051 -2.44228 0.888788
2.17348 -2.08144 0.730495
2.02529 -1.08055 2.12118
2.26105 -1.96117 0.574341
1.75996 -2.1966 1.61676
2.27925 -1.90233 0.973079
1.28593 -1.77464 2.59221
2.30811 -1.98607 0.415843
2.07736 -1.00363 1.99665
2.90486 -0.702027 1.1979
1.14281 -2.30212 2.64862
2.33051 -1.55046 1.5403
1.58287 -1.54577 2.64526
1.8549 -2.1858 1.48652
2.11992 -1.98841 1.01492
1.14748 -2.86246 1.25908
2.56475 -1.8196 0.240203
1.74977 -2.34614 1.27866
2.27716 -1.67637 1.30341
1.76528 -2.32762 1.23762
2.04379 -1.27008 1.81953
1.94036 -2.2386 0.996317
1.62062 -2.11445 1.94928
2.24013 -1.89776 0.663809
1.70039 -1.92665 1.66155
1.21868 -1.94143 2.38736
2.71207 -1.44869 0.607284
2.31742 -1.95774 0.663189
1.77008 -1.79763 2.06224
2.12457 -2.07314 0.893045
2.61834 -1.74265 0.445818
1.9611 -1.76788 1.97196
2.01712 -1.61964 1.81335
2.56542 -1.63546 0.75996
3.00735 -0.453803 1.4651
1.88102 -2.05833 1.53824
2.59798 -1.34607 1.25808
1.58499 -1.70777 2.19251
2.37263 -0.787974 1.64692
1.55286 -2.22282 1.80393
2.23452 -1.16511 1.59757
1.472 -2.5864 1.33076
2.83373 -1.15504 1.11383
1.39218 -2.51461 1.90707
1.95464 -1.25524 2.58648
1.69369 -2.37716 1.09601
1.66912 -1.88735 2.03423
1.45069 -2.53692 1.61385
2.64527 -1.69915 0.557762
0.945739 -2.97366 1.43371
2.5152 -1.29616 1.13527
2.75401 -1.25846 1.21454
1.007 -2.6253 2.3375
1.84107 -2.07923 1.48702
1.42515 -2.04893 2.16367
1.67328 -2.25072 1.68618
1.58238 -1.61218 2.19236
1.2212 -1.50699 2.8033
2.4786 -0.984583 1.45621
1.01319 -2.4264 2.50084
2.22071 -1.81396 1.09846
1.85508 -1.8534 1.76925
2.38278 -1.79898 1.10445
1.53133 -2.27646 1.81997
1.8491 -2.01349 1.7838
2.75472 -0.42981 1.55354
2.08458 -1.44861 1.86363
2.26538 -1.12262 2.00381
2.38019 -1.51914 1.11841
2.70135 -1.14516 0.972213
2.70065 -0.70321 1.80743
1.25605 -1.92919 2.77967
2.14862 -0.719206 2.15186
2.31973 -1.93165 0.563925
2.05036 -1.9899 1.07156
1.13222 -2.64963 1.9904
2.60375 -0.719945 1.46043
2.55478 -1.09019 1.28091
1.30926 -2.42685 2.24663
1.93582 -2.06117 1.53379
1.11693 -2.74712 1.87351
2.01279 -1.94875 1.26609
1.62411 -2.25959 1.71751
2.69806 -0.455597 1.53778
1.49881 -2.17781 2.04574
1.91733 -1.95454 1.67824
1.3269 -2.58986 1.85103
2.77465 -0.926677 1.27175
1.33304 -2.3346 2.10639
0.933782 -1.99723 2.50527
1.7342 -1.53494 2.38867
2.48794 -1.41707 1.3883
1.56689 -1.26363 2.33256
2.23266 -2.01579 0.518025
1.27901 -2.72543 1.41867
2.26917 -1.89796 0.835974
2.39594 -1.58659 1.02252
2.30453 -1.93488 0.632034
1.64719 -1.65134 2.24154
3.03221 -1.44725 0.209421
2.12234 -0.951585 2.06923
2.52265 -1.28785 1.40765
2.73565 -0.554052 1.83496
1.56201 -1.33187 2.77712
2.03154 -2.06955 1.1731
2.49702 -0.947467 1.73135
2.74502 -1.4119 0.820596
1.39895 -2.13187 2.34824
2.97822 -1.38905 0.349554
1.56094 -2.54376 1.12362
1.18916 -1.69795 2.57504
1.37709 -2.41836 2.12484
1.26579 -2.71553 1.51616
1.23269 -2.6445 1.79658
1.10444 -2.55398 2.26999
2.58091 -1.04705 1.32796
2.07265 -1.98304 0.787444
2.2011 -0.766294 1.98353
3.12322 -1.02058 0.884208
1.41577 -2.01364 2.16887
1.68964 -1.77115 1.82627
2.39846 -1.32552 1.22695
2.36148 -1.27309 1.62507
3.02169 -0.477145 1.50266
2.13018 -1.86171 1.08132
2.9899 -0.124211 1.5687
1.45153 -1.29537 2.81852
2.19184 -0.968936 2.01545
1.43999 -2.13504 2.62158
2.82388 -1.17904 0.789564
2.22555 -1.65419 1.22996
1.46206 -2.55071 1.52601
1.50308 -1.64043 2.16732
1.22538 -1.9113 2.47459
1.42975 -1.73175 2.5753
2.04376 -1.26696 2.11175
1.7128 -1.10594 2.25181
0.895331 -2.44036 2.44811
2.65922 -1.47226 0.914073
1.60251 -2.45322 1.38975
0.874036 -2.28975 2.57956
2.54211 -1.75989 0.685748
1.47387 -2.51893 1.55084
2.51243 -1.29204 1.50613
2.81492 -1.36594 0.852323
2.95433 -0.429654 1.401
1.17682 -1.96891 2.59098
1.60842 -2.20116 2.12835
2.43021 -1.79006 0.750771
1.65094 -2.24627 1.84295
1.25152 -1.924 2.30699
1.71693 -2.31345 1.34928
2.18273 -1.62813 1.35639
2.29811 -0.91547 1.60725
2.79187 -1.29252 0.658934
2.30183 -1.38548 1.70155
1.30286 -1.3031 2.82261
2.15641 -1.56861 1.74775
1.59691 -2.2575 2.02677
2.88858 -1.53472 0.294151
3.16221 -0.724336 1.15207
2.82057 -0.857165 1.19162
2.82224 -1.17349 1.00797
2.25157 -1.71693 1.20488
1.12199 -1.90365 2.58635
2.84484 -0.937914 0.975418
2.09294 -2.06905 1.00209
2.70785 -1.48219 0.672607
2.68306 -1.2561 1.01997
2.69169 -0.676452 1.27282
2.34353 -1.21891 1.62148
2.03904 -1.06912 2.12802
2.06119 -2.14178 0.830561
2.31414 -1.41816 1.62287
1.95561 -1.91484 1.51686
2.03816 -1.94024 1.03554
