ply
format ascii 1.0
comment Created by Open3D
element vertex 400
property double x
property double y
property double z
end_header
-0.17668 -0.40898 -3.03936
-0.136732 0.916908 -2.96634
-0.599172 0.758188 -3.023
-0.912997 -0.181177 -2.93951
-0.429457 1.02822 -2.99099
0.867926 -1.08897 -3.35387
-0.375414 0.963016 -2.98117
0.593872 0.127372 -3.05591
0.559055 0.380025 -3.07235
0.171517 -0.601613 -3.23683
1.013 -0.580042 -3.1715
-0.330086 -0.357396 -3.15075
-0.357465 1.44915 -3.04163
-0.494501 0.414729 -2.95071
-0.461185 1.03922 -3.00415
-0.664666 0.991194 -3.02113
-0.686171 -0.0791005 -2.78053
-0.334918 -1.02021 -3.14161
-0.138922 0.887118 -2.90031
0.261684 1.30567 -2.81872
-0.203959 -0.497619 -3.08447
1.28188 -0.147316 -2.97282
-0.28525 0.54903 -2.88476
0.984625 0.118175 -2.94823
0.355638 -0.0380115 -3.17537
-0.5402 -0.31648 -3.35884
0.0627727 1.04459 -2.93522
-0.299713 0.574447 -3.15527
1.27631 0.137365 -2.92614
0.501916 0.472156 -2.96958
-0.114226 -0.0894656 -3.08551
-1.45729 -0.05056 -3.10059
0.683004 -0.036586 -3.17201
-0.523202 -0.098272 -2.9481
-0.303177 -1.08828 -3.01778
0.757973 -0.588377 -3.05822
0.536603 0.527923 -3.0651
0.39387 0.77481 -2.84485
0.748377 -0.419863 -3.28847
0.73628 -1.28872 -3.46022
1.08915 -0.0440144 -2.96872
-0.565774 0.671216 -3.08556
-0.440473 0.889057 -3.01287
-0.283781 -0.436381 -3.0504
0.355583 -1.42138 -3.06365
0.681168 -0.506082 -3.20133
-0.104217 0.228943 -3.05297
-0.584107 0.842333 -2.94526
-0.0399068 -0.645577 -3.29331
1.26153 -0.555109 -3.13594
0.441196 0.683676 -3.00051
-0.0866649 0.156065 -3.03921
0.118023 0.0248232 -3.03368
-0.426049 -0.375279 -3.09668
-0.875526 0.472724 -2.89944
-1.03942 0.388103 -3.12134
-0.920962 0.190388 -2.97165
1.27888 -1.01609 -3.10694
-0.39628 -0.80303 -3.31463
0.490637 -0.554183 -3.10396
0.300724 -1.1028 -3.09653
-1.27569 -0.0874799 -3.08245
0.132187 -0.303403 -3.13586
-0.283901 -0.214261 -3.0239
0.539532 -0.734968 -3.17083
-0.879982 0.117758 -3.04113
1.01693 -0.208269 -3.06593
-0.142595 -1.33657 -3.33396
0.853026 -0.0791736 -3.11167
0.222326 -0.854154 -2.91246
-0.0576411 0.116339 -3.03714
1.2086 -0.943448 -3.16663
0.0722201 0.668 -3.10225
0.723585 0.934265 -2.77207
0.730817 -0.948203 -3.1737
-0.977491 0.176259 -3.1484
1.53047 -0.731086 -3.08988
1.3869 -0.529583 -3.12168
0.462612 0.163662 -3.10445
0.673235 0.642655 -2.90007
0.814237 -0.894993 -3.23284
0.392015 0.456835 -2.946
-0.362873 -0.589643 -3.08837
0.91588 -0.26383 -3.00379
1.28378 -1.22467 -3.22128
0.750491 -0.094949 -3.06433
-0.512316 1.12269 -3.03269
0.246718 1.08892 -2.83882
1.6541 -0.555777 -3.03505
-0.560179 0.503111 -3.05842
0.583974 -0.178156 -3.02771
-0.174049 1.27615 -3.02841
0.387167 0.682417 -3.06966
0.293895 -0.902545 -3.08654
-0.243104 1.07354 -2.91453
0.866047 0.629677 -2.88878
-0.0330962 -0.759476 -3.03091
-1.59225 0.0577934 -3.02542
0.638814 -0.688566 -3.02313
0.259734 -0.991596 -3.38211
1.08441 -0.951267 -3.11384
0.389694 4.40845e-06 -3.07512
0.325194 -0.814166 -2.93424
1.30675 -0.676467 -3.13083
0.339818 -1.34582 -3.18159
0.0377273 -0.816333 -2.70966
0.499526 0.0913265 -2.98049
0.824294 0.419894 -2.98067
-0.00731493 -1.39641 -2.97407
0.41361 0.56989 -3.07469
0.396672 0.342312 -3.09845
0.523363 -1.36499 -3.07039
0.690858 -0.808302 -3.30291
-0.381472 0.264708 -3.19286
-0.492376 -0.968856 -3.10449
0.542421 -1.58354 -3.00086
0.522063 0.838383 -2.86613
0.753301 -0.969779 -3.26097
0.597498 -0.206612 -3.15192
-0.237272 0.204648 -3.11978
0.00615648 0.882186 -3.02746
-1.47695 0.100815 -3.01484
0.000349561 -0.66666 -3.12337
-0.00249971 -0.82649 -3.09828
-0.100405 -0.542235 -3.30025
0.681478 -0.236682 -3.13651
0.525508 0.347858 -3.10571
1.12564 -1.06002 -3.28654
-1.1513 0.00345986 -2.97633
0.287935 -0.863825 -3.31777
0.902298 -0.000351953 -2.99071
-0.129805 0.592525 -3.21792
0.31156 -0.77236 -2.86586
0.389461 -1.50461 -2.81237
0.773307 0.0467073 -3.08944
-0.0807225 -1.02914 -3.13272
1.53991 -0.573857 -3.09654
1.16051 -0.879405 -3.25016
-0.601198 -0.265628 -2.86348
0.489383 -1.29105 -2.99729
0.891799 -1.41809 -3.28874
1.13084 -0.198809 -3.13239
-0.38539 -0.88309 -3.03425
0.950853 -0.972847 -3.37311
0.307451 -1.63113 -3.16916
0.198356 1.16026 -2.88184
-0.727567 0.575283 -2.98097
-0.142916 1.32038 -2.99444
-1.24581 -0.197207 -3.01515
0.761978 -0.771432 -3.2127
0.474792 -0.769648 -3.00172
-0.525069 -0.350599 -3.13293
-0.168185 -0.554705 -2.95529
1.31525 -0.0538134 -2.97274
0.82736 0.41337 -3.00959
-1.21604 0.13249 -2.95707
-0.437685 0.626185 -3.01423
0.788485 -1.57208 -3.29438
1.29869 -0.168992 -3.03
0.0550649 0.373935 -3.02154
-0.551558 -0.0277279 -3.00995
1.57629 0.102817 -2.80396
0.820177 -0.285913 -3.11648
-0.330786 -0.107976 -3.27314
-0.329163 -0.883213 -3.14527
-0.462323 1.24442 -2.99965
-0.761269 0.147471 -3.30281
1.63172 -0.681479 -3.01709
-0.279041 -0.771161 -2.80333
-1.33574 0.405567 -2.94012
-0.552482 0.487378 -3.03353
0.169869 -0.801391 -3.05107
-0.925354 0.380976 -3.24304
1.13376 -0.134289 -3.11468
-0.930416 0.524684 -3.0988
-0.975633 0.642007 -3.19124
1.11362 -1.14146 -2.98714
0.801709 -0.912651 -3.29804
1.13308 -0.520892 -3.23954
0.956856 -0.484904 -3.20786
-0.239653 1.29369 -2.87766
-0.604992 0.470988 -3.0458
-0.231411 0.857239 -2.90257
-0.612226 0.597684 -2.91546
-0.144558 -1.05016 -2.93933
0.950041 -0.241979 -3.07612
-0.268814 0.520496 -3.03418
0.710133 -1.28046 -2.91771
-0.383443 -0.585293 -2.79807
-0.0685309 1.01578 -3.01654
-1.14523 0.384981 -3.07194
-0.311841 0.996099 -3.0332
1.36375 -0.780236 -3.20351
1.08712 -0.632814 -3.10063
-0.282836 -0.0161657 -2.91638
-1.59346 -0.083509 -3.07259
0.360109 0.257599 -3.25209
-0.481632 0.866218 -3.03455
0.224368 0.945768 -2.92324
0.214485 -1.64017 -3.01026
0.564662 0.0392616 -2.96019
0.871119 -1.26332 -3.35626
0.412301 -0.815339 -3.17896
0.00303245 1.11706 -2.99527
0.257486 -1.41316 -3.13981
1.50299 -0.0508338 -2.84025
-0.429727 0.0605535 -2.84006
-1.49978 0.0894164 -3.14159
-0.615154 -0.882414 -3.01117
-0.0991346 0.369365 -3.00713
1.08686 -1.31862 -3.36349
-0.267828 0.102912 -3.15792
-1.28736 0.483884 -2.84026
-0.514241 0.598959 -3.1504
1.30837 -0.185701 -2.96373
-0.546666 -0.659486 -2.94176
-0.197001 0.142349 -3.11389
0.832962 0.0662422 -2.99132
0.792815 -0.949835 -3.26694
-0.764576 0.902424 -3.09775
0.865154 0.345444 -2.94735
1.48202 -0.732863 -3.13035
-0.709725 -0.0873347 -3.01072
-0.062616 0.965684 -2.97009
-0.557355 -0.996135 -3.26693
-0.753749 -0.597199 -2.89404
0.647034 0.393594 -3.00777
-1.0055 -0.381332 -3.13287
0.203371 -0.783209 -3.06565
-0.54387 -0.38538 -2.89994
1.30003 -0.482457 -3.12585
-1.16575 -0.404479 -3.09178
0.497465 0.495555 -3.04118
-0.544934 1.04081 -3.04554
1.40894 -1.06244 -3.08972
-0.00694867 -0.00320867 -2.95214
1.31209 -0.212605 -2.96885
0.0796027 -0.778877 -2.94862
-0.50502 -0.46847 -3.06947
0.000807665 -1.60418 -3.14855
-1.39955 -0.179848 -3.03372
-0.0971504 -0.97033 -2.94753
-0.254428 -0.118528 -3.04163
-0.16058 -0.92942 -3.00848
0.29847 0.25098 -3.14943
-0.421061 -0.821221 -2.89887
0.542805 -0.707975 -3.18138
-0.936934 -0.297014 -3.22515
0.183285 -0.448385 -3.34672
1.07037 -0.624441 -3.27781
-1.09794 0.256535 -3.10991
-0.865688 -0.428868 -2.9025
0.625768 -0.361162 -3.13433
-0.591122 -0.588972 -2.9427
-1.16419 -0.132645 -2.87856
0.514964 -0.310886 -3.01337
0.3126 -0.11889 -3.10676
-0.859882 -0.0156217 -2.96506
-0.260591 1.27189 -2.88453
0.0804781 -0.600572 -3.09608
-0.363664 0.275676 -2.939
0.789431 -0.304689 -3.20544
0.0491476 0.809798 -3.08251
0.394268 -0.813152 -3.26004
0.0187493 0.413709 -3.15591
0.0507033 -1.30634 -2.8984
-0.565407 0.524193 -2.89953
0.627586 -1.23512 -2.97625
1.1872 0.144046 -2.82283
-0.340688 -0.940468 -3.21148
0.607424 -0.460546 -3.20231
0.311694 -1.23477 -2.99515
-1.03968 -0.10171 -2.80874
0.269797 -1.80975 -3.0281
-0.520334 0.359446 -3.13739
-0.424389 0.380471 -2.84163
1.11013 -1.39792 -3.18352
0.020374 -0.612576 -3.16639
0.786533 -0.671797 -3.27669
0.286922 -0.851458 -3.1041
0.790104 -0.209926 -3.20522
1.57733 -0.281019 -2.96454
-0.178848 0.650472 -3.10382
1.2561 -1.18167 -3.23661
-0.458152 -0.257342 -3.0939
0.294644 -0.378796 -3.17954
-0.405664 -0.288864 -2.77306
0.425776 -0.882264 -3.22875
0.346249 -0.575941 -3.05901
-0.124811 1.24854 -2.97552
0.351518 0.0634982 -3.07809
0.479078 0.402108 -2.94037
-0.500489 0.0997505 -3.14706
-0.739745 0.566795 -3.14364
0.189629 0.914589 -2.82286
1.52343 -0.672944 -3.03305
0.672462 0.760192 -2.90236
-1.01338 -0.354349 -3.06553
-0.457102 -0.461232 -3.16884
0.707947 -1.36717 -3.24636
-0.202076 0.942564 -3.07241
-0.379734 0.570446 -3.11499
0.959674 -1.1399 -3.08468
0.0912459 -0.618634 -2.98932
0.651063 -1.52467 -3.05678
-0.251796 -0.430866 -3.1696
0.315353 -0.857437 -3.16314
-0.134109 1.21629 -3.01013
0.663208 -0.795272 -3.22146
0.215048 -0.491352 -3.07831
0.596759 -1.33559 -2.95544
-0.42148 0.76655 -3.00639
0.761544 -0.989756 -3.25854
1.26366 -0.755621 -3.30534
0.992343 -0.138617 -3.03314
-0.2026 0.17383 -2.94374
0.96904 0.0998803 -3.08844
-1.05075 -0.447014 -3.12348
0.168697 -1.47546 -2.98865
-0.71948 -0.3425 -3.04149
-0.594997 0.0309233 -3.1266
-0.932551 -0.370291 -3.0373
0.836582 -0.246378 -3.14964
-1.52972 0.291898 -2.9056
0.574243 0.543403 -2.98187
-0.204541 0.324339 -2.98172
0.211571 1.06934 -2.80697
1.47847 -0.0332148 -2.87189
-0.299712 -0.596742 -2.99695
0.135217 0.648667 -2.95252
-0.84576 0.25446 -2.94427
1.01104 -0.79467 -3.16653
-1.39778 0.358286 -2.98757
-0.219463 -1.20068 -3.02462
1.30444 -0.427349 -3.14894
0.820593 -1.11412 -3.07589
0.261413 -1.46079 -3.01818
0.499951 -1.34787 -3.19429
1.0071 -1.29108 -3.20735
-0.331024 0.611936 -3.08323
-0.790769 -0.404829 -3.31571
0.466909 0.750329 -2.97698
-0.858327 0.721953 -2.82616
0.791205 -0.635975 -3.28787
0.360321 -0.305199 -3.31543
-0.407377 0.308803 -3.18147
0.0472934 0.304693 -3.0254
-0.215375 1.24089 -2.84403
-0.477402 -0.302992 -3.19163
-0.155239 1.59973 -2.89601
1.55492 -0.0317782 -2.86265
0.501013 0.545503 -2.97877
1.33637 -0.849827 -2.948
-0.949315 0.559845 -3.11303
-0.349888 -0.0743482 -3.16837
0.228311 -1.25301 -2.96857
0.773971 -0.247079 -3.25412
1.17106 -0.607764 -3.22516
1.25457 -0.411027 -3.07947
0.632045 0.212745 -3.00827
0.855201 0.290671 -3.05553
1.20446 -1.19671 -3.35076
-0.724282 0.166098 -2.93448
0.0470526 -1.11052 -2.98175
1.35808 -1.06826 -3.29637
-0.878518 -0.195628 -2.79863
0.221238 -1.18932 -3.06568
-0.0899393 0.304031 -2.93688
-0.812515 0.298895 -2.86919
-0.33306 1.30441 -2.96613
1.31512 -0.693049 -3.17924
0.778789 -0.851601 -2.99928
-0.828571 -0.210721 -2.962
0.466341 -0.869659 -3.04909
0.971822 -0.588838 -3.30701
-0.0654655 -0.898705 -3.11331
-0.21079 -0.0609503 -3.16797
0.0155533 0.676223 -3.13627
-1.07858 0.44499 -3.14037
0.149571 0.166491 -2.99695
1.59689 -0.0773774 -2.88202
0.228637 -0.0495027 -3.03015
0.67893 -0.90966 -3.00489
-1.40554 0.164963 -2.91452
-0.608238 1.03597 -2.84786
-0.527612 0.862068 -3.04926
-0.687766 0.522244 -2.96737
-0.360717 -0.151337 -3.0937
1.32196 -0.639256 -3.19491
-0.774988 0.812492 -3.13142
-0.478 -0.58896 -2.96042
-1.00484 0.19526 -3.01932
-0.660635 0.424505 -3.05487
-0.436588 1.03295 -3.14458
0.0394065 0.363157 -3.058
0.652821 0.406071 -2.9976
-0.648013 -0.663203 -2.98697
0.0634227 0.141283 -3.01013
0.0216866 -0.419673 -3.14922
-0.519652 -0.385052 -3.27158
