ply
format ascii 1.0
comment Created by Open3D
element vertex 400
property double x
property double y
property double z
end_header
3.03566 0.481126 -0.734677
2.85915 -0.73479 -1.17344
2.91022 0.59341 -1.07178
1.95726 0.179672 -2.4916
3.03594 0.490687 -0.735568
2.21981 2.16212 -1.42876
2.90091 1.52772 -1.00768
2.58364 0.462976 -1.64381
2.61799 0.369936 -1.60606
2.25343 0.138687 -2.15627
2.68414 -0.758548 -1.64165
2.40074 -0.228368 -2.04946
2.6226 -0.699005 -1.76432
3.00182 1.8698 -0.744852
3.10228 0.8381 -0.573987
2.8842 1.67355 -0.997735
2.46122 1.6911 -1.47549
2.87575 1.32955 -1.08481
2.60404 -0.67634 -1.79775
2.7747 -0.990963 -1.46397
2.87221 -0.21213 -1.13116
2.53112 1.5747 -1.45132
2.49184 -0.206652 -1.90012
3.18337 1.02695 -0.193832
3.12806 0.859007 -0.4735
2.80828 0.0272312 -1.28765
2.57691 -0.646592 -1.84553
3.10021 0.847763 -0.583582
2.29483 0.899792 -1.89687
2.76946 1.06286 -1.288
2.00895 -0.0550592 -2.52473
2.40514 -0.265425 -2.05221
2.89475 1.70159 -0.974195
1.96655 0.556889 -2.33761
2.84745 1.24954 -1.14204
2.47326 -0.151062 -1.91815
2.93895 -0.337473 -0.920243
2.24162 0.0383434 -2.20054
2.53957 0.00110855 -1.78371
2.75434 0.894066 -1.33354
2.05751 0.308557 -2.33318
3.0791 1.14015 -0.682577
2.10733 1.29062 -1.93496
2.97025 0.554152 -0.93085
2.18202 1.22797 -1.89583
2.52935 2.16313 -1.19507
2.79267 0.120921 -1.31861
3.00757 0.241284 -0.781247
1.98421 -0.0585481 -2.55625
2.79654 -0.359991 -1.32531
2.85849 1.86263 -0.975058
2.95744 -0.130705 -0.884124
3.14702 1.6393 -0.447485
3.07986 1.08636 -0.678115
2.67722 -0.824277 -1.67286
2.38672 0.134979 -1.98201
2.18255 0.084408 -2.2615
2.56802 0.256378 -1.69846
2.95293 0.40703 -0.962655
3.11944 1.15004 -0.558317
1.99306 -0.0581486 -2.54534
2.57714 -0.24885 -1.76316
2.50708 -0.57624 -1.96109
2.81643 2.04963 -0.954297
2.96679 1.63812 -0.873652
2.17847 1.92449 -1.5928
2.97569 1.9157 -0.775477
2.82404 1.12842 -1.19611
2.66316 -0.754286 -1.68858
2.57335 -0.261503 -1.77212
1.9964 -0.19291 -2.59782
2.79703 1.45009 -1.17723
2.48111 -0.356568 -1.95147
2.21334 0.425516 -2.1218
3.05109 1.01686 -0.754165
2.77749 1.27644 -1.24051
2.51753 0.12036 -1.79719
2.88942 -0.0788231 -1.09112
2.01812 0.27019 -2.39016
2.63712 2.16157 -1.09686
3.18776 1.12263 -0.205704
3.13272 1.74713 -0.47128
2.81463 0.960699 -1.23146
3.18872 1.52843 -0.273926
2.18979 1.29679 -1.86355
2.98104 1.56493 -0.863908
2.09386 0.397104 -2.26319
2.11876 0.725649 -2.12831
2.38854 0.0241504 -2.00545
2.69888 0.973455 -1.40277
3.06612 0.920326 -0.705374
2.33071 0.594959 -1.94123
3.16381 0.830609 -0.248704
2.67503 1.54084 -1.30725
2.46865 -0.0437573 -1.90276
2.58938 0.324029 -1.65604
2.96191 1.43612 -0.921777
2.66363 1.0945 -1.42846
3.18889 1.1076 -0.18616
2.51614 -0.586484 -1.94708
1.97344 0.69859 -2.27764
2.20517 1.52662 -1.76001
2.94346 -0.111569 -0.932087
2.2848 1.46251 -1.71946
2.57463 -0.384393 -1.79247
2.23843 0.651115 -2.02839
2.35196 0.88963 -1.8399
3.14003 1.10316 -0.475395
2.39188 -0.222842 -2.06163
1.84548 -0.193703 -2.7873
2.92773 0.180458 -1.0084
2.71714 -0.774549 -1.56679
2.56575 0.955934 -1.57976
3.10929 0.656193 -0.497068
3.03978 1.4921 -0.759051
2.99377 1.35391 -0.872485
2.70095 0.202061 -1.4882
2.89523 0.406549 -1.10022
2.49688 0.433962 -1.76997
2.45476 0.208935 -1.87172
3.06027 1.5987 -0.696055
2.5417 -0.682133 -1.9245
3.14108 1.22991 -0.486553
3.02217 0.174983 -0.715274
2.59063 -0.0246684 -1.70423
2.62541 -0.580049 -1.73228
2.46689 0.856635 -1.71995
2.98738 0.212175 -0.841393
2.39927 0.953748 -1.77181
2.75742 0.468512 -1.3688
2.66981 -0.622187 -1.64647
2.51444 1.88018 -1.34861
2.7819 -0.218129 -1.35315
2.38555 0.484042 -1.90307
2.62879 0.704035 -1.54274
2.98502 0.0481826 -0.820654
2.12934 1.27216 -1.92401
2.54917 0.337837 -1.71354
2.20227 1.42978 -1.80172
2.92044 1.7858 -0.910018
2.16231 0.0882285 -2.28531
3.17558 1.2412 -0.329752
2.68568 -0.811186 -1.6499
2.75775 -0.93835 -1.49812
3.14977 0.959634 -0.397931
2.12326 1.01574 -2.02445
2.53963 0.0333901 -1.7781
1.983 -0.138006 -2.59109
2.34641 0.0946208 -2.04654
3.06252 0.760803 -0.696429
2.22 0.901662 -1.97156
2.75637 -0.156703 -1.40602
2.87968 0.744663 -1.13243
2.73062 -0.456943 -1.4871
3.1096 1.78964 -0.528364
2.58626 0.710353 -1.60008
2.39194 -0.227915 -2.06284
2.4046 0.519324 -1.87147
2.19693 1.94446 -1.56935
2.25705 0.614639 -2.01866
2.38858 1.15478 -1.72661
2.48561 0.574832 -1.75754
2.77561 -0.936117 -1.44863
2.32797 -0.372298 -2.20257
3.07649 0.653189 -0.629424
1.9411 0.38268 -2.42962
2.5765 -0.415176 -1.795
2.55543 1.55117 -1.43454
2.08865 1.3202 -1.93822
2.79638 -0.0327511 -1.31476
2.76008 -0.590496 -1.43298
2.31401 -0.394698 -2.2313
2.43985 1.7051 -1.48926
2.21102 0.104915 -2.21959
2.15371 1.1063 -1.96483
2.34213 0.0433386 -2.06532
2.21699 1.45103 -1.78112
2.75243 -0.138908 -1.41331
2.43061 0.190157 -1.90929
2.90935 1.79698 -0.923573
3.01517 0.694423 -0.826219
2.83625 -0.428158 -1.2264
2.87851 0.251417 -1.13317
2.24964 -0.0187603 -2.20702
3.06824 0.315309 -0.567658
2.95267 0.582991 -0.975723
3.02431 0.889188 -0.817387
2.55899 1.21688 -1.5275
2.27304 0.237255 -2.10416
3.13384 1.47117 -0.513367
2.48401 -0.640751 -2.02203
2.81652 0.647569 -1.25347
3.064 1.28521 -0.721779
3.01768 1.94475 -0.687159
1.96848 0.770594 -2.25489
2.74184 1.20574 -1.3032
3.05079 1.19411 -0.75734
2.98097 0.633847 -0.910018
2.47346 0.593436 -1.76929
3.0124 0.212911 -0.759015
2.93735 0.943736 -1.01331
3.09837 1.28783 -0.629438
1.95685 0.541512 -2.35293
2.09102 0.744644 -2.14904
3.10625 0.635631 -0.50421
2.05056 0.995003 -2.09674
2.60289 0.587515 -1.59714
2.5615 1.60592 -1.40997
3.03234 0.237872 -0.692505
2.99773 0.0997748 -0.786826
2.2807 0.365801 -2.06
2.1099 -0.267573 -2.47962
2.5345 1.54171 -1.45904
2.72375 1.10988 -1.34543
2.50715 0.73229 -1.69843
2.8216 0.0978892 -1.25792
2.27152 1.12514 -1.85027
2.47301 -0.257783 -1.94203
3.05519 0.745808 -0.717105
2.90561 0.00484076 -1.0532
3.15153 1.56491 -0.442507
2.40469 1.32873 -1.65695
2.45276 1.15246 -1.66087
1.82105 -0.174265 -2.80745
2.72932 1.50607 -1.2518
2.93019 -0.0660932 -0.977787
2.43097 1.56182 -1.55219
2.5431 1.57153 -1.44034
2.35886 1.08926 -1.77605
3.19226 1.19004 -0.194652
2.38811 1.98892 -1.40438
2.88014 -0.545587 -1.10116
2.84739 -0.28434 -1.19561
2.39549 1.5811 -1.57731
2.69179 1.3774 -1.33101
2.8957 1.3848 -1.04353
2.95371 0.637571 -0.976019
2.69692 1.87869 -1.16716
2.82894 0.000543892 -1.24186
3.04764 0.361765 -0.66613
2.28653 0.94895 -1.89076
2.70645 0.271928 -1.47258
1.94027 0.147573 -2.5233
2.43932 0.941546 -1.73096
2.45108 1.13928 -1.66628
2.78016 1.58884 -1.16493
2.68215 1.06033 -1.41061
2.19344 -0.336848 -2.38994
3.12411 0.681265 -0.433464
2.59204 0.0519889 -1.69074
2.81754 0.719785 -1.24727
2.69431 -0.854091 -1.6396
1.9995 0.562713 -2.303
2.3064 0.945036 -1.87177
2.53769 0.0913656 -1.77136
2.27034 0.206628 -2.11594
3.11042 1.60602 -0.568259
2.7116 -0.358092 -1.51795
2.93988 0.519031 -1.00251
2.36371 0.152823 -2.00894
2.78928 1.72087 -1.11425
2.61128 1.55762 -1.37354
2.76053 -0.234466 -1.40166
2.21272 1.92524 -1.56843
2.91158 -0.14825 -1.02479
2.46412 -0.440028 -2.00123
2.7639 -0.718638 -1.44038
2.52342 2.06952 -1.2505
2.8252 -0.158096 -1.25099
3.15556 0.809325 -0.301157
2.4814 -0.523591 -1.99333
2.65404 0.598915 -1.5214
3.05822 0.231949 -0.584417
3.19123 1.15036 -0.18558
2.82844 -0.702949 -1.26317
2.67577 0.211067 -1.53111
2.87226 1.9077 -0.939321
2.9819 0.838014 -0.918143
2.54275 0.0198899 -1.77546
2.67165 1.86377 -1.20053
2.70023 -0.501486 -1.56025
2.73284 1.46495 -1.25806
3.05212 0.464197 -0.674537
2.49353 1.73002 -1.4304
3.11176 1.66924 -0.552547
2.98105 0.778493 -0.918093
2.18296 0.712935 -2.06787
2.88581 0.206891 -1.11457
3.09796 1.57567 -0.60727
2.51312 0.908628 -1.65365
2.66306 1.08468 -1.43111
2.83335 1.76971 -1.04093
2.63184 0.443024 -1.57524
2.3973 0.0152617 -1.99509
2.93133 2.02085 -0.806116
2.13094 0.90044 -2.0576
2.33393 0.208389 -2.03454
2.3823 0.118195 -1.99197
2.68534 -0.327064 -1.56915
2.68164 0.07165 -1.53446
2.94298 1.2591 -0.980092
2.68077 0.55761 -1.48608
2.77148 -0.960674 -1.46573
2.71983 -0.605357 -1.53102
2.99468 0.0569221 -0.788919
1.94757 0.524941 -2.36836
3.097 0.733838 -0.57096
2.61952 1.13462 -1.47568
2.27065 1.37659 -1.76395
2.53614 0.624442 -1.68214
2.99907 0.422404 -0.838296
2.23637 1.2383 -1.84416
2.97892 0.400325 -0.892807
2.1124 1.36693 -1.9001
2.83395 -0.408895 -1.23212
2.78977 0.604793 -1.30325
2.04091 0.697472 -2.21395
2.74397 -0.756665 -1.49716
2.10193 0.731478 -2.14291
2.44592 1.97784 -1.36289
2.78702 0.193503 -1.32776
2.16551 1.06951 -1.96724
2.71772 -0.688322 -1.54934
3.06453 0.278998 -0.571972
2.82187 -0.21891 -1.2596
2.67858 -0.91217 -1.69251
2.95961 0.498803 -0.953244
2.13965 1.17556 -1.95193
2.72978 1.98715 -1.08532
2.39972 0.393703 -1.90598
3.02847 1.648 -0.754815
3.13745 1.30984 -0.504485
3.05154 0.740636 -0.727528
2.50021 0.160192 -1.81584
2.38108 -0.281076 -2.09377
2.86242 -0.00280973 -1.16306
2.1462 1.43384 -1.84559
2.4714 -0.429173 -1.98594
2.62464 0.870208 -1.52105
2.67247 1.89503 -1.18702
2.31944 1.26738 -1.75824
2.74798 0.467004 -1.38525
2.09761 0.643895 -2.17674
2.89365 0.816663 -1.10321
2.56364 -0.090333 -1.75976
2.92501 0.864987 -1.04028
2.04699 0.990694 -2.10149
2.65736 0.844314 -1.48103
2.79695 0.364175 -1.30244
2.52358 1.02188 -1.61556
2.80937 2.05373 -0.961269
2.23783 0.666669 -2.0245
2.56603 0.290569 -1.69618
2.89718 0.407938 -1.0959
1.99002 0.418101 -2.36574
2.38675 2.15786 -1.31347
1.95179 0.37551 -2.42135
2.0413 0.716794 -2.20668
3.04569 0.282561 -0.652638
1.85546 -0.0572767 -2.70914
3.14974 1.47083 -0.457661
2.81106 0.210028 -1.27881
2.20966 2.02337 -1.51732
2.70148 1.16251 -1.3657
2.46446 1.73965 -1.4532
2.70312 -0.128612 -1.51272
2.25144 1.69324 -1.65173
2.42761 1.94057 -1.39627
2.87457 1.84694 -0.95808
2.40572 1.75004 -1.50068
2.62059 1.8925 -1.24179
3.00315 0.596929 -0.84874
2.21972 2.20242 -1.40349
2.26132 0.543941 -2.03378
2.93642 0.133346 -0.98058
3.1688 0.956337 -0.280495
2.7577 -0.897886 -1.48912
2.66914 1.82749 -1.21742
2.47257 2.07392 -1.29176
2.90895 0.617121 -1.07481
3.18682 1.17272 -0.236046
2.67129 -0.628277 -1.64437
2.33845 2.16536 -1.34483
2.87363 -0.265468 -1.12553
2.26725 0.619628 -2.00605
3.1154 0.731882 -0.493363
2.465 0.364484 -1.8265
2.80064 1.64455 -1.12254
2.09455 0.971596 -2.06617
2.94858 0.288159 -0.963065
3.09453 0.632589 -0.554343
2.72349 1.9137 -1.12347
2.27394 1.39974 -1.75251
2.99936 1.80766 -0.769587
3.09056 0.636025 -0.571547
2.83385 0.19275 -1.23114
2.53444 2.16885 -1.18744
3.06554 1.90057 -0.602731
2.98701 1.43991 -0.874394
2.32223 -0.38562 -2.21567
