ply
format ascii 1.0
comment Created by Open3D
element vertex 250
property double x
property double y
property double z
end_header
1.15581 -0.229034 3.59883
1.97749 1.57046 3.20141
2.90149 0.121703 0.600446
2.50171 -0.373734 1.77445
1.25804 -0.0421848 3.5672
2.11785 -1.32104 1.6806
2.51253 -2.23333 0.805996
2.81981 -0.735986 1.50905
0.760659 -0.696902 3.19017
2.49478 -0.211322 2.69344
2.45035 0.817936 2.89903
2.37665 -0.934048 1.54432
2.23534 0.161249 3.28405
1.99841 -1.24485 2.1817
1.39779 -0.533566 2.84584
1.84978 0.523933 3.80012
1.75535 -1.80173 1.43568
2.74144 -1.57092 0.33865
1.79523 -2.06645 1.09497
3.01593 0.387751 1.10152
2.06388 0.786941 2.87645
3.3628 -0.753362 1.27017
2.46378 -0.50497 2.76907
2.60186 -1.32084 1.06229
2.84711 -0.0788247 1.14377
1.69103 -0.472821 3.17102
2.27365 -1.19092 2.18321
2.05536 1.26643 3.7859
2.80075 -0.408356 0.926604
2.63966 0.0349086 2.66823
1.01742 -0.263838 3.57423
2.04534 1.62193 3.61428
1.04113 0.106333 3.62975
2.13415 1.26716 2.49723
1.87807 1.49766 3.07542
2.30009 -2.43646 0.520076
2.73634 -0.125197 0.534441
1.99227 1.38055 2.77188
1.05788 -1.4544 2.19204
2.99626 -0.273537 1.12281
2.96348 -0.230995 1.15358
2.5061 -1.09418 1.71708
2.32574 0.703617 3.19796
1.94176 0.552456 3.73712
2.53616 0.0815565 0.976599
2.24894 1.07943 3.70331
3.01001 -0.423363 -0.0496211
2.10411 0.913088 3.67995
2.05783 -2.09054 0.792679
1.61602 -0.452532 3.07162
2.56578 1.36174 2.83345
2.54513 -0.314764 1.13824
3.04278 -0.666031 -0.0112777
0.946256 0.082436 3.30243
2.89203 -0.204252 2.10545
3.27364 -0.689157 -0.035101
2.73822 -0.457234 1.47814
0.668986 -0.851959 3.01946
2.98059 0.672716 2.58359
2.14941 -1.30893 1.55256
2.80703 -0.674029 2.03704
2.64575 -1.37271 0.798502
3.07622 0.224871 1.43048
1.54649 0.0734529 3.62356
1.41827 0.682716 3.60247
2.06516 1.09483 2.60988
2.36596 -0.0386286 2.46811
2.95493 -1.48542 0.575478
1.4146 -0.391444 3.43484
2.13571 -1.02022 2.1246
2.76052 0.399274 3.00615
3.18561 0.218409 0.993848
0.499871 -0.925754 2.85688
2.62792 -0.904683 0.852409
2.58325 -0.806496 0.532193
2.101 -2.57412 0.352232
3.35233 -0.428048 0.160853
2.55297 0.626177 3.68305
2.28046 0.0715047 2.99733
2.5445 -0.73257 2.0478
1.98553 -1.33222 2.11047
2.48342 0.986716 2.48268
1.54463 -0.24413 3.24139
2.4502 -1.40854 1.60689
2.63305 -0.75425 1.72191
1.81169 0.846493 3.88283
2.63842 -1.59854 0.966991
1.0291 -0.543518 3.30151
3.80232 0.438519 1.84852
2.11014 -0.488883 2.37475
2.69014 -0.14529 0.325365
3.1103 -1.07853 0.798907
1.55462 -0.514174 3.0579
2.83475 0.531596 3.52445
2.18489 0.410583 2.64863
2.91091 -0.491666 0.797725
1.18978 -1.03662 2.84404
1.11181 -0.131444 3.51065
2.83309 0.987759 2.39173
1.49307 -1.60208 2.05183
2.06106 0.0379825 2.95967
1.61438 0.123423 3.58496
2.08578 0.188195 3.63655
1.03579 -0.964957 2.93674
2.39883 0.938591 3.2419
2.10252 -1.0069 2.4457
2.02915 -1.31465 1.915
3.37305 -0.594688 0.0181409
2.84539 -1.53761 0.544052
2.4377 -1.14567 1.11678
2.75107 -0.0610604 1.0194
2.78897 0.848618 2.2578
2.60241 -0.91173 0.996519
0.588452 -1.23733 2.70427
3.58738 -0.556044 0.573849
2.50774 0.0905571 2.69496
3.06928 -1.01439 0.54779
0.743934 -0.464622 3.15658
1.91964 0.196114 3.46554
2.31086 0.890655 3.26023
2.35825 -2.29219 0.693073
2.70132 1.22706 3.08347
2.80232 -0.519988 2.05898
2.22476 0.615921 3.35348
2.62421 -1.88505 0.85297
3.05908 -1.23491 0.201703
3.33121 0.851943 1.71361
2.61829 0.0218075 1.31009
2.20316 -1.22693 1.69559
3.13087 -0.456304 0.361206
2.90617 -0.775885 1.12786
2.74904 -1.67167 0.11718
2.76023 0.84829 3.5295
3.25474 -0.278281 -0.116618
3.01424 0.376911 1.25307
2.96888 -0.546387 1.15193
3.17352 -0.857907 0.325361
3.19189 -0.296356 1.77759
2.29955 1.34017 3.10535
2.42626 -2.09744 0.538428
2.06064 1.38503 2.95638
1.53519 0.797383 3.7047
2.95284 -0.304933 0.128645
2.16046 0.0961224 3.30666
1.66655 -0.359152 3.10643
2.03572 1.45226 2.89887
1.44573 -1.33895 2.28315
2.91044 -1.16153 1.48896
2.54308 1.38561 3.05815
1.612 -0.675425 2.99044
3.24032 -0.404071 0.207344
1.63227 -0.663084 3.07587
2.76073 -0.873555 0.0570355
1.94759 0.946239 3.93404
1.21171 -0.364795 3.4895
1.2046 -0.192984 2.90872
2.41453 -1.79439 0.13191
2.13939 -1.10151 2.53993
2.15948 -0.706702 2.82385
2.71491 -1.21093 -0.0163772
2.14442 0.669292 2.07714
2.91346 0.404765 1.95274
1.69078 1.04083 2.52782
1.99687 0.066609 3.27449
2.85148 -0.309355 1.01986
2.88202 -1.61397 0.880725
2.56893 -1.97181 0.802167
2.75569 1.00856 3.43784
1.53173 -0.480707 3.33572
3.17356 0.0229616 1.07777
2.14153 0.525567 2.71458
2.07519 -2.13063 0.600387
2.80259 -0.418677 1.39425
2.06195 1.34177 2.83803
1.69952 1.49273 3.17204
2.24738 0.743051 3.39125
1.84997 0.69382 3.19356
2.21872 -0.219338 2.82825
3.28762 0.0599414 0.498086
1.87778 -1.08364 2.09087
3.24805 -0.20433 0.54062
1.75026 -1.71361 1.88358
1.18952 -0.684478 3.10732
2.78848 0.394647 2.52267
2.24567 0.0171972 2.31874
2.12893 1.70092 3.03567
3.00169 -0.258239 1.44539
2.12648 -1.36745 1.34387
1.922 0.0721415 3.01393
1.93938 -0.815319 2.23108
2.12216 0.325283 2.73551
2.31763 1.36649 2.81113
2.16613 -0.716433 2.23575
1.25205 0.251183 3.18231
2.44909 -1.25865 0.523519
1.67813 1.25284 2.53672
3.38671 -0.144179 -0.0459371
1.83374 0.703562 3.20135
2.36989 -0.5969 2.03943
2.55109 -0.19718 1.84279
3.43595 0.241112 -0.527531
3.58904 0.45744 -0.622673
3.27953 0.478473 -0.484984
3.01676 0.391017 -1.5898
3.77816 0.727468 0.752223
3.12061 -0.282077 -0.64058
2.99053 0.711385 -0.338054
2.68416 -0.576253 -1.00954
3.37583 0.910331 -0.757012
3.27488 0.421933 -0.0553337
2.80983 0.525391 -0.0996857
3.67628 0.728567 -0.0981185
3.45438 1.2117 -0.596866
3.30524 0.8829 -1.00096
2.85049 0.739631 -1.11204
3.25948 0.432848 -1.04178
3.19842 0.644885 -0.179308
3.50813 0.486368 -0.459455
3.04037 0.475521 0.0212046
3.28902 0.586464 0.887203
3.04804 0.300159 -1.17944
3.04055 0.38388 0.624313
2.89415 0.468836 -0.154427
3.40678 0.506458 -0.997122
2.91212 1.05945 -0.735524
3.401 0.836625 -0.801712
3.44551 1.0838 0.335834
3.17523 0.219198 0.252524
2.71764 0.78909 -0.914902
3.49687 0.64915 -0.998506
3.24975 1.01635 -0.635873
3.55271 0.769235 1.09734
3.6468 1.11725 -0.545046
3.60138 0.741512 -0.582174
2.96814 0.0725855 0.137317
3.0685 0.621561 -0.498386
3.17109 -0.240395 -0.746399
2.53555 0.0983065 -1.48261
3.40471 0.126328 0.0829457
3.18515 0.444196 0.177284
3.30061 1.07971 -0.25067
3.55252 0.475252 -0.201369
3.22471 0.975542 -0.431456
3.46297 1.18148 -0.767046
3.12674 -0.229064 -0.480847
3.16346 0.295739 -0.452886
3.15829 -0.171884 -1.09694
3.03521 0.702119 -1.30212
3.16077 0.40993 -0.48638
3.38505 0.47672 0.367221
