ply
format ascii 1.0
comment Created by Open3D
element vertex 400
property double x
property double y
property double z
end_header
3.24428 1.53494 0.449711
1.5136 2.87375 -0.400939
2.91607 1.70677 0.566371
2.12876 2.27188 1.31993
2.7901 1.4686 -0.349614
2.81276 1.37526 -0.0640851
2.55388 1.78409 1.40757
2.63774 1.87254 0.106812
1.21723 2.54231 -0.828357
0.972324 3.10807 -0.326447
3.08339 1.00285 0.395045
2.45406 1.97149 0.553801
1.80503 2.55657 0.6383
1.60167 2.63489 -0.330214
1.80921 2.37945 0.00352845
3.30579 0.873008 0.453877
3.16557 1.3071 0.512998
1.1192 2.72906 0.0314288
3.08285 1.43407 1.3281
1.58301 2.52343 0.632078
2.47255 1.96724 0.087021
2.22609 2.12889 -0.057568
1.77861 2.44285 0.0137971
2.50084 1.84994 0.610078
2.93286 1.3928 1.15059
2.35404 1.75776 -0.262617
1.94801 2.10259 1.16387
1.84788 2.21305 -1.05063
2.16107 2.3979 0.777443
2.03491 2.14927 -1.01851
2.88284 1.07497 -0.171506
1.9685 2.42035 0.32674
2.4392 2.0337 1.40457
1.70335 2.63292 -0.0843069
2.39313 2.04955 1.14816
2.39331 1.99528 0.806922
1.40969 2.69807 -0.868177
2.21251 2.24068 -0.797529
3.17559 1.54724 0.877075
2.40673 1.79085 1.24467
1.96794 2.35642 0.618023
2.55498 1.9107 -0.573769
1.49496 2.87887 0.155549
2.12886 2.44455 0.190743
1.7659 2.78374 -0.220423
2.67961 1.70636 1.53429
2.32875 2.0713 -0.620046
2.35249 2.37894 0.751384
1.93214 2.219 -1.32243
2.40362 2.27179 0.68451
1.01615 3.03474 -0.0891832
2.5321 1.90638 1.27326
1.57651 2.45403 0.501748
1.09476 3.07377 -0.380414
1.39756 2.91912 0.287483
2.55611 2.15393 0.0488721
2.87555 1.63857 -0.0837264
2.81373 1.0476 -0.303085
2.7692 1.79371 0.939147
2.49913 1.76281 0.967463
1.30188 2.68495 0.367467
2.62615 1.81856 -0.430165
2.5028 2.14719 1.2251
3.13924 1.23476 0.107164
2.38069 1.79301 -0.75913
1.4284 2.79131 0.207934
2.07846 2.02974 -1.04731
2.56214 1.59327 0.12821
1.89639 2.59678 0.369284
2.26849 2.16865 -0.680873
1.99888 1.90142 -0.872442
2.52565 1.64253 1.33739
2.76495 1.32882 0.144116
0.910462 2.9953 -0.277546
1.60994 2.67923 -0.1953
2.78447 1.56058 -0.218737
3.18956 1.35041 0.677965
3.40561 1.18355 0.841247
2.05591 2.24179 -0.347804
2.35406 1.90708 -0.700852
1.84272 2.17539 -0.876676
1.9498 2.25894 -1.13489
2.00538 2.62498 -0.492918
2.14507 1.91855 -0.477081
1.55744 2.8523 -0.292839
2.94784 1.64925 1.07924
2.84058 1.58892 0.336653
1.94772 2.46776 -0.382557
2.90958 1.49631 0.612807
2.86347 1.3153 -0.0718195
1.86672 2.79265 -0.721245
1.91876 2.36922 0.0200523
2.39177 2.0358 1.29153
1.55585 2.4606 0.0303491
1.84506 2.23825 -0.880643
2.98485 1.49449 0.624276
1.62054 2.46796 -0.459942
3.0418 1.12198 0.184409
2.28976 1.74166 -1.03038
1.88069 2.60939 -0.249039
2.20584 2.58569 -0.368837
1.83553 2.24781 -0.582872
2.04458 2.21596 0.96055
2.83639 1.38271 0.162963
2.97546 0.998629 0.54965
2.23923 2.26347 -0.356015
1.54519 2.60886 -0.376077
2.49404 1.76591 -0.441821
2.48644 2.10814 -0.285295
1.97719 2.28401 0.913707
2.835 1.47819 1.00083
1.71178 2.69031 -0.139328
1.57969 2.86581 0.453676
2.43555 2.2936 1.2366
2.29053 1.88897 -0.705231
2.87162 1.557 -0.00791915
1.6678 2.39224 -0.0395445
1.50019 2.61002 0.334599
2.24258 2.21147 1.52774
2.46518 1.72395 -0.781346
2.56308 1.9743 1.09262
3.3728 1.01001 0.640401
1.80888 2.33364 0.328708
1.86951 2.26341 -1.50648
1.66653 2.36096 -1.21557
2.43144 1.80187 1.64032
2.42381 2.19522 0.742062
3.13298 0.876568 0.201444
1.77915 2.66862 -0.862382
3.48297 1.0633 0.656869
1.77573 2.56102 -1.06247
1.83469 2.17335 -1.27277
2.94632 1.66911 0.399107
2.70438 1.81837 1.339
3.17732 1.46518 0.826925
2.48882 2.14041 0.490552
2.74416 1.54793 0.762647
1.73289 2.58415 -0.0418432
3.02892 1.31072 1.00104
1.30104 2.69785 0.289564
1.78744 2.45808 0.977758
3.34975 1.42822 1.22851
2.68255 1.74175 1.65485
2.33594 1.91478 -0.693623
1.60414 2.62986 -0.533017
1.64887 2.62509 0.753996
1.51928 2.77921 0.126989
1.87006 1.84114 1.07733
1.75326 2.66149 -0.228483
2.13616 1.76985 -0.984037
3.35441 0.874327 0.412701
3.21031 1.52264 1.04488
3.08927 1.43082 1.25465
2.50244 1.82538 -0.174362
2.46985 1.85712 1.16065
1.3144 3.2104 0.204978
2.1204 2.17139 1.33866
3.30756 1.02616 0.723542
2.07256 1.9757 1.3232
3.37703 1.39444 1.04097
2.9288 1.62937 0.858573
1.94702 2.27609 0.947349
2.02172 1.9742 1.26319
2.56424 2.13427 -0.482936
2.16386 1.98561 0.216018
2.92009 1.16544 -0.0775348
2.21678 1.88132 1.34278
1.89917 2.32853 -1.45822
3.21251 1.97805 0.783686
1.97603 2.26947 1.05041
3.09927 1.27564 0.705668
3.05974 1.42138 0.0903178
2.7317 1.74533 0.90583
3.0766 1.54114 0.838125
2.52309 1.84971 -0.339708
2.58297 1.62745 -0.0568655
2.31644 1.94133 -0.285569
1.87427 2.54058 -0.576733
2.66349 1.97405 0.904465
1.87035 2.32034 0.273075
2.41986 1.75323 0.0155467
2.20839 2.33933 0.669003
2.45195 2.20262 0.875522
1.85073 2.38653 -0.351397
2.33727 1.99427 -0.480691
1.81426 2.54202 -0.21118
1.24223 3.2473 -0.120154
1.06481 2.84709 -0.0285837
3.04478 1.57992 1.27355
1.20926 3.05597 0.123714
3.25612 1.62477 0.643523
3.07258 1.2713 1.01444
2.69439 1.79534 1.67927
2.32557 1.88038 -0.742042
2.07934 2.26264 -0.877711
2.18363 2.1905 -0.600376
2.63924 1.62715 -0.527427
2.58696 2.10044 0.320687
1.29294 2.77428 -0.0448085
3.06693 1.43174 1.18954
3.17391 1.4561 0.99659
2.20623 2.02391 -0.289668
2.28065 2.26837 -0.574352
1.97688 2.31827 0.613051
2.09123 1.9684 -0.72512
2.4001 1.67727 -0.916369
2.14426 2.29562 -1.00125
2.13124 2.15346 0.778401
2.86258 2.02332 0.840521
2.52865 1.35338 -0.587479
2.18145 2.06953 1.09831
1.97299 2.19754 -1.11458
1.5607 2.58506 -0.227658
1.46003 2.80393 0.438935
2.92526 1.87984 1.54534
3.03439 1.49485 -0.0624861
1.80311 2.42603 0.36242
1.96279 2.28124 -1.38972
1.46161 2.58873 -0.877085
3.09563 1.51109 0.89808
1.98463 2.58105 -0.636334
2.16427 2.44971 0.0584965
1.99542 2.16932 1.26644
2.24674 1.63206 -0.588764
1.854 2.20783 0.0316361
2.42603 1.88466 0.584134
2.87451 1.42001 -0.202879
2.79214 1.58964 -0.357604
1.87799 2.60274 0.230943
2.13986 2.13066 0.682356
2.27855 2.08823 -0.354827
2.28546 1.94816 -0.397074
1.94867 2.20506 1.14267
3.07341 1.35352 0.0971292
2.45052 2.08648 -0.208318
2.75021 1.97186 -0.494493
2.17193 2.35576 -1.12009
3.11471 1.33092 0.744244
2.45784 1.84093 1.07887
2.56524 2.08511 0.820242
2.44945 2.14817 0.000570579
1.41979 2.53334 -0.192455
1.73597 2.24807 -1.53283
2.69227 1.72199 -0.0241958
1.47387 2.77836 -0.629799
2.48038 1.90162 -0.0483868
2.50645 1.97784 0.496825
2.14391 2.60814 0.660399
3.25294 1.14501 0.582132
2.25455 2.23367 -0.423634
3.26309 1.3784 1.07867
2.1061 2.01553 -1.29568
2.77618 2.28047 1.23906
1.94174 2.11014 -0.0581595
1.90148 2.12973 -1.09322
2.0113 2.1532 0.929826
2.34845 1.91312 -0.822995
1.72602 2.49628 0.845121
1.16995 2.73456 0.0307186
2.76172 1.50075 0.37649
3.14054 1.03646 0.223917
1.64459 2.27088 -0.84002
3.32362 1.0864 0.557137
2.19044 1.97987 0.444921
1.31386 2.64032 -0.167169
2.02574 2.39799 -0.997668
2.52695 1.76888 -0.256843
1.80118 2.48813 -0.918459
2.29071 1.94843 -0.519248
2.47451 1.76709 -0.773429
2.55116 1.87089 1.52848
3.03722 1.85322 1.04718
2.06952 2.21871 0.24944
1.84452 2.39972 -1.26187
1.67991 2.28151 0.712425
2.02269 2.27147 -1.28654
3.02873 1.40166 1.3165
2.1143 2.12625 -1.23961
1.29433 2.81257 -0.265525
2.83797 2.00685 1.38483
2.35708 2.34027 0.0661619
2.94593 1.28808 0.0898088
1.98637 1.97815 -1.06277
2.5081 1.71582 -0.0986127
1.49003 2.69559 -0.358763
3.23264 1.16376 0.675245
3.30711 1.68163 1.12149
3.02574 1.8599 1.13282
1.95085 2.11874 -0.88799
1.18717 2.79388 -0.61986
1.91385 2.26512 -1.17845
1.36112 3.05713 -0.39089
2.61242 1.59392 -0.479931
2.43468 1.88235 0.327323
1.51771 2.8216 -0.52962
3.0301 1.19812 0.102725
1.71179 2.6667 -0.150584
1.63584 2.3279 -1.24109
2.36672 1.6479 1.04303
3.39993 1.18454 0.768731
1.79421 2.62323 -0.207915
3.10968 1.80183 0.888456
1.54427 2.49057 0.221491
3.27673 1.23895 0.966328
1.54578 2.6185 -0.0159335
2.16907 2.15659 0.0480628
3.26235 0.904289 0.464734
2.74411 1.62288 0.716917
1.82621 2.4149 0.3264
2.96616 1.32797 0.437759
1.28232 2.48392 0.0569776
2.79669 1.81205 -0.384707
2.5269 2.0023 -0.0932185
2.62721 1.62762 1.35415
2.78486 1.63019 0.00176413
2.62618 1.73462 0.142321
2.24388 1.92061 -1.11687
1.73752 2.19508 0.713484
1.85718 2.49689 0.942047
1.85923 1.95363 -1.57003
3.24752 1.07218 0.220099
2.98317 0.923107 0.231993
1.54838 2.56866 -0.0552392
2.79537 1.56696 1.34144
2.57585 1.92082 1.10407
2.68861 1.92406 0.228548
1.44867 2.90521 -0.0807268
1.29436 2.90091 -0.600346
1.32474 2.83724 0.301921
2.48896 1.76494 0.274243
2.63677 1.77817 -0.0454705
1.91845 2.38027 -1.17824
1.77023 2.2224 0.678637
1.92846 2.26998 -1.10742
2.25779 2.26651 1.32682
1.97232 2.56448 -0.821913
2.34676 2.19479 0.183582
1.84907 2.61932 -0.272224
2.068 2.69229 -0.0565497
0.886098 3.07584 -0.273535
2.19171 2.04876 0.901678
2.27715 1.7264 1.17488
2.8255 1.13012 0.106221
2.6486 1.3467 -0.35861
2.77088 1.48108 0.051889
2.30129 1.98834 0.885946
1.94268 2.18662 0.487869
2.2025 2.03299 -0.366022
1.82328 2.13783 -0.377137
2.64607 1.9768 -0.0374841
2.37769 2.13097 -0.0544883
1.21014 2.97467 -0.141916
2.37736 1.83481 -0.350358
3.2978 1.39704 1.00107
2.56369 1.71479 -0.397763
3.04831 1.33295 0.707585
2.2877 2.11618 1.46133
3.06704 1.30546 0.00550389
1.53205 2.50516 0.201159
3.00644 1.83415 1.26805
2.61494 1.75705 1.14534
2.65411 2.17106 1.4426
2.69266 1.88179 0.241992
1.78579 2.53301 0.781921
2.29507 2.26816 1.44799
2.76114 1.8306 0.562524
1.60805 2.28837 0.619798
2.97875 1.19664 -0.00378195
1.92359 2.51694 0.795672
2.27319 2.4292 -0.0430999
2.9724 1.41339 1.31239
3.13972 1.21291 0.258849
2.18763 2.37672 -0.351907
2.60506 1.5438 -0.58852
3.35277 0.898262 0.437802
1.2557 2.77405 -0.694686
2.24543 2.4093 -0.0115291
2.49164 1.87236 -0.614276
2.06063 2.07387 0.5044
2.92451 1.37398 0.0981551
1.5443 2.33127 -0.335423
2.97709 1.24083 0.256954
3.32647 1.54765 1.1096
1.67151 2.9331 -0.361952
2.49068 1.76878 -0.0242803
1.41139 2.43707 0.243988
1.85802 2.72296 -0.119468
3.229 1.25526 0.579321
1.68908 2.67866 0.296033
2.94215 1.5726 0.509655
2.72118 1.43715 -0.319461
1.40413 2.8841 -0.0230015
2.11805 2.24939 0.822698
1.59022 2.5943 -0.731684
3.19748 1.0544 0.780751
2.15161 2.05613 0.696713
2.98565 1.80157 0.39834
1.86373 2.16974 -0.716118
1.50288 2.8559 0.199073
2.22023 2.39273 1.14442
