ply
format ascii 1.0
comment Created by Open3D
element vertex 400
property double x
property double y
property double z
end_header
1.79676 -1.22257 -2.29422
2.62672 -0.378253 -1.74611
1.91627 -1.46859 -2.03504
2.65062 -1.68579 -0.451141
1.79275 -1.23121 -2.29541
1.03913 -2.88495 -1.49698
1.39913 -2.23265 -2.19597
2.22268 -1.59545 -1.45117
2.25968 -1.50218 -1.48574
2.58208 -1.52652 -0.865598
2.88217 -0.566449 -1.35914
2.76374 -1.18138 -0.990989
2.90837 -0.669595 -1.254
1.0927 -2.408 -2.46361
1.53796 -1.45668 -2.48371
1.31083 -2.34972 -2.20804
1.42839 -2.54162 -1.61069
1.54018 -2.09839 -2.1069
2.91139 -0.702935 -1.22477
2.91801 -0.292488 -1.49125
2.34202 -0.80514 -1.85494
1.50445 -2.44042 -1.66539
2.69283 -1.13859 -1.14659
1.21527 -1.43966 -2.77065
1.46934 -1.42805 -2.55901
2.30103 -1.07833 -1.75718
2.91674 -0.748246 -1.18207
1.53888 -1.46942 -2.47856
2.03881 -2.05253 -1.1421
1.76405 -1.95678 -1.87554
2.81726 -1.50957 -0.444318
2.78642 -1.15178 -0.987941
1.28544 -2.36342 -2.23292
2.35777 -1.93213 -0.591304
1.6065 -2.05457 -2.04242
2.6685 -1.19234 -1.12986
2.28892 -0.602469 -1.99901
2.65766 -1.46128 -0.818688
2.5305 -1.26471 -1.27597
1.87309 -1.83327 -1.81514
2.52428 -1.73127 -0.634791
1.45213 -1.76539 -2.45386
1.77658 -2.3777 -1.02024
1.86626 -1.37341 -2.151
1.81758 -2.3156 -1.09438
1.02815 -2.8143 -1.87819
2.26827 -1.17149 -1.7421
1.93557 -1.03702 -2.21184
2.82892 -1.51873 -0.406933
2.5154 -0.764927 -1.67162
1.1874 -2.496 -2.22512
2.16924 -0.763605 -2.06313
1.07028 -2.08384 -2.70248
1.47625 -1.71736 -2.44886
2.93364 -0.524935 -1.32801
2.52736 -1.45574 -1.06596
2.64819 -1.52242 -0.744534
2.35681 -1.44414 -1.38026
1.95365 -1.2612 -2.09876
1.37949 -1.71761 -2.55187
2.82543 -1.51491 -0.42
2.65974 -1.04659 -1.2817
2.92836 -0.855847 -1.07499
1.05819 -2.63907 -2.22698
1.2821 -2.26953 -2.33539
1.25327 -2.75808 -1.34487
1.07834 -2.45867 -2.43272
1.69359 -1.97479 -1.97766
2.90273 -0.590477 -1.3184
2.6705 -1.03971 -1.27213
2.93159 -1.42662 -0.376874
1.5059 -2.23596 -2.01116
2.79874 -1.03474 -1.08981
2.39425 -1.74824 -0.890615
1.55039 -1.69185 -2.37611
1.6277 -2.11652 -1.93741
2.46939 -1.37001 -1.26788
2.25566 -0.901427 -1.90917
2.56406 -1.72125 -0.567064
1.01337 -2.77964 -2.01905
1.17802 -1.52792 -2.78248
1.02604 -2.18568 -2.69416
1.79774 -1.84793 -1.9274
1.02384 -1.90854 -2.80861
1.76423 -2.35935 -1.12724
1.31893 -2.20427 -2.3417
2.4487 -1.77719 -0.713782
2.2015 -1.99382 -0.850586
2.60026 -1.37313 -1.03956
1.85462 -1.92752 -1.74481
1.57167 -1.58726 -2.39919
2.24053 -1.81977 -1.1059
1.34246 -1.29665 -2.69777
1.49146 -2.36056 -1.85531
2.60166 -1.27556 -1.14934
2.30367 -1.4838 -1.42961
1.41469 -2.12046 -2.27758
1.79464 -2.03853 -1.71961
1.17228 -1.50548 -2.79101
2.9281 -0.841422 -1.08823
2.24796 -2.02411 -0.647922
1.58379 -2.50599 -1.22579
2.1866 -0.801873 -2.03002
1.62699 -2.44267 -1.30465
2.74698 -0.945183 -1.24505
2.22795 -1.89777 -0.991781
2.03217 -2.02373 -1.21786
1.35459 -1.63915 -2.60404
2.76515 -1.19089 -0.978148
2.99051 -1.49858 -0.153195
2.08668 -1.08699 -2.0212
2.85373 -0.52019 -1.4224
1.92197 -1.98157 -1.54012
1.57803 -1.26397 -2.50151
1.31057 -2.09828 -2.43361
1.43687 -2.03031 -2.31738
2.30176 -1.31211 -1.5909
2.02231 -1.32112 -1.98066
2.28302 -1.62106 -1.30979
2.44642 -1.47369 -1.19001
1.22297 -2.16077 -2.4982
2.97274 -0.752234 -1.10733
1.29963 -1.75307 -2.61792
1.92937 -0.949581 -2.24757
2.51272 -1.21045 -1.35552
2.82764 -0.755522 -1.28984
2.02132 -1.95243 -1.3711
1.98256 -1.03929 -2.16027
1.97562 -2.05135 -1.30167
2.11234 -1.48811 -1.73782
2.81023 -0.68315 -1.36448
1.27074 -2.64737 -1.74725
2.45684 -0.897792 -1.66598
2.29643 -1.71405 -1.15555
2.05326 -1.75728 -1.57554
2.04871 -0.8886 -2.14461
1.78907 -2.3597 -1.04181
2.31732 -1.51845 -1.36856
1.66025 -2.44377 -1.18829
1.2108 -2.40697 -2.29926
2.653 -1.53463 -0.71591
1.20036 -1.68936 -2.72742
2.91509 -0.525868 -1.34863
2.90738 -0.351991 -1.46741
1.37645 -1.47934 -2.63007
1.98526 -2.19016 -0.948845
2.51043 -1.28947 -1.28355
2.89268 -1.46815 -0.376845
2.57302 -1.44766 -0.993372
1.64331 -1.4461 -2.37723
2.05327 -2.08051 -1.04116
2.45074 -0.972915 -1.62675
1.86826 -1.62355 -2.0008
2.64532 -0.753415 -1.52026
1.03359 -2.24712 -2.65211
2.06938 -1.78511 -1.5115
2.76858 -1.18718 -0.976854
2.26597 -1.73115 -1.19278
1.23593 -2.7661 -1.37528
2.24861 -1.86449 -1.0072
1.8378 -2.19878 -1.34459
2.19816 -1.73343 -1.32701
2.8802 -0.331767 -1.50773
2.90759 -1.12443 -0.831239
1.65672 -1.32278 -2.40689
2.49721 -1.82571 -0.498065
2.7651 -0.920448 -1.24088
1.5165 -2.41551 -1.6911
1.75475 -2.40184 -1.007
2.34424 -1.03894 -1.72468
2.68856 -0.616675 -1.55291
2.93212 -1.11763 -0.801682
1.42044 -2.55733 -1.58762
2.62254 -1.52314 -0.792787
1.91305 -2.24211 -1.01791
2.6098 -1.41265 -0.972816
1.64242 -2.45376 -1.21426
2.44503 -0.991173 -1.62235
2.4703 -1.47291 -1.14785
1.20925 -2.42167 -2.28466
1.7446 -1.4474 -2.2622
2.4994 -0.663104 -1.74499
2.11482 -1.20273 -1.92719
2.6948 -1.41695 -0.813929
1.77786 -1.0023 -2.38125
1.87478 -1.41788 -2.11778
1.64554 -1.61056 -2.30293
1.75116 -2.17717 -1.59869
2.50576 -1.58747 -0.922831
1.19434 -1.97134 -2.63366
2.99217 -0.827874 -1.01538
1.97081 -1.59194 -1.87215
1.39977 -1.90659 -2.44261
1.02236 -2.44546 -2.51697
2.19339 -2.07346 -0.665614
1.68955 -2.0823 -1.86528
1.46386 -1.84469 -2.40022
1.81704 -1.43258 -2.18223
2.19109 -1.75341 -1.31349
1.93645 -1.00239 -2.22292
1.71332 -1.74235 -2.13874
1.35035 -1.8677 -2.5185
2.37144 -1.92525 -0.573117
2.19279 -2.01634 -0.819332
1.59184 -1.24955 -2.49233
2.0104 -2.19796 -0.847609
2.13704 -1.68123 -1.50918
1.47479 -2.45085 -1.71657
1.88691 -0.993365 -2.27685
2.00535 -0.917584 -2.17993
2.41409 -1.67623 -0.970271
2.94209 -1.32041 -0.521916
1.52809 -2.41662 -1.65959
1.7583 -2.01894 -1.81468
2.0884 -1.84143 -1.39801
2.25134 -1.12573 -1.79376
1.88153 -2.21816 -1.1785
2.73862 -1.11315 -1.10208
1.66176 -1.44256 -2.35843
2.19511 -0.956249 -1.9542
1.10621 -2.01852 -2.69792
1.70962 -2.31478 -1.41865
1.82456 -2.17332 -1.43191
2.98282 -1.52167 -0.125115
1.49678 -2.31111 -1.92428
2.18954 -0.861595 -2.0025
1.53214 -2.4652 -1.52759
1.50426 -2.43398 -1.68064
1.89066 -2.16322 -1.2849
1.13875 -1.58059 -2.80172
1.19264 -2.74957 -1.62746
2.4915 -0.506677 -1.82788
2.41129 -0.772097 -1.79095
1.52252 -2.48902 -1.48758
1.59836 -2.23539 -1.8338
1.49334 -2.12783 -2.15267
1.84822 -1.46477 -2.12651
1.23442 -2.5821 -1.99352
2.29233 -1.03569 -1.7938
1.81396 -1.08817 -2.32123
2.00576 -2.09021 -1.14527
2.25853 -1.36474 -1.61363
2.68059 -1.67176 -0.41609
1.97286 -2.02637 -1.35449
1.83414 -2.16453 -1.42583
1.41939 -2.34577 -2.02323
1.80836 -2.00315 -1.73934
2.95509 -1.22868 -0.627918
1.52793 -1.25574 -2.54964
2.46556 -1.26934 -1.37469
1.93083 -1.65063 -1.8867
2.93357 -0.485358 -1.35486
2.34686 -1.92462 -0.637591
2.00422 -2.08029 -1.17115
2.4757 -1.3353 -1.29375
2.52805 -1.56682 -0.910145
1.15402 -2.11046 -2.60597
2.6082 -0.85043 -1.50308
1.91931 -1.37481 -2.0841
2.52598 -1.48107 -1.03547
1.3221 -2.43446 -2.07569
1.49807 -2.3987 -1.77021
2.48862 -0.904969 -1.6211
1.25279 -2.75156 -1.3864
2.25455 -0.812246 -1.95108
2.86716 -0.985891 -1.0382
2.75977 -0.511556 -1.53371
1.11119 -2.76124 -1.8317
2.37623 -0.904291 -1.76282
1.38607 -1.3035 -2.66139
2.91199 -0.913144 -1.04467
2.10336 -1.66058 -1.59238
1.82638 -0.938055 -2.35211
1.15166 -1.54203 -2.79956
2.65889 -0.445795 -1.6797
2.31501 -1.33757 -1.54926
1.14648 -2.51862 -2.26134
1.72117 -1.61105 -2.20887
2.51687 -1.27708 -1.28556
1.25284 -2.58234 -1.95307
2.70412 -0.747518 -1.45123
1.52353 -2.27966 -1.91813
1.77093 -1.18046 -2.33586
1.3932 -2.55703 -1.66652
1.11197 -2.15677 -2.62424
1.75047 -1.5601 -2.19945
2.19722 -1.96215 -0.933749
2.12758 -1.15649 -1.93621
1.19055 -2.10224 -2.57139
1.97155 -1.97042 -1.45132
1.80114 -2.03138 -1.71635
1.26787 -2.44594 -2.15711
2.20827 -1.55119 -1.52368
2.60176 -1.36165 -1.05092
1.02525 -2.55724 -2.39494
2.07019 -2.10944 -0.92194
2.50141 -1.53694 -1.00538
2.54059 -1.44575 -1.05475
2.61576 -0.898669 -1.4596
2.39002 -1.2211 -1.53219
1.53497 -1.99575 -2.20634
2.1124 -1.61158 -1.6268
2.9025 -0.31875 -1.49205
2.74519 -0.647116 -1.46736
2.02673 -0.881607 -2.17
2.386 -1.91746 -0.555051
1.58531 -1.36539 -2.46544
1.78591 -2.08992 -1.66423
1.69433 -2.3895 -1.25774
2.1453 -1.74547 -1.41511
1.8811 -1.2189 -2.20258
1.80305 -2.30654 -1.16813
1.92061 -1.22436 -2.15489
1.71631 -2.42615 -1.05318
2.49266 -0.682068 -1.74298
2.01403 -1.5764 -1.81816
2.23722 -2.00119 -0.737194
2.80897 -0.50457 -1.48274
2.20049 -2.00363 -0.829776
1.19775 -2.72783 -1.69592
2.23563 -1.2372 -1.74333
1.93905 -2.21364 -1.02139
2.79857 -0.585152 -1.44424
1.79721 -0.972915 -2.37061
2.41106 -0.8562 -1.74676
2.99216 -0.459938 -1.30647
1.90445 -1.3358 -2.12261
1.86227 -2.29272 -1.0225
1.13875 -2.63857 -2.07837
2.35074 -1.64047 -1.15296
1.22397 -2.22758 -2.4489
1.27053 -1.82973 -2.61756
1.66989 -1.44282 -2.34935
2.454 -1.4108 -1.24961
2.8116 -1.15567 -0.944334
2.25502 -0.998322 -1.86129
1.66121 -2.46096 -1.11908
2.85456 -0.988578 -1.05365
1.95276 -1.88766 -1.60718
1.22807 -2.60239 -1.96511
1.76929 -2.30057 -1.28626
2.12001 -1.49367 -1.72132
2.26605 -1.94516 -0.796351
1.81858 -1.67243 -2.03788
2.57132 -1.17821 -1.29509
1.7656 -1.68681 -2.10318
2.01413 -2.19613 -0.841556
1.95377 -1.85034 -1.65133
2.13735 -1.37167 -1.78945
1.89322 -2.04958 -1.49588
1.05754 -2.64502 -2.21807
2.21712 -1.90901 -0.995486
2.33711 -1.47189 -1.38471
2.01954 -1.32043 -1.98469
2.45879 -1.83117 -0.57695
1.04321 -2.84812 -1.6965
2.50029 -1.81702 -0.510277
2.22261 -2.0141 -0.743997
1.84305 -1.01353 -2.31472
2.87202 -1.57741 -0.22078
1.16307 -1.94553 -2.67503
2.20477 -1.23034 -1.79074
1.16605 -2.80931 -1.42372
1.73518 -2.07073 -1.79325
1.38997 -2.57239 -1.63171
2.48552 -1.04245 -1.53206
1.44705 -2.60085 -1.34383
1.23083 -2.71003 -1.65815
1.19128 -2.47647 -2.24504
1.38898 -2.5964 -1.55935
1.24212 -2.62001 -1.89307
1.80326 -1.37368 -2.2264
1.00107 -2.9067 -1.51544
2.29679 -1.81234 -0.992926
2.09491 -1.03414 -2.03563
1.30457 -1.42059 -2.70454
2.88076 -0.382022 -1.4778
1.28167 -2.55946 -1.93718
1.11274 -2.77818 -1.7683
1.90592 -1.49016 -2.03592
1.17396 -1.5857 -2.77384
2.81253 -0.677118 -1.3659
1.03748 -2.86312 -1.64069
2.36542 -0.757007 -1.85116
2.2423 -1.86394 -1.02294
1.54062 -1.32762 -2.51966
2.34179 -1.58535 -1.24414
1.3718 -2.37513 -2.07007
2.02248 -2.16913 -0.897007
2.0112 -1.1593 -2.07744
1.62295 -1.2703 -2.45681
1.19931 -2.59403 -2.04316
1.67631 -2.40401 -1.26966
1.14003 -2.36698 -2.44005
1.63141 -1.28126 -2.44532
2.1911 -1.1951 -1.8315
1.02244 -2.81611 -1.88718
1.00868 -2.37254 -2.59357
1.39184 -2.10367 -2.32324
2.92064 -1.11877 -0.81784
