ply
format ascii 1.0
comment Created by Open3D
element vertex 400
property double x
property double y
property double z
end_header
2.54178 0.201127 -1.80866
1.84044 -0.695901 -2.42408
2.10274 -0.9433 -2.19576
2.6895 -0.493884 -1.50096
1.89811 -1.00024 -2.37491
2.08909 1.23857 -2.44871
1.93223 -0.902814 -2.34544
1.89515 0.364928 -2.47615
1.53007 0.062734 -2.72458
2.2595 0.456428 -2.19043
2.03764 1.13071 -2.45356
2.3723 -0.0543296 -1.97939
1.35677 -1.36913 -2.81511
2.38729 -0.546535 -1.92196
1.88079 -1.04412 -2.39152
2.00757 -1.1581 -2.28301
2.85286 -0.243053 -1.34275
2.56905 0.362683 -1.70148
2.03332 -0.593796 -2.25462
1.48315 -0.63711 -2.6461
2.51021 0.199658 -1.84059
1.86018 1.13078 -2.514
2.3686 -0.41976 -1.95172
1.90471 0.749864 -2.45874
1.90358 0.210779 -2.49151
2.0476 -0.437384 -2.30768
1.63323 -0.653101 -2.57599
1.76713 -0.738773 -2.52447
1.50245 0.857138 -2.70897
1.80937 0.0936658 -2.49295
2.30991 -0.00780041 -2.06739
2.53619 -1.14623 -1.63442
1.66206 0.413641 -2.68923
2.60861 -0.221698 -1.67204
2.71073 0.511233 -1.49495
2.42495 1.08029 -2.08144
1.34159 -0.102281 -2.83979
1.91532 -0.0890806 -2.36286
1.73077 0.66713 -2.69505
2.04544 1.18161 -2.4941
1.95542 0.941187 -2.44086
2.00603 -0.920145 -2.29332
1.95224 -0.923088 -2.33269
2.54598 0.118595 -1.78306
2.67848 1.24884 -1.64334
2.09816 0.810708 -2.38847
2.17004 -0.208381 -2.18598
2.20831 -0.91452 -2.09003
2.22685 0.264034 -2.19832
1.87575 1.28881 -2.56515
1.47112 -0.204011 -2.7262
2.24073 -0.12495 -2.12338
2.273 0.139518 -2.12138
2.47324 -0.079157 -1.84495
2.56447 -0.83779 -1.6994
2.27569 -1.10438 -2.00425
2.55168 -0.754401 -1.69533
2.34309 1.72531 -2.19578
2.30179 0.0505867 -2.0506
2.3957 0.801262 -2.0823
2.6198 1.00322 -1.7746
2.53147 -0.961995 -1.65552
2.28181 0.300182 -2.1419
2.50422 -0.00605564 -1.8333
2.36029 0.908764 -2.13463
2.45875 -0.732389 -1.80405
1.92421 0.925674 -2.49557
2.38973 0.582988 -1.95569
1.7568 0.638275 -2.61422
2.80351 0.919352 -1.53901
2.26122 -0.0702047 -2.10864
2.2128 1.56097 -2.32099
1.5384 -0.5266 -2.6999
1.59153 0.0210622 -2.56923
2.40623 1.20697 -2.10995
2.29039 -0.940118 -1.98634
1.89778 1.64076 -2.5308
1.69257 1.32334 -2.67715
1.80902 0.184415 -2.54319
1.62984 0.109216 -2.59536
2.24556 1.17877 -2.28417
1.97959 0.0726956 -2.35431
2.54608 0.118242 -1.76199
2.237 0.996355 -2.24035
2.19758 1.75503 -2.33153
2.0116 0.661561 -2.41216
1.78966 -1.17445 -2.47331
1.7016 -0.461778 -2.50224
1.51504 1.53237 -2.73438
2.16036 -0.76324 -2.14881
2.2681 0.660845 -2.18617
1.34466 -1.11621 -2.8098
1.27253 -0.342961 -2.87886
2.59042 0.884272 -1.82872
1.91973 -0.829766 -2.34521
1.41043 0.209846 -2.73532
2.64748 0.553528 -1.6953
2.6557 -1.25941 -1.49186
2.56555 1.08747 -1.92033
2.18621 0.673813 -2.2984
2.3954 1.53555 -2.14414
2.09685 0.318869 -2.31328
2.76573 0.970557 -1.61713
1.99133 1.43657 -2.48473
2.54843 1.11646 -1.84429
3.02151 0.868471 -1.18467
2.18711 0.427168 -2.22385
1.47341 0.281467 -2.73555
2.76157 0.966257 -1.42179
1.40017 -0.214755 -2.80067
1.66086 -0.0208801 -2.63712
2.66365 1.36177 -1.71602
2.09802 0.950644 -2.41826
1.9624 -0.587566 -2.36822
2.60433 0.218165 -1.61813
2.72217 1.53272 -1.56331
1.6395 -0.115414 -2.56692
2.25509 1.15967 -2.27355
1.99103 0.552977 -2.44438
2.09877 -0.358128 -2.24871
1.58442 -0.660874 -2.63847
2.63638 -1.18343 -1.53138
2.49289 0.453614 -1.89872
2.57525 0.571544 -1.79068
2.17446 0.134927 -2.24179
2.01059 0.654829 -2.43301
1.49506 0.0279754 -2.75899
2.06458 1.46181 -2.46494
2.63726 -0.831774 -1.55036
2.2285 0.664641 -2.25172
2.00138 0.762977 -2.40449
1.45452 -0.728537 -2.78833
2.84282 0.982897 -1.51622
2.89717 1.46895 -1.26346
1.73564 0.499407 -2.61316
2.57773 0.599575 -1.75211
1.53597 1.43165 -2.75408
1.98538 1.3788 -2.52104
2.77721 -0.119443 -1.43902
2.74228 1.34098 -1.61253
2.32802 1.53707 -2.18681
1.47562 0.839248 -2.81147
2.67266 0.312357 -1.56246
1.90813 1.17999 -2.60723
2.5675 1.24693 -1.73922
1.52527 -0.618546 -2.63741
2.33532 -0.865358 -1.95945
1.37132 -1.09283 -2.78126
2.636 -0.821831 -1.51442
2.23182 1.0678 -2.28831
2.65213 1.02112 -1.79259
2.42314 -0.208335 -1.88733
2.70139 0.36575 -1.60875
1.61548 1.02132 -2.66392
1.34236 0.231647 -2.82745
2.65157 -0.9466 -1.5402
2.12324 -0.720464 -2.18451
2.37154 1.53998 -2.10471
1.60225 1.04688 -2.69565
2.06046 -0.174345 -2.28495
2.49502 -0.341955 -1.80193
1.55368 1.19355 -2.62619
2.02492 0.814765 -2.42861
2.02935 -0.343909 -2.33602
2.54134 0.285057 -1.75583
1.74506 -1.20129 -2.50494
1.9621 -0.893854 -2.35342
1.95218 1.74424 -2.46816
2.91446 0.498365 -1.26272
2.65566 -1.19007 -1.56059
2.21476 -0.721557 -2.09472
2.62054 0.741216 -1.7713
2.0159 -1.12669 -2.28341
1.41578 0.790668 -2.83917
2.22042 -1.09305 -2.07124
2.01125 -1.29608 -2.28655
2.65763 1.79091 -1.84447
2.1286 1.11659 -2.40026
1.5939 1.02521 -2.78339
1.87417 0.961057 -2.57981
1.83653 -0.962801 -2.40483
2.21995 -0.761112 -2.08707
2.10547 -0.634609 -2.19056
2.40247 -0.732282 -1.89492
2.79319 0.683729 -1.42499
1.99417 0.906812 -2.44653
2.07316 -0.538359 -2.24577
2.81514 1.58001 -1.55501
2.90153 0.304757 -1.28468
1.544 -0.80935 -2.66175
2.39498 -1.14014 -1.86721
1.72945 -0.951898 -2.52189
1.78243 1.44546 -2.64822
2.21804 1.30953 -2.29893
2.59148 -0.0482713 -1.73131
2.60778 -1.21669 -1.52681
1.28223 -0.189232 -2.9468
1.9434 -0.956791 -2.34285
1.62442 -0.45749 -2.58408
2.70994 1.26288 -1.47852
2.24958 0.540836 -2.17622
2.17227 1.3626 -2.36677
2.41074 0.853796 -2.0648
1.42217 -0.837889 -2.74286
2.6022 1.10899 -1.73587
1.91337 1.33184 -2.43303
2.70181 -0.158657 -1.58055
2.46438 -1.29449 -1.73702
2.69711 0.122159 -1.46683
2.16512 -0.267052 -2.17844
2.06939 1.544 -2.46537
2.10018 -0.34167 -2.25334
2.77516 -1.1176 -1.43228
1.88452 -0.898263 -2.41368
1.9225 1.19985 -2.47163
2.74907 0.104102 -1.44561
2.138 -0.27364 -2.21807
1.97456 0.65629 -2.41722
2.21826 1.16932 -2.31291
1.9523 -1.24125 -2.34018
1.69124 0.445967 -2.58793
1.8148 1.55725 -2.59958
2.54005 -0.435434 -1.72434
1.72635 -0.698413 -2.51459
2.42052 0.064139 -1.85154
2.79927 -0.0821051 -1.33396
1.64646 0.19397 -2.62804
2.48638 -0.597356 -1.72355
2.59325 0.747704 -1.81307
2.75217 -0.0245289 -1.47276
1.74898 1.241 -2.64419
2.56102 -0.689867 -1.59707
1.53956 -0.040898 -2.70157
1.83973 -1.14562 -2.43291
2.31873 1.86102 -2.21129
2.47499 0.138627 -1.89975
1.93953 1.22218 -2.46279
2.75045 0.723701 -1.58451
2.54809 -0.0661433 -1.7358
2.58975 0.972995 -1.634
2.63314 -0.973913 -1.49956
2.77994 0.677265 -1.47312
2.42992 -0.0618578 -1.92002
2.70781 0.556764 -1.56537
1.69941 -0.0598209 -2.62246
2.81466 0.336042 -1.36004
2.32651 0.882347 -2.16969
2.32604 -0.663586 -1.93648
1.9436 0.241481 -2.49921
1.6957 1.05099 -2.73133
2.35935 -1.05394 -1.9027
2.7736 -0.281562 -1.36978
2.15892 0.725537 -2.31283
2.73855 0.023488 -1.45842
2.7903 -0.690092 -1.3362
2.41448 0.726457 -2.04859
2.15712 0.326227 -2.26637
2.60838 -0.569641 -1.62352
1.85346 -0.965628 -2.39276
2.50051 0.500489 -1.90476
2.43954 -0.334848 -1.88262
1.81087 0.694848 -2.61085
1.45308 -0.647614 -2.75103
2.27895 0.766711 -2.20831
1.70687 -0.393226 -2.59511
2.83752 1.01876 -1.34514
2.44934 -0.630663 -1.84892
2.7556 1.44543 -1.63489
2.09187 1.0189 -2.298
2.47174 0.261683 -1.84028
2.09377 0.719275 -2.38422
2.74757 1.15562 -1.57605
2.85841 -0.551822 -1.27132
2.6643 1.37927 -1.48911
2.07189 -0.705958 -2.24645
2.57402 -0.368639 -1.72818
2.41074 1.77928 -2.09967
2.40594 0.399862 -2.00455
2.00166 0.935913 -2.49753
2.55258 0.832804 -1.87666
1.6845 0.599321 -2.69591
1.53392 1.34576 -2.70341
1.75152 -0.663034 -2.5296
2.16172 1.69063 -2.36869
2.43856 -0.181486 -1.88103
2.20079 0.443113 -2.24897
2.88459 0.130358 -1.33827
2.35635 0.86768 -2.12883
2.51124 0.738285 -1.93675
1.48512 -0.992172 -2.69311
2.05157 0.234152 -2.34463
1.9949 0.186055 -2.34957
2.19537 -0.50951 -2.13493
2.03216 -1.02626 -2.2688
1.98646 -0.312223 -2.28908
2.05174 1.67582 -2.41123
1.41916 -0.0312971 -2.72887
2.57013 -0.569949 -1.61818
2.40129 -0.107374 -1.92414
2.42573 1.39367 -2.06115
1.57853 -0.892034 -2.64963
1.91232 -0.743895 -2.3911
2.55334 1.5888 -1.95639
2.65813 0.605637 -1.71603
2.66697 1.56385 -1.69186
2.36228 0.0452446 -2.00513
2.46622 0.813957 -1.98545
1.41989 -1.01675 -2.74957
2.26487 1.00209 -2.24965
2.46364 0.554467 -1.96748
2.78156 1.48545 -1.56645
2.04019 -0.807968 -2.25688
2.26688 1.18244 -2.26232
1.45871 1.19716 -2.88951
1.96357 0.890463 -2.45429
2.44191 -0.13837 -1.90192
1.36016 0.507746 -2.85646
2.51692 -0.589665 -1.67018
2.74732 1.15545 -1.46916
2.57067 -0.307559 -1.67267
2.29012 -0.517489 -2.02564
2.60201 -0.470388 -1.59041
1.87104 0.743238 -2.55136
2.77946 -1.24893 -1.38504
1.59608 0.0389511 -2.64516
2.28607 -0.286215 -2.05483
1.85489 -0.417948 -2.38146
1.76341 1.23711 -2.53591
2.66395 0.2457 -1.62482
1.93772 -0.2737 -2.36415
2.55675 -0.711782 -1.70069
2.23036 1.31358 -2.29975
2.6127 -1.24896 -1.60213
2.71055 0.642756 -1.49469
1.516 1.12405 -2.79513
2.59047 1.46732 -1.89988
2.72231 1.21351 -1.54001
2.52074 1.24679 -1.91208
2.38708 1.61662 -2.13686
1.92753 -0.708214 -2.37421
2.20516 -0.545219 -2.09884
1.42402 -0.227153 -2.74824
2.59732 -0.921375 -1.67674
1.93721 0.894634 -2.55057
1.80624 0.281993 -2.61576
1.96708 -0.629002 -2.35884
2.11156 -0.127235 -2.24446
1.94631 -0.864229 -2.30981
2.3079 -0.248599 -2.02859
1.42803 -1.20309 -2.72108
1.61258 1.25124 -2.61864
1.68341 0.0056131 -2.58164
2.55256 1.80862 -1.98812
2.18674 -1.14443 -2.10644
2.21052 -0.284222 -2.14382
2.77578 1.10816 -1.50826
1.58181 0.553635 -2.78212
1.73606 1.16073 -2.6877
1.89059 1.22757 -2.53489
1.90496 0.370437 -2.45396
1.32516 0.30222 -2.85889
1.93187 1.53771 -2.5803
2.57457 -0.548146 -1.69059
2.75572 0.861218 -1.52149
1.79955 1.57294 -2.66035
2.86763 -0.352984 -1.27392
2.66986 1.00409 -1.6751
2.34826 -0.138716 -2.00291
2.65098 -0.65093 -1.59753
1.67232 -1.13547 -2.55409
1.83052 1.38065 -2.60997
2.6374 1.33024 -1.85507
2.65665 -0.421167 -1.55448
2.61603 1.04013 -1.83099
1.66078 0.923977 -2.76208
2.57587 0.549421 -1.77077
2.16619 -0.183444 -2.20441
1.47549 -0.613557 -2.75284
2.2353 -1.18891 -2.04805
2.23739 0.0900848 -2.14525
1.44004 1.24369 -2.72033
2.29545 0.286207 -2.11645
2.66263 1.27937 -1.80764
2.74849 -1.08564 -1.40843
2.31742 -0.971449 -1.98043
1.94068 -1.00047 -2.34642
2.36969 -0.785908 -1.92538
2.37906 -0.171895 -1.96238
1.66955 1.29509 -2.71905
1.93677 -1.21809 -2.35657
2.71417 0.11073 -1.51813
2.49666 -0.864523 -1.75078
2.24706 -0.778807 -2.05692
1.50255 -1.19531 -2.72367
1.99169 -0.217609 -2.34898
1.65803 0.199545 -2.61666
2.69902 -0.0146367 -1.48931
2.2588 0.0308925 -2.11972
2.34568 0.282483 -2.06612
2.22258 -0.295805 -2.1204
