ply
format ascii 1.0
comment Created by Open3D
element vertex 400
property double x
property double y
property double z
end_header
1.88239 -0.127395 -2.46805
2.52235 0.794171 -1.74217
2.22876 0.976297 -2.06974
1.54814 0.541065 -2.64232
2.43589 1.06123 -1.83713
2.15838 -1.5289 -2.37942
2.43264 0.990012 -1.84503
2.54627 -0.294803 -1.82503
2.59686 -0.190453 -1.65779
2.00992 -0.636943 -2.44001
2.46208 -1.12219 -2.02912
1.8321 -0.0929518 -2.51959
2.63178 1.18581 -1.5401
2.11474 0.73931 -2.19451
2.42517 1.07778 -1.84714
2.30855 1.18364 -1.98203
1.71517 0.615474 -2.48044
1.4577 -0.606464 -2.81283
2.51807 0.857243 -1.76987
2.8483 0.839314 -1.28095
1.82461 -0.21564 -2.52619
2.75437 -0.890409 -1.61981
2.29205 0.76009 -2.02827
2.73313 -0.475482 -1.63032
2.35636 -0.345926 -2.03873
1.7493 -0.120996 -2.60598
2.65829 0.735402 -1.55093
2.28317 0.497476 -2.00843
2.81255 -0.753567 -1.39887
2.6382 0.0515788 -1.66412
2.0868 0.0272155 -2.2905
1.33138 0.843189 -2.83923
2.49885 -0.604013 -1.85244
1.82959 0.379244 -2.45106
1.40711 -0.599066 -2.79857
2.33799 -0.823735 -2.1684
2.62295 -0.114556 -1.55843
2.72343 0.44965 -1.55475
2.37717 -0.985011 -2.04865
1.99355 -1.68217 -2.54599
2.72071 -0.661343 -1.67557
2.2024 0.829223 -2.09695
2.36676 0.957151 -1.91817
1.80444 -0.0972145 -2.5246
1.62801 -1.26417 -2.69381
2.33086 -0.868317 -2.15577
2.24037 0.262778 -2.11565
2.27828 1.10277 -2.02006
1.86984 -0.592513 -2.55533
2.57366 -1.2803 -1.86724
2.6611 0.138907 -1.53622
2.21676 0.218322 -2.14735
2.26861 0.0077129 -2.12577
1.75843 -0.00735735 -2.55976
1.93053 1.06892 -2.33334
1.81431 0.914439 -2.46563
1.75822 0.817285 -2.48879
2.40083 -1.52027 -2.13804
1.57654 -0.524645 -2.77585
2.20723 -0.676337 -2.27077
1.79616 -0.981656 -2.59824
1.41191 0.718387 -2.77508
2.12625 -0.315835 -2.29746
1.91968 0.0924302 -2.41784
2.14974 -0.893651 -2.34518
1.75029 0.678629 -2.51251
2.61422 -0.80702 -1.80556
1.43313 -1.10555 -2.91229
2.57244 -0.680055 -1.79858
1.85535 -0.603021 -2.48717
2.21428 0.17584 -2.15558
2.39947 -1.48249 -2.13432
2.48926 0.31596 -1.74904
2.9093 0.319009 -1.25146
2.1494 -1.16752 -2.36678
1.73775 0.691531 -2.53898
2.61398 -1.55757 -1.8146
2.61352 -1.38697 -1.7562
2.48924 -0.238364 -1.86297
2.77055 0.0659696 -1.45465
2.22449 -1.23845 -2.30524
2.59137 0.164365 -1.74253
1.67778 -0.202459 -2.63029
2.5647 -0.672007 -1.91265
2.29411 -1.79245 -2.235
2.53965 -0.534072 -1.88411
2.43667 1.13781 -1.8263
2.76974 0.729273 -1.4341
2.67387 -1.59288 -1.57555
2.12605 0.74048 -2.18312
2.43004 -0.416969 -2.02423
2.62828 0.934685 -1.52618
2.61049 0.0745856 -1.5409
1.90525 -0.807749 -2.51389
2.54769 1.03224 -1.71725
2.82074 -0.124432 -1.32501
1.7751 -0.473729 -2.56768
1.30655 1.0741 -2.84101
2.21806 -0.789732 -2.26782
1.87637 -1.09583 -2.60824
2.33634 -1.34334 -2.2032
2.39991 -0.232236 -2.01022
1.94694 -0.640741 -2.43592
2.55317 -1.36812 -1.92289
1.69336 -1.26739 -2.69936
1.71379 -0.339353 -2.49239
2.50091 -0.150114 -1.91005
2.72657 -0.290441 -1.48239
1.38982 -0.998228 -2.79354
2.59217 0.00625789 -1.60867
2.51848 -0.0977568 -1.7795
1.76902 -1.30876 -2.61065
2.19942 -1.16949 -2.31686
2.10693 0.32627 -2.22369
1.38061 -0.455679 -2.84185
1.62218 -1.47384 -2.6633
2.78343 0.33193 -1.42299
2.15608 -1.27714 -2.37256
2.41315 -0.584206 -2.02226
2.15743 0.266842 -2.19005
2.55562 0.57802 -1.66727
1.39581 1.04786 -2.77195
1.86265 -0.489681 -2.52896
1.76847 -0.593753 -2.59746
1.88681 -0.489915 -2.52944
2.4442 -0.643645 -1.9994
2.56371 -0.22326 -1.69034
2.29757 -1.62918 -2.23195
1.51989 0.801304 -2.66773
1.95216 -0.964194 -2.52806
2.65391 -0.513563 -1.75196
2.35279 0.292991 -1.89006
1.94912 -0.549998 -2.40992
1.52274 -1.20967 -2.63789
2.58441 -0.528161 -1.76439
1.60999 -0.741694 -2.71985
2.62805 -1.55768 -1.662
2.39376 -1.50608 -2.11266
1.6747 0.355124 -2.54153
1.77657 -1.17693 -2.57824
1.99427 -1.72961 -2.52056
2.60956 -1.04116 -1.67753
1.48332 -0.391497 -2.7518
2.24668 -1.54053 -2.26868
1.49152 -1.49463 -2.8152
2.76065 0.741786 -1.40203
2.07124 0.97715 -2.22353
2.66502 0.976589 -1.48756
1.3537 0.661113 -2.79672
2.25534 -1.10077 -2.26479
2.07493 -0.738782 -2.36979
1.7174 0.0384025 -2.59307
1.79362 -0.180871 -2.51652
2.77042 -0.914821 -1.50898
2.70527 -0.353823 -1.46454
1.55411 0.960509 -2.63766
2.24813 0.784076 -2.05962
1.84633 -1.79837 -2.62992
2.7138 -1.02873 -1.5841
2.3872 0.276605 -1.95821
1.85883 0.398853 -2.43812
2.92949 -0.89025 -1.25038
2.4939 -0.749483 -1.95963
1.9633 -0.0288083 -2.40207
1.5424 -0.498488 -2.75477
2.51605 1.2124 -1.73395
1.85086 0.391298 -2.46466
2.68529 -1.52712 -1.73505
1.56349 -0.197598 -2.61369
1.64304 1.27251 -2.57321
2.12219 0.749027 -2.18729
1.88016 -0.632353 -2.51168
1.87747 0.720744 -2.42184
2.62721 -1.00263 -1.62774
1.94296 0.964773 -2.3487
1.98209 0.991612 -2.31571
2.23713 -1.39825 -2.26497
2.20896 -1.30788 -2.3199
2.49474 -1.31386 -1.88255
2.46297 -1.0779 -1.99101
2.6477 1.20567 -1.59366
2.08651 0.760554 -2.22051
2.46093 0.904975 -1.8351
2.14142 0.97879 -2.15597
1.51173 -0.596983 -2.70645
2.57438 -0.778959 -1.86632
2.28531 0.577894 -2.03362
1.89991 -1.23511 -2.47024
1.60874 0.0192976 -2.57747
2.5765 0.724095 -1.62925
1.75097 1.0239 -2.51122
2.4678 0.897809 -1.78354
2.50708 -1.5866 -1.92357
2.48564 -1.12282 -2.03133
2.01189 0.328857 -2.3109
1.22881 0.918698 -2.90578
2.42337 -0.334203 -1.80566
2.33542 0.949357 -1.95083
2.68932 0.562724 -1.51918
1.38139 -1.36001 -2.80707
2.51486 -0.202191 -1.91094
2.07342 -1.65595 -2.46562
2.03625 -0.882349 -2.43929
2.64256 0.737588 -1.52247
1.5912 -1.25366 -2.74687
2.89928 -0.865593 -1.44712
1.95659 0.534704 -2.32577
1.39552 0.952982 -2.80588
1.33319 -0.255803 -2.83075
2.3069 0.395508 -2.03666
2.1515 -1.85786 -2.38326
2.0943 0.182636 -2.25922
1.70198 1.38731 -2.50546
2.19146 0.67604 -2.10674
2.7584 -0.913082 -1.63573
1.49426 -0.0554499 -2.70042
2.15071 0.206274 -2.20536
2.64549 -0.428016 -1.74629
2.18708 -1.29516 -2.34409
2.21516 1.11624 -2.07732
2.74488 -0.289014 -1.53429
2.58177 -1.57506 -1.83261
1.73367 0.444759 -2.53072
2.572 0.755823 -1.66894
1.35928 -0.55639 -2.91278
1.39114 0.13929 -2.74209
2.65756 -0.164448 -1.61694
1.41155 0.285353 -2.79838
1.91324 -0.647531 -2.49308
1.64784 0.19961 -2.57709
2.60537 -1.27982 -1.7878
1.29393 0.386731 -2.86416
2.61708 -0.0435992 -1.62405
2.38426 1.09696 -1.88838
2.43826 -1.63404 -2.09176
2.18229 0.143916 -2.19245
2.7509 -0.934069 -1.65142
1.81784 -0.490373 -2.51712
1.6552 -0.0144538 -2.62869
1.31019 -1.2968 -2.91356
1.27665 0.751003 -2.85605
1.59279 -0.557598 -2.66027
1.98849 0.130334 -2.36145
1.59159 -0.53054 -2.68159
2.43566 -0.126982 -1.88621
1.46621 -0.22987 -2.70849
2.16552 -0.886523 -2.33068
1.51429 0.241397 -2.74823
2.08885 -0.651835 -2.35396
2.43648 -1.34584 -1.99055
1.71032 0.861567 -2.55173
1.42441 0.336195 -2.71897
2.36818 -0.670192 -2.10357
1.50844 0.0265285 -2.68853
1.41483 0.768726 -2.71167
2.33357 -0.441471 -2.1295
2.3086 -0.283992 -2.11489
1.6782 0.624323 -2.5537
2.62876 1.20163 -1.61746
1.94259 -0.462661 -2.46268
2.11709 0.569315 -2.20507
2.45323 -0.852471 -1.96849
2.53153 0.428108 -1.67258
2.03419 -0.940838 -2.45307
2.36722 0.165332 -1.93476
1.46351 -0.900385 -2.71915
2.12852 0.910264 -2.16974
1.89148 -1.18884 -2.49901
2.86056 -0.456338 -1.52931
1.51543 -0.586534 -2.79659
2.31243 -0.791063 -2.16556
1.70027 -1.0314 -2.62335
1.49417 0.774667 -2.63556
1.30673 -1.56166 -2.84668
2.07873 0.538239 -2.23961
2.12914 0.769605 -2.17306
2.11131 -1.76764 -2.3991
1.90914 -0.495265 -2.50135
2.30696 -1.12648 -2.19223
1.93235 -0.777109 -2.49689
2.48029 -0.814935 -1.90012
2.76682 -1.28234 -1.47051
2.37637 0.509802 -1.90475
2.30242 -1.75689 -2.22799
1.80205 0.102502 -2.51754
2.1828 -0.509275 -2.26696
1.76417 0.295538 -2.45869
2.01435 -0.982168 -2.47083
2.10915 -0.565888 -2.33884
2.65098 0.950038 -1.52725
2.40561 -0.17317 -1.99059
2.61283 0.0772033 -1.73164
1.96478 0.339358 -2.36552
2.06401 0.821464 -2.23695
2.68988 0.713025 -1.58566
2.65673 -1.43032 -1.80624
2.79034 0.0927719 -1.35769
1.41029 0.36206 -2.77802
1.70355 -0.113215 -2.62188
1.91383 -1.54099 -2.57305
2.48432 0.726732 -1.74384
2.24707 0.599862 -2.05635
2.16475 -1.38044 -2.34498
1.92339 -0.398285 -2.45077
1.74261 -1.5131 -2.61622
1.84237 -0.207999 -2.52504
1.95479 -0.844619 -2.49688
2.62582 0.893004 -1.54364
2.19123 -1.06051 -2.32329
2.07741 -0.444534 -2.35371
1.80459 -1.24731 -2.54342
2.32107 0.87216 -1.976
2.15049 -1.29427 -2.37871
2.42813 -1.65853 -1.92009
2.63579 -0.708956 -1.78207
2.15753 0.393983 -2.1863
2.64277 -0.721432 -1.57385
1.34467 0.264153 -2.84243
1.45486 -1.16975 -2.76162
1.59068 0.225571 -2.65266
1.87584 0.367695 -2.43992
1.44479 0.324768 -2.74763
2.5063 -0.788299 -1.9161
1.46334 1.32723 -2.70116
2.67944 -0.00466323 -1.5618
2.23035 0.461734 -2.11055
2.75863 0.795122 -1.47772
2.87229 -0.900729 -1.42703
1.69616 -0.174364 -2.59261
2.54288 0.452428 -1.75899
1.83307 0.844164 -2.42437
2.37324 -1.24008 -2.15687
1.58767 1.2345 -2.62716
1.39255 -0.744898 -2.81269
2.59411 -1.32507 -1.71702
2.09841 -1.26878 -2.39194
1.53147 -1.22205 -2.73085
1.79245 -1.36642 -2.64037
2.11998 -1.6335 -2.40396
2.29133 0.625333 -2.01041
1.5542 0.000582845 -2.7498
2.69475 0.173663 -1.47751
2.06884 1.31348 -2.20522
2.3215 -1.1237 -2.16628
2.23856 -0.659195 -2.18344
2.11367 0.38383 -2.21225
2.354 0.236783 -2.00202
2.64082 1.19523 -1.6153
1.77805 -0.00194574 -2.55844
2.7968 1.27881 -1.35231
2.87718 -0.992697 -1.35404
2.65578 0.0685315 -1.60927
2.51361 -1.28313 -2.02707
1.95185 0.989845 -2.34133
1.96505 0.105451 -2.38929
1.62967 -0.986747 -2.65437
2.44541 -0.890348 -1.91852
2.49353 -1.3549 -1.93023
2.63451 -1.12794 -1.79097
2.60185 -0.222543 -1.75707
2.66496 -0.496146 -1.51909
2.25996 -1.85805 -2.25221
1.85349 0.711041 -2.41167
1.60687 -0.775833 -2.67034
2.37486 -1.85843 -2.08504
1.5337 0.612768 -2.60785
1.68844 -0.990747 -2.65652
2.28263 0.418441 -2.06854
1.86745 0.920841 -2.38106
2.59888 1.18026 -1.62753
2.53128 -1.45933 -1.90921
2.20983 -0.975479 -2.28264
1.58592 0.452605 -2.62521
2.02185 -0.849263 -2.42517
2.40292 -1.28313 -2.01994
1.69123 -0.628959 -2.65541
2.04943 0.0284613 -2.32117
2.46005 0.320772 -1.76828
1.82488 0.965741 -2.45847
2.34935 0.114013 -2.03329
2.83994 -1.12408 -1.32043
2.29552 -0.107143 -2.11638
2.11977 -0.967238 -2.3505
1.45817 1.13538 -2.69875
2.36279 1.35382 -1.93506
2.31078 0.96483 -1.97632
2.06477 0.925305 -2.2303
1.91469 0.124213 -2.42675
2.53565 -1.47849 -1.85295
2.16542 1.02694 -2.12792
1.58267 -0.0461912 -2.64963
1.71893 0.832675 -2.52851
2.03392 0.755813 -2.27006
2.41129 0.882931 -1.81493
2.37162 0.240243 -1.96905
2.66679 -0.149412 -1.6079
1.43856 -0.0361186 -2.74977
2.29161 0.141003 -2.08691
2.00691 -0.341695 -2.40489
1.71914 -0.105452 -2.62384
