ply
format ascii 1.0
comment Created by Open3D
element vertex 400
property double x
property double y
property double z
end_header
-1.47133 -0.804753 2.87685
-2.33522 1.05841 1.94104
-1.99666 -0.888785 2.48986
-2.66681 -0.695107 1.53857
-1.40405 -0.356673 2.78803
-1.71689 -0.784851 2.60166
-2.65517 -1.41745 1.72645
-1.91145 -0.371711 2.49758
-2.59217 0.798899 1.69384
-2.75535 1.21453 1.42367
-1.84823 -1.55394 2.51255
-2.36696 -0.665591 2.09691
-2.60813 0.0319908 1.62744
-2.38863 0.7022 1.90406
-2.47513 0.161468 1.85547
-1.48306 -1.55566 2.71721
-1.74398 -1.2293 2.65526
-2.87642 0.531825 1.26577
-2.35022 -1.77076 2.17522
-2.77626 -0.0276213 1.38979
-2.05474 -0.29369 2.36104
-2.15399 -0.034966 2.23271
-2.47375 0.239549 1.84473
-2.41658 -0.870388 2.06723
-2.45204 -1.76008 2.08035
-2.0392 -0.334651 2.33294
-2.84326 -0.869544 1.35244
-1.88164 0.756568 2.37719
-2.47337 -0.2411 1.86274
-1.67769 0.74021 2.55003
-1.56323 -0.993841 2.64199
-2.4519 0.0397159 1.88443
-2.61088 -1.06996 1.71443
-2.40114 0.560928 1.89233
-2.59327 -0.928574 1.78487
-2.52203 -0.813978 1.91856
-2.31166 1.09669 1.98518
-1.56789 0.762323 2.66938
-1.95731 -1.25209 2.55197
-2.72957 -1.34251 1.64897
-2.59285 -0.232054 1.71896
-1.39293 0.305665 2.81256
-2.54405 0.725306 1.66184
-2.22919 0.203588 2.13262
-2.20702 0.881545 2.08866
-2.61631 -1.57172 1.76988
-1.62186 0.430659 2.63649
-2.32199 -0.225298 2.06642
-1.56922 1.04203 2.62467
-2.3099 -0.329073 2.10675
-2.79744 1.00209 1.33578
-2.59362 -1.18518 1.81204
-2.79093 -0.0625216 1.41123
-2.64846 1.22114 1.56384
-2.63468 0.697729 1.51771
-1.82567 0.0454057 2.55509
-1.48739 -0.360939 2.79435
-1.54396 -0.934552 2.62878
-2.34653 -1.11112 2.16869
-2.61311 -1.22893 1.85582
-2.83415 0.316966 1.28709
-1.46003 0.0790882 2.77531
-2.48269 -0.819347 1.904
-1.35792 -0.885075 2.84862
-1.53396 0.219424 2.6673
-2.65358 0.563172 1.53245
-1.63837 0.630741 2.56995
-2.16783 -0.826765 2.28244
-2.43276 0.257112 1.86354
-1.61381 0.587913 2.64011
-1.94581 0.249741 2.32756
-2.72895 -1.58417 1.66994
-2.02044 -1.09942 2.40073
-2.8601 1.02775 1.29277
-2.41775 0.677689 1.86563
-1.52609 -0.386015 2.73547
-1.84617 -1.32211 2.60375
-1.6757 -1.53252 2.71035
-2.09665 0.30065 2.24584
-1.58329 0.2986 2.64679
-2.02548 0.556021 2.26235
-1.66768 0.942405 2.55822
-1.87906 0.937438 2.42433
-2.05856 -0.011746 2.28136
-2.34598 0.970766 1.92755
-2.30217 -1.35994 2.23342
-1.96777 -0.88247 2.48351
-2.08443 0.609657 2.23834
-2.13575 -1.22604 2.371
-1.64295 -0.81674 2.64529
-1.83777 1.28615 2.45467
-2.3859 0.161459 1.96018
-2.62623 -1.01786 1.71537
-2.66489 0.211304 1.60885
-1.99255 0.64709 2.29252
-2.04555 -1.20072 2.45032
-2.38884 0.561192 1.91962
-1.66725 -1.20769 2.63406
-1.4351 0.36689 2.69901
-2.16139 0.688461 2.15528
-1.73923 0.86482 2.56717
-2.19514 0.414034 2.12751
-2.70136 -0.614165 1.58336
-1.90652 -0.99875 2.49613
-2.17468 -1.79479 2.28879
-1.86091 0.414776 2.46499
-2.43533 0.681484 1.85494
-1.67613 -0.0683865 2.60342
-1.6699 0.252253 2.64389
-2.69982 -0.495337 1.56449
-2.4557 -1.57621 2.08021
-2.34082 0.681006 1.95206
-2.56404 0.554602 1.60925
-2.45481 -0.619075 1.89204
-1.68123 0.239125 2.56713
-1.60685 -0.556991 2.7108
-2.57727 0.177888 1.73149
-2.72364 0.243991 1.47365
-2.64182 -0.86498 1.54177
-1.40206 0.209031 2.75526
-2.49277 -0.989095 1.95335
-1.55253 -1.54975 2.73131
-2.63327 -0.114904 1.67895
-1.51554 1.21914 2.66783
-1.95059 1.00251 2.31619
-2.7224 -1.48025 1.51745
-2.36002 -0.475332 2.06724
-1.54873 -1.43521 2.65362
-1.90925 1.18968 2.38019
-1.33694 -1.39492 2.88201
-1.83621 1.19758 2.43768
-1.7561 0.885817 2.46693
-1.83637 -0.77105 2.60359
-2.52407 -1.32594 1.92383
-1.94809 -1.317 2.54938
-2.20482 -0.362735 2.2389
-2.40238 -1.34083 2.12806
-2.41709 0.469875 1.88277
-2.30861 -1.73475 2.22762
-2.81312 0.37412 1.32581
-2.73505 -0.278428 1.41952
-1.99955 -1.60799 2.51896
-2.60399 -1.57025 1.73794
-1.61369 0.290781 2.62427
-2.29385 0.834651 2.00472
-2.70145 0.0626138 1.44637
-2.56458 0.604093 1.65902
-3.01204 -1.20507 1.20156
-2.27451 0.71109 2.02846
-1.70887 0.254963 2.49905
-1.31984 -1.44717 2.80967
-2.03598 -1.40769 2.49196
-2.31755 -1.72768 2.21577
-1.87989 -0.244288 2.48196
-2.63951 -1.20377 1.77733
-2.54908 1.13503 1.5868
-2.72274 -0.84562 1.48064
-1.76339 -1.68056 2.60341
-2.8432 -1.11499 1.35844
-1.84548 -1.4817 2.63816
-2.21531 -1.23385 2.31595
-2.7294 -0.524339 1.51597
-2.87028 -1.09281 1.33166
-1.37308 0.52439 2.85928
-2.46298 -0.47626 1.9611
-1.58029 -0.956792 2.66257
-2.8099 -1.2593 1.45465
-1.48943 1.27797 2.70058
-1.65006 -0.556397 2.82001
-2.7303 -0.581423 1.49808
-2.03088 -1.50321 2.4523
-1.43829 -0.699917 2.82829
-2.39136 -1.16693 2.1246
-2.06206 -1.27638 2.45728
-1.69102 -0.0367644 2.61182
-1.96727 -0.593449 2.4258
-1.97744 -0.0702764 2.3795
-2.01755 0.834574 2.28763
-2.33762 -0.854786 2.14822
-2.56906 -0.0896934 1.76409
-2.17832 -0.562605 2.25052
-2.4314 -0.255135 1.93771
-2.38572 -0.544923 2.03591
-2.24796 0.437446 2.08177
-1.76336 0.196255 2.53555
-2.28186 0.545976 2.03602
-2.51958 1.34289 1.67074
-2.85129 0.720492 1.28421
-2.31567 -1.55406 2.21659
-2.68029 0.949971 1.45127
-1.61451 -0.880859 2.80964
-2.27625 -1.7777 2.25478
-2.57574 -1.5066 1.76128
-1.59938 0.285153 2.62643
-1.67984 0.792244 2.56846
-1.78303 0.500539 2.50608
-1.41269 -0.0655195 2.77453
-2.01489 -0.253461 2.4188
-2.70011 0.659564 1.49925
-2.31404 -1.69155 2.22308
-2.07565 -1.47462 2.45011
-2.07056 0.00114038 2.29141
-1.63936 0.634644 2.63475
-2.6057 -0.283897 1.71417
-1.90909 0.256533 2.37875
-1.38899 0.242819 2.73962
-1.48363 0.981151 2.72489
-2.6314 -0.602122 1.72689
-2.08315 -0.683922 2.41608
-1.6396 -0.450718 2.5687
-2.71455 -0.886855 1.60001
-1.6726 0.85585 2.55012
-2.49609 0.553749 1.78957
-2.67832 0.462827 1.46702
-2.37148 -1.319 2.08632
-1.28256 -0.448006 2.92147
-2.5989 -0.00141371 1.69655
-1.4588 1.19718 2.72048
-2.29424 0.97267 2.00339
-2.09053 -1.3579 2.43487
-1.83431 0.981173 2.45839
-2.11936 0.318361 2.24038
-2.78861 -0.816437 1.38536
-1.96521 -0.258061 2.3436
-2.5404 -0.0971305 1.81629
-2.45673 -0.820791 2.01454
-1.43744 -0.519511 2.78177
-1.34852 -0.185577 2.84252
-2.39178 0.349498 1.91271
-2.60725 -0.578648 1.77052
-1.89843 0.183228 2.43614
-1.92489 0.026174 2.40943
-2.78942 -0.714324 1.40476
-1.44203 -0.783917 2.81536
-1.79223 0.131485 2.55005
-1.13249 0.442644 3.02469
-1.33338 1.18125 2.84598
-2.02039 -1.45647 2.47013
-2.6375 -1.18522 1.7947
-2.32968 -0.659005 2.13198
-1.9237 0.032556 2.45882
-2.66218 0.427815 1.60147
-1.68986 1.14654 2.52074
-1.79561 -0.429532 2.57355
-2.31901 1.06577 1.97049
-1.97553 -0.264282 2.41715
-2.27998 -0.599444 2.18536
-2.33049 0.133777 1.98967
-1.70255 -1.43676 2.66162
-1.8058 0.438729 2.50713
-2.03684 -1.59794 2.47913
-1.39573 0.860813 2.73772
-2.20937 -0.602838 2.2367
-2.46432 -0.153229 1.9139
-1.81193 0.708078 2.42907
-2.7509 -0.691404 1.53646
-1.47659 0.4249 2.71395
-2.73455 -0.163645 1.43056
-2.83518 0.545902 1.32085
-2.14779 -1.08389 2.33399
-1.53902 -1.26668 2.70395
-2.24514 0.575277 2.05912
-1.55144 -1.41618 2.74565
-2.55525 -0.639824 1.87272
-2.70938 0.544562 1.52232
-1.61304 1.04973 2.62541
-1.79917 -0.229986 2.53482
-1.91931 0.999062 2.36281
-1.81637 0.143152 2.48472
-1.37889 0.264942 2.77865
-2.62714 -1.34745 1.70882
-2.09889 -1.02429 2.4305
-2.43954 -0.182333 1.94305
-1.6757 1.17791 2.55912
-2.85619 -0.412301 1.35049
-1.45013 1.13083 2.73072
-2.41104 -1.82149 2.10963
-1.3956 0.957006 2.75768
-2.61411 0.839906 1.61811
-2.34395 -1.06904 2.11924
-1.97525 0.218338 2.40165
-1.68587 -0.967615 2.63622
-1.77723 0.522544 2.4507
-1.99128 -0.468946 2.39963
-2.45479 0.777847 1.82294
-1.82526 -1.52618 2.58786
-1.90287 -1.21138 2.62383
-2.15214 -1.08014 2.37757
-1.90311 0.539125 2.36884
-2.59939 1.00216 1.66225
-1.68344 0.968647 2.54272
-2.40876 1.26408 1.84585
-1.52166 -0.182555 2.69952
-2.30649 -0.630252 2.15421
-2.29983 1.07152 1.98667
-1.57484 -1.0276 2.69904
-2.34756 0.654953 1.94773
-1.98534 0.964581 2.28187
-2.79146 -1.44982 1.63658
-1.61528 -1.46139 2.74674
-2.26278 0.653767 2.04659
-1.94192 -0.943696 2.57306
-2.72162 0.139756 1.52033
-1.97904 -1.67385 2.50344
-2.5752 0.464477 1.68649
-2.26721 -0.098102 2.12626
-1.58888 -1.58064 2.66327
-2.34111 -1.20109 2.18234
-2.57375 0.00764297 1.73285
-1.98413 -1.26342 2.4679
-2.87894 0.190067 1.3213
-1.22911 0.144878 2.9518
-1.82753 -0.0564079 2.53768
-2.6672 -1.6049 1.76053
-1.72369 -0.526362 2.63018
-2.02506 -0.60699 2.40671
-1.36691 0.657207 2.7635
-2.86573 -0.53584 1.3716
-2.66722 -0.204916 1.52124
-1.56707 0.875858 2.57562
-1.30318 -1.10835 2.85842
-1.87745 -1.56053 2.45815
-2.58382 0.417952 1.68698
-2.56319 -1.66218 1.91563
-2.51356 -1.07049 1.93893
-1.9172 -0.384715 2.50899
-2.49764 0.890445 1.73312
-2.46076 1.16271 1.81075
-2.73081 0.567261 1.40246
-2.2752 -0.738316 2.19238
-1.8291 -0.361588 2.54418
-1.63839 1.12218 2.59222
-2.82256 -0.477116 1.43171
-1.71256 0.922204 2.52293
-2.59591 -0.706641 1.66221
-1.73833 1.10156 2.53569
-2.14027 -0.0906882 2.26642
-2.17704 0.709657 2.13666
-2.02883 0.723442 2.29645
-2.85067 1.12967 1.29709
-2.67809 -0.816641 1.68843
-2.83555 -1.4073 1.52084
-1.96375 -1.28623 2.41766
-1.68769 -0.622469 2.57132
-1.85907 -0.793005 2.52341
-2.62552 -0.884256 1.78281
-2.66432 -0.407022 1.68057
-2.01368 0.0792297 2.33291
-2.39008 0.091482 1.96054
-1.72658 -0.0831365 2.6327
-1.97909 0.0249498 2.40095
-2.6518 0.978182 1.53821
-1.89541 -0.130277 2.44182
-1.93046 -1.49062 2.568
-1.63453 -0.139299 2.63939
-2.08567 -1.45888 2.41376
-2.66253 -0.976066 1.57381
-1.35802 -0.742544 2.84795
-2.71727 0.170847 1.52317
-2.24259 -1.21152 2.28019
-2.57544 -1.32083 1.89262
-2.40981 -0.883794 1.97273
-1.94426 -0.455495 2.48837
-2.66583 -0.0777431 1.534
-2.58347 -0.755581 1.64966
-2.12172 -0.776715 2.36889
-2.88227 -0.360061 1.32106
-1.54737 -0.950961 2.70133
-2.58452 -0.0997679 1.66132
-1.95159 0.404295 2.40423
-2.45996 -1.81817 2.05548
-1.54422 -1.09162 2.74418
-1.87167 0.549197 2.45155
-1.43568 -0.135468 2.73776
-1.35704 -1.45518 2.79833
-2.51336 1.03939 1.7636
-2.01276 0.340536 2.34855
-1.46846 0.252721 2.74558
-2.63867 -0.564822 1.74746
-1.70142 -0.879694 2.6381
-2.59191 0.259465 1.71854
-1.82525 -1.18753 2.55401
-1.91839 -1.37045 2.60008
-2.17002 1.15806 2.11671
-2.04953 -0.471591 2.35966
-2.85577 0.0351421 1.35022
-2.19304 0.751517 2.11312
-1.71624 -1.31613 2.67384
-2.53226 0.387542 1.71588
-1.97891 -1.01164 2.49657
-1.57146 -0.488507 2.67167
-2.56343 0.819374 1.65085
-2.60082 -0.488282 1.73407
-2.22491 0.921435 2.07441
-1.99962 -1.78818 2.44506
-2.64414 -0.694493 1.74414
-1.71913 -0.563011 2.70408
-2.11221 0.423559 2.19753
-2.5613 0.669572 1.64069
-2.52665 -0.440939 1.75588
