ply
format ascii 1.0
comment Created by Open3D
element vertex 200
property double x
property double y
property double z
end_header
-1.52394 2.33694 1.33053
-2.41633 0.183628 -2.0242
-1.74186 1.91509 -2.34417
-3.02158 -0.307667 0.875024
-2.98793 -1.07813 -0.33243
-2.85415 -0.390126 -1.12345
-2.83304 0.249253 1.33172
-2.77803 -0.2172 2.03754
-2.97871 1.19199 0.310761
-3.02237 1.219 -1.39208
-2.56775 2.52484 -1.66588
-1.45787 2.36148 1.35821
-3.07569 -0.784363 0.495886
-2.99266 -0.594369 1.38648
-2.55476 2.03929 -1.95961
-2.50224 2.81704 -1.12477
-3.05655 -1.10189 0.109565
-3.09534 0.0211866 -0.0932075
-3.08847 0.485341 0.141004
-3.03333 -0.765939 1.30104
-2.84851 -1.47926 -0.747193
-2.06746 2.82823 -0.123331
-1.94176 2.01283 1.32803
-3.1159 0.419424 -0.500792
-2.19954 2.27426 -2.05149
-2.99044 0.335439 0.699967
-2.41967 -0.641184 -1.81934
-2.71509 2.46138 -0.340373
-2.71715 1.6727 0.560014
-2.47685 2.4661 0.0547105
-2.63954 1.81958 -1.94572
-2.56014 -0.69374 -1.5967
-3.11046 0.416094 -0.0576246
-2.55236 0.961585 1.47072
-2.93925 0.536735 0.791242
-2.37889 0.879298 -2.16908
-2.73166 2.16159 -1.75986
-2.45027 2.73597 -0.421304
-2.27312 1.64533 -2.22087
-1.68656 1.35151 -2.51481
-3.06157 -0.626618 0.00730176
-2.50902 2.12552 0.452545
-2.56518 1.76453 0.739949
-2.17337 2.78572 -0.143819
-2.9486 -0.680548 -0.680524
-2.88972 -0.439438 1.82155
-2.54874 1.80792 -2.02063
-2.87423 0.0107124 1.37652
-1.39462 2.40444 1.34884
-2.07078 1.97087 -2.22931
-1.84842 2.63829 0.498778
-2.66679 2.33428 -0.0538422
-3.08637 0.687714 -0.96371
-2.36922 0.336299 -2.10217
-2.5733 -1.16099 -1.44577
-1.37484 1.5768 -2.53847
-3.06697 0.231664 -0.735489
-3.03169 2.17055 -1.00192
-2.57936 -0.00169681 -1.78009
-2.54615 0.225362 -1.88617
-2.9908 1.71958 -1.49999
-1.65942 2.58884 0.768141
-2.49375 1.23225 1.3447
-3.05683 2.03778 -1.15025
-2.8056 0.916898 0.941115
-2.93354 0.407351 0.88304
-2.95613 -0.398362 1.38031
-2.39137 0.755991 -2.14586
-3.04032 1.67436 -1.38757
-2.87729 0.0913945 1.29845
-2.38922 0.422641 -2.09837
-2.94154 2.00792 -1.52743
-2.26942 1.21376 -2.25958
-2.651 0.182707 -1.73556
-3.08275 -0.142171 -0.175015
-3.10695 1.63661 -1.15821
-3.06831 -0.0191456 0.369545
-2.96603 -0.677999 1.74785
-2.47942 -0.350893 -1.81533
-2.67924 2.35642 -0.106873
-2.89145 -0.0870973 1.39172
-1.9309 1.54978 -2.39136
-3.10199 1.88765 -1.00719
-2.63356 2.62682 -0.507225
-2.76661 2.28427 -1.65264
-2.70457 2.28611 -1.72279
-3.00769 1.96417 -1.39698
-3.07334 -0.822872 0.779223
-2.67845 -0.568919 -1.43186
-2.81911 2.47473 -0.629745
-3.03913 -0.857877 -0.101209
-2.14037 2.14821 0.91431
-2.95455 -0.758217 2.07273
-3.01802 1.20474 -1.39938
-2.32881 2.72906 -0.216288
-3.07156 -0.376329 0.373472
-2.99412 0.0360926 -0.929341
-2.79173 -1.01003 -1.02623
-1.67329 1.44678 -2.49968
-2.99188 -0.964175 -0.353393
-1.84693 2.63994 0.497155
-3.06312 -0.224279 -0.346007
-2.47123 0.97493 1.62408
-2.87494 0.963334 -1.62218
-2.93381 1.12581 -1.55806
-1.82511 2.64245 0.513585
-3.06576 1.38095 -1.30646
-2.76528 -0.590481 -1.24753
-3.00449 2.21115 -1.15996
-3.02909 0.338234 0.521958
-3.08395 -0.946283 0.733394
-3.07978 1.48714 -0.214309
-2.88448 -0.0556919 1.39291
-2.92989 1.5639 0.196004
-3.06486 1.03385 -1.21696
-2.84577 -0.572244 -1.06103
-2.23688 1.43823 -2.26645
-3.07531 -0.808419 0.404176
-3.0957 1.93784 -0.899991
-2.73129 1.49215 -1.88315
-2.83158 1.46597 0.497106
-2.14465 2.53896 0.360495
-2.30001 2.04081 -2.11023
-2.43569 2.65743 -1.62151
-2.41637 -0.425018 -1.87832
-2.82974 0.56252 1.11595
-3.06071 -0.346696 -0.250114
-2.12787 0.942005 -2.34836
-2.53897 0.958234 1.50135
-2.6141 1.05687 -1.97555
-2.18205 0.95341 -2.31466
-1.73928 2.47546 0.886698
-2.37607 2.64935 -0.116427
-3.0687 0.300569 0.308311
-2.93901 -0.470446 1.57585
-3.09652 0.315205 -0.60068
-2.82451 2.07592 -0.0331636
-2.99271 1.51482 0.0632651
-2.31309 2.89788 -0.750984
-3.15368 1.22597 -0.571279
-3.07473 -0.420617 0.104522
-2.90019 2.24804 -0.434003
-2.67607 2.11757 0.198504
-3.15431 1.31036 -0.781412
-3.08692 1.43294 -1.24439
-2.71385 -0.151423 -1.52132
-1.98577 2.19182 1.04148
-2.34642 1.34653 1.49521
-2.82531 -0.461427 2.25732
-2.94442 1.40534 -1.58548
-3.04054 1.76846 -0.291317
-2.40592 0.0543094 -2.00695
-2.46468 2.80757 -0.684006
-2.7329 2.4413 -1.56669
-2.34484 1.27401 -2.20929
-2.35978 0.831349 -2.18005
-2.37031 2.23424 -1.99542
-2.83605 1.44713 -1.75582
-2.95533 0.627141 0.688351
-2.93244 0.210561 -1.21672
-2.48637 1.75995 0.869466
-2.75727 2.5947 -0.772781
-3.01804 -0.407602 -0.521261
-2.69035 0.595412 -1.79923
-2.90548 -0.263422 -1.04641
-2.909 2.23276 -1.45875
-2.69775 0.886032 1.21807
-2.44944 2.82323 -1.25114
-3.13432 1.57825 -0.99531
-1.98053 2.55098 0.518402
-3.09102 0.0159642 0.0733502
-2.562 2.70871 -0.567205
-2.80633 1.49198 -1.79602
-3.06581 -0.494409 -0.0369717
-3.05631 -0.646933 -0.0478644
-2.69141 2.58442 -0.538834
-2.56454 1.91059 -1.9878
-1.62989 1.59916 -2.47429
-2.59721 -1.94053 -1.30215
-3.13473 1.63911 -0.951633
-2.36721 2.77445 -1.48798
-2.83056 -1.49785 -0.795436
-2.90606 2.24949 -1.45056
-2.83961 -1.13033 -0.857469
-2.34487 2.31329 0.44796
-2.6095 0.480226 1.78054
-2.98115 0.942058 -1.41041
-2.72615 1.81212 0.419474
-2.23562 1.15945 -2.2817
-2.53273 -0.0119784 -1.83927
-2.49142 0.965546 -2.08207
-2.50741 0.918674 -2.06233
-2.67288 1.7855 -1.92138
-2.88459 -0.386974 -1.04303
-3.05161 0.203653 0.443022
-2.98334 1.9121 -0.247381
-2.36751 0.246321 -2.08708
-2.38449 1.59495 1.18905
-2.39432 2.81282 -0.546449
-2.7432 1.93176 -1.82494
