ply
format ascii 1.0
comment Created by Open3D
element vertex 250
property double x
property double y
property double z
end_header
3.00473 0.308215 2.47777
1.28284 0.932818 3.7203
0.499622 2.5592 1.35391
1.50233 1.87054 1.81221
2.62756 0.299966 2.74932
2.13633 1.63696 1.00751
2.73689 2.53347 -0.384004
1.98677 2.43263 1.24958
2.71142 -0.052183 1.9899
2.27913 1.72395 2.37632
1.5644 1.48876 3.22813
1.75163 1.86792 1.25446
2.35547 1.27589 2.96916
2.59085 1.46173 1.25434
1.93986 0.428088 2.3369
2.54886 0.800293 3.35983
2.12976 1.33486 0.529926
1.62854 2.67189 -0.0101656
2.12593 1.49939 0.116638
0.815 2.57938 1.80135
1.32741 1.04192 3.21786
2.36227 3.21289 0.922531
2.76337 1.79568 2.09119
1.97171 2.347 0.581107
1.03883 2.39748 1.56729
2.63488 0.823492 2.36962
2.83404 1.8259 1.20365
2.07116 0.952223 3.84778
1.08673 2.42392 1.21931
2.1178 1.85435 2.5428
2.99958 0.185669 2.40073
1.71721 0.963104 3.93955
2.57649 0.0776568 2.80525
0.807209 1.19583 3.23135
1.14821 0.838723 3.61814
2.41791 2.31831 -0.609568
0.472183 2.38057 1.19808
0.942411 0.997291 3.42598
1.95263 0.284522 1.31799
1.33694 2.62918 1.37013
1.29216 2.57267 1.42959
2.31815 2.09609 1.10363
1.85311 1.3091 3.31801
2.45148 0.883794 3.38699
0.495933 2.01042 1.64837
2.14051 1.16368 3.74311
0.46403 2.88242 0.587195
2.15775 1.01617 3.62782
2.05975 1.87115 -0.096455
2.35931 0.697699 2.41151
1.2963 1.63233 3.45983
0.930673 2.0293 1.48651
0.722737 2.9488 0.433982
1.93133 -0.106621 2.81169
2.06477 2.31877 1.98757
0.933229 3.2562 0.347085
1.55998 2.25463 1.50788
2.51696 -0.157345 1.86363
1.78932 2.20885 2.88395
1.99312 1.67798 0.967565
2.47369 2.35081 1.53936
1.79479 2.44559 0.403083
1.25607 2.60598 1.88176
2.64735 0.565546 2.91747
2.02268 0.326373 3.35525
0.938477 1.09011 3.2207
1.72281 1.53194 2.46411
2.00779 2.91521 0.10157
2.92811 0.567503 2.40077
2.28512 1.5374 1.4704
2.22475 1.90257 2.95911
1.00819 2.8384 1.58493
2.1864 -0.377667 1.82127
1.31069 2.29557 0.847885
0.876326 2.26762 0.766847
2.18287 2.10008 -0.739893
0.967505 3.2909 0.61783
2.62809 1.56141 3.43275
2.12225 1.35645 2.79491
2.25295 2.00002 1.59302
2.6216 1.48323 1.13509
1.12518 1.5971 3.08092
2.32963 0.571551 2.63371
2.57921 2.14824 0.739743
2.01797 2.15525 1.40256
2.40023 0.726197 3.59128
2.25696 2.49342 0.256141
2.75908 0.184838 2.20198
2.15785 3.4654 2.05996
1.84427 1.30492 2.11652
0.276465 2.36586 1.06871
1.95973 3.00124 0.507027
2.38658 0.647495 2.34723
2.74365 1.93382 3.25942
1.40227 1.2285 2.88882
1.16068 2.60823 1.05004
2.65341 0.432319 1.72264
2.6108 0.171278 2.63154
1.29914 2.0394 2.98615
2.45452 0.93806 0.96207
1.93824 1.09217 2.78982
2.52809 0.609096 2.98159
2.75645 1.12125 3.06442
2.64201 0.251475 1.79476
1.79406 1.3768 3.47097
2.70866 1.51276 1.55282
2.34121 1.51557 1.11166
0.993743 3.36339 0.418527
1.92028 2.78448 0.0758316
1.62681 2.05953 0.83711
0.830128 2.29363 1.53115
1.2378 2.01689 2.8354
1.42784 2.24144 0.925339
2.40548 -0.187442 1.48555
1.68675 3.55556 0.680763
1.96419 1.66652 2.63585
1.59395 2.96056 0.455165
2.22619 -0.203812 2.29592
2.37522 0.904229 3.06024
1.79141 1.27519 3.45516
2.51691 2.34924 -0.433264
1.66499 1.74628 3.52793
2.28867 2.28941 1.70718
2.02659 1.1864 3.33285
2.46915 2.5711 -0.0620492
1.45625 3.03539 0.111871
1.26202 2.81971 2.39233
0.878841 2.05189 1.79639
2.11736 1.71866 1.08171
0.962491 2.97132 0.766352
1.74408 2.60891 0.998012
1.50796 2.72758 -0.19734
2.39098 1.78184 3.52006
0.51359 3.19399 0.588499
0.941002 2.54587 1.88889
1.59504 2.63901 1.18137
1.32858 3.09865 0.436891
2.17646 2.79882 1.63329
1.40774 1.28318 3.60077
2.14575 2.38095 -0.313686
1.14158 1.0438 3.53027
2.11869 0.442046 3.46857
0.472812 2.76177 0.783362
2.40428 1.20189 2.92683
2.31998 0.728125 2.50906
1.05326 1.0295 3.52534
2.30112 0.75996 1.3497
2.6119 2.69892 0.785129
1.47055 1.56736 3.59786
2.57182 0.780377 2.14464
0.885911 3.13404 0.6884
2.74455 0.827489 2.13976
0.691432 2.59688 0.398963
2.43398 0.857704 3.69066
2.96424 0.37317 2.3756
1.58489 0.140257 2.62821
1.31619 2.30747 -0.193188
3.1056 1.64178 1.40206
2.85685 1.48442 1.95525
0.882791 2.60406 0.11995
0.71951 1.27092 2.71343
1.39381 2.26856 2.35736
0.707474 0.684373 3.13989
2.27768 1.01056 2.91091
1.13187 2.45933 1.32985
2.43123 2.8329 0.127834
2.45923 2.52578 -0.146689
2.17098 1.76914 3.58378
2.91255 0.703136 2.32304
1.22067 2.82957 1.50551
1.36369 1.16104 2.99309
1.89162 1.91272 -0.206669
1.51321 2.34767 1.47192
1.04778 1.06095 3.44985
1.19469 0.641416 3.63609
1.99241 1.19901 3.42702
1.60525 0.770668 3.30878
2.18236 1.35595 2.49479
0.813858 3.08665 1.15838
2.03347 1.20104 1.49445
1.0218 3.05878 1.01397
2.68194 1.33664 0.695583
2.57714 0.331021 2.12869
1.78224 2.00477 2.7063
1.42148 1.3887 2.45733
1.13518 1.12706 3.70213
1.61531 2.5785 1.55978
1.79604 1.67563 0.840539
1.87602 0.916647 2.8495
1.90122 1.18211 1.80396
1.50224 1.14779 2.88662
1.13759 1.35214 3.45298
2.0208 1.45784 1.82699
1.65607 0.158306 2.98447
1.17031 2.17764 0.445276
0.638769 0.683923 3.22675
0.59005 3.3365 0.687338
1.60171 0.752163 3.31603
1.86876 1.71241 1.79296
1.44893 1.89331 1.97064
-0.0622953 3.45143 0.646044
-0.169946 3.64367 0.697417
-0.300136 3.23564 0.83424
-1.40747 3.11414 0.194134
0.978677 3.60665 1.62186
-0.0581213 3.11609 0.317965
-0.539097 2.84043 1.0949
-0.534583 2.65614 0.00782811
-0.720283 3.38671 0.904653
0.0912668 3.14968 1.05615
-0.382835 2.57174 1.16944
0.180722 3.6421 1.14054
-0.697833 3.44435 1.1498
-0.967598 3.34551 0.759436
-1.29856 2.8213 0.66676
-0.770031 3.31377 0.493152
-0.210921 3.06761 1.12271
-0.106509 3.51356 0.818164
-0.072505 2.83627 1.17667
0.754187 2.96213 1.72649
-0.963984 3.08612 0.367316
0.463696 2.71358 1.49665
-0.326368 2.69037 1.0905
-0.669318 3.48187 0.541847
-1.10996 2.81924 1.04672
-0.69846 3.42765 0.836066
0.138986 3.25235 1.63919
0.394806 2.97548 1.1394
-1.25201 2.62251 0.822458
-0.693805 3.58481 0.611382
-0.76617 3.20866 1.04607
1.0304 3.24315 1.90783
-0.463529 3.67033 1.10712
-0.303737 3.63674 0.882233
0.22097 2.74506 1.02498
-0.559286 2.97157 0.938154
-0.139707 3.19443 0.275404
-1.4778 2.52468 0.145481
0.518375 3.3098 0.931378
0.192219 2.98803 1.22679
-0.443268 3.19421 1.30149
0.158623 3.52246 0.952299
-0.59 3.13975 1.1479
-0.822814 3.48606 1.03578
0.0493411 3.09098 0.440372
-0.249141 3.09489 0.766512
-0.509988 3.23275 0.125099
-1.31604 3.07838 0.520077
-0.351071 3.09202 0.812968
0.494397 3.20093 1.32094
