ply
format ascii 1.0
comment Created by Open3D
element vertex 400
property double x
property double y
property double z
end_header
-1.23713 -2.31918 -1.34469
-2.79171 -0.702264 -1.20755
-1.49844 -2.17498 -1.81809
-1.44451 -1.12381 -2.44732
-1.78697 -2.30249 -0.985121
-1.71571 -2.45954 -1.44425
-1.22577 -1.82624 -2.71131
-1.85526 -1.96182 -1.47693
-3.15729 -1.06158 -1.43343
-3.03249 -0.278364 -1.51143
-1.31592 -2.8568 -1.91795
-1.794 -1.80473 -2.03646
-2.03284 -0.896645 -2.00335
-2.69078 -0.966402 -1.39485
-2.40063 -1.24699 -1.72471
-1.01845 -2.89603 -1.64041
-1.2677 -2.57059 -1.73274
-2.69803 -0.613688 -1.93042
-1.01787 -2.40425 -2.57074
-2.11438 -0.838206 -2.16506
-1.97972 -1.8432 -1.56091
-2.1957 -1.63156 -1.52113
-2.41144 -1.1653 -1.69729
-1.73999 -1.94555 -2.16188
-1.19808 -2.45168 -2.61665
-2.17165 -2.05523 -1.50116
-1.60684 -1.28159 -2.62731
-2.83331 -1.52365 -0.830187
-1.80735 -1.18114 -2.01462
-2.67443 -1.59344 -0.677568
-1.61103 -2.70862 -1.38246
-2.15142 -1.19014 -1.81013
-1.2801 -1.50529 -2.54933
-2.50684 -0.951008 -1.50261
-1.47738 -1.55959 -2.43253
-1.68911 -1.71424 -2.26571
-3.08529 -0.949392 -1.08678
-2.47338 -1.50574 -0.620177
-1.18701 -2.35749 -1.97637
-1.39443 -1.81471 -2.71437
-1.9811 -1.19412 -2.08057
-2.09679 -1.84871 -0.689263
-2.47247 -0.557293 -1.60745
-2.14425 -1.23335 -1.54152
-2.55442 -0.828331 -1.20065
-1.08191 -1.91356 -2.75977
-2.31275 -1.69127 -0.818332
-1.74211 -1.27914 -1.87772
-2.87027 -1.52154 -0.423333
-1.75477 -1.43041 -1.89232
-2.84546 -0.291182 -1.67052
-1.33677 -1.73482 -2.54922
-2.20336 -0.955824 -2.16389
-3.00699 -0.369225 -1.41007
-2.42934 -0.43753 -1.71878
-1.94143 -1.64389 -1.24373
-1.6873 -2.17349 -1.0989
-1.69134 -2.71853 -1.3223
-1.43122 -2.02725 -2.25277
-1.54215 -1.97107 -2.52137
-2.39948 -0.625876 -2.03852
-1.99488 -1.95848 -0.852582
-1.38924 -1.47378 -2.31578
-1.33449 -2.54953 -1.22629
-2.27931 -1.963 -0.802098
-2.46249 -0.61257 -1.76739
-2.63562 -1.71337 -0.681677
-1.8922 -2.26523 -1.85577
-2.16191 -0.95815 -1.72424
-2.38629 -1.58577 -0.742686
-2.63172 -1.85667 -1.10185
-1.2762 -1.99086 -2.81915
-1.71263 -2.54852 -1.84083
-3.01409 -0.35606 -1.67627
-2.61594 -0.895157 -1.45306
-1.78657 -2.24177 -1.11588
-1.21323 -2.5456 -1.87806
-0.936006 -2.68196 -1.85041
-2.42206 -1.49316 -1.29919
-2.29967 -1.85472 -0.82227
-2.7673 -1.55869 -1.0521
-2.79398 -1.48103 -0.573314
-2.53547 -1.08016 -0.861873
-2.39749 -1.85889 -1.35979
-2.70693 -0.714157 -1.26881
-1.25368 -2.20304 -2.33329
-1.62023 -2.2892 -1.75169
-2.51335 -1.23092 -1.16973
-1.47252 -2.39966 -2.06356
-1.66003 -2.50776 -1.39595
-2.74248 -0.907786 -0.65781
-2.3368 -1.28655 -1.65418
-1.37768 -1.52401 -2.52084
-2.50589 -1.07029 -1.86904
-2.77231 -1.49276 -0.991029
-1.413 -2.40468 -1.98337
-2.7388 -1.17304 -1.42229
-1.41407 -2.71114 -1.6068
-2.41413 -1.98715 -0.620556
-2.49713 -1.04883 -1.22835
-2.35063 -1.14025 -0.797447
-2.65835 -1.46694 -1.29526
-1.72872 -1.28109 -2.37492
-1.65178 -2.48842 -1.71525
-1.38034 -2.89956 -2.29607
-2.30533 -1.49149 -1.06421
-2.74329 -0.988073 -1.43224
-2.10815 -2.02559 -1.0787
-2.09559 -1.67543 -0.982236
-1.78456 -1.19 -2.32222
-1.34351 -2.37108 -2.52386
-2.53476 -0.900961 -1.39895
-2.24647 -0.516629 -1.74363
-1.40936 -1.27827 -2.22335
-2.35204 -1.87705 -0.922298
-1.67026 -2.27376 -1.28079
-2.49246 -1.19808 -1.79515
-2.3455 -0.802287 -1.96519
-1.24931 -1.15874 -2.52925
-2.19931 -2.01806 -0.696674
-1.44577 -1.72834 -2.35901
-0.961607 -2.80461 -1.72479
-2.21971 -1.23217 -2.01679
-2.9968 -1.48345 -0.28072
-3.04652 -1.36955 -0.764661
-1.07881 -1.64157 -2.83998
-1.71384 -1.51273 -1.99727
-1.25089 -2.9004 -1.60272
-2.8508 -1.03842 -0.725825
-0.84373 -2.71613 -1.49838
-2.93011 -1.16585 -0.627234
-2.92138 -1.56681 -0.640996
-1.525 -2.2073 -1.61555
-1.22249 -1.87929 -2.55437
-1.19368 -2.44046 -1.98421
-1.80703 -1.63037 -1.7818
-1.52055 -2.31377 -2.34974
-2.46752 -1.00525 -1.55675
-1.20927 -2.57813 -2.46252
-2.45354 -0.637643 -1.98492
-1.80277 -0.882092 -2.28858
-0.900771 -2.46664 -2.20669
-0.990323 -1.82543 -2.77384
-2.3137 -1.84867 -0.850857
-2.79458 -1.00631 -1.23087
-2.01052 -0.713026 -2.09425
-2.47503 -0.682276 -1.66272
-1.68351 -1.56383 -2.87191
-2.55889 -0.958919 -1.31676
-2.54195 -1.98177 -0.889673
-0.956756 -2.85408 -1.46348
-1.0936 -2.37895 -2.12797
-1.05629 -2.42564 -2.5142
-2.03724 -1.99085 -1.35475
-1.43393 -1.79978 -2.5721
-2.53856 -0.121914 -1.47311
-1.42829 -1.22157 -2.55208
-1.0233 -2.82901 -1.9559
-1.44332 -1.41564 -2.74704
-0.948428 -2.50652 -2.00168
-1.3702 -2.2491 -2.17538
-1.77092 -1.17312 -2.36428
-1.50408 -1.41722 -2.74982
-2.08909 -1.62765 -0.60761
-2.10966 -1.75729 -1.98457
-1.57916 -2.63761 -1.39801
-1.3839 -1.58461 -2.77341
-2.96649 -1.41971 -0.246256
-1.22662 -1.90321 -1.45376
-1.68845 -1.15672 -2.40606
-1.27108 -2.62856 -2.09887
-1.45525 -2.39251 -1.21706
-1.46606 -2.07592 -2.30375
-1.27314 -2.35983 -2.06301
-2.06571 -1.94759 -1.09676
-1.93281 -2.21617 -1.57498
-2.21343 -1.85096 -1.34973
-2.64912 -1.15761 -0.9972
-1.50901 -1.8049 -2.14601
-2.22475 -1.28121 -1.94371
-2.0349 -2.07505 -1.74709
-1.8517 -1.29149 -1.96377
-1.62667 -1.48613 -2.06889
-2.55312 -1.29833 -1.37204
-2.26037 -1.78338 -1.04383
-2.51223 -1.1019 -1.38613
-2.78934 -0.161233 -1.30928
-2.76807 -0.486037 -1.82951
-1.08834 -2.26055 -2.45208
-2.62341 -0.270976 -1.63367
-1.19936 -2.25961 -1.52122
-1.16824 -2.62044 -2.45476
-0.972834 -1.7649 -2.73208
-2.33149 -1.87989 -0.832981
-2.60439 -1.47993 -0.684987
-2.42592 -1.56392 -0.925893
-1.97971 -2.1347 -0.852041
-1.82106 -1.70594 -1.55575
-2.67885 -0.65359 -1.72231
-1.10528 -2.43325 -2.48576
-1.13118 -2.44645 -2.17624
-2.29431 -1.75091 -1.39824
-2.35116 -1.48532 -0.764834
-1.98029 -1.24203 -2.10884
-2.5201 -1.7937 -1.09583
-2.27974 -2.05202 -0.650151
-2.60056 -1.44447 -0.434568
-1.8162 -1.44489 -2.2758
-1.43596 -1.80914 -1.86288
-2.06394 -2.42248 -1.16709
-1.58445 -1.45927 -2.51023
-2.76109 -1.54293 -0.613228
-2.6538 -0.989999 -1.55662
-2.29869 -0.539575 -1.86949
-0.999791 -1.83251 -2.46498
-1.50765 -2.2859 -0.972199
-2.20333 -1.11794 -1.95398
-2.8809 -1.46128 -0.264362
-3.04768 -1.07315 -1.11671
-1.23311 -2.3901 -2.12708
-2.60714 -1.13441 -0.78332
-2.18798 -1.25205 -1.38527
-1.51755 -1.18924 -2.58326
-2.33897 -2.16413 -1.35572
-2.36134 -1.44797 -1.87723
-1.79231 -1.89057 -2.17218
-1.67798 -2.36715 -1.09814
-1.80149 -2.17849 -0.875225
-2.24895 -0.975408 -1.63071
-1.87127 -1.49917 -2.22865
-2.26936 -1.68559 -1.18008
-2.27162 -1.83712 -1.25189
-1.62652 -1.17804 -2.52224
-1.42967 -2.45668 -1.25289
-2.09791 -1.70235 -1.13926
-1.90943 -1.7709 -0.443587
-2.62764 -1.38205 -0.217786
-1.2537 -2.57442 -2.07978
-1.49192 -1.8383 -2.54767
-1.60378 -1.66657 -2.05296
-2.03068 -1.63941 -1.31939
-2.69938 -0.996051 -1.74625
-3.10941 -1.50076 -0.443324
-1.84236 -2.11464 -1.38181
-2.93018 -0.837374 -1.14863
-2.01858 -1.914 -1.46171
-1.79263 -1.81694 -1.9305
-1.88604 -0.966191 -1.7389
-1.13731 -2.71554 -1.79025
-2.31708 -1.52469 -0.998642
-1.02093 -2.52261 -2.20584
-2.6855 -1.71085 -0.357037
-1.2756 -1.42907 -2.01232
-2.35931 -1.59409 -1.81818
-2.80026 -1.6113 -0.784363
-1.75965 -1.34643 -2.43802
-2.3351 -1.83454 -0.668209
-1.91802 -0.859523 -2.2207
-2.67871 -0.627895 -1.89072
-1.66165 -2.38407 -1.97857
-1.28212 -2.7654 -1.5345
-2.89077 -1.43273 -1.22996
-1.05077 -2.73975 -1.65847
-1.98149 -1.73742 -2.16228
-2.73779 -0.838461 -1.748
-2.70335 -1.34088 -0.513788
-2.03694 -2.04373 -1.26993
-2.84136 -1.23078 -0.794472
-2.30464 -1.82973 -1.09943
-2.19436 -1.97427 -0.658582
-1.1417 -1.68299 -2.6874
-1.23224 -2.00854 -2.03799
-2.14291 -1.46318 -1.8653
-2.94228 -1.34292 -0.468924
-2.02114 -1.12453 -2.38497
-2.79332 -1.46805 -0.300771
-1.0494 -2.42605 -2.63718
-2.67885 -1.60549 -0.330685
-2.81698 -0.672348 -1.54304
-1.14993 -1.71393 -2.32026
-2.06931 -1.41116 -1.30521
-1.55202 -2.55313 -1.5147
-2.7083 -1.76782 -0.830943
-2.0064 -2.11631 -1.54097
-2.7675 -0.876634 -1.41638
-1.14166 -2.7172 -1.93788
-1.0124 -2.22007 -1.96115
-1.19728 -1.98734 -2.11783
-2.68992 -1.62543 -0.957346
-3.07895 -0.747508 -1.40406
-2.83829 -1.47488 -0.568412
-2.88147 -0.468007 -1.19456
-1.99417 -2.18375 -0.991046
-1.90733 -1.92384 -1.93244
-2.85586 -0.783558 -1.14953
-1.44929 -2.62118 -1.45133
-2.53975 -0.928818 -1.41186
-3.0747 -1.40226 -0.802266
-1.54172 -2.02308 -2.76454
-0.957772 -2.6718 -1.76278
-2.52473 -1.00757 -1.33182
-1.25173 -2.0863 -1.8517
-2.39657 -0.984565 -1.97874
-1.02931 -2.65902 -2.16783
-2.54243 -0.903202 -1.6945
-2.18524 -1.58276 -1.6559
-1.08139 -2.89501 -1.7351
-1.54597 -2.23778 -2.2401
-2.21461 -1.14746 -1.92287
-1.46742 -2.56605 -1.92438
-2.60496 -0.936658 -2.06029
-1.82773 -1.94621 -0.651346
-2.00275 -1.80362 -1.25746
-1.22661 -2.04422 -2.778
-1.75252 -2.20986 -1.36456
-1.84725 -2.11441 -1.66179
-2.50083 -1.80444 -0.441948
-1.99988 -1.24753 -2.43693
-1.80797 -0.886108 -2.19769
-2.97219 -1.77837 -0.440004
-1.16213 -2.68457 -1.28743
-1.43079 -2.92547 -1.91544
-2.56218 -0.967878 -1.71096
-1.16351 -2.17818 -2.70925
-1.43158 -1.78899 -2.4078
-1.78189 -1.91329 -1.50798
-2.63993 -0.575974 -1.46362
-3.02299 -0.661023 -1.2348
-2.44325 -0.491992 -1.84906
-1.89411 -2.06754 -1.93667
-1.8954 -2.05328 -1.37986
-2.85068 -1.3605 -0.474761
-2.01309 -1.24348 -2.37268
-2.80146 -1.46934 -0.621927
-1.40219 -1.1923 -2.39219
-2.69163 -1.16191 -0.627328
-2.02411 -1.56528 -1.57398
-2.52661 -1.03408 -1.22916
-2.30288 -0.97505 -1.14244
-3.03129 -0.264195 -1.63195
-1.71339 -1.55182 -2.41544
-1.48425 -1.85115 -2.81301
-1.64464 -2.73848 -1.85878
-1.91445 -2.45662 -1.30928
-1.74191 -2.37601 -1.58114
-1.68022 -1.66838 -2.39239
-2.06866 -1.40948 -2.17764
-2.32415 -1.74008 -1.30975
-2.57246 -1.56979 -1.60983
-1.89586 -1.83817 -1.19565
-2.09788 -1.65058 -1.35732
-2.79112 -0.439405 -1.54779
-2.18324 -1.96558 -1.29411
-1.02758 -2.50725 -2.06608
-2.03457 -2.07972 -1.07942
-1.319 -2.57291 -2.12664
-1.28498 -1.31578 -2.57206
-1.43578 -2.47837 -1.15498
-2.4145 -0.969171 -1.96004
-1.13344 -1.98525 -2.26546
-1.38206 -1.97075 -2.55751
-1.18853 -1.44085 -2.32056
-1.77318 -1.96061 -1.55832
-1.94339 -0.868593 -2.11939
-1.30053 -1.15995 -2.42386
-1.60977 -2.02376 -1.87773
-2.10902 -1.1157 -2.37001
-1.5145 -2.60959 -1.38232
-1.88619 -0.943396 -2.06129
-2.16798 -1.30426 -1.19819
-1.08275 -2.40053 -2.67536
-1.31749 -2.6138 -1.47807
-2.34414 -1.36299 -1.02423
-2.01191 -2.21274 -0.886083
-0.96707 -2.84563 -1.50001
-3.08444 -0.802963 -1.30552
-2.171 -1.31952 -1.27715
-2.15772 -1.88961 -0.762458
-2.00845 -1.57626 -2.21584
-1.58275 -2.47322 -1.4955
-2.70989 -1.28372 -1.72221
-1.48763 -2.62745 -1.73736
-0.986614 -2.35685 -2.03081
-2.69091 -0.671495 -1.04268
-1.99894 -2.06205 -1.60218
-2.43301 -0.984845 -2.13286
-2.44991 -0.900631 -1.25536
-1.18401 -2.61836 -1.75494
-2.29602 -0.81029 -1.74626
-1.48889 -2.31752 -1.83912
-1.84852 -2.35813 -1.17312
-2.62341 -0.568535 -1.55506
-1.7944 -1.31897 -2.21827
-2.8992 -1.07017 -1.10588
-1.12247 -2.83284 -2.19461
-1.85716 -1.58414 -2.30361
-1.5028 -2.06481 -1.44387
-2.69019 -1.56181 -1.20021
-2.44062 -0.572942 -1.65035
-1.54744 -1.10137 -2.20256
