ply
format ascii 1.0
comment Created by Open3D
element vertex 400
property double x
property double y
property double z
end_header
-0.429394 -0.127395 -3.03936
0.531315 0.794171 -2.96634
0.105608 0.976297 -3.023
-0.78347 0.541065 -2.93951
0.410762 1.06123 -2.99099
-0.0961752 -1.5289 -3.35387
0.397439 0.990012 -2.98117
0.495473 -0.294803 -3.05591
0.690481 -0.190453 -3.07235
-0.266738 -0.636943 -3.23683
0.304381 -1.12219 -3.1715
-0.455621 -0.0929518 -3.15075
0.809909 1.18581 -3.04163
-0.0963324 0.73931 -2.95071
0.401766 1.07778 -3.00415
0.2256 1.18364 -3.02113
-0.618259 0.615474 -2.78053
-0.907731 -0.606464 -3.14161
0.474493 0.857243 -2.90031
1.06641 0.839314 -2.81872
-0.492781 -0.21564 -3.08447
0.752478 -0.890409 -2.97282
0.116035 0.76009 -2.88476
0.722971 -0.475482 -2.94823
0.252586 -0.345926 -3.17537
-0.49012 -0.120996 -3.35884
0.76598 0.735402 -2.93522
0.244241 0.497476 -3.15527
0.978166 -0.753567 -2.92614
0.658692 0.0515788 -2.96958
-0.148052 0.0272155 -3.08551
-1.00345 0.843189 -3.10059
0.496514 -0.604013 -3.17201
-0.472077 0.379244 -2.9481
-0.965716 -0.599066 -3.01778
0.0667879 -0.823735 -3.05822
0.797641 -0.114556 -3.0651
0.751705 0.44965 -2.84485
0.298129 -0.985011 -3.28847
-0.286967 -1.68217 -3.46022
0.681062 -0.661343 -2.96872
0.0933892 0.829223 -3.08556
0.310141 0.957151 -3.01287
-0.51366 -0.0972145 -3.0504
-0.750455 -1.26417 -3.06365
0.135736 -0.868317 -3.20133
0.0769285 0.262778 -3.05297
0.143605 1.10277 -2.94526
-0.41668 -0.592513 -3.29331
0.497754 -1.2803 -3.13594
0.808888 0.138907 -3.00051
0.0297355 0.218322 -3.03921
0.0705153 0.0077129 -3.03368
-0.548707 -0.00735735 -3.09668
-0.332694 1.06892 -2.89944
-0.42121 0.914439 -3.12134
-0.529618 0.817285 -2.97165
0.143353 -1.52027 -3.10694
-0.749859 -0.524645 -3.31463
-0.0708073 -0.676337 -3.10396
-0.571617 -0.981656 -3.09653
-0.913454 0.718387 -3.08245
-0.117826 -0.315835 -3.13586
-0.370143 0.0924302 -3.0239
-0.141324 -0.893651 -3.17083
-0.52784 0.678629 -3.04113
0.547237 -0.80702 -3.06593
-0.937704 -1.10555 -3.33396
0.55585 -0.680055 -3.11167
-0.512284 -0.603021 -2.91246
0.0196278 0.17584 -3.03714
0.171239 -1.48249 -3.16663
0.56704 0.31596 -3.10225
1.10185 0.319009 -2.77207
-0.161886 -1.16752 -3.1737
-0.515073 0.691531 -3.1484
0.548024 -1.55757 -3.08988
0.619392 -1.38697 -3.12168
0.454016 -0.238364 -3.10445
0.894193 0.0659696 -2.90007
-0.0447421 -1.23845 -3.23284
0.55113 0.164365 -2.946
-0.656089 -0.202459 -3.08837
0.393894 -0.672007 -3.00379
0.0495473 -1.79245 -3.22128
0.437134 -0.534072 -3.06433
0.439191 1.13781 -3.03269
0.889038 0.729273 -2.83882
0.789165 -1.59288 -3.03505
-0.03564 0.74048 -3.05842
0.236448 -0.416969 -3.02771
0.816898 0.934685 -3.02841
0.811892 0.0745856 -3.06966
-0.446228 -0.807749 -3.08654
0.545269 1.03224 -2.91453
1.03995 -0.124432 -2.88878
-0.57696 -0.473729 -3.03091
-1.04664 1.0741 -3.02542
-0.0968429 -0.789732 -3.02313
-0.430101 -1.09583 -3.38211
0.0543419 -1.34334 -3.11384
0.257616 -0.232236 -3.07512
-0.414062 -0.640741 -2.93424
0.431503 -1.36812 -3.13083
-0.680094 -1.26739 -3.18159
-0.660141 -0.339353 -2.70966
0.360417 -0.150114 -2.98049
0.881633 -0.290441 -2.98067
-0.985965 -0.998228 -2.97407
0.738621 0.00625789 -3.07469
0.547112 -0.0977568 -3.09845
-0.606096 -1.30876 -3.07039
-0.037722 -1.16949 -3.30291
-0.0284479 0.32627 -3.19286
-0.984057 -0.455679 -3.10449
-0.748374 -1.47384 -3.00086
0.917138 0.33193 -2.86613
-0.128744 -1.27714 -3.26097
0.282865 -0.584206 -3.15192
-0.00416304 0.266842 -3.11978
0.645313 0.57802 -3.02746
-0.944994 1.04786 -3.01484
-0.463683 -0.489681 -3.12337
-0.581584 -0.593753 -3.09828
-0.380894 -0.489915 -3.30025
0.312202 -0.643645 -3.13651
0.658008 -0.22326 -3.10571
0.0810687 -1.62918 -3.28654
-0.805335 0.801304 -2.97633
-0.345177 -0.964194 -3.31777
0.586117 -0.513563 -2.99071
0.417397 0.292991 -3.21792
-0.41549 -0.549998 -2.86586
-0.842228 -1.20967 -2.81237
0.585793 -0.528161 -3.08944
-0.755359 -0.741694 -3.13272
0.709206 -1.55768 -3.09654
0.225134 -1.50608 -3.25016
-0.66175 0.355124 -2.86348
-0.600837 -1.17693 -2.99729
-0.332269 -1.72961 -3.28874
0.700864 -1.04116 -3.13239
-0.88056 -0.391497 -3.03425
0.0591183 -1.54053 -3.37311
-0.884681 -1.49463 -3.16916
0.93516 0.741786 -2.88184
-0.130834 0.97715 -2.98097
0.85667 0.976589 -2.99444
-0.987079 0.661113 -3.01515
0.000143839 -1.10077 -3.2127
-0.26697 -0.738782 -3.00172
-0.583996 0.0384025 -3.13293
-0.54945 -0.180871 -2.95529
0.869911 -0.914821 -2.97274
0.902632 -0.353823 -3.00959
-0.769066 0.960509 -2.95707
0.120116 0.784076 -3.01423
-0.500575 -1.79837 -3.29438
0.795057 -1.02873 -3.03
0.28217 0.276605 -3.02154
-0.421401 0.398853 -3.00995
1.12449 -0.89025 -2.80396
0.364261 -0.749483 -3.11648
-0.233059 -0.0288083 -3.27314
-0.813076 -0.498488 -3.14527
0.550724 1.2124 -2.99965
-0.329938 0.391298 -3.30281
0.626954 -1.52712 -3.01709
-0.804896 -0.197598 -2.80333
-0.674808 1.27251 -2.94012
-0.0517248 0.749027 -3.03353
-0.469099 -0.632353 -3.05107
-0.300861 0.720744 -3.24304
0.750631 -1.00263 -3.11468
-0.260328 0.964773 -3.0988
-0.172852 0.991612 -3.19124
-0.101011 -1.39825 -2.98714
-0.0388292 -1.30788 -3.29804
0.492663 -1.31386 -3.23954
0.357919 -1.0779 -3.20786
0.695015 1.20567 -2.87766
-0.0946392 0.760554 -3.0458
0.386533 0.904975 -2.90257
-0.061336 0.97879 -2.91546
-0.862757 -0.596983 -2.93933
0.474197 -0.778959 -3.07612
0.169778 0.577894 -3.03418
-0.474711 -1.23511 -2.91771
-0.752113 0.0192976 -2.79807
0.687462 0.724095 -3.01654
-0.513501 1.0239 -3.07194
0.495045 0.897809 -3.0332
0.44184 -1.5866 -3.20351
0.282573 -1.12282 -3.10063
-0.269537 0.328857 -2.91638
-1.12408 0.918698 -3.07259
0.545192 -0.334203 -3.25209
0.273483 0.949357 -3.03455
0.805617 0.562724 -2.92324
-0.987997 -1.36001 -3.01026
0.356902 -0.202191 -2.96019
-0.216574 -1.65595 -3.35626
-0.279077 -0.882349 -3.17896
0.8128 0.737588 -2.99527
-0.787226 -1.25366 -3.13981
0.930264 -0.865593 -2.84025
-0.338927 0.534704 -2.84006
-0.926552 0.952982 -3.14159
-1.03126 -0.255803 -3.01117
0.164478 0.395508 -3.00713
-0.0988734 -1.85786 -3.36349
-0.0836769 0.182636 -3.15792
-0.623998 1.38731 -2.84026
0.105928 0.67604 -3.1504
0.734455 -0.913082 -2.96373
-0.862954 -0.0554499 -2.94176
-0.024693 0.206274 -3.11389
0.588557 -0.428016 -2.99132
-0.0849683 -1.29516 -3.26694
0.123364 1.11624 -3.09775
0.823516 -0.289014 -2.94735
0.533422 -1.57506 -3.13035
-0.565537 0.444759 -3.01072
0.626675 0.755823 -2.97009
-0.996535 -0.55639 -3.26693
-0.967108 0.13929 -2.89404
0.729721 -0.164448 -3.00777
-0.916022 0.285353 -3.13287
-0.430754 -0.647531 -3.06565
-0.69334 0.19961 -2.89994
0.586153 -1.27982 -3.12585
-1.04754 0.386731 -3.09178
0.719671 -0.0435992 -3.04118
0.360711 1.09696 -3.04554
0.198007 -1.63404 -3.08972
-0.0656988 0.143916 -2.95214
0.717786 -0.934069 -2.96885
-0.542786 -0.490373 -2.94862
-0.671669 -0.0144538 -3.06947
-1.06669 -1.2968 -3.14855
-1.07063 0.751003 -3.03372
-0.779607 -0.557598 -2.94753
-0.277902 0.130334 -3.04163
-0.776178 -0.53054 -3.00848
0.427209 -0.126982 -3.14943
-0.900414 -0.22987 -2.89887
-0.115928 -0.886523 -3.18138
-0.785094 0.241397 -3.22515
-0.102467 -0.651835 -3.34672
0.376384 -1.34584 -3.27781
-0.555118 0.861567 -3.10991
-0.926704 0.336195 -2.9025
0.175642 -0.670192 -3.13433
-0.844812 0.0265285 -2.9427
-0.933283 0.768726 -2.87856
0.085283 -0.441471 -3.01337
0.128227 -0.283992 -3.10676
-0.630399 0.624323 -2.96506
0.666219 1.20163 -2.88453
-0.375596 -0.462661 -3.09608
-0.110776 0.569315 -2.939
0.375409 -0.852471 -3.20544
0.652827 0.428108 -3.08251
-0.260133 -0.940838 -3.26004
0.352993 0.165332 -3.15591
-0.912383 -0.900385 -2.8984
-0.0870498 0.910264 -2.89953
-0.482736 -1.18884 -2.97625
0.824821 -0.456338 -2.82283
-0.838635 -0.586534 -3.21148
0.118726 -0.791063 -3.20231
-0.678439 -1.0314 -2.99515
-0.853238 0.774667 -2.80874
-1.05114 -1.56166 -3.0281
-0.0790298 0.538239 -3.13739
-0.114097 0.769605 -2.84163
-0.205911 -1.76764 -3.18352
-0.398992 -0.495265 -3.16639
0.120598 -1.12648 -3.27669
-0.410723 -0.777109 -3.1041
0.454903 -0.814935 -3.20522
0.903497 -1.28234 -2.96454
0.365224 0.509802 -3.10382
0.0663592 -1.75689 -3.23661
-0.489572 0.102502 -3.0939
-0.0458011 -0.509275 -3.17954
-0.579312 0.295538 -2.77306
-0.299074 -0.982168 -3.22875
-0.198121 -0.565888 -3.05901
0.803323 0.950038 -2.97552
0.280831 -0.17317 -3.07809
0.568569 0.0772033 -2.94037
-0.248126 0.339358 -3.14706
-0.0798789 0.821464 -3.14364
0.697791 0.713025 -2.82286
0.550538 -1.43032 -3.03305
1.00031 0.0927719 -2.90236
-0.924075 0.36206 -3.06553
-0.603674 -0.113215 -3.16884
-0.435631 -1.54099 -3.24636
0.557839 0.726732 -3.07241
0.164684 0.599862 -3.11499
-0.170589 -1.38044 -3.08468
-0.415864 -0.398285 -2.98932
-0.628243 -1.5131 -3.05678
-0.449007 -0.207999 -3.1696
-0.376961 -0.844619 -3.16314
0.790847 0.893004 -3.01013
-0.0812827 -1.06051 -3.22146
-0.218144 -0.444534 -3.07831
-0.571753 -1.24731 -2.95544
0.230706 0.87216 -3.00639
-0.138211 -1.29427 -3.25854
0.454792 -1.65853 -3.30534
0.566084 -0.708956 -3.03314
-0.0732833 0.393983 -2.94374
0.800097 -0.721432 -3.08844
-0.991666 0.264153 -3.12348
-0.921061 -1.16975 -2.98865
-0.733954 0.225571 -3.04149
-0.367837 0.367695 -3.1266
-0.89109 0.324768 -3.0373
0.426669 -0.788299 -3.14964
-0.89149 1.32723 -2.9056
0.783194 -0.00466323 -2.98187
0.0483592 0.461734 -2.98172
0.827627 0.795122 -2.80697
0.95228 -0.900729 -2.87189
-0.648662 -0.174364 -2.99695
0.517274 0.452428 -2.95252
-0.445529 0.844164 -2.94427
0.137776 -1.24008 -3.16653
-0.732041 1.2345 -2.98757
-0.983041 -0.744898 -3.02462
0.661831 -1.32507 -3.14894
-0.248671 -1.26878 -3.07589
-0.846318 -1.22205 -3.01818
-0.574793 -1.36642 -3.19429
-0.197313 -1.6335 -3.20735
0.2158 0.625333 -3.08323
-0.732618 0.000582845 -3.31571
0.871795 0.173663 -2.97698
-0.177638 1.31348 -2.82616
0.157205 -1.1237 -3.28787
0.117099 -0.659195 -3.31543
-0.018926 0.38383 -3.18147
0.226204 0.236783 -3.0254
0.656592 1.19523 -2.84403
-0.499932 -0.00194574 -3.19163
1.00573 1.27881 -2.89601
1.02348 -0.992697 -2.86265
0.724642 0.0685315 -2.97877
0.235207 -1.28313 -2.948
-0.243382 0.989845 -3.11303
-0.262956 0.105451 -3.16837
-0.749716 -0.986747 -2.96857
0.442304 -0.890348 -3.25412
0.438523 -1.3549 -3.22516
0.575844 -1.12794 -3.07947
0.566727 -0.222543 -3.00827
0.850417 -0.496146 -3.05553
0.0718206 -1.85805 -3.35076
-0.428432 0.711041 -2.93448
-0.769667 -0.775833 -2.98175
0.264056 -1.85843 -3.29637
-0.813338 0.612768 -2.79863
-0.687301 -0.990747 -3.06568
0.0934525 0.418441 -2.93688
-0.419084 0.920841 -2.86919
0.677573 1.18026 -2.96613
0.456167 -1.45933 -3.17924
-0.124959 -0.975479 -2.99928
-0.741401 0.452605 -2.962
-0.324718 -0.849263 -3.04909
0.345193 -1.28313 -3.30701
-0.665299 -0.628959 -3.11331
-0.160052 0.0284613 -3.16797
0.549798 0.320772 -3.13627
-0.401796 0.965741 -3.14037
0.181219 0.114013 -2.99695
1.04969 -1.12408 -2.88202
0.0895819 -0.107143 -3.03015
-0.227795 -0.967238 -3.00489
-0.88752 1.13538 -2.91452
0.223263 1.35382 -2.84786
0.243878 0.96483 -3.04926
-0.145911 0.925305 -2.96737
-0.352201 0.124213 -3.0937
0.52073 -1.47849 -3.19491
0.0661068 1.02694 -3.13142
-0.767821 -0.0461912 -2.96042
-0.565864 0.832675 -3.01932
-0.162207 0.755813 -3.05487
0.486389 0.882931 -3.14458
0.279967 0.240243 -3.058
0.738367 -0.149412 -2.9976
-0.916658 -0.0361186 -2.98697
0.109148 0.141003 -3.01013
-0.269156 -0.341695 -3.14922
-0.556619 -0.105452 -3.27158
