ply
format ascii 1.0
comment Created by Open3D
element vertex 250
property double x
property double y
property double z
end_header
-2.96706 -0.116826 0.689345
-3.05633 1.70746 1.4749
-1.22804 0.234092 2.75902
-2.54616 -0.23635 2.18756
-3.42548 0.0852819 0.747874
-2.37496 -1.19876 1.85179
-0.649729 -2.14726 2.47771
-1.59337 -0.615877 2.61634
-3.23225 -0.588231 0.308556
-2.8157 -0.066792 2.0973
-3.13398 0.969919 1.98208
-2.33406 -0.805841 2.11126
-3.35711 0.313454 1.74363
-2.43421 -1.12421 1.69477
-4.01732 -0.386188 0.893571
-3.4438 0.668003 1.30828
-2.45405 -1.68717 1.51063
-0.898988 -1.47184 2.69339
-2.09712 -1.96052 1.61008
-1.35975 0.50684 2.82429
-3.49144 0.938135 1.56589
-0.457716 -0.649383 3.27461
-2.43386 -0.371676 2.10393
-1.43303 -1.21102 2.45612
-1.67999 0.0443849 2.63841
-3.32551 -0.33629 1.22676
-1.93587 -1.07635 2.01249
-3.29427 1.41202 1.50615
-1.58011 -0.289126 2.62348
-2.75167 0.181639 2.24223
-2.92546 -0.156528 0.556883
-3.05732 1.76081 1.5166
-3.36236 0.226179 0.528014
-2.9414 1.4053 1.69293
-3.12417 1.6338 1.37905
-0.898388 -2.34941 2.2662
-1.46915 -0.0107402 2.58371
-3.07123 1.51836 1.51968
-3.80649 -1.32201 0.637937
-1.36872 -0.154739 2.82213
-1.45567 -0.110723 2.77858
-1.85072 -0.975604 2.27775
-3.37137 0.85867 1.82199
-3.48795 0.700232 1.39945
-2.05992 0.206644 2.29886
-3.32497 1.23113 1.70782
-0.683562 -0.322838 2.97045
-3.44957 1.06424 1.55815
-1.65498 -1.9895 1.93065
-3.61305 -0.310217 1.13174
-2.70759 1.50526 2.1229
-2.16784 -0.186496 2.30047
-0.631606 -0.566028 3.01274
-3.95619 0.215861 0.40114
-2.00825 -0.0708857 2.60091
-0.25101 -0.59323 3.27946
-1.94267 -0.329839 2.49756
-3.45674 -0.739673 0.21183
-2.33797 0.817466 2.60615
-2.36639 -1.18603 1.89143
-1.70974 -0.5511 2.55998
-1.28192 -1.26582 2.53062
-1.49187 0.349196 2.85828
-3.43526 0.209037 1.02915
-3.67463 0.821325 0.862914
-3.18458 1.23771 1.60089
-3.13262 0.111021 1.9488
-0.597106 -1.38875 2.91703
-3.09775 -0.268636 0.951694
-2.63251 -0.890451 1.81165
-2.78083 0.550088 2.32975
-1.03136 0.333179 3.03451
-3.82889 -0.807942 0.0216864
-1.67054 -0.787696 2.46157
-1.65544 -0.691136 2.43436
-1.14826 -2.48569 2.05897
-0.249143 -0.33003 3.33901
-3.08931 0.779738 2.04766
-3.33263 0.224271 1.81075
-2.20177 -0.603395 2.25495
-2.33689 -1.21458 1.69726
-2.81512 1.13092 2.06303
-3.71512 -0.10098 1.03496
-1.52515 -1.30034 2.26622
-1.99368 -0.628329 2.382
-3.41848 0.988838 1.25785
-1.06594 -1.49772 2.53887
-3.24501 -0.427194 0.565122
-0.492808 0.555415 3.6419
-3.28974 -0.34192 1.6977
-1.40332 -0.0338821 2.55629
-0.626669 -0.976821 3.04466
-3.60017 -0.373881 1.07401
-2.72431 0.682891 2.3742
-3.44611 0.563837 1.71584
-1.29288 -0.377256 2.76917
-3.24071 -0.916035 0.76837
-3.418 -0.00816076 0.608084
-2.35687 1.12901 2.45887
-2.80895 -1.485 1.17409
-3.6072 0.19225 1.57015
-3.54007 0.263707 1.08878
-3.24597 0.333304 1.58174
-3.3125 -0.846614 0.600167
-3.24681 1.09224 1.89653
-2.46363 -0.882628 1.77366
-2.45443 -1.19263 1.74179
-0.13245 -0.499282 3.38346
-0.752429 -1.43969 2.79711
-1.9491 -1.02628 2.23797
-1.7631 0.0617975 2.54183
-2.37829 0.98925 2.42491
-1.76642 -0.792828 2.41922
-3.53981 -1.12498 0.15412
0.00120227 -0.458443 3.57554
-3.00213 0.240514 2.08488
-0.686734 -0.91217 3.0114
-3.79787 -0.341012 0.237304
-3.57417 0.345634 1.39651
-3.34145 1.04449 1.80045
-0.886717 -2.20387 2.31088
-2.78749 1.37645 2.24071
-1.90245 -0.391943 2.53247
-3.47812 0.771131 1.7048
-0.804895 -1.79172 2.56283
-0.510727 -1.13776 3.04382
-1.22846 0.97604 3.10129
-2.1669 0.152041 2.3536
-2.3294 -1.10357 1.93754
-0.700018 -0.352042 3.06652
-1.29915 -0.661433 2.7526
-0.79488 -1.57522 2.72634
-2.94307 1.00351 2.27067
-0.274009 -0.182243 3.2512
-1.4694 0.498938 2.80426
-1.32308 -0.429577 2.80507
-0.505651 -0.757775 3.14033
-1.25251 -0.175397 2.98986
-3.05441 1.48588 1.81022
-1.0153 -2.00377 2.37117
-3.10484 1.52562 1.57406
-3.57078 0.936347 0.979633
-0.875214 -0.200749 2.88222
-3.38554 0.247063 1.66672
-3.64612 -0.214562 1.1746
-3.03746 1.59033 1.55645
-3.23917 -1.21144 1.06732
-0.944086 -1.05663 2.77789
-2.82471 1.5317 2.07576
-3.32992 -0.540926 1.164
-0.45253 -0.303566 3.20549
-3.1542 -0.532816 1.19425
-1.09313 -0.768668 2.69182
-3.35657 1.0906 1.39338
-3.03368 -0.249252 0.750046
-4.29616 -0.0432747 0.661753
-1.31263 -1.69295 2.34863
-2.01325 -0.988497 1.84728
-2.58153 -0.577671 1.78889
-1.04337 -1.10864 2.66467
-3.10253 0.812093 1.73189
-2.08842 0.540896 2.60641
-3.42993 1.1802 1.21087
-3.56543 0.217993 1.48988
-1.56394 -0.189185 2.6672
-0.606108 -1.51904 2.82881
-0.825718 -1.87942 2.51124
-2.93033 1.16331 2.26797
-3.08283 -0.355116 1.07889
-1.09261 0.13907 3.01785
-3.48226 0.678624 1.66189
-1.6261 -2.0299 1.96324
-1.80373 -0.293311 2.57809
-3.09327 1.48207 1.58474
-3.19779 1.62601 1.18813
-3.44245 0.897906 1.72456
-3.72812 0.845634 1.31471
-3.25269 -0.070428 1.77464
-0.560653 0.164676 3.21226
-3.09401 -0.948327 1.51671
-0.634747 -0.0986558 3.17143
-2.20265 -1.60602 1.49824
-3.45643 -0.558034 0.723022
-2.58868 0.540991 2.40361
-3.28208 0.167641 1.82246
-2.81984 1.83561 1.65336
-1.52166 -0.135131 2.79445
-2.37509 -1.24494 1.8819
-3.76162 0.226827 1.41306
-3.29464 -0.67287 1.54449
-3.55576 0.479813 1.64073
-2.89251 1.50829 1.85932
-2.97507 -0.57651 1.79643
-4.09245 0.396639 0.697651
-1.69558 -1.14584 2.31039
-3.2486 1.38692 1.20729
-0.110747 -0.0489925 3.38952
-3.73238 0.85505 1.29731
-2.71209 -0.458588 2.03177
-2.55345 -0.0582548 2.22706
0.256263 0.32765 3.48836
0.548473 0.540193 3.6666
0.0931217 0.565194 3.3078
0.323316 0.464322 3.13335
0.0875477 0.827911 3.7255
-0.198938 -0.191732 3.15483
-0.278851 0.800365 2.97002
-0.649832 -0.485515 2.70887
0.512949 0.988247 3.44451
-0.187132 0.516156 3.25458
-0.748695 0.62224 2.73909
0.453932 0.816266 3.70633
0.639968 1.28829 3.51584
0.549263 0.957906 3.39237
0.0457956 0.815963 2.9036
0.352345 0.511968 3.34505
-0.144011 0.735853 3.18257
0.371982 0.571721 3.55947
-0.543176 0.573051 2.9823
-0.757952 0.696606 3.15752
0.130445 0.379564 3.12595
-0.98689 0.493491 2.91027
-0.621609 0.564521 2.83965
0.525139 0.584884 3.5029
0.0474374 1.13742 2.93351
0.536657 0.914581 3.47666
-0.00443974 1.17769 3.39854
-0.566618 0.321036 3.10911
-0.194721 0.868353 2.7362
0.674778 0.725956 3.60211
0.346084 1.09537 3.29322
-0.471763 0.878765 3.42877
0.790064 1.195 3.72144
0.62461 0.822528 3.67479
-0.82332 0.175774 2.89039
-0.115164 0.708207 3.07471
-0.0715931 -0.152142 3.22165
-0.378365 0.177612 2.59208
-0.136774 0.222713 3.38955
-0.456391 0.543304 3.12654
0.200136 1.16409 3.30649
0.286997 0.564126 3.5814
0.177275 1.05848 3.24234
0.726941 1.25594 3.54313
-0.266685 -0.136708 3.14392
-0.128614 0.385336 3.17559
0.0914666 -0.0884177 3.24203
0.33155 0.775702 3.12615
-0.0791053 0.498106 3.17585
-0.287321 0.576667 3.32929
