ply
format ascii 1.0
comment Created by Open3D
element vertex 250
property double x
property double y
property double z
end_header
0.958452 -0.426393 -2.86941
-1.23922 -1.64624 -2.87017
-0.326744 -3.10653 -0.805487
-0.0214615 -2.89691 -2.16964
0.314564 -0.985661 -3.29482
0.97534 -2.46355 -2.0263
2.78745 -1.9584 -0.251876
1.05204 -2.50376 -1.193
0.749045 -0.708517 -3.13803
0.418178 -2.28793 -2.48659
-0.757074 -2.38948 -2.83817
0.523451 -2.78725 -1.95492
0.0391683 -2.03492 -3.08363
1.2952 -1.94806 -2.13135
-0.401218 -2.33258 -3.78063
0.0151774 -1.31067 -3.26101
1.11459 -2.44249 -2.12282
1.46063 -2.85173 -0.44894
1.41171 -2.44997 -1.74971
-0.238928 -2.86711 -0.952693
-1.13982 -2.41676 -3.22932
2.00037 -2.11579 -0.0231606
1.15044 -1.8183 -2.1236
1.35643 -2.56627 -1.0267
-0.0466683 -2.9726 -1.26927
0.540446 -1.62341 -3.1034
1.75307 -1.7115 -1.62107
-0.592058 -1.38099 -3.11153
0.176986 -3.03212 -1.15797
0.221893 -2.38285 -2.41143
0.99154 -0.289721 -2.84652
-0.89554 -1.31895 -2.88789
0.25045 -0.684349 -3.27297
-1.45809 -2.32507 -2.68816
-1.36101 -1.74142 -2.93876
2.46189 -2.27466 -0.494644
-0.386727 -3.24827 -1.04637
-1.45969 -2.07141 -2.85102
0.08557 -2.42671 -3.56087
0.450744 -2.81905 -0.945605
0.348647 -2.84583 -1.03592
1.32831 -2.27197 -1.48296
-0.60128 -2.22341 -3.09562
-0.10268 -1.49198 -3.28734
-0.773328 -3.22793 -1.66837
-0.479555 -1.64907 -3.10344
0.155991 -3.27738 -0.217751
-0.468782 -1.65981 -3.23565
1.60906 -2.53932 -1.27416
0.142282 -1.92627 -3.38187
-0.957235 -2.16127 -2.42895
-0.314639 -3.17453 -1.76765
0.495849 -3.21296 -0.158904
-0.610539 -1.47436 -3.83053
0.680814 -2.41547 -1.62889
0.89113 -3.07166 0.237075
0.392511 -2.80294 -1.54287
0.522017 -0.998928 -3.3494
-0.0738275 -2.3817 -1.9847
0.854989 -2.60335 -2.0065
1.37228 -2.10878 -1.33879
1.31157 -2.70689 -0.859649
0.12082 -2.73053 -1.08478
0.279125 -1.19392 -3.27098
-0.613399 -1.34896 -3.53316
-1.41551 -2.38584 -2.93056
-0.290702 -2.69529 -2.79744
1.9119 -2.52845 -0.148997
0.883035 -0.923008 -2.94325
0.840663 -2.31527 -2.30416
0.153471 -2.20777 -2.45341
0.169957 -2.79725 -0.605482
0.067841 -1.35778 -3.7148
0.508337 -3.02426 -1.24875
0.114321 -3.27542 -1.22437
2.18064 -2.49448 -0.745707
0.819205 -2.96117 0.230305
0.234261 -1.69253 -2.82262
-0.108502 -2.31746 -3.03433
0.938457 -2.33862 -1.84192
1.40893 -1.90882 -2.03376
-1.01458 -2.51128 -2.51054
-0.0196047 -1.80837 -3.50513
1.85022 -2.00852 -1.16521
0.864473 -2.52283 -1.61169
-0.220377 -1.18557 -3.25671
1.90688 -2.33008 -0.658649
0.720845 -0.851776 -3.12419
1.34446 -2.01934 -0.0655431
-0.099715 -2.69874 -2.96335
-0.506426 -3.34186 -0.977081
1.69643 -2.49239 -0.181001
0.196592 -1.8722 -3.37548
0.568601 -1.73456 -2.42425
-0.906656 -2.68096 -3.1447
0.429956 -2.97262 -0.859435
0.824731 -1.40167 -3.05592
0.340154 -0.9031 -3.30194
-0.617008 -2.46234 -2.02098
1.11461 -1.98055 -2.53931
-0.400864 -2.42394 -3.32256
0.101111 -1.38985 -3.36042
0.427856 -1.46973 -3.0205
0.748522 -1.25222 -3.15317
-0.673337 -2.13358 -2.97665
1.28487 -1.82455 -2.16773
1.10132 -2.24249 -2.12833
0.970426 -2.99731 0.357597
1.77323 -2.60977 -0.308437
0.713841 -2.86953 -1.5486
-0.27424 -3.08637 -1.3547
-0.626149 -2.5665 -2.03534
0.556399 -2.95774 -1.35185
0.532308 -1.29348 -3.40929
1.60993 -2.53349 0.480039
-0.066695 -2.48387 -2.6711
1.33148 -2.7522 -0.230705
-0.0618755 -1.27043 -3.68307
-0.0761891 -1.79971 -3.34561
-0.708911 -2.12912 -3.07849
2.49516 -2.15528 -0.490099
-0.640684 -2.11494 -2.49709
1.0504 -2.2719 -1.52857
-0.480231 -2.08907 -3.21779
2.34093 -2.16833 -0.39709
1.39906 -2.89493 -0.0375526
0.0271635 -2.4521 -0.834505
-0.488581 -3.08506 -1.77686
0.947664 -2.48242 -1.97485
0.577294 -3.00988 -0.240216
1.02642 -2.65564 -0.877331
1.45617 -2.96454 -0.332684
0.0289278 -1.88301 -2.65228
0.366936 -3.16609 0.205274
-0.189753 -2.82709 -1.06592
0.798667 -2.7166 -0.899649
1.14783 -2.8836 -0.0354422
1.22751 -2.26073 -0.846433
-1.04601 -2.0054 -2.81119
2.03637 -2.48732 -0.599491
-1.3133 -1.98892 -2.88466
-0.520401 -1.25821 -3.42772
0.0115155 -3.24626 -0.422062
0.0900895 -1.97425 -3.12045
0.0544132 -1.97129 -3.41116
-1.37599 -1.95945 -2.8226
0.645529 -2.13915 -2.97657
2.10125 -1.97072 -0.549239
-0.885037 -2.04251 -2.55758
0.564111 -1.72331 -3.10175
0.629326 -3.01507 0.0179102
0.801638 -1.49372 -2.93731
0.295851 -3.33844 -0.63474
-0.197234 -1.19858 -3.18504
0.939819 -0.636689 -2.91447
-0.984664 -2.38225 -4.08637
1.05773 -3.15119 -0.868567
1.90427 -1.33663 -1.73718
1.22712 -1.63906 -2.30343
0.615168 -3.31067 -0.579382
-1.3893 -2.86443 -2.79715
-0.163118 -2.67181 -1.71109
-1.72222 -2.37217 -3.2092
-0.103479 -2.03374 -3.31136
0.185136 -2.9757 -1.14408
2.31264 -2.18336 -0.182063
2.35504 -2.1857 -0.418939
-0.210789 -1.95793 -2.64007
0.912131 -1.10031 -2.90429
0.390194 -2.76041 -0.664614
-1.00341 -2.61937 -3.19243
1.49939 -2.70643 -1.23163
0.414954 -2.80631 -1.39797
-1.36886 -2.08905 -2.86513
-1.3598 -1.56659 -3.03911
-0.538572 -2.0429 -3.18677
-1.00043 -2.15658 -3.50017
0.0994402 -2.33862 -2.94814
0.328674 -2.899 -0.10947
0.399692 -2.56173 -2.77482
0.564843 -2.88754 -0.180108
1.68336 -1.78051 -1.91383
0.504548 -1.36945 -3.28725
-0.109789 -2.50362 -2.23782
-0.647413 -2.87588 -2.94896
-1.28355 -1.71155 -2.6183
0.593628 -2.66631 -1.11
0.707578 -2.78636 -2.00375
-0.551109 -2.40096 -3.4929
0.0730075 -2.68169 -2.97339
-0.850088 -2.64696 -3.26031
-1.19331 -2.14445 -2.63795
0.310851 -2.57171 -2.64133
-0.98447 -1.98534 -3.91559
0.514975 -3.19276 -1.26719
-1.76146 -2.18675 -3.04534
0.468837 -3.06205 0.370595
-1.00943 -2.13961 -3.50723
0.281456 -2.68533 -2.35488
-0.139084 -2.88735 -2.17905
-0.0249128 -3.21975 0.74373
-0.0380589 -3.16966 1.04205
-0.406092 -3.20715 0.557366
-1.17239 -3.79813 0.808428
0.564611 -2.48608 0.539856
-0.0690216 -3.47171 0.289482
-0.901471 -3.18061 0.147968
-0.602234 -3.86265 -0.168951
-0.693994 -3.15949 0.973348
-0.211012 -3.06396 0.266255
-0.957618 -3.24205 -0.332541
0.0981935 -2.84952 0.924879
-0.722053 -2.96474 1.08651
-0.870378 -3.29272 1.01348
-1.36901 -3.47987 0.482655
-0.638952 -3.46558 0.835679
-0.526729 -3.08027 0.297464
-0.0933979 -3.11516 0.852424
-0.56525 -3.1301 -0.110933
-0.034989 -2.73755 -0.335728
-0.872049 -3.61993 0.607554
-0.325693 -2.98236 -0.566125
-0.818338 -3.24366 -0.195075
-0.488046 -3.38837 1.01553
-1.33419 -3.18685 0.460789
-0.634107 -3.19848 1.00423
-0.327337 -2.68905 0.420624
-0.0874378 -3.04347 -0.120764
-1.48167 -3.41022 0.22232
-0.481505 -3.32922 1.16615
-0.865373 -3.09878 0.786845
0.283061 -2.50041 -0.0450491
-0.406715 -2.93626 1.25558
-0.218365 -3.07823 1.10532
-0.317576 -3.21313 -0.382308
-0.793299 -3.24024 0.326647
-0.0833602 -3.49484 0.422644
-1.50406 -3.94131 0.0768565
0.289241 -2.98914 0.332624
-0.283666 -3.02462 -0.0167537
-0.700149 -2.92105 0.63023
0.0860595 -2.99121 0.762681
-0.795133 -3.0443 0.611865
-0.767067 -3.04856 1.18146
-0.0369808 -3.39278 0.214802
-0.414676 -3.2824 0.333948
-0.330233 -3.66041 0.594822
-1.21182 -3.54492 0.792414
-0.517041 -3.26788 0.379268
0.0498877 -2.85845 0.159387
