ply
format ascii 1.0
comment Created by Open3D
element vertex 400
property double x
property double y
property double z
end_header
-0.804753 -2.44582 1.90236
1.05841 -1.82994 2.44632
-0.888785 -2.35355 2.13297
-0.695107 -1.34331 2.86207
-0.356673 -2.72141 1.47067
-0.784851 -2.73219 1.58636
-1.41745 -1.7701 2.61152
-0.371711 -2.39634 2.01269
0.798899 -2.22032 2.06569
1.21453 -1.52229 2.65673
-1.55394 -2.78709 1.57369
-0.665591 -2.13523 2.32864
0.0319908 -1.50142 2.73415
0.7022 -1.96018 2.33251
0.161468 -1.99741 2.33319
-1.55566 -2.73868 1.46159
-1.2293 -2.58183 1.81741
0.531825 -1.55969 2.5825
-1.77076 -2.18373 2.34171
-0.0276213 -1.4494 2.71665
-0.29369 -2.33703 2.07875
-0.034966 -2.26443 2.12227
0.239549 -1.94175 2.37673
-0.870388 -2.20025 2.28356
-1.76008 -2.28708 2.24531
-0.334651 -2.59328 1.77886
-0.869544 -1.49754 2.69816
0.756568 -2.5751 1.68373
-0.2411 -1.63989 2.69622
0.74021 -2.59357 1.63415
-0.993841 -2.8894 1.31582
0.0397159 -1.83191 2.50442
-1.06996 -1.56684 2.75847
0.560928 -1.84954 2.44393
-0.928574 -1.72033 2.65781
-0.813978 -1.97056 2.47003
1.09669 -2.17427 2.12257
0.762323 -2.45346 1.78381
-1.25209 -2.33843 2.17085
-1.34251 -1.82992 2.54862
-0.232054 -1.70641 2.6054
0.305665 -2.55237 1.65312
0.725306 -1.4939 2.71199
0.203588 -1.92102 2.44079
0.881545 -1.8347 2.46098
-1.57172 -1.7701 2.61609
0.430659 -2.4948 1.76355
-0.225298 -1.72341 2.665
1.04203 -2.66743 1.52646
-0.329073 -1.84799 2.56866
1.00209 -1.4181 2.71512
-1.18518 -1.77922 2.62644
-0.0625216 -1.58286 2.6193
1.22114 -1.60761 2.60469
0.697729 -1.35343 2.79896
0.0454057 -2.22582 2.15494
-0.360939 -2.56198 1.71976
-0.934552 -2.94018 1.23256
-1.11112 -2.121 2.39422
-1.22893 -2.06281 2.40612
0.316966 -1.4215 2.69974
0.0790882 -2.56593 1.66941
-0.819347 -1.6407 2.74599
-0.885075 -2.68116 1.52538
0.219424 -2.69486 1.5064
0.563172 -1.49877 2.68726
0.630741 -2.67007 1.53825
-0.826765 -2.57729 1.87298
0.257112 -1.66667 2.62963
0.587913 -2.45689 1.79703
0.249741 -2.70063 1.57274
-1.58417 -1.90066 2.49823
-1.09942 -2.72812 1.69305
1.02775 -1.53989 2.61298
0.677689 -1.85984 2.42354
-0.386015 -2.65199 1.60957
-1.32211 -2.51371 1.93621
-1.53252 -2.50724 1.87881
0.30065 -2.29062 2.05187
0.2986 -2.61573 1.61435
0.556021 -2.53207 1.75576
0.942405 -2.57539 1.65051
0.937438 -2.09735 2.20604
-0.011746 -2.55766 1.78226
0.970766 -1.79133 2.4822
-1.35994 -2.17192 2.36367
-0.88247 -2.50529 1.94599
0.609657 -2.14563 2.17714
-1.22604 -2.47185 2.0349
-0.81674 -2.75476 1.53348
1.28615 -2.08774 2.2047
0.161459 -2.01828 2.3278
-1.01786 -1.6294 2.7122
0.211304 -1.86614 2.4076
0.64709 -2.49428 1.79079
-1.20072 -2.46685 2.02902
0.561192 -2.13958 2.16888
-1.20769 -2.77159 1.52972
0.36689 -2.8017 1.33241
0.688461 -1.98187 2.3348
0.86482 -2.08204 2.22436
0.414034 -2.36682 1.95583
-0.614165 -1.60754 2.67718
-0.99875 -2.67969 1.72296
-1.79479 -2.77817 1.6853
0.414776 -2.28818 2.03772
0.681484 -1.99117 2.2991
-0.0683865 -2.62302 1.65653
0.252253 -2.3631 1.95069
-0.495337 -1.5676 2.69671
-1.57621 -2.30293 2.23298
0.681006 -1.84284 2.45004
0.554602 -1.33704 2.83625
-0.619075 -1.50974 2.83711
0.239125 -2.63598 1.61238
-0.556991 -2.59983 1.71782
0.177888 -1.9802 2.32856
0.243991 -1.56073 2.63656
-0.86498 -1.27131 2.91228
0.209031 -2.72345 1.43387
-0.989095 -1.8621 2.58402
-1.54975 -2.63235 1.65149
-0.114904 -1.84865 2.46357
1.21914 -2.71827 1.4651
1.00251 -2.55548 1.7113
-1.48025 -1.52399 2.71586
-0.475332 -1.87548 2.55178
-1.43521 -2.84642 1.35593
1.18968 -2.22185 2.06759
-1.39492 -2.55469 1.66426
1.19758 -2.37482 1.89907
0.885817 -2.68191 1.54112
-0.77105 -2.42812 2.01184
-1.32594 -1.84899 2.59891
-1.317 -2.40435 2.09312
-0.362735 -2.05339 2.39033
-1.34083 -2.36641 2.16403
0.469875 -1.86559 2.43427
-1.73475 -2.42422 2.11201
0.37412 -1.46585 2.67308
-0.278428 -1.32856 2.82601
-1.60799 -2.2595 2.25901
-1.57025 -1.65557 2.68636
0.290781 -2.6115 1.62646
0.834651 -2.06929 2.22928
0.0626138 -1.32023 2.82759
0.604093 -1.58413 2.63947
-1.20507 -1.70396 2.50964
0.71109 -1.91667 2.3863
0.254963 -2.80097 1.40695
-1.44717 -2.71044 1.41907
-1.40769 -2.28696 2.24098
-1.72768 -2.22899 2.30433
-0.244288 -2.51599 1.84586
-1.20377 -1.86719 2.54965
1.13503 -1.19788 2.938
-0.84562 -1.39223 2.81115
-1.68056 -2.6365 1.7303
-1.11499 -1.51181 2.68983
-1.4817 -2.35033 2.13331
-1.23385 -2.28904 2.24222
-0.524339 -1.53823 2.70714
-1.09281 -1.53768 2.66426
0.52439 -2.39313 1.83923
-0.47626 -2.2357 2.18838
-0.956792 -2.81989 1.42297
-1.2593 -1.6211 2.64345
1.27797 -2.66289 1.52712
-0.556397 -2.09951 2.37056
-0.581423 -1.48096 2.74742
-1.50321 -2.56057 1.92261
-0.699917 -2.61374 1.65284
-1.16693 -2.16353 2.35243
-1.27638 -2.35888 2.16046
-0.0367644 -2.54186 1.76098
-0.593449 -2.60846 1.78461
-0.0702764 -2.47867 1.87827
0.834574 -2.17796 2.12722
-0.854786 -1.99651 2.48933
-0.0896934 -1.90655 2.4266
-0.562605 -2.50627 1.92257
-0.255135 -1.75911 2.61
-0.544923 -1.80297 2.61866
0.437446 -2.17425 2.15548
0.196255 -2.50291 1.796
0.545976 -1.99763 2.32025
1.34289 -1.37153 2.81879
0.720492 -1.50781 2.62769
-1.55406 -2.12415 2.40811
0.949971 -1.3176 2.81396
-0.880859 -2.3529 2.07125
-1.7777 -2.44193 2.0891
-1.5066 -1.60856 2.72846
0.285153 -2.64629 1.57952
0.792244 -2.47478 1.77352
0.500539 -2.42106 1.86805
-0.0655195 -2.69536 1.49186
-0.253461 -2.16508 2.26861
0.659564 -1.63139 2.56797
-1.69155 -2.26153 2.27559
-1.47462 -2.34586 2.1799
0.00114038 -2.42324 1.93873
0.634644 -2.35984 1.91427
-0.283897 -1.73889 2.58098
0.256533 -2.60696 1.68088
0.242819 -2.79086 1.33775
0.981151 -2.49353 1.71499
-0.602122 -1.80049 2.5578
-0.683922 -2.02941 2.46982
-0.450718 -2.89498 1.31332
-0.886855 -1.66359 2.65097
0.85585 -2.60231 1.62041
0.553749 -1.92947 2.35619
0.462827 -1.3484 2.79694
-1.319 -1.73902 2.71878
-0.448006 -2.59627 1.60776
-0.00141371 -1.76286 2.53259
1.19718 -2.65572 1.52356
0.97267 -2.25069 2.04694
-1.3579 -2.35355 2.17185
0.981173 -2.1854 2.1073
0.318361 -1.98614 2.3736
-0.816437 -1.39459 2.77938
-0.258061 -2.77361 1.5352
-0.0971305 -2.11114 2.24555
-0.820791 -2.17512 2.29615
-0.519511 -2.70646 1.51275
-0.185577 -2.65178 1.53926
0.349498 -1.73648 2.56801
-0.578648 -1.87777 2.5
0.183228 -2.40394 1.93063
0.026174 -2.51012 1.8242
-0.714324 -1.44522 2.74896
-0.783917 -2.64582 1.61157
0.131485 -2.35533 1.98695
0.442644 -2.4598 1.69738
1.18125 -2.49765 1.68171
-1.45647 -2.51503 1.97549
-1.18522 -1.92813 2.50407
-0.659005 -1.94329 2.51837
0.032556 -2.24372 2.1388
0.427815 -1.91198 2.35167
1.14654 -2.7473 1.4633
-0.429532 -2.52845 1.84071
1.06577 -2.00776 2.28174
-0.264282 -2.42783 1.96485
-0.599444 -2.16641 2.29893
0.133777 -1.55778 2.76238
-1.43676 -2.62784 1.73633
0.438729 -2.33184 1.98109
-1.59794 -2.35361 2.16236
0.860813 -2.74954 1.38391
-0.602838 -1.62612 2.81995
-0.153229 -2.24024 2.13798
0.708078 -2.63886 1.60214
-0.691404 -1.65931 2.62805
0.4249 -2.64292 1.54762
-0.163645 -1.37337 2.79174
0.545902 -1.57236 2.58367
-1.08389 -2.55329 1.92849
-1.26668 -2.76992 1.47305
0.575277 -2.44791 1.85635
-1.41618 -2.63272 1.66437
-0.639824 -2.13039 2.29758
0.544562 -1.79984 2.43186
1.04973 -2.44013 1.79832
-0.229986 -2.57297 1.76102
0.999062 -2.35562 1.9265
0.143152 -2.54667 1.75442
0.264942 -2.69458 1.46296
-1.34745 -1.62273 2.71323
-1.02429 -2.06945 2.45994
-0.182333 -2.03742 2.34517
1.17791 -2.5497 1.68512
-0.412301 -1.59574 2.61094
1.13083 -2.61741 1.56344
-1.82149 -2.19991 2.32076
0.957006 -2.6704 1.48288
0.839906 -1.74342 2.4888
-1.06904 -1.73762 2.72557
0.218338 -2.0812 2.2957
-0.967615 -2.7243 1.59779
0.522544 -2.71411 1.51382
-0.468946 -2.56662 1.82429
0.777847 -1.91504 2.36269
-1.52618 -2.60458 1.80854
-1.21138 -2.16179 2.36491
-1.08014 -2.02165 2.50806
0.539125 -2.5712 1.70075
1.00216 -1.94284 2.3188
0.968647 -2.58991 1.63625
1.26408 -1.68221 2.5724
-0.182555 -2.71436 1.50682
-0.630252 -2.29789 2.16281
1.07152 -1.93386 2.35264
-1.0276 -2.74469 1.52919
0.654953 -1.86452 2.43077
0.964581 -2.58534 1.68187
-1.44982 -2.05 2.37804
-1.46139 -2.52429 1.83773
0.653767 -1.93853 2.37084
-0.943696 -2.17652 2.33846
0.139756 -1.72744 2.51451
-1.67385 -2.47024 2.01224
0.464477 -1.7839 2.47779
-0.098102 -2.19407 2.1994
-1.58064 -2.74879 1.50336
-1.20109 -2.33879 2.18466
0.00764297 -1.79834 2.50826
-1.26342 -2.6258 1.82623
0.190067 -1.7553 2.44494
0.144878 -2.52398 1.65693
-0.0564079 -2.37369 1.99152
-1.6049 -1.93342 2.49431
-0.526362 -2.569 1.78487
-0.60699 -2.47768 1.95409
0.657207 -2.72941 1.401
-0.53584 -1.67634 2.56099
-0.204916 -1.35563 2.83283
0.875858 -2.90544 1.23725
-1.10835 -2.70032 1.46128
-1.56053 -2.88748 1.44812
0.417952 -1.84074 2.43006
-1.66218 -2.03212 2.4467
-1.07049 -1.89475 2.55774
-0.384715 -2.32251 2.10368
0.890445 -1.61 2.62076
1.16271 -1.88699 2.38452
0.567261 -1.37375 2.75952
-0.738316 -2.40607 2.06151
-0.361588 -2.50252 1.87076
1.12218 -2.52412 1.70649
-0.477116 -1.69336 2.56091
0.922204 -2.55997 1.67552
-0.706641 -1.39602 2.8621
1.10156 -2.27291 2.00111
-0.0906882 -2.13157 2.27512
0.709657 -1.98196 2.33174
0.723442 -1.86144 2.46384
1.12967 -1.48291 2.66485
-0.816641 -1.81447 2.55205
-1.4073 -1.87368 2.48271
-1.28623 -2.84345 1.53796
-0.622469 -2.83503 1.42398
-0.793005 -2.65394 1.72854
-0.884256 -1.90151 2.50682
-0.407022 -1.89616 2.44873
0.0792297 -2.44401 1.90258
0.091482 -2.35005 2.00057
-0.0831365 -2.3691 1.99018
0.0249498 -2.27234 2.1077
0.978182 -1.54341 2.6466
-0.130277 -2.56688 1.77035
-1.49062 -2.37162 2.12684
-0.139299 -2.63483 1.63909
-1.45888 -2.53194 1.96749
-0.976066 -1.40626 2.83008
-0.742544 -2.68142 1.52455
0.170847 -1.7264 2.51404
-1.21152 -1.96238 2.5604
-1.32083 -1.98869 2.47937
-0.883794 -1.5301 2.85244
-0.455495 -2.34655 2.08608
-0.0777431 -1.41503 2.7848
-0.755581 -1.31956 2.91357
-0.776715 -2.26776 2.22285
-0.360061 -1.62796 2.57537
-0.950961 -2.77464 1.47406
-0.0997679 -1.46663 2.77921
0.404295 -2.05766 2.29816
-1.81817 -2.18513 2.33031
-1.09162 -2.67995 1.60845
0.549197 -2.21043 2.11279
-0.135468 -2.76234 1.4111
-1.45518 -2.70267 1.4527
1.03939 -2.01081 2.26615
0.340536 -2.05513 2.30618
0.252721 -2.59562 1.61842
-0.564822 -1.99909 2.38704
-0.879694 -2.67913 1.66039
0.259465 -2.15342 2.15703
-1.18753 -2.71535 1.66391
-1.37045 -2.24443 2.27404
1.15806 -1.79883 2.4879
-0.471591 -2.5094 1.89979
0.0351421 -1.70775 2.49824
0.751517 -1.83831 2.46785
-1.31613 -2.57966 1.81042
0.387542 -1.59629 2.65185
-1.01164 -2.45731 2.01817
-0.488507 -2.75647 1.48666
0.819374 -1.5769 2.63738
-0.488282 -1.70152 2.63337
0.921435 -2.1892 2.11012
-1.78818 -2.63786 1.80682
-0.694493 -1.92468 2.4636
-0.563011 -2.34007 2.08314
0.423559 -2.47381 1.83593
0.669572 -1.4839 2.71809
-0.440939 -1.42546 2.85707
