ply
format ascii 1.0
comment Created by Open3D
element vertex 200
property double x
property double y
property double z
end_header
-1.35188 2.75108 0.39747
1.15771 1.45325 -2.55294
1.94756 2.60018 -1.28174
-1.8233 1.26485 -2.25078
-0.807053 0.619357 -3.02749
0.0850841 1.16191 -2.86413
-2.10148 1.63328 -1.6667
-2.81875 1.18603 -1.60131
-1.04195 2.54403 -1.68298
0.540773 2.63545 -2.30664
1.14975 3.52907 -1.40251
-1.35292 2.73744 0.471949
-1.56226 0.894068 -2.66101
-2.33829 0.99037 -2.18704
1.35073 3.11393 -1.73337
0.711311 3.73143 -1.01611
-1.24584 0.622341 -2.93755
-0.88864 1.6108 -2.49116
-1.03112 1.999 -2.17597
-2.29875 0.866434 -2.33356
-0.439381 0.214913 -3.25903
-0.0857258 3.49072 -0.309834
-1.53363 2.68785 -0.0950684
-0.450259 1.97384 -2.45698
1.58664 3.13541 -1.36769
-1.54676 1.80505 -1.97345
0.832995 0.742146 -2.88639
-0.146415 3.51467 -1.0824
-1.11527 2.81517 -1.15126
-0.439707 3.3857 -0.750408
1.27573 2.9687 -1.90347
0.571968 0.763251 -2.9454
-0.863446 1.95626 -2.29759
-2.02857 2.0962 -1.04548
-1.58368 1.94892 -1.80195
1.41644 2.03448 -2.23423
1.12759 3.3043 -1.74403
0.0570089 3.61628 -0.765586
1.62101 2.63844 -1.79371
2.03435 2.09307 -1.57348
-1.07569 1.03524 -2.74538
-0.876419 3.09946 -0.801904
-1.22073 2.81101 -0.92155
-0.106883 3.50922 -0.422326
-0.405455 0.949464 -2.92483
-2.68772 1.05864 -1.87539
1.37264 2.91407 -1.86324
-2.19461 1.44868 -1.80032
-1.31728 2.74204 0.540077
1.74505 2.81389 -1.47619
-0.628546 3.19857 -0.00805395
-0.419409 3.37315 -1.00472
0.0348931 2.2012 -2.46595
1.26997 1.56207 -2.46831
0.351848 0.365264 -3.13094
2.19116 2.12676 -1.22312
-0.245405 1.79401 -2.59273
0.325416 3.44572 -1.71096
0.848202 1.37151 -2.68725
0.99426 1.55202 -2.58727
0.731825 3.0514 -2.0749
-0.828539 3.05183 0.213738
-1.84885 2.30159 -0.910985
0.43489 3.34877 -1.84836
-1.62064 2.20223 -1.45653
-1.68843 1.83256 -1.8282
-2.28957 1.13986 -2.06428
1.37102 1.93453 -2.29625
0.603807 3.03503 -2.09675
-2.10965 1.52154 -1.79092
1.27391 1.64628 -2.4407
0.819256 3.27409 -1.90436
1.58925 2.26749 -2.01542
0.813435 1.56525 -2.6385
-0.834328 1.46645 -2.5899
0.362229 3.03071 -2.08725
-1.31924 1.54988 -2.32572
-2.68116 0.895248 -2.07892
0.856836 1.02167 -2.79071
-0.370215 3.39997 -1.02257
-2.22993 1.37324 -1.85649
1.87338 2.38529 -1.62777
0.262791 3.23938 -1.90718
0.0618836 3.61915 -0.995498
1.03593 3.42458 -1.67403
1.12144 3.39618 -1.64845
0.669345 3.26704 -1.93239
-1.83262 0.852213 -2.57779
0.400404 0.926627 -2.92045
0.0933857 3.58735 -1.26114
-1.00417 0.828313 -2.8789
-1.18793 2.91711 -0.333555
-2.99415 0.811819 -1.99412
0.54669 2.62118 -2.31272
-0.097369 3.54244 -0.599609
-1.38114 1.24514 -2.50153
-0.0724248 1.59409 -2.69877
-0.0853597 0.595638 -3.08302
2.03966 2.16754 -1.51098
-0.770448 0.71967 -2.98233
-0.626294 3.19927 -0.00663499
-0.681388 1.39056 -2.67484
-2.14417 2.06184 -0.920034
0.761606 2.34665 -2.39539
0.709056 2.5145 -2.34025
-0.634353 3.18977 0.0177995
0.472921 2.79431 -2.2318
0.19713 0.947786 -2.93507
0.488299 3.47082 -1.72529
-1.3921 1.83209 -2.06584
-1.81288 0.753064 -2.66278
-0.535694 2.86318 -1.80494
-2.22381 1.39656 -1.83516
-0.859635 2.84096 -1.5028
0.333928 2.49379 -2.36912
0.000204124 0.999753 -2.92441
1.64192 2.44346 -1.88216
-1.48024 0.875713 -2.7049
0.172588 3.2763 -1.83973
1.13576 2.73336 -2.11459
-1.12576 2.69838 -1.36582
-0.608867 3.2693 -0.34175
1.57239 2.98842 -1.58271
1.17127 3.57374 -1.21669
0.92381 0.927411 -2.79894
-1.84851 1.90603 -1.58721
-0.789895 1.28176 -2.69886
1.67352 1.96413 -2.06677
-2.05351 2.08563 -1.02561
1.18951 2.30238 -2.26658
1.6267 2.00083 -2.09249
-0.982817 2.99243 0.136531
-0.21846 3.49568 -0.640963
-1.2109 1.82589 -2.19138
-2.47855 1.06398 -2.01672
-0.367421 1.8772 -2.52779
-0.530015 3.23207 -1.24948
-0.763255 2.83471 -1.62383
0.434596 3.69352 -0.693594
-0.267123 2.68679 -2.11775
-1.13777 1.21603 -2.6208
-0.151593 3.42934 -1.36741
-0.693003 3.1853 -1.02883
-0.0573263 2.76513 -2.15129
0.416523 2.84809 -2.20131
0.53972 1.30524 -2.77622
-1.25095 2.87166 -0.143979
-1.92467 2.31986 -0.684402
-3.07832 0.994968 -1.6807
0.776107 2.76039 -2.22175
-0.406217 3.08634 -1.66334
1.12416 1.33655 -2.60176
0.30955 3.69215 -0.834959
0.991375 3.5396 -1.53999
1.52802 2.35655 -2.02833
1.42507 1.98384 -2.24631
1.47378 3.18731 -1.50362
0.976357 2.74515 -2.17512
-1.47808 2.03748 -1.80696
0.243735 1.71975 -2.66589
-1.31764 2.76312 -0.81515
0.265907 3.6623 -1.20375
-0.532621 1.21491 -2.79047
0.926622 1.94109 -2.49064
0.0171036 1.29486 -2.81589
0.801343 3.44833 -1.74421
-1.85043 2.1129 -1.28769
0.847169 3.71301 -1.01566
0.191904 2.99035 -2.08002
-0.702671 3.19104 -0.149157
-1.04385 1.59962 -2.43138
0.153718 3.65423 -0.919606
1.03053 2.76943 -2.14371
-1.01446 1.15198 -2.69978
-1.0257 1.0166 -2.77062
0.0663476 3.61336 -1.07354
1.35338 3.00935 -1.81404
2.05406 2.27523 -1.39289
0.0851404 -0.294802 -3.48032
0.16068 3.04158 -2.03515
1.08682 3.63532 -1.05766
-0.39157 0.191051 -3.27086
0.797286 3.46095 -1.73079
-0.277566 0.512527 -3.12034
-0.790131 3.17627 -0.580825
-2.41343 1.70444 -1.21683
0.526591 2.37727 -2.41562
-0.964381 2.94314 -1.13997
1.61194 2.20415 -2.02283
0.916641 1.34034 -2.67602
1.3133 2.16391 -2.25104
1.28227 2.1314 -2.27973
1.23697 2.95595 -1.93811
0.000764446 1.17809 -2.85843
-1.34697 1.73038 -2.17751
-0.406199 3.17895 -1.53197
1.24199 1.48363 -2.50559
-1.61066 2.56068 -0.701569
0.204031 3.65681 -0.72764
1.14797 3.1149 -1.8886
