ply
format ascii 1.0
comment Created by Open3D
element vertex 400
property double x
property double y
property double z
end_header
1.16315 2.32824 1.82254
2.27034 1.65458 1.58844
2.07916 1.48707 1.95314
1.1932 1.75291 2.33456
2.32549 1.43816 1.78771
0.801962 3.10218 0.73268
2.27939 1.51322 1.77899
1.74118 2.45396 1.09006
1.91049 2.15298 0.843691
1.0849 2.52127 1.33448
1.24113 3.04638 0.816698
1.18516 2.11586 1.72536
2.65956 1.09097 1.38455
1.80513 1.7964 2.07767
2.32998 1.40278 1.7856
2.26565 1.33013 1.96466
1.31537 1.98048 2.45306
0.59001 2.35602 1.70136
2.25287 1.76267 1.76812
2.6127 1.64373 1.24754
1.08363 2.31424 1.76922
1.60849 3.02188 0.714299
1.95432 1.91319 2.03087
1.78778 2.75214 0.959358
1.57354 2.3268 1.12076
1.19058 1.78659 1.48888
2.38899 1.65485 1.36393
1.96374 1.58807 1.44771
1.79312 2.72697 0.483022
1.99761 2.23866 1.16879
1.45452 2.18598 1.67762
1.21796 1.23042 2.42277
1.60721 2.44025 0.770419
1.35294 2.00663 2.13196
0.513631 2.45147 1.81725
1.20204 3.05465 1.289
2.00753 1.98661 0.726172
2.23159 2.1289 1.42348
1.31599 2.63809 0.66959
0.612804 3.03199 0.664691
1.67625 2.90464 0.910965
2.01011 1.48572 1.81375
2.2093 1.49473 1.79478
1.11651 2.25151 1.85806
0.366847 3.04172 1.41731
1.25405 2.80814 1.02136
1.72024 2.03863 1.64991
2.15313 1.53008 2.08315
1.00766 2.35118 1.36466
1.28103 3.13302 0.583113
2.13214 1.94487 0.942166
1.66346 2.10738 1.68743
1.59212 2.31741 1.5965
1.144 2.09045 1.85881
1.78278 1.57338 2.41672
1.69224 1.33124 2.15361
1.52918 1.59927 2.32264
0.924733 3.51944 0.86699
0.79534 2.14254 1.52059
1.18204 2.82387 1.37051
0.656399 2.90974 1.48004
1.21884 1.37759 2.3384
1.32441 2.42182 1.47997
1.30909 2.17713 1.89362
1.04087 2.89227 1.25142
1.47877 1.60565 2.18723
1.53379 2.88182 0.843777
0.374618 2.50842 1.33122
1.60273 2.63072 0.787099
0.838805 2.86767 1.78696
1.63584 2.15076 1.68278
0.974649 3.38216 0.787973
2.07922 1.71594 1.12835
2.37446 2.14508 1.05668
0.894394 3.11732 1.15123
1.51935 1.4372 2.07199
1.16585 3.38666 0.449652
1.29601 3.11128 0.375058
1.74618 2.29861 1.06596
2.14097 2.21548 1.00026
0.956819 3.08964 0.977891
1.97961 2.25307 1.36782
0.966699 2.22531 1.835
1.49192 2.9907 1.16422
0.743966 3.50007 0.647431
1.5929 2.69834 1.06485
2.39044 1.29566 1.74342
2.45186 1.81457 1.38372
1.27025 3.1994 0.111414
1.87092 1.61156 1.90523
1.50828 2.73014 1.34634
2.5326 1.26137 1.24897
2.10692 1.79388 0.768957
0.835072 2.84605 1.52024
2.3886 1.57539 1.76065
2.13004 2.23377 0.719726
0.882304 2.57448 1.75468
1.28253 1.15611 2.63168
1.09182 3.0555 1.43931
0.777206 2.65696 1.08705
0.951821 3.38371 1.01088
1.61629 2.44323 1.31322
0.902265 2.92602 1.72105
1.19649 3.26386 0.634656
0.454095 2.96372 1.30917
0.795851 2.79468 2.10357
1.71062 2.54811 1.39682
1.96721 2.30219 0.714046
0.286055 2.77024 1.65781
2.03222 1.91803 0.840227
1.86984 2.11685 1.01222
0.460002 3.16051 1.35463
1.00799 2.8983 0.906591
1.70118 1.71157 1.55665
0.593788 2.23071 1.81751
0.242947 3.23516 1.34294
2.27925 2.05331 1.13532
0.883676 3.06713 0.982685
1.4793 2.60415 1.05719
1.677 1.90714 1.61833
2.24691 1.632 1.27571
1.34328 1.22722 2.58385
0.98369 2.51128 1.61393
0.83777 2.58386 1.64455
1.08385 2.25155 1.3715
1.46883 2.68647 1.03522
1.87791 2.11821 0.809258
0.861494 3.27391 0.628503
1.3149 1.50119 2.43227
0.888843 2.66621 1.16518
1.68955 2.77897 1.03702
1.98682 1.54249 1.08855
0.92753 2.93793 1.82123
0.243776 3.15699 1.61821
1.69065 2.52332 0.84188
0.64058 2.56807 1.60833
1.25246 3.1389 0.160375
1.01259 3.20953 0.604212
1.17589 2.05817 2.2784
0.509349 3.14964 1.47506
0.516418 3.31609 0.850172
1.51163 2.70741 0.377684
0.687138 2.32684 1.87648
0.905293 3.03926 0.566744
0.175424 2.9988 1.2514
2.49112 1.66201 1.25575
1.90292 1.55186 2.16699
2.57425 1.28652 1.28054
1.11662 1.47055 2.39892
1.05124 3.01028 1.02772
0.984042 2.98575 1.56124
1.14783 1.98303 1.85357
1.02576 2.44077 1.93353
1.65968 2.87748 0.504746
1.94825 2.23081 0.585342
1.41702 1.42857 2.51448
1.9934 1.65375 1.86852
0.356206 3.28922 0.881417
1.56548 2.89187 0.453939
1.86357 2.0644 1.53683
1.41476 1.91501 2.05094
1.79641 2.97832 0.420606
1.45063 2.81245 0.981649
1.40279 1.88492 1.46883
0.717205 2.31889 1.71615
2.49707 1.27718 1.72609
1.54016 1.45211 1.6514
1.22011 3.47533 0.486993
0.777764 2.48503 2.12873
1.64123 1.27869 2.65385
1.85873 1.64855 1.9513
0.893597 2.73598 1.63398
1.7097 1.29352 1.84814
1.55576 2.65552 0.344335
1.82892 1.35414 2.10638
1.92461 1.18785 1.95377
0.78052 3.57492 1.20102
0.939605 3.02596 0.859249
1.26893 2.8713 0.368092
1.30096 2.88945 0.712163
2.56868 1.47544 1.75752
1.83618 1.61524 1.96962
2.21669 1.73887 1.86122
1.93985 1.66699 2.2009
0.573816 2.60526 1.85528
1.50261 2.88029 0.922404
1.93188 1.78458 1.71973
0.556139 3.35282 1.47136
0.924316 2.35606 2.21711
2.34394 1.51809 1.31144
1.6678 1.30787 2.3118
2.30763 1.44466 1.56928
1.10022 3.21675 0.375558
1.21605 3.2118 0.948457
1.47312 2.16835 2.05271
1.15716 1.16332 2.53613
1.7678 1.90405 0.626656
2.18425 1.46548 1.79223
2.32805 1.79617 1.26315
0.112278 2.97299 1.44083
1.68096 2.64492 1.41568
0.654054 3.19007 0.752907
0.946787 2.83731 1.32127
2.42648 1.47535 1.20608
0.365236 2.93202 1.37624
1.7134 3.18323 0.727497
1.5028 2.08406 2.24802
1.3421 1.13535 2.41097
0.6289 2.14878 1.99282
1.83644 2.00176 1.69466
0.636935 3.31319 0.554826
1.58782 1.91187 1.5937
1.71205 1.35295 2.78522
1.95558 1.48139 1.64864
1.58666 3.08748 0.750761
0.84008 2.17808 2.09488
1.63276 1.97468 1.62004
1.73125 2.69339 1.06032
0.907381 3.07399 0.938564
2.17592 1.25023 1.91306
1.93447 2.47792 0.880823
1.15222 3.30572 0.385247
1.32921 1.82566 2.13559
2.31449 1.63503 1.46883
0.578524 2.10929 1.63976
0.841193 2.01693 2.24932
1.94197 2.27873 0.930867
1.0157 1.63688 2.09053
0.919142 2.74654 1.59915
1.08515 2.12076 2.18948
1.3318 3.06842 0.475412
0.954142 1.54684 2.22123
1.9953 2.07927 0.917783
2.31919 1.31912 1.77466
0.901091 3.61419 0.781562
1.54295 2.32677 1.83565
1.56714 3.10757 0.75576
0.879484 2.71338 1.81209
1.04076 2.08337 1.93365
0.124184 2.75247 1.40375
1.10266 1.34505 2.45915
0.661228 2.62295 1.84838
1.39951 2.14126 1.84094
0.693971 2.53412 1.8102
1.78595 2.09128 1.04969
0.713361 2.34052 2.06181
1.06484 2.8714 1.22584
1.1163 1.60021 1.92806
1.21489 2.33206 1.06964
1.18895 2.91349 0.44817
1.56504 1.3576 2.21406
0.972068 1.8806 2.32126
1.36437 2.75701 1.15511
0.894566 2.12242 2.12468
1.17523 1.5868 2.55069
1.38799 2.78695 1.4689
1.50824 2.44861 1.35676
1.35694 1.72116 2.28713
2.54873 1.47487 1.77343
1.05666 2.56207 1.61459
1.71016 1.95864 2.03262
1.41885 2.67911 0.776491
2.18478 1.61198 1.10633
0.950156 2.76028 1.19491
1.87685 1.83956 1.2165
0.371191 2.82904 1.7452
1.88429 1.74413 2.2051
0.589936 3.25489 1.45406
1.84887 2.99779 1.08018
0.671897 2.29347 1.6282
1.27906 2.73709 1.0604
0.520338 2.99715 1.56763
1.22101 1.7073 2.58524
-0.036758 3.02529 1.32082
1.75737 1.63542 1.75054
1.78366 1.94915 2.22854
0.564044 3.51505 0.863476
1.03946 2.47402 1.53626
1.13247 2.88348 0.827174
0.881226 2.81166 1.50146
1.48523 2.58241 0.689442
1.48925 3.07955 0.256355
2.04263 1.64928 1.41777
0.777079 3.45096 0.636379
1.24046 2.0199 1.87697
1.29306 2.52852 1.31104
1.18704 2.26598 2.30746
0.895045 2.83937 1.23704
1.13171 2.77129 1.5338
2.52464 1.38137 1.35878
1.65997 2.3726 1.30593
1.94938 2.34235 1.33146
1.54284 1.77995 1.77343
1.89608 1.39481 1.86423
2.32005 1.97569 1.61664
1.22661 3.45242 0.621619
2.21389 2.06089 0.842715
1.02993 1.6607 2.18977
1.06864 2.05449 1.76639
0.523073 3.20734 1.03498
2.26982 1.45911 1.36403
1.95278 1.6046 1.61804
0.762009 3.40883 1.15059
1.03182 2.6457 1.76656
0.33504 3.29266 1.2594
1.13947 2.19186 1.65938
0.888217 2.7969 1.39964
2.49266 1.34766 1.28673
1.01444 2.95729 1.08808
1.17874 2.62373 1.56497
0.484649 3.25925 1.46162
2.11181 1.58662 1.83093
0.86803 3.08434 0.98442
1.07742 2.95306 0.108009
1.58896 2.86516 0.916739
1.65448 2.11151 1.93886
1.71797 2.43605 0.435359
0.944934 1.62892 2.11719
0.25607 2.92317 1.54853
1.10254 1.89219 2.08253
1.46511 1.77002 1.87939
1.02961 1.74227 2.18683
1.47577 2.73015 0.840507
1.4975 1.21059 2.81362
2.04742 2.15318 0.964066
1.78163 1.99377 1.83735
2.4415 1.87788 1.53776
1.7082 3.07369 0.599334
0.963067 2.32857 1.93086
2.09441 1.98357 1.48926
1.59857 1.6448 2.32225
1.07141 3.20466 0.928528
1.59128 1.22215 2.61632
0.42979 2.54216 1.74779
1.35048 2.92095 0.272369
0.756794 3.3118 1.24886
0.298381 2.98799 1.48922
0.489977 3.08051 1.21827
0.64493 3.40262 0.912033
1.99474 1.63795 1.63094
1.06034 1.68671 1.71131
2.18394 1.91768 0.913212
2.00163 1.54294 2.53011
1.1597 2.84295 0.775402
1.35568 2.35516 0.923353
1.73336 1.68228 1.58677
1.80708 2.10408 1.56465
2.53239 1.56543 1.83788
1.20465 1.95577 1.7345
2.80965 1.23493 1.44088
1.69655 3.03823 0.431947
2.04691 2.14735 1.07454
1.07571 3.62619 1.11466
1.8567 1.31472 2.09159
1.42479 1.95001 1.67026
0.478562 2.94338 1.62467
1.44533 2.52413 0.581728
1.21677 3.0042 0.459307
1.39754 3.09535 0.653619
1.81526 2.46306 1.11836
1.85263 2.27733 0.512832
0.750223 3.2965 0.42214
1.54367 1.76884 2.26475
0.571227 2.76008 1.72008
0.863879 3.30038 0.288577
1.16862 1.85922 2.50255
0.553425 2.88443 1.53485
1.78471 2.11846 1.85034
1.63821 1.70351 2.42174
2.55887 1.31686 1.63231
1.17099 3.18499 0.470234
0.975492 3.23881 1.40307
1.18766 1.81236 2.25839
0.898252 2.98694 1.49243
1.20343 2.81218 0.461295
0.760089 2.55017 1.64472
1.46235 2.03289 1.5791
2.07441 1.63744 1.08985
1.73626 1.2683 2.14668
1.71351 2.28491 1.60155
1.63873 2.97713 0.238825
1.55107 2.43455 1.551
0.903463 3.1855 1.44632
1.40466 1.31808 2.69498
2.3147 1.518 2.26933
2.17427 1.43089 1.80417
1.86358 1.61223 2.1685
1.35293 2.04219 1.8173
1.19956 3.08321 0.333455
2.09794 1.25736 1.86929
0.923634 2.2039 2.05513
1.52121 1.50775 2.29894
1.78728 1.59792 2.00041
2.31194 1.22215 1.40319
1.8504 2.01978 1.47047
1.95354 2.28579 0.944779
0.81982 2.07638 2.08028
1.67792 2.23628 1.64511
1.20477 2.39697 1.54354
1.13071 1.90356 1.63416
