ply
format ascii 1.0
comment Created by Open3D
element vertex 250
property double x
property double y
property double z
end_header
-1.64838 -0.918481 -2.03087
-2.69716 -2.25496 -0.480675
-0.217678 -3.19075 -0.237027
-1.11846 -3.17146 -1.42821
-2.2165 -1.54081 -2.03516
-0.496467 -2.64269 -2.12121
1.78967 -1.79459 -1.95887
0.143319 -2.61101 -1.27092
-1.8658 -1.17861 -2.43227
-1.27358 -2.66292 -1.62196
-2.21798 -2.90561 -0.984138
-0.64429 -2.97871 -1.74615
-2.01237 -2.54894 -1.69377
-0.521291 -2.17498 -2.2149
-2.65543 -2.86312 -2.45078
-2.3333 -1.9112 -1.60024
-0.460002 -2.58608 -2.50113
1.07299 -2.73869 -1.39657
0.0066942 -2.50775 -2.49238
-0.358214 -3.01592 -0.187065
-2.70746 -2.98293 -1.1688
1.46082 -2.05919 -0.762027
-0.68251 -2.12962 -1.73375
0.493254 -2.58437 -1.58314
-0.443794 -3.12492 -0.69605
-1.7927 -2.09006 -2.20184
0.0572058 -1.87707 -1.96561
-2.57998 -2.0222 -0.940598
-0.202048 -3.13252 -0.869919
-1.31941 -2.76577 -1.38604
-1.63636 -0.777395 -2.04952
-2.60417 -1.95477 -0.53421
-2.30264 -1.25686 -1.93015
-2.50928 -2.84607 -0.492487
-2.78718 -2.34731 -0.541217
1.51526 -2.11136 -2.15952
-0.385441 -3.33983 -0.518111
-2.69538 -2.63868 -0.53015
-2.13423 -2.82448 -2.96929
0.0484648 -2.91232 -0.716408
-0.0723046 -2.95573 -0.725236
0.0470277 -2.40025 -1.72492
-2.36034 -2.7787 -1.24425
-2.38175 -2.09303 -1.57049
-1.08798 -3.43844 -0.696962
-2.44876 -2.26543 -1.06121
0.56696 -3.20869 -0.298784
-2.52854 -2.27927 -1.24485
0.495552 -2.51739 -2.25269
-2.15513 -2.42401 -2.27396
-2.09467 -2.66915 -0.374849
-0.906608 -3.37161 -1.08583
0.794929 -3.11805 -0.476567
-3.01975 -2.0958 -2.09585
-0.450042 -2.65016 -1.1429
1.2781 -2.92197 -0.328769
-0.431573 -2.9755 -1.17988
-2.07547 -1.47373 -2.60324
-1.19673 -2.75706 -0.682628
-0.516538 -2.77378 -2.0748
0.11104 -2.2669 -1.39355
0.632081 -2.68585 -1.50087
-0.289985 -2.89757 -0.437304
-2.18746 -1.75366 -1.93552
-2.86995 -1.99302 -1.55134
-2.6488 -2.92838 -0.75025
-1.8126 -3.11252 -1.55964
1.46509 -2.39545 -1.25684
-1.63496 -1.3966 -2.14324
-0.83703 -2.57632 -2.08497
-1.45397 -2.64231 -1.18136
0.121113 -2.88137 -0.158442
-2.51439 -1.86446 -2.77344
-0.0602652 -3.09261 -1.29036
-0.20192 -3.33307 -1.13445
1.23239 -2.34426 -2.33652
1.19109 -2.84339 -0.163318
-1.81918 -2.23014 -1.2984
-1.98674 -2.80194 -1.68194
-0.450589 -2.55726 -1.64597
-0.387107 -2.11314 -2.23182
-2.08576 -2.97998 -0.631359
-2.37461 -2.34885 -2.19517
0.537603 -2.06737 -1.83094
-0.2719 -2.69324 -1.5001
-2.50277 -1.81809 -1.36116
1.03907 -2.27493 -1.64043
-1.8567 -1.33415 -2.31916
0.966406 -2.09153 0.0608327
-1.80231 -3.09732 -1.9712
-0.372337 -3.41323 -0.46346
1.28632 -2.40673 -0.988151
-2.12714 -2.36435 -2.31986
-1.32358 -2.20294 -1.17526
-2.43868 -3.19073 -1.38171
0.154588 -3.02143 -0.789084
-1.60099 -1.80676 -2.5797
-2.21628 -1.45124 -2.10204
-1.51345 -2.86138 -0.409211
-0.89014 -2.22833 -2.64683
-2.33534 -2.94206 -1.81951
-2.31465 -1.9612 -1.9192
-1.87627 -1.99997 -1.73056
-1.75006 -1.68279 -2.58603
-2.34317 -2.69561 -1.01819
-0.600549 -2.08808 -2.09322
-0.554637 -2.44841 -2.20991
1.38899 -2.84224 -0.215077
1.29128 -2.49174 -1.35698
-0.196484 -2.97073 -1.66256
-0.605308 -3.2456 -0.691173
-1.49647 -2.94915 -0.497927
-0.128159 -3.0459 -1.36811
-2.02503 -1.72748 -2.86734
1.71577 -2.39254 -0.250651
-1.65331 -2.90638 -1.45242
1.10649 -2.66538 -0.902855
-2.61508 -1.82383 -2.4504
-2.32213 -2.36346 -1.81821
-2.43671 -2.70183 -1.10284
1.49947 -2.01178 -2.07851
-1.9841 -2.63023 -0.557965
-0.182823 -2.46701 -1.34891
-2.41145 -2.66162 -1.39886
1.45814 -2.05185 -1.74353
1.33865 -2.74818 -0.928873
-0.254022 -2.65281 0.106072
-1.05012 -3.31958 -0.856154
-0.475689 -2.66262 -2.02656
0.714639 -2.96059 -0.418969
0.40854 -2.70002 -1.09466
1.19202 -2.81719 -1.38338
-1.77518 -2.40717 -1.01468
0.968004 -3.05113 0.0033468
-0.428077 -2.99654 -0.272473
0.266142 -2.78325 -0.923404
1.17588 -2.77305 -0.650574
0.41434 -2.37128 -0.832235
-2.46437 -2.57642 -0.608474
1.22714 -2.36396 -1.92921
-2.66371 -2.56907 -0.577321
-2.76889 -1.90268 -1.43743
0.318001 -3.22252 -0.324197
-2.02065 -2.48973 -1.76753
-2.22257 -2.48137 -2.2166
-2.65891 -2.53534 -0.488236
-1.46205 -2.4746 -2.65791
1.11331 -1.96223 -1.35423
-2.18304 -2.58009 -0.455305
-1.74154 -2.16446 -2.32603
0.937879 -2.92922 -0.240307
-1.53818 -1.92044 -2.27081
0.366856 -3.29154 -0.850435
-2.44226 -1.83121 -1.26028
-1.64041 -1.11578 -2.13039
-3.21047 -2.98514 -2.31813
0.620644 -3.06437 -1.70305
-0.0360274 -1.54505 -2.02203
-0.798596 -1.96326 -1.98689
0.59759 -3.22547 -1.08348
-2.40135 -3.32518 -0.91846
-0.948801 -2.95957 -0.655325
-3.01789 -2.94599 -0.896466
-2.25289 -2.57083 -1.86357
-0.207097 -3.08685 -0.804218
1.58853 -2.06092 -1.44135
1.45971 -2.06279 -1.81199
-1.88757 -2.48947 -0.862472
-1.54811 -1.55423 -2.17334
0.197649 -2.83965 -0.355661
-2.54709 -3.14891 -1.32453
0.508634 -2.66551 -2.22558
-0.310458 -2.95922 -1.07267
-2.65358 -2.65691 -0.578353
-2.89718 -2.19248 -0.611506
-2.43742 -2.62412 -1.29307
-2.88827 -2.76794 -1.42447
-1.78334 -2.78029 -1.84574
0.62143 -2.8823 0.0184349
-1.37339 -2.87656 -2.31888
0.708322 -2.85981 -0.230004
-0.143547 -1.93047 -2.44853
-1.98185 -1.84602 -2.44585
-1.3627 -2.8859 -0.995357
-2.08169 -3.31025 -1.54533
-2.52344 -2.2897 -0.237965
-0.0376892 -2.79748 -0.837811
-0.548726 -2.94085 -2.0756
-2.55128 -2.94778 -1.87489
-1.69544 -3.0493 -2.20998
-2.49851 -3.16905 -1.51547
-2.38006 -2.68112 -0.455845
-1.34704 -2.90412 -1.996
-3.19415 -2.61921 -1.95664
-0.00611685 -3.21913 -1.51413
-2.96507 -2.75974 -0.666934
1.11584 -2.94005 0.163249
-2.90242 -2.75336 -1.42173
-1.12872 -2.97952 -1.74006
-1.20356 -3.18073 -1.30432
1.15067 -3.05953 0.720848
1.34643 -2.98433 1.03447
0.788575 -3.0945 0.823053
0.717193 -3.59446 1.08176
1.10511 -2.45295 0.762734
0.871651 -3.32112 0.142276
0.193044 -3.14978 0.808122
0.347285 -3.73035 -0.204071
0.917482 -3.0177 1.39019
0.638681 -3.0041 0.571876
-0.180216 -3.26875 0.416195
1.23801 -2.72738 1.0939
0.926284 -2.84207 1.6417
0.887469 -3.13219 1.43449
0.271532 -3.3731 1.12343
0.940814 -3.28672 1.0148
0.485784 -3.03048 0.785725
1.1579 -2.96507 0.945833
0.173797 -3.12823 0.44392
0.181772 -2.81318 0.265697
0.68727 -3.45366 0.843538
-0.0789458 -3.05897 0.0638836
0.00268276 -3.24467 0.439164
1.13544 -3.19392 1.13837
0.186668 -3.12867 1.28974
0.986031 -3.0439 1.35407
0.567076 -2.68456 1.0793
0.41498 -3.03073 0.190427
-0.00575051 -3.35164 1.01459
1.23138 -3.12718 1.31365
0.664411 -2.99701 1.37168
0.506529 -2.56311 0.487031
1.22049 -2.78455 1.62738
1.26072 -2.91141 1.27669
0.141113 -3.2169 -0.00953909
0.406413 -3.1705 0.8433
0.968514 -3.32536 0.251738
0.0349961 -3.8147 0.525709
0.956435 -2.90115 0.336581
0.372203 -3.01442 0.426486
0.586339 -2.86282 1.27955
1.15623 -2.86373 0.847672
0.557198 -2.97125 1.22621
0.996148 -2.90281 1.6917
0.809795 -3.26396 0.121067
0.641741 -3.18475 0.580178
1.00279 -3.45786 0.448723
0.607756 -3.38448 1.26119
0.611885 -3.1728 0.695796
0.643163 -2.83633 0.486106
