ply
format ascii 1.0
comment Created by Open3D
element vertex 250
property double x
property double y
property double z
end_header
0.441244 -1.95415 -2.09597
-0.144852 -3.55332 -0.572963
1.82493 -2.47733 0.359766
1.39956 -3.03456 -0.976682
0.15681 -2.70079 -2.10286
1.73663 -2.24139 -1.61367
3.32568 -0.27019 -1.13203
2.32836 -1.92245 -0.661064
0.157166 -2.15387 -2.48481
1.38606 -2.88802 -1.28651
0.593827 -3.6641 -0.828691
1.69756 -2.57352 -1.21987
0.803173 -3.2963 -1.53347
1.68807 -1.99406 -1.79545
0.0748824 -3.72736 -2.34872
0.345829 -3.10693 -1.63315
1.62924 -2.1062 -1.98632
2.85059 -1.30742 -0.567076
1.92933 -1.74272 -1.89485
1.8135 -2.51517 0.348807
0.0962444 -3.96335 -1.09957
3.334 -0.822885 0.00800953
1.76611 -2.18929 -1.36845
2.48114 -1.61228 -0.896037
1.80287 -2.59985 -0.138987
0.733586 -2.7843 -2.06706
2.14922 -1.49133 -1.48638
0.131756 -3.37757 -1.02943
1.96625 -2.42304 -0.254708
1.381 -3.00377 -1.04907
0.364154 -1.84097 -2.13943
-0.0146474 -3.35132 -0.658174
-0.0649933 -2.56409 -2.07571
0.052749 -3.75778 -0.435268
-0.250755 -3.64179 -0.634536
3.06916 -0.579751 -1.32708
1.69546 -2.63811 0.0802762
-0.133578 -3.75171 -0.550011
0.308673 -3.26316 -2.74993
2.20806 -2.17641 -0.0924664
2.116 -2.27699 -0.118619
2.20693 -1.81644 -1.15914
0.511798 -3.67564 -1.13222
0.364435 -3.25554 -1.58006
1.19981 -3.1447 -0.221906
0.370279 -3.45607 -1.06999
2.37617 -1.95358 0.468309
0.280932 -3.48846 -1.26225
2.32 -1.45761 -1.55793
0.479586 -3.19613 -2.1518
0.563088 -3.47319 -0.261251
1.43704 -2.98992 -0.568267
2.59147 -1.7556 0.329595
-0.530528 -3.48284 -2.23207
1.99043 -2.3809 -0.653009
2.99419 -1.36379 0.539542
1.89326 -2.49712 -0.628298
0.0134306 -2.43461 -2.63983
1.46693 -2.98159 -0.346328
1.7268 -2.32921 -1.54907
2.35333 -1.76935 -0.847712
2.56237 -1.57399 -0.769407
1.97866 -2.42486 0.103202
0.333185 -2.85574 -1.95771
-0.284211 -3.42745 -1.6904
0.00161051 -3.88703 -0.696987
0.944809 -3.46959 -1.2592
3.19672 -0.901686 -0.410711
0.644055 -2.2517 -2.10922
1.5417 -2.45429 -1.66121
1.32663 -3.06244 -0.901379
2.20675 -2.14478 0.454036
-0.321634 -2.90904 -2.82561
2.06353 -2.26724 -0.637862
1.89114 -2.47741 -0.475229
2.81289 -0.85546 -1.51625
2.94893 -1.40194 0.66694
1.0238 -3.06556 -1.16745
0.835322 -3.41737 -1.47012
1.91211 -2.25929 -1.15743
1.76524 -1.86404 -1.79532
0.57956 -3.60961 -0.449821
0.280468 -3.2961 -2.1368
2.50121 -1.28538 -1.22043
2.02603 -2.21974 -0.954648
0.149103 -3.16735 -1.45714
2.85527 -1.07503 -0.89336
0.306157 -2.28886 -2.34168
3.08903 -1.28351 0.706513
0.904235 -3.4002 -1.65808
1.65094 -2.65415 0.147744
3.1148 -1.06766 -0.185873
0.470328 -3.13188 -2.20185
1.4699 -2.76344 -0.946948
0.395313 -3.90983 -1.20768
2.22938 -2.13702 -0.121753
0.629303 -2.38973 -2.44926
0.0805263 -2.62118 -2.18569
1.08985 -3.22081 -0.134105
1.25753 -2.17074 -2.28436
0.518021 -3.68724 -1.65238
0.292419 -3.06808 -1.92954
0.812976 -2.88463 -1.64282
0.442914 -2.39628 -2.51145
0.504474 -3.63479 -0.926209
1.67904 -2.02926 -1.70937
1.67722 -2.16429 -1.74741
3.095 -1.26597 0.658559
3.04729 -1.05019 -0.526969
1.97483 -2.26313 -1.0476
1.63585 -2.75345 -0.147587
1.09362 -3.2443 -0.200313
2.0327 -2.28711 -0.735208
0.0600878 -2.51292 -2.8374
3.46322 -0.855794 0.61443
1.11031 -3.28314 -1.15853
2.9442 -1.31638 -0.0953136
-0.31172 -3.0132 -2.54044
0.451002 -3.34949 -1.75597
0.415528 -3.68508 -1.027
3.07869 -0.5529 -1.26989
0.7806 -3.40996 -0.418117
2.15655 -2.079 -0.829602
0.465654 -3.63094 -1.31374
3.13131 -0.660795 -0.945975
3.07733 -1.19085 -0.0573075
2.01464 -2.32654 0.590541
1.33369 -3.0795 -0.386415
1.7771 -2.25553 -1.51368
2.59382 -1.75286 0.341083
2.48354 -1.79621 -0.419875
2.91788 -1.26404 -0.515442
1.09617 -3.1691 -0.851116
2.6904 -1.64072 0.816111
1.79931 -2.55619 0.249114
2.38652 -1.95232 -0.269312
2.97285 -1.34237 0.181764
2.61515 -1.68872 -0.222177
0.240838 -3.63001 -0.582855
2.90559 -0.940228 -1.11832
-0.0501324 -3.71083 -0.599967
-0.176667 -3.33542 -1.57481
2.19894 -2.12501 0.393954
0.77222 -3.25539 -1.61783
0.454805 -3.28458 -2.09958
-0.0912804 -3.68279 -0.520343
0.884853 -2.69302 -2.36948
3.00916 -0.923195 -0.656095
0.52485 -3.48683 -0.373063
0.744879 -2.76883 -2.16319
2.74462 -1.60079 0.55445
0.869963 -2.50345 -2.1122
2.25764 -2.08813 -0.0901957
0.246038 -3.16167 -1.34329
0.507914 -2.06392 -2.15268
-0.429094 -4.13707 -2.31807
2.44415 -1.72287 -0.900631
2.03327 -1.3577 -1.62232
1.57453 -2.11889 -1.67028
2.43661 -1.8828 -0.278154
0.237593 -3.9342 -0.733214
1.54821 -2.89123 -0.233363
-0.427123 -4.07224 -0.916795
0.550658 -3.42486 -1.74599
1.97953 -2.41443 -0.200287
3.29002 -0.628994 -0.623671
3.11513 -0.65317 -1.01014
0.976188 -3.28755 -0.713943
0.778788 -2.29848 -2.08931
2.3069 -2.06936 0.273459
0.285793 -3.95457 -1.18379
2.32507 -1.52736 -1.5021
1.97526 -2.41602 -0.50248
-0.0465587 -3.74863 -0.582893
-0.409931 -3.59994 -0.755855
0.434332 -3.63403 -1.22434
-0.0677855 -3.93606 -1.4244
0.963713 -3.24919 -1.58973
2.51318 -1.8097 0.728768
1.11215 -2.93202 -1.94611
2.61571 -1.73095 0.504337
1.82026 -1.54463 -1.98959
0.363288 -2.67917 -2.39294
1.33065 -3.12486 -0.659874
0.692194 -3.73321 -1.26749
-0.0167512 -3.47921 -0.295829
2.20453 -2.18278 -0.247153
1.68564 -2.43173 -1.52659
0.313177 -3.81189 -1.75152
0.925664 -3.26265 -1.87615
0.36009 -3.92872 -1.35306
0.250131 -3.62491 -0.400099
1.22405 -2.99082 -1.62163
-0.48585 -3.94449 -2.0345
2.03681 -2.25396 -0.820947
-0.469872 -3.9329 -0.72036
2.82197 -1.50759 0.981871
-0.0875389 -3.9348 -1.42765
1.40851 -2.91788 -1.31428
1.34466 -3.10975 -0.873228
2.69571 -1.54599 1.54496
2.81991 -1.39941 1.87456
2.34278 -1.78303 1.57129
2.01758 -2.02122 1.88994
2.91725 -1.35095 1.4717
2.4867 -1.81247 0.975618
1.79817 -2.16722 1.43857
1.9717 -2.29629 0.602212
2.30888 -1.66551 2.1282
2.33503 -1.84707 1.28355
1.5743 -2.45744 1.00478
2.80873 -1.36588 1.8639
2.29619 -1.58442 2.34013
2.22395 -1.72757 2.18386
1.63861 -2.18609 1.79438
2.34942 -1.76423 1.82072
2.12453 -1.94773 1.45984
2.68275 -1.50626 1.7458
1.93711 -2.188 1.08324
2.1827 -2.08443 0.861746
2.10258 -1.98239 1.63091
1.91249 -2.3395 0.654881
1.73299 -2.33446 1.06176
2.52958 -1.61129 1.96501
1.58926 -2.1342 1.89264
2.37657 -1.63656 2.11306
2.26431 -1.76786 1.69914
2.25485 -2.00279 0.875446
1.42026 -2.34307 1.6266
2.59528 -1.52748 2.14203
2.08082 -1.80571 2.05209
2.49479 -1.78481 1.10004
2.60764 -1.39149 2.38036
2.70507 -1.42236 2.07547
2.00743 -2.24676 0.657552
1.96456 -2.04358 1.52154
2.54341 -1.75575 1.10204
1.45339 -2.51428 1.24819
2.68842 -1.60294 1.10793
2.16302 -2.02344 1.08959
2.10497 -1.80683 1.92438
2.74754 -1.46814 1.63398
2.0479 -1.86554 1.88564
2.32463 -1.56671 2.41358
2.46389 -1.82933 0.93227
2.2498 -1.91003 1.32289
2.48706 -1.79237 1.32135
1.9185 -1.99386 2.00113
2.19457 -1.92268 1.42507
2.44769 -1.78628 1.17398
