ply
format ascii 1.0
comment Created by Open3D
element vertex 400
property double x
property double y
property double z
end_header
2.54178 1.88239 0.201127
1.84044 2.52235 -0.695901
2.10274 2.22876 -0.9433
2.6895 1.54814 -0.493884
1.89811 2.43589 -1.00024
2.08909 2.15838 1.23857
1.93223 2.43264 -0.902814
1.89515 2.54627 0.364928
1.53007 2.59686 0.062734
2.2595 2.00992 0.456428
2.03764 2.46208 1.13071
2.3723 1.8321 -0.0543296
1.35677 2.63178 -1.36913
2.38729 2.11474 -0.546535
1.88079 2.42517 -1.04412
2.00757 2.30855 -1.1581
2.85286 1.71517 -0.243053
2.56905 1.4577 0.362683
2.03332 2.51807 -0.593796
1.48315 2.8483 -0.63711
2.51021 1.82461 0.199658
1.86018 2.75437 1.13078
2.3686 2.29205 -0.41976
1.90471 2.73313 0.749864
1.90358 2.35636 0.210779
2.0476 1.7493 -0.437384
1.63323 2.65829 -0.653101
1.76713 2.28317 -0.738773
1.50245 2.81255 0.857138
1.80937 2.6382 0.0936658
2.30991 2.0868 -0.00780041
2.53619 1.33138 -1.14623
1.66206 2.49885 0.413641
2.60861 1.82959 -0.221698
2.71073 1.40711 0.511233
2.42495 2.33799 1.08029
1.34159 2.62295 -0.102281
1.91532 2.72343 -0.0890806
1.73077 2.37717 0.66713
2.04544 1.99355 1.18161
1.95542 2.72071 0.941187
2.00603 2.2024 -0.920145
1.95224 2.36676 -0.923088
2.54598 1.80444 0.118595
2.67848 1.62801 1.24884
2.09816 2.33086 0.810708
2.17004 2.24037 -0.208381
2.20831 2.27828 -0.91452
2.22685 1.86984 0.264034
1.87575 2.57366 1.28881
1.47112 2.6611 -0.204011
2.24073 2.21676 -0.12495
2.273 2.26861 0.139518
2.47324 1.75843 -0.079157
2.56447 1.93053 -0.83779
2.27569 1.81431 -1.10438
2.55168 1.75822 -0.754401
2.34309 2.40083 1.72531
2.30179 1.57654 0.0505867
2.3957 2.20723 0.801262
2.6198 1.79616 1.00322
2.53147 1.41191 -0.961995
2.28181 2.12625 0.300182
2.50422 1.91968 -0.00605564
2.36029 2.14974 0.908764
2.45875 1.75029 -0.732389
1.92421 2.61422 0.925674
2.38973 1.43313 0.582988
1.7568 2.57244 0.638275
2.80351 1.85535 0.919352
2.26122 2.21428 -0.0702047
2.2128 2.39947 1.56097
1.5384 2.48926 -0.5266
1.59153 2.9093 0.0210622
2.40623 2.1494 1.20697
2.29039 1.73775 -0.940118
1.89778 2.61398 1.64076
1.69257 2.61352 1.32334
1.80902 2.48924 0.184415
1.62984 2.77055 0.109216
2.24556 2.22449 1.17877
1.97959 2.59137 0.0726956
2.54608 1.67778 0.118242
2.237 2.5647 0.996355
2.19758 2.29411 1.75503
2.0116 2.53965 0.661561
1.78966 2.43667 -1.17445
1.7016 2.76974 -0.461778
1.51504 2.67387 1.53237
2.16036 2.12605 -0.76324
2.2681 2.43004 0.660845
1.34466 2.62828 -1.11621
1.27253 2.61049 -0.342961
2.59042 1.90525 0.884272
1.91973 2.54769 -0.829766
1.41043 2.82074 0.209846
2.64748 1.7751 0.553528
2.6557 1.30655 -1.25941
2.56555 2.21806 1.08747
2.18621 1.87637 0.673813
2.3954 2.33634 1.53555
2.09685 2.39991 0.318869
2.76573 1.94694 0.970557
1.99133 2.55317 1.43657
2.54843 1.69336 1.11646
3.02151 1.71379 0.868471
2.18711 2.50091 0.427168
1.47341 2.72657 0.281467
2.76157 1.38982 0.966257
1.40017 2.59217 -0.214755
1.66086 2.51848 -0.0208801
2.66365 1.76902 1.36177
2.09802 2.19942 0.950644
1.9624 2.10693 -0.587566
2.60433 1.38061 0.218165
2.72217 1.62218 1.53272
1.6395 2.78343 -0.115414
2.25509 2.15608 1.15967
1.99103 2.41315 0.552977
2.09877 2.15743 -0.358128
1.58442 2.55562 -0.660874
2.63638 1.39581 -1.18343
2.49289 1.86265 0.453614
2.57525 1.76847 0.571544
2.17446 1.88681 0.134927
2.01059 2.4442 0.654829
1.49506 2.56371 0.0279754
2.06458 2.29757 1.46181
2.63726 1.51989 -0.831774
2.2285 1.95216 0.664641
2.00138 2.65391 0.762977
1.45452 2.35279 -0.728537
2.84282 1.94912 0.982897
2.89717 1.52274 1.46895
1.73564 2.58441 0.499407
2.57773 1.60999 0.599575
1.53597 2.62805 1.43165
1.98538 2.39376 1.3788
2.77721 1.6747 -0.119443
2.74228 1.77657 1.34098
2.32802 1.99427 1.53707
1.47562 2.60956 0.839248
2.67266 1.48332 0.312357
1.90813 2.24668 1.17999
2.5675 1.49152 1.24693
1.52527 2.76065 -0.618546
2.33532 2.07124 -0.865358
1.37132 2.66502 -1.09283
2.636 1.3537 -0.821831
2.23182 2.25534 1.0678
2.65213 2.07493 1.02112
2.42314 1.7174 -0.208335
2.70139 1.79362 0.36575
1.61548 2.77042 1.02132
1.34236 2.70527 0.231647
2.65157 1.55411 -0.9466
2.12324 2.24813 -0.720464
2.37154 1.84633 1.53998
1.60225 2.7138 1.04688
2.06046 2.3872 -0.174345
2.49502 1.85883 -0.341955
1.55368 2.92949 1.19355
2.02492 2.4939 0.814765
2.02935 1.9633 -0.343909
2.54134 1.5424 0.285057
1.74506 2.51605 -1.20129
1.9621 1.85086 -0.893854
1.95218 2.68529 1.74424
2.91446 1.56349 0.498365
2.65566 1.64304 -1.19007
2.21476 2.12219 -0.721557
2.62054 1.88016 0.741216
2.0159 1.87747 -1.12669
1.41578 2.62721 0.790668
2.22042 1.94296 -1.09305
2.01125 1.98209 -1.29608
2.65763 2.23713 1.79091
2.1286 2.20896 1.11659
1.5939 2.49474 1.02521
1.87417 2.46297 0.961057
1.83653 2.6477 -0.962801
2.21995 2.08651 -0.761112
2.10547 2.46093 -0.634609
2.40247 2.14142 -0.732282
2.79319 1.51173 0.683729
1.99417 2.57438 0.906812
2.07316 2.28531 -0.538359
2.81514 1.89991 1.58001
2.90153 1.60874 0.304757
1.544 2.5765 -0.80935
2.39498 1.75097 -1.14014
1.72945 2.4678 -0.951898
1.78243 2.50708 1.44546
2.21804 2.48564 1.30953
2.59148 2.01189 -0.0482713
2.60778 1.22881 -1.21669
1.28223 2.42337 -0.189232
1.9434 2.33542 -0.956791
1.62442 2.68932 -0.45749
2.70994 1.38139 1.26288
2.24958 2.51486 0.540836
2.17227 2.07342 1.3626
2.41074 2.03625 0.853796
1.42217 2.64256 -0.837889
2.6022 1.5912 1.10899
1.91337 2.89928 1.33184
2.70181 1.95659 -0.158657
2.46438 1.39552 -1.29449
2.69711 1.33319 0.122159
2.16512 2.3069 -0.267052
2.06939 2.1515 1.544
2.10018 2.0943 -0.34167
2.77516 1.70198 -1.1176
1.88452 2.19146 -0.898263
1.9225 2.7584 1.19985
2.74907 1.49426 0.104102
2.138 2.15071 -0.27364
1.97456 2.64549 0.65629
2.21826 2.18708 1.16932
1.9523 2.21516 -1.24125
1.69124 2.74488 0.445967
1.8148 2.58177 1.55725
2.54005 1.73367 -0.435434
1.72635 2.572 -0.698413
2.42052 1.35928 0.064139
2.79927 1.39114 -0.0821051
1.64646 2.65756 0.19397
2.48638 1.41155 -0.597356
2.59325 1.91324 0.747704
2.75217 1.64784 -0.0245289
1.74898 2.60537 1.241
2.56102 1.29393 -0.689867
1.53956 2.61708 -0.040898
1.83973 2.38426 -1.14562
2.31873 2.43826 1.86102
2.47499 2.18229 0.138627
1.93953 2.7509 1.22218
2.75045 1.81784 0.723701
2.54809 1.6552 -0.0661433
2.58975 1.31019 0.972995
2.63314 1.27665 -0.973913
2.77994 1.59279 0.677265
2.42992 1.98849 -0.0618578
2.70781 1.59159 0.556764
1.69941 2.43566 -0.0598209
2.81466 1.46621 0.336042
2.32651 2.16552 0.882347
2.32604 1.51429 -0.663586
1.9436 2.08885 0.241481
1.6957 2.43648 1.05099
2.35935 1.71032 -1.05394
2.7736 1.42441 -0.281562
2.15892 2.36818 0.725537
2.73855 1.50844 0.023488
2.7903 1.41483 -0.690092
2.41448 2.33357 0.726457
2.15712 2.3086 0.326227
2.60838 1.6782 -0.569641
1.85346 2.62876 -0.965628
2.50051 1.94259 0.500489
2.43954 2.11709 -0.334848
1.81087 2.45323 0.694848
1.45308 2.53153 -0.647614
2.27895 2.03419 0.766711
1.70687 2.36722 -0.393226
2.83752 1.46351 1.01876
2.44934 2.12852 -0.630663
2.7556 1.89148 1.44543
2.09187 2.86056 1.0189
2.47174 1.51543 0.261683
2.09377 2.31243 0.719275
2.74757 1.70027 1.15562
2.85841 1.49417 -0.551822
2.6643 1.30673 1.37927
2.07189 2.07873 -0.705958
2.57402 2.12914 -0.368639
2.41074 2.11131 1.77928
2.40594 1.90914 0.399862
2.00166 2.30696 0.935913
2.55258 1.93235 0.832804
1.6845 2.48029 0.599321
1.53392 2.76682 1.34576
1.75152 2.37637 -0.663034
2.16172 2.30242 1.69063
2.43856 1.80205 -0.181486
2.20079 2.1828 0.443113
2.88459 1.76417 0.130358
2.35635 2.01435 0.86768
2.51124 2.10915 0.738285
1.48512 2.65098 -0.992172
2.05157 2.40561 0.234152
1.9949 2.61283 0.186055
2.19537 1.96478 -0.50951
2.03216 2.06401 -1.02626
1.98646 2.68988 -0.312223
2.05174 2.65673 1.67582
1.41916 2.79034 -0.0312971
2.57013 1.41029 -0.569949
2.40129 1.70355 -0.107374
2.42573 1.91383 1.39367
1.57853 2.48432 -0.892034
1.91232 2.24707 -0.743895
2.55334 2.16475 1.5888
2.65813 1.92339 0.605637
2.66697 1.74261 1.56385
2.36228 1.84237 0.0452446
2.46622 1.95479 0.813957
1.41989 2.62582 -1.01675
2.26487 2.19123 1.00209
2.46364 2.07741 0.554467
2.78156 1.80459 1.48545
2.04019 2.32107 -0.807968
2.26688 2.15049 1.18244
1.45871 2.42813 1.19716
1.96357 2.63579 0.890463
2.44191 2.15753 -0.13837
1.36016 2.64277 0.507746
2.51692 1.34467 -0.589665
2.74732 1.45486 1.15545
2.57067 1.59068 -0.307559
2.29012 1.87584 -0.517489
2.60201 1.44479 -0.470388
1.87104 2.5063 0.743238
2.77946 1.46334 -1.24893
1.59608 2.67944 0.0389511
2.28607 2.23035 -0.286215
1.85489 2.75863 -0.417948
1.76341 2.87229 1.23711
2.66395 1.69616 0.2457
1.93772 2.54288 -0.2737
2.55675 1.83307 -0.711782
2.23036 2.37324 1.31358
2.6127 1.58767 -1.24896
2.71055 1.39255 0.642756
1.516 2.59411 1.12405
2.59047 2.09841 1.46732
2.72231 1.53147 1.21351
2.52074 1.79245 1.24679
2.38708 2.11998 1.61662
1.92753 2.29133 -0.708214
2.20516 1.5542 -0.545219
1.42402 2.69475 -0.227153
2.59732 2.06884 -0.921375
1.93721 2.3215 0.894634
1.80624 2.23856 0.281993
1.96708 2.11367 -0.629002
2.11156 2.354 -0.127235
1.94631 2.64082 -0.864229
2.3079 1.77805 -0.248599
1.42803 2.7968 -1.20309
1.61258 2.87718 1.25124
1.68341 2.65578 0.0056131
2.55256 2.51361 1.80862
2.18674 1.95185 -1.14443
2.21052 1.96505 -0.284222
2.77578 1.62967 1.10816
1.58181 2.44541 0.553635
1.73606 2.49353 1.16073
1.89059 2.63451 1.22757
1.90496 2.60185 0.370437
1.32516 2.66496 0.30222
1.93187 2.25996 1.53771
2.57457 1.85349 -0.548146
2.75572 1.60687 0.861218
1.79955 2.37486 1.57294
2.86763 1.5337 -0.352984
2.66986 1.68844 1.00409
2.34826 2.28263 -0.138716
2.65098 1.86745 -0.65093
1.67232 2.59888 -1.13547
1.83052 2.53128 1.38065
2.6374 2.20983 1.33024
2.65665 1.58592 -0.421167
2.61603 2.02185 1.04013
1.66078 2.40292 0.923977
2.57587 1.69123 0.549421
2.16619 2.04943 -0.183444
1.47549 2.46005 -0.613557
2.2353 1.82488 -1.18891
2.23739 2.34935 0.0900848
1.44004 2.83994 1.24369
2.29545 2.29552 0.286207
2.66263 2.11977 1.27937
2.74849 1.45817 -1.08564
2.31742 2.36279 -0.971449
1.94068 2.31078 -1.00047
2.36969 2.06477 -0.785908
2.37906 1.91469 -0.171895
1.66955 2.53565 1.29509
1.93677 2.16542 -1.21809
2.71417 1.58267 0.11073
2.49666 1.71893 -0.864523
2.24706 2.03392 -0.778807
1.50255 2.41129 -1.19531
1.99169 2.37162 -0.217609
1.65803 2.66679 0.199545
2.69902 1.43856 -0.0146367
2.2588 2.29161 0.0308925
2.34568 2.00691 0.282483
2.22258 1.71914 -0.295805
