ply
format ascii 1.0
comment Created by Open3D
element vertex 400
property double x
property double y
property double z
end_header
-2.68001 -0.324415 -1.29891
-1.37345 -2.21041 -1.70513
-2.85176 -0.861152 -1.21804
-2.56561 -1.65458 -0.331074
-2.33849 -0.595138 -1.91251
-2.73336 -0.724662 -1.73995
-3.19949 -1.31568 -0.430607
-2.45253 -1.05459 -1.53948
-1.6552 -2.49557 -2.12371
-1.24515 -2.77527 -1.5422
-3.3194 -0.501273 -1.44013
-2.70819 -1.39003 -1.1583
-2.07671 -1.97233 -0.865625
-1.65803 -2.12512 -1.69667
-2.07191 -1.95715 -1.47943
-3.2033 -0.095483 -1.35111
-3.05812 -0.466718 -1.30457
-1.73808 -2.60921 -1.29248
-3.51609 -0.804235 -0.63774
-2.11129 -2.16725 -0.840391
-2.41204 -1.25521 -1.5375
-2.22272 -1.50202 -1.61246
-2.00406 -1.98536 -1.45336
-2.87684 -1.35801 -1.14168
-3.54103 -0.959932 -0.794964
-2.46083 -1.29668 -1.85075
-2.73396 -1.83032 -0.484595
-1.62342 -1.68571 -2.37917
-2.3059 -1.6621 -0.828614
-1.59683 -1.43955 -2.35542
-2.84159 -0.512323 -1.83849
-2.13239 -1.82359 -1.2036
-2.89761 -1.40558 -0.361535
-1.74383 -2.04214 -1.49054
-2.83622 -1.47168 -0.598744
-2.80348 -1.47773 -0.926259
-1.40063 -2.27802 -2.14063
-1.54797 -1.27454 -2.16011
-3.10873 -0.61751 -0.998626
-3.16507 -1.46233 -0.562682
-2.31815 -1.84224 -0.955792
-1.8485 -0.864831 -2.02427
-1.56548 -2.24878 -1.19863
-2.00596 -1.63931 -1.33114
-1.4873 -1.95522 -1.5829
-3.3045 -1.18816 -0.341955
-1.8039 -1.17814 -2.05108
-2.30328 -1.48091 -0.882334
-1.36638 -1.48674 -2.58495
-2.40312 -1.43387 -0.97196
-1.37008 -2.71377 -1.33443
-3.03607 -1.34763 -0.533231
-2.17042 -2.18718 -0.979116
-1.24909 -2.6531 -1.61225
-1.55877 -2.33437 -1.05312
-2.11005 -1.1245 -1.52465
-2.36206 -0.621776 -1.69637
-2.7928 -0.543451 -1.93968
-3.0363 -1.11781 -0.892282
-3.13376 -1.39593 -0.845628
-1.85618 -2.42269 -1.01005
-2.03108 -0.826984 -1.93289
-2.73415 -1.36478 -0.522786
-2.70459 -0.257482 -1.58072
-1.94951 -1.0353 -2.1962
-1.68986 -2.31372 -1.1589
-1.67282 -1.36248 -2.39418
-2.85293 -1.17644 -1.58589
-1.93751 -1.88292 -1.11682
-1.68441 -1.23899 -2.08207
-2.01473 -1.53813 -2.29295
-3.35341 -1.35034 -0.522049
-3.03594 -0.905112 -1.6128
-1.3859 -2.82757 -1.50736
-1.66164 -2.12786 -1.56995
-2.39151 -0.68812 -1.81402
-3.14665 -0.510925 -1.17846
-3.24694 -0.21634 -1.04788
-1.96521 -1.62223 -1.8162
-1.89935 -1.10534 -2.13779
-1.79025 -1.74298 -2.24957
-1.44908 -1.5243 -2.43202
-1.44094 -1.63582 -1.85411
-2.21873 -1.48619 -1.9853
-1.43038 -2.17147 -1.61681
-3.22041 -0.942606 -0.812357
-2.85283 -0.880108 -1.41762
-1.71672 -1.73303 -1.79422
-3.13509 -0.887946 -1.22405
-2.73767 -0.633946 -1.74576
-1.18304 -1.7605 -2.01048
-2.06738 -1.84469 -1.47706
-2.87794 -1.46 -0.463162
-2.02513 -2.20899 -1.41024
-1.71452 -1.739 -2.24073
-3.09939 -0.790912 -1.21222
-1.78962 -2.09346 -1.84421
-3.02476 -0.467868 -1.57221
-1.82266 -1.03879 -2.40539
-1.64612 -1.83011 -1.65059
-1.47063 -1.4197 -1.76251
-1.9036 -1.82894 -2.00063
-2.58018 -1.77284 -0.67902
-2.93443 -0.808284 -1.58145
-3.57251 -0.745974 -1.34946
-1.84377 -1.39058 -1.81786
-1.6832 -2.18183 -1.73767
-2.191 -1.02012 -1.967
-1.9374 -1.09409 -1.78728
-2.48287 -1.82844 -0.696219
-3.41512 -1.05901 -0.906233
-1.6489 -2.02535 -1.52736
-1.65462 -2.16213 -0.93513
-2.55519 -1.41312 -0.468044
-1.96518 -1.19585 -2.1506
-2.53643 -0.668311 -1.66129
-2.06502 -2.09739 -1.50032
-1.93887 -2.25273 -1.08982
-2.66382 -1.52905 -0.158531
-1.92619 -0.889799 -2.21118
-2.90909 -1.32428 -0.693616
-3.22327 -0.125554 -1.20538
-2.26221 -1.98674 -1.20212
-1.23701 -1.52508 -2.72781
-1.45956 -1.88681 -2.4917
-3.16758 -1.363 -0.164582
-2.52166 -1.42605 -0.941513
-3.14426 -0.263906 -1.56159
-1.2803 -1.83634 -2.14893
-3.0479 0.0602029 -1.15755
-1.28092 -1.79339 -2.332
-1.51663 -1.6343 -2.56012
-2.7395 -0.756766 -1.34852
-3.15057 -1.19101 -0.515932
-3.15875 -0.594695 -1.05095
-2.45119 -1.32631 -1.17488
-3.24823 -1.12808 -1.09212
-1.81516 -2.01804 -1.46654
-3.52356 -0.826066 -0.941678
-1.82543 -2.42906 -1.08178
-2.26084 -1.96468 -0.558187
-3.35828 -0.468971 -0.728918
-3.26923 -1.16241 -0.213994
-1.9115 -1.13525 -2.13307
-1.56855 -2.09781 -1.87324
-2.01116 -2.09379 -0.712573
-1.67367 -2.22937 -1.24892
-3.03249 -1.91803 -0.609956
-1.6323 -1.97196 -1.61412
-1.96789 -1.29559 -2.38769
-3.07353 0.0333007 -1.3573
-3.22934 -0.617777 -0.868757
-3.49025 -0.793128 -0.70457
-2.35865 -1.12748 -1.76358
-3.07277 -1.41326 -0.640946
-1.2084 -2.41368 -1.06248
-2.68669 -1.66226 -0.331751
-3.37658 -0.291878 -1.16498
-2.9117 -1.70874 -0.377341
-3.24739 -0.376066 -0.880912
-3.13416 -0.928072 -1.0018
-2.49671 -1.85107 -0.659906
-2.90388 -1.76001 -0.427413
-1.67711 -0.898924 -1.91897
-2.58902 -1.64561 -1.41833
-2.82102 -0.519878 -1.75948
-3.04711 -1.59734 -0.40854
-1.18582 -1.50538 -2.67884
-2.52295 -0.537115 -0.986566
-2.52281 -1.81608 -0.566737
-3.32038 -0.649795 -1.17949
-2.59679 -0.409869 -1.58532
-3.08882 -1.15628 -0.928451
-3.1478 -0.737426 -1.03424
-2.16717 -1.02502 -1.87585
-2.64292 -1.07285 -1.71404
-2.24269 -1.32904 -1.83027
-1.5464 -1.77694 -1.93735
-2.82513 -1.21537 -0.87426
-2.25086 -1.92525 -1.26275
-2.6497 -1.31236 -1.64032
-2.33881 -1.61934 -0.947047
-2.56202 -1.40749 -0.824739
-1.86909 -1.85572 -1.78201
-2.0059 -1.22377 -1.96332
-1.76725 -1.91291 -1.62868
-1.10178 -2.50256 -1.35452
-1.59103 -2.6618 -1.31833
-3.35148 -0.851798 -0.660271
-1.37447 -2.5168 -1.15411
-2.76805 -0.41199 -1.15038
-3.54995 -0.770638 -0.936313
-3.21147 -1.14912 -0.181943
-1.91418 -1.12806 -2.17498
-1.55023 -1.43039 -2.22533
-1.77817 -1.38392 -2.02194
-2.12835 -0.746937 -2.0296
-2.35891 -1.17544 -1.32563
-1.65265 -2.44794 -1.37922
-3.4703 -0.813434 -0.760924
-3.29032 -0.649493 -0.919707
-2.19948 -1.46529 -1.81797
-1.64803 -1.26202 -1.98251
-2.3643 -1.8373 -0.970491
-1.99594 -1.46647 -2.16434
-1.90011 -0.91859 -2.32046
-1.3766 -1.30004 -2.30994
-2.61569 -1.71048 -0.87957
-2.67659 -0.985623 -0.931883
-2.47064 -0.879514 -2.1349
-2.79369 -1.65517 -0.60421
-1.51383 -1.49517 -2.42488
-1.77176 -2.18031 -1.6137
-1.72803 -2.273 -0.943092
-3.11071 -0.97233 -0.339866
-2.37118 -0.361591 -1.6753
-2.15844 -1.98572 -1.14968
-1.23362 -1.42916 -2.62608
-1.49725 -2.21303 -2.16947
-3.21097 -0.728526 -0.991542
-1.41258 -1.628 -1.97909
-1.91752 -1.57652 -1.4433
-2.66564 -1.77143 -0.377416
-2.39986 -1.31267 -2.12108
-2.29021 -1.92753 -1.49827
-2.83954 -1.43167 -1.15006
-2.46593 -0.540971 -1.80999
-2.19881 -0.594278 -1.89755
-1.8793 -1.89209 -1.23679
-2.61376 -1.70363 -0.974154
-2.03301 -1.34721 -1.85272
-2.1634 -1.32841 -1.91364
-2.60812 -1.82814 -0.483948
-2.65818 -0.384204 -1.588
-2.04965 -1.17338 -1.73648
-1.68287 -0.603789 -1.9311
-1.2034 -1.22488 -2.38914
-3.28172 -0.645756 -1.14039
-3.07372 -1.42917 -0.719799
-2.66918 -1.29961 -0.913217
-2.13674 -1.24439 -1.56442
-1.87479 -2.32932 -1.57912
-1.32775 -1.70315 -2.76058
-2.4817 -0.929725 -1.66256
-1.3966 -2.23303 -1.92178
-2.38478 -1.20277 -1.65506
-2.65377 -1.32158 -1.20802
-2.00224 -1.65674 -0.884025
-3.19308 -0.336604 -1.2619
-1.82057 -1.34973 -1.87577
-3.36952 -0.545138 -0.861908
-1.45977 -1.22376 -2.57757
-2.55989 -1.10419 -0.52094
-2.34525 -1.82812 -1.60404
-1.65054 -1.59734 -2.42427
-2.65057 -1.80805 -0.716456
-1.78442 -1.0576 -2.22393
-2.18989 -2.02846 -0.667282
-1.72884 -2.56238 -1.29955
-3.03943 -1.00433 -1.40983
-3.02683 -0.300803 -1.53171
-1.80229 -1.99963 -2.2024
-3.1334 -0.185829 -1.26711
-2.70414 -1.65129 -1.22643
-1.77143 -2.43132 -1.52178
-1.34982 -1.47088 -2.29797
-2.33521 -1.05902 -1.83282
-1.43356 -1.78994 -2.22625
-2.05839 -1.27355 -2.00385
-1.87912 -0.88149 -2.19718
-3.10816 -1.2969 -0.292498
-2.93611 -0.83317 -0.803726
-2.33404 -1.73015 -1.32803
-1.28312 -1.64213 -2.51613
-2.4308 -2.0953 -0.834854
-1.27421 -1.37494 -2.54222
-3.56155 -0.860819 -0.649692
-1.38715 -1.24405 -2.51886
-1.54056 -2.4456 -1.57491
-2.93164 -1.0604 -0.454067
-1.98713 -1.36332 -1.46927
-2.85815 -0.59113 -1.62956
-1.78305 -1.48519 -2.42207
-2.55151 -1.15552 -1.73086
-1.60233 -2.24028 -1.70053
-3.28818 -0.420063 -1.19938
-3.05226 -0.518754 -0.777668
-2.97651 -0.859723 -0.729233
-1.78439 -1.59765 -2.26574
-1.46327 -2.54652 -1.88997
-1.43505 -1.56065 -2.46712
-1.2095 -2.37682 -1.65027
-2.24185 -0.81591 -2.00862
-2.69705 -1.37402 -1.36542
-1.37784 -2.19465 -1.82868
-2.87025 -0.446563 -1.61641
-1.67234 -2.02521 -1.54217
-1.49599 -1.91858 -2.51858
-3.29974 -1.52143 -0.779973
-3.18179 -0.190162 -1.09918
-1.67658 -1.93155 -1.6073
-2.86671 -0.709735 -0.944339
-2.05248 -2.22205 -1.22787
-3.41997 -0.477373 -0.968572
-1.81668 -2.20768 -1.41638
-2.27603 -1.5917 -1.51856
-3.25628 -0.197224 -1.35713
-3.13394 -1.11724 -1.11492
-2.15749 -1.96326 -1.18785
-3.14251 -0.739912 -1.38158
-2.02928 -2.46736 -1.34373
-1.92536 -0.582311 -1.87718
-2.19848 -1.11906 -1.66522
-3.37402 -1.25955 -0.525775
-2.54017 -0.807606 -1.65291
-2.65548 -1.09029 -1.54291
-1.5955 -1.08211 -2.44461
-2.54219 -2.05345 -0.864058
-2.21487 -1.90997 -0.598386
-1.50032 -1.48077 -2.81914
-2.84137 -0.100024 -1.49717
-3.33413 -0.569579 -1.57961
-1.86238 -2.2058 -1.46271
-3.43181 -1.10532 -0.574251
-2.97673 -1.31521 -0.696407
-2.45782 -1.03002 -1.43533
-1.46771 -2.2925 -1.40486
-1.32476 -2.43563 -1.86185
-1.66132 -2.40197 -1.0449
-2.78715 -1.3052 -1.43607
-2.43622 -0.99744 -1.67086
-1.31183 -1.56289 -2.44863
-2.50282 -2.02639 -0.897194
-1.47107 -1.56265 -2.41007
-2.58975 -1.55246 -0.352572
-1.31961 -1.59749 -2.13208
-2.24772 -1.41586 -1.40717
-1.63239 -1.86147 -1.66639
-1.58738 -1.64837 -1.48098
-1.30229 -2.85454 -1.48678
-2.77917 -1.66182 -0.7982
-3.22498 -1.58213 -0.620264
-3.16257 -0.78544 -1.66514
-2.60828 -0.818669 -1.96601
-2.77109 -0.853399 -1.64827
-2.84681 -1.56748 -0.843477
-2.49183 -1.87841 -1.11025
-2.13354 -1.44453 -1.87486
-2.16766 -1.89607 -1.85603
-2.19982 -0.980717 -1.62324
-2.15354 -1.31797 -1.61122
-1.40409 -2.52857 -1.42018
-2.27905 -1.22636 -1.89783
-3.2745 -0.47727 -0.918434
-2.23479 -0.937841 -1.93814
-3.29861 -0.726842 -1.17311
-2.78382 -1.51222 -0.255941
-2.60365 -0.329169 -1.65256
-2.02918 -2.2325 -1.24163
-3.07152 -0.89503 -0.614818
-3.18206 -1.28471 -0.697957
-2.75139 -1.21545 -0.335737
-2.51763 -1.03191 -1.4342
-2.13746 -1.98217 -0.731364
-2.6025 -1.50323 -0.239316
-2.77972 -1.05045 -1.19648
-2.40121 -2.1634 -0.909094
-2.80752 -0.468014 -1.69528
-2.16495 -1.86418 -0.746283
-1.84128 -1.4292 -1.53527
-3.56235 -0.922023 -0.647184
-2.90669 -0.354335 -1.49006
-1.73796 -1.45286 -1.79162
-2.18611 -0.762905 -2.08956
-3.09264 0.00299897 -1.34263
-1.43972 -2.46851 -1.96596
-1.89689 -1.47097 -1.51334
-1.90636 -0.940197 -2.06735
-2.6293 -1.77683 -1.13725
-2.79781 -0.636322 -1.61404
-2.03544 -2.19912 -1.76063
-3.05297 -0.630495 -1.52059
-3.1762 -0.482541 -0.808574
-1.27794 -2.0418 -1.67062
-2.55999 -1.20545 -1.66533
-2.1305 -2.34677 -1.19875
-1.58143 -1.86947 -1.51474
-3.11189 -0.391719 -1.25514
-1.83252 -2.074 -1.13803
-2.94733 -0.80785 -1.28625
-2.47941 -0.727014 -1.91203
-1.51693 -2.33746 -1.35093
-2.50795 -1.71371 -0.814414
-1.51492 -2.08471 -2.049
-3.51501 -0.502826 -1.14106
-2.71166 -1.69938 -0.979917
-2.55641 -0.69886 -1.3198
-1.89583 -1.76191 -2.12351
-1.60457 -2.24152 -1.16412
-2.40467 -1.59641 -0.495216
