ply
format ascii 1.0
comment Created by Open3D
element vertex 250
property double x
property double y
property double z
end_header
0.308215 -2.27531 2.47777
0.932818 -0.951599 3.7203
2.5592 -0.704664 1.35391
1.87054 -1.89752 1.81221
0.299966 -2.35518 2.74932
1.63696 -2.48203 1.00751
2.53347 -2.18277 -0.384004
2.43263 -1.67072 1.24958
-0.052183 -2.65928 1.9899
1.72395 -2.07228 2.37632
1.48876 -1.50354 3.22813
1.86792 -2.16222 1.25446
1.27589 -2.15505 2.96916
1.46173 -2.5405 1.25434
0.428088 -2.87464 2.3369
0.800293 -2.00975 3.35983
1.33486 -2.8169 0.529926
2.67189 -1.73883 -0.0101656
1.49939 -2.78067 0.116638
2.57938 -0.666177 1.80135
1.04192 -1.68029 3.21786
3.21289 -1.11526 0.922531
1.79568 -2.1179 2.09119
2.347 -1.93612 0.581107
2.39748 -1.16433 1.56729
0.823492 -2.56725 2.36962
1.8259 -2.27189 1.20365
0.952223 -1.39679 3.84778
2.42392 -1.3181 1.21931
1.85435 -1.86099 2.5428
0.185669 -2.27187 2.40073
0.963104 -0.990817 3.93955
0.0776568 -2.2197 2.80525
1.19583 -0.998136 3.23135
0.838723 -1.01155 3.61814
2.31831 -2.39248 -0.609568
2.38057 -0.984108 1.19808
0.997291 -1.02155 3.42598
0.284522 -3.32146 1.31799
2.62918 -1.15973 1.37013
2.57267 -1.17451 1.42959
2.09609 -2.08403 1.10363
1.3091 -1.75077 3.31801
0.883794 -2.0017 3.38699
2.01042 -1.1877 1.64837
1.16368 -1.54063 3.74311
2.88242 -0.731402 0.587195
1.01617 -1.71345 3.62782
1.87115 -2.54123 -0.096455
0.697699 -2.66956 2.41151
1.63233 -0.891799 3.45983
2.0293 -1.56008 1.48651
2.9488 -0.892918 0.433982
-0.106621 -2.45943 2.81169
2.31877 -1.58821 1.98757
3.2562 -0.731256 0.347085
2.25463 -1.6247 1.50788
-0.157345 -2.8469 1.86363
2.20885 -1.19044 2.88395
1.67798 -2.44706 0.967565
2.35081 -1.77545 1.53936
2.44559 -1.85594 0.403083
2.60598 -0.910376 1.88176
0.565546 -2.29477 2.91747
0.326373 -1.95336 3.35525
1.09011 -1.25916 3.2207
1.53194 -2.05214 2.46411
2.91521 -1.58131 0.10157
0.567503 -2.43652 2.40077
1.5374 -2.46468 1.4704
1.90257 -1.67201 2.95911
2.8384 -0.619826 1.58493
-0.377667 -3.04432 1.82127
2.29557 -1.70703 0.847885
2.26762 -1.5685 0.766847
2.10008 -2.57634 -0.739893
3.2909 -0.576347 0.61783
1.56141 -1.76765 3.43275
1.35645 -2.15925 2.79491
2.00002 -2.04707 1.59302
1.48323 -2.54488 1.13509
1.5971 -1.15305 3.08092
0.571551 -2.59336 2.63371
2.14824 -2.13753 0.739743
2.15525 -1.90775 1.40256
0.726197 -1.77412 3.59128
2.49342 -1.94862 0.256141
0.184838 -2.58175 2.20198
3.4654 -0.374876 2.05996
1.30492 -2.43287 2.11652
2.36586 -0.928181 1.06871
3.00124 -1.34182 0.507027
0.647495 -2.70416 2.34723
1.93382 -1.64345 3.25942
1.2285 -1.89835 2.88882
2.60823 -1.22239 1.05004
0.432319 -2.86529 1.72264
0.171278 -2.40209 2.63154
2.0394 -0.928388 2.98615
0.93806 -2.942 0.96207
1.09217 -2.30112 2.78982
0.609096 -2.30356 2.98159
1.12125 -2.1404 3.06442
0.251475 -2.85845 1.79476
1.3768 -1.5288 3.47097
1.51276 -2.43069 1.55282
1.51557 -2.55455 1.11166
3.36339 -0.618005 0.418527
2.78448 -1.68466 0.0758316
2.05953 -2.05864 0.83711
2.29363 -1.16543 1.53115
2.01689 -1.01533 2.8354
2.24144 -1.78317 0.925339
-0.187442 -3.11051 1.48555
3.55556 -0.632858 0.680763
1.66652 -1.94032 2.63585
2.96056 -1.27686 0.455165
-0.203812 -2.75268 2.29592
0.904229 -2.2553 3.06024
1.27519 -1.60966 3.45516
2.34924 -2.31394 -0.433264
1.74628 -1.07861 3.52793
2.28941 -1.75826 1.70718
1.1864 -1.8909 3.33285
2.5711 -2.01327 -0.0620492
3.03539 -1.2921 0.111871
2.81971 -0.382914 2.39233
2.05189 -1.34561 1.79639
1.71866 -2.39662 1.08171
2.97132 -0.841501 0.766352
2.60891 -1.49355 0.998012
2.72758 -1.72347 -0.19734
1.78184 -1.51376 3.52006
3.19399 -0.424935 0.588499
2.54587 -0.753843 1.88889
2.63901 -1.34276 1.18137
3.09865 -1.03866 0.436891
2.79882 -1.2453 1.63329
1.28318 -1.11358 3.60077
2.38095 -2.20681 -0.313686
1.0438 -1.06985 3.53027
0.442046 -1.84171 3.46857
2.76177 -0.766229 0.783362
1.20189 -2.21807 2.92683
0.728125 -2.62472 2.50906
1.0295 -0.976992 3.52534
0.75996 -2.99454 1.3497
2.69892 -1.67217 0.785129
1.56736 -0.969974 3.59786
0.780377 -2.68313 2.14464
3.13404 -0.660657 0.6884
0.827489 -2.606 2.13976
2.59688 -1.26914 0.398963
0.857704 -1.68498 3.69066
0.37317 -2.38922 2.3756
0.140257 -2.76254 2.62821
2.30747 -2.05284 -0.193188
1.64178 -2.30285 1.40206
1.48442 -2.33643 1.95525
2.60406 -1.47855 0.11995
1.27092 -1.43952 2.71343
2.26856 -1.15216 2.35736
0.684373 -1.38886 3.13989
1.01056 -2.31455 2.91091
2.45933 -1.25609 1.32985
2.8329 -1.73257 0.127834
2.52578 -2.076 -0.146689
1.76914 -1.37321 3.58378
0.703136 -2.48112 2.32304
2.82957 -0.807509 1.50551
1.16104 -1.84153 2.99309
1.91272 -2.52286 -0.206669
2.34767 -1.51694 1.47192
1.06095 -1.07487 3.44985
0.641416 -1.06176 3.63609
1.19901 -1.78794 3.42702
0.770668 -1.91185 3.30878
1.35595 -2.30226 2.49479
3.08665 -0.425242 1.15838
1.20104 -2.71742 1.49445
3.05878 -0.661284 1.01397
1.33664 -2.71219 0.695583
0.331021 -2.75707 2.12869
2.00477 -1.49738 2.7063
1.3887 -2.0517 2.45733
1.12706 -0.7178 3.70213
2.5785 -1.27992 1.55978
1.67563 -2.45592 0.840539
0.916647 -2.35499 2.8495
1.18211 -2.64353 1.80396
1.14779 -2.02705 2.88662
1.35214 -0.964408 3.45298
1.45784 -2.42638 1.82699
0.158306 -2.38936 2.98447
2.17764 -1.91398 0.445276
0.683923 -1.14739 3.22675
3.3365 -0.265392 0.687338
0.752163 -1.90758 3.31603
1.71241 -2.18421 1.79296
1.89331 -1.7852 1.97064
3.45143 0.278494 0.646044
3.64367 0.589327 0.697417
3.23564 0.372517 0.83424
3.11414 0.626097 0.194134
3.60665 0.313401 1.62186
3.11609 -0.292977 0.317965
2.84043 0.349011 1.0949
2.65614 -0.643903 0.00782811
3.38671 0.936619 0.904653
3.14968 0.119655 1.05615
2.57174 -0.0493913 1.16944
3.6421 0.646038 1.14054
3.44435 1.18748 1.1498
3.34551 0.98012 0.759436
2.8213 0.669177 0.66676
3.31377 0.563927 0.493152
3.06761 0.329076 1.12271
3.51356 0.499478 0.818164
2.83627 -0.0172235 1.17667
2.96213 -0.202713 1.72649
3.08612 0.392093 0.367316
2.71358 -0.405508 1.49665
2.69037 -0.0231338 1.0905
3.48187 0.687729 0.541847
2.81924 0.835227 1.04672
3.42765 0.900979 0.836066
3.25235 0.617473 1.63919
2.97548 -0.263046 1.1394
2.62251 0.559427 0.822458
3.58481 0.86145 0.611382
3.20866 0.917143 1.04607
3.24315 0.0219004 1.90783
3.67033 1.17407 1.10712
3.63674 0.826884 0.882233
2.74506 -0.465961 1.02498
2.97157 0.387547 0.938154
3.19443 -0.184048 0.275404
2.52468 0.0720449 0.145481
3.3098 -0.102805 0.931378
2.98803 -0.0316888 1.22679
3.19421 0.822827 1.30149
3.52246 0.402688 0.952299
3.13975 0.77041 1.1479
3.48606 1.23723 1.03578
3.09098 -0.315386 0.440372
3.09489 0.130204 0.766512
3.23275 0.00787061 0.125099
3.07838 0.806338 0.520077
3.09202 0.24396 0.812968
3.20093 0.0322109 1.32094
