ply
format ascii 1.0
comment Created by Open3D
element vertex 250
property double x
property double y
property double z
end_header
2.68363 2.80682 0.675616
2.10683 2.82984 -1.73336
2.2896 -0.275702 -2.05605
2.74138 0.708813 -1.51938
2.56881 2.80187 -0.0606222
2.91885 0.408352 -0.496218
3.44813 -0.780158 0.914042
3.16678 0.272028 -0.644493
2.33966 2.37726 0.465445
3.16276 1.6018 -0.856361
2.66243 2.1529 -1.77864
2.8359 0.344617 -1.04636
3.04028 2.33329 -0.933561
3.0821 0.926526 0.0239554
2.39853 1.91541 -1.22209
2.85709 3.04091 -0.537279
2.73575 0.119481 -0.314438
2.95067 -1.0498 -0.554454
2.75686 -0.287044 -0.13048
2.51818 0.239222 -1.87662
2.31462 2.22393 -1.99305
3.62738 -0.0807809 0.0772434
3.40137 1.5874 -0.0972059
3.06452 -0.273524 -0.421458
2.60815 0.156229 -1.71851
2.89809 2.16701 -0.267086
3.34421 0.879802 0.399265
2.63939 3.23066 -1.09001
2.63073 -0.141336 -1.57658
3.13846 1.62421 -1.08321
2.58927 2.81314 0.783555
2.38064 3.20609 -1.31949
2.37538 2.97494 0.060368
1.9769 2.03741 -2.26482
1.98257 2.71615 -1.85144
3.18045 -1.05753 0.567682
2.21479 -0.380445 -2.12027
1.95523 2.36593 -2.10928
2.26316 1.09989 -0.859147
2.86104 0.0341002 -1.31347
2.81838 0.0843313 -1.39159
3.20113 0.421857 -0.243922
2.77012 2.41674 -1.53409
2.86629 2.96552 -0.725195
2.12604 0.139135 -2.31876
2.82854 3.03341 -1.15729
2.35298 -1.07803 -1.83619
2.77175 2.99279 -1.11898
2.85736 -0.636778 -0.10613
2.72363 2.09749 -0.680302
2.49496 2.25948 -1.88706
2.42045 0.143929 -1.92662
2.5365 -1.1355 -1.55152
2.02108 2.67945 -0.911107
3.23563 0.971715 -0.858304
2.77085 -1.22238 -1.25145
2.88331 0.355472 -1.25167
2.21163 2.18785 0.187175
3.07846 1.68068 -1.40774
2.8603 0.286463 -0.6625
3.42495 0.77766 -0.192046
2.99002 -0.541908 -0.546246
2.82633 0.462977 -1.5268
2.75858 2.81025 -0.230865
2.29074 3.03388 -0.954498
2.04338 2.09437 -2.22489
2.78688 1.48481 -1.54998
3.25977 -0.857251 -0.112722
2.84355 2.52228 0.353226
3.00116 0.907823 -0.50558
3.23852 2.02471 -1.0678
2.72364 0.041055 -1.58545
1.96332 2.05278 -0.273255
2.70044 -0.33435 -1.27944
2.4241 -0.580053 -1.70096
2.95977 -1.20792 0.300102
2.81235 -0.974814 -1.26656
3.32183 2.7754 -0.694107
2.95196 2.0272 -1.19324
3.18331 0.830512 -0.548033
3.09098 0.83708 0.122951
2.39942 1.82896 -2.07564
2.64654 2.34343 -0.728087
3.31019 0.235919 0.262536
3.0985 0.504332 -0.729123
2.71357 3.24046 -0.657292
3.24001 -0.458702 0.075712
2.52731 2.4548 0.335344
3.67916 0.735655 -0.449629
2.7473 1.31253 -1.34778
2.07475 -0.563846 -2.25806
3.2943 -0.556717 -0.28349
2.70334 2.08152 -0.604165
3.54799 2.5252 -0.535414
2.47275 1.85068 -1.9616
2.72662 -0.312853 -1.39822
2.63092 1.81824 0.127599
2.47214 2.76141 0.0203127
2.68295 1.65672 -1.84427
2.74766 0.819695 -0.0159118
2.7361 2.03746 -1.40945
2.74317 2.77008 -0.462542
3.1446 2.71127 -0.34932
2.5214 1.97064 0.170939
2.74923 2.52076 -1.5712
3.19095 1.2202 0.0623756
2.97726 0.648724 -0.270488
2.84806 -1.16647 -1.1817
3.15994 -0.876482 -0.226594
2.79728 -0.128321 -0.98739
2.4375 0.0741679 -1.92666
2.63799 1.49791 -1.89236
2.75633 -0.199933 -1.19626
2.14841 1.78639 0.0749179
3.34765 -0.702794 -0.508765
2.98486 1.6998 -1.3097
3.06804 -0.753957 -0.67924
2.09248 2.41794 -0.372598
2.85783 2.59716 -0.839732
2.70349 2.54386 -1.57343
3.25536 -0.865461 0.640708
2.80598 2.40039 -1.631
3.32244 0.847863 -0.499585
2.81637 2.55504 -1.34904
3.35309 -0.6521 0.465525
2.99532 -1.14012 -0.712001
2.90486 0.873394 -1.5325
2.40353 0.39725 -2.03018
2.9505 0.431347 -0.544528
2.70727 -0.748692 -1.39708
3.07052 -0.108315 -0.781169
2.89227 -1.28716 -0.62406
3.29311 2.65601 -0.991899
2.48834 -1.14919 -1.69896
2.59629 0.37192 -1.80746
3.00833 -0.0251297 -0.994487
2.95993 -0.928642 -0.91983
3.43575 0.57204 -0.483859
2.41286 2.56894 -1.80453
3.09015 -0.962113 0.127973
2.1106 2.51582 -1.96281
2.39782 3.13624 -0.867357
2.32422 -0.861968 -1.90483
3.02686 2.35222 -0.850522
2.72852 2.14643 -0.774422
2.03282 2.49544 -2.00068
2.64358 1.12584 -0.404363
3.55221 0.0957524 0.344967
2.58204 2.47708 -1.75827
2.83456 1.9539 -0.284095
2.71003 -0.896717 -1.40168
2.92384 2.03496 -0.0108515
2.39794 -1.07541 -1.67592
2.80507 3.2844 -0.672693
2.71991 2.6417 0.558786
2.06666 2.14018 -1.64091
2.62806 -1.23289 -0.918196
3.39907 1.27423 0.725056
3.28616 1.65141 0.11009
2.50376 -1.24552 -1.4126
2.01732 1.43785 -2.45459
2.8274 1.03561 -1.63216
1.69913 2.10228 -2.37414
2.86987 2.35516 -0.985806
2.67623 -0.0357508 -1.5526
3.45516 -0.60175 0.376288
3.32265 -0.71337 0.478755
3.1524 2.62948 -1.21482
2.92124 2.36707 0.271468
2.85762 0.0518177 -1.38832
2.41376 1.96266 -1.99691
2.77989 -0.831028 -0.277172
2.88374 0.277012 -1.26018
2.06456 2.39235 -2.05541
1.89669 2.85253 -1.73182
2.79555 2.62821 -1.37944
2.35489 2.53757 -1.70263
2.96847 1.79105 -1.0407
2.66089 -0.485496 -1.57565
2.74363 0.917686 -0.878991
2.783 -0.528952 -1.37277
2.99779 0.567926 0.419543
2.57022 2.17642 -0.0832456
3.00111 1.57729 -1.43867
2.552 1.39843 -1.87992
2.09135 2.68577 -1.84694
3.02719 0.329302 -1.11398
2.746 0.0814692 -0.860437
2.62073 2.13524 -1.47792
2.70159 1.11657 -1.17884
2.50463 1.91587 -1.88029
2.2613 2.30762 -2.00541
2.87619 1.09788 -1.00916
2.06869 2.53657 -1.47903
2.54775 -0.707611 -1.32523
1.61361 2.19239 -2.33282
2.58725 -1.07179 -1.60703
2.34154 2.55267 -1.69858
2.89179 0.907593 -1.14502
2.72635 0.818372 -1.61299
2.19149 -1.38358 -2.11241
2.18411 -1.43223 -2.15251
1.94808 -1.22104 -2.36184
1.16495 -2.18124 -3.22503
2.94158 -0.145826 -1.33676
2.08444 -1.58957 -2.17186
1.63582 -0.931496 -2.65133
1.61194 -1.9151 -2.6602
1.69885 -1.33704 -2.62143
2.18815 -0.853105 -2.11148
1.66401 -0.737683 -2.64774
2.40977 -0.885262 -1.89648
1.718 -1.10506 -2.57513
1.51832 -1.54862 -2.81549
1.10032 -1.58163 -3.17097
1.66252 -1.73431 -2.69086
1.94573 -0.86589 -2.35763
2.17767 -1.25385 -2.13861
1.97099 -0.705703 -2.34562
2.58925 0.0485215 -1.76052
1.45275 -1.85108 -2.89067
2.31123 -0.196695 -2.04212
1.74501 -0.828599 -2.56636
1.79051 -1.70597 -2.57703
1.20736 -1.14344 -3.01297
1.73331 -1.41026 -2.59987
2.23688 -0.309388 -2.06726
2.34313 -0.622612 -1.95068
1.05395 -1.35169 -3.17977
1.80748 -1.67981 -2.57296
1.59407 -1.15709 -2.6889
2.86661 0.235608 -1.46965
1.96869 -1.14221 -2.36131
2.08162 -1.29797 -2.2587
2.15181 -0.725798 -2.15255
1.67157 -1.12789 -2.62481
2.05758 -1.6833 -2.21511
0.904788 -2.06379 -3.40484
2.53287 -0.865546 -1.71172
2.20533 -0.613303 -2.10725
1.80837 -0.800767 -2.46771
2.35919 -1.0364 -1.93753
1.69252 -0.981182 -2.5867
1.65163 -1.27165 -2.66072
2.14682 -1.42838 -2.10295
1.93923 -1.22732 -2.36371
1.82673 -1.97256 -2.50154
1.1913 -1.81478 -3.13797
1.86525 -1.21624 -2.44111
2.48181 -0.48153 -1.81639
