ply
format ascii 1.0
comment Created by Open3D
element vertex 400
property double x
property double y
property double z
end_header
-0.0186766 1.4242 -2.85911
0.512037 -0.906223 -2.96822
-0.430058 0.923262 -3.10429
-1.12467 -0.00357219 -2.87602
0.416235 0.967755 -2.93094
-0.0664429 0.951207 -3.11894
-1.45122 0.522503 -3.12009
-0.00556662 0.591703 -3.06703
0.30188 -1.20021 -3.29391
0.227826 -1.55951 -3.00432
-0.669581 1.3339 -3.22081
-0.592122 0.322068 -3.17559
-0.512277 -0.468407 -2.93199
0.274086 -0.758664 -3.06345
-0.145473 -0.474193 -3.13317
-0.475349 1.7095 -2.98078
-0.439571 1.35085 -3.07402
-0.325353 -1.2853 -3.07593
-1.33661 1.16161 -3.20423
-0.69169 -0.69478 -2.97565
-0.0630078 0.369312 -3.11042
0.025848 0.052868 -3.11773
-0.110822 -0.518202 -3.10214
-0.743104 0.393746 -3.23705
-1.35732 0.985627 -3.30825
0.00227752 0.291458 -3.22174
-1.30897 -0.181851 -3.03936
0.852721 -0.357169 -3.1104
-0.554588 -0.0560378 -2.95467
0.974968 -0.102632 -3.01122
-0.0759015 1.15466 -3.09724
-0.274221 -0.293251 -3.03999
-1.25698 0.360529 -2.98466
0.127103 -0.635907 -3.01454
-1.08362 0.275222 -3.06354
-0.85892 0.25545 -3.16597
0.679092 -1.00557 -3.13287
1.01345 0.0880373 -2.88824
-0.663529 1.25819 -3.08177
-1.42562 0.345018 -3.18657
-0.60547 -0.26842 -3.04263
0.833964 0.585674 -2.84363
0.0123863 -0.894604 -2.89005
0.0208614 -0.117429 -2.97846
0.474377 -0.592743 -2.91053
-1.53451 0.68808 -3.10162
0.761741 0.252891 -2.94026
-0.408366 0.152804 -2.93157
1.27967 -0.224219 -2.98691
-0.425751 0.222599 -2.99366
0.00685774 -1.46852 -2.96379
-1.24044 0.458858 -3.09886
-0.673375 -0.706315 -3.05719
0.336639 -1.42126 -3.00043
-0.123196 -0.993766 -2.85404
0.280404 0.449024 -2.93303
0.316104 0.990864 -2.91146
-0.00831991 1.09314 -3.10628
-0.891457 0.713623 -3.1689
-1.17445 0.417164 -3.2635
-0.501877 -1.04518 -2.98136
0.639536 0.675736 -2.89015
-0.961804 0.383106 -2.97021
0.0603009 1.4304 -2.89074
0.73157 0.40177 -2.98452
-0.174254 -0.946884 -2.94313
0.947187 -0.0156128 -3.02579
-0.423062 0.537668 -3.29424
-0.172409 -0.396809 -2.93951
0.86409 0.16221 -2.91637
0.49937 -0.11762 -3.20827
-1.56811 0.509103 -3.22584
-0.471508 0.851802 -3.28994
0.0304334 -1.59776 -3.06008
0.201093 -0.753207 -3.02591
0.302221 0.907161 -2.97164
-0.587918 1.3455 -3.10155
-0.63814 1.67279 -2.99985
0.30302 -0.15383 -3.093
0.731914 0.331594 -2.97559
0.60696 -0.37009 -3.16681
1.11772 -0.227177 -2.99675
0.819896 -0.274634 -2.87947
0.200784 0.0220237 -3.20694
0.429056 -0.847494 -2.95373
-1.01774 0.948989 -3.1764
-0.358433 0.874167 -3.15842
0.475266 -0.321364 -3.01031
-0.713661 0.948909 -3.23718
-0.0376473 1.03999 -3.08698
1.08817 -0.471269 -2.85175
-0.0781525 -0.347573 -3.10219
-1.20556 0.294697 -3.02699
-0.287639 -0.768399 -3.15064
0.678882 -0.378908 -3.13088
-0.640805 1.04558 -3.18732
0.239982 -0.709198 -3.15652
-0.321935 1.28875 -3.11025
0.927691 0.336221 -2.9746
0.42245 -0.42856 -2.96564
0.853969 -0.0260315 -2.80252
0.343563 -0.411187 -3.17623
-0.984733 -0.133273 -3.04185
-0.346522 0.936128 -3.20492
-1.03903 1.15314 -3.40084
0.532822 0.0712617 -2.97047
0.239851 -0.820239 -3.10179
0.422216 0.505066 -3.0359
0.566086 0.407896 -2.90991
-0.916822 -0.218512 -3.01688
-1.22355 0.848056 -3.31873
0.248545 -0.637315 -2.98092
-0.181474 -0.773324 -2.81486
-0.854304 0.291526 -2.88254
0.636379 0.249519 -3.03847
0.118887 0.985057 -2.99756
-0.209171 -0.636611 -3.17111
-0.421679 -0.828309 -3.01147
-1.25728 0.157228 -2.82302
0.813158 0.540038 -2.92376
-1.00137 0.461954 -3.09825
-0.541436 1.72022 -2.97965
-0.498411 -0.455911 -3.13405
1.45604 -0.30375 -2.98331
0.976279 -0.610681 -3.13671
-1.64686 0.441906 -3.0013
-0.550296 0.257524 -3.03466
-0.394244 1.49913 -3.06791
1.02072 -0.549784 -2.95393
-0.32955 1.87462 -2.81959
1.12533 -0.523857 -2.99067
1.05779 -0.346959 -3.09362
-0.223644 0.990856 -3.05179
-1.26416 0.663924 -3.10772
-0.681892 1.28318 -3.10768
-0.305042 0.339118 -3.04943
-1.001 0.726683 -3.32268
0.0590159 -0.593344 -3.03187
-1.19764 1.11665 -3.3059
-0.429605 -1.05771 -2.99669
-0.886804 -0.428734 -2.89225
-0.969053 1.48846 -3.06534
-1.57248 0.706435 -3.02902
0.706389 0.304189 -2.99031
0.46845 -0.75758 -3.07183
-0.627864 -0.627224 -2.86989
-0.0520974 -0.853457 -2.94909
-1.57973 -0.230747 -3.23066
0.340268 -0.586322 -2.98677
0.682121 0.108061 -3.12641
-0.313473 1.8033 -2.87039
-0.839877 1.29586 -3.09923
-1.26787 1.16609 -3.21215
0.140328 0.461738 -3.10131
-1.25051 0.388329 -3.16811
0.183942 -1.14622 -2.73005
-1.25025 0.00815015 -2.92804
-0.756631 1.59665 -3.10434
-1.47657 -0.00819451 -3.04769
-0.753145 1.54582 -3.0265
-0.831664 0.932296 -3.19063
-0.969605 -0.243815 -3.01306
-1.46921 -0.0694062 -3.07423
0.949088 0.537108 -2.75965
-0.49062 -0.0112602 -3.2656
-0.0797942 1.16207 -3.07882
-1.50923 0.153975 -3.09872
1.49591 -0.28476 -2.94394
-0.0631931 1.23314 -2.80057
-1.03329 -0.198934 -2.98136
-0.813938 1.23536 -3.22422
0.12423 1.26577 -2.90965
-0.94476 0.678 -3.21273
-0.73972 1.13494 -3.14645
0.409665 0.511125 -3.00759
-0.125785 0.584325 -3.19769
0.186396 0.215656 -3.13041
0.686401 -0.416319 -2.98939
-0.752763 0.563357 -3.09612
-0.415537 -0.389427 -3.13523
-0.271297 0.343503 -3.25954
-0.490396 -0.00328609 -3.00012
-0.642583 0.292767 -3.0101
0.258925 -0.425105 -3.10782
0.513327 0.258857 -3.02347
0.249572 -0.495408 -3.03401
0.419361 -1.2682 -2.8134
-0.195018 -1.37206 -3.03604
-1.18111 1.08203 -3.15857
0.00996002 -1.23898 -2.85462
-0.186778 1.38191 -2.89997
-1.20159 1.18012 -3.2975
-1.52655 0.712086 -2.99038
0.722182 0.304872 -2.99803
0.971392 -0.0827677 -2.95716
0.685397 0.0376468 -2.99035
0.606597 0.755237 -2.92123
-0.066974 0.470876 -3.00824
-0.0873297 -1.11353 -3.03547
-1.22799 1.13703 -3.22745
-0.892337 1.2668 -3.14807
0.157839 0.0630087 -3.15029
0.849263 0.146133 -2.8848
-0.637773 -0.253763 -3.06697
0.496912 -0.0272484 -3.14607
0.865129 0.485499 -2.94499
1.23261 0.00865293 -2.86019
-0.851996 -0.0525059 -3.11857
-0.453849 0.786781 -2.9881
0.261204 0.667904 -3.13885
-1.16189 0.0473476 -3.08265
1.06239 -0.184874 -3.01201
0.0877633 -0.794277 -3.10037
-0.320317 -0.890977 -2.87189
-1.19804 0.912877 -2.97849
0.387689 1.25122 -2.8101
-0.428731 -0.473621 -3.0705
1.45448 -0.192805 -2.92282
0.629787 -0.920643 -3.16253
-0.816765 1.1611 -3.15928
0.909318 -0.285242 -2.89891
0.195738 -0.0747224 -2.95568
-1.27567 -0.127579 -2.95606
0.158753 0.219643 -3.26179
-0.32649 -0.39762 -3.22807
-0.744709 0.302521 -3.24195
0.278187 1.06614 -2.94578
0.548345 0.945665 -2.86814
-0.0547108 -0.424361 -2.95562
-0.789613 -0.0471232 -3.14918
0.387034 0.150684 -3.0489
0.296376 0.188156 -3.11518
-1.18313 -0.201525 -2.98596
0.0724119 1.30092 -2.92566
0.403039 0.354779 -2.9731
1.05938 0.832817 -2.65713
1.46842 0.0441762 -2.78109
-0.789141 1.23888 -3.19773
-1.2123 0.3695 -3.20075
-0.631549 0.433851 -3.06052
0.214533 0.320593 -2.99136
-0.118063 -0.942653 -3.17011
1.30627 -0.475394 -3.09063
0.0692955 0.708636 -3.06691
0.592527 -0.941053 -3.05177
0.037707 0.403907 -3.11143
-0.477876 0.383264 -3.148
-0.228513 -0.112313 -2.83887
-0.548347 1.50742 -3.06904
0.598921 0.102411 -2.96206
-0.953148 1.39544 -3.13051
1.28386 0.0581324 -2.9287
-0.628477 0.655813 -2.83855
-0.268182 -0.282242 -3.25904
0.88343 -0.26629 -3.10374
-1.05268 -0.161763 -3.09305
0.894015 0.343335 -2.92765
-0.787929 -0.516059 -2.91658
-0.282233 -1.2321 -3.06451
-0.595793 0.781987 -3.27875
-0.28989 1.45482 -3.03322
0.45123 -0.63725 -3.23797
-0.444214 1.63842 -2.98204
-0.702587 0.0200627 -3.25988
-0.110347 -1.07671 -3.13102
1.18295 -0.17058 -2.9044
0.218688 0.516958 -3.08367
0.925654 -0.482146 -3.02432
0.457302 0.211052 -3.0723
0.857496 0.542256 -2.89779
-1.44239 0.524074 -3.02294
-0.686133 1.01774 -3.02224
-0.343807 -0.152677 -3.14614
1.27129 -0.38787 -2.98976
-0.957681 -0.548021 -3.0972
1.39985 -0.119259 -2.89965
-1.40678 1.10537 -3.24173
1.32689 0.0351864 -2.89318
0.140207 -1.13621 -3.05529
-1.00321 0.778505 -2.96514
0.254295 0.172115 -2.93471
-0.177892 1.12824 -3.10022
0.799355 -0.125895 -3.1213
-0.0683782 0.476732 -3.18834
0.266658 -0.898512 -3.07086
-0.691959 1.45456 -3.1289
-0.659453 1.38041 -2.96984
-0.776896 1.00233 -3.02502
0.685628 -0.219902 -3.12191
0.339271 -1.27641 -3.15373
1.13126 -0.271979 -3.01194
0.554527 -1.11744 -2.92665
0.465094 0.712774 -2.99224
-0.470995 0.318725 -3.22603
0.582429 -0.895591 -3.00461
-0.148383 1.27258 -3.04492
0.233787 -0.633623 -2.99563
0.937617 -0.641093 -3.16911
-1.45645 0.301574 -3.3378
-0.546275 1.67774 -2.97319
0.315984 -0.532166 -2.99315
-0.491921 1.12306 -2.99431
-0.428597 -0.772687 -3.10306
-0.933133 1.45753 -3.15299
-0.0814784 -0.807228 -3.06218
-0.11587 -0.0250803 -3.14056
-0.550246 1.62464 -3.04948
-0.873373 0.714597 -3.27679
-0.391894 -0.449014 -3.07797
-0.59566 1.07943 -3.22701
-0.490978 -1.06666 -3.18702
0.812532 0.910162 -2.74244
0.257207 0.452937 -3.00468
-1.52704 0.620366 -3.21733
0.0594179 0.847068 -3.04806
-0.21329 0.59494 -3.16922
1.15096 0.245625 -2.9036
-1.01822 -0.475912 -3.14861
-0.776437 -0.369537 -2.87888
1.24021 -0.231662 -3.09424
-0.0619972 1.61724 -2.86364
-0.661315 1.24202 -3.28039
-0.0985236 -0.798324 -3.09679
-1.45793 0.81037 -3.22525
-1.05989 0.485264 -3.12629
-0.0420684 0.633862 -3.03655
0.203848 -0.968372 -2.93004
0.524109 -1.17412 -3.05853
-0.273215 -1.05514 -2.90831
-0.487925 0.405115 -3.2659
0.0871297 0.62795 -3.07155
1.24634 -0.292505 -2.95744
-0.940286 -0.450556 -3.13905
1.07038 -0.260014 -3.01347
-1.06063 0.126926 -2.87785
1.08469 -0.287326 -2.8908
-0.0487258 0.174884 -3.04857
0.426919 -0.467301 -2.9729
0.491564 -0.223936 -2.84093
0.0877088 -1.64129 -3.02582
-1.02772 0.0380604 -3.15062
-1.52772 0.213013 -3.25685
-0.532011 0.985919 -3.31102
0.094897 0.788727 -3.14343
-0.182418 0.846762 -3.16415
-1.00465 0.161939 -3.17651
-0.703459 -0.280289 -3.1801
0.254919 0.0643086 -3.12906
-0.012373 -0.417173 -3.27111
0.301076 0.605036 -2.95068
0.183103 0.238763 -3.03285
0.136724 -1.25031 -2.96538
0.2253 0.32111 -3.12941
-0.804691 1.44223 -3.0827
0.402319 0.602539 -3.01984
-0.825756 1.15385 -3.24066
-1.29378 0.205057 -2.91177
0.161027 1.3289 -2.8908
-0.404389 -0.789709 -3.10006
-0.95024 0.98784 -3.03918
-1.24141 0.558588 -3.20743
-0.999971 0.562889 -2.87761
-0.10017 0.64428 -3.06343
-0.662951 -0.468881 -2.91024
-1.11789 0.18408 -2.82822
-0.461394 0.708556 -3.12478
-0.9267 -0.63451 -3.12565
-0.0695333 1.22349 -3.04094
-0.600982 -0.322222 -2.90492
0.389666 0.0629662 -2.90675
-1.44204 1.03756 -3.25772
-0.194624 1.39458 -3.00024
0.593033 -0.0131466 -2.93642
0.56394 0.73814 -2.96336
-0.342143 1.78343 -2.89046
0.447479 -1.19724 -3.14787
0.304951 0.0308408 -2.9372
0.764241 0.512881 -2.90479
-0.756029 -0.135179 -3.22728
-0.139188 1.07587 -3.08902
-0.0994637 -0.773914 -3.26539
-0.418294 1.14705 -3.17727
-0.753953 1.43564 -3.01721
0.679829 -0.733141 -2.87224
-0.125456 0.435594 -3.19264
-0.601518 -0.904028 -3.15285
0.394285 -0.474195 -2.90751
-0.48514 1.44274 -3.05716
-0.176436 -0.639936 -2.94409
-0.470385 0.988055 -3.14501
0.234661 0.865551 -3.04275
0.0969514 -1.00953 -2.94297
-0.790151 -0.0766006 -3.04896
0.616887 -0.767393 -3.09748
-0.973555 1.41899 -3.23927
-0.877254 -0.022754 -3.19325
-0.0343314 1.01928 -2.94568
0.439842 -0.354518 -3.18558
-0.0422817 -0.878332 -2.89286
-0.813997 0.0432334 -2.86299
