ply
format ascii 1.0
comment Created by Open3D
element vertex 200
property double x
property double y
property double z
end_header
-2.62007 -1.63586 0.114901
-2.02691 2.40117 0.309465
-2.42783 1.57398 1.95576
-2.35947 0.549404 -2.0301
-1.855 1.87133 -1.80491
-2.10077 2.12015 -0.807588
-2.53264 -0.152048 -1.8505
-2.25175 -0.508699 -2.56652
-3.14388 0.258285 -0.662927
-3.13211 1.61734 0.364277
-3.47798 1.039 1.60233
-2.58019 -1.69377 0.143019
-2.12296 1.10147 -2.14495
-2.19375 0.270143 -2.51914
-3.18416 1.50295 1.45873
-3.60763 0.442966 1.50026
-1.91481 1.55571 -2.11706
-2.56902 1.18838 -1.25624
-2.83222 0.774967 -1.0826
-2.12804 0.435907 -2.60036
-1.49944 2.34495 -1.7645
-3.2913 -0.517986 1.08973
-2.7839 -1.32542 -0.28058
-2.7942 1.32796 -0.751318
-3.01863 1.3335 1.82441
-2.68778 0.366629 -1.47873
-1.57484 2.63795 -0.370141
-3.61335 0.0674777 0.69649
-3.20622 -0.267632 -0.378068
-3.43354 -0.336016 0.563327
-3.13163 1.62889 1.26629
-1.66983 2.53706 -0.600059
-2.80424 0.974631 -1.0187
-2.70494 -0.709069 -1.33518
-2.76166 0.178027 -1.37654
-2.38059 2.16666 0.880664
-3.40645 1.34899 1.34457
-3.54523 -0.097 1.04345
-2.72064 1.79917 1.47226
-2.05981 1.96225 1.70356
-2.18163 1.40923 -1.73796
-3.28394 -0.476547 0.0804463
-3.13865 -0.510543 -0.359787
-3.35432 -0.442643 1.02811
-2.03248 1.94209 -1.31066
-2.21156 -0.188667 -2.63345
-3.0472 1.66121 1.34259
-2.43464 -0.0574565 -2.05557
-2.55161 -1.73005 0.204666
-2.73545 1.57503 1.78296
-3.02664 -1.00122 0.680432
-3.51274 -0.116832 0.4588
-2.90305 1.55624 -0.278892
-2.07065 2.37236 0.47936
-1.42434 2.6475 -1.01093
-1.92737 1.75896 2.00291
-2.63978 1.58788 -0.714928
-3.68772 0.849976 0.764537
-2.06691 2.35555 -0.0323415
-2.16281 2.31821 0.198571
-3.38264 1.44982 0.779479
-2.85254 -1.26051 0.565625
-2.80354 -0.760836 -1.05203
-3.62859 1.04144 0.75402
-2.86978 -0.173668 -1.15413
-2.6878 0.165386 -1.51649
-2.27319 0.167035 -2.36799
-2.32265 2.21231 0.778395
-3.40241 1.40014 0.660003
-2.47951 -0.0331659 -1.95552
-2.13574 2.33485 0.526542
-3.50252 1.3144 1.01102
-2.47419 2.03729 1.20707
-2.23121 2.25697 0.0340497
-2.46399 1.32794 -1.3113
-3.44485 1.25991 0.467636
-2.54118 0.829498 -1.55107
-2.13821 0.0130755 -2.78207
-1.78717 2.51612 -0.203007
-3.5335 -0.0807799 0.500362
-2.3946 -0.0160234 -2.13788
-2.37766 1.85684 1.65761
-3.58708 1.01647 0.547385
-3.63248 0.0907798 0.943363
-3.50811 1.21699 1.34736
-3.45522 1.24943 1.41753
-3.53754 1.25568 0.87451
-2.10991 0.893569 -2.34084
-1.84377 2.3884 -0.666339
-3.69618 0.329286 0.835528
-2.0294 1.5993 -1.81833
-3.00879 -0.989205 -0.0249886
-2.09577 -0.21107 -3.02716
-3.12024 1.62846 0.360963
-3.44846 -0.301071 0.967132
-2.34376 1.00022 -1.79497
-2.46269 1.81036 -0.698185
-1.7052 2.31972 -1.25628
-2.1028 1.89933 1.76416
-1.92138 1.83437 -1.71733
-3.02628 -1.00126 0.683161
-2.39539 1.49669 -1.25488
-2.65098 -0.867143 -1.384
-2.8583 1.87064 0.394457
-3.00046 1.76241 0.43976
-3.01025 -1.02349 0.684282
-3.26197 1.48661 0.402877
-1.91034 2.28356 -0.829307
-3.68213 0.946342 0.898882
-2.71473 0.521094 -1.38598
-2.0478 0.993583 -2.4007
-3.37352 0.570517 -0.190909
-2.40649 -0.0346803 -2.1145
-3.30774 0.152157 -0.322695
-3.06994 1.58279 0.115889
-1.99405 2.15544 -0.96411
-2.57286 1.92243 1.37608
-2.10576 1.18601 -2.10561
-3.61398 0.90454 0.519127
-3.02627 1.77067 0.969067
-3.18266 -0.0760266 -0.528131
-3.2109 -0.735456 0.570143
-2.9687 1.52963 1.65985
-3.44471 0.891591 1.72129
-1.69112 2.57923 -0.187797
-2.69755 -0.132834 -1.50825
-2.32832 1.47862 -1.39403
-2.20146 2.18795 1.13862
-2.69312 -0.736714 -1.35018
-2.68188 2.01212 0.782422
-2.25392 2.17528 1.10272
-2.85943 -1.27111 0.383607
-3.44657 -0.324905 0.833013
-2.71847 0.723851 -1.29933
-2.22585 0.0399155 -2.52714
-2.71605 1.45086 -0.752791
-3.49914 0.0488826 0.205023
-3.32728 0.304428 -0.302507
-3.51032 0.0374771 1.41008
-3.27502 1.00792 -0.182715
-2.31161 1.23699 -1.66378
-3.64341 0.31242 0.530232
-3.40827 -0.209687 0.156826
-3.31507 1.13472 0.000576077
-3.31091 1.41973 0.391303
-2.10381 2.27069 -0.346832
-2.91005 -1.16773 -0.00616121
-2.7513 -0.989477 -1.00289
-2.16207 -0.548507 -2.88364
-3.16493 1.65297 0.639691
-3.49592 0.481597 0.0615281
-1.94644 2.44616 0.216574
-3.58757 0.0828561 1.24397
-3.57143 1.06037 1.4155
-2.57222 1.9955 1.1849
-2.33749 2.19164 0.863243
-3.13954 1.37023 1.69047
-3.09241 1.72908 0.81705
-2.82184 0.222113 -1.26056
-2.49884 1.9325 -0.381003
-3.07569 -0.640111 -0.407258
-3.70698 0.362748 1.02902
-2.24884 1.70852 -1.25304
-2.49278 2.12246 0.333079
-2.21712 2.01619 -0.790905
-3.60419 1.13918 1.13467
-2.77351 -0.418512 -1.29581
-3.56275 0.521448 1.60333
-3.44081 1.16832 0.318349
-3.08771 -0.92665 0.553263
-2.56868 1.05668 -1.35843
-3.61698 0.0729712 1.06529
-3.09148 1.72861 0.884203
-2.25761 1.38212 -1.62417
-2.16385 1.46107 -1.71607
-3.65539 0.157464 0.909141
-3.11904 1.59116 1.38503
-2.15326 1.78968 1.86989
-1.01241 2.91865 -1.63195
-3.47689 1.10426 0.332725
-3.45861 0.703792 1.74873
-1.47238 2.38583 -1.74018
-3.61145 1.1235 1.14223
-1.68361 2.26086 -1.45954
-3.25324 -0.623292 0.27981
-2.49381 -0.702377 -1.87029
-2.94207 1.75084 0.206815
-3.28663 -0.219827 -0.203368
-2.41496 2.06888 1.1984
-2.02039 2.39072 0.0164491
-2.52525 2.09654 0.837902
-2.51293 2.10928 0.787619
-3.141 1.63809 1.2144
-2.1307 2.06564 -0.867055
-2.65499 0.657205 -1.43847
-3.53076 0.356389 0.156097
-2.01934 2.40321 0.410494
-2.91073 -0.851893 -0.667411
-3.5374 -0.0548041 1.19464
-3.28474 1.51612 1.22438
