ply
format ascii 1.0
comment Created by Open3D
element vertex 400
property double x
property double y
property double z
end_header
2.13499 -0.406016 2.29422
2.12484 -1.58991 1.74611
2.39346 -0.316558 2.03504
3.06631 -0.682236 0.451141
2.13827 -0.397066 2.29541
2.77474 1.30519 1.49698
2.56806 0.589391 2.19597
2.69982 -0.443522 1.45117
2.66004 -0.53563 1.48574
2.90522 -0.746396 0.865598
2.43854 -1.63746 1.35914
2.78962 -1.11889 0.990989
2.53 -1.58305 1.254
2.47537 0.930059 2.46361
2.11753 -0.0574769 2.48371
2.5884 0.734603 2.20804
2.80722 0.787176 1.61069
2.57286 0.394713 2.1069
2.55571 -1.56161 1.22477
2.27016 -1.85652 1.49125
2.22538 -1.08674 1.85494
2.78945 0.661833 1.66539
2.70922 -1.09901 1.14659
1.87732 0.158669 2.77065
2.04877 -0.0291953 2.55901
2.38957 -0.864579 1.75718
2.59154 -1.53336 1.18207
2.12719 -0.0491175 2.47856
2.89301 0.00969862 1.1421
2.63103 0.136283 1.87554
3.05953 -0.924674 0.444318
2.78473 -1.15587 0.987941
2.58013 0.762247 2.23292
3.03342 -0.30097 0.591304
2.58877 0.316833 2.04242
2.73002 -1.0438 1.12986
2.04452 -1.1925 1.99901
2.91253 -0.845969 0.818688
2.68362 -0.895049 1.27597
2.62079 -0.0281596 1.81514
3.00913 -0.560741 0.634791
2.27513 0.221509 2.45386
2.93752 0.425058 1.02024
2.29079 -0.3485 2.151
2.9226 0.352152 1.09438
2.71702 1.263 1.87819
2.43228 -0.775539 1.7421
2.10194 -0.63537 2.21184
3.07425 -0.926444 0.406933
2.31954 -1.23777 1.67162
2.60455 0.925316 2.22512
2.07383 -0.993934 2.06313
2.2303 0.716698 2.70248
2.25822 0.170489 2.44886
2.44558 -1.70321 1.32801
2.81648 -0.757748 1.06596
2.94907 -0.796038 0.744534
2.68768 -0.645356 1.38026
2.27324 -0.489639 2.09876
2.18998 0.239088 2.55187
3.06909 -0.926676 0.42
2.62077 -1.14067 1.2817
2.67584 -1.46549 1.07499
2.61436 1.11785 2.22698
2.51138 0.698218 2.33539
2.83646 1.06406 1.34487
2.50104 0.976038 2.43272
2.59394 0.198841 1.97766
2.47007 -1.63501 1.3184
2.62351 -1.15314 1.27213
3.08172 -1.06418 0.376874
2.6459 0.516233 2.01116
2.71068 -1.24734 1.08981
2.92918 -0.4568 0.890615
2.29261 0.100029 2.37611
2.64756 0.345647 1.93741
2.71487 -0.777377 1.26788
2.2324 -0.957587 1.90917
3.03017 -0.595959 0.567064
2.68207 1.24894 2.01905
1.91339 0.247414 2.78248
2.27103 0.81999 2.69416
2.57788 0.0354909 1.9274
2.0735 0.625576 2.80861
2.91581 0.420811 1.12724
2.49128 0.626031 2.3417
2.98815 -0.474832 0.713782
2.96654 -0.146851 0.850586
2.80961 -0.867711 1.03956
2.67438 0.0515506 1.74481
2.2337 0.0110215 2.39919
2.87106 -0.297524 1.1059
1.86613 -0.0323926 2.69777
2.72379 0.614549 1.85531
2.74161 -0.937696 1.14934
2.67815 -0.579736 1.42961
2.49973 0.499053 2.27758
2.71046 0.172453 1.71961
1.89346 0.235608 2.79101
2.66545 -1.4755 1.08823
3.02081 -0.158288 0.647922
2.89191 0.652096 1.22579
2.11317 -0.97915 2.03002
2.87768 0.576769 1.30465
2.61075 -1.27406 1.24505
2.91732 -0.233474 0.991781
2.86796 -0.00596619 1.21786
2.11689 0.201215 2.60404
2.79734 -1.11317 0.978148
3.17426 -1.05495 0.153195
2.24412 -0.706891 2.0212
2.38572 -1.65006 1.4224
2.76022 0.042142 1.54012
2.0096 -0.222071 2.50151
2.41042 0.556997 2.43361
2.45167 0.419624 2.31738
2.5554 -0.699785 1.5909
2.36416 -0.495819 1.98066
2.7606 -0.468079 1.30979
2.77194 -0.687825 1.19001
2.39267 0.663125 2.4982
2.63395 -1.57013 1.10733
2.15859 0.320633 2.61792
2.03573 -0.692816 2.24757
2.63268 -0.920846 1.35552
2.53368 -1.46521 1.28984
2.80986 -0.0487141 1.3711
2.13677 -0.666992 2.16027
2.84749 0.0535457 1.30167
2.5459 -0.441395 1.73782
2.47019 -1.50407 1.36448
2.77052 0.973426 1.74725
2.37208 -1.10241 1.66598
2.83584 -0.411806 1.15555
2.69446 -0.209289 1.57554
2.07699 -0.820322 2.14461
2.93362 0.403496 1.04181
2.7123 -0.564888 1.36856
2.90198 0.554031 1.18829
2.55815 0.84582 2.29926
2.9611 -0.790809 0.71591
2.04334 0.345777 2.72742
2.43312 -1.68943 1.34863
2.30472 -1.80693 1.46741
2.01935 0.0727529 2.63007
2.95247 0.144884 0.948845
2.68694 -0.863347 1.28355
3.08357 -1.00729 0.376845
2.84305 -0.79575 0.993372
2.18454 -0.139451 2.37723
2.92302 0.0192589 1.04116
2.42089 -1.04498 1.62675
2.46908 -0.173039 2.0008
2.40327 -1.33778 1.52026
2.31981 0.858097 2.65211
2.72554 -0.201008 1.5115
2.79714 -1.11822 0.976854
2.82639 -0.378173 1.19278
2.82986 1.082 1.37528
2.9084 -0.271612 1.0072
2.85429 0.255249 1.34459
2.78005 -0.328614 1.32701
2.2712 -1.80201 1.50773
2.85107 -1.26088 0.831239
2.10683 -0.236128 2.40689
3.05677 -0.474819 0.498065
2.60608 -1.30437 1.24088
2.78035 0.635698 1.6911
2.93916 0.457564 1.007
2.39227 -0.922983 1.72468
2.33715 -1.46504 1.55291
2.86361 -1.28304 0.801682
2.81271 0.803902 1.58762
2.93144 -0.777391 0.792787
2.93814 0.232679 1.01791
2.8443 -0.846512 0.972816
2.89644 0.573704 1.21426
2.42976 -1.02803 1.62235
2.78827 -0.705261 1.14785
2.56745 0.857311 2.28466
2.25708 -0.210153 2.2622
2.23623 -1.29846 1.74499
2.34586 -0.644944 1.92719
2.90745 -0.903576 0.813929
1.96587 -0.548407 2.38125
2.32826 -0.323075 2.11778
2.30241 -0.0247325 2.30293
2.77775 0.301238 1.59869
2.89435 -0.64933 0.922831
2.23848 0.549424 2.63366
2.70118 -1.53039 1.01538
2.51924 -0.267903 1.87215
2.33795 0.358378 2.44261
2.45212 1.00628 2.51697
3.01712 -0.0848009 0.665614
2.6671 0.277713 1.86528
2.3395 0.269285 2.40022
2.29783 -0.271851 2.18223
2.78918 -0.30949 1.31349
2.07808 -0.660477 2.22292
2.44353 0.0205248 2.13874
2.2755 0.365818 2.5185
3.03822 -0.315506 0.573117
2.9763 -0.124772 0.819332
2.00917 -0.242036 2.49233
2.97576 0.132623 0.847609
2.69993 -0.322305 1.50918
2.77584 0.690176 1.71657
2.03666 -0.631832 2.27685
2.06683 -0.769167 2.17993
2.89229 -0.521744 0.970271
3.01404 -1.1467 0.521916
2.78933 0.628282 1.65959
2.67091 0.184299 1.81468
2.77881 -0.174637 1.39801
2.38795 -0.795928 1.79376
2.89892 0.238032 1.1785
2.72361 -1.14938 1.10208
2.19509 -0.154997 2.35843
2.22835 -0.876007 1.9542
2.20952 0.645101 2.69792
2.84568 0.427911 1.41865
2.82693 0.246611 1.43191
3.18515 -1.03319 0.125115
2.69258 0.575817 1.92428
2.15748 -0.938999 2.0025
2.82655 0.659773 1.52759
2.78476 0.657413 1.68064
2.86652 0.192726 1.2849
1.92286 0.312427 2.80172
2.78756 1.10092 1.62746
2.12003 -1.40348 1.82788
2.25099 -1.15908 1.79095
2.83659 0.683421 1.48758
2.71087 0.450449 1.8338
2.56056 0.448654 2.15267
2.34264 -0.271139 2.12651
2.69869 0.952953 1.99352
2.35326 -0.888582 1.7938
2.05211 -0.513213 2.32123
2.89629 0.0597185 1.14527
2.56204 -0.632002 1.61363
3.07757 -0.713353 0.41609
2.82788 0.0378373 1.35449
2.82749 0.233622 1.42583
2.66237 0.65505 2.02323
2.69514 0.137736 1.73934
2.95837 -1.22076 0.627918
1.96835 -0.192465 2.54964
2.64097 -0.845854 1.37469
2.53247 -0.198133 1.8867
2.41755 -1.73115 1.35486
3.0204 -0.298566 0.637591
2.88818 0.0537874 1.17115
2.69478 -0.806384 1.29375
2.89551 -0.679691 0.910145
2.30834 0.676305 2.60597
2.44562 -1.24293 1.50308
2.3293 -0.385017 2.0841
2.83341 -0.738863 1.03547
2.65629 0.786559 2.07569
2.75543 0.63684 1.77021
2.39963 -1.11981 1.6211
2.8315 1.05979 1.3864
2.16855 -1.01986 1.95108
2.72452 -1.33026 1.0382
2.31318 -1.58973 1.53371
2.73822 1.16677 1.8317
2.31968 -1.04082 1.76282
1.90181 -0.0583845 2.66139
2.70478 -1.4134 1.04467
2.66151 -0.31309 1.59238
1.95475 -0.628141 2.35211
1.90473 0.276033 2.79956
2.19534 -1.56489 1.6797
2.58276 -0.691154 1.54926
2.59161 0.970246 2.26134
2.35624 -0.077866 2.20887
2.68273 -0.876661 1.28556
2.71188 0.940098 1.95307
2.44068 -1.38353 1.45123
2.68926 0.534662 1.91813
2.08695 -0.417527 2.33586
2.79324 0.822954 1.66652
2.31135 0.738783 2.62424
2.34092 -0.134614 2.19945
2.94112 -0.166219 0.933749
2.32219 -0.686661 1.93621
2.32836 0.644664 2.57139
2.7874 -0.000796374 1.45132
2.71 0.162807 1.71635
2.62606 0.833021 2.15711
2.65834 -0.464628 1.52368
2.80255 -0.876892 1.05092
2.53321 1.08328 2.39494
2.95545 0.0277546 0.92194
2.85554 -0.681984 1.00538
2.81877 -0.774168 1.05475
2.48508 -1.21417 1.4596
2.55345 -0.826549 1.53219
2.49659 0.325817 2.20634
2.63325 -0.354132 1.6268
2.27777 -1.82699 1.49205
2.39872 -1.48356 1.46736
2.0565 -0.809725 2.17
3.04301 -0.331307 0.555051
2.08646 -0.155503 2.46544
2.74062 0.214966 1.66423
2.8877 0.491558 1.25774
2.75119 -0.282721 1.41511
2.19203 -0.468249 2.20258
2.90592 0.356021 1.16813
2.22383 -0.492326 2.15489
2.92916 0.501936 1.05318
2.24487 -1.28028 1.74298
2.53882 -0.309449 1.81816
2.99701 -0.166898 0.737194
2.34303 -1.62946 1.48274
2.97276 -0.139201 0.829776
2.77581 1.08193 1.69592
2.45566 -0.705999 1.74333
2.9364 0.194165 1.02139
2.39265 -1.56512 1.44424
1.95877 -0.582864 2.37061
2.3103 -1.09945 1.74676
2.441 -1.79055 1.30647
2.2912 -0.402095 2.12261
2.93802 0.304371 1.0225
2.67097 1.06053 2.07837
2.82221 -0.502239 1.15296
2.44061 0.709658 2.4489
2.19222 0.395415 2.61756
2.20102 -0.160561 2.34935
2.73283 -0.737655 1.24961
2.80529 -1.17092 0.944334
2.30046 -0.88862 1.86129
2.91481 0.565507 1.11908
2.71751 -1.31945 1.05365
2.71559 -0.0460298 1.60718
2.70855 0.971793 1.96511
2.87783 0.375673 1.28626
2.55526 -0.442888 1.72132
2.97777 -0.226904 0.796351
2.46852 -0.10334 2.03788
2.65132 -0.985078 1.29509
2.44122 -0.0557127 2.10318
2.9771 0.128695 0.841556
2.68991 -0.073134 1.65133
2.48125 -0.54142 1.78945
2.78798 0.110561 1.49588
2.61811 1.12252 2.21807
2.91762 -0.217866 0.995486
2.69337 -0.611801 1.38471
2.36172 -0.494345 1.98469
3.03346 -0.443792 0.57695
2.75159 1.27626 1.6965
3.0528 -0.483142 0.510277
2.99581 -0.147438 0.743997
2.01991 -0.586558 2.31472
3.14622 -0.91543 0.22078
2.19811 0.55328 2.67503
2.42899 -0.689023 1.79074
2.811 1.16196 1.42372
2.69119 0.237272 1.79325
2.80181 0.836098 1.63171
2.49465 -1.02041 1.53206
2.8623 0.815861 1.34383
2.78661 1.04595 1.65815
2.59349 0.908768 2.24504
2.81809 0.853773 1.55935
2.73094 0.974319 1.89307
2.24644 -0.303757 2.2264
2.76321 1.34749 1.51544
2.90559 -0.342561 0.992926
2.21257 -0.75008 2.03563
1.92698 0.0820397 2.70454
2.30713 -1.76687 1.4778
2.71609 0.903532 1.93718
2.7513 1.17764 1.7683
2.40139 -0.293989 2.03592
1.95138 0.291145 2.77384
2.46755 -1.50996 1.3659
2.75814 1.29093 1.64069
2.20789 -1.13732 1.85116
2.90355 -0.267541 1.02294
2.02815 -0.150613 2.51966
2.77691 -0.534886 1.24414
2.64948 0.709461 2.07007
2.96392 0.103701 0.897007
2.24188 -0.602383 2.07744
2.04584 -0.249359 2.45681
2.6823 0.986215 2.04316
2.88523 0.514565 1.26966
2.47983 0.867582 2.44005
2.05957 -0.247596 2.44532
2.39441 -0.704277 1.8315
2.71426 1.26832 1.88718
2.39088 0.964396 2.59357
2.4717 0.50334 2.32324
2.85629 -1.27411 0.81784
