ply
format ascii 1.0
comment Created by Open3D
element vertex 250
property double x
property double y
property double z
end_header
-1.75564 -2.07838 -0.621886
-2.82714 -1.92954 1.22682
-0.375495 -2.49735 1.83623
-1.29021 -3.19098 0.828131
-2.33881 -2.43634 -0.428321
-0.657378 -3.29355 -0.00731113
1.64067 -2.82812 -0.00140266
-0.0232123 -2.85876 0.91682
-1.97047 -2.40585 -1.05719
-1.44365 -3.03879 0.612194
-2.38179 -2.72499 1.16792
-0.812557 -3.278 0.46439
-2.17678 -2.96261 0.466049
-0.673858 -3.07531 -0.21062
-2.81058 -3.46194 -0.412601
-2.47487 -2.4681 0.259516
-0.613753 -3.44284 -0.481292
0.910773 -3.0076 0.73452
-0.144724 -3.40773 -0.503183
-0.518094 -2.38996 1.91329
-2.86392 -2.80597 0.886674
1.29823 -2.34284 1.37399
-0.843612 -2.82206 0.382652
0.331138 -3.01247 0.546596
-0.609408 -2.75448 1.47963
-1.93949 -2.94223 -0.273452
-0.0938397 -2.80856 0.0186869
-2.71881 -2.12694 0.883272
-0.368108 -2.86827 1.31162
-1.49179 -2.96646 0.878541
-1.73682 -1.9854 -0.729691
-2.73361 -1.81591 1.16623
-2.4114 -2.1652 -0.501289
-2.65177 -2.29545 1.37944
-2.91622 -1.9992 1.15396
1.36485 -3.08909 -0.183503
-0.545448 -2.7312 1.5839
-2.83168 -2.17583 1.26039
-2.28332 -3.72407 -1.01073
-0.117827 -2.68796 1.46818
-0.238752 -2.70952 1.4614
-0.114616 -2.9816 0.3986
-2.52392 -2.80225 0.904723
-2.5288 -2.56605 0.361276
-1.24923 -2.85559 1.42137
-2.59979 -2.38198 0.922903
0.408044 -2.5799 1.78891
-2.67836 -2.48179 0.723406
0.341619 -3.31221 -0.230455
-2.30674 -3.15374 -0.282203
-2.24684 -2.2131 1.62419
-1.07427 -3.08301 1.1168
0.633561 -2.65854 1.64333
-3.14281 -2.70764 -0.479258
-0.620698 -2.80241 1.09903
1.11608 -2.50523 1.79974
-0.600955 -2.97406 1.0453
-2.18497 -2.66059 -1.16472
-1.36708 -2.56252 1.55527
-0.679459 -3.34053 0.065507
-0.0534376 -2.74932 0.767209
0.469506 -3.02365 0.634887
-0.455454 -2.50563 1.73647
-2.32136 -2.54566 -0.176535
-2.99798 -2.38559 0.130512
-2.79573 -2.49715 1.18
-1.98512 -3.21065 0.706756
1.30401 -2.77446 0.859279
-1.76036 -2.46851 -0.495884
-0.999059 -3.23262 0.0436147
-1.62609 -2.78513 1.07987
-0.0402788 -2.33749 1.96177
-2.62823 -2.94863 -1.2779
-0.226921 -3.09387 0.899007
-0.367461 -3.11049 1.04027
1.08152 -3.29094 -0.354516
1.02988 -2.36664 1.95461
-1.98271 -2.59089 0.849881
-2.15563 -3.1028 0.536778
-0.616952 -3.01682 0.539554
-0.537973 -3.05169 -0.24988
-2.24378 -2.53812 1.44462
-2.52221 -3.0427 -0.256236
0.382938 -2.86451 0.200917
-0.439341 -3.01396 0.69959
-2.63781 -2.24744 0.412851
0.881389 -2.8952 0.431094
-1.97131 -2.47045 -0.813515
0.800361 -1.89443 2.24219
-1.97311 -3.42532 0.272588
-0.530269 -2.72555 1.61132
1.12355 -2.63067 1.15024
-2.27641 -3.13953 -0.358815
-1.49226 -2.55713 1.04063
-2.60518 -3.09009 0.805621
-0.0106203 -2.7801 1.38127
-1.73149 -2.93941 -0.865191
-2.3332 -2.40208 -0.566102
-1.67564 -2.40289 1.72151
-1.03482 -3.28561 -0.746215
-2.50233 -3.22254 0.374242
-2.45414 -2.66082 -0.0866191
-2.02806 -2.65754 0.263488
-1.87408 -2.84248 -0.956768
-2.50382 -2.62073 1.09233
-0.754041 -2.96672 -0.0767901
-0.711869 -3.22763 -0.144349
1.22708 -2.40718 1.91191
1.13018 -2.86971 0.759391
-0.362687 -3.23548 0.520853
-0.769544 -2.79576 1.46641
-1.65976 -2.50146 1.64718
-0.295238 -3.11425 0.826819
-2.13967 -2.96029 -1.36138
1.55232 -2.23239 1.89663
-1.82564 -3.05694 0.811457
0.942794 -2.70478 1.24761
-2.73183 -2.75913 -0.916568
-2.47639 -2.87599 0.208277
-2.59632 -2.66164 0.993924
1.3496 -2.9921 -0.10969
-2.14412 -2.34328 1.54434
-0.350398 -2.82464 0.852538
-2.57314 -2.82025 0.725259
1.30411 -2.84397 0.280064
1.17515 -2.76816 1.21904
-0.414996 -2.06082 2.2208
-1.21611 -2.91421 1.32448
-0.638088 -3.25887 0.106885
0.552522 -2.55087 1.71078
0.242723 -2.81043 1.08369
1.0295 -3.04472 0.751647
-1.94285 -2.54105 1.18804
0.810097 -2.34637 2.07778
-0.589807 -2.4353 1.85219
0.099542 -2.75266 1.26523
1.01239 -2.61718 1.49721
0.246943 -2.51344 1.36687
-2.61203 -2.25971 1.3314
1.07175 -3.09586 0.112174
-2.80257 -2.18362 1.24689
-2.8974 -2.28505 0.250772
0.159151 -2.58985 1.76263
-2.18298 -2.96408 0.365082
-2.37607 -3.15635 -0.200088
-2.79454 -2.10052 1.29352
-1.61151 -3.41149 -0.694449
0.955267 -2.58909 0.722047
-2.33539 -2.21244 1.54613
-1.88844 -3.05045 -0.39626
0.776877 -2.43923 1.87479
-1.68052 -2.88641 -0.400849
0.2041 -2.94082 1.28771
-2.5803 -2.21568 0.55315
-1.75425 -2.26453 -0.634792
-3.36019 -3.394 -0.351333
0.458125 -3.3187 0.431975
-0.179471 -2.63588 -0.137591
-0.951728 -2.83659 0.0248102
0.434003 -3.05381 1.06558
-2.55826 -2.84608 1.14278
-1.11705 -2.64434 1.555
-3.15571 -2.52361 0.914059
-2.41323 -3.03651 0.24275
-0.373238 -2.80964 1.3784
1.43136 -2.70117 0.623472
1.30628 -2.88445 0.203579
-2.05363 -2.48209 1.31903
-1.6801 -2.59997 -0.439419
0.0336518 -2.44496 1.79878
-2.71086 -3.01879 0.826928
0.352828 -3.37891 -0.178743
-0.479227 -2.90804 1.14446
-2.79353 -2.2328 1.2603
-3.01948 -1.92357 0.995124
-2.59751 -2.7333 0.809999
-3.04009 -2.8133 0.569984
-1.95174 -3.19023 0.366508
0.462624 -2.24647 2.10467
-1.53708 -3.49439 -0.168501
0.546749 -2.39321 1.89259
-0.286065 -3.05128 -0.576265
-2.11232 -2.86687 -0.731836
-1.53458 -2.80094 1.26267
-2.25328 -3.2816 0.708893
-2.65372 -1.81929 1.47355
-0.205758 -2.70636 1.37012
-0.713031 -3.4275 0.0828982
-2.71535 -3.23171 0.280593
-1.8633 -3.525 -0.00478232
-2.6654 -3.15412 0.677013
-2.52611 -2.21968 1.46273
-1.51546 -3.35289 0.216554
-3.33368 -2.96175 -0.12363
-0.171684 -3.27684 0.660934
-3.09509 -2.26614 1.04114
0.958336 -2.20735 2.23235
-3.05346 -2.79999 0.562452
-1.29944 -3.2673 0.502723
-1.3753 -3.12231 0.951845
1.0014 -1.91038 2.68182
1.19973 -1.6931 2.96168
0.644897 -1.82492 2.71056
0.582369 -1.8711 2.85295
0.950697 -1.61966 2.79123
0.717871 -2.37274 2.16249
0.0560745 -1.79903 2.6075
0.195173 -2.73299 1.79424
0.783388 -1.42481 3.15179
0.490286 -1.94067 2.52135
-0.321868 -2.08492 2.2771
1.0917 -1.52921 3.01602
0.796522 -1.17661 3.34639
0.75542 -1.44309 3.16923
0.144126 -1.68274 2.79716
0.800347 -1.79964 2.86013
0.343502 -1.79466 2.65489
1.01165 -1.72305 2.8671
0.0276015 -2.04076 2.3645
0.0262582 -2.03838 2.3087
0.54793 -1.95935 2.67407
-0.233544 -2.25404 2.09485
-0.140395 -2.07578 2.31878
0.994089 -1.69862 2.99531
0.0628098 -1.44926 2.91687
0.850301 -1.46927 3.13717
0.426 -1.4604 2.93263
0.260997 -2.18732 2.2133
-0.1316 -1.71332 2.66788
1.09152 -1.56441 3.15103
0.533591 -1.39708 3.09026
0.350336 -1.81119 2.53894
1.08542 -1.19752 3.40175
1.1189 -1.49269 3.13978
-0.0128551 -2.3774 2.01315
0.268138 -1.80532 2.65982
0.815536 -2.31333 2.26143
-0.0993048 -2.25707 2.29003
0.801334 -2.07194 2.37415
0.222619 -2.02205 2.39158
0.452872 -1.39469 3.03293
1.0075 -1.74226 2.80154
0.424062 -1.47387 2.97522
0.866733 -1.17902 3.39182
0.655691 -2.35615 2.14555
0.495608 -2.01128 2.49993
0.852895 -2.25195 2.41786
0.477849 -1.6386 2.9678
0.468196 -1.92652 2.58346
0.490854 -1.92874 2.487
