ply
format ascii 1.0
comment Created by Open3D
element vertex 400
property double x
property double y
property double z
end_header
1.23579 3.29014 -0.473553
-0.947312 3.07932 0.412839
1.0251 3.24061 -0.184204
0.890368 3.07128 1.03349
0.423294 2.99756 -0.89821
0.654323 2.98841 -0.783184
1.37381 3.07645 0.604019
0.472956 3.16828 -0.292247
-1.32538 2.76743 -0.000298755
-1.31315 2.9057 0.822599
1.27941 2.94627 -0.801138
0.627269 3.13727 0.144699
0.0940323 3.05801 0.845572
-0.758329 3.00733 0.274896
-0.303412 2.99122 0.266828
1.53419 2.9593 -0.898596
1.30273 3.14745 -0.555737
-0.825749 2.78201 0.784108
1.76225 3.19571 0.113473
-0.0319912 2.91604 0.908424
0.317703 3.13443 -0.187603
0.00324602 3.08601 -0.09395
-0.336573 3.00511 0.327668
0.737361 3.10402 0.0864567
1.55335 3.10152 0.0132855
0.0743113 2.9614 -0.52196
0.724444 2.89426 0.87902
-0.954475 2.91249 -0.589304
0.463956 3.17752 0.700788
-0.783747 2.96768 -0.669389
0.746434 2.84984 -1.06144
0.0128034 3.09251 0.46466
1.21755 3.13225 0.812046
-0.518131 3.05734 0.411438
0.993116 3.12808 0.649531
0.761979 3.11397 0.363951
-1.28578 2.94378 0.00260736
-0.546405 3.10416 -0.518231
1.46563 3.29532 -0.162717
1.16156 3.00562 0.545674
0.244606 3.05519 0.633086
-0.0454705 3.10383 -0.689753
-0.557371 3.05798 0.826538
0.00801629 3.19007 0.323712
-0.627591 3.16448 0.390247
1.5715 3.10139 0.598249
-0.288964 3.08196 -0.546413
0.568316 3.27458 0.594769
-1.08479 2.94415 -0.797928
0.587832 3.25242 0.456
-1.08441 2.88147 0.934177
1.218 3.13168 0.59228
-0.109106 2.88556 0.768416
-1.26491 2.95666 0.714103
-0.533442 3.01833 0.988123
0.28387 3.2623 -0.118312
0.593316 3.14384 -0.643661
0.623148 2.79487 -1.14298
1.15881 3.21659 0.183315
1.02195 3.05652 0.285629
-0.451376 2.84695 0.931685
0.130283 3.09952 -0.677305
1.08264 3.23351 0.727028
1.05254 3.05821 -0.851938
-0.246984 2.95696 -0.83466
-0.529492 2.97681 0.83342
-0.730864 2.92567 -0.779581
0.531913 2.99939 -0.436956
-0.0602374 3.13638 0.640147
-0.404696 3.09958 -0.504541
-0.622814 2.83519 -0.720276
1.35345 2.99513 0.470334
0.772026 2.96254 -0.664106
-1.27486 2.81297 0.809974
-0.671895 3.0317 0.397397
0.469499 3.05512 -0.754388
1.41216 3.19159 -0.426997
1.73563 3.20296 -0.486436
-0.345434 3.04821 -0.159552
-0.267538 3.00665 -0.714519
-0.825737 2.8971 -0.493068
-0.959571 2.97958 -0.650433
-0.610461 3.20644 0.00913868
-0.264551 2.93064 -0.491068
-0.834549 3.08995 0.460308
1.42144 3.23789 0.122848
0.860689 3.13664 -0.39097
-0.516948 3.10301 0.00308494
1.12519 3.13633 -0.288087
0.707273 2.97751 -0.840903
-0.919227 3.21868 0.00670324
-0.219559 3.04409 0.2309
1.10383 3.11296 0.747855
-0.468593 2.89335 0.436155
-0.848851 2.92912 -0.45566
1.18419 3.1708 -0.306175
-0.781152 2.93656 0.06627
1.07017 2.97272 -0.849653
-0.469575 2.87191 -1.01767
-0.515049 3.13905 0.213646
-0.379688 3.28765 0.000165822
-0.653344 2.93692 -0.241055
0.589982 3.01766 0.761358
0.815191 3.02136 -0.638489
1.30541 2.91146 -0.671422
-0.237969 3.14728 -0.213727
-0.81771 2.96557 0.245957
0.0487811 3.0163 -0.679353
0.0285381 3.19071 -0.349765
0.492223 3.01377 0.799043
1.35349 3.09601 -0.00333011
-0.571789 3.09013 0.406739
-0.2824 3.08706 1.00372
1.00137 3.26484 0.859419
-0.307978 2.96962 -0.709536
0.667958 3.10852 -0.646656
-0.426604 2.9224 0.297832
-0.331071 2.92439 0.77876
1.13544 3.09347 1.10433
-0.177219 2.95558 -0.918454
1.08035 3.18951 0.491579
1.64872 3.07862 -0.714067
-0.0547995 2.96435 0.469959
-1.26958 2.93287 -0.875681
-1.2418 2.89742 -0.547365
1.47371 2.99476 0.844141
0.667098 3.22643 0.438503
1.24241 2.87511 -1.014
-1.03134 3.11226 -0.141873
1.72224 3.14691 -0.69742
-1.13472 3.05353 -0.349431
-1.1008 2.87864 -0.762141
0.946513 3.22726 -0.330698
1.40078 3.18256 0.514771
1.46203 3.25271 -0.250104
0.548245 3.23494 0.199835
1.10248 3.08433 -0.0937449
-0.452702 3.04905 0.398556
1.53815 3.1093 -0.180047
-0.514161 2.85664 0.882649
0.369381 2.9832 1.04002
1.86745 3.3248 -0.0540809
1.65262 3.11139 0.711817
-0.278015 3.00307 -0.699177
-0.899217 3.00726 0.126507
0.0635189 2.99602 1.03974
-0.529201 3.02398 0.730726
0.702674 2.72827 0.673751
-0.599306 3.09855 0.308922
-0.55688 2.82449 -0.923188
1.5464 2.96962 -0.933686
1.6127 3.30424 -0.0749668
1.71446 3.19893 0.0560069
0.210254 3.06728 -0.466807
1.1139 3.07824 0.501177
-0.746105 3.11897 1.1499
0.934026 3.01644 0.985013
1.64748 3.07125 -0.633924
0.961616 2.89432 0.864754
1.76952 3.31432 -0.213068
1.26076 3.21754 -0.0386757
0.502083 2.9908 0.831152
0.886801 2.86821 0.839283
-0.0582376 3.22581 -0.488204
0.201658 2.991 0.023409
0.799463 2.92149 -0.955195
1.09284 2.93226 0.757381
-1.24028 2.98163 -0.810914
1.27689 3.52106 0.0424363
0.59854 2.99847 0.891978
1.39494 3.11595 -0.428685
0.914464 3.1242 -0.723896
1.128 3.1738 0.141635
1.37479 3.24486 -0.160678
0.106722 3.07755 -0.566651
0.410798 3.01504 -0.544715
-0.0288965 3.03124 -0.404006
-0.724907 3.09906 -0.0585963
1.00649 3.24782 0.317051
-0.0527683 2.99277 0.397229
0.306854 3.00379 -0.359775
0.433742 3.17873 0.564683
0.777862 3.24303 0.528539
-0.529918 3.01535 0.00588392
-0.163619 3.05611 -0.506622
-0.507584 3.0724 0.220176
-1.04368 3.11261 0.961394
-0.944094 2.81244 0.838179
1.6465 3.25101 0.181651
-0.816297 2.98829 1.03041
1.3376 3.35672 -0.293747
1.59055 3.11035 -0.210726
1.65931 3.14309 0.760256
-0.305012 2.97817 -0.75021
-0.698563 3.05084 -0.515269
-0.415518 3.07537 -0.408639
0.144689 3.0004 -0.867395
0.507174 3.26195 0.0206563
-0.791702 2.90333 0.689631
1.6531 3.189 0.0179044
1.57887 3.25232 -0.138943
-0.132969 3.01846 -0.315295
-0.359732 3.15971 -0.372004
0.259175 3.04225 0.600569
-0.484741 2.91786 -0.607574
-0.294059 2.89375 -1.01689
-0.74979 3.09155 -0.598429
0.528527 3.04498 0.550743
1.07059 3.37477 0.231336
0.124443 2.81258 -1.05083
0.823269 3.01906 0.711347
-0.908042 2.95982 -0.683496
-0.693644 2.96047 0.330713
-0.344208 2.99051 0.999699
1.6663 3.32579 0.620869
0.77321 3.1353 -0.766328
-0.0648978 3.00419 0.558014
-1.13243 2.98757 -0.813974
-1.21997 2.91523 -0.0928493
1.43922 3.2406 -0.145323
-0.70819 3.17189 -0.111768
-0.064127 3.20992 0.221317
0.807207 2.94683 0.981105
-0.171949 2.83178 -0.786635
-0.197724 2.93322 0.156103
0.660216 3.08138 0.118842
0.594819 3.02109 -0.859676
0.376318 3.05888 -0.826179
-0.173266 3.13185 0.551486
0.471391 3.04192 0.462192
-0.151021 3.08111 -0.341346
-0.126872 3.01448 -0.464169
0.673868 2.94551 0.930262
0.953458 3.0952 -0.766439
0.0632354 3.16782 -0.30081
0.12224 3.22201 -0.656108
-0.832926 3.12942 -0.649096
1.41158 3.15283 -0.372208
1.05179 3.06732 0.434884
0.847698 3.24922 0.367567
0.182548 3.20646 -0.118738
-0.738332 2.8596 0.375211
-1.37311 2.86406 -0.861002
0.474632 3.11201 -0.49564
-1.10304 3.0145 0.201454
0.253603 3.10075 -0.32516
0.618392 3.16695 0.0897743
0.298109 3.27076 0.762333
1.47054 3.10283 -0.637387
-0.263442 3.13735 -0.284327
1.72347 3.25603 -0.161228
-0.872631 2.91688 -0.963199
1.21342 3.44914 0.717713
-0.173113 2.9327 -0.00472059
-0.917872 2.89394 -0.689627
0.568547 2.97019 0.710442
-0.353879 2.99867 -0.78921
0.220837 2.97377 0.991096
-0.797417 2.813 0.767193
0.864586 3.05945 -0.396382
1.20071 2.96725 -0.903366
-0.964067 2.84918 -0.337775
1.5291 3.09496 -0.708118
0.382157 3.00221 0.171587
-0.822078 2.85351 0.504382
-0.864449 3.08968 -0.492199
0.191831 3.04552 -0.566237
-0.991868 3.03151 -0.304923
-0.205098 3.01036 -0.547373
-0.180875 2.98186 -0.888296
1.43354 3.10903 0.753266
1.38534 3.38329 0.201344
0.087966 3.05178 0.237157
-1.16849 2.99918 -0.613299
0.167046 2.85194 0.768642
-1.01752 3.01296 -0.768733
1.73122 3.15146 0.104154
-0.869734 2.98045 -0.857784
-0.965224 2.92997 0.553011
1.45067 3.34677 0.619555
0.102118 3.25516 0.0853083
0.879532 3.01214 -0.778322
-0.785957 2.85789 -0.794177
0.301955 3.02135 -0.490325
-0.869952 2.97876 0.335607
1.50946 3.11219 -0.559417
1.67342 3.43188 0.04794
1.43607 3.38095 0.270234
-0.741487 2.91954 -0.573591
-1.28275 2.87314 0.323955
-1.01583 2.96475 -0.664563
-1.10044 3.09028 0.595568
0.167718 2.97741 -0.850788
0.486581 3.08236 -0.0657558
-1.01871 3.05742 0.285185
0.981941 2.99926 -0.850039
-0.57175 3.07883 0.383162
-1.26805 2.86564 -0.575995
1.0364 2.92439 0.317583
1.68385 3.19564 -0.531542
-0.545698 3.10122 0.283315
1.34023 3.39084 0.0323775
-0.346861 2.89596 0.599437
1.70705 3.18619 -0.330733
-0.561889 2.96476 0.510824
0.0302945 3.07275 0.0178162
1.49512 2.96397 -0.862936
1.04464 3.12033 -0.0765881
-0.0731369 3.01248 0.515553
1.10552 3.06911 -0.532681
-0.624067 2.75302 0.57753
0.282947 3.17026 -0.701698
0.220396 3.16866 -0.304196
1.432 3.04443 0.432411
0.587544 3.10924 -0.567129
0.53602 3.09825 -0.355535
-0.623123 2.93768 -0.946388
0.231102 2.84388 0.688661
0.370527 3.04449 1.01024
-1.20568 2.76441 -1.11128
1.26645 3.02175 -0.908879
1.1312 2.85107 -0.928861
-0.571715 2.94303 0.448559
1.54568 3.10876 0.317273
1.11468 3.17048 0.459651
0.571194 3.22303 -0.19336
-0.767324 3.05316 0.689221
-1.23895 2.9823 0.367602
-0.538555 2.93702 0.973943
0.524634 3.05222 -0.199381
0.403247 3.11321 -0.45535
-1.05408 3.02554 -0.592258
0.215467 2.8774 0.667636
-0.959252 2.97642 -0.617734
0.972822 3.14404 0.981541
-0.838774 3.15358 -0.24662
0.225544 3.18343 0.0735779
-0.554962 3.12759 0.215287
-0.288428 3.27594 0.335867
-1.3155 2.84 0.874237
0.6906 3.02458 0.547649
1.05446 2.90401 0.50372
0.860443 2.88523 -0.834935
0.358755 2.87972 -0.943147
0.662476 3.03362 -0.627325
0.765551 3.05781 0.452598
0.191431 2.96451 0.435375
-0.190334 3.01795 -0.359842
-0.480992 2.8816 -0.166445
0.346728 3.21427 -0.322534
0.103665 3.16146 -0.143053
-0.983375 2.96019 0.781154
0.00521888 3.00436 -0.537329
1.687 3.27908 -0.213763
0.143855 3.0244 -0.705042
1.34071 3.12249 -0.374646
1.14361 3.07932 0.972094
0.909074 3.05734 -0.852515
-0.374077 2.89683 0.599035
1.52934 3.35699 0.357046
1.22476 3.11136 0.366866
1.32642 3.32024 0.843365
0.597317 3.20525 -0.213549
0.196713 3.02921 0.943935
1.08568 3.15833 1.05877
0.877845 3.22591 -0.052695
0.0531585 2.81875 0.733479
0.877646 2.96763 -0.904468
0.294458 3.09961 0.887815
-0.0577286 3.25331 0.0982831
1.68852 3.12807 0.129515
1.15585 3.06447 -0.770967
-0.308071 3.17754 -0.118977
0.110888 2.93878 -0.95038
1.55083 2.98612 -0.90367
-1.2866 2.90066 0.231756
-0.0471142 3.23062 0.116751
-0.102756 3.05476 -0.722038
0.313193 2.97565 0.326436
0.838661 3.04799 -0.711867
-0.694351 2.83051 0.0926168
1.02619 3.01593 -0.71006
1.7261 3.37287 -0.052714
-0.840182 3.19011 0.421408
0.321854 3.0429 -0.400048
-0.392672 2.79532 0.633005
-0.4767 3.18232 0.388239
1.41031 3.15135 -0.56344
-0.267946 3.06369 0.721628
1.05091 3.18428 -0.318645
0.403706 2.95795 -0.88033
-0.745425 3.01692 0.734555
0.52083 3.0815 0.652174
-1.03623 2.98268 -0.0321484
1.59538 3.04646 -0.547702
0.513952 3.01271 0.418469
0.927019 3.30969 -0.257066
-0.699836 2.90931 -0.393828
-0.512781 3.04965 0.840236
0.771367 3.19342 0.943874
