ply
format ascii 1.0
comment Created by Open3D
element vertex 250
property double x
property double y
property double z
end_header
-0.442804 3.16253 2.0846
0.0103099 3.96189 -0.0258636
2.09397 2.07224 0.0172066
1.18133 2.70609 0.736963
-0.550471 3.39234 1.54621
1.06935 2.11885 1.61768
2.33756 1.05315 2.87151
1.92334 2.32008 1.54325
-0.774977 2.69814 1.84052
0.938383 3.2979 1.37779
0.577147 3.81044 0.373423
1.27023 2.2859 1.16417
0.364957 3.75552 1.22625
0.866481 2.35695 2.02824
-0.477008 3.11219 0.816085
-0.14201 3.97748 1.32248
0.820088 1.69238 1.7054
2.3933 1.21606 1.57664
1.07606 1.34723 1.85871
2.04459 2.50377 0.223732
0.0980113 3.71391 0.0624254
2.87695 2.11089 2.21326
1.09543 3.11176 2.01919
1.93752 1.75481 1.70828
1.84533 2.38922 0.457168
0.00245455 3.22684 1.6613
1.29568 2.35602 2.38356
-0.0241545 4.26418 0.733863
1.92262 2.12119 0.604964
1.05527 3.41444 1.18137
-0.544552 3.06135 2.10339
0.0147947 4.21831 0.380946
-0.757441 3.3513 1.48923
0.330825 3.54868 -0.392896
-0.0786971 3.84837 -0.156264
2.11847 0.817626 2.5437
1.90272 1.95296 -0.0182504
0.100979 3.69563 -0.318742
-0.473167 2.26106 1.09941
2.13445 2.29255 0.871116
2.06092 2.33239 0.795041
1.57758 2.23722 1.8796
0.35889 3.93565 0.614884
-0.0722561 4.01154 1.20657
1.41062 2.32458 -0.200423
0.182688 4.26199 0.826819
2.56745 1.45669 0.251496
0.0349878 4.16515 0.849276
1.52145 1.17907 1.91611
-0.166068 3.23403 1.31145
0.75709 3.88164 0.11198
1.42744 2.31316 0.276016
2.65414 1.39684 0.56838
-1.02515 3.31162 0.705488
1.67208 2.95065 1.38363
3.01473 1.37234 0.877062
1.67315 2.46117 0.973514
-0.896506 2.58574 1.62569
1.42223 3.61651 0.830151
1.11423 2.07074 1.4778
1.7956 2.63425 1.96871
2.07414 1.58092 1.58951
2.03947 2.68379 0.646977
-0.317445 3.59689 1.52812
-0.626769 3.79582 0.727357
0.192853 3.58928 -0.294641
0.698215 3.2749 0.71642
2.65932 1.37322 2.00339
-0.208824 3.18794 2.00059
0.885179 2.52515 1.62301
1.05248 3.76843 1.19343
2.36465 2.37634 0.534762
-1.15917 2.51153 1.22228
1.82488 1.86799 0.909927
1.81032 1.71355 0.473763
1.88606 0.669393 2.28211
3.01947 1.59228 0.851365
0.629016 4.17687 1.45417
0.464236 3.59614 1.02547
1.37974 2.64395 1.63749
0.914692 2.25761 2.10489
0.7469 3.57662 0.000333643
-0.32525 3.38408 1.21085
1.71599 1.95605 2.29439
1.5806 2.45269 1.47057
-0.232335 4.09861 1.11672
2.16788 1.52415 2.14724
-0.574232 2.93408 1.84099
2.99234 3.00678 1.73173
0.493995 3.00794 0.896003
1.9132 1.79999 -0.183284
2.69392 1.69988 1.8549
-0.205045 3.17434 1.35688
1.05822 4.08998 1.68048
0.31676 3.52027 0.225739
2.16057 1.99541 0.772134
-0.287855 2.61792 1.84211
-0.659124 3.26386 1.55625
1.2488 3.55897 0.286447
0.341005 2.04953 1.8847
0.170902 3.54505 0.784296
-0.29903 3.65697 1.37004
0.224556 3.83791 1.64473
-0.478507 2.63684 1.8002
0.426921 4.03145 0.539312
0.878673 2.62482 2.07881
0.930058 2.2207 1.79508
3.12759 1.44123 0.945295
2.51358 1.33527 1.88978
1.55708 1.916 1.19602
1.7379 2.31215 0.230921
1.24003 3.43201 0.252753
1.74992 1.95471 0.99866
-0.8982 2.28879 1.58088
3.30191 1.79395 1.63852
0.827979 3.45869 0.954178
2.65219 1.59322 1.47123
-1.03909 2.9178 1.16124
-0.0319259 3.77436 1.18676
0.31715 4.01192 0.523337
2.13093 0.975402 2.60953
0.844645 4.05099 0.471314
1.68974 2.75073 1.70186
0.223512 3.9696 0.775075
2.31571 1.28898 2.48912
2.78742 1.2902 1.43591
2.23038 3.07158 0.582228
1.41663 2.54323 0.150446
1.14639 2.18355 1.58892
2.62923 1.71413 0.732665
2.16421 2.06837 1.39718
2.48258 1.04448 1.51097
0.852883 4.22588 1.21082
2.92773 1.46316 0.375473
1.98596 2.60831 0.317203
2.17015 2.19183 1.19415
2.8145 1.5274 1.22796
2.28415 2.67144 1.71525
0.35566 3.98951 0.135342
2.12916 1.03146 2.16936
0.1284 3.83197 -0.138592
-0.512663 3.90853 0.820843
2.40201 1.61513 0.182004
0.294503 3.71894 1.28209
-0.152524 3.31555 1.24209
0.126178 3.79314 -0.218927
0.0636806 2.35755 1.5591
2.32585 2.02029 2.42125
0.661974 4.02659 0.243164
-0.0154072 3.03428 1.64568
2.8312 1.63146 0.713416
0.0571208 3.03832 1.85911
2.25084 1.36865 0.462223
-0.108179 4.20226 1.14074
-0.380772 3.10955 2.05438
-0.824076 3.24704 0.32589
2.00194 1.0091 1.21683
1.08706 2.52432 2.60949
0.790526 2.97455 2.12179
2.29432 1.18551 0.736453
0.431375 3.19582 -0.393359
1.5746 3.10624 0.578169
-0.222172 3.42761 -0.563612
0.0863916 3.66991 1.12051
1.94708 2.21932 0.630017
2.57589 1.45313 2.44111
2.27828 1.21542 2.49432
0.836692 4.22608 0.966683
-0.0694297 3.1597 2.00539
2.3544 2.36747 0.766127
0.236132 3.58125 0.154547
1.57749 1.06894 1.76966
1.78733 2.42039 0.956947
0.155199 3.75558 -0.21676
-0.279731 3.83331 -0.125191
0.231305 4.02997 0.723634
-0.207219 3.81295 0.291823
0.507724 3.36359 1.17154
2.71995 1.98315 0.510595
0.491032 2.50395 1.27138
2.69644 1.92197 0.749826
0.842611 1.86872 2.29181
-0.460541 2.92912 1.63076
1.20753 3.4798 0.819354
0.540066 3.20605 0.374301
0.234388 3.92176 -0.135423
2.04157 2.5078 1.09396
1.12446 1.93864 1.29806
-0.0262819 3.56412 0.677565
0.409248 2.75061 1.02636
0.222788 3.53936 0.312191
0.462905 3.81045 -0.0868379
0.718828 2.79644 1.20339
-0.812414 3.49068 0.353978
1.75155 1.51084 0.84983
-0.202961 3.44107 -0.624748
3.07826 1.55569 0.462066
-0.226222 3.81368 0.285602
1.00606 2.75408 1.09776
1.18531 2.82332 0.643177
3.25128 1.35282 -0.151439
3.47483 1.36027 -0.2253
3.00142 1.42662 -0.474332
2.99232 0.650756 -1.45384
3.267 2.3655 0.691736
2.89542 1.11317 -0.151648
2.54059 1.55137 -0.851951
2.4212 0.76128 -0.66189
3.20478 1.35058 -0.859822
2.85128 1.70552 -0.162001
2.20307 1.66578 -0.78684
3.41101 1.78137 0.0256433
3.25374 1.52823 -0.870437
3.18724 1.17505 -1.08074
2.62049 1.00895 -1.49723
3.15351 1.04521 -0.84553
2.7739 1.66701 -0.488462
3.31057 1.46631 -0.217348
2.4852 1.75738 -0.425048
2.51106 2.40966 0.282481
2.91599 0.899612 -1.06014
2.26373 2.16306 -0.0111533
2.34394 1.6216 -0.686744
3.33506 1.10934 -0.720091
2.57841 1.33077 -1.38584
3.25455 1.30889 -0.816772
2.91626 2.14333 -0.213935
2.61647 1.86055 0.0721932
2.37727 1.1334 -1.52648
3.44919 1.15283 -0.735581
2.99459 1.43647 -0.970318
2.80337 2.61337 0.582256
3.49596 1.56922 -0.586932
3.46118 1.45621 -0.395608
2.36959 1.73413 -0.129867
2.70748 1.42938 -0.80829
2.99459 1.05932 -0.205422
2.32706 0.592362 -1.64052
3.02334 1.72477 0.325849
2.63711 1.8678 -0.142158
2.93022 1.71812 -0.71433
3.29088 1.63861 0.016336
2.89138 1.56449 -0.837687
3.31937 1.41097 -0.960594
2.84776 1.2338 -0.0784665
2.83975 1.39482 -0.443954
3.07342 0.850826 -0.532398
2.92519 0.902834 -1.43136
2.8402 1.39913 -0.553447
2.85534 2.01739 0.184509
