ply
format ascii 1.0
comment Created by Open3D
element vertex 250
property double x
property double y
property double z
end_header
-2.86213 0.592924 1.3513
-3.43208 -0.469073 -0.895579
-1.98894 1.39786 -2.04127
-3.08683 1.14645 -1.22333
-3.43295 0.20515 0.7007
-2.72213 1.69121 -0.338386
-0.954419 3.43697 0.555523
-2.10332 2.16306 -0.600769
-3.10532 0.333929 1.10933
-3.2124 1.23137 -0.405338
-3.62364 0.273105 -1.10706
-2.80742 1.53803 -0.874987
-3.6756 0.655875 -0.265631
-2.66149 1.72325 0.260968
-4.24174 -0.00681059 -0.522183
-3.60686 0.264768 0.279594
-2.72614 1.6569 -0.205848
-1.45984 2.71556 -0.84481
-2.37636 1.97992 -0.151558
-2.08713 1.39802 -1.76446
-3.93614 -0.217415 -1.23955
-0.996913 3.19813 -0.126985
-2.7257 1.72171 0.26282
-1.90336 2.38208 -0.511007
-2.35264 1.45405 -1.60512
-3.4659 0.742852 0.341077
-2.16873 2.20067 0.543459
-3.56613 -0.0813311 -0.208905
-2.24055 1.6522 -1.54299
-3.20564 1.17116 -0.621739
-2.78272 0.53962 1.45739
-3.36744 -0.285719 -0.439834
-3.31004 0.00429688 0.858073
-3.45867 -0.347417 -1.57037
-3.50403 -0.580099 -1.01731
-1.22449 3.16212 0.208934
-2.21092 1.2896 -2.09583
-3.52445 -0.503329 -1.33953
-3.96437 0.334348 -0.358102
-2.0207 1.90597 -1.29097
-2.10911 1.80592 -1.34375
-2.23785 2.14433 -0.164472
-3.78737 0.247974 -0.802386
-3.69575 0.251224 0.0885008
-2.75928 0.789986 -2.11314
-3.64688 0.145919 -0.323027
-1.48036 1.97911 -2.05628
-3.7408 0.0831559 -0.2791
-2.00081 2.34291 -0.251028
-3.79689 0.443797 -0.0280466
-3.23743 0.178394 -1.21968
-2.80929 1.10569 -1.74621
-1.39663 2.24277 -1.81351
-4.02752 -0.571762 -0.0488447
-2.5192 1.78098 -0.622472
-1.02411 2.66164 -1.59777
-2.51451 1.64568 -1.11002
-3.358 0.171338 0.83478
-2.90268 1.14474 -0.956378
-2.74855 1.65469 -0.51945
-2.12646 2.2554 -0.0689621
-1.79339 2.43946 -0.696034
-2.1654 1.62254 -1.39078
-3.51452 0.334896 0.529113
-3.82111 -0.398367 -0.0611948
-3.67621 -0.371468 -1.50068
-3.60576 0.701914 -1.03609
-1.1281 3.09716 -0.432799
-3.09208 0.746534 0.987474
-2.95506 1.48959 -0.223175
-3.23368 1.09594 -0.527126
-1.76177 1.81856 -1.5734
-3.76576 -0.202396 0.419991
-2.26607 1.82906 -1.29535
-2.31593 1.59353 -1.73244
-1.48081 2.89506 -0.0389588
-1.02624 2.59728 -1.56345
-3.41222 0.860268 0.0105568
-3.7106 0.651251 -0.573775
-2.6121 1.7999 -0.333667
-2.55416 1.81582 0.326593
-3.37555 0.194197 -1.47248
-3.88036 0.236179 -0.00749851
-1.84621 2.51713 0.240763
-2.46468 1.87564 -0.589367
-3.58406 0.0370229 0.213265
-1.48784 2.82462 -0.122752
-3.17753 0.441605 0.990841
-1.14289 2.79699 -0.459212
-3.69536 0.732566 -0.861186
-2.16724 1.22644 -2.26303
-1.19367 2.96358 -0.532333
-3.76388 0.451525 0.0412334
-3.09121 1.30308 0.0595627
-3.92442 0.0948489 -1.30169
-1.96056 1.92747 -1.44298
-3.25895 0.748184 0.653307
-3.39157 0.153066 0.774811
-2.96074 0.699623 -1.35076
-2.95404 1.34781 0.258737
-3.97293 0.327823 -0.737123
-3.66333 0.258411 0.311153
-3.44081 0.753133 0.352563
-3.29029 0.576539 0.740333
-3.67854 0.215291 -0.827074
-2.68854 1.70358 0.354757
-2.74146 1.67224 -0.0689876
-0.912275 2.75768 -1.53617
-1.27883 2.94616 -0.523775
-2.45486 1.81546 -0.952681
-2.45161 1.2651 -1.80171
-2.9885 0.706407 -1.42471
-2.33728 1.81568 -1.18215
-3.4602 0.227755 0.656358
-0.699152 3.20313 -0.842741
-3.45745 0.882596 -0.787595
-1.31158 2.73776 -0.930524
-3.77366 -0.243947 0.390071
-3.80954 0.342522 -0.0883524
-3.75558 0.137064 -0.81218
-1.20346 3.17153 0.312663
-3.29452 0.434014 -0.957965
-2.35494 2.01476 -0.322126
-3.8418 0.242576 -0.589569
-1.18327 3.16107 0.175816
-1.16042 2.87041 -1.05489
-1.93273 1.60333 -1.34169
-2.82391 0.967349 -1.79125
-2.69773 1.71354 -0.386147
-1.4381 2.25492 -1.58979
-1.86753 2.28417 -0.833157
-1.38035 2.77315 -0.967151
-3.35227 0.861601 -0.31082
-1.10467 2.27628 -1.98912
-2.17784 1.39854 -1.66503
-1.92828 2.14295 -1.01295
-1.1948 2.71146 -1.20729
-1.79551 2.41747 -0.435712
-3.50577 -0.10205 -1.03724
-1.41862 2.91641 -0.173237
-3.54062 -0.401803 -1.17517
-3.72191 -0.294506 0.0262092
-1.65799 1.79713 -2.05605
-3.67809 0.645426 -0.17887
-3.84889 0.399373 -0.104651
-3.47713 -0.452611 -1.21725
-3.40819 0.926075 0.00103164
-1.34991 2.9761 0.217675
-3.31948 0.163351 -1.04556
-3.46926 0.766009 0.284946
-1.22211 2.38676 -1.64953
-3.258 0.921969 0.539402
-1.81551 1.93494 -1.86541
-3.5464 0.116681 0.195855
-2.9608 0.64833 1.20982
-4.53203 -0.564914 -0.826315
-1.87016 2.30229 -1.16863
-2.15701 2.13832 0.940346
-2.78653 1.59301 0.495609
-1.72909 2.16837 -1.66134
-3.67233 -0.156478 -1.86278
-2.70975 1.20078 -1.31336
-3.87477 -0.787652 -1.59544
-3.84591 0.422296 -0.279619
-2.22491 1.66069 -1.50262
-1.04259 3.27147 0.0751899
-1.1953 3.15491 0.179649
-3.37246 0.701854 -0.521265
-3.11581 0.866157 0.870843
-1.79062 1.95922 -1.38563
-3.95251 -0.0211768 -1.30477
-2.00903 2.32312 -0.452498
-2.39439 1.71557 -1.14818
-3.54854 -0.410048 -1.2874
-3.52279 -0.708456 -0.862192
-3.8118 0.198255 -0.605519
-4.07547 -0.313667 -0.87659
-3.61109 0.815796 -0.486406
-1.34185 2.10993 -1.71606
-3.41614 1.04205 -0.515447
-1.38031 2.25912 -1.53208
-2.35359 1.94018 0.546017
-3.48355 0.443587 0.551905
-3.12468 1.03788 -0.977811
-3.78323 0.412023 -1.33911
-3.24934 -0.381339 -1.05617
-2.12864 1.93589 -1.03474
-2.79113 1.58948 -0.742773
-4.10601 0.125633 -0.75956
-3.65637 0.803849 -0.737529
-4.00633 0.0831764 -1.20182
-3.39164 -0.130089 -1.28955
-3.35844 1.09647 -0.622135
-4.29967 -0.629641 -0.609657
-2.28445 1.82384 -1.4046
-3.68562 -0.840468 -1.54976
-0.950421 2.4008 -1.90769
-4.07567 -0.332168 -0.868324
-3.16384 1.23377 -0.818167
-3.11065 1.06719 -1.28811
-0.687518 2.16704 -2.46562
-0.435716 2.25523 -2.5423
-0.84939 1.78261 -2.63818
-0.749445 1.34418 -3.63432
-0.740627 2.46356 -1.49916
-1.09745 2.00984 -2.51358
-1.19309 1.21671 -2.79758
-1.55044 1.48128 -2.97273
-0.498357 1.6696 -2.93546
-1.06926 1.8244 -2.31043
-1.61234 1.03055 -2.70932
-0.480594 2.26664 -2.18926
-0.370169 1.64003 -2.85675
-0.48885 1.56084 -3.15671
-0.957612 0.977096 -3.42655
-0.663924 1.73542 -3.06624
-1.05059 1.57099 -2.53673
-0.58442 2.13021 -2.47413
-1.40493 1.41769 -2.45422
-1.537 1.73566 -1.75722
-0.879583 1.48697 -3.24596
-1.77104 1.4578 -2.03666
-1.49469 1.19377 -2.66829
-0.501991 1.91324 -2.9769
-0.923472 0.931831 -3.19161
-0.479618 1.74144 -2.93466
-0.888102 1.71212 -2.17617
-1.3894 1.7971 -2.08154
-1.16112 0.772157 -3.36046
-0.369107 1.96185 -2.98339
-0.641847 1.44068 -2.93929
-1.25092 2.05458 -1.48664
-0.226424 1.96955 -2.69121
-0.372661 2.10825 -2.61664
-1.63943 1.54949 -2.25814
-1.05138 1.38029 -2.83156
-0.99205 2.05057 -2.58518
-1.37507 0.822898 -3.69578
-0.984519 2.23949 -1.95858
-1.30564 1.66749 -2.23105
-0.744576 1.4962 -2.65337
-0.635804 2.22503 -2.24023
-0.77969 1.43225 -2.79481
-0.306647 1.65377 -2.97741
-1.14731 1.99667 -2.4116
-1.04711 1.71317 -2.61887
-0.88529 1.9444 -2.91998
-0.715213 1.24171 -3.4775
-1.00901 1.63976 -2.69057
-1.1258 1.97422 -1.96039
