ply
format ascii 1.0
comment Created by Open3D
element vertex 400
property double x
property double y
property double z
end_header
1.89683 -2.45361 -0.17668
2.795 -1.46952 -0.136732
2.6902 -1.6083 -0.599172
1.97403 -2.21643 -0.912997
2.8725 -1.40052 -0.429457
1.45636 -3.08144 0.867926
2.83256 -1.44511 -0.375414
2.28598 -2.08532 0.593872
2.37734 -1.87731 0.559055
1.77312 -2.67681 0.171517
1.8367 -2.6545 1.013
1.90156 -2.45013 -0.330086
3.0838 -1.08808 -0.357465
2.47611 -1.83314 -0.494501
2.87593 -1.39638 -0.461185
2.84991 -1.44067 -0.664666
2.09641 -2.0992 -0.686171
1.37817 -2.89236 -0.334918
2.80984 -1.4781 -0.138922
3.01749 -1.11176 0.261684
1.82119 -2.52961 -0.203959
2.11812 -2.25606 1.28188
2.59822 -1.7221 -0.28525
2.30547 -2.05798 0.984625
2.15087 -2.24422 0.355638
1.87208 -2.4832 -0.5402
2.8553 -1.35392 0.0627727
2.51666 -1.77494 -0.299713
2.21801 -1.99341 1.27631
2.5063 -1.79602 0.501916
2.12823 -2.24907 -0.114226
2.00517 -2.16544 -1.45729
2.1219 -2.22939 0.683004
2.09391 -2.18674 -0.523202
1.32045 -2.88523 -0.303177
1.87472 -2.63167 0.757973
2.43223 -1.74915 0.536603
2.73977 -1.53841 0.39387
1.86947 -2.55635 0.748377
1.2852 -3.25434 0.73628
2.208 -2.18828 1.08915
2.61098 -1.68837 -0.565774
2.77611 -1.50882 -0.440473
1.85908 -2.46996 -0.283781
1.1536 -3.16822 0.355583
1.87702 -2.60961 0.681168
2.34786 -2.00816 -0.104217
2.77236 -1.52598 -0.584107
1.70799 -2.71718 -0.0399068
1.82917 -2.61173 1.26153
2.57256 -1.62476 0.441196
2.30608 -2.05803 -0.0866649
2.2363 -2.15808 0.118023
1.88106 -2.43713 -0.426049
2.50005 -1.76382 -0.875526
2.38658 -1.89336 -1.03942
2.26734 -1.97967 -0.920962
1.58098 -2.95789 1.27888
1.53894 -2.81345 -0.39628
1.86543 -2.61257 0.490637
1.42056 -2.97384 0.300724
1.99596 -2.19103 -1.27569
1.99502 -2.42869 0.132187
2.0299 -2.30762 -0.283901
1.72997 -2.76495 0.539532
2.20679 -2.05601 -0.879982
2.08 -2.33978 1.01693
1.15108 -3.19434 -0.142595
2.12341 -2.24761 0.853026
1.61361 -2.72891 0.222326
2.28266 -2.0872 -0.0576411
1.61127 -2.92252 1.2086
2.56065 -1.67765 0.0722201
2.79081 -1.36995 0.723585
1.59339 -2.92279 0.730817
2.22659 -2.05014 -0.977491
1.70952 -2.71906 1.53047
1.80107 -2.56865 1.3869
2.28393 -2.06828 0.462612
2.59268 -1.63252 0.673235
1.62327 -2.90646 0.814237
2.5247 -1.8092 0.392015
1.72476 -2.58331 -0.362873
2.09962 -2.37773 0.91588
1.3931 -3.13601 1.28378
2.16341 -2.26035 0.750491
2.91998 -1.34299 -0.512316
2.91108 -1.29276 0.246718
1.72285 -2.52657 1.6541
2.507 -1.80217 -0.560179
2.13687 -2.3174 0.583974
2.95302 -1.20144 -0.174049
2.51893 -1.63246 0.387167
1.58258 -2.83656 0.293895
2.92123 -1.34371 -0.243104
2.53063 -1.61512 0.866047
1.64605 -2.69673 -0.0330962
2.08751 -2.06005 -1.59225
1.79965 -2.68623 0.638814
1.47934 -3.00527 0.259734
1.62527 -2.91427 1.08441
2.21776 -2.19237 0.389694
1.66403 -2.71883 0.325194
1.76972 -2.70634 1.30675
1.22262 -3.1701 0.339818
1.60334 -2.60284 0.0377273
2.31063 -2.10033 0.499526
2.40008 -1.80888 0.824294
1.09958 -3.08378 -0.00731493
2.47286 -1.72798 0.41361
2.37367 -1.92431 0.396672
1.23241 -3.14726 0.523363
1.65453 -2.86175 0.690858
2.31422 -2.0164 -0.381472
1.39136 -2.8311 -0.492376
1.03163 -3.25385 0.542421
2.72774 -1.47868 0.522063
1.56138 -2.96726 0.753301
2.06703 -2.36838 0.597498
2.30508 -2.0424 -0.237272
2.72311 -1.49978 0.00615648
2.13531 -2.03245 -1.47695
1.71912 -2.67249 0.000349561
1.5953 -2.77063 -0.00249971
1.77272 -2.64353 -0.100405
2.05608 -2.38752 0.681478
2.3444 -1.90965 0.525508
1.49071 -3.03881 1.12564
2.09179 -2.09583 -1.1513
1.58542 -2.8948 0.287935
2.23921 -2.16666 0.902298
2.47662 -1.76623 -0.129805
1.69678 -2.66226 0.31156
1.05437 -3.10626 0.389461
2.20322 -2.14558 0.773307
1.41639 -2.91345 -0.0807225
1.72079 -2.56926 1.53991
1.61274 -2.89368 1.16051
1.9548 -2.26143 -0.601198
1.28852 -3.06629 0.489383
1.22648 -3.28835 0.891799
1.9734 -2.31369 1.13084
1.48153 -2.75359 -0.38539
1.51697 -2.99839 0.950853
0.963702 -3.34302 0.307451
2.91981 -1.24287 0.198356
2.57054 -1.72423 -0.727567
2.99292 -1.15966 -0.142916
1.91223 -2.23819 -1.24581
1.70975 -2.81038 0.761978
1.71948 -2.72524 0.474792
1.88244 -2.42803 -0.525069
1.78991 -2.52023 -0.168185
2.11724 -2.16216 1.31525
2.35931 -1.8105 0.82736
2.19161 -2.00016 -1.21604
2.60597 -1.70178 -0.437685
1.08865 -3.3876 0.788485
2.03211 -2.26579 1.29869
2.45209 -1.89332 0.0550649
2.1372 -2.15975 -0.551558
2.20706 -1.97281 1.57629
2.03415 -2.41938 0.820177
2.05175 -2.31362 -0.330786
1.4928 -2.80437 -0.329163
3.00656 -1.24344 -0.462323
2.18844 -2.12708 -0.761269
1.76009 -2.66025 1.63172
1.58734 -2.58984 -0.279041
2.40698 -1.80927 -1.33574
2.50339 -1.80609 -0.552482
1.64519 -2.74665 0.169869
2.3596 -1.93971 -0.925354
2.00148 -2.25347 1.13376
2.49805 -1.79361 -0.930416
2.55828 -1.73952 -0.975633
1.50142 -3.00068 1.11362
1.59107 -2.93779 0.801709
1.77805 -2.59924 1.13308
1.867 -2.58698 0.956856
3.07102 -1.17034 -0.239653
2.48647 -1.82055 -0.604992
2.79377 -1.50226 -0.231411
2.60742 -1.68997 -0.612226
1.37922 -2.83896 -0.144558
2.06797 -2.37273 0.950041
2.5333 -1.78563 -0.268814
1.33016 -3.03999 0.710133
1.7267 -2.45951 -0.383443
2.80865 -1.3971 -0.0685309
2.38629 -1.8759 -1.14523
2.8221 -1.42924 -0.311841
1.64295 -2.7877 1.36375
1.83836 -2.67861 1.08712
2.19105 -2.13174 -0.282836
1.9646 -2.16999 -1.59346
2.22001 -2.00902 0.360109
2.75454 -1.53171 -0.481632
2.78842 -1.42008 0.224368
0.920226 -3.26823 0.214485
2.29026 -2.13554 0.564662
1.33326 -3.20578 0.871119
1.65706 -2.81848 0.412301
2.85771 -1.30732 0.00303245
1.14859 -3.18948 0.257486
2.20554 -2.14086 1.50299
2.23907 -2.04329 -0.429727
2.11391 -2.08749 -1.49978
1.43844 -2.7255 -0.615154
2.45177 -1.89179 -0.0991346
1.28901 -3.24575 1.08686
2.22624 -2.12728 -0.267828
2.48538 -1.72206 -1.28736
2.54008 -1.75812 -0.514241
2.10775 -2.28638 1.30837
1.63814 -2.55654 -0.546666
2.26883 -2.08724 -0.197001
2.27616 -2.11562 0.832962
1.57552 -2.95565 0.792815
2.76604 -1.52644 -0.764576
2.40684 -1.87233 0.865154
1.68637 -2.72801 1.48202
2.07181 -2.19258 -0.709725
2.81172 -1.42922 -0.062616
1.35957 -2.91249 -0.557355
1.65271 -2.48052 -0.753749
2.41989 -1.85461 0.647034
1.78963 -2.4203 -1.0055
1.66402 -2.7423 0.203371
1.8656 -2.35933 -0.54387
1.84975 -2.54342 1.30003
1.74864 -2.40945 -1.16575
2.4586 -1.78253 0.497465
2.86515 -1.40749 -0.544934
1.54699 -2.98303 1.40894
2.22648 -2.14826 -0.00694867
2.09302 -2.3093 1.31209
1.6509 -2.68406 0.0796027
1.79888 -2.48501 -0.50502
0.930126 -3.29362 0.000807665
1.90653 -2.22617 -1.39955
1.45793 -2.79513 -0.0971504
2.10119 -2.24875 -0.254428
1.48323 -2.78995 -0.16058
2.31105 -2.01082 0.29847
1.52221 -2.65249 -0.421061
1.74687 -2.74933 0.542805
1.85941 -2.40311 -0.936934
1.84425 -2.59856 0.183285
1.72879 -2.69824 1.07037
2.28425 -1.9778 -1.09794
1.77644 -2.36694 -0.865688
1.9886 -2.48315 0.625768
1.68934 -2.50763 -0.591122
1.98097 -2.14553 -1.16419
2.05344 -2.40963 0.514964
2.13386 -2.28963 0.3126
2.11291 -2.11899 -0.859882
3.05703 -1.18919 -0.260591
1.78351 -2.62176 0.0804781
2.39035 -1.93181 -0.363664
1.97233 -2.44939 0.789431
2.64252 -1.56159 0.0491476
1.64314 -2.84412 0.394268
2.41015 -1.89183 0.0187493
1.18495 -2.99771 0.0507033
2.56074 -1.73752 -0.565407
1.35946 -3.03103 0.627586
2.37918 -2.01069 1.1872
1.44343 -2.86859 -0.340688
1.90283 -2.57516 0.607424
1.30689 -3.01673 0.311694
2.02558 -2.10415 -1.03968
0.770307 -3.3831 0.269797
2.38877 -1.92957 -0.520334
2.47885 -1.82335 -0.424389
1.26843 -3.24198 1.11013
1.75812 -2.65237 0.020374
1.74666 -2.75253 0.786533
1.6207 -2.80854 0.286922
2.01019 -2.37022 0.790104
1.92924 -2.30809 1.57733
2.57807 -1.70305 -0.178848
1.41994 -3.11047 1.2561
1.96626 -2.35333 -0.458152
1.94734 -2.50242 0.294644
1.96954 -2.25332 -0.405664
1.60197 -2.88321 0.425776
1.84199 -2.606 0.346249
2.9658 -1.21243 -0.124811
2.25193 -2.14427 0.351518
2.49512 -1.84935 0.479078
2.21077 -2.11953 -0.500489
2.52127 -1.77969 -0.739745
2.84318 -1.43236 0.189629
1.79159 -2.67138 1.52343
2.62055 -1.52748 0.672462
1.81315 -2.37516 -1.01338
1.80427 -2.52116 -0.457102
1.25513 -3.23175 0.707947
2.75637 -1.47179 -0.202076
2.53398 -1.76944 -0.379734
1.47935 -3.03038 0.959674
1.78001 -2.59415 0.0912459
1.10875 -3.25008 0.651063
1.8552 -2.51221 -0.251796
1.61505 -2.83662 0.315353
2.92666 -1.2428 -0.134109
1.68636 -2.82816 0.663208
1.88422 -2.5469 0.215048
1.26447 -3.08354 0.596759
2.69997 -1.5971 -0.42148
1.54836 -2.98084 0.761544
1.57224 -2.77598 1.26366
2.13749 -2.28037 0.992343
2.33226 -2.01157 -0.2026
2.14764 -2.06898 0.96904
1.72979 -2.45731 -1.05075
1.06284 -3.15364 0.168697
1.86748 -2.37586 -0.71948
2.15781 -2.15795 -0.594997
1.81305 -2.37937 -0.932551
2.03039 -2.39201 0.836582
2.30012 -1.86438 -1.52972
2.50989 -1.73135 0.574243
2.4255 -1.9154 -0.204541
2.92955 -1.3068 0.211571
2.17544 -2.12388 1.47847
1.73287 -2.5559 -0.299712
2.63579 -1.66608 0.135217
2.32804 -1.9294 -0.84576
1.7139 -2.81621 1.01104
2.35864 -1.85619 -1.39778
1.23865 -2.96659 -0.219463
1.82395 -2.48718 1.30444
1.48645 -3.0039 0.820593
1.09698 -3.16534 0.261413
1.2458 -3.18702 0.499951
1.34656 -3.17738 1.0071
2.57144 -1.7303 -0.331024
1.78598 -2.51802 -0.790769
2.60886 -1.5634 0.466909
2.70495 -1.56911 -0.858327
1.76064 -2.72714 0.791205
1.93995 -2.48205 0.360321
2.34541 -1.98051 -0.407377
2.4095 -1.94652 0.0472934
3.05397 -1.20215 -0.215375
1.91731 -2.41918 -0.477402
3.21682 -0.932286 -0.155239
2.131 -2.10022 1.55492
2.52911 -1.73594 0.501013
1.74638 -2.7943 1.33637
2.51982 -1.77336 -0.949315
2.09842 -2.25592 -0.349888
1.27379 -3.01025 0.228311
1.95794 -2.40599 0.773971
1.75369 -2.67007 1.17106
1.93669 -2.48879 1.25457
2.35155 -2.00737 0.632045
2.26916 -1.91489 0.855201
1.36297 -3.1492 1.20446
2.27388 -1.99128 -0.724282
1.36586 -2.91135 0.0470526
1.43277 -3.02713 1.35808
1.97049 -2.17106 -0.878518
1.33346 -3.0115 0.221238
2.43153 -1.91964 -0.0899393
2.37513 -1.87338 -0.812515
3.04212 -1.18429 -0.33306
1.71866 -2.72183 1.31512
1.69602 -2.79645 0.778789
1.96117 -2.24996 -0.828571
1.63652 -2.8105 0.466341
1.74246 -2.6804 0.971822
1.52619 -2.82045 -0.0654655
2.1195 -2.2511 -0.21079
2.54945 -1.67888 0.0155533
2.42365 -1.8597 -1.07858
2.33894 -2.0437 0.149571
2.04299 -2.11738 1.59689
2.19717 -2.21473 0.228637
1.63762 -2.83265 0.67893
2.20239 -1.95453 -1.40554
2.93746 -1.36039 -0.608238
2.7479 -1.5392 -0.527612
2.53723 -1.75784 -0.687766
2.05673 -2.28471 -0.360717
1.71542 -2.67318 1.32196
2.6932 -1.60014 -0.774988
1.70914 -2.52316 -0.478
2.25713 -1.99031 -1.00484
2.44879 -1.85519 -0.660635
2.79777 -1.42845 -0.436588
2.43044 -1.91023 0.0394065
2.43182 -1.84287 0.652821
1.61778 -2.57055 -0.648013
2.31434 -2.06418 0.0634227
1.90047 -2.51133 0.0216866
1.84045 -2.50253 -0.519652
