ply
format ascii 1.0
comment Created by Open3D
element vertex 400
property double x
property double y
property double z
end_header
2.32824 -1.08942 1.82254
1.65458 -2.17207 1.58844
1.48707 -2.04616 1.95314
1.75291 -1.14602 2.33456
1.43816 -2.26451 1.78771
3.10218 -1.09229 0.73268
1.51322 -2.1922 1.77899
2.45396 -1.67105 1.09006
2.15298 -2.03821 0.843691
2.52127 -1.26541 1.33448
3.04638 -1.23261 0.816698
2.11586 -1.33244 1.72536
1.09097 -2.84289 1.38455
1.7964 -1.61235 2.07767
1.40278 -2.29633 1.7856
1.33013 -2.24011 1.96466
1.98048 -0.942947 2.45306
2.35602 -0.833791 1.70136
1.76267 -1.98943 1.76812
1.64373 -2.41049 1.24754
2.31424 -1.09961 1.76922
3.02188 -1.36812 0.714299
1.91319 -1.61399 2.03087
2.75214 -1.51339 0.959358
2.3268 -1.70868 1.12076
1.78659 -1.74896 1.48888
1.65485 -2.30669 1.36393
1.58807 -2.20504 1.44771
2.72697 -1.68955 0.483022
2.23866 -1.85237 1.16879
2.18598 -1.4351 1.67762
1.23042 -1.521 2.42277
2.44025 -1.79758 0.770419
2.00663 -1.19539 2.13196
2.45147 -0.601463 1.81725
3.05465 -0.945485 1.289
1.98661 -2.22437 0.726172
2.1289 -1.87102 1.42348
2.63809 -1.63387 0.66959
3.03199 -1.11336 0.664691
2.90464 -1.39641 0.910965
1.48572 -2.10103 1.81375
1.49473 -2.17524 1.79478
2.25151 -1.09513 1.85806
3.04172 -0.382177 1.41731
2.80814 -1.31166 1.02136
2.03863 -1.66584 1.64991
1.53008 -1.96488 2.08315
2.35118 -1.33613 1.36466
3.13302 -1.27252 0.583113
1.94487 -2.19725 0.942166
2.10738 -1.57009 1.68743
2.31741 -1.44489 1.5965
2.09045 -1.23051 1.85881
1.57338 -1.55165 2.41672
1.33124 -1.88218 2.15361
1.59927 -1.46629 2.32264
3.51944 -0.719687 0.86699
2.14254 -1.2694 1.52059
2.82387 -1.05711 1.37051
2.90974 -0.634834 1.48004
1.37759 -1.46244 2.3384
2.42182 -1.34006 1.47997
2.17713 -1.22271 1.89362
2.89227 -1.02576 1.25142
1.60565 -1.53253 2.18723
2.88182 -1.41513 0.843777
2.50842 -0.897185 1.33122
2.63072 -1.64451 0.787099
2.86767 -0.522474 1.78696
2.15076 -1.5302 1.68278
3.38216 -0.896172 0.787973
1.71594 -2.28986 1.12835
2.14508 -2.03439 1.05668
3.11732 -0.854946 1.15123
1.4372 -1.76793 2.07199
3.38666 -1.08266 0.449652
3.11128 -1.35964 0.375058
2.29861 -1.80013 1.06596
2.21548 -1.96578 1.00026
3.08964 -1.0165 0.977891
2.25307 -1.74255 1.36782
2.22531 -1.05092 1.835
2.9907 -1.16757 1.16422
3.50007 -0.781391 0.647431
2.69834 -1.46541 1.06485
1.29566 -2.42708 1.74342
1.81457 -2.18437 1.38372
3.1994 -1.33076 0.111414
1.61156 -1.89368 1.90523
2.73014 -1.2644 1.34634
1.26137 -2.71412 1.24897
1.79388 -2.37529 0.768957
2.84605 -0.758549 1.52024
1.57539 -2.18612 1.76065
2.23377 -2.04462 0.719726
2.57448 -0.802505 1.75468
1.15611 -1.46784 2.63168
3.0555 -0.794088 1.43931
2.65696 -1.19923 1.08705
3.38371 -0.759618 1.01088
2.44323 -1.52966 1.31322
2.92602 -0.572449 1.72105
3.26386 -1.12805 0.634656
2.96372 -0.605023 1.30917
2.79468 -0.266733 2.10357
2.54811 -1.43356 1.39682
2.30219 -1.97618 0.714046
2.77024 -0.318026 1.65781
1.91803 -2.24072 0.840227
2.11685 -1.98848 1.01222
3.16051 -0.406995 1.35463
2.8983 -1.22683 0.906591
1.71157 -1.96248 1.55665
2.23071 -0.831301 1.81751
3.23516 -0.184075 1.34294
2.05331 -2.06274 1.13532
3.06713 -1.00115 0.982685
2.60415 -1.51053 1.05719
1.90714 -1.76828 1.61833
1.632 -2.32977 1.27571
1.22722 -1.47885 2.58385
2.51128 -1.01976 1.61393
2.58386 -0.859979 1.64455
2.25155 -1.43884 1.3715
2.68647 -1.45765 1.03522
2.11821 -2.07319 0.809258
3.27391 -1.02886 0.628503
1.50119 -1.34537 2.43227
2.66621 -1.1884 1.16518
2.77897 -1.44013 1.03702
1.54249 -2.42236 1.08855
2.93793 -0.494631 1.82123
3.15699 0.0155082 1.61821
2.52332 -1.7194 0.84188
2.56807 -0.782699 1.60833
3.1389 -1.37849 0.160375
3.20953 -1.13987 0.604212
2.05817 -0.940211 2.2784
3.14964 -0.345303 1.47506
3.31609 -0.708956 0.850172
2.70741 -1.71354 0.377684
2.32684 -0.766278 1.87648
3.03926 -1.26584 0.566744
2.9988 -0.423127 1.2514
1.66201 -2.36788 1.25575
1.55186 -1.79112 2.16699
1.28652 -2.69049 1.28054
1.47055 -1.27734 2.39892
3.01028 -1.08421 1.02772
2.98575 -0.701701 1.56124
1.98303 -1.31776 1.85357
2.44077 -0.840885 1.93353
2.87748 -1.55318 0.504746
2.23081 -2.07042 0.585342
1.42857 -1.40311 2.51448
1.65375 -1.92979 1.86852
3.28922 -0.614595 0.881417
2.89187 -1.54733 0.453939
2.0644 -1.76131 1.53683
1.91501 -1.35786 2.05094
2.97832 -1.49311 0.420606
2.81245 -1.38535 0.981649
1.88492 -1.7755 1.46883
2.31889 -0.930637 1.71615
1.27718 -2.48597 1.72609
1.45211 -2.04271 1.6514
3.47533 -1.00298 0.486993
2.48503 -0.476997 2.12873
1.27869 -1.55878 2.65385
1.64855 -1.83125 1.9513
2.73598 -0.784735 1.63398
1.29352 -2.11565 1.84814
2.65552 -1.76772 0.344335
1.35414 -1.9572 2.10638
1.18785 -2.22908 1.95377
3.57492 -0.387861 1.20102
3.02596 -1.1309 0.859249
2.8713 -1.55759 0.368092
2.88945 -1.4178 0.712163
1.47544 -2.32581 1.75752
1.61524 -1.83673 1.96962
1.73887 -1.94632 1.86122
1.66699 -1.69335 2.2009
2.60526 -0.487071 1.85528
2.88029 -1.37476 0.922404
1.78458 -1.89234 1.71973
3.35282 -0.211241 1.47136
2.35606 -0.600262 2.21711
1.51809 -2.4292 1.31144
1.30787 -1.78404 2.3118
1.44466 -2.36172 1.56928
3.21675 -1.24135 0.375558
3.2118 -1.02935 0.948457
2.16835 -1.19253 2.05271
1.16332 -1.45516 2.53613
1.90405 -2.29123 0.626656
1.46548 -2.19168 1.79223
1.79617 -2.22282 1.26315
2.97299 -0.209413 1.44083
2.64492 -1.34232 1.41568
3.19007 -0.947402 0.752907
2.83731 -0.975341 1.32127
1.47535 -2.52678 1.20608
2.93202 -0.509907 1.37624
3.18323 -1.24715 0.727497
2.08406 -1.12675 2.24802
1.13535 -1.68361 2.41097
2.14878 -0.762544 1.99282
2.00176 -1.70798 1.69466
3.31319 -0.950802 0.554826
1.91187 -1.74685 1.5937
1.35295 -1.44234 2.78522
1.48139 -2.1778 1.64864
3.08748 -1.29989 0.750761
2.17808 -0.791428 2.09488
1.97468 -1.70012 1.62004
2.69339 -1.50298 1.06032
3.07399 -1.03322 0.938564
1.25023 -2.30093 1.91306
2.47792 -1.77752 0.880823
3.30572 -1.17003 0.385247
1.82566 -1.31988 2.13559
1.63503 -2.25708 1.46883
2.10929 -1.07077 1.63976
2.01693 -0.784008 2.24932
2.27873 -1.91245 0.930867
1.63688 -1.3277 2.09053
2.74654 -0.818969 1.59915
2.12076 -0.910067 2.18948
3.06842 -1.37062 0.475412
1.54684 -1.25728 2.22123
2.07927 -2.0798 0.917783
1.31912 -2.36784 1.77466
3.61419 -0.674116 0.781562
2.32677 -1.26041 1.83565
3.10757 -1.27902 0.75576
2.71338 -0.646155 1.81209
2.08337 -1.12136 1.93365
2.75247 -0.447993 1.40375
1.34505 -1.32557 2.45915
2.62295 -0.541561 1.84838
2.14126 -1.33103 1.84094
2.53412 -0.667747 1.8102
2.09128 -1.97275 1.04969
2.34052 -0.607189 2.06181
2.8714 -1.06902 1.22584
1.60021 -1.53849 1.92806
2.33206 -1.62525 1.06964
2.91349 -1.4838 0.44817
1.3576 -1.75741 2.21406
1.8806 -0.917435 2.32126
2.75701 -1.30903 1.15511
2.12242 -0.844549 2.12468
1.5868 -1.09659 2.55069
2.78695 -1.103 1.4689
2.44861 -1.46601 1.35676
1.72116 -1.30226 2.28713
1.47487 -2.31273 1.77343
2.56207 -1.01884 1.61459
1.95864 -1.47569 2.03262
2.67911 -1.57648 0.776491
1.61198 -2.40429 1.10633
2.76028 -1.12428 1.19491
1.83956 -2.10474 1.2165
2.82904 -0.252817 1.7452
1.74413 -1.60469 2.2051
3.25489 -0.333347 1.45406
2.99779 -1.2863 1.08018
2.29347 -0.996748 1.6282
2.73709 -1.35085 1.0604
2.99715 -0.396115 1.56763
1.7073 -0.998162 2.58524
3.02529 -0.145624 1.32082
1.63542 -1.92509 1.75054
1.94915 -1.38269 2.22854
3.51505 -0.552407 0.863476
2.47402 -1.13486 1.53626
2.88348 -1.32304 0.827174
2.81166 -0.825531 1.50146
2.58241 -1.70085 0.689442
3.07955 -1.42584 0.256355
1.64928 -2.19586 1.41777
3.45096 -0.843341 0.636379
2.0199 -1.31944 1.87697
2.52852 -1.35922 1.31104
2.26598 -0.761141 2.30746
2.83937 -1.00953 1.23704
2.77129 -0.959315 1.5338
1.38137 -2.56678 1.35878
2.3726 -1.59899 1.30593
2.34235 -1.68612 1.33146
1.77995 -1.71299 1.77343
1.39481 -2.10087 1.86423
1.97569 -1.91925 1.61664
3.45242 -0.981109 0.621619
2.06089 -2.15242 0.842715
1.6607 -1.23782 2.18977
2.05449 -1.28923 1.76639
3.20734 -0.670396 1.03498
1.45911 -2.43512 1.36403
1.6046 -2.09682 1.61804
3.40883 -0.553648 1.15059
2.6457 -0.824472 1.76656
3.29266 -0.284286 1.2594
2.19186 -1.30223 1.65938
2.7969 -0.918879 1.39964
1.34766 -2.6164 1.28673
2.95729 -1.07287 1.08808
2.62373 -1.0688 1.56497
3.25925 -0.246514 1.46162
1.58662 -2.04762 1.83093
3.08434 -0.979852 0.98442
2.95306 -1.5388 0.108009
2.86516 -1.40745 0.916739
2.11151 -1.39887 1.93886
2.43605 -1.93165 0.435359
1.62892 -1.27045 2.11719
2.92317 -0.270371 1.54853
1.89219 -1.18453 2.08253
1.77002 -1.6149 1.87939
1.74227 -1.17523 2.18683
2.73015 -1.52083 0.840507
1.21059 -1.4192 2.81362
2.15318 -2.01314 0.964066
1.99377 -1.60611 1.83735
1.87788 -2.06433 1.53776
3.07369 -1.37183 0.599334
2.32857 -0.891731 1.93086
1.98357 -1.91569 1.48926
1.6448 -1.46619 2.32225
3.20466 -0.997914 0.928528
1.22215 -1.60575 2.61632
2.54216 -0.531932 1.74779
2.92095 -1.5515 0.272369
3.3118 -0.558255 1.24886
2.98799 -0.306917 1.48922
3.08051 -0.609603 1.21827
3.40262 -0.661817 0.912033
1.63795 -2.07762 1.63094
1.68671 -1.60498 1.71131
1.91768 -2.23743 0.913212
1.54294 -1.60953 2.53011
2.84295 -1.38877 0.775402
2.35516 -1.73288 0.923353
1.68228 -1.97854 1.58677
2.10408 -1.69754 1.56465
1.56543 -2.20138 1.83788
1.95577 -1.45519 1.7345
1.23493 -2.73394 1.44088
3.03823 -1.43801 0.431947
2.14735 -1.97277 1.07454
3.62619 -0.550214 1.11466
1.31472 -2.01129 2.09159
1.95001 -1.60356 1.67026
2.94338 -0.357153 1.62467
2.52413 -1.78204 0.581728
3.0042 -1.41095 0.459307
3.09535 -1.29791 0.653619
2.46306 -1.66737 1.11836
2.27733 -2.04656 0.512832
3.2965 -1.07056 0.42214
1.76884 -1.38077 2.26475
2.76008 -0.485841 1.72008
3.30038 -1.14937 0.288577
1.85922 -0.908841 2.50255
2.88443 -0.540087 1.53485
2.11846 -1.50498 1.85034
1.70351 -1.3683 2.42174
1.31686 -2.51408 1.63231
3.18499 -1.24968 0.470234
3.23881 -0.62073 1.40307
1.81236 -1.15622 2.25839
2.98694 -0.707389 1.49243
2.81218 -1.56259 0.461295
2.55017 -0.839627 1.64472
2.03289 -1.61733 1.5791
1.63744 -2.3672 1.08985
1.2683 -1.95943 2.14668
2.28491 -1.50941 1.60155
2.97713 -1.51911 0.238825
2.43455 -1.37201 1.551
3.1855 -0.591332 1.44632
1.31808 -1.35492 2.69498
1.518 -1.93234 2.26933
1.43089 -2.20992 1.80417
1.61223 -1.72418 2.1685
2.04219 -1.40061 1.8173
3.08321 -1.38296 0.333455
1.25736 -2.28908 1.86929
2.2039 -0.859095 2.05513
1.50775 -1.55305 2.29894
1.59792 -1.81027 2.00041
1.22215 -2.62432 1.40319
2.01978 -1.82777 1.47047
2.28579 -1.9034 0.944779
2.07638 -0.870575 2.08028
2.23628 -1.50603 1.64511
2.39697 -1.26398 1.54354
1.90356 -1.53197 1.63416
