ply
format ascii 1.0
comment Created by Open3D
element vertex 250
property double x
property double y
property double z
end_header
-1.81665 -1.3247 2.3206
-1.66944 0.226181 3.49749
0.839566 -0.638334 2.7947
-0.403118 -1.44447 2.90229
-2.10999 -1.28366 2.58587
-0.321461 -2.22018 2.23283
1.44494 -2.62685 1.61217
0.577639 -1.56246 2.7219
-2.10359 -1.75268 1.86304
-0.754149 -1.4089 3.18616
-1.23892 -0.54195 3.60341
-0.18911 -1.8798 2.52499
-1.4529 -1.19826 3.35616
-0.520632 -2.17338 2.26697
-2.24699 -1.87706 2.5833
-1.89665 -0.857025 3.28038
-0.475768 -2.62414 1.77279
1.34322 -2.08631 1.99241
-0.099862 -2.765 1.55919
0.697676 -0.466773 3.09506
-1.72432 -0.609412 3.385
1.75646 -1.34547 2.78156
-0.455239 -1.58094 2.97311
0.730976 -2.01046 2.23993
0.452297 -0.961567 2.91216
-1.62986 -1.69692 2.695
-0.00675923 -2.03149 2.36061
-1.80759 -0.157483 3.63332
0.58858 -1.22378 2.70456
-0.663686 -1.18272 3.35632
-1.8635 -1.32576 2.18367
-1.69351 0.243767 3.64028
-2.23876 -1.10266 2.45384
-1.33523 -0.0116717 3.36949
-1.7482 0.160994 3.39284
1.21491 -2.83646 1.40011
0.623512 -0.904 2.64271
-1.57526 0.065535 3.37803
-2.03967 -2.59618 1.84757
0.807264 -1.08041 2.87645
0.712657 -1.06066 2.89409
0.242392 -1.9286 2.46956
-1.50241 -0.707465 3.58847
-1.86757 -0.851688 3.36389
-0.0202708 -0.860762 2.79525
-1.66012 -0.361474 3.72191
1.48835 -0.984257 2.43912
-1.80272 -0.526994 3.58581
0.422701 -2.69327 1.58084
-1.8709 -1.73783 2.70642
-0.96395 0.0606587 3.73408
-0.0342447 -1.26554 2.73602
1.58855 -1.20207 2.38023
-2.66957 -1.25038 2.48282
0.143426 -1.2174 3.17026
2.01003 -1.15493 2.44337
0.22831 -1.3824 2.83952
-2.26605 -1.93383 1.77528
-0.272809 -0.526508 3.69585
-0.280832 -2.20473 2.23679
0.403919 -1.55983 2.85713
0.911161 -2.01209 2.169
0.629855 -0.676875 3.18665
-1.96711 -1.22169 2.8639
-2.33463 -0.700627 3.01954
-1.53147 -0.230913 3.34929
-1.06288 -1.30252 3.18943
1.6415 -1.96956 2.1443
-1.6931 -1.53696 2.4829
-0.612001 -2.03305 2.49344
-0.726504 -0.886065 3.63506
1.08424 -0.55617 3.06359
-2.59865 -2.06789 1.69533
0.524914 -1.67986 2.42316
0.53133 -1.56285 2.35835
0.963501 -2.99341 1.24041
1.9824 -0.933013 2.62225
-1.2107 -0.761134 3.74887
-1.35097 -1.26706 3.30628
-0.0982828 -1.70672 2.77248
-0.432889 -2.22366 2.18889
-0.96997 -0.286226 3.5192
-2.05194 -1.56985 2.77462
0.515038 -2.12185 2.21365
0.152525 -1.66859 2.7194
-1.97762 -0.550271 3.35956
1.08154 -2.17242 2.05973
-1.99021 -1.65646 2.14763
1.69221 -0.339278 3.61877
-1.23217 -1.72088 2.87245
0.673363 -0.888688 2.54429
1.60695 -1.63267 2.4439
-1.8861 -1.78244 2.63214
-0.736109 -0.784647 3.8106
-1.5113 -0.951857 3.30898
0.894598 -1.23489 2.66111
-1.72738 -2.1119 2.03754
-2.1708 -1.34143 2.4296
-0.41501 -0.209512 3.65032
-1.01344 -2.526 1.83715
-1.67074 -1.33758 3.1933
-2.00356 -1.21018 2.95664
-1.52052 -1.14111 3.27623
-1.90114 -2.04753 1.97481
-1.42106 -0.469446 3.69302
-0.559089 -1.98799 2.47953
-0.465979 -2.23437 2.22825
2.13019 -1.05281 2.52767
1.47767 -2.04176 2.07965
0.221036 -1.96274 2.32177
0.346661 -0.947342 2.84349
-0.412138 -0.331329 3.5539
0.423103 -1.71504 2.45329
-2.25636 -2.28595 1.55784
2.27629 -1.03932 2.76925
-0.938047 -1.17958 3.34536
1.55989 -1.57076 2.40474
-2.5559 -1.68096 2.07855
-1.83522 -1.18795 3.2105
-1.536 -0.527322 3.63826
1.20764 -2.71631 1.51891
-0.942733 -0.116157 3.86555
0.231079 -1.46776 2.9609
-1.64464 -0.810366 3.53832
1.32956 -2.36227 1.86341
1.7684 -1.71067 2.21602
0.813247 -0.0761933 3.56194
-0.0777019 -0.971952 2.93044
-0.256561 -2.13359 2.31991
1.50347 -1.05617 2.60128
0.8991 -1.5157 2.62709
1.47144 -2.1426 1.89804
-1.00099 -0.53812 3.91494
1.91146 -0.773422 2.55068
0.60076 -0.512714 3.14811
0.872621 -1.31908 2.76049
1.75214 -1.38184 2.44633
0.928171 -1.13078 3.1061
-1.40817 -0.0265213 3.66262
1.14136 -2.57106 1.64399
-1.58204 0.0423156 3.4756
-2.22453 -0.588476 3.13689
1.26949 -0.925428 2.51713
-1.50996 -1.25682 3.28823
-1.88592 -1.66862 2.79157
-1.55551 0.128505 3.44783
-1.43084 -2.39927 2.04603
1.18091 -1.79905 2.47058
-1.09602 0.044217 3.79641
-1.61791 -1.86599 2.53778
1.75742 -0.950679 2.60711
-1.49481 -1.81575 2.52268
1.11753 -1.47925 2.23434
-1.87552 -0.462983 3.49024
-1.78722 -1.47022 2.32177
-2.64109 -1.61053 2.62835
0.918231 -2.34593 1.74402
-0.211201 -1.96796 2.36703
-0.717352 -1.76712 2.71962
1.20087 -1.76901 2.06418
-1.26777 -0.588463 3.16065
-9.24521e-05 -0.669189 3.37607
-1.9174 -0.289164 3.09081
-1.72936 -1.3069 3.19476
0.599549 -1.13943 2.78787
1.57394 -2.09614 2.10189
1.30431 -2.43796 1.78914
-1.01424 -0.381064 3.94236
-1.57829 -1.62708 2.52591
1.0608 -0.755816 3.02434
-1.59567 -0.851989 3.33285
0.487826 -2.71574 1.53996
0.370538 -1.31515 2.84847
-1.54853 0.0109197 3.43889
-1.92395 0.157093 3.2876
-1.63555 -0.68822 3.59296
-2.04978 -0.743653 3.30894
-1.25256 -1.49887 3.11284
1.57932 -0.569747 2.87327
-1.08276 -2.17491 2.39439
1.54881 -0.830681 2.78683
-0.378787 -2.49839 1.80357
-1.98548 -1.8548 2.25641
-0.507015 -0.820093 3.51623
-1.23482 -1.26573 3.12809
-1.41094 0.396105 3.56244
0.655946 -1.1229 2.98576
-0.261622 -2.24772 2.16596
-1.88104 -1.32968 3.14734
-1.25832 -1.99401 2.60991
-1.62291 -1.05517 3.27871
-1.24788 0.0522178 3.58756
-0.91063 -1.85055 2.7308
-2.59213 -1.16581 2.7965
0.509859 -1.97346 2.11877
-1.84019 -0.0440375 3.09777
2.07341 -0.628271 2.66367
-2.06593 -0.733879 3.30172
-0.594393 -1.68955 2.82087
-0.421614 -1.29294 3.01139
2.35241 -0.158289 2.63563
2.62485 0.102033 2.72557
2.08638 0.0386694 2.64065
2.25113 0.1088 2.14525
2.17819 0.13771 3.33345
1.95205 -0.712817 2.32983
1.57649 0.190163 2.61692
1.46808 -1.02451 1.95437
2.39473 0.548692 2.68638
1.83848 -0.107535 2.77427
1.13577 -0.0916765 2.59042
2.4881 0.290594 2.99949
2.45243 0.842371 2.83595
2.41459 0.5546 2.56859
1.81734 0.358805 2.28657
2.34133 0.0944106 2.43881
1.7937 0.127093 2.75017
2.42164 0.0858825 2.74946
1.41896 -0.122143 2.72012
1.28379 -0.152678 3.16548
2.09694 -0.0504235 2.26821
1.04199 -0.352804 2.92344
1.29701 -0.11988 2.59359
2.5351 0.18515 2.53752
1.74293 0.628482 2.50223
2.44787 0.485297 2.66842
1.89057 0.510634 3.13561
1.50634 -0.395967 2.79318
1.52772 0.350476 2.29997
2.66922 0.344074 2.61125
2.16049 0.614837 2.68873
1.58665 0.0445337 3.38775
2.69069 0.764825 2.92498
2.62468 0.381495 2.81067
1.23977 -0.564502 2.63548
1.78048 0.146789 2.57557
2.07972 -0.642682 2.32822
1.49729 -0.284404 1.8897
1.99526 -0.393204 2.79357
1.55608 -0.15629 2.82766
2.02456 0.609348 2.85826
2.3567 0.0344644 2.85063
2.00593 0.526289 2.73991
2.54826 0.844311 2.77858
1.87591 -0.690127 2.39879
1.88879 -0.174114 2.55957
2.22074 -0.517472 2.23182
2.16809 0.38249 2.30645
1.90402 -0.0533169 2.5736
1.76868 -0.119085 2.98163
