ply
format ascii 1.0
comment Created by Open3D
element vertex 250
property double x
property double y
property double z
end_header
-0.229034 -0.426393 3.59883
1.57046 -1.64624 3.20141
0.121703 -3.10653 0.600446
-0.373734 -2.89691 1.77445
-0.0421848 -0.985661 3.5672
-1.32104 -2.46355 1.6806
-2.23333 -1.9584 0.805996
-0.735986 -2.50376 1.50905
-0.696902 -0.708517 3.19017
-0.211322 -2.28793 2.69344
0.817936 -2.38948 2.89903
-0.934048 -2.78725 1.54432
0.161249 -2.03492 3.28405
-1.24485 -1.94806 2.1817
-0.533566 -2.33258 2.84584
0.523933 -1.31067 3.80012
-1.80173 -2.44249 1.43568
-1.57092 -2.85173 0.33865
-2.06645 -2.44997 1.09497
0.387751 -2.86711 1.10152
0.786941 -2.41676 2.87645
-0.753362 -2.11579 1.27017
-0.50497 -1.8183 2.76907
-1.32084 -2.56627 1.06229
-0.0788247 -2.9726 1.14377
-0.472821 -1.62341 3.17102
-1.19092 -1.7115 2.18321
1.26643 -1.38099 3.7859
-0.408356 -3.03212 0.926604
0.0349086 -2.38285 2.66823
-0.263838 -0.289721 3.57423
1.62193 -1.31895 3.61428
0.106333 -0.684349 3.62975
1.26716 -2.32507 2.49723
1.49766 -1.74142 3.07542
-2.43646 -2.27466 0.520076
-0.125197 -3.24827 0.534441
1.38055 -2.07141 2.77188
-1.4544 -2.42671 2.19204
-0.273537 -2.81905 1.12281
-0.230995 -2.84583 1.15358
-1.09418 -2.27197 1.71708
0.703617 -2.22341 3.19796
0.552456 -1.49198 3.73712
0.0815565 -3.22793 0.976599
1.07943 -1.64907 3.70331
-0.423363 -3.27738 -0.0496211
0.913088 -1.65981 3.67995
-2.09054 -2.53932 0.792679
-0.452532 -1.92627 3.07162
1.36174 -2.16127 2.83345
-0.314764 -3.17453 1.13824
-0.666031 -3.21296 -0.0112777
0.082436 -1.47436 3.30243
-0.204252 -2.41547 2.10545
-0.689157 -3.07166 -0.035101
-0.457234 -2.80294 1.47814
-0.851959 -0.998928 3.01946
0.672716 -2.3817 2.58359
-1.30893 -2.60335 1.55256
-0.674029 -2.10878 2.03704
-1.37271 -2.70689 0.798502
0.224871 -2.73053 1.43048
0.0734529 -1.19392 3.62356
0.682716 -1.34896 3.60247
1.09483 -2.38584 2.60988
-0.0386286 -2.69529 2.46811
-1.48542 -2.52845 0.575478
-0.391444 -0.923008 3.43484
-1.02022 -2.31527 2.1246
0.399274 -2.20777 3.00615
0.218409 -2.79725 0.993848
-0.925754 -1.35778 2.85688
-0.904683 -3.02426 0.852409
-0.806496 -3.27542 0.532193
-2.57412 -2.49448 0.352232
-0.428048 -2.96117 0.160853
0.626177 -1.69253 3.68305
0.0715047 -2.31746 2.99733
-0.73257 -2.33862 2.0478
-1.33222 -1.90882 2.11047
0.986716 -2.51128 2.48268
-0.24413 -1.80837 3.24139
-1.40854 -2.00852 1.60689
-0.75425 -2.52283 1.72191
0.846493 -1.18557 3.88283
-1.59854 -2.33008 0.966991
-0.543518 -0.851776 3.30151
0.438519 -2.01934 1.84852
-0.488883 -2.69874 2.37475
-0.14529 -3.34186 0.325365
-1.07853 -2.49239 0.798907
-0.514174 -1.8722 3.0579
0.531596 -1.73456 3.52445
0.410583 -2.68096 2.64863
-0.491666 -2.97262 0.797725
-1.03662 -1.40167 2.84404
-0.131444 -0.9031 3.51065
0.987759 -2.46234 2.39173
-1.60208 -1.98055 2.05183
0.0379825 -2.42394 2.95967
0.123423 -1.38985 3.58496
0.188195 -1.46973 3.63655
-0.964957 -1.25222 2.93674
0.938591 -2.13358 3.2419
-1.0069 -1.82455 2.4457
-1.31465 -2.24249 1.915
-0.594688 -2.99731 0.0181409
-1.53761 -2.60977 0.544052
-1.14567 -2.86953 1.11678
-0.0610604 -3.08637 1.0194
0.848618 -2.5665 2.2578
-0.91173 -2.95774 0.996519
-1.23733 -1.29348 2.70427
-0.556044 -2.53349 0.573849
0.0905571 -2.48387 2.69496
-1.01439 -2.7522 0.54779
-0.464622 -1.27043 3.15658
0.196114 -1.79971 3.46554
0.890655 -2.12912 3.26023
-2.29219 -2.15528 0.693073
1.22706 -2.11494 3.08347
-0.519988 -2.2719 2.05898
0.615921 -2.08907 3.35348
-1.88505 -2.16833 0.85297
-1.23491 -2.89493 0.201703
0.851943 -2.4521 1.71361
0.0218075 -3.08506 1.31009
-1.22693 -2.48242 1.69559
-0.456304 -3.00988 0.361206
-0.775885 -2.65564 1.12786
-1.67167 -2.96454 0.11718
0.84829 -1.88301 3.5295
-0.278281 -3.16609 -0.116618
0.376911 -2.82709 1.25307
-0.546387 -2.7166 1.15193
-0.857907 -2.8836 0.325361
-0.296356 -2.26073 1.77759
1.34017 -2.0054 3.10535
-2.09744 -2.48732 0.538428
1.38503 -1.98892 2.95638
0.797383 -1.25821 3.7047
-0.304933 -3.24626 0.128645
0.0961224 -1.97425 3.30666
-0.359152 -1.97129 3.10643
1.45226 -1.95945 2.89887
-1.33895 -2.13915 2.28315
-1.16153 -1.97072 1.48896
1.38561 -2.04251 3.05815
-0.675425 -1.72331 2.99044
-0.404071 -3.01507 0.207344
-0.663084 -1.49372 3.07587
-0.873555 -3.33844 0.0570355
0.946239 -1.19858 3.93404
-0.364795 -0.636689 3.4895
-0.192984 -2.38225 2.90872
-1.79439 -3.15119 0.13191
-1.10151 -1.33663 2.53993
-0.706702 -1.63906 2.82385
-1.21093 -3.31067 -0.0163772
0.669292 -2.86443 2.07714
0.404765 -2.67181 1.95274
1.04083 -2.37217 2.52782
0.066609 -2.03374 3.27449
-0.309355 -2.9757 1.01986
-1.61397 -2.18336 0.880725
-1.97181 -2.1857 0.802167
1.00856 -1.95793 3.43784
-0.480707 -1.10031 3.33572
0.0229616 -2.76041 1.07777
0.525567 -2.61937 2.71458
-2.13063 -2.70643 0.600387
-0.418677 -2.80631 1.39425
1.34177 -2.08905 2.83803
1.49273 -1.56659 3.17204
0.743051 -2.0429 3.39125
0.69382 -2.15658 3.19356
-0.219338 -2.33862 2.82825
0.0599414 -2.899 0.498086
-1.08364 -2.56173 2.09087
-0.20433 -2.88754 0.54062
-1.71361 -1.78051 1.88358
-0.684478 -1.36945 3.10732
0.394647 -2.50362 2.52267
0.0171972 -2.87588 2.31874
1.70092 -1.71155 3.03567
-0.258239 -2.66631 1.44539
-1.36745 -2.78636 1.34387
0.0721415 -2.40096 3.01393
-0.815319 -2.68169 2.23108
0.325283 -2.64696 2.73551
1.36649 -2.14445 2.81113
-0.716433 -2.57171 2.23575
0.251183 -1.98534 3.18231
-1.25865 -3.19276 0.523519
1.25284 -2.18675 2.53672
-0.144179 -3.06205 -0.0459371
0.703562 -2.13961 3.20135
-0.5969 -2.68533 2.03943
-0.19718 -2.88735 1.84279
0.241112 -3.21975 -0.527531
0.45744 -3.16966 -0.622673
0.478473 -3.20715 -0.484984
0.391017 -3.79813 -1.5898
0.727468 -2.48608 0.752223
-0.282077 -3.47171 -0.64058
0.711385 -3.18061 -0.338054
-0.576253 -3.86265 -1.00954
0.910331 -3.15949 -0.757012
0.421933 -3.06396 -0.0553337
0.525391 -3.24205 -0.0996857
0.728567 -2.84952 -0.0981185
1.2117 -2.96474 -0.596866
0.8829 -3.29272 -1.00096
0.739631 -3.47987 -1.11204
0.432848 -3.46558 -1.04178
0.644885 -3.08027 -0.179308
0.486368 -3.11516 -0.459455
0.475521 -3.1301 0.0212046
0.586464 -2.73755 0.887203
0.300159 -3.61993 -1.17944
0.38388 -2.98236 0.624313
0.468836 -3.24366 -0.154427
0.506458 -3.38837 -0.997122
1.05945 -3.18685 -0.735524
0.836625 -3.19848 -0.801712
1.0838 -2.68905 0.335834
0.219198 -3.04347 0.252524
0.78909 -3.41022 -0.914902
0.64915 -3.32922 -0.998506
1.01635 -3.09878 -0.635873
0.769235 -2.50041 1.09734
1.11725 -2.93626 -0.545046
0.741512 -3.07823 -0.582174
0.0725855 -3.21313 0.137317
0.621561 -3.24024 -0.498386
-0.240395 -3.49484 -0.746399
0.0983065 -3.94131 -1.48261
0.126328 -2.98914 0.0829457
0.444196 -3.02462 0.177284
1.07971 -2.92105 -0.25067
0.475252 -2.99121 -0.201369
0.975542 -3.0443 -0.431456
1.18148 -3.04856 -0.767046
-0.229064 -3.39278 -0.480847
0.295739 -3.2824 -0.452886
-0.171884 -3.66041 -1.09694
0.702119 -3.54492 -1.30212
0.40993 -3.26788 -0.48638
0.47672 -2.85845 0.367221
