ply
format ascii 1.0
comment Created by Open3D
element vertex 250
property double x
property double y
property double z
end_header
-2.3317 -1.65071 0.0400731
-1.0224 -3.20289 -1.14366
-0.66036 -1.1364 -2.96406
-1.88569 -1.83088 -2.58276
-2.41829 -2.34629 -0.475495
-2.45541 -1.00455 -2.19748
-2.09254 1.33598 -1.92359
-1.62763 -0.533165 -2.30029
-2.71229 -1.84354 -0.256413
-2.08107 -1.84035 -1.89044
-1.54282 -2.87146 -1.92122
-2.13521 -1.28591 -2.52185
-2.1937 -2.49527 -1.54321
-2.52661 -0.901134 -1.64442
-2.92015 -3.03499 -1.82836
-2.07444 -2.63793 -0.769169
-2.78598 -0.885837 -2.19777
-1.65359 0.349923 -2.80368
-2.73358 -0.423966 -2.26482
-0.633923 -1.24547 -2.67547
-1.73238 -3.30862 -1.91877
-1.0411 0.759033 -2.02761
-2.1175 -1.13545 -1.45846
-1.877 -0.13919 -2.42053
-1.13055 -1.28206 -2.7639
-2.60329 -2.07988 -1.15914
-2.24639 -0.3267 -1.45034
-1.47062 -2.99067 -0.831781
-1.27383 -1.02855 -2.85485
-1.87047 -1.94576 -1.98543
-2.33001 -1.59408 0.17082
-1.06721 -3.04373 -0.79021
-2.2915 -2.35909 -0.17123
-1.04664 -3.16904 -1.88386
-1.08215 -3.29607 -1.2424
-2.30181 1.03874 -2.24077
-0.940418 -1.28721 -3.09564
-1.08166 -3.2849 -1.59882
-3.3429 -2.44121 -2.00677
-1.11395 -0.769807 -2.64493
-1.13197 -0.892193 -2.66093
-2.04701 -0.501739 -2.04362
-1.79794 -2.93992 -1.71966
-2.06437 -2.7366 -0.949675
-1.16719 -1.94859 -2.99063
-1.6048 -2.92171 -1.10795
-0.656258 -0.388756 -3.23782
-1.7787 -2.96959 -1.11385
-2.47732 -0.00420518 -2.41214
-2.70991 -2.49058 -1.44199
-0.933953 -2.77668 -1.71839
-1.53441 -1.71572 -2.92987
-0.81161 -0.131461 -3.18292
-2.53544 -3.21414 -0.929243
-1.56887 -1.13165 -2.12435
-0.638797 0.342973 -3.07749
-1.5935 -1.1728 -2.56228
-2.89898 -2.08623 -0.541771
-1.1992 -1.93179 -2.00726
-2.41793 -1.06161 -2.34537
-1.74327 -0.470158 -1.86173
-1.78886 -0.0419591 -2.59176
-0.879586 -1.12898 -2.51259
-2.35431 -2.40062 -0.676568
-2.03195 -3.14446 -0.793597
-1.31023 -3.28737 -1.92157
-2.06839 -2.45827 -2.27813
-1.49254 0.773018 -2.49055
-2.4822 -1.75469 -0.460103
-2.45392 -1.32161 -1.99121
-1.69185 -2.07894 -1.77701
-0.574121 -0.770691 -2.64614
-3.10106 -2.56509 -0.879599
-1.65615 -0.822441 -2.85792
-1.51592 -1.02795 -3.12654
-2.4881 0.748968 -2.45245
-0.490548 0.252775 -2.94785
-1.81132 -2.30561 -1.18723
-2.19028 -2.5336 -1.84775
-2.02619 -1.02728 -2.04907
-2.52716 -0.755241 -1.62055
-1.18514 -2.80421 -2.09089
-2.64377 -2.68745 -1.2987
-2.0894 0.0618776 -1.82454
-1.87687 -0.91034 -2.27177
-1.84769 -2.80339 -0.631731
-1.87664 0.459489 -2.23052
-2.63336 -1.90383 -0.387795
-0.324997 0.150282 -1.85893
-2.44607 -2.37873 -2.2863
-0.881277 -1.29419 -3.20801
-1.26181 0.556548 -2.42675
-2.7443 -2.44012 -1.39159
-1.67136 -1.85916 -1.274
-1.93533 -3.08349 -2.21191
-1.16818 -0.6783 -2.83088
-2.89538 -1.74973 -0.980254
-2.46589 -2.30677 -0.399375
-0.945014 -2.27951 -2.08812
-2.93532 -1.17991 -1.66157
-2.33958 -2.86806 -1.93303
-2.36324 -2.57741 -0.864241
-2.18715 -2.2229 -0.965689
-2.89612 -1.85187 -0.816602
-1.57845 -2.93555 -1.63128
-2.42373 -0.978954 -1.49569
-2.53468 -0.9989 -1.95513
-0.52452 0.447258 -3.00772
-1.59886 0.603777 -2.5615
-2.01447 -0.868446 -2.6698
-1.13356 -1.45805 -2.87713
-1.02827 -2.26998 -2.20244
-1.73607 -0.8661 -2.77455
-3.15249 -2.06006 -0.859145
-0.541585 0.851962 -2.52165
-1.9577 -2.28096 -2.06102
-1.19627 0.317949 -2.69431
-2.81759 -2.70762 -0.763801
-2.30776 -2.71176 -1.27658
-1.66184 -3.01045 -1.6187
-2.22741 1.03286 -2.10791
-1.1192 -2.65116 -1.65433
-1.73224 -0.802888 -2.00206
-1.94223 -2.93683 -1.56911
-1.9305 0.925734 -2.10695
-1.19965 0.525453 -2.87967
-0.36056 -1.11927 -2.22219
-1.32805 -1.87312 -2.82037
-2.36964 -1.00642 -2.21681
-0.768977 -0.185561 -2.94553
-1.43823 -0.325664 -2.50206
-1.63128 0.444032 -2.94184
-1.55316 -2.35205 -1.39346
-0.34098 -0.020561 -3.16255
-0.724982 -1.29825 -2.6171
-1.29156 -0.505662 -2.55279
-0.953421 0.323238 -2.85041
-1.20253 -0.296055 -2.05871
-1.17004 -3.06339 -1.51606
-2.12216 0.668427 -2.43224
-1.13153 -3.23836 -1.50233
-1.92019 -3.04853 -0.702652
-0.700052 -0.623628 -3.17564
-2.2578 -2.47553 -1.48051
-2.6668 -2.57884 -1.47934
-1.03907 -3.23421 -1.48018
-3.00344 -1.78053 -1.76073
-1.60934 0.54944 -1.83817
-1.01797 -2.83016 -1.57519
-2.71405 -2.02778 -1.27531
-0.581293 0.0072942 -2.98023
-2.63581 -1.78432 -1.0557
-1.19684 -0.518279 -3.26952
-1.75741 -2.77012 -0.644378
-2.44047 -1.68137 -0.175022
-2.82454 -3.59607 -1.8394
-1.9727 -0.099405 -3.08529
-2.28881 -0.323231 -1.04452
-2.34167 -1.15673 -1.26847
-1.39831 -0.251723 -3.26043
-1.47046 -3.12806 -2.45189
-1.14431 -1.73838 -2.36476
-1.44968 -3.60054 -1.89226
-2.35936 -2.69372 -1.52675
-1.21392 -1.03421 -2.79142
-1.64741 0.994873 -2.13014
-1.99219 0.936697 -2.12801
-1.4147 -2.49575 -1.4702
-2.52035 -1.71308 -0.647468
-0.759825 -0.664355 -2.60469
-1.8835 -3.18111 -2.13973
-2.45445 -0.0300963 -2.59448
-1.48206 -1.06989 -2.58181
-1.13368 -3.2488 -1.61183
-1.13894 -3.34448 -1.0552
-1.84161 -2.96686 -1.52008
-1.97472 -3.38743 -1.62131
-2.32496 -2.31015 -1.89454
-0.360483 -0.318577 -2.82365
-2.71672 -1.8592 -2.20066
-0.593258 -0.198817 -2.81092
-2.68688 -0.437003 -1.52848
-2.80139 -2.13944 -0.902953
-1.50693 -2.07058 -2.11875
-2.07172 -2.75443 -2.45267
-0.782398 -3.08321 -1.23599
-1.24099 -0.812733 -2.45906
-2.42308 -1.12907 -2.54177
-2.40028 -3.05974 -1.89203
-2.65171 -2.22503 -2.2868
-2.06633 -3.11598 -2.16553
-1.01466 -3.02524 -1.68614
-2.42735 -1.89883 -2.20201
-2.46146 -3.54091 -1.43094
-1.85517 -0.760557 -3.05406
-1.21106 -3.53212 -1.71591
-0.180192 0.118662 -3.06486
-1.97123 -3.39674 -1.60319
-2.17668 -1.75119 -2.34721
-1.77711 -1.9325 -2.56333
0.368113 0.0576211 -3.27216
0.682946 0.215546 -3.24722
0.450509 -0.297615 -3.23541
0.718771 -0.490392 -3.91472
0.379729 0.122523 -2.43342
-0.20353 -0.180645 -3.50593
0.408134 -0.858163 -3.1601
-0.558739 -0.705433 -3.88736
1.0167 -0.227918 -3.22818
0.188972 -0.391839 -3.04366
9.99582e-05 -1.18551 -3.17132
0.726938 0.157171 -2.87957
1.26208 -0.213614 -3.0262
1.06314 -0.282693 -3.37985
0.739705 -0.859281 -3.53298
0.653848 -0.215923 -3.55115
0.394024 -0.56308 -3.06442
0.585912 0.0552479 -3.1665
0.0397083 -0.834157 -3.07203
-0.157592 -0.752791 -2.60604
0.479074 -0.462099 -3.69784
-0.360937 -1.01769 -2.85208
0.0320169 -1.01347 -3.18915
0.781092 -0.0330409 -3.48449
0.894718 -0.908099 -3.20825
0.984237 -0.165974 -3.27414
0.672945 -0.457663 -2.64208
-0.200941 -0.561786 -2.97735
0.619768 -1.098 -3.42878
0.955748 0.0476342 -3.43447
0.987996 -0.45434 -3.14225
0.069856 -0.42882 -2.37648
1.2565 0.0689346 -3.01091
0.914934 0.121625 -3.15165
-0.407145 -0.828961 -3.13538
0.454913 -0.668081 -3.24645
-0.0911526 -0.104921 -3.5454
0.149187 -1.09601 -3.99783
-0.025299 -0.0464109 -2.97398
0.0282104 -0.626626 -2.96601
0.886045 -0.49184 -2.92693
0.485584 0.0846958 -3.02009
0.836448 -0.532902 -3.06193
1.31628 -0.166855 -3.12872
-0.230143 -0.22493 -3.40997
0.206162 -0.422886 -3.29452
0.106148 -0.123861 -3.74415
0.888508 -0.568914 -3.63585
0.318462 -0.461706 -3.28296
0.0955344 -0.347629 -2.80268
