ply
format ascii 1.0
comment Created by Open3D
element vertex 250
property double x
property double y
property double z
end_header
2.48506 2.8078 -0.621886
3.15838 2.26079 1.22682
0.170454 2.29231 1.83623
0.895018 2.79578 0.828131
2.61119 2.70872 -0.428321
0.311681 2.94785 -0.00731113
-1.08655 3.38224 -0.00140266
0.339263 3.17481 0.91682
2.02261 2.45799 -1.05719
1.6505 3.24565 0.612194
2.44265 2.78585 1.16792
0.40196 2.8674 0.46439
2.37719 3.16302 0.466049
0.724206 3.12565 -0.21062
1.87579 2.52715 -0.412601
3.01398 3.00721 0.259516
-0.0733861 2.7557 -0.481292
-1.02106 2.89731 0.73452
-0.510017 2.75299 -0.503183
0.666917 2.53879 1.91329
2.51104 2.4531 0.886674
-0.051221 3.58985 1.37399
1.48908 3.46753 0.382652
-0.295549 3.04806 0.546596
0.483915 2.62899 1.47963
2.00712 3.00985 -0.273452
0.655985 3.37071 0.0186869
3.39318 2.80131 0.883272
0.136738 2.6369 1.31162
1.74859 3.22326 0.878541
2.46453 2.7131 -0.729691
3.46 2.5423 1.16623
2.76819 2.52198 -0.501289
2.46084 2.10452 1.37944
3.05287 2.13586 1.15396
-1.33941 3.11452 -0.183503
0.0335234 2.21928 1.5839
2.75254 2.09669 1.26039
0.914491 2.35524 -1.01073
0.295035 2.86517 1.46818
0.356405 2.82717 1.4614
0.348744 3.21573 0.3986
2.62626 2.90459 0.904723
2.97858 3.01582 0.361276
0.557459 2.16382 1.42137
3.19967 2.98185 0.922903
-0.675416 2.31253 1.78891
3.12267 2.9261 0.723406
-0.823101 2.83073 -0.230455
1.99649 2.84349 -0.282203
2.65135 2.61761 1.62419
0.44487 2.4536 1.1168
-0.803743 2.48836 1.64333
2.61471 2.17954 -0.479258
1.09726 3.27897 1.09903
-0.914102 2.70721 1.79974
0.536233 2.90934 1.0453
1.85503 2.33065 -1.16472
1.96597 3.1614 1.55527
0.225517 2.88659 0.065507
0.751685 3.44756 0.767209
-0.530653 2.9625 0.634887
0.801145 2.85132 1.73647
2.67394 2.89824 -0.176535
3.0673 2.45491 0.130512
2.47505 2.17647 1.18
1.65579 2.88132 0.706756
-0.877528 3.20094 0.859279
2.25195 2.9601 -0.495884
0.819499 3.05306 0.0436147
2.17884 3.33788 1.07987
0.428645 2.72586 1.96177
1.77031 2.09072 -1.2779
-0.169425 2.69752 0.899007
-0.324714 2.41832 1.04027
-1.47499 2.89746 -0.354516
-0.638719 2.75779 1.95461
2.84314 3.45132 0.849881
2.11863 3.0658 0.536778
0.822838 3.2227 0.539554
0.614685 3.1284 -0.24988
2.21592 2.51026 1.44462
2.25847 2.77897 -0.256236
0.0587422 3.30619 0.200917
0.549564 3.12418 0.69959
3.26392 2.87355 0.412851
-0.573047 3.20354 0.431094
2.14864 2.64778 -0.813515
0.982615 3.6774 2.24219
1.38451 2.83672 0.272588
-0.121447 2.07384 1.61132
-0.50564 3.24857 1.15024
1.95883 2.82195 -0.358815
2.59246 3.65733 1.04063
2.1091 2.59402 0.805621
-0.0510897 2.71839 1.38127
1.51961 2.72753 -0.865191
2.5419 2.61079 -0.566102
2.04639 2.77365 1.72151
0.547337 2.79813 -0.746215
2.13945 2.85965 0.374242
2.67868 2.88536 -0.0866191
2.64411 3.27359 0.263488
1.65765 2.62604 -0.956768
2.76908 2.88598 1.09233
1.03201 3.24469 -0.0767901
0.498532 3.01429 -0.144349
-0.851345 2.78292 1.91191
-0.894564 3.10533 0.759391
-0.0691414 2.80365 0.520853
0.434244 2.46046 1.46641
1.88223 2.72393 1.64718
-0.0600937 2.75892 0.826819
1.43464 2.25526 -1.36138
-0.498428 3.28628 1.89663
1.8495 3.08081 0.811457
-0.625709 3.02186 1.24761
2.20534 2.23263 -0.916568
2.59631 2.99591 0.208277
2.77806 2.84339 0.993924
-1.14662 3.19507 -0.10969
2.7305 2.92966 1.54434
0.88081 3.35506 0.852538
2.70883 2.95594 0.725259
-0.848226 3.29985 0.280064
-1.011 2.93231 1.21904
1.2941 2.93993 2.2208
0.749339 2.44744 1.32448
0.358825 2.97961 0.106885
-0.431532 2.67186 1.71078
0.00780967 3.06097 1.08369
-1.245 2.82922 0.751647
2.82007 3.41827 1.18804
-0.721442 2.43502 2.07778
0.776966 2.62246 1.85219
0.152738 3.00494 1.26523
-0.722471 2.9071 1.49721
0.684215 3.4446 1.36687
2.90619 2.55387 1.3314
-1.13281 3.0348 0.112174
2.8743 2.25535 1.24689
3.17438 2.56203 0.250772
-0.452568 2.29643 1.76263
2.36919 3.15029 0.365082
2.07133 2.85161 -0.200088
2.87081 2.17679 1.29352
0.918089 2.71808 -0.694449
-0.0155448 3.52882 0.722047
2.83596 2.71302 1.54613
1.77712 2.93913 -0.39626
-0.551622 2.66448 1.87479
1.81907 3.02496 -0.400849
-0.781804 2.36312 1.28771
3.3293 2.96469 0.55315
2.32928 2.83955 -0.634792
2.18254 2.21635 -0.351333
-1.19478 2.58204 0.431975
0.982227 3.43863 -0.137591
1.47215 3.35701 0.0248102
-1.02976 2.45805 1.06558
1.83825 2.12608 1.14278
1.3587 2.88599 1.555
2.47432 1.84223 0.914059
2.37636 2.99964 0.24275
0.249019 2.68542 1.3784
-0.732694 3.39983 0.623472
-0.923056 3.26768 0.203579
2.85139 3.27986 1.31903
2.11152 3.03139 -0.439419
0.379504 2.85812 1.79878
2.23301 2.54095 0.826928
-0.984069 2.74767 -0.178743
0.475504 2.90432 1.14446
2.76644 2.2057 1.2603
3.15241 2.0565 0.995124
2.80199 2.93777 0.809999
2.73348 2.50669 0.569984
1.83184 3.07033 0.366508
-0.0740086 2.63509 2.10467
0.853133 2.81044 -0.168501
-0.186236 2.75373 1.89259
0.255818 3.02103 -0.576265
1.93239 2.68694 -0.731836
1.81944 3.0858 1.26267
1.62306 2.65138 0.708893
3.07109 2.23667 1.47355
0.541147 3.04175 1.37012
0.0531565 2.76762 0.0828982
2.23639 2.75274 0.280593
1.12099 2.78269 -0.00478232
2.1406 2.62932 0.677013
2.69929 2.39286 1.46273
1.10987 2.94731 0.216554
2.60039 2.22846 -0.12363
-0.571987 2.53316 0.660934
2.58647 1.75752 1.04114
-0.633678 2.532 2.23235
2.74759 2.49412 0.562452
0.983994 2.95186 0.502723
1.03904 2.78605 0.951845
-0.785204 2.12658 2.68182
-0.780353 2.11248 2.96168
-0.572516 1.8973 2.71056
-1.36374 1.08973 2.85295
0.341381 2.91174 2.79123
-1.06897 2.02164 2.16249
-0.24616 1.60895 2.6075
-1.37366 1.55451 1.79424
-0.567052 1.64114 3.15179
-0.279365 2.15159 2.52135
-0.110358 1.65269 2.2771
-0.264937 2.35597 3.01602
-0.306878 1.66625 3.34639
-0.742898 1.45561 3.16923
-0.773507 1.05336 2.79716
-1.00645 1.59354 2.86013
-0.225347 1.91282 2.65489
-0.61868 2.11602 2.8671
-0.11733 1.95103 2.3645
0.525216 2.58986 2.3087
-1.11982 1.38746 2.67407
0.291731 2.31223 2.09485
-0.209107 1.72628 2.31878
-0.975677 1.71703 2.99531
-0.337544 1.17453 2.91687
-0.647782 1.67179 3.13717
0.330459 2.21686 2.93263
-0.129237 2.31908 2.2133
-0.560982 1.02074 2.66788
-0.923875 1.73206 3.15103
-0.382618 1.54805 3.09026
0.701959 2.86349 2.53894
-0.374885 1.90806 3.40175
-0.595749 2.01584 3.13978
-0.232136 2.13241 2.01315
-0.439877 1.63358 2.65982
-1.13929 1.98958 2.26143
-1.30645 0.851323 2.29003
-0.385765 2.48751 2.37415
-0.0620893 2.18258 2.39158
-0.0733122 1.77425 3.03293
-0.446186 2.30357 2.80154
-0.243653 1.65428 2.97522
-0.452321 1.59343 3.39182
-0.921735 2.0901 2.14555
-0.614546 1.89234 2.49993
-1.35501 1.74983 2.41786
-0.987551 1.1289 2.9678
-0.575307 1.81941 2.58346
0.0357538 2.45535 2.487
