ply
format ascii 1.0
comment Created by Open3D
element vertex 400
property double x
property double y
property double z
end_header
-1.25368 2.09594 1.9868
-1.42703 2.70822 0.8434
-1.08636 2.84443 0.993338
-0.628546 2.48473 1.81708
-1.23377 2.89584 0.756973
-2.47603 1.14528 2.11642
-1.24578 2.85165 0.832574
-2.00092 1.98746 1.41992
-2.1648 1.97395 0.970284
-1.8121 1.74814 1.88116
-2.35906 1.45334 1.94315
-1.35175 2.08855 1.74467
-1.56541 2.89759 0.107078
-0.969427 2.70563 1.43475
-1.23538 2.90319 0.724647
-1.06924 2.98599 0.793791
-0.513684 2.58755 2.0238
-1.31836 1.67073 2.18593
-1.26391 2.78871 1.0426
-1.67228 2.68772 0.509329
-1.30726 2.02058 1.97687
-2.37871 1.59268 1.7249
-1.02406 2.74747 1.44094
-2.12607 1.88569 1.57203
-1.98704 1.93315 1.39911
-1.59077 2.01031 1.33069
-1.61244 2.63667 0.669676
-1.58691 2.46223 0.829582
-2.4949 1.58803 1.28837
-1.87341 2.2089 1.18983
-1.41759 2.21074 1.66012
-0.526293 2.63715 1.42807
-2.30641 1.72066 1.27925
-0.89492 2.43156 1.83149
-1.15661 1.66637 2.3724
-1.8975 1.7083 2.24101
-2.23051 1.97793 0.73231
-1.60165 2.50984 1.15411
-2.45994 1.46985 1.49566
-2.54525 1.00699 2.09658
-2.19767 1.77148 1.71223
-1.22635 2.72271 0.939065
-1.23512 2.82426 0.854663
-1.20304 2.09891 1.96596
-1.63868 1.26476 2.67381
-2.15117 1.62089 1.86087
-1.43026 2.37179 1.41433
-0.956232 2.95652 1.07451
-1.76441 1.74551 1.79293
-2.55708 1.31638 1.86767
-2.02579 2.18735 0.770707
-1.39846 2.35011 1.5158
-1.51079 2.22421 1.66241
-1.19461 2.14122 1.82291
-0.598293 2.92163 1.46336
-0.872766 2.75876 1.1442
-0.680452 2.71062 1.53679
-2.34248 1.22447 2.48978
-1.55701 1.73579 1.80821
-1.79591 1.77905 2.10931
-1.62727 1.50622 2.47248
-0.622252 2.5658 1.49821
-1.64807 1.98623 1.78798
-1.17347 2.24677 1.84438
-1.92697 1.61777 2.15263
-0.827021 2.60339 1.48173
-2.28148 1.65662 1.71012
-1.74146 1.31444 2.17549
-2.30368 1.69852 1.44626
-1.28366 1.79119 2.54815
-1.40718 2.32474 1.55975
-2.4179 1.23011 2.3097
-1.86858 2.31172 0.707075
-1.88542 2.35576 0.90771
-2.04219 1.4383 2.33848
-0.95211 2.59095 1.25617
-2.68183 1.1251 2.04882
-2.7148 1.1948 1.73021
-2.01152 1.99966 1.27735
-1.9874 2.1849 1.02189
-2.22511 1.38041 2.1865
-1.69671 2.31789 1.32198
-1.21127 1.99854 1.99535
-2.00175 1.81099 1.9984
-2.55513 0.991617 2.42117
-2.06323 1.8529 1.66266
-1.27095 2.93067 0.587296
-1.58884 2.65677 0.788196
-2.89338 0.989515 1.67404
-1.14182 2.67485 1.15337
-1.80331 1.96801 1.88524
-1.68867 2.71157 0.223526
-2.16652 2.08913 0.560184
-1.60456 1.64961 2.36626
-1.25512 2.89203 0.829644
-2.21176 1.9974 0.886865
-1.31613 1.8481 2.2683
-0.301088 2.80615 1.46493
-1.73269 1.72812 2.37791
-2.08405 1.40563 1.97187
-2.19906 1.34803 2.45032
-1.80521 2.05354 1.58878
-1.3781 1.78666 2.5267
-2.5304 1.28064 2.037
-1.79695 1.27808 2.5011
-0.870644 1.94062 2.70749
-1.7222 2.13991 1.68546
-2.26214 1.89779 1
-1.30027 1.38114 2.64006
-2.13022 2.07431 0.72972
-2.02691 2.06249 1.05066
-1.74226 1.27216 2.6899
-2.2869 1.39914 1.96666
-1.50556 2.35775 1.09973
-1.16822 1.75423 2.15443
-1.68736 1.1092 2.84622
-1.83906 2.36963 0.911652
-2.21955 1.34405 2.20109
-2.07912 1.80004 1.62578
-1.4558 2.34906 1.30585
-1.71032 2.50803 0.656268
-0.363206 2.80498 1.4682
-1.4914 1.84427 2.08558
-1.44263 1.75987 2.2272
-1.75126 1.80972 1.68392
-2.10688 1.76831 1.68445
-2.19881 1.94056 0.934875
-2.57435 1.08825 2.174
-0.528828 2.65595 1.61573
-2.00281 1.51445 1.9796
-2.0784 1.87632 1.67529
-1.9116 2.26482 0.577786
-1.26108 1.85401 2.58768
-1.3238 1.26292 2.95752
-2.23319 1.79672 1.35566
-1.45333 1.61965 2.27896
-2.87315 1.02513 1.65504
-2.58231 1.16961 2.04665
-0.702927 2.39374 2.04111
-1.60426 1.36921 2.73401
-2.34229 1.0062 2.48351
-2.65375 1.37776 1.31789
-1.1182 1.82914 2.2284
-2.6261 1.11556 1.92701
-1.79391 1.06022 2.62218
-1.68771 2.62391 0.575581
-0.86987 2.85471 1.24574
-1.65578 2.74982 0.24583
-0.53587 2.51915 1.65745
-2.16849 1.47687 2.112
-1.58165 1.74131 2.44119
-1.1944 2.1575 1.7302
-1.1142 2.05425 2.20684
-2.52125 1.50842 1.47282
-2.36316 1.81682 0.878077
-0.449554 2.7771 1.56092
-1.17752 2.71762 1.11625
-2.28377 0.928645 2.55059
-2.58514 1.42419 1.49175
-1.53584 2.38327 1.31136
-0.987458 2.43884 1.68054
-2.53501 1.50485 1.46251
-2.16747 1.70636 1.76377
-1.61795 2.10773 1.31128
-1.32241 1.76484 2.10792
-1.27912 2.98392 0.519239
-1.40014 2.36085 1.00882
-2.63866 1.16213 2.12267
-0.824978 1.99291 2.47672
-0.327492 3.02 1.42255
-1.09596 2.68841 1.21601
-1.47152 1.76472 2.32076
-1.19193 2.59985 0.924426
-2.66437 1.38747 1.24098
-0.928287 2.80924 1.07746
-1.08523 2.80549 0.809928
-1.98244 1.31984 2.7956
-2.34314 1.3116 2.07148
-2.72712 1.21733 1.53763
-2.43728 1.44769 1.73164
-1.24158 3.00878 0.673282
-1.0759 2.69122 1.20879
-1.17653 2.82752 1.09143
-0.83781 2.8769 1.34537
-1.12743 1.69966 2.49563
-2.21765 1.68827 1.76529
-1.33421 2.57389 1.1616
-1.6188 1.36223 2.87892
-0.742992 2.15421 2.35984
-1.66247 2.6024 0.544717
-0.70202 2.83808 1.22978
-1.43687 2.7526 0.644431
-2.75738 1.07276 1.89159
-2.24552 1.49187 2.16463
-1.00397 2.43502 1.86414
-0.387463 2.67327 1.46844
-2.36372 1.80154 0.699142
-1.23861 2.81333 0.839154
-1.71271 2.51757 0.753042
-1.52086 1.11833 2.75228
-1.71383 2.11952 1.7872
-2.45668 1.05563 2.26218
-1.84341 1.60967 2.18934
-1.73904 2.58938 0.418343
-1.69124 1.26137 2.55757
-2.34587 1.62941 1.82621
-0.780069 2.57434 1.90134
-0.559873 2.72455 1.28723
-0.951526 1.88152 2.18181
-1.3767 2.47026 1.36338
-2.65173 0.907707 2.25576
-1.4847 2.28261 1.33155
-0.189887 3.12419 1.53277
-1.39065 2.59459 0.861485
-2.35636 1.59341 1.80723
-0.871204 2.06526 2.17466
-1.46016 2.31403 1.38009
-2.04513 1.92667 1.60248
-2.26546 1.33134 2.1708
-1.12218 2.91723 0.734311
-2.14501 1.95821 1.24831
-2.73619 1.09084 1.9514
-0.879787 2.44805 1.6955
-1.52996 2.66333 0.741717
-1.38104 1.67051 1.95003
-0.67331 2.17348 2.13863
-2.09166 2.02529 1.11008
-0.886344 2.26105 1.64917
-1.51659 1.75996 2.29677
-0.797998 2.27925 2.07741
-2.63103 1.28593 1.73582
-0.718979 2.30811 1.68294
-2.08115 2.07736 0.919134
-1.24656 2.90486 0.653369
-2.42165 1.14281 2.52909
-1.25776 2.33051 1.833
-2.35715 1.58287 1.83389
-1.25319 1.8549 2.41912
-1.09551 2.11992 1.90781
-1.58289 1.14748 2.53865
-0.463113 2.56475 1.59669
-1.15899 1.74977 2.46581
-1.23493 2.27716 1.74484
-1.2114 1.76528 2.35385
-2.00633 2.04379 1.08327
-0.890145 1.94036 2.34477
-1.95346 1.62062 2.11027
-1.086 2.24013 1.47557
-2.0719 1.70039 1.5163
-2.68221 1.21868 1.64658
-0.79966 2.71207 1.25631
-0.608556 2.31742 2.01238
-2.00689 1.77008 1.85298
-0.843029 2.12457 2.12316
-0.367185 2.61834 1.82128
-1.68697 1.9611 2.05286
-1.77112 2.01712 1.66187
-0.705278 2.56542 1.69014
-1.2291 3.00735 0.689801
-1.50041 1.88102 2.09616
-1.02361 2.59798 1.58053
-2.35014 1.58499 1.55015
-1.86643 2.37263 0.568469
-1.97806 1.55286 2.04869
-1.82546 2.23452 0.937217
-1.21239 1.472 2.70477
-0.834225 2.83373 1.43464
-1.65048 1.39218 2.7712
-2.02392 1.95464 1.8178
-1.42086 1.69369 2.05231
-2.10602 1.66912 1.81557
-1.48963 1.45069 2.66115
-0.334917 2.64527 1.922
-1.61609 0.945739 2.79128
-1.30299 2.5152 1.12844
-0.813572 2.75401 1.65942
-2.32587 1.007 2.63693
-1.58243 1.84107 1.98382
-2.35423 1.42515 1.85837
-1.63049 1.67328 2.30641
-2.40798 1.58238 1.39657
-2.73989 1.2212 1.57041
-1.60944 2.4786 0.831352
-2.5671 1.01319 2.36014
-1.17745 2.22071 1.73497
-1.83541 1.85508 1.78724
-0.678551 2.38278 2.22487
-1.93446 1.53133 2.16197
-1.6114 1.8491 2.18589
-1.59567 2.75472 0.387676
-1.80265 2.08458 1.5096
-1.74055 2.26538 1.38588
-1.28856 2.38019 1.34899
-1.17701 2.70135 0.940364
-1.40663 2.70065 1.10401
-2.53418 1.25605 2.17469
-2.09038 2.14862 0.780681
-0.771814 2.31973 1.72376
-1.29215 2.05036 1.76931
-2.13773 1.13222 2.50231
-1.62573 2.60375 0.554643
-1.42494 2.55478 0.946161
-2.03827 1.30926 2.63521
-1.32643 1.93582 2.26853
-1.82276 1.11693 2.79787
-1.42885 2.01279 1.786
-1.74817 1.62411 2.22893
-1.66153 2.69806 0.331851
-2.10417 1.49881 2.11938
-1.5683 1.91733 2.06447
-1.61289 1.3269 2.82799
-1.20755 2.77465 0.990869
-2.21821 1.33304 2.22278
-2.96665 0.933782 1.53586
-2.20716 1.7342 1.71645
-1.13269 2.48794 1.67269
-2.54624 1.56689 1.04995
-0.843537 2.23266 1.69028
-1.43297 1.27901 2.71113
-0.917962 2.26917 1.81597
-1.17231 2.39594 1.4368
-0.777654 2.30453 1.78926
-2.2866 1.64719 1.60628
-0.131122 3.03221 1.52554
-2.03494 2.12234 0.985873
-1.23213 2.52265 1.46337
-1.45779 2.73565 0.931225
-2.44074 1.56201 1.66825
-1.10176 2.03154 2.14089
-1.55262 2.49702 1.12619
-0.688215 2.74502 1.54428
-2.27474 1.39895 2.20536
-0.364016 2.97822 1.37459
-1.22576 1.56094 2.44162
-2.77606 1.18916 1.49693
-1.9263 1.37709 2.6169
-1.5247 1.26579 2.707
-1.91621 1.23269 2.52487
-2.28688 1.10444 2.53709
-1.41084 2.58091 0.964172
-1.33208 2.07265 1.43841
-2.03702 2.2011 0.712804
-0.492104 3.12322 1.41269
-2.39794 1.41577 1.78457
-2.20347 1.68964 1.39395
-1.47212 2.39846 1.08035
-1.51553 2.36148 1.38264
-1.17165 3.02169 0.808149
-1.33187 2.13018 1.61117
-1.49299 2.9899 0.199927
-2.55998 1.45153 1.55391
-1.94131 2.19184 1.04308
-2.09609 1.43999 2.66053
-0.944148 2.82388 1.02445
-1.40873 2.22555 1.47542
-1.4046 1.46206 2.67212
-2.50404 1.50308 1.30372
-2.66876 1.22538 1.71712
-2.47567 1.42975 1.83138
-1.96386 2.04376 1.41485
-2.44574 1.7128 0.912015
-2.76845 0.895331 2.12002
-0.751178 2.65922 1.63515
-1.30437 1.60251 2.5386
-2.86505 0.874036 2.00426
-0.425965 2.54211 2.01968
-1.5375 1.47387 2.53226
-1.2264 2.51243 1.57176
-0.582411 2.81492 1.63585
-1.35622 2.95433 0.474439
-2.66967 1.17682 1.89022
-1.77359 1.60842 2.55593
-0.719333 2.43021 1.8215
-1.65208 1.65094 2.43713
-2.66614 1.25152 1.56485
-1.42882 1.71693 2.23391
-1.51138 2.18273 1.47315
-1.90003 2.29811 0.622685
-0.882106 2.79187 1.06935
-1.49745 2.30183 1.58958
-2.703 1.30286 1.42271
-1.56868 2.15641 1.74768
-1.71464 1.59691 2.56963
-0.24441 2.88858 1.58447
-0.769704 3.16221 1.1067
-1.22726 2.82057 0.821521
-0.868575 2.82224 1.31289
-1.25256 2.25157 1.66925
-2.76975 1.12199 1.72025
-1.16656 2.84484 0.746768
-0.937556 2.09294 2.13359
-0.704455 2.70785 1.45034
-1.04296 2.68306 1.2331
-1.5852 2.69169 0.36407
-1.59884 2.34353 1.24155
-2.07788 2.03904 1.11926
-0.881316 2.06119 2.09102
-1.45097 2.31414 1.59006
-1.57607 1.95561 1.85563
-1.43679 2.03816 1.53898
