ply
format ascii 1.0
comment Created by Open3D
element vertex 250
property double x
property double y
property double z
end_header
-2.37234 0.712567 2.3206
-1.08914 1.50603 3.49749
0.184758 -1.14755 2.7947
-1.2246 -0.933947 2.90229
-2.45608 0.72049 2.58587
-1.72562 -1.51545 2.23283
-0.950497 -2.60213 1.61217
-0.761833 -1.35526 2.7219
-2.73759 0.274198 1.86304
-1.57235 -0.359551 3.18616
-1.27187 0.52326 3.60341
-1.37791 -1.4008 2.52499
-1.91616 0.280267 3.35616
-1.91538 -1.1435 2.26697
-2.72254 -0.205809 2.5833
-2.05879 1.00468 3.28038
-2.04965 -1.8627 1.77279
-0.502607 -2.48019 1.99241
-1.89016 -2.2119 1.55919
0.132451 -0.748978 3.09506
-1.57711 0.611917 3.385
0.0323493 -1.56989 2.78156
-1.57348 -0.473253 2.97311
-0.912101 -1.92069 2.23993
-0.334118 -1.0625 2.91216
-2.36639 -0.0136096 2.695
-1.55769 -1.15063 2.36061
-1.52918 1.50398 3.63332
-0.401234 -1.39722 2.70456
-1.35879 -0.238615 3.35632
-2.40586 0.744088 2.18367
-1.17556 1.73306 3.64028
-2.43663 0.981741 2.45384
-0.91286 0.840432 3.36949
-1.15063 1.41834 3.39284
-1.15187 -2.85204 1.40011
-0.0923116 -1.33608 2.64271
-1.05115 1.12065 3.37803
-2.99455 -1.07793 1.84757
-0.229847 -1.24619 2.87645
-0.270444 -1.1951 2.89409
-1.24082 -1.41806 2.46956
-1.58381 0.61328 3.58847
-2.01596 0.943227 3.36389
-0.479713 -0.940202 2.79525
-1.55372 1.21822 3.72191
0.411823 -1.88208 2.43912
-1.73937 1.12423 3.58581
-1.50581 -2.44406 1.58084
-2.48751 -0.0610315 2.70642
-0.722499 0.92676 3.73408
-0.788731 -1.18536 2.73602
0.308533 -2.05836 2.38023
-2.66245 0.739467 2.48282
-0.858117 -0.723972 3.17026
0.562818 -2.13698 2.44337
-0.802661 -1.17131 2.83952
-2.90144 0.0699448 1.77528
-0.689237 0.120052 3.69585
-1.66355 -1.58738 2.23679
-0.961965 -1.03946 2.85713
-0.765812 -2.09763 2.169
-0.104843 -0.751152 3.18665
-2.32784 0.703386 2.8639
-2.1606 1.19007 3.01954
-1.17978 0.759292 3.34929
-1.60438 -0.334117 3.18943
-0.320303 -2.34016 2.1443
-2.38581 0.356203 2.4829
-1.83314 -1.09461 2.49344
-1.25474 0.163546 3.63506
0.29297 -0.965763 3.06359
-3.12206 -0.0536504 1.69533
-0.734587 -1.75719 2.42316
-0.586038 -1.82689 2.35835
-1.35387 -2.99469 1.24041
0.661015 -1.86593 2.62225
-1.5725 0.748108 3.74887
-1.84357 0.040832 3.30628
-1.31897 -1.03439 2.77248
-1.89435 -1.22791 2.18889
-0.882494 0.469549 3.5192
-2.50637 0.209022 2.77462
-1.22766 -1.64372 2.21365
-1.09485 -1.23261 2.7194
-1.91716 1.32235 3.35956
-0.835231 -2.14672 2.05973
-2.6153 0.324661 2.14763
0.587403 -0.544994 3.61877
-1.96622 -0.63987 2.87245
-0.0172829 -1.43039 2.54429
-0.14616 -1.9818 2.4439
-2.52828 -0.0854937 2.63214
-1.3032 0.515777 3.8106
-1.63898 0.147553 3.30898
-0.227843 -1.53663 2.66111
-2.6709 -0.37784 2.03754
-2.52675 0.690802 2.4296
-0.518389 0.330685 3.65032
-2.4018 -1.31328 1.83715
-2.05205 0.0541383 3.1933
-2.31896 0.673277 2.95664
-2.00965 0.576308 3.27623
-2.74731 -0.211727 1.97481
-1.39173 0.805521 3.69302
-1.85862 -0.871399 2.47953
-1.86525 -1.35711 2.22825
0.684005 -2.06286 2.52767
-0.447673 -2.3708 2.07965
-1.14214 -1.76008 2.32177
-0.355303 -1.08265 2.84349
-0.571786 0.168375 3.5539
-0.839943 -1.68956 2.45329
-3.06588 -0.373436 1.55784
0.656401 -1.81755 2.76925
-1.50233 -0.158859 3.34536
-0.0733579 -2.05517 2.40474
-2.88687 0.355425 2.07855
-2.16254 0.517651 3.2105
-1.49663 0.804114 3.63826
-1.10883 -2.67316 1.51891
-0.870192 0.877667 3.86555
-0.984319 -0.936056 2.9609
-1.76405 0.657766 3.53832
-0.824648 -2.38258 1.86341
0.00682776 -2.378 2.21602
0.339107 -0.189376 3.56194
-0.645546 -0.865717 2.93044
-1.63226 -1.46689 2.31991
0.29123 -1.74945 2.60128
-0.487892 -1.58226 2.62709
-0.429951 -2.66327 1.89804
-1.26999 0.765908 3.91494
0.786355 -1.85417 2.55068
0.0234957 -0.693766 3.14811
-0.367944 -1.42363 2.76049
0.201801 -2.0711 2.44633
-0.336113 -0.990317 3.1061
-1.0754 1.12405 3.66262
-0.998305 -2.65561 1.64399
-1.1036 1.18446 3.4756
-2.04646 1.29536 3.13689
0.304055 -1.69875 2.51713
-1.99497 0.272103 3.28823
-2.45032 0.00128492 2.79157
-1.02484 1.22892 3.44783
-2.56469 -1.03149 2.04603
-0.631715 -1.63729 2.47058
-0.847407 1.05655 3.79641
-2.44044 -0.231075 2.53778
0.523797 -1.80228 2.60711
-2.36961 -0.157658 2.52268
-0.136125 -2.12505 2.23434
-1.8087 1.37332 3.49024
-2.42245 0.511665 2.32177
-2.76245 0.139893 2.62835
-0.85697 -2.67644 1.74402
-1.70715 -0.840836 2.36703
-1.86457 -0.482088 2.71962
-0.278347 -2.3979 2.06418
-1.16344 0.120339 3.16065
-0.5233 -0.352299 3.37607
-1.41916 0.810643 3.09081
-2.13932 0.280285 3.19476
-0.356027 -1.29175 2.78787
-0.513948 -2.24581 2.10189
-0.880981 -2.45457 1.78914
-1.15185 0.846605 3.94236
-2.35589 0.181209 2.52591
0.130089 -1.07796 3.02434
-1.63179 0.286941 3.33285
-1.44464 -2.58089 1.53996
-0.667168 -1.19382 2.84847
-1.08164 1.08915 3.43889
-1.27689 1.53799 3.2876
-1.6855 0.772101 3.59296
-1.91175 0.770268 3.30894
-1.92073 -0.234119 3.11284
0.633392 -1.32531 2.87327
-2.16187 -1.11424 2.39439
0.433131 -1.5023 2.78683
-2.02821 -1.51391 1.80357
-2.67823 0.00243881 2.25641
-0.997403 -0.0789501 3.51623
-1.63763 -0.336967 3.12809
-0.804037 1.48646 3.56244
-0.399645 -1.09014 2.98576
-1.63771 -1.73432 2.16596
-2.17113 0.150385 3.14734
-2.14601 -0.891368 2.60991
-1.785 0.139049 3.27871
-0.881327 1.0059 3.58756
-1.86845 -0.867412 2.7308
-2.5054 0.641921 2.7965
-0.880901 -2.12781 2.11877
-1.22701 1.01576 3.09777
0.954628 -1.74805 2.66367
-1.91641 0.788965 3.30172
-1.54966 -0.932117 2.82087
-1.14273 -0.784251 3.01139
1.5067 -1.66723 2.63563
1.84134 -1.57421 2.72557
1.48764 -1.41176 2.64065
1.83055 -1.90554 2.14525
1.36999 -0.7968 3.33345
0.948982 -2.05989 2.32983
1.28858 -1.07533 2.61692
0.557727 -2.35177 1.95437
2.03651 -1.19718 2.68638
1.18028 -1.27058 2.77427
0.827804 -1.08405 2.59042
1.7936 -1.14049 2.99949
2.22837 -0.893661 2.83595
2.09694 -1.30895 2.56859
1.66911 -1.34603 2.28657
1.76501 -1.69186 2.43881
1.33373 -1.11939 2.75017
1.6917 -1.45515 2.74946
0.93557 -1.13459 2.72012
0.6856 -0.739997 3.16548
1.56555 -1.80436 2.26821
0.475274 -0.957172 2.92344
0.904744 -1.17665 2.59359
1.91969 -1.65246 2.53752
1.73374 -0.925401 2.50223
2.03212 -1.28649 2.66842
1.54124 -0.597531 3.13561
0.757861 -1.27925 2.79318
1.47152 -1.17873 2.29997
2.096 -1.56031 2.61125
1.93118 -1.01745 2.68873
0.935483 -0.564292 3.38775
2.29626 -1.00652 2.92498
2.01734 -1.3246 2.81067
0.528227 -1.39831 2.63548
1.39835 -1.24106 2.57557
1.08319 -2.0869 2.32822
1.14878 -1.96272 1.8897
1.04676 -1.48112 2.79357
0.956554 -1.13056 2.82766
1.78384 -0.810926 2.85826
1.57456 -1.36141 2.85063
1.75318 -0.956057 2.73991
2.31308 -0.997666 2.77858
0.893577 -1.94749 2.39879
1.23709 -1.51816 2.55957
1.30838 -2.18727 2.23182
1.90909 -1.51746 2.30645
1.33083 -1.4376 2.5736
1.05738 -1.07155 2.98163
