ply
format ascii 1.0
comment Created by Open3D
element vertex 400
property double x
property double y
property double z
end_header
-2.0222 1.9868 1.32741
-2.60994 0.8434 1.52531
-2.81143 0.993338 1.11936
-2.43755 1.81708 0.675727
-2.83486 0.756973 1.29476
-1.43562 2.11642 2.1857
-2.76445 0.832574 1.33298
-1.91734 1.41992 2.07104
-2.10167 0.970284 2.03708
-1.92866 1.88116 1.63158
-1.44482 1.94315 2.36758
-2.23583 1.74467 1.20447
-3.08091 0.107078 1.38209
-2.51285 1.43475 1.1622
-2.86953 0.724647 1.26903
-2.96045 0.793791 1.09478
-2.21513 2.0238 0.886105
-1.91451 2.18593 1.07458
-2.52527 1.0426 1.52735
-2.48552 0.509329 1.87448
-2.03656 1.97687 1.29128
-1.3523 1.7249 2.61909
-2.40713 1.44094 1.36439
-1.61131 1.57203 2.40045
-2.06829 1.39911 1.85189
-2.56869 1.33069 1.03239
-2.55437 0.669676 1.69474
-2.70353 0.829582 1.34561
-1.48445 1.28837 2.59847
-2.06366 1.18983 2.01866
-2.19132 1.66012 1.43701
-2.94019 1.42807 0.223254
-1.91104 1.27925 2.11604
-2.27402 1.83149 1.05247
-1.75421 2.3724 1.06878
-1.45174 2.24101 2.15405
-2.19477 0.73231 2.01367
-2.14928 1.15411 1.96222
-1.78773 1.49566 2.14206
-1.50755 2.09658 2.04469
-1.49164 1.71223 2.47752
-2.81363 0.939065 1.13543
-2.7902 0.854663 1.26918
-2.07753 1.96596 1.22442
-1.2801 2.67381 1.62335
-1.67849 1.86087 2.09356
-2.31739 1.41433 1.48466
-2.76826 1.07451 1.14448
-2.07399 1.79293 1.43593
-1.30788 1.86767 2.56559
-2.25245 0.770707 1.96068
-2.25673 1.5158 1.49183
-2.07697 1.66241 1.65802
-2.22774 1.82291 1.1081
-2.69049 1.46336 0.829426
-2.9487 1.1442 0.682826
-2.64774 1.53679 0.743336
-1.01943 2.48978 2.54752
-2.20985 1.80821 1.08296
-1.65413 2.10931 1.92084
-1.48466 2.47248 1.64884
-2.8094 1.49821 0.378644
-2.00189 1.78798 1.63241
-2.16039 1.84438 1.25984
-1.60265 2.15263 1.94208
-2.65715 1.48173 0.773261
-1.53796 1.71012 2.40013
-1.837 2.17549 1.21889
-1.7403 1.44626 2.2619
-1.47485 2.54815 1.59999
-2.2191 1.55975 1.51282
-1.15163 2.3097 2.49638
-2.52236 0.707075 1.65794
-2.01568 0.90771 2.22549
-1.39886 2.33848 2.08164
-2.83953 1.25617 0.703524
-1.04192 2.04882 2.76502
-1.25844 1.73021 2.65116
-2.0536 1.27735 1.95757
-2.00972 1.02189 2.16259
-1.44009 2.1865 2.16543
-2.08083 1.32198 1.93377
-2.08276 1.99535 1.12705
-1.48665 1.9984 2.3261
-1.02904 2.42117 2.51771
-1.72542 1.66266 2.19071
-2.96731 0.587296 1.23431
-2.38927 0.788196 1.85634
-1.05002 1.67404 2.83287
-2.69761 1.15337 1.11906
-1.72413 1.88524 2.04718
-2.89309 0.223526 1.50715
-2.35751 0.560184 1.89814
-1.57309 2.36626 1.68108
-2.68955 0.829644 1.4576
-1.91198 0.886865 2.29718
-1.7683 2.2683 1.39593
-2.99145 1.46493 0.11578
-1.43038 2.37791 2.03042
-1.82765 1.97187 1.66203
-1.15583 2.45032 2.39126
-1.9669 1.58878 1.89184
-1.45684 2.5267 1.70791
-1.2122 2.037 2.59884
-1.429 2.5011 1.64602
-1.4115 2.70749 1.39976
-1.86285 1.68546 1.99926
-1.90677 1 2.25316
-1.41312 2.64006 1.2683
-2.28281 0.72972 1.92172
-2.18113 1.05066 1.90828
-1.21916 2.6899 1.79527
-1.61798 1.96666 2.06806
-2.61905 1.09973 1.24426
-1.99175 2.15443 0.93071
-1.05032 2.84622 1.74623
-2.15311 0.911652 2.05558
-1.46151 2.20109 2.10208
-1.83126 1.62578 2.04789
-2.44034 1.30585 1.36451
-2.59089 0.656268 1.62747
-2.94054 1.4682 0.227638
-1.88033 2.08558 1.45534
-1.78207 2.2272 1.42042
-2.1647 1.68392 1.39627
-1.75713 1.68445 2.11807
-2.13584 0.934875 2.00353
-1.25561 2.174 2.40699
-2.68643 1.61573 0.498358
-1.81401 1.9796 1.70326
-1.6269 1.67529 2.32782
-2.70036 0.577786 1.47605
-1.42111 2.58768 1.69398
-1.00364 2.95752 1.58309
-1.82548 1.35566 2.20443
-1.76177 2.27896 1.31121
-1.15115 1.65504 2.74712
-1.29689 2.04665 2.45504
-2.15806 2.04111 0.938608
-1.20517 2.73401 1.7683
-1.19874 2.48351 2.14976
-1.57968 1.31789 2.45183
-1.90828 2.2284 1.03906
-1.4761 1.92701 2.26555
-1.30792 2.62218 1.54621
-2.50067 0.575581 1.81095
-2.74291 1.24574 0.981661
-2.86606 0.24583 1.53954
-2.67987 1.65745 0.375152
-1.50985 2.112 2.13552
-1.45897 2.44119 1.86399
-2.32744 1.7302 1.02446
-1.86937 2.20684 1.29907
-1.40192 1.47282 2.62775
-1.939 0.878077 2.24098
-2.7632 1.56092 0.463462
-2.654 1.11625 1.24114
-1.18703 2.55059 2.02538
-1.40603 1.49175 2.60329
-2.28101 1.31136 1.6381
-2.38194 1.68054 1.04436
-1.20155 1.46251 2.83831
-1.64108 1.76377 2.23275
-2.48045 1.31128 1.24524
-1.97828 2.10792 1.10898
-2.97282 0.519239 1.29023
-2.86341 1.00882 0.897579
-0.945006 2.12267 2.85579
-1.69215 2.47672 1.12575
-2.93756 1.42255 0.409936
-2.66093 1.21601 1.12343
-1.65586 2.32076 1.58038
-3.00579 0.924426 0.785989
-1.59943 1.24098 2.45241
-2.93752 1.07746 0.80001
-3.10995 0.809928 0.780767
-0.927181 2.7956 2.3751
-1.5029 2.07148 2.15184
-1.50599 1.53763 2.43847
-1.56453 1.73164 2.32043
-2.76592 0.673282 1.48445
-2.69178 1.20879 1.07534
-2.55716 1.09143 1.44689
-2.6304 1.34537 1.08432
-1.61292 2.49563 1.21417
-1.56041 1.76529 2.3455
-2.53435 1.1616 1.37375
-1.01733 2.87892 1.9637
-1.83015 2.35984 1.06705
-2.68766 0.544717 1.57722
-2.95432 1.22978 0.585777
-2.80668 0.644431 1.38278
-1.2139 1.89159 2.61625
-1.30517 2.16463 2.43223
-2.15444 1.86414 1.28455
-2.97127 1.46844 0.0894664
-2.32498 0.699142 1.84028
-2.82077 0.839154 1.23117
-2.41233 0.753042 1.81794
-1.21547 2.75228 1.42372
-1.78088 1.7872 2.05248
-1.34897 2.26218 2.16333
-1.63823 2.18934 1.81486
-2.68968 0.418343 1.63874
-1.40605 2.55757 1.54656
-1.16317 1.82621 2.81212
-2.1983 1.90134 1.15612
-3.06605 1.28723 0.218369
-2.01516 2.18181 0.817882
-2.3418 1.36338 1.50516
-1.22157 2.25576 2.33787
-2.44165 1.33155 1.32567
-2.85449 1.53277 0.459591
-2.81681 0.861485 1.16843
-1.30665 1.80723 2.64313
-2.0166 2.17466 0.919855
-2.38139 1.38009 1.3928
-1.69839 1.60248 2.27341
-1.45718 2.1708 2.13962
-3.04225 0.734311 0.997171
-1.80125 1.24831 2.30196
-1.10866 1.9514 2.71837
-2.43873 1.6955 0.889112
-2.60591 0.741717 1.58737
-2.16277 1.95003 0.888788
-2.1163 2.13863 0.730495
-1.99577 1.11008 2.12118
-2.57305 1.64917 0.574341
-1.65978 2.29677 1.61676
-2.10417 2.07741 0.973079
-1.32475 1.73582 2.59221
-2.61125 1.68294 0.415843
-2.16186 0.919134 1.99665
-2.95352 0.653369 1.1979
-0.915833 2.52909 2.64862
-2.04797 1.833 1.5403
-1.29475 1.83389 2.64526
-1.62158 2.41912 1.48652
-2.20052 1.90781 1.01492
-1.47128 2.53865 1.25908
-2.78765 1.59669 0.240203
-1.63011 2.46581 1.27866
-2.20868 1.74484 1.30341
-1.73906 2.35385 1.23762
-2.23059 1.08327 1.81953
-1.83418 2.34477 0.996317
-1.6248 2.11027 1.94928
-2.66231 1.47557 0.663809
-2.11075 1.5163 1.66155
-1.51354 1.64658 2.38736
-2.90445 1.25631 0.607284
-2.26278 2.01238 0.663189
-1.71474 1.85298 2.06224
-2.07455 2.12316 0.893045
-2.5397 1.82128 0.445818
-1.67612 2.05286 1.97196
-1.97488 1.66187 1.81335
-2.51074 1.69014 0.75996
-2.77135 0.689801 1.4651
-1.8432 2.09616 1.53824
-2.36352 1.58053 1.25808
-1.74261 1.55015 2.19251
-2.59213 0.568469 1.64692
-1.72698 2.04869 1.80393
-2.46242 0.937217 1.59757
-1.35362 2.70477 1.33076
-2.55413 1.43464 1.11383
-1.1356 2.7712 1.90707
-1.39208 1.8178 2.58648
-2.01855 2.05231 1.09601
-1.7409 1.81557 2.03423
-1.32647 2.66115 1.61385
-2.42243 1.922 0.557762
-1.12812 2.79128 1.43371
-2.68292 1.12844 1.13527
-2.35305 1.65942 1.21454
-0.995361 2.63693 2.3375
-1.93647 1.98382 1.48702
-1.61571 1.85837 2.16367
-1.61758 2.30641 1.68618
-1.798 1.39657 2.19236
-1.15778 1.57041 2.8033
-2.63184 0.831352 1.45621
-1.07945 2.36014 2.50084
-2.29969 1.73497 1.09846
-1.92124 1.78724 1.76925
-1.95688 2.22487 1.10445
-1.64581 2.16197 1.81997
-1.6767 2.18589 1.7838
-2.79686 0.387676 1.55354
-2.0236 1.5096 1.86363
-2.00212 1.38588 2.00381
-2.55035 1.34899 1.11841
-2.90615 0.940364 0.972213
-2.29985 1.10401 1.80743
-1.01055 2.17469 2.77967
-2.08714 0.780681 2.15186
-2.52761 1.72376 0.563925
-2.27094 1.76931 1.07156
-1.27954 2.50231 1.9904
-2.76905 0.554643 1.46043
-2.69882 0.946161 1.28091
-1.1009 2.63521 2.24663
-1.72846 2.26853 1.53379
-1.06617 2.79787 1.87351
-2.17555 1.786 1.26609
-1.65477 2.22893 1.71751
-2.8218 0.331851 1.53778
-1.55723 2.11938 2.04574
-1.80739 2.06447 1.67824
-1.08876 2.82799 1.85103
-2.71045 0.990869 1.27175
-1.44486 2.22278 2.10639
-1.39516 1.53586 2.50527
-1.5527 1.71645 2.38867
-2.23232 1.67269 1.3883
-1.78057 1.04995 2.33256
-2.55818 1.69028 0.518025
-1.29331 2.71113 1.41867
-2.35115 1.81597 0.835974
-2.54574 1.4368 1.02252
-2.45015 1.78926 0.632034
-1.69225 1.60628 2.24154
-2.95391 1.52554 0.209421
-2.08806 0.985873 2.06923
-2.34713 1.46337 1.40765
-2.35847 0.931225 1.83496
-1.22563 1.66825 2.77712
-1.9602 2.14089 1.1731
-2.3183 1.12619 1.73135
-2.61264 1.54428 0.820596
-1.32545 2.20536 2.34824
-2.99268 1.37459 0.349554
-1.66308 2.44162 1.12362
-1.39018 1.49693 2.57504
-1.17855 2.6169 2.12484
-1.27433 2.707 1.51616
-1.35231 2.52487 1.79658
-1.12132 2.53709 2.26999
-2.66379 0.964172 1.32796
-2.61729 1.43841 0.787444
-2.25458 0.712804 1.98353
-2.73112 1.41269 0.884208
-1.64483 1.78457 2.16887
-2.06684 1.39395 1.82627
-2.64364 1.08035 1.22695
-2.25194 1.38264 1.62507
-2.69069 0.808149 1.50266
-2.38072 1.61117 1.08132
-2.91418 0.199927 1.5687
-1.19299 1.55391 2.81852
-2.1177 1.04308 2.01545
-0.914493 2.66053 2.62158
-2.97846 1.02445 0.789564
-2.40433 1.47542 1.22996
-1.34066 2.67212 1.52601
-1.8398 1.30372 2.16732
-1.41956 1.71712 2.47459
-1.33013 1.83138 2.5753
-1.89586 1.41485 2.11175
-1.90672 0.912015 2.25181
-1.21567 2.12002 2.44811
-2.49632 1.63515 0.914073
-1.51713 2.5386 1.38975
-1.15952 2.00426 2.57956
-2.28233 2.01968 0.685748
-1.46053 2.53226 1.55084
-2.23271 1.57176 1.50613
-2.545 1.63585 0.852323
-2.90955 0.474439 1.401
-1.2555 1.89022 2.59098
-1.25366 2.55593 2.12835
-2.39877 1.8215 0.750771
-1.46008 2.43713 1.84295
-1.61068 1.56485 2.30699
-1.79647 2.23391 1.34928
-2.33771 1.47315 1.35639
-2.59089 0.622685 1.60725
-3.01505 1.06935 0.658934
-2.09773 1.58958 1.70155
-1.18324 1.42271 2.82261
-1.97735 1.74768 1.74775
-1.28477 2.56963 2.02677
-2.83884 1.58447 0.294151
-2.77985 1.1067 1.15207
-2.85621 0.821521 1.19162
-2.68284 1.31289 1.00797
-2.29925 1.66925 1.20488
-1.30539 1.72025 2.58635
-3.03598 0.746768 0.975418
-2.0284 2.13359 1.00209
-2.73969 1.45034 0.672607
-2.70606 1.2331 1.01997
-3.00407 0.36407 1.27282
-2.32089 1.24155 1.62148
-1.9889 1.11926 2.12802
-2.11195 2.09102 0.830561
-2.14224 1.59006 1.62287
-2.01483 1.85563 1.51686
-2.43942 1.53898 1.03554
