ply
format ascii 1.0
comment Created by Open3D
element vertex 250
property double x
property double y
property double z
end_header
-2.25658 -1.7581 0.118904
-2.20423 -2.04596 2.1569
0.277263 -2.85634 1.25422
-1.03938 -3.31854 0.672655
-2.6109 -2.19743 0.400707
-0.907182 -3.24332 -0.357022
0.946381 -2.721 -1.18676
-0.0181553 -2.94705 0.350688
-2.53159 -2.0674 -0.360754
-1.39787 -3.04016 0.727769
-1.87957 -2.85444 1.68405
-0.802156 -3.33633 0.109494
-2.09533 -2.91906 0.973681
-1.08357 -2.93337 -0.393054
-2.85929 -3.35074 0.185247
-2.47082 -2.3404 1.1093
-1.03176 -3.33154 -0.887514
0.791758 -3.12879 -0.38533
-0.636304 -3.29829 -1.12179
0.119587 -2.71861 1.48957
-2.34595 -2.91635 1.57094
1.19619 -2.44889 0.399728
-1.05919 -2.73357 0.377376
0.162448 -3.06084 -0.23006
-0.146282 -3.01386 1.03595
-2.20448 -2.76039 0.199936
-0.556226 -2.66804 -0.316345
-2.37763 -2.1206 1.85321
-0.00465655 -3.10736 0.729995
-1.31655 -3.0201 1.00304
-2.27915 -1.64449 0.0340539
-2.23002 -1.87171 2.16984
-2.69467 -1.90426 0.441975
-1.90207 -2.50898 2.01667
-2.27934 -2.1218 2.08142
0.711358 -2.99975 -1.37469
0.0525893 -3.0663 1.00995
-2.12662 -2.34766 2.05
-2.61316 -3.54456 -0.729039
0.214165 -2.91704 0.86674
0.116803 -2.94186 0.902629
-0.339127 -2.96265 -0.0877343
-2.14745 -2.86385 1.52439
-2.46096 -2.46881 1.18454
-0.611341 -3.16084 1.15193
-2.26945 -2.39047 1.76595
0.942535 -2.95159 0.801728
-2.40825 -2.46316 1.58069
-0.111931 -3.25218 -1.07011
-2.4665 -3.00687 0.247896
-1.56283 -2.41212 2.17796
-0.645938 -3.31176 0.779649
1.03766 -2.98854 0.575176
-3.18189 -2.53945 0.519226
-0.483713 -2.89783 0.844979
1.46413 -2.83432 0.58511
-0.386118 -3.12546 0.635362
-2.71154 -2.33831 -0.480523
-0.91757 -2.73119 1.67033
-0.872415 -3.31887 -0.317171
-0.191465 -2.75651 0.344454
0.346234 -3.10675 -0.246366
0.0298261 -2.76822 1.33198
-2.50908 -2.34883 0.605636
-2.8673 -2.28255 1.16287
-2.11667 -2.67628 1.85095
-1.72078 -3.28765 0.920206
1.09667 -2.86613 -0.306922
-2.19395 -2.19754 0.104344
-1.21251 -3.16572 -0.0977386
-1.38533 -2.84517 1.34056
0.509471 -2.65662 1.36134
-3.06353 -2.65484 -0.532491
-0.066144 -3.26222 0.230595
-0.054411 -3.34532 0.349559
0.456614 -3.20859 -1.51384
1.43507 -2.70607 0.827459
-1.8532 -2.55719 1.4236
-2.00514 -3.10307 0.944427
-0.708294 -3.02072 0.265374
-0.986879 -2.9012 -0.482737
-1.5841 -2.74718 1.86624
-2.63918 -2.89343 0.405985
-0.032888 -2.78853 -0.431369
-0.454842 -3.06931 0.293893
-2.53325 -2.1436 1.37939
0.538217 -2.897 -0.514441
-2.45455 -2.16707 -0.135506
1.10278 -2.11945 1.58692
-1.88158 -3.43682 0.446069
0.112365 -3.08555 0.995139
1.04991 -2.76019 0.0991175
-2.4728 -2.9779 0.168571
-1.38738 -2.54475 1.4073
-2.16049 -3.20032 1.29149
0.311192 -3.02181 0.669175
-2.23697 -2.66986 -0.46992
-2.65193 -2.14246 0.272041
-1.03443 -2.63524 1.93992
-1.55159 -3.08492 -0.834037
-2.32274 -3.22001 0.879447
-2.56663 -2.49487 0.697409
-2.12105 -2.52552 0.877635
-2.39146 -2.55284 -0.46195
-2.05677 -2.70661 1.74448
-1.13012 -2.82487 -0.168263
-1.04241 -3.13045 -0.405357
1.58541 -2.74258 0.683797
0.930785 -2.95872 -0.3678
-0.372806 -3.31963 -0.0594021
-0.248026 -3.07551 1.04777
-1.0332 -2.7351 1.81721
-0.172065 -3.25948 0.208035
-2.71435 -2.63829 -0.809888
1.72424 -2.48615 0.697572
-1.59598 -3.11733 1.03968
0.9998 -2.88958 0.188783
-3.03717 -2.50284 -0.063861
-2.44882 -2.78249 0.897417
-2.16948 -2.7341 1.67933
0.703365 -2.89746 -1.24635
-1.57005 -2.4999 2.07753
-0.380036 -2.86441 0.510691
-2.28536 -2.83678 1.39962
0.807137 -2.80365 -0.807196
1.21695 -2.97036 0.00458595
0.224438 -2.37039 1.92714
-0.688522 -3.16788 1.09367
-0.847618 -3.22605 -0.247614
0.9439 -2.85803 0.758018
0.314157 -2.95067 0.356917
0.923496 -3.18518 -0.45938
-1.65618 -2.58101 1.70555
1.37532 -2.7484 0.974848
0.0134629 -2.74291 1.47303
0.281984 -2.93062 0.592675
1.19591 -2.86368 0.377411
0.328917 -2.63294 0.804958
-1.99972 -2.40043 2.07307
0.615116 -3.07602 -0.999931
-2.14406 -2.33302 2.05718
-2.75894 -2.18545 1.28172
0.717925 -2.95365 0.893257
-2.14536 -2.9002 0.887036
-2.48973 -3.02511 0.35266
-2.10568 -2.2617 2.10906
-1.99735 -3.23386 -0.57748
0.630122 -2.58008 -0.103382
-1.69948 -2.37986 2.1766
-2.18951 -2.8639 0.00993491
1.2066 -2.77595 0.832176
-2.0486 -2.67432 -0.00920542
0.555408 -3.23092 0.337978
-2.44164 -2.12825 1.50471
-2.24845 -1.95731 0.0385359
-3.24403 -3.31811 0.463199
0.362242 -3.43927 -0.62088
-0.739818 -2.43185 -0.322007
-1.29519 -2.68383 0.0937174
0.64094 -3.29999 0.0115183
-1.87692 -3.06641 1.54934
-0.625884 -2.8635 1.45185
-2.47493 -2.68395 1.71308
-2.36064 -2.96869 0.83136
0.00459842 -3.05048 0.824447
1.04135 -2.70995 -0.495307
0.784872 -2.83609 -0.897372
-1.66477 -2.56018 1.86406
-2.09952 -2.34778 0.0759252
0.477579 -2.72421 1.17235
-2.23795 -3.13073 1.37833
-0.0508205 -3.34855 -1.07755
-0.239136 -3.07724 0.686268
-2.11275 -2.39718 2.03286
-2.43421 -2.01162 2.0091
-2.27183 -2.76084 1.51518
-2.6612 -2.84449 1.39596
-1.89932 -3.16653 0.664804
1.02698 -2.60975 1.25393
-1.69621 -3.42988 -0.177722
0.988275 -2.71215 0.99894
-0.8964 -2.84908 -0.908734
-2.50444 -2.61581 -0.149587
-1.15805 -2.93782 1.38805
-1.89176 -3.39131 0.971868
-1.94273 -1.9846 2.32218
0.051603 -2.89082 0.858708
-0.855923 -3.43398 -0.348446
-2.52668 -3.21927 0.875583
-1.89336 -3.49619 0.102695
-2.2751 -3.23722 1.19308
-1.8292 -2.40785 2.12285
-1.54295 -3.33958 0.229212
-3.16363 -2.88798 0.823602
-0.0718177 -3.43582 -0.11162
-2.37038 -2.43897 1.87763
1.53962 -2.61852 1.11307
-2.67493 -2.82948 1.39863
-1.22966 -3.31126 0.403806
-1.06034 -3.26895 0.845631
1.85244 -2.44212 1.5045
2.13719 -2.26864 1.7318
1.59962 -2.37636 1.68598
1.80739 -2.56387 1.63549
1.64338 -2.03924 1.91988
1.43505 -2.8487 0.987417
1.10229 -2.35063 1.8308
0.954477 -3.21784 0.675436
1.94531 -2.06625 2.09975
1.32823 -2.42639 1.61073
0.637562 -2.58131 1.62692
1.99339 -2.0645 1.95323
2.0156 -1.83077 2.36634
1.9748 -2.11421 2.07863
1.38662 -2.33845 1.87064
1.87458 -2.42445 1.67884
1.30345 -2.32218 1.80167
1.93088 -2.27667 1.73161
0.908684 -2.51958 1.61658
0.730668 -2.4204 1.71594
1.63245 -2.58253 1.5314
0.491937 -2.64369 1.50931
0.797243 -2.57446 1.59426
2.06733 -2.3299 1.7688
1.31814 -2.08822 2.13534
1.99444 -2.1097 2.0434
1.39852 -1.97418 2.20389
0.970311 -2.60533 1.39742
1.09603 -2.34251 1.87518
2.20767 -2.21533 1.91223
1.71718 -2.02905 2.15946
1.03288 -2.18982 1.90894
2.23919 -1.84029 2.31886
2.15161 -2.09656 1.98307
0.701604 -2.79097 1.24047
1.30688 -2.37031 1.77483
1.56803 -2.81082 1.04105
1.04513 -2.8854 1.27661
1.46533 -2.50199 1.35594
1.03508 -2.47838 1.60468
1.56622 -1.98229 2.20243
1.85427 -2.25879 1.71253
1.55072 -2.07262 2.10767
2.1157 -1.85447 2.35324
1.35489 -2.81625 1.0257
1.39146 -2.53427 1.50206
1.72422 -2.80942 1.12679
1.73577 -2.32399 1.88833
1.41488 -2.46765 1.60472
1.23975 -2.36559 1.65512
