ply
format ascii 1.0
comment Created by Open3D
element vertex 250
property double x
property double y
property double z
end_header
3.16253 -0.442804 -1.35518
3.96189 0.0103099 0.357109
2.07224 2.09397 -0.222248
2.70609 1.18133 -1.13216
3.39234 -0.550471 -1.27383
2.11885 1.06935 -1.96338
1.05315 2.33756 -2.31739
2.32008 1.92334 -1.2272
2.69814 -0.774977 -1.78838
3.2979 0.938383 -1.17094
3.81044 0.577147 -0.312561
2.2859 1.27023 -1.57477
3.75552 0.364957 -1.02584
2.35695 0.866481 -1.97789
3.11219 -0.477008 -1.75087
3.97748 -0.14201 -0.783366
1.69238 0.820088 -2.39254
1.21606 2.3933 -1.68693
1.34723 1.07606 -2.51346
2.50377 2.04459 -0.074908
3.71391 0.0980113 -0.415303
2.11089 2.87695 -0.966255
3.11176 1.09543 -1.37372
1.75481 1.93752 -1.67269
2.38922 1.84533 -0.582661
3.22684 0.00245455 -1.59367
2.35602 1.29568 -1.82141
4.26418 -0.0241545 -0.0594949
2.12119 1.92262 -0.836334
3.41444 1.05527 -0.924568
3.06135 -0.544552 -1.37568
4.21831 0.0147947 0.345445
3.3513 -0.757441 -1.13244
3.54868 0.330825 0.201968
3.84837 -0.0786971 0.292922
0.817626 2.11847 -2.51827
1.95296 1.90272 -0.493674
3.69563 0.100979 0.239603
2.26106 -0.473167 -2.46824
2.29255 2.13445 -0.693908
2.33239 2.06092 -0.677389
2.23722 1.57758 -1.64547
3.93565 0.35889 -0.512547
4.01154 -0.0722561 -0.756794
2.32458 1.41062 -0.491348
4.26199 0.182688 -0.226944
1.45669 2.56745 -0.518868
4.16515 0.0349878 -0.404969
1.17907 1.52145 -2.39759
3.23403 -0.166068 -1.6217
3.88164 0.75709 0.292525
2.31316 1.42744 -0.90542
1.39684 2.65414 -0.738562
3.31162 -1.02515 -1.23359
2.95065 1.67208 -0.907064
1.37234 3.01473 -0.675089
2.46117 1.67315 -1.03824
2.58574 -0.896506 -1.95563
3.61651 1.42223 -0.231262
2.07074 1.11423 -1.93175
2.63425 1.7956 -1.27047
1.58092 2.07414 -1.65066
2.68379 2.03947 -0.301286
3.59689 -0.317445 -1.17554
3.79582 -0.626769 -0.65804
3.58928 0.192853 -0.0260388
3.2749 0.698215 -1.04575
1.37322 2.65932 -1.57691
3.18794 -0.208824 -1.509
2.52515 0.885179 -1.80257
3.76843 1.05248 -0.640689
2.37634 2.36465 -0.146396
2.51153 -1.15917 -2.08019
1.86799 1.82488 -1.30627
1.71355 1.81032 -1.16594
0.669393 1.88606 -2.67558
1.59228 3.01947 -0.460208
4.17687 0.629016 -0.593734
3.59614 0.464236 -1.06247
2.64395 1.37974 -1.43161
2.25761 0.914692 -2.02817
3.57662 0.7469 -0.0281957
3.38408 -0.32525 -1.47458
1.95605 1.71599 -1.85271
2.45269 1.5806 -1.36034
4.09861 -0.232335 -0.490602
1.52415 2.16788 -1.8389
2.93408 -0.574232 -1.66367
3.00678 2.99234 0.0512499
3.00794 0.493995 -1.4846
1.79999 1.9132 -0.468432
1.69988 2.69392 -1.23699
3.17434 -0.205045 -1.67447
4.08998 1.05822 -0.580279
3.52027 0.31676 -0.721812
1.99541 2.16057 -0.833844
2.61792 -0.287855 -2.05399
3.26386 -0.659124 -1.34754
3.55897 1.2488 0.0843042
2.04953 0.341005 -2.37218
3.54505 0.170902 -1.14718
3.65697 -0.29903 -1.14551
3.83791 0.224556 -1.02867
2.63684 -0.478507 -2.01663
4.03145 0.426921 -0.274058
2.62482 0.878673 -1.80084
2.2207 0.930058 -2.00841
1.44123 3.12759 -0.569557
1.33527 2.51358 -1.65416
1.916 1.55708 -1.62785
2.31215 1.7379 -0.566221
3.43201 1.24003 -0.0302842
1.95471 1.74992 -1.35399
2.28879 -0.8982 -2.2859
1.79395 3.30191 -0.584627
3.45869 0.827979 -0.930315
1.59322 2.65219 -1.15414
2.9178 -1.03909 -1.68773
3.77436 -0.0319259 -1.06683
4.01192 0.31715 -0.341593
0.975402 2.13093 -2.40655
4.05099 0.844645 0.115066
2.75073 1.68974 -1.17145
3.9696 0.223512 -0.639385
1.28898 2.31571 -2.03324
1.2902 2.78742 -1.27176
3.07158 2.23038 0.296879
2.54323 1.41663 -0.617219
2.18355 1.14639 -1.86818
1.71413 2.62923 -0.611675
2.06837 2.16421 -1.14665
1.04448 2.48258 -1.72647
4.22588 0.852883 -0.333603
1.46316 2.92773 -0.286818
2.60831 1.98596 -0.130044
2.19183 2.17015 -0.941868
1.5274 2.8145 -0.938036
2.67144 2.28415 -0.784089
3.98951 0.35566 0.158815
1.03146 2.12916 -2.23042
3.83197 0.1284 0.210321
3.90853 -0.512663 -0.543861
1.61513 2.40201 -0.475422
3.71894 0.294503 -1.09588
3.31555 -0.152524 -1.54683
3.79314 0.126178 0.295197
2.35755 0.0636806 -2.25251
2.02029 2.32585 -1.48152
4.02659 0.661974 0.25741
3.03428 -0.0154072 -1.75699
1.63146 2.8312 -0.488162
3.03832 0.0571208 -1.72055
1.36865 2.25084 -1.03993
4.20226 -0.108179 -0.391732
3.10955 -0.380772 -1.47936
3.24704 -0.824076 -1.50354
1.0091 2.00194 -1.95349
2.52432 1.08706 -1.80674
2.97455 0.790526 -1.60138
1.18551 2.29432 -1.33221
3.19582 0.431375 -0.326646
3.10624 1.5746 -0.336521
3.42761 -0.222172 -0.117771
3.66991 0.0863916 -1.15738
2.21932 1.94708 -0.754237
1.45313 2.57589 -1.74245
1.21542 2.27828 -2.11109
4.22608 0.836692 -0.168915
3.1597 -0.0694297 -1.57396
2.36747 2.3544 -0.352971
3.58125 0.236132 -0.632391
1.06894 1.57749 -2.4009
2.42039 1.78733 -0.96067
3.75558 0.155199 0.189663
3.83331 -0.279731 0.258123
4.02997 0.231305 -0.519155
3.81295 -0.207219 -0.598428
3.36359 0.507724 -1.29144
1.98315 2.71995 -0.121979
2.50395 0.491032 -1.95533
1.92197 2.69644 -0.389313
1.86872 0.842611 -2.32206
2.92912 -0.460541 -1.81069
3.4798 1.20753 -0.534496
3.20605 0.540066 -1.00452
3.92176 0.234388 0.5528
2.5078 2.04157 -0.75857
1.93864 1.12446 -1.95793
3.56412 -0.0262819 -1.15653
2.75061 0.409248 -1.76867
3.53936 0.222788 -0.836996
3.81045 0.462905 0.260017
2.79644 0.718828 -1.60897
3.49068 -0.812414 -1.08727
1.51084 1.75155 -1.5935
3.44107 -0.202961 0.116129
1.55569 3.07826 -0.137408
3.81368 -0.226222 -0.591474
2.75408 1.00606 -1.4132
2.82332 1.18531 -0.979442
1.35282 3.25128 0.367637
1.36027 3.47483 0.644681
1.42662 3.00142 0.546713
0.650756 2.99232 0.672475
2.3655 3.267 0.600342
1.11317 2.89542 -0.199451
1.55137 2.54059 0.661865
0.76128 2.4212 -0.516597
1.35058 3.20478 1.07616
1.70552 2.85128 0.372923
1.66578 2.20307 0.354614
1.78137 3.41101 0.801117
1.52823 3.25374 1.36008
1.17505 3.18724 1.09326
1.00895 2.62049 0.86785
1.04521 3.15351 0.639426
1.66701 2.7739 0.606617
1.46631 3.31057 0.610318
1.75738 2.4852 0.33532
2.40966 2.51106 0.268994
0.899612 2.91599 0.488251
2.16306 2.26373 0.0693408
1.6216 2.34394 0.337242
1.10934 3.33506 0.738502
1.33077 2.57841 1.1111
1.30889 3.25455 1.01929
2.14333 2.91626 0.970393
1.86055 2.61647 0.0595671
1.1334 2.37727 0.833897
1.15283 3.44919 0.903225
1.43647 2.99459 1.12129
2.61337 2.80337 0.470039
1.56922 3.49596 1.29747
1.45621 3.46118 0.918756
1.73413 2.36959 -0.115124
1.42938 2.70748 0.636551
1.05932 2.99459 -0.118332
0.592362 2.32706 0.234773
1.72477 3.02334 0.0897199
1.8678 2.63711 0.302688
1.71812 2.93022 1.09389
1.63861 3.29088 0.544975
1.56449 2.89138 1.0181
1.41097 3.31937 1.37501
1.2338 2.84776 -0.187578
1.39482 2.83975 0.325016
0.850826 3.07342 0.0302807
0.902834 2.92519 0.921662
1.39913 2.8402 0.446336
2.01739 2.85534 0.342099
