ply
format ascii 1.0
comment Created by Open3D
element vertex 250
property double x
property double y
property double z
end_header
0.225155 -0.614524 -2.86941
-2.10893 -0.12219 -2.87017
-2.38522 -2.06813 -0.805487
-1.98175 -2.23084 -2.16964
-0.530949 -0.783208 -3.29482
-0.980728 -2.60451 -2.0263
0.471461 -3.07877 -0.251876
-1.09198 -2.3563 -1.193
0.0178586 -1.00458 -3.13803
-1.36495 -1.81008 -2.48659
-2.23756 -1.12386 -2.83817
-1.51571 -2.54632 -1.95492
-1.45272 -1.36639 -3.08363
-0.472067 -2.26815 -2.13135
-1.73949 -1.83307 -3.78063
-1.02771 -0.667961 -3.26101
-0.796656 -2.85881 -2.12282
-0.960817 -3.10444 -0.44894
-0.598562 -3.05799 -1.74971
-2.22712 -1.78399 -0.952693
-2.4418 -1.07937 -3.22932
-0.339878 -2.28706 -0.0231606
-0.605931 -1.77648 -2.1236
-0.862862 -2.75597 -1.0267
-2.10895 -2.13169 -1.26927
-0.779776 -1.49626 -3.1034
-0.0870354 -2.16875 -1.62107
-1.53482 -0.220679 -3.11153
-1.97097 -2.38487 -1.15797
-1.58122 -1.71343 -2.41143
0.345549 -0.542137 -2.84652
-1.71632 0.0638013 -2.88789
-0.380705 -0.482611 -3.27297
-2.63556 -0.708515 -2.68816
-2.22205 -0.200662 -2.93876
0.127126 -3.33653 -0.494644
-2.46431 -2.27938 -1.04637
-2.48048 -0.472122 -2.85102
-1.37194 -2.46087 -3.56087
-1.71135 -2.22349 -0.945605
-1.79014 -2.20001 -1.03592
-0.715762 -2.42872 -1.48296
-2.01855 -1.09585 -3.09562
-1.22075 -0.757498 -3.28734
-2.68605 -2.08155 -1.66837
-1.6294 -0.527032 -3.10344
-2.15178 -2.56145 -0.217751
-1.59716 -0.620028 -3.23565
-0.558071 -3.17409 -1.27416
-1.19722 -1.61781 -3.38187
-2.2889 -0.649133 -2.42895
-2.33686 -2.33695 -1.76765
-1.88604 -2.70762 -0.158904
-1.36487 -0.874864 -3.83053
-1.32528 -1.95112 -1.62889
-1.5837 -2.70113 0.237075
-1.69102 -2.29188 -1.54287
-0.268894 -1.24044 -3.3494
-1.86036 -1.33247 -1.9847
-1.14226 -2.67239 -2.0065
-0.665401 -2.11236 -1.33879
-0.973981 -2.87205 -0.859649
-1.91694 -1.84336 -1.08478
-0.719876 -0.865309 -3.27098
-1.40195 -0.485459 -3.53316
-2.62155 -0.846471 -2.93056
-2.04321 -1.86497 -2.79744
-0.524288 -2.92656 -0.148997
-0.130077 -1.03127 -2.94325
-1.00552 -2.32136 -2.30416
-1.56709 -1.39328 -2.45341
-1.93821 -1.90395 -0.605482
-0.734448 -1.43703 -3.7148
-1.69694 -2.6961 -1.24875
-2.09188 -2.743 -1.22437
-0.140422 -3.50255 -0.745707
-1.59561 -2.47755 0.230305
-1.20935 -0.932228 -2.82262
-1.70775 -1.58047 -3.03433
-1.0327 -2.2143 -1.84192
-0.369363 -2.30765 -2.03376
-2.48739 -1.07226 -2.51054
-1.23795 -1.39671 -3.50513
-0.203412 -2.5077 -1.16521
-1.19546 -2.34007 -1.61169
-1.12383 -0.369439 -3.25671
-0.363107 -2.84182 -0.658649
-0.129308 -1.02335 -3.12419
-0.846481 -1.48708 -0.0655431
-1.8569 -2.13209 -2.96335
-2.58617 -2.33081 -0.977081
-0.6908 -2.65299 -0.181001
-1.11906 -1.62165 -3.37548
-1.05231 -1.07848 -2.42425
-2.43409 -1.50266 -3.1447
-1.78515 -2.43684 -0.859435
-0.364071 -1.68024 -3.05592
-0.441288 -0.774758 -3.30194
-2.25421 -1.11947 -2.02098
-0.511356 -2.43235 -2.53931
-1.92228 -1.61197 -3.32256
-0.957779 -0.942002 -3.36042
-0.864306 -1.03377 -3.0205
-0.311344 -1.52296 -3.15317
-2.03972 -0.899918 -2.97665
-0.439183 -2.05971 -2.16773
-0.762749 -2.4711 -2.12833
-1.51104 -2.61775 0.357597
-0.640325 -2.98144 -0.308437
-1.43487 -2.74974 -1.5486
-2.30687 -2.15613 -1.3547
-2.30362 -1.2608 -2.03534
-1.62441 -2.66254 -1.35185
-0.392212 -1.64354 -3.40929
-0.871324 -2.4029 0.480039
-1.80847 -1.69727 -2.6711
-1.07027 -2.72905 -0.230705
-0.833042 -1.11783 -3.68307
-1.3513 -1.15875 -3.34561
-2.04443 -0.913364 -3.07849
0.198294 -3.18687 -0.490099
-2.06996 -0.749266 -2.49709
-0.973586 -2.08402 -1.52857
-1.84488 -1.06978 -3.21779
0.0276318 -2.96059 -0.39709
-1.09173 -2.95424 -0.0375526
-1.89676 -1.31355 -0.834505
-2.43028 -2.06938 -1.77686
-1.0274 -2.56507 -1.97485
-1.74516 -2.47602 -0.240216
-1.20392 -2.47834 -0.877331
-1.02195 -3.23367 -0.332684
-1.49271 -0.913337 -2.65228
-1.99766 -2.4539 0.205274
-2.17199 -1.7713 -1.06592
-1.40843 -2.35953 -0.899649
-1.28742 -2.70569 -0.0354422
-0.923446 -2.00098 -0.846433
-2.21859 -0.531308 -2.81119
-0.30622 -3.22927 -0.599491
-2.34988 -0.441865 -2.88466
-1.31504 -0.383221 -3.42772
-2.22654 -2.4503 -0.422062
-1.37087 -1.3666 -3.12045
-1.29233 -1.58476 -3.41116
-2.37431 -0.374438 -2.8226
-0.912536 -2.31577 -2.97657
-0.102318 -2.40946 -0.549239
-2.17376 -0.568167 -2.55758
-0.796623 -1.67311 -3.10175
-1.73362 -2.46435 0.0179102
-0.518068 -1.55378 -2.93731
-2.03179 -2.85868 -0.63474
-1.14212 -0.333559 -3.18504
0.0952535 -0.827247 -2.91447
-2.13687 -1.57707 -4.08637
-1.32773 -3.34448 -0.868567
0.235125 -1.89029 -1.73718
-0.399065 -1.76648 -2.30343
-1.78262 -3.07386 -0.579382
-2.85872 -1.40308 -2.79715
-2.05464 -1.65309 -1.71109
-2.75405 -0.800275 -3.2092
-1.50361 -1.38334 -3.31136
-1.9475 -2.29716 -1.14408
-0.0532862 -2.82982 -0.182063
0.0403702 -3.01918 -0.418939
-1.69874 -0.836529 -2.64007
-0.222414 -1.2073 -2.90429
-1.76156 -2.02123 -0.664614
-2.46273 -1.38158 -3.19243
-0.722772 -3.28958 -1.23163
-1.69017 -2.27964 -1.39797
-2.4395 -0.522798 -2.86513
-2.0968 -0.079758 -3.03911
-1.86773 -0.961481 -3.18677
-2.16884 -0.970826 -3.50017
-1.55851 -1.78392 -2.94814
-1.89798 -2.088 -0.10947
-1.38714 -2.43601 -2.77482
-1.71706 -2.26095 -0.180108
-0.0624309 -2.46445 -1.91383
-0.574311 -1.41508 -3.28725
-1.90695 -1.55026 -2.23782
-2.36082 -1.89087 -2.94896
-2.2043 -0.093958 -2.6183
-1.53507 -2.13743 -1.11
-1.33325 -2.80052 -2.00375
-1.98823 -1.54753 -3.4929
-1.69088 -2.31902 -2.97339
-2.3641 -1.53298 -3.26031
-2.39602 -0.585971 -2.63795
-1.51467 -2.24107 -2.64133
-1.9481 -1.07437 -3.91559
-1.73946 -2.9936 -1.26719
-2.68646 -0.555036 -3.04534
-1.90092 -2.33439 0.370595
-2.16336 -0.952089 -3.50723
-1.63447 -2.25556 -2.35488
-2.07037 -2.11145 -2.17905
-2.3391 -2.15099 0.74373
-2.35506 -2.00469 1.04205
-2.56994 -1.94446 0.557366
-3.35286 -2.24737 0.808428
-1.62628 -1.51112 0.539856
-2.43096 -2.58161 0.289482
-2.8471 -1.70664 0.147968
-2.91307 -2.8947 -0.168951
-2.76963 -1.6352 0.973348
-2.35944 -1.91188 0.266255
-2.8801 -1.83145 -0.332541
-2.11671 -1.67097 0.924879
-2.70836 -1.341 1.08651
-2.94635 -1.70659 1.01348
-3.29833 -1.80729 0.482655
-2.85966 -2.10178 0.835679
-2.575 -1.74655 0.297464
-2.35018 -1.94022 0.852424
-2.59443 -1.85849 -0.110933
-2.07469 -1.63526 -0.335728
-3.05787 -2.22899 0.607554
-2.3512 -1.84946 -0.566125
-2.79988 -1.88971 -0.195075
-2.74485 -2.04163 1.01553
-3.13996 -1.4474 0.460789
-2.75199 -1.71203 1.00423
-2.28958 -1.29175 0.420624
-2.24117 -2.02435 -0.120764
-3.31565 -1.70998 0.22232
-2.72931 -1.92982 1.16615
-2.83434 -1.50377 0.786845
-1.78584 -1.44206 -0.0450491
-2.511 -1.43339 1.25558
-2.43939 -1.76066 1.10532
-2.44585 -2.16996 -0.382308
-2.81657 -1.81612 0.326647
-2.46312 -2.57416 0.422644
-3.55931 -2.42627 0.0768565
-1.99518 -2.11038 0.332624
-2.37256 -1.85788 -0.0167537
-2.63919 -1.38064 0.63023
-2.1705 -1.8953 0.762681
-2.75226 -1.5002 0.611865
-2.78388 -1.40605 1.18146
-2.37011 -2.50593 0.214802
-2.58959 -2.08725 0.333948
-2.71782 -2.60585 0.594822
-3.25796 -1.9046 0.792414
-2.65416 -1.99869 0.379268
-2.09501 -1.7932 0.159387
