ply
format ascii 1.0
comment Created by Open3D
element vertex 400
property double x
property double y
property double z
end_header
0.394444 2.91977 1.16315
0.0959028 2.2728 2.27034
-0.313062 2.42576 2.07916
-0.387696 2.8805 1.1932
-0.216675 2.2684 2.32549
1.53033 2.77179 0.801962
-0.144328 2.30988 2.27939
0.999488 2.49148 1.74118
0.861948 2.14542 1.91049
0.748933 2.76381 1.0849
1.58088 2.72984 1.24113
0.202485 2.74665 1.18516
-0.299256 1.78842 2.65956
-0.102504 2.69946 1.80513
-0.253869 2.24755 2.32998
-0.43591 2.32448 2.26565
-0.147954 3.05786 1.31537
0.341026 2.91949 0.59001
0.127869 2.44209 2.25287
0.381251 2.00256 2.6127
0.377394 2.89075 1.08363
1.75189 2.59209 1.60849
0.0869516 2.71838 1.95432
1.40488 2.5676 1.78778
0.785221 2.46578 1.57354
-0.0686779 2.43175 1.19058
0.246864 2.11755 2.38899
-0.0213964 2.19659 1.96374
1.63849 2.24835 1.79312
0.829139 2.37935 1.99761
0.369168 2.72796 1.45452
-0.99464 2.64596 1.21796
1.08557 2.30972 1.60721
-0.00984431 2.8938 1.35294
0.404546 3.03664 0.513631
1.37678 3.01829 1.20204
0.782846 1.96314 2.00753
0.679097 2.43724 2.23159
1.233 2.40472 1.31599
1.42366 2.71762 0.612804
1.54966 2.64008 1.67625
-0.277413 2.35191 2.01011
-0.195137 2.31898 2.2093
0.288904 2.90147 1.11651
1.14097 3.15619 0.366847
1.23464 2.71979 1.25405
0.302064 2.59692 1.72024
-0.29696 2.51595 2.15313
0.533336 2.69553 1.00766
1.80731 2.62594 1.28103
0.676465 2.05493 2.13214
0.343628 2.664 1.66346
0.583369 2.73706 1.59212
0.120539 2.81047 1.144
-0.480766 2.77355 1.78278
-0.676472 2.5035 1.69224
-0.480054 2.76019 1.52918
1.97809 3.05921 0.924733
0.202756 2.68841 0.79534
1.09014 2.94 1.18204
1.02174 3.09958 0.656399
-0.8012 2.67805 1.21884
0.658166 2.76223 1.32441
0.243656 2.86057 1.30909
1.16781 2.9269 1.04087
-0.438122 2.69311 1.47877
1.50044 2.60982 1.53379
0.57112 2.82326 0.374618
1.28275 2.42542 1.60273
0.922336 3.22581 0.838805
0.38373 2.68884 1.63584
1.87361 2.93248 0.974649
0.310165 2.05485 2.07922
0.939645 2.19355 2.37446
1.40996 3.01015 0.894394
-0.573163 2.53286 1.51935
2.11838 2.69546 1.16585
1.90298 2.47839 1.29601
0.844639 2.39028 1.74618
0.946883 2.23759 2.14097
1.46339 2.88854 0.956819
0.744498 2.51126 1.97961
0.233884 2.88851 0.966699
1.4537 2.8708 1.49192
1.99841 2.94048 0.743966
1.2188 2.63457 1.5929
-0.334935 2.15654 2.39044
0.438402 2.20613 2.45186
2.15328 2.35363 1.27025
-0.219033 2.49146 1.87092
1.10043 2.83199 1.50828
-0.0819962 1.81267 2.5326
0.590544 1.86778 2.10692
0.975749 3.07159 0.835072
-0.0297593 2.317 2.3886
1.1133 2.07075 2.13004
0.619588 3.04465 0.882304
-1.13604 2.71675 1.28253
1.29168 3.11664 1.09182
0.899085 2.73482 0.777206
1.77395 3.06764 0.951821
0.842349 2.63827 1.61629
1.01695 3.21767 0.902265
1.89335 2.74249 1.19649
1.09448 3.05265 0.454095
0.753244 3.354 0.795851
0.952612 2.7321 1.71062
1.1185 2.13466 1.96721
0.770622 3.13773 0.286055
0.657874 1.99356 2.03222
0.721776 2.23716 1.86984
1.30345 3.18171 0.460002
1.29893 2.73579 1.00799
-0.0211016 2.3651 1.70118
0.173424 2.91171 0.593788
1.36744 3.22501 0.242947
0.757371 2.20986 2.27925
1.41519 2.88798 0.883676
1.07825 2.59542 1.4793
0.158571 2.51179 1.677
0.210507 2.07323 2.24691
-1.02707 2.7229 1.34328
0.616484 2.92443 0.98369
0.653084 2.99453 0.83777
0.444791 2.6354 1.08385
1.17321 2.62932 1.46883
0.827925 2.11048 1.87791
1.7869 2.79408 0.861494
-0.673602 2.78769 1.3149
0.911614 2.77124 0.888843
1.35645 2.64665 1.68955
0.103209 1.95063 1.98682
1.00608 3.27558 0.92753
1.21773 3.32288 0.243776
1.17458 2.38551 1.69065
0.607582 2.98259 0.64058
2.04312 2.35904 1.25246
1.7786 2.72308 1.01259
-0.0378841 3.01761 1.17589
1.26613 3.23618 0.509349
1.6474 2.98587 0.516418
1.54641 2.22331 1.51163
0.278885 2.98858 0.687138
1.56806 2.6245 0.905293
1.11175 3.05665 0.175424
0.348892 2.03764 2.49112
-0.379071 2.60647 1.90292
-0.053891 1.83926 2.57425
-0.736815 2.76941 1.11662
1.3854 2.86213 1.05124
1.14845 3.15673 0.984042
0.00658041 2.74808 1.14783
0.45111 3.05481 1.02576
1.73103 2.36954 1.65968
1.10243 2.01662 1.94825
-0.760894 2.78528 1.41702
-0.120059 2.47744 1.9934
1.57338 3.0026 0.356206
1.73295 2.36208 1.56548
0.424177 2.52528 1.86357
-0.0676716 2.79257 1.41476
1.96023 2.34059 1.79641
1.32721 2.66931 1.45063
0.107862 2.44865 1.40279
0.319489 2.89741 0.717205
-0.311868 2.12133 2.49707
-0.392195 2.2986 1.54016
2.22164 2.75682 1.22011
0.402325 3.20014 0.777764
-0.93116 2.76365 1.64123
-0.200345 2.53979 1.85873
0.833663 3.06748 0.893597
-0.595148 2.30556 1.7097
1.52828 2.16512 1.55576
-0.596048 2.47352 1.82892
-0.693823 2.28452 1.92461
1.87493 3.29578 0.78052
1.43645 2.78688 0.939605
1.62571 2.35038 1.26893
1.48115 2.57092 1.30096
-0.0780208 2.23575 2.56868
-0.250864 2.535 1.83618
0.048668 2.48966 2.21669
-0.254277 2.68396 1.93985
0.573692 3.13611 0.573816
1.44836 2.66243 1.50261
0.0656221 2.46973 1.93188
1.50284 3.33978 0.556139
0.260281 3.1666 0.924316
0.103498 2.01844 2.34394
-0.768011 2.58357 1.6678
-0.115171 2.14238 2.30763
1.93846 2.56938 1.10022
1.69378 2.90308 1.21605
0.222068 2.92663 1.47312
-1.11972 2.67763 1.15716
0.641538 1.89789 1.7678
-0.234761 2.30509 2.18425
0.429518 2.14147 2.32805
1.03483 3.14116 0.112278
1.03853 2.80115 1.68096
1.57666 2.84886 0.654054
1.05773 2.94648 0.946787
0.140251 1.91683 2.42648
1.02777 3.07637 0.365236
1.96959 2.66874 1.7134
0.0720911 2.98536 1.5028
-1.07275 2.57835 1.3421
0.0434538 2.95623 0.6289
0.281379 2.58716 1.83644
1.79352 2.8001 0.636935
0.145464 2.51175 1.58782
-0.877916 2.87027 1.71205
-0.229374 2.25929 1.95558
1.7957 2.65466 1.58666
0.0831522 3.01136 0.84008
0.217082 2.5558 1.63276
1.26889 2.607 1.73125
1.44706 2.86337 0.907381
-0.531194 2.26268 2.17592
1.20779 2.34248 1.93447
2.05618 2.6136 1.15222
-0.214491 2.7991 1.32921
0.14622 2.18287 2.31449
0.0858832 2.75293 0.578524
-0.135734 3.00486 0.841193
0.967845 2.26341 1.94197
-0.476779 2.70029 1.0157
0.861409 3.05212 0.919142
0.0389491 3.01154 1.08515
1.81413 2.51391 1.3318
-0.628436 2.72721 0.954142
0.779048 2.13674 1.9953
-0.346441 2.19771 2.31919
2.11646 3.06126 0.901091
0.488548 2.88476 1.54295
1.80703 2.67211 1.56714
0.753978 3.15167 0.879484
0.0655679 2.85716 1.04076
0.791782 3.00595 0.124184
-0.899244 2.73614 1.10266
0.607543 3.13692 0.661228
0.246596 2.80166 1.39951
0.525006 3.06647 0.693971
0.643111 2.25969 1.78595
0.250158 3.09093 0.713361
1.1615 2.89805 1.06484
-0.442922 2.5823 1.1163
0.687493 2.49035 1.21489
1.59582 2.43812 1.18895
-0.701798 2.56539 1.56504
-0.284277 2.95984 0.972068
1.16039 2.75483 1.36437
0.0234111 2.99279 0.894566
-0.64226 2.90936 1.17523
1.0745 2.95032 1.38799
0.793167 2.68206 1.50824
-0.372858 2.82296 1.35694
-0.0931138 2.24802 2.54873
0.688889 2.94551 1.05666
0.064927 2.77369 1.71016
1.26654 2.47612 1.41885
0.247794 1.96759 2.18478
1.01982 2.83281 0.950156
0.326628 2.20816 1.87685
0.825577 3.20996 0.371191
-0.186157 2.73462 1.88429
1.40167 3.27659 0.589936
1.63723 2.76705 1.84887
0.307993 2.84032 0.671897
1.1497 2.70009 1.27906
1.07293 3.20206 0.520338
-0.509375 2.98914 1.22101
1.11405 3.11093 -0.036758
-0.16526 2.42897 1.75737
0.00292401 2.87103 1.78366
1.88076 3.09367 0.564044
0.615394 2.85545 1.03946
1.35874 2.66329 1.13247
0.954298 3.0383 0.881226
1.23073 2.35821 1.48523
2.02801 2.34571 1.48925
0.0870899 2.20047 2.04263
1.95708 2.90391 0.777079
0.0615765 2.77186 1.24046
0.827804 2.72868 1.29306
0.183615 3.1457 1.18704
1.07577 2.90617 0.895045
0.961234 3.00845 1.13171
-0.00509251 1.94631 2.52464
0.784738 2.58849 1.65997
0.846439 2.54325 1.94938
-0.0804604 2.54786 1.54284
-0.434327 2.3469 1.89608
0.454291 2.45715 2.32005
2.12443 2.82994 1.22661
0.892115 2.04043 2.21389
-0.478056 2.76574 1.02993
0.0934214 2.74745 1.06864
1.46243 3.03028 0.523073
-0.0154171 2.03049 2.26982
-0.081517 2.30858 1.95278
1.701 3.18085 0.762009
0.725316 3.077 1.03182
1.46311 3.20828 0.33504
0.295146 2.75695 1.13947
0.972681 2.97375 0.888217
-0.0187901 1.88842 2.49266
1.29252 2.87261 1.01444
0.803619 2.93909 1.17874
1.39019 3.28884 0.484649
-0.140662 2.40328 2.11181
1.42896 2.90021 0.86803
1.78107 2.26006 1.07742
1.4685 2.63662 1.58896
0.249884 2.8111 1.65448
1.30786 2.07465 1.71797
-0.508012 2.71632 0.944934
0.964863 3.16493 0.25607
-0.175589 2.82753 1.10254
-0.152231 2.61155 1.46511
-0.387164 2.80846 1.02961
1.31365 2.53417 1.47577
-1.09437 2.82933 1.4975
0.857977 2.19713 2.04742
0.198367 2.67266 1.78163
0.429085 2.3371 2.4415
1.91782 2.52755 1.7082
0.316893 2.99709 0.963067
0.438897 2.41865 2.09441
-0.412839 2.77771 1.59857
1.64621 2.90738 1.07141
-0.993058 2.7172 1.59128
0.51063 3.05461 0.42979
1.77232 2.29965 1.35048
1.55799 3.18375 0.756794
1.05552 3.16763 0.298381
1.25699 3.06447 0.489977
1.75267 3.05442 0.64493
-0.0364873 2.32862 1.99474
-0.28971 2.51556 1.06034
0.683518 2.01282 2.18394
-0.501983 2.79888 2.00163
1.34744 2.606 1.1597
0.823839 2.39638 1.35568
-0.0550452 2.36234 1.73336
0.436215 2.5715 1.80708
-0.027148 2.33795 2.53239
0.0311903 2.6613 1.20465
-0.107771 1.8764 2.80965
1.97219 2.40024 1.69655
0.795666 2.26287 2.04691
2.03867 3.24345 1.07571
-0.626622 2.44064 1.8567
0.108433 2.59694 1.42479
0.993177 3.20496 0.478562
1.20513 2.26591 1.44533
1.70243 2.48929 1.21677
1.77638 2.63029 1.39754
1.02479 2.50182 1.81526
1.15072 2.0131 1.85263
1.87231 2.69582 0.750223
-0.269213 2.81844 1.54367
0.778088 3.15027 0.571227
1.98692 2.5969 0.863879
-0.325012 3.03044 1.16862
0.960968 3.12214 0.553425
0.329454 2.74843 1.78471
-0.372912 2.86109 1.63821
-0.200659 2.0761 2.55887
1.88028 2.60093 1.17099
1.47545 3.20883 0.975492
-0.29967 2.87194 1.18766
1.15221 3.12787 0.898252
1.48275 2.38908 1.20343
0.60048 2.98271 0.760089
0.243382 2.58616 1.46235
0.240811 1.98912 2.07441
-0.732691 2.46098 1.73626
0.585259 2.70587 1.71351
1.99608 2.24925 1.63873
0.714296 2.78113 1.55107
1.38585 3.21055 0.903463
-0.948742 2.82736 1.40466
-0.340089 2.59886 2.3147
-0.281774 2.29492 2.17427
-0.323643 2.64451 1.86358
0.135178 2.73895 1.35293
1.85267 2.45393 1.19956
-0.528272 2.25046 2.09794
0.137464 2.99822 0.923634
-0.575382 2.69833 1.52121
-0.2961 2.54917 1.78728
-0.284207 1.92109 2.31194
0.399733 2.46329 1.8504
0.973302 2.27397 1.95354
-0.0281339 2.94972 0.81982
0.503966 2.70896 1.67792
0.57386 2.79863 1.20477
-0.0101316 2.58465 1.13071
