ply
format ascii 1.0
comment Created by Open3D
element vertex 400
property double x
property double y
property double z
end_header
2.09594 2.32824 0.503126
2.70822 1.65458 -0.433045
2.84443 1.48707 -0.072612
2.48473 1.75291 0.83065
2.89584 1.43816 -0.349778
1.14528 3.10218 -0.194155
2.85165 1.51322 -0.310241
1.98746 2.45396 -0.425347
1.97395 2.15298 -0.818199
1.74814 2.52127 0.0862221
1.45334 3.04638 -0.295859
2.08855 2.11586 0.308339
2.89759 1.09097 -0.993231
2.70563 1.7964 0.289108
2.90319 1.40278 -0.368114
2.98599 1.33013 -0.20006
2.58755 1.98048 0.990681
1.67073 2.35602 0.663949
2.78871 1.76267 -0.211047
2.68772 1.64373 -0.864208
2.02058 2.31424 0.476799
1.59268 3.02188 -0.512102
2.74747 1.91319 0.224295
1.88569 2.75214 -0.448589
1.93315 2.3268 -0.387734
2.01031 1.78659 -0.06826
2.63667 1.65485 -0.68368
2.46223 1.58807 -0.485539
1.58803 2.72697 -0.874594
2.2089 2.23866 -0.513448
2.21074 2.18598 0.167468
2.63715 1.23042 0.700411
1.72066 2.44025 -0.686886
2.43156 2.00663 0.629623
1.66637 2.45147 0.877884
1.7083 3.05465 0.189768
1.97793 1.98661 -1.01448
2.50984 2.1289 -0.391135
1.46985 2.63809 -0.616011
1.00699 3.03199 -0.213587
1.77148 2.90464 -0.401218
2.72271 1.48572 -0.184311
2.82426 1.49473 -0.276079
2.09891 2.25151 0.53504
1.26476 3.04172 0.735125
1.62089 2.80814 -0.193344
2.37179 2.03863 -0.0225315
2.95652 1.53008 0.0446452
1.74551 2.35118 0.0882002
1.31638 3.13302 -0.489246
2.18735 1.94487 -0.873992
2.35011 2.10738 0.0636355
2.22421 2.31741 0.0767153
2.14122 2.09045 0.462193
2.92163 1.57338 0.563826
2.75876 1.33124 0.23127
2.71062 1.59927 0.592502
1.22447 3.51944 0.0616931
1.73579 2.14254 0.275801
1.77905 2.82387 0.195733
1.50622 2.90974 0.593183
2.5658 1.37759 0.669846
1.98623 2.42182 0.102174
2.24677 2.17713 0.456517
1.61777 2.89227 0.156436
2.60339 1.60565 0.47408
1.65662 2.88182 -0.428583
1.31444 2.50842 0.415136
1.69852 2.63072 -0.59763
1.79119 2.86767 0.828616
2.32474 2.15076 0.0860078
1.23011 3.38216 -0.0927612
2.31172 1.71594 -0.77768
2.35576 2.14508 -0.761775
1.4383 3.11732 0.201334
2.59095 1.4372 0.266487
1.1251 3.38666 -0.464836
1.1948 3.11128 -0.683028
1.99966 2.29861 -0.507964
2.1849 2.21548 -0.719007
1.38041 3.08964 -0.0149421
2.31789 2.25307 -0.31407
1.99854 2.22531 0.571871
1.81099 2.9907 -0.0695457
0.991617 3.50007 -0.0869727
1.8529 2.69834 -0.309646
2.93067 1.29566 -0.475829
2.65677 1.81457 -0.621542
0.989515 3.1994 -0.849675
2.67485 1.61156 0.01288
1.96801 2.73014 0.00742798
2.71157 1.26137 -0.998422
2.08913 1.79388 -1.08027
1.64961 2.84605 0.522752
2.89203 1.57539 -0.342791
1.9974 2.23377 -0.954533
1.8481 2.57448 0.65676
2.80615 1.15611 0.861336
1.72812 3.0555 0.394577
1.40563 2.65696 0.00807913
1.34803 3.38371 0.137862
2.05354 2.44323 -0.170984
1.78666 2.92602 0.743878
1.28064 3.26386 -0.363057
1.27808 2.96372 0.529166
1.94062 2.79468 1.18926
2.13991 2.54811 -0.0833634
1.89779 2.30219 -0.890607
1.38114 2.77024 0.953995
2.07431 1.91803 -0.947119
2.06249 2.11685 -0.665748
1.27216 3.16051 0.659104
1.39914 2.8983 -0.181122
2.35775 1.71157 -0.232848
1.75423 2.23071 0.746543
1.1092 3.23516 0.807246
2.36963 2.05331 -0.700622
1.34405 3.06713 0.0112756
1.80004 2.60415 -0.314095
2.34906 1.90714 -0.087123
2.50803 1.632 -0.728167
2.80498 1.22722 0.809426
1.84427 2.51128 0.427617
1.75987 2.58386 0.559376
1.80972 2.25155 0.0259057
1.76831 2.68647 -0.301018
1.94056 2.11821 -0.853292
1.08825 3.27391 -0.248431
2.65595 1.50119 0.774865
1.51445 2.66621 0.0456233
1.87632 2.77897 -0.336703
2.26482 1.54249 -0.852943
1.85401 2.93793 0.84839
1.26292 3.15699 1.10151
1.79672 2.52332 -0.614547
1.61965 2.56807 0.613241
1.02513 3.1389 -0.835234
1.16961 3.20953 -0.352406
2.39374 2.05817 0.89743
1.36921 3.14964 0.764883
1.0062 3.31609 0.139731
1.37776 2.70741 -0.902776
1.82914 2.32684 0.80142
1.11556 3.03926 -0.419662
1.06022 2.9988 0.636979
2.62391 1.66201 -0.81192
2.85471 1.55186 0.242626
2.74982 1.28652 -0.97291
2.51915 1.47055 0.826361
1.47687 3.01028 -0.0331162
1.74131 2.98575 0.54931
2.1575 1.98303 0.414064
2.05425 2.44077 0.73433
1.50842 2.87748 -0.763409
1.81682 2.23081 -1.02481
2.7771 1.42857 0.782974
2.71762 1.65375 -0.0565041
0.928645 3.28922 0.242185
1.42419 2.89187 -0.776903
2.38327 2.0644 -0.17991
2.43884 1.91501 0.478299
1.50485 2.97832 -0.821189
1.70636 2.81245 -0.298979
2.10773 1.88492 -0.139659
1.76484 2.31889 0.599644
2.98392 1.27718 -0.539616
2.36085 1.45211 -0.172618
1.16213 3.47533 -0.409826
1.99291 2.48503 1.10566
3.02 1.27869 0.757252
2.68841 1.64855 0.0791952
1.76472 2.73598 0.577961
2.59985 1.29352 -0.105081
1.38747 2.65552 -0.962589
2.80924 1.35414 0.132052
2.80549 1.18785 -0.131612
1.31984 3.57492 0.493669
1.3116 3.02596 -0.152469
1.21733 2.8713 -0.781317
1.44769 2.88945 -0.474761
3.00878 1.47544 -0.452145
2.69122 1.61524 0.0940808
2.82752 1.73887 -0.116167
2.8769 1.66699 0.307844
1.69966 2.60526 0.949503
1.68827 2.88029 -0.346343
2.57389 1.78458 -0.130242
1.36223 3.35282 0.819609
2.15421 2.35606 1.07617
2.6024 1.51809 -0.772718
2.83808 1.30787 0.397259
2.7526 1.44466 -0.549135
1.07276 3.21675 -0.58298
1.49187 3.2118 -0.0958674
2.43502 2.16835 0.550123
2.67327 1.16332 0.826082
1.80154 1.90405 -1.06863
2.81333 1.46548 -0.280917
2.51757 1.79617 -0.700383
1.11833 2.97299 0.890863
2.11952 2.64492 -0.0182575
1.05563 3.19007 -0.0767741
1.60967 2.83731 0.250523
2.58938 1.47535 -0.9131
1.26137 2.93202 0.642554
1.62941 3.18323 -0.464016
2.57434 2.08406 0.714973
2.72455 1.13535 0.585048
1.88152 2.14878 0.897618
2.47026 2.00176 -0.036022
0.907707 3.31319 -0.214993
2.28261 1.91187 -0.0753569
3.12419 1.35295 0.893702
2.59459 1.48139 -0.328152
1.59341 3.08748 -0.447685
2.06526 2.17808 0.911606
2.31403 1.97468 -0.042673
1.92667 2.69339 -0.360283
1.33134 3.07399 -0.0408683
2.91723 1.25023 -0.248376
1.95821 2.47792 -0.666564
1.09084 3.30572 -0.551238
2.44805 1.82566 0.574863
2.66333 1.63503 -0.569265
1.67051 2.10929 0.504285
2.17348 2.01693 1.02429
2.02529 2.27873 -0.700199
2.26105 1.63688 0.604018
1.75996 2.74654 0.530926
2.27925 2.12076 0.86842
1.28593 3.06842 -0.624967
2.30811 1.54684 0.744402
2.07736 2.07927 -0.804169
2.90486 1.31912 -0.409369
1.14281 3.61419 0.0289674
2.33051 2.32677 0.348241
1.58287 3.10757 -0.429674
1.8549 2.71338 0.776114
2.11992 2.08337 0.591071
1.14748 2.75247 0.742886
2.56475 1.34505 0.847725
1.74977 2.62295 0.899273
2.27716 2.14126 0.346378
1.76528 2.53412 0.802402
2.04379 2.09128 -0.614011
1.94036 2.34052 1.00659
1.62062 2.8714 0.111752
2.24013 1.60021 0.362906
1.70039 2.33206 -0.307887
1.21868 2.91349 -0.671236
2.71207 1.3576 0.362742
2.31742 1.8806 0.981336
1.77008 2.75701 -0.120298
2.12457 2.12242 0.894828
2.61834 1.5868 1.01192
1.9611 2.78695 0.199703
2.01712 2.44861 -0.0859929
2.56542 1.72116 0.685081
3.00735 1.47487 -0.430221
1.88102 2.56207 0.413424
2.59798 1.95864 0.345244
1.58499 2.67911 -0.533031
2.37263 1.61198 -0.872333
1.55286 2.76028 0.0860066
2.23452 1.83956 -0.580887
1.472 2.82904 1.03076
2.83373 1.74413 0.36665
1.39218 3.25489 0.739324
1.95464 2.99779 -0.262259
1.69369 2.29347 0.513785
1.66912 2.73709 -0.190514
1.45069 2.99715 0.802661
2.64527 1.7073 1.07608
0.945739 3.02529 0.868759
2.5152 1.63542 -0.0886898
2.75401 1.94915 0.515063
1.007 3.51505 0.217549
1.84107 2.47402 0.303588
1.42515 2.88348 -0.311162
1.67328 2.81166 0.466417
1.58238 2.58241 -0.670517
1.2212 3.07955 -0.840083
2.4786 1.64928 -0.518456
1.01319 3.45096 -0.132621
2.22071 2.0199 0.410588
1.85508 2.52852 -0.0203611
2.38278 2.26598 1.00521
1.53133 2.83937 0.184586
1.8491 2.77129 0.370519
2.75472 1.38137 -0.845457
2.08458 2.3726 -0.219849
2.26538 2.34235 -0.305311
2.38019 1.77995 0.0779743
2.70135 1.39481 -0.124919
2.70065 1.97569 -0.296989
1.25605 3.45242 -0.305042
2.14862 2.06089 -0.938833
2.31973 1.6607 0.716185
2.05036 2.05449 0.383086
1.13222 3.20734 0.288309
2.60375 1.45911 -0.723141
2.55478 1.6046 -0.308716
1.30926 3.40883 0.378951
1.93582 2.6457 0.623216
1.11693 3.29266 0.678997
2.01279 2.19186 0.286253
1.62411 2.7969 0.346299
2.69806 1.34766 -0.914593
1.49881 2.95729 0.0228573
1.91733 2.62373 0.328076
1.3269 3.25925 0.809887
2.77465 1.58662 -0.166514
1.33304 3.08434 0.0263888
0.933782 2.95306 -0.916168
1.7342 2.86516 -0.384576
2.48794 2.11151 0.328897
1.56689 2.43605 -1.01378
2.23266 1.62892 0.666154
1.27901 2.92317 0.906759
2.26917 1.89219 0.651966
2.39594 1.77002 0.218043
2.30453 1.74227 0.74547
1.64719 2.73015 -0.471731
3.03221 1.21059 0.96979
2.12234 2.15318 -0.748906
2.52265 1.99377 0.127159
2.73565 1.87788 -0.450453
1.56201 3.07369 -0.6159
2.03154 2.32857 0.719998
2.49702 1.98357 -0.338546
2.74502 1.6448 0.577911
1.39895 3.20466 -0.0642841
2.97822 1.22215 0.717579
1.56094 2.54216 0.880899
1.18916 2.92095 -0.862849
1.37709 3.3118 0.447209
1.26579 2.98799 0.837782
1.23269 3.08051 0.455167
1.10444 3.40262 0.180427
2.58091 1.63795 -0.29868
2.07265 1.68671 0.187982
2.2011 1.91768 -0.925285
3.12322 1.54294 0.569742
1.41577 2.84295 -0.386275
1.68964 2.35516 -0.494301
2.39846 1.68228 -0.226246
2.36148 2.10408 -0.116656
3.02169 1.56543 -0.325588
2.13018 1.95577 0.249388
2.9899 1.23493 -0.930012
1.45153 3.03823 -0.76494
2.19184 2.14735 -0.650498
1.43999 3.62619 0.290287
2.82388 1.31472 0.0887979
2.22555 1.95001 0.0841844
1.46206 2.94338 0.871124
1.50308 2.52413 -0.779016
1.22538 3.0042 -0.632697
1.42975 3.09535 -0.476216
2.04376 2.46306 -0.418833
1.7128 2.27733 -1.04434
0.895331 3.2965 -0.392159
2.65922 1.76884 0.591328
1.60251 2.76008 0.855053
0.874036 3.30038 -0.549544
2.54211 1.85922 1.07312
1.47387 2.88443 0.700639
2.51243 2.11846 0.186273
2.81492 1.70351 0.688996
2.95433 1.31686 -0.632787
1.17682 3.18499 -0.534853
1.60842 3.23881 0.479721
2.43021 1.81236 0.772839
1.65094 2.98694 0.515582
1.25152 2.81218 -0.704347
1.71693 2.55017 0.585761
2.18273 2.03289 0.00506846
2.29811 1.63744 -0.842582
2.79187 1.2683 0.178624
2.30183 2.28491 0.0228791
1.30286 2.97713 -0.930073
2.15641 2.43455 0.0894819
1.59691 3.1855 0.539925
2.88858 1.31808 0.93726
3.16221 1.518 0.159103
2.82057 1.43089 -0.279522
2.82224 1.61223 0.285309
2.25157 2.04219 0.304519
1.12199 3.08321 -0.70413
2.84484 1.25736 -0.257253
2.09294 2.2039 0.832359
2.70785 1.50775 0.534016
2.68306 1.59792 0.139213
2.69169 1.22215 -0.798771
2.34353 2.01978 -0.257333
2.03904 2.28579 -0.688233
2.06119 2.07638 0.865902
2.31414 2.23628 0.0627478
1.95561 2.39697 0.209944
2.03816 1.90356 0.155361
