ply
format ascii 1.0
comment Created by Open3D
element vertex 250
property double x
property double y
property double z
end_header
-1.65422 -1.93133 -1.08099
-0.218884 -3.53571 -0.624777
1.24143 -1.92415 -2.21059
-0.0746161 -2.58105 -2.54499
-1.63713 -2.66986 -1.29337
-0.648235 -1.7531 -2.87058
0.0471588 0.449688 -3.11359
0.353184 -1.35364 -2.55977
-2.03676 -2.12335 -1.45668
-0.433675 -2.52272 -2.20756
-0.175036 -3.43802 -1.59212
-0.251271 -2.06627 -2.81171
-0.815374 -3.06619 -1.8581
-0.893872 -1.57744 -2.57179
-1.68375 -3.54713 -2.33729
-1.11094 -3.03702 -1.20946
-1.02021 -1.61724 -3.10353
0.583537 -0.576724 -3.1525
-0.876334 -1.19326 -3.24315
1.20293 -2.00632 -1.97563
-0.529506 -3.80687 -1.57736
1.12101 -0.136542 -2.37524
-0.494819 -1.80759 -2.13633
0.173355 -0.988475 -2.90172
0.77475 -2.07126 -2.34039
-1.38356 -2.58511 -1.96054
-0.546359 -1.03088 -2.42991
-0.599617 -3.35145 -0.769893
0.710622 -1.85053 -2.56214
-0.204615 -2.63578 -2.11086
-1.73319 -1.84129 -1.00268
-0.308911 -3.35783 -0.464937
-1.70839 -2.60062 -0.995729
0.0411965 -3.61964 -1.14973
-0.286654 -3.62557 -0.699682
-0.144765 0.145267 -3.37041
0.979014 -2.08227 -2.432
-0.138572 -3.67554 -0.944718
-1.99633 -2.99897 -2.88082
0.883564 -1.5972 -2.39761
0.84401 -1.71067 -2.38491
-0.158531 -1.28397 -2.65707
-0.488556 -3.48229 -1.5996
-1.03141 -3.16447 -1.29981
0.59993 -2.68056 -2.31886
-0.542485 -3.36174 -1.06815
1.47585 -1.2719 -2.60101
-0.736219 -3.4014 -1.16599
-0.475149 -0.833531 -3.30127
-1.47238 -3.00318 -2.1021
0.296341 -3.28629 -1.09202
0.333877 -2.48959 -2.58161
1.38897 -1.04297 -2.73766
-1.83853 -3.50281 -1.41998
0.284519 -1.89935 -2.24223
1.64765 -0.604103 -2.6953
0.331438 -1.97014 -2.53254
-2.16827 -2.3889 -1.6976
0.451342 -2.61546 -1.70691
-0.572706 -1.82593 -2.93037
0.139301 -1.24994 -2.35941
0.322712 -0.9166 -2.98718
1.00306 -1.9088 -2.0613
-1.43135 -2.78292 -1.38266
-1.30342 -3.44623 -1.04082
-0.195995 -3.7489 -1.31075
-0.44928 -3.12892 -2.28213
0.758208 -0.159272 -2.96446
-1.54621 -2.14239 -1.49418
-0.748276 -2.02811 -2.64542
-0.102261 -2.73737 -1.82405
1.37357 -1.57745 -2.05505
-2.35984 -2.87211 -1.91521
0.381261 -1.66637 -2.86244
0.522343 -1.87223 -2.89188
-0.34371 -0.139265 -3.54457
1.74045 -0.671335 -2.49087
-0.477592 -2.85806 -1.43753
-0.712763 -3.14561 -2.05017
-0.205081 -1.78161 -2.50385
-0.884229 -1.43576 -2.59592
0.17556 -3.36783 -1.49265
-1.51816 -3.15369 -1.90638
-0.192095 -0.724012 -2.69168
0.0262611 -1.69864 -2.59112
-1.01301 -3.14912 -0.923282
0.220555 -0.409198 -2.94137
-1.84793 -2.22917 -1.48733
1.69917 -0.688154 -1.64749
-0.822639 -3.05117 -2.54453
1.04016 -2.09008 -2.46466
0.943705 -0.357006 -2.71863
-1.5288 -2.9436 -2.10226
-0.173831 -2.47945 -1.53903
-0.524168 -3.66802 -1.97171
0.878311 -1.52599 -2.57857
-1.79707 -2.20467 -2.10165
-1.74393 -2.60581 -1.27848
0.567567 -2.90604 -1.49369
-1.43313 -1.80214 -2.75133
-0.933973 -3.45028 -2.10288
-1.38495 -2.98263 -1.46761
-0.993349 -2.71739 -1.53782
-1.91693 -2.25746 -1.95857
-0.316069 -3.45844 -1.40221
-0.830917 -1.63872 -2.38857
-0.812506 -1.71225 -2.75846
1.76806 -0.502359 -2.60734
0.630969 -0.31985 -3.02972
-0.0293273 -1.69072 -2.94946
0.744342 -2.2359 -2.36537
0.521504 -2.91191 -1.62485
0.278736 -1.70066 -2.84573
-2.29834 -2.41385 -2.07787
1.7508 -0.0975735 -2.41474
-0.348509 -2.94751 -2.12013
1.02266 -0.60116 -2.78694
-2.10513 -3.00273 -1.62446
-1.12971 -3.19972 -1.68188
-0.427978 -3.52153 -1.42378
-0.105386 0.153883 -3.23424
0.201284 -3.19812 -1.20987
0.137683 -1.57743 -2.35386
-0.681465 -3.45905 -1.58974
0.206707 0.0404727 -3.02197
1.10154 -0.427734 -2.9695
1.41691 -1.85552 -1.54347
0.465847 -2.61618 -2.33407
-0.544914 -1.76225 -2.83068
1.37669 -1.07432 -2.54038
0.622338 -1.17918 -2.63192
0.658198 -0.504302 -3.25636
-0.147342 -2.93435 -1.40289
1.84362 -0.925452 -2.45743
1.10637 -2.05681 -1.98128
0.747529 -1.35028 -2.52334
1.29645 -0.608691 -2.73888
0.784696 -1.11919 -2.20301
-0.0867151 -3.51212 -1.02064
0.0421191 -0.228045 -3.28435
-0.173864 -3.63504 -0.928447
-1.18604 -3.35262 -0.938782
1.36764 -1.48009 -2.52092
-0.908054 -3.03462 -1.86035
-1.42257 -3.09422 -2.07671
-0.116743 -3.61625 -0.853708
-1.56398 -2.37677 -2.69418
0.426494 -0.293831 -2.542
0.172657 -3.32333 -1.03548
-1.45689 -2.54851 -2.12111
1.60179 -0.896968 -2.49918
-1.41656 -2.28935 -1.9918
0.953614 -1.40903 -2.9276
-0.884453 -3.13171 -0.887765
-1.6602 -2.00457 -1.28891
-1.76004 -4.037 -2.11992
0.231179 -1.01228 -3.41038
-0.746721 -0.961986 -2.1824
-0.839271 -1.77904 -2.13707
0.816953 -1.16932 -3.1241
-0.112895 -3.69038 -1.81561
0.60323 -2.46224 -1.96014
-0.496392 -3.99541 -1.28019
-1.06581 -3.22952 -1.89033
0.756378 -1.85033 -2.48143
0.538423 0.0894733 -2.88304
0.146283 0.0509105 -3.07687
-0.0400116 -3.06517 -1.32425
-1.47217 -2.14725 -1.66014
1.22814 -1.4878 -2.17695
-0.535269 -3.73957 -1.86122
-0.401438 -0.880481 -3.40153
0.462825 -1.87548 -2.50414
-0.14454 -3.65852 -1.00001
-0.458045 -3.62652 -0.591148
-0.613636 -3.4755 -1.4843
-0.895252 -3.83457 -1.50609
-0.793222 -2.94461 -2.22799
1.69668 -1.17068 -2.16336
-1.0659 -2.54299 -2.79708
1.51495 -1.07206 -2.33757
-1.07398 -1.10509 -2.71648
-1.80465 -2.5523 -1.88157
0.153435 -2.75833 -1.93513
-0.488733 -3.41012 -2.31408
0.0682641 -3.43557 -0.569527
0.725664 -1.62735 -2.34467
-0.537599 -1.91007 -3.04511
-1.07255 -3.60971 -2.05646
-1.02209 -2.90004 -2.71391
-0.667567 -3.69537 -2.01442
0.096505 -3.4855 -1.04429
-0.740786 -2.59743 -2.61077
-1.57118 -3.90967 -1.62877
0.227656 -1.62329 -3.1323
-0.356467 -3.8861 -1.02588
2.00918 -0.788205 -2.33158
-0.905146 -3.83833 -1.48851
-0.406595 -2.48438 -2.59368
0.00716254 -2.67158 -2.43547
2.50614 -0.827979 -2.09858
2.82357 -0.671131 -1.92713
2.44964 -1.12568 -1.91619
2.73327 -1.32482 -2.13078
2.40385 -0.715895 -1.56378
1.97861 -1.08452 -2.54739
2.20566 -1.60272 -1.72715
1.5762 -1.58975 -2.86999
2.93434 -1.02223 -1.56651
2.17386 -1.21401 -1.93218
1.77624 -1.92121 -1.90219
2.77324 -0.690436 -1.64092
3.09719 -0.973742 -1.27953
2.98108 -1.07713 -1.61946
2.52216 -1.5976 -1.75418
2.70551 -1.06575 -2.01621
2.28638 -1.34692 -1.7624
2.6709 -0.808384 -1.88888
1.91442 -1.61069 -1.91656
1.72685 -1.53335 -1.76676
2.49851 -1.29857 -2.15108
1.51039 -1.79282 -1.97974
1.86272 -1.77177 -1.94422
2.86611 -0.896683 -1.94552
2.56303 -1.59914 -1.42601
2.94091 -0.976453 -1.63636
2.48582 -1.20858 -1.33873
1.78885 -1.38599 -2.09047
2.31415 -1.79983 -1.69142
3.03245 -0.812565 -1.82458
2.80709 -1.20783 -1.4603
1.98127 -1.22055 -1.56599
3.2006 -0.736339 -1.35874
2.9669 -0.728326 -1.68724
1.55912 -1.64341 -2.24771
2.32417 -1.44235 -1.80991
2.10746 -1.01562 -2.5236
2.04799 -1.88252 -2.36974
2.08524 -0.920623 -2.12555
1.9581 -1.42601 -1.9165
2.67748 -1.23388 -1.37476
2.57038 -0.778853 -1.86642
2.64459 -1.28186 -1.48257
3.17958 -0.938656 -1.32589
1.92539 -1.11778 -2.48875
2.21552 -1.25519 -2.07513
2.31199 -1.03755 -2.52211
2.77889 -1.35194 -1.81366
2.2929 -1.27955 -1.98361
2.07717 -1.16845 -1.84896
