ply
format ascii 1.0
comment Created by Open3D
element vertex 250
property double x
property double y
property double z
end_header
-1.45326 -2.36384 1.19414
-2.39849 -2.3342 -1.11838
-3.1474 0.119446 -0.600488
-3.3874 -1.21114 -0.133244
-2.02435 -2.73321 0.537245
-3.01474 -1.06809 0.886931
-2.19972 0.797378 2.55169
-2.85579 -0.184687 0.871555
-1.7264 -2.63626 0.982472
-3.00169 -1.56793 0.404504
-3.10379 -2.04339 -0.731778
-3.2569 -0.970423 0.395542
-2.9213 -2.25974 0.121361
-2.62204 -1.23613 1.2736
-3.2846 -3.01443 -0.275792
-2.32203 -2.61239 0.200151
-3.00488 -1.18551 1.03702
-2.94194 0.629539 1.15777
-2.92003 -0.787723 1.291
-3.00703 -0.0402927 -0.470753
-3.18548 -2.50241 -1.07241
-2.27833 1.03359 1.73205
-2.54031 -1.22029 1.14474
-2.86024 0.000331102 1.14782
-3.19677 -0.311895 -0.260251
-2.56547 -2.35127 0.666452
-2.31968 -0.707271 1.70041
-2.30621 -2.51646 -0.42337
-3.22555 -0.170716 -0.0577418
-3.0569 -1.48893 0.19178
-1.31924 -2.37962 1.24034
-2.15784 -2.35946 -0.73911
-1.73533 -2.80344 0.506662
-2.91753 -2.04456 -1.43222
-2.48278 -2.40838 -1.2426
-2.50153 0.560943 2.21861
-3.32475 -0.107417 -0.651196
-2.73943 -2.26291 -1.38748
-3.30216 -2.76224 0.171471
-3.01582 0.0478726 0.215354
-3.05628 -0.0496442 0.120757
-2.74249 -0.50077 1.20145
-3.04426 -2.31103 -0.531925
-2.48436 -2.608 0.0653997
-3.4557 -0.77259 -0.96626
-2.55901 -2.42048 -0.344226
-3.15484 0.783619 -0.204351
-2.59755 -2.55807 -0.321102
-2.88529 -0.265864 1.42626
-2.87412 -2.61811 0.266866
-2.77447 -1.715 -0.945429
-3.47819 -0.813604 -0.496691
-3.11078 0.876294 0.132734
-2.51011 -3.30494 -0.377713
-2.89606 -0.654369 0.560221
-2.91693 1.30211 0.498521
-3.16287 -0.5555 0.221616
-2.01501 -2.82104 0.746434
-2.92908 -1.08792 -0.144478
-3.12129 -1.03534 0.749772
-2.58867 -0.355943 1.24881
-2.9279 0.183659 1.06988
-2.96591 -0.135643 -0.0858855
-2.21828 -2.64297 0.475536
-2.35211 -2.99532 -0.396908
-3.04311 -2.2636 -1.37209
-3.38056 -1.8933 -0.310765
-2.62595 0.935593 1.60993
-1.91837 -2.31934 1.0696
-2.96727 -1.37454 0.799867
-2.92653 -1.55746 0.148819
-2.88503 0.34808 -0.09475
-2.38593 -3.17737 0.294049
-3.25757 -0.2328 0.279925
-3.42933 -0.219952 -0.140935
-2.72835 0.305743 1.94134
-2.82639 1.27385 0.440972
-2.59089 -2.01673 0.326683
-3.13945 -2.17403 -0.0624024
-2.88608 -0.874658 0.845787
-2.56536 -1.13774 1.38039
-3.08697 -1.74212 -1.03421
-2.7933 -2.78677 0.133414
-2.45268 -0.187554 1.71467
-2.97278 -0.622283 0.727471
-2.19201 -2.66829 -0.018454
-2.5885 0.380532 1.68084
-1.86675 -2.56916 0.936493
-2.1986 0.93673 1.0996
-3.42742 -2.05238 -0.105261
-3.3691 -0.0455683 -0.787455
-2.60276 0.887136 1.40454
-2.82454 -2.62207 0.326141
-2.55267 -1.55606 0.610745
-3.41351 -2.32699 -0.881538
-3.11014 0.145984 0.168103
-2.33733 -2.36748 0.968209
-1.9447 -2.76885 0.572875
-2.95341 -1.19662 -0.686594
-2.71836 -1.69626 1.13382
-3.27857 -2.48973 -0.333648
-2.40615 -2.70613 0.286207
-2.43556 -2.27283 0.564377
-2.22047 -2.51548 0.920377
-2.93102 -2.21743 -0.605021
-2.53691 -1.28361 1.28146
-2.86006 -1.19964 1.0476
-2.83066 1.4235 0.572969
-2.72493 0.769686 1.48005
-3.21899 -0.539008 0.531974
-3.29432 -0.412262 -0.489373
-3.04208 -1.19649 -0.706209
-3.23483 -0.339144 0.345801
-2.27875 -2.82899 0.728652
-2.46569 1.56079 1.24575
-3.19065 -1.76831 -0.0780836
-2.80796 0.836105 1.01905
-2.31364 -3.15393 0.172699
-2.76547 -2.60308 0.0619078
-2.94859 -2.32908 -0.629075
-2.40615 0.553497 2.26484
-2.79367 -1.73008 -0.620343
-2.76239 -0.547611 0.931589
-2.96846 -2.44705 -0.384091
-2.40025 0.653101 2.10127
-2.87297 1.05345 1.04926
-2.66519 0.0634636 -0.172084
-3.39789 -0.854513 -0.657198
-3.02024 -1.01002 0.852053
-2.97766 0.781783 0.245141
-2.89142 0.14834 0.795918
-3.00177 0.760977 1.12823
-2.70256 -1.82385 0.0840635
-2.96491 1.21741 -0.0269356
-3.0124 -0.148268 -0.40581
-2.93849 0.115384 0.566167
-2.85353 1.03242 0.80215
-2.58657 0.161521 1.0371
-2.73103 -2.14738 -0.975389
-2.69458 0.459725 1.78444
-2.69739 -2.28292 -1.22984
-2.25929 -2.88745 -0.305466
-3.17641 0.559075 -0.322281
-2.87828 -2.30769 0.182532
-2.9196 -2.64323 0.177866
-2.64541 -2.2413 -1.29476
-2.95115 -2.14681 0.697355
-2.28734 0.472074 1.90313
-2.71737 -1.85183 -0.847008
-2.6448 -2.33641 0.67809
-2.9145 1.04559 0.269179
-2.41721 -2.19094 0.922322
-3.32695 0.392652 -0.0300334
-2.19472 -2.57968 -0.00456019
-1.65069 -2.3623 1.15598
-3.36046 -3.39375 -0.826174
-3.26884 0.199723 0.768579
-2.03597 -0.883262 1.90532
-2.42228 -1.44832 1.25998
-3.30645 0.477353 0.28289
-3.41866 -2.03382 -1.41556
-3.07692 -0.794136 -0.29465
-3.06128 -2.61275 -1.64452
-2.95933 -2.52097 0.00423455
-3.17829 -0.161543 -0.0445977
-2.36649 0.884173 2.04925
-2.41801 0.631446 2.11547
-2.74349 -1.83082 -0.162684
-2.07039 -2.23151 1.07371
-2.88839 0.313581 0.133202
-3.36451 -2.40172 -0.965014
-3.00748 -0.206627 1.29413
-3.12755 -0.407905 0.228372
-2.77245 -2.25271 -1.29836
-2.34902 -2.55651 -1.21068
-2.91675 -2.43192 -0.439582
-3.04039 -2.81301 -0.876435
-3.14079 -2.06772 0.13164
-2.83663 0.868175 -0.00116295
-3.26845 -1.8599 0.384488
-2.86402 0.826702 0.24078
-2.4177 -1.03892 1.654
-2.35803 -2.63491 0.679623
-3.09278 -1.32993 -0.167884
-3.54373 -2.06335 -0.668355
-2.38496 -2.07301 -1.19587
-2.94916 -0.116466 0.391237
-3.26298 -1.02023 0.582649
-3.28836 -2.69076 -0.461719
-3.41384 -2.06122 0.0684172
-3.41974 -2.442 -0.809727
-2.78503 -1.97524 -1.15497
-3.25428 -1.71137 0.281675
-2.97204 -3.30316 -0.797634
-3.39129 -0.237385 0.268891
-2.84694 -2.5004 -1.67874
-2.84388 1.38212 0.0686373
-3.02594 -2.82597 -0.882629
-3.27701 -1.40039 0.20974
-3.37758 -1.23208 -0.247362
-2.82632 1.70317 -0.476038
-2.70219 1.99049 -0.514145
-2.83042 1.45594 -0.831767
-3.17134 1.67256 -1.68321
-2.34219 1.48897 0.212431
-3.15272 1.28127 -0.501717
-2.87212 0.965317 -1.27556
-3.54973 0.802364 -1.02619
-2.64444 1.81121 -1.15373
-2.81517 1.17983 -0.592308
-3.05566 0.49591 -1.28834
-2.48471 1.84708 -0.330304
-2.44743 1.88583 -1.17059
-2.72517 1.84275 -1.34756
-2.9722 1.25921 -1.80673
-2.94286 1.73411 -1.12058
-2.78753 1.16117 -0.909279
-2.70394 1.78464 -0.542829
-2.9418 0.762489 -0.910779
-2.74219 0.575154 -0.318231
-3.10916 1.49311 -1.34507
-2.97852 0.337339 -0.609868
-3.03214 0.654165 -1.1652
-2.84535 1.92598 -0.981223
-2.73743 1.19429 -1.73609
-2.67493 1.85871 -1.1023
-2.45294 1.25744 -0.679752
-2.92068 0.816329 -0.427761
-2.97416 0.970179 -1.88295
-2.75599 2.0678 -0.983521
-2.62669 1.58636 -1.29663
-2.49686 0.876689 -0.00671999
-2.41192 2.10412 -0.873356
-2.59118 2.00979 -0.6882
-3.11126 0.547636 -0.647637
-2.88206 1.16861 -1.19414
-3.13383 1.41505 -0.532367
-3.45497 0.91083 -1.95156
-2.7813 1.31023 -0.0963825
-2.85726 0.885494 -0.630183
-2.54216 1.43275 -1.0966
-2.64466 1.70554 -0.341899
-2.63877 1.41758 -1.2028
-2.48619 1.98629 -1.23462
-3.11207 1.20079 -0.453179
-2.95402 1.24533 -0.82581
-3.20018 1.57433 -0.813262
-2.95891 1.60586 -1.69113
-2.91905 1.27119 -0.929935
-2.7041 1.08744 -0.299711
