ply
format ascii 1.0
comment Created by Open3D
element vertex 400
property double x
property double y
property double z
end_header
0.75545 1.72994 -2.68001
2.32151 1.81622 -1.37345
0.997464 1.35436 -2.85176
1.84984 0.526335 -2.56561
0.661759 1.97913 -2.33849
0.594134 1.60943 -2.73336
1.27204 0.386964 -3.19949
1.15584 1.64073 -2.45253
1.96909 1.59724 -1.6552
2.67665 1.44358 -1.24515
0.226736 1.16559 -3.3194
1.35171 1.11997 -2.70819
2.09835 0.991648 -2.07671
2.06899 1.64054 -1.65803
1.81521 1.33749 -2.07191
0.0740105 1.32963 -3.2033
0.540145 1.378 -3.05812
2.31528 0.998551 -1.73808
0.795721 0.629226 -3.51609
2.10764 0.780779 -2.11129
1.27923 1.56152 -2.41204
1.4703 1.58074 -2.22272
1.88833 1.35633 -2.00406
1.22498 1.00865 -2.87684
0.753203 0.588235 -3.54103
1.03634 1.59041 -2.46083
1.68522 0.339495 -2.73396
1.4878 2.18126 -1.62342
1.88495 1.05147 -2.3059
1.39601 2.31188 -1.59683
0.264915 1.59108 -2.84159
1.87611 1.25612 -2.13239
1.55317 0.509126 -2.89761
2.08493 1.53333 -1.74383
1.53622 0.663286 -2.83622
1.42573 0.874261 -2.80348
2.08893 1.95154 -1.40063
1.49046 2.37603 -1.54797
0.831055 1.21217 -3.10873
1.28138 0.38173 -3.16507
1.85479 0.968344 -2.31815
1.12502 2.28447 -1.8485
2.41672 1.36657 -1.56548
1.85091 1.54274 -2.00596
2.20917 1.83685 -1.4873
1.18794 0.341733 -3.3045
1.31984 2.19278 -1.8039
1.82393 1.22535 -2.30328
1.44399 2.5422 -1.36638
1.69263 1.23072 -2.40312
2.63145 1.25211 -1.37008
1.38045 0.566051 -3.03607
2.01555 0.807488 -2.17042
2.60932 1.56847 -1.24909
2.49865 1.2174 -1.55877
1.45378 1.85393 -2.11005
0.854154 1.92874 -2.36206
0.232047 1.62827 -2.7928
1.1655 0.939973 -3.0363
1.18894 0.638646 -3.13376
2.28828 0.875637 -1.85618
1.03636 2.14226 -2.03108
1.62808 0.786083 -2.73415
0.424947 1.74818 -2.70459
1.00774 2.16864 -1.94951
2.3474 1.19258 -1.68986
1.26236 2.29405 -1.67282
0.881584 1.29104 -2.85293
2.07979 1.3137 -1.93751
1.42221 2.26529 -1.68441
1.16506 1.91988 -2.01473
1.11963 0.291336 -3.35341
0.57772 1.28541 -3.03594
2.58046 1.26025 -1.3859
2.13365 1.57574 -1.66164
0.771603 1.8975 -2.39151
0.600972 1.26851 -3.14665
0.419448 1.25099 -3.24694
1.57744 1.77142 -1.96521
1.1364 2.16885 -1.89935
1.47327 1.97985 -1.79025
1.50714 2.41485 -1.44908
1.9628 2.18108 -1.44094
1.20989 1.709 -2.21873
2.30769 1.75303 -1.43038
1.0041 0.873853 -3.22041
0.858328 1.39584 -2.85283
1.82574 1.88693 -1.71672
0.787091 1.12319 -3.13509
0.524479 1.63629 -2.73767
2.12743 2.3774 -1.18304
1.78659 1.41896 -2.06738
1.54597 0.549132 -2.87794
1.9517 1.15295 -2.02513
1.53724 2.03897 -1.71452
0.774382 1.19569 -3.09939
1.8735 1.62425 -1.78962
0.330342 1.43469 -3.02476
0.936104 2.3027 -1.82266
2.00352 1.824 -1.64612
1.90483 2.24764 -1.47063
1.58963 1.76132 -1.9036
1.74866 0.654837 -2.58018
0.624725 1.39789 -2.93443
0.256591 0.860078 -3.57251
1.56739 1.99466 -1.84377
2.04561 1.60144 -1.6832
1.00051 1.9474 -2.191
1.37488 2.06807 -1.9374
1.82532 0.693104 -2.48287
0.83629 0.683513 -3.41512
2.13456 1.63658 -1.6489
2.43433 1.20733 -1.65462
1.79542 0.850342 -2.55519
1.127 2.08175 -1.96518
0.779278 1.77225 -2.53643
1.84868 1.25161 -2.06502
2.16565 1.00274 -1.93887
1.7995 0.42899 -2.66382
0.921611 2.243 -1.92619
1.41554 0.784873 -2.90909
0.22452 1.30434 -3.22327
1.81703 1.03241 -2.26221
1.47464 2.67737 -1.23701
1.64752 2.25241 -1.45956
1.35646 0.158043 -3.16758
1.61782 1.13328 -2.52166
0.0711067 1.36879 -3.14426
1.99467 2.30727 -1.2803
0.267116 1.48487 -3.0479
1.85625 2.39486 -1.28092
1.41932 2.34514 -1.51663
0.932229 1.52398 -2.7395
1.26585 0.590775 -3.15057
0.739728 1.19598 -3.15875
1.51182 1.36039 -2.45119
0.889732 0.853769 -3.24823
2.03521 1.48371 -1.81516
0.629471 0.745083 -3.52356
2.28902 0.941743 -1.82543
2.05563 0.649141 -2.26084
0.728429 0.988376 -3.35828
1.24478 0.296367 -3.26923
1.14802 2.14583 -1.9115
2.03324 1.80868 -1.56855
2.21993 0.838706 -2.01116
2.30426 1.32381 -1.67367
1.41564 0.107559 -3.03249
2.08374 1.7259 -1.6323
0.993678 2.08578 -1.96789
0.0659266 1.45652 -3.07353
0.822783 1.07376 -3.22934
0.779902 0.691344 -3.49025
1.09344 1.72954 -2.35865
1.3234 0.55108 -3.07277
2.80259 1.4514 -1.2084
1.75066 0.420158 -2.68669
0.258789 1.1319 -3.37658
1.55537 0.223969 -2.9117
0.66389 1.16874 -3.24739
0.954981 1.0287 -3.13416
1.82881 0.637649 -2.49671
1.554 0.2214 -2.90388
1.36508 2.38512 -1.67711
1.37101 1.14373 -2.58902
0.362549 1.60215 -2.82102
1.43089 0.242083 -3.04711
1.54307 2.71653 -1.18582
1.25761 1.70706 -2.52295
1.8332 0.583853 -2.52281
0.541524 1.07122 -3.32038
0.624416 1.79987 -2.59679
1.11735 0.889521 -3.08882
0.83583 1.13265 -3.1478
1.09497 1.94581 -2.16717
0.890202 1.53139 -2.64292
1.22987 1.73109 -2.24269
1.88661 2.04702 -1.5464
1.36707 1.02596 -2.82513
1.78279 1.12029 -2.25086
1.05661 1.38457 -2.6497
1.79794 1.12565 -2.33881
1.64043 1.05768 -2.56202
1.76325 1.68954 -1.86909
1.25641 1.99596 -2.0059
1.9513 1.66707 -1.76725
2.80177 1.65373 -1.10178
2.4382 1.09473 -1.59103
0.944239 0.752712 -3.35148
2.65048 1.28778 -1.37447
0.868736 1.60712 -2.76805
0.583486 0.749161 -3.54995
1.30184 0.334655 -3.21147
1.1082 2.15512 -1.91418
1.52407 2.31902 -1.55023
1.46894 2.10697 -1.77817
0.826107 2.10877 -2.12835
1.42915 1.57934 -2.35891
2.31581 1.24708 -1.65265
0.774983 0.722473 -3.4703
0.753746 1.02396 -3.29032
1.33346 1.68614 -2.19948
1.53693 2.25742 -1.64803
1.81258 0.945769 -2.3643
1.23826 1.93613 -1.99594
0.86735 2.26922 -1.90011
1.5314 2.5413 -1.3766
1.63688 0.805975 -2.61569
1.37229 1.31855 -2.67659
0.55324 1.80862 -2.47064
1.59158 0.540624 -2.79369
1.44298 2.37269 -1.51383
2.04042 1.4738 -1.77176
2.39162 1.06171 -1.72803
1.31963 0.687164 -3.11071
0.686794 2.0005 -2.37118
1.91941 1.08337 -2.15844
1.49392 2.69084 -1.23362
1.96573 1.92217 -1.49725
0.809841 1.07286 -3.21097
1.90099 2.25208 -1.41258
1.83075 1.69753 -1.91752
1.7622 0.368186 -2.66564
0.882658 1.69106 -2.39986
1.63267 1.20342 -2.29021
1.2711 0.989487 -2.83954
0.61628 1.8853 -2.46593
0.785019 2.08829 -2.19881
2.06833 1.41302 -1.8793
1.59638 0.866897 -2.61376
1.37941 1.88492 -2.03301
1.22771 1.81294 -2.1634
1.78769 0.443493 -2.60812
0.553745 1.75754 -2.65818
1.3681 1.9312 -2.04965
1.16867 2.49598 -1.68287
1.5732 2.73747 -1.2034
0.600859 1.09549 -3.28172
1.29574 0.586368 -3.07372
1.4883 1.10191 -2.66918
1.4595 1.77952 -2.13674
2.0188 1.26861 -1.87479
1.47658 2.53402 -1.32775
0.974825 1.70766 -2.4817
2.19576 1.88451 -1.3966
1.19209 1.64438 -2.38478
1.34053 1.22697 -2.65377
2.08862 1.31591 -2.00224
0.370389 1.29568 -3.19308
1.52501 2.05106 -1.82057
0.670661 0.987431 -3.36952
1.21194 2.56575 -1.45977
1.71478 1.13153 -2.55989
1.50178 1.27769 -2.34525
1.38754 2.21448 -1.65054
1.68519 0.5936 -2.65057
1.12862 2.29495 -1.78442
2.08565 0.724474 -2.18989
2.31086 1.04804 -1.72884
0.785029 1.19053 -3.03943
0.23483 1.46573 -3.02683
1.61084 1.81361 -1.80229
0.298752 1.38003 -3.1334
1.39362 0.968766 -2.70414
2.1538 1.24427 -1.77143
1.65616 2.48325 -1.34982
1.02086 1.79467 -2.33521
1.79713 2.23344 -1.43356
1.2116 1.9419 -2.05839
0.965558 2.28124 -1.87912
1.38299 0.378589 -3.10816
1.19422 1.16477 -2.93611
1.63578 1.23366 -2.33404
1.65155 2.52555 -1.28312
1.85004 0.589599 -2.4308
1.48826 2.65554 -1.27421
0.770547 0.559419 -3.56155
1.33133 2.60613 -1.38715
2.32028 1.44959 -1.54056
1.44203 0.835696 -2.93164
1.68377 1.78973 -1.98713
0.503047 1.54148 -2.85815
1.22178 2.15865 -1.78305
0.988528 1.56387 -2.55151
2.14818 1.60843 -1.60233
0.403349 1.18267 -3.28818
0.980794 1.23971 -3.05226
1.21565 1.08516 -2.97651
1.39529 2.06338 -1.78439
2.26593 1.60938 -1.46327
1.51347 2.41993 -1.43505
2.54046 1.8139 -1.2095
0.801073 1.99378 -2.24185
1.23035 1.22175 -2.69705
2.24746 1.88149 -1.37784
0.400905 1.57076 -2.87025
2.10841 1.62537 -1.67234
1.61511 2.21511 -1.49599
1.10802 0.366558 -3.29974
0.412618 1.32163 -3.18179
2.03962 1.71537 -1.67658
1.10627 1.34087 -2.86671
2.01495 1.02077 -2.05248
0.510568 1.00177 -3.41997
2.11027 1.31897 -1.81668
1.52389 1.45075 -2.27603
0.111711 1.27162 -3.25628
0.96078 0.958461 -3.13394
1.89777 1.12235 -2.15749
0.58201 1.22368 -3.14251
2.03336 0.909725 -2.02928
1.01014 2.305 -1.92536
1.28305 1.82921 -2.19848
1.08666 0.352876 -3.37402
0.868788 1.71409 -2.54017
1.01932 1.47194 -2.65548
1.1162 2.47869 -1.5955
1.74872 0.55932 -2.54219
2.07558 0.763997 -2.21487
1.15095 2.48932 -1.50032
0.258126 1.65527 -2.84137
0.140257 1.15029 -3.33413
2.05203 1.30895 -1.86238
0.988822 0.457757 -3.43181
1.35939 0.740589 -2.97673
1.2165 1.62181 -2.45782
2.41563 1.52798 -1.46771
2.35939 1.78562 -1.32476
2.43067 1.07361 -1.66132
1.09151 1.22239 -2.78715
1.0391 1.71252 -2.43622
1.631 2.51673 -1.31183
1.76474 0.635545 -2.50282
1.52561 2.37302 -1.47107
1.81864 0.618753 -2.58975
1.86027 2.39486 -1.31961
1.55072 1.54202 -2.24772
2.01616 1.82109 -1.63239
2.08339 1.916 -1.58738
2.66871 1.30096 -1.30229
1.53578 0.672158 -2.77917
1.22929 0.267424 -3.22498
0.359649 1.23935 -3.16257
0.554956 1.70229 -2.60828
0.72287 1.51774 -2.77109
1.44878 0.724773 -2.84681
1.66282 0.894663 -2.49183
1.33342 1.76376 -2.13354
1.50656 1.46652 -2.16766
1.24431 1.88683 -2.19982
1.44658 1.73983 -2.15354
2.52338 1.41499 -1.40409
1.10131 1.77277 -2.27905
0.673645 1.11481 -3.2745
0.942398 1.9427 -2.23479
0.608671 1.05494 -3.29861
1.67976 0.42349 -2.78382
0.495699 1.81909 -2.60365
2.02927 1.0384 -2.02918
1.21284 0.932629 -3.07152
1.18865 0.601889 -3.18206
1.65808 0.778366 -2.75139
1.17374 1.57602 -2.51763
2.10114 0.850335 -2.13746
1.83333 0.569417 -2.6025
1.15158 1.29761 -2.77972
1.8565 0.602192 -2.40121
0.394699 1.62197 -2.80752
2.05887 0.940973 -2.16495
1.77577 1.88184 -1.84128
0.792372 0.517534 -3.56235
0.418561 1.55429 -2.90669
1.69399 2.03275 -1.73796
0.738325 2.06498 -2.18611
0.0926601 1.43828 -3.09264
2.2213 1.71875 -1.43972
1.76439 1.80676 -1.89689
1.09016 2.21732 -1.90636
1.5252 0.885624 -2.6293
0.595289 1.57301 -2.79781
1.76423 1.32574 -2.03544
0.469155 1.35925 -3.05297
0.838193 1.16423 -3.1762
2.35968 1.98849 -1.27794
1.05572 1.51559 -2.55999
1.98924 0.841223 -2.1305
2.14428 1.78956 -1.58143
0.4859 1.34932 -3.11189
2.1936 1.25763 -1.83252
0.847119 1.32552 -2.94733
0.642213 1.82723 -2.47941
2.41141 1.42488 -1.51693
1.74626 0.846961 -2.50795
1.96991 1.9342 -1.51492
0.310022 0.948256 -3.51501
1.51884 0.799376 -2.71166
1.06287 1.68381 -2.55641
1.48563 1.84723 -1.89583
2.39831 1.32091 -1.60457
1.92684 0.825645 -2.40467
