ply
format ascii 1.0
comment Created by Open3D
element vertex 250
property double x
property double y
property double z
end_header
1.74829 0.128133 3.44166
1.02664 -2.24647 2.97861
-1.84367 -1.4958 2.04123
-0.968835 -1.30882 2.86453
1.47611 -0.631852 3.40375
-0.893591 -0.22432 2.90592
-1.50271 1.70373 2.80217
-1.11553 -0.183089 2.98138
1.3831 -0.0604554 3.06331
-0.0665684 -0.865025 3.50329
0.219219 -2.00589 3.27432
-1.133 -0.73139 2.81485
0.571185 -1.21382 3.67104
-0.286726 0.153048 3.19434
0.264389 -1.58738 3.09223
1.41146 -1.07675 3.72068
-1.02589 -0.029413 2.67855
-2.15792 0.275407 2.34123
-1.30804 0.291951 2.53752
-1.39554 -1.42849 2.39523
0.296491 -2.33862 3.04358
-1.24871 0.807734 3.1292
0.153024 -0.0615089 3.65099
-1.47613 0.161157 2.72112
-1.45378 -1.27875 2.48864
0.726788 -0.578917 3.4964
-0.245633 0.627171 3.34017
1.44681 -1.66722 3.57143
-1.66764 -1.0541 2.41185
-0.122727 -1.07902 3.48175
1.82826 0.211558 3.35717
1.43255 -1.90107 3.315
1.74348 -0.597636 3.27834
0.16219 -2.55028 2.63537
0.916933 -2.36112 2.85013
-1.80838 1.36773 2.52975
-1.94919 -1.57251 1.97907
0.516343 -2.51008 2.72393
-0.27041 -1.04503 2.72162
-1.47467 -0.781464 2.62914
-1.4501 -0.886078 2.61808
-0.851304 0.127446 3.08301
0.502363 -1.85159 3.46842
1.26671 -1.23501 3.71402
-1.56084 -1.97806 2.12348
1.18145 -1.64249 3.68212
-2.47042 -1.00856 1.80231
1.17239 -1.62309 3.63795
-1.62261 0.47735 2.46997
0.548834 -1.01516 3.36654
0.348064 -2.1196 3.10771
-1.50711 -1.56552 2.38776
-2.46973 -0.684594 1.93497
1.19285 -1.56789 2.97356
-0.615063 -0.595188 3.28815
-2.49007 -0.289626 2.06119
-1.19878 -0.868982 2.80978
1.13779 -0.323432 2.93111
-0.157438 -1.35916 3.39549
-1.04691 -0.358753 2.82178
-0.579661 0.148081 3.35481
-1.73231 0.116147 2.56442
-1.16808 -1.1114 2.73537
1.35573 -0.752951 3.56999
1.41847 -1.60919 3.26676
0.194971 -2.54217 2.73847
-0.330419 -1.59546 3.19343
-1.90233 0.73672 2.6182
1.31156 -0.079377 3.51698
-0.490205 -0.373977 3.14764
0.207005 -1.14982 3.6821
-1.51185 -1.02541 2.4725
0.903129 -0.812194 2.73094
-1.75301 -0.724498 2.42769
-2.04369 -1.10942 2.1237
-1.9857 1.08205 2.33253
-2.28812 -0.358247 2.16527
0.97936 -1.0142 3.99918
0.227848 -1.39207 3.5087
-0.614229 -0.304606 3.22726
-0.326782 0.281166 3.16427
-0.0831543 -2.21684 2.92095
0.770451 -1.15096 3.3823
-0.842583 0.706456 3.0808
-0.937569 -0.382556 3.03875
1.5917 -1.26687 3.65111
-1.48998 0.750279 2.77058
1.3405 -0.162858 3.24717
-0.740339 0.115798 3.40733
-0.401299 -1.39026 3.13068
-2.11716 -1.67528 1.80094
-1.71214 0.504862 2.73578
0.571076 -0.943181 3.3428
0.760634 -0.712058 4.07563
-0.0743588 -2.17472 3.06879
-1.76974 -0.790608 2.4088
0.658199 -0.169677 3.15894
1.50299 -0.565946 3.30871
-0.21849 -1.84421 3.0559
-0.306474 0.0288451 2.92691
0.211059 -1.67321 3.36315
1.23072 -0.973179 3.56001
1.10488 -0.73355 3.84836
0.843318 -0.2002 3.11678
0.593891 -1.90265 3.46395
-0.0464878 0.132888 3.3724
-0.614927 -0.073458 3.03159
-2.43277 -0.209034 2.12728
-1.93822 0.596667 2.54787
-1.5017 -0.518363 2.60143
-1.55545 -1.49674 2.33173
-0.36525 -1.86007 2.97631
-1.6238 -0.681182 2.52447
0.752518 -0.347584 2.77656
-1.91632 0.417935 2.66234
-0.104242 -1.37047 3.40447
-1.96959 0.133236 2.49737
1.15057 -0.967229 2.9392
0.892099 -1.25854 3.6158
0.624028 -1.93139 3.44334
-1.63256 1.4034 2.64525
0.467036 -1.86154 3.42109
-0.611035 -0.199647 3.3127
0.676829 -1.71803 3.55896
-1.53721 1.21625 2.77843
-2.295 0.207191 2.30585
-0.816431 -1.17474 2.88322
-1.315 -1.73021 2.44414
-0.899746 -0.263039 2.93379
-2.12376 -0.612427 2.19613
-1.46229 -0.198265 2.75694
-2.37269 0.271567 2.21256
0.774627 -1.24894 3.92438
-2.50562 -0.786369 1.84557
-1.28118 -1.39465 2.5123
-1.45083 -0.433616 2.73105
-2.17414 -0.046959 2.3348
-0.857 -0.0142548 3.2504
0.66634 -2.18041 3.1672
-1.86836 0.902285 2.4961
0.654254 -2.38363 2.90171
1.51351 -1.51978 3.37302
-2.30363 -1.15626 1.86241
0.623026 -1.14777 3.66807
0.553182 -1.11792 3.38894
0.650127 -2.42216 2.82135
-0.169095 -0.482684 2.97948
-0.98703 0.93814 3.17441
0.55793 -2.05119 3.2567
0.550341 -0.553929 3.38358
-2.24672 -0.549171 2.12606
0.70719 -0.281686 3.45879
-2.44095 -0.898775 1.89242
1.59818 -1.26584 3.73363
1.54077 0.0620221 3.43566
0.399055 -2.13678 2.90886
-2.37609 -0.13186 2.06912
0.210426 0.830819 3.50491
0.320393 0.0727924 3.58821
-2.52385 -0.582417 1.92785
-0.467514 -2.58264 2.52437
-0.726118 -1.42578 2.97145
0.245162 -2.78435 2.47874
0.616189 -1.32838 3.55834
-1.57815 -1.04744 2.47788
-1.55023 1.16533 2.85478
-1.57794 1.23539 2.73799
0.711767 -1.47738 3.79642
1.1168 -0.0971797 3.53858
-1.47314 -0.823961 2.5966
0.0296315 -2.25299 3.05434
-1.83526 0.355453 2.34702
-1.26558 -0.840405 2.7708
0.523899 -2.44627 2.82707
1.10926 -2.31193 2.82355
0.73905 -1.76529 3.55718
0.66382 -2.16874 3.19372
0.0739538 -1.17698 3.44629
-1.93534 -0.839346 2.21298
-0.563222 -0.831594 2.99081
-1.93962 -0.622646 2.31348
-0.416344 0.621548 2.99157
0.906567 -0.495469 3.23503
-0.248599 -1.40697 3.3326
-0.46501 -1.94676 2.9895
0.870734 -2.29053 2.89598
-1.19582 -0.65479 2.87136
-1.2693 -0.515048 2.6693
0.3023 -1.80437 3.31177
-0.496768 -1.19336 3.03702
-0.000562234 -2.12205 3.1276
0.412904 -2.31294 2.94571
-0.489767 -0.956733 3.13956
0.824693 -2.06415 2.99433
-2.05552 -0.706383 2.19701
0.378256 -2.76609 2.40774
-2.42551 -0.6809 1.93039
0.68302 -2.17219 3.18705
-0.704408 -0.999924 3.06734
-0.902373 -1.4279 2.88354
-2.75147 -1.11089 1.46206
-2.79381 -1.10304 1.40548
-2.63056 -1.45481 1.32143
-3.55368 -2.14841 0.361314
-1.60024 -0.569691 2.46381
-2.94547 -1.189 1.37129
-2.3992 -1.90753 1.18397
-3.29169 -1.71144 0.937002
-2.73235 -1.66974 1.02471
-2.29745 -1.29882 1.66279
-2.25657 -2.0029 1.32129
-2.28486 -0.969145 1.76084
-2.50737 -1.66747 1.08929
-2.93534 -1.82952 0.808192
-2.98942 -2.29839 0.507775
-3.10996 -1.65857 0.90387
-2.3223 -1.57035 1.44815
-2.63551 -1.15795 1.47184
-2.2021 -1.64163 1.56465
-1.5154 -1.18638 2.32619
-3.23338 -1.88441 0.72145
-1.7631 -1.47042 2.05111
-2.32681 -1.872 1.34866
-3.07428 -1.51289 0.998552
-2.57198 -2.24144 0.719992
-2.7996 -1.62085 1.03064
-1.80167 -1.36581 1.83226
-2.09862 -1.22027 1.90631
-2.78384 -2.40356 0.562612
-3.04765 -1.49476 1.00136
-2.57137 -1.8203 1.00679
-1.31308 -0.872258 2.57727
-2.53293 -1.3888 1.27281
-2.67753 -1.24894 1.34626
-2.2184 -1.45166 1.74782
-2.56825 -1.80577 1.13903
-3.03093 -1.19588 1.30642
-3.46688 -2.48258 0.261613
-2.26496 -0.845621 1.94514
-2.10018 -1.38432 1.77815
-2.24494 -1.67817 1.3061
-2.42726 -0.998634 1.69696
-2.41519 -1.76948 1.16055
-2.66326 -1.70803 0.975746
-2.79858 -1.16115 1.47757
-2.64474 -1.48271 1.34017
-3.31628 -1.4173 1.00978
-3.20095 -2.1552 0.484254
-2.63804 -1.56729 1.27425
-1.95268 -1.06985 2.0279
