ply
format ascii 1.0
comment Created by Open3D
element vertex 400
property double x
property double y
property double z
end_header
-1.82309 -2.45361 0.250411
-2.69673 -1.46952 0.235003
-2.65721 -1.6083 0.632168
-1.92685 -2.21643 0.960178
-2.81152 -1.40052 0.49044
-1.74669 -3.08144 -1.15826
-2.74536 -1.44511 0.462611
-2.21586 -2.08532 -0.523746
-2.50506 -1.87731 -0.686773
-1.95364 -2.67681 -0.352033
-1.82817 -2.6545 -1.00448
-2.04884 -2.45013 0.182805
-3.26712 -1.08808 0.174142
-2.28334 -1.83314 0.687276
-2.84227 -1.39638 0.494837
-2.82437 -1.44067 0.690207
-1.72399 -2.0992 1.05859
-1.62195 -2.89236 0.0911373
-2.54639 -1.4781 0.402368
-2.81528 -1.11176 -0.0594802
-1.83717 -2.52961 0.187977
-1.87775 -2.25606 -1.04151
-2.25789 -1.7221 0.625581
-2.03109 -2.05798 -0.710243
-2.28602 -2.24422 -0.490786
-2.43046 -2.4832 -0.0181799
-2.773 -1.35392 0.0195283
-2.75796 -1.77494 0.0584149
-2.11444 -1.99341 -1.17273
-2.36105 -1.79602 -0.356672
-2.10882 -2.24907 0.133641
-2.30821 -2.16544 1.15425
-2.31227 -2.22939 -0.873376
-1.93636 -2.18674 0.680748
-1.40828 -2.88523 0.215345
-1.61817 -2.63167 -0.501417
-2.64907 -1.74915 -0.75344
-2.3792 -1.53841 -0.0333003
-2.18735 -2.55635 -1.06626
-1.78576 -3.25434 -1.23683
-1.92816 -2.18828 -0.809302
-2.7019 -1.68837 0.474852
-2.74205 -1.50882 0.474536
-1.8377 -2.46996 0.305161
-1.16893 -3.16822 -0.370914
-1.93463 -2.60961 -0.738777
-2.29347 -2.00816 0.158614
-2.58411 -1.52598 0.772358
-2.03647 -2.71718 -0.288573
-1.82067 -2.61173 -1.25302
-2.63766 -1.62476 -0.5063
-2.21271 -2.05803 0.180036
-2.08907 -2.15808 0.0292073
-1.96758 -2.43713 0.339535
-2.26892 -1.76382 1.10666
-2.57652 -1.89336 0.849476
-2.20445 -1.97967 0.983847
-1.37593 -2.95789 -1.07383
-2.013 -2.81345 -0.0777784
-1.7405 -2.61257 -0.365711
-1.399 -2.97384 -0.279158
-2.23957 -2.19103 1.03208
-2.01068 -2.42869 -0.14784
-1.94353 -2.30762 0.370276
-1.71486 -2.76495 -0.52442
-2.26055 -2.05601 0.826222
-1.96134 -2.33978 -0.898278
-1.67365 -3.19434 -0.379972
-2.16519 -2.24761 -0.894807
-1.29728 -2.72891 0.0940053
-2.17703 -2.0872 0.163277
-1.53279 -2.92252 -1.13012
-2.77129 -1.67765 -0.28286
-2.45074 -1.36995 -0.383514
-1.55394 -2.92279 -0.691368
-2.47518 -2.05014 0.728905
-1.62633 -2.71906 -1.44729
-1.86471 -2.56865 -1.45053
-2.33788 -2.06828 -0.516561
-2.4175 -1.63252 -0.498049
-1.68295 -2.90646 -0.873921
-2.28764 -1.8092 -0.154954
-1.80898 -2.58331 0.278656
-1.77527 -2.37773 -0.591531
-1.43053 -3.13601 -1.3212
-2.03592 -2.26035 -0.623002
-2.95662 -1.34299 0.475677
-2.64358 -1.29276 0.0207769
-1.78336 -2.52657 -1.71461
-2.52976 -1.80217 0.537419
-1.893 -2.3174 -0.340098
-3.13454 -1.20144 -0.00747406
-2.78731 -1.63246 -0.655542
-1.50606 -2.83656 -0.217372
-2.71875 -1.34371 0.445583
-2.44522 -1.61512 -0.780633
-1.56625 -2.69673 0.112896
-2.27282 -2.06005 1.40694
-1.50192 -2.68623 -0.34108
-1.90136 -3.00527 -0.681756
-1.43307 -2.91427 -0.892209
-2.13112 -2.19237 -0.303062
-1.33421 -2.71883 0.00462166
-1.70127 -2.70634 -1.23831
-1.37355 -3.1701 -0.490746
-1.07423 -2.60284 0.491391
-2.03358 -2.10033 -0.222473
-2.40905 -1.80888 -0.833269
-1.13155 -3.08378 -0.0246561
-2.68136 -1.72798 -0.622108
-2.4923 -1.92431 -0.515309
-1.1794 -3.14726 -0.470356
-1.87338 -2.86175 -0.909702
-2.57552 -2.0164 0.120176
-1.62888 -2.8311 0.254863
-0.972758 -3.25385 -0.483549
-2.51123 -1.47868 -0.305546
-1.67885 -2.96726 -0.87077
-2.09826 -2.36838 -0.628727
-2.39637 -2.0424 0.145986
-2.80597 -1.49978 -0.0890105
-2.27088 -2.03245 1.34138
-1.75519 -2.67249 -0.0364162
-1.6175 -2.77063 -0.0197092
-2.12771 -2.64353 -0.254584
-2.04489 -2.38752 -0.670294
-2.53968 -1.90965 -0.720792
-1.65807 -3.03881 -1.29301
-2.12226 -2.09583 1.12083
-1.88498 -2.8948 -0.587488
-1.9898 -2.16666 -0.652884
-2.91217 -1.76623 -0.305741
-1.26388 -2.66226 0.121339
-0.795083 -3.10626 -0.130177
-2.23197 -2.14558 -0.802061
-1.55851 -2.91345 -0.0613962
-1.84682 -2.56926 -1.66594
-1.74001 -2.89368 -1.28779
-1.71912 -2.26143 0.836879
-1.12447 -3.06629 -0.325337
-1.41901 -3.28835 -1.08434
-2.17531 -2.31369 -1.33275
-1.56067 -2.75359 0.30625
-1.87752 -2.99839 -1.3114
-1.2114 -3.34302 -0.555153
-2.79657 -1.24287 -0.0751157
-2.45875 -1.72423 0.839359
-3.10916 -1.15966 0.0266757
-2.07295 -2.23819 1.08509
-1.74272 -2.81038 -0.79495
-1.43714 -2.72524 -0.192451
-2.05237 -2.42803 0.355136
-1.60503 -2.52023 0.353064
-2.01074 -2.16216 -1.20875
-2.48149 -1.8105 -0.949536
-2.1777 -2.00016 1.22995
-2.54236 -1.70178 0.501296
-1.34704 -3.3876 -1.04687
-2.01396 -2.26579 -1.28054
-2.34983 -1.89332 0.047195
-2.0803 -2.15975 0.608456
-1.90375 -1.97281 -1.27299
-1.96887 -2.41938 -0.754895
-2.42447 -2.31362 -0.0419319
-1.70623 -2.80437 0.115731
-2.99545 -1.24344 0.47343
-2.691 -2.12708 0.258713
-1.54296 -2.66025 -1.41459
-1.28658 -2.58984 0.579809
-2.32453 -1.80927 1.41819
-2.47592 -1.80609 0.579952
-1.53633 -2.74665 -0.0610073
-2.76554 -1.93971 0.519413
-2.21344 -2.25347 -1.34572
-2.62633 -1.79361 0.802139
-2.86274 -1.73952 0.671168
-1.10876 -3.00068 -0.72096
-1.78237 -2.93779 -0.993007
-2.0667 -2.59924 -1.42173
-1.98384 -2.58698 -1.0737
-2.82815 -1.17034 0.482522
-2.48703 -1.82055 0.604433
-2.5234 -1.50226 0.501777
-2.36091 -1.68997 0.858734
-1.29247 -2.83896 0.231303
-1.94012 -2.37273 -0.822188
-2.49377 -1.78563 0.30835
-0.985266 -3.03999 -0.365235
-1.40264 -2.45951 0.707497
-2.89391 -1.3971 -0.0167241
-2.50254 -1.8759 1.02899
-2.87619 -1.42924 0.257752
-1.78408 -2.7877 -1.50489
-1.65166 -2.67861 -0.900411
-1.91047 -2.13174 0.563421
-2.2626 -2.16999 1.29546
-2.74344 -2.00902 -0.883544
-2.76198 -1.53171 0.474198
-2.68319 -1.42008 -0.119134
-1.01736 -3.26823 -0.31162
-1.95161 -2.13554 -0.226017
-1.62661 -3.20578 -1.16447
-1.68561 -2.81848 -0.440855
-2.95801 -1.30732 -0.103333
-1.29326 -3.18948 -0.402157
-1.73929 -2.14086 -1.03674
-1.86302 -2.04329 0.805773
-2.45542 -2.08749 1.15828
-1.57208 -2.7255 0.48151
-2.32332 -1.89179 0.227591
-1.60288 -3.24575 -1.40073
-2.38527 -2.12728 0.108795
-2.21567 -1.72206 1.55706
-2.76231 -1.75812 0.292018
-1.82098 -2.28638 -1.0216
-1.58949 -2.55654 0.595318
-2.33619 -2.08724 0.129635
-2.04789 -2.11562 -0.604689
-1.70136 -2.95565 -0.918652
-2.89105 -1.52644 0.639564
-2.24988 -1.87233 -0.708201
-1.70418 -2.72801 -1.49983
-2.06248 -2.19258 0.71905
-2.75431 -1.42922 0.120027
-1.85182 -2.91249 0.0651047
-1.59552 -2.48052 0.810934
-2.39036 -1.85461 -0.617512
-2.10163 -2.4203 0.693499
-1.56385 -2.7423 -0.103199
-1.69052 -2.35933 0.718951
-1.88857 -2.54342 -1.33885
-2.05178 -2.40945 0.862613
-2.5431 -1.78253 -0.581962
-2.91381 -1.40749 0.496277
-1.32002 -2.98303 -1.18197
-1.94394 -2.14826 0.289491
-1.80491 -2.3093 -1.02398
-1.41757 -2.68406 0.153726
-1.87948 -2.48501 0.424422
-1.25393 -3.29362 -0.324616
-2.12944 -2.22617 1.17664
-1.33826 -2.79513 0.216817
-2.03271 -2.24875 0.322904
-1.45701 -2.78995 0.186805
-2.49785 -2.01082 -0.485273
-1.41604 -2.65249 0.527232
-1.75105 -2.74933 -0.546981
-2.2816 -2.40311 0.514745
-2.25461 -2.59856 -0.593639
-2.02364 -2.69824 -1.36522
-2.47663 -1.9778 0.90556
-1.7218 -2.36694 0.92032
-1.93326 -2.48315 -0.570423
-1.63933 -2.50763 0.641139
-1.90234 -2.14553 1.24282
-1.76845 -2.40963 -0.229978
-2.09163 -2.28963 -0.270366
-2.05823 -2.11899 0.914563
-2.82103 -1.18919 0.496589
-1.74568 -2.62176 -0.0426506
-2.15588 -1.93181 0.598131
-2.12995 -2.44939 -0.947054
-2.86203 -1.56159 -0.268653
-1.81727 -2.84412 -0.568394
-2.63805 -1.89183 -0.246644
-1.06657 -2.99771 0.0676707
-2.28114 -1.73752 0.845007
-1.10287 -3.03103 -0.370997
-1.81662 -2.01069 -0.624635
-1.76828 -2.86859 0.0158373
-1.97461 -2.57516 -0.679212
-1.18267 -3.01673 -0.187471
-1.80274 -2.10415 1.26253
-0.952689 -3.3831 -0.452179
-2.55649 -1.92957 0.352615
-2.07789 -1.82335 0.825354
-1.25679 -3.24198 -1.09849
-1.85352 -2.65237 -0.115777
-1.93722 -2.75253 -0.977097
-1.56501 -2.80854 -0.231227
-2.2258 -2.37022 -1.00572
-1.86583 -2.30809 -1.51392
-2.7313 -1.70305 0.0256162
-1.4862 -3.11047 -1.32237
-2.04524 -2.35333 0.379167
-2.0135 -2.50242 -0.360807
-1.54365 -2.25332 0.831561
-1.71646 -2.88321 -0.540264
-1.66959 -2.606 -0.173852
-3.00793 -1.21243 0.0826759
-2.19095 -2.14427 -0.290536
-2.23186 -1.84935 -0.215819
-2.38092 -2.11953 0.330338
-2.72607 -1.77969 0.534947
-2.44238 -1.43236 0.211173
-1.5461 -2.67138 -1.27793
-2.55908 -1.52748 -0.610987
-2.02104 -2.37516 0.80549
-2.02486 -2.52116 0.236513
-1.40245 -3.23175 -0.85527
-2.92167 -1.47179 0.0367741
-2.67802 -1.76944 0.235701
-1.27099 -3.03038 -0.751313
-1.57265 -2.59415 0.116106
-1.05799 -3.25008 -0.600309
-2.01796 -2.51221 0.0890416
-1.64571 -2.83662 -0.346015
-3.0504 -1.2428 0.0103625
-1.74479 -2.82816 -0.721634
-1.77429 -2.5469 -0.105116
-1.02634 -3.08354 -0.358624
-2.63578 -1.5971 0.485673
-1.66018 -2.98084 -0.873366
-2.03361 -2.77598 -1.72504
-1.95599 -2.28037 -0.810835
-2.07665 -2.01157 0.458214
-2.36133 -2.06898 -1.18273
-2.05531 -2.45731 0.725242
-1.07714 -3.15364 -0.182999
-1.94947 -2.37586 0.637493
-2.3076 -2.15795 0.445203
-1.95867 -2.37937 0.786932
-2.07545 -2.39201 -0.881643
-2.22182 -1.86438 1.60802
-2.4756 -1.73135 -0.539955
-2.24998 -1.9154 0.380059
-2.55238 -1.3068 0.165602
-1.83906 -2.12388 -1.14209
-1.66154 -2.5559 0.371047
-2.45706 -1.66608 0.0435106
-2.19566 -1.9294 0.978141
-1.64041 -2.81621 -0.937548
-2.37311 -1.85619 1.38332
-1.34079 -2.96659 0.117321
-2.02496 -2.48718 -1.50546
-1.28791 -3.0039 -0.622055
-1.10551 -3.16534 -0.269948
-1.36543 -3.18702 -0.619577
-1.36345 -3.17738 -1.02398
-2.65432 -1.7303 0.248143
-2.33062 -2.51802 0.246133
-2.66235 -1.5634 -0.520398
-2.31285 -1.56911 1.25043
-1.98971 -2.72714 -1.02027
-2.31715 -2.48205 -0.737524
-2.59058 -1.98051 0.162205
-2.29996 -1.94652 0.0622547
-2.72297 -1.20215 0.546379
-2.16785 -2.41918 0.226857
-3.14111 -0.932286 0.230956
-1.87246 -2.10022 -1.29638
-2.45497 -1.73594 -0.426868
-1.22088 -2.7943 -0.810879
-2.67441 -1.77336 0.794731
-2.27719 -2.25592 0.171117
-1.15238 -3.01025 -0.106902
-2.29466 -2.40599 -1.11068
-1.94786 -2.67007 -1.36523
-1.83706 -2.48879 -1.15495
-2.20366 -2.00737 -0.484151
-2.46309 -1.91489 -1.04913
-1.68331 -3.1492 -1.5248
-2.11099 -1.99128 0.887177
-1.28047 -2.91135 0.0383331
-1.71825 -3.02713 -1.64357
-1.71071 -2.17106 1.1383
-1.32012 -3.0115 -0.2079
-2.15181 -1.91964 0.369664
-2.10522 -1.87338 1.08243
-2.99734 -1.18429 0.377846
-1.79735 -2.72183 -1.39381
-1.34125 -2.79645 -0.424027
-1.92973 -2.24996 0.860009
-1.44566 -2.8105 -0.275477
-2.10162 -2.6804 -1.33098
-1.60573 -2.82045 -0.0140725
-2.27449 -2.2511 0.0558072
-2.84223 -1.67888 -0.308338
-2.64682 -1.8597 0.855409
-2.13484 -2.0437 0.0545274
-1.92337 -2.11738 -1.47728
-2.01811 -2.21473 -0.0495735
-1.32549 -2.83265 -0.3668
-2.15265 -1.95453 1.45528
-2.5551 -1.36039 0.990604
-2.78355 -1.5392 0.491968
-2.39783 -1.75784 0.827163
-2.10441 -2.28471 0.313034
-1.89882 -2.67318 -1.50536
-2.88434 -1.60014 0.583842
-1.64461 -2.52316 0.542538
-2.28897 -1.99031 0.972992
-2.47179 -1.85519 0.637641
-3.11015 -1.42845 0.124207
-2.40781 -1.91023 -0.0167719
-2.38169 -1.84287 -0.602687
-1.66853 -2.57055 0.597257
-2.14244 -2.06418 0.108473
-1.95969 -2.51133 -0.0808985
-2.24171 -2.50253 0.118394
