ply
format ascii 1.0
comment Created by Open3D
element vertex 250
property double x
property double y
property double z
end_header
2.66075 2.38364 1.81041
3.86696 0.55013 0.956022
1.71911 -1.44647 2.00555
2.18586 -0.320579 2.1498
2.94223 1.90951 1.56575
1.40741 0.302538 2.52488
0.104433 0.506962 3.66771
1.6697 -0.0371332 2.87582
2.17549 2.08891 1.50883
2.72958 0.640531 2.41442
3.49888 0.235897 1.65299
1.65567 -0.159326 2.40112
3.26661 1.01579 2.05852
1.62779 0.94422 2.62214
2.61234 0.74897 1.40251
3.57613 1.65005 1.74857
0.930102 0.333071 2.41639
0.466434 -0.693827 3.04221
0.538523 0.221593 2.58841
2.15514 -1.0541 2.12446
3.45399 0.176628 1.22448
1.38355 0.126002 3.62225
2.45306 1.14029 2.78181
1.02406 -0.137766 2.93731
1.94577 -0.900243 2.2149
2.65274 1.45119 2.02816
1.59302 1.1085 2.99205
4.02582 1.27398 1.44426
1.61916 -0.941992 2.33077
2.89258 0.461417 2.36766
2.569 2.46089 1.73038
4.08422 1.0353 1.19133
2.9574 2.06518 1.35251
3.42871 -0.232124 0.958805
3.76223 0.423312 0.83634
-0.119836 0.170196 3.39585
1.57035 -1.49094 1.92008
3.5964 0.0594331 0.86558
1.63014 0.627505 1.51199
1.77441 -0.706357 2.57482
1.82832 -0.726357 2.50256
1.5181 0.392659 2.8912
3.58462 0.590893 1.70194
3.61425 1.48118 1.74958
1.98878 -1.2917 1.62709
3.96161 1.14236 1.66803
1.00453 -1.74322 2.33364
3.84571 1.18053 1.61029
0.352049 -0.0063336 2.81979
2.69294 1.16213 1.79185
3.69079 0.108164 1.49652
1.86019 -0.963281 1.9522
0.872791 -1.55915 2.56748
2.97471 1.31042 0.891878
2.37591 0.192043 2.7188
0.806077 -1.44567 2.89728
1.90541 -0.39616 2.46782
2.05896 1.83833 1.36766
3.21435 0.147547 2.3058
1.37199 0.118763 2.47642
1.94819 0.558946 3.05766
0.855453 -0.383859 2.92604
2.25449 -0.657365 2.40699
3.1355 1.78393 1.73524
3.51554 1.37274 1.11014
3.42822 -0.124685 0.99007
2.79959 0.119949 1.9528
0.585753 -0.331728 3.39094
2.63398 2.0378 1.98577
1.84855 0.568716 2.46586
3.29012 0.655007 2.37679
1.96582 -0.985203 2.44342
2.0142 1.50193 1.0573
1.27002 -0.777607 2.4661
1.18006 -1.21452 2.19971
-0.254209 -0.0497648 3.1511
1.06249 -1.34929 2.88203
3.7185 1.33803 2.29797
3.10861 0.675766 2.01318
1.9875 0.410968 2.70973
1.51248 0.960942 2.67263
3.33996 -0.203422 1.46479
2.88996 1.25443 1.64265
1.16569 0.633775 3.13336
1.80887 0.0839616 2.70135
3.77524 1.63913 1.5494
0.71754 0.0877867 3.24972
2.4065 2.02525 1.66466
2.47113 0.0838098 3.43046
2.46257 0.234041 1.95593
1.43836 -1.69188 1.81295
0.974913 -0.325798 3.33654
2.62602 1.21122 1.78467
3.57965 1.27403 2.63923
3.17194 0.0280953 1.47564
1.46428 -0.940021 2.51686
1.99278 1.58518 1.88977
2.81452 1.95264 1.48719
3.2768 -0.196815 1.86445
1.31466 0.945647 2.26385
3.0874 0.571091 1.74
3.20716 1.60949 1.69215
3.33344 1.6094 2.15387
2.04102 1.70049 1.74214
3.7237 0.581323 1.66747
1.91669 1.10888 2.66653
1.49891 0.599169 2.54512
0.878097 -1.39232 2.98307
0.555465 -0.395353 3.26533
1.25889 -0.402501 2.51764
1.9006 -1.07964 2.03007
3.13438 -0.299035 1.84732
1.34533 -0.634067 2.4904
1.70883 1.59332 1.37284
1.15146 -0.696908 3.46863
2.97137 0.372371 2.14399
0.918246 -0.705576 3.10402
2.47623 1.57863 1.09796
3.31964 1.24963 1.80181
3.70328 0.609722 1.60552
0.0490908 0.308359 3.43722
3.7845 0.385096 1.79625
2.10785 0.392729 2.88427
3.59474 0.817154 1.72543
0.415407 0.249173 3.47785
0.591884 -0.937394 3.13365
2.73463 -0.537806 2.42257
2.1494 -0.93262 1.8673
1.48298 0.265651 2.55142
1.19531 -1.2557 2.66137
1.42971 -0.371805 2.88245
0.288798 -0.873703 3.04086
3.81157 1.02456 2.28011
1.01411 -1.75497 2.54609
2.24397 -0.919206 2.16844
1.60256 -0.495249 2.77562
0.89861 -1.00653 3.0288
2.05035 0.146461 3.13417
3.80628 0.380872 1.3148
0.166982 -0.103182 3.22329
3.70677 0.245593 1.00018
3.6296 1.46302 1.21576
1.18668 -1.66106 2.2275
3.22083 1.09427 2.04656
2.78948 1.11783 1.77197
3.69252 0.193012 0.929978
1.68335 0.870562 2.00077
1.23355 0.513228 3.48172
3.8239 0.327917 1.53606
2.43719 1.34558 2.00979
1.12222 -1.37653 2.72443
2.4279 1.55511 2.13036
0.831323 -1.53132 2.34989
3.88072 1.63346 1.63677
2.5796 2.23522 1.86394
2.85935 0.582397 0.942268
0.275624 -0.967837 2.67373
1.76474 1.54948 2.98515
2.29946 1.35969 2.65749
0.573558 -1.41271 2.52834
2.97037 -0.60711 1.0956
2.70389 -0.361583 2.20179
3.31403 -0.184991 0.598802
3.19265 1.02894 1.85346
1.72611 -0.880598 2.35721
0.609189 0.160239 3.5817
0.332317 0.236944 3.4601
3.86294 0.83778 2.12202
2.57867 1.90359 2.09156
1.90095 -0.814981 2.59011
3.26172 0.0574246 1.38338
0.24924 -0.229803 2.77029
1.87176 -0.466548 2.50042
3.63142 0.117443 0.972918
3.75945 0.590977 0.72408
3.67998 0.818116 1.68878
3.52796 0.588646 1.19949
2.82472 0.673324 2.1081
1.5593 -1.30806 2.55197
1.85905 0.381953 2.11313
1.43258 -1.15443 2.69808
1.07484 1.04373 2.68623
2.37237 1.62472 1.70164
3.04318 0.131422 2.21999
2.77991 -0.141482 1.68387
3.85294 0.349112 0.986903
1.96274 -0.390275 2.68006
1.25019 -0.122276 2.38523
3.13074 0.593582 1.5775
2.15773 0.279781 1.9716
3.17056 0.142762 1.48961
3.65868 0.0766744 1.21747
2.19184 0.335205 2.20519
3.17639 0.837892 0.895483
0.879621 -0.971326 2.38863
3.37748 -0.152153 0.517257
1.11286 -1.68452 2.65624
3.53246 0.599274 1.18264
2.16894 0.0911514 2.27824
2.33531 -0.343427 2.09921
1.04418 -2.28994 2.31478
1.09051 -2.40419 2.34651
1.19806 -2.37726 1.98857
0.543453 -3.51464 1.34941
2.00797 -1.11177 2.85586
0.73342 -2.32971 2.19629
1.41264 -2.39575 1.53707
0.411267 -2.75469 1.69151
1.23857 -2.718 1.78285
1.42493 -1.96294 2.1431
1.48899 -2.20847 1.46996
1.5172 -1.94648 2.46768
1.46339 -2.60755 1.76918
1.08965 -2.96856 1.63198
0.968217 -3.15154 1.1248
0.859646 -2.91162 1.81011
1.46508 -2.16823 1.88055
1.20135 -2.27794 2.28185
1.52096 -2.00415 1.82683
2.08483 -1.17537 2.31823
0.726684 -3.0704 1.57919
1.85101 -1.4522 2.03793
1.42227 -2.21222 1.59472
0.915095 -2.8477 1.96393
1.3244 -2.83777 1.15127
1.17897 -2.73839 1.83888
1.96504 -1.72936 2.09519
1.51775 -1.65709 2.22223
1.10725 -3.00673 0.998842
0.980209 -2.86481 1.99222
1.35881 -2.65611 1.61127
2.27285 -0.928976 2.61829
1.44688 -2.49006 2.06928
1.25147 -2.44375 2.21039
1.39842 -1.80411 2.00272
1.27062 -2.49591 1.63817
0.691861 -2.43121 2.19985
0.476772 -3.45375 0.963993
1.33619 -1.66967 2.54111
1.58654 -1.79757 2.07703
1.61344 -2.29792 1.75432
1.34016 -2.00906 2.42773
1.46227 -2.46418 1.66298
1.35307 -2.76516 1.7403
0.851735 -2.19143 2.22271
1.13625 -2.33446 1.95619
0.535432 -2.8141 2.01999
0.842235 -3.2886 1.30396
1.17244 -2.40001 1.8765
1.69505 -1.55056 2.37557
