ply
format ascii 1.0
comment Created by Open3D
element vertex 400
property double x
property double y
property double z
end_header
2.32824 -0.429394 -2.0222
1.65458 0.531315 -2.60994
1.48707 0.105608 -2.81143
1.75291 -0.78347 -2.43755
1.43816 0.410762 -2.83486
3.10218 -0.0961752 -1.43562
1.51322 0.397439 -2.76445
2.45396 0.495473 -1.91734
2.15298 0.690481 -2.10167
2.52127 -0.266738 -1.92866
3.04638 0.304381 -1.44482
2.11586 -0.455621 -2.23583
1.09097 0.809909 -3.08091
1.7964 -0.0963324 -2.51285
1.40278 0.401766 -2.86953
1.33013 0.2256 -2.96045
1.98048 -0.618259 -2.21513
2.35602 -0.907731 -1.91451
1.76267 0.474493 -2.52527
1.64373 1.06641 -2.48552
2.31424 -0.492781 -2.03656
3.02188 0.752478 -1.3523
1.91319 0.116035 -2.40713
2.75214 0.722971 -1.61131
2.3268 0.252586 -2.06829
1.78659 -0.49012 -2.56869
1.65485 0.76598 -2.55437
1.58807 0.244241 -2.70353
2.72697 0.978166 -1.48445
2.23866 0.658692 -2.06366
2.18598 -0.148052 -2.19132
1.23042 -1.00345 -2.94019
2.44025 0.496514 -1.91104
2.00663 -0.472077 -2.27402
2.45147 -0.965716 -1.75421
3.05465 0.0667879 -1.45174
1.98661 0.797641 -2.19477
2.1289 0.751705 -2.14928
2.63809 0.298129 -1.78773
3.03199 -0.286967 -1.50755
2.90464 0.681062 -1.49164
1.48572 0.0933892 -2.81363
1.49473 0.310141 -2.7902
2.25151 -0.51366 -2.07753
3.04172 -0.750455 -1.2801
2.80814 0.135736 -1.67849
2.03863 0.0769285 -2.31739
1.53008 0.143605 -2.76826
2.35118 -0.41668 -2.07399
3.13302 0.497754 -1.30788
1.94487 0.808888 -2.25245
2.10738 0.0297355 -2.25673
2.31741 0.0705153 -2.07697
2.09045 -0.548707 -2.22774
1.57338 -0.332694 -2.69049
1.33124 -0.42121 -2.9487
1.59927 -0.529618 -2.64774
3.51944 0.143353 -1.01943
2.14254 -0.749859 -2.20985
2.82387 -0.0708073 -1.65413
2.90974 -0.571617 -1.48466
1.37759 -0.913454 -2.8094
2.42182 -0.117826 -2.00189
2.17713 -0.370143 -2.16039
2.89227 -0.141324 -1.60265
1.60565 -0.52784 -2.65715
2.88182 0.547237 -1.53796
2.50842 -0.937704 -1.837
2.63072 0.55585 -1.7403
2.86767 -0.512284 -1.47485
2.15076 0.0196278 -2.2191
3.38216 0.171239 -1.15163
1.71594 0.56704 -2.52236
2.14508 1.10185 -2.01568
3.11732 -0.161886 -1.39886
1.4372 -0.515073 -2.83953
3.38666 0.548024 -1.04192
3.11128 0.619392 -1.25844
2.29861 0.454016 -2.0536
2.21548 0.894193 -2.00972
3.08964 -0.0447421 -1.44009
2.25307 0.55113 -2.08083
2.22531 -0.656089 -2.08276
2.9907 0.393894 -1.48665
3.50007 0.0495473 -1.02904
2.69834 0.437134 -1.72542
1.29566 0.439191 -2.96731
1.81457 0.889038 -2.38927
3.1994 0.789165 -1.05002
1.61156 -0.03564 -2.69761
2.73014 0.236448 -1.72413
1.26137 0.816898 -2.89309
1.79388 0.811892 -2.35751
2.84605 -0.446228 -1.57309
1.57539 0.545269 -2.68955
2.23377 1.03995 -1.91198
2.57448 -0.57696 -1.7683
1.15611 -1.04664 -2.99145
3.0555 -0.0968429 -1.43038
2.65696 -0.430101 -1.82765
3.38371 0.0543419 -1.15583
2.44323 0.257616 -1.9669
2.92602 -0.414062 -1.45684
3.26386 0.431503 -1.2122
2.96372 -0.680094 -1.429
2.79468 -0.660141 -1.4115
2.54811 0.360417 -1.86285
2.30219 0.881633 -1.90677
2.77024 -0.985965 -1.41312
1.91803 0.738621 -2.28281
2.11685 0.547112 -2.18113
3.16051 -0.606096 -1.21916
2.8983 -0.037722 -1.61798
1.71157 -0.0284479 -2.61905
2.23071 -0.984057 -1.99175
3.23516 -0.748374 -1.05032
2.05331 0.917138 -2.15311
3.06713 -0.128744 -1.46151
2.60415 0.282865 -1.83126
1.90714 -0.00416304 -2.44034
1.632 0.645313 -2.59089
1.22722 -0.944994 -2.94054
2.51128 -0.463683 -1.88033
2.58386 -0.581584 -1.78207
2.25155 -0.380894 -2.1647
2.68647 0.312202 -1.75713
2.11821 0.658008 -2.13584
3.27391 0.0810687 -1.25561
1.50119 -0.805335 -2.68643
2.66621 -0.345177 -1.81401
2.77897 0.586117 -1.6269
1.54249 0.417397 -2.70036
2.93793 -0.41549 -1.42111
3.15699 -0.842228 -1.00364
2.52332 0.585793 -1.82548
2.56807 -0.755359 -1.76177
3.1389 0.709206 -1.15115
3.20953 0.225134 -1.29689
2.05817 -0.66175 -2.15806
3.14964 -0.600837 -1.20517
3.31609 -0.332269 -1.19874
2.70741 0.700864 -1.57968
2.32684 -0.88056 -1.90828
3.03926 0.0591183 -1.4761
2.9988 -0.884681 -1.30792
1.66201 0.93516 -2.50067
1.55186 -0.130834 -2.74291
1.28652 0.85667 -2.86606
1.47055 -0.987079 -2.67987
3.01028 0.000143839 -1.50985
2.98575 -0.26697 -1.45897
1.98303 -0.583996 -2.32744
2.44077 -0.54945 -1.86937
2.87748 0.869911 -1.40192
2.23081 0.902632 -1.939
1.42857 -0.769066 -2.7632
1.65375 0.120116 -2.654
3.28922 -0.500575 -1.18703
2.89187 0.795057 -1.40603
2.0644 0.28217 -2.28101
1.91501 -0.421401 -2.38194
2.97832 1.12449 -1.20155
2.81245 0.364261 -1.64108
1.88492 -0.233059 -2.48045
2.31889 -0.813076 -1.97828
1.27718 0.550724 -2.97282
1.45211 -0.329938 -2.86341
3.47533 0.626954 -0.945006
2.48503 -0.804896 -1.69215
1.27869 -0.674808 -2.93756
1.64855 -0.0517248 -2.66093
2.73598 -0.469099 -1.65586
1.29352 -0.300861 -3.00579
2.65552 0.750631 -1.59943
1.35414 -0.260328 -2.93752
1.18785 -0.172852 -3.10995
3.57492 -0.101011 -0.927181
3.02596 -0.0388292 -1.5029
2.8713 0.492663 -1.50599
2.88945 0.357919 -1.56453
1.47544 0.695015 -2.76592
1.61524 -0.0946392 -2.69178
1.73887 0.386533 -2.55716
1.66699 -0.061336 -2.6304
2.60526 -0.862757 -1.61292
2.88029 0.474197 -1.56041
1.78458 0.169778 -2.53435
3.35282 -0.474711 -1.01733
2.35606 -0.752113 -1.83015
1.51809 0.687462 -2.68766
1.30787 -0.513501 -2.95432
1.44466 0.495045 -2.80668
3.21675 0.44184 -1.2139
3.2118 0.282573 -1.30517
2.16835 -0.269537 -2.15444
1.16332 -1.12408 -2.97127
1.90405 0.545192 -2.32498
1.46548 0.273483 -2.82077
1.79617 0.805617 -2.41233
2.97299 -0.987997 -1.21547
2.64492 0.356902 -1.78088
3.19007 -0.216574 -1.34897
2.83731 -0.279077 -1.63823
1.47535 0.8128 -2.68968
2.93202 -0.787226 -1.40605
3.18323 0.930264 -1.16317
2.08406 -0.338927 -2.1983
1.13535 -0.926552 -3.06605
2.14878 -1.03126 -2.01516
2.00176 0.164478 -2.3418
3.31319 -0.0988734 -1.22157
1.91187 -0.0836769 -2.44165
1.35295 -0.623998 -2.85449
1.48139 0.105928 -2.81681
3.08748 0.734455 -1.30665
2.17808 -0.862954 -2.0166
1.97468 -0.024693 -2.38139
2.69339 0.588557 -1.69839
3.07399 -0.0849683 -1.45718
1.25023 0.123364 -3.04225
2.47792 0.823516 -1.80125
3.30572 0.533422 -1.10866
1.82566 -0.565537 -2.43873
1.63503 0.626675 -2.60591
2.10929 -0.996535 -2.16277
2.01693 -0.967108 -2.1163
2.27873 0.729721 -1.99577
1.63688 -0.916022 -2.57305
2.74654 -0.430754 -1.65978
2.12076 -0.69334 -2.10417
3.06842 0.586153 -1.32475
1.54684 -1.04754 -2.61125
2.07927 0.719671 -2.16186
1.31912 0.360711 -2.95352
3.61419 0.198007 -0.915833
2.32677 -0.0656988 -2.04797
3.10757 0.717786 -1.29475
2.71338 -0.542786 -1.62158
2.08337 -0.671669 -2.20052
2.75247 -1.06669 -1.47128
1.34505 -1.07063 -2.78765
2.62295 -0.779607 -1.63011
2.14126 -0.277902 -2.20868
2.53412 -0.776178 -1.73906
2.09128 0.427209 -2.23059
2.34052 -0.900414 -1.83418
2.8714 -0.115928 -1.6248
1.60021 -0.785094 -2.66231
2.33206 -0.102467 -2.11075
2.91349 0.376384 -1.51354
1.3576 -0.555118 -2.90445
1.8806 -0.926704 -2.26278
2.75701 0.175642 -1.71474
2.12242 -0.844812 -2.07455
1.5868 -0.933283 -2.5397
2.78695 0.085283 -1.67612
2.44861 0.128227 -1.97488
1.72116 -0.630399 -2.51074
1.47487 0.666219 -2.77135
2.56207 -0.375596 -1.8432
1.95864 -0.110776 -2.36352
2.67911 0.375409 -1.74261
1.61198 0.652827 -2.59213
2.76028 -0.260133 -1.72698
1.83956 0.352993 -2.46242
2.82904 -0.912383 -1.35362
1.74413 -0.0870498 -2.55413
3.25489 -0.482736 -1.1356
2.99779 0.824821 -1.39208
2.29347 -0.838635 -2.01855
2.73709 0.118726 -1.7409
2.99715 -0.678439 -1.32647
1.7073 -0.853238 -2.42243
3.02529 -1.05114 -1.12812
1.63542 -0.0790298 -2.68292
1.94915 -0.114097 -2.35305
3.51505 -0.205911 -0.995361
2.47402 -0.398992 -1.93647
2.88348 0.120598 -1.61571
2.81166 -0.410723 -1.61758
2.58241 0.454903 -1.798
3.07955 0.903497 -1.15778
1.64928 0.365224 -2.63184
3.45096 0.0663592 -1.07945
2.0199 -0.489572 -2.29969
2.52852 -0.0458011 -1.92124
2.26598 -0.579312 -1.95688
2.83937 -0.299074 -1.64581
2.77129 -0.198121 -1.6767
1.38137 0.803323 -2.79686
2.3726 0.280831 -2.0236
2.34235 0.568569 -2.00212
1.77995 -0.248126 -2.55035
1.39481 -0.0798789 -2.90615
1.97569 0.697791 -2.29985
3.45242 0.550538 -1.01055
2.06089 1.00031 -2.08714
1.6607 -0.924075 -2.52761
2.05449 -0.603674 -2.27094
3.20734 -0.435631 -1.27954
1.45911 0.557839 -2.76905
1.6046 0.164684 -2.69882
3.40883 -0.170589 -1.1009
2.6457 -0.415864 -1.72846
3.29266 -0.628243 -1.06617
2.19186 -0.449007 -2.17555
2.7969 -0.376961 -1.65477
1.34766 0.790847 -2.8218
2.95729 -0.0812827 -1.55723
2.62373 -0.218144 -1.80739
3.25925 -0.571753 -1.08876
1.58662 0.230706 -2.71045
3.08434 -0.138211 -1.44486
2.95306 0.454792 -1.39516
2.86516 0.566084 -1.5527
2.11151 -0.0732833 -2.23232
2.43605 0.800097 -1.78057
1.62892 -0.991666 -2.55818
2.92317 -0.921061 -1.29331
1.89219 -0.733954 -2.35115
1.77002 -0.367837 -2.54574
1.74227 -0.89109 -2.45015
2.73015 0.426669 -1.69225
1.21059 -0.89149 -2.95391
2.15318 0.783194 -2.08806
1.99377 0.0483592 -2.34713
1.87788 0.827627 -2.35847
3.07369 0.95228 -1.22563
2.32857 -0.648662 -1.9602
1.98357 0.517274 -2.3183
1.6448 -0.445529 -2.61264
3.20466 0.137776 -1.32545
1.22215 -0.732041 -2.99268
2.54216 -0.983041 -1.66308
2.92095 0.661831 -1.39018
3.3118 -0.248671 -1.17855
2.98799 -0.846318 -1.27433
3.08051 -0.574793 -1.35231
3.40262 -0.197313 -1.12132
1.63795 0.2158 -2.66379
1.68671 -0.732618 -2.61729
1.91768 0.871795 -2.25458
1.54294 -0.177638 -2.73112
2.84295 0.157205 -1.64483
2.35516 0.117099 -2.06684
1.68228 -0.018926 -2.64364
2.10408 0.226204 -2.25194
1.56543 0.656592 -2.69069
1.95577 -0.499932 -2.38072
1.23493 1.00573 -2.91418
3.03823 1.02348 -1.19299
2.14735 0.724642 -2.1177
3.62619 0.235207 -0.914493
1.31472 -0.243382 -2.97846
1.95001 -0.262956 -2.40433
2.94338 -0.749716 -1.34066
2.52413 0.442304 -1.8398
3.0042 0.438523 -1.41956
3.09535 0.575844 -1.33013
2.46306 0.566727 -1.89586
2.27733 0.850417 -1.90672
3.2965 0.0718206 -1.21567
1.76884 -0.428432 -2.49632
2.76008 -0.769667 -1.51713
3.30038 0.264056 -1.15952
1.85922 -0.813338 -2.28233
2.88443 -0.687301 -1.46053
2.11846 0.0934525 -2.23271
1.70351 -0.419084 -2.545
1.31686 0.677573 -2.90955
3.18499 0.456167 -1.2555
3.23881 -0.124959 -1.25366
1.81236 -0.741401 -2.39877
2.98694 -0.324718 -1.46008
2.81218 0.345193 -1.61068
2.55017 -0.665299 -1.79647
2.03289 -0.160052 -2.33771
1.63744 0.549798 -2.59089
1.2683 -0.401796 -3.01505
2.28491 0.181219 -2.09773
2.97713 1.04969 -1.18324
2.43455 0.0895819 -1.97735
3.1855 -0.227795 -1.28477
1.31808 -0.88752 -2.83884
1.518 0.223263 -2.77985
1.43089 0.243878 -2.85621
1.61223 -0.145911 -2.68284
2.04219 -0.352201 -2.29925
3.08321 0.52073 -1.30539
1.25736 0.0661068 -3.03598
2.2039 -0.767821 -2.0284
1.50775 -0.565864 -2.73969
1.59792 -0.162207 -2.70606
1.22215 0.486389 -3.00407
2.01978 0.279967 -2.32089
2.28579 0.738367 -1.9889
2.07638 -0.916658 -2.11195
2.23628 0.109148 -2.14224
2.39697 -0.269156 -2.01483
1.90356 -0.556619 -2.43942
