ply
format ascii 1.0
comment Created by Open3D
element vertex 400
property double x
property double y
property double z
end_header
-0.0403016 2.87166 1.32741
-1.26949 2.49102 1.52531
-1.29242 2.70688 1.11936
-0.448508 3.03207 0.675727
-1.48192 2.5703 1.29476
0.541529 2.3665 2.1857
-1.3841 2.58708 1.33298
-0.366248 2.39486 2.07104
-0.773559 2.10834 2.03708
0.00380201 2.60369 1.63158
0.350607 2.39992 2.36758
-0.3168 2.741 1.20447
-2.06485 2.16259 1.38209
-0.802259 2.88776 1.1622
-1.52363 2.5583 1.26903
-1.53735 2.66742 1.09478
-0.212423 3.18358 0.886105
0.242411 2.77756 1.07458
-1.10296 2.65459 1.52735
-1.43925 2.21878 1.87448
-0.0388964 2.82993 1.29128
0.21368 2.2961 2.61909
-0.753686 2.89117 1.36439
-0.0846002 2.38815 2.40045
-0.445192 2.38425 1.85189
-0.759756 2.47809 1.03239
-1.34972 2.3209 1.69474
-1.27511 2.37764 1.34561
-0.1601 2.01247 2.59847
-0.647971 2.37319 2.01866
-0.379641 2.73309 1.43701
-1.00647 2.9373 0.223254
-0.407316 2.16068 2.11604
-0.345546 2.9818 1.05247
0.455321 2.87404 1.06878
0.504965 2.73945 2.15405
-0.989206 1.96134 2.01367
-0.778363 2.51613 1.96222
-0.140689 2.16277 2.14206
0.520179 2.29823 2.04469
0.0980247 2.4054 2.47752
-1.30669 2.6081 1.13543
-1.37568 2.59434 1.26918
-0.0833195 2.86987 1.22442
0.988681 2.78817 1.62335
0.140889 2.4739 2.09356
-0.649827 2.66592 1.48466
-1.23666 2.81138 1.14448
-0.130707 2.57009 1.43593
0.394073 2.2497 2.56559
-1.03427 2.10514 1.96068
-0.543258 2.71427 1.49183
-0.323637 2.71776 1.65802
-0.268338 2.82098 1.1081
-0.915583 3.05279 0.829426
-1.23664 2.79915 0.682826
-0.798579 2.99035 0.743336
0.99723 2.58391 2.54752
-0.185823 2.60417 1.08296
0.29599 2.72362 1.92084
0.694027 2.8089 1.64884
-0.876704 2.92414 0.378644
-0.148015 2.67201 1.63241
-0.241344 2.87499 1.25984
0.385761 2.66294 1.94208
-0.820017 2.89975 0.773261
0.0971623 2.35607 2.40013
0.347574 2.57598 1.21889
-0.199262 2.23235 2.2619
0.693421 3.00286 1.59999
-0.488107 2.72487 1.51282
0.802627 2.48677 2.49638
-1.23998 2.17824 1.65794
-0.853887 2.23719 2.22549
0.656242 2.66242 2.08164
-1.06812 2.77181 0.703524
0.694757 2.22707 2.76502
0.346775 2.08148 2.65116
-0.537723 2.32836 1.95757
-0.734784 2.23126 2.16259
0.540151 2.53455 2.16543
-0.585682 2.52468 1.93377
-0.0443661 2.84155 1.12705
0.294687 2.62647 2.3261
0.992136 2.42096 2.51771
-0.0707777 2.45948 2.19071
-1.67534 2.49517 1.23431
-1.18753 2.38056 1.85634
0.453774 1.89595 2.83287
-1.08723 2.71167 1.11906
0.0634144 2.67415 2.04718
-1.85007 2.11302 1.50715
-1.21532 1.92893 1.89814
0.545005 2.8238 1.68108
-1.35709 2.58969 1.4576
-0.742558 2.02179 2.29718
0.337029 2.89421 1.39593
-1.04104 3.05848 0.11578
0.608339 2.84174 2.03042
0.189382 2.47566 1.66203
0.875539 2.64604 2.39126
-0.285319 2.55756 1.89184
0.688198 2.9817 1.70791
0.569051 2.33176 2.59884
0.789344 2.70354 1.64602
0.806816 3.17712 1.39976
-0.182818 2.64756 1.99926
-0.639322 2.05091 2.25316
0.874199 2.85004 1.2683
-1.05502 2.02593 1.92172
-0.774795 2.2259 1.90828
1.02899 2.79062 1.79527
0.291875 2.4253 2.06806
-1.0202 2.49893 1.24426
0.164224 2.81303 0.93071
1.2577 2.78471 1.74623
-0.922687 2.27537 2.05558
0.547285 2.53112 2.10208
-0.138833 2.42888 2.04789
-0.783302 2.60332 1.36451
-1.35082 2.25466 1.62747
-1.01303 3.04967 0.227638
0.152602 2.78629 1.45534
0.319351 2.82388 1.42042
-0.266444 2.5439 1.39627
-0.0537042 2.43916 2.11807
-0.808767 2.07368 2.00353
0.684059 2.34142 2.40699
-0.750787 3.02685 0.498358
0.17913 2.53271 1.70326
-0.0174434 2.45971 2.32782
-1.41068 2.10023 1.47605
0.73523 3.05109 1.69398
1.3279 2.9306 1.58309
-0.326253 2.23503 2.20443
0.395143 2.78617 1.31121
0.3824 1.92126 2.74712
0.556524 2.3006 2.45504
-0.131504 3.0871 0.938608
1.04708 2.86744 1.7683
0.948347 2.50747 2.14976
-0.143294 1.94793 2.45183
0.242753 2.88551 1.03906
0.393508 2.22609 2.26555
0.980625 2.65515 1.54621
-1.38677 2.23686 1.81095
-1.08182 2.8763 0.981661
-1.82871 2.14232 1.53954
-0.689675 2.98659 0.375152
0.432619 2.54455 2.13552
0.63606 2.899 1.86399
-0.387117 2.78421 1.02446
0.20034 2.97476 1.29907
0.0280752 2.086 2.62775
-0.724881 1.93088 2.24098
-0.853018 3.06457 0.463462
-1.10053 2.69778 1.24114
1.01769 2.51371 2.02538
0.0568478 2.05812 2.60329
-0.706827 2.59132 1.6381
-0.507749 2.90106 1.04436
0.121709 2.03542 2.83831
0.0732374 2.44023 2.23275
-0.749535 2.4948 1.24524
0.135876 2.78266 1.10898
-1.73724 2.47481 1.29023
-1.20731 2.4868 0.897579
0.787767 2.27774 2.85579
0.492483 3.09821 1.12575
-1.08834 3.12429 0.409936
-1.02741 2.75515 1.12343
0.447613 2.86633 1.58038
-1.38767 2.57611 0.785989
-0.209562 1.90249 2.45241
-1.28869 2.77488 0.80001
-1.56331 2.61954 0.780767
1.23985 2.82874 2.3751
0.44167 2.43182 2.15184
0.082154 2.00783 2.43847
0.142364 2.27232 2.32043
-1.53002 2.55331 1.48445
-1.04852 2.75784 1.07534
-1.09242 2.71512 1.44689
-0.959706 2.93454 1.08432
0.606209 2.94856 1.21417
0.11839 2.41555 2.3455
-0.978868 2.6332 1.37375
1.24491 2.92752 1.9637
0.307428 3.1248 1.06705
-1.49763 2.24301 1.57722
-1.19536 2.90049 0.585777
-1.51774 2.41326 1.38278
0.508429 2.12534 2.61625
0.569065 2.54687 2.43223
-0.263381 2.98186 1.28455
-1.00094 2.99035 0.0894664
-1.04123 1.87666 1.84028
-1.39967 2.58424 1.23117
-1.19509 2.29087 1.81794
1.1068 2.75705 1.42372
-0.0656672 2.69233 2.05248
0.706491 2.4068 2.16333
0.395612 2.69222 1.81486
-1.5853 2.14755 1.63874
0.844214 2.73036 1.54656
0.372283 2.34693 2.81212
-0.287865 3.0869 1.15612
-1.18709 2.90748 0.218369
0.145514 2.90088 0.817882
-0.718452 2.68419 1.50516
0.796282 2.30191 2.33787
-0.75202 2.58854 1.32567
-0.990455 3.23711 0.459591
-1.3366 2.48984 1.16843
0.294574 2.34523 2.64313
0.101685 2.988 0.919855
-0.69408 2.62608 1.3928
-0.115101 2.4482 2.27341
0.530671 2.50245 2.13962
-1.60607 2.60792 0.997171
-0.423493 2.23485 2.30196
0.599601 2.15488 2.71837
-0.527475 2.928 0.889112
-1.33008 2.39584 1.58737
-0.0484794 2.66206 0.888788
0.00394624 3.03728 0.730495
-0.632393 2.21093 2.12118
-0.588664 2.82956 0.574341
0.42967 2.84779 1.61676
-0.0551826 3.04436 0.973079
0.298713 2.14474 2.59221
-0.593634 2.88488 0.415843
-0.861239 2.13634 1.99665
-1.61637 2.52613 1.1979
1.09374 2.54942 2.64862
-0.21052 2.88553 1.5403
0.321554 2.35634 2.64526
0.515628 2.97387 1.48652
-0.190285 2.86473 1.01492
0.821804 2.67355 1.25908
-0.795974 2.98874 0.240203
0.566145 2.95608 1.27866
-0.342166 2.8298 1.30341
0.429291 2.90723 1.23762
-0.772588 2.24986 1.81953
0.339049 3.00805 0.996317
0.344148 2.63901 1.94928
-0.751719 2.71483 0.663809
-0.335353 2.35953 1.66155
0.155143 2.08711 2.38736
-1.12557 2.84591 0.607284
-0.188379 3.05031 0.663189
0.0862875 2.55043 2.06224
0.0240101 2.99324 0.893045
-0.524286 3.123 0.445818
0.207377 2.77928 1.97196
-0.230078 2.59269 1.81335
-0.591573 2.99781 0.75996
-1.52075 2.5654 1.4651
0.171038 2.80446 1.53824
-0.602212 2.9061 1.25808
-0.103446 2.24952 2.19251
-1.38549 2.12513 1.64692
0.263543 2.58274 1.80393
-1.03128 2.28996 1.59757
0.930889 2.9289 1.33076
-0.849506 2.96029 1.11383
1.1034 2.89081 1.90707
0.184521 2.55101 2.58648
0.0911546 2.7161 1.09601
0.0676616 2.47891 2.03423
0.918032 2.88178 1.61385
-0.40001 3.18339 0.557762
1.2138 2.68024 1.43371
-1.06445 2.61118 1.13527
-0.573511 3.03773 1.21454
1.15836 2.57424 2.3375
0.0532414 2.72437 1.48702
0.211051 2.36126 2.16367
0.475543 2.80253 1.68618
-0.239196 2.15109 2.19236
0.278636 1.96083 2.8033
-1.2414 2.37223 1.45621
0.919309 2.39903 2.50084
-0.38296 2.81345 1.09846
-0.0810518 2.58921 1.76925
0.101292 3.16989 1.10445
0.388687 2.63526 1.81997
0.324345 2.81746 1.7838
-1.69482 2.23074 1.55354
-0.376085 2.52884 1.86363
-0.49027 2.52731 2.00381
-0.814245 2.67217 1.11841
-1.3476 2.6175 0.972213
-0.928592 2.6073 1.80743
0.772324 2.37505 2.77967
-0.93654 2.05859 2.15186
-0.525353 2.90223 0.563925
-0.309025 2.7466 1.07156
0.895138 2.60051 1.9904
-1.53159 2.26756 1.46043
-1.20948 2.50537 1.28091
1.04177 2.74601 2.24663
0.338937 2.92997 1.53379
1.21398 2.75767 1.87351
-0.241744 2.71986 1.26609
0.41234 2.73086 1.71751
-1.73503 2.1681 1.53778
0.409599 2.57055 2.04574
0.159014 2.79279 1.67824
1.1805 2.88863 1.85103
-1.22922 2.64933 1.27175
0.573228 2.5375 2.10639
0.195042 1.84185 2.50527
0.0781992 2.40239 2.38867
-0.448662 2.88907 1.3883
-0.472374 1.89464 2.33256
-0.546279 2.84136 0.518025
1.00551 2.82442 1.41867
-0.361453 2.90561 0.835974
-0.753115 2.74118 1.02252
-0.437163 2.9249 0.632034
-0.051461 2.30988 2.24154
-1.02622 3.2066 0.209421
-0.786462 2.19074 2.06923
-0.661263 2.78219 1.40765
-1.08733 2.51475 1.83496
0.243315 2.21447 2.77712
0.11299 2.93558 1.1731
-0.879959 2.52499 1.73135
-0.782863 3.00557 0.820596
0.606965 2.53341 2.34824
-1.14117 3.0809 0.349554
0.571666 2.85139 1.12362
0.117116 1.94099 2.57504
0.975949 2.78306 2.12484
1.01482 2.81096 1.51616
0.853902 2.68177 1.79658
1.0046 2.57845 2.26999
-1.18465 2.52392 1.32796
-0.720797 2.59549 0.787444
-1.07913 2.07152 1.98353
-1.01348 3.12616 0.884208
0.14625 2.31042 2.16887
-0.397687 2.25855 1.82627
-1.05463 2.51067 1.22695
-0.637376 2.6248 1.62507
-1.39971 2.63955 1.50266
-0.492266 2.69742 1.08132
-1.93495 2.23987 1.5687
0.201666 2.07162 2.81852
-0.775225 2.27208 2.01545
1.1258 2.79067 2.62158
-1.34968 2.75319 0.789564
-0.61981 2.65401 1.22996
0.916343 2.89817 1.52601
-0.309328 2.05445 2.16732
0.250626 2.12088 2.47459
0.333804 2.28533 2.5753
-0.370754 2.41498 2.11175
-0.663201 1.89619 2.25181
0.705819 2.19852 2.44811
-0.642676 3.00284 0.914073
0.704609 2.91053 1.38975
0.656444 2.09439 2.57956
-0.239525 3.17187 0.685748
0.755067 2.83 1.55084
-0.525293 2.83003 1.50613
-0.698767 3.09127 0.852323
-1.73116 2.41523 1.401
0.465112 2.18502 2.59098
0.847368 2.87116 2.12835
-0.414703 2.9999 0.750771
0.65135 2.85117 1.84295
0.0419778 2.06586 2.30699
0.325792 2.81014 1.34928
-0.579238 2.6172 1.35639
-1.33109 2.12595 1.60725
-1.32959 2.77652 0.658934
-0.401585 2.70937 1.70155
0.144558 1.9025 2.82261
-0.199488 2.72352 1.74775
0.843882 2.88154 2.02677
-0.897278 3.15262 0.294151
-1.26228 2.93939 1.15207
-1.43136 2.58273 1.19162
-0.997571 2.89511 1.00797
-0.435604 2.78231 1.20488
0.331332 2.04775 2.58635
-1.57913 2.57924 0.975418
0.0610157 2.97524 1.00209
-0.905115 2.94688 0.672607
-1.03677 2.77391 1.01997
-1.80207 2.22544 1.27282
-0.767899 2.53034 1.62148
-0.625315 2.22287 2.12802
-0.00428548 2.94657 0.830561
-0.426055 2.72508 1.62287
-0.100303 2.70722 1.51686
-0.553602 2.61252 1.03554
