ply
format ascii 1.0
comment Created by Open3D
element vertex 200
property double x
property double y
property double z
end_header
-2.85722 -0.627548 0.998226
-0.219951 2.24916 2.20514
-0.395309 0.784863 3.38002
-2.25468 2.2151 -0.0020945
-1.09338 2.98161 0.339268
-0.810374 2.68007 1.31186
-2.69381 1.61398 -0.0122177
-2.90849 1.66326 -0.830919
-2.54569 1.43051 1.365
-1.47196 1.90774 2.59855
-1.6156 0.852717 3.52222
-2.84664 -0.699407 0.976809
-1.82176 2.64599 -0.0307779
-2.4403 2.22805 -0.55887
-1.19393 1.21552 3.4092
-2.06313 0.480803 3.31275
-1.41269 2.92781 0.02978
-1.817 2.33394 0.917341
-2.17802 1.98527 1.05309
-2.3306 2.38522 -0.599533
-0.554921 3.23139 0.332772
-2.46005 -0.123025 2.49429
-2.95961 -0.117892 0.90132
-1.74518 2.21929 1.47127
-1.02692 0.832148 3.53154
-2.4155 1.85096 0.533392
0.0212315 2.69405 1.52235
-2.54145 0.642845 2.58335
-2.77039 0.876764 1.43201
-2.65792 0.354406 2.2426
-1.15374 1.40795 3.27878
-0.184974 2.77088 1.3686
-2.02988 2.09731 1.15426
-2.94082 0.935929 0.278896
-2.53624 1.66638 0.586502
-0.4207 1.84041 2.75192
-1.48709 1.22032 3.39571
-2.45427 0.300405 2.7483
-0.673191 1.31276 3.26035
0.00716593 1.12971 3.11754
-1.56616 2.6724 0.413935
-2.78156 0.47644 1.7475
-2.83819 0.658666 1.32364
-2.49116 -0.0123871 2.50966
-1.02398 2.80635 0.8345
-2.73322 1.93961 -0.793154
-1.04467 1.36716 3.29957
-2.63891 1.77672 -0.188589
-2.82199 -0.770235 0.994386
-0.694358 0.966811 3.42425
-2.64744 -0.341003 1.87103
-2.64139 0.605804 2.28464
-1.54758 2.16049 1.96588
-0.210366 2.14279 2.34726
-0.0779305 3.02191 0.960193
0.107781 0.766358 3.19709
-1.4765 2.35943 1.50133
-2.16742 1.23484 2.94681
-0.393104 2.41723 1.95557
-0.407553 2.28399 2.16993
-1.61123 1.61114 2.99332
-2.68674 -0.525799 1.59712
-2.94685 0.762715 0.528961
-2.025 1.37397 2.97177
-2.72726 1.29614 0.692714
-2.53363 1.71535 0.435522
-2.50382 2.08402 -0.436343
-0.387043 1.91791 2.65832
-1.69388 1.64515 2.89769
-2.62662 1.75145 -0.0798463
-0.264388 2.10464 2.40639
-1.69536 1.40759 3.18777
-0.448392 1.58093 3.00479
-0.549729 2.34762 2.06394
-1.68128 2.44523 0.865061
-1.86667 1.65584 2.72888
-2.08456 2.21279 0.556464
-2.62208 2.16076 -0.87624
-0.150146 2.56257 1.72532
-2.62439 0.616123 2.33998
-2.61451 1.84456 -0.258573
-0.311591 1.1599 3.22589
-2.07709 1.45974 2.78475
-2.45887 0.527001 2.78735
-1.63431 1.14348 3.40951
-1.55188 1.11482 3.44352
-1.80051 1.44831 3.08484
-1.98784 2.5908 -0.25692
-0.421121 2.73967 1.3656
-2.4213 0.791111 2.82484
-1.37602 2.82451 0.333514
-2.87109 0.0613096 1.33605
-2.79072 2.11266 -1.16148
-1.45804 1.91506 2.59322
-2.51173 0.157998 2.56595
-1.92581 2.42974 0.321225
-1.21649 2.47528 1.49092
-0.552851 2.9811 0.821255
-0.0382607 1.05817 3.16548
-1.13416 2.92146 0.429605
-2.64624 -0.342677 1.87286
-1.5202 2.52633 0.92702
-2.99815 0.825525 0.157213
-1.11579 2.01374 2.55433
-1.26747 1.94248 2.63107
-2.64495 -0.364999 1.85698
-1.62811 1.81937 2.65554
-0.584093 2.76793 1.24467
-2.06632 1.2327 3.07773
-2.32381 1.92643 0.671548
-1.90789 2.68564 -0.302267
-2.39859 1.47026 1.95644
-2.62544 1.82006 -0.24078
-2.61126 1.20048 1.6759
-1.52737 2.00397 2.36526
-0.762846 2.76682 1.14649
-0.526873 1.42291 3.14749
-1.75062 2.68504 0.0182536
-2.16627 1.39572 2.74003
-1.10032 1.65745 3.04546
-2.70386 1.10438 1.3724
-2.69049 -0.021461 1.98409
-0.942479 1.06429 3.44776
-1.62549 0.661643 3.54173
-0.0370577 2.57707 1.70438
-2.69406 1.48082 0.344111
-1.52543 2.57246 0.778589
-0.180744 1.66282 2.85173
-2.95123 0.91962 0.251421
-0.770265 1.85728 2.79473
-0.240671 1.68745 2.85001
-2.76056 -0.429547 1.46083
-2.56906 0.214533 2.45606
-2.19093 2.03668 0.80873
-2.58828 2.06177 -0.62634
-1.62058 2.29469 1.46857
-2.632 0.874427 2.14392
-2.54002 1.31314 1.75469
-2.23011 0.18901 3.05007
-2.09061 1.7799 2.05824
-1.73178 2.53163 0.483328
-2.49449 0.935769 2.56028
-2.71279 0.675271 1.96715
-1.99229 1.78631 2.26213
-1.70519 1.78706 2.65134
-0.574886 2.53845 1.71118
-2.8808 -0.115373 1.23278
-3.00849 0.542509 0.45733
-2.96897 1.78665 -1.13308
-1.38374 1.78914 2.83594
-2.45319 1.29187 2.18406
-0.165823 2.31474 2.10564
-2.32408 0.339088 2.98474
-1.74189 1.00016 3.44219
-0.554307 1.58752 3.029
-0.380078 1.85799 2.72319
-1.14833 0.96921 3.51196
-1.22615 1.72874 2.95436
-2.52006 1.65172 0.722669
-1.07127 2.40149 1.79142
-2.87315 0.56728 1.20775
-2.34537 0.711025 2.98762
-1.2947 2.65059 0.918984
-0.720533 2.14527 2.38922
-0.949603 2.62126 1.35405
-1.82337 1.22889 3.27728
-2.82899 1.15894 0.447525
-1.95154 0.471665 3.39187
-1.96294 1.66751 2.58297
-2.70009 -0.194535 1.83587
-1.92081 2.28878 0.794986
-2.41393 0.44014 2.8639
-1.20246 1.69025 3.00405
-1.60023 2.60776 0.532757
-1.51766 2.69564 0.438248
-2.45375 0.60453 2.79766
-1.12259 1.30815 3.3477
-0.0982998 0.926774 3.23534
0.170145 3.47148 0.35585
-2.01954 1.61927 2.59196
-1.72488 0.503519 3.50522
-0.504074 3.24219 0.349886
-1.8346 1.21437 3.28162
-0.637003 3.04395 0.636289
-2.76532 0.241242 1.82899
-2.95768 1.18547 -0.239182
-1.30851 2.04893 2.41943
-2.74775 0.837396 1.6249
-0.388714 1.59434 2.97581
-0.321603 2.40448 1.97809
-0.584883 1.84921 2.77719
-0.586007 1.88415 2.73694
-1.17419 1.44694 3.24833
-0.882726 2.67924 1.26529
-2.22432 2.04591 0.645539
-2.51303 1.15039 2.23135
-0.178061 2.19172 2.27735
-2.94501 0.503977 0.846399
-2.37388 0.24592 2.87186
-1.34649 1.38531 3.29471
