ply
format ascii 1.0
comment Created by Open3D
element vertex 400
property double x
property double y
property double z
end_header
1.32741 -2.0222 1.9868
1.52531 -2.60994 0.8434
1.11936 -2.81143 0.993338
0.675727 -2.43755 1.81708
1.29476 -2.83486 0.756973
2.1857 -1.43562 2.11642
1.33298 -2.76445 0.832574
2.07104 -1.91734 1.41992
2.03708 -2.10167 0.970284
1.63158 -1.92866 1.88116
2.36758 -1.44482 1.94315
1.20447 -2.23583 1.74467
1.38209 -3.08091 0.107078
1.1622 -2.51285 1.43475
1.26903 -2.86953 0.724647
1.09478 -2.96045 0.793791
0.886105 -2.21513 2.0238
1.07458 -1.91451 2.18593
1.52735 -2.52527 1.0426
1.87448 -2.48552 0.509329
1.29128 -2.03656 1.97687
2.61909 -1.3523 1.7249
1.36439 -2.40713 1.44094
2.40045 -1.61131 1.57203
1.85189 -2.06829 1.39911
1.03239 -2.56869 1.33069
1.69474 -2.55437 0.669676
1.34561 -2.70353 0.829582
2.59847 -1.48445 1.28837
2.01866 -2.06366 1.18983
1.43701 -2.19132 1.66012
0.223254 -2.94019 1.42807
2.11604 -1.91104 1.27925
1.05247 -2.27402 1.83149
1.06878 -1.75421 2.3724
2.15405 -1.45174 2.24101
2.01367 -2.19477 0.73231
1.96222 -2.14928 1.15411
2.14206 -1.78773 1.49566
2.04469 -1.50755 2.09658
2.47752 -1.49164 1.71223
1.13543 -2.81363 0.939065
1.26918 -2.7902 0.854663
1.22442 -2.07753 1.96596
1.62335 -1.2801 2.67381
2.09356 -1.67849 1.86087
1.48466 -2.31739 1.41433
1.14448 -2.76826 1.07451
1.43593 -2.07399 1.79293
2.56559 -1.30788 1.86767
1.96068 -2.25245 0.770707
1.49183 -2.25673 1.5158
1.65802 -2.07697 1.66241
1.1081 -2.22774 1.82291
0.829426 -2.69049 1.46336
0.682826 -2.9487 1.1442
0.743336 -2.64774 1.53679
2.54752 -1.01943 2.48978
1.08296 -2.20985 1.80821
1.92084 -1.65413 2.10931
1.64884 -1.48466 2.47248
0.378644 -2.8094 1.49821
1.63241 -2.00189 1.78798
1.25984 -2.16039 1.84438
1.94208 -1.60265 2.15263
0.773261 -2.65715 1.48173
2.40013 -1.53796 1.71012
1.21889 -1.837 2.17549
2.2619 -1.7403 1.44626
1.59999 -1.47485 2.54815
1.51282 -2.2191 1.55975
2.49638 -1.15163 2.3097
1.65794 -2.52236 0.707075
2.22549 -2.01568 0.90771
2.08164 -1.39886 2.33848
0.703524 -2.83953 1.25617
2.76502 -1.04192 2.04882
2.65116 -1.25844 1.73021
1.95757 -2.0536 1.27735
2.16259 -2.00972 1.02189
2.16543 -1.44009 2.1865
1.93377 -2.08083 1.32198
1.12705 -2.08276 1.99535
2.3261 -1.48665 1.9984
2.51771 -1.02904 2.42117
2.19071 -1.72542 1.66266
1.23431 -2.96731 0.587296
1.85634 -2.38927 0.788196
2.83287 -1.05002 1.67404
1.11906 -2.69761 1.15337
2.04718 -1.72413 1.88524
1.50715 -2.89309 0.223526
1.89814 -2.35751 0.560184
1.68108 -1.57309 2.36626
1.4576 -2.68955 0.829644
2.29718 -1.91198 0.886865
1.39593 -1.7683 2.2683
0.11578 -2.99145 1.46493
2.03042 -1.43038 2.37791
1.66203 -1.82765 1.97187
2.39126 -1.15583 2.45032
1.89184 -1.9669 1.58878
1.70791 -1.45684 2.5267
2.59884 -1.2122 2.037
1.64602 -1.429 2.5011
1.39976 -1.4115 2.70749
1.99926 -1.86285 1.68546
2.25316 -1.90677 1
1.2683 -1.41312 2.64006
1.92172 -2.28281 0.72972
1.90828 -2.18113 1.05066
1.79527 -1.21916 2.6899
2.06806 -1.61798 1.96666
1.24426 -2.61905 1.09973
0.93071 -1.99175 2.15443
1.74623 -1.05032 2.84622
2.05558 -2.15311 0.911652
2.10208 -1.46151 2.20109
2.04789 -1.83126 1.62578
1.36451 -2.44034 1.30585
1.62747 -2.59089 0.656268
0.227638 -2.94054 1.4682
1.45534 -1.88033 2.08558
1.42042 -1.78207 2.2272
1.39627 -2.1647 1.68392
2.11807 -1.75713 1.68445
2.00353 -2.13584 0.934875
2.40699 -1.25561 2.174
0.498358 -2.68643 1.61573
1.70326 -1.81401 1.9796
2.32782 -1.6269 1.67529
1.47605 -2.70036 0.577786
1.69398 -1.42111 2.58768
1.58309 -1.00364 2.95752
2.20443 -1.82548 1.35566
1.31121 -1.76177 2.27896
2.74712 -1.15115 1.65504
2.45504 -1.29689 2.04665
0.938608 -2.15806 2.04111
1.7683 -1.20517 2.73401
2.14976 -1.19874 2.48351
2.45183 -1.57968 1.31789
1.03906 -1.90828 2.2284
2.26555 -1.4761 1.92701
1.54621 -1.30792 2.62218
1.81095 -2.50067 0.575581
0.981661 -2.74291 1.24574
1.53954 -2.86606 0.24583
0.375152 -2.67987 1.65745
2.13552 -1.50985 2.112
1.86399 -1.45897 2.44119
1.02446 -2.32744 1.7302
1.29907 -1.86937 2.20684
2.62775 -1.40192 1.47282
2.24098 -1.939 0.878077
0.463462 -2.7632 1.56092
1.24114 -2.654 1.11625
2.02538 -1.18703 2.55059
2.60329 -1.40603 1.49175
1.6381 -2.28101 1.31136
1.04436 -2.38194 1.68054
2.83831 -1.20155 1.46251
2.23275 -1.64108 1.76377
1.24524 -2.48045 1.31128
1.10898 -1.97828 2.10792
1.29023 -2.97282 0.519239
0.897579 -2.86341 1.00882
2.85579 -0.945006 2.12267
1.12575 -1.69215 2.47672
0.409936 -2.93756 1.42255
1.12343 -2.66093 1.21601
1.58038 -1.65586 2.32076
0.785989 -3.00579 0.924426
2.45241 -1.59943 1.24098
0.80001 -2.93752 1.07746
0.780767 -3.10995 0.809928
2.3751 -0.927181 2.7956
2.15184 -1.5029 2.07148
2.43847 -1.50599 1.53763
2.32043 -1.56453 1.73164
1.48445 -2.76592 0.673282
1.07534 -2.69178 1.20879
1.44689 -2.55716 1.09143
1.08432 -2.6304 1.34537
1.21417 -1.61292 2.49563
2.3455 -1.56041 1.76529
1.37375 -2.53435 1.1616
1.9637 -1.01733 2.87892
1.06705 -1.83015 2.35984
1.57722 -2.68766 0.544717
0.585777 -2.95432 1.22978
1.38278 -2.80668 0.644431
2.61625 -1.2139 1.89159
2.43223 -1.30517 2.16463
1.28455 -2.15444 1.86414
0.0894664 -2.97127 1.46844
1.84028 -2.32498 0.699142
1.23117 -2.82077 0.839154
1.81794 -2.41233 0.753042
1.42372 -1.21547 2.75228
2.05248 -1.78088 1.7872
2.16333 -1.34897 2.26218
1.81486 -1.63823 2.18934
1.63874 -2.68968 0.418343
1.54656 -1.40605 2.55757
2.81212 -1.16317 1.82621
1.15612 -2.1983 1.90134
0.218369 -3.06605 1.28723
0.817882 -2.01516 2.18181
1.50516 -2.3418 1.36338
2.33787 -1.22157 2.25576
1.32567 -2.44165 1.33155
0.459591 -2.85449 1.53277
1.16843 -2.81681 0.861485
2.64313 -1.30665 1.80723
0.919855 -2.0166 2.17466
1.3928 -2.38139 1.38009
2.27341 -1.69839 1.60248
2.13962 -1.45718 2.1708
0.997171 -3.04225 0.734311
2.30196 -1.80125 1.24831
2.71837 -1.10866 1.9514
0.889112 -2.43873 1.6955
1.58737 -2.60591 0.741717
0.888788 -2.16277 1.95003
0.730495 -2.1163 2.13863
2.12118 -1.99577 1.11008
0.574341 -2.57305 1.64917
1.61676 -1.65978 2.29677
0.973079 -2.10417 2.07741
2.59221 -1.32475 1.73582
0.415843 -2.61125 1.68294
1.99665 -2.16186 0.919134
1.1979 -2.95352 0.653369
2.64862 -0.915833 2.52909
1.5403 -2.04797 1.833
2.64526 -1.29475 1.83389
1.48652 -1.62158 2.41912
1.01492 -2.20052 1.90781
1.25908 -1.47128 2.53865
0.240203 -2.78765 1.59669
1.27866 -1.63011 2.46581
1.30341 -2.20868 1.74484
1.23762 -1.73906 2.35385
1.81953 -2.23059 1.08327
0.996317 -1.83418 2.34477
1.94928 -1.6248 2.11027
0.663809 -2.66231 1.47557
1.66155 -2.11075 1.5163
2.38736 -1.51354 1.64658
0.607284 -2.90445 1.25631
0.663189 -2.26278 2.01238
2.06224 -1.71474 1.85298
0.893045 -2.07455 2.12316
0.445818 -2.5397 1.82128
1.97196 -1.67612 2.05286
1.81335 -1.97488 1.66187
0.75996 -2.51074 1.69014
1.4651 -2.77135 0.689801
1.53824 -1.8432 2.09616
1.25808 -2.36352 1.58053
2.19251 -1.74261 1.55015
1.64692 -2.59213 0.568469
1.80393 -1.72698 2.04869
1.59757 -2.46242 0.937217
1.33076 -1.35362 2.70477
1.11383 -2.55413 1.43464
1.90707 -1.1356 2.7712
2.58648 -1.39208 1.8178
1.09601 -2.01855 2.05231
2.03423 -1.7409 1.81557
1.61385 -1.32647 2.66115
0.557762 -2.42243 1.922
1.43371 -1.12812 2.79128
1.13527 -2.68292 1.12844
1.21454 -2.35305 1.65942
2.3375 -0.995361 2.63693
1.48702 -1.93647 1.98382
2.16367 -1.61571 1.85837
1.68618 -1.61758 2.30641
2.19236 -1.798 1.39657
2.8033 -1.15778 1.57041
1.45621 -2.63184 0.831352
2.50084 -1.07945 2.36014
1.09846 -2.29969 1.73497
1.76925 -1.92124 1.78724
1.10445 -1.95688 2.22487
1.81997 -1.64581 2.16197
1.7838 -1.6767 2.18589
1.55354 -2.79686 0.387676
1.86363 -2.0236 1.5096
2.00381 -2.00212 1.38588
1.11841 -2.55035 1.34899
0.972213 -2.90615 0.940364
1.80743 -2.29985 1.10401
2.77967 -1.01055 2.17469
2.15186 -2.08714 0.780681
0.563925 -2.52761 1.72376
1.07156 -2.27094 1.76931
1.9904 -1.27954 2.50231
1.46043 -2.76905 0.554643
1.28091 -2.69882 0.946161
2.24663 -1.1009 2.63521
1.53379 -1.72846 2.26853
1.87351 -1.06617 2.79787
1.26609 -2.17555 1.786
1.71751 -1.65477 2.22893
1.53778 -2.8218 0.331851
2.04574 -1.55723 2.11938
1.67824 -1.80739 2.06447
1.85103 -1.08876 2.82799
1.27175 -2.71045 0.990869
2.10639 -1.44486 2.22278
2.50527 -1.39516 1.53586
2.38867 -1.5527 1.71645
1.3883 -2.23232 1.67269
2.33256 -1.78057 1.04995
0.518025 -2.55818 1.69028
1.41867 -1.29331 2.71113
0.835974 -2.35115 1.81597
1.02252 -2.54574 1.4368
0.632034 -2.45015 1.78926
2.24154 -1.69225 1.60628
0.209421 -2.95391 1.52554
2.06923 -2.08806 0.985873
1.40765 -2.34713 1.46337
1.83496 -2.35847 0.931225
2.77712 -1.22563 1.66825
1.1731 -1.9602 2.14089
1.73135 -2.3183 1.12619
0.820596 -2.61264 1.54428
2.34824 -1.32545 2.20536
0.349554 -2.99268 1.37459
1.12362 -1.66308 2.44162
2.57504 -1.39018 1.49693
2.12484 -1.17855 2.6169
1.51616 -1.27433 2.707
1.79658 -1.35231 2.52487
2.26999 -1.12132 2.53709
1.32796 -2.66379 0.964172
0.787444 -2.61729 1.43841
1.98353 -2.25458 0.712804
0.884208 -2.73112 1.41269
2.16887 -1.64483 1.78457
1.82627 -2.06684 1.39395
1.22695 -2.64364 1.08035
1.62507 -2.25194 1.38264
1.50266 -2.69069 0.808149
1.08132 -2.38072 1.61117
1.5687 -2.91418 0.199927
2.81852 -1.19299 1.55391
2.01545 -2.1177 1.04308
2.62158 -0.914493 2.66053
0.789564 -2.97846 1.02445
1.22996 -2.40433 1.47542
1.52601 -1.34066 2.67212
2.16732 -1.8398 1.30372
2.47459 -1.41956 1.71712
2.5753 -1.33013 1.83138
2.11175 -1.89586 1.41485
2.25181 -1.90672 0.912015
2.44811 -1.21567 2.12002
0.914073 -2.49632 1.63515
1.38975 -1.51713 2.5386
2.57956 -1.15952 2.00426
0.685748 -2.28233 2.01968
1.55084 -1.46053 2.53226
1.50613 -2.23271 1.57176
0.852323 -2.545 1.63585
1.401 -2.90955 0.474439
2.59098 -1.2555 1.89022
2.12835 -1.25366 2.55593
0.750771 -2.39877 1.8215
1.84295 -1.46008 2.43713
2.30699 -1.61068 1.56485
1.34928 -1.79647 2.23391
1.35639 -2.33771 1.47315
1.60725 -2.59089 0.622685
0.658934 -3.01505 1.06935
1.70155 -2.09773 1.58958
2.82261 -1.18324 1.42271
1.74775 -1.97735 1.74768
2.02677 -1.28477 2.56963
0.294151 -2.83884 1.58447
1.15207 -2.77985 1.1067
1.19162 -2.85621 0.821521
1.00797 -2.68284 1.31289
1.20488 -2.29925 1.66925
2.58635 -1.30539 1.72025
0.975418 -3.03598 0.746768
1.00209 -2.0284 2.13359
0.672607 -2.73969 1.45034
1.01997 -2.70606 1.2331
1.27282 -3.00407 0.36407
1.62148 -2.32089 1.24155
2.12802 -1.9889 1.11926
0.830561 -2.11195 2.09102
1.62287 -2.14224 1.59006
1.51686 -2.01483 1.85563
1.03554 -2.43942 1.53898
