ply
format ascii 1.0
comment Created by Open3D
element vertex 400
property double x
property double y
property double z
end_header
0.291569 -1.91489 2.75021
-1.06462 -2.85091 0.813363
0.294183 -2.37338 2.3113
0.806723 -2.79238 1.31907
-0.533682 -1.97396 2.36911
-0.257218 -2.2074 2.32901
1.02861 -2.7749 1.7826
-0.216898 -2.37718 2.06306
-1.48219 -3.13709 0.535099
-1.12486 -3.19261 0.179742
0.28843 -2.22983 2.58226
0.152283 -2.70061 1.7664
0.0421618 -2.88012 1.02267
-0.944427 -2.87736 0.910273
-0.548921 -2.88766 1.10505
0.429055 -1.87564 2.87456
0.365546 -2.13683 2.64401
-0.689746 -3.21194 0.319764
1.09379 -2.53577 2.39573
0.00603513 -3.01367 0.778594
-0.284139 -2.50858 1.86721
-0.492855 -2.62162 1.59984
-0.553491 -2.88522 1.06827
0.231808 -2.73149 1.81252
0.899712 -2.65461 2.24495
-0.604279 -2.54315 1.79489
0.649033 -2.96395 1.13649
-1.51538 -2.5495 1.32574
0.25799 -2.7487 1.404
-1.43376 -2.3612 1.5499
-0.28533 -2.06548 2.46122
-0.215068 -2.81212 1.24266
0.971274 -2.73839 1.65288
-0.688702 -2.84397 0.993804
0.707662 -2.77809 1.62413
0.38172 -2.78571 1.66224
-1.5077 -2.91094 0.760307
-1.20245 -2.23219 1.72166
0.664937 -2.28107 2.57103
0.842862 -2.86788 1.63376
0.0766062 -2.87463 1.20667
-0.865177 -2.02393 2.1089
-0.527698 -2.91972 0.725229
-0.320389 -2.65006 1.44496
-0.830284 -2.70783 1.08229
1.18632 -2.71643 1.91334
-0.985867 -2.24336 1.83296
0.267401 -2.63065 1.62216
-1.75162 -2.32007 1.47878
0.226644 -2.63248 1.68917
-0.871972 -3.17623 0.208856
0.873742 -2.75461 1.76764
-0.113728 -3.05257 0.784196
-1.15108 -3.11427 0.325451
-0.420296 -2.96719 0.601817
-0.328708 -2.32045 1.97316
-0.299871 -2.01827 2.40587
-0.416654 -2.06647 2.40712
0.604765 -2.61485 2.07494
0.588918 -2.83047 1.76408
-0.322439 -3.1103 0.491466
-0.703045 -2.05682 2.16785
0.786807 -2.67437 1.73708
0.00722429 -1.84543 2.71699
-1.05833 -2.17318 1.93544
-0.474671 -2.99795 0.64625
-1.43171 -2.32495 1.61325
-0.17318 -2.58915 1.97038
-0.211041 -2.7887 1.15502
-1.0706 -2.25047 1.76899
-1.26831 -2.56276 1.4836
0.975676 -2.84806 1.76015
-0.0730399 -2.44487 2.22113
-1.06953 -3.2654 0.108948
-0.819383 -2.87842 0.900951
-0.432509 -2.06963 2.32526
0.515131 -2.20452 2.63564
0.748138 -2.01236 2.88507
-0.816385 -2.62204 1.44838
-1.02915 -2.21398 1.88578
-1.34768 -2.64486 1.28897
-1.57883 -2.37748 1.46386
-1.01992 -2.47 1.40713
-0.871913 -2.59957 1.5826
-0.948796 -2.83949 0.850374
0.794149 -2.54911 2.26454
0.0820644 -2.3798 2.26742
-0.903726 -2.62353 1.32363
0.367503 -2.4795 2.29881
-0.241467 -2.13824 2.3983
-1.29062 -2.48036 1.27471
-0.511736 -2.81002 1.22845
0.85132 -2.77448 1.60998
-0.578969 -3.04026 0.813002
-1.36044 -2.6193 1.291
0.395044 -2.39818 2.38815
-1.04089 -2.89678 0.953077
0.0675142 -2.1076 2.57362
-1.31959 -2.12458 1.88447
-0.81046 -2.67023 1.22224
-0.855703 -2.3265 1.62538
-1.08351 -2.74606 1.22763
0.444838 -2.8967 1.25691
-0.0468959 -2.34284 2.30486
0.402828 -2.49826 2.41018
-0.789199 -2.41924 1.66829
-0.995171 -2.92433 0.851847
-0.737735 -2.24939 2.00598
-0.646868 -2.23451 1.95622
0.378626 -2.90328 1.18688
0.723273 -2.68852 2.14836
-0.748533 -2.80417 1.01018
-0.21946 -2.8778 0.788832
0.766722 -2.64789 1.66057
-1.0454 -2.30104 1.8082
-0.219914 -2.10968 2.38473
-0.617432 -2.98028 0.949363
-0.312457 -3.03009 0.715207
1.04029 -2.72786 1.4292
-1.04662 -2.05436 2.04987
0.691385 -2.70929 1.8196
0.589134 -1.92007 2.90358
-0.22834 -2.96051 1.06246
-1.94578 -2.30711 1.43301
-1.73316 -2.64535 1.13026
1.24207 -2.76965 1.63503
0.296298 -2.66386 1.70449
0.152382 -1.97788 2.7076
-1.42342 -2.56185 1.19676
0.626567 -1.72391 3.04345
-1.59695 -2.52844 1.22871
-1.71997 -2.47446 1.35183
0.151759 -2.25704 2.38276
0.979201 -2.68614 1.95413
0.631503 -2.27715 2.5855
0.0749175 -2.5761 1.81588
0.467145 -2.68735 2.07542
-0.635428 -2.84915 1.02242
0.787883 -2.55563 2.38153
-0.401384 -3.10946 0.497602
0.388997 -2.91186 0.973045
1.05316 -2.25104 2.7261
1.30232 -2.67873 1.9078
-1.028 -2.24032 1.86144
-1.13799 -2.83305 0.941742
0.122267 -2.92863 0.839158
-0.536946 -2.94135 0.757167
0.589125 -3.11711 1.06143
-0.822426 -2.76365 1.0707
-1.31929 -2.36399 1.67985
0.407923 -1.73192 2.95331
0.833918 -2.32045 2.58396
1.02428 -2.52198 2.41241
-0.499608 -2.39145 1.95681
0.759871 -2.81408 1.70992
-0.558927 -2.91723 0.510834
0.838846 -2.83285 1.30998
0.642899 -2.09976 2.79592
0.845186 -2.93126 1.26227
0.888671 -2.14565 2.79435
0.582806 -2.51267 2.27601
0.408442 -2.91942 1.15086
0.777867 -2.96529 1.21121
-0.814491 -2.0034 2.09381
-0.225755 -2.83819 1.48269
-0.206763 -2.07259 2.48028
0.899304 -2.90519 1.41815
-1.90465 -2.27956 1.45741
0.520855 -2.04454 2.6237
0.515986 -2.8988 1.17384
0.531203 -2.36049 2.52029
-0.0611497 -1.93404 2.60706
0.572864 -2.6576 2.03699
0.607727 -2.37939 2.45823
-0.650174 -2.25069 2.01755
-0.344348 -2.44255 2.03352
-0.660312 -2.49899 1.75178
-1.11325 -2.60105 1.26728
0.526276 -2.6159 1.9566
-0.269954 -2.91804 1.13875
-0.331382 -2.6213 1.8193
0.168554 -2.73494 1.47009
0.429163 -2.6614 1.71907
-0.881383 -2.75635 1.20586
-0.843905 -2.34318 1.81602
-0.77708 -2.76451 1.14029
-0.896956 -2.96013 0.460441
-0.775462 -3.20467 0.262435
1.01053 -2.5226 2.35299
-0.633017 -3.0379 0.40465
0.455965 -2.01833 2.71636
0.816135 -2.52309 2.43328
1.32033 -2.6514 1.91761
-1.06954 -2.23351 1.86004
-1.31038 -2.34534 1.57361
-1.01817 -2.3877 1.64894
-0.757794 -2.01874 2.21387
-0.0607461 -2.44032 1.95966
-0.742444 -3.08472 0.521452
0.956921 -2.53128 2.39479
0.79109 -2.36029 2.5507
-0.699536 -2.58373 1.61909
-0.984249 -2.26028 1.76023
0.0785372 -2.88633 1.2173
-1.12122 -2.50959 1.56549
-1.17791 -2.06113 2.00078
-1.41591 -2.19408 1.67583
0.288192 -2.87824 1.3713
0.495212 -2.41272 2.19581
-0.797301 -2.21711 2.0962
0.62283 -2.88221 1.39569
-1.54486 -2.37519 1.49074
-0.84577 -2.94824 0.850105
-0.244184 -2.97191 0.658193
1.20969 -2.52189 2.17981
-0.216018 -1.82087 2.61111
-0.209473 -2.92592 1.05162
-1.8178 -2.23745 1.52603
-1.48905 -2.89345 0.825854
0.672791 -2.39286 2.47141
-1.15314 -2.45395 1.4074
-0.440486 -2.57933 1.50629
0.74895 -2.8978 1.18001
-0.910262 -2.52348 1.73412
-0.489743 -2.93605 1.15312
0.188322 -2.77006 1.72999
-0.372355 -1.9786 2.44246
-0.559597 -1.93223 2.36924
-0.349047 -2.77984 1.15164
0.199081 -2.87687 1.39192
-0.754131 -2.44579 1.7178
-0.771409 -2.47064 1.73642
0.613144 -2.92524 1.13759
-0.0402302 -1.93197 2.62623
-0.58051 -2.32935 1.89707
-0.754064 -1.78082 2.33578
-1.52986 -2.08416 1.73038
0.561682 -2.34783 2.52952
0.679816 -2.82878 1.70487
0.411962 -2.62479 1.85526
-0.395405 -2.41341 1.85452
-0.829223 -3.07922 0.685534
-1.99849 -2.46524 1.2742
-0.303111 -2.28917 2.15974
-1.27838 -2.87643 0.800101
-0.399106 -2.45873 1.90333
0.106967 -2.63657 1.83589
0.111904 -2.65267 1.39808
0.478595 -2.0771 2.74933
-0.84463 -2.38087 1.69997
0.900622 -2.30767 2.64813
-1.65238 -2.14895 1.69903
0.826235 -2.45137 2.03966
-0.545811 -2.88634 1.26775
-1.53035 -2.49126 1.4015
0.418254 -2.94276 1.22358
-1.14316 -2.13837 1.90556
0.242623 -2.93837 0.916715
-0.682951 -3.17898 0.37638
0.114444 -2.52861 2.16476
0.145475 -1.97798 2.69943
-1.36876 -2.83327 1.04394
0.486172 -1.93911 2.85267
-0.000996755 -2.87673 1.47976
-0.838645 -3.11445 0.560945
-1.45561 -2.31323 1.52616
-0.561435 -2.3304 2.00557
-1.44377 -2.57241 1.23798
-0.88319 -2.39421 1.76778
-1.04392 -2.03474 2.05833
1.13602 -2.72541 1.76909
0.750277 -2.38717 2.36959
-0.243488 -2.81469 1.36881
-1.74422 -2.41404 1.35234
0.134643 -3.0648 0.879272
-1.70584 -2.21132 1.58136
1.07759 -2.58811 2.33578
-1.61677 -2.14614 1.69276
-0.963472 -3.05704 0.54703
1.01836 -2.53283 2.09556
-0.380075 -2.45251 1.73162
-0.0704297 -2.15026 2.46505
-1.4592 -2.44807 1.5044
-0.412601 -2.47378 1.94932
-1.00144 -2.93938 0.784529
0.554659 -2.1741 2.70048
0.901889 -2.19831 2.68211
0.828892 -2.41785 2.34327
-1.3263 -2.5371 1.42307
-1.32463 -3.11186 0.466919
-1.62864 -2.39913 1.42769
-1.11101 -2.91608 0.631643
-0.716733 -2.10779 2.16891
-0.0540782 -2.68537 1.78017
-1.18015 -2.84317 0.836367
-0.0213835 -2.04159 2.57553
-0.755938 -2.81144 1.01202
-1.75859 -2.67858 1.09879
0.657958 -2.95936 1.60967
0.680456 -1.96979 2.89425
-0.789479 -2.74937 1.11564
0.622508 -2.27658 2.48284
-0.399003 -3.05092 0.77746
0.821647 -2.26759 2.69222
-0.648282 -2.97578 0.80579
-0.408206 -2.70206 1.51495
0.419491 -1.97385 2.8095
0.412598 -2.64475 2.08133
-0.239035 -2.91207 1.08196
0.244168 -2.36566 2.40815
-0.602138 -3.20895 0.502658
-0.617915 -1.84158 2.37404
-0.445 -2.33928 1.96761
1.01055 -2.79588 1.87132
-0.243738 -2.21678 2.27104
-0.166625 -2.46657 2.04344
-1.43881 -2.08792 1.83853
0.156669 -3.07418 0.942791
0.358377 -2.86673 1.05172
-1.95544 -2.34448 1.44855
0.167649 -1.76484 2.84267
0.12804 -2.27723 2.49615
-0.678784 -2.98972 0.814116
1.03476 -2.71432 2.06169
0.712381 -2.724 1.83318
-0.100447 -2.36491 2.09977
-0.770216 -2.92715 0.699095
-1.30256 -2.99492 0.584786
-0.405803 -3.04106 0.520698
-0.0767468 -2.66452 1.85386
-0.343715 -2.32458 2.09494
-1.64598 -2.36555 1.4286
0.12344 -3.04702 0.981837
-1.55969 -2.41303 1.43229
0.833129 -2.73816 1.45848
-1.32829 -2.40128 1.4247
-0.250864 -2.57216 1.70014
-0.84009 -2.68777 1.18878
-0.603053 -2.5263 1.41006
-1.0824 -3.25893 0.0783696
0.433401 -2.89342 1.42578
0.763154 -2.96555 1.49831
-0.0614732 -2.3891 2.31269
-0.559773 -2.2249 2.19291
-0.17895 -2.32272 2.24548
0.444225 -2.85519 1.54968
-0.0307327 -2.95793 1.19389
-0.772844 -2.54654 1.62897
-0.87544 -2.87666 1.18028
-0.363331 -2.24062 2.10176
-0.459347 -2.46984 1.77919
-0.881758 -3.067 0.434212
-0.691237 -2.43296 1.84052
0.832518 -2.22822 2.70362
-0.673117 -2.20287 2.08428
0.512003 -2.41196 2.45474
0.993877 -2.76203 1.48333
-0.115295 -1.86644 2.6449
-0.422963 -3.05117 0.765941
0.959361 -2.46921 2.30306
0.78313 -2.7658 1.87468
1.02178 -2.57297 1.88348
-0.0810175 -2.3851 2.10243
0.183935 -2.89746 0.987563
0.959364 -2.70191 1.49005
0.240044 -2.48698 2.12489
0.0310972 -3.10359 0.808801
-0.130123 -2.03317 2.53627
0.221156 -2.83161 1.13809
-0.512458 -2.45202 1.65083
1.06133 -2.63053 2.27088
0.145661 -1.99006 2.67802
-0.812753 -2.43173 1.60412
-0.80837 -2.0441 2.18816
0.424672 -1.7643 2.94129
-1.38149 -3.05297 0.555756
-0.485338 -2.49898 1.61294
-0.911615 -2.09593 2.03958
0.020828 -2.93491 1.32463
-0.0822101 -2.16815 2.43218
-0.915842 -3.0439 0.848831
0.0959136 -2.247 2.46611
0.916188 -2.2073 2.7125
-1.00653 -2.70588 0.989372
-0.355421 -2.51536 1.91231
-0.391005 -3.15452 0.627316
-0.707268 -2.67694 1.17545
0.450796 -2.09765 2.71254
-0.328943 -2.88309 0.929886
0.26729 -2.36139 2.35679
-0.51998 -2.11906 2.27333
-0.718458 -2.96994 0.642485
0.315997 -2.84412 1.35152
-1.32547 -2.80824 0.955369
0.661712 -2.3056 2.64004
0.225415 -2.90472 1.4036
0.140341 -2.159 2.42882
-1.19171 -2.69371 1.28554
-0.480416 -2.92523 0.729733
0.628458 -2.72008 1.4318
