ply
format ascii 1.0
comment Created by Open3D
element vertex 250
property double x
property double y
property double z
end_header
3.59155 0.136495 1.3513
3.76333 0.800318 -0.895579
1.7839 -1.6029 -2.04127
2.69164 -1.54164 -1.22333
3.70533 0.0672293 0.7007
2.37643 -2.0369 -0.338386
1.50854 -2.88285 0.555523
2.41937 -1.84701 -0.600769
3.15746 -0.281786 1.10933
3.41926 -1.02451 -0.405338
3.6845 -0.212243 -1.10706
2.39682 -1.94863 -0.874987
3.87602 -0.455457 -0.265631
2.71183 -1.67291 0.260968
3.30695 -0.927973 -0.522183
4.14597 0.274342 0.279594
2.039 -2.34404 -0.205848
1.34955 -2.82585 -0.84481
1.72162 -2.63467 -0.151558
2.23595 -1.2492 -1.76446
3.58326 -0.135463 -1.23955
2.24392 -1.95112 -0.126985
3.37117 -1.07624 0.26282
1.93895 -2.34649 -0.511007
2.22715 -1.57954 -1.60512
3.53353 -0.675227 0.341077
2.73088 -1.63853 0.543459
4.2405 0.755699 -0.208905
2.00918 -1.88357 -1.54299
3.46245 -0.914353 -0.621739
3.51042 0.188083 1.45739
4.09383 1.01211 -0.439834
3.66682 0.352487 0.858073
3.26774 0.15649 -1.57037
3.64068 0.716757 -1.01731
1.24992 -3.13669 0.208934
1.69899 -1.80152 -2.09583
3.44531 0.42419 -1.33953
2.59554 -1.70318 -0.358102
2.1979 -1.72876 -1.29097
2.22676 -1.68827 -1.34375
2.47197 -1.9102 -0.164472
3.88971 -0.145636 -0.802386
4.14553 0.198553 0.0885008
2.06751 -1.48176 -2.11314
4.24676 0.453957 -0.323027
1.21299 -2.24648 -2.05628
4.1851 0.361151 -0.2791
1.51933 -2.82439 -0.251028
3.48664 -0.754047 -0.0280466
3.64194 0.226111 -1.21968
2.17988 -1.73509 -1.74621
1.22645 -2.41296 -1.81351
3.49942 0.0436595 -0.0488447
2.99576 -1.30442 -0.622472
1.22609 -2.45967 -1.59777
2.44979 -1.7104 -1.11002
3.02805 -0.50128 0.83478
3.50157 -0.545855 -0.956378
2.29461 -2.10863 -0.51945
2.82471 -1.55715 -0.0689621
1.73224 -2.5006 -0.696034
2.51109 -1.27685 -1.39078
3.8671 0.0176823 0.529113
3.89043 0.467684 -0.0611948
3.35553 0.050788 -1.50068
3.27643 -1.03124 -1.03609
1.55458 -2.67068 -0.432799
3.58367 -0.254943 0.987474
2.7755 -1.66915 -0.223175
3.78643 -0.543192 -0.527126
2.15014 -1.43019 -1.5734
2.90784 -0.655517 0.419991
1.86972 -2.22541 -1.29535
1.62375 -2.2857 -1.73244
1.08733 -3.28853 -0.0389588
1.4174 -2.20612 -1.56345
4.27266 0.000170375 0.0105568
3.67361 -0.688249 -0.573775
2.81799 -1.59402 -0.333667
2.63087 -1.73911 0.326593
3.34768 -0.222059 -1.47248
3.61663 -0.499913 -0.00749851
2.28789 -2.07545 0.240763
2.5749 -1.76542 -0.589367
4.21018 0.589093 0.213265
1.79618 -2.51628 -0.122752
3.35485 -0.264278 0.990841
2.92586 -1.01401 -0.459212
3.10676 -1.32116 -0.861186
1.51552 -1.87816 -2.26303
1.81157 -2.34568 -0.532333
3.4463 -0.769106 0.0412334
4.19141 -0.202881 0.0595627
3.42835 -0.590922 -1.30169
1.89885 -1.98918 -1.44298
3.04706 -0.960068 0.653307
3.60028 0.0556428 0.774811
3.3315 -0.328871 -1.35076
2.46656 -1.83529 0.258737
3.61005 -0.690705 -0.737123
3.88787 -0.0338765 0.311153
4.05686 -0.137082 0.352563
3.07385 -0.792974 0.740333
3.94379 0.0499632 -0.827074
2.96651 -1.42562 0.354757
2.52813 -1.88558 -0.0689876
1.28801 -2.38195 -1.53617
1.51445 -2.71054 -0.523775
2.02303 -2.24729 -0.952681
2.11631 -1.6004 -1.80171
3.21097 -0.483938 -1.42471
1.98195 -2.17101 -1.18215
2.75517 -0.93278 0.656358
1.75304 -2.14925 -0.842741
3.48131 -0.858734 -0.787595
1.62866 -2.42068 -0.930524
3.24716 -0.28255 0.390071
3.92946 -0.222597 -0.0883524
3.93732 0.0446796 -0.81218
1.40643 -2.96855 0.312663
3.8809 0.152366 -0.957965
2.88536 -1.48435 -0.322126
3.97749 -0.106886 -0.589569
1.63915 -2.70519 0.175816
1.32457 -2.70626 -1.05489
2.81184 -0.724218 -1.34169
2.35713 -1.43412 -1.79125
2.41847 -1.99281 -0.386147
1.55909 -2.13393 -1.58979
2.11807 -2.03364 -0.833157
1.16484 -2.98866 -0.967151
4.22949 0.0156163 -0.31082
1.19332 -2.18763 -1.98912
2.365 -1.21138 -1.66503
2.18056 -1.89067 -1.01295
1.48472 -2.42154 -1.20729
2.72666 -1.48631 -0.435712
3.79992 0.396207 -1.03724
1.35755 -2.97748 -0.173237
3.61235 0.473532 -1.17517
3.99889 0.571488 0.0262092
1.36458 -2.09054 -2.05605
3.8643 -0.459215 -0.17887
3.54415 -0.704112 -0.104651
3.5534 0.52888 -1.21725
2.71477 -1.61949 0.00103164
2.28963 -2.03638 0.217675
3.82005 0.337224 -1.04556
3.35795 -0.877324 0.284946
1.44737 -2.1615 -1.64953
3.39655 -0.783415 0.539402
1.2378 -2.51265 -1.86541
4.2954 0.632323 0.195855
3.53582 -0.0733056 1.20982
3.35439 -0.612734 -0.826315
1.1335 -3.03894 -1.16863
2.95976 -1.33556 0.940346
3.30695 -1.07259 0.495609
1.13334 -2.76413 -1.66134
2.95232 -0.563528 -1.86278
2.9514 -0.959133 -1.31336
3.19338 0.106269 -1.59544
3.80904 -0.459165 -0.279619
2.10069 -1.78491 -1.50262
1.74125 -2.57281 0.0751899
1.57853 -2.77169 0.179649
4.17023 0.095914 -0.521265
3.54724 -0.434733 0.870843
2.20378 -1.54607 -1.38563
3.47467 -0.456667 -1.30477
1.37779 -2.95436 -0.452498
2.39067 -1.71929 -1.14818
3.52145 0.382951 -1.2874
3.65572 0.841389 -0.862192
4.01628 0.00622482 -0.605519
3.76886 0.00706129 -0.87659
3.49119 -0.935694 -0.486406
1.73047 -1.72131 -1.71606
2.73219 -1.726 -0.515447
1.74083 -1.89861 -1.53208
2.32334 -1.97042 0.546017
3.30362 -0.623518 0.551905
3.40953 -0.753023 -0.977811
3.15301 -1.04224 -1.33911
3.66671 0.798715 -1.05617
2.46403 -1.6005 -1.03474
2.13126 -2.24936 -0.742773
3.62704 -0.6046 -0.75956
2.91405 -1.54616 -0.737529
3.48153 -0.607981 -1.20182
3.56482 0.303269 -1.28955
2.95286 -1.50205 -0.622135
3.56638 -0.103646 -0.609657
1.54078 -2.56751 -1.4046
3.177 0.331848 -1.54976
1.27508 -2.07615 -1.90769
3.76979 0.0262962 -0.868324
2.8484 -1.54921 -0.818167
2.77439 -1.40345 -1.28811
0.903717 -1.95084 -2.46562
0.855097 -1.83585 -2.5423
0.921771 -1.71023 -2.63818
-0.0319252 -2.12555 -3.63432
2.0327 -1.17148 -1.49916
0.746355 -2.36094 -2.51358
1.003 -1.4068 -2.79758
0.371951 -2.65977 -2.97273
0.714693 -1.45326 -2.93546
1.28018 -1.61348 -2.31043
1.18011 -1.46278 -2.70932
1.30735 -1.43988 -2.18926
0.859812 -1.15039 -2.85675
0.501372 -1.54832 -3.15671
0.328231 -1.60648 -3.42655
0.45782 -1.94152 -3.06624
1.16875 -1.45283 -2.53673
0.977389 -1.73724 -2.47413
1.31521 -1.50742 -2.45422
2.08848 -1.18418 -1.75722
0.307692 -2.05886 -3.24596
1.82923 -1.39962 -2.03666
1.14518 -1.54327 -2.66829
0.520402 -1.89483 -2.9769
0.648738 -1.20656 -3.19161
0.682137 -1.53892 -2.93466
1.64456 -0.95566 -2.17617
1.52116 -1.66534 -2.08154
0.468538 -1.46474 -3.36046
0.536751 -1.79421 -2.98339
0.79282 -1.28971 -2.93929
2.30322 -1.00228 -1.48664
0.936961 -1.25902 -2.69121
0.895809 -1.5851 -2.61664
1.39443 -1.79448 -2.25814
0.879644 -1.55202 -2.83156
0.668295 -2.37432 -2.58518
-0.0306801 -2.22865 -3.69578
1.40009 -1.82393 -1.95858
1.46617 -1.50696 -2.23105
1.12414 -1.11664 -2.65337
1.19712 -1.66371 -2.24023
0.960099 -1.25184 -2.79481
0.721059 -1.23936 -2.97741
0.881261 -2.26271 -2.4116
0.928172 -1.83211 -2.61887
0.383172 -2.44652 -2.91998
0.205511 -1.75141 -3.4775
0.901896 -1.74687 -2.69057
1.65241 -1.44761 -1.96039
