ply
format ascii 1.0
comment Created by Open3D
element vertex 250
property double x
property double y
property double z
end_header
1.17222 3.16253 -1.35518
0.320935 3.96189 0.357109
-2.29901 2.07224 -0.222248
-1.57653 2.70609 -1.13216
0.822851 3.39234 -1.27383
-1.41505 2.11885 -1.96338
-1.78344 1.05315 -2.31739
-1.60729 2.32008 -1.2272
0.82712 2.69814 -1.78838
-0.731527 3.2979 -1.17094
-0.516285 3.81044 -0.312561
-1.68083 2.2859 -1.57477
-0.16454 3.75552 -1.02584
-0.816133 2.35695 -1.97789
-0.457776 3.11219 -1.75087
0.681119 3.97748 -0.783366
-1.50723 1.69238 -2.39254
-2.50359 1.21606 -1.68693
-1.73081 1.34723 -2.51346
-1.89576 2.50377 -0.074908
-0.450889 3.71391 -0.415303
-1.62994 2.11089 -0.966255
-0.44996 3.11176 -1.37372
-1.90194 1.75481 -1.67269
-1.97082 2.38922 -0.582661
0.0651705 3.22684 -1.59367
-0.73353 2.35602 -1.82141
0.698522 4.26418 -0.0594949
-2.15399 2.12119 -0.836334
-0.798466 3.41444 -0.924568
1.27225 3.06135 -1.37568
0.711597 4.21831 0.345445
1.11422 3.3513 -1.13244
-0.521753 3.54868 0.201968
0.215355 3.84837 0.292922
-2.09304 0.817626 -2.51827
-2.41464 1.95296 -0.493674
-0.180118 3.69563 0.239603
-0.895662 2.26106 -2.46824
-1.95725 2.29255 -0.693908
-1.94327 2.33239 -0.677389
-1.34345 2.23722 -1.64547
-0.256553 3.93565 -0.512547
0.522033 4.01154 -0.756794
-2.10239 2.32458 -0.491348
0.417187 4.26199 -0.226944
-2.83483 1.45669 -0.518868
0.409319 4.16515 -0.404969
-2.00294 1.17907 -2.39759
-0.144181 3.23403 -1.6217
-0.352585 3.88164 0.292525
-2.05685 2.31316 -0.90542
-2.82432 1.39684 -0.738562
0.497042 3.31162 -1.23359
-1.19551 2.95065 -0.907064
-2.81276 1.37234 -0.675089
-1.73787 2.46117 -1.03824
0.566564 2.58574 -1.95563
-0.823345 3.61651 -0.231262
-1.56817 2.07074 -1.93175
-1.09736 2.63425 -1.27047
-2.13528 1.58092 -1.65066
-1.69378 2.68379 -0.301286
0.670024 3.59689 -1.17554
0.696086 3.79582 -0.65804
-0.513533 3.58928 -0.0260388
-1.02755 3.2749 -1.04575
-2.23284 1.37322 -1.57691
0.700414 3.18794 -1.509
-1.06474 2.52515 -1.80257
-0.499733 3.76843 -0.640689
-1.97628 2.37634 -0.146396
0.301262 2.51153 -2.08019
-2.22123 1.86799 -1.30627
-2.5025 1.71355 -1.16594
-2.27954 0.669393 -2.67558
-2.62831 1.59228 -0.460208
0.231423 4.17687 -0.593734
-0.501233 3.59614 -1.06247
-1.17385 2.64395 -1.43161
-0.837979 2.25761 -2.02817
-0.774762 3.57662 -0.0281957
0.0615155 3.38408 -1.47458
-1.27431 1.95605 -1.85271
-1.47038 2.45269 -1.36034
0.858451 4.09861 -0.490602
-1.85954 1.52415 -1.8389
0.751558 2.93408 -1.66367
-1.20936 3.00678 0.0512499
-1.08259 3.00794 -1.4846
-2.56492 1.79999 -0.468432
-2.07601 1.69988 -1.23699
-0.112536 3.17434 -1.67447
0.0419755 4.08998 -0.580279
-0.812833 3.52027 -0.721812
-2.22228 1.99541 -0.833844
0.0759711 2.61792 -2.05399
0.867833 3.26386 -1.34754
-0.878046 3.55897 0.0843042
-0.828483 2.04953 -2.37218
-0.533784 3.54505 -1.14718
0.523564 3.65697 -1.14551
0.391495 3.83791 -1.02867
0.262072 2.63684 -2.01663
-0.161667 4.03145 -0.274058
-0.600706 2.62482 -1.80084
-1.14339 2.2207 -2.00841
-2.75185 1.44123 -0.569557
-2.27796 1.33527 -1.65416
-1.98891 1.916 -1.62785
-2.0732 2.31215 -0.566221
-1.01756 3.43201 -0.0302842
-2.10525 1.95471 -1.35399
0.193175 2.28879 -2.2859
-2.24802 1.79395 -0.584627
-0.804117 3.45869 -0.930315
-2.3351 1.59322 -1.15414
0.512591 2.9178 -1.68773
0.151851 3.77436 -1.06683
-0.135406 4.01192 -0.341593
-1.92795 0.975402 -2.40655
-0.258265 4.05099 0.115066
-1.15933 2.75073 -1.17145
-0.0878223 3.9696 -0.639385
-1.85983 1.28898 -2.03324
-2.62327 1.2902 -1.27176
-1.35127 3.07158 0.296879
-1.8834 2.54323 -0.617219
-1.42566 2.18355 -1.86818
-2.50824 1.71413 -0.611675
-1.91367 2.06837 -1.14665
-2.69808 1.04448 -1.72647
0.024335 4.22588 -0.333603
-2.83907 1.46316 -0.286818
-1.7988 2.60831 -0.130044
-1.91787 2.19183 -0.941868
-2.52458 1.5274 -0.938036
-1.35299 2.67144 -0.784089
-0.0615036 3.98951 0.158815
-2.19023 1.03146 -2.23042
-0.0566709 3.83197 0.210321
0.789644 3.90853 -0.543861
-2.69542 1.61513 -0.475422
-0.108292 3.71894 -1.09588
-0.152215 3.31555 -1.54683
-0.0499079 3.79314 0.295197
-0.757098 2.35755 -2.25251
-1.38612 2.02029 -1.48152
-0.1614 4.02659 0.25741
-0.0959069 3.03428 -1.75699
-2.60594 1.63146 -0.488162
0.0814328 3.03832 -1.72055
-2.82855 1.36865 -1.03993
0.857183 4.20226 -0.391732
0.955796 3.10955 -1.47936
-0.353572 3.24704 -1.50354
-2.73859 1.0091 -1.95349
-0.284301 2.52432 -1.80674
-0.270107 2.97455 -1.60138
-2.89008 1.18551 -1.33221
-1.15138 3.19582 -0.326646
-1.33295 3.10624 -0.336521
-0.459211 3.42761 -0.117771
-0.123261 3.66991 -1.15738
-2.0713 2.21932 -0.754237
-1.87722 1.45313 -1.74245
-1.89506 1.21542 -2.11109
-0.0389242 4.22608 -0.168915
0.500854 3.1597 -1.57396
-1.94125 2.36747 -0.352971
-0.713976 3.58125 -0.632391
-2.20873 1.06894 -2.4009
-1.79105 2.42039 -0.96067
-0.182296 3.75558 0.189663
0.412663 3.83331 0.258123
-0.0268253 4.02997 -0.519155
-0.0993866 3.81295 -0.598428
-0.627621 3.36359 -1.29144
-2.33134 1.98315 -0.121979
-1.17498 2.50395 -1.95533
-2.33593 1.92197 -0.389313
-0.872859 1.86872 -2.32206
0.28061 2.92912 -1.81069
-0.922672 3.4798 -0.534496
-1.17028 3.20605 -1.00452
0.182988 3.92176 0.5528
-1.70618 2.5078 -0.75857
-1.78433 1.93864 -1.95793
-0.452685 3.56412 -1.15653
-1.15156 2.75061 -1.76867
-0.747592 3.53936 -0.836996
-0.289725 3.81045 0.260017
-1.12441 2.79644 -1.60897
0.0791272 3.49068 -1.08727
-2.49522 1.51084 -1.5935
-0.305658 3.44107 0.116129
-2.7536 1.55569 -0.137408
-0.0796497 3.81368 -0.591474
-1.3215 2.75408 -1.4132
-1.52158 2.82332 -0.979442
-3.03508 1.35282 0.367637
-3.05545 1.36027 0.644681
-2.92904 1.42662 0.546713
-3.77369 0.650756 0.672475
-1.97492 2.3655 0.600342
-3.24652 1.11317 -0.199451
-2.73067 1.55137 0.661865
-3.59969 0.76128 -0.516597
-2.98844 1.35058 1.07616
-2.64036 1.70552 0.372923
-2.63529 1.66578 0.354614
-2.58425 1.78137 0.801117
-2.7641 1.52823 1.36008
-3.17472 1.17505 1.09326
-3.24987 1.00895 0.86785
-3.35962 1.04521 0.639426
-2.65574 1.66701 0.606617
-2.9176 1.46631 0.610318
-2.57493 1.75738 0.33532
-1.95958 2.40966 0.268994
-3.48788 0.899612 0.488251
-2.20555 2.16306 0.0693408
-2.69344 1.6216 0.337242
-3.31665 1.10934 0.738502
-2.85314 1.33077 1.1111
-3.05203 1.30889 1.01929
-2.1598 2.14333 0.970393
-2.48471 1.86055 0.0595671
-3.06985 1.1334 0.833897
-3.28155 1.15283 0.903225
-2.84362 1.43647 1.12129
-1.75108 2.61337 0.470039
-2.78542 1.56922 1.29747
-2.93803 1.45621 0.918756
-2.61458 1.73413 -0.115124
-2.87921 1.42938 0.636551
-3.31834 1.05932 -0.118332
-3.73281 0.592362 0.234773
-2.60777 1.72477 0.0897199
-2.47658 1.8678 0.302688
-2.55066 1.71812 1.09389
-2.72956 1.63861 0.544975
-2.71097 1.56449 1.0181
-2.90496 1.41097 1.37501
-3.11381 1.2338 -0.187578
-2.95868 1.39482 0.325016
-3.57553 0.850826 0.0302807
-3.43489 0.902834 0.921662
-2.94732 1.39913 0.446336
-2.32873 2.01739 0.342099
