ply
format ascii 1.0
comment Created by Open3D
element vertex 250
property double x
property double y
property double z
end_header
2.48752 -2.25658 0.118904
2.37721 -2.20423 2.1569
2.6513 0.277263 1.25422
2.92335 -1.03938 0.672655
2.46981 -2.6109 0.400707
2.89762 -0.907182 -0.357022
3.27512 0.946381 -1.18676
3.2631 -0.0181553 0.350688
2.11954 -2.53159 -0.360754
3.24701 -1.39787 0.727769
2.9153 -1.87957 1.68405
2.92574 -0.802156 0.109494
3.11948 -2.09533 0.973681
2.98372 -1.08357 -0.393054
2.41596 -2.85929 0.185247
2.87951 -2.47082 1.1093
2.6444 -1.03176 -0.887514
3.0185 0.791758 -0.38533
2.64355 -0.636304 -1.12179
2.86743 0.119587 1.48957
2.56347 -2.34595 1.57094
3.6959 1.19619 0.399728
3.37904 -1.05919 0.377376
3.09643 0.162448 -0.23006
2.88837 -0.146282 1.03595
2.82802 -2.20448 0.199936
3.23019 -0.556226 -0.316345
2.79497 -2.37763 1.85321
2.87599 -0.00465655 0.729995
3.2769 -1.31655 1.00304
2.37219 -2.27915 0.0340539
2.5981 -2.23002 2.16984
2.26104 -2.69467 0.441975
2.31805 -1.90207 2.01667
2.25846 -2.27934 2.08142
3.02518 0.711358 -1.37469
2.55437 0.0525893 1.00995
2.26852 -2.12662 2.05
2.17573 -2.61316 -0.729039
3.09425 0.214165 0.86674
3.05951 0.116803 0.902629
3.19678 -0.339127 -0.0877343
2.96619 -2.14745 1.52439
2.91859 -2.46096 1.18454
2.46907 -0.611341 1.15193
2.99034 -2.26945 1.76595
2.68421 0.942535 0.801728
2.90747 -2.40825 1.58069
2.77069 -0.111931 -1.07011
2.69662 -2.4665 0.247896
2.81663 -1.56283 2.17796
2.68235 -0.645938 0.779649
2.81836 1.03766 0.575176
2.01134 -3.18189 0.519226
3.37439 -0.483713 0.844979
3.03629 1.46413 0.58511
3.06073 -0.386118 0.635362
2.00837 -2.71154 -0.480523
3.33008 -0.91757 1.67033
2.86492 -0.872415 -0.317171
3.45475 -0.191465 0.344454
3.0456 0.346234 -0.246366
3.11391 0.0298261 1.33198
2.70141 -2.50908 0.605636
2.35187 -2.8673 1.16287
2.3556 -2.11667 1.85095
2.95832 -1.72078 0.920206
3.29261 1.09667 -0.306922
2.68913 -2.19395 0.104344
2.98616 -1.21251 -0.0977386
3.39791 -1.38533 1.34056
3.04498 0.509471 1.36134
1.79693 -3.06353 -0.532491
2.86588 -0.066144 0.230595
2.65314 -0.054411 0.349559
2.81512 0.456614 -1.51384
3.09723 1.43507 0.827459
3.41762 -1.8532 1.4236
3.06607 -2.00514 0.944427
3.22661 -0.708294 0.265374
2.97791 -0.986879 -0.482737
2.71932 -1.5841 1.86624
2.6297 -2.63918 0.405985
3.23021 -0.032888 -0.431369
3.17953 -0.454842 0.293893
2.76971 -2.53325 1.37939
3.20534 0.538217 -0.514441
2.34439 -2.45455 -0.135506
3.90242 1.10278 1.58692
2.84822 -1.88158 0.446069
2.43383 0.112365 0.995139
3.3781 1.04991 0.0991175
2.66031 -2.4728 0.168571
3.64495 -1.38738 1.4073
2.70424 -2.16049 1.29149
2.9601 0.311192 0.669175
2.45798 -2.23697 -0.46992
2.35117 -2.65193 0.272041
3.00599 -1.03443 1.93992
2.59745 -1.55159 -0.834037
2.85713 -2.32274 0.879447
2.7194 -2.56663 0.697409
3.14157 -2.12105 0.877635
2.33641 -2.39146 -0.46195
2.97187 -2.05677 1.74448
3.10284 -1.13012 -0.168263
2.91711 -1.04241 -0.405357
3.11832 1.58541 0.683797
3.19434 0.930785 -0.3678
2.8878 -0.372806 -0.0594021
2.74021 -0.248026 1.04777
2.95757 -1.0332 1.81721
2.90415 -0.172065 0.208035
1.93326 -2.71435 -0.809888
3.54004 1.72424 0.697572
3.14119 -1.59598 1.03968
3.20667 0.9998 0.188783
1.97634 -3.03717 -0.063861
2.90241 -2.44882 0.897417
2.91585 -2.16948 1.67933
3.10044 0.703365 -1.24635
3.08628 -1.57005 2.07753
3.39482 -0.380036 0.510691
2.97247 -2.28536 1.39962
3.25953 0.807137 -0.807196
3.13451 1.21695 0.00458595
3.24949 0.224438 1.92714
2.70111 -0.688522 1.09367
2.94679 -0.847618 -0.247614
2.97902 0.9439 0.758018
3.2012 0.314157 0.356917
2.96968 0.923496 -0.45938
3.45822 -1.65618 1.70555
2.83705 1.37532 0.974848
2.93007 0.0134629 1.47303
3.1829 0.281984 0.592675
3.1536 1.19591 0.377411
3.5641 0.328917 0.804958
2.69459 -1.99972 2.07307
3.01496 0.615116 -0.999931
2.40475 -2.14406 2.05718
2.46243 -2.75894 1.28172
2.66024 0.717925 0.893257
3.08641 -2.14536 0.887036
2.72038 -2.48973 0.35266
2.33797 -2.10568 2.10906
2.54045 -1.99735 -0.57748
3.5198 0.630122 -0.103382
2.88043 -1.69948 2.1766
2.75258 -2.18951 0.00993491
3.00121 1.2066 0.832176
2.81288 -2.0486 -0.00920542
2.65322 0.555408 0.337978
2.87725 -2.44164 1.50471
2.53234 -2.24845 0.0385359
2.14046 -3.24403 0.463199
2.70261 0.362242 -0.62088
3.2346 -0.739818 -0.322007
3.20425 -1.29519 0.0937174
2.70423 0.64094 0.0115183
2.3464 -1.87692 1.54934
3.10514 -0.625884 1.45185
2.00257 -2.47493 1.71308
2.93182 -2.36064 0.83136
2.92626 0.00459842 0.824447
3.40861 1.04135 -0.495307
3.21932 0.784872 -0.897372
3.35795 -1.66477 1.86406
2.7792 -2.09952 0.0759252
3.13737 0.477579 1.17235
2.65289 -2.23795 1.37833
2.71731 -0.0508205 -1.07755
3.07352 -0.239136 0.686268
2.37008 -2.11275 2.03286
2.14456 -2.43421 2.0091
2.96532 -2.27183 1.51518
2.53789 -2.6612 1.39596
3.04663 -1.89932 0.664804
2.99837 1.02698 1.25393
2.74593 -1.69621 -0.177722
3.07266 0.988275 0.99894
2.81883 -0.8964 -0.908734
2.43588 -2.50444 -0.149587
3.22268 -1.15805 1.38805
2.76109 -1.89176 0.971868
2.40197 -1.94273 2.32218
3.22621 0.051603 0.858708
2.7741 -0.855923 -0.348446
2.74031 -2.52668 0.875583
2.75388 -1.89336 0.102695
2.71242 -2.2751 1.19308
2.58103 -1.8292 2.12285
2.934 -1.54295 0.229212
2.15469 -3.16363 0.823602
2.69215 -0.0718177 -0.11162
1.93035 -2.37038 1.87763
2.94318 1.53962 1.11307
2.52361 -2.67493 1.39863
2.99582 -1.22966 0.403806
2.93268 -1.06034 0.845631
2.65832 1.85244 1.5045
2.68802 2.13719 1.7318
2.44874 1.59962 1.68598
1.7825 1.80739 1.63549
3.33131 1.64338 1.91988
2.4976 1.43505 0.987417
2.16055 1.10229 1.8308
2.03935 0.954477 0.675436
2.28259 1.94531 2.09975
2.63731 1.32823 1.61073
2.14908 0.637562 1.62692
2.89126 1.99339 1.95323
2.32041 2.0156 2.36634
2.12673 1.9748 2.07863
1.70907 1.38662 1.87064
2.21834 1.87458 1.67884
2.44034 1.30345 1.80167
2.66964 1.93088 1.73161
2.42985 0.908684 1.61658
2.97187 0.730668 1.71594
2.01064 1.63245 1.5314
2.70188 0.491937 1.50931
2.22496 0.797243 1.59426
2.34831 2.06733 1.7688
1.81349 1.31814 2.13534
2.31222 1.99444 2.0434
2.73064 1.39852 2.20389
2.73709 0.970311 1.39742
1.64992 1.09603 1.87518
2.38298 2.20767 1.91223
2.18002 1.71718 2.15946
3.24212 1.03288 1.90894
2.55083 2.23919 2.31886
2.6197 2.15161 1.98307
2.54598 0.701604 1.24047
2.19857 1.30688 1.77483
2.48706 1.56803 1.04105
1.47965 1.04513 1.27661
2.91756 1.46533 1.35594
2.63891 1.03508 1.60468
2.36185 1.56622 2.20243
2.8201 1.85427 1.71253
2.25303 1.55072 2.10767
2.26889 2.1157 2.35324
2.55021 1.35489 1.0257
2.41533 1.39146 1.50206
2.3073 1.72422 1.12679
1.81428 1.73577 1.88833
2.36054 1.41488 1.60472
2.8922 1.23975 1.65512
