ply
format ascii 1.0
comment Created by Open3D
element vertex 250
property double x
property double y
property double z
end_header
0.846244 3.69647 0.0400731
-1.37622 3.38758 -1.14366
-0.439133 1.023 -2.96406
-0.158845 2.15097 -2.58276
0.187097 3.69786 -0.475495
0.853063 2.02926 -2.19748
2.70139 1.20385 -1.92359
0.931927 1.90942 -2.30029
0.640374 3.2844 -0.256413
0.273648 3.02256 -1.89044
-0.909057 3.19484 -1.92122
0.395244 1.92347 -2.52185
-0.113036 3.55753 -1.54321
1.17456 2.48456 -1.64442
-0.548596 3.08254 -1.82836
-0.128893 3.98291 -0.769169
1.00003 1.76691 -2.19777
1.36155 0.788698 -2.80368
1.30578 1.44238 -2.26482
-0.358017 1.50858 -2.67547
-1.29101 3.13856 -1.91877
1.89639 1.70472 -2.02761
1.01715 3.07934 -1.45846
1.24661 1.46862 -2.42053
-0.169878 1.55449 -2.7639
0.403915 3.39313 -1.15914
1.6385 2.49802 -1.45034
-0.737654 3.96864 -0.831781
0.0577563 1.34874 -2.85485
0.0751625 3.00847 -1.98543
0.884231 3.65317 0.17082
-1.03441 3.78371 -0.79021
0.130605 3.71914 -0.17123
-1.59623 2.75047 -1.88386
-1.49715 3.26083 -1.2424
2.37484 0.923819 -2.24077
-0.501184 0.957227 -3.09564
-1.5975 2.99209 -1.59882
-0.046819 2.43766 -2.00677
0.331947 1.54592 -2.64493
0.228376 1.57332 -2.66093
1.20973 2.08485 -2.04362
-0.756333 3.47371 -1.71966
-0.250455 3.93773 -0.949675
-0.898415 1.36815 -2.99063
-0.631255 3.92484 -1.10795
0.0554662 0.41619 -3.23782
-0.619931 3.89387 -1.11385
1.50801 1.1735 -2.41214
-3.24933e-05 3.3028 -1.44199
-1.10075 3.1121 -1.71839
-0.442907 1.53844 -2.92987
0.395847 0.461425 -3.18292
-0.743964 3.42809 -0.929243
0.547447 2.48482 -2.12435
0.795203 0.452983 -3.07749
0.265116 1.87794 -2.56228
0.409731 3.1268 -0.541771
-0.218578 2.93686 -2.00726
0.732087 1.91245 -2.34537
1.24935 2.40799 -1.86173
1.20467 1.22077 -2.59176
-0.00350493 1.83756 -2.51259
0.143542 3.78784 -0.676568
-0.752008 3.74395 -0.793597
-1.55839 2.8639 -1.92157
-0.440352 2.80329 -2.27813
1.81523 1.02359 -2.49055
0.760226 3.58934 -0.460103
0.71089 2.45295 -1.99121
0.00265752 3.33358 -1.77701
0.0551875 1.41972 -2.64614
-0.0499708 2.97098 -0.879599
0.39135 1.2742 -2.85792
-0.00103911 0.963263 -3.12654
2.09221 0.754782 -2.45245
0.721187 0.6403 -2.94785
0.0807003 3.94975 -1.18723
-0.261268 3.29563 -1.84775
0.809282 2.40766 -2.04907
1.29129 2.41361 -1.62055
-1.15878 2.78726 -2.09089
-0.162754 3.45138 -1.2987
1.74202 1.96683 -1.82454
0.738551 2.10391 -2.27177
-0.362721 4.0446 -0.631731
1.80606 1.37428 -2.23052
0.604521 3.42233 -0.387795
1.22756 2.27578 -1.85893
-0.246679 2.70115 -2.2863
-0.617834 0.751599 -3.20801
1.59473 1.24458 -2.42675
0.0562991 3.28259 -1.39159
0.417306 3.82451 -1.274
-1.05991 2.95003 -2.21191
0.315546 1.23117 -2.83088
0.704151 3.02882 -0.980254
0.21687 3.62671 -0.399375
-0.758258 2.72762 -2.08812
0.997521 2.32147 -1.66157
-0.555132 3.24432 -1.93303
-0.0391725 3.7646 -0.864241
0.282747 3.86202 -0.965689
0.630179 3.09607 -0.816602
-0.826989 3.51207 -1.63128
1.16059 2.7416 -1.49569
0.97929 2.2411 -1.95513
0.87502 0.508188 -3.00772
1.67531 0.988045 -2.5615
0.59445 1.51727 -2.6698
-0.397098 1.4278 -2.87713
-0.766781 2.60076 -2.20244
0.437497 1.41109 -2.77455
0.419953 2.83478 -0.859145
1.51233 1.05269 -2.52165
-0.216652 3.02599 -2.06102
1.22926 1.00382 -2.69431
-0.185486 3.27138 -0.763801
-0.225709 3.69409 -1.27658
-0.862744 3.52319 -1.6187
2.40684 1.08969 -2.10791
-0.790067 3.37387 -1.65433
0.922355 2.43287 -2.00206
-0.635441 3.61381 -1.56911
2.2476 1.26077 -2.10695
1.30191 0.674877 -2.87967
-0.0969327 2.10757 -2.22219
-0.618814 1.70012 -2.82037
0.824306 2.05013 -2.21681
0.473032 0.821007 -2.94553
0.911966 1.54968 -2.50206
1.35972 0.579376 -2.94184
-0.126294 3.82029 -1.39346
0.270898 0.362664 -3.16255
-0.31178 1.65656 -2.6171
0.681857 1.57536 -2.55279
1.04769 0.795571 -2.85041
1.10655 2.18367 -2.05871
-1.19173 3.34857 -1.51606
1.94271 0.954233 -2.43224
-1.45389 3.17657 -1.50233
-0.659366 3.84776 -0.702652
-0.092669 0.581797 -3.17564
-0.0608508 3.57175 -1.48051
-0.0901766 3.34138 -1.47934
-1.51406 3.11373 -1.48018
0.518025 2.54575 -1.76073
1.99635 1.88381 -1.83817
-1.03113 3.32528 -1.57519
0.429612 3.21861 -1.27531
0.528821 0.677784 -2.98023
0.671369 3.29275 -1.0557
0.190964 0.515423 -3.26952
-0.341593 4.10558 -0.644378
0.824276 3.6087 -0.175022
-1.13437 3.11851 -1.8394
0.95629 0.575974 -3.08529
1.79125 2.816 -1.04452
1.09809 3.10194 -1.26847
0.512883 0.447608 -3.26043
-1.5321 2.38252 -2.45189
-0.299249 2.33007 -2.36476
-1.86158 2.74855 -1.89226
-0.254862 3.52856 -1.52675
0.0649655 1.43972 -2.79142
2.2177 1.30477 -2.13014
2.26265 1.20895 -2.12801
-0.36554 3.7281 -1.4702
0.78654 3.51426 -0.647468
0.274086 1.50577 -2.60469
-1.15647 3.00441 -2.13973
1.39865 0.994862 -2.59448
0.289588 1.8 -2.58181
-1.50917 3.06618 -1.61183
-1.49308 3.33072 -1.0552
-0.693427 3.64693 -1.52008
-1.15224 3.42151 -1.62131
-0.0494698 3.13279 -1.89454
0.223939 0.949268 -2.82365
0.264379 2.41007 -2.20066
0.459168 0.995259 -2.81092
1.57578 2.17241 -1.52848
0.378104 3.2765 -0.902953
-0.256134 2.87353 -2.11875
-0.797856 2.65186 -2.45267
-1.41823 3.23722 -1.23599
0.47052 1.85705 -2.45906
0.585063 1.71521 -2.54177
-0.705794 3.28265 -1.89203
-0.0694418 2.55233 -2.2868
-1.00462 3.03095 -2.16553
-1.33511 3.06569 -1.68614
0.170928 2.56949 -2.20201
-1.12993 3.35916 -1.43094
0.402173 0.951909 -3.05406
-1.89554 2.73998 -1.71591
0.37365 0.435405 -3.06486
-1.16092 3.42651 -1.60319
0.143145 2.39665 -2.34721
-0.27801 2.21719 -2.56333
-0.111451 -0.0400641 -3.27216
-0.120811 -0.129092 -3.24722
-0.492813 -0.0207406 -3.23541
-1.24569 -1.10469 -3.91472
0.464167 1.20453 -2.43342
-0.159366 -0.152161 -3.50593
-0.99045 0.088765 -3.1601
-0.692972 -0.528654 -3.88736
-0.771911 -0.296613 -3.22818
-0.305234 0.398053 -3.04366
-1.05447 0.316468 -3.17132
0.0104939 0.372828 -2.87957
-0.79865 -0.150324 -3.0262
-0.945384 -0.536741 -3.37985
-1.44534 -0.675177 -3.53298
-0.718072 -0.558449 -3.55115
-0.617697 0.262167 -3.06442
-0.178751 0.0209878 -3.1665
-0.66278 0.453448 -3.07203
-0.145132 1.30943 -2.60604
-0.951455 -0.702336 -3.69784
-0.435304 1.04508 -2.85208
-0.914023 0.272107 -3.18915
-0.566473 -0.506727 -3.48449
-1.41215 -0.322172 -3.20825
-0.712063 -0.334138 -3.27414
-0.421231 0.760898 -2.64208
-0.189276 0.698378 -2.97735
-1.56093 -0.49786 -3.42878
-0.558311 -0.507133 -3.43447
-0.944399 -0.195111 -3.14225
0.173531 1.52406 -2.37648
-0.484464 -0.079527 -3.01091
-0.299381 -0.101463 -3.15165
-0.420765 0.578329 -3.13538
-0.879946 -0.0565745 -3.24645
-0.171613 -0.252162 -3.5454
-1.58336 -1.02739 -3.99783
0.192856 0.552343 -2.97398
-0.382774 0.616921 -2.96601
-0.784532 0.179424 -2.92693
-0.00281508 0.274314 -3.02009
-0.878072 0.00313434 -3.06193
-0.841531 -0.312529 -3.12872
-0.129336 0.000640246 -3.40997
-0.504273 0.0096768 -3.29452
-0.4137 -0.593584 -3.74415
-1.2854 -0.841252 -3.63585
-0.605218 -0.0280059 -3.28296
-0.0500598 0.813929 -2.80268
