ply
format ascii 1.0
comment Created by Open3D
element vertex 400
property double x
property double y
property double z
end_header
3.11309 0.201127 0.503126
3.06461 -0.695901 -0.433045
3.056 -0.9433 -0.072612
2.98669 -0.493884 0.83065
3.05197 -1.00024 -0.349778
3.06354 1.23857 -0.194155
3.06837 -0.902814 -0.310241
3.12604 0.364928 -0.425347
2.94463 0.062734 -0.818199
3.05632 0.456428 0.0862221
3.18002 1.13071 -0.295859
3.00347 -0.0543296 0.308339
2.8583 -1.36913 -0.993231
3.14349 -0.546535 0.289108
3.03781 -1.04412 -0.368114
3.04667 -1.1581 -0.20006
3.15295 -0.243053 0.990681
2.89783 0.362683 0.663949
3.16375 -0.593796 -0.211047
3.02092 -0.63711 -0.864208
3.06849 0.199658 0.476799
3.2132 1.13078 -0.512102
3.22509 -0.41976 0.224295
3.22262 0.749864 -0.448589
3.04022 0.210779 -0.387734
2.80046 -0.437384 -0.06826
3.01752 -0.653101 -0.68368
2.91397 -0.738773 -0.485539
3.02971 0.857138 -0.874594
3.11482 0.0936658 -0.513448
3.10493 -0.00780041 0.167468
2.79755 -1.14623 0.700411
2.98164 0.413641 -0.686886
3.10565 -0.221698 0.629623
2.92995 0.511233 0.877884
3.31478 1.08029 0.189768
2.84826 -0.102281 -1.01448
3.20541 -0.0890806 -0.391135
2.97059 0.66713 -0.616011
2.95966 1.18161 -0.213587
3.24856 0.941187 -0.401218
2.99464 -0.920145 -0.184311
3.04693 -0.923088 -0.276079
3.07178 0.118595 0.53504
3.04832 1.24884 0.735125
3.14372 0.810708 -0.193344
3.10737 -0.208381 -0.0225315
3.13351 -0.91452 0.0446452
2.96483 0.264034 0.0882002
3.14444 1.28881 -0.489246
2.9354 -0.204011 -0.873992
3.13258 -0.12495 0.0636355
3.18091 0.139518 0.0767153
3.01016 -0.079157 0.462193
3.13058 -0.83779 0.563826
2.9314 -1.10438 0.23127
3.03453 -0.754401 0.592502
3.31199 1.72531 0.0616931
2.84058 0.0505867 0.275801
3.22889 0.801262 0.195733
3.11809 1.00322 0.593183
2.83885 -0.961995 0.669846
3.12021 0.300182 0.102174
3.11028 -0.00605564 0.456517
3.18594 0.908764 0.156436
2.98737 -0.732389 0.47408
3.18458 0.925674 -0.428583
2.81139 0.582988 0.415136
3.06989 0.638275 -0.59763
3.22879 0.919352 0.828616
3.14278 -0.0702047 0.0860078
3.24511 1.56097 -0.0927612
2.89161 -0.5266 -0.77768
3.11214 0.0210622 -0.761775
3.21315 1.20697 0.201334
2.89981 -0.940118 0.266487
3.17307 1.64076 -0.464836
3.05804 1.32334 -0.683028
3.0505 0.184415 -0.507964
3.07526 0.109216 -0.719007
3.17316 1.17877 -0.0149421
3.18306 0.0726956 -0.31407
3.00416 0.118242 0.571871
3.32814 0.996355 -0.0695457
3.18385 1.75503 -0.0869727
3.19182 0.661561 -0.309646
2.99606 -1.17445 -0.475829
3.10631 -0.461778 -0.621542
2.97454 1.53237 -0.849675
3.03566 -0.76324 0.01288
3.27158 0.660845 0.00742798
2.84689 -1.11621 -0.998422
2.80129 -0.342961 -1.08027
3.16307 0.884272 0.522752
3.11701 -0.829766 -0.342791
2.97419 0.209846 -0.954533
3.11071 0.553528 0.65676
2.84011 -1.25941 0.861336
3.32086 1.08747 0.394577
2.96009 0.673813 0.00807913
3.30604 1.53555 0.137862
3.16175 0.318869 -0.170984
3.26406 0.970557 0.743878
3.19928 1.43657 -0.363057
3.03066 1.11646 0.529166
3.23878 0.868471 1.18926
3.25755 0.427168 -0.0833634
2.9717 0.281467 -0.890607
2.9421 0.966257 0.953995
2.86619 -0.214755 -0.947119
2.97981 -0.0208801 -0.665748
3.1234 1.36177 0.659104
3.08407 0.950644 -0.181122
2.93156 -0.587566 -0.232848
2.86697 0.218165 0.746543
3.05973 1.53272 0.807246
3.08265 -0.115414 -0.700622
3.1435 1.15967 0.0112756
3.12069 0.552977 -0.314095
3.02849 -0.358128 -0.087123
2.94461 -0.660874 -0.728167
2.87927 -1.18343 0.809426
3.0873 0.453614 0.427617
3.07607 0.571544 0.559376
2.94527 0.134927 0.0259057
3.14769 0.654829 -0.301018
2.91043 0.0279754 -0.853292
3.11917 1.46181 -0.248431
2.94586 -0.831774 0.774865
3.01822 0.664641 0.0456233
3.24013 0.762977 -0.336703
2.78238 -0.728537 -0.852943
3.29876 0.982897 0.84839
3.07165 1.46895 1.10151
3.06069 0.499407 -0.614547
2.9906 0.599575 0.613241
2.97051 1.43165 -0.835234
3.12288 1.3788 -0.352406
3.09917 -0.119443 0.89743
3.16134 1.34098 0.764883
3.0962 1.53707 0.139731
2.93047 0.839248 -0.902776
2.95511 0.312357 0.80142
3.01257 1.17999 -0.419662
2.92146 1.24693 0.636979
3.00508 -0.618546 -0.81192
3.09276 -0.865358 0.242626
2.8782 -1.09283 -0.97291
2.85443 -0.821831 0.826361
3.17973 1.0678 -0.0331162
3.28406 1.02112 0.54931
2.963 -0.208335 0.414064
3.14017 0.36575 0.73433
3.07924 1.02132 -0.763409
2.88741 0.231647 -1.02481
2.97098 -0.9466 0.782974
3.07785 -0.720464 -0.0565041
3.03599 1.53998 0.242185
3.04815 1.04688 -0.776903
3.1238 -0.174345 -0.17991
3.06685 -0.341955 0.478299
3.10727 1.19355 -0.821189
3.18176 0.814765 -0.298979
2.90042 -0.343909 -0.139659
2.93184 0.285057 0.599644
3.01076 -1.20129 -0.539616
2.80026 -0.893854 -0.172618
3.23422 1.74424 -0.409826
3.1041 0.498365 1.10566
3.02256 -1.19007 0.757252
3.061 -0.721557 0.0791952
3.15993 0.741216 0.577961
2.8371 -1.12669 -0.105081
2.90273 0.790668 -0.962589
2.97052 -1.09305 0.132052
2.88677 -1.29608 -0.131612
3.37979 1.79091 0.493669
3.10674 1.11659 -0.152469
2.95088 1.02521 -0.781317
3.09102 0.961057 -0.474761
3.12053 -0.962801 -0.452145
3.04524 -0.761112 0.0940808
3.17293 -0.634609 -0.116167
3.16197 -0.732282 0.307844
3.02608 0.683729 0.949503
3.20398 0.906812 -0.346343
3.07371 -0.538359 -0.130242
3.26261 1.58001 0.819609
3.12212 0.304757 1.07617
2.93129 -0.80935 -0.772718
2.9557 -1.14014 0.397259
2.97911 -0.951898 -0.549135
3.06237 1.44546 -0.58298
3.28733 1.30953 -0.0958674
3.19697 -0.0482713 0.550123
2.7746 -1.21669 0.826082
2.72866 -0.189232 -1.06863
3.02712 -0.956791 -0.280917
3.02848 -0.45749 -0.700383
2.91312 1.26288 0.890863
3.29884 0.540836 -0.0182575
3.06291 1.3626 -0.0767741
3.15041 0.853796 0.250523
2.89497 -0.837889 -0.9131
2.99514 1.10899 0.642554
3.30649 1.33184 -0.464016
3.21611 -0.158657 0.714973
2.80009 -1.29449 0.585048
2.87753 0.122159 0.897618
3.13559 -0.267052 -0.036022
3.04963 1.544 -0.214993
2.99889 -0.34167 -0.0753569
3.10996 -1.1176 0.893702
2.92817 -0.898263 -0.328152
3.2505 1.19985 -0.447685
2.99041 0.104102 0.911606
3.04652 -0.27364 -0.042673
3.21959 0.65629 -0.360283
3.1411 1.16932 -0.0408683
2.97274 -1.24125 -0.248376
3.10431 0.445967 -0.666564
3.11253 1.55725 -0.551238
3.02004 -0.435434 0.574863
3.0275 -0.698413 -0.569265
2.77468 0.064139 0.504285
2.95123 -0.0821051 1.02429
3.03729 0.19397 -0.700199
2.82087 -0.597356 0.604018
3.16582 0.747704 0.530926
3.07502 -0.0245289 0.86842
3.08703 1.241 -0.624967
2.78865 -0.689867 0.744402
2.95668 -0.040898 -0.804169
2.99688 -1.14562 -0.409369
3.3167 1.86102 0.0289674
3.23468 0.138627 0.348241
3.25697 1.22218 -0.429674
3.18194 0.723701 0.776114
2.98887 -0.0661433 0.591071
2.82474 0.972995 0.742886
2.81081 -0.973913 0.847725
3.0672 0.677265 0.899273
3.11011 -0.0618578 0.346378
3.03471 0.556764 0.802402
2.96262 -0.0598209 -0.614011
3.00504 0.336042 1.00659
3.17721 0.882347 0.111752
2.80296 -0.663586 0.362906
2.93636 0.241481 -0.307887
2.98296 1.05099 -0.671236
2.91754 -1.05394 0.362742
2.95713 -0.281562 0.981336
3.18968 0.725537 -0.120298
2.99271 0.023488 0.894828
2.95719 -0.690092 1.01192
3.29836 0.726457 0.199703
3.149 0.326227 -0.0859929
3.01975 -0.569641 0.685081
3.12053 -0.965628 -0.430221
3.13391 0.500489 0.413424
3.17346 -0.334848 0.345244
3.04782 0.694848 -0.533031
2.863 -0.647614 -0.872333
3.08591 0.766711 0.0860066
2.92801 -0.393226 -0.580887
3.01677 1.01876 1.03076
3.17913 -0.630663 0.36665
3.23284 1.44543 0.739324
3.38539 1.0189 -0.262259
2.88663 0.261683 0.513785
3.13052 0.719275 -0.190514
3.11937 1.15562 0.802661
3.03158 -0.551822 1.07608
2.84571 1.37927 0.868759
2.96967 -0.705958 -0.0886898
3.2426 -0.368639 0.515063
3.19516 1.77928 0.217549
3.07099 0.399862 0.303588
3.08613 0.935913 -0.311162
3.15979 0.832804 0.466417
2.98961 0.599321 -0.670517
3.02795 1.34576 -0.840083
2.95059 -0.663034 -0.518456
3.17035 1.69063 -0.132621
3.01492 -0.181486 0.410588
3.11337 0.443113 -0.0203611
3.19896 0.130358 1.00521
3.11426 0.86768 0.184586
3.2314 0.738285 0.370519
2.93339 -0.992172 -0.845457
3.13907 0.234152 -0.219849
3.20363 0.186055 -0.305311
2.97691 -0.50951 0.0779743
2.93884 -1.02626 -0.124919
3.22366 -0.312223 -0.296989
3.27854 1.67582 -0.305042
2.96384 -0.0312971 -0.938833
2.85764 -0.569949 0.716185
2.94825 -0.107374 0.383086
3.09904 1.39367 0.288309
2.90711 -0.892034 -0.723141
2.97096 -0.743895 -0.308716
3.29304 1.5888 0.378951
3.19667 0.605637 0.623216
3.10754 1.56385 0.678997
3.00685 0.0452446 0.286253
3.13248 0.813957 0.346299
2.88638 -1.01675 -0.914593
3.16304 1.00209 0.0228573
3.18824 0.554467 0.328076
3.19357 1.48545 0.809887
3.07058 -0.807968 -0.166514
3.14672 1.18244 0.0263888
2.84397 1.19716 -0.916168
3.21465 0.890463 -0.384576
3.19936 -0.13837 0.328897
2.87476 0.507746 -1.01378
2.79797 -0.589665 0.666154
2.97435 1.15545 0.906759
2.9595 -0.307559 0.651966
2.97681 -0.517489 0.218043
2.89168 -0.470388 0.74547
3.10458 0.743238 -0.471731
2.9839 -1.24893 0.96979
3.01615 0.0389511 -0.748906
3.15724 -0.286215 0.127159
3.18414 -0.417948 -0.450453
3.20827 1.23711 -0.6159
3.06829 0.2457 0.719998
3.13125 -0.2737 -0.338546
3.07666 -0.711782 0.577911
3.24002 1.31358 -0.0642841
2.9731 -1.24896 0.717579
2.92248 0.642756 0.880899
2.94792 1.12405 -0.862849
3.27443 1.46732 0.447209
3.00965 1.21351 0.837782
3.07466 1.24679 0.455167
3.19047 1.61662 0.180427
3.00035 -0.708214 -0.29868
2.77107 -0.545219 0.187982
2.92349 -0.227153 -0.925285
3.21827 -0.921375 0.569742
3.05881 0.894634 -0.386275
2.93823 0.281993 -0.494301
2.9363 -0.629002 -0.226246
3.13495 -0.127235 -0.116656
3.17503 -0.864229 -0.325588
2.94109 -0.248599 0.249388
2.97172 -1.20309 -0.930012
3.12119 1.25124 -0.76494
3.05292 0.0056131 -0.650498
3.47349 1.80862 0.290287
2.95844 -1.14443 0.0887979
2.9896 -0.284222 0.0841844
3.08998 1.10816 0.871124
2.91741 0.553635 -0.779016
3.03098 1.16073 -0.632697
3.1791 1.22757 -0.476216
3.15617 0.370437 -0.418833
2.86161 0.30222 -1.04434
3.03042 1.53771 -0.392159
3.09737 -0.548146 0.591328
3.06714 0.861218 0.855053
3.01088 1.57294 -0.549544
3.05841 -0.352984 1.07312
3.07902 1.00409 0.700639
3.2166 -0.138716 0.186273
3.13911 -0.65093 0.688996
3.01092 -1.13547 -0.632787
3.10056 1.38065 -0.534853
3.35404 1.33024 0.479721
2.99344 -0.421167 0.772839
3.23995 1.04013 0.515582
2.94786 0.923977 -0.704347
3.03377 0.549421 0.585761
3.01299 -0.183444 0.00506846
2.84349 -0.613557 -0.842582
2.9172 -1.18891 0.178624
3.20104 0.0900848 0.0228791
3.00163 1.24369 -0.930073
3.20922 0.286207 0.0894819
3.31702 1.27937 0.539925
2.96426 -1.08564 0.93726
3.23022 -0.971449 0.159103
3.01362 -1.00047 -0.279522
3.10677 -0.785908 0.285309
3.04602 -0.171895 0.304519
3.01151 1.29509 -0.70413
2.94028 -1.21809 -0.257253
3.02496 0.11073 0.832359
2.98747 -0.864523 0.534016
3.03188 -0.778807 0.139213
2.8322 -1.19531 -0.798771
3.08063 -0.217609 -0.257333
3.04773 0.199545 -0.688233
2.93622 -0.0146367 0.865902
3.18203 0.0308925 0.0627478
3.09001 0.282483 0.209944
2.87032 -0.295805 0.155361
