ply
format ascii 1.0
comment Created by Open3D
element vertex 250
property double x
property double y
property double z
end_header
0.288174 -1.95415 2.82539
0.476097 -3.55332 0.904208
-2.02997 -2.47733 -0.564808
-1.79476 -3.03456 0.581486
0.115569 -2.70079 2.37524
-2.08233 -2.24139 1.26797
-2.77156 -0.27019 1.68615
-2.01231 -1.92245 0.977115
-0.105023 -2.15387 2.53696
-1.1792 -2.88802 1.49337
-0.532966 -3.6641 0.889552
-2.10816 -2.57352 0.809277
-0.602755 -3.2963 1.73389
-1.63773 -1.99406 1.8458
-1.00967 -3.72736 1.41393
0.193281 -3.10693 2.17226
-2.31638 -2.1062 1.29918
-2.96088 -1.30742 0.456786
-2.58407 -1.74272 1.24011
-1.66468 -2.51517 -0.199983
-0.449122 -3.96335 0.746692
-2.08699 -0.822885 1.239
-1.12064 -2.18929 2.01392
-2.44555 -1.61228 0.931626
-1.92836 -2.59985 0.0134943
-0.665961 -2.7843 2.13469
-1.58707 -1.49133 2.04853
0.542612 -3.37757 1.7038
-2.19762 -2.42304 0.0233382
-1.12419 -3.00377 1.30587
0.363549 -1.84097 2.86713
0.741039 -3.35132 1.38457
0.421777 -2.56409 2.43249
-0.243677 -3.75778 0.24434
0.387413 -3.64179 0.771194
-3.04373 -0.579751 1.35251
-2.20739 -2.63811 -0.592201
0.0544396 -3.75171 0.470873
-1.6775 -3.26316 1.3811
-2.03085 -2.17641 0.269674
-1.99835 -2.27699 0.236272
-1.9728 -1.81644 1.39326
-0.409461 -3.67564 1.23456
0.0853422 -3.25554 2.02983
-1.89158 -3.1447 -0.469865
0.229597 -3.45607 1.66986
-2.64355 -1.95358 -0.735681
0.163374 -3.48846 1.70656
-2.80149 -1.45761 1.07645
-0.789835 -3.19613 1.84155
-0.158583 -3.47319 0.665756
-2.06645 -2.98992 -0.0611365
-2.76165 -1.7556 -0.499776
0.00242484 -3.48284 1.70397
-1.51387 -2.3809 1.12957
-2.79222 -1.36379 -0.337569
-1.95799 -2.49712 0.563576
-0.343373 -2.43461 2.30989
-0.86804 -2.98159 0.945217
-2.18074 -2.32921 1.09513
-1.65509 -1.76935 1.54596
-2.62352 -1.57399 0.70826
-1.63297 -2.42486 0.242489
0.0193934 -2.85574 2.31029
0.353529 -3.42745 1.75972
-0.32229 -3.88703 0.376307
-1.27414 -3.46959 0.92987
-2.77024 -0.901686 0.837192
-0.152465 -2.2517 2.60081
-1.72126 -2.45429 1.48165
-0.773887 -3.06244 1.45412
-1.81838 -2.14478 -0.06567
-0.536278 -2.90904 1.96769
-2.45987 -2.26724 0.241515
-2.58331 -2.47741 -0.216945
-3.20637 -0.85546 1.12278
-2.55777 -1.40194 -0.275783
-0.163361 -3.06556 2.02789
-0.872319 -3.41737 1.43312
-1.70623 -2.25929 1.36331
-1.68853 -1.86404 1.87203
-0.607422 -3.60961 0.421959
-0.544202 -3.2961 1.87307
-2.05953 -1.28538 1.66211
-1.9158 -2.21974 1.06487
0.477013 -3.16735 2.08326
-2.54693 -1.07503 1.2017
-0.128831 -2.28886 2.519
-1.30605 -1.28351 1.07646
-1.49283 -3.4002 1.06948
-2.30266 -2.65415 -0.79946
-2.49689 -1.06766 0.803779
-0.78791 -3.13188 1.88427
-0.369706 -2.76344 2.04715
-0.891386 -3.90983 0.711607
-2.29109 -2.13702 0.0600431
-0.841187 -2.38973 2.23738
0.128183 -2.62118 2.3944
-0.719094 -3.22081 0.504856
-1.74501 -2.17074 1.79688
-0.880902 -3.68724 1.2895
-0.0678848 -3.06808 2.15407
-0.196925 -2.88463 2.25887
-0.659349 -2.39628 2.29502
-0.23922 -3.63479 1.19146
-1.40108 -2.02926 1.98733
-1.89056 -2.16429 1.53407
-2.71926 -1.26597 -0.282821
-2.81167 -1.05019 0.762585
-2.40666 -2.26313 0.615769
-1.97115 -2.75345 -0.187713
-0.871156 -3.2443 0.422781
-2.38804 -2.28711 0.379876
-0.765113 -2.51292 2.13237
-2.40933 -0.855794 0.439459
-1.08644 -3.28314 1.1824
-2.62711 -1.31638 0.412399
-0.214777 -3.0132 2.01394
-0.331077 -3.34949 1.8759
-0.233784 -3.68508 1.20874
-2.87571 -0.5529 1.47287
-0.19422 -3.40996 1.0045
-1.62614 -2.079 1.36001
-0.329965 -3.63094 1.44943
-2.67543 -0.660795 1.40185
-2.91318 -1.19085 0.221457
-1.13553 -2.32654 0.288566
-1.80046 -3.0795 -0.0803578
-2.05636 -2.25553 1.23442
-2.47283 -1.75286 -0.220094
-2.233 -1.79621 0.670408
-3.13339 -1.26404 0.299938
-0.218954 -3.1691 1.72833
-2.60175 -1.64072 -0.727456
-1.61216 -2.55619 -0.0619551
-2.13424 -1.95232 0.521592
-2.68293 -1.34237 0.108155
-1.684 -1.68872 1.15333
0.0533183 -3.63001 0.877011
-2.96665 -0.940228 1.05725
0.121861 -3.71083 0.671696
0.453649 -3.33542 1.85179
-2.49236 -2.12501 -0.687371
-0.586008 -3.25539 1.80404
-0.759544 -3.28458 1.79484
0.16755 -3.68279 0.596613
-1.57827 -2.69302 1.67607
-2.06944 -0.923195 1.59582
-0.0242755 -3.48683 0.873637
-0.856193 -2.76883 2.05187
-2.51937 -1.60079 -0.329196
-0.73141 -2.50345 2.25075
-2.83534 -2.08813 -0.487508
0.502967 -3.16167 2.0923
0.0671097 -2.06392 2.72771
-0.748554 -4.13707 1.14042
-3.18081 -1.72287 0.163974
-1.23052 -1.3577 2.42508
-1.05411 -2.11889 2.1907
-3.03237 -1.8828 -0.317605
-0.957599 -3.9342 0.0132082
-1.30657 -2.89123 0.47501
-0.254261 -4.07224 0.235412
-0.587527 -3.42486 1.70912
-2.10375 -2.41443 0.0760673
-2.59135 -0.628994 1.32233
-2.7319 -0.65317 1.39337
-0.17842 -3.28755 1.51171
-0.347364 -2.29848 2.52073
-1.89374 -2.06936 0.139697
-0.763637 -3.95457 0.705951
-2.95631 -1.52736 0.870859
-1.97898 -2.41602 0.498757
0.0194621 -3.74863 0.555796
0.542863 -3.59994 0.888788
-0.229852 -3.63403 1.42882
-0.23882 -3.93606 1.1178
-1.08361 -3.24919 1.46984
-2.12457 -1.8097 -0.340153
-1.7961 -2.93202 1.26216
-2.2552 -1.73095 -0.143825
-1.8505 -1.54463 1.95934
-0.543219 -2.67917 2.21301
-1.04579 -3.12486 0.944731
-1.32241 -3.73321 0.637275
0.434127 -3.47921 0.713205
-1.86914 -2.18278 0.582542
-2.34552 -2.43173 0.866714
-0.792144 -3.81189 1.27256
-1.66798 -3.26265 1.13384
-0.884895 -3.92872 0.828258
-0.0769511 -3.62491 0.573278
-1.62963 -2.99082 1.21604
-0.247437 -3.94449 1.30121
-2.78048 -2.25396 0.0772761
-0.0387477 -3.9329 0.211741
-2.49731 -1.50759 -0.657213
-0.218333 -3.9348 1.12178
-1.72395 -2.91788 0.99884
-1.68093 -3.10975 0.536963
-2.47951 -1.54599 -1.32876
-2.40053 -1.39941 -1.45517
-2.2704 -1.78303 -1.49891
-2.79895 -2.02122 -2.67131
-1.62517 -1.35095 -0.179619
-2.8378 -1.81247 -1.32672
-1.98826 -2.16722 -1.62865
-3.15019 -2.29629 -1.7807
-2.09254 -1.66551 -1.91187
-2.12411 -1.84707 -1.07262
-2.00653 -2.45744 -1.43701
-1.98197 -1.36588 -1.03714
-1.80655 -1.58442 -1.85048
-2.21143 -1.72757 -2.17134
-2.26799 -2.18609 -2.42376
-2.55552 -1.76423 -2.02682
-2.00637 -1.94773 -1.34168
-2.28978 -1.50626 -1.35283
-2.02683 -2.188 -1.17296
-1.63122 -2.08443 -0.310271
-2.67447 -1.98239 -2.20281
-1.8543 -2.3395 -0.596693
-2.08249 -2.33446 -1.41126
-2.51117 -1.61129 -1.9466
-1.864 -2.1342 -2.16737
-2.17405 -1.63656 -1.91054
-1.50786 -1.76786 -0.942682
-2.12309 -2.00279 -0.743686
-2.11284 -2.34307 -2.31918
-2.42763 -1.52748 -1.97438
-1.92984 -1.80571 -1.90112
-1.44249 -1.78481 -0.04774
-1.8971 -1.39149 -1.66982
-2.18193 -1.42236 -1.55232
-2.25242 -2.24676 -0.902542
-2.1363 -2.04358 -1.69328
-2.86716 -1.75575 -1.4258
-2.85914 -2.51428 -2.65394
-2.27285 -1.60294 -0.692357
-2.00249 -2.02344 -0.929058
-1.72541 -1.80683 -1.54482
-2.18623 -1.46814 -1.07267
-1.86749 -1.86554 -1.70523
-1.91022 -1.56671 -1.99917
-2.72993 -1.82933 -1.19831
-2.36874 -1.91003 -1.44183
-2.98918 -1.79237 -1.82347
-2.42821 -1.99386 -2.51084
-2.30168 -1.92268 -1.53219
-1.92108 -1.78628 -0.647376
