ply
format ascii 1.0
comment Created by Open3D
element vertex 400
property double x
property double y
property double z
end_header
0.114033 -2.79793 1.32741
1.36776 -2.39275 1.52531
1.32542 -2.67388 1.11936
0.495689 -2.98489 0.675727
1.5429 -2.50932 1.29476
-0.831859 -2.65683 2.1857
1.4713 -2.49988 1.33298
0.436373 -2.32474 2.07104
0.64584 -2.23606 2.03708
-0.184318 -2.78421 1.63158
-0.342085 -2.39139 2.36758
0.169519 -2.88828 1.20447
1.88153 -2.34591 1.38209
0.995034 -2.69499 1.1622
1.55729 -2.52464 1.26903
1.56289 -2.64188 1.09478
0.584844 -2.81116 0.886105
-0.486192 -3.02134 1.07458
1.36641 -2.39114 1.52735
1.64146 -2.01657 1.87448
0.0229148 -2.84592 1.29128
0.0266956 -2.05572 2.61909
1.09402 -2.55084 1.36439
0.358982 -2.11377 2.40045
0.310044 -2.5194 1.85189
0.201376 -3.03647 1.03239
1.43203 -2.23859 1.69474
1.03381 -2.61894 1.34561
0.263671 -1.9089 2.59847
0.793215 -2.22794 2.01866
0.399056 -2.71367 1.43701
0.703433 -3.24034 0.223254
0.216944 -2.35106 2.11604
0.503092 -2.82426 1.05247
-0.543153 -2.96187 1.06878
-0.248409 -2.48289 2.15405
0.772369 -2.17818 2.01367
1.13893 -2.15556 1.96222
-0.177192 -2.48065 2.14206
-1.02073 -2.79878 2.04469
0.181819 -2.12556 2.47752
1.21577 -2.69902 1.13543
1.40975 -2.56027 1.26918
0.1047 -2.84849 1.22442
-1.00401 -2.8035 1.62335
-0.198497 -2.53151 2.09356
0.704224 -2.61153 1.48466
1.42491 -2.62313 1.14448
-0.197773 -2.89857 1.43593
-0.385565 -2.2412 2.56559
0.969164 -2.17025 1.96068
0.636629 -2.6209 1.49183
0.470867 -2.57053 1.65802
0.181823 -2.9075 1.1081
1.14672 -2.82165 0.829426
1.0467 -2.98909 0.682826
0.861464 -2.92747 0.743336
-0.792183 -2.37886 2.54752
-0.288235 -3.07822 1.08296
-0.171065 -2.59869 1.92084
-0.672462 -2.78733 1.64884
0.633096 -3.16774 0.378644
0.132362 -2.68766 1.63241
0.327719 -2.78861 1.25984
-0.370648 -2.64783 1.94208
0.766257 -2.95351 0.773261
0.0214914 -2.23742 2.40013
-0.870141 -3.09855 1.21889
0.157481 -2.27413 2.2619
-0.37709 -2.68653 1.59999
0.593743 -2.61924 1.51282
-0.724149 -2.40829 2.49638
1.02934 -2.38888 1.65794
1.19396 -1.89712 2.22549
-0.616793 -2.62297 2.08164
0.819536 -3.02039 0.703524
-0.611568 -2.14388 2.76502
-0.410412 -2.14511 2.65116
0.483774 -2.38231 1.95757
0.90997 -2.05607 2.16259
-0.599835 -2.59423 2.16543
0.822743 -2.28762 1.93377
-0.0398512 -2.92577 1.12705
0.0296611 -2.30212 2.3261
-1.02956 -2.45838 2.51771
0.198267 -2.33199 2.19071
1.6387 -2.53181 1.23431
1.45503 -2.11306 1.85634
-0.514284 -1.95646 2.83287
1.06447 -2.73443 1.11906
0.180462 -2.43028 2.04718
1.66855 -2.29454 1.50715
0.946942 -2.19731 1.89814
-0.468482 -2.74727 1.68108
1.55957 -2.38721 1.4576
0.827971 -1.93638 2.29718
-0.25723 -2.81441 1.39593
0.855732 -3.24379 0.11578
-0.310605 -2.544 2.03042
-0.611404 -2.89768 1.66203
-0.683335 -2.45383 2.39126
0.371952 -2.47093 1.89184
-0.358382 -2.65188 1.70791
-0.500605 -2.26331 2.59884
-0.940272 -2.85447 1.64602
-0.277698 -2.648 1.39976
0.459871 -2.37051 1.99926
0.630348 -2.05988 2.25316
-0.90617 -2.88201 1.2683
0.846521 -2.23443 1.92172
0.656158 -2.34453 1.90828
-0.975987 -2.73762 1.79527
-0.510719 -2.64414 2.06806
0.758907 -2.76022 1.24426
-0.401738 -3.05055 0.93071
-1.19882 -2.72583 1.74623
1.1392 -2.05886 2.05558
-0.664754 -2.64858 2.10208
0.107604 -2.46011 2.04789
0.692016 -2.6946 1.36451
1.26797 -2.33751 1.62747
0.877459 -3.18524 0.227638
-0.188668 -2.82236 1.45534
-0.34156 -2.84609 1.42042
-0.0885446 -2.89888 1.39627
0.0648884 -2.42797 2.11807
0.613483 -2.26897 2.00353
-0.851422 -2.50878 2.40699
0.720316 -3.05732 0.498358
-0.478683 -2.83226 1.70326
0.266857 -2.21029 2.32782
0.975138 -2.53577 1.47605
-0.302331 -2.61819 1.69398
-1.06862 -2.67132 1.58309
0.297499 -2.26378 2.20443
-0.537262 -2.92829 1.31121
-0.508428 -2.04729 2.74712
-0.683797 -2.42788 2.45504
0.367185 -2.85142 0.938608
-0.883036 -2.7034 1.7683
-1.14089 -2.70001 2.14976
-0.0586182 -2.14984 2.45183
-0.321892 -2.96465 1.03906
-0.754052 -2.58663 2.26555
-1.22833 -2.90286 1.54621
1.51001 -2.11362 1.81095
1.19361 -2.76451 0.981661
1.71247 -2.25856 1.53954
0.528957 -3.14731 0.375152
-0.465591 -2.57752 2.13552
-0.35372 -2.61666 1.86399
0.217184 -2.95415 1.02446
-0.0154613 -2.78988 1.29907
0.0784264 -1.97949 2.62775
0.602705 -2.05306 2.24098
0.866926 -3.05066 0.463462
1.16415 -2.63416 1.24114
-1.27608 -2.7721 2.02538
-0.0386945 -2.03996 2.60329
0.809087 -2.48906 1.6381
0.564647 -2.84416 1.04436
0.181593 -1.73212 2.83831
-0.00795506 -2.37495 2.23275
0.376818 -2.86752 1.24524
-0.349308 -2.99609 1.10898
1.74835 -2.4637 1.29023
0.704752 -2.98936 0.897579
-0.57064 -2.06061 2.85579
-0.191716 -2.79745 1.12575
1.17079 -3.04184 0.409936
1.05488 -2.72768 1.12343
-0.338751 -2.75747 1.58038
0.981732 -2.98205 0.785989
-0.00239511 -2.11445 2.45241
1.16041 -2.90316 0.80001
1.25884 -2.92401 0.780767
-0.847194 -2.43608 2.3751
-0.632968 -2.62312 2.15184
-0.370808 -2.29649 2.43847
-0.259205 -2.38917 2.32043
1.77288 -2.31045 1.48445
1.04796 -2.7584 1.07534
1.36278 -2.44476 1.44689
1.20621 -2.68804 1.08432
-0.519464 -2.86181 1.21417
0.00946358 -2.2877 2.3455
1.0184 -2.59367 1.37375
-0.900015 -2.58262 1.9637
0.0166261 -2.80074 1.06705
1.41238 -2.32826 1.57722
1.07912 -3.01673 0.585777
1.46365 -2.46735 1.38278
-0.649568 -2.26648 2.61625
-0.382359 -2.36017 2.43223
0.543967 -2.70127 1.28455
0.702948 -3.28834 0.0894664
0.517798 -2.40009 1.84028
1.39224 -2.59167 1.23117
1.30032 -2.18564 1.81794
-1.20394 -2.85419 1.42372
0.404312 -2.35369 2.05248
-0.99984 -2.70015 2.16333
-0.424166 -2.72078 1.81486
1.485 -2.24785 1.63874
-0.988885 -2.87504 1.54656
0.0939649 -1.88069 2.81212
0.663911 -2.71085 1.15612
0.845584 -3.24899 0.218369
-0.279158 -3.03453 0.817882
0.846908 -2.55573 1.50516
-1.11015 -2.61578 2.33787
0.592986 -2.74757 1.32567
1.26016 -2.96741 0.459591
1.11438 -2.71206 1.16843
-0.00780407 -2.05846 2.64313
-0.0530336 -2.93934 0.919855
0.626714 -2.69345 1.3928
0.343374 -2.21993 2.27341
-0.656508 -2.62829 2.13962
1.48105 -2.73294 0.997171
0.580446 -2.07789 2.30196
-0.617418 -2.1727 2.71837
0.5368 -2.91868 0.889112
1.38749 -2.33843 1.58737
-0.443771 -3.15431 0.888788
0.0532388 -2.98009 0.730495
0.661915 -2.1814 2.12118
0.276661 -3.14156 0.574341
-0.329498 -2.74762 1.61676
0.230263 -2.86928 0.973079
-0.337527 -2.18356 2.59221
0.290498 -3.18801 0.415843
0.776742 -2.22084 1.99665
1.56772 -2.57478 1.1979
-0.866763 -2.32244 2.64862
0.493063 -2.60299 1.5403
-0.0334412 -2.06823 2.64526
-0.282299 -2.74054 1.48652
0.109688 -2.94532 1.01492
-1.14561 -2.99736 1.25908
0.573064 -3.21165 0.240203
-0.446479 -2.83641 1.27866
0.410642 -2.76133 1.30341
-0.403066 -2.88101 1.23762
0.585785 -2.43666 1.81953
-0.232878 -2.90188 0.996317
-0.348324 -2.64318 1.94928
0.32953 -3.13702 0.663809
-0.0750005 -2.76988 1.66155
-0.449995 -2.38197 2.38736
0.933192 -3.03829 0.607284
0.243012 -2.99568 0.663189
-0.0309426 -2.49508 2.06224
0.0260063 -2.94322 0.893045
0.602919 -3.04437 0.445818
0.0776095 -2.49429 1.97196
0.272312 -2.55046 1.81335
0.646254 -2.94313 0.75996
1.75675 -2.3294 1.4651
-0.133211 -2.76663 1.53824
0.836679 -2.67163 1.25808
-0.0541772 -2.40715 2.19251
1.16598 -2.34464 1.64692
-0.43767 -2.75687 1.80393
0.803387 -2.51785 1.59757
-0.812515 -2.81053 1.33076
1.12911 -2.68069 1.11383
-0.846815 -2.63423 1.90707
0.37804 -1.98845 2.58648
-0.416005 -3.04096 1.09601
-0.13945 -2.5507 2.03423
-0.793809 -2.75756 1.61385
0.622855 -2.96055 0.557762
-1.39619 -2.86263 1.43371
0.896728 -2.7789 1.13527
0.974476 -2.63676 1.21454
-1.14672 -2.5626 2.3375
-0.148644 -2.81977 1.48702
-0.401616 -2.55183 2.16367
-0.419848 -2.74684 1.68618
0.0235832 -2.36671 2.19236
-0.215221 -1.89741 2.8033
1.08817 -2.52546 1.45621
-0.985571 -2.46529 2.50084
0.303976 -2.89243 1.09846
0.0148896 -2.65537 1.76925
0.324605 -2.744 1.10445
-0.503175 -2.74975 1.81997
-0.151948 -2.64506 1.7838
1.65269 -2.27287 1.55354
0.437067 -2.46785 1.86363
0.753528 -2.26405 2.00381
0.644093 -2.84232 1.11841
1.14281 -2.82229 0.972213
1.3294 -2.20649 1.80743
-0.526828 -2.12956 2.77967
0.998015 -1.99712 2.15186
0.317464 -3.11012 0.563925
0.088436 -2.96718 1.07156
-1.04246 -2.74783 1.9904
1.36629 -2.43286 1.46043
1.06545 -2.6494 1.28091
-0.833409 -2.53765 2.24663
-0.131585 -2.72262 1.53379
-1.16323 -2.70692 1.87351
0.0789898 -2.88261 1.26609
-0.443002 -2.76152 1.71751
1.61129 -2.29184 1.53778
-0.468024 -2.62897 2.04574
-0.0490813 -2.68286 1.67824
-0.942368 -2.6505 1.85103
1.29342 -2.58513 1.27175
-0.68505 -2.64932 2.10639
-0.656419 -2.30323 2.50527
0.103309 -2.22088 2.38867
0.704276 -2.63345 1.3883
0.258688 -2.10832 2.33256
0.220767 -3.16687 0.518025
-1.01981 -2.83872 1.41867
0.279466 -2.98759 0.835974
0.603321 -2.89097 1.02252
0.291543 -3.07052 0.632034
0.00639968 -2.35494 2.24154
1.10452 -3.1283 0.209421
0.82075 -2.15645 2.06923
0.836781 -2.60667 1.40765
1.4645 -2.13758 1.83496
0.0930644 -1.87809 2.77712
-0.0416541 -2.86424 1.1731
1.05869 -2.34626 1.73135
0.915244 -2.87319 0.820596
-0.533473 -2.45991 2.34824
1.12671 -3.09536 0.349554
-0.673808 -2.95353 1.12362
-0.318135 -2.142 2.57504
-0.777411 -2.58452 2.12484
-1.02335 -2.81949 1.51616
-0.973527 -2.8014 1.79658
-1.02148 -2.59533 2.26999
1.10177 -2.6068 1.32796
0.176161 -3.14013 0.787444
1.02564 -2.12501 1.98353
1.40558 -2.73406 0.884208
-0.375319 -2.53949 2.16887
0.0204852 -2.63575 1.82627
0.809461 -2.75584 1.22695
0.746924 -2.51526 1.62507
1.73071 -2.30855 1.50266
0.241722 -2.94797 1.08132
2.01067 -2.16415 1.5687
0.0568738 -1.81308 2.81852
0.84937 -2.19794 2.01545
-0.600309 -2.26518 2.62158
1.19509 -2.90778 0.789564
0.441039 -2.83278 1.22996
-0.794935 -2.77676 1.52601
-0.0273847 -2.39116 2.16732
-0.444799 -2.31505 2.47459
-0.234176 -2.18571 2.5753
0.518648 -2.26708 2.11175
0.469276 -2.09011 2.25181
-1.02616 -2.51886 2.44811
0.805571 -2.83995 0.914073
-0.619223 -2.82514 1.38975
-0.941932 -2.37988 2.57956
0.499309 -2.91209 0.685748
-0.741729 -2.81666 1.55084
0.805018 -2.5503 1.50613
0.968679 -2.82136 0.852323
1.77594 -2.37045 1.401
-0.543798 -2.26371 2.59098
-0.492606 -2.5164 2.12835
0.446141 -2.96846 0.750771
-0.460487 -2.66031 1.84295
-0.401131 -2.42501 2.30699
-0.405329 -2.88968 1.34928
0.424255 -2.77218 1.35639
1.03831 -2.41873 1.60725
1.10642 -2.99969 0.658934
0.605683 -2.50528 1.70155
-0.0249442 -1.78288 2.82261
0.378552 -2.54446 1.74775
-0.531752 -2.56941 2.02677
0.947019 -3.10288 0.294151
1.64465 -2.55702 1.15207
1.39572 -2.61837 1.19162
1.13697 -2.75571 1.00797
0.387922 -2.82999 1.20488
-0.514731 -2.23115 2.58635
1.38799 -2.77038 0.975418
0.00352313 -2.9107 1.00209
0.873267 -2.97873 0.672607
1.01378 -2.7969 1.01997
1.48968 -2.53783 1.27282
0.790534 -2.50771 1.62148
0.675449 -2.17273 2.12802
-0.0464699 -2.99733 0.830561
0.597951 -2.55319 1.62287
0.0410916 -2.76643 1.51686
0.152345 -3.01378 1.03554
