ply
format ascii 1.0
comment Created by Open3D
element vertex 400
property double x
property double y
property double z
end_header
-1.29891 3.11105 0.75545
-1.70513 1.48455 2.32151
-1.21804 2.98808 0.997464
-0.331074 2.76087 1.84984
-1.91251 2.40511 0.661759
-1.73995 2.60284 0.594134
-0.430607 3.15585 1.27204
-1.53948 2.55377 1.15584
-2.12371 1.12872 1.96909
-1.5422 1.14653 2.67665
-1.44013 3.04486 0.226736
-1.1583 2.66987 1.35171
-0.865625 2.20273 2.09835
-1.69667 1.60191 2.06899
-1.47943 1.92997 1.81521
-1.35111 3.18182 0.0740105
-1.30457 3.13154 0.540145
-1.29248 1.44416 2.31528
-0.63774 3.50757 0.795721
-0.840391 2.05167 2.10764
-1.5375 2.43606 1.27923
-1.61246 2.191 1.4703
-1.45336 1.90704 1.88833
-1.14168 2.74382 1.22498
-0.794964 3.33431 0.753203
-1.85075 2.20049 1.03634
-0.484595 2.58886 1.68522
-2.37917 1.42552 1.4878
-0.828614 2.52876 1.88495
-2.35542 1.55329 1.39601
-1.83849 2.59419 0.264915
-1.2036 2.18491 1.87611
-0.361535 3.04521 1.55317
-1.49054 1.78663 2.08493
-0.598744 2.90076 1.53622
-0.926259 2.75148 1.42573
-2.14063 1.21155 2.08893
-2.16011 1.76389 1.49046
-0.998626 3.32227 0.831055
-0.562682 2.98411 1.28138
-0.955792 2.33071 1.85479
-2.02427 2.1087 1.12502
-1.19863 1.73342 2.41672
-1.33114 2.21756 1.85091
-1.5829 1.74126 2.20917
-0.341955 3.30428 1.18794
-2.05108 1.9456 1.31984
-0.882334 2.6463 1.82393
-2.58495 1.32362 1.44399
-0.97196 2.66188 1.69263
-1.33443 1.28776 2.63145
-0.533231 3.06889 1.38045
-0.979116 1.9988 2.01555
-1.61225 1.20531 2.60932
-1.05312 1.72305 2.49865
-1.52465 2.43933 1.45378
-1.69637 2.59444 0.854154
-1.93968 2.4814 0.232047
-0.892282 3.084 1.1655
-0.845628 2.92678 1.18894
-1.01005 1.72176 2.28828
-1.93289 2.24046 1.03636
-0.522786 2.99745 1.62808
-1.58072 2.87205 0.424947
-2.1962 1.92195 1.00774
-1.1589 1.72354 2.3474
-2.39418 1.5727 1.26236
-1.58589 2.55807 0.881584
-1.11682 2.13439 2.07979
-2.08207 1.86763 1.42221
-2.29295 1.64165 1.16506
-0.522049 3.12269 1.11963
-1.6128 2.70854 0.57772
-1.50736 1.13878 2.58046
-1.56995 1.66744 2.13365
-1.81402 2.47499 0.771603
-1.17846 3.23669 0.600972
-1.04788 3.45004 0.419448
-1.8162 1.92043 1.57744
-2.13779 1.93041 1.1364
-2.24957 1.52053 1.47327
-2.43202 1.43192 1.50714
-1.85411 1.76792 1.9628
-1.9853 1.94243 1.20989
-1.61681 1.5666 2.30769
-0.812357 3.28191 1.0041
-1.41762 2.83105 0.858328
-1.79422 1.80942 1.82574
-1.22405 3.03423 0.787091
-1.74576 2.62821 0.524479
-2.01048 1.54996 2.12743
-1.47706 2.00928 1.78659
-0.463162 2.96392 1.54597
-1.41024 1.76785 1.9517
-2.24073 1.51276 1.53724
-1.21222 3.08287 0.774382
-1.84421 1.56966 1.8735
-1.57221 2.88724 0.330342
-2.40539 1.71998 0.936104
-1.65059 1.81954 2.00352
-1.76251 1.95577 1.90483
-2.00063 1.6643 1.58963
-0.67902 2.556 1.74866
-1.58145 2.75087 0.624725
-1.34946 3.08313 0.256591
-1.81786 2.02057 1.56739
-1.73767 1.54698 2.04561
-1.967 2.1714 1.00051
-1.78728 2.2182 1.37488
-0.696219 2.47975 1.82532
-0.906233 3.1924 0.83629
-1.52736 1.75812 2.13456
-0.93513 1.92682 2.43433
-0.468044 2.93749 1.79542
-2.1506 1.89632 1.127
-1.66129 2.64739 0.779278
-1.50032 1.8163 1.84868
-1.08982 1.85179 2.16565
-0.158531 2.93428 1.7995
-2.21118 1.95801 0.921611
-0.693616 3.00035 1.41554
-1.20538 3.32223 0.22452
-1.20212 2.09251 1.81703
-2.72781 1.18657 1.47464
-2.4917 1.22026 1.64752
-0.164582 3.16104 1.35646
-0.941513 2.71342 1.61782
-1.56159 2.95146 0.0711067
-2.14893 1.43864 1.99467
-1.15755 3.37522 0.267116
-2.332 1.34378 1.85625
-2.56012 1.30165 1.41932
-1.34852 2.91496 0.932229
-0.515932 3.22541 1.26585
-1.05095 3.30379 0.739728
-1.17488 2.63669 1.51182
-1.09212 3.00989 0.889732
-1.46654 1.83234 2.03521
-0.941678 3.32696 0.629471
-1.08178 1.68539 2.28902
-0.558187 2.3518 2.05563
-0.728918 3.61774 0.728429
-0.213994 3.35161 1.24478
-2.13307 1.92426 1.14802
-1.87324 1.50399 2.03324
-0.712573 2.1373 2.21993
-1.24892 1.74857 2.30426
-0.609956 2.53009 1.41564
-1.61412 1.74408 2.08374
-2.38769 1.66597 0.993678
-1.3573 3.17275 0.0659266
-0.868757 3.43434 0.822783
-0.70457 3.47703 0.779902
-1.76358 2.32461 1.09344
-0.640946 2.98291 1.3234
-1.06248 1.59732 2.80259
-0.331751 2.77509 1.75066
-1.16498 3.3435 0.258789
-0.377341 2.75832 1.55537
-0.880912 3.53521 0.66389
-1.0018 3.16106 0.954981
-0.659906 2.47445 1.82881
-0.427413 2.69786 1.554
-1.91897 2.14327 1.36508
-1.41833 2.31442 1.37101
-1.75948 2.6637 0.362549
-0.40854 2.88065 1.43089
-2.67884 1.22352 1.54307
-0.986566 3.24345 1.25761
-0.566737 2.53993 1.8332
-1.17949 3.2121 0.541524
-1.58532 2.81133 0.624416
-0.928451 3.0499 1.11735
-1.03424 3.2462 0.83583
-1.87585 2.23713 1.09497
-1.71404 2.46026 0.890202
-1.83027 2.14351 1.22987
-1.93735 1.65606 1.88661
-0.87426 2.97683 1.36707
-1.26275 2.1084 1.78279
-1.64032 2.39394 1.05661
-0.947047 2.51741 1.79794
-0.824739 2.79496 1.64043
-1.78201 1.77661 1.76325
-1.96332 2.03854 1.25641
-1.62868 1.80565 1.9513
-1.35452 1.40098 2.80177
-1.31833 1.36743 2.4382
-0.660271 3.44392 0.944239
-1.15411 1.50815 2.65048
-1.15038 3.22479 0.868736
-0.936313 3.36279 0.583486
-0.181943 3.36419 1.30184
-2.17498 1.89432 1.1082
-2.22533 1.64391 1.52407
-2.02194 1.86319 1.46894
-2.0296 2.20751 0.826107
-1.32563 2.61263 1.42915
-1.37922 1.52051 2.31581
-0.760924 3.43184 0.774983
-0.919707 3.39458 0.753746
-1.81797 2.06766 1.33346
-1.98251 1.92295 1.53693
-0.970491 2.33958 1.81258
-2.16434 1.76774 1.23826
-2.32046 1.84887 0.86735
-2.30994 1.60796 1.5314
-0.87957 2.54209 1.63688
-0.931883 3.06327 1.37229
-2.1349 2.14436 0.55324
-0.60421 2.73011 1.59158
-2.42488 1.46163 1.44298
-1.6137 1.63186 2.04042
-0.943092 1.84665 2.39162
-0.339866 3.45801 1.31963
-1.6753 2.69638 0.686794
-1.14968 2.09212 1.91941
-2.62608 1.29838 1.49392
-2.16947 1.24995 1.96573
-0.991542 3.29229 0.809841
-1.97909 1.68556 1.90099
-1.4433 2.17176 1.83075
-0.377416 2.65642 1.7622
-2.12108 1.96984 0.882658
-1.49827 1.99535 1.63267
-1.15006 2.67896 1.2711
-1.80999 2.54123 0.61628
-1.89755 2.38955 0.785019
-1.23679 2.05554 2.06833
-0.974154 2.5065 1.59638
-1.85272 2.06521 1.37941
-1.91364 2.0627 1.22771
-0.483948 2.56766 1.78769
-1.588 2.82772 0.553745
-1.73648 2.24437 1.3681
-1.9311 2.24775 1.16867
-2.38914 1.55172 1.5732
-1.14039 3.23682 0.600859
-0.719799 2.94028 1.29574
-0.913217 2.85788 1.4883
-1.56442 2.35184 1.4595
-1.57912 1.56427 2.0188
-2.76058 1.10119 1.47658
-1.66256 2.5268 0.974825
-1.92178 1.35932 2.19576
-1.65506 2.3741 1.19209
-1.20802 2.67271 1.34053
-0.884025 2.43412 2.08862
-1.2619 3.22686 0.370389
-1.87577 1.99585 1.52501
-0.861908 3.49504 0.670661
-2.57757 1.44795 1.21194
-0.52094 3.17047 1.71478
-1.60404 2.01891 1.50178
-2.42427 1.44074 1.38754
-0.716456 2.52771 1.68519
-2.22393 1.85544 1.12862
-0.667282 2.24709 2.08565
-1.29955 1.47732 2.31086
-1.40983 2.82013 0.785029
-1.53171 2.96085 0.23483
-2.2024 1.41349 1.61084
-1.26711 3.24632 0.298752
-1.22643 2.44648 1.39362
-1.52178 1.49391 2.1538
-2.29797 1.5351 1.65616
-1.83282 2.29705 1.02086
-2.22625 1.44076 1.79713
-2.00385 1.99645 1.2116
-2.19718 1.96318 0.965558
-0.292498 3.19426 1.38299
-0.803726 3.29715 1.19422
-1.32803 2.23968 1.63578
-2.51613 1.29254 1.65155
-0.834854 2.18554 1.85004
-2.54222 1.38753 1.48826
-0.649692 3.47127 0.770547
-2.51886 1.47443 1.33133
-1.57491 1.41524 2.32028
-0.454067 3.31326 1.44203
-1.46927 2.30759 1.68377
-1.62956 2.77007 0.503047
-2.42207 1.51963 1.22178
-1.73086 2.38451 0.988528
-1.70053 1.51023 2.14818
-1.19938 3.27146 0.403349
-0.777668 3.5143 0.980794
-0.729233 3.33243 1.21565
-2.26574 1.58203 1.39529
-1.88997 1.18269 2.26593
-2.46712 1.38787 1.51347
-1.65027 1.37314 2.54046
-2.00862 2.22701 0.801073
-1.36542 2.55337 1.23035
-1.82868 1.43064 2.24746
-1.61641 2.82459 0.400905
-1.54217 1.75554 2.10841
-2.51858 1.19251 1.61511
-0.779973 2.88632 1.10802
-1.09918 3.40425 0.412618
-1.6073 1.78464 2.03962
-0.944339 3.26325 1.10627
-1.22787 1.84538 2.01495
-0.968572 3.45317 0.510568
-1.41638 1.71926 2.11027
-1.51856 2.20823 1.52389
-1.35713 3.17076 0.111711
-1.11492 2.97748 0.96078
-1.18785 2.09199 1.89777
-1.38158 2.98461 0.58201
-1.34373 1.59528 2.03336
-1.87718 2.35318 1.01014
-1.66522 2.36246 1.28305
-0.525775 3.20112 1.08666
-1.65291 2.60135 0.868788
-1.54291 2.58452 1.01932
-2.44461 1.62958 1.1162
-0.864058 2.23745 1.74872
-0.598386 2.38049 2.07558
-2.81914 1.1705 1.15095
-1.49717 2.99947 0.258126
-1.57961 2.90481 0.140257
-1.46271 1.70862 2.05203
-0.574251 3.31531 0.988822
-0.696407 3.02091 1.35939
-1.43533 2.6443 1.2165
-1.40486 1.59083 2.41563
-1.86185 1.24852 2.35939
-1.0449 1.69002 2.43067
-1.43607 2.57347 1.09151
-1.67086 2.47788 1.0391
-2.44863 1.37993 1.631
-0.897194 2.24118 1.76474
-2.41007 1.43403 1.52561
-0.352572 2.85593 1.81864
-2.13208 1.58239 1.86027
-1.40717 2.38258 1.55072
-1.66639 1.78709 2.01616
-1.48098 2.0224 2.08339
-1.48678 1.11647 2.66871
-0.7982 2.65313 1.53578
-0.620264 2.87214 1.22929
-1.66514 2.73677 0.359649
-1.96601 2.34456 0.554956
-1.64827 2.64057 0.72287
-0.843477 2.72811 1.44878
-1.11025 2.27623 1.66282
-1.87486 2.02244 1.33342
-1.85603 1.77816 1.50656
-1.62324 2.46342 1.24431
-1.61122 2.28216 1.44658
-1.42018 1.39889 2.52338
-1.89783 2.15399 1.10131
-0.918434 3.47088 0.673645
-1.93814 2.23935 0.942398
-1.17311 3.18043 0.608671
-0.255941 2.95136 1.67976
-1.65256 2.77019 0.495699
-1.24163 1.82594 2.02927
-0.614818 3.38934 1.21284
-0.697957 3.086 1.18865
-0.335737 3.19401 1.65808
-1.4342 2.65945 1.17374
-0.731364 2.25644 2.10114
-0.239316 2.9326 1.83333
-1.19648 2.88084 1.15158
-0.909094 2.09431 1.8565
-1.69528 2.7342 0.394699
-0.746283 2.35965 2.05887
-1.53527 2.18784 1.77577
-0.647184 3.43269 0.792372
-1.49006 2.97091 0.418561
-1.79162 1.97908 1.69399
-2.08956 2.16153 0.738325
-1.34263 3.1883 0.0926601
-1.96596 1.19252 2.2213
-1.51334 2.19031 1.76439
-2.06735 2.05632 1.09016
-1.13725 2.37768 1.5252
-1.61404 2.75677 0.595289
-1.76063 1.60056 1.76423
-1.52059 2.89163 0.469155
-0.808574 3.53186 0.838193
-1.67062 1.59582 2.35968
-1.66533 2.41025 1.05572
-1.19875 1.77298 1.98924
-1.51474 1.85625 2.14428
-1.25514 3.20607 0.4859
-1.13803 1.95212 2.1936
-1.28625 2.98659 0.847119
-1.91203 2.39461 0.642213
-1.35093 1.59087 2.41141
-0.814414 2.54049 1.74626
-2.049 1.40012 1.96991
-1.14106 3.32221 0.310022
-0.979917 2.53112 1.51884
-1.3198 2.92041 1.06287
-2.12351 1.61955 1.48563
-1.16412 1.76137 2.39831
-0.495216 2.73509 1.92684
