ply
format ascii 1.0
comment Created by Open3D
element vertex 400
property double x
property double y
property double z
end_header
-2.79793 0.114033 -1.25368
-2.39275 1.36776 -1.42703
-2.67388 1.32542 -1.08636
-2.98489 0.495689 -0.628546
-2.50932 1.5429 -1.23377
-2.65683 -0.831859 -2.47603
-2.49988 1.4713 -1.24578
-2.32474 0.436373 -2.00092
-2.23606 0.64584 -2.1648
-2.78421 -0.184318 -1.8121
-2.39139 -0.342085 -2.35906
-2.88828 0.169519 -1.35175
-2.34591 1.88153 -1.56541
-2.69499 0.995034 -0.969427
-2.52464 1.55729 -1.23538
-2.64188 1.56289 -1.06924
-2.81116 0.584844 -0.513684
-3.02134 -0.486192 -1.31836
-2.39114 1.36641 -1.26391
-2.01657 1.64146 -1.67228
-2.84592 0.0229148 -1.30726
-2.05572 0.0266956 -2.37871
-2.55084 1.09402 -1.02406
-2.11377 0.358982 -2.12607
-2.5194 0.310044 -1.98704
-3.03647 0.201376 -1.59077
-2.23859 1.43203 -1.61244
-2.61894 1.03381 -1.58691
-1.9089 0.263671 -2.4949
-2.22794 0.793215 -1.87341
-2.71367 0.399056 -1.41759
-3.24034 0.703433 -0.526293
-2.35106 0.216944 -2.30641
-2.82426 0.503092 -0.89492
-2.96187 -0.543153 -1.15661
-2.48289 -0.248409 -1.8975
-2.17818 0.772369 -2.23051
-2.15556 1.13893 -1.60165
-2.48065 -0.177192 -2.45994
-2.79878 -1.02073 -2.54525
-2.12556 0.181819 -2.19767
-2.69902 1.21577 -1.22635
-2.56027 1.40975 -1.23512
-2.84849 0.1047 -1.20304
-2.8035 -1.00401 -1.63868
-2.53151 -0.198497 -2.15117
-2.61153 0.704224 -1.43026
-2.62313 1.42491 -0.956232
-2.89857 -0.197773 -1.76441
-2.2412 -0.385565 -2.55708
-2.17025 0.969164 -2.02579
-2.6209 0.636629 -1.39846
-2.57053 0.470867 -1.51079
-2.9075 0.181823 -1.19461
-2.82165 1.14672 -0.598293
-2.98909 1.0467 -0.872766
-2.92747 0.861464 -0.680452
-2.37886 -0.792183 -2.34248
-3.07822 -0.288235 -1.55701
-2.59869 -0.171065 -1.79591
-2.78733 -0.672462 -1.62727
-3.16774 0.633096 -0.622252
-2.68766 0.132362 -1.64807
-2.78861 0.327719 -1.17347
-2.64783 -0.370648 -1.92697
-2.95351 0.766257 -0.827021
-2.23742 0.0214914 -2.28148
-3.09855 -0.870141 -1.74146
-2.27413 0.157481 -2.30368
-2.68653 -0.37709 -1.28366
-2.61924 0.593743 -1.40718
-2.40829 -0.724149 -2.4179
-2.38888 1.02934 -1.86858
-1.89712 1.19396 -1.88542
-2.62297 -0.616793 -2.04219
-3.02039 0.819536 -0.95211
-2.14388 -0.611568 -2.68183
-2.14511 -0.410412 -2.7148
-2.38231 0.483774 -2.01152
-2.05607 0.90997 -1.9874
-2.59423 -0.599835 -2.22511
-2.28762 0.822743 -1.69671
-2.92577 -0.0398512 -1.21127
-2.30212 0.0296611 -2.00175
-2.45838 -1.02956 -2.55513
-2.33199 0.198267 -2.06323
-2.53181 1.6387 -1.27095
-2.11306 1.45503 -1.58884
-1.95646 -0.514284 -2.89338
-2.73443 1.06447 -1.14182
-2.43028 0.180462 -1.80331
-2.29454 1.66855 -1.68867
-2.19731 0.946942 -2.16652
-2.74727 -0.468482 -1.60456
-2.38721 1.55957 -1.25512
-1.93638 0.827971 -2.21176
-2.81441 -0.25723 -1.31613
-3.24379 0.855732 -0.301088
-2.544 -0.310605 -1.73269
-2.89768 -0.611404 -2.08405
-2.45383 -0.683335 -2.19906
-2.47093 0.371952 -1.80521
-2.65188 -0.358382 -1.3781
-2.26331 -0.500605 -2.5304
-2.85447 -0.940272 -1.79695
-2.648 -0.277698 -0.870644
-2.37051 0.459871 -1.7222
-2.05988 0.630348 -2.26214
-2.88201 -0.90617 -1.30027
-2.23443 0.846521 -2.13022
-2.34453 0.656158 -2.02691
-2.73762 -0.975987 -1.74226
-2.64414 -0.510719 -2.2869
-2.76022 0.758907 -1.50556
-3.05055 -0.401738 -1.16822
-2.72583 -1.19882 -1.68736
-2.05886 1.1392 -1.83906
-2.64858 -0.664754 -2.21955
-2.46011 0.107604 -2.07912
-2.6946 0.692016 -1.4558
-2.33751 1.26797 -1.71032
-3.18524 0.877459 -0.363206
-2.82236 -0.188668 -1.4914
-2.84609 -0.34156 -1.44263
-2.89888 -0.0885446 -1.75126
-2.42797 0.0648884 -2.10688
-2.26897 0.613483 -2.19881
-2.50878 -0.851422 -2.57435
-3.05732 0.720316 -0.528828
-2.83226 -0.478683 -2.00281
-2.21029 0.266857 -2.0784
-2.53577 0.975138 -1.9116
-2.61819 -0.302331 -1.26108
-2.67132 -1.06862 -1.3238
-2.26378 0.297499 -2.23319
-2.92829 -0.537262 -1.45333
-2.04729 -0.508428 -2.87315
-2.42788 -0.683797 -2.58231
-2.85142 0.367185 -0.702927
-2.7034 -0.883036 -1.60426
-2.70001 -1.14089 -2.34229
-2.14984 -0.0586182 -2.65375
-2.96465 -0.321892 -1.1182
-2.58663 -0.754052 -2.6261
-2.90286 -1.22833 -1.79391
-2.11362 1.51001 -1.68771
-2.76451 1.19361 -0.86987
-2.25856 1.71247 -1.65578
-3.14731 0.528957 -0.53587
-2.57752 -0.465591 -2.16849
-2.61666 -0.35372 -1.58165
-2.95415 0.217184 -1.1944
-2.78988 -0.0154613 -1.1142
-1.97949 0.0784264 -2.52125
-2.05306 0.602705 -2.36316
-3.05066 0.866926 -0.449554
-2.63416 1.16415 -1.17752
-2.7721 -1.27608 -2.28377
-2.03996 -0.0386945 -2.58514
-2.48906 0.809087 -1.53584
-2.84416 0.564647 -0.987458
-1.73212 0.181593 -2.53501
-2.37495 -0.00795506 -2.16747
-2.86752 0.376818 -1.61795
-2.99609 -0.349308 -1.32241
-2.4637 1.74835 -1.27912
-2.98936 0.704752 -1.40014
-2.06061 -0.57064 -2.63866
-2.79745 -0.191716 -0.824978
-3.04184 1.17079 -0.327492
-2.72768 1.05488 -1.09596
-2.75747 -0.338751 -1.47152
-2.98205 0.981732 -1.19193
-2.11445 -0.00239511 -2.66437
-2.90316 1.16041 -0.928287
-2.92401 1.25884 -1.08523
-2.43608 -0.847194 -1.98244
-2.62312 -0.632968 -2.34314
-2.29649 -0.370808 -2.72712
-2.38917 -0.259205 -2.43728
-2.31045 1.77288 -1.24158
-2.7584 1.04796 -1.0759
-2.44476 1.36278 -1.17653
-2.68804 1.20621 -0.83781
-2.86181 -0.519464 -1.12743
-2.2877 0.00946358 -2.21765
-2.59367 1.0184 -1.33421
-2.58262 -0.900015 -1.6188
-2.80074 0.0166261 -0.742992
-2.32826 1.41238 -1.66247
-3.01673 1.07912 -0.70202
-2.46735 1.46365 -1.43687
-2.26648 -0.649568 -2.75738
-2.36017 -0.382359 -2.24552
-2.70127 0.543967 -1.00397
-3.28834 0.702948 -0.387463
-2.40009 0.517798 -2.36372
-2.59167 1.39224 -1.23861
-2.18564 1.30032 -1.71271
-2.85419 -1.20394 -1.52086
-2.35369 0.404312 -1.71383
-2.70015 -0.99984 -2.45668
-2.72078 -0.424166 -1.84341
-2.24785 1.485 -1.73904
-2.87504 -0.988885 -1.69124
-1.88069 0.0939649 -2.34587
-2.71085 0.663911 -0.780069
-3.24899 0.845584 -0.559873
-3.03453 -0.279158 -0.951526
-2.55573 0.846908 -1.3767
-2.61578 -1.11015 -2.65173
-2.74757 0.592986 -1.4847
-2.96741 1.26016 -0.189887
-2.71206 1.11438 -1.39065
-2.05846 -0.00780407 -2.35636
-2.93934 -0.0530336 -0.871204
-2.69345 0.626714 -1.46016
-2.21993 0.343374 -2.04513
-2.62829 -0.656508 -2.26546
-2.73294 1.48105 -1.12218
-2.07789 0.580446 -2.14501
-2.1727 -0.617418 -2.73619
-2.91868 0.5368 -0.879787
-2.33843 1.38749 -1.52996
-3.15431 -0.443771 -1.38104
-2.98009 0.0532388 -0.67331
-2.1814 0.661915 -2.09166
-3.14156 0.276661 -0.886344
-2.74762 -0.329498 -1.51659
-2.86928 0.230263 -0.797998
-2.18356 -0.337527 -2.63103
-3.18801 0.290498 -0.718979
-2.22084 0.776742 -2.08115
-2.57478 1.56772 -1.24656
-2.32244 -0.866763 -2.42165
-2.60299 0.493063 -1.25776
-2.06823 -0.0334412 -2.35715
-2.74054 -0.282299 -1.25319
-2.94532 0.109688 -1.09551
-2.99736 -1.14561 -1.58289
-3.21165 0.573064 -0.463113
-2.83641 -0.446479 -1.15899
-2.76133 0.410642 -1.23493
-2.88101 -0.403066 -1.2114
-2.43666 0.585785 -2.00633
-2.90188 -0.232878 -0.890145
-2.64318 -0.348324 -1.95346
-3.13702 0.32953 -1.086
-2.76988 -0.0750005 -2.0719
-2.38197 -0.449995 -2.68221
-3.03829 0.933192 -0.79966
-2.99568 0.243012 -0.608556
-2.49508 -0.0309426 -2.00689
-2.94322 0.0260063 -0.843029
-3.04437 0.602919 -0.367185
-2.49429 0.0776095 -1.68697
-2.55046 0.272312 -1.77112
-2.94313 0.646254 -0.705278
-2.3294 1.75675 -1.2291
-2.76663 -0.133211 -1.50041
-2.67163 0.836679 -1.02361
-2.40715 -0.0541772 -2.35014
-2.34464 1.16598 -1.86643
-2.75687 -0.43767 -1.97806
-2.51785 0.803387 -1.82546
-2.81053 -0.812515 -1.21239
-2.68069 1.12911 -0.834225
-2.63423 -0.846815 -1.65048
-1.98845 0.37804 -2.02392
-3.04096 -0.416005 -1.42086
-2.5507 -0.13945 -2.10602
-2.75756 -0.793809 -1.48963
-2.96055 0.622855 -0.334917
-2.86263 -1.39619 -1.61609
-2.7789 0.896728 -1.30299
-2.63676 0.974476 -0.813572
-2.5626 -1.14672 -2.32587
-2.81977 -0.148644 -1.58243
-2.55183 -0.401616 -2.35423
-2.74684 -0.419848 -1.63049
-2.36671 0.0235832 -2.40798
-1.89741 -0.215221 -2.73989
-2.52546 1.08817 -1.60944
-2.46529 -0.985571 -2.5671
-2.89243 0.303976 -1.17745
-2.65537 0.0148896 -1.83541
-2.744 0.324605 -0.678551
-2.74975 -0.503175 -1.93446
-2.64506 -0.151948 -1.6114
-2.27287 1.65269 -1.59567
-2.46785 0.437067 -1.80265
-2.26405 0.753528 -1.74055
-2.84232 0.644093 -1.28856
-2.82229 1.14281 -1.17701
-2.20649 1.3294 -1.40663
-2.12956 -0.526828 -2.53418
-1.99712 0.998015 -2.09038
-3.11012 0.317464 -0.771814
-2.96718 0.088436 -1.29215
-2.74783 -1.04246 -2.13773
-2.43286 1.36629 -1.62573
-2.6494 1.06545 -1.42494
-2.53765 -0.833409 -2.03827
-2.72262 -0.131585 -1.32643
-2.70692 -1.16323 -1.82276
-2.88261 0.0789898 -1.42885
-2.76152 -0.443002 -1.74817
-2.29184 1.61129 -1.66153
-2.62897 -0.468024 -2.10417
-2.68286 -0.0490813 -1.5683
-2.6505 -0.942368 -1.61289
-2.58513 1.29342 -1.20755
-2.64932 -0.68505 -2.21821
-2.30323 -0.656419 -2.96665
-2.22088 0.103309 -2.20716
-2.63345 0.704276 -1.13269
-2.10832 0.258688 -2.54624
-3.16687 0.220767 -0.843537
-2.83872 -1.01981 -1.43297
-2.98759 0.279466 -0.917962
-2.89097 0.603321 -1.17231
-3.07052 0.291543 -0.777654
-2.35494 0.00639968 -2.2866
-3.1283 1.10452 -0.131122
-2.15645 0.82075 -2.03494
-2.60667 0.836781 -1.23213
-2.13758 1.4645 -1.45779
-1.87809 0.0930644 -2.44074
-2.86424 -0.0416541 -1.10176
-2.34626 1.05869 -1.55262
-2.87319 0.915244 -0.688215
-2.45991 -0.533473 -2.27474
-3.09536 1.12671 -0.364016
-2.95353 -0.673808 -1.22576
-2.142 -0.318135 -2.77606
-2.58452 -0.777411 -1.9263
-2.81949 -1.02335 -1.5247
-2.8014 -0.973527 -1.91621
-2.59533 -1.02148 -2.28688
-2.6068 1.10177 -1.41084
-3.14013 0.176161 -1.33208
-2.12501 1.02564 -2.03702
-2.73406 1.40558 -0.492104
-2.53949 -0.375319 -2.39794
-2.63575 0.0204852 -2.20347
-2.75584 0.809461 -1.47212
-2.51526 0.746924 -1.51553
-2.30855 1.73071 -1.17165
-2.94797 0.241722 -1.33187
-2.16415 2.01067 -1.49299
-1.81308 0.0568738 -2.55998
-2.19794 0.84937 -1.94131
-2.26518 -0.600309 -2.09609
-2.90778 1.19509 -0.944148
-2.83278 0.441039 -1.40873
-2.77676 -0.794935 -1.4046
-2.39116 -0.0273847 -2.50404
-2.31505 -0.444799 -2.66876
-2.18571 -0.234176 -2.47567
-2.26708 0.518648 -1.96386
-2.09011 0.469276 -2.44574
-2.51886 -1.02616 -2.76845
-2.83995 0.805571 -0.751178
-2.82514 -0.619223 -1.30437
-2.37988 -0.941932 -2.86505
-2.91209 0.499309 -0.425965
-2.81666 -0.741729 -1.5375
-2.5503 0.805018 -1.2264
-2.82136 0.968679 -0.582411
-2.37045 1.77594 -1.35622
-2.26371 -0.543798 -2.66967
-2.5164 -0.492606 -1.77359
-2.96846 0.446141 -0.719333
-2.66031 -0.460487 -1.65208
-2.42501 -0.401131 -2.66614
-2.88968 -0.405329 -1.42882
-2.77218 0.424255 -1.51138
-2.41873 1.03831 -1.90003
-2.99969 1.10642 -0.882106
-2.50528 0.605683 -1.49745
-1.78288 -0.0249442 -2.703
-2.54446 0.378552 -1.56868
-2.56941 -0.531752 -1.71464
-3.10288 0.947019 -0.24441
-2.55702 1.64465 -0.769704
-2.61837 1.39572 -1.22726
-2.75571 1.13697 -0.868575
-2.82999 0.387922 -1.25256
-2.23115 -0.514731 -2.76975
-2.77038 1.38799 -1.16656
-2.9107 0.00352313 -0.937556
-2.97873 0.873267 -0.704455
-2.7969 1.01378 -1.04296
-2.53783 1.48968 -1.5852
-2.50771 0.790534 -1.59884
-2.17273 0.675449 -2.07788
-2.99733 -0.0464699 -0.881316
-2.55319 0.597951 -1.45097
-2.76643 0.0410916 -1.57607
-3.01378 0.152345 -1.43679
