ply
format ascii 1.0
comment Created by Open3D
element vertex 400
property double x
property double y
property double z
end_header
-2.00681 2.27669 0.880814
-1.18323 2.94564 0.121643
-2.19499 2.19872 0.56381
-2.11444 2.04722 -1.18712
-2.0148 2.27165 0.882573
-3.28762 0.849996 0.335697
-2.89078 1.63986 0.847848
-2.21531 2.16165 -0.106339
-2.14011 2.23235 -0.0816737
-2.05558 2.21798 -0.775759
-1.30402 2.93975 -0.363938
-1.7832 2.51664 -0.709018
-1.3803 2.88826 -0.481885
-3.08064 1.45681 1.20383
-2.24035 2.08388 1.13767
-2.99291 1.54074 0.885157
-3.04446 1.32006 0.288403
-2.76066 1.75311 0.720962
-1.40534 2.86914 -0.513235
-1.08009 3.09921 -0.228981
-1.57732 2.64566 0.29437
-2.97242 1.43528 0.311884
-1.77076 2.53794 -0.534478
-2.24855 1.94386 1.54643
-2.22173 2.06689 1.24045
-1.80835 2.49769 0.191415
-1.43882 2.84286 -0.558988
-2.25139 2.07913 1.13095
-2.54859 1.74916 -0.345149
-2.60007 1.87384 0.432282
-1.96848 2.23039 -1.25045
-1.75742 2.54201 -0.718623
-3.00852 1.52702 0.917078
-2.34237 1.79974 -0.95713
-2.71231 1.7912 0.639181
-1.81445 2.49609 -0.54447
-1.41158 2.71686 0.473568
-1.99248 2.27736 -0.844035
-1.90004 2.42699 -0.361356
-2.48272 1.97018 0.344295
-2.18538 2.01196 -0.973851
-2.51579 1.9198 1.1099
-2.79095 1.38834 -0.365666
-2.12555 2.23284 0.701731
-2.75605 1.47275 -0.313788
-3.3137 1.03254 0.676915
-1.88895 2.43954 0.181278
-1.82896 2.4039 0.768268
-1.96961 2.22096 -1.28953
-1.51839 2.71991 0.0570974
-3.1191 1.40663 0.940026
-1.56431 2.60373 0.56454
-2.82682 1.6279 1.4664
-2.4721 1.95011 1.10061
-1.26404 2.97983 -0.410167
-2.02991 2.28056 -0.567018
-2.03107 2.2201 -0.911549
-2.07241 2.28155 -0.21177
-2.0179 2.3116 0.629884
-2.48393 1.91454 1.23687
-1.96871 2.22491 -1.27608
-1.71163 2.59446 -0.389138
-1.51673 2.77694 -0.671952
-3.23759 1.26142 0.985271
-2.94379 1.59448 1.01996
-3.15954 0.994963 0.117375
-3.1193 1.41777 1.17722
-2.63253 1.85587 0.552045
-1.31984 2.93267 -0.412513
-1.70423 2.60099 -0.401677
-1.88896 2.31789 -1.35304
-2.86338 1.64569 0.636233
-1.67267 2.62835 -0.620695
-2.24653 2.01367 -0.692961
-2.44036 1.98651 1.00517
-2.74846 1.7458 0.529875
-1.98985 2.34481 -0.353127
-1.67039 2.57266 0.369735
-2.16468 2.01746 -1.05008
-3.31358 1.09298 0.809614
-2.33052 1.89541 1.56223
-2.91573 1.56088 1.46651
-2.51379 1.95351 0.475642
-2.67877 1.6806 1.60588
-2.79832 1.4313 -0.265473
-2.8883 1.64512 1.0165
-2.23801 1.97207 -0.875362
-2.44335 1.76945 -0.666718
-1.95492 2.35137 -0.6139
-2.55265 1.8987 0.279697
-2.34914 2.04137 1.02955
-2.34631 1.96298 -0.442818
-2.11207 2.05487 1.44157
-2.94156 1.53097 0.492177
-1.88918 2.42714 -0.506609
-2.11492 2.24884 -0.148886
-2.80608 1.71849 0.926155
-2.64381 1.80823 0.27192
-2.31033 1.90003 1.57567
-1.5062 2.78637 -0.658411
-2.42847 1.7089 -0.867368
-2.93689 1.28567 -0.112611
-1.5952 2.59385 0.521998
-2.90232 1.37442 -0.0576288
-1.61819 2.67752 -0.44919
-2.39059 1.88058 -0.545359
-2.539 1.78532 -0.272948
-2.41823 1.93675 1.30534
-1.78929 2.5096 -0.722075
-1.91055 2.24794 -1.58396
-1.85125 2.43325 0.522678
-1.2714 2.95595 -0.288949
-2.56307 1.84911 0.0633966
-2.06623 2.1744 1.16105
-2.80861 1.70649 1.11464
-2.73299 1.77816 0.962241
-1.99064 2.36386 0.014882
-2.05578 2.30124 0.485973
-2.21331 2.14213 -0.260934
-2.06625 2.26369 -0.423289
-2.87174 1.64562 1.20443
-1.43215 2.8555 -0.651368
-2.52269 1.8677 1.32799
-1.75329 2.43681 0.814677
-1.86539 2.46174 -0.27662
-1.45967 2.81426 -0.423516
-2.50747 1.86394 -0.126278
-1.82512 2.41987 0.700423
-2.5781 1.76846 -0.177177
-2.16808 2.22534 0.209224
-1.40652 2.8516 -0.340507
-3.15673 1.22148 0.468306
-1.63557 2.63413 0.0621033
-2.26572 2.05982 -0.412911
-2.37648 2.03344 0.0608297
-1.68666 2.50685 0.676048
-2.78094 1.41336 -0.350866
-2.13482 2.22392 -0.212896
-2.87916 1.34934 -0.173741
-3.05586 1.48275 1.00465
-2.0363 2.20807 -0.940173
-2.47455 1.84895 1.48042
-1.26737 2.97319 -0.383429
-1.12952 3.06437 -0.252726
-2.27498 2.00726 1.34004
-2.62416 1.58071 -0.503481
-1.92269 2.40714 -0.348478
-1.92301 2.27428 -1.33969
-2.01072 2.28837 -0.650619
-2.21903 2.12778 0.995661
-2.55225 1.70837 -0.442634
-1.69677 2.59221 0.0206667
-2.32771 2.10335 0.535898
-1.48856 2.76449 -0.135373
-2.96513 1.53274 1.41784
-2.38947 2.01097 -0.00596395
-1.78592 2.51286 -0.724351
-2.28694 2.04656 -0.368408
-3.17227 0.992056 0.150824
-2.36562 1.91358 -0.537658
-2.70975 1.63359 -0.0932225
-2.31274 2.04948 -0.220258
-1.11626 3.06466 -0.201759
-1.70982 2.58064 -0.908957
-2.11039 2.18361 1.03233
-2.23763 1.90274 -1.09085
-1.59613 2.69726 -0.458189
-2.95676 1.46355 0.331447
-2.80755 1.35762 -0.369584
-1.76886 2.52956 0.147839
-1.37218 2.85051 -0.109096
-1.69951 2.58977 -0.945455
-3.05256 1.2988 0.270384
-2.04007 2.22008 -0.857643
-2.68057 1.53766 -0.416035
-1.97746 2.31912 -0.681427
-2.8926 1.3435 -0.144121
-1.71231 2.58076 0.0170938
-2.05846 2.265 -0.471098
-3.06605 1.47108 0.99081
-2.20635 2.16133 0.84664
-1.43694 2.76524 0.142634
-1.94265 2.38536 0.411415
-1.9543 2.31797 -0.860175
-1.81498 2.35541 0.996814
-2.16107 2.2138 0.662602
-2.3582 2.0546 0.907045
-2.73991 1.68119 0.170148
-2.11705 2.16376 -0.697674
-2.72011 1.73046 1.3621
-1.4844 2.81115 -0.75064
-2.28031 2.13998 0.379441
-2.64046 1.83466 1.1058
-3.11953 1.4118 1.27906
-2.47214 1.65807 -0.83221
-2.70673 1.77418 0.442399
-2.57999 1.88547 1.04664
-2.18279 2.19031 0.744333
-2.32745 2.03226 -0.231195
-1.79871 2.41838 0.782356
-2.45321 2.00445 0.713705
-2.61496 1.8369 1.20098
-2.33324 1.80481 -0.97848
-2.45581 1.7421 -0.692337
-2.05216 2.18559 1.14843
-2.61 1.55394 -0.603604
-2.29937 2.09363 -0.0265666
-2.99084 1.43076 0.368873
-1.7963 2.403 0.854482
-1.71688 2.47874 0.723631
-2.20044 2.08501 -0.624346
-1.82511 2.4197 -1.21893
-2.95164 1.45876 0.298596
-2.64351 1.82557 0.374113
-2.41778 1.96125 -0.120591
-1.85558 2.46015 0.240541
-2.69318 1.59015 -0.259695
-1.74198 2.56304 -0.591647
-2.21365 2.13582 0.970911
-1.72525 2.52786 0.430422
-2.76842 1.67282 1.45411
-2.82052 1.52903 0.0170897
-2.70528 1.66856 -0.0083478
-1.9245 2.22277 -1.60746
-2.91224 1.57941 0.55563
-1.64591 2.56885 0.488291
-2.96573 1.38974 0.17679
-2.97004 1.4437 0.325941
-2.66854 1.66031 -0.165391
-2.37999 1.85752 1.59057
-3.21316 1.07451 0.390141
-1.30679 2.83549 0.24024
-1.53984 2.6838 0.209958
-2.97712 1.35728 0.143956
-2.83203 1.64368 0.438698
-2.79342 1.72669 0.779132
-2.20424 2.1834 0.676469
-3.1505 1.31937 0.706224
-1.77542 2.51766 0.233269
-1.88745 2.33732 0.914958
-2.58061 1.71298 -0.33144
-2.04037 2.32419 0.0481937
-2.09663 2.06029 -1.22996
-2.56699 1.7965 -0.127054
-2.69675 1.67616 -0.0170352
-2.95883 1.54991 0.67371
-2.61689 1.83781 0.287086
-1.76572 2.50218 -1.12152
-2.06305 2.15569 1.22839
-1.91964 2.41553 -0.245303
-2.33427 2.09783 0.403257
-1.23287 3.00193 -0.38142
-2.34516 1.81346 -0.911067
-2.57735 1.72598 -0.307126
-1.96402 2.3707 -0.329115
-2.09738 2.18215 -0.716623
-2.84043 1.64861 1.33826
-1.57168 2.7007 -0.145687
-2.11794 2.24719 0.617897
-2.04633 2.25911 -0.596062
-3.04258 1.46868 0.754144
-2.95775 1.48818 0.41065
-1.63588 2.63894 0.00685473
-3.1636 1.01517 0.154018
-1.59535 2.61317 0.419129
-1.62304 2.67537 -0.691799
-1.2772 2.92879 -0.145699
-3.26346 1.09543 0.603481
-1.6542 2.60796 0.184113
-2.11592 2.07375 1.38771
-1.56159 2.73478 -0.698044
-2.29548 2.10807 0.0643112
-1.75331 2.39957 0.957089
-2.34444 1.87719 1.58792
-1.23598 2.92586 0.0389807
-2.00654 2.34977 -0.0310082
-3.14382 1.3826 0.988093
-2.34622 2.07604 0.788868
-1.91228 2.41665 -0.348169
-3.14332 1.31654 0.662456
-1.47427 2.7846 -0.222829
-2.88452 1.60729 0.54161
-1.97314 2.2842 0.935439
-3.06801 1.31169 0.351392
-2.88316 1.60949 1.36809
-2.29939 2.10948 0.773641
-2.4332 1.81173 -0.588956
-1.90252 2.41193 0.419501
-2.82927 1.66604 1.29168
-2.53746 1.85363 -0.0355556
-2.63711 1.81408 0.26694
-3.06598 1.45674 0.849078
-2.18897 2.19356 -0.0307582
-1.94699 2.36071 -0.603276
-3.19643 1.33054 1.15708
-2.55262 1.66108 -0.55709
-2.08868 2.21042 -0.61764
-2.01949 2.28922 -0.581736
-1.60809 2.67522 -0.193638
-1.90178 2.43511 -0.0660327
-2.68652 1.81977 0.82347
-2.25851 2.14377 0.0963485
-1.10315 3.07978 -0.224384
-1.38822 2.85213 -0.214893
-1.6831 2.50144 0.709735
-2.3234 1.81093 -1.00004
-2.15535 2.13877 1.11177
-2.67787 1.76262 0.221489
-2.84957 1.42375 -0.123546
-2.33855 2.04162 -0.120395
-1.99274 2.30771 0.760967
-2.76369 1.49632 -0.242252
-1.99183 2.31827 0.699709
-2.83673 1.33984 -0.314513
-1.4536 2.75383 0.141512
-2.25827 2.15608 0.314025
-2.42728 1.74627 -0.782443
-1.26498 2.94923 -0.21278
-2.44739 1.75662 -0.685412
-3.21022 1.1156 0.449205
-1.94736 2.39582 0.189026
-2.658 1.56856 -0.421896
-1.33096 2.90261 -0.252239
-1.78703 2.37441 0.982358
-1.60926 2.64237 0.160034
-1.20502 3.03618 -0.448293
-2.08806 2.26186 0.663916
-2.72272 1.48376 -0.394139
-3.21175 1.26238 0.818216
-2.2026 2.12339 -0.431499
-2.9235 1.60724 1.15206
-2.5917 1.82354 1.33101
-2.21282 2.13854 0.959053
-2.02207 2.31312 -0.367001
-1.75394 2.54259 -0.769005
-1.75106 2.52601 0.314999
-2.87845 1.31423 -0.235808
-1.62763 2.671 -0.672711
-2.49447 1.92952 0.118995
-3.16189 1.29589 0.682176
-2.78256 1.523 -0.123668
-2.1704 2.22295 0.190488
-2.39267 1.81192 -0.738159
-2.37649 2.06568 0.585228
-1.82801 2.4922 -0.352773
-2.39882 2.04671 0.665351
-2.60728 1.55482 -0.610368
-2.46993 1.9599 0.161641
-2.0732 2.2994 0.257843
-2.61289 1.78735 0.0300536
-3.24096 1.25531 0.977119
-2.40069 1.87022 -0.538428
-2.0972 2.25983 -0.202188
-2.05572 2.30089 0.490893
-2.25695 1.90464 -1.00511
-3.30285 0.953886 0.509349
-2.23281 1.91313 -1.08069
-2.4392 1.73368 -0.771223
-1.81865 2.37783 0.905785
-1.98554 2.15799 -1.47857
-2.70116 1.72914 1.41683
-1.94814 2.39286 0.245928
-3.2155 0.94375 0.22078
-2.68434 1.78309 0.359794
-3.07354 1.28918 0.321051
-1.74474 2.56123 -0.0877276
-3.03717 1.19919 0.0426181
-3.18858 1.13102 0.403031
-3.10597 1.42392 0.957947
-3.07828 1.24926 0.256269
-3.1628 1.27055 0.611081
-2.13544 2.21346 0.797547
-3.30749 0.82051 0.3673
-2.31919 1.96122 -0.56629
-1.80548 2.46008 0.538615
-2.22684 1.99464 1.44815
-1.15696 3.03889 -0.234947
-3.12166 1.33961 0.637824
-3.26405 1.06354 0.546117
-2.21433 2.1849 0.566575
-2.38307 1.87355 1.54842
-1.40143 2.85573 -0.339561
-3.30242 0.919735 0.462384
-1.53373 2.67594 0.286489
-2.3681 1.91553 -0.520987
-2.12621 2.13485 1.18593
-2.17133 2.17121 -0.341124
-2.99167 1.52336 0.733185
-2.59653 1.59404 -0.563259
-1.92347 2.37645 0.597828
-2.06769 2.19073 1.09952
-3.16919 1.30911 0.764408
-2.8638 1.41019 -0.106492
-3.04241 1.4967 1.16606
-2.07654 2.18996 1.08387
-1.92259 2.40864 0.292713
-3.31685 1.03132 0.687182
-3.06689 1.45336 1.36196
-2.79808 1.72406 0.979015
-1.70296 2.58707 -0.92609
