ply
format ascii 1.0
comment Created by Open3D
element vertex 400
property double x
property double y
property double z
end_header
2.81881 -0.944891 -1.47133
0.67966 -1.98682 -2.33522
2.45722 -0.967588 -1.99666
1.67708 -0.360716 -2.66681
2.25695 -1.63881 -1.40405
2.32936 -1.44224 -1.71689
2.20126 -0.271178 -2.65517
2.07952 -1.381 -1.91145
0.36958 -2.39815 -2.59217
0.0985709 -1.98453 -2.75535
2.73818 -1.00923 -1.84823
1.93422 -1.05835 -2.36696
1.19117 -1.02127 -2.60813
0.821776 -1.91065 -2.38863
1.12687 -1.59753 -2.47513
3.01064 -0.847261 -1.48306
2.78351 -0.919668 -1.74398
0.372013 -1.62589 -2.87642
2.78597 -0.296266 -2.35022
0.972455 -1.03516 -2.77626
1.88919 -1.43285 -2.05474
1.58763 -1.59233 -2.15399
1.08652 -1.59093 -2.47375
2.01069 -1.00687 -2.41658
2.61223 -0.476006 -2.45204
1.7561 -1.72726 -2.0392
1.49863 -0.516609 -2.84326
1.047 -2.4548 -1.88164
1.59907 -0.877664 -2.47337
1.25797 -2.3791 -1.67769
2.44722 -1.46406 -1.56323
1.33067 -1.29718 -2.4519
2.04265 -0.277552 -2.61088
0.962844 -1.68306 -2.40114
1.95097 -0.527585 -2.59327
1.9062 -0.843825 -2.52203
0.533715 -2.40746 -2.31166
1.45645 -2.16594 -1.56789
2.79665 -0.661383 -1.95731
2.02482 -0.435129 -2.72957
1.38585 -1.03625 -2.59285
1.90274 -1.89084 -1.39293
0.746194 -1.48525 -2.54405
1.46983 -1.39652 -2.22919
0.980534 -1.7937 -2.20702
2.36276 -0.140388 -2.61631
1.63061 -1.99776 -1.62186
1.792 -0.887813 -2.32199
1.09772 -2.64436 -1.56922
1.85177 -0.944657 -2.3099
0.194791 -1.7525 -2.79744
2.13576 -0.403641 -2.59362
0.956289 -1.16086 -2.79093
0.220441 -2.02212 -2.64846
0.66196 -1.36824 -2.63468
1.93926 -1.44136 -1.82567
2.34732 -1.44018 -1.48739
2.36395 -1.5739 -1.54396
2.34302 -0.690251 -2.34653
2.07776 -0.693132 -2.61311
0.618778 -1.29649 -2.83415
2.0112 -1.76563 -1.46003
2.05734 -0.449136 -2.48269
2.72385 -1.18629 -1.35792
1.71713 -2.07449 -1.53396
0.70222 -1.44117 -2.65358
1.32116 -2.38409 -1.63837
2.05111 -1.38523 -2.16783
1.23435 -1.26188 -2.43276
1.54273 -2.06139 -1.61381
1.2827 -2.27277 -1.94581
2.18565 -0.339149 -2.72895
2.31128 -1.31537 -2.02044
0.0638451 -1.93915 -2.8601
0.8429 -1.79141 -2.41775
2.24897 -1.56054 -1.52609
2.82103 -0.797561 -1.84617
3.10172 -0.587679 -1.6757
1.35307 -1.8547 -2.09665
1.67596 -2.04521 -1.58329
1.0717 -2.31846 -2.02548
1.13397 -2.49604 -1.66768
1.21488 -1.98243 -1.87906
1.48333 -1.93838 -2.05856
0.744654 -1.88499 -2.34598
2.57164 -0.54341 -2.30217
2.36921 -1.1584 -1.96777
1.198 -1.90193 -2.08443
2.49306 -0.931349 -2.13575
2.39329 -1.42512 -1.64295
1.00973 -2.20224 -1.83777
1.24284 -1.57036 -2.3859
1.97567 -0.389437 -2.62623
0.859571 -1.59762 -2.66489
1.06262 -2.32217 -1.99255
2.57342 -0.903555 -2.04555
0.850576 -2.01972 -2.38884
2.64777 -1.17461 -1.66725
1.59772 -2.29187 -1.4351
1.1239 -1.8015 -2.16139
1.44631 -1.84118 -1.73923
1.09196 -2.08602 -2.19514
1.54179 -0.714514 -2.70136
2.37947 -1.28038 -1.90652
2.64283 -0.940046 -2.17468
1.53813 -1.82288 -1.86091
0.761646 -1.95796 -2.43533
1.87945 -1.8162 -1.67613
1.83154 -1.70893 -1.6699
1.45496 -0.759763 -2.69982
2.47412 -0.625226 -2.4557
0.953376 -1.73002 -2.34082
0.881847 -1.20149 -2.56404
1.96677 -0.438645 -2.45481
1.61172 -2.06743 -1.68123
2.36616 -1.38902 -1.60685
0.974204 -1.65036 -2.57727
0.825961 -1.31967 -2.72364
1.83706 -0.152088 -2.64182
1.81636 -2.05767 -1.40206
2.12625 -0.571677 -2.49277
3.07665 -0.716028 -1.55253
1.18359 -1.3108 -2.63327
0.999159 -2.80939 -1.51554
0.80927 -2.63552 -1.95059
2.11642 -0.0341928 -2.7224
1.89376 -0.89417 -2.36002
2.79484 -1.09427 -1.54873
0.920983 -2.33315 -1.90925
3.18791 -0.656419 -1.33694
0.908313 -2.49464 -1.83621
1.01053 -2.63026 -1.7561
2.47396 -1.084 -1.83637
2.33536 -0.332434 -2.52407
2.80646 -0.696354 -1.94809
1.93239 -1.10272 -2.20482
2.3337 -0.844372 -2.40238
1.00765 -1.64284 -2.41709
2.70352 -0.585827 -2.30861
0.602922 -1.37107 -2.81312
1.2461 -0.697081 -2.73505
3.04792 -0.330955 -1.99955
2.38043 -0.0191475 -2.60399
1.65641 -2.04584 -1.61369
0.795081 -2.08568 -2.29385
1.04153 -0.914754 -2.70145
0.783394 -1.50986 -2.56458
1.45055 -0.603966 -3.01204
0.987412 -1.80222 -2.27451
1.43585 -2.31183 -1.70887
3.05965 -0.843654 -1.31984
2.85998 -0.51923 -2.03598
2.78183 -0.361094 -2.31755
1.91073 -1.62335 -1.87989
2.06302 -0.514047 -2.63951
0.513914 -1.45515 -2.54908
1.68912 -0.342311 -2.72274
3.01268 -0.692491 -1.76339
1.67229 -0.35728 -2.8432
3.05709 -0.470304 -1.84548
2.52354 -0.732673 -2.21531
1.43159 -0.728058 -2.7294
1.61136 -0.417572 -2.87028
1.88409 -1.82992 -1.37308
1.58617 -1.38141 -2.46298
2.48061 -1.39608 -1.58029
1.83582 -0.339065 -2.8099
1.02478 -2.76776 -1.48943
2.74772 -0.730902 -1.65006
1.47899 -0.62751 -2.7303
2.74283 -0.801804 -2.03088
2.60209 -1.24601 -1.43829
2.308 -0.724168 -2.39136
2.6893 -0.716236 -2.06206
1.90781 -1.73639 -1.69102
2.04361 -1.51615 -1.96727
1.68266 -1.75258 -1.97744
1.0823 -2.07535 -2.01755
2.19929 -0.731473 -2.33762
1.23959 -1.35595 -2.56906
1.86131 -1.50226 -2.17832
1.63988 -0.974165 -2.4314
1.94139 -0.773103 -2.38572
1.11648 -1.89298 -2.24796
1.67045 -1.89228 -1.76336
1.07282 -1.77941 -2.28186
0.38143 -1.76978 -2.51958
0.286809 -1.68745 -2.85129
2.71247 -0.35689 -2.31567
0.421309 -1.53658 -2.68029
2.83795 -0.812515 -1.61451
2.75782 -0.563257 -2.27625
2.38709 0.00425776 -2.57574
1.6456 -2.08277 -1.59938
1.30282 -2.2633 -1.67984
1.46064 -2.02337 -1.78303
2.0478 -1.81999 -1.41269
2.01643 -1.22486 -2.01489
0.527679 -1.68602 -2.70011
2.74883 -0.422265 -2.31404
2.82733 -0.563936 -2.07565
1.55355 -1.78021 -2.07056
1.55175 -1.97997 -1.63936
1.40048 -1.0412 -2.6057
1.38653 -2.1389 -1.90909
1.73988 -2.17075 -1.38899
1.34869 -2.34129 -1.48363
1.61007 -0.884171 -2.6314
2.38537 -0.758067 -2.08315
1.97192 -1.89149 -1.6396
1.72668 -0.58103 -2.71455
1.17193 -2.47138 -1.6726
0.803912 -1.82585 -2.49609
0.769383 -1.22142 -2.67832
2.58157 -0.123351 -2.37148
2.54518 -1.35645 -1.28256
1.16749 -1.27869 -2.5989
1.10951 -2.69204 -1.4588
0.605177 -2.40291 -2.29424
2.72255 -0.663373 -2.09053
1.18104 -2.10262 -1.83431
1.48619 -1.50241 -2.11936
1.55229 -0.413431 -2.78861
1.62465 -1.99377 -1.96521
1.20557 -1.57155 -2.5404
1.9246 -1.03794 -2.45673
2.37201 -1.50875 -1.43744
2.23656 -1.6485 -1.34852
1.19347 -1.38689 -2.39178
1.60748 -0.972249 -2.60725
1.60916 -1.8133 -1.89843
1.63486 -1.84378 -1.92489
1.47819 -0.537049 -2.78942
2.62985 -1.23179 -1.44203
1.80754 -1.66108 -1.79223
2.10822 -1.7699 -1.13249
1.3513 -2.42721 -1.33338
2.75408 -0.770957 -2.02039
2.0404 -0.592035 -2.6375
2.06787 -0.813778 -2.32968
1.82318 -1.50202 -1.9237
0.674639 -1.80975 -2.66218
0.85842 -2.86664 -1.68986
2.14605 -1.46161 -1.79561
0.621096 -2.19195 -2.31901
1.89072 -1.5352 -1.97553
1.97863 -1.09854 -2.27998
1.52826 -0.980169 -2.33049
2.91488 -0.82533 -1.70255
1.55022 -1.87145 -1.8058
2.94569 -0.471575 -2.03684
1.32127 -2.55881 -1.39573
2.31315 -0.418276 -2.20937
1.29851 -1.63891 -2.46432
1.11203 -2.47154 -1.81193
1.51391 -0.745844 -2.7509
1.65411 -2.13377 -1.47659
1.15587 -0.826808 -2.73455
0.422211 -1.6236 -2.83518
2.30715 -1.14868 -2.14779
2.77468 -1.09594 -1.53902
0.854841 -2.33211 -2.24514
2.99932 -0.803764 -1.55144
1.64781 -1.18282 -2.55525
0.552624 -1.7965 -2.70938
1.20681 -2.37506 -1.61304
1.93593 -1.67582 -1.79917
0.967915 -2.36852 -1.91931
1.62477 -1.93296 -1.81637
1.81949 -2.05066 -1.37889
2.20416 -0.151608 -2.62714
2.62343 -0.558512 -2.09889
1.45569 -1.35893 -2.43954
0.981371 -2.63111 -1.6757
1.12385 -0.959449 -2.85619
1.18795 -2.59375 -1.45013
2.73459 -0.312715 -2.41104
1.3169 -2.52133 -1.3956
0.487612 -1.88935 -2.61411
2.44528 -0.281936 -2.34395
1.70407 -1.46579 -1.97525
2.50425 -1.28621 -1.68587
1.2317 -2.42037 -1.77723
1.9449 -1.56678 -1.99128
0.692938 -1.95021 -2.45479
2.90071 -0.770901 -1.82526
2.94292 -0.44102 -1.90287
2.62294 -0.487781 -2.15214
1.19262 -2.30051 -1.90311
0.326458 -2.22273 -2.59939
1.08944 -2.53987 -1.68344
0.49319 -2.00152 -2.40876
2.03052 -1.79768 -1.52166
1.89708 -1.25103 -2.30649
0.673511 -2.09872 -2.29983
2.6123 -1.237 -1.57484
0.955731 -1.73994 -2.34756
0.779726 -2.66191 -1.98534
1.97571 -0.631101 -2.79146
3.08683 -0.640354 -1.61528
1.03891 -1.77899 -2.26278
2.68499 -0.673474 -1.94192
0.872663 -1.42386 -2.72162
2.97039 -0.546534 -1.97904
0.815389 -1.63855 -2.5752
1.53896 -1.51597 -2.26721
2.95814 -0.868763 -1.58888
2.31422 -0.882704 -2.34111
1.18716 -1.30977 -2.57375
2.55949 -1.0423 -1.98413
0.582904 -1.59258 -2.87894
2.19871 -1.67325 -1.22911
1.91629 -1.55657 -1.82753
2.29326 -0.318753 -2.6672
2.2626 -1.41377 -1.72369
2.09552 -1.35826 -2.02506
1.50641 -2.37766 -1.36691
1.19639 -0.958822 -2.86573
1.30338 -0.730874 -2.66722
1.037 -2.83869 -1.56707
2.88398 -1.04664 -1.30318
2.62698 -1.15296 -1.87745
0.820454 -1.67402 -2.58382
2.47164 -0.319839 -2.56319
2.15008 -0.560747 -2.51356
2.1394 -1.27699 -1.9172
0.65742 -1.70652 -2.49764
0.420113 -2.19458 -2.46076
0.604925 -1.35815 -2.73081
1.96548 -1.28612 -2.2752
2.07552 -1.49304 -1.8291
1.07353 -2.54427 -1.63839
1.21892 -0.990841 -2.82256
1.11336 -2.4808 -1.71256
1.80812 -0.354377 -2.59591
1.14548 -2.25472 -1.73833
1.73416 -1.37569 -2.14027
1.08639 -1.82592 -2.17704
1.32979 -1.61028 -2.02883
0.0254667 -1.94029 -2.85067
1.70833 -0.768594 -2.67809
1.89409 -0.506201 -2.83555
2.40615 -1.31401 -1.96375
2.12649 -1.69637 -1.68769
2.2798 -1.38115 -1.85907
1.82655 -0.778662 -2.62552
1.36836 -1.16078 -2.66432
1.53804 -1.83975 -2.01368
1.12687 -1.92118 -2.39008
2.05218 -1.48463 -1.72658
1.7444 -1.56012 -1.97909
0.393406 -1.78563 -2.6518
1.75622 -1.78547 -1.89541
2.96807 -0.524773 -1.93046
1.96711 -1.76233 -1.63453
2.67929 -0.817849 -2.08567
1.88681 -0.220418 -2.66253
2.62213 -1.28772 -1.35802
0.854622 -1.44317 -2.71727
2.62792 -0.372029 -2.24259
2.22421 -0.520281 -2.57544
2.24118 -0.235692 -2.40981
2.15254 -1.26627 -1.94426
1.19916 -0.886119 -2.66583
1.86581 -0.233742 -2.58347
2.27484 -1.00376 -2.12172
1.03528 -1.04999 -2.88227
2.5459 -1.32619 -1.54737
1.34262 -0.869171 -2.58452
1.58745 -1.56758 -1.95159
2.67425 -0.324305 -2.45996
2.74443 -1.09101 -1.54422
1.46573 -1.83079 -1.87167
2.01939 -1.86977 -1.43568
3.05551 -0.834281 -1.35704
0.38849 -2.28042 -2.51336
1.56659 -1.54728 -2.01276
1.8377 -1.9391 -1.46846
1.50922 -1.14 -2.63867
2.46694 -1.29291 -1.70142
0.814276 -1.92361 -2.59191
2.565 -1.161 -1.82525
2.98541 -0.440169 -1.91839
0.836806 -1.9319 -2.17002
1.92713 -1.51582 -2.04953
0.751137 -1.41118 -2.85577
1.10021 -1.69387 -2.19304
2.86842 -0.846362 -1.71624
0.999077 -1.34298 -2.53226
2.50032 -1.00261 -1.97891
2.19218 -1.64609 -1.57146
0.624918 -1.65745 -2.56343
1.58771 -0.841616 -2.60082
0.757876 -2.25695 -2.22491
2.89695 -0.697214 -1.99962
1.6341 -0.960142 -2.64414
2.49219 -1.07457 -1.71913
1.11625 -2.18689 -2.11221
0.765078 -1.44434 -2.5613
1.7186 -0.530944 -2.52665
