ply
format ascii 1.0
comment Created by Open3D
element vertex 400
property double x
property double y
property double z
end_header
-2.2545 -2.0222 -0.429394
-1.5563 -2.60994 0.531315
-1.45407 -2.81143 0.105608
-1.70573 -2.43755 -0.78347
-1.37718 -2.83486 0.410762
-3.39252 -1.43562 -0.0961752
-1.42602 -2.76445 0.397439
-2.38384 -1.91734 0.495473
-2.2807 -2.10167 0.690481
-2.70179 -1.92866 -0.266738
-3.03786 -1.44482 0.304381
-2.26314 -2.23583 -0.455621
-1.27429 -3.08091 0.809909
-1.60362 -2.51285 -0.0963324
-1.36912 -2.86953 0.401766
-1.30459 -2.96045 0.2256
-1.60806 -2.21513 -0.618259
-2.5998 -1.91451 -0.907731
-1.49923 -2.52527 0.474493
-1.44153 -2.48552 1.06641
-2.33022 -2.03656 -0.492781
-2.7815 -1.3523 0.752478
-1.57285 -2.40713 0.116035
-2.47776 -1.61131 0.722971
-2.46194 -2.06829 0.252586
-2.34497 -2.56869 -0.49012
-1.57255 -2.55437 0.76598
-1.82937 -2.70353 0.244241
-2.62339 -1.48445 0.978166
-2.09342 -2.06366 0.658692
-2.16656 -2.19132 -0.148052
-1.53346 -2.94019 -1.00345
-2.63063 -1.91104 0.496514
-1.84909 -2.27402 -0.472077
-2.53931 -1.75421 -0.965716
-2.79809 -1.45174 0.0667879
-2.20345 -2.19477 0.797641
-1.76834 -2.14928 0.751705
-2.95597 -1.78773 0.298129
-3.53255 -1.50755 -0.286967
-2.6248 -1.49164 0.681062
-1.57664 -2.81363 0.0933892
-1.46067 -2.7902 0.310141
-2.23013 -2.07753 -0.51366
-3.05706 -1.2801 -0.750455
-2.86574 -1.67849 0.135736
-1.98423 -2.31739 0.0769285
-1.34182 -2.76826 0.143605
-2.67966 -2.07399 -0.41668
-3.12452 -1.30788 0.497754
-2.00997 -2.25245 0.808888
-2.014 -2.25673 0.0297355
-2.17017 -2.07697 0.0705153
-2.17697 -2.22774 -0.548707
-1.34224 -2.69049 -0.332694
-1.52118 -2.9487 -0.42121
-1.53639 -2.64774 -0.529618
-3.3144 -1.01943 0.143353
-2.6166 -2.20985 -0.749859
-2.69895 -1.65413 -0.0708073
-2.88818 -1.48466 -0.571617
-1.62119 -2.8094 -0.913454
-2.43748 -2.00189 -0.117826
-2.09075 -2.16039 -0.370143
-2.87715 -1.60265 -0.141324
-1.65941 -2.65715 -0.52784
-2.76316 -1.53796 0.547237
-3.03098 -1.837 -0.937704
-2.6725 -1.7403 0.55585
-2.55133 -1.47485 -0.512284
-2.04512 -2.2191 0.0196278
-3.30368 -1.15163 0.171239
-1.92658 -2.52236 0.56704
-1.805 -2.01568 1.10185
-3.07788 -1.39886 -0.161886
-1.68578 -2.83953 -0.515073
-3.30348 -1.04192 0.548024
-3.17492 -1.25844 0.619392
-2.35255 -2.0536 0.454016
-2.0403 -2.00972 0.894193
-3.14932 -1.44009 -0.0447421
-2.01601 -2.08083 0.55113
-2.30953 -2.08276 -0.656089
-2.66636 -1.48665 0.393894
-3.53749 -1.02904 0.0495473
-2.57086 -1.72542 0.437134
-1.3323 -2.96731 0.439191
-1.54707 -2.38927 0.889038
-3.2599 -1.05002 0.789165
-1.63432 -2.69761 -0.03564
-2.48626 -1.72413 0.236448
-1.44289 -2.89309 0.816898
-2.06226 -2.35751 0.811892
-2.76953 -1.57309 -0.446228
-1.37291 -2.68955 0.545269
-2.14835 -1.91198 1.03995
-2.49468 -1.7683 -0.57696
-1.34141 -2.99145 -1.04664
-2.75776 -1.43038 -0.0968429
-3.07898 -1.82765 -0.430101
-3.19151 -1.15583 0.0543419
-2.35659 -1.9669 0.257616
-2.5962 -1.45684 -0.414062
-3.19542 -1.2122 0.431503
-3.11464 -1.429 -0.680094
-2.26556 -1.4115 -0.660141
-2.27105 -1.86285 0.360417
-2.31117 -1.90677 0.881633
-2.80222 -1.41312 -0.985965
-2.12653 -2.28281 0.738621
-2.23549 -2.18113 0.547112
-3.10751 -1.21916 -0.606096
-3.11714 -1.61798 -0.037722
-1.97287 -2.61905 -0.0284479
-2.46823 -1.99175 -0.984057
-3.17628 -1.05032 -0.748374
-1.83679 -2.15311 0.917138
-3.18459 -1.46151 -0.128744
-2.63537 -1.83126 0.282865
-1.99842 -2.44034 -0.00416304
-1.71486 -2.59089 0.645313
-1.36278 -2.94054 -0.944994
-2.54734 -1.88033 -0.463683
-2.60606 -1.78207 -0.581584
-2.60653 -2.1647 -0.380894
-2.67529 -1.75713 0.312202
-2.31349 -2.13584 0.658008
-3.44127 -1.25561 0.0810687
-1.53167 -2.68643 -0.805335
-2.96577 -1.81401 -0.345177
-2.52955 -1.6269 0.586117
-1.97803 -2.70036 0.417397
-2.50503 -1.42111 -0.41549
-2.89771 -1.00364 -0.842228
-2.55208 -1.82548 0.585793
-2.71019 -1.76177 -0.755359
-3.26492 -1.15115 0.709206
-3.33681 -1.29689 0.225134
-1.82249 -2.15806 -0.66175
-2.9856 -1.20517 -0.600837
-3.50863 -1.19874 -0.332269
-2.90933 -1.57968 0.700864
-2.40598 -1.90828 -0.88056
-3.3998 -1.4761 0.0591183
-3.2465 -1.30792 -0.884681
-1.53877 -2.50067 0.93516
-1.44006 -2.74291 -0.130834
-1.40276 -2.86606 0.85667
-1.63127 -2.67987 -0.987079
-3.04326 -1.50985 0.000143839
-2.70341 -1.45897 -0.26697
-2.15297 -2.32744 -0.583996
-2.25589 -1.86937 -0.54945
-2.77098 -1.40192 0.869911
-2.35299 -1.939 0.902632
-1.41467 -2.7632 -0.769066
-1.59013 -2.654 0.120116
-3.5476 -1.18703 -0.500575
-2.87371 -1.40603 0.795057
-1.96214 -2.28101 0.28217
-1.85811 -2.38194 -0.421401
-2.67502 -1.20155 1.12449
-2.74717 -1.64108 0.364261
-2.25764 -2.48045 -0.233059
-2.53233 -1.97828 -0.813076
-1.26608 -2.97282 0.550724
-1.95467 -2.86341 -0.329938
-3.25821 -0.945006 0.626954
-2.18427 -1.69215 -0.804896
-1.19625 -2.93756 -0.674808
-1.62107 -2.66093 -0.0517248
-2.62712 -1.65586 -0.469099
-1.69946 -3.00579 -0.300861
-2.86748 -1.59943 0.750631
-1.48242 -2.93752 -0.260328
-1.49231 -3.10995 -0.172852
-3.18226 -0.927181 -0.101011
-3.21726 -1.5029 -0.0388292
-3.15996 -1.50599 0.492663
-3.00629 -1.56453 0.357919
-1.23258 -2.76592 0.695015
-1.6158 -2.69178 -0.0946392
-1.46851 -2.55716 0.386533
-1.42049 -2.6304 -0.061336
-2.51852 -1.61292 -0.862757
-2.75243 -1.56041 0.474197
-1.74504 -2.53435 0.169778
-3.00792 -1.01733 -0.474711
-2.032 -1.83015 -0.752113
-1.60335 -2.68766 0.687462
-1.42411 -2.95432 -0.513501
-1.49874 -2.80668 0.495045
-3.35789 -1.2139 0.44184
-3.0251 -1.30517 0.282573
-1.88777 -2.15444 -0.269537
-1.46132 -2.97127 -1.12408
-2.42749 -2.32498 0.545192
-1.47292 -2.82077 0.273483
-1.69093 -2.41233 0.805617
-3.07013 -1.21547 -0.987997
-2.30628 -1.78088 0.356902
-3.48341 -1.34897 -0.216574
-2.86587 -1.63823 -0.279077
-1.57565 -2.68968 0.8128
-3.0767 -1.40605 -0.787226
-2.71699 -1.16317 0.930264
-1.70802 -2.1983 -0.338927
-1.47685 -3.06605 -0.926552
-2.28242 -2.01516 -1.03126
-1.8733 -2.3418 0.164478
-3.62705 -1.22157 -0.0988734
-2.07091 -2.44165 -0.0836769
-1.08325 -2.85449 -0.623998
-1.70361 -2.81681 0.105928
-2.80072 -1.30665 0.734455
-2.12942 -2.0166 -0.862954
-2.04204 -2.38139 -0.024693
-2.46511 -1.69839 0.588557
-3.19983 -1.45718 -0.0849683
-1.37525 -3.04225 0.123364
-2.32096 -1.80125 0.823516
-3.32354 -1.10866 0.533422
-1.81634 -2.43873 -0.565537
-1.57761 -2.60591 0.626675
-2.60155 -2.16277 -0.996535
-1.95975 -2.1163 -0.967108
-2.24921 -1.99577 0.729721
-1.94888 -2.57305 -0.916022
-2.64636 -1.65978 -0.430754
-1.94568 -2.10417 -0.69334
-3.10724 -1.32475 0.586153
-1.84998 -2.61125 -1.04754
-2.16377 -2.16186 0.719671
-1.36778 -2.95352 0.360711
-3.38721 -0.915833 0.198007
-2.04423 -2.04797 -0.0656988
-2.81945 -1.29475 0.717786
-2.48006 -1.62158 -0.542786
-2.16397 -2.20052 -0.671669
-3.07627 -1.47128 -1.06669
-1.56795 -2.78765 -1.07063
-2.50329 -1.63011 -0.779607
-2.07278 -2.20868 -0.277902
-2.5079 -1.73906 -0.776178
-2.27808 -2.23059 0.427209
-2.23434 -1.83418 -0.900414
-2.87558 -1.6248 -0.115928
-2.02239 -2.66231 -0.785094
-2.74242 -2.11075 -0.102467
-3.20835 -1.51354 0.376384
-1.54998 -2.90445 -0.555118
-1.82596 -2.26278 -0.926704
-2.70167 -1.71474 0.175642
-2.0724 -2.07455 -0.844812
-1.50816 -2.5397 -0.933283
-2.50197 -1.67612 0.085283
-2.40637 -1.97488 0.128227
-1.66648 -2.51074 -0.630399
-1.23887 -2.77135 0.666219
-2.52425 -1.8432 -0.375596
-1.72418 -2.36352 -0.110776
-2.83673 -1.74261 0.375409
-1.83148 -2.59213 0.652827
-2.9344 -1.72698 -0.260133
-2.06746 -2.46242 0.352993
-2.71066 -1.35362 -0.912383
-1.46453 -2.55413 -0.0870498
-2.99831 -1.1356 -0.482736
-2.43523 -1.39208 0.824821
-2.61833 -2.01855 -0.838635
-2.80887 -1.7409 0.118726
-2.87293 -1.32647 -0.678439
-1.48446 -2.42243 -0.853238
-3.20767 -1.12812 -1.05114
-1.80314 -2.68292 -0.0790298
-1.54819 -2.35305 -0.114097
-3.50341 -0.995361 -0.205911
-2.56942 -1.93647 -0.398992
-3.07404 -1.61571 0.120598
-2.75596 -1.61758 -0.410723
-2.79803 -1.798 0.454903
-3.01613 -1.15778 0.903497
-1.80252 -2.63184 0.365224
-3.51722 -1.07945 0.0663592
-2.09888 -2.29969 -0.489572
-2.59468 -1.92124 -0.0458011
-1.84008 -1.95688 -0.579312
-2.95385 -1.64581 -0.299074
-2.59889 -1.6767 -0.198121
-1.42351 -2.79686 0.803323
-2.31162 -2.0236 0.280831
-2.07909 -2.00212 0.568569
-1.95011 -2.55035 -0.248126
-1.59961 -2.90615 -0.0798789
-1.57489 -2.29985 0.697791
-3.20692 -1.01055 0.550538
-1.99941 -2.08714 1.00031
-1.86858 -2.52761 -0.924075
-2.27507 -2.27094 -0.603674
-3.35466 -1.27954 -0.435631
-1.62441 -2.76905 0.557839
-1.74864 -2.69882 0.164684
-3.20047 -1.1009 -0.170589
-2.43834 -1.72846 -0.415864
-3.2419 -1.06617 -0.628243
-2.35462 -2.17555 -0.449007
-2.82756 -1.65477 -0.376961
-1.4714 -2.8218 0.790847
-3.01571 -1.55723 -0.0812827
-2.51379 -1.80739 -0.218144
-3.02111 -1.08876 -0.571753
-1.52242 -2.71045 0.230706
-3.19616 -1.44486 -0.138211
-3.41444 -1.39516 0.454792
-2.68366 -1.5527 0.566084
-1.85589 -2.23232 -0.0732833
-2.64973 -1.78057 0.800097
-1.95444 -2.55818 -0.991666
-2.93747 -1.29331 -0.921061
-1.97417 -2.35115 -0.733954
-1.91982 -2.54574 -0.367837
-1.88789 -2.45015 -0.89109
-2.77521 -1.69225 0.426669
-1.13229 -2.95391 -0.89149
-2.1189 -2.08806 0.783194
-1.81825 -2.34713 0.0483592
-1.5007 -2.35847 0.827627
-2.73731 -1.22563 0.95228
-2.25723 -1.9602 -0.648662
-1.80485 -2.3183 0.517274
-1.51242 -2.61264 -0.445529
-3.13116 -1.32545 0.137776
-1.23661 -2.99268 -0.732041
-2.6443 -1.66308 -0.983041
-3.12197 -1.39018 0.661831
-3.11326 -1.17855 -0.248671
-2.99653 -1.27433 -0.846318
-3.20013 -1.35231 -0.574793
-3.4195 -1.12132 -0.197313
-1.72083 -2.66379 0.2158
-2.23135 -2.61729 -0.732618
-1.97116 -2.25458 0.871795
-1.15084 -2.73112 -0.177638
-3.07201 -1.64483 0.157205
-2.73236 -2.06684 0.117099
-1.92746 -2.64364 -0.018926
-1.99454 -2.25194 0.226204
-1.23443 -2.69069 0.656592
-2.20631 -2.38072 -0.499932
-1.15921 -2.91418 1.00573
-2.77969 -1.19299 1.02348
-2.07321 -2.1177 0.724642
-3.10069 -0.914493 0.235207
-1.4693 -2.97846 -0.243382
-2.12879 -2.40433 -0.262956
-2.82198 -1.34066 -0.749716
-2.86085 -1.8398 0.442304
-3.19838 -1.41956 0.438523
-2.99573 -1.33013 0.575844
-2.31516 -1.89586 0.566727
-2.47125 -1.90672 0.850417
-3.61684 -1.21567 0.0718206
-1.60594 -2.49632 -0.428432
-2.6747 -1.51713 -0.769667
-3.58586 -1.15952 0.264056
-1.59944 -2.28233 -0.813338
-2.87109 -1.46053 -0.687301
-1.83874 -2.23271 0.0934525
-1.43359 -2.545 -0.419084
-1.27208 -2.90955 0.677573
-3.26367 -1.2555 0.456167
-2.88405 -1.25366 -0.124959
-1.78092 -2.39877 -0.741401
-2.79608 -1.46008 -0.324718
-3.17134 -1.61068 0.345193
-2.62971 -1.79647 -0.665299
-2.18787 -2.33771 -0.160052
-1.93022 -2.59089 0.549798
-1.49148 -3.01505 -0.401796
-2.08081 -2.09773 0.181219
-2.85751 -1.18324 1.04969
-2.25549 -1.97735 0.0895819
-2.87336 -1.28477 -0.227795
-1.26834 -2.83884 -0.88752
-1.13564 -2.77985 0.223263
-1.46653 -2.85621 0.243878
-1.47283 -2.68284 -0.145911
-2.08987 -2.29925 -0.352201
-3.26661 -1.30539 0.52073
-1.4485 -3.03598 0.0661068
-2.13936 -2.0284 -0.767821
-1.53959 -2.73969 -0.565864
-1.62092 -2.70606 -0.162207
-1.53453 -3.00407 0.486389
-1.99714 -2.32089 0.279967
-2.23565 -1.9889 0.738367
-2.12714 -2.11195 -0.916658
-2.06438 -2.14224 0.109148
-2.45619 -2.01483 -0.269156
-2.30482 -2.43942 -0.556619
