ply
format ascii 1.0
comment Created by Open3D
element vertex 250
property double x
property double y
property double z
end_header
0.0122317 -2.98988 0.118904
0.0537152 -3.07394 2.1569
2.11327 -1.78122 1.25422
1.41401 -2.99967 0.672655
-0.156178 -3.45641 0.400707
1.47905 -2.86325 -0.357022
2.87029 -1.36961 -1.18676
2.22906 -2.16217 0.350688
-0.302158 -3.26277 -0.360754
1.2647 -3.181 0.727769
0.719765 -3.36005 1.68405
1.58664 -2.84132 0.109494
0.68267 -3.58722 0.973681
1.33319 -2.85083 -0.393054
-0.11988 -4.19756 0.185247
0.177337 -3.5137 1.1093
1.28262 -2.94301 -0.887514
2.7171 -1.62969 -0.38533
1.55494 -2.64658 -1.12179
2.08132 -1.86861 1.48957
0.226898 -3.64792 1.57094
3.20097 -1.14406 0.399728
1.5067 -2.81557 0.377376
2.297 -2.05684 -0.23006
1.96494 -2.20857 1.03595
0.426904 -3.5247 0.199936
1.77435 -2.39633 -0.316345
0.15544 -3.32039 1.85321
2.07826 -2.15261 0.729995
1.33299 -3.11965 1.00304
-0.0849246 -2.92514 0.0340539
0.109829 -3.0508 2.16984
-0.380515 -3.32583 0.441975
0.333686 -3.07953 2.01667
-0.0430673 -3.14038 2.08142
2.63687 -1.62341 -1.37469
1.94942 -2.02499 1.00995
0.116734 -3.1474 2.05
-0.0258114 -4.07067 -0.729039
2.3027 -1.94793 0.86674
2.22163 -2.02198 0.902629
1.97217 -2.3832 -0.0877343
0.557742 -3.56472 1.52439
0.230445 -3.57903 1.18454
1.45688 -2.52406 1.15193
0.385509 -3.4193 1.76595
2.61987 -1.36524 0.801728
0.26098 -3.53663 1.58069
1.97975 -2.27906 -1.07011
0.226971 -3.806 0.247896
0.802791 -2.89449 2.17796
1.57032 -2.66816 0.779649
2.76186 -1.34423 0.575176
-0.718325 -3.93622 0.519226
1.94532 -2.48981 0.844979
3.14045 -1.0107 0.58511
1.90464 -2.46965 0.635362
-0.428885 -3.50245 -0.480523
1.58187 -2.7041 1.67033
1.50293 -2.86967 -0.317171
2.16288 -2.22914 0.344454
2.41105 -1.93931 -0.246366
2.15136 -2.00793 1.33198
0.0629763 -3.50808 0.605636
-0.378819 -3.65585 1.16287
0.23536 -3.32271 1.85095
0.943277 -3.47329 0.920206
3.01536 -1.33952 -0.306922
0.248333 -3.20706 0.104344
1.29135 -3.05869 -0.0977386
1.30863 -3.10589 1.34056
2.43294 -1.59869 1.36134
-0.717945 -3.86582 -0.532491
2.0618 -2.27142 0.230595
1.98093 -2.26062 0.349559
2.39496 -1.86445 -1.51384
3.12381 -0.979746 0.827459
0.928011 -3.29682 1.4236
0.757857 -3.60438 0.944427
1.73808 -2.67945 0.265374
1.39198 -2.76517 -0.482737
0.808497 -3.05691 1.86624
0.0479162 -3.85753 0.405985
2.16937 -2.08652 -0.431369
1.90382 -2.51478 0.293893
0.0375312 -3.43671 1.37939
2.58324 -1.73177 -0.514441
-0.114616 -3.3047 -0.135506
3.16994 -1.08816 1.58692
0.805416 -3.63877 0.446069
1.93541 -1.96738 0.995139
3.0031 -1.33732 0.0991175
0.198368 -3.78845 0.168571
1.36848 -3.0083 1.4073
0.487232 -3.68792 1.29149
2.32594 -1.90392 0.669175
0.200162 -3.42577 -0.46992
-0.255894 -3.43337 0.272041
1.31732 -2.67163 1.93992
0.840494 -3.17755 -0.834037
0.453022 -3.84416 0.879447
0.0615196 -3.62552 0.697409
0.594033 -3.41321 0.877635
0.00589988 -3.45132 -0.46195
0.592134 -3.42316 1.74448
1.33735 -2.85417 -0.168263
1.3698 -2.90648 -0.405357
3.24822 -0.896058 0.683797
2.86811 -1.48277 -0.3678
1.86781 -2.52151 -0.0594021
1.83169 -2.28065 1.04777
1.31466 -2.71067 1.81721
2.00546 -2.35288 0.208035
-0.406298 -3.63887 -0.809888
3.50414 -0.757018 0.697572
1.08768 -3.33775 1.03968
2.90875 -1.40195 0.188783
-0.641079 -3.80834 -0.063861
0.2959 -3.72393 0.897417
0.490122 -3.50499 1.67933
2.64766 -1.5935 -1.24635
0.950689 -2.99933 2.07753
2.02192 -2.40402 0.510691
0.457758 -3.65001 1.39962
2.78115 -1.50616 -0.807196
3.04295 -1.27384 0.00458595
2.27437 -1.69948 1.92714
1.51979 -2.63022 1.09367
1.54218 -2.82268 -0.247614
2.74886 -1.37855 0.758018
2.43385 -1.91618 0.356917
2.79752 -1.55462 -0.45938
1.09256 -3.17782 1.70555
2.96024 -0.989275 0.974848
2.04263 -1.96877 1.47303
2.39779 -1.92511 0.592675
3.01553 -1.23933 0.377411
2.55993 -1.82204 0.804958
0.430428 -3.1723 2.07307
2.5795 -1.72748 -0.999931
0.169485 -3.18063 2.05718
-0.267031 -3.55357 1.28172
2.44949 -1.52013 0.893257
0.626863 -3.60631 0.887036
0.226202 -3.83647 0.35266
0.148461 -3.104 2.10906
0.527638 -3.55542 -0.57748
2.73982 -1.57345 -0.103382
0.731386 -2.9882 2.1766
0.421206 -3.55025 0.00993491
2.92871 -1.15635 0.832176
0.511731 -3.3683 -0.00920542
2.38849 -1.77223 0.337978
0.152898 -3.38653 1.50471
0.0816465 -3.09302 0.0385359
-0.536442 -4.39624 0.463199
2.31974 -2.02322 -0.62088
1.59782 -2.40896 -0.322007
1.24213 -2.92138 0.0937174
2.48878 -1.75685 0.0115183
0.48109 -3.34634 1.54934
1.70305 -2.51741 1.45185
-0.192893 -3.50676 1.71308
0.411522 -3.76077 0.83136
2.09816 -2.12804 0.824447
3.0019 -1.32457 -0.495307
2.75202 -1.5298 -0.897372
1.03204 -3.15272 1.86406
0.391255 -3.23407 0.0759252
2.47058 -1.67418 1.17235
0.392374 -3.69727 1.37833
2.01622 -2.27298 -1.07755
2.00498 -2.34426 0.686268
0.187574 -3.18339 2.03286
-0.232347 -3.17121 2.0091
0.448021 -3.60098 1.51518
-0.0236933 -3.82961 1.39596
0.836105 -3.55727 0.664804
2.76587 -1.19967 1.25393
0.883911 -3.48304 -0.177722
2.79685 -1.29363 0.99894
1.36563 -2.64219 -0.908734
-0.0112136 -3.5833 -0.149587
1.40092 -2.95521 1.38805
0.745231 -3.60517 0.971868
0.238291 -2.86348 2.32218
2.2483 -2.07709 0.858708
1.49302 -2.89675 -0.348446
0.250252 -3.96381 0.875583
0.762215 -3.65725 0.102695
0.417919 -3.78911 1.19308
0.495757 -3.03191 2.12285
1.06762 -3.36847 0.229212
-0.561557 -4.12726 0.823602
2.00687 -2.32625 -0.11162
-0.205808 -3.29539 1.87763
3.10258 -0.830137 1.11307
-0.0436547 -3.82886 1.39863
1.31419 -3.14559 0.403806
1.39359 -2.99162 0.845631
3.14481 -0.461747 1.5045
3.32509 -0.179804 1.7318
2.84763 -0.564229 1.68598
2.70026 -0.373086 1.63549
3.25005 -0.547508 1.91988
2.85352 -0.926885 0.987417
2.34654 -0.843346 1.8308
2.36103 -1.35636 0.675436
2.94477 -0.130327 2.09975
2.76038 -0.820198 1.61073
2.05997 -1.28492 1.62692
3.28275 -0.221508 1.95323
2.96461 0.0292855 2.36634
2.89762 -0.101171 2.07863
2.31933 -0.542696 1.87064
2.93682 -0.346131 1.67884
2.62279 -0.744819 1.80167
3.17168 -0.325896 1.73161
2.37928 -1.12049 1.61658
2.50388 -1.30903 1.71594
2.6945 -0.553369 1.5314
2.24632 -1.53357 1.50931
2.2094 -1.1843 1.59426
3.11852 -0.189472 1.7688
2.2713 -0.487629 2.13534
3.00332 -0.123446 2.0434
2.76309 -0.563722 2.20389
2.59424 -1.18342 1.39742
2.08512 -0.737954 1.87518
3.21136 -0.0401411 1.91223
2.72447 -0.251789 2.15946
2.80494 -1.03602 1.90894
3.2399 0.13491 2.31886
3.26548 -0.0694193 1.98307
2.34713 -1.42667 1.24047
2.5143 -0.71639 1.77483
2.93443 -0.81173 1.04105
2.07643 -1.01012 1.27661
3.0131 -0.819092 1.35594
2.56465 -1.05382 1.60468
2.69896 -0.372816 2.20243
3.18903 -0.402292 1.71253
2.65229 -0.406406 2.10767
3.01455 0.0988902 2.35324
2.81642 -0.97824 1.0257
2.71644 -0.783457 1.50206
2.95471 -0.663358 1.12679
2.61583 -0.310373 1.88833
2.69181 -0.722238 1.60472
2.81266 -0.905154 1.65512
