ply
format ascii 1.0
comment Created by Open3D
element vertex 400
property double x
property double y
property double z
end_header
-1.74881 1.16315 -2.2545
-1.49017 2.27034 -1.5563
-1.92014 2.07916 -1.45407
-2.28738 1.1932 -1.70573
-1.72673 2.32549 -1.37718
-1.02301 0.801962 -3.39252
-1.69179 2.27939 -1.42602
-1.01993 1.74118 -2.38384
-0.97141 1.91049 -2.2807
-1.51499 1.0849 -2.70179
-0.808176 1.24113 -3.03786
-1.87264 1.18516 -2.26314
-1.56787 2.65956 -1.27429
-1.8849 1.80513 -1.60362
-1.75194 2.32998 -1.36912
-1.93912 2.26565 -1.30459
-2.08064 1.31537 -1.60806
-1.94514 0.59001 -2.5998
-1.50468 2.25287 -1.49923
-1.04534 2.6127 -1.44153
-1.7852 1.08363 -2.33022
-0.473923 1.60849 -2.7815
-1.69054 1.95432 -1.57285
-0.684976 1.78778 -2.47776
-1.25591 1.57354 -2.46194
-2.04726 1.19058 -2.34497
-1.28163 2.38899 -1.57255
-1.689 1.96374 -1.82937
-0.379451 1.79312 -2.62339
-1.02354 1.99761 -2.09342
-1.65821 1.45452 -2.16656
-2.72581 1.21796 -1.53346
-0.960791 1.60721 -2.63063
-1.97441 1.35294 -1.84909
-1.90508 0.513631 -2.53931
-1.03244 1.20204 -2.79809
-0.94301 2.00753 -2.20345
-1.06291 2.23159 -1.76834
-0.987472 1.31599 -2.95597
-1.16524 0.612804 -3.53255
-0.631122 1.67625 -2.6248
-1.90467 2.01011 -1.57664
-1.76072 2.2093 -1.46067
-1.83668 1.11651 -2.23013
-1.43264 0.366847 -3.05706
-1.07896 1.25405 -2.86574
-1.59551 1.72024 -1.98423
-1.8949 2.15313 -1.34182
-1.69314 1.00766 -2.67966
-0.574605 1.28103 -3.12452
-1.00727 2.13214 -2.00997
-1.59406 1.66346 -2.014
-1.44927 1.59212 -2.17017
-1.94532 1.144 -2.17697
-2.18559 1.78278 -1.34224
-2.34355 1.69224 -1.52118
-2.25975 1.52918 -1.53639
-0.661944 0.924733 -3.3144
-1.99465 0.79534 -2.6166
-1.24559 1.18204 -2.69895
-1.45847 0.656399 -2.88818
-2.58201 1.21884 -1.62119
-1.49562 1.32441 -2.43748
-1.80725 1.30909 -2.09075
-1.23631 1.04087 -2.87715
-2.24099 1.47877 -1.65941
-0.725123 1.53379 -2.76316
-1.85379 0.374618 -3.03098
-0.82888 1.60273 -2.6725
-1.47063 0.838805 -2.55133
-1.57714 1.63584 -2.04512
-0.709495 0.974649 -3.30368
-1.339 2.07922 -1.92658
-0.716613 2.37446 -1.805
-1.11178 0.894394 -3.07788
-2.32058 1.51935 -1.68578
-0.366463 1.16585 -3.30348
-0.438695 1.29601 -3.17492
-1.11991 1.74618 -2.35255
-0.825077 2.14097 -2.0403
-1.03758 0.956819 -3.14932
-1.13076 1.97961 -2.01601
-1.91922 0.966699 -2.30953
-0.839867 1.49192 -2.66636
-0.684857 0.743966 -3.53749
-0.937356 1.5929 -2.57086
-1.78006 2.39044 -1.3323
-1.11623 2.45186 -1.54707
-0.171924 1.27025 -3.2599
-1.92799 1.87092 -1.63432
-1.10246 1.50828 -2.48626
-1.4305 2.5326 -1.44289
-1.03733 2.10692 -2.06226
-1.44372 0.835072 -2.76953
-1.55817 2.3886 -1.37291
-0.634313 2.13004 -2.14835
-1.67488 0.882304 -2.49468
-2.81699 1.28253 -1.34141
-1.14157 1.09182 -2.75776
-1.50907 0.777206 -3.07898
-0.818675 0.951821 -3.19151
-1.22659 1.61629 -2.35659
-1.39124 0.902265 -2.5962
-0.566209 1.19649 -3.19542
-1.4601 0.454095 -3.11464
-1.57446 0.795851 -2.26556
-1.11976 1.71062 -2.27105
-0.723021 1.96721 -2.31117
-1.68979 0.286055 -2.80222
-1.04872 2.03222 -2.12653
-1.13085 1.86984 -2.23549
-1.30163 0.460002 -3.10751
-1.12544 1.00799 -3.11714
-1.81795 1.70118 -1.97287
-2.05502 0.593788 -2.46823
-1.28406 0.242947 -3.17628
-0.918807 2.27925 -1.83679
-1.10015 0.883676 -3.18459
-1.08842 1.4793 -2.63537
-1.70962 1.677 -1.99842
-1.35857 2.24691 -1.71486
-2.71941 1.34328 -1.36278
-1.65 0.98369 -2.54734
-1.66676 0.83777 -2.60606
-1.72649 1.08385 -2.60653
-1.02403 1.46883 -2.67529
-1.00454 1.87791 -2.31349
-0.795865 0.861494 -3.44127
-2.46274 1.3149 -1.53167
-1.46473 0.888843 -2.96577
-0.787602 1.68955 -2.52955
-1.5241 1.98682 -1.97803
-1.38833 0.92753 -2.50503
-1.35892 0.243776 -2.89771
-0.870634 1.69065 -2.55208
-1.75045 0.64058 -2.71019
-0.286403 1.25246 -3.26492
-0.731485 1.01259 -3.33681
-2.04272 1.17589 -1.82249
-1.31101 0.509349 -2.9856
-1.04271 0.516418 -3.50863
-0.579597 1.51163 -2.90933
-1.95562 0.687138 -2.40598
-0.927288 0.905293 -3.3998
-1.4991 0.175424 -3.2465
-1.13251 2.49112 -1.53877
-2.0552 1.90292 -1.44006
-1.39678 2.57425 -1.40276
-2.55964 1.11662 -1.63127
-1.06069 1.05124 -3.04326
-1.2789 0.984042 -2.70341
-2.0235 1.14783 -2.15297
-1.74865 1.02576 -2.25589
-0.398244 1.65968 -2.77098
-0.707518 1.94825 -2.35299
-2.50057 1.41702 -1.41467
-1.8049 1.9934 -1.59013
-1.13981 0.356206 -3.5476
-0.435785 1.56548 -2.87371
-1.43457 1.86357 -1.96214
-1.99405 1.41476 -1.85811
-0.117304 1.79641 -2.67502
-0.916367 1.45063 -2.74717
-1.84155 1.40279 -2.25764
-1.92958 0.717205 -2.53233
-1.71498 2.49707 -1.26608
-2.15395 1.54016 -1.95467
-0.269865 1.22011 -3.25821
-1.82797 0.777764 -2.18427
-2.5714 1.64123 -1.19625
-1.92383 1.85873 -1.62107
-1.52512 0.893597 -2.62712
-2.25408 1.7097 -1.69946
-0.556293 1.55576 -2.86748
-2.23465 1.82892 -1.48242
-2.25824 1.92461 -1.49231
-0.808363 0.78052 -3.18226
-1.05055 0.939605 -3.21726
-0.656746 1.26893 -3.15996
-0.829005 1.30096 -3.00629
-1.51465 2.56868 -1.23258
-1.97018 1.83618 -1.6158
-1.59086 2.21669 -1.46851
-1.9544 1.93985 -1.42049
-1.76853 0.573816 -2.51852
-0.79455 1.50261 -2.75243
-1.68019 1.93188 -1.74504
-1.12646 0.556139 -3.00792
-1.89305 0.924316 -2.032
-1.39669 2.34394 -1.60335
-2.42805 1.6678 -1.42411
-1.62337 2.30763 -1.49874
-0.516697 1.10022 -3.35789
-0.761752 1.21605 -3.0251
-1.77212 1.47312 -1.88777
-2.83413 1.15716 -1.46132
-1.15009 1.7678 -2.42749
-1.79966 2.18425 -1.47292
-1.15791 2.32805 -1.69093
-1.53797 0.112278 -3.07013
-1.07704 1.68096 -2.30628
-1.04626 0.654054 -3.48341
-1.34982 0.946787 -2.86587
-1.30638 2.42648 -1.57565
-1.52091 0.365236 -3.0767
-0.26125 1.7134 -2.71699
-1.87197 1.5028 -1.70802
-2.75247 1.3421 -1.47685
-2.12647 0.6289 -2.28242
-1.5662 1.83644 -1.8733
-0.868693 0.636935 -3.62705
-1.75274 1.58782 -2.07091
-2.51552 1.71205 -1.08325
-1.87086 1.95558 -1.70361
-0.463992 1.58666 -2.80072
-2.04623 0.84008 -2.12942
-1.68741 1.63276 -2.04204
-0.83205 1.73125 -2.46511
-1.0644 0.907381 -3.19983
-2.03807 2.17592 -1.37525
-0.72387 1.93447 -2.32096
-0.403064 1.15222 -3.32354
-2.12627 1.32921 -1.81634
-1.41142 2.31449 -1.57761
-2.13201 0.578524 -2.60155
-2.19214 0.841193 -1.95975
-0.901345 1.94197 -2.24921
-2.40253 1.0157 -1.94888
-1.49898 0.919142 -2.64636
-2.0144 1.08515 -1.94568
-0.514226 1.3318 -3.10724
-2.52437 0.954142 -1.84998
-1.00228 1.9953 -2.16377
-1.82331 2.31919 -1.36778
-0.554587 0.901091 -3.38721
-1.55311 1.54295 -2.04423
-0.467647 1.56714 -2.81945
-1.57876 0.879484 -2.48006
-2.01425 1.04076 -2.16397
-1.72756 0.124184 -3.07627
-2.68206 1.10266 -1.56795
-1.72871 0.661228 -2.50329
-1.77246 1.39951 -2.07278
-1.78397 0.693971 -2.5079
-1.2365 1.78595 -2.27808
-1.95564 0.713361 -2.23434
-1.23001 1.06484 -2.87558
-2.35025 1.1163 -2.02239
-1.47999 1.21489 -2.74242
-0.743022 1.18895 -3.20835
-2.40644 1.56504 -1.54998
-2.26662 0.972068 -1.82596
-1.09977 1.36437 -2.70167
-2.07466 0.894566 -2.0724
-2.47206 1.17523 -1.50816
-1.18391 1.38799 -2.50197
-1.31453 1.50824 -2.40637
-2.23245 1.35694 -1.66648
-1.53743 2.54873 -1.23887
-1.57676 1.05666 -2.52425
-1.79815 1.71016 -1.72418
-0.934114 1.41885 -2.83673
-1.32584 2.18478 -1.83148
-1.36904 0.950156 -2.9344
-1.44439 1.87685 -2.06746
-1.62682 0.371191 -2.71066
-1.9255 1.88429 -1.46453
-1.19747 0.589936 -2.99831
-0.517623 1.84887 -2.43523
-1.95305 0.671897 -2.61833
-1.13219 1.27906 -2.80887
-1.44341 0.520338 -2.87293
-2.3624 1.22101 -1.48446
-1.5032 -0.036758 -3.20767
-1.91826 1.75737 -1.80314
-1.82758 1.78366 -1.54819
-0.851838 0.564044 -3.50341
-1.63166 1.03946 -2.56942
-1.01774 1.13247 -3.07404
-1.44576 0.881226 -2.75596
-0.905055 1.48523 -2.79803
-0.19294 1.48925 -3.01613
-1.571 2.04263 -1.80252
-0.702641 0.777079 -3.51722
-1.95595 1.24046 -2.09888
-1.37721 1.29306 -2.59468
-1.88157 1.18704 -1.84008
-1.35153 0.895045 -2.95385
-1.3614 1.13171 -2.59889
-1.40092 2.52464 -1.42351
-1.24495 1.65997 -2.31162
-1.0682 1.94938 -2.07909
-1.94358 1.54284 -1.95011
-2.06903 1.89608 -1.59961
-1.21583 2.32005 -1.57489
-0.376123 1.22661 -3.20692
-0.78124 2.21389 -1.99941
-2.39766 1.02993 -1.86858
-1.98698 1.06864 -2.27507
-1.1823 0.523073 -3.35466
-1.52933 2.26982 -1.62441
-1.76207 1.95278 -1.74864
-0.942231 0.762009 -3.20047
-1.55921 1.03182 -2.43834
-1.20864 0.33504 -3.2419
-1.82213 1.13947 -2.35462
-1.4303 0.888217 -2.82756
-1.41047 2.49266 -1.4714
-1.14651 1.01444 -3.01571
-1.45504 1.17874 -2.51379
-1.22348 0.484649 -3.02111
-1.76674 2.11181 -1.52242
-1.09624 0.86803 -3.19616
-0.569385 1.07742 -3.41444
-0.735232 1.58896 -2.68366
-1.68325 1.65448 -1.85589
-0.649045 1.71797 -2.64973
-2.4427 0.944934 -1.95444
-1.56284 0.25607 -2.93747
-2.16452 1.10254 -1.97417
-2.02918 1.46511 -1.91982
-2.33245 1.02961 -1.88789
-0.885569 1.47577 -2.77521
-2.73533 1.4975 -1.13229
-0.929778 2.04742 -2.1189
-1.66183 1.78163 -1.81825
-1.16059 2.4415 -1.5007
-0.262954 1.7082 -2.73731
-1.85952 0.963067 -2.25723
-1.31053 2.09441 -1.80485
-2.18987 1.59857 -1.51242
-0.855036 1.07141 -3.13116
-2.63078 1.59128 -1.23661
-1.84994 0.42979 -2.6443
-0.473388 1.35048 -3.12197
-1.05032 0.756794 -3.11326
-1.49776 0.298381 -2.99653
-1.33789 0.489977 -3.20013
-0.92892 0.64493 -3.4195
-1.71383 1.99474 -1.72083
-2.25594 1.06034 -2.23135
-0.966702 2.18394 -1.97116
-2.13801 2.00163 -1.15084
-1.00447 1.1597 -3.07201
-1.30055 1.35568 -2.73236
-1.83194 1.73336 -1.92746
-1.4551 1.80708 -1.99454
-1.50688 2.53239 -1.23443
-1.98504 1.20465 -2.20631
-1.36516 2.80965 -1.15921
-0.173407 1.69655 -2.77969
-1.00039 2.04691 -2.07321
-0.589161 1.07571 -3.10069
-2.24617 1.8567 -1.4693
-1.84903 1.42479 -2.12879
-1.50326 0.478562 -2.82198
-0.918441 1.44533 -2.86085
-0.653481 1.21677 -3.19838
-0.553992 1.39754 -2.99573
-0.970471 1.81526 -2.31516
-0.706757 1.85263 -2.47125
-0.742479 0.750223 -3.61684
-2.10185 1.54367 -1.60594
-1.63469 0.571227 -2.6747
-0.574065 0.863879 -3.58586
-2.24277 1.16862 -1.59944
-1.52151 0.553425 -2.87109
-1.57061 1.78471 -1.83874
-2.15183 1.63821 -1.43359
-1.58752 2.55887 -1.27208
-0.548919 1.17099 -3.26367
-1.0483 0.975492 -2.88405
-2.22695 1.18766 -1.78092
-1.30157 0.898252 -2.79608
-0.820449 1.20343 -3.17134
-1.72426 0.760089 -2.62971
-1.73409 1.46235 -2.18787
-1.38263 2.07441 -1.93022
-2.36985 1.73626 -1.49148
-1.39745 1.71351 -2.08081
-0.119212 1.63873 -2.85751
-1.37194 1.55107 -2.25549
-1.13419 0.903463 -2.87336
-2.64524 1.40466 -1.26834
-1.88697 2.3147 -1.13564
-1.83982 2.17427 -1.46653
-2.0291 1.86358 -1.47283
-1.86498 1.35293 -2.08987
-0.516855 1.19956 -3.26661
-2.06043 2.09794 -1.4485
-1.99059 0.923634 -2.13936
-2.33079 1.52121 -1.53959
-2.02341 1.78728 -1.62092
-1.71557 2.31194 -1.53453
-1.44784 1.8504 -1.99714
-0.894646 1.95354 -2.23565
-2.13104 0.81982 -2.12714
-1.47322 1.67792 -2.06438
-1.60276 1.20477 -2.45619
-2.03542 1.13071 -2.30482
